<?xml version="1.0" encoding="utf-8"?>
<!-- Generator: Adobe Illustrator 24.0.3, SVG Export Plug-In . SVG Version: 6.00 Build 0)  -->
<svg version="1.1" id="Layer_1" xmlns="http://www.w3.org/2000/svg" xmlns:xlink="http://www.w3.org/1999/xlink" x="0px" y="0px"
	 viewBox="0 0 50 50" style="enable-background:new 0 0 50 50;" xml:space="preserve">
<g>
	<path d="M7.08,20.96c12.04,0.02,24.09,0.04,36.13,0.05c-5.5-6.19-11.1-12.3-16.78-18.33c-0.09-0.09-0.18-0.19-0.3-0.21
		c-0.17-0.03-0.33,0.09-0.45,0.2C19.09,8.4,13.51,15.22,6.79,20.78L7.08,20.96z"/>
	<g>
		<path d="M7.08,22.46c12.04,0.02,24.09,0.04,36.13,0.05c1.36,0,1.9-1.61,1.06-2.56c-3.24-3.64-6.5-7.26-9.8-10.84
			c-1.54-1.67-3.09-3.34-4.64-5c-1.22-1.3-2.86-4.06-4.91-2.73c-1.81,1.18-3.4,3.03-4.93,4.54c-1.5,1.48-2.98,2.98-4.45,4.49
			c-3.16,3.22-6.34,6.42-9.82,9.31c-0.77,0.64-0.45,1.88,0.3,2.36c0.1,0.06,0.2,0.12,0.3,0.19c1.64,1.03,3.15-1.57,1.51-2.59
			c-0.1-0.06-0.2-0.12-0.3-0.19c0.1,0.79,0.2,1.57,0.3,2.36c3.36-2.79,6.44-5.87,9.5-8.99c1.48-1.5,2.95-3.01,4.45-4.49
			c0.75-0.74,1.5-1.47,2.27-2.19c0.44-0.41,0.88-0.82,1.32-1.23c0.25-0.23,0.82-0.95,1.14-1.02c-0.39-0.05-0.77-0.1-1.16-0.15
			c0.8,0.55,1.51,1.58,2.17,2.28c0.72,0.77,1.44,1.54,2.16,2.32c1.38,1.49,2.76,2.98,4.13,4.48c2.8,3.06,5.57,6.13,8.32,9.23
			c0.35-0.85,0.71-1.71,1.06-2.56c-12.04-0.02-24.09-0.04-36.13-0.05C5.15,19.46,5.15,22.46,7.08,22.46z"/>
	</g>
</g>
<g>
	<path d="M19.35,21.92c0.01,8.47-0.15,16.93-0.48,25.39c3.94,0.19,8.13,0.62,12.04,0.19c0-6-0.31-12.79-0.03-18.92
		c0.1-2.16,0.36-4.33,0.22-6.49"/>
	<g>
		<path d="M17.85,21.92c0.01,8.47-0.15,16.93-0.48,25.39c-0.03,0.84,0.72,1.46,1.5,1.5c4.01,0.2,8.03,0.6,12.04,0.19
			c0.81-0.08,1.5-0.62,1.5-1.5c-0.01-4.23-0.14-8.47-0.15-12.7c0-2.07,0.02-4.15,0.12-6.21c0.1-2.17,0.33-4.32,0.22-6.49
			c-0.1-1.92-3.1-1.93-3,0c0.11,2.17-0.12,4.33-0.22,6.49c-0.1,2.07-0.12,4.14-0.12,6.21c0.01,4.23,0.14,8.47,0.15,12.7
			c0.5-0.5,1-1,1.5-1.5c-4.01,0.41-8.03,0.02-12.04-0.19c0.5,0.5,1,1,1.5,1.5c0.33-8.46,0.49-16.92,0.48-25.39
			C20.84,19.99,17.84,19.99,17.85,21.92L17.85,21.92z"/>
	</g>
</g>
</svg>
