<svg xmlns="http://www.w3.org/2000/svg" id="Layer_1" x="0" y="0" version="1.1" viewBox="0 0 50 50" xml:space="preserve"><defs/><style>.st0{fill:#fff}</style><path d="M7 21h36.2A854.9 854.9 0 0026.4 2.7c0-.1-.1-.2-.3-.2-.1 0-.3 0-.4.2-6.6 5.7-12.2 12.5-19 18l.4.3z" class="st0"/><path d="M7 22.5h36.2c1.4 0 2-1.6 1-2.5A840 840 0 0029.9 4C28.6 2.8 27 .1 25 1.4c-1.8 1.2-3.4 3-5 4.5l-4.4 4.5c-3.1 3.2-6.3 6.4-9.8 9.3-.8.7-.4 1.9.3 2.4l.3.2c1.7 1 3.2-1.6 1.5-2.6a5 5 0 01-.3-.2l.3 2.4a128 128 0 009.5-9l4.5-4.5L24 6.2 25.4 5c.2-.3.8-1 1.1-1l-1.2-.2c.8.5 1.6 1.6 2.2 2.3a491.5 491.5 0 0114.6 16l1-2.6h-36c-2 0-2 3 0 3z" class="st0"/><g><path d="M19.4 22c0 8.4-.2 16.9-.5 25.3 4 .2 8.1.6 12 .2 0-6-.3-12.8 0-19 0-2 .3-4.3.2-6.4" class="st0"/><path d="M17.9 22c0 8.4-.2 16.9-.5 25.3 0 .9.7 1.5 1.5 1.5 4 .2 8 .6 12 .2.8 0 1.5-.6 1.5-1.5l-.1-12.7v-6.2c.2-2.2.4-4.3.3-6.5-.1-2-3.1-2-3 0 .1 2.2-.1 4.3-.2 6.5l-.1 6.2.1 12.7L31 46c-4 .4-8 0-12-.2l1.5 1.5c.3-8.4.5-17 .4-25.4 0-2-3-2-3 0z" class="st0"/></g></svg>