<svg xmlns="http://www.w3.org/2000/svg" viewBox="0 0 1200 1552.9">
  <defs/>
  <defs>
    <style>
      .cls-1{fill:#fff}
    </style>
  </defs>
  <g id="Layer_2" data-name="Layer 2">
    <g id="Layer_1-2" data-name="Layer 1">
      <path d="M0 744.2v-188l54.7-1 185.8-3c20.3-.2 40.6 0 61 0l.2-3.5c-3-1.6-6-3.4-9.1-4.7-48.2-20-96.3-40-144.5-59.6a231.1 231.1 0 00-100.3-16.7c-15.8.8-31.9-4.8-47.8-7.5V0h1200v1544.1c0 3-1.3 5.9-2 8.8v-431.2h-165.5c-11.8 0-15.7-3.6-16.9-15.5-.2-2.6 0-5.2 0-7.8V797h181.6v-53.2H848.9c5-20.3 9.4-39.3 14.5-58.1 7.3-27 16-53.7 22.2-81 3.4-15.3 2.7-31.5 3.9-48l308-4.5v-56.5c-14.3 8.3-28.3 7.4-42.7 4.5-14-3-19.7 1-23.5 15l-1.7 6.6c-3 11.9-11.8 18-24 16.3-6.1-1-12-2.8-18.2-3.5-37.8-4.5-75.7-8.6-113.5-13-28-3.4-56-10.7-84.1-.9-.5.1-1.2-.5-2.4-1 0-3.9-.6-8.2.2-12.2 6.4-34.2 11.1-69 20.3-102.4 8.1-30 13.1-58.9 4.5-89.3-14.3-50.3-61.5-81.3-110.2-72.3-23.3 4.4-37.4 16.2-29.2 43.1a11 11 0 01.3 2c1.4 11.1-3 17-14.3 17.2a137.4 137.4 0 01-23.3-1.2c-33.4-4.8-66.8-8.2-100.3-3.1-18 2.7-35.8 6.8-53.8 9.4-21.5 3-34.6-4.7-44.5-24-4.5-9-8.8-18.6-15.4-25.9-37.4-41-103.8-34.3-137.4 13-24 34-22.7 70.3-9.5 107.3 6.4 18.1 13.6 36 21.2 53.6a68.3 68.3 0 01-6.5 70.3 120.2 120.2 0 00-21.3 61.1c-2 36.5-9.2 71.8-23.7 105.3-10.5 24.3-5.5 45 11.8 63.8 2.2 2.4 4.2 5 7.4 8.7z" class="cls-1"/>
      <path d="M0 744.2h363.6c-3.2-3.8-5.2-6.4-7.4-8.7-17.3-18.8-22.3-39.6-11.8-63.9a303 303 0 0023.7-105.2c1.2-22.4 9-43 21.3-61.2a68.3 68.3 0 006.5-70.3 864.3 864.3 0 01-21.2-53.5c-13.2-37.1-14.5-73.3 9.6-107.3 33.5-47.3 100-54 137.3-13 6.6 7.2 10.9 16.9 15.4 25.8 9.9 19.3 23 27 44.4 24 18-2.6 35.9-6.7 53.9-9.4 33.6-5 67-1.7 100.3 3.1a137.4 137.4 0 0023.4 1.2c11.2-.3 15.7-6.1 14.2-17.2a11 11 0 00-.3-2c-8.1-26.9 6-38.7 29.3-43 48.7-9.1 95.9 22 110.1 72.2 8.6 30.4 3.6 59.3-4.5 89.3-9.2 33.4-14 68.2-20.3 102.4-.8 4-.1 8.3-.1 12.2 1.1.5 1.8 1.1 2.3 1 28.1-9.8 56-2.5 84 .8 38 4.5 75.8 8.6 113.6 13 6.1.8 12.1 2.7 18.2 3.5 12.2 1.8 21-4.4 24-16.2.6-2.2 1-4.5 1.7-6.7 3.8-13.9 9.5-17.8 23.5-15 14.4 3 28.4 3.8 42.6-4.4v56.5l-307.9 4.4c-1.2 16.6-.5 32.8-4 48.1-6 27.3-14.8 54-22 81-5.2 18.8-9.5 37.8-14.6 58h348.5v53.4h-181.7v301.3c0 2.6-.2 5.2 0 7.8 1.2 12 5.2 15.5 17 15.5H1198V1553H0v-430.8h126.5V797H0zm617.6 661l-1.7 2.6c9.4 8.8 18.7 17.8 28.3 26.3 2 1.6 5.5 2.1 8.3 2a69.3 69.3 0 0047-21c2.9-2.8 7-4.3 10.5-6.5-1.8 4-2.8 8.9-5.7 12-12.2 13.5-28.2 20.2-48.5 23.2 19.4 13.7 38 23.3 59.2 26.8 2.4.4 6.3-1.8 8-4 8.5-11 16.5-22.5 24.8-33.7 1.5-2 4-3 6-4.6.2 2.6 1.5 5.8.4 7.8a229.4 229.4 0 01-13 21.8c-3.2 4.8-7.3 9.1-11.7 14.5 38.4 1 88.9-20.4 92.8-75.3q4.2-57 7.6-114.2c4.1-69.3 7-138.7 12.3-208 2.4-30.6 9.4-61 15.2-91.4 1.6-8.4 4.8-18.6 15.2-19.3 9.7-.8 14.2 8.2 18.2 15.6a165.4 165.4 0 0116.6 113.6c-4 20 7.7 37.6 30.7 44-1.3-8.4-2.6-15.8-3.5-23.2-.3-2.2.6-4.6 1-6.9 2 1.6 5.5 3 5.8 4.8 1.5 7.6 1.8 15.4 3 23.1.3 2.5 1.3 6.4 3 7 14.5 5.4 29.4 7 47.8 3.5l-24.3-36.7c8.9-1.2 8.9-1.2 30.3 34 12.5-5.3 16.1-12.4 11-24.5a168.6 168.6 0 00-13-24c-21.9-34.4-42.5-69.6-57-107.8-10.8-28.3-19.6-57.3-29.8-85.8A231.2 231.2 0 00836 795.6c-6.7 8.6-12 17.8-19.4 24.9a464.8 464.8 0 01-107.3 77.7 117.9 117.9 0 01-60.8 11.7c-19.5-1-39-3.1-58.4-5.3-51-5.9-100.7-17.5-147.2-40.4-23.5-11.5-40-28.7-45.3-55.2-1-4.8-2-9.8-4.4-13.9-1.5-2.5-6-5.4-8.3-4.8-39.6 9-71.3 27.5-85.4 68.8a212.8 212.8 0 01-41.6 69.1 345.7 345.7 0 00-36.8 49.3c-16.8 28.7-35.1 55.5-62 76-10.2 7.6-9.2 16.1.7 25.2 23.3-14.6 23.3-14.6 27.6-9.2l-23 15.8 40.8 21.7c6.6-9.7 11.8-17.7 17.6-25.2 1.3-1.6 5-1.4 7.5-2-.7 2.5-1 5.2-2.3 7.3-3.6 6-8 11.7-11 18-.9 1.8 1.5 7.3 3.5 7.9 11.4 3.6 23 7.6 34.8 9.1 15.6 2 20.2-4.3 16.1-19.3-7.5-28-3-40 21.7-56a81.1 81.1 0 0030.1-35 721 721 0 0129.4-57.3c17-29.5 28.5-60.7 33.2-94.4.6-4.2 2-8.3 3-12.4h3.3c.7 3.3 2 6.7 1.8 10-2.3 25.6-3.7 51.3-7.5 76.7-9 60.4-24.9 119.2-45.5 176.7-9.8 27.2-9.6 54.5-5.2 82.8 6 37.6 10.9 75.4 14.6 113.3 3 30.2-10.9 49.7-38.1 56.5-8.4 2-8.7 5.2-3 11.4 20.7 21.7 36.7 21.4 56.1-1.3 1.5-1.7 2.6-4 4.3-5.3 2.3-1.8 5-3 7.6-4.5-.6 3.1-.2 7.2-2 9.2-8.3 9-17.3 17.4-26.6 26.6l42.4 20.8 21.3-46 3.4 1.3c4 9.1-4 15.6-6.7 23.2-2.8 8.2-6.9 16-10.7 24.7l43 18.2c3.9-11 7-21 10.8-30.6.8-2 4-3.1 6-4.6.4 2.2 1.5 4.8.9 6.8-3.1 10.1-6.7 20.2-10.7 32 13.8 3.5 26.5 7.3 39.5 10 15.8 3.2 24.8-1 29.2-16.6a192.5 192.5 0 007.3-47c.5-17-2.4-34.3-4-51.4-.2-1.5-2.1-3.3-3.7-4-16-7-25.6-20.2-32.4-35.2-38-84.1-53.5-170.5-24.7-261.2 8.5-27 17.5-53.6 39.3-73 31.6-28 68.8-36.6 110-31.3 62.3 8 116.2 64.4 121.4 126.7 3.4 39.3-4 76.8-19 112.7-12.2 28.7-27 56.4-39.7 85-9.3 21-15.4 43.8-38.1 55.5 10 10.5 9.8 16 0 25.4-5.7 5.4-11.7 10.4-17 16.1-11.5 12.4-12.8 25.4-5 39.7 26 4.7 49.7-4.3 73.9-11.2-19.4 17.6-43.4 19-67.7 19.5zm-249-783.4c-5.7 17.4-9.5 33.7-16.3 48.5-11.4 24.8-6.4 45.1 12.1 64 20.9 21.1 33.9 47 40.7 75.7a60.4 60.4 0 0030 41.4 392.3 392.3 0 0052.5 23.5c47.8 17.5 98 23 148.4 27.6 30 2.8 59-1.3 84.4-18.1 27.6-18.4 54.4-38.2 80.6-58.7 22-17 32.7-41 38.8-68.2 8.9-40 18.8-79.8 30.4-119 7.8-26.7 13.4-53.2 10.6-80.8-2.9-28.2-.1-56 4-83.8l2-16.3c-14.8 6.6-28.2 12.3-41.5 18.5L627 578.5c-27.8 13-55.8 25.3-83.6 38-21.7 10-35 28.7-48.5 45 18.3 1.2 36.5 1.8 54.5 3.9 35.6 4.2 71 8.9 107.1 4.9 15.4-1.7 28.3 6.2 32.1 21.5 3.3 13.2 6.1 28.5 2.7 41-12.2 43.8-38.2 77.7-80.7 96.4-32.1 14-65 17-96.9-1-21.3-12-36.4-28.7-39.9-54.6-2.8-20.9-7.9-41.4-11.8-62.2-1.8-9-3.2-18-5-28-18.5 2.6-37.2-1.6-54-13.2s-27.4-27.9-34.3-48.4zm6.3-63.5c2.2-.4 2.7-.4 2.8-.6l3.7-4.6c19-26.2 44.8-39.8 77.2-37.4 31.1 2.3 61.3 9.5 88 26.4a76 76 0 0073.8 6.8A407.2 407.2 0 00679 518a628 628 0 01201.3-85.3c10.8-2.4 15.2-7.1 16.7-17.5 1.2-8 4.2-15.7 7-23.3 7.5-20.8 8.2-42 4.3-63.6-9.6-52.8-55-86.4-105.1-77.8-22 3.8-27.9 12.4-23.7 34.4l.6 3.8c2 14-5.7 23.7-20 24.3-7.4.4-15-.4-22.4-1-20.7-2-41.5-6.7-62.1-5.8a684 684 0 00-84.1 10.5c-32 5.5-51-2.2-62.7-31.9-14.4-36.7-68-54.9-104.7-36.1-42.1 21.5-61.8 68.8-46.8 117.4 7.1 23 16.8 45.2 25.6 67.5 10.3 26 9.7 50.7-7 74.2-5.1 7.1-8.7 15.4-12 23.5-3.5 8.5-5.8 17.4-9 27zm233.1 752c23.8 5.6 38-9.2 48.3-31.6 12.2-26.9 25.2-53.5 37.7-80.4 14.5-31.4 25.7-64 29.5-98.6 8.6-78.8-41.5-146-117.4-157.3-51-7.6-102.2 14.9-123.2 57a302.1 302.1 0 00-31.4 146.6c1.3 37.4 10 73.5 21.1 109 7.3 23 15.6 45.7 32 64.2 12.7 14.3 22.4 16.2 38.5 6.4 19-11.5 39.5-16.8 64.9-15.3zm-93.7-641.9c-7.7 1.4-17.8 2.6-27.5 5-20.8 5.4-24.5 13.7-19.3 34.4 5.5 21.7 9 43.9 13.9 65.7 1.7 7.8 3.2 16.5 7.7 22.8a81.7 81.7 0 0079.2 36.7c56.4-6 91.5-39.8 113.2-90a64 64 0 002.5-44c-4.5-16-13.6-21.8-30.1-21.7-23.4.2-46.9 0-70.2-1.5-22.4-1.4-44.7-4.6-69.4-7.4zM157.4 797.3v247.5a189.5 189.5 0 0044.6-49.1c14-22.7 28-45.7 45.2-66 20.6-24.2 37.4-49.9 48.4-79.6a93.7 93.7 0 0139.5-48.2c1.6-1 3-2.5 5.3-4.6zm827.6.6H851c47 50.5 58.9 70.4 75.6 122.4a939.5 939.5 0 0025.5 71.6c9 21.8 20.3 42.6 30.6 63.8l2.5-.8zm-703.7 323.8c14 0 29.3.2 44.6-.3 2.2 0 5.4-3.4 6.3-5.8a1062.5 1062.5 0 0045.2-168.4c2-12.2 3.7-24.4 5.5-36.6-4.2 5.5-6.2 11.6-9 17.2-14 27.2-29 54-41.7 81.7-9 19.8-21.6 35.2-40 46.5-16 9.9-19.8 21.4-15.2 40 1.9 7.8 2.7 15.8 4.3 25.7zm563.2-.7h59.7c-7.3-13.8-4.2-26.8-2-40 5.9-34.4-1.4-66.7-17.3-97.2-2.7-5.1-7.2-9.2-11-13.8l-4.1 1c-20 47.6-19.5 98.9-25.3 150zm-687-32v32.2h62c-12.2-5.8-22.1-10.3-31.8-15.3-10-5.2-19.6-10.9-30.3-16.9z"/>
      <path d="M0 797h126.5v325H0z" class="cls-1"/>
      <path d="M0 460.2c16 2.7 32 8.3 47.8 7.5A231.1 231.1 0 01148 484.4c48.2 19.6 96.3 39.6 144.5 59.5 3.1 1.3 6 3.1 9.1 4.7l-.3 3.6c-20.3 0-40.6-.3-60.9 0q-92.9 1.3-185.8 3l-54.7 1z"/>
      <path d="M617.6 1405.3c24.3-.6 48.3-2 67.6-19.6-24.2 6.8-47.8 15.9-73.8 11.1-7.9-14.2-6.6-27.2 4.9-39.6 5.3-5.7 11.3-10.7 17-16.1 9.9-9.5 10-15 0-25.4 22.7-11.8 28.8-34.6 38.1-55.6 12.7-28.5 27.5-56.2 39.7-85a235.2 235.2 0 0019-112.6C725 1000.2 671 943.8 609 935.8c-41.3-5.3-78.5 3.3-110 31.3-22 19.4-30.8 46-39.4 73-28.8 90.7-13.3 177 24.7 261.2 6.8 15 16.4 28.3 32.5 35.2 1.5.7 3.4 2.5 3.5 4 1.7 17.1 4.6 34.3 4.1 51.4a192.5 192.5 0 01-7.2 47c-4.4 15.6-13.5 19.8-29.3 16.6-13-2.6-25.7-6.5-39.4-10 4-11.8 7.5-21.8 10.6-32 .6-2-.5-4.5-.8-6.8-2 1.5-5.2 2.6-6 4.6-3.8 9.6-7 19.6-10.9 30.6l-43-18.2c3.9-8.8 7.9-16.5 10.7-24.7 2.7-7.6 10.6-14.1 6.7-23.2l-3.3-1.3-21.3 46-42.4-20.8c9.2-9.2 18.2-17.6 26.5-26.6 1.8-2 1.4-6 2-9.2-2.6 1.5-5.3 2.7-7.6 4.5-1.7 1.4-2.8 3.6-4.2 5.3-19.5 22.7-35.5 23-56.1 1.3-5.8-6.2-5.5-9.3 2.9-11.4 27.2-6.8 41-26.3 38.1-56.5-3.7-37.9-8.6-75.7-14.5-113.3-4.5-28.3-4.7-55.6 5-82.8a925.9 925.9 0 0045.7-176.7c3.8-25.4 5.2-51.1 7.4-76.8.3-3.2-1.1-6.6-1.7-10h-3.4c-1 4.2-2.4 8.3-3 12.6a260.9 260.9 0 01-33.2 94.3 734.6 734.6 0 00-29.4 57.4 81.1 81.1 0 01-30 35c-24.7 16-29.3 28-21.7 55.9 4 15-.6 21.4-16.2 19.3-11.8-1.5-23.4-5.5-34.8-9.1-2-.6-4.4-6.1-3.5-7.9 3-6.3 7.4-12 11-18 1.3-2.1 1.6-4.8 2.4-7.3-2.6.6-6.3.4-7.6 2-5.8 7.5-11 15.6-17.6 25.2l-41-21.7 23-15.8c-4.2-5.4-4.2-5.4-27.5 9.1-10-9-10.9-17.6-.7-25.2 26.9-20.4 45.2-47.2 62-76a345.7 345.7 0 0136.8-49.2 212.8 212.8 0 0041.6-69.2c14-41.3 45.8-59.8 85.4-68.8 2.3-.5 6.8 2.4 8.2 4.9 2.4 4 3.6 9 4.5 13.8 5.3 26.6 21.8 43.7 45.3 55.3C489.3 887 539 898.5 590 904.4a900 900 0 0058.4 5.4c21 1 41.8-2 60.7-11.8 39.6-20.5 75.2-46.9 107.4-77.7 7.4-7 12.7-16.2 19.4-25 35.5 28 61.1 63 76.4 105.4 10.2 28.5 19 57.5 29.7 85.8 14.5 38.3 35.2 73.4 57.1 107.9a168.6 168.6 0 0113 24c5.1 12 1.5 19.2-11 24.5-21.5-35.2-21.5-35.2-30.4-34l24.4 36.7a85.7 85.7 0 01-47.9-3.5c-1.6-.6-2.6-4.5-3-7-1.1-7.7-1.4-15.5-2.9-23.1-.4-2-3.8-3.2-5.9-4.8-.3 2.3-1.2 4.6-1 6.8 1 7.4 2.3 14.8 3.6 23.2-23-6.4-34.6-24-30.7-44 7.9-39.8 2.6-77.7-16.6-113.5-4-7.5-8.6-16.4-18.2-15.7-10.5.8-13.6 11-15.2 19.4-5.8 30.3-12.8 60.7-15.2 91.4-5.4 69.2-8.2 138.6-12.3 208q-3.4 57.1-7.6 114.2c-4 54.8-54.4 76.2-92.9 75.2 4.4-5.3 8.5-9.6 11.8-14.5a229.4 229.4 0 0013-21.8c1-2-.2-5.1-.4-7.8-2 1.6-4.5 2.7-6 4.7-8.4 11.1-16.3 22.6-24.8 33.6-1.7 2.2-5.6 4.5-8 4-21.3-3.5-39.8-13-59.2-26.8 20.3-3 36.3-9.7 48.5-23.2 2.8-3.1 3.8-8 5.7-12-3.6 2.2-7.7 3.8-10.5 6.6a69.3 69.3 0 01-47 20.9c-2.8.2-6.4-.3-8.3-2-9.7-8.5-18.9-17.4-28.3-26.2.7-.7 1.2-1.6 1.8-2.4z" class="cls-1"/>
      <path d="M368.6 621.9c7 20.4 17.5 36.8 34.3 48.4s35.5 15.7 54.1 13.2c1.7 9.9 3.1 19 4.9 28 4 20.7 9 41.3 11.8 62.2 3.5 25.9 18.6 42.6 40 54.6 31.8 17.9 64.7 15 96.8 1 42.5-18.7 68.5-52.6 80.7-96.4 3.5-12.5.6-27.8-2.7-41-3.8-15.3-16.7-23.2-32-21.5-36 4-71.6-.8-107.2-5-18-2-36.2-2.6-54.5-3.9 13.6-16.3 26.8-35 48.5-44.9 27.8-12.8 55.8-25 83.6-38q109.3-51 218.5-102.5c13.2-6.2 26.6-11.9 41.4-18.4l-2 16.3a336.7 336.7 0 00-4 83.7c2.8 27.7-2.8 54.2-10.6 80.8a1847 1847 0 00-30.4 119.1c-6 27.1-16.9 51-38.8 68.2-26.1 20.5-53 40.3-80.6 58.6-25.3 16.8-54.3 21-84.4 18.2-50.3-4.7-100.5-10.1-148.4-27.6a392.3 392.3 0 01-52.4-23.6c-16-8.7-25.7-23-30-41.4a158 158 0 00-40.7-75.7c-18.5-18.8-23.6-39-12.1-64 6.7-14.8 10.5-31 16.2-48.4zm350 49.9c27 .5 47-16.4 49.8-42.2 1.5-13.8-6.8-25.9-20.1-26.3a265.8 265.8 0 00-46.7 2.4c-17.5 2.6-27.2 19.2-23.5 36.6 4 18.6 18.3 29 40.5 29.5zm6.8-102.6c-11.5 4.1-25.7 9-39.7 14.4-1.6.6-2.2 3.8-3.2 5.8 2.1 0 5 1.1 6.4.2 22-13.4 45.1-14.7 69.3-6.8 2 .6 4.8-1 7.2-1.6-2-1.7-3.6-4.5-5.7-5-10-2.4-20.2-4.2-34.2-7z" class="cls-1"/>
      <path d="M374.9 558.3c3.1-9.6 5.5-18.5 9-27 3.3-8 6.8-16.4 11.9-23.5 16.8-23.5 17.4-48.1 7.1-74.2-8.8-22.3-18.5-44.5-25.6-67.5-15-48.6 4.7-95.9 46.8-117.4 36.7-18.8 90.3-.6 104.7 36.1 11.7 29.7 30.6 37.4 62.7 32a684 684 0 0184-10.6c20.6-1 41.5 3.8 62.2 5.7 7.5.7 15 1.5 22.4 1.1 14.3-.6 22-10.3 20-24.3l-.6-3.8c-4.2-22 1.7-30.6 23.7-34.4 50-8.6 95.5 25 105.1 77.8 4 21.5 3.2 42.8-4.4 63.6-2.8 7.6-5.7 15.4-7 23.3-1.4 10.4-5.8 15.1-16.6 17.5A627 627 0 00679 518a407.2 407.2 0 01-58.6 31 76 76 0 01-73.7-7c-26.7-16.8-57-24-88-26.3-32.5-2.4-58.2 11.2-77.3 37.4a106 106 0 01-3.6 4.6c-.2.2-.7.2-2.9.6zM437.6 268c-3.9.3-7.8.4-11.7.9-19.6 2.4-26.3 10.8-20.5 29.7 5.4 17.7 13 34.7 20.3 51.7 5.8 13.5 11.4 16 25.5 12.3 5-1.3 10.2-3 14.3-5.9 14.6-9.8 28.9-20 42.9-30.5 12.2-9.2 12.7-13.1 4.4-25.9A50.7 50.7 0 00504 290c-18.9-16.8-42.2-20.4-66.3-22zm388.7 93.1c12.4-1.4 24.4-2.3 36.3-4.1 15.7-2.4 19.7-7.5 20.2-23.6 1-26.9-13.3-45.6-33.4-60.5-15.4-11.5-27.7-8.6-35.3 9.1-7.9 18.5-14 37.8-20.3 56.9-3 9.2 1.2 16.1 10.7 18.7 7.1 1.9 14.6 2.4 21.8 3.5zM608 1310.3a107.5 107.5 0 00-64.8 15.3c-16.2 9.7-25.8 7.8-38.6-6.4-16.4-18.5-24.7-41.3-32-64.3a409.8 409.8 0 01-21-109A302.1 302.1 0 01483 999.4c21-42.2 72.1-64.7 123-57 76 11.3 126 78.5 117.5 157.2-3.8 34.7-15 67.2-29.5 98.7-12.5 26.8-25.4 53.5-37.7 80.4-10.2 22.4-24.5 37.1-48.3 31.6zM514.3 668.4c24.7 2.8 47 6 69.4 7.4 23.3 1.5 46.8 1.7 70.2 1.5 16.5 0 25.6 5.7 30.1 21.6a64 64 0 01-2.5 44c-21.7 50.3-56.8 84.2-113.2 90.1a81.7 81.7 0 01-79.2-36.7c-4.5-6.3-6-15-7.7-22.8-4.9-21.8-8.4-44-13.9-65.7-5.2-20.7-1.5-29 19.3-34.4 9.7-2.4 19.8-3.6 27.5-5zm24.1 111.4c.1-13-6.2-19.8-18.6-19.8-13.9 0-27.5 10.6-27.4 21.5.2 10.2 12.2 19.6 25.3 19.8s20.6-7.5 20.7-21.5zm61.7-15.2c-13.2 0-23.8 9.8-23.7 21.9 0 10.7 9.3 18.9 21.5 19a21.4 21.4 0 0022-21.2 19.4 19.4 0 00-19.8-19.7zM157.4 797.3h183c-2.3 2-3.6 3.6-5.2 4.6a93.7 93.7 0 00-39.5 48.2 266 266 0 01-48.4 79.6C230 950 216 973 202 995.7a189.5 189.5 0 01-44.6 49.1zM985 798v256.9l-2.4.8c-10.3-21.2-21.6-42-30.6-63.8a939.5 939.5 0 01-25.5-71.6c-16.7-52-28.6-71.9-75.6-122.4zM281.3 1121.7c-1.6-9.9-2.4-17.9-4.3-25.7-4.6-18.6-.9-30.2 15.2-40 18.4-11.3 31-26.7 40-46.5 12.7-27.8 27.8-54.5 41.7-81.7 2.8-5.6 4.8-11.7 9-17.3-1.8 12.2-3.4 24.5-5.4 36.6a1062.5 1062.5 0 01-45.3 168.5c-.9 2.5-4.1 5.7-6.3 5.8-15.3.5-30.5.3-44.6.3zM844.5 1121c5.8-51 5.2-102.4 25.3-150l4.2-1c3.7 4.6 8.3 8.7 11 13.8a151.4 151.4 0 0117.2 97.2c-2.2 13.1-5.2 26.2 2 40zM157.4 1089c10.7 6 20.4 11.8 30.3 17 9.7 5 19.6 9.4 31.8 15.2h-62z" class="cls-1"/>
      <path d="M718.6 671.8c-22.2-.5-36.6-10.9-40.5-29.5-3.6-17.4 6-34 23.6-36.6a265.8 265.8 0 0146.6-2.4c13.3.4 21.7 12.5 20.2 26.2-2.9 25.9-22.9 42.8-49.9 42.3zm14.6-62.6v-.6c-8.8 1-17.5 1.5-26.2 2.9-13.8 2.2-20.9 9-22.2 20.9a27.6 27.6 0 0015.9 28.7c15.2 7.2 38.6 3.9 50.1-8.3 8.6-9 13.7-20.3 9.2-33-4.4-12.3-15.8-10.4-25.8-10.5zM725.5 569.2c14 2.8 24.2 4.6 34.2 7 2.2.5 3.8 3.3 5.7 5-2.4.6-5.2 2.2-7.2 1.6a79.3 79.3 0 00-69.2 6.8c-1.5 1-4.3-.1-6.5-.2 1-2 1.7-5.2 3.2-5.8 14-5.4 28.3-10.3 39.8-14.4zM437.6 268c24 1.6 47.4 5.3 66.3 22a50.7 50.7 0 019 10.3c8.2 12.8 7.7 16.7-4.5 25.9-14 10.5-28.3 20.7-42.9 30.6a46.8 46.8 0 01-14.3 5.8c-14 3.7-19.7 1.2-25.5-12.3-7.2-17-15-34-20.3-51.6-5.8-19 .9-27.4 20.5-29.8 4-.6 7.8-.7 11.7-.9zM826.3 361c-7.1-1-14.7-1.5-21.8-3.4-9.5-2.6-13.7-9.5-10.7-18.7 6.3-19.1 12.4-38.4 20.3-56.9 7.6-17.7 19.9-20.6 35.3-9.2 20.1 15 34.4 33.7 33.5 60.6-.6 16-4.6 21.2-20.3 23.6-12 1.8-24 2.7-36.3 4zM538.4 779.8c-.1 14-7.6 21.8-20.8 21.5s-25-9.7-25.2-19.8c-.1-10.9 13.5-21.6 27.4-21.6 12.4.1 18.7 6.9 18.6 19.9zM600.1 764.6a19.4 19.4 0 0119.8 19.7 21.4 21.4 0 01-22 21.3c-12.2-.2-21.4-8.4-21.5-19.1 0-12.1 10.5-21.9 23.7-22z"/>
      <path d="M733.2 609.2h1c10 .2 21.5-1.7 25.8 10.6 4.5 12.6-.6 24-9.2 33-11.5 12.1-34.9 15.5-50 8.2a27.6 27.6 0 01-16-28.7c1.4-11.8 8.4-18.7 22.2-20.8 8.7-1.4 17.5-2 26.2-3v.7zm-10.2 2.6c-5.3 1.5-10.6 2.8-15.8 4.4-7.4 2.3-12.3 8.1-11.5 15.2.6 6.4 3.7 14 8.4 18.1s12.4 5.8 19 6c15.5.8 29.8-10 29.5-21-.2-11.2-14.1-21.6-29.6-22.7z" class="cls-1"/>
      <path d="M723 611.8c15.5 1.1 29.4 11.5 29.6 22.7.3 11-14 21.8-29.6 21-6.5-.2-14.3-2-19-6s-7.7-11.7-8.3-18.1c-.8-7 4-12.9 11.5-15.2 5.2-1.6 10.5-3 15.8-4.4z"/>
    </g>
  </g>
</svg>
