<svg xmlns="http://www.w3.org/2000/svg" viewBox="0 0 1200 682.6">
  <defs/>
  <defs>
    <style>
      .cls-1{fill:#fff}
    </style>
  </defs>
  <g id="Layer_2" data-name="Layer 2">
    <g id="Layer_1-2" data-name="Layer 1">
      <path d="M1200 682.6H0V0h1200zm-91.9-162.8c2.2 3.7 4.8 6.7 9.6 6.9 3.5 0 7 .7 10.4.7 6.9-.1 13.8-.1 20.6-1 7-.9 11.8-5.7 15.8-11.1 6.8-9.4 11.3-20.1 16.4-30.4 6-12 9-25 11.8-37.8 1.1-4.9 1.2-10 1.6-15l3.2-46a588.8 588.8 0 001-70c-.6-10.2-4-19-12.5-25.6a67.5 67.5 0 00-25.7-12.5 366 366 0 00-67.8-9.8c-9.5-.7-19-1.2-28-4.8-26.4-10.5-52-22.8-77.5-35.2a5.8 5.8 0 01-3.3-4.3c-4.5-16-9.2-31.9-13.6-47.9a33.6 33.6 0 00-21.7-23.1l-21.6-8.3c-2.1-.8-3.3-1.7-2.6-4.2a4 4 0 00-1-3.4c-.6-.5-2.2 0-3.3.3a11.1 11.1 0 00-2.6 1.5c-1.6 1-2.5.5-3-1.2a10.3 10.3 0 011.1-7c4.9 0 9.4.3 13.8-.2 7.2-.8 12.2-5.2 13.5-11.3 1-4.2 0-8.2-1.5-12.2a26.3 26.3 0 01-1.4-13c1-6.8 2.1-13.7 2.5-20.6.3-5-.5-10.1-.9-15.2a10.2 10.2 0 004.4-16.8c-1.9-2-4-3.9-6.1-5.8-2.3-2.1-4.7-4.5-4.7-7.8 0-6.7-2.1-12.1-7.6-16a1.6 1.6 0 01-.2-.2c-2.7-3.2-2.3-6.3 1.2-8.6L932 .7c-6.4-.4-11.9 0-17 2.6a11 11 0 00-6.7 9c-.5 4.8-1.8 5.9-6.6 6.7-7 1.1-14 2.3-21 4.1a33 33 0 00-19.1 13c-3.4 5-3 10.6 1.2 14.3 1.7 1.6 1.9 3 1.6 5a37 37 0 002.6 23.3 5 5 0 00-.5 3.2c3 7.8 7.8 14 15.7 17.5a9.3 9.3 0 013.5 2.5c2.7 3.3 5.2 6.9 7.6 10.4a3.7 3.7 0 01.4 2.6 40.2 40.2 0 01-17.5 26.7c-6.6 4.5-13.6 8.4-20.4 12.5-9.2 5.7-16.4 13-18.6 24a39.7 39.7 0 00.4 17.8l-15.7-.8c-19.6-.8-39.3-1.7-58.9-2.3-20.1-.7-40.2-1.6-60.4-1.7-25.9-.3-51.8 0-77.7.3a135.8 135.8 0 00-20.5 2.1c-15 2.5-29.2 7.4-43 13.2a1435 1435 0 00-124.5 58.6c-18.5 9.9-37.3 19.2-54 32a14.2 14.2 0 01-10.3 3c-4.5-.4-9.1-.8-13.7-1a1054 1054 0 00-102.4 2 113.9 113.9 0 00-43 11.3c-31.2 15.2-62 31.2-92.1 48.4A1040 1040 0 0030 418c-6.8 4.8-13.4 10-16.5 18.2A43 43 0 0012 459a275 275 0 0015 54.8l.5 2c-2 .8-3.8 1.4-5.5 2.2-5.4 2.7-11.1 5.1-16.2 8.5-6.8 4.6-7 9.3-1.8 15.5a4 4 0 00.3.4c6.1 5.9 11.9 12.2 18.4 17.7 14 12 29.8 21.5 46.2 30a124.2 124.2 0 0035.5 12.9 27 27 0 0113.3 5 83.6 83.6 0 0023 13.5 530 530 0 0098.1 27q26.5 5 53 9.5c16.2 2.6 32.5 5.2 48.8 7.2 13.9 1.7 27.9 2.7 41.8 3.8a209.9 209.9 0 0040.7-.8 814 814 0 0037.8-5.4q27.8-4.5 55.6-9.6c12.8-2.2 25.5-4.8 37.8-7.2 1.8 5.4 3.5 11.1 5.7 16.6a12 12 0 0012.3 7.8c5.6 0 11.2-.5 16.8-.5 10.9.1 21.8.5 32.6.8 21.4.5 42.6-1 63.3-7a65.5 65.5 0 0038.8-25.7 155 155 0 0027.3-85.5c.3-23.2 0-46.4 0-69.6v-4.1c.5.2.6.4.6.6 1.4 13 3.3 25.8 4 38.7 1 25.9-1 51.6-4.6 77.2-.5 3.5-.5 3.5 3 2.6l104.7-26.8 9.7-2.4.5 3.7c1.2 10.8 2 21.8 3.6 32.6 1 6.8.3 12.7-4.1 18a10.7 10.7 0 00-1 1.6c-3.2 5.4-2.9 9.8 1.9 13.9a52.1 52.1 0 0111 13.9 57.6 57.6 0 0028.3 24.3 28.5 28.5 0 0010.3 2.2c5.7.2 9-3.8 7.2-9.2a69 69 0 00-7-14.9c-6.4-10.3-13.2-20.3-20-30.4a30 30 0 01-5-21.5l5.3-40c.3-1.9 1-2.4 2.6-2.8l55.1-14c3-.9 6.2-1.6 9.3-2.4l.5 1.3 12.8 44.7c2.5 8.4 3.8 17 2.5 25.8a67 67 0 00-.9 10.4c0 6.5 3.1 10.4 8.8 11.3a37.8 37.8 0 008.4.3c5.5-.4 11-1.3 16.4-1.7 12.9-1 25.8-1.6 38.6-2.7a47.9 47.9 0 0012.3-3c4.3-1.5 4.8-4.7 1.3-7.7a17.5 17.5 0 00-6.7-3.3c-7.5-2-15-3.5-22.5-5.3-7-1.6-14.1-3.2-21-5.1-6-1.7-9.6-6-10.7-12.1a121.8 121.8 0 01-1.6-12.4l-2.4-31.5-1.2-17.9 8-2 83.9-21.4c2.2-.6 3-1.6 3-3.8.1-4.8.7-9.5 1-14l5 16a7.8 7.8 0 001.4 2l4.7 8.2z" class="cls-1"/>
      <path d="M1103.5 511.5a7.8 7.8 0 01-1.4-1.9c-1.8-5.4-3.4-10.8-5-16-.4 4.5-.9 9.2-1 14-.1 2.2-.8 3.2-3 3.7l-84 21.4-8 2.1 1.3 17.9 2.4 31.5a121.8 121.8 0 001.6 12.3c1 6.1 4.7 10.4 10.6 12.1 7 2 14 3.5 21 5.2 7.5 1.7 15 3.3 22.5 5.2a17.5 17.5 0 016.8 3.4c3.5 3 3 6.1-1.3 7.7a47.9 47.9 0 01-12.3 3c-12.8 1-25.7 1.7-38.6 2.7-5.5.4-11 1.2-16.4 1.6a37.8 37.8 0 01-8.4-.3c-5.7-.8-8.8-4.7-8.8-11.2a67 67 0 011-10.4c1.2-8.9 0-17.4-2.6-25.9L967.1 545l-.5-1.3-9.3 2.3-55.1 14c-1.6.5-2.3 1-2.6 2.8l-5.3 40a30 30 0 005 21.6c6.9 10 13.7 20 20 30.4a69 69 0 017 14.9c1.7 5.3-1.5 9.4-7.2 9.2a28.5 28.5 0 01-10.3-2.3 57.6 57.6 0 01-28.3-24.3 52.1 52.1 0 00-11-13.9c-4.7-4-5-8.4-1.9-13.9a10.7 10.7 0 011-1.5c4.4-5.3 5.2-11.2 4.2-18-1.7-10.9-2.5-21.8-3.7-32.7 0-1-.3-2.1-.5-3.6l-9.6 2.4-105 26.8c-3.4 1-3.4 1-2.9-2.6 3.6-25.6 5.7-51.3 4.5-77.2-.6-13-2.5-25.8-3.9-38.7 0-.2-.1-.4-.6-.6v4.1c0 23.2.3 46.4 0 69.6a155.5 155.5 0 01-27.3 85.5 65.3 65.3 0 01-38.8 25.8 210.8 210.8 0 01-63.3 6.9l-32.6-.8c-5.6 0-11.2.4-16.8.5a12 12 0 01-12.3-7.8c-2.2-5.5-4-11.2-5.7-16.6-12.3 2.4-25 5-37.8 7.2q-27.7 5-55.6 9.6c-12.5 2-25.1 4-37.7 5.4a209.9 209.9 0 01-40.7.8c-14-1-28-2-41.9-3.8-16.3-2-32.5-4.6-48.8-7.2q-26.5-4.4-53-9.5a526.8 526.8 0 01-98-27 83.6 83.6 0 01-23-13.4 27 27 0 00-13.4-5.1A124.2 124.2 0 0169 590c-16.5-8.4-32.2-18-46.3-30-6.5-5.4-12.2-11.7-18.3-17.6a4 4 0 01-.4-.4c-5.3-6.3-5-11 1.8-15.5 5-3.4 10.7-5.8 16.2-8.5 1.7-.8 3.6-1.4 5.5-2.2-.2-.8-.3-1.4-.6-2A275 275 0 0112 459a43 43 0 011.6-22.9A41.6 41.6 0 0130 418c29.2-20.9 60.2-39.1 91.4-56.9 30.1-17.2 60.9-33.2 92-48.4a113.9 113.9 0 0143-11.3c34.2-2.2 68.3-3 102.5-2 4.6.2 9.1.6 13.7 1a14.2 14.2 0 0010.3-3c16.7-12.8 35.5-22.1 54-32 40.4-21.6 82-41 124.4-58.6 13.9-5.8 28.2-10.7 43-13.2a135.8 135.8 0 0120.6-2.1c25.9-.4 51.8-.6 77.7-.3 20.1.2 40.3 1 60.4 1.7 19.6.6 39.2 1.5 58.8 2.3l15.7.8a39.7 39.7 0 01-.4-17.8c2.3-11 9.5-18.3 18.7-24 6.8-4.1 13.8-8 20.3-12.5a40.2 40.2 0 0017.6-26.7 3.7 3.7 0 00-.4-2.6c-2.5-3.5-5-7-7.7-10.4a9.3 9.3 0 00-3.4-2.5 29.1 29.1 0 01-15.7-17.5 5 5 0 01.4-3.2c-3.6-7.4-4-15.2-2.6-23.3.4-2 .2-3.4-1.6-5-4.2-3.7-4.6-9.3-1.2-14.3a33 33 0 0119.2-13c6.9-1.8 14-3 21-4.1 4.8-.8 6-2 6.6-6.7a11 11 0 016.6-9C920.1.7 925.6.3 932 .6l-3.7 2.2c-3.5 2.4-3.9 5.4-1.1 8.6a1.6 1.6 0 00.2.2c5.5 4 7.6 9.4 7.6 16 0 3.3 2.4 5.7 4.7 7.9 2 2 4.3 3.7 6.1 5.8a10.2 10.2 0 01-4.3 16.7c.3 5.2 1.2 10.2.9 15.2-.4 7-1.5 13.8-2.6 20.7a26.3 26.3 0 001.5 13c1.4 4 2.4 8 1.5 12.2-1.3 6.1-6.3 10.5-13.5 11.3-4.4.5-9 0-13.8 0a10.3 10.3 0 00-1.1 7.2c.4 1.7 1.3 2.2 3 1.2a11.1 11.1 0 012.6-1.5c1-.4 2.7-.8 3.3-.3a4 4 0 011 3.3c-.7 2.6.4 3.5 2.5 4.3l21.6 8.2a33.6 33.6 0 0121.8 23.2c4.4 16 9 31.9 13.6 47.8a5.8 5.8 0 003.3 4.3c25.5 12.5 51.1 24.8 77.5 35.3 9 3.6 18.4 4.1 28 4.8 11.3.8 22.8 1.6 34.1 3.3s22.6 3.8 33.7 6.5a67.5 67.5 0 0125.6 12.5c8.5 6.5 12 15.4 12.5 25.6a588.8 588.8 0 01-1 70l-3.2 46c-.3 5-.4 10.1-1.5 15-3 12.8-6 25.8-11.9 37.8-5 10.3-9.6 21-16.4 30.3-4 5.5-8.8 10.3-15.8 11.2-6.8.9-13.7.8-20.6 1-3.4 0-6.9-.6-10.4-.7-4.8-.2-7.4-3.2-9.5-6.9 2.3 2 4.6 4.3 8 4.5 8.2.4 16.3 1.2 24.5 1.1 4 0 8-1.6 11.7-3a13.8 13.8 0 007.3-6.4c-5.8 3.4-11.7 4.3-17.8 1 9 3 15.7-.6 21.2-7.3a53.3 53.3 0 006.8-10.4 135.6 135.6 0 0012.2-55.4c.4-10.5.3-21 0-31.6-.2-9-.2-18.1-3.5-26.8a48 48 0 00-11-19c-5.8-5.7-12-6.1-18.4-1.1a47.2 47.2 0 00-8.1 7.7 115.2 115.2 0 00-23.7 63.5 144.6 144.6 0 002.1 39c3 16.2 8 31.4 22.5 41.4a50.1 50.1 0 01-6-3.7 48.9 48.9 0 01-15-22.7 135.1 135.1 0 01-.7-84.5 90.5 90.5 0 0123.4-39 23.9 23.9 0 019-5.5c6.3-2 11.9.8 16.7 4.6a38.1 38.1 0 0113.6 26 180.5 180.5 0 011.6 25.9 617 617 0 01-1.5 39.4c-.6 8.1-2.3 16.2-3.6 24.4l3.8-9.4a80 80 0 006.8-28.7c-.3-20.9-2.4-41.5-7.4-61.8-2.4-9.6-5.5-18.9-11.6-26.9-6.6-8.7-15.4-10.5-25-5.4s-15.7 13.8-20.5 23.3a237 237 0 00-15.8 46A439.8 439.8 0 001099 475c-.6 4.5-1.2 9.1-.9 13.7a79.1 79.1 0 005.3 23zM846.3 216.2l.1.6a22.8 22.8 0 01-3.2.8c-14 1.4-25 7.8-32.7 19.5a535.6 535.6 0 00-43 80.2 173.4 173.4 0 00-7.7 21.4c-1.5 5.4 1 8 6.6 7.6 9.4-.8 19-1.6 28.3-2.9a1533 1533 0 0041-6c9-1.4 18-3 26.8-4.7 1.2-.2 2.1-.4 2.5-2 3-13 6-26 9.4-39 1.8-7.3 3.8-14.6 2.7-22.3a4.3 4.3 0 00-1.2-2.4c-3.3-3-7-5.4-9.9-8.7-6.2-7-10-15.5-13.8-24l-3.2-7.6c3 5.2 5.5 10.6 8.3 16a56.2 56.2 0 0022.2 25.3c7.5 4.2 15 6.2 23.3 3.4 11.7-3.9 23.3-8.1 35-12.1a2.1 2.1 0 001.6-2.7c-.5-5.2-2.7-9.7-5.1-14.2-1.5-2.7-3.3-3.3-6.2-2.6-10.4 2.3-20.9 4.3-31.3 6.6-2.3.6-3.4-.2-4.3-2.2-5.5-11.6-11.3-23.2-16.5-35.1-3.1-7.2-5.3-14.8-8-22.1l1.3-.5c2.2 6.6 4.1 13.2 6.6 19.7 2.5 6.6 5.5 13.1 8.5 19.6s6.1 12.6 9 18.4c11.6-2.1 22.7-4 33.9-6.2a2.4 2.4 0 001.2-1.9c-.2-3-.6-5.9-1.1-8.8a162.9 162.9 0 00-9.2-30c-4.5-11.9-9.4-23.5-11.7-36-.5-2.9-1-5.5-3-6.3-5.7 1.6-10.6 3.2-15.7 4.1-3.2.6-4.1-1-3.6-4.3l3-18.7-.7.1a5.5 5.5 0 00-.7.8 59 59 0 01-17 12.8c-5.4 3-10.9 5.9-16 9.3a30.3 30.3 0 00-13 18.8 52 52 0 00.4 23.1c.3 1.8.8 3.6 1.3 5.4a29.5 29.5 0 01-3-7 2.4 2.4 0 00-2.6-2c-14.9-.8-29.7-1.9-44.6-2.5-23.4-1-46.8-2.2-70.3-2.5-32.4-.3-64.9.2-97.4.5-11.5 0-23 1.3-34 5l-17.4 6 .2 1.2c12.4 0 25-.2 37.4 0q37.9.7 75.7 2c14 .4 28.2 1.2 42.3 2l40.9 3a121.3 121.3 0 0113.9 1.4c7.3 1.5 9.8 5.4 8 12.5a152.8 152.8 0 01-6.2 19.6A431.3 431.3 0 01753 308a160.2 160.2 0 01-12 17.3c-3.6 4.5-8.3 8.3-14.3 8.5-8.8.4-17.7.3-26.5-.1-12-.5-24-1.5-36-2.3l-35.7-2.3-32.8-2.3-28.7-2.2-33.5-2.9-31.7-2.8-34.4-3.3-29.9-3.3-32-3.8c-9.2-1-18.2-2.3-26.7-6.2a4.6 4.6 0 00-1.9-.3c-3 0-6.1.3-9.1.2-8.4-.5-16.8-1.5-25.2-1.7a778 778 0 00-87.8 2.9 110.1 110.1 0 00-36 8.4 1611.4 1611.4 0 00-142 77.5 1305.3 1305.3 0 00-48.5 32.3c-7.4 5.1-13 12-13.7 21.4a73.2 73.2 0 00.5 16.5 284.2 284.2 0 0014.1 52.9c1.4 3.6 2 3.3-2.3 4.9-7 2.6-13.7 5.4-19.3 10.5-5 4.6-5.4 8.3-.9 13.4A175.3 175.3 0 0020 554.8a234.8 234.8 0 0050.4 33.8c12.3 6.3 25 11.8 38.9 13.7 4.7.6 8.5 3 12.4 6a81.6 81.6 0 0015.4 9.6 280.6 280.6 0 0043 14.8c25.7 7.2 51.7 13 78 17.7 20.7 3.8 41.5 7.2 62.4 10.2 17.2 2.4 34.5 4 51.8 5.8a207 207 0 0041.5.3 1341.8 1341.8 0 00100-14.2c12.3-2.2 24.5-5 36.8-7.6 3.2-.7 4.9-2.7 5.3-6l1.4-12c2.7-20.9 5.1-41.7 8.3-62.3A375.3 375.3 0 01586 487a169.5 169.5 0 0129.7-51.9c20-22.9 44.8-35.3 75.8-33a56.2 56.2 0 0130.3 11.6 79.9 79.9 0 0126.2 39.7 209 209 0 0110.2 65.3c.1 16.6-.7 33.3-1.5 50-.4 7.5-1.6 15-2.4 22.7l-.7 5.2 5.5-1.7 68.4-17.4 39-10c.8-.3 1.9-1 1.9-1.6-.2-4.6-.6-9.2-1-13.8a5.4 5.4 0 00-1 0l-36 8.8-63.9 15.7c-1.8.4-2.7.2-3-2l103.9-25.4v-12.6l-3.8 1-81.6 21c-4 1-4.3.8-4.3-3.2v-130c0-2.6-.3-5.2-.4-8l-33.9 8.2-.2-1c11.2-3.2 22.7-5.3 34-8.5a258.8 258.8 0 00-16.6-62.5c1.1.2 2.2.7 2.5 1.4a255.1 255.1 0 0114.7 47.5c.8 4.3 1.4 8.6 2.1 13a11.4 11.4 0 001.5-.2l82.7-20.3c1.7-.4 2.2-1.2 2-2.8-.7-4.3-1.2-8.7-1.8-13a132.6 132.6 0 01-.9-37.1l1-8.8-26.8 4.8q-17.8 2.8-35.7 5.3c-8.3 1.2-16.7 2.1-25 3a116.4 116.4 0 01-13.2 1c-5.6 0-7.7-2.8-6.3-8.2a120.7 120.7 0 014-12.3c7.3-19 16.4-37 26.3-54.8 6.4-11.4 12.9-22.9 20-34a45.2 45.2 0 0121.6-18.3 63.3 63.3 0 0117-3.8zm-466 85.3c5.6 1.3 10.7 3 16 3.8 8.5 1.3 17 2.1 25.7 3.1l22.2 2.6 31.4 3.2q17.7 1.8 35.5 3.4l37.5 3.2 36.3 3 29.5 2.1 35 2.4c9.7.6 19.4 1.3 29 1.7l43.8 2a15.8 15.8 0 0013-5.8 138.5 138.5 0 0010.7-13 360.8 360.8 0 0032.4-59.6c4.1-9.5 8.8-18.9 10.4-29.3.8-5.4-.8-8-6.2-8.5-15.5-1.4-31-2.7-46.5-3.6-15.8-1-31.5-1.6-47.3-2.3L632 208c-18.5-.5-37-.7-55.5-1.4-6.8-.2-13.1.2-19.2 3.4-3 1.6-6.2 2.6-9.4 4A1485.7 1485.7 0 00425.8 273c-15.4 8.3-31.1 16.5-45.5 28.3zm796.6 7.5l.3.5a9.7 9.7 0 01-1.4 1c-7.8 3.2-15.4 7.1-23.4 9.6-18.6 5.7-37.3 10.9-56 16q-56.8 15.4-113.8 30.5c-1.3.3-2.1.5-1.8 2.3q5.3 25.5 10.3 51c2.3 11.4 5 22.9 4.4 34.7l-.4 5.7a8.8 8.8 0 001-2.4l5-18.6c6.8-25.2 15.4-50 18.5-76.1.1-.9 1.2-1.6 1.8-2.3l.6.4a21.4 21.4 0 01-.1 3c-1.7 9-3 18.1-5.3 27-6.8 25.5-14 50.9-20.9 76.3a16 16 0 00-.3 5.5c.4 5.2 1 10.5 1.6 15.7l1.4 12.9 29-7 .2.8-29.1 7.5 1.2 13.8 2.2-.4 40.2-10 38-9.2c1.4-.4 3.2-1 3 1.7l-2 .7-23.4 5.7L1002 519c-.7.2-2 .8-2 1.2l.9 13 50.3-12.5c13.4-3.3 26.7-6.9 40-10.4a2.7 2.7 0 002.3-2.7c.9-9.8 1.7-19.5 3-29.2a572 572 0 0110.7-62c4-16.8 9.6-33.2 18.8-48 4.2-6.8 9-13.3 15.7-17.8 6.3-4.3 13.2-6.5 20.7-4.3a23.1 23.1 0 0113.5 11.4c8 13.5 11.5 28.4 13.8 43.6 1 7 1.7 14.2 2.5 21.7.2-1.5.5-2.5.5-3.6 1-15 2-30 2.8-45a403 403 0 00-.2-59 32 32 0 00-15.7-26.2 103.4 103.4 0 00-25.2-10.8 274.2 274.2 0 00-67.7-8.7 63 63 0 01-25-5l-69-31.7-7.4-3.5c.6 4.8 1 9.1 1.7 13.5a3.8 3.8 0 001.8 2.1c4.1 2.5 8.4 4.7 12.3 7.2a210.7 210.7 0 0117.5 11.8c5 4 5 7.8 0 11.8a129.7 129.7 0 01-17.8 12c-9.7 5.2-19.9 9.7-29.8 14.7-.8.4-1.9 1.4-1.8 2.1.3 4.2.8 8.3 1.5 12.4 2 11.2 4.3 22.4 6.5 33.7l3 14.8a12.4 12.4 0 001.6-.2c17.8-4.6 35.6-9.1 53.3-14 31.4-8.5 62.8-17.3 94.3-25.9 15.7-4.3 31.6-8.5 46.1-16.2a6.8 6.8 0 011.4-.3zm-301-12.6l-.7 1.4c-4.6 12.8-7.2 26-9.2 39.5a122.1 122.1 0 00-.4 33.5l7 52.1 5.3 43a82.7 82.7 0 01-2 33.7c-5 17.5-6.2 35.5-5 53.7l2.6 37.6c.2 3 .5 5.5 3.9 6.8 1.7.6 3 2.1 4.8 2.8a20 20 0 006.2 1.6c3.5.2 3.6-.3 4-3.7 1.7-15 3.1-30.2 5.4-45.2 3.3-21.3 7.3-42.5 11.1-63.8a523.2 523.2 0 007.5-74.6q1.2-35.1 2.7-70.3a10.7 10.7 0 011.8-5.4c1.9-2.6 4.3-2 5.4 1l.7 2.2c9.9 36.3 19.6 72.5 29.6 108.8 2.9 10.3 5 20.7 3.8 31.6-1.7 14.2.2 28 4.2 41.9 6.3 21.5 11.8 43.2 17.6 64.9 1.8 7 1.7 6.8 8.8 8.1 4 .8 7.6.3 10.7-2.5a4 4 0 001-2.7c0-3.2-.4-6.3-.6-9.4-.6-8.7-1-17.3-1.7-26l-2.9-35.2c-.8-10.3-1.6-20.7-2.7-31a195.6 195.6 0 01-1.7-32 63.6 63.6 0 00-.4-13.7c-2.9-17.3-6-34.7-9.3-52-5.6-29.2-13.3-58.1-16.6-87.8-.5-4-1.4-6.4-5.4-7.8-2-.8-3.7-2.9-5.5-4.3l.7-1 9.4 6-1.2-14.2-1.7.4c.6-.8 1.6-1.5 1.6-2.1-.1-3.4-.5-6.7-.8-10.2-11.7 2.2-23 3.5-34.6 2l-1.2 15.2h18.6c-23.2 3.6-45.4-.9-67.2-7.7l-3.5 14c3.3 1 6.3 1.7 9.4.6l6.5-2.3a8.5 8.5 0 012.4 0v.8a19 19 0 01-18.5 1.6zm-95.5 261.3a12.1 12.1 0 001.3-.2l84.1-21.6c1.4-.3 1.8-.9 1.8-2.2.4-11.2 3-22.1 6-33a64.3 64.3 0 003-23.8l-3.2-25-3.8-31-3.2-25-2.2.4c-27 6.6-54 13.3-81.2 19.8-2.5.7-3.6 1.5-2.8 4.2a12 12 0 01.1 3.3l.1 129.5zm-31.7-33.5h.6l-1.2-48.6a75 75 0 00-6.6-31.1A75.3 75.3 0 00718 414c-15.3-10.8-32.4-12.2-50.2-9.4a78.9 78.9 0 00-45.8 26 165 165 0 00-30 48.5c-8.9 20.8-15 42.6-19.9 64.7a575.5 575.5 0 00-9 58q-2 16.7-4.2 33.3c-.4 3-1.7 6.2-1.5 9.2.7 7 2.6 13.7 6.7 19.5a10 10 0 007.1 4.5c4.2.5 8.5.8 12.7.8 13 .1 26-.1 39 .2 20 .5 39.8-1 59.3-6a65.1 65.1 0 0039.4-26 175.2 175.2 0 0018.3-36.6c4.8-12.6 8.3-25.5 8.7-39 .3-12.5 0-25 0-37.5zm136.6-437l-1.1.7a15.8 15.8 0 01-3.2-2.4 9.5 9.5 0 00-8.5-3.8c-3.2.2-3.7 1.2-2.2 4a24.2 24.2 0 0010.6 10.7 22.6 22.6 0 019.7 9.3c1.7 2.9 3.6 5.6 5.5 8.3 7 10.3 16 17.2 29.3 16 8-.6 14.1-5 14.7-12.1.3-3.7-.7-7.6-1.6-11.2-1.1-4.4-2-8.7-1.2-13.3l1-6.5c-3 2.7-3.2 2.8-5.3 2.2a8.8 8.8 0 005.2-7.1c.4-3-1.2-4.6-4-4.2l.9 2.4a6.2 6.2 0 01-4.2 7.8c-2 .6-3.7.4-4.8-1.7-1.3-2.4-1.3-5.8.2-6.7 2-1.3 4.1-2.6 6.3-3s4.6.7 7.2 1.1c-.5-7.6 1.9-16-4.4-23.4-2.7-3.1-3.7-7.7-8.7-8.7a12 12 0 0110 5.2c.9 1.2 2 2.4 2.8 3.6 1.4 1.9 2.7 1.4 4 0a9.5 9.5 0 00.3-12.9 28 28 0 00-6.2-6c-4.8-3-6.7-7-5.8-12.4.6-3.8-1.2-6.7-4.3-9a32.2 32.2 0 01-4-3.1c-2.1-2.2-2-4.6 0-6.7a32.9 32.9 0 013.8-2.7c-2.3.3-4.3.4-6.2.8-6.3 1.3-9.5 4.9-10.4 11.2-.4 2.8-1.7 4.8-4.6 5.4a66 66 0 01-5.2 1c-8 1-15.8 2.3-23.2 5.5-6 2.6-11.3 6.3-13.9 12.7s-.2 11.8 6 14.3a24 24 0 0016 .7c6.9-2 13.5-4.4 20.4-6.4 3.5-1 7.1-1.5 10.6-2.2L882.7 55l2.6 32.2zm45.5 185.6c16 1.3 31-1.6 46-6.1 4.7-1.5 6.9-5.2 7.5-10A80 80 0 00982 225c-4.7-17-9.7-34-14.5-51-2.7-9.5-8.7-16-17.8-19.6-6.2-2.5-12.5-4.7-18.8-7l-7.3-3a9.7 9.7 0 00-.2 2l1.5 8c1 4.5-1.1 6.6-5.4 5.2-3-1.1-6-2.8-9-4.2l-2.6 1.9c1.5 10.6 5.2 20.6 8.8 30.7 4 11.2 8 22.4 11.6 33.8 1.5 5 1.9 10.3 2.8 15.4 6-.8 11-3.4 13.9-9.3 2.2-4.5 5.4-7.7 11.2-5.5a143 143 0 00-5.5-45.7c2.3-.5 2.6.7 3 2.1 4.2 14 5.4 28.3 5.1 42.8a7.8 7.8 0 001.7 5.3c6.9 9 5.7 17.5-3.1 24.7-7 5.6-15.2 8.9-23.4 12-3.4 1.2-4 2-3.8 5.5 0 1.1.4 2.3.6 3.7zM958.2 512a8.7 8.7 0 000-1.7 77 77 0 01-.6-24.8c.9-9.1.8-18.1-1.6-27l-19-70c-.8-3.3-1.8-6.5-2.7-9.8-4.4 1.1-8.5 2-12.5 3.2a2.8 2.8 0 00-1.7 2c-.8 14-1.4 28.2-2.1 42.4-.6 10.3-.9 20.7-2.3 31-2.5 19.3-5.8 38.5-8.8 57.8l-1.6 10.6zm-81.7 98.4l-5.1 10.8a61 61 0 00-3 6.2 7 7 0 002.3 8.3c5.1 4 8.3 9.3 11.6 14.7a56.3 56.3 0 0018.9 19.3c5 3 10.3 6 16.3 6.7 5 .7 7-1.6 5.8-6.6a63.2 63.2 0 00-10.8-22c-7.4-10.9-16.3-20.8-20.6-33.8-5.9 1.3-11-.6-15.4-3.6zm108.8-4.5l-.3 3.6c-.4 5.6-1.1 11.2-1.2 16.7 0 5 2.7 8.3 7.5 9.4a33 33 0 009.5.7c5.9-.4 11.6-1.7 17.5-2.1 12-1 24.2-1.9 36.3-2.4 5.3-.2 8.8-2.4 11.1-7.1a12.7 12.7 0 00-7-4.3c-10.7-2.4-21.4-4.6-32-7.2-7.3-1.8-15-3-20.1-9.7-6.5 5.6-13.7 4.5-21.3 2.4zm2.2-359.3l-.7 9.3c-.6 8.4-2.9 11.2-11 13.3l-9.3 2.3L969 303c11-5.6 21.7-10.6 32-16.3a103.4 103.4 0 0015.6-11.2c3.8-3.1 3.8-6 .1-9.2a124.9 124.9 0 00-13.7-10.6c-4.9-3.3-10.2-6-15.5-9zM900 559l66-16.9-3.8-13.5-6 1.5-51.8 12.8c-.8.2-2 .9-2.2 1.5l-2.2 14.6zm3-18.5l17.3-4.3 39.2-9.6c.7-.2 1.8-1.3 1.7-1.7-.7-4-1.7-7.7-2.5-11.5a2.5 2.5 0 00-.7-.1l-51.6 13.3c-.6.1-1.4.6-1.5 1.1l-2 12.8zM879.8 280c7.9 2 15.8 4.2 23.8 5.9 6.2 1.3 12.6 2.1 19 3 1.1.1 3 1.1 3.3-1 .6-4.7 1-9.3 1.4-14-2.8-.7-5.4-1.1-7.6-2.2a13.4 13.4 0 00-11.2.1 30.2 30.2 0 01-27.2-1.7 7.4 7.4 0 00-1.6-.4zm68.6-25.1c2.6-1.7 5-3 7.1-4.6 7.5-5.4 8.8-10.9 5.5-20-1-3-2.8-6-6.4-6.2s-5.6 2.3-7.3 5-3.7 5.2-5.6 8c4.1 5.9 5 8 6.7 17.8zm-66.8-171l1-.3-3-27.9a1.8 1.8 0 00-1.4-1c-3.6-.5-7.3-.7-11.2-1-.3 1.9-.7 3.8-.9 5.8-.7 6-.2 11.9 2.4 17.4.4.8 1.1 1.9 1.8 1.9 4.4.2 8 2.4 11.3 5.1zM934 377.5l-.5-2.1-5-18.9c-1-4.3-1.8-8.7-2.9-13-.4-1.6-.8-3.4-3.7-3.7L920 381zm-21-248.2a34.7 34.7 0 01-16.9-13l-4.5 13c3.5 2.5 7 5 10.7 7.4a6 6 0 013 5.2l.2 3.9a34 34 0 002.5-6c.3-.7.8-1.8 1.4-2 2.7-.3 2.5-2.2 2.7-4.2a32 32 0 01.8-4.3zm-25.1 29l13.2-4.9c.3 0 .6-.4.7-.6.2-3.1 2.1-6.3-1.4-9-1.7-1.3-2.7-3.5-4.2-5.1s-2.6-4.2-5.1-3.4-2.7 3.7-3.1 6c-.8 4.8-1.4 9.6-2.3 14.3-.4 2 .2 2.5 2.1 2.8zm22-11l.9.4.7 5.2c.1.3.1 1 .4 1a60 60 0 008.7 4c2.4.8 3.4-.5 2.8-3.1-1.1-4.6-2-9.3-.7-14 .5-2-.7-2.7-2.5-2.2a4.7 4.7 0 00-2 .9c-2.8 2.5-5.5 5.2-8.2 7.8zm-35.4 450.9l1.2 8.7a2.3 2.3 0 00.5 1c2.6 3 10.7 5.2 14.4 3.8.6-.2 1.3-.9 1.3-1.3V603c-6.8 2.7-11.8-.8-17.4-4.7zm109.9-.3c.2 2 .3 3.5.6 5.1a1.6 1.6 0 00.7 1.2c5.3 1.6 10.7 3.3 16 .3 4.7-2.6 4.3-2.6 1.8-7.4-6 5.4-12.5 1.6-19.1.8zm-50.1-359c1.7 3 3.6 5.8 5 8.8s2.1 6.3 3.2 9.5c3.9-1.1 4.4-1.5 3.5-5.5a42.7 42.7 0 00-3.4-10c-2.2-4.3-2.4-4.2-7-3.1-.4 0-.8 0-1.3.3zm-27.6-90.8a3.9 3.9 0 00-3.4 3.5 4.2 4.2 0 003.7 3.9c1.4 0 3.3-2.4 3.4-4.2 0-1.6-1.9-3.3-3.7-3.3zm-18.1-14.5c2.9-1 4.9.2 6.6 2.2l6.4 7.5 1.6 2-.4-4c-.2-.8-.2-2-.8-2.4l-11.7-8zM931 78.2c-1.4.9-3.8 1-3.2 3.5a24.6 24.6 0 001.7 4c1-.6 2.4-1 2.9-1.8 1.1-2.1 0-4-1.4-5.8zm-23.3 68.4l.5.2 5.4-5.8c-1.9-2-3.1-2.2-4-.3s-1.3 3.9-2 5.9zm20 119.1l-3 1c-.5 5.3 0 6 3.4 5.2l-.4-6.2zm-5.8 2l-5.7 1.7 5.8 1.9V269a13.3 13.3 0 00-.2-1.4z"/>
      <path d="M1103.5 511.5a79.1 79.1 0 01-5.3-22.9c-.3-4.5.3-9.1 1-13.7a439.8 439.8 0 0110.6-55.8 236 236 0 0115.8-46c4.8-9.6 10.9-18 20.6-23.3s18.3-3.3 24.9 5.3c6.1 8 9.2 17.4 11.6 27 5 20.2 7 40.9 7.4 61.7a80 80 0 01-6.8 28.8l-3.8 9.3c1.3-8.2 3-16.2 3.6-24.4a617 617 0 001.5-39.4 180.5 180.5 0 00-1.6-25.9 38.1 38.1 0 00-13.6-26c-4.8-3.7-10.4-6.6-16.7-4.6a23.9 23.9 0 00-9 5.5 90.5 90.5 0 00-23.4 39 135.1 135.1 0 00.7 84.6 48.9 48.9 0 0015 22.6 50.1 50.1 0 006 3.8l-.1-.1c6 3.4 12 2.4 17.8-1a13.8 13.8 0 01-7.3 6.5c-3.8 1.3-7.8 2.8-11.7 3-8.2 0-16.3-.8-24.5-1.2-3.4-.2-5.7-2.4-8-4.5l-4.7-8.3zM846.3 216.2A63.3 63.3 0 00829 220a45.2 45.2 0 00-21.6 18.4 644 644 0 00-20 34c-9.8 17.7-19 35.8-26.2 54.7a120.7 120.7 0 00-4 12.3c-1.5 5.5.6 8.2 6.3 8.3a116.4 116.4 0 0013.1-1c8.4-1 16.7-1.9 25-3q18-2.5 35.7-5.4c8.9-1.4 17.7-3.1 26.9-4.7l-1 8.7a132.6 132.6 0 00.8 37l1.8 13.1c.2 1.7-.2 2.4-2 2.8q-41.3 10-82.6 20.3a11.4 11.4 0 01-1.5.1l-2.2-12.9c-3-16.4-8.5-32-14.7-47.5-.3-.7-1.3-1.2-2.4-1.4a258.8 258.8 0 0116.5 62.5c-11.3 3.2-22.8 5.3-34 8.5l.3 1 33.8-8.1c.2 2.7.5 5.3.5 7.9v130c0 4 .2 4.2 4.2 3.1l81.6-21 3.8-.9v12.6l-103.8 25.5c.3 2.2 1.2 2.4 3 2 21.3-5.4 42.6-10.6 63.8-15.8l36-8.8a5.4 5.4 0 011 0c.4 4.6.8 9.2 1 13.8 0 .5-1 1.3-1.8 1.5l-39 10-68.5 17.5-5.5 1.7c.3-2 .6-3.6.7-5.2.9-7.6 2-15.2 2.4-22.8.8-16.6 1.7-33.2 1.5-49.9-.1-22.2-3-44.1-10.2-65.3a79.6 79.6 0 00-26.2-39.7 56.2 56.2 0 00-30.3-11.5c-31-2.4-55.8 10-75.8 33a169.5 169.5 0 00-29.6 51.8 375.3 375.3 0 00-20.5 77.5c-3.2 20.7-5.5 41.5-8.2 62.2l-1.5 12.1c-.4 3.3-2 5.3-5.3 6-12.3 2.6-24.5 5.4-36.8 7.6a1218.4 1218.4 0 01-100 14.2 207 207 0 01-41.4-.3c-17.3-1.7-34.7-3.4-51.9-5.8a1731 1731 0 01-62.4-10.2 863.9 863.9 0 01-78-17.7c-14.6-4-29.2-8.4-43-14.8a81.6 81.6 0 01-15.4-9.7c-3.8-3-7.6-5.3-12.4-5.9-14-1.8-26.6-7.4-38.9-13.7-17.9-9.5-35-20.3-50.2-34a175.3 175.3 0 01-13.4-13.6c-4.5-5-4-8.8 1-13.3 5.5-5.1 12.3-8 19.3-10.5 4.2-1.6 3.6-1.2 2.3-4.9A284.2 284.2 0 0115 459.5a73.2 73.2 0 01-.5-16.5c.7-9.5 6.3-16.3 13.7-21.4 16-11 32-22 48.5-32.3a1611.4 1611.4 0 01142-77.5c11.4-5.3 23.6-7.2 36-8.5a771 771 0 0187.9-2.8c8.3.1 16.7 1.2 25 1.6 3 .2 6.2 0 9.2-.1a4.6 4.6 0 012 .2 85.9 85.9 0 0026.6 6.3l32 3.8 29.9 3.2 34.5 3.3 31.7 2.9c11.1 1 22.3 2 33.5 2.8q14.3 1.2 28.7 2.2l32.7 2.4 35.6 2.3c12 .7 24.1 1.7 36.1 2.3 8.9.3 17.7.5 26.5.1 6-.3 10.7-4 14.3-8.5a160.2 160.2 0 0012-17.3c12-20 23-40.6 31.6-62.3a152.8 152.8 0 006.2-19.6c1.8-7.2-.8-11-8-12.5a121.3 121.3 0 00-14-1.4c-13.6-1-27.2-2.2-40.9-3-14-.9-28.1-1.6-42.2-2q-37.9-1.3-75.7-2c-12.5-.3-25 0-37.5 0l-.1-1.3 17.3-6c11-3.7 22.5-4.9 34.1-5 32.5-.3 65-.7 97.4-.4 23.4.2 46.9 1.5 70.3 2.5 14.8.6 29.7 1.6 44.5 2.4a2.4 2.4 0 012.7 2 29.5 29.5 0 003 7l-1.4-5.3a52.7 52.7 0 01-.4-23.2 30.3 30.3 0 0113-18.8c5.2-3.3 10.6-6.3 16-9.3a59.8 59.8 0 0017-12.8 5.5 5.5 0 01.8-.7l.7-.1-3 18.7c-.6 3.3.4 4.8 3.6 4.3 5-1 10-2.5 15.7-4 2 .7 2.4 3.3 3 6.1 2.3 12.5 7.1 24.2 11.7 36 3.7 9.8 7.3 19.6 9.2 30 .5 3 .8 6 1 8.9a2.4 2.4 0 01-1.2 1.9l-33.9 6.1c-2.8-5.7-6-12-9-18.4s-5.9-12.9-8.4-19.5c-2.5-6.5-4.5-13.1-6.6-19.7l-1.2.4c2.6 7.4 4.7 15 7.9 22.1 5.1 12 11 23.5 16.4 35.3 1 1.9 2 2.7 4.4 2.2 10.4-2.4 20.9-4.4 31.3-6.7 2.9-.7 4.7-.1 6.2 2.6a37 37 0 015.1 14.2 2.1 2.1 0 01-1.6 2.7c-11.7 4-23.3 8.3-35 12.1-8.3 2.8-15.8.8-23.3-3.4a56.2 56.2 0 01-22.3-25.4c-2.7-5.3-5.2-10.7-8.2-15.8l3.2 7.6c3.8 8.4 7.6 17 13.8 24 2.9 3.2 6.6 5.7 9.8 8.7a4.3 4.3 0 011.3 2.3c1 7.7-.9 15-2.8 22.3-3.3 13-6.3 26-9.3 39-.4 1.6-1.3 1.9-2.5 2-9 1.6-17.8 3.4-26.8 4.8-13.6 2-27.3 4.1-41 6-9.4 1.2-18.9 2-28.3 2.8-5.6.5-8.1-2.2-6.6-7.6a173.4 173.4 0 017.7-21.4 535.6 535.6 0 0143-80.2 42.2 42.2 0 0132.7-19.5 22.8 22.8 0 003.2-.8zM44.8 416.9l-.6.3A43.5 43.5 0 0056 441.8c10.1 11 23 17.8 36.6 23.2 24 9.4 48.9 14 74.3 16.1q27.8 2.4 55.7 3c26.4.6 52.9.6 79.3.3 18.8-.1 37.5-.8 56.3-1.8a2091 2091 0 00108-9.1c18.2-2.2 36.2-4.8 54.2-7.5a368 368 0 0061.3-14.3c6.2-2 12.4-4.5 18.5-6.7-.3-2.5-1.3-2.4-3-1.8-11.1 3.8-22.1 8-33.5 11a684 684 0 01-96.6 16.8c-20.9 2.5-41.9 4.4-62.8 6q-30.9 2.4-61.8 3.6-34.7 1.4-69.4 1.6c-40.8.3-81.7.5-122.3-5a289.5 289.5 0 01-42-8.3 134.6 134.6 0 01-44.2-20.5 44.3 44.3 0 01-19-29.3 9 9 0 00-.9-2.2zM110.2 551l.1 1a18.5 18.5 0 003.1 0c6.2-1.2 12.3-2.8 18.5-3.3 14.6-1 29.2-1.6 43.8-2.1q24.3-.9 48.7-1.2c25.1-.4 50.3-.5 75.4-.7a3.9 3.9 0 012.7 1.3c11.7 14.6 23.5 29.2 35 44.1a775.3 775.3 0 0122.7 31.6c3.4 5 2.7 6.1-3.2 5.9q-17-.8-33.9-2c-10.4-.8-21-1.6-31.4-2.8-13.5-1.4-27-3-40.4-5-15-2.1-30-4.3-44.9-7.2a99 99 0 01-38-15.3 46.1 46.1 0 01-20.6-32.2c-.5-3.3-.7-6.5-1-9.8-1.9-.5-2.6.3-2.4 1.9a72.3 72.3 0 001.3 9.8c5 20 17.5 33.5 36.5 41.1 11.5 4.7 23.7 7 35.9 8.8 22.6 3.3 45.1 6.6 67.7 9.4 18.3 2.3 36.6 4 55 5.5 6.6.5 13.3-.1 19.8-.6 3.4-.3 4.5-2.5 3.2-5.7a26.6 26.6 0 00-3.3-6.3l-51-68c-2.5-3.2-5.5-6.2-9.9-6.7a67 67 0 00-8.3-.5c-8.5 0-17 .2-25.5.4-41.2 1-82.4 2-123.6 3.2-10 .3-20 1.3-29.6 4.4a21.1 21.1 0 00-2.4 1zm-26.5-52.8l-.1.3 1.2.3a363 363 0 0055.8 9.4 1028.2 1028.2 0 00133.1 4.2 1119.9 1119.9 0 0088-5.6 1528.8 1528.8 0 0088.5-11.3c16.8-2.6 33.5-5.2 50.2-8.3 22.3-4.3 44.6-9 67-13.6 6-1.2 12-2.7 18-4.1-1.1-2-2.5-1.5-4-1.2-14.1 3.1-28.2 6.5-42.4 9.4-21.4 4.2-42.7 8.3-64.2 12a1575.7 1575.7 0 01-98.5 13.6c-17 1.7-34.2 3.6-51.4 4.8a1114.1 1114.1 0 01-126 2.5c-12.2-.2-24.3-1.3-36.4-2.3a1020.9 1020.9 0 01-62-7.2c-5.6-.7-11.2-2-16.8-3zm234.5-41l.3.7h1.4c18.5-1.2 37-2.3 55.4-3.7a248 248 0 0049.4-8 315.6 315.6 0 0060.7-24.5c10.4-5.4 20.7-11.3 30.9-17.1a43.8 43.8 0 007.2-5.6c3.9-3.5 3.6-6.7-.8-9.5a28.3 28.3 0 00-4.3-2.2 94.8 94.8 0 00-33.7-7c-10-.2-19.4 2.4-28.7 6-17.4 6.5-33.7 15.4-50.1 24Q364 432.8 322 455l-3.8 2.3zM538.4 628l-4.1.5c-3 .3-6 .4-9 .8l-28 3.8-34 4.4-32 3.8-30.4 3.3c-9.5 1-19 2.3-28.4 2.7-10.2.4-20.5-.2-30.8-.3-.7 0-1.4.8-2.1 1.2.6.4 1.3 1.1 2 1.1 10 0 20 .4 30-.2 14.2-.8 28.3-2.4 42.5-3.8q19.3-1.9 38.5-4.2 21.3-2.6 42.6-5.5c14.6-1.9 29-4 43.6-6 1.7-.2 2.3-.8 2.4-2.5.9-16.8 1.8-33.6 3-50.3A135.6 135.6 0 01553 536a311.6 311.6 0 0120.3-40.4l1.6-3.3-.7-.7c-.7.5-1.8.8-2.2 1.5a347.8 347.8 0 00-20.7 40.5c-8.2 19.5-10 40.2-11.2 61-.7 11-1.1 22-1.7 33.4zm102.2-294.8v-.8a6.9 6.9 0 00-2.4-.5c-8 1.2-16.2 2-24.1 3.7-21.9 4.5-43.8 9-65.5 14.1-36 8.5-71.7 18.1-107 29.6a713.9 713.9 0 00-93.8 36.7c-9.6 4.6-18.8 10.1-28.1 15.4-.6.3-1 1.3-1.3 2 .8 0 1.7 0 2.5-.2.3 0 .5-.2.7-.3a363.1 363.1 0 0144.4-23.2 823.5 823.5 0 0188.8-32q57.7-18 116.8-31c16.6-3.6 33.4-6.7 50.1-9.9 5.4-1 10.9-1.6 16.3-2.5a12 12 0 002.6-1zm-77 164.5c-2 0-3.3-.5-4.4-.2-14.8 4.3-29.6 9-44.5 13a33.5 33.5 0 00-22 17.5l-3 5.5-13.8 27.5c-2.7 5.6-5.5 11-8.6 17.1 1.6.4 2.9 1 4 .8 7.2-.9 14.3-2 21.4-3a36.8 36.8 0 0027.1-16.3c11-16.3 22.7-32 34-48l9.7-13.9zm-28 82.3c0-3-.2-3.2-3-2.7l-6.9 1c-12 1.8-24.1 3.4-36.1 5.5-7.7 1.3-15.2 3.2-22.8 5a3.9 3.9 0 00-2.3 1.7L445.7 627a7.6 7.6 0 00-.4 2.3 9.5 9.5 0 002.5.2l13.5-2.4c17.3-3.4 34.7-6.7 52-10.3a22.2 22.2 0 0016.7-13.5 77.6 77.6 0 005.6-23zm-419 12.5a14.3 14.3 0 00-.5-2c-4-8.9-7.7-17.8-11.8-26.5a10.2 10.2 0 00-4.8-4.6l-50.7-21.7c-1.8-.8-2.6-.4-3 1.6-1.2 7.5-2.6 15.1-4.2 22.7-.5 2.4.1 3.3 2.4 4.2l69.6 25.5 2.8.8zm646-197.6v-.8a13.3 13.3 0 00-1.7-.6 262.4 262.4 0 00-38.7-5.2 176 176 0 00-58.3 5.3 100 100 0 00-48.5 28.9c-.8.8-1.4 1.7-2 2.6l.7.9a15.2 15.2 0 003-2 91.3 91.3 0 0130-22.2c24.8-11.4 51-13.6 77.7-11.5 11.8 1 23.5 3.3 35.3 5a9.5 9.5 0 002.4-.4zM84 417l-.3.8 3 2.7a89.5 89.5 0 0027 16.3 256.6 256.6 0 00110.9 16.4 4.8 4.8 0 001.2-.5 5.9 5.9 0 00-2.8-.4c-10.8 0-21.6.3-32.3 0a226 226 0 01-59.7-10.6A108 108 0 0186.3 418c-.5-.6-1.5-.7-2.3-.9zM40.8 539.2a7.2 7.2 0 00-.2-2c-2.2-4.9-4.3-9.8-6.6-14.6-.3-.7-1.2-1.1-2.3-2 .6 4.9 7 17.8 9 18.6zm-6.4-64.8a55.2 55.2 0 01-13-22.6c-.2-.7-1-1.2-2-2.2.4 6.7 8.1 19.5 15 24.8z" class="cls-1"/>
      <path d="M380.3 301.4c14.4-11.8 30-20 45.6-28.3 39.9-21.5 80.5-41.4 122.2-59.2 3-1.3 6.3-2.3 9.3-4 6-3.1 12.5-3.5 19.2-3.3 18.5.7 37 .9 55.5 1.4q28.3.8 56.6 2c15.8.5 31.6 1.2 47.3 2.2 15.5 1 31 2.2 46.5 3.5 5.4.5 7 3.2 6.2 8.6-1.6 10.4-6.3 19.8-10.4 29.3a360.8 360.8 0 01-32.4 59.6 138.5 138.5 0 01-10.6 13 15.8 15.8 0 01-13 5.7l-43.8-1.9c-9.7-.5-19.4-1-29-1.7l-35-2.4-29.6-2.2-36.3-3-37.5-3.1q-17.8-1.6-35.5-3.4l-31.4-3.3-22.2-2.5c-8.6-1-17.2-1.8-25.8-3.1-5.2-.8-10.3-2.5-16-3.9zM1177 309a6.8 6.8 0 00-1.4.4c-14.6 7.7-30.4 11.9-46.2 16.2l-94.3 25.9c-17.7 4.8-35.5 9.3-53.2 14a12.4 12.4 0 01-1.6.2l-3-14.9c-2.3-11.2-4.5-22.4-6.5-33.6-.8-4.1-1.2-8.3-1.6-12.4 0-.7 1-1.8 1.8-2.1 10-5 20.1-9.5 29.9-14.8a129.7 129.7 0 0017.7-12c5-4 5.1-7.7 0-11.7a210.7 210.7 0 00-17.4-11.8c-4-2.6-8.2-4.7-12.3-7.2a3.8 3.8 0 01-1.8-2.1c-.7-4.4-1.1-8.8-1.7-13.5l7.3 3.5 69 31.7a64.5 64.5 0 0025 5c23 .6 45.6 2.5 67.8 8.7a103.4 103.4 0 0125.1 10.8 32 32 0 0115.8 26.1 403 403 0 01.1 59c-.7 15-1.8 30-2.7 45 0 1.2-.3 2.2-.5 3.7-.9-7.5-1.5-14.7-2.6-21.7a118.9 118.9 0 00-13.7-43.6 23.1 23.1 0 00-13.5-11.5c-7.6-2-14.4 0-20.7 4.3a56.3 56.3 0 00-15.7 17.8 159.7 159.7 0 00-18.9 48.1 572 572 0 00-10.7 62c-1.2 9.7-2 19.4-3 29.1a2.7 2.7 0 01-2.3 2.8l-40 10.4c-16.5 4.2-33.1 8.2-50.3 12.4l-.8-13c0-.3 1.2-1 2-1.1q27.8-7 55.7-13.7l23.4-5.8c.7-.1 1.3-.4 2-.6.1-2.7-1.6-2.1-3-1.8l-38 9.4-40.2 9.9-2.3.3-1.2-13.7 29.1-7.6-.1-.7-29 6.9-1.4-12.9-1.7-15.7a16 16 0 01.4-5.4c7-25.5 14-51 20.8-76.4 2.4-8.9 3.6-18 5.3-27a21.4 21.4 0 00.2-3l-.6-.4c-.6.8-1.7 1.5-1.8 2.3-3.1 26.1-11.7 50.9-18.5 76.1l-5 18.7a8.8 8.8 0 01-1 2.3l.4-5.7c.5-11.8-2.1-23.2-4.4-34.7q-5-25.5-10.3-51c-.3-1.7.5-2 1.8-2.3l113.8-30.5c18.7-5 37.4-10.3 56-16 8-2.5 15.6-6.4 23.4-9.7a9.7 9.7 0 001.4-.9zm-132.2 131.3a49.9 49.9 0 01-6 1.1c-2 .1-2.2 1-2.1 2.6l.5 40.5c0 3.8 0 7.8-4.6 9.6l6.7-1.7v-2.9V448c0-5.1 0-5.1 5-7.1.2-.1.3-.4.4-.6a72.5 72.5 0 007.6-.6l34.6-6.5 13-2.6-.2-1zm-3.8-158.7l20 41.4c.7 1.5 2 1.1 2.9.3a59 59 0 0016.4-21.1c4-10.4-.3-20-11-23.2a44.8 44.8 0 00-13.7-1.5 32 32 0 00-14.6 4z" class="cls-1"/>
      <path d="M875.8 296.3a19 19 0 0018.5-1.6v-.9a8.5 8.5 0 00-2.4 0c-2.2.7-4.3 1.7-6.4 2.4-3.2 1-6.2.3-9.4-.7l3.4-14c21.8 6.9 44 11.4 67.2 7.8h-18.6l1.2-15.2c11.6 1.5 23 .2 34.6-2 .3 3.4.7 6.8.8 10.1 0 .7-1 1.4-1.6 2.1l1.8-.3 1.1 14.2-9.4-6.1-.7 1c1.8 1.5 3.5 3.5 5.5 4.3 4 1.4 5 3.9 5.4 7.9 3.3 29.6 11 58.5 16.7 87.7 3.3 17.3 6.3 34.7 9.2 52a63.6 63.6 0 01.4 13.8c-.5 10.7.5 21.3 1.7 32 1.1 10.3 1.9 20.6 2.7 30.9l2.9 35.3 1.7 25.9c.2 3.1.6 6.3.7 9.4a4 4 0 01-1.1 2.7c-3 2.8-6.7 3.3-10.7 2.5-7.1-1.2-7-1.2-8.8-8-5.7-21.8-11.3-43.5-17.6-65a106 106 0 01-4.2-42 82.8 82.8 0 00-3.8-31.5c-10-36.2-19.7-72.5-29.6-108.8l-.7-2.1c-1-3-3.5-3.6-5.4-1a10.7 10.7 0 00-1.8 5.3q-1.5 35.2-2.7 70.3a523.2 523.2 0 01-7.5 74.6c-3.8 21.3-7.8 42.5-11 63.8-2.4 15-3.8 30.2-5.5 45.2-.4 3.4-.5 3.9-4 3.7a20 20 0 01-6.2-1.6c-1.8-.7-3.1-2.2-4.8-2.8-3.4-1.3-3.7-3.9-3.9-6.8l-2.6-37.6c-1.2-18.2 0-36.2 5-53.7a82.7 82.7 0 002-33.8l-5.3-42.9-7-52.1a122.1 122.1 0 01.5-33.5c1.9-13.4 4.5-26.7 9.1-39.5l.6-1.4z" class="cls-1"/>
      <path d="M780.4 557.7v-4.6l-.1-129.5a12 12 0 00-.2-3.3c-.8-2.7.3-3.5 2.9-4.2 27-6.5 54-13.2 81.1-19.9l2.2-.3 3.2 25 3.9 31c1 8.4 2.2 16.7 3.1 25 .9 8.2-.7 16.1-3 23.9-3 10.8-5.5 21.7-6 33 0 1.2-.4 1.8-1.7 2.1l-84.1 21.7a12.1 12.1 0 01-1.3.1zM748.6 524.2c0 12.5.3 25 0 37.5-.4 13.5-3.9 26.4-8.7 39-5 12.7-10.5 25.2-18.3 36.5-9.6 14-23.2 22-39.4 26.1-19.4 5-39.2 6.5-59.3 6-13-.4-26-.1-39-.2-4.2 0-8.4-.4-12.6-.8a10 10 0 01-7.1-4.5c-4.2-5.9-6-12.6-6.7-19.5-.3-3 1-6.1 1.5-9.2l4-33.4c2.3-19.4 5-38.8 9.2-58 4.8-22 11-43.8 19.8-64.7a163.7 163.7 0 0130-48.4 78.6 78.6 0 0145.8-26c17.8-2.9 35-1.5 50.2 9.4a75.3 75.3 0 0123.5 30.5 75 75 0 016.6 31l1.2 48.7zm-6 6c-.2-4.9-.3-13.6-1.2-22.3-1-10-1.6-20.3-4-30a81.5 81.5 0 00-44-55 38 38 0 00-30.9-2.5 90.6 90.6 0 00-51.2 43c-13.8 24.4-18.7 51.2-19.7 78.9a208 208 0 002.5 41.7 94.2 94.2 0 0017.2 42 61 61 0 0080.1 16 96.5 96.5 0 0037.8-42.4c9.8-20.8 12.8-42.9 13.5-69.3zM1142 517c-14.6-10-19.6-25.2-22.5-41.4a144.6 144.6 0 01-2.1-39c2.1-23.3 8.8-45 23.7-63.5a47.2 47.2 0 018-7.7c6.6-5 12.6-4.6 18.6 1 5.5 5.3 8.3 12 10.9 19 3.2 8.8 3.3 17.9 3.5 27 .3 10.5.4 21 0 31.5-.7 19.2-3.7 38-12.2 55.4a53.3 53.3 0 01-6.8 10.4c-5.5 6.7-12.3 10.3-21.3 7.3zM885.3 87.3L882.7 55l34.1-10.6c-3.4.7-7 1.3-10.6 2.3-6.8 2-13.5 4.4-20.3 6.4a24 24 0 01-16-.8c-6.3-2.5-8.6-8-6-14.3s7.8-10.1 13.9-12.7A86 86 0 01901 20a66 66 0 005.2-1c3-.6 4.3-2.5 4.6-5.3.9-6.3 4.2-10 10.4-11.2 2-.5 4-.6 6.2-.8a32.9 32.9 0 00-3.7 2.6c-2.2 2.1-2.2 4.6 0 6.7a32.2 32.2 0 004 3.2c3 2.2 4.8 5.1 4.2 9-.9 5.4 1 9.4 5.8 12.4a28 28 0 016.2 6 9.5 9.5 0 01-.3 12.8c-1.3 1.4-2.6 2-4 0l-2.7-3.5a12 12 0 00-10-5.2c5 1 6 5.5 8.6 8.7 6.3 7.3 3.9 15.8 4.4 23.4-2.6-.5-5-1.4-7.2-1s-4.3 1.6-6.3 2.8c-1.5 1-1.5 4.4-.2 6.8 1 2 2.8 2.2 4.8 1.7a6.2 6.2 0 004.2-7.9l-.8-2.4c2.8-.4 4.3 1.3 3.9 4.3A8.8 8.8 0 01933 89c2 .6 2.3.5 5.2-2.2-.3 2.3-.5 4.4-1 6.5-.8 4.5.1 8.9 1.2 13.3 1 3.6 2 7.5 1.7 11.2-.6 7-6.8 11.5-14.7 12.2-13.4 1-22.3-5.8-29.4-16-1.8-2.8-3.8-5.5-5.4-8.4a22.6 22.6 0 00-9.8-9.3 24.2 24.2 0 01-10.6-10.7c-1.5-2.8-1-3.8 2.3-4a9.5 9.5 0 018.5 3.8 15.8 15.8 0 003.1 2.4zm32.6 29.3c3.4-.9 3.4-.9 8.3 1.6a851 851 0 00-1.3-3.8l5-1.4 1.8 4.3 1-.2-.8-4.3 3.3-.3-6-3.5.2 2.5-4.9 1.3-1.9-2.3-.5.4.6 2.7-4.8 1.2-1.1-3.5-.8.2-.2 3.3a21.6 21.6 0 01-3.7-.7c-.6-.2-1-1-1.2-1.7a13 13 0 01-.5-2.4l-1.2 2.3a7.3 7.3 0 01-.6.8l-4.2-2.5 1.4-4-1-.3-1.9 3-2.2-1.4-.4.4 1.7 2-.6 4 .8.2 1.4-3a24.7 24.7 0 003 1.7c1.7.7 2.6 1.7 2 3.7-.3.5.2 1.2.4 1.9l.7-.1.8-3.5c2.8 1 6.2.3 7.7 3.9l-.3-2.5zm-6.4-31.8l.7-.7-2.5-3c-3-3.4-6.7-5.2-11.5-4.6-3 .5-5.8 3.2-5.7 5.8 0 3.7 5.8 8.4 10.4 7.7l-4.7-2.5c6.6-.7 6.7-.8 7.3-8.1l6 5.3zm21 16c-3.4 5-8 6.1-13 3.6a13.4 13.4 0 00-3.2-.6c5.2 6 15.4 4 19-3.1a9.2 9.2 0 00-1.3-1.1c-6.7-4-10.8-9.9-13-17.2a7.8 7.8 0 00-1-2.6 8 8 0 00-2.1-1.4l-.6.7c2.7 8.8 6.7 16.7 15.3 21.7zm-43.4-29.9l.7-.2.7-1.6c1.8-4.7 5.1-6.3 9.9-4.7 2 .6 3.7 1.6 5.6 2.3l3.7 1.3c0-1-.3-2-.8-2.2-4-1.5-8-3.3-12.1-4.3-4-.9-8.4 3.3-8.4 7.3a6.2 6.2 0 00.7 2.1zm47.8-4.6c-.8 2.5-2.6 4.1-5.2 4a58.4 58.4 0 01-7.4-1.4c.5.8.7 1.4 1 1.5 3.3 1.6 6.6 2.8 10.2 1.4a7.2 7.2 0 002.8-2.5c1-1.4.5-2.5-1.4-3zM930.8 272.8l-.6-3.7c-.1-3.5.5-4.3 3.8-5.6 8.3-3 16.4-6.3 23.4-12 8.8-7.1 10-15.7 3.2-24.6a7.8 7.8 0 01-1.7-5.3c.2-14.5-1-28.8-5.1-42.8-.4-1.4-.8-2.6-3.1-2.1a143 143 0 015.5 45.6c-5.8-2.1-9 1-11.2 5.6-2.9 5.8-7.8 8.4-14 9.3-.8-5.2-1.2-10.5-2.7-15.4a797.6 797.6 0 00-11.6-33.8c-3.6-10-7.3-20-8.8-30.8l2.5-1.9c3.2 1.5 6 3.2 9.2 4.2 4.2 1.5 6.3-.7 5.3-5l-1.4-8a9.7 9.7 0 01.1-2l7.3 2.9c6.3 2.3 12.6 4.5 18.8 7 9.1 3.6 15.1 10 17.8 19.6 4.8 17 9.8 34 14.5 51a80 80 0 012.3 31.7c-.6 4.8-2.8 8.5-7.6 10-14.8 4.5-30 7.4-46 6zM958.2 512.1l-53 13.6 1.7-10.6c3-19.3 6.3-38.5 8.8-57.8 1.4-10.2 1.7-20.6 2.2-31l2.2-42.4a2.8 2.8 0 011.7-2c4-1.1 8.1-2 12.5-3.1 1 3.2 1.9 6.5 2.7 9.7l19 70c2.4 9 2.5 18 1.6 27a77 77 0 00.6 24.8 8.7 8.7 0 010 1.8zM876.5 610.5c4.4 3 9.5 4.8 15.4 3.6 4.3 13 13.2 23 20.6 33.8 4.7 6.8 9 13.8 10.8 22 1.1 5-.7 7.3-5.8 6.6-6-.8-11.2-3.7-16.3-6.7a56.3 56.3 0 01-19-19.3c-3.2-5.4-6.4-10.7-11.5-14.7a7 7 0 01-2.3-8.3 61 61 0 013-6.1l5.1-10.9zM985.3 606c7.6 2.1 14.8 3.2 21.3-2.4 5.1 6.7 12.8 7.9 20 9.7 10.7 2.6 21.4 4.8 32 7.2a12.7 12.7 0 017.2 4.3c-2.3 4.7-5.8 7-11.1 7.1-12.2.5-24.3 1.4-36.4 2.4-5.8.4-11.6 1.7-17.4 2.1a33 33 0 01-9.6-.7 8.9 8.9 0 01-7.4-9.3c0-5.6.7-11.2 1.1-16.8l.3-3.6z" class="cls-1"/>
      <path d="M987.5 246.7c5.3 3 10.6 5.7 15.5 9a124.9 124.9 0 0113.7 10.6c3.6 3.2 3.7 6-.1 9.2a103.4 103.4 0 01-15.7 11.2c-10.2 5.7-21 10.7-32 16.2l-2.4-31.3 9.3-2.4c8.1-2 10.4-4.8 11-13.2l.7-9.3zM900 559c.8-5.1 1.4-9.8 2.3-14.5.1-.6 1.4-1.3 2.2-1.5l51.8-12.8 6-1.5 3.8 13.5zM903 540.6c.6-4.5 1.2-8.7 2-12.8 0-.4.8-1 1.4-1.1l51.6-13.3a2.5 2.5 0 01.7 0l2.6 11.6c0 .4-1 1.5-1.8 1.7l-39.1 9.6zM879.9 280v-10.3a7.4 7.4 0 011.6.5c8.7 5 17.9 5.3 27.1 1.7 3.8-1.5 7.3-1.9 11.2-.1 2.2 1 4.8 1.4 7.6 2.2-.5 4.6-.8 9.3-1.4 13.9-.3 2.1-2.2 1.2-3.3 1-6.4-.9-12.8-1.6-19-3-8-1.7-16-3.9-23.9-5.9zM948.5 254.9c-1.8-9.8-2.6-11.9-6.7-17.8l5.6-8c1.8-2.7 3.7-5.3 7.3-5s5.3 3.1 6.4 6.2c3.3 9.1 2 14.6-5.5 20-2.1 1.7-4.5 3-7 4.6zM881.7 84c-3.3-2.8-6.9-5-11.4-5-.6 0-1.4-1.2-1.7-2-2.6-5.5-3-11.4-2.4-17.4.2-2 .6-4 .9-5.8l11.2 1a1.8 1.8 0 011.3 1c1.1 9.3 2 18.6 3 28zM934 377.6l-13.9 3.5 1.7-41.2c2.9.4 3.3 2.2 3.7 3.7 1.1 4.3 1.8 8.8 3 13.1 1.5 6.3 3.3 12.6 5 18.8l.4 2.1zM912.8 129.4a32 32 0 00-.9 4.3c-.1 2 0 3.9-2.7 4.3-.5 0-1 1.2-1.3 2a34 34 0 01-2.5 5.8l-.2-3.8a6 6 0 00-3-5.2c-3.7-2.4-7.3-5-10.8-7.4l4.6-13a35 35 0 0016.8 13zM887.8 158.5c-2-.3-2.6-.9-2.2-2.8.9-4.7 1.5-9.5 2.3-14.3.4-2.3.6-5.1 3.1-6s3.8 1.8 5.2 3.4 2.5 3.8 4.2 5c3.4 2.8 1.6 6 1.3 9 0 .3-.4.6-.7.7l-13.3 5zM909.9 147.4c2.7-2.6 5.4-5.3 8.2-7.8a4.7 4.7 0 012-1c1.8-.4 3 .3 2.4 2.2-1.2 4.8-.4 9.4.7 14 .6 2.6-.3 3.9-2.8 3.2a60 60 0 01-8.7-4c-.2 0-.2-.7-.3-1l-.7-5.2zM874.4 598.3c5.6 4 10.6 7.4 17.5 4.7v7.5c0 .4-.8 1-1.4 1.3-3.7 1.4-11.8-.7-14.4-3.7a2.3 2.3 0 01-.5-1.1l-1.2-8.7zM984.3 598c6.6.8 13 4.6 19-.8 2.6 4.8 3 4.8-1.7 7.4-5.3 3-10.7 1.3-16-.3a1.6 1.6 0 01-.8-1.2l-.5-5.1zM934.2 239l1.2-.3c4.7-1.1 5-1.2 7 3.1a42.7 42.7 0 013.5 10c.9 4 .4 4.4-3.5 5.5-1-3.2-1.9-6.5-3.3-9.5s-3.2-5.8-5-8.8zM906.6 148.1c1.8 0 3.7 1.7 3.7 3.3 0 1.8-2 4.1-3.4 4.1a4.2 4.2 0 01-3.7-3.9 3.9 3.9 0 013.4-3.5z" class="cls-1"/>
      <path d="M888.5 133.6l1.7-2.7c4 2.7 8 5.3 11.7 8 .6.5.6 1.7.8 2.5l.4 4-1.6-2-6.4-7.5c-1.8-2-3.7-3.3-6.6-2.3zM931 78.2c1.5 1.7 2.5 3.6 1.4 5.7-.5.8-1.9 1.2-2.9 1.8a24.6 24.6 0 01-1.7-4c-.6-2.5 1.7-2.6 3.2-3.5zM907.6 146.6c.7-2 1.2-4 2-6s2-1.6 4 .4l-5.5 5.8zM927.7 265.7l.4 6.2c-3.4.7-3.9 0-3.3-5.2zM921.8 267.6a13.3 13.3 0 01.2 1.4v2.3l-5.9-1.9z" class="cls-1"/>
      <path d="M44.8 417a9 9 0 011 2.1 44 44 0 0019 29.3c13.2 10 28.4 15.9 44 20.4a289.5 289.5 0 0042.1 8.4c40.7 5.5 81.5 5.3 122.4 5q34.7-.2 69.3-1.6 31-1.2 61.8-3.6c21-1.7 42-3.6 62.9-6 32.4-4 64.9-8.3 96.5-16.8 11.4-3 22.4-7.3 33.5-11 1.7-.6 2.8-.7 3 1.8-6.1 2.2-12.3 4.6-18.5 6.7a368 368 0 01-61.3 14.3c-18 2.7-36 5.3-54.1 7.5a2091 2091 0 01-108 9.1c-18.9 1-37.6 1.7-56.4 1.9-26.4.2-52.9.2-79.3-.4q-27.9-.6-55.7-3A261.6 261.6 0 0192.7 465a95.1 95.1 0 01-36.6-23.2 43.4 43.4 0 01-12-24.6zM110.2 551a21.1 21.1 0 012.3-1c9.7-3 19.6-4.1 29.6-4.4 41.2-1.2 82.4-2.1 123.6-3.1l25.5-.5a67 67 0 018.4.6c4.4.5 7.3 3.4 9.8 6.7l51 68a26.6 26.6 0 013.4 6.2c1.2 3.2.1 5.4-3.2 5.7-6.6.5-13.3 1.2-19.8.6a1289 1289 0 01-55-5.4c-22.6-2.8-45.2-6.2-67.8-9.5a154 154 0 01-35.9-8.8 57.6 57.6 0 01-36.5-41 72.3 72.3 0 01-1.3-9.9c-.2-1.6.6-2.4 2.4-1.9l1 9.8c2 14 9.4 24.4 20.7 32.2a98.8 98.8 0 0038 15.3c14.8 3 29.8 5.1 44.8 7.3a1269 1269 0 0071.9 7.7q16.9 1.2 33.8 2c6 .3 6.7-.9 3.2-5.9a775.3 775.3 0 00-22.8-31.5c-11.3-15-23.1-29.6-34.8-44.2a3.9 3.9 0 00-2.7-1.3c-25.1.2-50.3.3-75.4.7q-24.4.3-48.7 1.2a1206 1206 0 00-43.8 2.2c-6.2.4-12.3 2-18.5 3.1a18.5 18.5 0 01-3 0z"/>
      <path d="M83.7 498.2c5.6 1 11.2 2.2 16.9 3a996.3 996.3 0 0062 7.1c12 1 24.1 2.1 36.3 2.4a1112 1112 0 00126-2.6c17.2-1.2 34.3-3 51.5-4.9a1575.7 1575.7 0 0098.4-13.5c21.5-3.7 42.8-7.8 64.2-12 14.2-2.8 28.3-6.2 42.4-9.4 1.4-.3 2.8-.7 4 1.2-6.1 1.4-12 3-18 4.1-22.4 4.6-44.7 9.4-67 13.6-16.7 3.2-33.4 5.8-50.1 8.4a1613.7 1613.7 0 01-88.6 11.2 1119.9 1119.9 0 01-88 5.6c-24.6.3-49.2.5-73.9-.2-19.7-.6-39.5-2.2-59.2-4a363 363 0 01-55.8-9.4l-1.2-.3zM318.2 457.2l3.8-2.3 83.9-44.5c16.4-8.7 32.7-17.6 50.1-24.1a75.4 75.4 0 0128.7-6 94.8 94.8 0 0133.7 7 28.3 28.3 0 014.3 2.3c4.3 2.7 4.7 6 .8 9.4a43.8 43.8 0 01-7.2 5.6c-10.2 5.9-20.5 11.7-31 17.2a315.6 315.6 0 01-60.6 24.5 254 254 0 01-49.4 8L320 458h-1.4zm6.1-1.9l.1.5 13.1-1c17.8-1.4 35.6-2.5 53.3-4.2a198.4 198.4 0 0043.7-9c29.8-9.7 57.5-24 84.2-40.2a17.2 17.2 0 003.4-2.6c2.4-2.5 2.4-5-.4-7a23.7 23.7 0 00-7.7-3.7 248 248 0 00-23.7-4.6 77.3 77.3 0 00-16.7-.2c-8.6.7-16.3 4.4-24 8A1749 1749 0 00338 447.8zM538.4 628c.6-11.3 1-22.3 1.7-33.3 1.3-20.8 3-41.5 11.2-61 5.9-14.1 13.1-27.4 20.7-40.5.4-.7 1.5-1 2.3-1.5l.7.7c-.6 1-1 2.2-1.7 3.2a320.7 320.7 0 00-20.3 40.5 135.6 135.6 0 00-8.9 40.8l-3 50.3c0 1.7-.6 2.3-2.3 2.5-14.5 2-29 4.1-43.6 6q-21.3 2.9-42.6 5.5-19.2 2.3-38.5 4.2c-14.2 1.5-28.3 3-42.6 3.8-10 .6-20 .3-30 .2-.6 0-1.3-.7-1.9-1 .7-.5 1.4-1.2 2.1-1.2 10.3 0 20.6.6 30.8.2 9.5-.4 19-1.7 28.4-2.7l30.3-3.3 32.1-3.8 34-4.4 28-3.8c3-.4 6-.5 9-.8 1.3 0 2.6-.3 4.1-.5z"/>
      <path d="M640.6 333.4a12 12 0 01-2.6 1c-5.5.8-11 1.4-16.3 2.5-16.8 3.2-33.5 6.2-50.1 9.9q-59 13-116.8 31c-30 9.3-60 19.2-88.9 32a363.1 363.1 0 00-44.3 23.2l-.7.4-2.5.2c.4-.7.7-1.7 1.3-2 9.3-5.3 18.5-10.8 28-15.5a713.3 713.3 0 0194-36.7c35.2-11.4 70.9-21 106.9-29.5 21.7-5.2 43.6-9.7 65.5-14.2 8-1.6 16-2.5 24.1-3.7a6.9 6.9 0 012.3.5v.9zM563.5 497.8l-9.7 14c-11.4 16-23 31.6-34 48a36.8 36.8 0 01-27 16.3l-21.5 3c-1.2 0-2.4-.5-4-.8l8.6-17.1 13.8-27.5 3-5.6c4.7-9 12-14.7 22-17.4 14.9-4 29.7-8.7 44.5-13 1.1-.4 2.4 0 4.3.1zM471 576.7l.4 1 23.7-4a32.2 32.2 0 0022-14.7c10.8-15.6 21.9-31 32.9-46.5l8.6-12.3a9.3 9.3 0 00-1.2.2L515 512.9c-7.7 2.2-13.9 6.4-18.1 13.4-1.1 1.9-2.4 3.7-3.4 5.7-4.6 9-9 18.2-13.6 27.3l-8.9 17.4zM535.5 580.1a77.6 77.6 0 01-5.7 23.1 22.2 22.2 0 01-16.7 13.6l-52 10.3c-4.5.9-9 1.6-13.5 2.3a9.5 9.5 0 01-2.4-.2 7.6 7.6 0 01.4-2.3l19-36.2a3.9 3.9 0 012.2-1.8c7.5-1.8 15-3.7 22.7-5 12-2 24.1-3.7 36.2-5.5l6.8-1c2.9-.5 3-.4 3 2.7zm-86.8 46.5a8.5 8.5 0 001.3 0c9.4-1.7 19-3.3 28.4-5.1 11.7-2.3 23.3-4.7 34.9-7.2a18.3 18.3 0 0011.4-7.5c5.6-8 6.8-17.4 8.2-27l-6.1.7-30.7 4.3c-9.1 1.2-18.2 2.3-26.8 5.7a7 7 0 00-3.4 3l-13 25.3-4.2 7.8zM116.4 592.6l-2.8-.8L44 566.3c-2.3-.9-2.9-1.8-2.4-4.2 1.7-7.6 3-15.2 4.3-22.7.3-2 1-2.4 2.9-1.6l50.6 21.7a10.2 10.2 0 014.8 4.6c4.1 8.7 7.9 17.6 11.8 26.5a14.3 14.3 0 01.4 2zM49 539.7c-1.6 7.7-3 15.2-4.7 22.6-.6 2.6.8 3 2.5 3.6l60 22 6.5 2.5c-3.8-8.7-7.5-16.8-10.8-25-1.4-3.6-3.8-5.4-7.2-6.8-14-5.6-27.8-11.3-41.6-17l-4.7-1.9zM762.5 395a9.5 9.5 0 01-2.5.3c-11.7-1.6-23.4-4-35.2-4.9-26.7-2.1-53 0-77.7 11.5A91.3 91.3 0 00617 424a15.2 15.2 0 01-3 2l-.7-.9 2-2.6a100 100 0 0148.5-29 176 176 0 0158.3-5.2 262.4 262.4 0 0138.8 5.3 13.3 13.3 0 011.6.5zM84 417c.8.3 1.8.4 2.3.9a108 108 0 0044.7 23.8 226 226 0 0059.6 10.5c10.8.4 21.6 0 32.4 0a5.9 5.9 0 012.8.5 4.8 4.8 0 01-1.2.5c-38 2.2-75.2-2.3-110.8-16.4a89.5 89.5 0 01-27.2-16.3l-2.9-2.8zM40.8 539.2c-2.2-.8-8.5-13.7-9.1-18.6 1 1 2 1.3 2.3 2l6.6 14.7a7.2 7.2 0 01.2 2zM34.4 474.4c-6.9-5.3-14.6-18-15-24.8 1 1 1.8 1.5 2 2.2a55.2 55.2 0 0013 22.6zM1041 281.6a32 32 0 0114.6-4 44.8 44.8 0 0113.8 1.4c10.6 3.2 15 12.9 10.9 23.2-3.4 8.6-9.8 15-16.4 21-1 1-2.3 1.4-3-.2l-19.9-41.4zm22 39.6a2.5 2.5 0 00.6-.3l1.9-1.7c6-6.4 11.7-13 13.3-22 1.1-6-1-11.3-6.2-14.2-9.1-5.2-18.7-4.5-28.7-1.4zM1044.7 440.3c-.1.2-.2.5-.4.6-5 2-5 2-5 7.1v44.4l-6.7 1.7c4.7-1.8 4.6-5.8 4.6-9.6l-.5-40.5c0-1.6.2-2.5 2-2.6a49.9 49.9 0 006-1zM1044.8 440.3l54.9-10.7.2 1-13 2.6-34.6 6.5a69.9 69.9 0 01-7.6.6zM742.7 530.3c-.7 26.4-3.7 48.5-13.5 69.3a96.5 96.5 0 01-37.8 42.2 61 61 0 01-80.1-16 94.2 94.2 0 01-17.2-41.9 208 208 0 01-2.5-41.6c1-27.7 6-54.4 19.8-78.9a90.4 90.4 0 0151.2-43 38 38 0 0130.8 2.5 81.4 81.4 0 0144 55c2.4 9.7 3 20 4 30 .9 8.7 1 17.4 1.3 22.4zm-2.3-.4a281.7 281.7 0 00-4.5-48.9 77 77 0 00-41.7-56 37.8 37.8 0 00-30.9-2.3 85.6 85.6 0 00-32.7 20 107 107 0 00-25.8 42.8A212.5 212.5 0 00595 536a181.3 181.3 0 002.2 54.5c3 13.6 7.6 26.4 16.8 37.1a58 58 0 0072.5 14.4c21-11.6 35-29.5 43.7-51.5 7.8-19.5 10-40 10.2-60.6zM918 116.5l.2 2.7c-1.5-3.6-5-2.9-7.7-3.9l-.8 3.5-.7.1c-.2-.7-.7-1.4-.5-2 .7-2-.2-2.9-2-3.6a24.7 24.7 0 01-2.9-1.7l-1.4 3-.8-.2.6-4-1.7-2 .4-.4 2.2 1.4 2-3 .9.3-1.4 4 4.2 2.5a7.3 7.3 0 00.6-.8l1.2-2.3a13 13 0 00.5 2.5c.2.6.6 1.5 1.2 1.7a21.6 21.6 0 003.7.7l.2-3.4.7-.2 1.2 3.5 4.8-1.2-.6-2.7.5-.4 2 2.3 4.8-1.3-.2-2.5 6 3.5-3.3.3.8 4.3-1 .2-1.9-4.3-4.9 1.4 1.3 3.8c-5-2.6-5-2.6-8.3-1.8zM911.5 84.8l-6-5.5c-.6 7.3-.7 7.5-7.2 8.2l4.6 2.5c-4.6.7-10.3-4-10.4-7.7-.1-2.6 2.7-5.3 5.7-5.8 4.8-.6 8.5 1.2 11.5 4.6 1 1 1.7 2 2.5 3zm-8.8-3c-.6-1.2.4-3.8-2.5-4-2-.1-4.5 2.1-4.5 3.8 0 1.8 2.2 3.5 4.5 3.6 2 0 2.7-1 2.5-3.3zM932.6 100.8c-8.6-5-12.6-12.9-15.2-21.7l.5-.7a8 8 0 012.2 1.4 7.8 7.8 0 011 2.6 28.1 28.1 0 0013 17.2 9.2 9.2 0 011.3 1.1c-3.7 7.1-13.9 9.1-19 3.1a13.4 13.4 0 013.2.6c5 2.5 9.5 1.4 13-3.6zM889.1 71a6.2 6.2 0 01-.8-2.2c0-4 4.6-8.2 8.5-7.3 4.2 1 8.1 2.8 12.1 4.4.5.2.8 1 .8 2.1l-3.7-1.3c-1.9-.7-3.7-1.7-5.6-2.3-4.8-1.6-8 0-10 4.7l-.6 1.6zM936.9 66.3c2 .5 2.5 1.6 1.4 3a7.2 7.2 0 01-2.7 2.4c-3.6 1.5-7 .2-10.2-1.3-.4-.2-.6-.8-1-1.6a58.4 58.4 0 007.3 1.4c2.6.2 4.4-1.4 5.2-4z"/>
      <path d="M324.3 455.3l13.7-7.5a1741 1741 0 01111.5-56.6c7.8-3.5 15.5-7.2 24-8a77.3 77.3 0 0116.8.3c8 1 15.8 2.8 23.6 4.6a23.7 23.7 0 017.7 3.7c2.8 2 2.8 4.5.5 7a17.2 17.2 0 01-3.4 2.6 403 403 0 01-84.3 40.2 198.4 198.4 0 01-43.6 9c-17.8 1.7-35.6 2.8-53.3 4.2l-13.1 1zM471 576.7l8.9-17.4 13.6-27.3c1-2 2.2-3.8 3.4-5.7 4.2-7 10.4-11.2 18.1-13.4l42.4-12.5a9.3 9.3 0 011.2-.2l-8.6 12.3c-11 15.5-22.1 30.9-32.9 46.6a32 32 0 01-22 14.5l-23.7 4zM448.7 626.6l4.1-7.8 13.1-25.3a7 7 0 013.4-3c8.6-3.4 17.7-4.5 26.8-5.7l30.6-4.4 6.2-.7c-1.4 9.7-2.5 19-8.2 27.1a18.3 18.3 0 01-11.5 7.5c-11.5 2.5-23.1 4.9-34.8 7.1-9.4 1.9-19 3.5-28.4 5.1a8.5 8.5 0 01-1.3 0zM49 539.7l4.7 1.9 41.6 17c3.4 1.4 5.8 3.1 7.2 6.8 3.3 8.2 7 16.3 10.8 25l-6.5-2.4-60-22.1c-1.7-.7-3.1-1-2.5-3.6 1.7-7.4 3.1-14.9 4.7-22.6zM1062.9 321.2l-19-39.6c10-3.1 19.6-3.8 28.8 1.4 5.2 3 7.2 8.2 6.1 14.1-1.6 9-7.2 15.7-13.3 22l-1.9 1.8a2.5 2.5 0 01-.7.3zM740.4 529.9c-.1 20.7-2.4 41-10.2 60.5a97.8 97.8 0 01-43.7 51.6 58 58 0 01-72.5-14.4 81.6 81.6 0 01-16.8-37.2c-3.8-18-3.8-36.2-2.2-54.4 1.6-17.2 4.2-34.2 9.8-50.5a107.2 107.2 0 0125.8-42.8 85.6 85.6 0 0132.7-20 37.8 37.8 0 0130.9 2.2 77 77 0 0141.7 56 280.8 280.8 0 014.5 49zM902.7 81.9c.2 2.2-.4 3.3-2.5 3.3-2.3 0-4.5-1.8-4.5-3.6 0-1.7 2.6-4 4.5-3.8 3 .3 2 2.9 2.5 4z" class="cls-1"/>
    </g>
  </g>
</svg>
