<svg xmlns="http://www.w3.org/2000/svg" id="Layer_1" x="0" y="0" version="1.1" viewBox="0 0 50 69.8" xml:space="preserve"><defs/><style>.st0{fill:#fff}</style><path d="M46.8 69.7c-3.5.2-10.5 0-11.3 0H6.1c-1.6 0-3.5.2-5-.2l-.3-.1V69l.3-4.2v-.2l.3-.1c1.4-.4 3.3 0 4.8 0h28.3l13.8-.2c.4 1.7.5 3.4.4 5 0 .2-.8.4-2 .4zM47 38H2.6C9.3 45.5 16.2 53 23.2 60.4c.1.2.2.3.4.3l.5-.2c8.2-7.1 15-15.5 23.3-22.4l-.3-.2z" class="st0"/><path d="M47 36.2L2.6 36c-1.7 0-2.3 2-1.3 3.2A1094.7 1094.7 0 0019 58.8c1.5 1.6 3.5 5 6 3.4 2.3-1.5 4.2-3.8 6.1-5.6l5.5-5.6c4-4 7.8-7.9 12.1-11.5 1-.7.6-2.3-.3-2.9l-.4-.2c-2-1.3-3.9 2-1.9 3.2l.4.2-.4-2.9C42 40.4 38.2 44.2 34.4 48L29 53.5l-2.8 2.7-1.6 1.6c-.3.2-1 1.1-1.4 1.2l1.4.2c-1-.7-1.8-2-2.7-2.8l-2.6-2.9L14 48 3.8 36.6l-1.3 3.2h44.6c2.3 0 2.3-3.6 0-3.6z" class="st0"/><g><path d="M32 36.8c0-10.4.1-20.9.5-31.3-4.8-.2-10-.8-14.8-.2 0 7.4.4 15.8 0 23.3-.1 2.7-.4 5.3-.3 8" class="st0"/><path d="M33.8 36.8c0-10.4.2-20.9.6-31.3 0-1-1-1.8-1.9-1.8-5-.3-9.9-.8-14.8-.3-1 .1-1.9.8-1.9 1.9l.2 15.6-.1 7.7c-.2 2.7-.5 5.3-.3 8 .1 2.4 3.8 2.4 3.7 0-.2-2.7.1-5.3.3-8l.1-7.7-.2-15.6L17.7 7c5-.5 9.9 0 14.8.3l-1.8-1.9C30.3 16 30 26.4 30 36.8c0 2.4 3.7 2.4 3.7 0z" class="st0"/></g></svg>