<?xml version="1.0" encoding="utf-8"?>
<!-- Generator: Adobe Illustrator 24.2.1, SVG Export Plug-In . SVG Version: 6.00 Build 0)  -->
<svg version="1.1" id="Layer_1" xmlns="http://www.w3.org/2000/svg" xmlns:xlink="http://www.w3.org/1999/xlink" x="0px" y="0px"
	 viewBox="0 0 50 69.8" style="enable-background:new 0 0 50 69.8;" xml:space="preserve">
<style type="text/css">
	.st0{fill:#FFFFFF;}
</style>
<g>
	<path class="st0" d="M47.8,29.5c-1.4-1.4-3.3-2.2-5.3-2.2s-3.9,0.8-5.4,2.2L32.7,34V7.6C32.7,3.4,29.2,0,25,0s-7.6,3.4-7.6,7.6V34
		L13,29.6c-1.4-1.4-3.4-2.2-5.5-2.2l0,0c-2,0-3.9,0.8-5.3,2.2C0.8,31,0,32.9,0,34.9s0.8,3.9,2.2,5.4l18.4,18.4
		c1.2,1.2,2.8,1.8,4.4,1.8s3.2-0.6,4.4-1.8l18.3-18.3c1.4-1.4,2.3-3.4,2.2-5.5C50,32.8,49.2,30.9,47.8,29.5L47.8,29.5z"/>
	<path class="st0" d="M46.8,69.8H3.2c-1.2,0-2.2-1-2.2-2.2s1-2.2,2.2-2.2h43.6c1.2,0,2.2,1,2.2,2.2S48,69.8,46.8,69.8z"/>
</g>
</svg>
