<?xml version="1.0" encoding="utf-8"?>
<!-- Generator: Adobe Illustrator 24.0.3, SVG Export Plug-In . SVG Version: 6.00 Build 0)  -->
<svg version="1.1" id="Layer_1" xmlns="http://www.w3.org/2000/svg" xmlns:xlink="http://www.w3.org/1999/xlink" x="0px" y="0px"
	 viewBox="0 0 50 69.8" style="enable-background:new 0 0 50 69.8;" xml:space="preserve">
<style type="text/css">
	.st0{fill:#FFFFFF;}
</style>
<g>
	<path class="st0" d="M46.8,69.73c-3.51,0.2-10.49-0.07-11.35-0.07c-7.08,0-14.16,0-21.24,0c-2.68,0-5.36,0-8.04,0
		c-1.58,0-3.48,0.25-5-0.13c-0.1-0.02-0.21-0.06-0.27-0.15c-0.08-0.11-0.07-0.27-0.05-0.41c0.12-1.39,0.24-2.78,0.36-4.16
		c0.01-0.08,0.02-0.16,0.06-0.23c0.05-0.08,0.13-0.11,0.21-0.13c1.39-0.38,3.36-0.03,4.83-0.03c2.18,0,4.36,0,6.54,0
		c7.26,0,14.52,0,21.79,0c4.59,0,9.21-0.15,13.79-0.1c0.36,1.63,0.48,3.34,0.36,5.02C48.78,69.54,47.99,69.66,46.8,69.73z"/>
</g>
<g>
	<g>
		<path class="st0" d="M47.06,38.01c-14.85-0.02-29.7-0.05-44.55-0.06C9.3,45.58,16.2,53.11,23.2,60.55
			c0.11,0.11,0.22,0.23,0.37,0.26c0.21,0.04,0.41-0.11,0.55-0.25c8.13-7.07,15.01-15.48,23.29-22.33L47.06,38.01z"/>
		<g>
			<path class="st0" d="M47.06,36.16c-14.85-0.02-29.7-0.05-44.55-0.06c-1.68,0-2.34,1.99-1.31,3.16c4,4.49,8.01,8.95,12.08,13.37
				c1.9,2.06,3.81,4.12,5.72,6.17c1.5,1.6,3.53,5.01,6.05,3.37c2.23-1.46,4.19-3.74,6.08-5.6c1.85-1.82,3.67-3.67,5.49-5.54
				c3.9-3.97,7.82-7.92,12.11-11.48c0.95-0.79,0.55-2.32-0.37-2.91c-0.12-0.07-0.25-0.15-0.37-0.23c-2.02-1.27-3.88,1.94-1.86,3.19
				c0.12,0.07,0.25,0.15,0.37,0.23c-0.12-0.97-0.25-1.94-0.37-2.91C42,40.35,38.2,44.15,34.43,48c-1.82,1.85-3.64,3.71-5.49,5.54
				c-0.92,0.91-1.85,1.81-2.8,2.7c-0.54,0.51-1.09,1.01-1.63,1.52c-0.31,0.28-1.01,1.17-1.41,1.26c0.48,0.06,0.95,0.12,1.43,0.18
				c-0.99-0.68-1.86-1.95-2.68-2.81c-0.89-0.95-1.78-1.9-2.66-2.86c-1.7-1.84-3.4-3.67-5.09-5.52c-3.45-3.77-6.87-7.56-10.26-11.38
				c-0.43,1.05-0.88,2.11-1.31,3.16c14.85,0.02,29.7,0.05,44.55,0.06C49.44,39.86,49.44,36.16,47.06,36.16z"/>
		</g>
	</g>
	<g>
		<path class="st0" d="M31.93,36.82c-0.01-10.44,0.18-20.88,0.59-31.31C27.67,5.28,22.5,4.75,17.68,5.28
			c0,7.4,0.38,15.77,0.04,23.33c-0.12,2.66-0.44,5.34-0.27,8"/>
		<g>
			<path class="st0" d="M33.78,36.82c-0.01-10.44,0.18-20.88,0.59-31.31c0.04-1.04-0.89-1.8-1.85-1.85
				c-4.94-0.25-9.9-0.74-14.85-0.23c-1,0.1-1.85,0.76-1.85,1.85c0.01,5.22,0.17,10.44,0.18,15.66c0,2.55-0.02,5.12-0.15,7.66
				c-0.12,2.68-0.41,5.33-0.27,8c0.12,2.37,3.82,2.38,3.7,0c-0.14-2.68,0.15-5.34,0.27-8c0.12-2.55,0.15-5.1,0.15-7.66
				c-0.01-5.22-0.17-10.44-0.18-15.66c-0.62,0.62-1.23,1.23-1.85,1.85c4.94-0.51,9.9-0.02,14.85,0.23
				c-0.62-0.62-1.23-1.23-1.85-1.85c-0.41,10.43-0.6,20.86-0.59,31.31C30.1,39.2,33.8,39.2,33.78,36.82L33.78,36.82z"/>
		</g>
	</g>
</g>
</svg>
