<?xml version="1.0" encoding="utf-8"?>
<!-- Generator: Adobe Illustrator 24.2.1, SVG Export Plug-In . SVG Version: 6.00 Build 0)  -->
<svg version="1.1" id="Capa_1" xmlns="http://www.w3.org/2000/svg" xmlns:xlink="http://www.w3.org/1999/xlink" x="0px" y="0px"
	 viewBox="0 0 50 50" style="enable-background:new 0 0 50 50;" xml:space="preserve">
<style type="text/css">
	.st0{fill:#FFFFFF;}
</style>
<g>
	<g>
		<path class="st0" d="M46.1,14.9C45.3,6.6,36.1,0,25,0S4.7,6.6,3.9,14.9C1.6,15.5,0,17.1,0,19c0,1.9,1.6,3.5,3.8,4.1v22.4
			C3.8,48,6.4,50,9.6,50h30.8c3.2,0,5.8-2,5.8-4.4c0-1,0-21.1,0-22.4C48.4,22.6,50,21,50,19C50,17.1,48.4,15.5,46.1,14.9z M25,2.9
			c8.9,0,16.2,5.1,17.2,11.7H7.8C8.8,8.1,16.1,2.9,25,2.9z M3.8,19c0-0.8,0.9-1.5,1.9-1.5h13.5v2.9H5.8C4.7,20.5,3.8,19.9,3.8,19z
			 M40.4,47.1H9.6c-1.1,0-1.9-0.7-1.9-1.5V23.4h11.9c0.8,1.7,2.9,2.9,5.4,2.9c0.7,0,1.3-0.1,1.9-0.3v7.7c0,2.4,2.6,4.4,5.8,4.4
			s5.8-2,5.8-4.4v-3c0-0.8,0.9-1.5,1.9-1.5c0,0,0,0,0,0c0,0,0,0,0,0c1.1,0,1.9,0.7,1.9,1.5c0,0.6,0,14.1,0,14.8
			C42.3,46.4,41.4,47.1,40.4,47.1z M44.2,20.5c-1.1,0-1.9,0.7-1.9,1.5v4.6c-0.6-0.2-1.3-0.2-1.9-0.3c0,0,0,0,0,0c0,0,0,0,0,0
			c-3.2,0-5.8,2-5.8,4.4v3c0,0.8-0.9,1.5-1.9,1.5c-1.1,0-1.9-0.7-1.9-1.5V22c0-0.8-0.9-1.5-1.9-1.5c-1.1,0-1.9,0.7-1.9,1.5
			c0,0.8-0.9,1.5-1.9,1.5s-1.9-0.7-1.9-1.5v-4.4h21.2c1.1,0,1.9,0.7,1.9,1.5S45.3,20.5,44.2,20.5z"/>
	</g>
</g>
</svg>
