<?xml version="1.0" encoding="utf-8"?>
<!-- Generator: Adobe Illustrator 24.0.3, SVG Export Plug-In . SVG Version: 6.00 Build 0)  -->
<svg version="1.1" id="Layer_1" xmlns="http://www.w3.org/2000/svg" xmlns:xlink="http://www.w3.org/1999/xlink" x="0px" y="0px"
	 viewBox="0 0 50 50" style="enable-background:new 0 0 50 50;" xml:space="preserve">
<style type="text/css">
	.st0{stroke:#FFFFFF;stroke-width:0.5;stroke-miterlimit:10;}
</style>
<g id="ct3OrO.tif">
	<g>
		<path class="st0" d="M13.58,3.24c0.47,0,0.79,0.29,1.1,0.59c1.29,1.29,2.57,2.59,3.87,3.87c0.89,0.88,0.64,0.93,1.61-0.03
			c1.27-1.26,2.53-2.53,3.8-3.79c0.2-0.2,0.41-0.42,0.66-0.54c0.57-0.27,1.02,0,1.43,0.41c0.98,0.99,1.97,1.98,2.96,2.96
			c4.91,4.91,9.82,9.82,14.73,14.73c0.18,0.18,0.37,0.34,0.52,0.54c0.39,0.49,0.38,0.97-0.01,1.46c-0.16,0.19-0.35,0.36-0.52,0.54
			c-7.31,7.32-14.63,14.63-21.94,21.95c-0.96,0.96-1.43,1.23-2.63,0.01c-5.7-5.74-11.42-11.46-17.16-17.16
			c-1.4-1.39-1.27-1.71,0.04-3.01c5-4.97,9.98-9.96,14.96-14.95c0.82-0.82,0.83-0.59-0.02-1.45c-1.31-1.32-2.63-2.64-3.95-3.95
			c-0.31-0.31-0.6-0.61-0.56-1.1C12.52,3.72,12.98,3.25,13.58,3.24z M41.28,23.2c0.48-0.48,0.47-0.49-0.01-0.98
			c-2.63-2.63-5.26-5.27-7.89-7.9c-2.63-2.63-5.26-5.27-7.9-7.89c-0.4-0.4-0.42-0.4-0.82,0c-1.09,1.08-2.18,2.17-3.27,3.26
			c-0.4,0.41-0.41,0.43,0.01,0.85c1.46,1.47,2.94,2.93,4.4,4.41c0.26,0.27,0.46,0.32,0.83,0.15c0.93-0.43,1.9-0.53,2.92-0.28
			c2.17,0.52,3.71,2.54,3.53,4.76c-0.21,2.51-2.15,4.27-4.53,4.29c-0.81,0.01-1.6-0.2-2.26-0.57c-2.15-1.2-2.94-3.83-1.97-5.82
			c0.22-0.44,0.13-0.69-0.2-1c-0.78-0.73-1.53-1.51-2.29-2.27c-0.71-0.71-1.42-1.41-2.12-2.13c-0.25-0.26-0.46-0.3-0.7,0
			c-0.09,0.11-0.2,0.21-0.3,0.31c-4.76,4.76-9.52,9.52-14.28,14.27c-0.13,0.13-0.25,0.26-0.38,0.38c-0.19,0.19-0.17,0.37,0.01,0.55
			c0.13,0.13,0.25,0.25,0.38,0.38L41.28,23.2z M26.33,18.64c-0.16,1.86,0.67,2.88,2.13,2.9c1.39,0.02,2.44-1.1,2.32-2.48
			c-0.11-1.32-1.31-2.19-2.8-1.93c0.44,0.44,0.84,0.83,1.23,1.24c0.3,0.32,0.54,0.67,0.41,1.15c-0.26,0.92-1.19,1.21-1.92,0.56
			C27.25,19.67,26.86,19.2,26.33,18.64z"/>
		<path class="st0" d="M42.08,34.01c0.04-0.86,0.29-1.64,0.73-2.34c0.55-0.88,1.12-1.74,1.72-2.58c0.61-0.86,1.4-0.88,2-0.05
			c0.65,0.89,1.3,1.8,1.83,2.77c0.51,0.94,0.81,1.96,0.53,3.08c-0.38,1.54-1.55,2.62-3.04,2.73c-1.58,0.11-2.97-0.76-3.51-2.25
			C42.19,34.93,42.17,34.46,42.08,34.01z"/>
	</g>
</g>
</svg>
