<?xml version="1.0" encoding="utf-8"?>
<!-- Generator: Adobe Illustrator 24.0.3, SVG Export Plug-In . SVG Version: 6.00 Build 0)  -->
<svg version="1.1" id="Capa_1" xmlns="http://www.w3.org/2000/svg" xmlns:xlink="http://www.w3.org/1999/xlink" x="0px" y="0px"
	 viewBox="0 0 50 50" style="enable-background:new 0 0 50 50;" xml:space="preserve">
<style type="text/css">
	.st0{fill:#FFFFFF;}
</style>
<g>
	<g>
		<g>
			<path class="st0" d="M17.6,15.9C12.5,13,7.3,10.1,2.1,7.2C1.7,7,1.2,7,0.9,7.2C0.5,7.4,0.4,7.8,0.4,8.3l3.2,13.8
				c0,0.3,0.3,0.6,0.6,0.8c0.3,0.2,0.6,0.2,1,0.1l13.5-4.4c0.3-0.1,0.4-0.2,0.6-0.5c0.1-0.1,0.1-0.3,0.1-0.5c0-0.4-0.2-0.8-0.6-1.1
				C18.4,16.4,18,16.2,17.6,15.9z"/>
		</g>
	</g>
	<g id="YzUyTE.tif">
		<g>
			<path class="st0" d="M26.4,1.1c0.1,0,0.2,0.1,0.3,0.1C29.9,1.3,33,2,35.8,3.4c6.6,3.2,10.9,8.4,12.9,15.4c0.7,2.5,1,5,0.8,7.5
				C49.2,32.2,47,37.3,43,41.5c-3.3,3.4-7.2,5.7-11.9,6.8c-1.5,0.4-3.1,0.5-4.7,0.6c-0.3,0-0.9,0-1.1-0.3c-0.1-0.2-0.1-0.4-0.1-0.5
				c0-2,0-4,0.1-6c0-0.2,0-0.3,0.1-0.5c0.2-0.3,1.5-0.1,1.8-0.2c0.7-0.1,1.4-0.2,2.1-0.3c1.3-0.3,2.5-0.7,3.7-1.3
				c2.4-1.2,4.5-3,6.1-5.2c2.2-2.9,3.2-6.3,3.1-9.9c-0.1-7.5-5.1-13.6-12-15.6c-3.3-0.9-6.8-0.8-10,0.3c-1.4,0.5-2.8,1.2-4.1,2.1
				C15.6,12,15,12.5,14.5,13c-0.3,0.3-0.8,1.3-1.2,1.4c-0.3-0.5-0.8-0.8-1.3-1c-0.5-0.2-1.1-0.2-1.6-0.3c-0.7-0.1-1.4-0.4-2.1-0.7
				c-2-1-1.3-2.3-0.1-3.6C8.5,8.5,9,8,9.4,7.6c4.3-3.9,9.4-6.1,15.2-6.4c0.1,0,0.2-0.1,0.3-0.1C25.4,1.1,25.9,1.1,26.4,1.1z"/>
		</g>
	</g>
</g>
</svg>
