<svg xmlns="http://www.w3.org/2000/svg" id="Capa_1" x="0" y="0" version="1.1" viewBox="0 0 50 50" xml:space="preserve"><defs/><style>.st0{fill:#fff}</style><path d="M17.6 15.9L2.1 7.2c-.4-.2-.9-.2-1.2 0-.4.2-.5.6-.5 1.1l3.2 13.8c0 .3.3.6.6.8.3.2.6.2 1 .1l13.5-4.4c.3-.1.4-.2.6-.5l.1-.5c0-.4-.2-.8-.6-1.1l-1.2-.6z" class="st0"/><path id="YzUyTE.tif" d="M26.4 1.1l.3.1a23.7 23.7 0 0122.8 25.1 23.8 23.8 0 01-18.4 22c-1.5.4-3.1.5-4.7.6-.3 0-.9 0-1.1-.3l-.1-.5.1-6 .1-.5c.2-.3 1.5-.1 1.8-.2l2.1-.3a16.3 16.3 0 009.8-6.5c2.2-2.9 3.2-6.3 3.1-9.9a16.4 16.4 0 00-22-15.3c-1.4.5-2.8 1.2-4.1 2.1L14.5 13c-.3.3-.8 1.3-1.2 1.4-.3-.5-.8-.8-1.3-1-.5-.2-1.1-.2-1.6-.3-.7-.1-1.4-.4-2.1-.7-2-1-1.3-2.3-.1-3.6l1.2-1.2a24 24 0 0115.2-6.4l.3-.1h1.5z" class="st0"/></svg>