<?xml version="1.0" encoding="utf-8"?>
<!-- Generator: Adobe Illustrator 24.0.3, SVG Export Plug-In . SVG Version: 6.00 Build 0)  -->
<svg version="1.1" id="Layer_1" xmlns="http://www.w3.org/2000/svg" xmlns:xlink="http://www.w3.org/1999/xlink" x="0px" y="0px"
	 viewBox="0 0 64.1 69.8" style="enable-background:new 0 0 64.1 69.8;" xml:space="preserve">
<style type="text/css">
	.st0{fill:#FFFFFF;}
</style>
<g>
	<g>
		<g>
			<path class="st0" d="M38.8,8.8c6.5,6.5,13,12.9,19.5,19.4c0.4-6.3,0.6-12.6,0.8-18.9c0-0.1,0-0.2,0-0.3c-0.1-0.1-0.2-0.1-0.3-0.1
				c-6.6-0.4-13.3,0.2-19.9-0.4L38.8,8.8z"/>
			<g>
				<path class="st0" d="M38,9.6c6.5,6.5,13,12.9,19.5,19.4c0.7,0.7,1.9,0.1,1.9-0.8c0.2-3.7,0.4-7.4,0.5-11.1
					c0.1-1.7,0.1-3.5,0.2-5.2c0-1.4,0.6-3.7-1.2-4.1c-1.6-0.3-3.5-0.2-5.1-0.2c-1.6,0-3.2,0-4.8,0c-3.4,0-6.9,0.1-10.3-0.2
					c-0.8-0.1-1.3,0.8-1.1,1.4c0,0.1,0,0.2,0.1,0.3c0.3,1.4,2.5,0.8,2.2-0.6c0-0.1,0-0.2-0.1-0.3c-0.4,0.5-0.7,1-1.1,1.4
					c3.3,0.3,6.6,0.3,9.9,0.2c1.6,0,3.2,0,4.8,0c0.8,0,1.6,0,2.4,0c0.5,0,0.9,0,1.4,0c0.3,0,1-0.1,1.2,0.1c-0.2-0.2-0.4-0.5-0.5-0.7
					c0.1,0.7,0,1.7-0.1,2.4c0,0.8,0,1.6-0.1,2.4c-0.1,1.5-0.1,3.1-0.2,4.6c-0.1,3.2-0.3,6.3-0.5,9.4c0.6-0.3,1.3-0.5,1.9-0.8
					c-6.5-6.5-13-12.9-19.5-19.4C38.6,6.9,37,8.5,38,9.6z"/>
			</g>
		</g>
		<g>
			<path class="st0" d="M44.9,15.9c-4.5,4.6-9.2,9.1-13.9,13.4c2,2.2,4.1,4.7,6.4,6.6c3.2-3.2,6.7-7.1,10.1-10.2
				c1.2-1.1,2.5-2.1,3.6-3.4"/>
			<g>
				<path class="st0" d="M44.1,15.1c-4.5,4.6-9.2,9.1-13.9,13.4c-0.5,0.4-0.4,1.2,0,1.6c2.1,2.3,4,4.6,6.4,6.6
					c0.5,0.4,1.1,0.5,1.6,0c2.3-2.3,4.5-4.6,6.7-6.9c1.1-1.1,2.2-2.2,3.4-3.3c1.2-1.1,2.5-2.2,3.6-3.4c1-1.1-0.6-2.7-1.6-1.6
					c-1.1,1.2-2.4,2.3-3.6,3.4c-1.2,1.1-2.3,2.2-3.4,3.3c-2.3,2.3-4.5,4.6-6.7,6.9c0.5,0,1.1,0,1.6,0c-2.4-1.9-4.3-4.3-6.4-6.6
					c0,0.5,0,1.1,0,1.6c4.7-4.4,9.3-8.9,13.9-13.4C46.8,15.6,45.2,14,44.1,15.1L44.1,15.1z"/>
			</g>
		</g>
	</g>
	<g>
		<path class="st0" d="M29.9,62.4c-4.5,0-9,0.1-13.4,0C9,62.2,4.2,57.8,4,50.4C3.7,40.9,3.8,31.5,4,22c0.2-7.4,5-11.9,12.3-12.1
			c2.8-0.1,5.6,0,8.5,0c0.7,0,1.3,0,2,0.1c1.9,0.4,3.5,2.1,3.6,3.7c0.1,1.8-1.6,3.7-3.8,3.9c-3.1,0.2-6.3,0-9.4,0.1
			c-4.2,0.1-5.3,1.1-5.3,5.3c-0.1,8.8-0.1,17.6,0,26.4c0,4.2,1.1,5.3,5.3,5.3c9,0.1,17.9,0.1,26.9,0c4.1,0,4.8-0.8,4.9-5.1
			c0.1-2.5,0-5,0-7.5c0-0.8-0.1-1.7,0.1-2.5c0.4-2,1.9-3.2,3.9-3.2c2,0,3.6,1.1,3.6,3.3c0.1,4.5,0.4,9-0.3,13.4
			c-0.9,5.8-5.5,9.1-11.8,9.3c-0.2,0-0.3,0-0.5,0C39.1,62.4,34.5,62.4,29.9,62.4z"/>
	</g>
</g>
</svg>
