<svg xmlns="http://www.w3.org/2000/svg" id="Layer_1" x="0" y="0" version="1.1" viewBox="0 0 64.1 69.8" xml:space="preserve"><defs/><style>.st0{fill:#fff}</style><path d="M38.8 8.8l19.5 19.4c.4-6.3.6-12.6.8-18.9V9l-.3-.1c-6.6-.4-13.3.2-19.9-.4l-.1.3z" class="st0"/><path d="M38 9.6L57.5 29c.7.7 1.9.1 1.9-.8l.5-11.1.2-5.2c0-1.4.6-3.7-1.2-4.1-1.6-.3-3.5-.2-5.1-.2H49c-3.4 0-6.9.1-10.3-.2-.8-.1-1.3.8-1.1 1.4l.1.3c.3 1.4 2.5.8 2.2-.6l-.1-.3-1.1 1.4c3.3.3 6.6.3 9.9.2h8.6c.3 0 1-.1 1.2.1a3 3 0 01-.5-.7c.1.7 0 1.7-.1 2.4l-.1 2.4-.2 4.6L57 28l1.9-.8L39.4 7.8c-.8-.9-2.4.7-1.4 1.8z" class="st0"/><g><path d="M44.9 15.9C40.4 20.5 35.7 25 31 29.3c2 2.2 4.1 4.7 6.4 6.6 3.2-3.2 6.7-7.1 10.1-10.2 1.2-1.1 2.5-2.1 3.6-3.4" class="st0"/><path d="M44.1 15.1c-4.5 4.6-9.2 9.1-13.9 13.4-.5.4-.4 1.2 0 1.6 2.1 2.3 4 4.6 6.4 6.6.5.4 1.1.5 1.6 0a429.8 429.8 0 0010.1-10.2c1.2-1.1 2.5-2.2 3.6-3.4 1-1.1-.6-2.7-1.6-1.6-1.1 1.2-2.4 2.3-3.6 3.4l-3.4 3.3-6.7 6.9h1.6c-2.4-1.9-4.3-4.3-6.4-6.6v1.6l13.9-13.4c1.1-1.1-.5-2.7-1.6-1.6z" class="st0"/></g><g><path d="M29.9 62.4H16.5C9 62.2 4.2 57.8 4 50.4c-.3-9.5-.2-18.9 0-28.4.2-7.4 5-11.9 12.3-12.1h8.5l2 .1c1.9.4 3.5 2.1 3.6 3.7.1 1.8-1.6 3.7-3.8 3.9-3.1.2-6.3 0-9.4.1-4.2.1-5.3 1.1-5.3 5.3v26.4c0 4.2 1.1 5.3 5.3 5.3h26.9c4.1 0 4.8-.8 4.9-5.1v-7.5c0-.8-.1-1.7.1-2.5.4-2 1.9-3.2 3.9-3.2s3.6 1.1 3.6 3.3c.1 4.5.4 9-.3 13.4-.9 5.8-5.5 9.1-11.8 9.3H29.9z" class="st0"/></g></svg>