<svg class="color-wheel" stack xmlns="http://www.w3.org/2000/svg" viewBox="0 0 231.36 231.36"><defs/><g data-name="Layer 2"><g data-name="Layer 1"><path fill="#f47c20" d="M197.69 34.1a115.32 115.32 0 00-82-34.1v116.11z"/><path fill="#fdce0a" d="M197.69 34.1l-82 82h115.66v-.43a115.3 115.3 0 00-33.66-81.57z"/><path fill="#65af45" d="M197.26 197.69a115.28 115.28 0 0034.09-81.58H115.68z"/><path fill="#029695" d="M115.68 231.36a115.3 115.3 0 0081.58-33.67l-81.58-81.58z"/><path fill="#4f61ac" d="M34.1 197.69a115.3 115.3 0 0081.58 33.67V116.11z"/><path fill="#6b449b" d="M0 116.11a115.28 115.28 0 0034.1 81.58l81.58-81.58z"/><path fill="#a43393" d="M33.67 34.1A115.3 115.3 0 000 115.68v.43h115.68z"/><path fill="#e12526" d="M115.68 0a115.32 115.32 0 00-82 34.1l82 82z"/></g></g></svg>