<?xml version="1.0" encoding="utf-8"?>
<!-- Generator: Adobe Illustrator 24.2.1, SVG Export Plug-In . SVG Version: 6.00 Build 0)  -->
<svg version="1.1" id="Capa_1" xmlns="http://www.w3.org/2000/svg" xmlns:xlink="http://www.w3.org/1999/xlink" x="0px" y="0px"
	 viewBox="0 0 50 50" style="enable-background:new 0 0 50 50;" xml:space="preserve">
<style type="text/css">
	.st0{fill:#FFFFFF;}
</style>
<g>
	<g>
		<path class="st0" d="M20.4,1.4c-1.8-1.8-4.6-1.8-6.4,0L1.3,14.6c-1.8,1.8-1.8,4.8,0,6.6L16.6,37l19.1-19.8L20.4,1.4z"/>
	</g>
</g>
<g>
	<g>
		<path class="st0" d="M40.8,46.9h-15c-0.8,0-1.5,0.7-1.5,1.6s0.7,1.6,1.5,1.6h15c0.8,0,1.5-0.7,1.5-1.6
			C42.3,47.6,41.6,46.9,40.8,46.9z"/>
	</g>
</g>
<g>
	<g>
		<ellipse class="st0" cx="19.7" cy="48.4" rx="1.5" ry="1.6"/>
	</g>
</g>
<g>
	<g>
		<path class="st0" d="M48.7,30.6L37.9,19.4L18.8,39.2l4.4,4.6v0h19.2l6.3-6.6C50.4,35.4,50.4,32.4,48.7,30.6z"/>
	</g>
</g>
</svg>
