<?xml version="1.0" encoding="utf-8"?>
<!-- Generator: Adobe Illustrator 24.2.1, SVG Export Plug-In . SVG Version: 6.00 Build 0)  -->
<svg version="1.1" id="Capa_1" xmlns="http://www.w3.org/2000/svg" xmlns:xlink="http://www.w3.org/1999/xlink" x="0px" y="0px"
	 viewBox="0 0 50 50" style="enable-background:new 0 0 50 50;" xml:space="preserve">
<style type="text/css">
	.st0{fill:#FFFFFF;}
</style>
<g>
	<g>
		<path class="st0" d="M49.9,28.4C49,18.2,41,10.7,32,10.7H18.8V1.8c0-0.7-0.3-1.3-0.9-1.6c-0.5-0.3-1.2-0.2-1.7,0.2L0.6,14.7
			C0.2,15,0,15.5,0,16.1c0,0.5,0.2,1,0.6,1.4l15.6,14.3c0.3,0.3,0.6,0.4,1,0.4c0.2,0,0.5-0.1,0.7-0.2c0.5-0.3,0.9-0.9,0.9-1.6v-8.9
			h13.6c4.1,0,7.8,3.4,8.2,8c0.5,5.3-3.2,9.9-7.8,9.9H20.3c-0.9,0-1.6,0.8-1.6,1.8v7.1c0,1,0.7,1.8,1.6,1.8h12.5
			C42.9,50,50.9,40.1,49.9,28.4z"/>
	</g>
</g>
</svg>
