<svg id="Layer_1" data-name="Layer 1" xmlns="http://www.w3.org/2000/svg" viewBox="0 0 1200 1562.9"><defs><style>.cls-1{fill:#fff;}</style></defs><path class="cls-1" d="M-934,333.26V-1.58a13.89,13.89,0,0,0,3.07-1.24c5.89-4.24,11.63-8.68,17.58-12.83,14-9.78,27.73-20,42.24-29,17.79-11,36.06-21.31,54.5-31.21,21.15-11.34,42.53-22.31,64.17-32.67,23.68-11.34,47.59-22.24,71.75-32.52,23.88-10.17,48.39-18.74,73.14-26.6,9.67-3.08,19.37-6.09,29-9.25,4.19-1.36,7.86-1.15,11.12,2.15,6.67,6.74,14,12.95,20,20.21,17.08,20.51,31.23,43,43.37,66.78,4.38,8.6,9.12,17,13.66,25.54.75,1.42,1.3,2.94,2,4.4,3.2,6.85,6.34,13.74,9.7,20.52.54,1.08,2.11,1.64,3.21,2.44a16.21,16.21,0,0,0,2.06-3.46c1-3.21,1.65-6.5,2.45-9.76,1-4.21,2.1-8.42,3.07-12.64.76-3.3,1.24-6.67,2.11-9.93,3.06-11.35,6.26-22.67,9.35-34,5-18.35,9.92-36.71,14.91-55.05,5.7-21,11.58-41.95,17-63,1.2-4.62,3.5-7.18,7.85-8.76,10.31-3.73,20.52-7.71,30.73-11.71,21.61-8.46,43.22-16.9,64.76-25.53,20.49-8.2,40.9-16.58,61.31-25,6.41-2.63,12.74-5.46,19.06-8.3,3.38-1.51,6.46-1.81,9.28,1.13a28.57,28.57,0,0,0,3,2.39c14.18,11.18,28.45,22.25,42.51,33.56,18.08,14.55,35.93,29.38,54.05,43.88,3.73,3,4.87,6.43,4.84,10.9A650.15,650.15,0,0,0-123-130c2.13,18.08,4.1,36.2,6.94,54.18A759.87,759.87,0,0,0-100.28-.57c1.73,6.54,3.79,13,6,19.38.82,2.36,2.1,5.15,4,6.38,4.16,2.64,8.69,5.23,13.41,6.33a205.74,205.74,0,0,0,43.68,4.86c21,.3,41.94.3,62.89-.25,22.44-.59,44.76-2.86,66.51-8.84,6.35-1.75,12.5-4.24,18.69-6.54,2.26-.84,4.77-2,4.73-4.88s-2.79-3.67-5.07-4.36a56.69,56.69,0,0,0-8-2C90.85,7.15,76.12,1.46,61.79-5.27a728.67,728.67,0,0,1-72-38.52A284,284,0,0,1-38.55-63.18c-21.67-17.23-36.18-39.59-45-65.73a302.81,302.81,0,0,1-12-48.77c-1.71-10.63-4.71-21.06-4.41-32,.15-5.79-.34-11.61.06-17.37a9.18,9.18,0,0,0-3.84-8.71c-6.54-5.2-12.84-10.71-19.34-16q-17.87-14.43-35.86-28.71c-14-11.11-28.15-22.1-42.2-33.17a34.53,34.53,0,0,1-3.11-3.15c2.83-3,6.21-3.66,9.24-5,18.62-8.08,37.21-16.2,55.86-24.21C-111-358-82.85-369.95-54.71-382c25-10.71,50.16-21.19,76-30A651.77,651.77,0,0,1,104.13-435a401.14,401.14,0,0,1,71.11-7.61c24.81-.48,49.68-.59,74.45,1.81,5.44.53,10.87,1.18,16.31,1.77V183.26c-14.41-1.66-28.81-3.57-43.25-4.92-31.78-3-63.56-6.05-95.4-8.4q-40-3-80.17-4.34C-3.6,164-54.41,164.2-105.2,165.12c-32.89.6-65.79,1.48-98.63,3.2-35.42,1.86-70.79,4.69-106.15,7.4-17.2,1.32-34.37,3.1-51.51,5.1Q-405.68,186-449.8,191.7c-23,3-46.07,5.92-69,9.59-34.06,5.46-68.09,11.2-102,17.49-20.43,3.78-40.68,8.62-60.92,13.36q-33.9,7.94-66.91,19.11c-15.86,5.39-31.77,10.74-47.23,17.13-21.43,8.86-42.62,18.35-63.62,28.2-19.39,9.11-38.38,19.08-57.57,28.61C-922.65,328-928.35,330.57-934,333.26Zm112.28-223.51-.34,1.52c3.42,1.08,7,1.85,10.22,3.33a39.45,39.45,0,0,1,8.89,5.58c2.77,2.34,5,5.33,7.54,8.11l6.56-.45a41.77,41.77,0,0,0-4.54-11.69c-2-3.42-3.36-7.29-6.53-10-.52,6.77,5.38,11.31,6.07,17.45-4.38-3.32-8.5-6.84-13-9.75S-816.16,108.55-821.72,109.75Zm925.05-212A12.15,12.15,0,0,1,105-99.43c.37,1.55.36,3.2.62,4.78.3,1.84.8,3.58,3.5,4.41a43.46,43.46,0,0,1-.75-21.16c-4.64-.26-6.89,2.06-8,5.89a30.47,30.47,0,0,0-.48,15.23c.06.29.71.45,1.54.94C102.84-93.49,100.67-97.92,103.33-102.26Zm-570,246.85L-468,145v6.64c-4,.72-5.71-4.22-9.71-3.31.25.85.26,1.39.53,1.71a7.36,7.36,0,0,0,2,2,20.53,20.53,0,0,1,9.39,9.61c5.45-1,5.49-1.11,3.55-5.57-1-2.34-1.79-4.78-2.71-7.16C-465.49,147.41-466.1,146-466.69,144.59Zm644.5-39.12-1-1.26c-1.31.75-2.84,1.26-3.88,2.28-3.44,3.38-7.09,6.66-9.93,10.51a127.62,127.62,0,0,0-8.39,14c-1,1.79-1.44,3.87,0,5.78,3.34-5.85,6.07-11.86,9.91-17S173.34,110.2,177.81,105.47Zm-55.08,11.7c-1.76,2.31-.73,3.42.22,4.53,1.77,2.07,3.52,4.17,5.35,6.19,5,5.51,9.46,11.34,11.78,18.54.11.32.69.48,1.33.9,1.45-2.4.52-4.42-.39-6.41-2.75-6.08-7.12-11-11.35-16C127.54,122.33,125.24,119.94,122.73,117.17Zm18.18-8.55c-2.63,6,2,29.14,6.91,33.65.2-.9.66-1.72.46-2.33A172.94,172.94,0,0,1,142,109.4C142,109.1,141.31,108.89,140.91,108.62ZM126.48-261c.23,6.09,2.82,10.23,4.58,14.57s1.84,9.24,5.78,13.22c.6-5-2.65-15.54-7.42-24.85C129-258.95,128-259.53,126.48-261ZM124-124.42l-1.26-.42c-5.81,8.78-8.72,18.22-6,28.91.94-4.72.89-9.66,2-14.32C119.91-115.11,122.21-119.71,124-124.42Zm21.53-137.33c-4.41,5.52-5.5,17.87-2.13,23.95a72.79,72.79,0,0,0,.66-7.81c.15-2.56.23-5.14.58-7.68S146.82-258.32,145.55-261.75Zm-94.88-80c.65-6.42-3-10.89-7.16-15.14C44.61-351.3,47.88-346.66,50.67-341.76Zm78,107.1,1-.9c-1.77-4.62-2.46-9.7-6.09-13.56-.89,4.68,1.63,8.55,2.76,12.71C126.48-235.67,127.82-235.24,128.63-234.66ZM-452.57,142c-5.86,6.05-7.58,12.91-4.69,16.75C-455.79,153.45-454.32,148.2-452.57,142ZM-786,122.71l1.18.07c0-3.15-.43-6.37.11-9.42s2.06-6,3.44-9.75C-786.69,108-788.29,117.07-786,122.71Zm499.34-225.27c1.56-5.08,1.49-6.34-.45-9.68C-287.89-108.59-288.35-105.55-286.64-102.56Zm-11.84-4.57c-.33.77-.61,1.09-.55,1.33.6,2.53,1.25,5,1.92,7.68C-295.28-100.31-295.28-100.31-298.48-107.13ZM56.7-354.63l-1.33.05c-.23,2.39-.59,4.79,1.33,7.08Zm12.09-1.6c-3.88,1.86-4.09,2.5-2.48,6.46C67.28-352.29,68-354.26,68.79-356.23ZM-299.68-111.71c-.13-.28-.25-.55-.38-.82a3.17,3.17,0,0,0-.62.87c0,.14.33.41.52.62Z" transform="translate(934 1219)"/><path class="cls-1" d="M-934-587.06V-1219H266v283.55a1.35,1.35,0,0,1-.44-.18q-29.4-29.45-58.75-58.89c-1.32-1.33-2.47-2.83-4-4.62,2.87-2.58,5.34-4.85,7.86-7.06,8.21-7.2,14.57-15.86,20-25.26,8.93-15.4,11.78-32.27,11.67-49.75a59.73,59.73,0,0,0-6.74-28c-11.65-21.92-30.48-35-53.61-42.29-13.18-4.16-26.88-4.93-40.68-4.51-8.53.26-17.08-.11-25.62-.1-2.48,0-3.81-.79-4.33-3.41-.39-2-1.57-3.8-2.44-5.67a44.88,44.88,0,0,1-2.26-4.76c-5.3-16.36-16.38-26.26-33.22-29.54a69.55,69.55,0,0,0-30.72.83,217.39,217.39,0,0,0-22.41,7.5c-3.12,1.17-5.43,1.23-7.79-1.35-2.61-2.85-5.47-5.47-8.28-8.14s-5.79-5.62-8.89-8.19c-2.33-2-3.27-1.5-4.62,1.28-.52,1.07-1.25,2.39-2.22,2.82-2.46,1.09-3,3.13-3.59,5.36-2.79,11.1-5.64,22.18-8.43,33.27a15.74,15.74,0,0,1-4.67,7.75c-2.69,2.54-5.35,5.13-7.88,7.84-12.38,13.25-22.1,28.5-32.12,43.49-2.47,3.7-5.11,5.27-9.43,5.17a102.42,102.42,0,0,0-25.91,2.6c-27.87,6.63-50.27,21.17-66,45.31a72.69,72.69,0,0,0-9.81,23c-1.81,7.5-1.83,15-2,22.58-.41,20.87,9.23,36.42,26,47.91,4.74,3.26,10.17,5.52,15.29,8.23,1,.52,1.94,1,3.3,1.72a31.72,31.72,0,0,1-2.05,3.93q-13.14,18.54-26.35,37-18.67,26.16-37.37,52.3-13.08,18.27-26.19,36.53c-1,1.36-2.17,2.57-3.5,4.14-1-1.5-1.71-2.37-2.25-3.32-5.93-10.34-11.5-20.91-17.81-31-9.39-15-19.35-29.71-29-44.6-20.76-32.07-41.35-64.26-62.26-96.24-15.62-23.87-31.62-47.49-47.49-71.21q-3.9-5.82-8.1-11.44a12,12,0,0,0-10.45-5,44.88,44.88,0,0,1-1.65,6.11c-2.71,6.37-5.7,12.63-8.41,19-7.86,18.53-16,36.95-23.33,55.7-7.79,20-14.77,40.21-22.08,60.34q-13.05,35.88-26.11,71.75a23.66,23.66,0,0,1-2.5,4c-5.14-7.74-9.88-14.8-14.53-21.93-1.27-2-.83-4,.28-6,3.13-5.54,4.67-11.56,5.84-17.8a88.26,88.26,0,0,0-7-55.18c-7.41-15.79-19.45-26.62-35.51-33.16-14.9-6.07-30.57-7.7-46.43-8.19-17-.54-32.07,4.46-45,15.58a26.81,26.81,0,0,1-3,1.94,9.47,9.47,0,0,1-1.11-.76,4.81,4.81,0,0,1-.9-1.13c-2.83-5.92-7.79-7.78-14-7.39a60.41,60.41,0,0,0-6.74.51c-16,2.81-29.17,10.61-39.64,23.08a107.19,107.19,0,0,0-14.26,22.34c-8.34,17.19-15.61,34.74-14.74,54.43A3.8,3.8,0,0,1-733-892c-.9.36-1.84.61-2.74,1-11.39,4.51-20.73,11.67-25.37,23.17-8.76,21.71-7.67,42.91,5.74,62.69,14.08,20.78,36,27.31,58.51,19.52,18.3-6.35,34.83-16,48.55-29.94,2.3-2.33,4.41-3,7.71-2a76.76,76.76,0,0,0,24.35,3.34c4.83-.16,9.66-.44,14.49-.59a21.63,21.63,0,0,1,3.48.53c-1.27,2.31-2.21,4.16-3.27,5.94-8.6,14.38-17.43,28.62-25.78,43.13-11.9,20.66-23.95,41.26-35,62.36-16.47,31.38-32.13,63.18-48.16,94.8-.91,1.78-2,3.45-3.06,5.18l-1.17-.12c-.44-1.78-1-3.54-1.28-5.34-2.17-12.7-4.35-25.41-6.43-38.13-2.38-14.47-4.55-29-7-43.42-2.26-13.19-4.65-26.35-7.32-39.45a35,35,0,0,0-6.64-15c-1.27,1.3-2.55,2.21-3.28,3.46a28.15,28.15,0,0,0-2.2,5.34c-5.31,15.9-10.55,31.82-15.88,47.7-.8,2.36-2,4.59-3.31,7.6-2.14-2.12-3.72-3.63-5.24-5.21-4.31-4.47-6.2-4.33-9.73.94a66.47,66.47,0,0,0-4,6.63c-7.65,14.89-14.93,30-22.92,44.7-11.83,21.81-24.13,43.37-36.27,65a31.28,31.28,0,0,1-2.69,3.44c-5.4-6-9.15-12.74-14.06-18.58s-9.7-11.65-14.66-17.38S-887.9-612.3-893.08-618s-9.6-12.09-15.54-16.69c-4.65.83-7.06,3.46-8.58,7.37C-922-614.92-927-602.52-932-590.12A18.4,18.4,0,0,1-934-587.06Zm309.57-551c-5.67.41-10.71,1.86-15,5.32a29.65,29.65,0,0,0-10.86,18.79,44.08,44.08,0,0,0-.16,10.08c.06,1,1.41,2.68,2.15,2.67a4.48,4.48,0,0,0,3.33-2c.87-1.65,1-3.69,1.45-5.55,1-3.72,1.88-7.45,3-11.13,1.79-6,6.12-8.06,12.14-8.09,6.56,0,12.2,2.53,17.94,5.1,5,2.24,9.85-.2,11.11-5.51.41-1.72.52-3.5.88-5.23,1.22-5.89,4.41-8.9,10.42-9.77a23.22,23.22,0,0,1,15,2.39c2.8,1.56,5.38,3.51,8.17,5.09s5.16.77,7-2c1.62-2.5,1.44-5.1-1.07-6.76-3.73-2.47-7.51-5.23-11.68-6.63-13.24-4.44-27.54-1.13-34.93,14-1.88,3.84-1.88,3.7-5.8,2.54C-615.71-1136-620.09-1137-624.43-1138.06Zm-170.77,13.63c-4,.43-8.82.59-13.54,1.54-14.27,2.86-24,14.66-22.87,28,0,.32,0,.65.05,1,.37,2.68-1,3.85-3.49,4.16-1.12.15-2.24.3-3.36.47a23.52,23.52,0,0,0-15.19,8.6c-5.15,6.31-7.13,14-9.31,21.56a1.54,1.54,0,0,0-.11.95c.44,1,.78,2.34,1.55,2.68a3.22,3.22,0,0,0,2.88-.82,15.54,15.54,0,0,0,2.5-4.1,96.2,96.2,0,0,0,4.15-9.78c2.28-7,7.4-9.79,14.24-10.27,2.57-.17,5.16-.09,7.73-.25,6.58-.41,9.69-4.73,8.38-11.08a53.71,53.71,0,0,1-1-10,10.27,10.27,0,0,1,6-9.77,26.57,26.57,0,0,1,9.19-2.6c7-.53,14-1.75,21,1.17,2.62,1.1,6.81-2.43,7.36-5.57.46-2.64-.91-4.35-4.64-4.92C-787.21-1124.06-790.78-1124.11-795.2-1124.43ZM-873.72-883c1.44.12,2.24.21,3,.26,8,.48,11.25-3.94,8.69-11.44a18.92,18.92,0,0,1-.91-6.61c.16-4.71,2.55-6.71,7.18-6.32a14.65,14.65,0,0,1,8.64,3.86c2.26,2,5.11,1.5,7.07-.93s1.9-5.49-.23-7.37A18.54,18.54,0,0,0-852-916.62c-10.77-.42-19.18,7.4-19.92,18.63-.35,5.19-.32,5.43-5.44,6-6.89.77-12.09,4.32-16.15,9.54-3.88,5-5.93,10.68-4.65,17.15.32,1.65,1.11,3.5,2.94,3.22,1.27-.18,2.54-1.61,3.41-2.78.6-.83.51-2.15.73-3.26.44-2.2.72-4.45,1.35-6.6a10.24,10.24,0,0,1,8.9-7.76C-878.25-882.84-875.66-882.86-873.72-883Z" transform="translate(934 1219)"/><path class="cls-1" d="M266,192.94v151H-934V341c2.9-1.32,5.85-2.55,8.69-4,31.67-15.9,63.23-32,95.63-46.45a835,835,0,0,1,81.93-31.84c24.55-7.94,49.39-14.75,74.49-20.74,30-7.14,60.12-13.39,90.51-18.31,39.46-6.4,79-12.44,118.61-17.82,37.86-5.15,75.83-9.51,113.8-13.76s76.08-7.12,114.24-9.35c46.85-2.75,93.72-4.83,140.65-5,53.05-.23,106.11-1.29,159.11,1.81,31.55,1.84,63.12,3.53,94.59,6.27C194.22,184.94,230.09,189.18,266,192.94ZM-301.75,329.72c2.92-4.54,2.38-8.09-1-11.42a35.28,35.28,0,0,1-3.53-4.58c-3.74-5.23-7.55-10.4-11.09-15.76-1.43-2.17-2.22-4.78-3.69-8a9.28,9.28,0,0,0,.71,9c2.83,4.47,5.94,8.77,9,13.12,1.61,2.32,3.29,4.6,4.94,6.89a6,6,0,0,1-3.66-1.31c-5-3.78-9.92-7.67-14.95-11.43q-10.62-7.93-21.35-15.72c-1.29-.93-2.6-2.41-5.32-1.33a25.51,25.51,0,0,0,3,3.31c4.35,3.3,8.8,6.46,13.18,9.72,10.7,8,21.84,15.39,31,25.28A26.49,26.49,0,0,0-301.75,329.72Zm-282.5-44.19c-7.83-5.67-10.39-13.35-10.24-22.44.15-9.66,5.1-16.2,13.66-21.17-1.37-.37-1.88-.7-2.23-.58-4.18,1.49-8,3.69-10.26,7.57-5.63,9.48-5.47,19.37-1.18,29.21C-592.73,282.2-589.22,284.75-584.25,285.53Zm297.8,31.66c7.86-10.83,17.9-17.63,29.71-23.78C-266.87,293.14-283.51,306.63-286.45,317.19Zm-291.9-54.71c-2.63,1-2.89,2.95-3.12,4.87-.66,5.8,1.11,17.51,3.59,21.07C-576.52,279.37-579.49,271.12-578.35,262.48Zm16.12-2.22c-7.3,3.77-11.59,16.93-6.55,23,.55-4.45.57-8.48,1.65-12.21S-563.91,263.85-562.23,260.26Z" transform="translate(934 1219)"/><path d="M-934-587.06a18.4,18.4,0,0,0,2-3.06c5-12.4,10-24.8,14.81-37.25,1.52-3.91,3.93-6.54,8.58-7.37,5.94,4.6,10.4,11,15.54,16.69s10.34,11.52,15.39,17.37,9.78,11.58,14.66,17.38,8.66,12.61,14.06,18.58a31.28,31.28,0,0,0,2.69-3.44c12.14-21.64,24.44-43.2,36.27-65,8-14.71,15.27-29.81,22.92-44.7a66.47,66.47,0,0,1,4-6.63c3.53-5.27,5.42-5.41,9.73-.94,1.52,1.58,3.1,3.09,5.24,5.21,1.33-3,2.51-5.24,3.31-7.6,5.33-15.88,10.57-31.8,15.88-47.7a28.15,28.15,0,0,1,2.2-5.34c.73-1.25,2-2.16,3.28-3.46a35,35,0,0,1,6.64,15c2.67,13.1,5.06,26.26,7.32,39.45,2.48,14.45,4.65,28.95,7,43.42,2.08,12.72,4.26,25.43,6.43,38.13.31,1.8.84,3.56,1.28,5.34l1.17.12c1-1.73,2.15-3.4,3.06-5.18,16-31.62,31.69-63.42,48.16-94.8,11.07-21.1,23.12-41.7,35-62.36,8.35-14.51,17.18-28.75,25.78-43.13,1.06-1.78,2-3.63,3.27-5.94a21.63,21.63,0,0,0-3.48-.53c-4.83.15-9.66.43-14.49.59a76.76,76.76,0,0,1-24.35-3.34c-3.3-1-5.41-.32-7.71,2-13.72,13.94-30.25,23.59-48.55,29.94-22.48,7.79-44.43,1.26-58.51-19.52-13.41-19.78-14.5-41-5.74-62.69,4.64-11.5,14-18.66,25.37-23.17.9-.36,1.84-.61,2.74-1a3.8,3.8,0,0,0,2.64-4.09c-.87-19.69,6.4-37.24,14.74-54.43a107.19,107.19,0,0,1,14.26-22.34c10.47-12.47,23.6-20.27,39.64-23.08a60.41,60.41,0,0,1,6.74-.51c6.16-.39,11.12,1.47,14,7.39a4.81,4.81,0,0,0,.9,1.13,9.47,9.47,0,0,0,1.11.76,26.81,26.81,0,0,0,3-1.94c13-11.12,28.05-16.12,45-15.58,15.86.49,31.53,2.12,46.43,8.19,16.06,6.54,28.1,17.37,35.51,33.16a88.26,88.26,0,0,1,7,55.18c-1.17,6.24-2.71,12.26-5.84,17.8-1.11,2-1.55,4-.28,6,4.65,7.13,9.39,14.19,14.53,21.93a23.66,23.66,0,0,0,2.5-4q13.11-35.87,26.11-71.75c7.31-20.13,14.29-40.39,22.08-60.34,7.32-18.75,15.47-37.17,23.33-55.7,2.71-6.38,5.7-12.64,8.41-19a44.88,44.88,0,0,0,1.65-6.11,12,12,0,0,1,10.45,5q4.2,5.61,8.1,11.44c15.87,23.72,31.87,47.34,47.49,71.21,20.91,32,41.5,64.17,62.26,96.24,9.64,14.89,19.6,29.57,29,44.6,6.31,10.11,11.88,20.68,17.81,31,.54.95,1.23,1.82,2.25,3.32,1.33-1.57,2.52-2.78,3.5-4.14q13.13-18.24,26.19-36.53,18.69-26.15,37.37-52.3,13.2-18.48,26.35-37a31.72,31.72,0,0,0,2.05-3.93c-1.36-.71-2.34-1.2-3.3-1.72-5.12-2.71-10.55-5-15.29-8.23-16.74-11.49-26.38-27-26-47.91.15-7.56.17-15.08,2-22.58a72.69,72.69,0,0,1,9.81-23c15.76-24.14,38.16-38.68,66-45.31a102.42,102.42,0,0,1,25.91-2.6c4.32.1,7-1.47,9.43-5.17,10-15,19.74-30.24,32.12-43.49,2.53-2.71,5.19-5.3,7.88-7.84a15.74,15.74,0,0,0,4.67-7.75c2.79-11.09,5.64-22.17,8.43-33.27.57-2.23,1.13-4.27,3.59-5.36,1-.43,1.7-1.75,2.22-2.82,1.35-2.78,2.29-3.23,4.62-1.28,3.1,2.57,6,5.41,8.89,8.19s5.67,5.29,8.28,8.14c2.36,2.58,4.67,2.52,7.79,1.35a217.39,217.39,0,0,1,22.41-7.5,69.55,69.55,0,0,1,30.72-.83c16.84,3.28,27.92,13.18,33.22,29.54a44.88,44.88,0,0,0,2.26,4.76c.87,1.87,2,3.69,2.44,5.67.52,2.62,1.85,3.41,4.33,3.41,8.54,0,17.09.36,25.62.1,13.8-.42,27.5.35,40.68,4.51,23.13,7.29,42,20.37,53.61,42.29a59.73,59.73,0,0,1,6.74,28c.11,17.48-2.74,34.35-11.67,49.75-5.45,9.4-11.81,18.06-20,25.26-2.52,2.21-5,4.48-7.86,7.06,1.55,1.79,2.7,3.29,4,4.62q29.34,29.46,58.75,58.89a1.35,1.35,0,0,0,.44.18v13.55a12.34,12.34,0,0,1-1.56-1.08c-11-10.64-22.08-21.23-33-32-11.49-11.29-22.85-22.72-34.26-34.1-3.73-3.73-4.4-3.85-9.26-1.46-1.88.92-3.74,1.88-5.65,2.74-20.41,9.23-41.87,11.2-63.89,9.16-4.5-.41-5.17-.21-6,4.07-2.1,10.49-7.59,19.15-14.6,26.86-18.62,20.5-41.51,34.5-67.61,43.36-17.53,6-35,4.54-52.18-1.44-9.87-3.43-18.45-9.19-26.43-15.79-7.07-5.84-13.78-12.12-20.72-18.1A6.87,6.87,0,0,0-73-941.47c-6.73-.24-13.49-.33-20.22-.17-1,0-2.45,1.45-3,2.57-1.37,2.72-2.34,5.64-3.49,8.47-11.45,28.2-22.78,56.45-34.42,84.57-2.52,6.08-6.07,11.73-9.27,17.5-.78,1.42-1.53,3.29-4.2,3a14.78,14.78,0,0,1,.31-3.31c1.3-4,2.63-8,4.15-11.84q11-28.12,22.1-56.2a13.64,13.64,0,0,0,.48-2.81A12.39,12.39,0,0,0-124-895.5c-6.36,11.77-12.8,23.49-19,35.34-18,34.4-35.75,68.93-53.85,103.27-9.77,18.53-20,36.8-30.13,55.16-.71,1.29-1.32,2.82-3.79,3.38,3-10,7.66-18.6,11.67-27.48s9-17.29,11.8-26.66c-12.93,19.27-21.51,40.64-31.2,62.67h10.93c9,.05,17.8,1.63,25.44,6.56,6.61,4.27,13.19,8.77,17.9,15.33,1.68,2.33,3.73,3.4,6.65,2.73,9-2.06,18.11-3.44,26.82-6.23,10.25-3.29,20.07-7.9,30.17-11.69,5.43-2,11-3.63,15.23-8a9.16,9.16,0,0,1,2.05-1.26c6.89-3.95,14.18-3.1,20.08,2.16a22.37,22.37,0,0,0,4.82,3.06c5.61,2.79,11.26,5.49,16.92,8.17,1.57.74,3.25,1.77,4.88,1.76,6.8,0,13,2.3,19.12,4.72A167.24,167.24,0,0,0-2.64-662.7c4.53.73,5.25.43,6.14-3.88.93-4.48,3.53-7.11,7.52-8.68a61.72,61.72,0,0,1,7.3-2.52c7.8-2,15.68-3.71,23.46-5.81,3.87-1,7.53-2.85,11.39-4,1.54-.45,4.32-.69,4.88.11,3.07,4.47,7.86,8.42,5.9,15-.24.78.21,1.78.4,3.13,2-.28,3.74-.42,5.43-.78,21.74-4.72,43.43-9.65,65.21-14.15q35.07-7.26,70.7-11.08c20.05-2.16,40.13-3.86,60.31-3.94v7.74c-4,.21-8,.53-12.07.62a533.34,533.34,0,0,0-66,5.72c-22.8,3.32-45.5,7.39-68.14,11.72-16.45,3.14-32.72,7.22-49.07,10.9a13.38,13.38,0,0,0-3.68,1.15c-.67.39-1,1.44-1.44,2.19.73.46,1.45,1.24,2.21,1.29a15.11,15.11,0,0,0,3.3-.63,38.23,38.23,0,0,1,6.67-.93,5.49,5.49,0,0,1,3.59,1.75c7.74,8.87,10.26,19.54,10,31a13.79,13.79,0,0,0,2.06,8.23c1.38,2.18,2.84,4.31,4.07,6.58a59,59,0,0,1,4,8.25c1.84,5.17.45,8.57-4.22,11.34a40.58,40.58,0,0,1-4.68,2.52c-13,5.58-26,11.19-39.14,16.58a23.69,23.69,0,0,1-8.88,2,112.58,112.58,0,0,1-15.31-1.41c-1.75-.25-3.4-1.43-5-2.31-.82-.45-1.39-1.43-2.23-1.74-2.5-.9-3.24-2.94-3.82-5.19-.5-2-1-3.94-1.63-6.33-3,1.25-5.46,2.45-8,3.25-2.91.91-5.84,1.81-8.37-1.32-.77-1-2.8-1-4.29-1.22-2.67-.39-5.68.07-8-1a48.81,48.81,0,0,1-12.24-7.58,29.27,29.27,0,0,0-13.31-7.36c-2.35-.55-4.68-1.23-7-1.91-10.21-3-20.44-6-29.89-11a7.88,7.88,0,0,0-7-.14c-5.35,2.18-10.92,2.51-16.6,2.6a33.26,33.26,0,0,0-9,1.37c-4.29,1.33-8.4,3.26-12.62,4.84-12.07,4.52-24,9.3-36.25,13.39-10.69,3.59-21.67,6.29-32.45,9.59-2,.63-3.83,2.17-5.61,3.47-2.7,2-5,4.58-8,6.06-13,6.6-26.85,9.8-41.55,8.64-4.23-.34-4.47.12-4.91,4.46-1.15,11.37-2,22.79-3.77,34.08-3.48,22.68-9,44.89-17.6,66.21-8.13,20.23-10.36,41.12-8.14,62.64.6,5.85,1.31,6.71,7,8.32,16.12,4.59,32.29,9,48.38,13.76,15,4.41,30,8.82,44.16,15.64,7.7,3.71,15.46,7.28,23.18,10.93a10.15,10.15,0,0,0,9.26,0c5.53-2.6,11.26-4.78,16.89-7.18q45.09-19.29,90.17-38.62A816.08,816.08,0,0,1,65.1-433.62c31-8.59,62.43-15,94.61-16.55,19.8-.95,39.65-1.2,59.47-1,15.61.18,31.21,1.59,46.82,2.45V-439c-5.44-.59-10.87-1.24-16.31-1.77-24.77-2.4-49.64-2.29-74.45-1.81A401.14,401.14,0,0,0,104.13-435,651.77,651.77,0,0,0,21.24-412c-25.79,8.84-50.91,19.32-75.95,30-28.14,12.05-56.32,24-84.44,36.07-18.65,8-37.24,16.13-55.86,24.21-3,1.32-6.41,2-9.24,5a34.53,34.53,0,0,0,3.11,3.15c14,11.07,28.17,22.06,42.2,33.17q18,14.25,35.86,28.71c6.5,5.26,12.8,10.77,19.34,16A9.18,9.18,0,0,1-99.9-227c-.4,5.76.09,11.58-.06,17.37-.3,10.92,2.7,21.35,4.41,32a302.81,302.81,0,0,0,12,48.77c8.81,26.14,23.32,48.5,45,65.73A284,284,0,0,0-10.26-43.79,728.67,728.67,0,0,0,61.79-5.27C76.12,1.46,90.85,7.15,106.65,9.54a56.69,56.69,0,0,1,8,2c2.28.69,5,1.31,5.07,4.36s-2.47,4-4.73,4.88c-6.19,2.3-12.34,4.79-18.69,6.54-21.75,6-44.07,8.25-66.51,8.84-20.95.55-41.93.55-62.89.25A205.74,205.74,0,0,1-76.8,31.52c-4.72-1.1-9.25-3.69-13.41-6.33-1.94-1.23-3.22-4-4-6.38-2.24-6.38-4.3-12.84-6-19.38A759.87,759.87,0,0,1-116-75.79c-2.84-18-4.81-36.1-6.94-54.18A650.15,650.15,0,0,1-127-210.11c0-4.47-1.11-7.92-4.84-10.9-18.12-14.5-36-29.33-54.05-43.88-14.06-11.31-28.33-22.38-42.51-33.56a28.57,28.57,0,0,1-3-2.39c-2.82-2.94-5.9-2.64-9.28-1.13-6.32,2.84-12.65,5.67-19.06,8.3-20.41,8.38-40.82,16.76-61.31,25-21.54,8.63-43.15,17.07-64.76,25.53-10.21,4-20.42,8-30.73,11.71-4.35,1.58-6.65,4.14-7.85,8.76-5.47,21.05-11.35,42-17,63-5,18.34-9.92,36.7-14.91,55.05-3.09,11.34-6.29,22.66-9.35,34-.87,3.26-1.35,6.63-2.11,9.93-1,4.22-2,8.43-3.07,12.64-.8,3.26-1.49,6.55-2.45,9.76a16.21,16.21,0,0,1-2.06,3.46c-1.1-.8-2.67-1.36-3.21-2.44-3.36-6.78-6.5-13.67-9.7-20.52-.67-1.46-1.22-3-2-4.4-4.54-8.52-9.28-16.94-13.66-25.54-12.14-23.78-26.29-46.27-43.37-66.78-6-7.26-13.37-13.47-20-20.21-3.26-3.3-6.93-3.51-11.12-2.15-9.64,3.16-19.34,6.17-29,9.25-24.75,7.86-49.26,16.43-73.14,26.6-24.16,10.28-48.07,21.18-71.75,32.52-21.64,10.36-43,21.33-64.17,32.67-18.44,9.9-36.71,20.2-54.5,31.21-14.51,9-28.24,19.22-42.24,29C-919.3-11.5-925-7.06-930.93-2.82A13.89,13.89,0,0,1-934-1.58V-8.35a57,57,0,0,0,5-2.9c13.47-9.69,26.75-19.65,40.37-29.12,21.2-14.75,43.8-27.2,66.47-39.48C-803.63-89.9-785-99.89-766-109q38.53-18.55,77.73-35.7c14.72-6.49,29.83-12.17,45-17.6,17.74-6.37,35.73-12.07,53.6-18.07,2.22-.74,4.4-1.58,6.76-2.42-2.1-2.95-2.94-3.47-6.84-4.9-16.34-6-33-6-49.49-1.46-20.63,5.71-41,12.42-61.52,18.53-2.94.88-5.83,2.76-9.36,1.8a8.62,8.62,0,0,1,3.2-7.3c2.4-2.14,5-4.11,7.47-6.13,7.72-6.2,16.39-10.79,25.31-15,1.3-.62,3.12-.81,3.74-3.16a45.76,45.76,0,0,0-4.87-.79c-6.91-.39-13.82-.79-20.73-1-8.08-.22-11.81-3.4-12.82-11.46a41.49,41.49,0,0,1-.36-5.79c.06-5.64,0-11.29.37-16.92,1.24-19.86,3.5-39.52,11.74-58,.46-1,.32-2.32.52-4-5.18,1.69-9.21.08-13-2.25s-7.45-5-11.15-7.59c-1.41-1-2.8-2-5.16-3.69a33.07,33.07,0,0,1-3.27,4.51c-5.36,5.19-10.48,5.43-16.33.78a55.37,55.37,0,0,1-6.81-6.16q-16.5-18.32-32.8-36.81c-3.48-4-3.34-9.14-.09-13.36,6.66-8.68,13.39-17.32,20-26a44.93,44.93,0,0,0,2.46-4.08c-2.61-.61-4.43-1.18-6.29-1.44-12.93-1.79-25.82-3.9-38.81-5.17-35.73-3.52-70.35,2.27-104.24,13.41L-934-379v-8.71c6.71-1.22,12.87-3.08,17.62-8.76,7.55-9,16-17.27,26-23.67,7.74-4.95,15.37-10.1,23.4-14.53,6.11-3.36,10.83-7.35,12-14.54a6.45,6.45,0,0,1,.61-1.31c4.22-9.92,8.36-19.82,11.64-30.17,6.41-20.27,13.47-40.36,21-60.23,15.9-41.87,32.28-83.56,48.51-125.3,1.2-3.07,2.88-5.91-1-8.4-.79-.51-1-2-1.43-3-.62-1.43-1.24-2.87-2.24-5.16-1.26,2.43-2.14,4.09-3,5.77-11.74,23.3-23,46.86-35.36,69.84-11.73,21.85-24.34,43.24-37,64.57-19.92,33.51-40.6,66.58-59.12,100.91-3.59,6.66-7.42,13.2-11.21,19.76a34.09,34.09,0,0,1-2.72,3.55,3.64,3.64,0,0,1-.57-3.13,98.06,98.06,0,0,1,3.75-9.94c6.58-13.64,13.31-27.2,20-40.8,1-2.07,2-4.16,3-6.25a6.09,6.09,0,0,0-3.12,2.51q-13.8,19.53-27.62,39.06a18.33,18.33,0,0,1-3.15,2.77v-9.68a27.63,27.63,0,0,0,3.35-3.41c7.63-11,15.11-22,22.77-33,6-8.56,12.16-17,18.32-25.45a15.15,15.15,0,0,1,7.56-5.72,8.77,8.77,0,0,0,4.09-3.74q10.24-16.65,20.19-33.46c4.09-6.9,4-7-1-13.5-.3-.38-.54-.8-.84-1.18-6.66-8.48-13.14-17.1-20-25.39C-890-601.16-901-613.19-907.86-628.18l-1.32-2.85a30.13,30.13,0,0,0-2.56,3.73c-.56,1.33-.82,2.78-1.29,4.15q-9,26.24-18.09,52.45a54.3,54.3,0,0,1-2.88,5.89ZM109.75-986.69c4,.48,6.8,1.1,9.58,1.09,5.8,0,11.6-.25,17.4-.6,15.7-.95,31.06-3.62,45.54-10.07,15.51-6.9,28.37-17,37.78-31.3,10.51-16,14.21-33.68,13.48-52.47a53.93,53.93,0,0,0-5.7-21.36c-5.89-12.23-14.9-21.77-26.14-29.18a115.56,115.56,0,0,0-52.8-18.68c-6.73-.67-13.36-1.34-20.2-.17a85.87,85.87,0,0,1-17.35.74c-6.25-.21-8.5-2.12-9.36-8.3a33.36,33.36,0,0,0-4.72-12.53c-6.19-10.46-14.88-17.94-27-20.34-14.07-2.8-27.9-1.2-41.42,3.62C13.65-1180.81.39-1172-12.46-1162.49a125.28,125.28,0,0,0-26.14,25.63c-7.7,10.33-15.22,20.79-22.79,31.23a24.88,24.88,0,0,0-1.68,3.45l5,1.12c6.28,1.39,12.67,2.42,18.82,4.25,7.26,2.15,13.56,6,17.37,13,.83,1.52,2.34,3.28.81,4.82-1.73,1.72-3.24-.2-4.55-1.24A47.51,47.51,0,0,0-45-1089.84a148.35,148.35,0,0,0-21-2.86c-21-1.52-41.47.37-60.84,9.78-17.39,8.45-31,20.61-39.65,38-4.24,8.53-5.6,17.67-6.09,27.12-.73,13.8,1.65,26.45,9.85,38,6.7,9.44,15.51,15.82,25.83,20.33,9.63,4.2,19.85,6.54,30,9.17,11.46,3,22.93,3.06,34.52,2.21a10.81,10.81,0,0,1,8,2.44c4.89,3.93,9.74,7.92,14.82,11.59,9.93,7.18,20,14.18,31.56,18.59,17.56,6.68,35.18,7.37,52.93,1A154.55,154.55,0,0,0,74.8-935.9c14.26-10.57,26-23.15,31.24-40.66C107.14-980.19,108.64-983.71,109.75-986.69ZM-397.91-805.28l1,1c1.78-1,3.65-1.77,5.32-2.89a31.53,31.53,0,0,1,12.47-5c6.5-1,10.55,1.71,11.06,8.23a46.76,46.76,0,0,1-.91,13.87c-2.35,10.25-6.65,19.83-11.64,29.07-1.11,2.06-2.08,4-1.14,6.37,1.77,4.53,1.52,9.27.51,13.82-.81,3.61-.32,6.27,2.66,8.49,1.15.86,2.08,2,3.17,3,2.65,2.32,3.61,2.35,6.14-.1s4.65-4.93,7.07-7.29c5.59-5.43,11.61-10.28,19.11-12.84,4-1.38,8.51-2.51,12,.48s3.06,7.46,2.22,11.72c-1.24,6.3-4.3,11.8-7.54,17.17-3.57,5.93-7.49,11.65-11.25,17.47-2.91,4.5-2.92,5,.24,9.45,3.46,4.85,7.15,9.56,10.41,14.54,2.17,3.31,4,3.67,6.37.15,7.16-10.52,14.62-20.83,22.06-31.16q26.11-36.27,52.33-72.49c5.46-7.58,10.76-15.27,16.19-22.87,1.64-2.29,2.3-4.39.55-7-3.55-5.38-6.73-11-10.28-16.38-11.19-17-22.64-33.73-33.7-50.77-13.68-21.09-27.06-42.39-40.6-63.58-1.17-1.82-2.62-3.46-3.89-5.12-1,.49-1.48.65-1.87.9-5.44,3.53-9.19,3.28-13.85-1.15-1.86-1.77-3.41-3.88-5.28-5.64q-7.56-7.11-15.3-14a9.23,9.23,0,0,0-9-2.17c-5,1.35-9.65.12-13.75-2.81a96.14,96.14,0,0,1-7.75-6.52c-3-2.68-5.79-5.64-8.93-8.13-2.95-2.33-5.19-1.28-5.76,2.39-.25,1.59-.11,3.25-.48,4.8a7.08,7.08,0,0,1-5.42,5.59c-2.89.71-3.95-1.7-5.16-3.52-3.28-5-6.44-10-9.66-15-1.19-1.85-2.11-4-5-4.78a36.52,36.52,0,0,0-1.65,3.32c-4.72,12.84-9.45,25.68-14.09,38.54-5.42,15-10.73,30-16.12,45-5,13.79-10.13,27.51-14.93,41.35q-8.73,25.11-17,50.37c-4.25,13-8.16,26.13-12.26,39.19-4.63,14.75-9.16,29.53-14,44.21-2.93,8.86-6.36,17.56-9.65,26.31A26.15,26.15,0,0,1-537-706l-1.34-.54c.92-9.19,3.74-18,5.89-27,2.19-9.14,5.14-18.09,6.72-27.39-6.78,18.08-12.78,36.41-19.68,54.4s-14.55,35.82-22.26,53.54-15.52,35.21-24.93,52.12a9.23,9.23,0,0,1,.23-4.58c3.94-14.34,10-27.87,15.73-41.54,1-2.42,1.87-4.9,2.8-7.35l-1-.44c-1.52,2.6-3.23,5.12-4.54,7.83q-8.09,16.77-16,33.63c-12.1,26-24.3,52-41.57,75.11a18.24,18.24,0,0,0-1.45,3.62c3.19-.29,5.72-.41,8.21-.78,7.33-1.09,14.64-2.36,22-3.42,9.73-1.41,19.49-2.66,29.23-4,4.12-.57,4.49-1,5.43-4.91.71-3,1.31-6,2.28-8.9,6-17.95,16.94-31.3,35.67-37.09,2.61-.81,5.28-1.47,7.84-2.43,15.35-5.76,30.66-5.17,45.85.43,3,1.1,5.16.75,7.49-1.25q11.78-10,23.7-19.88a5.67,5.67,0,0,0,2.17-5.93,65.17,65.17,0,0,1-1-9.12c-.26-10.8-.39-21.61-.52-32.41-.06-4.83.06-9.67,0-14.51s-.92-5.27-5.29-6.66c-3.15-1-6.54-2.26-9-4.37A186.57,186.57,0,0,1-501.23-733c-6.62-10.81-10.31-22.62-9.77-35.38.23-5.41.51-11.29,2.71-16.07,8.46-18.38,21.73-33,38.13-44.69,2.33-1.67,3.82-3.2,3.35-6.24a6.27,6.27,0,0,1,.47-3.77c2-3.61,5.27-.74,7.91-1.28,1.8-.37,3.68.07,4.25,2.23,1.41,5.31-3.39,11.77-7.32,10.9-3.3-.72-5.52.8-7.74,2.86a160.24,160.24,0,0,0-25.46,29.63,46.16,46.16,0,0,0-6,13.07c-3.56,13.43-1,26.25,5.6,38.26,8.75,16,20.84,29.4,33.8,42.06.82.8,2,1.25,4,2.49a60.14,60.14,0,0,0-.45-6.12,236.79,236.79,0,0,1-3.83-45.71c.05-8.05.22-16.12.77-24.16a28.09,28.09,0,0,1,5.89-15.6c3.67-4.69,8.41-7.23,14.33-6.22,8.18,1.4,14.71,5.46,18.56,13.17.74,1.49,1.73,2.86,2.91,4.78,1.34-1.54,2.18-2.45,3-3.41,4.16-5.12,8.36-10.2,12.43-15.39a16.74,16.74,0,0,0,1.67-3.72,20.15,20.15,0,0,0-3.38-1.41c-3.57-.78-4.91-2.11-5-5.32-.11-3.55,1.61-5.85,5.1-6.46a18.28,18.28,0,0,1,5.27-.19c3.21.39,4.09,1.79,3.41,5C-397-808.22-397.49-806.76-397.91-805.28Zm-73.26,214.89c1.54,1.67,2.54,2.91,3.7,4a44.38,44.38,0,0,1,9.55,13.27,59.51,59.51,0,0,1,5.83,23.74c.47,9.72.62,19.29-2.37,28.73-3.83,12.07-10.52,22-20.89,29.37-7.37,5.24-7.49,5.32-1.9,12.76,11.33,15.06,22.93,29.93,34.19,45.05,10.76,14.45,22.15,28.52,28.2,45.94,2.56,7.35,4.81,14.74,5.52,22.47a189.38,189.38,0,0,1-.89,45.82c-.12.8-.18,1.61-.27,2.41-.27,2.26.53,3.76,2.9,4.2a75.09,75.09,0,0,0,8.07,1.46,135.08,135.08,0,0,0,31.83-1.27q19.08-3.18,38.07-6.92c14.46-2.85,28.41-7.06,40.95-15.29,4.32-2.84,7.84-6.08,10.23-10.62a63.15,63.15,0,0,1,3.72-6.76c1.74-2.5,1.46-4.69,0-7.17a52.15,52.15,0,0,1-3.06-6.56,115,115,0,0,1-8.39-37.54c-.86-16.88.09-33.45,5.82-49.59,5.17-14.56,10.57-29,14-44.2,4.41-19.36,8.39-38.74,9.23-58.65.26-6.28,1-12.54,1.07-18.82a181.58,181.58,0,0,0-.52-22.14c-1-9.59-2.76-19.12-4.61-28.6-1.54-7.89-3.72-15.66-5.55-23.5-.56-2.43-2.07-3.82-4.2-4.94A108.86,108.86,0,0,0-321.63-666a34.52,34.52,0,0,0-4.75.74,19.6,19.6,0,0,0,2.33,1.85c8.08,3.83,12,10.44,12.73,19.13.18,2.09.28,4.18.38,6.28.5,10.24-2.08,20.17-3.11,30.26-.71,7-.49,14.12-.66,21.19-.08,3.51,1.47,5.89,4.39,8a13.33,13.33,0,0,1,4.56,6.48c1.26,4.19-.35,8-3.88,10.67-3.23,2.46-8.68,2.36-12.27-.19-2-1.39-3.62-3.23-5.58-4.62-7.29-5.17-15-6.47-23.12-2a25.88,25.88,0,0,1-5.65,2.7c-2.59.69-5.4,1.38-8,1.06-4.46-.56-6.49-4-4.71-8.15,2.87-6.6,6.87-12.53,13.67-15.65,2.62-1.19,3.84-2.61,3.8-5.37a7.65,7.65,0,0,1,.46-2.85c3.08-7.78.87-14.34-4-20.68-6.27-8.12-12.09-10.2-21.95-7.17-3.08.94-6.21,1.77-9.34,2.52-6.76,1.62-12.49-.37-17-5.54a38.66,38.66,0,0,1-4.72-7.24c-1.88-3.55-2.25-3.75-5.76-1.59-.55.34-1.08.71-1.62,1.07-18.55,12.36-35.33,27-52.38,41.23C-468.88-593-469.78-591.84-471.17-590.39Zm-185.16-361.8a22.41,22.41,0,0,1,2.83-13.57c2-3.7,4.13-7.28,6.25-10.89,1.78-3,1.65-4.81-.58-7.37a10.45,10.45,0,0,0-9.08-3.6c-16.82,1.07-30.82,7.74-41,21.42-10.68,14.43-17.68,30.68-21.93,48-1.52,6.2-1.85,12.72-2.36,19.13-.35,4.34.22,4.64,4.42,5a53.68,53.68,0,0,1,6.7.91,25.68,25.68,0,0,1,4.95,1.84c1.92.88,2.66,2.71,1.74,4.39-.5.92-2.33,1.24-3.62,1.55-.72.17-1.56-.31-2.36-.4-7.24-.82-14.5-1.29-21.61.74-12.44,3.56-21.38,10.94-25.08,23.76-5.54,19.19-3,37.05,9.36,53,4.66,6,10.18,11.23,17.32,14.37a43.41,43.41,0,0,0,34.8.57c7.6-3,14.93-6.82,22.23-10.55a51.37,51.37,0,0,0,9.68-6.33c4.92-4.14,9.55-8.63,14.19-13.1a6.42,6.42,0,0,1,5.65-2c4.47.58,8.93,1.38,13.42,1.65,15,.89,30,.4,44.65-3.36,18.23-4.65,34.16-13.22,47-27.11,8.34-9,13.83-19.33,15.15-31.69a69,69,0,0,1,1.32-8.1,31.25,31.25,0,0,1,1.83-4.62l1.19,0,3.81,6.65c3.18-1.19,3.08-4,3.52-6.14,3.46-16.49,3.79-32.92-1.61-49.15-6.74-20.23-19.7-34.39-40-41.57-16.4-5.79-33.39-7.27-50.53-6.2-14.26.89-26.46,7-35.43,18.34C-644.61-970-649-962.88-653.73-956Zm140.58,72.56c-2.45,5.58-4,10.38-6.51,14.66-11.49,19.89-28.7,33.24-49.6,42-5.47,2.29-11.34,3.63-17,5.47-1.77.58-4,.77-4.14,3.36-.19,3.87-2.06,7.06-3.92,10.28q-20,34.51-39.89,69c-21.34,37-39.12,75.89-59,113.68C-706.9-600-718.16-579-729.37-558c-2.65,5-5.6,9.8-8,14.87-5,10.28-9.65,20.7-14.51,31-1.42,3-3.05,5.91-5.19,10,2.63-.58,4.18-.67,5.51-1.25,13.75-6,28-10.59,42.33-15a451.25,451.25,0,0,1,56-13.06c4.07-.69,6.9-2.19,9.13-5.95C-639.57-545-634-552.23-629.49-560c11.26-19.39,20.57-39.77,30-60.09,8-17.26,15.86-34.59,26.53-50.43a60.32,60.32,0,0,1,8.59-10.38,17.55,17.55,0,0,0,5-6.9c6.76-18.46,13.51-36.93,20.38-55.34,2.48-6.64,5.13-13.22,8-19.67.94-2.08,2.73-4.86,4.55-5.23,3.94-.8,4.77-3.22,5.46-6.35.41-1.88,1.14-3.69,1.72-5.53,3.77-12.15,7.5-24.31,11.33-36.44q4.51-14.28,9.25-28.49c.8-2.42,1-4.6-.39-6.93-4.48-7.65-8.81-15.39-13.26-23.06C-513.2-876.32-514.32-877.63-515.75-879.63ZM-908.44-396.38a23.06,23.06,0,0,0,3.7-.28c7.79-2,15.5-4.43,23.36-6.16,9.59-2.11,19.24-4.26,29-5.37a264.05,264.05,0,0,1,67.52,1.11c8.93,1.28,17.84,2.79,26.72,4.39a8.41,8.41,0,0,0,7.94-2.27c3.74-3.54,7.53-7.05,11.49-10.36,2.7-2.25,5.69-4.17,8.59-6.17,1.83-1.27,4-2.18,5.59-3.67,7.89-7.21,17.46-10.43,27.8-10.84a65.29,65.29,0,0,1,25.66,3.73c17.67,6.6,35.6,12.49,53.22,19.2,17.46,6.65,34.93,13.38,51.19,22.78a41.8,41.8,0,0,0,4.69,2c3.54-4.07,7.36-7.6,6.74-13.8-.36-3.64.22-7.41.67-11.08q3.86-31.2,7.88-62.38c.34-2.68,1.88-5.86.91-7.87-1.08-2.25-4.31-3.56-6.74-5.07-14.54-9.06-22.21-22-22.49-39.25,0-1.61,0-3.23-.06-4.83-.11-1.93-1.1-3-3.14-2.75-.8.1-1.6.21-2.39.33-22.63,3.45-45.28,6.75-67.88,10.37A473.22,473.22,0,0,0-730.43-504a397.2,397.2,0,0,0-46.34,19.42c-19.38,9.7-37.15,21.92-54.9,34.25q-18.24,12.68-37.2,24.33c-10.7,6.6-21.59,12.89-31.27,21C-903-402.63-906.24-400.42-908.44-396.38Zm356.14,143a12.39,12.39,0,0,1,2.22,2.14c1.8,3.05,3.61,6.1,5.17,9.28q9,18.45,17.9,37c1.92,4,2.44,4.32,6.65,3.13,1.71-.49,3.42-1,5.09-1.55C-494.59-210.61-474-218-453.21-225c4.63-1.57,7.11-4.12,8.46-8.81,5.35-18.58,11.06-37,16.52-55.6,1.4-4.76,2.31-9.66,3.56-14.47a37,37,0,0,1,1.8-5c.8-1.94,1.73-3.82,2.55-5.75,3.42-8.05,3.65-16.61,4-25.16.69-16-1.28-31.54-8.1-46.23-2.68-5.77-3-6-9.14-5.19-12.3,1.65-24.6,3.37-36.9,5-5,.67-9.94,1.14-14.88,1.9-3.45.53-3.89,1.22-3.42,4.43A59.77,59.77,0,0,1-490.26-355c-4.32,15.77-13.17,28.18-26.86,37-12,7.79-30.85,7.89-42.2-5.58a49.48,49.48,0,0,1-6.53-10.67c-1.27-2.65-2.83-4.1-5.73-4.34-6-.5-11.6-2.64-17-5.34-4.46-2.25-8.9-4.55-13.38-6.75-4.15-2-4.68-1.88-7,1.83q-11.22,17.76-22.39,35.56c-2.48,3.95-5.64,4.95-9.85,2.8a41.6,41.6,0,0,1-5.14-3.59c-1.52-1.11-3-2.24-4.45-3.29-3.94,3.14-4.08,3.71-1.52,6.6a70.14,70.14,0,0,1,12.44,21.14,21.76,21.76,0,0,1,1.82,6.46,14.74,14.74,0,0,0,2.83,8.07q8.25,11.32,16.57,22.58c2.25,3,4.26,6.14,3.56,10.16-.89,5.09-1.93,10.14-5.13,14.45-.56.75-.73,1.81-1.4,3.54,1.89-.83,2.9-1.22,3.86-1.7,11.67-5.82,23.18-12,35-17.34a120.79,120.79,0,0,1,20.6-6.75C-558.77-250.95-555.12-250.53-552.3-253.35Zm286.1-97.54c-.7.24-1.13.24-1.28.45-1.48,2.09-2.95,4.19-4.36,6.33-2,3-1.92,3.36.95,5.39.79.55,1.62,1.06,2.46,1.54,18.13,10.4,23.62,13.52,45.1,31.16.5.4,1,.76,1.57,1.13,6.47,4.49,13.14,8.73,19.39,13.52q20.16,15.42,39.94,31.33c8.65,6.93,18.12,13,25,21.92a11.13,11.13,0,0,0,2.19,1.9c4.61,3.51,9.25,7,13.87,10.48a5.87,5.87,0,0,1,2.75,4.82c0,5.16.18,10.31.38,15.46.57,15.14,1,30.3,1.85,45.42.66,11.26,1.7,22.51,3,33.71,2,17,4.16,33.89,6.79,50.76,1.88,12.09,4.54,24.06,7,36A517.56,517.56,0,0,0-83.6,20.76c1.43,4.22,1.64,4.46,6.11,4.73,10.62.65,21.24,1.74,31.87,1.77q39.16.14,78.34-.59a335.39,335.39,0,0,0,56.7-5.92c2.11-.4,4.15-1.21,6.22-1.82,0-.36,0-.71-.07-1.06-1.82-.52-3.64-1-5.43-1.57-6.3-2-12.75-3.59-18.85-6.08C45.28-.41,20.52-13.59-3.82-27.56c-12.58-7.22-25-14.65-36.67-23.36a144.07,144.07,0,0,1-49.77-66.95,297.71,297.71,0,0,1-14-54.21c-1-6.35-1.53-12.78-2.22-19.18-.34-3.2-.55-6.41-.87-9.61-.49-4.94-1.83-10-1.35-14.8.8-8.18-1.14-14.61-8.21-19.18-2.44-1.58-4.74-3.35-7.08-5.07-4-2.94-8.11-5.8-12-8.87q-27.21-21.32-54.35-42.73-9.87-7.77-19.7-15.61c-5.54-4.4-11-8.9-16.58-13.24-12.08-9.4-24.21-18.72-36.32-28.08Zm66.76-415.41c1-1.83,1.74-3.07,2.39-4.36,8.5-17,16.8-34.1,25.53-51,9.19-17.74,18.69-35.31,28.25-52.84Q-130-898.86-116.19-923a27,27,0,0,1,6.54-8.24c2.69-2,3.93-4.6,5-7.42,1.14-3,.45-3.94-2.78-4.58-5.68-1.14-11.41-2.1-17-3.55-3.48-.9-5.74-.23-7.78,2.81-4.41,6.54-9.1,12.88-13.68,19.31l-28.89,40.54c-6.92,9.71-13.79,19.44-20.75,29.12-13.25,18.44-26.59,36.82-39.82,55.27q-24.37,34-48.64,68-18.58,25.93-37.2,51.84c-.88,1.22-1.59,2.57-2.31,3.75.71.68.91,1.06,1.16,1.1a30.5,30.5,0,0,0,3.81.36c10.66.06,21.3.23,31.54,3.75,2.19.75,3.52-.48,5.1-1.78,3.35-2.73,6.65-5.8,10.51-7.54A106.31,106.31,0,0,1-251.84-687c4.39-1,6.56-3.22,8.29-7,5.64-12.31,11.12-24.71,17.37-36.7,5.73-11,12.32-21.53,18.65-32.2C-205.83-765.78-203.63-768.23-199.44-766.3ZM-849-448.2l.86,1c2.67-1.66,5.4-3.23,8-5,12.41-8.39,24.57-17.15,37.24-25.13,9.25-5.83,19.12-10.65,28.74-15.88,2.85-1.55,5.68-3,7.33-6,2.68-5,5.7-9.74,8.18-14.79,4.48-9.1,8.43-18.46,13-27.51,7.12-14.08,14.55-28,21.94-42a13.81,13.81,0,0,0,1.55-9.32c-2.62-13.78-5.42-27.52-7.81-41.33-2.61-15.08-5.12-30.19-7.16-45.36-2.14-16-3.66-32-5.49-48a22.14,22.14,0,0,0-1.25-3.71c-.67,2.15-1,3.21-1.33,4.26-4,12.74-7.57,25.68-12.23,38.2-9.73,26.11-20.13,52-30.14,78q-18.93,49.15-37.68,98.38c-7.85,20.62-15.54,41.31-23.28,62A15.9,15.9,0,0,0-849-448.2Zm458.41-234.5c-1.33-3.42-1.11-4.78,2.09-6.42a27.58,27.58,0,0,1,7.71-2.53c2.22-.4,3.54.94,3,3.16a12.82,12.82,0,0,1-2.84,5.31c-4.61,5.37-9.75,10.31-14.07,15.89-5.48,7.07-8.55,15.09-7.16,24.36,1.35,8.9,8.38,14.65,17.24,13.61a51.73,51.73,0,0,0,8.46-1.92c11-3.19,20-.47,26.83,8.92,5.68,7.76,8.64,15.83,4.11,25.22a23.09,23.09,0,0,0-2,5.45c-.89,4.66-3.5,7.56-7.66,9.87-2.51,1.39-4.23,4.28-6.16,6.62a2.23,2.23,0,0,0-.13,2.17,3.09,3.09,0,0,0,2.45.87,30.88,30.88,0,0,0,4.91-2c2.5-1.11,4.87-2.65,7.47-3.35,10.34-2.79,19.37,0,27.34,6.91,1.45,1.27,3.12,3.81,5.21,1.81s-.33-3.76-1.58-5.3c-5.15-6.37-8.27-13.42-7.42-21.81.59-5.77,1.13-11.55,2-17.28,1.28-8.62,2.53-17.23,2.1-26-.51-10.22-4.7-15.88-14.51-18.55a54.5,54.5,0,0,0-12.39-1.79c-5.79-.19-11.6.31-17.4.37a72,72,0,0,1-9.64-.43c-4.54-.57-6.1-3.15-4.76-7.54a18.31,18.31,0,0,1,2-4.37c5.95-9.38,12-18.72,18-28.08,6.16-9.63,12.5-19.16,18.36-29a30.58,30.58,0,0,0,3.44-10.44c.67-4-1.72-5.91-5.54-4.59a34,34,0,0,0-9.47,4.66c-4.58,3.52-8.69,7.65-12.95,11.57-5.57,5.11-11,10.33-16.68,15.36a15.86,15.86,0,0,1-4.67,2.44c-1.35.55-3,.86-3.85-.78s.51-2.61,1.75-3.41,2.8-1.62,4.07-2.61c3.3-2.59,3.38-4,.47-7a129.49,129.49,0,0,0-25.49-20.65,39.58,39.58,0,0,0-9.18-4.23c-5.64-1.7-9.56-.2-12.2,4.95a102.36,102.36,0,0,0-7,16.4c-4.34,14.11-5.89,28.64-5.89,43.42,0,18.7-.57,37.4-.85,56.09a14.94,14.94,0,0,0,.61,3c1.2-.7,2-1.11,2.78-1.64,9.05-6.46,18.05-13,27.16-19.36a7.21,7.21,0,0,0,3.07-5.18A38.07,38.07,0,0,1-403-666C-399.15-671.55-394.95-676.84-390.56-682.7ZM-511.24-488.92c9.52,1.75,18.93-2.28,28-6.22,11.1-4.83,17.84-14.13,20.58-25.91,1.41-6.08,1.61-12.44,2.93-18.56,2.11-9.76.8-18.56-5.82-26.3a8.45,8.45,0,0,1-1.28-2c-4.37-10-13.12-15.41-22.46-19.27-10-4.12-20.76-4.4-31.41-2.47-12.06,2.17-22.24,8.4-31.65,15.87-3.08,2.44-6.21,5.46-7.89,8.92-6.69,13.71-9.08,28-4.71,43.13,3.28,11.35,10.15,19.58,20.23,25.36S-523.63-488.72-511.24-488.92Zm31.75,412.61c-1.86-1.61-2.89-2.32-3.71-3.23-5.46-6.08-9.18-13.24-12.18-20.74q-12.71-31.9-25.16-63.9c-4.64-12-11.05-23.21-14.55-35.65a27.08,27.08,0,0,0-2.12-4.33c-1.22-2.46-2.57-4.86-3.61-7.39-4.49-10.87-8.86-21.8-13.33-32.68a16.27,16.27,0,0,0-2-2.81c-1.55.71-2.84,1.32-4.14,1.9-1.47.67-2.92,1.38-4.42,2A379.54,379.54,0,0,0-624.59-214c-14.37,8.69-29.56,15.7-45,22.33-7.24,3.11-14.17,6.95-21.17,10.6-1.49.78-3.4,1.56-3.74,4.32,10.76-3.63,21-7.1,31.18-10.51,11.47-3.83,23-7.4,35-9.38,20-3.3,38.88-.48,56.32,10.13a117.89,117.89,0,0,1,27.09,22.43,278.31,278.31,0,0,1,30,40.28c6.69,11,12.81,22.36,18.83,33.75,2.3,4.36,3.5,9.3,5.43,13.88,2.42,5.75,6.62,10.63,8,16.94.4,1.79,2.33,3.24,3.9,5.3.62-1,.9-1.33,1.13-1.73,2.15-3.85,2.91-8.11,3.94-12.34,2.72-11.1,5.66-22.16,8.63-33.2,4.43-16.49,9-32.95,13.46-49.42,3.6-13.22,7.11-26.46,10.82-39.65,2.56-9.14,5.41-18.2,8.11-27.3,1-3.37,2.51-6.62,1.9-10.35a9.59,9.59,0,0,1,.73-4.23c1.31-4,3-7.81,4.13-11.8q7.9-26.91,15.61-53.87c2-6.86,1.88-6.89-3.94-10.83a5.64,5.64,0,0,0-1.35-.47c-.39.37-.9.63-1,1-1.26,3.82-2.58,7.62-3.64,11.5-2.93,10.72-5.95,21.43-8.56,32.24-3.39,14.09-8.91,27.51-12.2,41.66-3.62,15.51-8.42,30.75-12.7,46.1-3.51,12.58-7.12,25.12-10.49,37.73q-5,18.68-9.57,37.46c-1.54,6.38-4,12.61-3.77,19.38C-477.43-80.46-478.55-78.87-479.49-76.31ZM-278.29-669a28.41,28.41,0,0,0,2.62,2.16c2.74,1.68,5.63,3.15,8.27,5,4,2.76,6.63,6.35,7,11.52.21,2.65,1.34,5.28,2.34,7.81a57,57,0,0,1,4.16,16.33,113.47,113.47,0,0,0,2.14,13.29c2,9.45,4.52,18.79,3.3,28.62a24,24,0,0,0,.23,5.79c.38,3,.9,3.55,4,3.56a104.14,104.14,0,0,0,11.59-.37c10.25-1.11,20.11-2.77,29.1-9a51.93,51.93,0,0,0,17.19-19c6.2-11.81,6.23-24.14,4-36.68-1.47-8.36-6.14-15.54-10.09-22.9a19.66,19.66,0,0,0-4.82-5.33A52.86,52.86,0,0,0-224.82-680a91.67,91.67,0,0,0-37.79,3.52,101.16,101.16,0,0,0-11.66,4.6C-275.64-671.33-276.75-670.14-278.29-669Zm35.71,359.45c-2.61-2.21-4.24-3.74-6-5.07-8.51-6.38-17.1-12.65-25.58-19.07-3.92-2.95-4-3.05-7.56.42a72.24,72.24,0,0,1-32.48,18.33c-11.67,3.08-23.5,5.69-35.36,8-17,3.24-34,6.07-51.4,3.87-2.56-.32-3.28,1-3.72,3.26-1.49,7.59-3,15.19-4.85,22.69-2.87,11.4-6.08,22.72-9.09,34.1a30.27,30.27,0,0,0-.48,4.44,30.79,30.79,0,0,0,4-.8c5.29-2,10.58-3.91,15.82-6,33.26-13.14,66.56-26.2,99.75-39.52,17.49-7,34.81-14.5,52.18-21.81A49.23,49.23,0,0,0-242.58-309.54ZM-673-335a24.79,24.79,0,0,0-3.37-3.75c-1.57-1.2-3.7-.57-3.82,1.16-.24,3.75-.94,7.69.87,11.21,2.45,4.79,2.18,9.12-1.23,13.43a16.36,16.36,0,0,0-2.52,3.52c-3.65,8.77-7.89,17.38-10.6,26.44-6.06,20.22-8,41.09-7.64,62.16a24.47,24.47,0,0,0,1,6.17,5.94,5.94,0,0,0,4.62,4.53c6.34,1.09,12.71,2.59,19.08,2.7,14.51.26,27.46-5,39.34-13A54.32,54.32,0,0,0-622-236.26c1.89-2.93,1.82-3.65-.41-6.45-.8-1-1.79-1.86-2.61-2.85-4.14-4.93-8.64-9.61-12.31-14.88-8.38-12-16.39-24.32-24.46-36.56-1.58-2.41-3.38-5-3.93-7.69-.79-3.9-2.88-6.22-6.07-8.13-3.8-2.29-4.16-5.42-1.21-8.73.92-1,1.9-2,3.05-3.23-2-1.46-3.92-2.42-5.16-4C-677-331.11-673.72-332.26-673-335Zm175.34-58.93a12.85,12.85,0,0,0,.42-2.48c-1.11-12.95.83-25.73,2-38.56,1.22-13.81,2.32-27.62,3.4-41.44.39-4.95-.8-6.07-5.38-5-11,2.66-22,2.41-33.12.79-3.3-.48-6.56-1.17-10.38-1.87-2.89,27.54-5.74,54.63-8.64,82.24,5.45.15,10.24.6,15,.35,11.72-.6,23.2-.09,34,5.14A19.56,19.56,0,0,0-497.71-393.91Zm46.85,175.67c-1.92.59-3.29,1-4.63,1.43q-27.6,9.6-55.2,19.2c-2.58.9-5.19,1.72-7.78,2.62-2.25.78-2.95,2.34-2.12,4.57.28.75.66,1.47,1,2.21q13.22,32.72,26.4,65.44c2.77,6.87,5.38,13.8,8.13,20.69a24.91,24.91,0,0,0,2,3.34c.78-.94,1.39-1.35,1.53-1.88q15.62-57.57,31.13-115.17C-450.27-216.32-450.61-217-450.86-218.24ZM-560.23-361.46h-.17c0,3.22.08,6.44,0,9.66a28.66,28.66,0,0,0,4.84,16.41c9.61,15.24,29.26,17.93,42.44,5.67,11.83-11,16.82-24.79,16.1-40.78-.26-5.89-2.14-10.73-8.42-12.66-.75-.23-1.4-.79-2.14-1.1-4.75-2-9.37-5-14.29-5.6a124.43,124.43,0,0,0-23.56-.12c-5.82.4-14,9.7-14.72,15.52a11.65,11.65,0,0,0-.05,1.45Q-560.23-367.23-560.23-361.46Zm221.64-596.22c2.13-4.36.33-7-1.46-9.76-12.16-18.43-24.38-36.83-36.41-55.34-9-13.79-17.67-27.74-26.54-41.58-.88-1.39-1.29-3.46-4.2-3.38-.53,1.23-1.18,2.64-1.76,4.07-3.82,9.41-7.59,18.83-11.45,28.22q-4.59,11.17-9.36,22.28c-1.37,3.19-1.05,5.59,1.65,8.15,3.13,3,5.6,6.63,8.42,9.93,1.07,1.26,2.33,2.36,4.11,4.14a22,22,0,0,1,2-2.95c4.77-4.8,10-5.47,15.73-1.7a67.61,67.61,0,0,1,7.42,6.15c2.66,2.35,5.07,5,7.88,7.14,3.5,2.67,7.43,4.73,12.09,3.71a13.19,13.19,0,0,1,11.79,2.84c5.55,4.65,10.91,9.51,16.33,14.32C-341.17-960.41-340.14-959.24-338.59-957.68Zm-316.72,549c-.52.85-.79,1.1-.82,1.39a9.28,9.28,0,0,0,0,1.9,27.2,27.2,0,0,1-6.35,20.62c-3.44,4.17-3,6.14,1.79,8.45.73.34,1.51.56,2.24.9,4.67,2.16,9.39,4.21,14,6.53,3.27,1.66,3.7,3.83,1.64,6.63q-8.4,11.46-16.84,22.88c-1.59,2.15-1.51,2.8.52,4.31,6.45,4.79,12.92,9.55,19.32,14.4,3.81,2.89,5,2.66,7.45-1.58,5.92-10.14,12-20.17,17.79-30.4,4.16-7.42,8-15,11.73-22.68,2.11-4.36,1.1-5.87-3.3-7.65a99.51,99.51,0,0,1-9.91-4.82c-2.68-1.44-5.13-3.28-7.81-4.7-9.09-4.83-18.22-9.57-27.35-14.32C-652.51-407.49-653.82-408-655.31-408.7Zm-49.94,41.57c9.5-1.36,19.77-3,27.38-11.52a74.61,74.61,0,0,1,7.14-6.49c7.86-6.81,8-18.3,0-24.85a69.09,69.09,0,0,0-32.45-15.2c-10.43-1.78-19.68,3.32-23.56,13.24-1.27,3.25-1.49,6.9-2.57,10.25-2.91,9-.79,16.88,4.93,23.94C-719.71-372-714.23-367.37-705.25-367.13Zm542.37,23.24c-1.73-1.34-2.38-2.09-3.2-2.44-11.11-4.72-22-10-33.42-13.92-14.76-5.05-29.9-9-44.88-13.39q-12.28-3.6-24.6-7.11c-1.59-.45-3.33-1.61-4.86.19.56,8.31,3.29,14,9.83,19,15.5,11.79,31.25,23.24,46.62,35.2,4.21,3.27,7.69,3.46,12.29,1.34,9.79-4.51,19.8-8.56,29.67-12.89C-171.5-339.61-167.68-341.58-162.88-343.89ZM-59.72-655.36A12,12,0,0,0-62.61-665a56.37,56.37,0,0,0-7.45-6.79c-8.27-6.13-17.78-9.56-27.63-12.25-3.85-1.05-6.39-.08-8.66,3.13a71.24,71.24,0,0,0-12.59,35,18.63,18.63,0,0,0,3,12c5,7.67,18.64,13.37,27.64,11.57,9.5-1.91,15.89-8.65,22.78-14.62a5.39,5.39,0,0,0,1.1-1.58C-61.73-643.75-59.6-649.1-59.72-655.36ZM-721.53-330.3c-1.32-1.26-2.39-2.19-3.36-3.21-3.56-3.72-7.19-7.37-10.57-11.24-1.65-1.89-2.35-4.23-.79-6.69,2.33-3.66,4.58-7.39,7-11,2.73-4.18,2.66-4.07-.42-8.34-6.25-8.7-9.68-18.15-7.17-29.05.39-1.72.79-3.45,1.09-5.2a23.25,23.25,0,0,0,0-3.15,27.83,27.83,0,0,0-3.91,2.62c-2.63,2.58-5.12,5.31-7.68,8-5.93,6.13-12.27,11.92-17.69,18.46-5.08,6.12-11.12,11.66-13.82,19.59-1.58,4.66-1.45,6.46,2.24,9.71,3.27,2.88,6.69,5.59,9.76,8.66,7.29,7.29,14.33,14.84,21.63,22.11,2.92,2.91,5.89,5.92,10.16,7.66C-729.16-316.69-726.34-324-721.53-330.3Zm545.69-326.77c1.34,8.57,2.84,16.25,3.69,24,.87,8.05-1,15.92-3.59,24.45,2.45-.25,4-.27,5.48-.59q9-1.92,17.92-4c9.41-2.19,18.81-4.4,28.2-6.7a18.15,18.15,0,0,0,3.75-2c-.84-1.32-1.3-2.16-1.86-2.94a25.79,25.79,0,0,1-4.88-15.35,66.17,66.17,0,0,1,5.78-27.2c1.1-2.59,2.1-5.23,3.15-7.84l-.78-1.14C-137.13-667.69-155.48-659.64-175.84-657.07ZM-433.38-400.59c-.06-.43,0-1-.21-1.34-14.71-21.94-31.21-42.54-47.31-63.44-.78-1-1.67-1.92-2.53-2.85-.08-.1-.3-.1-.45-.1a9.5,9.5,0,0,0-1.05.28c-.19,1.44-.52,3.11-.63,4.8-.59,9-1,18-1.73,27-1.08,13-2.41,26-3.57,38.95a29.7,29.7,0,0,0,.26,4.46C-483.67-392.19-436.94-398.61-433.38-400.59ZM-69.94-621.95c2,.78,3.46,1.45,5,1.87,8.52,2.41,17.06,4.75,25.59,7.12,4.59,1.28,5.2.86,5.6-4,.6-7.27,2.87-13.92,8-19.2,5-5.12,8.68-11.62,15.35-15,.49-.26.79-.88,1.73-2-7.34-1.87-14.19-3.36-20.88-5.37s-13.26-4.55-20.78-7.17C-50.42-648-55.94-633.33-69.94-621.95ZM82.79-631a57.83,57.83,0,0,0-5.72-19.27c-.79-1.6-2.15-1.83-3.69-1.27a49.89,49.89,0,0,1-5.4,2.06c-6.9,1.57-13.84,2.92-20.74,4.44-5.81,1.28-11.62,2.57-17.38,4.07-2.89.76-3.62,2-2.68,4.6,2.68,7.25,5.56,14.41,8.32,21.63,1,2.61,2.92,3.18,5.44,2.69a133.24,133.24,0,0,0,38.59-13.4C81.84-626.74,82.65-628.56,82.79-631Zm-505-126.05a30.8,30.8,0,0,1,4,.48c3.84,1,7.74,2,11.45,3.4,2.53,1,4.78,2.63,7.14,4,4.49,2.6,4.52,2.63,7.36-1.94,6-9.6,10.33-20,14.14-30.56a74.81,74.81,0,0,0,2.75-9.73,29.8,29.8,0,0,0,.62-7.18c-.2-5.8-2.47-7.41-8.13-5.73a25,25,0,0,0-6.55,3,67.33,67.33,0,0,0-15.71,14.13c-6.72,8.29-11.76,17.62-16.51,27.11A12.16,12.16,0,0,0-422.17-757.08ZM-602.37-358.8c8.79,3.46,17.15,6.76,25.51,10a33.57,33.57,0,0,0,3.67,1.22c3.88,1,4.65.49,5-3.37.1-1.28,0-2.58.14-3.86.56-5.12.89-10.29,1.82-15.34,1.55-8.48-1.81-14.48-9.9-17.12q-7.8-2.56-15.49-5.44c-13.74-5.11-27.45-10.3-41.18-15.41a14.35,14.35,0,0,0-2.81-.48l-.37,1.07c7.28,4,14.46,8.24,21.84,12.06,5.86,3,12,5.5,17.95,8.37,3.9,1.88,4.17,2.8,2.51,6.78-2.54,6.08-5.15,12.12-7.69,18.19C-601.77-361.22-601.95-360.27-602.37-358.8Zm-98.78-.07c-.63-.55-.74-.73-.87-.76-5.66-1.09-11.3-2.27-17-3.18a4.32,4.32,0,0,0-3.4,1.21c-2.93,3.54-5.6,7.29-8.75,11.49,1.17.77,1.89,1.15,2.51,1.66,4,3.28,7.89,6.6,11.84,9.89,2,1.63,2.34,3.48,1.66,6-1.14,4.34-2,8.71-4.8,12.42-1.2,1.58-1.22,3.51.76,4.58,5.78,3.15,11.63,6.19,17.49,9.18a3.39,3.39,0,0,0,4.93-1.51c2.07-3.63,4.36-7.15,6.19-10.9,2.89-5.93,2.27-8.09-2.21-12.83-3.75-4-7.23-8.19-10.85-12.28a6.37,6.37,0,0,1-1.07-7.58C-703.53-353.89-702.37-356.32-701.15-358.87ZM-449.43-712.2l1.62,0c.34-1.66.68-3.33,1-5a86.82,86.82,0,0,1,9-26.39c4.29-7.74,8.41-15.57,12.74-23.3,1.42-2.54,1.22-4.59-.16-7.18-2.66-5-7.45-7.44-11.71-10.48a21.52,21.52,0,0,0-6.5-3c-3.53-1-5.94.35-7.06,3.92a39.11,39.11,0,0,0-1.71,8c-1.52,16-.44,31.89.57,47.81C-451.27-722.58-450.18-717.4-449.43-712.2Zm534,93a28.3,28.3,0,0,0-3.39,1.1c-3.62,1.75-7.09,3.86-10.82,5.33a169.32,169.32,0,0,0-27,13.9c-3.22,2-3.46,2.42-2.05,5.77s2.84,6.51,4.46,9.66c1.93,3.77,3.54,4.26,7.36,2.58q5.3-2.32,10.6-4.67c8.1-3.6,16.21-7.16,24.28-10.82,4.57-2.07,4.69-2.67,2.4-7.35-1.13-2.31-2.34-4.61-3.24-7C86.15-613.39,85.44-616.17,84.52-619.2ZM-664.94-343.15c1.29-1.74,2.34-3.14,3.36-4.57,2.7-3.79,5.47-7.54,8.05-11.41,1.92-2.87,1.71-3.72-1.43-5.1-4.85-2.12-9.86-3.9-14.72-6-2.79-1.2-5-.86-7.66.77-4.49,2.76-9.34,4.92-14,7.41-1.08.58-2.4,1.25-2.91,2.24-1.61,3.1-2.89,6.38-4.45,9.94l10.05,8.71c3.24-3.78,5.73-7.8,10.7-8.32S-669.14-347.18-664.94-343.15ZM8.86-591.92c5.1-2.89,9.67-5.5,14.25-8.09,5.14-2.89,5.61-4.07,4.08-9.65-1.62-5.88-3.16-11.78-4.69-17.68-.85-3.25-1.67-3.8-4.72-2.43-5.86,2.62-11.65,5.39-17.47,8.11-2.42,1.13-4.83,2.29-7.91,3.75C0-610.26,4.17-601.12,8.86-591.92ZM-14-619.16c.89-3.79,4.53-5.73,8-7.73a94.89,94.89,0,0,1,8.59-4.37c2.33-1,2.55-2.82,1.9-4.78-1-2.87.08-7.3-4-8-3.16-.51-7.16-.3-9.79,1.26-6.11,3.63-11.28,8.65-14,15.49s-2.74,13.82,2.52,19.46c3.22,3.46,7.49,6,11.4,8.75.74.53,2,.37,3.78.66C-8.51-605.61-11.14-612.11-14-619.16Zm69.37-61.91-3.62,1.38c-3.89,1.48-7.68,3.34-11.69,4.36-8.24,2.08-16.6,3.73-24.91,5.53-4.27.93-5,1.66-5.5,5.94-.62,5.07.57,6.36,5.42,5.35C23.4-660.25,31.73-662,40-664.09c4.82-1.2,9.53-2.85,14.23-4.48,4.42-1.52,5.13-3.27,3.39-7.69C57-677.73,56.28-679.12,55.37-681.07ZM-14.54-1171.8l1.16,1c6.55-4.44,13.09-8.89,19.53-13.27a7.56,7.56,0,0,0-.61-1.94c-4.58-5.54-9.19-11-14.15-17-1.22,7.13-2.31,13.86-3.55,20.55C-12.82-1178.91-13.74-1175.36-14.54-1171.8ZM-369.65-667.85c9.26.23,16.81-4.12,25-4.69,1.11-.08,2.17-1,3.59-1.6l-15.22-15.26A162.78,162.78,0,0,0-369.65-667.85ZM13.54-637.11c3.85-.49,6.85-1.23,8.69-5.13,1.07-2.26,3.48-4.2,5.72-5.52,7.65-4.51,16.3-5.84,24.91-7.24,1.57-.26,4.5.14,4.14-2.13-.46-2.88-3.11-1.21-4.75-.8-10.92,2.77-21.79,5.71-32.71,8.49-7.13,1.81-7.15,1.73-6.42,8.81C13.23-639.54,13.38-638.45,13.54-637.11Zm-195.75,40.85c4,.36,24.8-5.55,30.1-8.22-.54-.19-1-.53-1.34-.45-8.3,1.79-16.61,3.54-24.87,5.54C-179.58-599.09-180.57-597.62-182.21-596.26Zm212.13,17c.65,0,1.44-.06,2.23-.16,3.22-.43,3.78-1.36,2.75-4.48-1.11-3.36-2.07-3.72-6.79-2.51-3.21.82-3.75,2.06-2.65,5.15C26.27-579,28.08-579.41,29.92-579.3ZM-657-311.51c-1.26,1.31-2.57,2.08-2.5,2.69.31,2.67,2,4.34,5.21,5.71C-655.21-306-655.92-308.17-657-311.51Zm-4-9.93c-3.17,1.72-3.17,1.72-4.72,4.36,2.2.28,4.35.83,5.8-1.25C-659-319.53-659.46-320.8-660.95-321.44ZM-386.8-747.87l-1-.51a20.86,20.86,0,0,0-2.8,3.85c-.21.48,1,1.6,1.59,2.43.64-.57,1.64-1,1.84-1.73A19.17,19.17,0,0,0-386.8-747.87Zm-15.05-62.19c-1.86-.57-3.57-1.48-4.52.89-.2.5.63,1.94,1.24,2.14C-403.23-806.42-402.14-807.41-401.85-810.06ZM-460.57-832c.85-1.45,1.69-2.25,1.58-2.87s-1.06-1.41-1.8-1.7c-.31-.11-1.54,1-1.47,1.32C-462.09-834.32-461.41-833.51-460.57-832ZM26.52-594.37c4.1,1,4.1,1,3.81-2.49Z" transform="translate(934 1219)"/><path class="cls-1" d="M266-699.32c-20.18.08-40.26,1.78-60.31,3.94q-35.61,3.81-70.7,11.08c-21.78,4.5-43.47,9.43-65.21,14.15-1.69.36-3.42.5-5.43.78-.19-1.35-.64-2.35-.4-3.13,2-6.54-2.83-10.49-5.9-15-.56-.8-3.34-.56-4.88-.11-3.86,1.13-7.52,2.93-11.39,4-7.78,2.1-15.66,3.81-23.46,5.81a61.72,61.72,0,0,0-7.3,2.52c-4,1.57-6.59,4.2-7.52,8.68-.89,4.31-1.61,4.61-6.14,3.88a167.24,167.24,0,0,1-34.86-9.76c-6.11-2.42-12.32-4.76-19.12-4.72-1.63,0-3.31-1-4.88-1.76-5.66-2.68-11.31-5.38-16.92-8.17a22.37,22.37,0,0,1-4.82-3.06c-5.9-5.26-13.19-6.11-20.08-2.16a9.16,9.16,0,0,0-2.05,1.26c-4.22,4.32-9.8,5.91-15.23,8-10.1,3.79-19.92,8.4-30.17,11.69-8.71,2.79-17.87,4.17-26.82,6.23-2.92.67-5-.4-6.65-2.73-4.71-6.56-11.29-11.06-17.9-15.33-7.64-4.93-16.4-6.51-25.44-6.56h-10.93c9.69-22,18.27-43.4,31.2-62.67-2.85,9.37-7.81,17.8-11.8,26.66s-8.66,17.49-11.67,27.48c2.47-.56,3.08-2.09,3.79-3.38,10.08-18.36,20.36-36.63,30.13-55.16,18.1-34.34,35.86-68.87,53.85-103.27,6.19-11.85,12.63-23.57,19-35.34a12.39,12.39,0,0,1,3.46-4.22,13.64,13.64,0,0,1-.48,2.81q-11,28.11-22.1,56.2c-1.52,3.89-2.85,7.87-4.15,11.84a14.78,14.78,0,0,0-.31,3.31c2.67.32,3.42-1.55,4.2-3,3.2-5.77,6.75-11.42,9.27-17.5,11.64-28.12,23-56.37,34.42-84.57,1.15-2.83,2.12-5.75,3.49-8.47.57-1.12,2-2.54,3-2.57,6.73-.16,13.49-.07,20.22.17a6.87,6.87,0,0,1,3.79,1.82c6.94,6,13.65,12.26,20.72,18.1,8,6.6,16.56,12.36,26.43,15.79,17.22,6,34.65,7.39,52.18,1.44,26.1-8.86,49-22.86,67.61-43.36,7-7.71,12.5-16.37,14.6-26.86.85-4.28,1.52-4.48,6-4.07,22,2,43.48.07,63.89-9.16,1.91-.86,3.77-1.82,5.65-2.74,4.86-2.39,5.53-2.27,9.26,1.46,11.41,11.38,22.77,22.81,34.26,34.1,10.93,10.74,22,21.33,33,32A12.34,12.34,0,0,0,266-921.9Z" transform="translate(934 1219)"/><path class="cls-1" d="M266-448.68c-15.61-.86-31.21-2.27-46.82-2.45-19.82-.24-39.67,0-59.47,1-32.18,1.55-63.63,8-94.61,16.55a816.08,816.08,0,0,0-104.17,37.2q-45,19.4-90.17,38.62c-5.63,2.4-11.36,4.58-16.89,7.18a10.15,10.15,0,0,1-9.26,0c-7.72-3.65-15.48-7.22-23.18-10.93-14.15-6.82-29.16-11.23-44.16-15.64-16.09-4.73-32.26-9.17-48.38-13.76-5.65-1.61-6.36-2.47-7-8.32-2.22-21.52,0-42.41,8.14-62.64,8.57-21.32,14.12-43.53,17.6-66.21,1.73-11.29,2.62-22.71,3.77-34.08.44-4.34.68-4.8,4.91-4.46,14.7,1.16,28.52-2,41.55-8.64,2.93-1.48,5.26-4.09,8-6.06,1.78-1.3,3.57-2.84,5.61-3.47,10.78-3.3,21.76-6,32.45-9.59,12.21-4.09,24.18-8.87,36.25-13.39,4.22-1.58,8.33-3.51,12.62-4.84a33.26,33.26,0,0,1,9-1.37c5.68-.09,11.25-.42,16.6-2.6a7.88,7.88,0,0,1,7,.14c9.45,5,19.68,8,29.89,11,2.32.68,4.65,1.36,7,1.91a29.27,29.27,0,0,1,13.31,7.36,48.81,48.81,0,0,0,12.24,7.58c2.31,1.09,5.32.63,8,1,1.49.22,3.52.27,4.29,1.22,2.53,3.13,5.46,2.23,8.37,1.32,2.56-.8,5-2,8-3.25.62,2.39,1.13,4.36,1.63,6.33.58,2.25,1.32,4.29,3.82,5.19.84.31,1.41,1.29,2.23,1.74,1.63.88,3.28,2.06,5,2.31a112.58,112.58,0,0,0,15.31,1.41,23.69,23.69,0,0,0,8.88-2c13.11-5.39,26.12-11,39.14-16.58a40.58,40.58,0,0,0,4.68-2.52c4.67-2.77,6.06-6.17,4.22-11.34a59,59,0,0,0-4-8.25c-1.23-2.27-2.69-4.4-4.07-6.58a13.79,13.79,0,0,1-2.06-8.23c.3-11.43-2.22-22.1-10-31a5.49,5.49,0,0,0-3.59-1.75,38.23,38.23,0,0,0-6.67.93,15.11,15.11,0,0,1-3.3.63c-.76,0-1.48-.83-2.21-1.29.47-.75.77-1.8,1.44-2.19a13.38,13.38,0,0,1,3.68-1.15c16.35-3.68,32.62-7.76,49.07-10.9,22.64-4.33,45.34-8.4,68.14-11.72a533.34,533.34,0,0,1,66-5.72c4-.09,8.05-.41,12.07-.62Zm-427.13,67.81c-.39,3-.39,3,2.3,4.68ZM174.45-560.74l1.16.2c.19-1.06.39-2.12.72-3.93C174-563.18,173.85-562.09,174.45-560.74ZM-165.31-375.48l-1-.85-.65.88a8.32,8.32,0,0,0,1.09.69A4.06,4.06,0,0,0-165.31-375.48Z" transform="translate(934 1219)"/><path class="cls-1" d="M-934-379l22-7.22c33.89-11.14,68.51-16.93,104.24-13.41,13,1.27,25.88,3.38,38.81,5.17,1.86.26,3.68.83,6.29,1.44a44.93,44.93,0,0,1-2.46,4.08c-6.66,8.68-13.39,17.32-20,26-3.25,4.22-3.39,9.39.09,13.36q16.24,18.54,32.8,36.81a55.37,55.37,0,0,0,6.81,6.16c5.85,4.65,11,4.41,16.33-.78a33.07,33.07,0,0,0,3.27-4.51c2.36,1.7,3.75,2.72,5.16,3.69,3.7,2.55,7.34,5.22,11.15,7.59s7.78,3.94,13,2.25c-.2,1.72-.06,3-.52,4-8.24,18.46-10.5,38.12-11.74,58-.35,5.63-.31,11.28-.37,16.92a41.49,41.49,0,0,0,.36,5.79c1,8.06,4.74,11.24,12.82,11.46,6.91.18,13.82.58,20.73,1a45.76,45.76,0,0,1,4.87.79c-.62,2.35-2.44,2.54-3.74,3.16-8.92,4.18-17.59,8.77-25.31,15-2.51,2-5.07,4-7.47,6.13a8.62,8.62,0,0,0-3.2,7.3c3.53,1,6.42-.92,9.36-1.8,20.53-6.11,40.89-12.82,61.52-18.53,16.48-4.56,33.15-4.53,49.49,1.46,3.9,1.43,4.74,1.95,6.84,4.9-2.36.84-4.54,1.68-6.76,2.42-17.87,6-35.86,11.7-53.6,18.07-15.16,5.43-30.27,11.11-45,17.6Q-727.41-127.5-766-109c-19,9.15-37.62,19.14-56.18,29.19-22.67,12.28-45.27,24.73-66.47,39.48-13.62,9.47-26.9,19.43-40.37,29.12a57,57,0,0,1-5,2.9Zm98.08,145.76c2,2.09,4,4.17,6.3,6.54C-829.43-231.31-832.55-232.41-835.92-233.24Zm9.38-3.13-1.4.22a6.85,6.85,0,0,0,1.46,6.1l1-.23Q-826-233.32-826.54-236.37Z" transform="translate(934 1219)"/><path d="M266,192.94c-35.91-3.76-71.78-8-107.75-11.14-31.47-2.74-63-4.43-94.59-6.27-53-3.1-106.06-2-159.11-1.81-46.93.2-93.8,2.28-140.65,5-38.16,2.23-76.26,5.11-114.24,9.35s-75.94,8.61-113.8,13.76c-39.61,5.38-79.15,11.42-118.61,17.82-30.39,4.92-60.55,11.17-90.51,18.31-25.1,6-49.94,12.8-74.49,20.74a835,835,0,0,0-81.93,31.84c-32.4,14.42-64,30.55-95.63,46.45-2.84,1.43-5.79,2.66-8.69,4v-7.74c5.65-2.69,11.35-5.29,17-8.07,19.19-9.53,38.18-19.5,57.57-28.61,21-9.85,42.19-19.34,63.62-28.2,15.46-6.39,31.37-11.74,47.23-17.13q33-11.19,66.91-19.11c20.24-4.74,40.49-9.58,60.92-13.36,33.92-6.29,67.95-12,102-17.49,22.92-3.67,46-6.61,69-9.59q44.12-5.7,88.31-10.88c17.14-2,34.31-3.78,51.51-5.1,35.36-2.71,70.73-5.54,106.15-7.4,32.84-1.72,65.74-2.6,98.63-3.2,50.79-.92,101.6-1.16,152.38.48q40.11,1.31,80.17,4.34c31.84,2.35,63.62,5.41,95.4,8.4,14.44,1.35,28.84,3.26,43.25,4.92Z" transform="translate(934 1219)"/><path class="cls-1" d="M-934-434.16a18.33,18.33,0,0,0,3.15-2.77Q-917-456.41-903.23-476a6.09,6.09,0,0,1,3.12-2.51c-1,2.09-2,4.18-3,6.25-6.67,13.6-13.4,27.16-20,40.8a98.06,98.06,0,0,0-3.75,9.94,3.64,3.64,0,0,0,.57,3.13,34.09,34.09,0,0,0,2.72-3.55c3.79-6.56,7.62-13.1,11.21-19.76,18.52-34.33,39.2-67.4,59.12-100.91,12.68-21.33,25.29-42.72,37-64.57,12.35-23,23.62-46.54,35.36-69.84.85-1.68,1.73-3.34,3-5.77,1,2.29,1.62,3.73,2.24,5.16.46,1,.64,2.49,1.43,3,3.88,2.49,2.2,5.33,1,8.4-16.23,41.74-32.61,83.43-48.51,125.3-7.55,19.87-14.61,40-21,60.23-3.28,10.35-7.42,20.25-11.64,30.17a6.45,6.45,0,0,0-.61,1.31c-1.19,7.19-5.91,11.18-12,14.54-8,4.43-15.66,9.58-23.4,14.53-10,6.4-18.48,14.62-26,23.67-4.75,5.68-10.91,7.54-17.62,8.76Z" transform="translate(934 1219)"/><path class="cls-1" d="M-934-564.81a54.3,54.3,0,0,0,2.88-5.89Q-922-596.89-913-623.15c.47-1.37.73-2.82,1.29-4.15a30.13,30.13,0,0,1,2.56-3.73l1.32,2.85c6.9,15,17.9,27,28.28,39.53,6.88,8.29,13.36,16.91,20,25.39.3.38.54.8.84,1.18,5,6.54,5.09,6.6,1,13.5q-10,16.8-20.19,33.46a8.77,8.77,0,0,1-4.09,3.74,15.15,15.15,0,0,0-7.56,5.72c-6.16,8.44-12.32,16.89-18.32,25.45-7.66,10.94-15.14,22-22.77,33a27.63,27.63,0,0,1-3.35,3.41Z" transform="translate(934 1219)"/><path d="M-821.72,109.75c5.56-1.2,10.39,1.21,14.86,4.1s8.63,6.43,13,9.75c-.69-6.14-6.59-10.68-6.07-17.45,3.17,2.71,4.56,6.58,6.53,10a41.77,41.77,0,0,1,4.54,11.69l-6.56.45c-2.54-2.78-4.77-5.77-7.54-8.11a39.45,39.45,0,0,0-8.89-5.58c-3.24-1.48-6.8-2.25-10.22-3.33Z" transform="translate(934 1219)"/><path d="M103.33-102.26c-2.66,4.34-.49,8.77-1.91,12.92-.83-.49-1.48-.65-1.54-.94a30.47,30.47,0,0,1,.48-15.23c1.16-3.83,3.41-6.15,8-5.89a43.46,43.46,0,0,0,.75,21.16c-2.7-.83-3.2-2.57-3.5-4.41-.26-1.58-.25-3.23-.62-4.78A12.15,12.15,0,0,0,103.33-102.26Z" transform="translate(934 1219)"/><path d="M-466.69,144.59c.59,1.42,1.2,2.82,1.76,4.25.92,2.38,1.69,4.82,2.71,7.16,1.94,4.46,1.9,4.61-3.55,5.57a20.53,20.53,0,0,0-9.39-9.61,7.36,7.36,0,0,1-2-2c-.27-.32-.28-.86-.53-1.71,4-.91,5.72,4,9.71,3.31V145Z" transform="translate(934 1219)"/><path d="M177.81,105.47c-4.47,4.73-9.42,9.1-13.27,14.29s-6.57,11.19-9.91,17c-1.44-1.91-1-4,0-5.78A127.62,127.62,0,0,1,163,117c2.84-3.85,6.49-7.13,9.93-10.51,1-1,2.57-1.53,3.88-2.28Z" transform="translate(934 1219)"/><path d="M122.73,117.17c2.51,2.77,4.81,5.16,6.94,7.7,4.23,5,8.6,10,11.35,16,.91,2,1.84,4,.39,6.41-.64-.42-1.22-.58-1.33-.9-2.32-7.2-6.79-13-11.78-18.54-1.83-2-3.58-4.12-5.35-6.19C122,120.59,121,119.48,122.73,117.17Z" transform="translate(934 1219)"/><path d="M140.91,108.62c.4.27,1.08.48,1.12.78a172.94,172.94,0,0,0,6.25,30.54c.2.61-.26,1.43-.46,2.33C142.93,137.76,138.28,114.59,140.91,108.62Z" transform="translate(934 1219)"/><path d="M126.48-261c1.52,1.5,2.5,2.08,2.94,2.94,4.77,9.31,8,19.82,7.42,24.85-3.94-4-4.07-9-5.78-13.22S126.71-254.94,126.48-261Z" transform="translate(934 1219)"/><path d="M124-124.42c-1.81,4.71-4.11,9.31-5.29,14.17-1.12,4.66-1.07,9.6-2,14.32-2.68-10.69.23-20.13,6-28.91Z" transform="translate(934 1219)"/><path d="M145.55-261.75c1.27,3.43-.53,5.85-.89,8.46s-.43,5.12-.58,7.68a72.79,72.79,0,0,1-.66,7.81C140.05-243.88,141.14-256.23,145.55-261.75Z" transform="translate(934 1219)"/><path d="M50.67-341.76c-2.79-4.9-6.06-9.54-7.16-15.14C47.66-352.65,51.32-348.18,50.67-341.76Z" transform="translate(934 1219)"/><path d="M128.63-234.66c-.81-.58-2.15-1-2.36-1.75-1.13-4.16-3.65-8-2.76-12.71,3.63,3.86,4.32,8.94,6.09,13.56Z" transform="translate(934 1219)"/><path d="M-452.57,142c-1.75,6.23-3.22,11.48-4.69,16.75C-460.15,154.88-458.43,148-452.57,142Z" transform="translate(934 1219)"/><path d="M-786,122.71c-2.31-5.64-.71-14.69,4.73-19.1-1.38,3.79-2.89,6.68-3.44,9.75s-.11,6.27-.11,9.42Z" transform="translate(934 1219)"/><path d="M-286.64-102.56c-1.71-3-1.25-6-.45-9.68C-285.15-108.9-285.08-107.64-286.64-102.56Z" transform="translate(934 1219)"/><path d="M-298.48-107.13c3.2,6.82,3.2,6.82,1.37,9-.67-2.64-1.32-5.15-1.92-7.68C-299.09-106-298.81-106.36-298.48-107.13Z" transform="translate(934 1219)"/><path d="M56.7-354.63v7.13c-1.92-2.29-1.56-4.69-1.33-7.08Z" transform="translate(934 1219)"/><path d="M68.79-356.23c-.75,2-1.51,3.94-2.48,6.46C64.7-353.73,64.91-354.37,68.79-356.23Z" transform="translate(934 1219)"/><path d="M-299.68-111.71l-.48.67c-.19-.21-.56-.48-.52-.62a3.17,3.17,0,0,1,.62-.87C-299.93-112.26-299.81-112-299.68-111.71Z" transform="translate(934 1219)"/><path d="M-624.43-1138.06c4.34,1.1,8.72,2.06,13,3.33,3.92,1.16,3.92,1.3,5.8-2.54,7.39-15.14,21.69-18.45,34.93-14,4.17,1.4,8,4.16,11.68,6.63,2.51,1.66,2.69,4.26,1.07,6.76-1.81,2.8-4.18,3.6-7,2s-5.37-3.53-8.17-5.09a23.22,23.22,0,0,0-15-2.39c-6,.87-9.2,3.88-10.42,9.77-.36,1.73-.47,3.51-.88,5.23-1.26,5.31-6.11,7.75-11.11,5.51-5.74-2.57-11.38-5.14-17.94-5.1-6,0-10.35,2.08-12.14,8.09-1.1,3.68-2,7.41-3,11.13-.48,1.86-.58,3.9-1.45,5.55a4.48,4.48,0,0,1-3.33,2c-.74,0-2.09-1.68-2.15-2.67a44.08,44.08,0,0,1,.16-10.08,29.65,29.65,0,0,1,10.86-18.79C-635.14-1136.2-630.1-1137.65-624.43-1138.06Z" transform="translate(934 1219)"/><path d="M-795.2-1124.43c4.42.32,8,.37,11.47.9,3.73.57,5.1,2.28,4.64,4.92-.55,3.14-4.74,6.67-7.36,5.57-6.92-2.92-14-1.7-21-1.17a26.57,26.57,0,0,0-9.19,2.6,10.27,10.27,0,0,0-6,9.77,53.71,53.71,0,0,0,1,10c1.31,6.35-1.8,10.67-8.38,11.08-2.57.16-5.16.08-7.73.25-6.84.48-12,3.28-14.24,10.27a96.2,96.2,0,0,1-4.15,9.78,15.54,15.54,0,0,1-2.5,4.1,3.22,3.22,0,0,1-2.88.82c-.77-.34-1.11-1.72-1.55-2.68a1.54,1.54,0,0,1,.11-.95c2.18-7.58,4.16-15.25,9.31-21.56a23.52,23.52,0,0,1,15.19-8.6c1.12-.17,2.24-.32,3.36-.47,2.45-.31,3.86-1.48,3.49-4.16-.05-.32,0-.65-.05-1-1.18-13.35,8.6-25.15,22.87-28C-804-1123.84-799.16-1124-795.2-1124.43Z" transform="translate(934 1219)"/><path d="M-873.72-883c-1.94.14-4.53.16-7.07.53a10.24,10.24,0,0,0-8.9,7.76c-.63,2.15-.91,4.4-1.35,6.6-.22,1.11-.13,2.43-.73,3.26-.87,1.17-2.14,2.6-3.41,2.78-1.83.28-2.62-1.57-2.94-3.22-1.28-6.47.77-12.18,4.65-17.15,4.06-5.22,9.26-8.77,16.15-9.54,5.12-.58,5.09-.82,5.44-6,.74-11.23,9.15-19,19.92-18.63a18.54,18.54,0,0,1,11.72,5.07c2.13,1.88,2.14,5,.23,7.37s-4.81,2.93-7.07.93a14.65,14.65,0,0,0-8.64-3.86c-4.63-.39-7,1.61-7.18,6.32a18.92,18.92,0,0,0,.91,6.61c2.56,7.5-.72,11.92-8.69,11.44C-871.48-882.79-872.28-882.88-873.72-883Z" transform="translate(934 1219)"/><path d="M-301.75,329.72a26.49,26.49,0,0,1-2.79-2.26c-9.13-9.89-20.27-17.32-31-25.28-4.38-3.26-8.83-6.42-13.18-9.72a25.51,25.51,0,0,1-3-3.31c2.72-1.08,4,.4,5.32,1.33q10.74,7.77,21.35,15.72c5,3.76,9.95,7.65,14.95,11.43a6,6,0,0,0,3.66,1.31c-1.65-2.29-3.33-4.57-4.94-6.89-3-4.35-6.14-8.65-9-13.12a9.28,9.28,0,0,1-.71-9c1.47,3.26,2.26,5.87,3.69,8,3.54,5.36,7.35,10.53,11.09,15.76a35.28,35.28,0,0,0,3.53,4.58C-299.37,321.63-298.83,325.18-301.75,329.72Z" transform="translate(934 1219)"/><path d="M-584.25,285.53c-5-.78-8.48-3.33-10.25-7.41-4.29-9.84-4.45-19.73,1.18-29.21,2.31-3.88,6.08-6.08,10.26-7.57.35-.12.86.21,2.23.58-8.56,5-13.51,11.51-13.66,21.17C-594.64,272.18-592.08,279.86-584.25,285.53Z" transform="translate(934 1219)"/><path d="M-286.45,317.19c2.94-10.56,19.58-24.05,29.71-23.78C-268.55,299.56-278.59,306.36-286.45,317.19Z" transform="translate(934 1219)"/><path d="M-578.35,262.48c-1.14,8.64,1.83,16.89.47,25.94-2.48-3.56-4.25-15.27-3.59-21.07C-581.24,265.43-581,263.53-578.35,262.48Z" transform="translate(934 1219)"/><path d="M-562.23,260.26c-1.68,3.59-3.82,7.05-4.9,10.81s-1.1,7.76-1.65,12.21C-573.82,277.19-569.53,264-562.23,260.26Z" transform="translate(934 1219)"/><path class="cls-1" d="M109.75-986.69c-1.11,3-2.61,6.5-3.71,10.13-5.29,17.51-17,30.09-31.24,40.66a154.55,154.55,0,0,1-39.86,21.45c-17.75,6.38-35.37,5.69-52.93-1-11.6-4.41-21.63-11.41-31.56-18.59-5.08-3.67-9.93-7.66-14.82-11.59a10.81,10.81,0,0,0-8-2.44c-11.59.85-23.06.77-34.52-2.21-10.15-2.63-20.37-5-30-9.17-10.32-4.51-19.13-10.89-25.83-20.33-8.2-11.56-10.58-24.21-9.85-38,.49-9.45,1.85-18.59,6.09-27.12,8.66-17.41,22.26-29.57,39.65-38,19.37-9.41,39.82-11.3,60.84-9.78a148.35,148.35,0,0,1,21,2.86,47.51,47.51,0,0,1,19.36,9.56c1.31,1,2.82,3,4.55,1.24,1.53-1.54,0-3.3-.81-4.82-3.81-7-10.11-10.8-17.37-13-6.15-1.83-12.54-2.86-18.82-4.25l-5-1.12a24.88,24.88,0,0,1,1.68-3.45c7.57-10.44,15.09-20.9,22.79-31.23a125.28,125.28,0,0,1,26.14-25.63c12.85-9.53,26.11-18.32,41.33-23.75,13.52-4.82,27.35-6.42,41.42-3.62,12.09,2.4,20.78,9.88,27,20.34A33.36,33.36,0,0,1,102-1157c.86,6.18,3.11,8.09,9.36,8.3a85.87,85.87,0,0,0,17.35-.74c6.84-1.17,13.47-.5,20.2.17a115.56,115.56,0,0,1,52.8,18.68c11.24,7.41,20.25,16.95,26.14,29.18a53.93,53.93,0,0,1,5.7,21.36c.73,18.79-3,36.47-13.48,52.47-9.41,14.35-22.27,24.4-37.78,31.3-14.48,6.45-29.84,9.12-45.54,10.07-5.8.35-11.6.58-17.4.6C116.55-985.59,113.77-986.21,109.75-986.69Z" transform="translate(934 1219)"/><path class="cls-1" d="M-397.91-805.28c.42-1.48.93-2.94,1.25-4.44.68-3.21-.2-4.61-3.41-5a18.28,18.28,0,0,0-5.27.19c-3.49.61-5.21,2.91-5.1,6.46.1,3.21,1.44,4.54,5,5.32a20.15,20.15,0,0,1,3.38,1.41,16.74,16.74,0,0,1-1.67,3.72c-4.07,5.19-8.27,10.27-12.43,15.39-.78,1-1.62,1.87-3,3.41-1.18-1.92-2.17-3.29-2.91-4.78-3.85-7.71-10.38-11.77-18.56-13.17-5.92-1-10.66,1.53-14.33,6.22a28.09,28.09,0,0,0-5.89,15.6c-.55,8-.72,16.11-.77,24.16a236.79,236.79,0,0,0,3.83,45.71,60.14,60.14,0,0,1,.45,6.12c-2-1.24-3.21-1.69-4-2.49-13-12.66-25.05-26-33.8-42.06-6.56-12-9.16-24.83-5.6-38.26a46.16,46.16,0,0,1,6-13.07,160.24,160.24,0,0,1,25.46-29.63c2.22-2.06,4.44-3.58,7.74-2.86,3.93.87,8.73-5.59,7.32-10.9-.57-2.16-2.45-2.6-4.25-2.23-2.64.54-5.93-2.33-7.91,1.28a6.27,6.27,0,0,0-.47,3.77c.47,3-1,4.57-3.35,6.24-16.4,11.72-29.67,26.31-38.13,44.69-2.2,4.78-2.48,10.66-2.71,16.07-.54,12.76,3.15,24.57,9.77,35.38a186.57,186.57,0,0,0,36.87,43.24c2.43,2.11,5.82,3.37,9,4.37,4.37,1.39,5.2,1.94,5.29,6.66s0,9.68,0,14.51c.13,10.8.26,21.61.52,32.41a65.17,65.17,0,0,0,1,9.12,5.67,5.67,0,0,1-2.17,5.93q-11.94,9.82-23.7,19.88c-2.33,2-4.48,2.35-7.49,1.25-15.19-5.6-30.5-6.19-45.85-.43-2.56,1-5.23,1.62-7.84,2.43-18.73,5.79-29.62,19.14-35.67,37.09-1,2.9-1.57,5.92-2.28,8.9-.94,3.92-1.31,4.34-5.43,4.91-9.74,1.35-19.5,2.6-29.23,4-7.34,1.06-14.65,2.33-22,3.42-2.49.37-5,.49-8.21.78a18.24,18.24,0,0,1,1.45-3.62c17.27-23.15,29.47-49.1,41.57-75.11q7.86-16.87,16-33.63c1.31-2.71,3-5.23,4.54-7.83l1,.44c-.93,2.45-1.79,4.93-2.8,7.35-5.7,13.67-11.79,27.2-15.73,41.54a9.23,9.23,0,0,0-.23,4.58c9.41-16.91,17.25-34.49,24.93-52.12s15.33-35.5,22.26-53.54,12.9-36.32,19.68-54.4c-1.58,9.3-4.53,18.25-6.72,27.39-2.15,9-5,17.79-5.89,27l1.34.54a26.15,26.15,0,0,0,2.23-3.85c3.29-8.75,6.72-17.45,9.65-26.31,4.85-14.68,9.38-29.46,14-44.21,4.1-13.06,8-26.18,12.26-39.19q8.26-25.26,17-50.37c4.8-13.84,10-27.56,14.93-41.35,5.39-15,10.7-30,16.12-45,4.64-12.86,9.37-25.7,14.09-38.54a36.52,36.52,0,0,1,1.65-3.32c2.89.79,3.81,2.93,5,4.78,3.22,5,6.38,10.07,9.66,15,1.21,1.82,2.27,4.23,5.16,3.52a7.08,7.08,0,0,0,5.42-5.59c.37-1.55.23-3.21.48-4.8.57-3.67,2.81-4.72,5.76-2.39,3.14,2.49,5.92,5.45,8.93,8.13a96.14,96.14,0,0,0,7.75,6.52c4.1,2.93,8.71,4.16,13.75,2.81a9.23,9.23,0,0,1,9,2.17q7.73,6.93,15.3,14c1.87,1.76,3.42,3.87,5.28,5.64,4.66,4.43,8.41,4.68,13.85,1.15.39-.25.85-.41,1.87-.9,1.27,1.66,2.72,3.3,3.89,5.12,13.54,21.19,26.92,42.49,40.6,63.58,11.06,17,22.51,33.82,33.7,50.77,3.55,5.38,6.73,11,10.28,16.38,1.75,2.66,1.09,4.76-.55,7-5.43,7.6-10.73,15.29-16.19,22.87q-26.13,36.27-52.33,72.49c-7.44,10.33-14.9,20.64-22.06,31.16-2.39,3.52-4.2,3.16-6.37-.15-3.26-5-7-9.69-10.41-14.54-3.16-4.45-3.15-5-.24-9.45,3.76-5.82,7.68-11.54,11.25-17.47,3.24-5.37,6.3-10.87,7.54-17.17.84-4.26,1.29-8.73-2.22-11.72s-8-1.86-12-.48c-7.5,2.56-13.52,7.41-19.11,12.84-2.42,2.36-4.64,4.93-7.07,7.29s-3.49,2.42-6.14.1c-1.09-1-2-2.12-3.17-3-3-2.22-3.47-4.88-2.66-8.49,1-4.55,1.26-9.29-.51-13.82-.94-2.4,0-4.31,1.14-6.37,5-9.24,9.29-18.82,11.64-29.07A46.76,46.76,0,0,0-368-804c-.51-6.52-4.56-9.28-11.06-8.23a31.53,31.53,0,0,0-12.47,5c-1.67,1.12-3.54,1.94-5.32,2.89Z" transform="translate(934 1219)"/><path class="cls-1" d="M-471.17-590.39c1.39-1.45,2.29-2.58,3.37-3.48,17.05-14.27,33.83-28.87,52.38-41.23.54-.36,1.07-.73,1.62-1.07,3.51-2.16,3.88-2,5.76,1.59a38.66,38.66,0,0,0,4.72,7.24c4.48,5.17,10.21,7.16,17,5.54,3.13-.75,6.26-1.58,9.34-2.52,9.86-3,15.68-.95,21.95,7.17,4.9,6.34,7.11,12.9,4,20.68a7.65,7.65,0,0,0-.46,2.85c0,2.76-1.18,4.18-3.8,5.37-6.8,3.12-10.8,9-13.67,15.65-1.78,4.1.25,7.59,4.71,8.15,2.59.32,5.4-.37,8-1.06a25.88,25.88,0,0,0,5.65-2.7c8.16-4.48,15.83-3.18,23.12,2,2,1.39,3.61,3.23,5.58,4.62,3.59,2.55,9,2.65,12.27.19,3.53-2.68,5.14-6.48,3.88-10.67a13.33,13.33,0,0,0-4.56-6.48c-2.92-2.13-4.47-4.51-4.39-8,.17-7.07-.05-14.18.66-21.19,1-10.09,3.61-20,3.11-30.26-.1-2.1-.2-4.19-.38-6.28-.76-8.69-4.65-15.3-12.73-19.13a19.6,19.6,0,0,1-2.33-1.85,34.52,34.52,0,0,1,4.75-.74,108.86,108.86,0,0,1,50.73,12.27c2.13,1.12,3.64,2.51,4.2,4.94,1.83,7.84,4,15.61,5.55,23.5,1.85,9.48,3.57,19,4.61,28.6a181.58,181.58,0,0,1,.52,22.14c-.09,6.28-.81,12.54-1.07,18.82-.84,19.91-4.82,39.29-9.23,58.65-3.45,15.15-8.85,29.64-14,44.2-5.73,16.14-6.68,32.71-5.82,49.59a115,115,0,0,0,8.39,37.54,52.15,52.15,0,0,0,3.06,6.56c1.44,2.48,1.72,4.67,0,7.17a63.15,63.15,0,0,0-3.72,6.76c-2.39,4.54-5.91,7.78-10.23,10.62-12.54,8.23-26.49,12.44-40.95,15.29q-19,3.74-38.07,6.92a135.08,135.08,0,0,1-31.83,1.27,75.09,75.09,0,0,1-8.07-1.46c-2.37-.44-3.17-1.94-2.9-4.2.09-.8.15-1.61.27-2.41a189.38,189.38,0,0,0,.89-45.82c-.71-7.73-3-15.12-5.52-22.47-6.05-17.42-17.44-31.49-28.2-45.94-11.26-15.12-22.86-30-34.19-45.05-5.59-7.44-5.47-7.52,1.9-12.76,10.37-7.37,17.06-17.3,20.89-29.37,3-9.44,2.84-19,2.37-28.73a59.51,59.51,0,0,0-5.83-23.74,44.38,44.38,0,0,0-9.55-13.27C-468.63-587.48-469.63-588.72-471.17-590.39Z" transform="translate(934 1219)"/><path class="cls-1" d="M-656.33-952.19l2.6-3.81c4.73-6.88,9.12-14,14.29-20.59,9-11.34,21.17-17.45,35.43-18.34,17.14-1.07,34.13.41,50.53,6.2,20.32,7.18,33.28,21.34,40,41.57,5.4,16.23,5.07,32.66,1.61,49.15-.44,2.13-.34,5-3.52,6.14l-3.81-6.65-1.19,0a31.25,31.25,0,0,0-1.83,4.62,69,69,0,0,0-1.32,8.1c-1.32,12.36-6.81,22.7-15.15,31.69-12.88,13.89-28.81,22.46-47,27.11-14.7,3.76-29.63,4.25-44.65,3.36-4.49-.27-8.95-1.07-13.42-1.65a6.42,6.42,0,0,0-5.65,2c-4.64,4.47-9.27,9-14.19,13.1a51.37,51.37,0,0,1-9.68,6.33c-7.3,3.73-14.63,7.51-22.23,10.55a43.41,43.41,0,0,1-34.8-.57c-7.14-3.14-12.66-8.37-17.32-14.37-12.41-15.95-14.9-33.81-9.36-53,3.7-12.82,12.64-20.2,25.08-23.76,7.11-2,14.37-1.56,21.61-.74.8.09,1.64.57,2.36.4,1.29-.31,3.12-.63,3.62-1.55.92-1.68.18-3.51-1.74-4.39a25.68,25.68,0,0,0-4.95-1.84,53.68,53.68,0,0,0-6.7-.91c-4.2-.39-4.77-.69-4.42-5,.51-6.41.84-12.93,2.36-19.13,4.25-17.36,11.25-33.61,21.93-48,10.13-13.68,24.13-20.35,41-21.42a10.45,10.45,0,0,1,9.08,3.6c2.23,2.56,2.36,4.36.58,7.37-2.12,3.61-4.3,7.19-6.25,10.89A22.41,22.41,0,0,0-656.33-952.19Z" transform="translate(934 1219)"/><path class="cls-1" d="M-515.75-879.63c1.43,2,2.55,3.31,3.4,4.78,4.45,7.67,8.78,15.41,13.26,23.06,1.37,2.33,1.19,4.51.39,6.93q-4.71,14.22-9.25,28.49c-3.83,12.13-7.56,24.29-11.33,36.44-.58,1.84-1.31,3.65-1.72,5.53-.69,3.13-1.52,5.55-5.46,6.35-1.82.37-3.61,3.15-4.55,5.23-2.91,6.45-5.56,13-8,19.67-6.87,18.41-13.62,36.88-20.38,55.34a17.55,17.55,0,0,1-5,6.9A60.32,60.32,0,0,0-573-670.53c-10.67,15.84-18.54,33.17-26.53,50.43-9.41,20.32-18.72,40.7-30,60.09-4.52,7.78-10.08,15-14.66,22.72-2.23,3.76-5.06,5.26-9.13,5.95a451.25,451.25,0,0,0-56,13.06c-14.33,4.37-28.58,8.94-42.33,15-1.33.58-2.88.67-5.51,1.25,2.14-4.11,3.77-7,5.19-10,4.86-10.34,9.55-20.76,14.51-31,2.45-5.07,5.4-9.9,8-14.87,11.21-21,22.47-42,33.56-63.13,19.88-37.79,37.66-76.65,59-113.68q19.9-34.53,39.89-69c1.86-3.22,3.73-6.41,3.92-10.28.13-2.59,2.37-2.78,4.14-3.36,5.66-1.84,11.53-3.18,17-5.47,20.9-8.78,38.11-22.13,49.6-42C-519.79-869.25-518.2-874-515.75-879.63Z" transform="translate(934 1219)"/><path class="cls-1" d="M-908.44-396.38c2.2-4,5.43-6.25,8.3-8.65,9.68-8.09,20.57-14.38,31.27-21q18.92-11.67,37.2-24.33c17.75-12.33,35.52-24.55,54.9-34.25A397.2,397.2,0,0,1-730.43-504a473.22,473.22,0,0,1,81.94-20.65c22.6-3.62,45.25-6.92,67.88-10.37.79-.12,1.59-.23,2.39-.33,2-.23,3,.82,3.14,2.75.09,1.6,0,3.22.06,4.83.28,17.22,7.95,30.19,22.49,39.25,2.43,1.51,5.66,2.82,6.74,5.07,1,2-.57,5.19-.91,7.87q-4,31.18-7.88,62.38c-.45,3.67-1,7.44-.67,11.08.62,6.2-3.2,9.73-6.74,13.8a41.8,41.8,0,0,1-4.69-2c-16.26-9.4-33.73-16.13-51.19-22.78-17.62-6.71-35.55-12.6-53.22-19.2A65.29,65.29,0,0,0-696.75-436c-10.34.41-19.91,3.63-27.8,10.84-1.63,1.49-3.76,2.4-5.59,3.67-2.9,2-5.89,3.92-8.59,6.17-4,3.31-7.75,6.82-11.49,10.36a8.41,8.41,0,0,1-7.94,2.27c-8.88-1.6-17.79-3.11-26.72-4.39a264.05,264.05,0,0,0-67.52-1.11c-9.74,1.11-19.39,3.26-29,5.37-7.86,1.73-15.57,4.12-23.36,6.16A23.06,23.06,0,0,1-908.44-396.38Z" transform="translate(934 1219)"/><path class="cls-1" d="M-552.3-253.35c-2.82,2.82-6.47,2.4-9.81,3.24a120.79,120.79,0,0,0-20.6,6.75c-11.87,5.37-23.38,11.52-35,17.34-1,.48-2,.87-3.86,1.7.67-1.73.84-2.79,1.4-3.54,3.2-4.31,4.24-9.36,5.13-14.45.7-4-1.31-7.12-3.56-10.16Q-627-263.72-635.22-275a14.74,14.74,0,0,1-2.83-8.07,21.76,21.76,0,0,0-1.82-6.46,70.14,70.14,0,0,0-12.44-21.14c-2.56-2.89-2.42-3.46,1.52-6.6,1.42,1.05,2.93,2.18,4.45,3.29a41.6,41.6,0,0,0,5.14,3.59c4.21,2.15,7.37,1.15,9.85-2.8Q-620.16-331-609-348.8c2.35-3.71,2.88-3.86,7-1.83,4.48,2.2,8.92,4.5,13.38,6.75,5.37,2.7,10.92,4.84,17,5.34,2.9.24,4.46,1.69,5.73,4.34a49.48,49.48,0,0,0,6.53,10.67c11.35,13.47,30.16,13.37,42.2,5.58,13.69-8.86,22.54-21.27,26.86-37a59.77,59.77,0,0,0,1.52-24.88c-.47-3.21,0-3.9,3.42-4.43,4.94-.76,9.92-1.23,14.88-1.9,12.3-1.66,24.6-3.38,36.9-5,6.18-.84,6.46-.58,9.14,5.19,6.82,14.69,8.79,30.22,8.1,46.23-.37,8.55-.6,17.11-4,25.16-.82,1.93-1.75,3.81-2.55,5.75a37,37,0,0,0-1.8,5c-1.25,4.81-2.16,9.71-3.56,14.47-5.46,18.55-11.17,37-16.52,55.6-1.35,4.69-3.83,7.24-8.46,8.81-20.75,7-41.38,14.43-62.06,21.67-1.67.59-3.38,1.06-5.09,1.55-4.21,1.19-4.73.87-6.65-3.13q-8.9-18.53-17.9-37c-1.56-3.18-3.37-6.23-5.17-9.28A12.39,12.39,0,0,0-552.3-253.35Z" transform="translate(934 1219)"/><path class="cls-1" d="M-266.2-350.89l3.18,2.44c12.11,9.36,24.24,18.68,36.32,28.08,5.58,4.34,11,8.84,16.58,13.24q9.83,7.83,19.7,15.61,27.16,21.39,54.35,42.73c3.92,3.07,8,5.93,12,8.87,2.34,1.72,4.64,3.49,7.08,5.07,7.07,4.57,9,11,8.21,19.18-.48,4.84.86,9.86,1.35,14.8.32,3.2.53,6.41.87,9.61.69,6.4,1.17,12.83,2.22,19.18a297.71,297.71,0,0,0,14,54.21,144.07,144.07,0,0,0,49.77,67C-28.84-42.21-16.4-34.78-3.82-27.56c24.34,14,49.1,27.15,75.11,37.78,6.1,2.49,12.55,4.09,18.85,6.08,1.79.57,3.61,1.05,5.43,1.57,0,.35.05.7.07,1.06-2.07.61-4.11,1.42-6.22,1.82a335.39,335.39,0,0,1-56.7,5.92q-39.16.69-78.34.59c-10.63,0-21.25-1.12-31.87-1.77-4.47-.27-4.68-.51-6.11-4.73A517.56,517.56,0,0,1-99.52-39.52c-2.49-12-5.15-24-7-36-2.63-16.87-4.77-33.81-6.79-50.76-1.34-11.2-2.38-22.45-3-33.71-.88-15.12-1.28-30.28-1.85-45.42-.2-5.15-.34-10.3-.38-15.46a5.87,5.87,0,0,0-2.75-4.82c-4.62-3.49-9.26-7-13.87-10.48a11.13,11.13,0,0,1-2.19-1.9c-6.89-8.95-16.36-15-25-21.92q-19.8-15.88-39.94-31.33c-6.25-4.79-12.92-9-19.39-13.52-.53-.37-1.07-.73-1.57-1.13-21.48-17.64-27-20.76-45.1-31.16-.84-.48-1.67-1-2.46-1.54-2.87-2-2.95-2.38-.95-5.39,1.41-2.14,2.88-4.24,4.36-6.33C-267.33-350.65-266.9-350.65-266.2-350.89Z" transform="translate(934 1219)"/><path class="cls-1" d="M-199.44-766.3c-4.19-1.93-6.39.52-8.09,3.39-6.33,10.67-12.92,21.21-18.65,32.2-6.25,12-11.73,24.39-17.37,36.7-1.73,3.76-3.9,6-8.29,7a106.31,106.31,0,0,0-19.56,6.78c-3.86,1.74-7.16,4.81-10.51,7.54-1.58,1.3-2.91,2.53-5.1,1.78-10.24-3.52-20.88-3.69-31.54-3.75a30.5,30.5,0,0,1-3.81-.36c-.25,0-.45-.42-1.16-1.1.72-1.18,1.43-2.53,2.31-3.75q18.58-25.93,37.2-51.84,24.33-34,48.64-68c13.23-18.45,26.57-36.83,39.82-55.27,7-9.68,13.83-19.41,20.75-29.12l28.89-40.54c4.58-6.43,9.27-12.77,13.68-19.31,2-3,4.3-3.71,7.78-2.81,5.61,1.45,11.34,2.41,17,3.55,3.23.64,3.92,1.55,2.78,4.58-1.07,2.82-2.31,5.37-5,7.42a27,27,0,0,0-6.54,8.24q-13.73,24.15-27.08,48.52c-9.56,17.53-19.06,35.1-28.25,52.84-8.73,16.87-17,34-25.53,51C-197.7-769.37-198.44-768.13-199.44-766.3Z" transform="translate(934 1219)"/><path class="cls-1" d="M-849-448.2a15.9,15.9,0,0,1,.48-2.3c7.74-20.66,15.43-41.35,23.28-62q18.74-49.23,37.68-98.38c10-26,20.41-51.86,30.14-78,4.66-12.52,8.19-25.46,12.23-38.2.34-1.05.66-2.11,1.33-4.26a22.14,22.14,0,0,1,1.25,3.71c1.83,16,3.35,32.07,5.49,48,2,15.17,4.55,30.28,7.16,45.36,2.39,13.81,5.19,27.55,7.81,41.33a13.81,13.81,0,0,1-1.55,9.32c-7.39,13.95-14.82,27.88-21.94,42-4.58,9-8.53,18.41-13,27.51-2.48,5-5.5,9.83-8.18,14.79-1.65,3-4.48,4.49-7.33,6-9.62,5.23-19.49,10.05-28.74,15.88-12.67,8-24.83,16.74-37.24,25.13-2.6,1.76-5.33,3.33-8,5Z" transform="translate(934 1219)"/><path class="cls-1" d="M-390.56-682.7c-4.39,5.86-8.59,11.15-12.44,16.69a38.07,38.07,0,0,0-6.35,15.56,7.21,7.21,0,0,1-3.07,5.18c-9.11,6.38-18.11,12.9-27.16,19.36-.74.53-1.58.94-2.78,1.64a14.94,14.94,0,0,1-.61-3c.28-18.69.85-37.39.85-56.09,0-14.78,1.55-29.31,5.89-43.42a102.36,102.36,0,0,1,7-16.4c2.64-5.15,6.56-6.65,12.2-4.95a39.58,39.58,0,0,1,9.18,4.23,129.49,129.49,0,0,1,25.49,20.65c2.91,3,2.83,4.41-.47,7-1.27,1-2.72,1.73-4.07,2.61s-2.63,1.7-1.75,3.41,2.5,1.33,3.85.78a15.86,15.86,0,0,0,4.67-2.44c5.64-5,11.11-10.25,16.68-15.36,4.26-3.92,8.37-8,12.95-11.57a34,34,0,0,1,9.47-4.66c3.82-1.32,6.21.59,5.54,4.59a30.58,30.58,0,0,1-3.44,10.44c-5.86,9.81-12.2,19.34-18.36,29-6,9.36-12,18.7-18,28.08a18.31,18.31,0,0,0-2,4.37c-1.34,4.39.22,7,4.76,7.54a72,72,0,0,0,9.64.43c5.8-.06,11.61-.56,17.4-.37a54.5,54.5,0,0,1,12.39,1.79c9.81,2.67,14,8.33,14.51,18.55.43,8.76-.82,17.37-2.1,26-.85,5.73-1.39,11.51-2,17.28-.85,8.39,2.27,15.44,7.42,21.81,1.25,1.54,3.67,3.29,1.58,5.3s-3.76-.54-5.21-1.81c-8-6.94-17-9.7-27.34-6.91-2.6.7-5,2.24-7.47,3.35a30.88,30.88,0,0,1-4.91,2,3.09,3.09,0,0,1-2.45-.87,2.23,2.23,0,0,1,.13-2.17c1.93-2.34,3.65-5.23,6.16-6.62,4.16-2.31,6.77-5.21,7.66-9.87a23.09,23.09,0,0,1,2-5.45c4.53-9.39,1.57-17.46-4.11-25.22-6.87-9.39-15.81-12.11-26.83-8.92a51.73,51.73,0,0,1-8.46,1.92c-8.86,1-15.89-4.71-17.24-13.61-1.39-9.27,1.68-17.29,7.16-24.36,4.32-5.58,9.46-10.52,14.07-15.89a12.82,12.82,0,0,0,2.84-5.31c.5-2.22-.82-3.56-3-3.16a27.58,27.58,0,0,0-7.71,2.53C-391.67-687.48-391.89-686.12-390.56-682.7Z" transform="translate(934 1219)"/><path class="cls-1" d="M-511.24-488.92c-12.39.2-23.41-1.7-33.49-7.49s-16.95-14-20.23-25.36c-4.37-15.11-2-29.42,4.71-43.13,1.68-3.46,4.81-6.48,7.89-8.92,9.41-7.47,19.59-13.7,31.65-15.87,10.65-1.93,21.45-1.65,31.41,2.47,9.34,3.86,18.09,9.22,22.46,19.27a8.45,8.45,0,0,0,1.28,2c6.62,7.74,7.93,16.54,5.82,26.3-1.32,6.12-1.52,12.48-2.93,18.56-2.74,11.78-9.48,21.08-20.58,25.91C-492.31-491.2-501.72-487.17-511.24-488.92Z" transform="translate(934 1219)"/><path class="cls-1" d="M-479.49-76.31c.94-2.56,2.06-4.15,2-5.72-.2-6.77,2.23-13,3.77-19.38q4.54-18.8,9.57-37.46c3.37-12.61,7-25.15,10.49-37.73,4.28-15.35,9.08-30.59,12.7-46.1,3.29-14.15,8.81-27.57,12.2-41.66,2.61-10.81,5.63-21.52,8.56-32.24,1.06-3.88,2.38-7.68,3.64-11.5.13-.39.64-.65,1-1a5.64,5.64,0,0,1,1.35.47c5.82,3.94,5.91,4,3.94,10.83q-7.72,27-15.61,53.87c-1.18,4-2.82,7.84-4.13,11.8a9.59,9.59,0,0,0-.73,4.23c.61,3.73-.9,7-1.9,10.35-2.7,9.1-5.55,18.16-8.11,27.3-3.71,13.19-7.22,26.43-10.82,39.65-4.49,16.47-9,32.93-13.46,49.42-3,11-5.91,22.1-8.63,33.2-1,4.23-1.79,8.49-3.94,12.34-.23.4-.51.78-1.13,1.73-1.57-2.06-3.5-3.51-3.9-5.3-1.41-6.31-5.61-11.19-8-16.94-1.93-4.58-3.13-9.52-5.43-13.88-6-11.39-12.14-22.75-18.83-33.75a278.31,278.31,0,0,0-30-40.28A117.89,117.89,0,0,0-572-186.51c-17.44-10.61-36.31-13.43-56.32-10.13-12,2-23.52,5.55-35,9.38-10.22,3.41-20.42,6.88-31.18,10.51.34-2.76,2.25-3.54,3.74-4.32,7-3.65,13.93-7.49,21.17-10.6,15.41-6.63,30.6-13.64,45-22.33a379.54,379.54,0,0,1,59.88-29.18c1.5-.58,3-1.29,4.42-2,1.3-.58,2.59-1.19,4.14-1.9a16.27,16.27,0,0,1,2,2.81c4.47,10.88,8.84,21.81,13.33,32.68,1,2.53,2.39,4.93,3.61,7.39a27.08,27.08,0,0,1,2.12,4.33c3.5,12.44,9.91,23.68,14.55,35.65q12.42,32,25.16,63.9c3,7.5,6.72,14.66,12.18,20.74C-482.38-78.63-481.35-77.92-479.49-76.31Z" transform="translate(934 1219)"/><path class="cls-1" d="M-278.29-669c1.54-1.15,2.65-2.34,4-2.94a101.16,101.16,0,0,1,11.66-4.6A91.67,91.67,0,0,1-224.82-680a52.86,52.86,0,0,1,27.67,11.81,19.66,19.66,0,0,1,4.82,5.33c4,7.36,8.62,14.54,10.09,22.9,2.2,12.54,2.17,24.87-4,36.68a51.93,51.93,0,0,1-17.19,19c-9,6.22-18.85,7.88-29.1,9a104.14,104.14,0,0,1-11.59.37c-3.13,0-3.65-.52-4-3.56a24,24,0,0,1-.23-5.79c1.22-9.83-1.35-19.17-3.3-28.62a113.47,113.47,0,0,1-2.14-13.29A57,57,0,0,0-258-642.52c-1-2.53-2.13-5.16-2.34-7.81-.42-5.17-3-8.76-7-11.52-2.64-1.83-5.53-3.3-8.27-5A28.41,28.41,0,0,1-278.29-669Z" transform="translate(934 1219)"/><path class="cls-1" d="M-242.58-309.54a49.23,49.23,0,0,1-4.82,2.81c-17.37,7.31-34.69,14.79-52.18,21.81-33.19,13.32-66.49,26.38-99.75,39.52-5.24,2.08-10.53,4-15.82,6a30.79,30.79,0,0,1-4,.8,30.27,30.27,0,0,1,.48-4.44c3-11.38,6.22-22.7,9.09-34.1,1.88-7.5,3.36-15.1,4.85-22.69.44-2.26,1.16-3.58,3.72-3.26,17.39,2.2,34.44-.63,51.4-3.87,11.86-2.27,23.69-4.88,35.36-8a72.24,72.24,0,0,0,32.48-18.33c3.56-3.47,3.64-3.37,7.56-.42,8.48,6.42,17.07,12.69,25.58,19.07C-246.82-313.28-245.19-311.75-242.58-309.54Z" transform="translate(934 1219)"/><path class="cls-1" d="M-673-335c-.67,2.72-3.91,3.87-2,6.24,1.24,1.54,3.19,2.5,5.16,4-1.15,1.22-2.13,2.2-3.05,3.23-2.95,3.31-2.59,6.44,1.21,8.73,3.19,1.91,5.28,4.23,6.07,8.13.55,2.72,2.35,5.28,3.93,7.69,8.07,12.24,16.08,24.53,24.46,36.56,3.67,5.27,8.17,9.95,12.31,14.88.82,1,1.81,1.84,2.61,2.85,2.23,2.8,2.3,3.52.41,6.45a54.32,54.32,0,0,1-15.36,15.88c-11.88,8-24.83,13.23-39.34,13-6.37-.11-12.74-1.61-19.08-2.7a5.94,5.94,0,0,1-4.62-4.53,24.47,24.47,0,0,1-1-6.17c-.35-21.07,1.58-41.94,7.64-62.16,2.71-9.06,7-17.67,10.6-26.44a16.36,16.36,0,0,1,2.52-3.52c3.41-4.31,3.68-8.64,1.23-13.43-1.81-3.52-1.11-7.46-.87-11.21.12-1.73,2.25-2.36,3.82-1.16A24.79,24.79,0,0,1-673-335Z" transform="translate(934 1219)"/><path class="cls-1" d="M-497.71-393.91a19.56,19.56,0,0,1-2.72-.79c-10.82-5.23-22.3-5.74-34-5.14-4.76.25-9.55-.2-15-.35,2.9-27.61,5.75-54.7,8.64-82.24,3.82.7,7.08,1.39,10.38,1.87,11.08,1.62,22.12,1.87,33.12-.79,4.58-1.11,5.77,0,5.38,5-1.08,13.82-2.18,27.63-3.4,41.44-1.13,12.83-3.07,25.61-2,38.56A12.85,12.85,0,0,1-497.71-393.91Z" transform="translate(934 1219)"/><path class="cls-1" d="M-450.86-218.24c.25,1.25.59,1.92.45,2.45q-15.51,57.6-31.13,115.17c-.14.53-.75.94-1.53,1.88a24.91,24.91,0,0,1-2-3.34c-2.75-6.89-5.36-13.82-8.13-20.69q-13.15-32.74-26.4-65.44c-.3-.74-.68-1.46-1-2.21-.83-2.23-.13-3.79,2.12-4.57,2.59-.9,5.2-1.72,7.78-2.62q27.62-9.58,55.2-19.2C-454.15-217.27-452.78-217.65-450.86-218.24Z" transform="translate(934 1219)"/><path class="cls-1" d="M-560.23-361.46q0-5.78,0-11.55a11.65,11.65,0,0,1,.05-1.45c.71-5.82,8.9-15.12,14.72-15.52a124.43,124.43,0,0,1,23.56.12c4.92.6,9.54,3.64,14.29,5.6.74.31,1.39.87,2.14,1.1,6.28,1.93,8.16,6.77,8.42,12.66.72,16-4.27,29.78-16.1,40.78-13.18,12.26-32.83,9.57-42.44-5.67a28.66,28.66,0,0,1-4.84-16.41c.1-3.22,0-6.44,0-9.66Z" transform="translate(934 1219)"/><path class="cls-1" d="M-338.59-957.68c-1.55-1.56-2.58-2.73-3.74-3.76-5.42-4.81-10.78-9.67-16.33-14.32a13.19,13.19,0,0,0-11.79-2.84c-4.66,1-8.59-1-12.09-3.71-2.81-2.13-5.22-4.79-7.88-7.14a67.61,67.61,0,0,0-7.42-6.15c-5.72-3.77-11-3.1-15.73,1.7a22,22,0,0,0-2,2.95c-1.78-1.78-3-2.88-4.11-4.14-2.82-3.3-5.29-7-8.42-9.93-2.7-2.56-3-5-1.65-8.15q4.78-11.08,9.36-22.28c3.86-9.39,7.63-18.81,11.45-28.22.58-1.43,1.23-2.84,1.76-4.07,2.91-.08,3.32,2,4.2,3.38,8.87,13.84,17.57,27.79,26.54,41.58,12,18.51,24.25,36.91,36.41,55.34C-338.26-964.72-336.46-962-338.59-957.68Z" transform="translate(934 1219)"/><path class="cls-1" d="M-655.31-408.7c1.49.68,2.8,1.21,4,1.86,9.13,4.75,18.26,9.49,27.35,14.32,2.68,1.42,5.13,3.26,7.81,4.7a99.51,99.51,0,0,0,9.91,4.82c4.4,1.78,5.41,3.29,3.3,7.65-3.7,7.66-7.57,15.26-11.73,22.68-5.76,10.23-11.87,20.26-17.79,30.4-2.47,4.24-3.64,4.47-7.45,1.58-6.4-4.85-12.87-9.61-19.32-14.4-2-1.51-2.11-2.16-.52-4.31q8.43-11.44,16.84-22.88c2.06-2.8,1.63-5-1.64-6.63-4.58-2.32-9.3-4.37-14-6.53-.73-.34-1.51-.56-2.24-.9-4.83-2.31-5.23-4.28-1.79-8.45a27.2,27.2,0,0,0,6.35-20.62,9.28,9.28,0,0,1,0-1.9C-656.1-407.6-655.83-407.85-655.31-408.7Z" transform="translate(934 1219)"/><path class="cls-1" d="M-705.25-367.13c-9-.24-14.46-4.88-19.12-10.63-5.72-7.06-7.84-15-4.93-23.94,1.08-3.35,1.3-7,2.57-10.25,3.88-9.92,13.13-15,23.56-13.24A69.09,69.09,0,0,1-670.72-410c8,6.55,7.85,18,0,24.85a74.61,74.61,0,0,0-7.14,6.49C-685.48-370.15-695.75-368.49-705.25-367.13Z" transform="translate(934 1219)"/><path class="cls-1" d="M-162.88-343.89c-4.8,2.31-8.62,4.28-12.55,6-9.87,4.33-19.88,8.38-29.67,12.89-4.6,2.12-8.08,1.93-12.29-1.34-15.37-12-31.12-23.41-46.62-35.2-6.54-5-9.27-10.71-9.83-19,1.53-1.8,3.27-.64,4.86-.19q12.32,3.5,24.6,7.11c15,4.4,30.12,8.34,44.88,13.39,11.4,3.9,22.31,9.2,33.42,13.92C-165.26-346-164.61-345.23-162.88-343.89Z" transform="translate(934 1219)"/><path class="cls-1" d="M-59.72-655.36c.12,6.26-2,11.61-4.68,16.8A5.39,5.39,0,0,1-65.5-637c-6.89,6-13.28,12.71-22.78,14.62-9,1.8-22.69-3.9-27.64-11.57a18.63,18.63,0,0,1-3-12,71.24,71.24,0,0,1,12.59-35c2.27-3.21,4.81-4.18,8.66-3.13,9.85,2.69,19.36,6.12,27.63,12.25A56.37,56.37,0,0,1-62.61-665,12,12,0,0,1-59.72-655.36Z" transform="translate(934 1219)"/><path class="cls-1" d="M-721.53-330.3c-4.81,6.29-7.63,13.61-13.56,18.87-4.27-1.74-7.24-4.75-10.16-7.66-7.3-7.27-14.34-14.82-21.63-22.11-3.07-3.07-6.49-5.78-9.76-8.66-3.69-3.25-3.82-5.05-2.24-9.71,2.7-7.93,8.74-13.47,13.82-19.59,5.42-6.54,11.76-12.33,17.69-18.46,2.56-2.65,5-5.38,7.68-8a27.83,27.83,0,0,1,3.91-2.62,23.25,23.25,0,0,1,0,3.15c-.3,1.75-.7,3.48-1.09,5.2-2.51,10.9.92,20.35,7.17,29.05,3.08,4.27,3.15,4.16.42,8.34-2.37,3.63-4.62,7.36-7,11-1.56,2.46-.86,4.8.79,6.69,3.38,3.87,7,7.52,10.57,11.24C-723.92-332.49-722.85-331.56-721.53-330.3Z" transform="translate(934 1219)"/><path class="cls-1" d="M-175.84-657.07c20.36-2.57,38.71-10.62,56.86-19.28l.78,1.14c-1,2.61-2,5.25-3.15,7.84a66.17,66.17,0,0,0-5.78,27.2,25.79,25.79,0,0,0,4.88,15.35c.56.78,1,1.62,1.86,2.94a18.15,18.15,0,0,1-3.75,2c-9.39,2.3-18.79,4.51-28.2,6.7q-9,2.07-17.92,4c-1.49.32-3,.34-5.48.59,2.56-8.53,4.46-16.4,3.59-24.45C-173-640.82-174.5-648.5-175.84-657.07Z" transform="translate(934 1219)"/><path class="cls-1" d="M-433.38-400.59c-3.56,2-50.29,8.4-57.22,7.74a29.7,29.7,0,0,1-.26-4.46c1.16-13,2.49-25.95,3.57-38.95.74-9,1.14-18,1.73-27,.11-1.69.44-3.36.63-4.8a9.5,9.5,0,0,1,1.05-.28c.15,0,.37,0,.45.1.86.93,1.75,1.84,2.53,2.85,16.1,20.9,32.6,41.5,47.31,63.44C-433.35-401.58-433.44-401-433.38-400.59Z" transform="translate(934 1219)"/><path class="cls-1" d="M-69.94-621.95c14-11.38,19.52-26,19.58-43.81,7.52,2.62,14.07,5.15,20.78,7.17s13.54,3.5,20.88,5.37c-.94,1.09-1.24,1.71-1.73,2-6.67,3.43-10.34,9.93-15.35,15-5.15,5.28-7.42,11.93-8,19.2-.4,4.9-1,5.32-5.6,4-8.53-2.37-17.07-4.71-25.59-7.12C-66.48-620.5-67.89-621.17-69.94-621.95Z" transform="translate(934 1219)"/><path class="cls-1" d="M82.79-631c-.14,2.47-1,4.29-3.26,5.55a133.24,133.24,0,0,1-38.59,13.4c-2.52.49-4.43-.08-5.44-2.69-2.76-7.22-5.64-14.38-8.32-21.63-.94-2.55-.21-3.84,2.68-4.6,5.76-1.5,11.57-2.79,17.38-4.07,6.9-1.52,13.84-2.87,20.74-4.44a49.89,49.89,0,0,0,5.4-2.06c1.54-.56,2.9-.33,3.69,1.27A57.83,57.83,0,0,1,82.79-631Z" transform="translate(934 1219)"/><path class="cls-1" d="M-422.17-757.08a12.16,12.16,0,0,1,.54-3c4.75-9.49,9.79-18.82,16.51-27.11a67.33,67.33,0,0,1,15.71-14.13,25,25,0,0,1,6.55-3c5.66-1.68,7.93-.07,8.13,5.73a29.8,29.8,0,0,1-.62,7.18,74.81,74.81,0,0,1-2.75,9.73c-3.81,10.6-8.16,21-14.14,30.56-2.84,4.57-2.87,4.54-7.36,1.94-2.36-1.37-4.61-3-7.14-4-3.71-1.41-7.61-2.36-11.45-3.4A30.8,30.8,0,0,0-422.17-757.08Z" transform="translate(934 1219)"/><path class="cls-1" d="M-602.37-358.8c.42-1.47.6-2.42,1-3.29,2.54-6.07,5.15-12.11,7.69-18.19,1.66-4,1.39-4.9-2.51-6.78-5.95-2.87-12.09-5.35-17.95-8.37-7.38-3.82-14.56-8-21.84-12.06l.37-1.07a14.35,14.35,0,0,1,2.81.48c13.73,5.11,27.44,10.3,41.18,15.41q7.7,2.87,15.49,5.44c8.09,2.64,11.45,8.64,9.9,17.12-.93,5.05-1.26,10.22-1.82,15.34-.13,1.28,0,2.58-.14,3.86-.31,3.86-1.08,4.39-5,3.37a33.57,33.57,0,0,1-3.67-1.22C-585.22-352-593.58-355.34-602.37-358.8Z" transform="translate(934 1219)"/><path class="cls-1" d="M-701.15-358.87c-1.22,2.55-2.38,5-3.55,7.4a6.37,6.37,0,0,0,1.07,7.58c3.62,4.09,7.1,8.31,10.85,12.28,4.48,4.74,5.1,6.9,2.21,12.83-1.83,3.75-4.12,7.27-6.19,10.9a3.39,3.39,0,0,1-4.93,1.51c-5.86-3-11.71-6-17.49-9.18-2-1.07-2-3-.76-4.58,2.81-3.71,3.66-8.08,4.8-12.42.68-2.53.3-4.38-1.66-6-4-3.29-7.88-6.61-11.84-9.89-.62-.51-1.34-.89-2.51-1.66,3.15-4.2,5.82-7.95,8.75-11.49a4.32,4.32,0,0,1,3.4-1.21c5.68.91,11.32,2.09,17,3.18C-701.89-359.6-701.78-359.42-701.15-358.87Z" transform="translate(934 1219)"/><path class="cls-1" d="M-449.43-712.2c-.75-5.2-1.84-10.38-2.17-15.61-1-15.92-2.09-31.86-.57-47.81a39.11,39.11,0,0,1,1.71-8c1.12-3.57,3.53-4.94,7.06-3.92a21.52,21.52,0,0,1,6.5,3c4.26,3,9,5.47,11.71,10.48,1.38,2.59,1.58,4.64.16,7.18-4.33,7.73-8.45,15.56-12.74,23.3a86.82,86.82,0,0,0-9,26.39c-.32,1.67-.66,3.34-1,5Z" transform="translate(934 1219)"/><path class="cls-1" d="M84.52-619.2c.92,3,1.63,5.81,2.63,8.49.9,2.4,2.11,4.7,3.24,7,2.29,4.68,2.17,5.28-2.4,7.35-8.07,3.66-16.18,7.22-24.28,10.82q-5.3,2.35-10.6,4.67c-3.82,1.68-5.43,1.19-7.36-2.58-1.62-3.15-3.08-6.39-4.46-9.66s-1.17-3.77,2.05-5.77a169.32,169.32,0,0,1,27-13.9c3.73-1.47,7.2-3.58,10.82-5.33A28.3,28.3,0,0,1,84.52-619.2Z" transform="translate(934 1219)"/><path class="cls-1" d="M-664.94-343.15c-4.2-4-7.9-6.87-13-6.33s-7.46,4.54-10.7,8.32l-10.05-8.71c1.56-3.56,2.84-6.84,4.45-9.94.51-1,1.83-1.66,2.91-2.24,4.66-2.49,9.51-4.65,14-7.41,2.63-1.63,4.87-2,7.66-.77,4.86,2.1,9.87,3.88,14.72,6,3.14,1.38,3.35,2.23,1.43,5.1-2.58,3.87-5.35,7.62-8.05,11.41C-662.6-346.29-663.65-344.89-664.94-343.15Z" transform="translate(934 1219)"/><path class="cls-1" d="M8.86-591.92c-4.69-9.2-8.85-18.34-16.46-26,3.08-1.46,5.49-2.62,7.91-3.75,5.82-2.72,11.61-5.49,17.47-8.11,3-1.37,3.87-.82,4.72,2.43,1.53,5.9,3.07,11.8,4.69,17.68,1.53,5.58,1.06,6.76-4.08,9.65C18.53-597.42,14-594.81,8.86-591.92Z" transform="translate(934 1219)"/><path class="cls-1" d="M-14-619.16c2.86,7,5.49,13.55,8.43,20.78-1.81-.29-3-.13-3.78-.66-3.91-2.79-8.18-5.29-11.4-8.75-5.26-5.64-5.21-12.6-2.52-19.46s7.86-11.86,14-15.49c2.63-1.56,6.63-1.77,9.79-1.26,4.07.66,3,5.09,4,8,.65,2,.43,3.74-1.9,4.78A94.89,94.89,0,0,0-6-626.89C-9.47-624.89-13.11-622.95-14-619.16Z" transform="translate(934 1219)"/><path class="cls-1" d="M55.37-681.07c.91,2,1.67,3.34,2.24,4.81,1.74,4.42,1,6.17-3.39,7.69-4.7,1.63-9.41,3.28-14.23,4.48-8.26,2.05-16.59,3.84-24.92,5.58-4.85,1-6-.28-5.42-5.35.52-4.28,1.23-5,5.5-5.94,8.31-1.8,16.67-3.45,24.91-5.53,4-1,7.8-2.88,11.69-4.36Z" transform="translate(934 1219)"/><path class="cls-1" d="M-14.54-1171.8c.8-3.56,1.72-7.11,2.38-10.7,1.24-6.69,2.33-13.42,3.55-20.55,5,5.94,9.57,11.45,14.15,17a7.56,7.56,0,0,1,.61,1.94c-6.44,4.38-13,8.83-19.53,13.27Z" transform="translate(934 1219)"/><path class="cls-1" d="M-369.65-667.85a162.78,162.78,0,0,1,13.37-21.55l15.22,15.26c-1.42.65-2.48,1.52-3.59,1.6C-352.84-672-360.39-667.62-369.65-667.85Z" transform="translate(934 1219)"/><path class="cls-1" d="M13.54-637.11c-.16-1.34-.31-2.43-.42-3.52-.73-7.08-.71-7,6.42-8.81,10.92-2.78,21.79-5.72,32.71-8.49,1.64-.41,4.29-2.08,4.75.8.36,2.27-2.57,1.87-4.14,2.13-8.61,1.4-17.26,2.73-24.91,7.24-2.24,1.32-4.65,3.26-5.72,5.52C20.39-638.34,17.39-637.6,13.54-637.11Z" transform="translate(934 1219)"/><path class="cls-1" d="M-182.21-596.26c1.64-1.36,2.63-2.83,3.89-3.13,8.26-2,16.57-3.75,24.87-5.54.36-.08.8.26,1.34.45C-157.41-601.81-178.21-595.9-182.21-596.26Z" transform="translate(934 1219)"/><path class="cls-1" d="M29.92-579.3c-1.84-.11-3.65.28-4.46-2-1.1-3.09-.56-4.33,2.65-5.15,4.72-1.21,5.68-.85,6.79,2.51,1,3.12.47,4.05-2.75,4.48C31.36-579.36,30.57-579.34,29.92-579.3Z" transform="translate(934 1219)"/><path class="cls-1" d="M-657-311.51c1.08,3.34,1.79,5.52,2.71,8.4-3.17-1.37-4.9-3-5.21-5.71C-659.57-309.43-658.26-310.2-657-311.51Z" transform="translate(934 1219)"/><path class="cls-1" d="M-660.95-321.44c1.49.64,1.9,1.91,1.08,3.11-1.45,2.08-3.6,1.53-5.8,1.25C-664.12-319.72-664.12-319.72-660.95-321.44Z" transform="translate(934 1219)"/><path class="cls-1" d="M-386.8-747.87a19.17,19.17,0,0,1-.35,4c-.2.7-1.2,1.16-1.84,1.73-.57-.83-1.8-1.95-1.59-2.43a20.86,20.86,0,0,1,2.8-3.85Z" transform="translate(934 1219)"/><path class="cls-1" d="M-401.85-810.06c-.29,2.65-1.38,3.64-3.28,3-.61-.2-1.44-1.64-1.24-2.14C-405.42-811.54-403.71-810.63-401.85-810.06Z" transform="translate(934 1219)"/><path class="cls-1" d="M-460.57-832c-.84-1.53-1.52-2.34-1.69-3.25-.07-.36,1.16-1.43,1.47-1.32.74.29,1.67,1,1.8,1.7S-459.72-833.43-460.57-832Z" transform="translate(934 1219)"/><path class="cls-1" d="M26.52-594.37l3.81-2.49C30.62-593.36,30.62-593.36,26.52-594.37Z" transform="translate(934 1219)"/><path d="M-161.13-380.87l2.3,4.68C-161.52-377.88-161.52-377.88-161.13-380.87Z" transform="translate(934 1219)"/><path d="M174.45-560.74c-.6-1.35-.41-2.44,1.88-3.73-.33,1.81-.53,2.87-.72,3.93Z" transform="translate(934 1219)"/><path d="M-165.31-375.48a4.06,4.06,0,0,1-.54.72,8.32,8.32,0,0,1-1.09-.69l.65-.88Z" transform="translate(934 1219)"/><path d="M-835.92-233.24c3.37.83,6.49,1.93,6.3,6.54C-831.91-229.07-833.92-231.15-835.92-233.24Z" transform="translate(934 1219)"/><path d="M-826.54-236.37q.56,3,1.09,6.09l-1,.23a6.85,6.85,0,0,1-1.46-6.1Z" transform="translate(934 1219)"/></svg>