<svg xmlns="http://www.w3.org/2000/svg" id="Layer_1" data-name="Layer 1" viewBox="0 0 1200 1550"><defs/><defs><style>.cls-1{fill:#fff}</style></defs><path d="M0 656.5V375.8c1.3 0 2.6-.2 3.9-.1l46.7 2c2.4.2 4.8 0 7.3.3l53.2 4.4c11.9 1 23.8 1.6 35.6 2.2 12.9.6 25.7 1.5 38.6 1.6 25 .3 50 .2 75 .1 14.8 0 29.6-.4 44.4-.6l31.4-.3c6.5 0 13 .2 19.4.3a129.6 129.6 0 0132.3 4.6 41 41 0 0015.1 2l6.5-29.4a114.3 114.3 0 002-26.9c0-3.1-.5-3.6-3.6-3.8-1.7-.2-3.5 0-5.3 0-18.5-.2-37 1.3-55.5-.6-13.1-1.4-26.2-2.6-39-5.8-3.6-1-3.6-.8-4-4.6a28 28 0 01-.3-3 78.6 78.6 0 00-6-30.5c-3-7.8-8.8-13.3-17.4-14.1a50.7 50.7 0 00-23.7 3q-16.6 6.6-33 13.5c-13.5 5.7-27 11.4-41 15.5-10 3-20 6-30.7 5.3-3-.2-4.7-1-6.2-3.5-3.7-5.7-5.2-12-6.3-18.5-2-11.7-3.8-23.4-7.4-34.8a85.2 85.2 0 00-25.5-40.7 40.5 40.5 0 00-22-9.8c-12.9-1.5-24.9 1.6-36.2 7.8S25.5 223.9 14 230c-4.4 2.3-9 4.3-14 4.5v-241h1200v3.9a45.4 45.4 0 00-20.4 11.9 60.3 60.3 0 00-16.6 28.4c0 .2-.3.4-.9 1-1.6-1.8-3.5-3.4-4.6-5.4a119.8 119.8 0 01-5.5-10.7c-.8-1.8-2-2.7-4-2.7-10.6 0-21.2 0-31.7 2.4a265.6 265.6 0 00-38.2 11.3c-6.8 2.6-13.7 4.8-20.2 7.9-14.7 7-29.3 14.1-42.1 24.3a90.8 90.8 0 00-9.7 8.8c-3.1 3.4-2.3 7 1.9 9a69.7 69.7 0 007 2.4 11.1 11.1 0 01-1.8 1c-8.7 2.8-17.5 5.3-26.1 8.3a483.2 483.2 0 00-32.4 12.4c-23 10-45.9 20.5-67 34.3-2.8 2-6.5 3.9-7 7.5a18 18 0 006.3 17.8 29.4 29.4 0 0020.5 7.1c3.3-.2 6.7 0 10.1 0 1.2 0 2.4.2 4.2.4-7.2 5.8-13.8 10.8-20.1 16.2a480.5 480.5 0 00-38.3 38.1c-3.4 3.7-6.5 7.6-9.6 11.5-1.2 1.4-2.3 3.3-1 4.8a6.4 6.4 0 004.8 1.5 96.6 96.6 0 0012.7-2.5c8.3-2.1 16.5-4.4 24.6-6.9 13.4-4 27-5.6 41-5.7H955c-.5 1.8-.8 3-1.3 4.1-3 7.5-6.2 14.7-8.2 22.5-3.1 12.4-6.7 24.6-8 37.2-.5 4-2.5 5.6-6.1 6.9a210 210 0 00-20.1 8.1c-5.5 2.6-10.7 5.8-15.7 8.6a619.4 619.4 0 00-86.5-60.8c2.5-4.4 8.2-4.8 10-10.1-7-.9-10.2 5.5-15.5 6.6l-33.8-19.8c1.9-1.6 3.2-3.7 5-4.1 4-1 6.6-3.6 8.8-6.4s4.9-5.6 3.9-9.7c-2.6-1.2-4 .5-5.3 1.7L768 229.7c-1 1-2 1.9-3.2 2.8l-55.7-30a40 40 0 002-17.6c-.2-4.7-1.8-6.2-6.5-6.6a17.3 17.3 0 00-12.5 4.1 6.8 6.8 0 01-3.3 1.7c-4.9.5-7.5 3.5-8.5 8a54 54 0 00-.8 10.5c0 5.3.5 5.9 5.8 7.8a3.4 3.4 0 011.3.6c3.4 3.5 7.3 2.2 11.3 1.3 3.4-.8 5.1-3.5 7.3-5.6l55.6 30.2c-5.5 8-14 13.2-18 22 2.4 1.7 4 1 5.3-.4a217 217 0 005.4-5.5l12.5-13.5 33.5 19.5c-4.3 4.6-8.2 9-9.1 16 6.6-3.1 7.7-10.5 14-13.3l40.7 26.3a313.9 313.9 0 0141.3 31.5l3.4 3.6c-5.3 3.3-10 6.5-15 9.4-5.6 3.4-11.8 6-16.5 10.8-1.4 1.4-3.6 2-5.5 3l-24.3 10.6c-6.7 2.9-12.2 7.6-18.1 11.8a3 3 0 00-1.2 1.5c-.7 2.8-2.6 4.2-5.1 5.1a8.5 8.5 0 00-2.5 2.2c-.1.1.1.6.3.9l3.8-.3c-1.3 1.2-2.8 1.8-4.1 2.8-4.4 3.2-9 6.3-12.8 10.1-1.5 1.5-2.7 3.5-4.6 4.5-6.3 3.3-12.6 6.6-19 9.5s-12.1 7.2-19 8.9c-.6 0-1 .8-1.5 1.2l-6.1 4.8c-1.8-1.2-2.7-3-4.9-1.3l-.5 3.8c-2.7 1.9-5.1 3.7-7.7 5.3-1 .7-2.2 1.3-1.4 2.5a3 3 0 002.8.6c2.4-1 4.8-2.5 7.4-4a29.7 29.7 0 011.2 3.6l3.6 18c1.5 8.9 3 17.7 4.2 26.7 1 7.4 1.5 15 2.2 22.5L749 531l2.8 28.8 3 30.2a1469.5 1469.5 0 014.8 60.5c.3 6.1.5 12.3.4 18.4a7.4 7.4 0 004 7.1c6.5 4 13 8.3 20 11.7a365.2 365.2 0 0060.4 23.9c31 9.3 62 17.8 94 23.3 3.8.7 7.6 1.6 11.8 2.5-1 1.7-1.6 2.9-2.4 3.9-3.3 4.5-6.8 8.9-10 13.4a40.4 40.4 0 00-4 7.2 34 34 0 00-.9 24.7c1.4 4.1 3.2 8 4.8 12l2.1 4.7-6.7 2.3a42 42 0 00-5 1.7l-24.2 11.8-3 1.7-18 9c-8.4 4.2-16.7 8.4-25 12.8-5.3 2.9-10.4 6.3-15.7 9.3-8 4.5-16.1 8.8-24 13.3-6.7 3.8-13.4 7.7-20 11.8q-12.4 7.8-24.6 16c-7.8 5.3-15.4 10.9-22.8 16.1-6.5-2.7-9.2-1.6-12.1 4.2l-2.8 5.6a7 7 0 01-1.9 2.3l-9.2 6.8c-3.5 2.6-7.3 4.9-10.6 7.7-7.4 6.3-14.6 13-22.2 19.7l-2.4-.3a247 247 0 00-34.8-4.5c-10.6-.6-21.2-.7-31.8-.7a23.5 23.5 0 00-9 1.6 20.6 20.6 0 01-10.3.8L559 948c-7-.7-14.1-.8-21.2-1.5-13-1.3-26.1-3.1-39.2-4.3a754 754 0 00-35.6-2c-15.4-.5-30.9-.7-46.3-1a27.6 27.6 0 01-3.9 0 3.5 3.5 0 01-2.3-1.2c-1.2-2-2.8-1.6-4.6-1.3a93 93 0 01-23 2.3 24.6 24.6 0 00-3.9.4l-12 1.5a16 16 0 001.6-3c.6-2.7-.7-5.2-3.4-5.3-8.5-.6-17-1.6-25.1 2.4a13.4 13.4 0 01-6.4 2c2.3-4.5 4.5-6 8.3-6.5a66.3 66.3 0 0024.5-8c2.4-1.4 4.4-3 4.2-6-.2-2-2.7-3.3-6.3-3.3-5.6 0-11.3-.5-16.8 1.4a16.1 16.1 0 01-3.7.3c2.6-4.1 5.4-7 10.3-6.6a8.6 8.6 0 004.1-1c3.3-1.6 6.4-3.5 10.1-5.6a44.7 44.7 0 015.5 2.2 38 38 0 0022 4.4c3.7-.3 7-1.6 8-5.6.9-3 1.4-5.9 2.1-9.3l6.3-.9c5.1-.5 10.3-.6 15.4-1.4 5.7-.8 7.9-4 6.4-9.5-1.4-5.3-3.6-10.3-5.4-15.4l-1.4-3.7c3.5-.7 6.5-1.2 9.4-2a88.7 88.7 0 009.2-2.8 3.6 3.6 0 002-2.3c.4-3.7 1.2-7.6-1.3-10.8-2.6-3.4-5.5-6.6-8.3-10l-3.7-3.7 6.1-5.7c3.7 2 5.2 2.6 9.8 2.4a63.3 63.3 0 0122.4 3c15.5 4.9 31.5 7.6 47.4 10.5 12.2 2.2 24.1 5 36 8.5 5 1.4 9.9 2.7 15.1 2.2 3.8-.3 5.2-2.2 3.8-5.7a18.7 18.7 0 00-1.8-2.8l-16.9-25.8c-3-4.8-5.5-9.9-8.8-14.4-5.6-7.8-11.7-15.3-17.6-23a56.9 56.9 0 01-9.8-19.1c-1.8-6.3-1.5-12.7 2.6-18 3.2-4.1 6.9-8.3 11.2-11.2 13.3-9 28.4-14.3 43.8-18.7 21.5-6 43.8-8.3 66-9.9 11.3-.8 22.6-.7 33.8-1a142.5 142.5 0 0029.3-4.6c1-2.4.6-4-1.4-5.7-3-2.4-5.6-5.2-8.5-7.9-9.5-8.8-19-17.9-28.6-26.6a393.8 393.8 0 01-35.8-37.2L615 599.3c-11.9-13.6-24-27-31.8-43.5a6.8 6.8 0 00-.7-1.3c-4.2-6-7-12.9-10.1-19.6-2.4-5.3-2.4-11.6-7.2-15.7l1-2.4 8-17c.9-1.8 1.6-3.9 0-5.4s-3.5-.2-5.2 1c-9.5 6.3-16.3 15.2-22.7 24.5s-12.9 18.4-19.4 27.6c-9.8 13.7-21.7 26-29.7 41-3.5 6.5-7 13-7.5 20.6a18.5 18.5 0 01-1 5.6l-15.1 36q-4.5 10.7-9.2 21.3l-6.5 13.7c-6.3-3-6.3-3-12.8-2.8-4.8 0-6 1-5.8 6a25.7 25.7 0 008.7 18.5c-8.3 21.8-18 43-23.5 66.3-1.4-1.3-2.5-2.1-3.4-3.2-2.9-3.1-6.1-4.8-10.2-2.5-2.1 1.2-3.7.5-5.3-.9l-2.3-2.1c0-9.2.5-17.6 0-26a26.8 26.8 0 00-12.6-21.6c-6.7-4.4-14-4.8-21.8-5-5-.1-8.8.9-12.3 4.6-3 3.3-7 5.6-10 9a49.3 49.3 0 00-10.9 31.2v7.4h-4.5c.3-1 .3-1.8.6-2.6 2.8-9.7 2.4-19.7 2.3-29.7a20.1 20.1 0 00-16.6-19.1c-4.7-.8-9.4-1.4-14.7-2.1a36.1 36.1 0 013.7-2.6c4-2 8.3-3.7 12-6.1 7.6-5 15.5-9.8 18.2-19.4 3.9 1.2 6.7.3 8.5-3.4a16 16 0 012.9-3.4c2.5-2.7 5.3-5.2 7.4-8.1 5.6-7.6 11.6-14.8 18.9-20.7 5.2-4.2 10.5-8.4 16.1-12 4-2.7 8-2 10.6 2a59.6 59.6 0 013.5 5.7c4.2 8.2 6.6 17 8.6 26a21.2 21.2 0 001.2 4.6c1.3 2.9 4.4 3.1 6 .4a15.6 15.6 0 002.3-6.8c.2-7.6.7-15.2-.2-22.7a130.3 130.3 0 00-6-26.7 49.3 49.3 0 00-11.7-18.7 11.3 11.3 0 00-5-2.6c-4-1.1-7.2.8-9.8 3.6-6.1 6.7-12.5 13.1-18 20.2a364.5 364.5 0 00-19.5 27c-5.6 8.5-10.3 17.5-15.6 26.5l-.2-2.3c0-2.4.1-4.9-.2-7.3-.2-1.7-1-3.6-3.2-3.6-1.9 0-2.5 1.3-3.1 3a26.3 26.3 0 01-3 6 138.4 138.4 0 01-32 33.8c-4.7 3.6-9.2 7.5-15.9 6.5-2-.3-3.3 1-3.2 3.3s1.6 2.5 3.4 2.4h8.8c-4 4.5-8.4 8.5-11.6 13.4s-5 10.6-7.8 16.9c-.8-8.1-5.6-12.9-11.5-18l9.8 1a2.5 2.5 0 002.9-2 2.2 2.2 0 000-.5c.3-1.6-.2-2.9-1.8-3.4l-2.8-1c-2.1-.6-4.3-1-6.4-2a6.3 6.3 0 01-4.3-6.7 32.8 32.8 0 011.1-6.1 54.4 54.4 0 002.4-18.1c-.3-6.7-3.2-9.3-9.8-8.4a14 14 0 00-3.7 1 33 33 0 00-11.5 7.8c-3.8 4.4-7.8 8.6-11.7 12.9l-2.7 2.7c0-4 .3-7.1 0-10.2-.7-4.5 1.4-7 5-9.4a36.4 36.4 0 008-7.4c2-2.4 1.8-5.6.7-8.3-1.2-3-4-3-6.6-2.9h-6.8c-.2-4.3-.2-8-.7-11.6a166.5 166.5 0 00-3.5-18.4 397 397 0 00-8-25.7c-2.6-7.5-5.8-14.7-8.3-22.1a75.5 75.5 0 00-8.9-18.7c-7.1-10.4-14.7-20.6-22-31a65.4 65.4 0 01-7-12 145.3 145.3 0 00-13.4-24.4c-2.9-4.4-3-4.4-7.6-1.7-.6-1.8-1.4-3.5-4.3-2.1a37.7 37.7 0 00.4 4.4 42.1 42.1 0 001.8 7c1.8 4.8 1.1 8.3-4.1 10.2-.4.2-.7.7-1 1-4 3.6-8 7-11.7 10.8-19.5 19-40.1 36.8-60.7 54.6a248.5 248.5 0 00-21.5 20.8c-8.2 9-15.8 18.7-23.3 28.3-4.3 5.5-7.9 11.4-12 17a25 25 0 01-3.3 3z" class="cls-1"/><path d="M1200 1468.4v88H0v-601a54.2 54.2 0 014.5 3.4 45.6 45.6 0 0023 13.3c5.5 1 11 2 16.6 2.8 5 .8 10 1.4 16.1 2.2l-7.7 6.2c-3 2.5-6.2 5-9.2 7.7-.8.8-1.5 2.4-1.2 3.2s1.9 1.5 3 2a8 8 0 002.4 0c6.9.4 13.5-1.3 19.8-3.5a461.6 461.6 0 0045-18.6c6-2.8 12-5.4 17-9.9 4.9-4.2 9.4-8.8 14.2-13 1.8-1.7 3.8-3 6.5-5l-.8 3.4a17.4 17.4 0 00-.2 3c0 2.1 1.1 3.3 3.3 3a19.6 19.6 0 005.4-2A174.8 174.8 0 00187 934c3.2-2.6 6.6-5 10.4-7.8l2.5 5.2c-3.5 5.8-6.6 10.8-9.5 16-2.2 4-1 7.8 3.1 10.1l-2.2 5.8c-2.4 7.5.4 15 8.8 16.6a26.6 26.6 0 0014.2-.6c7.4-2.6 14.7-5.6 22-8.6a7.2 7.2 0 002.6-2c2.6-3.2 1-7.7-3-8-5.8-.5-11.8-1.2-17.7.5-3.6 1-7.3 1.7-11.7 2.6 1-2 2-3.4 2.3-4.9.4-2.6 2-3.2 4.2-3.7a124.9 124.9 0 0014-3.6 168.4 168.4 0 0016.5-6.7 7 7 0 003.3-9.1c-1.1-2.8-3.9-2.8-6.5-2.8h-11.7a30.6 30.6 0 014.9-1.5c3.3-1.1 6.2.6 9.3.8 5.8.3 11.6.1 17.4.1 12.7 0 25.4.4 37.9 3 6.4 1.3 12.7 2.8 19.1 4.2-.3 1.9-.2 3.3-.7 4.4-1.8 3.6.5 5.7 2.8 7.8a13 13 0 003 1.5 9.1 9.1 0 01-1 2.4 36.4 36.4 0 00-6.4 19.8c-.3 3 .2 3.6 3 4.4 1 .2 2 .7 3.7 1.3-2.3.6-3.8 1.1-5.4 1.4-1.7.4-3.5.5-5.2.8-5 1-5.7 2-6 7-.4 8.4 1 16.4 2.8 24.4.5 2.2.2 5.2 1.6 6.2 1.6 1.3 4.5 1 6.8 1.4a16.3 16.3 0 002.4 0c14.6.8 28.9-2.4 43.3-3.6l26.8-2.2c7-.7 14-1.3 21-2.3 3.2-.4 4-1.5 3.5-4.6-.4-2.8-1.9-5.4-2.8-8-1.8-4.8-5.5-6.6-10.3-6.3s-9.1 1.6-13.8 1.8c-10.7.5-21.5.8-32.3 1a68.4 68.4 0 01-7-.6c1.4-4 1.7-8 6.1-9.4 1.7-.6 3-1.2 2.7-3.3s-1.9-2.2-3.5-2.4l-6.8-1.1 5.6-3c5.9-3.1 10.3-7.2 9-14.7a11.7 11.7 0 010-1.5c-.2-3.4-1.3-5-4.7-5.6-3.7-.6-7.5-.7-10.9 1.2a111.2 111.2 0 00-9.9 6 22.5 22.5 0 01-10.5 4.4l7.1-14.6c9.5-.2 17.7-1.9 25.3-6.3a10 10 0 013.7-.6c2.7-.4 5.5-.5 8.2-.9 5.4-.6 10.8-1.8 16.2-2q17-.4 34 0 28.6.7 57 2a857 857 0 0133.2 2.2c16.5 1.4 33 3 49.4 4.5 9.3.8 18.5 2 27.8 2.7 10.2.8 20.4 1.4 30.7 2.1 2.6.2 4.8-.2 5.4-3.3a30.9 30.9 0 003.6.4c15.8-.6 31.4 1.6 47.1 3 2.2.2 4.9.3 6.5 1.5 2.1 1.7 3.9 1.6 6.2 1 1.2-.3 2.7 0 4.5.2-1.3 2.3-2.4 3.9-3.2 5.6-2.8 5.4-6.2 10.7-6.4 17a150 150 0 00.2 16.4c.5 7.5 6.3 13.3 13.2 13.3l34.8.2a10.3 10.3 0 003-.3l28.6-8 9.1-3c9.2-2.8 18.5-5.4 27.7-8.3q11.4-3.5 22.8-7.4c7.3-2.4 14.7-4.7 21.7-7.9 7.9-3.5 15.4-8 23-11.9a10.2 10.2 0 014.5-1.4c8 0 15.8.4 23.7.6l6.3.7c-2 1.4-3.1 2.3-4.4 3-4.4 2.6-9 5-13.3 7.8-6.2 4-13 7.2-17.7 13-3.1 4-7.1 5.9-11.5 7.5-4.2 1.6-8.3 3.5-12.5 5-13.3 4.8-26.6 9.8-40 14a347.5 347.5 0 00-42.5 15.7c-13 6-23.8 15.1-34.7 24.2-8.2 7-16.6 13.8-24.8 20.7a40.6 40.6 0 00-4.3 4c-1.9 2-1.3 4 1.4 4.4a15.8 15.8 0 006.7-.2c7.5-2.4 15-4.8 22.2-8 16.5-7 32.9-14.5 49.3-22 16.1-7.2 33-12.7 49.8-18 10.6-3.2 21.2-6.4 31.6-10.4a93.1 93.1 0 0128-6 6.4 6.4 0 002.4-.4c4.8-2.3 10-1.7 15.1-2.8l6-.7a144 144 0 01-11 19.8c-5.5 8-9.6 16.6-9.5 26.8.3 19.1.8 38.3-1.6 57.4a74.4 74.4 0 01-9.5 26.6 78.1 78.1 0 01-20.2 23.1 56 56 0 01-30.3 13.6c-17 1.4-33.7 4.6-50.3 8.4-4.7 1-9.3 2.3-14 3.6-1.4.4-3 1.2-2.6 3a5 5 0 001.9 3 129.6 129.6 0 0013.4 7.5 270.2 270.2 0 0044.2 15c7.8 2 15.3 4.6 23.4 7-2.9 4.7-5.2 9.2-9.7 12.6a89.3 89.3 0 01-22.2 12.3 70.2 70.2 0 01-30 6c-8.8-.6-17.7-.2-26.6-.2a31 31 0 01-3.9 0 223.3 223.3 0 00-33.7-2c-10.1.2-20.3-.2-30.4.2a126.5 126.5 0 00-21.5 2.5 231.5 231.5 0 00-43 14.1q-22.8 9.8-45.3 20.4a864.3 864.3 0 00-39.3 19.5c-12 6.4-24.2 12.5-35.5 20.2a262.4 262.4 0 00-58 51.4c-4.1 5-7.7 10.6-11.4 16a13.6 13.6 0 00-1.6 5c-.3 1.7.5 3.2 2.1 3.3a5 5 0 003.2-1.4 10.8 10.8 0 001.7-3 63.5 63.5 0 0119.5-21.7 128.3 128.3 0 0144.1-18.6c11.6-2.7 23.2-5.3 34.4-9.3 9.1-3.2 18.4-6.1 27.5-9.2 10-3.3 20-6.1 29.7-10 20.9-8.4 41.5-17.3 62.3-26l9.2-3.4a162.6 162.6 0 01-15.6 23.4 599 599 0 01-27 30.1c-12.6 13.2-25.6 26-38.3 39-5.8 6-11.9 12-17 18.5-9.1 11.8-17.7 24.1-26.4 36.3-1.8 2.5-3.5 5-5.1 7.6a157.4 157.4 0 00-13.8 27c-2.2 5.7-4 11.5-4 17.7 0 4.2 2.4 5.7 6 4a135.3 135.3 0 0026.6-17c10.1-8.2 20.2-16.5 30.6-24.3 11.4-8.4 23-16.5 34.9-24.1 11.5-7.4 23.5-13.8 35.3-20.7 5.6-3.4 11.3-6.8 16.8-10.3s10.6-7.2 16.1-10.5c8.2-5 16.7-9.6 25-14.7s16-10.5 24-15.8c3-2 5.9-4 9-5.8a154.3 154.3 0 0145.2-16.2c5.6-1.1 11.4-1.6 17.1-2.2 7.9-.9 15.7-2 23.5-2.3 12.4-.3 24.8-.7 37.1 1.5a26.5 26.5 0 0119.5 14 54.8 54.8 0 015.7 24.8 134.8 134.8 0 001.7 18.7c.8 4.4 3.3 6 6.8 3.3 6.4-4.7 12.5-9.6 18.6-14.7 6.3-5.2 12.3-10.9 18.8-15.9 4.1-3.2 8.7-6 14.3-6.1a96.2 96.2 0 0012-.7c14-2.3 28.2-1.7 42.4-1.8h2l2.8.3 25 2.3c7.8.8 15.6 1.5 23.4 2.7 10.8 1.6 21.6 3.2 32.3 5.5a149.8 149.8 0 0123.6 6.6c20.6 8 36.6 22.6 50.7 39.2a406.1 406.1 0 0027.6 29.7c3.6 3.3 7.7 6.2 11.6 9.3zM147.2 1477h-21.5c-3.2 0-3.7.7-3.6 3.7a7.5 7.5 0 00.3 2.4c1.2 3.1 2.6 6.2 3.7 9.4 1.3 4 3.8 7.7 4 12.5-2-.8-3.4-1.4-5-1.9-4-1.3-5.6 0-6 4-.2 3.4 1.3 6 2.9 8.6 2.1 3.8 4.3 7.5 6.2 11.3.7 1.6 1 3.4 1.6 5.9a18 18 0 00-2.2-16.5c-1.3-2-2-4.5-3.1-7.5l7.2 2.4c1.7.5 3.8 1.3 4.8-.5.7-1.1.5-3.1 0-4.5-2-6-4.2-11.8-6.3-17.7l-2-6.5 2.8-.3h19.8c3.7 0 5-2.1 3.1-5.3a26.9 26.9 0 00-3.8-4.9q-6.5-6.8-13.2-13.4c-8-7.9-16.2-15.7-24.1-23.7a50 50 0 01-9.4-13.1c2.6.5 4.5.7 6.3 1.2 11 2.7 21.1 7.6 31.3 12.3 16 7.4 31.1 16.2 46 25.5 2 1.2 3.7 1.8 5.8 1 1.7-2.4.5-4.3-1-6.1l-34.9-45-8.6-11.2a15.5 15.5 0 012.3.4c11.6 5 23.2 10.2 33.8 17.2l37 24.5a35.3 35.3 0 006.6 3.2c2.6 1 3.6.2 4.6-2.4.8-1.9-.3-3-1-4.4-5.2-9.2-10.2-18.6-15.7-27.7-7.2-11.8-14.7-23.4-22.3-35-3.2-5-7-9.5-10.7-14.3l-14.4-19 2.6 1.1 2.6 1.4a291.8 291.8 0 0137.7 27.5c20.8 18 42.5 35 62.4 54 11.4 11 23.3 21.7 34.9 32.7a263.4 263.4 0 0129.3 31.4c1 1.2 1.7 2.8 2.9 3.8 3.9 3.2 5.1 7.6 5.8 12.3a7.6 7.6 0 00.6 2.8c.4.7 1.4 1.1 2.4 2a19.6 19.6 0 00-3-17.3 225.3 225.3 0 00-15.5-20.2c-5.2-6-11.2-11.5-17-17l-27-25.6c-7.3-6.8-14.4-13.9-22-20.4-18.2-15.6-36.6-30.8-54.9-46.4a287.7 287.7 0 00-50.9-33.8 8 8 0 00-2.6-1.2c-1 0-2.4 0-3 .7a3.3 3.3 0 00-.2 3 30.3 30.3 0 003.6 5.1c5.4 6.8 11 13.4 16.3 20.3 6.9 9 14 17.8 20.1 27.2 8.4 12.6 16 25.6 23.9 38.5 2.2 3.6 4.1 7.4 6.2 11.1l-.9.7c-6.4-4.3-13-8.3-19.2-12.8a261.3 261.3 0 00-52.6-29 31.1 31.1 0 00-8.3-2.2c-2.8-.3-3.8 1.3-3.2 4a7.6 7.6 0 001 2.7c3.1 4.4 6.2 9 9.6 13.2l20.5 25.7c2.9 3.7 5.5 7.6 8.3 11.3-7-3.2-13.2-7-19.8-10.3-10-5-20.3-9.6-30.5-14.3a96.7 96.7 0 00-26.3-7.9c-3-.5-4.1.4-4.4 3.4-.4 3.5 1 6.2 2.8 9 4 6.8 10 11.7 15.5 17.2l24.3 24.1c2 2.1 4 4.5 6.7 7.6zm249.1-350.3a67.3 67.3 0 008.5 0c9.7-1.3 19.4-2.8 29.1-4.3l34.8-5.3a10.8 10.8 0 012.4.2 67.2 67.2 0 01-13.1 6.5l-50.2 18.4c-5 1.9-9.7 4.4-14.5 6.6-1.6.8-2.7 2.2-2 3.9a4.3 4.3 0 003 2c5.4.8 10.8 1.3 16.2 2l14.4 2.5a24.3 24.3 0 01-2.1 1.6c-7.3 4.3-14.4 8.6-20.8 14-2.2 1.9-4.6 3.6-6.7 5.5-1 1-2.3 2.4-.8 3.8a4.6 4.6 0 003.5.7 6.6 6.6 0 002.7-1.8 129.7 129.7 0 0123-16.6c1.6-.9 3.2-1.7 4.7-2.7 3.7-2.5 3.8-2.8 2.7-7.8-8.8-3.6-18.4-3.5-27.7-5.6 7.1-3.3 14.1-6.4 21.3-9 12-4.4 24.3-8.3 36.3-12.9a209.1 209.1 0 0020-9.4c3.3-1.6 3.2-2.1 2.2-6.3a4.7 4.7 0 00-1.3-.4 142.3 142.3 0 00-29.8 1.6c-14 2.5-28.1 4.7-42.1 7l-.7-1a16 16 0 002.1-1.1l13.8-10.5a317.2 317.2 0 0054.6-48.8 25.9 25.9 0 004.7-8.2c1-2.7-.3-4-3.2-3.9a26 26 0 00-8.5 1.5 182.5 182.5 0 00-44.3 24.2c-8 6.2-15.8 12.7-23.5 19.3a67.3 67.3 0 00-7.3 7.7c-.4.5-.2 1.7-.3 2.6.9 0 1.9.4 2.6.1a16.4 16.4 0 004-2.4 977 977 0 0018.8-15.9 177.6 177.6 0 0144.9-28c3-1.3 6-2.2 9.1-3.3l.5.9c-3.5 4-7 8-10.6 11.8a307.4 307.4 0 01-36 31.3q-16.4 12.5-33 24.6c-1.8 1.3-2.6 2.5-1.4 4.9zm1.1-51.6c-4-2-4.7-2-8-.6-4.7 2-8.1 5.7-11.2 9.6a146.6 146.6 0 00-16.2 25.7c-5.5 10.9-11.3 21.7-17 32.5a23.9 23.9 0 01-1.7 2.3l-.7-4.8c-.6-10.2-2-20.2-5.8-29.7a64.4 64.4 0 00-6-11.5c-2.1-3.2-5-2.7-6.6.8a11.2 11.2 0 00-1 3.2 54 54 0 00-.8 8c.3 12.6-.8 25.2.9 37.7.6 4.8.7 9.6 1 14.5a17.1 17.1 0 01-.5 3.1c-3.8-3.2-7.1-6.2-10.6-9-1.8-1.5-4.1-2.8-6.2-1.4s-1.3 3.9-.7 5.9c2 6.8 4.3 13.6 6.5 20.6a2.5 2.5 0 002.4-2.7v-.1a38 38 0 00-.4-6.2c-.5-2.9-1.3-5.7-2-8.5l1-.7a68.5 68.5 0 005.4 6 14 14 0 005.4 3.1c3.2 1 4.5-.2 4.5-3.5 0-5 .1-10-.2-15-.3-5.8-1.4-11.5-1.6-17.3-.3-8.6-.1-17.4 0-26a48.4 48.4 0 01.7-5.7c.6.2.8.2.9.4a15.1 15.1 0 011 1.6c4.7 9.7 6.7 20 7.7 30.7l1.3 17.4c3.4 1 5.3 0 6.6-2.8 1-2.2 2.5-4.1 3.6-6.3 6.5-12.7 12.9-25.5 19.6-38.2a117.4 117.4 0 0116.7-24.1c1.9-2 3.8-4.3 7.5-4.4-.3 2.6-.4 5-.9 7.4-1.4 6.5-3.1 13-4.6 19.6a38 38 0 00-.4 5.6c3 .1 3.7-1 4.2-3 1.4-5.6 3-11.2 4.7-16.7a48 48 0 001.5-17.5zM232 981.8l-4.8-.3-34.6 1.2H190a3.5 3.5 0 00-3.7 2.5c-2.7 6.5-5.6 13-8 19.6-1.5 4-.1 5.4 4.4 5.7s8.6.7 13 1.2c4 .5 7.9 1.2 11.8 1.8l43.7 7.2a26.4 26.4 0 004.8.4c3.8 0 4.6-.8 5.4-4.7.9-4.1 2.2-8 5-11.2a12.2 12.2 0 002.5-4.2 4.1 4.1 0 00-2.4-5.3 3.8 3.8 0 00-1.3-.3 23.8 23.8 0 00-3.3 0h-35.8l-5.1-.3c3.6-4.6 11.2-5.3 10.9-13.3zM73 1118.7c-.5-1.5-.5-3-1.3-4-4.2-5.4-8.6-10.8-13-16.1s-9-10.5-13.3-15.9a64 64 0 01-5.2-8.2 4.5 4.5 0 01-.2-2c5.6 2.2 11.2 4.1 16.7 6.4 5 2 10 4.3 15 6.6 3.5 1.8 7 4 10.5 5.8a4.3 4.3 0 003.4 0c.5-.4.3-2 .2-3 0-.7-.6-1.2-.8-1.8l-3.7-10.7 1-.4a97.5 97.5 0 0110.7 18.7c1.6 3.5 3 7.2 5 10.4a55.7 55.7 0 007.3 8.9 7.1 7.1 0 007.7 1.6c2.4-.8 2.1-3.3 2.4-5.4l2.9-19.5a17.3 17.3 0 01.8-2.6 85.9 85.9 0 013.9 34.5c-3.4-2-3.4-2-5.6-.3 3.8 6.7 5.6 8.2 9.3 7.4 0-9.6.3-19.3-.2-28.9a49 49 0 00-4-18.2c-1.6-3.4-1.9-3.7-6.1-3.3-2.9 10.5-3.7 21.5-5.6 32.8a27.5 27.5 0 01-10.2-11.3c-2.3-4.8-4.3-9.7-6.8-14.4a41.1 41.1 0 00-10.4-14.3c-1.5-1.2-2.7-2.2-4.8-1-.7 4.8-.8 9.6 1.9 15-2-1-3.2-1.4-4.3-1.9-6-2.7-11.8-6-18-8.1a78.8 78.8 0 01-19.2-9c-1-.7-2.2-.7-3.4-1-.2 1.1-1 2.5-.7 3.5 1.7 4.8 3.2 9.9 5.9 14 4 6.3 9 11.8 13.6 17.6l8.2 10.4c-6-.6-9.6-7.2-16-5-1.6 8.4 6.1 10.1 10.2 14.7l-5.2 4 .4.7 10.4-3.2c-.6-1.7-.7-3.3-1.5-4.4s-2.3-1.9-3.4-2.8c5 1 8.9 5.3 15.5 3.7zm413.3-138.9c-10.6-1.9-15.6 5.9-22.4 12l.8-4 .6-3.6c-3.2-.6-4.8 0-5.2 2.5-.5 3.6-.4 7.2-.6 11.8 2.2-.6 3.8-.7 5-1.5a30.6 30.6 0 004-3.5c3.1-2.9 6.3-5.8 9.6-8.6 1.1-1 2.7-1.3 4.5-2.1.5 4-1.2 6.9-2 10s-1.6 5.8-2.2 8.8a2.6 2.6 0 001.5 2.2c.5.2 1.6-.7 2.2-1.3.4-.4.4-1.1.6-1.7 1-3.6 1.9-7.2 3-10.6s1-6.7.6-10.4z" class="cls-1"/><path d="M1200 1370.7v91l-9.8-9.1c-5.3-5.2-10.7-10.3-15.6-15.9a471.7 471.7 0 00-25.3-27.2 86 86 0 00-17.3-13.8c-6.8-4-13.6-8.2-21-11a182.6 182.6 0 00-29.8-7.7c-11-2-22-4.5-33.1-5.8l-18.3-1.8c-10.5-.8-21-1.8-31.7-2.3-8.2-.4-16.4 0-24.6 0a16.6 16.6 0 00-4 0c-6.8 1.7-14 1.6-21 2a36.8 36.8 0 00-10.7 2.3c-6.7 2.4-12.2 7-17.6 11.6-5.9 5-11.5 10.3-17.4 15.3-2.7 2.3-5.7 4.3-9.5 7-.3-5.3-.8-9.5-.9-13.8a80.3 80.3 0 00-4.1-24.6 31 31 0 00-21.2-20.7 67 67 0 00-18.1-2.3c-10.8-.1-21.6 0-32.4.7-10.2.6-20.5 1.8-30.7 3-3.7.4-7.4 1.8-11.2 2.6a132.2 132.2 0 00-31.8 11c-13.2 6.4-25 15.2-37.4 22.8l-6.4 4.4c-8.3 5-16.8 9.5-24.9 14.8a802.8 802.8 0 01-38.4 23.9c-15.5 8.9-31 17.8-45.5 28.2-7.8 5.6-15.8 11-23.5 16.8-11.2 8.7-22 17.7-33.2 26.4a44.8 44.8 0 01-13.4 7.7l1.1-5.1a139 139 0 0116.5-34.2c5.3-8.2 11.5-15.9 17-24a269 269 0 0129.2-35.3c9.3-9.7 18.9-19 28.1-28.7q15.7-16.4 31.1-33a147.9 147.9 0 0010-12.4c4.6-6.2 9-12.5 13.3-18.9 2-2.9 3.7-6 5.4-9 .9-1.6 1-3.3-.6-4.4a3.8 3.8 0 00-3-.6c-4.3 1.6-8.5 3.5-12.8 5.2l-16.5 6.8-36.5 15c-9 3.7-18 7.7-27.2 11-7.9 2.9-16 5-24 7.6-17.2 5.7-34.3 11.6-52.1 15.5-9.4 2-18.8 4.5-27.6 8.6l-9 4a140 140 0 0117.4-16.1c13-10 26-20 40.8-27.4 13-6.6 25.8-13.8 39-20.2 17.2-8.3 34.6-16 52-24a259 259 0 0140.5-15.3c13-3.5 26-5.8 39.5-5.3h12.6c10.4.2 20.9.5 31.3 1 4.7.1 9.3.8 14 .9h37.2a18.4 18.4 0 004.3-.3c13.8-3.5 27.2-7.9 39-16.2 4-2.8 8-5.8 10.9-10l5.5-8.5c2.5-3.9 1.7-6-3-7.2l-11.6-3.2c-4.5-1.2-9-2.7-13.5-3.8a242.9 242.9 0 01-43.7-15c-2.3-1.1-4.4-2.4-7.6-4.1l6.5-1.6c11.8-2.2 23.6-4.5 35.5-6.6 5.8-1 11.9-1 17.7-2.1 18.8-3.5 33-14.4 45-28.6 7-8.3 11-18 14.7-28a54.6 54.6 0 003.2-18c0-6.8 1.1-13.7 1.3-20.6.2-10.8 0-21.6.1-32.4a20.4 20.4 0 011.3-7c2.7-6.9 5.3-13.8 10.6-19.3a18.5 18.5 0 001.1-2c3.5-4.8 4.4-11.2 9.6-15h4.9c.5-4.4.2-5.2-3.2-5.9a42.4 42.4 0 00-10-.5c-6.3.3-12.6.6-18.7 2a70.1 70.1 0 01-10.4 1.5 54.5 54.5 0 00-11.3 1.7c-5.2 1.5-10.2 3.7-15.4 5.4l-35.4 11.4q-13.7 4.5-27.2 9.6c-9.5 3.6-19 7.2-28.1 11.4-16.4 7.3-32.5 15.4-49.5 21.5a19.5 19.5 0 01-2.2.6 162.8 162.8 0 0114.7-13.5c6.7-5.5 13.2-11.3 20.2-16.4a92.9 92.9 0 0123.8-13.5l34.5-12.3c11.8-4.2 23.8-7.9 35.6-12 6.5-2.3 12.8-5.1 19.2-7.8 3.7-1.5 7.8-2.5 10.3-5.9 5-6.9 12.3-10.7 19.2-15 8.5-5.2 17.5-9.6 25.2-16 17.1-14.2 34.3-28.3 51.2-42.7a105.6 105.6 0 0014.3-14.9c3.2-4 5-8.8 7.4-13.3a4 4 0 00.1-1.5c.7-10-.5-19.5-5.3-28.5s-9.2-18.5-14-27.6c-4.5-8.9-9.3-17.6-14.1-26.3s-9.7-17-12.3-26.7c-2.7-9.9-1.8-19 4.8-27.3 1.1-1.5 2-3.2 3.1-4.8l9.2-13 44.3 8a44.7 44.7 0 01-.4 5.4 100.2 100.2 0 00-1.7 22.6c.3 7 .3 14.2 1.1 21.2 1 9 5.3 17.2 9.9 25 3.8 6.5 10.5 9.2 17.4 11.2 9.8 2.8 19.6 5.3 29.3 8.2a266.4 266.4 0 0041 8.5l32 4.5a33.2 33.2 0 0122.8 14.6 22.5 22.5 0 013.3 7.4c.8 3.2 1 6.7 1.4 10a66.4 66.4 0 01-5.4 38c-5 11-10.3 21.6-15.5 32.2-1.2 2.3-2.6 4.4-4 6.6a38.6 38.6 0 011.7-10.5 142 142 0 005.5-37.1c0-6-2.7-9.7-7.5-12.4-6.1-3.5-12.3-6.8-19-9.2a55.2 55.2 0 00-17-3.4c-8.8-.2-17.7 0-26.6 0a11.4 11.4 0 00-3.3.3 105.2 105.2 0 00-27.5 13.8 199.3 199.3 0 00-19.5 16 37.4 37.4 0 00-12.2 18.2 60.8 60.8 0 00-.4 26c2 11.3 5.1 22.5 5.5 34.1l.8 20.3v14l-5.2-1.5c-3.9-1.5-5.8-.3-5.7 4a12.3 12.3 0 001 5c3 6 6.3 12 9.5 17.9a294.9 294.9 0 0026.4 38.6c10 13.1 21.8 24.9 33.6 36.6 4.7 4.6 9.4 9.3 13.3 14.6a85 85 0 0119 57.3c-.3 4.8-.6 9.7-3.6 13.8a104.4 104.4 0 01-6.8 9.3 33.4 33.4 0 00-8.9 25.5c.2 3.2.8 6 2.9 8.5 3.2 3.8 6.3 7.7 9.6 11.4 4.2 4.6 8.6 9.1 13 13.6s9.4 8.5 13.3 13.3c6.5 8.2 12.4 16.8 18.4 25.3 3 4.4 6.1 8.8 8 13.6 2.2 5.3 5.8 8.7 10.1 11.9 5.7 4.1 11.1 8.6 16.7 13l7.6 5.7 2.7-3.8zm-216.6-134.5l.6-2.5c1-4.8 2.6-9.7 3.1-14.6.7-6.2.6-12.5.7-18.7a14.5 14.5 0 00-3.2-9.4 93 93 0 00-16.9-15.8 38 38 0 01-6.7-6.8 36.3 36.3 0 01-7.7-22.8 100.8 100.8 0 00-1.3-13.4 3.4 3.4 0 00-1.9-2.4 3.3 3.3 0 00-3 .6 5.3 5.3 0 00-.7 3.6c1.1 8 .5 16 2.6 23.9a41.8 41.8 0 0014.7 22.5c5.3 4.3 10.2 9.3 15.3 14a9.5 9.5 0 013 6.8c.7 11.4-.5 22.6-4.8 33.1-3.3 8-7.4 15.7-11 23.6a29.2 29.2 0 00-2.4 8.2c-.3 2.3 1.7 3.4 4 2.7a5.3 5.3 0 002.2-1.6c4-5 8.4-9.8 11.9-15.2 5.4-8.5 10-17.5 15.2-26.2a99 99 0 0013-30.4c3.7-18 3-35.7-4.6-52.9a108.3 108.3 0 00-21-31.4c-.6-.6-1-1.5-1.7-1.7-1.1-.3-2.7-.7-3.5-.2-.6.4-.8 2.3-.5 3.3.8 2.5 2.9 4 4.8 6a70.7 70.7 0 0113.9 20 80.3 80.3 0 018.3 28.6c.9 10.5.6 20.8-2.5 31-4 13-11.4 24.4-18 36a18.5 18.5 0 01-1.9 2z" class="cls-1"/><path d="M1200 1370.7l-14.7-5.4-2.8 3.7-7.6-5.8c-5.5-4.3-11-8.8-16.6-13-4.4-3.1-8-6.5-10-11.8-2-4.8-5.2-9.2-8.2-13.6-6-8.5-11.8-17.1-18.3-25.3-3.9-4.8-8.9-8.8-13.3-13.3s-8.7-9-13-13.6c-3.3-3.7-6.4-7.6-9.6-11.4a14 14 0 01-3-8.5 33.3 33.3 0 019-25.5 105.8 105.8 0 006.8-9.3c3-4.1 3.3-9 3.6-13.8a84.8 84.8 0 00-18.9-57.4c-4-5.3-8.7-10-13.4-14.6a367.5 367.5 0 01-33.6-36.6c-9.5-12.4-19-24.8-26.3-38.6-3.2-6-6.4-11.9-9.4-17.9a12.3 12.3 0 01-1.1-5c-.1-4.3 1.8-5.5 5.7-4l5.2 1.5v-14l-.8-20.3c-.4-11.6-3.5-22.8-5.5-34.2a61 61 0 01.4-25.9 37.2 37.2 0 0112.2-18.2 199.3 199.3 0 0119.4-15.9 105.2 105.2 0 0127.5-13.9 11.4 11.4 0 013.3-.2c8.9 0 17.8-.2 26.6 0a55.2 55.2 0 0117 3.4c6.7 2.3 12.8 5.7 19 9.2 4.8 2.7 7.5 6.3 7.5 12.3a142 142 0 01-5.5 37.1 38.6 38.6 0 00-1.6 10.5c1.3-2.1 2.7-4.2 3.8-6.5 5.3-10.7 10.6-21.3 15.6-32.2a66.4 66.4 0 005.4-38c-.5-3.4-.6-6.8-1.4-10a22.5 22.5 0 00-3.3-7.4 33.2 33.2 0 00-22.9-14.6c-10.6-1.6-21.2-3-32-4.5a266.4 266.4 0 01-41-8.5c-9.7-3-19.5-5.4-29.2-8.3-6.9-2-13.6-4.7-17.4-11.2a65.6 65.6 0 01-9.9-25c-.8-7-.8-14.1-1.1-21.2a100.2 100.2 0 011.7-22.5 44.7 44.7 0 00.3-5.4l-44.2-8-9.2 13c-1 1.6-2 3.3-3.2 4.8a29 29 0 00-4.7 27.3c2.6 9.6 7.5 18 12.3 26.6s9.6 17.5 14.2 26.3c4.7 9.2 9 18.6 13.9 27.7s6 18.5 5.3 28.5a4 4 0 01-.1 1.4c-2.4 4.5-4.3 9.4-7.4 13.4a105.6 105.6 0 01-14.3 14.9c-17 14.4-34 28.5-51.2 42.7-7.7 6.4-16.7 10.8-25.2 16-7 4.2-14.2 8-19.2 15-2.5 3.3-6.7 4.3-10.3 5.9-6.4 2.6-12.8 5.4-19.3 7.7-11.8 4.2-23.7 8-35.5 12-11.6 4-23 8.3-34.5 12.4-8.7 3-16.5 8-23.8 13.4-7 5.2-13.5 10.9-20.2 16.4a162.5 162.5 0 00-14.8 13.4 19.5 19.5 0 002.3-.5c17-6.2 33-14.2 49.4-21.6a703.3 703.3 0 0155.4-21c11.7-4 23.6-7.5 35.3-11.4 5.2-1.7 10.2-3.9 15.4-5.3a54.5 54.5 0 0111.3-1.7 70.1 70.1 0 0010.4-1.6c6.1-1.3 12.4-1.6 18.7-2a42.4 42.4 0 0110 .6c3.4.6 3.7 1.4 3.2 5.8h-4.8c-5.2 3.9-6.2 10.3-9.6 15a20 20 0 01-1.2 2.2c-5.3 5.5-7.9 12.4-10.6 19.3a20.4 20.4 0 00-1.3 7c0 10.8.2 21.6 0 32.4-.2 6.9-1.3 13.7-1.4 20.6a54.6 54.6 0 01-3.2 18 87 87 0 01-14.6 28c-12.1 14.3-26.3 25.2-45 28.7-6 1.1-12 1.1-17.8 2.1-11.8 2-23.6 4.4-35.5 6.6l-6.4 1.6c3.1 1.7 5.3 3 7.6 4a242.9 242.9 0 0043.7 15c4.5 1.2 9 2.7 13.4 4l11.6 3c4.7 1.3 5.6 3.4 3 7.3l-5.5 8.5a39.5 39.5 0 01-11 10 113.6 113.6 0 01-38.9 16.2 18.4 18.4 0 01-4.3.3h-37.2c-4.7 0-9.3-.8-14-1l-31.3-1h-12.6c-13.5-.4-26.5 2-39.5 5.4-14 3.7-27.3 9.3-40.5 15.3-17.4 7.9-34.8 15.7-52 24-13.2 6.4-26 13.6-39 20.2-14.7 7.4-27.7 17.4-40.8 27.3a140 140 0 00-17.3 16.1l9-3.9c8.8-4.1 18.2-6.6 27.6-8.6 17.8-4 35-9.8 52.2-15.6 8-2.6 16-4.7 23.9-7.6 9.2-3.3 18.1-7.3 27.2-11l36.5-15 16.5-6.7c4.2-1.8 8.5-3.7 12.8-5.3a3.8 3.8 0 013 .6c1.5 1.1 1.4 2.8.6 4.4-1.7 3-3.4 6.2-5.4 9.1-4.3 6.4-8.8 12.7-13.3 18.9a147.9 147.9 0 01-10 12.3q-15.4 16.7-31.1 33c-9.3 9.7-18.9 19-28.2 28.7a269.3 269.3 0 00-29 35.3c-5.6 8.1-11.8 15.8-17 24a139 139 0 00-16.6 34.1c-.4 1.5-.6 3-1 5.2a45 45 0 0013.3-7.8c11.2-8.6 22-17.7 33.2-26.3 7.7-5.9 15.7-11.3 23.5-16.9 14.6-10.4 30-19.3 45.5-28.2a802.8 802.8 0 0038.5-23.9c8-5.2 16.5-9.8 24.8-14.8 2.2-1.3 4.2-3 6.4-4.3 12.5-7.6 24.2-16.5 37.4-22.9a132.2 132.2 0 0131.8-11c3.8-.8 7.5-2.1 11.3-2.6 10.2-1.2 20.4-2.4 30.6-3 10.8-.6 21.6-.8 32.4-.6 6 .1 12.3.5 18 2.3a31 31 0 0121.3 20.6 80.3 80.3 0 014.1 24.7c0 4.2.6 8.5 1 13.8 3.7-2.8 6.7-4.7 9.5-7 5.8-5 11.4-10.4 17.3-15.4 5.4-4.5 10.9-9.2 17.6-11.6a36.8 36.8 0 0110.7-2.2c7.1-.4 14.2-.3 21.1-2a16.6 16.6 0 013.9-.1c8.2 0 16.4-.3 24.6 0 10.6.5 21.2 1.5 31.8 2.4 6 .4 12.1 1 18.2 1.7 11.1 1.3 22 3.8 33.1 5.8a183.7 183.7 0 0129.8 7.8c7.4 2.7 14.1 7 21 10.9 6.5 3.7 12 8.6 17.3 13.8 9 8.7 17.1 18 25.3 27.3 4.9 5.5 10.3 10.6 15.6 15.8l9.8 9.1v6.8c-3.8-3.1-8-6-11.5-9.4a406.1 406.1 0 01-27.6-29.7c-14.1-16.5-30-31.1-50.7-39.2a149.8 149.8 0 00-23.6-6.6 549.4 549.4 0 00-32.3-5.5c-7.8-1.1-15.6-1.8-23.5-2.6-8.3-.9-16.6-1.6-25-2.4q-1.3-.2-2.8-.2h-2c-14.2 0-28.3-.5-42.4 1.7a96.2 96.2 0 01-12 .7 25 25 0 00-14.3 6.2c-6.5 5-12.5 10.6-18.8 15.9-6 5-12.2 10-18.5 14.6-3.6 2.7-6 1.2-6.9-3.3a134.8 134.8 0 01-1.6-18.7c-.3-8.5-1.6-17-5.8-24.7a26.5 26.5 0 00-19.5-14c-12.3-2.3-24.7-1.8-37-1.5-8 .2-15.7 1.4-23.6 2.2-5.7.7-11.5 1-17.1 2.2a154.3 154.3 0 00-45.2 16.3c-3 1.7-6 3.8-9 5.7-8 5.3-16 10.8-24 15.9s-16.8 9.6-25 14.6c-5.5 3.3-10.7 7-16 10.5s-11.3 7-17 10.3c-11.7 6.9-23.7 13.4-35.2 20.7-12 7.6-23.5 15.7-34.9 24.2-10.4 7.7-20.5 16-30.5 24.3a135.3 135.3 0 01-26.7 17c-3.6 1.7-6 .1-6-4 0-6.3 1.8-12 4-17.8a157.4 157.4 0 0113.8-27l5-7.6c8.9-12.1 17.4-24.4 26.5-36.3 5.1-6.6 11.2-12.4 17-18.4 12.7-13 25.7-25.8 38.3-39a599 599 0 0027-30.2 163.5 163.5 0 0015.6-23.4c-3 1.2-6.2 2.2-9.2 3.5-20.8 8.7-41.4 17.6-62.3 26-9.6 3.8-19.7 6.6-29.6 10-9.2 3-18.4 5.9-27.5 9.1-11.3 4-22.9 6.6-34.4 9.3a128.3 128.3 0 00-44.2 18.6 63.5 63.5 0 00-19.4 21.9 10.8 10.8 0 01-1.7 2.9 5 5 0 01-3.1 1.4c-1.7-.1-2.4-1.7-2.1-3.2a13.6 13.6 0 011.6-5c3.6-5.5 7.2-11 11.3-16.1a261.5 261.5 0 0158-51.4c11.4-7.7 23.5-13.8 35.6-20.2 12.8-7 26-13.3 39.3-19.5q22.4-10.5 45.2-20.4a231.5 231.5 0 0143-14.1 126.5 126.5 0 0121.5-2.5c10.2-.4 20.3 0 30.5-.1a223.3 223.3 0 0133.7 1.9 31 31 0 003.8 0c9 0 17.8-.5 26.7.2 10.6.7 20.3-2.3 30-6A89.4 89.4 0 00830 1244c4.5-3.4 6.8-7.9 9.6-12.6-8-2.4-15.6-5-23.3-6.9a270.3 270.3 0 01-44.2-15 129.6 129.6 0 01-13.5-7.5 5 5 0 01-1.9-3c-.3-1.8 1.2-2.6 2.6-3a363.8 363.8 0 0164.3-12c11.6-1 21.4-6.5 30.4-13.7a78.8 78.8 0 0029.6-49.7c2.4-19 2-38.3 1.7-57.4-.2-10.2 4-18.9 9.4-26.8a144 144 0 0011-19.8c-2.3.3-4.2.4-6 .8-5 1-10.3.4-15 2.7a6.4 6.4 0 01-2.4.3 93.1 93.1 0 00-28 6.1c-10.4 4-21 7.2-31.7 10.5a443 443 0 00-49.8 18c-16.4 7.3-32.8 14.8-49.3 22-7.2 3-14.7 5.5-22.2 7.9a15.8 15.8 0 01-6.6.2c-2.8-.4-3.3-2.4-1.4-4.5a40.6 40.6 0 014.2-3.9l24.9-20.6a161.6 161.6 0 0134.6-24.3c13.8-6.4 28-11 42.5-15.6 13.5-4.3 26.7-9.3 40-14 4.2-1.5 8.3-3.5 12.5-5 4.4-1.6 8.4-3.6 11.5-7.5 4.7-5.9 11.5-9.1 17.7-13 4.4-2.9 9-5.2 13.4-7.8l4.4-3-6.4-.7c-7.9-.3-15.7-.6-23.6-.6a10.2 10.2 0 00-4.5 1.4c-7.7 4-15.2 8.4-23 11.9-7 3.1-14.5 5.4-21.8 7.9q-11.3 3.9-22.8 7.4l-27.6 8.3c-3.1.9-6 2-9.2 3l-28.6 8a10.3 10.3 0 01-3 .3l-34.7-.2c-7 0-12.8-5.9-13.3-13.3a150 150 0 01-.2-16.4c.3-6.3 3.6-11.6 6.4-17l3.2-5.7c-1.8 0-3.2-.4-4.5 0-2.3.5-4 .6-6.2-1-1.6-1.4-4.2-1.5-6.4-1.7-15.7-1.4-31.4-3.6-47.2-3a30.9 30.9 0 01-3.6-.3c-.6 3-2.7 3.5-5.4 3.3-10.2-.8-20.4-1.3-30.6-2.2-9.3-.7-18.6-1.8-27.9-2.7l-49.4-4.4a850 850 0 00-33.2-2.3q-28.4-1.3-56.9-2-17-.4-34 .1c-5.5.2-10.9 1.3-16.3 2l-8.2.8a10 10 0 00-3.7.7 50.3 50.3 0 01-25.2 6.3l-7.2 14.4a22.5 22.5 0 0010.7-4.4 111.2 111.2 0 019.8-6c3.4-1.9 7.2-1.8 10.9-1.2 3.4.6 4.6 2.2 4.7 5.6a11.7 11.7 0 000 1.5c1.3 7.6-3 11.6-9 14.8l-5.6 2.9 6.8 1c1.6.3 3.3.4 3.6 2.5s-1 2.8-2.7 3.3c-4.4 1.4-4.8 5.4-6.2 9.4a68.4 68.4 0 007 .6c10.8-.2 21.6-.5 32.4-1 4.6-.2 9.2-1.4 13.8-1.8s8.5 1.5 10.2 6.3c1 2.7 2.4 5.3 2.9 8 .5 3.1-.4 4.2-3.5 4.6-7 1-14 1.6-21 2.3l-27 2.2c-14.3 1.2-28.5 4.4-43.1 3.6a21.7 21.7 0 01-2.4 0c-2.4-.3-5.3 0-6.9-1.4-1.3-1-1-4-1.5-6.2-1.8-8-3.2-16-2.9-24.3.2-5 1-6.2 6-7.1 1.8-.3 3.5-.4 5.3-.8l5.3-1.4-3.6-1.3c-3-.8-3.4-1.4-3-4.3.7-7.1 1.8-14 6.4-20a9.1 9.1 0 00.9-2.3 13 13 0 01-3-1.5c-2.2-2-4.5-4.2-2.8-7.8.5-1.1.5-2.5.7-4.4-6.4-1.4-12.7-3-19.1-4.2-12.5-2.6-25.2-3-37.9-3-5.8 0-11.6.2-17.4-.1-3-.2-6-2-9.3-.8a30.6 30.6 0 00-4.8 1.5h11.6c2.6 0 5.4 0 6.6 2.8a7 7 0 01-3.4 9 168.4 168.4 0 01-16.4 6.8 124.9 124.9 0 01-14 3.6c-2.3.5-3.9 1-4.3 3.7-.2 1.5-1.3 2.9-2.3 5 4.4-1 8.1-1.7 11.8-2.7 5.9-1.7 11.8-1 17.7-.5 4 .3 5.5 4.9 3 8a7.2 7.2 0 01-2.7 2c-7.3 3-14.5 6-22 8.6a26.6 26.6 0 01-14.2.6c-8.4-1.6-11.2-9-8.8-16.6l2.3-5.8c-4-2.3-5.3-6-3.1-10 2.8-5.3 6-10.3 9.4-16l-2.5-5.3c-3.7 2.8-7.2 5.2-10.3 7.8a175.2 175.2 0 01-29.2 19.6 19.6 19.6 0 01-5.4 2c-2.2.4-3.4-.8-3.4-3a17.4 17.4 0 01.3-2.9c0-.8.3-1.5.7-3.4-2.7 2-4.7 3.3-6.5 4.9-4.7 4.3-9.3 8.8-14.1 13-5 4.5-11 7.2-17 10a461.6 461.6 0 01-45 18.5c-6.4 2.2-13 4-19.8 3.6a8 8 0 01-2.4-.1c-1.1-.5-2.7-1-3-1.9s.4-2.5 1.2-3.2c3-2.7 6-5.2 9.2-7.8l7.7-6.1-16.1-2.2-16.6-2.9a45.4 45.4 0 01-23-13.3 54.2 54.2 0 00-4.5-3.3v-9.7l5 1.1 17.2 4 .5-.8-3.9-4c-2-2-4.3-3.9-6.1-6C9 935.7 5.6 931 2 926.5c-.4-.5-1.3-.6-2-1V913a22.6 22.6 0 012.2 2.5c2 3.2 3.9 6.7 6.2 9.7a96.5 96.5 0 0025 25.1 3.9 3.9 0 011.4 3.2c-.1 1-1.4 1.9-2.4 2.6a3.5 3.5 0 01-1.9.3c-5.3 0-10.6.2-15.8-1.3-2-.6-4-.9-6.1-1.4.1.6.1 1 .3 1.2 7 7.3 15.4 12 25.5 13.4 9.6 1.3 19.1 2.5 28.7 4 1.5.3 3.6 1.2 4.3 2.4 1 2-.2 4-1.8 5.6l-2.7 2-8 6.6a7 7 0 004 0c6.9-2.2 13.8-4.2 20.5-7 9.4-3.7 18.5-8.1 27.9-12a83 83 0 0023.8-15c6.8-5.9 13.6-11.8 20.7-17.4 2.4-1.9 5.5-3 8.5-4.2.7-.3 2.6.2 2.9.9a4.5 4.5 0 01-.4 3.4c-1 2-2.6 3.7-3.8 5.6a27.3 27.3 0 00-1.6 3.8c4.4-2.7 8.1-4.6 11.5-7 6.9-5 13.6-10.3 20.5-15.3 2.8-2 4.6-4.3 5-7.7.4-4 2.8-6.2 6-8a48.8 48.8 0 004.4-3.2c-6.6-1-11.4-3-12.5-9.6-6.3 1.2-10-3.5-15.1-5.4-2.8 1.2-5.7 2.6-8.7 3.7a149 149 0 01-15.3 5.6 103.7 103.7 0 01-28.7 3.1c-3.7 0-6.7-.3-7-5a82.7 82.7 0 01-33.5-6l6.8 10.5c1.2 2 2.5 4.5.4 6.1-1.3 1-3.9.6-5.9.7a3.3 3.3 0 01-1.3-.5c-13.3-5.5-25.5-13-37.8-20.3-5-2.9-9.5-6.4-15-10 .7 1.9 1.1 3.2 1.7 4.4q3.8 8.6 7.8 17c.9 2 1.2 4-.4 5.5s-3.4.3-4.8-.7l-24.7-17.7L0 879v-7.8l4.5 3.6L28 892.8a24.2 24.2 0 003.3 1.6c-2.1-5-4-9-5.7-13.2s-3.3-8-4.7-12.1c-.8-2.6.2-4 2.8-3.6a11 11 0 015 2.4c5.3 4.2 10 9.2 15.7 12.7 11.4 7.2 23.3 13.5 35 20.2a41.4 41.4 0 004.2 1.8 34.8 34.8 0 00-2-3.2L70.8 885c-1-1.3-2-3-.7-4.3s3-1 4.8 0a81.7 81.7 0 0055.3 12.3c4-.4 8-.9 12-1.1a6.4 6.4 0 012 .8l.3 4.3c10.7-1.8 20.5-5.8 30.4-9.5-1.6-4-4.6-7.2-2.9-11.7.3-.7-.5-2-1.2-3a9 9 0 01-1-9.2 22 22 0 002-9.6c0-1.8 1.8-3.5 2.4-5.5s-.5-4.3 1.4-6.1c1-1 1.4-2.5 2-3.7-1.7-2.5-3.8-4.6-4.9-7.2-1.4-3.6 2.7-5 4.6-8.2-2.2.6-3.7.8-5.2 1.4-3.4 1.2-6.7 3.5-10 3.6-9 .3-18 0-26.7-3.4a13 13 0 00-3.7-.8l-20.2-1.4a160 160 0 00-28.8 2.1q-24.1 3.4-48.3 6.4c-4.7.6-9.6.8-14.4 1.1a4.1 4.1 0 01-4.4-2.3c-.7-1.7.6-2.9 1.5-4.3a136 136 0 0123.3-24.3c13.2-11.4 25.9-23.2 38-35.6a70 70 0 0017.2-28.7l1.1-4.1a31 31 0 00-.8-20.8A46.5 46.5 0 0077.3 690a90.5 90.5 0 00-34.2-12.3 213.2 213.2 0 00-23-2.7c-6.7-.4-13.5-.3-20 1.7V671a143.3 143.3 0 0128.3-.2c13.8 1.4 27.4 3.3 40.3 8.7a59 59 0 0125.7 19c3.5 4.7 6.9 9.7 7.6 15.9a63.9 63.9 0 01-14.8 50.1 748 748 0 01-31.9 31.6c-9.5 9-20.2 17-28.6 27.3a27.7 27.7 0 00-1.8 3.2c10.2-1.2 19.5-1.8 28.7-3.3 12.8-2 25.6-4 38.5-5.3 13.4-1.2 26.7-.6 40 .3a35.4 35.4 0 016.1 1.4c2.5.6 5 1.5 7.5 2a46 46 0 0020.8.3c-4-3.5-3-7.4-1.8-11.5.8-2.5.5-5.4.4-8.1-.3-3.8-.8-7.7-1.3-11.5-.4-3.2 1-5.2 3.7-6.6a21.5 21.5 0 003.1-1.3c1-.7 2.2-1.6 2.5-2.6a96.6 96.6 0 003.2-13c1.4-10 2.8-20 6.1-29.8a87 87 0 004.3-32.3c-.3-6.7-.3-13.5-.7-20.2a140.5 140.5 0 00-1.6-17.3c-2-10.8-4.6-21.6-7-32.4-1.3-6.1-1.5-12.5-4-18.3-1.8-4-3.5-8-5-12l-12.3-37-10-29.2-6-17.5-18.8 17L84 572.8c-10.3 9.5-21 18.5-31.3 28-13 12-23.5 26.1-34.1 40-4.8 6.3-9 13-13.7 19.3a50.3 50.3 0 01-4.9 5.2v-8.7a25 25 0 003.4-3.3c4-5.6 7.6-11.5 11.9-17 7.5-9.5 15.1-19.2 23.3-28.2a248.5 248.5 0 0121.5-20.8c20.6-17.8 41.1-35.6 60.6-54.6 3.8-3.7 7.8-7.2 11.7-10.8l1-1c5.3-1.9 6-5.5 4.1-10.3a42.1 42.1 0 01-1.7-7 37.7 37.7 0 01-.4-4.3c2.9-1.4 3.6.3 4.2 2 4.7-2.6 4.8-2.6 7.7 1.8a145.3 145.3 0 0113.4 24.4 65.4 65.4 0 007 12c7.3 10.4 14.9 20.5 22 31a75.5 75.5 0 018.8 18.7c2.6 7.4 5.8 14.6 8.4 22 2.9 8.5 5.6 17.1 8 25.8a166.5 166.5 0 013.5 18.4c.5 3.6.5 7.3.7 11.6h6.8c2.6 0 5.4 0 6.6 2.8 1 2.8 1.2 6-.7 8.3a36.4 36.4 0 01-8 7.5c-3.6 2.3-5.7 4.8-5 9.4.3 3 0 6.2 0 10.2l2.7-2.7 11.7-12.9a33 33 0 0111.5-7.8 14 14 0 013.7-1c6.6-1 9.4 1.7 9.8 8.4a54.4 54.4 0 01-2.4 18 32.8 32.8 0 00-1.2 6.2 6.3 6.3 0 004.3 6.8c2.1.8 4.3 1.3 6.5 2l2.7.8c1.7.6 2.1 1.9 2 3.5a2.5 2.5 0 01-2.6 2.5 3.1 3.1 0 01-.5 0l-9.7-1c5.9 5.1 10.7 9.9 11.5 18 2.8-6.4 4.7-12 7.8-16.9s7.7-9 11.6-13.4h-8.8c-1.8 0-3.3-.4-3.4-2.5s1.1-3.5 3.2-3.2c6.7 1 11.2-2.9 15.9-6.5a139.5 139.5 0 0032-33.8 26.3 26.3 0 003-6c.5-1.7 1.2-3.1 3.1-3 2.2 0 3 1.9 3.2 3.6.3 2.4.1 4.8.2 7.2l.2 2.4c5.2-9 10-18 15.6-26.6 6.1-9.3 12.6-18.3 19.5-27 5.6-7 12-13.5 18-20.1 2.6-2.9 5.8-4.8 9.9-3.6a11.3 11.3 0 015 2.6 49.3 49.3 0 0111.5 18.6 130.3 130.3 0 016.2 26.8c.8 7.4.3 15 0 22.6a15.6 15.6 0 01-2.2 6.8c-1.6 2.8-4.7 2.5-6-.4a21.7 21.7 0 01-1.3-4.6c-2-9-4.3-17.8-8.6-26a59.6 59.6 0 00-3.5-5.8c-2.6-3.8-6.6-4.5-10.5-2-5.7 3.7-11 8-16.2 12.1-7.3 6-13.3 13.1-18.8 20.7-2.2 2.9-5 5.4-7.5 8.1a16.3 16.3 0 00-2.8 3.3c-1.8 3.7-4.6 4.6-8.5 3.4-2.7 9.7-10.6 14.4-18.2 19.4-3.7 2.4-8 4-12 6.1a36.1 36.1 0 00-3.7 2.6l14.7 2a20.1 20.1 0 0116.6 19.3c.2 10 .6 20-2.3 29.7l-.5 2.6h4.5V757a49.3 49.3 0 0110.9-31.2c2.9-3.4 7-5.7 10-9 3.4-3.7 7.3-4.7 12.3-4.6 7.7.2 15 .7 21.7 5a26.8 26.8 0 0112.7 21.7c.5 8.3 0 16.6-.1 25.8l2.4 2.2c1.5 1.4 3.1 2 5.2 1 4.1-2.4 7.4-.7 10.2 2.4l3.4 3.2c5.5-23.3 15.3-44.5 23.6-66.3a25.7 25.7 0 01-8.7-18.6c-.2-5 .9-6 5.7-6 6.6 0 6.6 0 12.8 3l6.5-13.8 9.2-21.3c5-12 10.1-23.9 15-36a18.5 18.5 0 001.2-5.6c.5-7.6 4-14.1 7.4-20.7 8-15 20-27.2 29.7-41 6.6-9.1 13.2-18.2 19.5-27.5s13.1-18.2 22.7-24.6c1.7-1 3.5-2.4 5.2-.8s.9 3.5 0 5.3l-8 17-1 2.5c4.8 4 4.8 10.4 7.2 15.6 3 6.8 5.9 13.6 10.2 19.7a6.8 6.8 0 01.6 1.2c7.8 16.6 20 30 31.8 43.5l17.9 21c11.2 13 22.8 25.7 35.7 37.2 9.7 8.7 19.1 17.7 28.7 26.6 2.8 2.6 5.5 5.4 8.5 7.9 1.9 1.6 2.3 3.2 1.3 5.7a143.3 143.3 0 01-29.3 4.4c-11.2.5-22.5.3-33.7 1.1a332.2 332.2 0 00-66.1 10 150 150 0 00-43.8 18.6c-4.3 3-8 7-11.2 11.2-4.1 5.3-4.4 11.7-2.6 18a56.9 56.9 0 009.8 19.2c6 7.6 12 15.1 17.7 23 3.3 4.4 5.7 9.5 8.8 14.3l16.8 25.8a18 18 0 011.8 2.8c1.4 3.6 0 5.4-3.7 5.8-5.3.5-10.3-.9-15.2-2.3a388 388 0 00-36-8.5c-15.9-3-31.9-5.6-47.4-10.5a63.3 63.3 0 00-22.4-3c-4.5.2-6-.4-9.7-2.4l-6.2 5.6 3.7 3.9c2.8 3.2 5.7 6.5 8.3 9.9 2.5 3.2 1.7 7 1.4 10.7a3.6 3.6 0 01-2.1 2.4 88.7 88.7 0 01-9.2 2.8l-9.4 2 1.4 3.7c1.9 5.1 4 10.1 5.4 15.4 1.5 5.5-.7 8.6-6.4 9.5-5 .8-10.2 1-15.4 1.4-2.2.2-4.3.6-6.3.9-.7 3.4-1.2 6.4-2 9.3-1.1 4-4.4 5.3-8.1 5.6a38 38 0 01-22-4.3 44.7 44.7 0 00-5.5-2.2c-3.7 2.1-6.9 4-10.1 5.6a8.6 8.6 0 01-4.1 1c-5-.3-7.7 2.5-10.3 6.6a16.1 16.1 0 003.7-.3c5.5-2 11.2-1.5 16.8-1.4 3.6 0 6.1 1.3 6.3 3.3.2 3-1.8 4.6-4.2 6a66.4 66.4 0 01-24.6 8c-3.8.4-6 2-8.2 6.5a13.4 13.4 0 006.3-2c8-4 16.6-3.1 25.1-2.5 2.7.2 4 2.6 3.4 5.3a16 16 0 01-1.5 3l12-1.5a24.6 24.6 0 013.8-.4 93 93 0 0023-2.2c1.8-.4 3.4-.7 4.6 1.3a3.5 3.5 0 002.3 1.1 27.6 27.6 0 003.9 0l46.4 1c11.8.5 23.7 1 35.5 2 13.1 1.2 26.2 3 39.3 4.3 7 .7 14 .9 21.1 1.5l44.6 4.4c3.5.4 6.9.7 10.4-.8a23.5 23.5 0 019-1.6c10.5 0 21.2.1 31.8.7a246.2 246.2 0 0134.8 4.6l2.4.3c7.6-6.8 14.8-13.4 22.2-19.8 3.3-2.8 7-5 10.6-7.6l9.2-6.8a7 7 0 001.7-2.3l2.9-5.6c2.9-5.8 5.6-6.9 12-4.2 7.5-5.2 15.1-10.8 23-16q12.1-8.3 24.6-16.1c6.5-4.1 13.1-8 19.9-11.8l24-13.3c5.3-3 10.4-6.4 15.7-9.3 8.2-4.4 16.6-8.6 24.9-12.8l18.1-9 3-1.7q12-6 24.2-11.8a42 42 0 015-1.7l6.7-2.3-2.1-4.7c-1.7-4-3.5-8-4.8-12a34 34 0 01.8-24.9 40.4 40.4 0 014-7.1c3.2-4.6 6.7-9 10-13.5.8-1 1.4-2.1 2.4-3.9-4.2-.8-8-1.8-11.8-2.4-32-5.6-63.1-14-94-23.4a365.6 365.6 0 01-60.4-23.8c-6.9-3.5-13.3-7.8-20-11.7a7.4 7.4 0 01-4-7.1c.2-6.1 0-12.3-.4-18.4a1850.5 1850.5 0 00-4.7-60.5l-3-30.2-2.8-28.8-3.4-33.5c-.8-7.5-1.2-15-2.2-22.6-1.2-8.9-2.7-17.7-4.3-26.6-1-6-2.3-12-3.5-18a29.7 29.7 0 00-1.2-3.6c-2.7 1.5-5 3-7.5 4a3 3 0 01-2.8-.6c-.8-1.2.5-1.8 1.5-2.5 2.5-1.6 5-3.5 7.6-5.3l.6-3.8c2.1-1.7 3 0 4.8 1.3l6.1-4.9c.5-.4 1-1 1.5-1.2 7-1.6 12.7-5.9 19-8.8s12.8-6.3 19-9.5c2-1 3.2-3 4.7-4.5 3.8-3.8 8.4-6.9 12.7-10.1 1.3-1 2.8-1.6 4.1-2.8l-3.8.3c-.1-.4-.4-.8-.3-.9a8.5 8.5 0 012.5-2.2c2.6-1 4.5-2.3 5.1-5.2a3 3 0 011.2-1.4c6-4.2 11.4-9 18.2-11.8 8.1-3.5 16.2-7 24.3-10.7 1.9-.8 4-1.5 5.5-3 4.7-4.8 10.8-7.3 16.5-10.7 5-2.9 9.7-6.1 15-9.4l-3.5-3.6a313.9 313.9 0 00-41.3-31.6l-40.6-26.2c-6.4 2.8-7.5 10.1-14.1 13.3.9-7 4.8-11.4 9.1-16L766 239.4l-12.6 13.4q-2.6 2.9-5.3 5.6c-1.4 1.3-3 2-5.3.4 4-8.8 12.5-14 18-22l-55.6-30.1c-2.2 2-3.9 4.8-7.3 5.5-4 .9-7.8 2.2-11.3-1.2a3.4 3.4 0 00-1.3-.6c-5.2-2-5.8-2.6-5.7-7.9a54 54 0 01.7-10.5c1-4.4 3.6-7.4 8.6-8a6.8 6.8 0 003.2-1.6 17.3 17.3 0 0112.5-4.1c4.8.3 6.3 1.8 6.5 6.6.3 5.7.5 11.5-2 17.5l55.8 30.1 3.2-2.8 14.2-13.1c1.3-1.2 2.7-3 5.2-1.7 1 4.1-1.6 7-3.8 9.7s-5 5.4-8.8 6.4c-1.8.4-3.2 2.5-5 4l33.8 19.9c5.3-1.1 8.4-7.5 15.4-6.7-1.7 5.4-7.5 5.8-10 10.1 30 18.2 59.5 37.5 86.5 60.9 5-2.8 10.3-6 15.8-8.6a210 210 0 0120-8.1c3.6-1.3 5.7-2.9 6-6.9 1.4-12.7 5-24.8 8.2-37.2 2-7.8 5.2-15 8.2-22.5.5-1.1.7-2.4 1.3-4h-19.3c-13.8 0-27.5 1.5-40.9 5.6-8.1 2.5-16.3 4.8-24.5 6.9a96.6 96.6 0 01-12.8 2.5 6.4 6.4 0 01-4.7-1.5c-1.4-1.5-.3-3.4.9-4.8 3.1-3.9 6.2-7.8 9.6-11.5a477 477 0 0138.3-38.1c6.3-5.4 13-10.5 20-16.2-1.7-.2-3-.4-4.1-.4-3.4 0-6.8-.2-10.2 0-7.8.5-14.6-2.5-20.4-7.1a18 18 0 01-6.3-17.8c.5-3.6 4.2-5.6 7-7.5 21-13.9 44-24.3 67-34.3 10.5-4.7 21.5-8.5 32.4-12.4 8.6-3 17.4-5.6 26-8.3a11.1 11.1 0 001.9-1 69.7 69.7 0 01-7-2.4c-4.2-2-5-5.7-1.9-9a90.8 90.8 0 019.6-8.8 215.9 215.9 0 0142.2-24.3c6.5-3.2 13.4-5.3 20.2-7.9a265.6 265.6 0 0138.2-11.4c10.5-2.3 21-2.4 31.7-2.4 2 0 3.2 1 4 2.8a119.8 119.8 0 005.5 10.7c1.1 2 3 3.6 4.6 5.5l.9-1.1a60.3 60.3 0 0116.5-28.4A45.4 45.4 0 011200-2.6v5.9a48.1 48.1 0 00-26.6 23.7 56 56 0 00-5.6 16.8c-.9 4.7-3.5 5.5-7 2.2-4.5-4.4-8.8-9-11.4-14.8l-2.9-5.5a124 124 0 00-28 2.2 256.3 256.3 0 00-39.7 11.8c-6.3 2.4-12.7 4.7-18.7 7.6a212 212 0 00-41.6 24.2l-7.8 6.6a24.8 24.8 0 004.3 1.3c6.4.5 12.8 1 19.3 1.3 1.4.1 3-.3 4.2.3a4.6 4.6 0 012.4 3c0 .7-1.5 2.3-2.4 2.4a74.8 74.8 0 00-15.8 4c-4.7 1.5-9.7 2.4-14.4 4-11 3.7-22.2 7.4-33.2 11.6s-21.7 8.6-32.4 13.6q-19 8.8-37.5 18.7c-5.9 3.2-11.3 7.4-16.8 11.3a4.9 4.9 0 00-2 3.4c.4 3.7 1.2 7.7 4.6 9.8 3.9 2.3 8.2 4.8 12.6 5.4 6.3.9 12.9.3 19.3 0 3.4-.1 6.7-1 10-1.5 1.6-.2 3.2.3 3.4 2a4.8 4.8 0 01-1.2 3.3 23.6 23.6 0 01-3.7 3c-8.8 7-17.7 13.9-26.3 21.1-13.1 11.3-24.9 23.9-36.7 36.5l-6.8 7.6a67.7 67.7 0 007.3-1c8.5-2.2 17.1-4.3 25.5-7a132 132 0 0136.1-5.2c9-.2 18 0 27.2 0l23.7-49.8c-.6-2.4-1.7-4.7-1.8-7.1a25.7 25.7 0 011.7-8c1.9-5.6 5.2-8 11.1-8a46 46 0 017.2.4c7.2 1 12 5.5 16.2 11a3.3 3.3 0 01.4 2c0 2.8.2 5.7 0 8.6-.5 4.8-3.8 8.8-8 9-7.4.4-14.9 1.5-22-3-1.4 2.4-2.8 4.5-4 6.8l-16.8 35.6a21 21 0 00-.9 2.7c9.7-.6 18.9-1 28-2 15.6-1.9 31.1-4.2 46.7-6.3 13.7-1.7 27.5-3 41.1-5s27-3.9 40.7-4.5l37.6-1.8 28.9-1.3 12.5-.8v4a34.8 34.8 0 01-4.7.7l-33.3 1.3c-10.6.4-21.1 1-31.7 1.6-7.6.5-15.1.7-22.6 1.6-20 2.5-39.8 5.4-59.7 8.1l-34.4 4.8c-8 1-16.2 2.2-24.4 3-9 .8-18 1-27.2 1.6a214 214 0 00-19.4 63.1c3.3.4 6.2.5 9 1 6.5 1 13 1.8 19.4 3a62.1 62.1 0 0110.2 3c2.8 1 5.3 3.5 8 3.7s5.7-1.8 8.6-2.8l2.3-.8 54.4-20.9c12-4.6 24-9 36-14 11.3-4.6 22.6-9.6 34-14.5a18 18 0 0011.3 6.6l15.5 3.1c4.8 1 9.5 2.1 14.2 2.9l34.4 4.8v4.8a414.4 414.4 0 01-67-11.5l.5 3.5c1.3 6.8 2.8 13.5 3.7 20.3 1 7 1.2 14.1 1.7 21.2 1 11.6 2 23.3 2.8 35 .8 14 1.2 27.9 2 41.8l2 35.2c1 14.4 2 28.8 2.8 43.2l2 41.4c.7 16.1 1.5 32.2 1.9 48.2.5 23.5 1 47 1 70.5 0 33.5-.5 67-.6 100.4 0 9 .5 18 1 27 0 1.2 1 2.3 1.7 3.4l14.7-6.5L1200 735v5.8a47.6 47.6 0 01-4.6 2.6c-12.2 5.4-24.4 10.7-36.7 15.9-3.8 1.6-7.4 4-11.8 3.9-1.6 0-3.5 0-3.9-2s1.7-1.9 2.8-2.6c.2-.1.3-.5.7-1.3-48.3 1-96-3.4-143.8-10.5a212 212 0 000 48.7c2-1 3.4-1.8 4.9-2.4.3-.1.8.2 1.3.3l-2.7 3.3a11.8 11.8 0 002 1.1l14.4 3.8a83.5 83.5 0 0010 2.2c6.1.8 12.4 1.2 18.6 1.8 6.7.7 13.4 1.7 20.1 2a115 115 0 0136.4 9 196.8 196.8 0 0119.4 9.5c4 2.2 7.6 4.8 11.3 7.3 5.8 3.8 11.7 7.4 17.2 11.5 9.5 7.3 19.2 13.9 30.4 18.2 4.9 1.9 9.4 4.9 14 7.3v6.8l-18.8-9.6c-3.7-1.9-7.8-3.1-11.2-5.4-10.5-7-20.7-14.5-31.2-21.7-5.7-3.9-11.5-7.6-17.4-11.2-2.3-1.4-5.1-2-7.4-3.3-6-3.8-12.6-6.2-19.3-8.5-12.2-4.1-24.9-5-37.5-6.2-5.4-.5-11-.7-16.4-1.2a129.6 129.6 0 01-32.3-7.2c-.8-.3-1.8-.2-3.7-.3 1.7 3.5 3.3 6.3 4.4 9.2 3 8 9 12.3 16.8 14.5s15.6 4.2 23.2 6.6a315.6 315.6 0 0067.7 12.7 71.9 71.9 0 0120 4.6c13 5.2 21.7 14.3 22.4 29.1.5 8.7.6 17.4.9 26a8.1 8.1 0 01-.3 2.9c-2.4 6.8-4.4 13.8-7.4 20.3-4.6 10.5-9.8 20.7-14.8 31a14.8 14.8 0 00-.7 2.3c11.4 3 21 9.4 31 14.9a77.2 77.2 0 0021.1 9l9.1 1.9V982c-.3-9.2-.8-18.4-.9-27.5-.1-16.3-.2-32.6.1-48.9.1-5 1.7-10 2.6-15V997c-1-3.5-3.4-4.5-6.9-5.2a72.5 72.5 0 01-26.4-9.8c-6.5-4.1-13.4-7.6-20.3-11.1-4.1-2.1-8.4-4-12.4-4-4.2 2.4-4.2 9.2-10.9 7.7v-11.6l-6.2-3c-9-4.4-17.8-8.9-27-13-7-3-14.2-5.7-20.3-10.6a6.3 6.3 0 00-1.3-.7l-23-11.1c-1.9-1-3.8-1.7-5.5-2.8l-9.9-6.3c-2.4 2-5.2 3.9-7.6 6.1-6.7 6.1-12.2 13-13 22.4a81.6 81.6 0 004 32c2.4 0 4.6-.4 6.5 0 3.8 1 7.3 2.5 11 3.5 8 2.2 16.1 4.4 24.3 6.2a147.8 147.8 0 0017.1 2.7c9.3.9 18.6 1.4 27.9 2.1a3 3 0 01.4.2l24.2 3.8c2.9.4 5.9.1 8.7.7 11 2.2 22 4.7 33 7 4.3 1 8.7 2 13.1 2.7 4.1.6 8.3 1 12.4 1.5l8 1.2v5.8c-5.3-1-10.6-2.1-16-3-4.8-.8-9.8-1.2-14.6-2.2-11-2.2-22-5-33-7-9.4-1.9-19-3.2-28.4-4.3-9.3-1.1-18.6-1.8-27.8-2.7-2.4-.2-4.8-1-7.2-.9-8.5.2-16.6-1.6-24.6-4l-27.3-7.8c-2.4-.7-4.6-1.6-7.2-2.5.5 5.1 1.2 9.6 1.5 14q.7 10.6 1 21.2.2 8.5 0 17c-.1 4.6-1 5.2-5.4 5.3l-4.8.3a52.5 52.5 0 002.2 5.3c2.4 4.3 5 8.5 7.4 13 7.1 13 16.2 24.7 25.2 36.5a370.3 370.3 0 0034.2 37.3 169.7 169.7 0 0114 15.4 109 109 0 0117.7 38.7c2.1 7.7 1.3 15.4 1 23.1-.2 5-1 10.3-4.3 14.6-2.8 3.7-5.7 7.3-8.2 11.3-2.3 3.7-5 7.6-6 11.8-1.3 5.4-1.8 11.2 2.8 15.9 3 3 5.4 6.4 8.3 9.4l18.2 18.5c4.9 5.2 10 10.2 14.1 15.8 6.7 9 12.6 18.6 18.8 28a12.2 12.2 0 012 4.3c.6 3.5 2.8 5.7 5.4 7.7l16 12.3c4.2 3.1 8.4 5.6 13.6 6.6 4 .8 7.7 2.3 11.5 3.4zm-993.1-446a21.3 21.3 0 004.4 1.6 51 51 0 0025.8-5.4 26 26 0 00-19.5 1.4 29.8 29.8 0 01-5.8 2 43.8 43.8 0 01-5 .6c-1.2-4.7-.4-7.6 3.7-10.2 3.7-2.2 7.8-3.7 11.7-5.5l6.8-2.8a38 38 0 00-22.9 5.4 24.1 24.1 0 00-5 3.6c-2.7 2.7-2.6 4.2.4 6.6 1.5 1.2 3.5 1.9 5.4 2.7zM1149.5 753c-.5-3.6-1.6-7-1.3-10.5 1-11.2 1.5-22.4 1.4-33.7-.5-33.2-.5-66.4-.8-99.6-.2-22.7-.6-45.4-1-68.1l-.3-12.6-1.6-28.4-1.2-28.9-1.7-31.3-1.3-24c-.8-11.6-1.8-23-2.5-34.6-.8-13.5-1.2-27-2-40.5-1.2-18.4-2.4-36.9-4-55.3a129.4 129.4 0 00-3.2-18 9 9 0 00-3.1-5 11.2 11.2 0 00-11.5-1c-3.4 1.5-6.6 3.2-10 4.6-13.5 5.6-27 11.2-40.6 16.4-28.8 11.1-57.7 22-86.5 33q-16 6-31.8 12.4c-9 3.7-17.7 7.6-26.6 11.3-3.8 1.5-7.6 2.3-11 5-3.8 3-8.9 4.6-13.4 6.8-1 .4-2.5.6-3 1.4-2.2 3.7-6 3.5-9.5 4.5a65.6 65.6 0 00-10 3.7c-15.9 7.5-31.6 15.3-47.5 22.6-7.9 3.7-16 6.5-24.1 9.7-3.4 1.4-7 2.4-10.2 4-11 5.4-21.9 11-32.8 16.6-2.4 1.2-4.7 2.7-7.7 4.5l3 1c-5.4 2.6-11 1.4-15.1 5.3 1.4 7.3 2.9 14.5 4.2 21.8 1.5 9 3 18 4.3 27 1.1 7.9 1.7 15.7 2.5 23.5l3.1 32.2 2.8 29.2 3 30.7q1.4 13 2.4 26c.9 10.8 1.8 21.7 2.4 32.6.3 5.5 0 11 0 16.5a38.2 38.2 0 00.8 6.2 4 4 0 001.3 2.4 107.8 107.8 0 0011.2 7.5c6 3.1 12 6 18.2 8.7 9.8 4.1 19.5 8.4 29.5 12a710.7 710.7 0 0068.8 20.3c18.6 4.6 37.4 8 56.1 12a3.6 3.6 0 003.9-1.1c1.1-1.3 3-1.1 3.5.6.6 2.3 2.2 2.3 4 2.6 13.7 2.5 27.4 5.2 41.2 7.4 15.3 2.3 30.6 4.4 45.9 6s31 2.8 46.6 4c7.5.6 15 .8 22.6.9 10.2.2 20.3.2 30.5.2a8.8 8.8 0 002.1-.5zm-711 33.4c3.8.7 3.6 3.2 3.7 5.6l1.2 22.2a13 13 0 001 3.9c1.4 3.3 4 4.1 7.4 3.8a61.8 61.8 0 0124.7 3.2c15 5 30.6 7.3 46 10.2 11.8 2.3 23.5 5.1 35.1 8.3l10 2.5a318.2 318.2 0 01-17.6-27.8c-4.1-7-9.1-13.6-14-20.2s-10.4-13.1-14.9-20.1c-5-7.8-8-16.3-7.5-26a24.2 24.2 0 015.4-14.1 63.2 63.2 0 0120.6-16.4 188.1 188.1 0 0140.4-14.3c20.2-5 40.8-7.1 61.4-8.8 9.2-.7 18.3-1 27.5-1 8.6.1 17-1 25.4-2.2a47.7 47.7 0 005.5-1.5c-9-8.4-17.5-15.8-25.6-23.6a1691.3 1691.3 0 01-34.6-33.7c-5-5-9.3-10.7-13.8-16-3.7-4.3-7.2-8.7-11-13-13.5-15.2-27.1-30.4-36.5-48.8a221.8 221.8 0 01-11.1-25.5l-4.2-10.4c-1.7 3.3-2.6 5.7-4 7.7-9.9 14.4-15 30.9-21.2 46.8-5.5 13.9-10.5 28-17.4 41.2-5.8 11.3-11 23-18.5 33.3-2.5 3.5-5.4 6.8-7.7 10.5-4.6 7.2-8.6 14.7-13.4 21.7-8.2 12-12 25.5-15.9 39-1.5 5.5-2.7 11-4.5 16.3-4.2 12.3-10.6 23.7-16.5 35.2-1.9 3.7-3.4 7.6-5.4 12zM743.8 1003a15.8 15.8 0 002.1-.4l27-8.5 27.4-9.1 3.2-1c6-1.7 12-3.2 18-5.1a143.5 143.5 0 0027.4-11.7c10.4-6 21.4-11 31.8-16.9 10.1-5.6 20.2-11.4 29.7-17.9a134 134 0 0129.4-15.4 51.3 51.3 0 0014.4-7.3 18 18 0 0112.1-3.7h3.7c2.7-4.9 5.4-9.7 8-14.7.4-.7.2-1.8.3-2.8.6-7.5-1.6-14.4-4.8-20.9q-12-23.8-24.2-47.3c-2.2-4.4-5-8.5-7.6-13-6 2.7-11.7 5-17.3 7.7-6.7 3.2-13.2 6.6-19.8 10l-19.8 9.8c-7.5 3.8-15 7.5-22.2 11.6-12.3 7-24.5 14.2-36.7 21.3l-12.4 7.4-10.7 6.6c-7.8 4.8-15.6 9.4-23.2 14.4-6 4-11.7 8.5-17.6 12.7-3 2.2-6.3 4.3-9.8 6.6 4 8.2 3.5 16.6 3.4 25a87.9 87.9 0 010 10.2c-.8 6-1.8 12-3 18-.5 3-1.7 6-2.5 9.2l-6.3 25.2zM329.1 769c-3.8 9.3-9.1 17-17.3 23-12.3 8.7-35.2 5.6-42.2-10.6a12.4 12.4 0 00-1.4-2l-2 4.2a30.1 30.1 0 01-12 14.8 12.6 12.6 0 01-6.2 2.3c-6 0-12.3.2-18.2-1a27.6 27.6 0 01-21.5-18.8 68.3 68.3 0 01-1.7-8 38.3 38.3 0 00-3.6 9q-5.6 18.7-11.4 37.3c-.7 2.1-1.5 3.8-4.2 4.7-3.5 1.2-6.6 3.7-10 5.6 2.4 2.8 5.2 4.7 5.7 7.1s-1.2 5.5-2 8.2c3.6 1 6-.2 7.4-3.9a21.8 21.8 0 012.6-4c-5.3-4-5.1-10.2 2.3-13.4a22.5 22.5 0 012.3-.8 69.1 69.1 0 0123.3-3.5c7 .2 12 5.9 11 12.9a849 849 0 01-4.5 25.6c-1.3 6.4-6.2 12-11.8 12.6-7.3.8-14.5.4-20.8-4.1a10.2 10.2 0 00-3.4-1.8c-4.3-1-8.7-1.8-13.6-2.8l-1.6 6.7c3 1.9 1.5 4.8 1.7 7.4a13.4 13.4 0 001.3 5c3.7 7 9.6 11 17.8 10.9a8.9 8.9 0 012.2.4c.5 6.4 1.1 7.5 6.4 8.7a64 64 0 0011 1.4c2.1 0 4.8 0 6.4-1.2 2.4-1.6 4.5-1.5 6.8-.8l9.6 3a41 41 0 004.7 1.3c4.8.8 8-2.1 10.5-5.5 3.5-5 8.5-6 13.7-5 3.7.9 7.4 3 10.6 5.4 4.8 3.5 7.7 4.5 11.8.2 4.5-4.9 9-4.4 14.3-3.1l3.2 1.1c5 1.4 10.1 2.6 15.1.7 3.5-1.2 6.5-3.4 9.7-5.3 4.2-2.4 7.4-1.5 9.4 2.9l1 2.7a8 8 0 007.2 5 16.3 16.3 0 0014-5c2.5-2.7 5-3.4 8.6-1.7a99.6 99.6 0 0014.3 5.7 25.5 25.5 0 009 .8c4-.3 5.8-3.2 5.8-8.5.1-5.8.2-6 5.7-6.8l4.4-.4c4.3-.3 8.6-.5 13-1 2-.2 4.6.1 6.3-3.1-2-5-4.4-10.4-6.4-16-1.7-5-1.2-9.8 5.5-10.6a92.7 92.7 0 0010.9-2.3c3.7-1 4.3-2.5 2.7-6a9.2 9.2 0 00-.6-1.3 43.5 43.5 0 00-12.9-14.1c-2.8-1.8-2.7-3 .1-5l3.8-2.6a81 81 0 00-14.8 1.8c-6 1.2-8.5-.7-9.1-6.5-1.3-11.2.3-22.2 1.1-33.2.2-1.7.7-2.9 2.4-3.2l9.4-1.9c-1-4.2-3.7-7.4-7.2-10-2.6 1-5 2.7-7.3 2.6s-4.3-2.2-6.5-3.4c-2.7 4.9-5 10.1-8.3 14.6a54.8 54.8 0 01-12.6 13c-10 6.6-25.1 3.2-33-4.5a32.7 32.7 0 01-11.1-23.4 19.4 19.4 0 00-.8-3.5zM141.6 506.2c-.1 4.8 1.7 9 3.3 13.4 5.6 15.7 10.9 31.6 16.4 47.3s11.3 31.4 17 47a96.3 96.3 0 013.4 11.6c1.6 7.2 2.6 14.5 4.3 21.7 2.5 10.1 5.1 20.2 5.7 30.7.5 11.5.5 23.1.7 34.7a68.3 68.3 0 01-3.3 22.8 103 103 0 00-3.4 12.6c-1.4 7-2.4 14.2-3.7 21.3-.7 4-1.8 7.8-2.7 12l4.4.2c1.9.1 3 1 3.1 3a2.6 2.6 0 01-2.3 2.8h-.3c-.9.2-2 .6-2.8.4-3.1-1-6 .4-8.9 1-2.6.7-3.1 2-2.7 4.7 1.2 7.4 2.5 14.9-.2 22.6 5.6 2.7 11.3 2 17 2.6.5-2.5.8-4.7 1.5-6.9l10.4-36a422.2 422.2 0 0011.7-53.2 341.6 341.6 0 003.4-43.2c.2-4.3-.6-8.6-.5-13 .1-11.3-2-22.4-5-33.2-2.4-8.6-6.1-17-9.3-25.3-1.4-3.8-3.8-7.4-4.2-11.2a47.5 47.5 0 00-5.9-16.7c-6.4-12.7-16.2-23.1-24.2-34.7-3.6-5.2-7.1-10.4-9.6-16.1a99.6 99.6 0 00-13.3-22.9zm982.8 451.1c1.2-4 2.2-7.3 3-10.5a153.9 153.9 0 004.8-31.4c.1-4.3-2-7-5.2-9a88.8 88.8 0 00-24-10.8 27.5 27.5 0 00-6.2-1.2c-9.4-.3-19-.5-28.4-.6a8.7 8.7 0 00-3.7.8c-6.3 2.9-12.5 6-18.7 8.8a47.4 47.4 0 00-12.5 9c2.4 1.4 4.3 2.8 6.4 3.8 4.9 2.4 10.2 4 14.8 6.9 8.2 5 17.7 7.7 25.3 13.8 1.2 1 2.8 1.4 4.3 2 7.5 3.3 15.1 6.3 22.6 9.7 5.7 2.6 11.4 5.6 17.5 8.7zM432.7 786c1.5-4.4 2.2-8 3.7-11 2.4-5 5.4-9.6 7.8-14.4 2.8-5.6 5.8-11.2 7.8-17 3.5-10 6.3-20.2 9.5-30.2 2.3-7 4.4-14.1 7.4-21 2.3-5.3 5.6-10.4 8.7-15.4 4.6-7.4 9.4-14.6 14.2-21.8 3.7-5.7 8-11 11.2-16.9 7-12.6 14-25.2 19.4-38.7l9.8-25.1c2.6-6.6 5-13.2 7.7-19.7a245.7 245.7 0 0118.2-34.4 67.2 67.2 0 006.6-14 116 116 0 00-14.9 19c-3.8 6-8.4 11.7-12.8 17.4-8.6 11.5-17.5 22.7-26 34.3-4.4 6-8 12.7-11.8 19.2-.5.8-.8 2.5-.4 3 2.5 2.7 1 5-.1 7.6l-8.9 20.2c-5 11.8-9.7 23.8-14.9 35.5-5.5 12.5-11.6 24.7-17 37.2-7.2 17-14 34.2-20.8 51.4-4 10-7.7 20.3-9 31.3zM398 747.5l-.4-7.2c-1-19.8-21.6-26-34.2-20.3a36 36 0 00-18.8 21.6 76.6 76.6 0 00-3 31c.6 9.9 10 21.4 21.8 22.9 10.4 1.3 17.4-2.7 23-10.4a60.3 60.3 0 0011.6-37.6zm-70.8-1.5c.7-5.2-1.3-9.8-2.7-14.6-2.4-7.9-7.6-12.4-15.5-13.8-6.4-1-12.4-.4-17.6 4.3a51 51 0 00-14.1 19.3 70.9 70.9 0 00-4.1 15.2c-.7 4.4-.3 9-.2 13.5a19.3 19.3 0 008.5 16 24.9 24.9 0 0031-2.8 56.4 56.4 0 0014.7-37.1zm-63.9 14.5v-6.3c.4-8-4.2-14-9-19.6a11.7 11.7 0 00-4.5-2.7 22.7 22.7 0 00-28.6 10.2 46.4 46.4 0 00-7 19.8 98 98 0 000 15c.6 7.7 8.5 14.6 15.4 16 6 1.1 12.2.9 18.3 1.1a5.3 5.3 0 003.4-1.4c2.5-2.4 5.2-5 7-7.9a44.5 44.5 0 005-24.2zm-30.2 147c-1.8 5.2-8 3.7-11.5 7.2h13c3.5 0 6.4 1.3 9 3 3.4 2.2 3 5.6-.5 7.4-1 .4-1.8 1-2.6 1.5l.2 1h26c7.9.2 15.7.7 23.6 1a16.5 16.5 0 014.7 1c7.9 2.8 16.1 2.8 24.3 3.8.6 0 1.4-.6 2.4-1l-.8-.6a37 37 0 00-2.4-.3c-5.3-.4-7-3-4.5-7.6 3-5.9 7.9-10 13.7-13l10.6-6-3.4-7.5a37.3 37.3 0 00-5 2.5c-5.8 4.4-12.4 5-19.3 3.7-4.8-.9-9.6-2-14.3-3-3.9 3.6-7.5 6.7-13.2 6.5-4 0-7.3-1-10.3-4a13.2 13.2 0 00-9.9-4.3c-2.8.1-4.7 2-6.2 4.1-4.2 5.8-10 7.3-16.6 6.4a67.3 67.3 0 01-7-1.8zM730 933.6l-1-.6-3.4 2.2c-3.8 3-7.5 6-11.4 8.9a85 85 0 00-21.9 24 43.6 43.6 0 00-6 30c.7 4.3 4.2 8.3 8 8.4 9.4.3 18.7.1 27.8.1 0-12.5-.4-24.8.1-37.1s2.6-24.5 7.8-35.9zm-416 82.5a24 24 0 004.1.5c7.9-.4 15.7-.8 23.6-1.4 3.5-.3 7-1.1 10.4-1.4l49.4-4a32.5 32.5 0 005-1.2c-3-7.8-3.5-8-10.8-6.8-2.5.4-5 1-7.6 1.3a291.2 291.2 0 01-42.3.6c-4.6-.2-6-2.2-5.1-6.7a31.6 31.6 0 011.2-4.1l1.9-4.8a61 61 0 00-32.9 2.9c-.7 8.4 2 16.4 3.1 25zm413.6-14.4c6.9 2.6 8.1 2.3 10.7-4a95.5 95.5 0 004-12.7c.4-1.9 1.8-4 0-6a1.9 1.9 0 01.2-1.8c3-3.2 2.5-7.1 2.8-11 .2-2.8.6-5.7 3.3-7.6a4 4 0 001.4-2.8c.3-9 .7-18 .5-27 0-3.2-1.6-6.4-2.6-10-4 2.3-7.2 4.5-8.8 8.2-2.5 5.7-5.1 11.4-6.9 17.4a111.6 111.6 0 00-4.4 30.4c0 5.2-.2 10.3-.3 15.5v11.4zM213.2 838.9c.3 4-.3 4.7-3.5 4.1-2.5-.4-4.9-1.2-7.3-1.9l-3.9 6.4c1.5 1 2.9 1.8 4 2.7a19 19 0 013.6 3.3c1.6 2 1 3.9-1.3 6-.4-.3-1-.5-1.2-.9-5-8.7-13-10.5-21.6-4.8-1.8 1.3-3.8 1.8-6.1.5.4 1.3 1 2.6 1.9 3a48 48 0 006 1.6c3.3.9 7.4.1 10 2.9 2.8 3 6.3 4 10.1 4.9 9.7 2.1 16-2 17.9-11.8 1.3-7 2.7-14.1 3.7-21.2a19.5 19.5 0 00-.5-6.6c-.4-2.2-1.8-3-4.2-3.1a71.2 71.2 0 00-23.6 3.9c-1.5.5-3.5 1-3.8 3.5 5.7 4.5 13.2 4.4 19.8 7.5zm201.9-188.4l.8-.2a28.5 28.5 0 000-5c-1.6-8.9-3.1-17.7-6-26.3a39.4 39.4 0 00-8.2-13.5c-3-3.2-4.5-3.4-7.5-.3-6.6 6.9-13.3 13.6-19.5 20.8a167 167 0 00-20 29.4c-1 2-2.2 3.8-3.3 5.8a26.7 26.7 0 005.2-5.2 129.1 129.1 0 0131.7-27.1 12.5 12.5 0 0115.5 2 38.6 38.6 0 018.7 13.7c.7 2 1.6 4 2.6 6zm547.6 263.1l-.7-1c-2.5 1.6-4.8 3.2-7.4 4.5a104.3 104.3 0 01-9.5 4.4c-9.7 3.8-19.3 7.9-28 13.8-7 4.8-14.3 9.1-21.6 13.6l-21 12.4 3.8.2c7 .2 14.1.1 21.2.7a10.4 10.4 0 008.2-2.5c6.2-5.3 12.6-10.5 18.9-15.7l36.1-30.4zm-547.2-125a37.6 37.6 0 00-1.4 5.1c-.7 5.6-1.3 11.2-1.7 16.8-.2 4-.6 8 2.6 11.3 7.3-2.2 15.2-1.8 22.9-5l-1.5-24.9zm-172.3-64.7a21 21 0 01-11.2-17.6c-3.3 2.8-6 5.2-9 7.4-3 2.3-3 7-6.6 9-.3 0-.3.8-.4 1.3l-3 18.6c10.6-14.2 14.3-16.5 30.2-18.7zm8.7-37.6c-8.3 1.3-13.3 5.9-18 11.4 4.2 1.8 4.2 1.8 4.3 7 0 7.6 3.3 11.9 10.9 14-1-6.6.5-12.9 2.4-19 1.3-4.2 1-8.4.4-13.4zm-57.4 265c14.4 1 27.5-3.4 40.4-8.2 2.4-1 5.1-1.7 6.6-4.4-8.2-2.2-21.6.7-27.9 3.9-3.3 1.7-6.3 4-9.6 5.5a5.7 5.7 0 01-4.8-.1c-1.5-1-.4-2.9.5-4.3l1.5-1.9 2-3.9-.8-.5c-4 3.7-5 9.1-8 13.8zm160.4 11c-2.2-1.5-4.5-1.2-6.8-.2-2.6 1.2-5 2.7-7.5 4.2l-11 6.5c-1.8 1-3.4 2.1-5.5 3.5a29 29 0 0027.7-4.8c3-2.5 4.4-5.2 3-9.2zm-122.3 4.2a21.7 21.7 0 00-13.7-.2c-4.7 1.3-9.4 2.3-14 3.4-2 .4-3.9.9-5.5-1.6.8-1.6 2-3.3 2.8-5.1s1.4-4 2.1-6c-3-1-5 0-6.3 2.3a26.1 26.1 0 00-2.4 5.7c-1.5 6 2.1 10.6 8.3 10.6a31.1 31.1 0 009-1.2c4.8-1.6 9.5-3.7 14.3-5.6l5.4-2.3zM455.9 690c-5.7-3.8-6.9-4-12.6-2.6a17.9 17.9 0 007 14.6l5.6-12zM330.3 926.2c2.1-7 7.9-10.4 10.8-16-7.8 3.7-15.8 7.2-21.2 15.4zm-21-226.4a2.2 2.2 0 001 0 50.8 50.8 0 0017.4-12.4c2.9-3 3.4-6.8 2.9-11.2zM219.6 681l1 .4c2.2-3 7-4 6.7-9.6l-7.7.5zm120.2 243c6.3.3 12.1-1.8 17.7-4.7-6.2.6-12.3 1.4-17.7 4.8zm-6.9 23.7c4.9.8 8.6-.7 12.8-2-8.4-3.2-8.4-3.2-12.8 2zm15-8.4c6.7 1.7 9.7 1.3 11.6-1.6-5.8-.8-7.1-.6-11.7 1.5zm-157.6-93.6c3.9 1.4 4.6-1.2 5.9-2.8a16 16 0 001.4-3.1l-3.4-1.2c-1.3 2.5-2.5 4.7-3.9 7zm141.8 86.5c-3.3.2-4.5 1.2-5.2 3.5 3 .7 3.2-1.7 5.2-3.5zm-10.6 12.5l1.1.4 1.6-3.6-1-.5zm-106.2-8.8l-.2-.7-3.7 1.2.3.9z"/><path d="M1200 205.5l-12.5.8-28.9 1.3-37.6 1.8c-13.7.6-27.2 2.5-40.7 4.5s-27.4 3.3-41 5c-15.7 2-31.3 4.4-46.9 6.3-9 1-18.2 1.4-27.9 2a21 21 0 01.8-2.7l17-35.6c1.1-2.3 2.6-4.4 4-6.8 7.1 4.5 14.6 3.4 22 3 4.2-.3 7.5-4.3 8-9 .2-2.9 0-5.8 0-8.7a3.3 3.3 0 00-.4-1.9c-4.1-5.5-9-10-16.2-11a46 46 0 00-7.2-.4c-5.9 0-9.2 2.4-11.1 8a25.7 25.7 0 00-1.7 8c0 2.3 1.2 4.7 1.8 7.1L957.7 227c-9.1 0-18.2-.2-27.2 0a132 132 0 00-36 5.2c-8.5 2.7-17 4.8-25.6 7a67.7 67.7 0 01-7.3 1l6.8-7.6c11.8-12.6 23.5-25.2 36.7-36.4 8.5-7.3 17.5-14.1 26.3-21.1a23.6 23.6 0 003.7-3.1 4.8 4.8 0 001.2-3.3c-.3-1.7-1.8-2.2-3.4-2-3.3.5-6.6 1.4-10 1.5-6.4.3-13 1-19.3 0-4.4-.6-8.7-3-12.7-5.4-3.3-2-4.1-6-4.5-9.7 0-1.1 1-2.8 2-3.5 5.5-3.9 10.9-8.1 16.8-11.3q18.5-9.8 37.5-18.7c10.6-5 21.5-9.4 32.4-13.6s22.1-7.8 33.2-11.5c4.7-1.6 9.7-2.5 14.4-4a74.8 74.8 0 0115.8-4c1-.1 2.5-1.7 2.4-2.4a4.6 4.6 0 00-2.4-3c-1.2-.6-2.8-.2-4.2-.3l-19.3-1.3a24.8 24.8 0 01-4.3-1.4c3-2.5 5.3-4.6 7.8-6.5 12.7-10 27-17.4 41.6-24.3 6-2.9 12.4-5.2 18.7-7.6a255.7 255.7 0 0139.6-11.8 124 124 0 0128-2.2l3 5.5a50.4 50.4 0 0011.3 14.8c3.5 3.3 6.2 2.6 7-2.1a55.7 55.7 0 015.6-16.9A48.2 48.2 0 011200 3.2z" class="cls-1"/><path d="M1200 1365.8c-3.8-1.1-7.6-2.6-11.5-3.4-5.2-1-9.4-3.5-13.5-6.6l-16.1-12.3c-2.6-2-4.8-4.2-5.4-7.7a12.2 12.2 0 00-2-4.4c-6.2-9.3-12.1-18.8-18.8-27.9-4.1-5.6-9.2-10.6-14.1-15.8l-18.2-18.5c-3-3-5.4-6.5-8.3-9.4-4.6-4.7-4.1-10.5-2.8-15.9 1-4.2 3.6-8 6-11.8 2.5-4 5.4-7.6 8.2-11.3a25 25 0 004.2-14.6c.3-7.7 1.2-15.4-1-23a109 109 0 00-17.7-38.8 172 172 0 00-14-15.4 369 369 0 01-34.3-37.3c-9-11.8-18-23.5-25.1-36.5l-7.4-13a52.5 52.5 0 01-2.2-5.3l4.7-.3c4.5-.1 5.3-.7 5.5-5.3q.2-8.5 0-17-.3-10.6-1-21.2c-.3-4.4-1-8.9-1.6-14l7.2 2.5 27.3 7.8c8 2.4 16.2 4.2 24.7 4 2.4 0 4.7.7 7.1 1 9.3.8 18.6 1.5 27.8 2.6 9.6 1.1 19 2.4 28.5 4.2 11 2 22 4.8 33 7.1 4.8 1 9.8 1.4 14.6 2.2l16 3z" class="cls-1"/><path d="M0 371V240.3c7.3.5 13.4-2.9 19.4-6 9.4-5 18.7-10.2 27.9-15.3a76 76 0 0124.1-9.3c10.5-1.8 20.4.1 28.7 6.8 12 9.5 20.2 22 25.1 36.4 3.6 10.5 5.6 21.4 7.4 32.4 1.6 9.6 3 19.3 9.1 27.6a8.5 8.5 0 006.8 3.8c12.4.9 24.3-1.4 36-5.2a341.8 341.8 0 0034.8-13c9.5-4.3 19.2-8 28.9-12 7.7-3.3 15.5-6.1 23.9-7.2 9.8-1.1 15.4 1.4 19.4 9.1a52 52 0 014.5 14.8 124.3 124.3 0 012 20c0 6.2 2 7 7.3 8.2 4.8 1 9.5 1.8 14.3 2.3 12.1 1.5 24.2 3.4 36.4 3.9 12.4.5 24.8-.4 37.2-.6h13.4c0 17.4-3.5 33.5-8.2 49.5a16.7 16.7 0 01-3 0l-13.2-3c-13.1-3-26.5-2.9-39.9-3-15.6 0-31.2.8-46.8 1q-33.6.2-67.2 0-27.3-.2-54.6-.7-16.7-.4-33.3-1.4c-11.4-.6-22.7-1.6-34.1-2.5l-22.6-1.8c-8.6-.7-17.3-1.5-26-2-8.3-.5-16.6-.8-25-1.2l-8.7-.2-24-.7z" class="cls-1"/><path d="M0 665.2a49.3 49.3 0 004.9-5.1c4.6-6.4 8.8-13 13.6-19.3 10.7-14 21.2-28 34.1-40 10.3-9.5 21-18.6 31.4-28 12.5-11.4 24.8-23 37.2-34.4 6-5.6 12.2-11 18.8-17l6 17.5 10 29.1 12.4 37c1.4 4.1 3.2 8 5 12 2.5 5.9 2.7 12.2 4 18.3 2.3 10.8 4.9 21.6 7 32.5A140.5 140.5 0 01186 685c.4 6.7.4 13.5.7 20.3a87 87 0 01-4.3 32.3c-3.3 9.6-4.7 19.6-6.1 29.6a95.7 95.7 0 01-3.3 13.2c-.3 1-1.5 1.9-2.5 2.6a21.5 21.5 0 01-3 1.3c-2.8 1.4-4.2 3.4-3.8 6.6.6 3.8 1 7.6 1.3 11.5.2 2.7.4 5.5-.3 8-1.3 4.2-2.3 8 1.7 11.6a46 46 0 01-20.8-.4c-2.5-.4-5-1.3-7.4-2a35.4 35.4 0 00-6.1-1.3c-13.3-1-26.6-1.6-40-.3-13 1.3-25.8 3.2-38.6 5.3-9.2 1.5-18.5 2.1-28.6 3.2a27.7 27.7 0 011.7-3.2c8.4-10.2 19-18.1 28.6-27.2a753.8 753.8 0 0032-31.6 64.4 64.4 0 0014.8-50.1 34.2 34.2 0 00-7.6-16 59.4 59.4 0 00-25.7-18.9c-13-5.4-26.5-7.4-40.3-8.7A143.3 143.3 0 000 671z" class="cls-1"/><path d="M1200 734.9l-29.9 13.4-14.7 6.5c-.6-1.2-1.6-2.3-1.7-3.4-.4-9-1-18-1-27 .2-33.5.6-67 .6-100.4 0-23.5-.4-47-1-70.5-.4-16-1.2-32.1-1.9-48.2-.6-13.8-1.2-27.6-2-41.4l-2.7-43.3c-.7-11.7-1.5-23.4-2-35-.8-14-1.2-28-2-42-.8-11.7-1.9-23.3-2.8-35-.6-7-.8-14.1-1.7-21-1-6.9-2.5-13.6-3.8-20.4l-.5-3.5c22.3 6 44.5 9.3 67 11.5z" class="cls-1"/><path d="M0 676.8c6.6-2 13.3-2.1 20-1.7a212.5 212.5 0 0123 2.6c12 2.2 23.7 5.6 34.2 12.4 8.5 5.5 15 12.8 18.6 22.2a31 31 0 01.8 20.8l-1.1 4.1A70 70 0 0178.3 766a602 602 0 01-38 35.6 136 136 0 00-23.2 24.3c-1 1.4-2.3 2.5-1.5 4.3a4.1 4.1 0 004.4 2.3c4.8-.3 9.6-.5 14.4-1q24.1-3.1 48.2-6.5a160 160 0 0128.8-2c6.8.2 13.5.8 20.2 1.3a13 13 0 013.8.8 64.3 64.3 0 0026.5 3.4c3.4-.1 6.8-2.4 10.2-3.7 1.4-.5 3-.7 5-1.3-1.8 3.2-5.8 4.6-4.4 8.2 1 2.6 3.1 4.7 4.9 7.2-.6 1.2-1 2.7-2 3.7-2 1.8-.9 4.1-1.5 6.1s-2.4 3.7-2.4 5.5a22 22 0 01-2 9.6 9 9 0 001 9.2c.7.9 1.6 2.2 1.3 3-1.7 4.5 1.2 7.7 2.9 11.7-10 3.7-19.8 7.7-30.5 9.5l-.2-4.3c-.7-.3-1.4-1-2-.9l-12 1.2a82.1 82.1 0 01-55.4-12.3c-1.7-1-3.5-1.5-4.8 0s-.2 3 .8 4.3l10.7 14.3c.6.7 1 1.5 2 3.2a40.4 40.4 0 01-4.1-1.8c-11.8-6.7-23.7-13-35.1-20.2-5.7-3.5-10.4-8.6-15.7-12.8a11 11 0 00-5-2.3c-2.6-.4-3.6 1-2.7 3.5 1.4 4.1 3 8.2 4.7 12.2l5.6 13.2a25.4 25.4 0 01-3.3-1.7L4.5 875 0 871.3z" class="cls-1"/><path d="M1200 270.4c-11.4-1.6-23-3.1-34.4-4.9-4.7-.7-9.4-1.8-14.1-2.8l-15.6-3.1a18 18 0 01-11.3-6.7c-11.4 5-22.7 10-34 14.7-12 4.8-24 9.3-36 13.9l-54.4 20.9-2.3.8c-2.8 1-5.8 2.9-8.6 2.7s-5.3-2.6-8-3.6a62.1 62.1 0 00-10.2-3c-6.4-1.2-13-2.2-19.4-3.1-2.9-.4-5.7-.6-9-.9 3.7-22.1 9.3-43.4 19.5-63.1 9.2-.6 18.2-.9 27.2-1.7 8.1-.7 16.2-1.8 24.3-3l34.4-4.7c19.9-2.8 39.8-5.6 59.7-8.1 7.5-1 15-1.2 22.6-1.6l31.8-1.7 33.2-1.3a34.8 34.8 0 004.7-.7z" class="cls-1"/><path d="M1200 870.4c-4.7-2.5-9.1-5.5-14-7.4a123 123 0 01-30.4-18.1c-5.5-4.2-11.4-7.8-17.2-11.6-3.8-2.5-7.4-5.1-11.3-7.2a196.8 196.8 0 00-19.4-9.7 114 114 0 00-36.4-8.8c-6.7-.4-13.4-1.4-20.1-2-6.2-.7-12.5-1.1-18.7-1.9a84.9 84.9 0 01-9.9-2.1c-4.8-1.3-9.6-2.5-14.3-3.9a11.8 11.8 0 01-2-1l2.7-3.4c-.5 0-1-.4-1.4-.3l-4.8 2.5a209.8 209.8 0 010-48.8c47.7 7 95.4 11.5 143.7 10.5-.4.8-.4 1.2-.6 1.4-1.2.7-3.3.5-2.9 2.6s2.3 1.9 4 1.9c4.3.1 8-2.3 11.7-3.9 12.3-5.2 24.5-10.5 36.7-15.9a47.5 47.5 0 004.6-2.6z" class="cls-1"/><path d="M0 879c3.6 2.8 7 5.5 10.7 8.2l24.7 17.7c1.4 1 3.1 2.3 4.8.7s1.3-3.5.4-5.4l-7.8-17c-.6-1.3-1-2.6-1.7-4.6 5.5 3.7 10.1 7.2 15 10.1C58.5 896 70.8 903.5 84 909a3.3 3.3 0 001.4.5c2-.1 4.5.3 5.8-.7 2.1-1.7.9-4.2-.3-6.1-2-3.3-4.2-6.5-6.8-10.5 11.2 3.7 21.8 6.9 33.3 6 .4 4.6 3.4 5 7.1 5a104 104 0 0028.7-3.2c5.2-1.4 10.3-3.6 15.4-5.6 3-1.1 5.8-2.5 8.6-3.7 5 1.9 8.8 6.6 15 5.4 1.2 6.6 6 8.6 12.6 9.6a47.4 47.4 0 01-4.3 3.1c-3.3 1.9-5.7 4.2-6.1 8.1-.4 3.4-2.2 5.8-5 7.7-7 5-13.6 10.3-20.6 15.3-3.3 2.4-7 4.3-11.4 7a27.3 27.3 0 011.5-3.8c1.2-2 2.8-3.6 3.8-5.6a4.5 4.5 0 00.4-3.4c-.2-.7-2-1.2-2.9-1-3 1.3-6 2.4-8.5 4.3-7 5.6-13.8 11.5-20.6 17.5a83 83 0 01-23.9 15c-9.3 3.7-18.4 8.2-27.8 12-6.7 2.6-13.7 4.7-20.5 7a7 7 0 01-4.1-.1l8-6.5 2.8-2.1c1.6-1.6 2.8-3.6 1.7-5.6-.6-1.2-2.7-2.2-4.3-2.4l-28.6-4a43 43 0 01-25.5-13.4c-.2-.2-.2-.6-.4-1.2 2.2.5 4.2.8 6.2 1.4 5.2 1.5 10.5 1.4 15.8 1.3a3.5 3.5 0 001.9-.3c1-.7 2.2-1.6 2.4-2.6a3.9 3.9 0 00-1.4-3.2 96.4 96.4 0 01-25-25C6 922 4.2 918.6 2 915.4a22.6 22.6 0 00-2.1-2.5z" class="cls-1"/><path d="M1200 890.7c-1 5-2.5 10-2.6 15-.3 16.4-.2 32.7-.1 49 0 9.1.6 18.3 1 27.4v5.5l-9.2-1.8a77.2 77.2 0 01-21.2-9.1c-10-5.5-19.5-12-30.9-15a14.8 14.8 0 01.7-2.3c5-10.3 10.2-20.4 14.8-30.9 3-6.5 5-13.5 7.3-20.3a8.1 8.1 0 00.3-2.9c-.2-8.7-.4-17.4-.8-26-.7-14.8-9.4-24-22.4-29a71.9 71.9 0 00-20-4.7 315.6 315.6 0 01-67.7-12.7c-7.7-2.4-15.5-4.3-23.2-6.6s-13.9-6.6-16.8-14.5c-1.1-3-2.7-5.7-4.4-9.2a18.3 18.3 0 013.7.3 129.6 129.6 0 0032.3 7.2c5.5.5 11 .7 16.4 1.2 12.6 1 25.3 2 37.5 6.2a90.4 90.4 0 0119.3 8.4c2.3 1.5 5.1 2 7.4 3.4 6 3.6 11.7 7.3 17.4 11.2 10.4 7.2 20.7 14.6 31.2 21.7 3.4 2.3 7.5 3.5 11.2 5.4 6.3 3.1 12.5 6.4 18.8 9.6z" class="cls-1"/><path d="M1200 1007.8l-8-1.2c-4.2-.6-8.3-.9-12.4-1.6-4.5-.7-8.9-1.7-13.3-2.6-11-2.3-21.9-4.8-32.9-7-2.8-.6-5.8-.3-8.6-.7l-24.3-3.9h-.4c-9.3-.8-18.6-1.4-27.9-2.3a147.8 147.8 0 01-17.1-2.6c-8.1-1.8-16.2-4-24.3-6.2-3.7-1-7.2-2.6-11-3.5-2-.5-4 0-6.5 0a81.6 81.6 0 01-4-32c.8-9.4 6.3-16.3 13-22.4 2.4-2.3 5.2-4.2 7.6-6.1l9.9 6.3 5.5 2.8 23 11a6.3 6.3 0 011.3.7c6.1 4.9 13.4 7.5 20.4 10.6 9 4 18 8.6 26.9 12.9l6.2 3v11.6c6.7 1.5 6.7-5.3 11-7.7 4 0 8.2 2 12.3 4 6.9 3.5 13.8 7 20.3 11.1a72.5 72.5 0 0026.4 9.9c3.5.6 6 1.6 7 5.1z" class="cls-1"/><path d="M0 371l24.1.8c2.9 0 5.8 0 8.7.2 8.4.3 16.7.6 25 1.1l26 2 22.6 1.9c11.4.9 22.8 1.8 34.1 2.5q16.7 1 33.3 1.3 27.3.6 54.6.7h67.2c15.6-.1 31.3-.9 46.9-.9 13.3 0 26.7 0 39.9 3l13.1 3a16.7 16.7 0 003 0c4.7-16 8.2-32.2 8.2-49.5h-13.4c-12.4.2-24.8 1-37.2.6-12.1-.6-24.2-2.5-36.4-4-4.7-.5-9.5-1.3-14.2-2.2-5.3-1.1-7.3-2.1-7.4-8.2a124.3 124.3 0 00-2-20 52.6 52.6 0 00-4.5-14.8c-4-7.7-9.6-10.2-19.4-9-8.4 1-16.2 3.8-24 7-9.5 4-19.3 7.8-28.8 12a341.8 341.8 0 01-34.7 13 93 93 0 01-36 5.3 8.5 8.5 0 01-6.9-3.8c-6-8.3-7.5-18-9-27.6a201 201 0 00-7.5-32.4 77.5 77.5 0 00-25.1-36.4 34.8 34.8 0 00-28.7-6.8c-8.6 1.5-16.5 5-24.1 9.3a1059 1059 0 01-27.9 15.2c-6 3.2-12.2 6.6-19.4 6.1v-5.7c5-.2 9.7-2.3 14-4.6 11.5-6.1 22.9-12.4 34.3-18.6s23.3-9.3 36.2-7.8a40.5 40.5 0 0122 9.8c12.8 11 20.5 25 25.5 40.7 3.6 11.4 5.3 23.2 7.4 34.9a49.4 49.4 0 006.2 18.5c1.6 2.4 3.3 3.2 6.3 3.4 10.7.7 20.7-2.3 30.7-5.2 14-4.2 27.5-9.9 41-15.6q16.4-7 33-13.4a50.8 50.8 0 0123.7-3.2c8.6.9 14.3 6.4 17.4 14.2a78.6 78.6 0 016 30.6 28 28 0 00.2 2.8c.4 3.9.4 3.7 4 4.6 12.9 3.3 26 4.4 39 5.8 18.5 2 37 .5 55.6.6h5.3c3 .2 3.5.7 3.6 3.9a114.3 114.3 0 01-2 26.8l-6.5 29.4a41 41 0 01-15.1-2 129.6 129.6 0 00-32.5-4.6l-19.3-.3-31.5.3c-14.8.2-29.6.6-44.4.6-25 .1-50 .2-75 0-12.8-.2-25.7-1-38.5-1.7-12-.6-23.8-1.3-35.6-2.2-17.8-1.3-35.6-3-53.3-4.4-2.4-.2-4.9 0-7.3-.2l-46.7-2H-.1z"/><path d="M0 925.5c.7.3 1.5.5 2 1 3.5 4.5 7 9.1 10.7 13.6 1.8 2.1 4.1 4 6.2 6l3.9 4-.6.8-17.1-4-5.1-1.1z" class="cls-1"/><path d="M147.2 1477c-2.7-3.1-4.6-5.5-6.7-7.6l-24.3-24.2c-5.5-5.4-11.4-10.4-15.5-17.1-1.7-2.8-3.2-5.6-2.8-9 .3-3 1.4-3.9 4.4-3.4a96.7 96.7 0 0126.2 7.8c10.3 4.7 20.5 9.3 30.6 14.3 6.6 3.3 12.9 7.2 19.8 10.4-2.8-3.8-5.5-7.7-8.4-11.4-6.7-8.6-13.7-17-20.4-25.7-3.4-4.3-6.5-8.7-9.7-13.2a7.6 7.6 0 01-1-2.7c-.5-2.7.5-4.2 3.3-4a31.1 31.1 0 018.3 2.3 261.3 261.3 0 0152.6 29c6.3 4.4 12.8 8.5 19.2 12.7l.8-.6c-2-3.7-4-7.5-6.1-11.1-7.9-13-15.5-26-23.9-38.6-6.2-9.4-13.2-18.2-20.1-27.1-5.3-7-11-13.5-16.4-20.3a30.3 30.3 0 01-3.5-5.2 3.3 3.3 0 01.2-3c.5-.6 2-.8 3-.7a8 8 0 012.6 1.2 288 288 0 0151 33.9c18.1 15.5 36.6 30.8 54.8 46.4 7.6 6.5 14.7 13.5 22 20.4l27 25.5c5.7 5.6 11.7 11 17 17a225.3 225.3 0 0115.5 20.3 19.6 19.6 0 013 17.2c-1-.8-2-1.2-2.4-2a7.6 7.6 0 01-.7-2.8c-.6-4.7-1.8-9-5.7-12.3-1.2-1-2-2.5-3-3.8a265 265 0 00-29.3-31.3c-11.5-11-23.4-21.7-34.8-32.7-19.9-19.1-41.6-36-62.4-54a291.8 291.8 0 00-37.8-27.6l-2.5-1.4-2.6-1 14.4 19c3.6 4.7 7.5 9.3 10.7 14.3 7.6 11.5 15.1 23.2 22.3 35 5.5 9 10.4 18.4 15.6 27.6.8 1.4 1.9 2.6 1.1 4.5-1 2.6-2 3.3-4.7 2.3a35.3 35.3 0 01-6.4-3.2l-37-24.5a214 214 0 00-34-17.2 15.5 15.5 0 00-2.2-.4l8.7 11.2 34.9 45c1.4 1.9 2.6 3.7 1 6.1-2.2.9-3.9.3-5.8-1-14.9-9.2-30-18.1-46-25.5-10.2-4.7-20.4-9.6-31.4-12.3-1.8-.5-3.7-.7-6.3-1.2a50 50 0 009.4 13.2l24.1 23.7q6.7 6.6 13.2 13.3a26.9 26.9 0 013.9 5c1.8 3.1.6 5.2-3.1 5.3H131l-2.8.2 2 6.6c2.2 5.9 4.4 11.7 6.4 17.7.4 1.3.6 3.3 0 4.4-1.1 1.8-3.2 1-4.9.5l-7.2-2.4c1.2 3 1.8 5.5 3.1 7.5a18 18 0 012.2 16.5c-.7-2.5-.8-4.3-1.6-5.8-2-3.9-4-7.6-6.2-11.3-1.6-2.7-3-5.3-2.8-8.6.3-4.1 2-5.3 6-4 1.5.4 3 1 4.9 1.8-.2-4.8-2.6-8.4-4-12.4-1-3.2-2.5-6.3-3.6-9.5a7.5 7.5 0 01-.4-2.4c0-3 .5-3.6 3.6-3.7h15z"/><path d="M396.3 1126.7c-1.2-2.4-.4-3.6 1.5-5q16.5-12 32.8-24.5c12.7-9.7 25-19.8 36-31.4 3.7-3.8 7-7.8 10.6-11.8l-.5-.8c-3 1-6.1 2-9 3.2a180 180 0 00-45 28 977 977 0 01-18.7 16 16.4 16.4 0 01-4.1 2.4c-.7.3-1.7-.1-2.6-.2.1-.9-.1-2 .4-2.6a66.8 66.8 0 017.3-7.6 808 808 0 0123.5-19.3 182.5 182.5 0 0144.3-24.2 26 26 0 018.5-1.5c2.9-.1 4.1 1.2 3.2 3.9a25.9 25.9 0 01-4.7 8.1c-15.8 19-35 34.1-54.6 48.8l-13.8 10.6a16 16 0 01-2.1 1.2l.7 1 42.2-7.1a142.7 142.7 0 0129.8-1.6 4.7 4.7 0 011.3.4c1 4.2 1 4.7-2.2 6.3a210 210 0 01-20.1 9.4c-12 4.6-24.3 8.5-36.3 12.9a261 261 0 00-21.4 9c9.3 2 19 2 27.7 5.5 1 5 1 5.3-2.7 7.9-1.5 1-3 1.8-4.6 2.6a130 130 0 00-23 16.6 6.6 6.6 0 01-2.7 1.9 4.6 4.6 0 01-3.4-.8c-1.5-1.3-.2-2.8.7-3.7 2.1-2 4.5-3.6 6.7-5.5a148 148 0 0120.8-14l2.2-1.7-14.4-2.4c-5.4-.8-10.9-1.3-16.2-2.1a4.3 4.3 0 01-3-2c-.8-1.6.3-3 2-3.8 4.8-2.2 9.5-4.7 14.4-6.6l50.2-18.4a66.6 66.6 0 0013.2-6.5 10.8 10.8 0 00-2.4-.2l-34.8 5.3c-9.7 1.5-19.4 3-29 4.2a64.2 64.2 0 01-8.7 0z"/><path d="M397.4 1075c.3 6.2.4 11.9-1.4 17.5s-3.4 11.1-4.8 16.7c-.5 2-1.3 3.2-4.1 3a38 38 0 01.4-5.5c1.4-6.6 3-13.1 4.5-19.7.5-2.3.6-4.7 1-7.4-3.8.2-5.7 2.4-7.6 4.4a117.4 117.4 0 00-16.7 24.2c-6.7 12.7-13 25.5-19.6 38.2-1.1 2.2-2.6 4.1-3.6 6.3-1.3 2.8-3.2 4-6.6 2.9l-1.3-17.5a85 85 0 00-7.7-30.7 15.1 15.1 0 00-1-1.6l-1-.4a48.4 48.4 0 00-.6 5.7c0 8.7-.3 17.4 0 26 .2 5.8 1.2 11.6 1.6 17.3.3 5 .3 10 .2 15 0 3.3-1.3 4.5-4.5 3.6a14 14 0 01-5.4-3.1 68.5 68.5 0 01-5.5-6l-1 .6c.7 2.8 1.6 5.6 2 8.5a38 38 0 01.4 6.2 2.5 2.5 0 01-2.2 2.8h-.1l-6.6-20.6c-.6-2-1.2-4.5.7-5.8s4.4-.2 6.2 1.3c3.5 2.8 6.8 5.8 10.6 9a17.1 17.1 0 00.5-3.1c-.3-4.8-.4-9.7-1-14.5-1.7-12.5-.6-25-.9-37.6a54 54 0 01.8-8.1 11.2 11.2 0 011-3.2c1.7-3.4 4.5-4 6.6-.8a64.4 64.4 0 016 11.5 94.8 94.8 0 015.9 29.7c0 1.3.3 2.6.7 4.8a23.9 23.9 0 001.6-2.3c5.7-10.8 11.5-21.6 17-32.5a146.6 146.6 0 0116.2-25.7c3.1-3.9 6.5-7.5 11.2-9.6 3.4-1.5 4.2-1.4 8.1.6z"/><path d="M232 981.8c.4 8-7.2 8.7-11 13.3l5.1.2H262a23.8 23.8 0 013.4.1 4.1 4.1 0 013.8 4.4 4.4 4.4 0 01-.2 1.2 12.2 12.2 0 01-2.4 4.2 23.6 23.6 0 00-5 11.2c-.9 3.9-1.7 4.6-5.5 4.7a26.4 26.4 0 01-4.8-.4l-43.7-7.2c-4-.6-7.9-1.4-11.8-1.8-4.3-.5-8.6-.9-13-1.2s-5.9-1.7-4.4-5.7c2.4-6.6 5.3-13 8-19.6a3.5 3.5 0 013.8-2.4l2.4-.1 34.7-1.2 4.8.3zm23 33.2l6-13.8h-42.2a17.7 17.7 0 01-3.9-.2c-3-.7-4.2-3.2-2.3-5.8a38.5 38.5 0 015.5-5.4c1.1-1 2.4-1.8 4-3l-30.1.8-6.6 16.3z"/><path d="M73 1118.7c-6.6 1.6-10.4-2.7-15.5-3.7 1.2.9 2.6 1.6 3.4 2.8s1 2.7 1.6 4.4l-10.5 3.2-.4-.7 5.2-4c-4.1-4.6-11.8-6.3-10.3-14.7 6.5-2.2 10 4.4 16.1 5l-8.2-10.4c-4.6-5.8-9.6-11.3-13.6-17.5-2.7-4.2-4.2-9.3-5.9-14.1-.3-1 .5-2.3.7-3.5 1.2.3 2.5.3 3.4 1a78.8 78.8 0 0019 9.1c6.3 2.1 12 5.4 18 8.1l4.4 1.9a23.6 23.6 0 01-2-15c2.2-1.3 3.4-.2 5 1 4.8 3.8 7.6 9 10.3 14.3 2.5 4.7 4.5 9.6 6.8 14.4a27.5 27.5 0 0010.2 11.4c2-11.4 2.7-22.4 5.6-32.8 4.2-.4 4.5-.2 6 3.2a49 49 0 014.1 18.2c.5 9.6.2 19.3.2 29-3.7.7-5.5-.8-9.3-7.5 2.2-1.6 2.2-1.6 5.6.3.5-11.7.3-23.2-3.9-34.5a17.3 17.3 0 00-.8 2.6l-2.9 19.5c-.3 2 0 4.6-2.4 5.4a7.1 7.1 0 01-7.7-1.6 55.7 55.7 0 01-7.3-9c-2-3.2-3.4-6.8-5-10.4a97.7 97.7 0 00-10.8-18.6l-.9.4 3.7 10.6c.3.7.8 1.2.8 1.8.1 1 .3 2.8-.1 3a4.3 4.3 0 01-3.5.1c-3.6-1.8-7-4-10.6-5.8-4.9-2.4-9.9-4.6-14.9-6.6-5.5-2.3-11-4.3-16.7-6.4a4.5 4.5 0 00.2 2 64 64 0 005.2 8.2c4.3 5.4 8.9 10.6 13.3 15.9s8.8 10.6 13 16c.8 1 .9 2.5 1.4 4z"/><path d="M486.3 979.9c.4 3.7.6 7-.6 10.3-1.1 3.4-2 7-3 10.5-.1.7-.2 1.4-.6 1.8-.6.6-1.6 1.4-2.2 1.3a2.6 2.6 0 01-1.4-2.2c.5-3 1.4-5.9 2.1-8.8s2.5-5.9 2-10c-1.8.8-3.4 1.2-4.5 2.1-3.4 2.8-6.5 5.7-9.7 8.6a30.6 30.6 0 01-4 3.5c-1.1.8-2.7.9-5 1.5.3-4.6.2-8.2.7-11.8.3-2.5 2-3.1 5.2-2.5l-.6 3.6-.9 4c6.9-6.1 12-13.8 22.5-12z"/><path d="M983.4 1236.2a18 18 0 001.8-2c6.7-11.7 14-23 18-36.1a80.6 80.6 0 002.5-31 80.3 80.3 0 00-8.2-28.5c-3.6-7.4-8-14.4-14-20.1-1.9-1.9-4-3.4-4.7-6-.3-1-.2-2.9.5-3.3.8-.5 2.3-.1 3.4.2.7.2 1.2 1.1 1.7 1.7a108.3 108.3 0 0121 31.4c7.7 17.3 8.3 35 4.7 52.9a99 99 0 01-13 30.5c-5.1 8.6-9.8 17.6-15.2 26.1-3.4 5.4-7.8 10.2-11.8 15.2a5.3 5.3 0 01-2.4 1.6c-2.2.7-4.2-.4-3.9-2.7a29.2 29.2 0 012.5-8.2c3.5-7.9 7.7-15.6 11-23.6a75.7 75.7 0 004.7-33.1 9.5 9.5 0 00-3-6.9c-5.1-4.6-10-9.6-15.3-13.9A41.8 41.8 0 01949 1158c-2.1-7.9-1.5-16-2.7-23.9a5.3 5.3 0 01.8-3.6 3.3 3.3 0 013-.6 3.4 3.4 0 011.9 2.4 100.8 100.8 0 011.3 13.4 36.2 36.2 0 007.7 22.8 38.1 38.1 0 006.8 6.8c6.1 4.7 12 9.7 16.9 15.8a14.5 14.5 0 013.2 9.4c-.1 6.2 0 12.5-.7 18.8-.6 4.9-2 9.7-3.2 14.5l-.6 2.5z"/><path d="M1149.5 752.9a8.7 8.7 0 01-2 .5c-10.2 0-20.4 0-30.5-.2a417 417 0 01-22.7-1c-15.5-1.1-31-2.2-46.6-3.9-15.3-1.6-30.6-3.7-45.8-6-13.8-2.2-27.5-5-41.3-7.4-1.8-.3-3.4-.4-4-2.7-.5-1.7-2.3-1.8-3.5-.6a3.6 3.6 0 01-3.8 1.2c-18.7-4-37.5-7.5-56.1-12a710.7 710.7 0 01-68.9-20.4c-10-3.5-19.7-7.8-29.4-12a230 230 0 01-18.2-8.7 107.8 107.8 0 01-11.2-7.5 4 4 0 01-1.4-2.4 38.2 38.2 0 01-.7-6.2c0-5.5.3-11 0-16.4-.7-11-1.6-21.8-2.4-32.7q-1-13-2.4-26l-3-30.6-2.8-29.3-3.1-32c-.8-8-1.4-15.8-2.5-23.6-1.3-9-2.8-18-4.4-27l-4.2-21.9c4-3.9 9.7-2.6 15.1-5.2l-3-1c3-1.8 5.4-3.3 7.8-4.5 10.9-5.6 21.8-11.2 32.7-16.6 3.3-1.6 6.8-2.6 10.2-4 8-3.2 16.3-6 24.1-9.7 16-7.4 31.7-15.2 47.5-22.7a66 66 0 0110-3.6c3.4-1 7.3-.9 9.5-4.6.5-.8 2-.9 3-1.4 4.5-2.1 9.6-3.6 13.4-6.7 3.4-2.7 7.2-3.5 11-5 8.9-3.7 17.7-7.7 26.6-11.3q15.8-6.4 31.8-12.5c28.8-11 57.7-21.8 86.5-33 13.6-5.2 27-10.8 40.6-16.3 3.4-1.4 6.7-3.2 10-4.7a11.2 11.2 0 0111.4 1 9 9 0 013.2 5.1 129.5 129.5 0 013.3 18c1.6 18.4 2.8 36.8 4 55.2.8 13.5 1.2 27 2 40.5.7 11.5 1.7 23 2.5 34.6l1.3 24 1.7 31.4c.5 9.6.8 19.3 1.2 28.9l1.6 28.4.4 12.6 1 68c.2 33.3.3 66.5.7 99.7.1 11.3-.5 22.5-1.4 33.7-.4 3.4.7 7 1.2 10.5zM831.4 415.4a76.4 76.4 0 01-27.5 12.8 99.6 99.6 0 00-13 5c-2.3 1-4.1 3.1-6.4 4-6.2 2.8-12.5 5.3-18.8 7.6-2.2.8-3.1 2-3 4.3.3 4.2.3 8.4.8 12.5l3.2 28.3c.8 6.7 1.3 13.4 2 20.1 2 20.3 4.6 40.5 6 60.9 1.2 15 1 30.2 1 45.3a33 33 0 01-3.3 15.4l-5.3 10.8c-1.4 2.8-1.1 4.2 1.6 5.5a34.3 34.3 0 006.8 2.4c3.7 1 7.5 1.4 10.7 3.7.9.6 2.3 1.4 3.1 1.1 4.7-1.3 8.9 1 13.2 1.6 13.4 2 26.7 4.3 40 6.3l43.5 6 28.1 3.8 26.7 4.1c10.6 1.8 21.3 3.4 31.8 5.5 12.4 2.5 24.8 5.2 37.1 8.2 14.2 3.6 28.3 7.5 42.3 11.4 4.2 1.2 8.3 2.6 12.4 4.1 9.5 3.5 19 7.2 28.3 10.8 3.6 1.4 7 3.5 10.7 4.5 7 1.8 7.7.5 7.7-6 0-25.2.4-50.5.6-75.8l.3-26.1c.2-18.9.6-37.7.6-56.6 0-37.3-.2-74.7-.7-112.1-.1-12.5-1.2-25-2.2-37.6-.8-9.6-2.2-19.1-3.4-28.6l-5.3-37.8-2.6-20.5c0-.6-.2-1.7-.4-1.8-3-.4-1-3.3-2.3-4.8a46.4 46.4 0 00-13.5 3.6c-9 3.5-17.9 7-27.5 8.5a43.4 43.4 0 00-11.7 3.4c-4.8 2.2-9.6 4.7-14.7 5.9-11.3 2.6-21.6 7.2-32 11.7-13.5 5.8-26.6 12.3-40 18.3-2.5 1.2-5 2.8-8.1 2.3-.7-.1-1.7.8-2.4 1.3-1.6 1.2-3 2.8-4.9 3.7-11.4 5.8-22.8 11.7-34.5 17-8.7 4.1-17.3 8.4-26.7 11-10.2 3-20 7-30 10.8l-14 5.6c-1.6.7-3.3 1.6-4.3-1.4z" class="cls-1"/><path d="M438.5 786.3c2-4.5 3.4-8.3 5.3-12 6-11.5 12.3-22.9 16.5-35.2 1.9-5.3 3-10.8 4.6-16.2 3.8-13.6 7.6-27.2 15.8-39 4.8-7 8.8-14.6 13.4-21.8 2.4-3.6 5.2-7 7.8-10.5 7.5-10.3 12.6-22 18.5-33.2 6.8-13.3 11.8-27.4 17.3-41.2 6.3-16 11.4-32.5 21.3-46.8 1.4-2 2.3-4.4 4-7.7 1.7 4.2 3 7.2 4.1 10.3a221.8 221.8 0 0011 25.6c9.5 18.4 23 33.6 36.7 48.9l10.9 12.8c4.5 5.4 8.8 11.1 13.8 16.1 11.3 11.4 23 22.6 34.6 33.7 8.1 7.8 16.5 15.2 25.6 23.5a47.7 47.7 0 01-5.5 1.6c-8.4 1.1-16.8 2.3-25.4 2.2-9.1 0-18.3.2-27.5 1a378 378 0 00-61.4 8.8 188.1 188.1 0 00-40.3 14.3 63.3 63.3 0 00-20.6 16.3 24.2 24.2 0 00-5.4 14.1 42.7 42.7 0 007.6 26c4.5 7 10 13.4 14.8 20.2s10 13.1 13.9 20.2c4.8 8.6 10.2 16.7 15.7 24.8l2 3-10-2.5c-11.6-3.2-23.2-6-35-8.3-15.5-3-31-5.2-46-10.2a61.8 61.8 0 00-24.8-3.2c-3.3.2-6-.6-7.4-3.9a13 13 0 01-1-3.9l-1.2-22.1c-.1-2.5 0-5-3.7-5.7z" class="cls-1"/><path d="M743.8 1003l6.3-25.2c.8-3.1 2-6.1 2.6-9.2 1.1-6 2.1-12 2.9-18 .3-3.4 0-6.8 0-10.2 0-8.3.7-16.8-3.4-25l9.8-6.6c5.9-4.2 11.5-8.7 17.5-12.7 7.7-5 15.5-9.6 23.3-14.4l10.7-6.6 12.4-7.4c12.2-7.1 24.3-14.3 36.7-21.3 7.2-4 14.7-7.8 22.2-11.5l19.8-10c6.6-3.3 13.1-6.7 19.8-9.9 5.6-2.7 11.3-5 17.3-7.6 2.6 4.4 5.3 8.6 7.6 13q12.2 23.5 24.2 47.3a39.3 39.3 0 014.7 20.9c0 1 .2 2-.2 2.8-2.6 5-5.3 9.8-8 14.7h-3.7a18 18 0 00-12 3.6 51.3 51.3 0 01-14.5 7.3 134 134 0 00-29.4 15.3 393.5 393.5 0 01-29.7 18c-10.5 5.8-21.4 11-31.8 16.8a143.5 143.5 0 01-27.4 11.7c-6 1.9-12 3.4-18 5.1l-3.2 1c-9.1 3-18.2 6.2-27.4 9.1l-27 8.6a15.8 15.8 0 01-2.1.4z" class="cls-1"/><path d="M329 769l6-1.1a19.4 19.4 0 01.8 3.5c0 9.5 4.7 17.2 11 23.4 8 7.7 23.2 11 33 4.5 5-3.2 9-8.2 12.7-13 3.4-4.5 5.6-9.7 8.3-14.6 2.2 1.2 4.3 3.2 6.5 3.4s4.7-1.6 7.3-2.6c3.5 2.6 6.2 5.8 7.2 10l-9.4 1.9c-1.7.4-2.2 1.5-2.4 3.2-.8 11-2.4 22-1.1 33.2.6 5.8 3 7.7 9.1 6.5a81 81 0 0114.8-1.8l-3.8 2.7c-2.8 2-2.9 3 0 4.9 5.5 3.5 9.4 8.6 12.8 14a9.2 9.2 0 01.6 1.4c1.6 3.6 1 5-2.7 6a93.2 93.2 0 01-10.7 2.3c-6.7.9-7.3 5.8-5.5 10.7 2 5.5 4.3 11 6.3 16-1.7 3.2-4.2 3-6.3 3.1-4.3.5-8.6.7-13 1l-4.3.4c-5.5.8-5.6 1-5.7 6.8 0 5.3-1.8 8.2-5.8 8.4a25.5 25.5 0 01-9-.8 99.6 99.6 0 01-14.4-5.6c-3.5-1.7-6.1-1-8.6 1.6-3.8 4-8.5 5.5-14 5a8 8 0 01-7.1-5l-1-2.7c-2-4.4-5.2-5.3-9.5-2.8-3.1 1.9-6.2 4-9.6 5.3-5 1.9-10.1.6-15.1-.7-1.1-.3-2.1-.9-3.2-1.1-5.3-1.4-9.9-1.8-14.4 3-4 4.4-7 3.4-11.8-.1a29.6 29.6 0 00-10.6-5.4c-5.2-1-10.1 0-13.7 5-2.4 3.4-5.6 6.3-10.5 5.4a41 41 0 01-4.6-1.2l-9.6-3c-2.4-.7-4.5-.8-6.8.8-1.7 1.1-4.3 1.2-6.5 1.1a64.2 64.2 0 01-11-1.3c-5.3-1.2-5.9-2.3-6.4-8.7a8.9 8.9 0 00-2.2-.4c-8.2 0-14-3.8-17.8-11a13.4 13.4 0 01-1.3-5c-.2-2.5 1.3-5.4-1.7-7.3l1.6-6.7 13.6 2.9a10.2 10.2 0 013.4 1.7c6.3 4.5 13.5 5 20.8 4 5.6-.6 10.5-6 11.8-12.5A838 838 0 00230 832c1-7-4-12.7-11-12.9a69.3 69.3 0 00-23.3 3.6 22.5 22.5 0 00-2.2.8c-7.5 3.2-7.7 9.3-2.3 13.4a21.8 21.8 0 00-2.6 4c-1.4 3.6-3.9 4.9-7.4 3.9.7-2.8 2.5-5.7 2-8.2s-3.4-4.4-5.7-7.1c3.4-2 6.5-4.4 10-5.6 2.6-1 3.5-2.6 4.1-4.7l11.5-37.3a38.3 38.3 0 013.5-9 68.3 68.3 0 001.7 8 27.6 27.6 0 0021.5 18.7c6 1.3 12.2 1 18.3 1a12.6 12.6 0 006.2-2.3 30.1 30.1 0 0011.9-14.7c.5-1.3 1.2-2.5 2-4.2a12.4 12.4 0 011.4 2c7 16.1 30 19.3 42.2 10.5 8.2-5.9 13.5-13.7 17.3-23zm-89.7 70c-6 3.9-6.3 4.9-4.4 11.8a11 11 0 010 4.6c-.6 2.9 1 4.8 3.8 4.2 1.5-.3 2.8-1.4 4-2.2 2.3-1.5 4.3-3.6 6.8-4.4 6.3-2 12.9-3.7 19.4-5.2a158.4 158.4 0 0136.3-4.3c2.9 0 5.8.6 8.6.5 8.4-.2 16.4 1.1 23.8 5 3.5 1.9 7 3.9 10.3 6 1.6 1 3 1.5 4.5.4a2.8 2.8 0 00.3-4.3c-2-2-1.3-4-.3-6.2l2-4.4c1.5-3.4.8-5-2.7-6-2.4-.9-4.9-1.6-7.9-2.5 1-1.9 2-3.5 2.8-5.2 1.2-2.4.4-4.6-2-5.5-4.2-1.6-8.6-3-13.2-2.3a6 6 0 00-3 1 3.3 3.3 0 01-4.4.4c-2.3-1.3-4.6-1.1-7-.5l-15.9 4-6.9 2.5c-1-1.3-2.1-3.8-3.5-4a28 28 0 00-11 .5c-2.8.8-2.5 4.5-3.1 7.1l-.7.7c-2-.8-4-1.9-6.1-2.5-6.3-2-7.2-1.3-8 5.3-2.5-1-5.7-.4-6.5-4.4-.2-1-2.1-2-3.4-2.2-1.9-.3-3.8 0-5.8 0a5 5 0 00-5.2 4.1c-.7 2.4-1 5-1.6 8zm143.5-1.9c-2-4.6-3.5-9-5.5-13.1-1.2-2.6-3.6-3-5.8-1a11.4 11.4 0 00-1.8 2.3 20 20 0 00-2.7 16.1 519 519 0 007.1 26 47 47 0 003.6 7.8 6.6 6.6 0 006.7 3.8 84 84 0 018.7 0 16.8 16.8 0 0011.3-3.5c2.5-1.9 4.9-4.1 7.2-6.3 5.7-5 7.5-11.3 5.8-18.5-2.9-2.6-6.3-2.8-9.6-2-1.5-4.3-3-8-4.2-11.8-1.7-5.3-1.1-10.8-1.3-16.2 0-1.2-.6-3-1.3-3.2a5.8 5.8 0 00-4.4.5 18.7 18.7 0 00-4.7 4.8l-9.2 14.3z" class="cls-1"/><path d="M141.6 506.2a99.4 99.4 0 0113.3 22.9c2.5 5.7 6 10.9 9.6 16 8 11.7 17.8 22 24.2 34.8a47.5 47.5 0 015.9 16.7c.4 3.8 2.8 7.4 4.2 11.2 3.2 8.4 6.9 16.7 9.2 25.3 3 10.8 5.2 21.9 5 33.2 0 4.3.8 8.7.6 13a341.6 341.6 0 01-3.4 43.2 422.2 422.2 0 01-11.6 53.1L188 811.7c-.7 2.2-1 4.4-1.5 6.9-5.7-.7-11.4 0-17-2.6 2.7-7.7 1.4-15.2.2-22.6-.4-2.6.1-4 2.7-4.6 3-.7 5.8-2 9-1.1.8.2 1.8-.2 2.8-.4a2.6 2.6 0 002.6-2.6 2 2 0 000-.3c-.1-2-1.3-2.8-3.2-2.9l-4.4-.3c1-4.1 2-8 2.7-11.9 1.3-7 2.3-14.2 3.7-21.3a103 103 0 013.4-12.6 68.3 68.3 0 003.3-22.8c-.2-11.5-.1-23.1-.7-34.7-.6-10.4-3.1-20.6-5.6-30.7-1.8-7.2-2.8-14.5-4.4-21.7a96.3 96.3 0 00-3.5-11.5c-5.5-15.7-11.3-31.4-16.9-47.1s-10.8-31.6-16.4-47.3c-1.6-4.4-3.4-8.6-3.3-13.4z" class="cls-1"/><path d="M1124.4 957.3c-6.1-3-11.8-6-17.6-8.7-7.4-3.4-15-6.5-22.5-9.7-1.5-.6-3.1-1-4.3-2-7.6-6.2-17.1-8.8-25.3-13.9-4.6-2.8-10-4.5-14.8-6.8-2.1-1-4-2.4-6.4-3.8a48.8 48.8 0 0112.5-9c6.2-3 12.4-6 18.7-8.8a8.7 8.7 0 013.7-.8c9.5.1 19 .3 28.4.6a28.1 28.1 0 016.1 1.2 88.6 88.6 0 0124.1 10.8c3.3 2 5.3 4.7 5.2 9a153.9 153.9 0 01-4.8 31.4c-.8 3.3-1.8 6.5-3 10.5z" class="cls-1"/><path d="M432.7 786l-4.6-3.5c1.4-11 5-21.3 9.1-31.4 6.8-17.2 13.6-34.4 20.8-51.4 5.3-12.6 11.5-24.8 17-37.2 5.2-11.8 10-23.7 15-35.5 2.8-6.8 5.8-13.5 8.8-20.3 1-2.5 2.6-4.9.1-7.5-.5-.5-.1-2.2.4-3 3.8-6.5 7.4-13.2 11.8-19.3 8.4-11.6 17.4-22.8 26-34.2 4.4-5.8 9-11.4 12.8-17.5a116 116 0 0114.9-19 67.2 67.2 0 01-6.6 14 245.9 245.9 0 00-18.3 34.5c-2.7 6.5-5 13.1-7.6 19.7l-9.9 25c-5.4 13.6-12.4 26.2-19.3 38.8-3.3 6-7.6 11.2-11.3 16.9-4.8 7.2-9.6 14.4-14.2 21.8-3.1 5-6.4 10-8.7 15.5-3 6.8-5 13.9-7.4 20.9-3.2 10-6 20.2-9.5 30.2a138.2 138.2 0 01-7.8 17c-2.4 4.8-5.4 9.4-7.8 14.3-1.5 3.3-2.2 6.8-3.7 11.2z" class="cls-1"/><path d="M398 747.5a60.4 60.4 0 01-11.6 37.5c-5.6 7.7-12.6 11.8-23 10.4a26.5 26.5 0 01-21.7-22.9c-.6-10.5-.8-21 2.9-31a36 36 0 0118.8-21.6c12.6-5.6 33.2.5 34.2 20.3 0 2.5.3 4.9.4 7.3zm-25.5 3.6h-.4l1.1 5.6c.4 1.6 1.6 2.7 3.2 2a3.8 3.8 0 001.7-3 40.7 40.7 0 00-1-8 3 3 0 00-2.3-1.8 3.2 3.2 0 00-2.2 1.9c-.4.9-.1 2.1-.1 3.3z" class="cls-1"/><path d="M327.2 746c-.9 14-4.7 26.7-14.7 37.1-8.1 8.5-22.3 9-31 2.9a19.3 19.3 0 01-8.4-16c-.1-4.5-.6-9.1 0-13.5a70.9 70.9 0 014.2-15.3 51 51 0 0114-19.3c5.3-4.6 11.3-5.3 17.7-4.2 8 1.3 13.1 5.9 15.5 13.8 1.4 4.7 3.5 9.3 2.7 14.5zm-23.8 4.6l2 5.4c.6 1.5 1.7 2.8 3.2 2 1-.5 1.7-2.2 1.8-3.4a33.6 33.6 0 00-.7-7c-.1-1-.8-2.4-1.5-2.6a3.3 3.3 0 00-2.8 1.1 21.6 21.6 0 00-2 4.5z" class="cls-1"/><path d="M263.4 760.5c.1 8.5-.7 16.8-5.1 24.2-1.8 3-4.5 5.4-7 8a5.3 5.3 0 01-3.4 1.3c-6.1-.2-12.3 0-18.3-1.2-6.9-1.3-14.8-8.2-15.5-16a98 98 0 01.1-15c.6-7.1 3.5-13.6 7-19.7a22.8 22.8 0 0128.6-10.2 11.7 11.7 0 014.5 2.7c4.8 5.7 9.4 11.5 9 19.6v6.3zm-14.7.5c-.5-4-.7-7.3-1.3-10.5a3 3 0 00-2.4-1.7 3 3 0 00-2.1 2c-.4 3.5-.2 7 1.6 10.2z" class="cls-1"/><path d="M233 907.5a69.9 69.9 0 007 1.7c6.7.9 12.5-.6 16.7-6.4 1.5-2 3.4-4 6.2-4.1 4-.2 7.3 1.8 9.9 4.3 3 3 6.3 4 10.3 4 5.7.2 9.3-2.9 13.2-6.5 4.7 1 9.5 2.1 14.3 3 7 1.3 13.5.7 19.3-3.7a37.3 37.3 0 015-2.5l3.5 7.5-10.7 6a31.4 31.4 0 00-13.7 13c-2.4 4.6-.8 7.2 4.5 7.6l2.4.3.8.6c-1 .4-1.7 1-2.4 1-8.1-1-16.4-1-24.2-3.8a16.5 16.5 0 00-4.8-1l-23.6-1h-26l-.2-1 2.6-1.5c3.5-1.8 4-5.2.6-7.3a15.6 15.6 0 00-9-3h-13c3.4-3.5 9.6-2 11.4-7.2z" class="cls-1"/><path d="M730 933.6c-5.2 11.4-7.2 23.6-7.7 35.9s-.1 24.7-.1 37.1c-9.2 0-18.5.2-27.8 0-4-.2-7.4-4.2-8-8.5a43.6 43.6 0 016-30 85 85 0 0121.9-24l11.4-8.9c1-.8 2.2-1.5 3.3-2.2z" class="cls-1"/><path d="M314 1016c-1.2-8.6-3.8-16.6-3-25a61 61 0 0132.8-3l-1.9 4.9a31.6 31.6 0 00-1.2 4.2c-1 4.4.5 6.4 5 6.6 14.2.5 28.3 1 42.4-.6 2.6-.3 5-.9 7.6-1.3 7.3-1.2 7.7-1 10.7 6.8a32.5 32.5 0 01-4.9 1.2l-49.4 4c-3.5.3-7 1.1-10.4 1.4-7.9.6-15.7 1-23.6 1.4a24 24 0 01-4.1-.5z" class="cls-1"/><path d="M727.6 1001.7v-11.4l.3-15.4a111.6 111.6 0 014.4-30.4c1.7-6 4.4-11.7 6.9-17.5 1.6-3.6 4.7-5.9 8.7-8.1 1 3.6 2.6 6.7 2.7 10 .2 9-.2 18-.5 27a4 4 0 01-1.5 2.8c-2.7 1.9-3 4.7-3.3 7.6-.3 3.8.3 7.8-2.8 11a1.9 1.9 0 00-.2 1.7c1.8 2 .4 4.1 0 6a95.5 95.5 0 01-4 12.8c-2.6 6.1-3.8 6.5-10.7 3.9z" class="cls-1"/><path d="M213.2 838.9c-6.6-3-14.1-3-19.8-7.5.2-2.6 2.2-3 3.8-3.5a71 71 0 0123.6-3.9c2.3 0 3.8 1 4.2 3a19.5 19.5 0 01.5 6.7c-1 7.1-2.4 14.2-3.8 21.3-1.8 9.7-8.2 13.8-17.8 11.7-3.8-.9-7.3-1.9-10.2-5-2.5-2.6-6.6-2-10-2.8a48 48 0 01-6-1.6c-.9-.4-1.4-1.7-1.8-3 2.3 1.4 4.2.9 6.1-.4 8.5-5.8 16.6-4 21.6 4.8.2.3.8.5 1.1.8 2.4-2 3-3.9 1.4-6a19 19 0 00-3.5-3.2l-4.1-2.8 3.9-6.3c2.4.6 4.8 1.4 7.3 1.8 3.3.6 3.8-.2 3.5-4.1z" class="cls-1"/><path d="M415 650.5c-.8-2-1.8-3.9-2.6-6a38.6 38.6 0 00-8.7-13.7 12.5 12.5 0 00-15.5-2 129.1 129.1 0 00-31.7 27 26.7 26.7 0 01-5.2 5.3l3.3-5.8a167 167 0 0120-29.4c6.2-7.2 12.9-14 19.5-20.7 3-3.2 4.6-3 7.5.2a39.4 39.4 0 018.1 13.5c3 8.6 4.5 17.4 6 26.2a28.5 28.5 0 010 5.1z" class="cls-1"/><path d="M962.7 913.6L926.6 944l-19 15.7a10.3 10.3 0 01-8.2 2.6c-7-.6-14.1-.6-21.2-.8l-3.8-.2c7.4-4.4 14.3-8.3 21-12.4 7.3-4.4 14.6-8.8 21.6-13.6 8.8-5.9 18.3-10 28-13.8a104.3 104.3 0 009.6-4.4c2.5-1.3 4.9-3 7.3-4.4z" class="cls-1"/><path d="M415.5 788.5l20.9 3.4 1.5 24.9c-7.7 3.2-15.6 2.8-22.9 5-3.3-3.3-2.8-7.4-2.6-11.3.4-5.6 1-11.2 1.7-16.8a38.6 38.6 0 011.4-5.2z" class="cls-1"/><path d="M243.2 724c-15.9 2-19.6 4.4-30.2 18.6l3-18.6c0-.5.1-1.2.4-1.4 3.5-2 3.5-6.6 6.7-8.9 3-2.2 5.6-4.6 9-7.4.8 8.1 4.2 13.9 11.1 17.6z" class="cls-1"/><path d="M251.8 686.3c.8 5 1 9.2-.3 13.4-2 6.2-3.3 12.5-2.4 19-7.6-2.1-10.8-6.4-10.9-14 0-5.1 0-5.1-4.3-7 4.7-5.5 9.7-10.1 18-11.4z" class="cls-1"/><path d="M194.5 951.2c2.8-4.7 4-10 7.9-13.8l.9.5-2.1 4-1.5 1.8c-1 1.4-2 3.2-.5 4.3a5.7 5.7 0 004.8 0c3.3-1.5 6.3-3.7 9.6-5.4a48.6 48.6 0 0128-4c-1.6 2.8-4.3 3.6-6.7 4.5-12.9 4.8-25.9 9.1-40.4 8.1z" class="cls-1"/><path d="M354.9 962.3c1.3 4 0 6.7-3.1 9.2a29 29 0 01-27.7 4.7l5.4-3.4 11-6.5c2.5-1.5 5-3 7.6-4.2 2.3-1 4.6-1.3 6.8.2z" class="cls-1"/><path d="M232.6 966.5l-5.5 2.3c-4.7 2-9.4 4.1-14.3 5.7a31.1 31.1 0 01-9 1.1c-6.1 0-9.8-4.6-8.3-10.5a26.1 26.1 0 012.5-5.7c1.3-2.4 3.3-3.4 6.3-2.4-.7 2-1.3 4-2.2 6a58 58 0 01-2.8 5.1c1.7 2.5 3.6 2 5.5 1.6 4.7-1 9.4-2 14-3.3 4.5-1.2 8.9-1.7 13.8 0z" class="cls-1"/><path d="M206.8 924.8c-1.8-1-3.8-1.6-5.4-2.8-3-2.4-3-4-.3-6.6a24.1 24.1 0 015-3.6 38 38 0 0122.9-5.4l-6.8 2.8c-4 1.8-8 3.3-11.6 5.5-4.2 2.5-5 5.4-3.9 10.2z" class="cls-1"/><path d="M455.9 690l-5.7 12c-4.6-4-7-8.7-7-14.6 5.8-1.4 7-1.2 12.7 2.6z" class="cls-1"/><path d="M330.3 926.2l-10.4-.5c5.4-8.2 13.4-11.7 21.2-15.5-2.9 5.6-8.7 9-10.8 16z" class="cls-1"/><path d="M309.3 699.8l21.3-23.6c.5 4.4 0 8.2-2.9 11.2a50.8 50.8 0 01-17.4 12.5 2.2 2.2 0 01-1 0z" class="cls-1"/><path d="M206.7 924.9a43.8 43.8 0 005.1-.7 29.8 29.8 0 005.8-2 26 26 0 0119.6-1.3 51 51 0 01-25.9 5.3 22.2 22.2 0 01-4.5-1.5z" class="cls-1"/><path d="M219.6 681v-8.7l7.7-.5c.3 5.7-4.5 6.7-6.6 9.6z" class="cls-1"/><path d="M339.8 924a38.8 38.8 0 0117.7-4.7c-5.6 2.9-11.4 5-17.7 4.8z" class="cls-1"/><path d="M333 947.7c4.3-5.1 4.3-5.1 12.7-2-4.2 1.2-8 2.7-12.8 2z" class="cls-1"/><path d="M347.8 939.2c4.6-2 6-2.3 11.7-1.5-1.9 2.8-5 3.2-11.7 1.5z" class="cls-1"/><path d="M190.3 845.7l3.9-7.1 3.4 1.2a16 16 0 01-1.4 3c-1.2 1.7-2 4.4-5.9 2.9z" class="cls-1"/><path d="M332.1 932.2c-2 1.8-2.3 4.2-5.2 3.5.7-2.3 2-3.3 5.2-3.5z" class="cls-1"/><path d="M321.5 944.7l1.6-3.7 1.1.5-1.6 3.6z" class="cls-1"/><path d="M215.3 935.9l-3.6 1.3-.3-.9 3.7-1.2z" class="cls-1"/><path d="M254.9 1015l-69.5-11.1 6.6-16.3 30.2-.9c-1.7 1.3-3 2.1-4.1 3.1a38.5 38.5 0 00-5.5 5.4c-1.9 2.5-.8 5 2.3 5.8a17.7 17.7 0 003.9.1h42.1c-2 4.9-4 9.3-6 13.9z" class="cls-1"/><path d="M831.4 415.4c1 3 2.7 2 4.4 1.4 4.6-1.9 9.2-3.8 13.8-5.5 10-3.7 19.8-7.8 30-10.8 9.4-2.7 18-7 26.8-11 11.6-5.4 23-11.3 34.5-17 1.8-1 3.2-2.6 4.9-3.7.7-.6 1.6-1.5 2.4-1.3 3 .5 5.6-1.2 8.1-2.3 13.4-6 26.5-12.5 40-18.3 10.4-4.5 20.7-9.2 32-11.8 5-1.1 9.8-3.7 14.6-5.9a43.5 43.5 0 0111.9-3.4c9.6-1.4 18.5-5 27.5-8.6a46.6 46.6 0 0113.5-3.5c1.4 1.5-.8 4.4 2.2 4.8.3 0 .4 1.2.5 1.8l2.6 20.5c1.7 12.6 3.6 25.2 5.2 37.8 1.3 9.5 2.7 19 3.5 28.6 1 12.5 2 25 2.2 37.6.5 37.4.6 74.8.7 112.1 0 18.9-.4 37.7-.6 56.6l-.3 26-.6 76c0 6.4-.8 7.7-7.7 5.9-3.7-1-7.1-3-10.7-4.5l-28.3-10.8c-4.1-1.5-8.2-2.9-12.4-4a782.4 782.4 0 00-79.4-19.7c-10.6-2.1-21.2-3.7-31.8-5.4q-13.3-2.2-26.7-4.2L886 669c-14.4-2-29-3.8-43.4-6-13.3-2-26.6-4.3-40-6.3-4.4-.6-8.5-2.9-13.2-1.6-.9.3-2.2-.5-3.1-1-3.3-2.4-7-2.8-10.8-3.8a34.3 34.3 0 01-6.8-2.4c-2.7-1.3-3-2.7-1.5-5.5l5.3-10.8a33 33 0 003.3-15.4c0-15 0-30.3-1-45.3-1.4-20.4-4-40.6-6-60.9-.8-6.7-1.3-13.4-2-20.1l-3.2-28.3c-.5-4.1-.6-8.3-.9-12.5-.1-2.2.9-3.5 3-4.3 6.4-2.4 12.7-4.8 18.9-7.5 2.2-1 4-3 6.3-4.1a99.6 99.6 0 0113-5 76.6 76.6 0 0027.5-12.8zm120.8-42.5l2 5.4c2.2 6.6 5 13 6.4 19.7 2.4 12.4 1.4 25 0 37.5-1 9.2-4.4 17.8-8.2 26a6.8 6.8 0 01-2.2 3c-6.7 4.2-13.4 8.3-20.2 12-3 1.7-6.3 2.6-9.4 3.9-9 3.8-17.8 8.2-27 11.4-12.4 4.4-25 8-37.6 12-2.2.7-3.8.5-5.3-1s-.7-3-.1-4.5c2.7-6.9 5-14 8.2-20.5 6.2-12.4 13.2-24.3 19.4-36.6 6.9-13.6 13.4-27.5 20-41.2a9.3 9.3 0 00.4-1.7 7.2 7.2 0 00-2 .1l-29 11.7c-11.6 4.6-23.2 9.4-35 13.7-4 1.4-5.8 3.6-6 7.8-.6 7-1.6 14-2.4 21-1 9.3-2 18.6-2.7 27.9-.7 8.6-1.1 17.3-1.7 26-.2 3-2.6 4-5 2.2a8.5 8.5 0 01-1.8-2.2c-5-7.9-10.2-15.6-15-23.6a225 225 0 01-9.1-17c-3.4-6.9-6.6-14-10.1-21.4l-9 4.2-.6 9.2c-.1 1.4-.7 2.9-.5 4.2l4.1 34c1.4 11.3 3.2 22.6 4.3 34a709 709 0 014.6 88.1 32.1 32.1 0 01-3.4 15.3c-1.6 3.1-2.9 6.4-4.5 10l13.8 3.4a42.7 42.7 0 013.4-4.4c9.6-9.6 16-21.3 21.8-33.3 3.8-7.8 7.2-15.8 10.9-23.6a9.8 9.8 0 012.5-3.5c1.9-1.6 3.3-1.1 4.5 1.2a52.6 52.6 0 013 6c1.6 4.6 4.4 8.7 4.3 13.8 0 5.4.5 11-.1 16.4-.8 7.6-1.2 15.4-4 22.7-1.6 4.1-3 8.4-4.5 13 16.5 1.8 32.6 5 48.4 6.5v-12.4a2.9 2.9 0 01.5-1.8c3.3-3.5 6.5-7.2 10-10.4 8.9-8 17.8-16 26.9-23.6 5.3-4.6 11.1-8.6 16.8-12.9 1.5-1 3.4-1.6 4.9 0s.7 3-.3 4.6c-2.9 5.5-6 11-8 16.9-1.3 4.1-1.7 9 1.6 12.9a10 10 0 011.1 2.6c2.8 6.6 5.3 13.5 10 19 3.3 4 6.4 8 10.3 11.4 3.4 2.8 7.1 5.6 11.7 6.5q11.5 2.3 23.2 4.3a5.5 5.5 0 003.6-.4 151.5 151.5 0 0012.7-8.4 67.3 67.3 0 0020.2-26.1 54.7 54.7 0 005.9-24.2c-.3-10.5 0-21 0-31.4 0-1.6-.2-3.4 1.6-4.2 2-1 3.4.2 4.6 1.6 2.6 3 5.1 6.2 7.8 9.2a154.8 154.8 0 0123.1 33.8 203.6 203.6 0 0113 33 70.6 70.6 0 013.2 20.5 9.3 9.3 0 01-2.8 6.9c-3.5 3.6-6.8 7.5-10.3 11.5l36.2 14.4v-3l.7-75.9.3-24.7c.2-18.8.6-37.6.6-56.5 0-36.1-.2-72.2-.7-108.3-.1-12.5-1.2-25-2.2-37.5-.8-9.5-2.1-18.9-3.4-28.3l-5.2-37.7-3.2-24.7-8.6 3c-4.2 1.7-8.5 3.3-12.5 5.2-6.8 3.1-14.7 2.8-21 7.3a9.2 9.2 0 00-3.2 3.1c-4 7.3-5.8 15.2-7.4 23.3s-3 15.6 0 23.6a43 43 0 009.7 17.5 77.9 77.9 0 0011.6 9.4c4 2.5 4 5.7 3.2 9.6l-4.3 23.2-5.4 27.8-4 21.8c-.4 1.6-.8 3.2-2.7 3.7s-3.1-.3-4.4-2c-5.7-7.8-11.7-15.4-17.4-23.2-5-6.6-9.7-13.2-14.6-19.8a28.4 28.4 0 01-5.9-17.3c0-13-1.1-26-1.6-39 0-3.7.5-7.4.6-11l1-27.5c0-2.4-.4-4.8-.6-8-18 7.8-35 15.7-52.5 23.8zm-5.4 3a17.2 17.2 0 00-2 .7l-26.7 12.3-9.2 4.2a5.2 5.2 0 00-2.2 2.2c-2.7 5.8-5 11.8-7.8 17.6-4.3 9.3-8.6 18.6-13.3 27.7-7 13.4-14.3 26.6-21.3 39.9a65.5 65.5 0 00-6 16l14.7-4.2c13.8-4.1 27-9.5 40-15.2 5.3-2.3 10.8-4.3 16-7s9.6-5.5 14.3-8.5c1.5-1 3.2-2.1 3.8-3.6 2.3-5.8 5.4-11.3 6.2-17.6.8-5.9 2.1-11.7 2.4-17.6a147.8 147.8 0 00-.4-19.8c-.7-9.5-5.5-18-8.5-27zm63.8-29.5c-.5 11.3-1.1 21.7-1.4 32.1-.4 18.4 1 36.7 2.1 55 .2 2.4-.2 5.1.8 7.1a86.3 86.3 0 007.5 12.4c4.5 6.4 9.4 12.6 14.1 18.9l10.7 14c6.8-23 9.3-46.1 13.8-68.7-3.5-3-6.6-6.1-10.2-8.6a31 31 0 01-11.4-14.6c-1.9-4.7-4.2-9.5-4.6-14.5a76 76 0 014-30.8l3.6-12.7zm52.1 351.9c3.4-3.8 6.8-8 10.7-11.8a8.9 8.9 0 002.8-7.7c-.6-8.8-3.4-17-6.3-25.2a151.1 151.1 0 00-26.4-47.9c-2.6-3-5-6.4-8.9-9.4v26.9a22.3 22.3 0 01-.4 5.3 93.3 93.3 0 01-7.9 21.6 80.2 80.2 0 01-26.5 28.9l-2.5 1.8zm-116.2-27l.3-1a42.7 42.7 0 01-14.4-17c-3.4-6.3-6.4-13-9.4-19.5a10.2 10.2 0 01-.9-4.6c.3-4.7.9-9.5 1.3-14.3a26.8 26.8 0 00-2.4 1.7c-9 7.8-18 15.5-26.8 23.5-3 2.8-5.6 6.2-8.7 8.9-2.8 2.5-2.4 5.4-1.9 8.4a35 35 0 001.7 5.3zm-162.3-229c2 7.2 5.8 13 8.8 19.2a166.6 166.6 0 009.6 17.8c3.7 5.6 6.3 12 11.5 16.7l6.5-67.7zM828 590.4c-9.5 20.7-18 41.3-34.4 58.3l30.4 5.5a113 113 0 009.1-46.3c0-6.3-2.3-11.5-5.1-17.5z"/><path d="M239.3 839c.5-3 .9-5.6 1.6-8a5 5 0 015.2-4.1c2 0 4-.4 5.8 0 1.3.2 3.2 1.2 3.4 2.1.8 4 4 3.4 6.5 4.4.8-6.6 1.7-7.2 8-5.3 2 .7 4 1.7 6 2.6l.8-.7c.6-2.6.3-6.3 3.2-7.1a28 28 0 0110.9-.5c1.4.2 2.4 2.7 3.5 4 2-.7 4.4-1.8 7-2.5l15.8-4c2.4-.6 4.7-.9 7 .4a3.3 3.3 0 004.3-.4 6 6 0 013.1-1c4.7-.6 9 .8 13.2 2.4 2.5 1 3.2 3 2 5.5-.7 1.7-1.7 3.3-2.8 5.2l8 2.4c3.4 1 4 2.7 2.5 6-.6 1.6-1.2 3-2 4.5-1 2.1-1.5 4 .4 6.2a2.9 2.9 0 010 4 2.2 2.2 0 01-.3.3c-1.4 1-2.9.7-4.4-.4a123 123 0 00-10.4-6 47.9 47.9 0 00-23.8-5c-2.8 0-5.7-.6-8.6-.6a158.4 158.4 0 00-36.3 4.3c-6.5 1.6-13 3.2-19.4 5.2-2.5.8-4.5 3-6.8 4.4-1.3.9-2.6 2-4 2.3-2.8.6-4.3-1.4-3.8-4.3a11 11 0 000-4.6c-1.9-6.8-1.6-7.8 4.4-11.7zm43.7-11.2l-1.6 10.7c17.9-2.8 35.4-2.7 52 2.4l5.8-14.5c-5.3-2.7-6.1-2.6-10.7 1.8-1.4 1.4-2.8 2.8-5 2.2s-1.8-2.7-2.3-4.3c-.1-.3-.4-.5-.9-1l-18.1 4.3c-1.3 5.5-2.3 5.9-7.5 4.7a10.2 10.2 0 01-7.6-6.3zm-35.8 18.3l30.3-7.4c-3.7-1.4-5.6-4.5-9.1-4.2-2.6 5-3.1 5.6-6.3 5A22 22 0 01250 834c-.7-.6-2-1.4-2.7-1.1a3.2 3.2 0 00-1.6 2.5c.3 3.5 1 7 1.5 10.7zm98.8.4l2.4-6.7-8.3-2.5-1 5.7z"/><path d="M382.8 837.1c3.3-5.2 6.1-9.8 9.2-14.3a18.7 18.7 0 014.6-4.8 5.8 5.8 0 014.4-.5c.7.2 1.3 2 1.3 3.2.2 5.4-.4 11 1.3 16.2l4.3 11.8c3.2-.9 6.6-.7 9.6 2 1.7 7.2-.1 13.5-5.8 18.6-2.4 2-4.7 4.3-7.3 6.2a16.8 16.8 0 01-11.3 3.5 84 84 0 00-8.7 0 6.6 6.6 0 01-6.7-3.8 47 47 0 01-3.5-7.8c-2.6-8.6-5-17.2-7.2-26a20 20 0 012.7-16 11.4 11.4 0 011.8-2.3c2.2-2 4.6-1.7 5.8 1 2 4 3.6 8.4 5.5 13zm-9-5.2c-2.7 6.4 4.4 33 10.5 41.3 2.7 0 5.6-.4 8.5 0a11.2 11.2 0 009.3-2.8 87 87 0 009.1-9.2c1.7-2 2.7-4.4 1-7.4a73 73 0 00-8.1.1c-4.1.5-8.2 1.3-12.3 2-1.5.2-3.2.3-3.4-1.6a2.9 2.9 0 012.3-3.4h.3l9.7-2.2-5-20c-3 3-4.6 6.8-6.4 10.5-1 2-1.6 4.2-2.6 6.2a4.4 4.4 0 01-4.3 2.6c-2 0-2.5-1.5-3.1-3l-5.6-13.1z"/><path d="M372.5 751c0-1-.3-2.3 0-3.3a3.2 3.2 0 012.3-1.8 3 3 0 012.3 1.8 40.7 40.7 0 011 8 3.8 3.8 0 01-1.7 3c-1.6.7-2.8-.4-3.2-2l-1-5.6z"/><path d="M303.4 750.5a22.3 22.3 0 012-4.4 3.3 3.3 0 012.8-1.1c.7.2 1.4 1.5 1.6 2.5a33.6 33.6 0 01.6 7c0 1.3-.8 3-1.7 3.5-1.5.7-2.7-.5-3.2-2l-2.1-5.5z"/><path d="M248.7 761h-4.2a16.4 16.4 0 01-1.6-10.2 3 3 0 012.1-2 3 3 0 012.4 1.7c.6 3.2.8 6.6 1.3 10.5z"/><path d="M952.2 373a2366 2366 0 0152.5-23.9c.2 3.2.6 5.5.6 7.9l-1 27.5c-.1 3.7-.7 7.4-.6 11 .5 13 1.5 26 1.6 39a28.4 28.4 0 006 17.3l14.5 19.9c5.8 7.7 11.7 15.4 17.3 23.2 1.3 1.7 2.5 2.4 4.4 2s2.3-2 2.6-3.7l4-21.7 5.5-28 4.3-23.1c.8-3.9.8-7-3.2-9.6a77.9 77.9 0 01-11.6-9.4 43.3 43.3 0 01-9.7-41.1c1.6-8 3.3-16 7.4-23.3a9.2 9.2 0 013.2-3c6.3-4.6 14.3-4.3 21-7.4 4-2 8.3-3.5 12.5-5.1l8.6-3.1c1.1 8.5 2 16.7 3.2 24.7l5.2 37.7c1.3 9.4 2.6 18.8 3.4 28.3 1 12.4 2 25 2.2 37.5.5 36.1.6 72.2.7 108.3 0 18.9-.4 37.7-.6 56.6l-.3 24.6-.7 76v3l-36.2-14.5c3.5-4 6.8-7.8 10.3-11.5a9.3 9.3 0 002.8-6.9 70.6 70.6 0 00-3.2-20.4 203 203 0 00-12.9-33.1 154.6 154.6 0 00-23.1-33.7c-2.7-3-5.2-6.1-7.8-9.2-1.2-1.4-2.6-2.6-4.6-1.7-1.8.9-1.7 2.6-1.7 4.2 0 10.5-.2 21 .1 31.5.2 8.6-2.5 16.6-5.9 24.1a67.3 67.3 0 01-20.2 26.1 152.4 152.4 0 01-12.8 8.4 5.5 5.5 0 01-3.6.4c-7.7-1.3-15.5-2.7-23.2-4.3-4.5-.9-8.3-3.7-11.6-6.5-4-3.2-7.1-7.4-10.4-11.3-4.7-5.6-7.2-12.5-10-19.2a10 10 0 00-1.1-2.6c-3.3-4-3-8.7-1.6-12.9 2-5.8 5.1-11.3 8-16.8 1-1.8 1.7-3.2.2-4.8s-3.3-1-4.8.2c-5.7 4.2-11.5 8.3-16.9 12.8-9 7.7-18 15.6-26.8 23.6-3.6 3.2-6.7 6.9-10 10.4a2.9 2.9 0 00-.6 1.8v12.5c-15.7-1.5-31.8-4.7-48.4-6.7l4.6-12.9c2.8-7.3 3.2-15 4-22.7.5-5.4 0-11 0-16.4 0-5-2.6-9.2-4.2-13.7a52.6 52.6 0 00-3-6c-1.2-2.4-2.6-2.9-4.5-1.3a9.8 9.8 0 00-2.5 3.5c-3.7 7.8-7 15.8-10.8 23.6-5.9 12-12.2 23.8-21.9 33.3a42.7 42.7 0 00-3.4 4.4l-13.8-3.3c1.7-3.6 2.9-7 4.5-10a32.5 32.5 0 003.4-15.4 700.5 700.5 0 00-4.6-88c-1-11.4-2.8-22.7-4.3-34s-2.8-22.7-4.1-34c-.2-1.4.4-2.8.5-4.2l.6-9.2 9-4.3c3.5 7.5 6.7 14.5 10.1 21.4a246 246 0 009.1 17c4.9 8 10 15.8 15 23.6a8.5 8.5 0 001.8 2.2c2.5 1.9 4.9.8 5-2.2.6-8.6 1-17.3 1.7-26 .8-9.3 1.8-18.5 2.8-27.8.7-7 1.8-14 2.3-21 .3-4.3 2-6.4 6.1-8 11.8-4.2 23.4-9 35-13.6 9.7-3.8 19.3-7.8 29-11.7a7.2 7.2 0 012-.1 9.3 9.3 0 01-.5 1.7c-6.6 13.8-13.1 27.6-20 41.2-6.1 12.4-13.1 24.3-19.3 36.7-3.3 6.6-5.6 13.7-8.3 20.5-.5 1.5-1.3 3.1.2 4.5s3 1.7 5.2 1c12.6-4 25.3-7.6 37.7-12 9.2-3.2 18-7.6 27-11.4 3.1-1.3 6.4-2.2 9.3-3.8 6.9-3.8 13.6-7.9 20.3-12a6.8 6.8 0 002.1-3 84.4 84.4 0 008.2-26c1.4-12.5 2.5-25.1 0-37.6-1.2-6.7-4-13.1-6.3-19.7l-2-5.4zM1026 542c.3-2.8.8-5 .6-7-.2-1.2-1.6-2.1-2.5-3.2-.8.9-2.1 1.6-2.4 2.5-.7 3.3-2.9 4-5.7 3.9a27 27 0 01-2.9-.3c-7-.7-12.9-4.2-18.5-7.7a215 215 0 01-33.3-24.7c-2.8-2.6-5.4-5.5-8.3-8-.8-.8-2.5-1.7-3.2-1.3-1 .5-1.6 2-2.2 3.3-.2.3 0 1 0 1.4a51.3 51.3 0 0011.3 31.1c2.8 3.7 6.3 6.8 9.7 10.4-5.6 2.8-8.5 7.8-11 13l-1.3 2.6c-4 7-3.5 14.6-3 22.1a10.2 10.2 0 001.3 4.1 68.7 68.7 0 0017.4 20.5c4.5 3.5 12.3 2.9 16.5-.8a31 31 0 008.1-12.4 80.2 80.2 0 003.7-33.8c0-2.1-1-4.1-1.7-6.6h7.5c8 .2 15.7-.6 23-4.1 1.5-.7 3.4-1.7 5-1.5 2.3.3 3.5-.9 4.8-2.2s2.2-2.7 1-4.3-2.8-1.6-4.7-.7c-2.9 1.4-6 2.5-9.2 3.7zM863.8 554l.2.5a36.6 36.6 0 01-3.6 2.2c-6 2.7-8.4 8-9.4 13.7a88.3 88.3 0 00-1 15.8 21.5 21.5 0 004.6 13.9c3 3.7 5.7 4.1 9.4 2.8 2-.8 3.9-2.9 5-4.8a64.8 64.8 0 0010.4-29.7c.4-6 .1-11.9-2.8-17.3-.7-1.4-1.6-2.6-2.5-4 1.2-1 2.2-1.9 3-2.8 4.7-4.8 9.1-10 10-16.6 1-7.6.8-15.4 1.2-23.1 0-2-.7-3.6-3-3.7-2 0-2.6 1.3-3 3-.5 5-3 8.7-6 12.5a199.7 199.7 0 01-31.7 33.4c-4.9 4.1-9.3 5-14 2.7l-6.5 1.5c-1 .2-2.5-.2-3.3.4a4.7 4.7 0 00-1.7 3c-.2 1.4.8 2.3 2.4 2.4 4.5.2 9.1 1.2 13.4.4 8.8-1.6 17.9-1.9 26.2-5.7a13.2 13.2 0 012.7-.5z" class="cls-1"/><path d="M946.8 376c3 9 7.8 17.5 8.6 27a147.8 147.8 0 01.4 19.8c-.3 5.9-1.7 11.7-2.4 17.6-.8 6.3-4 11.8-6.3 17.6-.6 1.5-2.3 2.7-3.7 3.6-4.7 3-9.5 6-14.4 8.6-5.2 2.6-10.6 4.6-16 6.9a364 364 0 01-40 15.2l-14.7 4.3a65.5 65.5 0 016-16.1c7-13.3 14.4-26.5 21.3-39.9 4.7-9.1 9-18.4 13.4-27.7 2.7-5.8 5-11.8 7.7-17.6a5.2 5.2 0 012.3-2.2c3-1.5 6.1-2.8 9.2-4.2l26.6-12.3a16.7 16.7 0 012-.7z" class="cls-1"/><path d="M1010.6 346.4l29-10.4-3.6 12.7a76 76 0 00-4 30.8c.4 5 2.7 9.8 4.6 14.5a31 31 0 0011.4 14.6c3.6 2.4 6.7 5.5 10.2 8.6-4.5 22.5-7 45.7-13.8 68.6l-10.7-14c-4.7-6.2-9.6-12.4-14.2-18.8a86.3 86.3 0 01-7.4-12.4c-1-2-.6-4.7-.8-7-1.2-18.4-2.5-36.7-2.1-55 .3-10.5.9-21 1.4-32.2z" class="cls-1"/><path d="M1062.7 698.3l-65.5-17.5 2.6-1.8a80.2 80.2 0 0026.5-28.9 93.3 93.3 0 008-21.6 22.3 22.3 0 00.3-5.3v-26.9c4 3 6.3 6.3 9 9.4 12 14.2 20.2 30.5 26.3 48a95 95 0 016.3 25 8.9 8.9 0 01-2.8 7.8c-3.9 3.8-7.3 8-10.7 11.8z" class="cls-1"/><path d="M946.5 671.4l-61.1-8.7a35 35 0 01-1.8-5.3c-.5-3-.8-6 2-8.4 3-2.7 5.6-6.1 8.7-9l26.7-23.4a26.8 26.8 0 012.4-1.7c-.4 4.8-1 9.6-1.3 14.3a10.2 10.2 0 001 4.6c3 6.6 6 13.2 9.3 19.5a42.9 42.9 0 0014.4 17l-.3 1z" class="cls-1"/><path d="M784.2 442.2l36.4-13.9-6.5 67.7c-5.2-4.7-7.8-11.1-11.5-16.7a166.6 166.6 0 01-9.6-17.8c-3-6.1-6.8-12-8.8-19.3z" class="cls-1"/><path d="M828 590.5c2.8 6 5.2 11.2 5.2 17.5a113 113 0 01-9.2 46.3l-30.3-5.5c16.3-17 24.8-37.6 34.3-58.3z" class="cls-1"/><path d="M283 827.8h4.1a10.2 10.2 0 007.6 6.3c5.2 1.2 6.2.8 7.5-4.7l18.1-4.4c.5.6.8.8.8 1 .5 1.6 0 3.8 2.3 4.4s3.6-.8 5-2.2c4.7-4.4 5.5-4.5 10.7-1.8l-5.7 14.5a114.5 114.5 0 00-52-2.4l1.6-10.7z" class="cls-1"/><path d="M247.2 846.1c-.6-3.8-1.2-7.2-1.5-10.7a3.2 3.2 0 011.6-2.5c.7-.3 2 .5 2.7 1.1 3.3 3.5 7.7 4.6 12.1 5.4 3.2.7 3.7 0 6.3-4.9 3.5-.3 5.4 2.8 9.1 4.2z" class="cls-1"/><path d="M346 846.5l-6.9-3.5 1-5.7 8.3 2.5z" class="cls-1"/><path d="M373.7 831.9l5.6 13c.6 1.5 1 3 3.2 3a4.4 4.4 0 004.2-2.6c1-2 1.7-4.2 2.6-6.2 1.8-3.7 3.5-7.5 6.4-10.4l5 20-9.7 2.1a2.9 2.9 0 00-2.6 3 1.9 1.9 0 000 .4c.2 2 1.9 1.9 3.4 1.6 4-.6 8.2-1.5 12.3-2a73 73 0 018 0c1.8 3 .7 5.4-1 7.3a87 87 0 01-9 9.2 11.2 11.2 0 01-9.4 2.9c-2.8-.4-5.7-.1-8.4-.1-6.1-8.2-13.2-34.8-10.6-41.2z" class="cls-1"/><path d="M1026 542.1c3.1-1.2 6.3-2.3 9.3-3.7 2-.9 3.5-1 4.7.7s.2 3-1 4.3-2.5 2.6-4.9 2.2c-1.5-.2-3.4.8-5 1.5-7.3 3.5-15 4.3-23 4h-7.4c.6 2.6 1.6 4.6 1.7 6.7a81 81 0 01-3.7 33.8c-1.8 4.6-4.2 9-8 12.4-4.3 3.7-12.2 4.3-16.6.9a68.7 68.7 0 01-17.4-20.5 10.2 10.2 0 01-1.3-4.1c-.5-7.6-1-15.2 3-22.1l1.3-2.6c2.5-5.3 5.3-10.3 11-13-3.4-3.6-6.9-6.8-9.7-10.4a51.3 51.3 0 01-11.4-31.2 4.3 4.3 0 010-1.4c.6-1.2 1.1-2.8 2.2-3.3.7-.4 2.4.5 3.2 1.3 2.8 2.5 5.4 5.4 8.3 8a214.2 214.2 0 0033.3 24.7c5.6 3.5 11.6 7 18.5 7.7 1 0 2 .2 2.9.3 2.8 0 5-.6 5.7-3.9.3-1 1.6-1.6 2.4-2.5.9 1 2.3 2 2.5 3.1.2 2.1-.3 4.3-.5 7.1zm-30.9 24.8c-.5-3.8-.9-7.6-1.6-11.3-.5-3.2-2.5-5-5.9-5.4-3-.4-6.1-1-8.7-2.5-4.4-2.5-8-1.2-10.8 2-5 5.6-9.2 12-9.3 20 0 4.3-1 8.8 1.5 12.8a66 66 0 0013.8 16.6 11.3 11.3 0 004.7 2.3c4.2.9 6.5-1.9 8.5-5 6-8.9 7.3-19 7.8-29.5zm-13.7-24.3c2.3-5.1 4.6-5.6 8.2-2.3 1.2 1 2.1 2.4 3.4 3.4a6 6 0 003.2 1.6c6.7 0 13.5 0 20.2-.2-3.6-1-7.4-1-10.7-2.4a107.2 107.2 0 01-16.3-8.2 230.2 230.2 0 01-32.9-24.3 9.6 9.6 0 00-2-1 47 47 0 0027 33.4z"/><path d="M863.8 554a13.6 13.6 0 00-2.7.6c-8.3 3.8-17.5 4.1-26.2 5.7-4.3.8-9-.2-13.5-.4-1.6-.1-2.5-1-2.4-2.4a4.7 4.7 0 011.8-3c.8-.6 2.2-.2 3.3-.4l6.5-1.5c4.6 2.3 9 1.4 14-2.7a199.7 199.7 0 0031.7-33.4c2.9-3.8 5.5-7.6 6-12.4.3-1.9 1-3.2 3-3.1 2.3 0 3 1.7 3 3.7-.4 7.7-.2 15.4-1.2 23-.9 6.7-5.3 12-10 16.7l-3 2.8 2.5 4c3 5.4 3.1 11.3 2.8 17.3a64.8 64.8 0 01-10.4 29.6c-1.1 2-3 4.1-5 4.8-3.8 1.4-6.5 1-9.4-2.7a21.5 21.5 0 01-4.7-13.9 88.3 88.3 0 011-15.8c1.1-5.7 3.5-11 9.4-13.7a34.7 34.7 0 003.7-2.3zm-2.7 44.3c8.5-7.7 16-33 10.5-42.9-2.9 1.9-6.3 3-7.6 6.7a2.3 2.3 0 01-1.8 1.1c-2.6-.3-3.4 1.5-4.2 3.2-3 6.4-3.6 13.1-3 20.2.5 4.8 2 8.6 6.1 11.7zm20.3-77.5l-28.7 30.4c3.5-1.4 6.7-2.4 9.7-3.7a4 4 0 001.6-2.7c.4-2 1.5-3 3.3-2.5 2.2.5 3.5-.6 4.6-1.8 2.6-2.9 5.3-5.7 7.2-9 1.8-3 3.4-6.5 2.3-10.7z"/><path d="M995.1 567a56 56 0 01-7.8 29.4c-2 3.1-4.3 5.9-8.5 5a11.3 11.3 0 01-4.7-2.3 66 66 0 01-13.8-16.6c-2.4-4-1.5-8.5-1.5-12.8 0-8 4.2-14.4 9.3-20 2.7-3.2 6.4-4.5 10.8-2 2.6 1.5 5.7 2.1 8.7 2.5 3.3.5 5.3 2.2 6 5.4.6 3.7 1 7.5 1.5 11.3z" class="cls-1"/><path d="M981.4 542.6a47 47 0 01-27-33.3 9.6 9.6 0 012.2.9 230.2 230.2 0 0032.8 24.3 107.2 107.2 0 0016.3 8.2c3.3 1.4 7.1 1.3 10.8 2.4-6.8.1-13.6.3-20.3.2a6 6 0 01-3.2-1.6c-1.3-1-2.2-2.3-3.4-3.4-3.6-3.3-5.9-2.8-8.2 2.3z" class="cls-1"/><path d="M861.1 598.3c-4-3.1-5.6-7-6-11.7a37 37 0 013-20.2c.8-1.7 1.6-3.5 4.1-3.2a2.3 2.3 0 001.9-1.1c1.3-3.8 4.7-4.8 7.6-6.7 5.4 9.8-2 35.2-10.6 43z" class="cls-1"/><path d="M881.4 520.8c1.1 4.2-.5 7.7-2.3 10.7-1.9 3.3-4.6 6.1-7.2 9-1.1 1.2-2.4 2.3-4.6 1.8-1.8-.5-3 .5-3.3 2.5a4 4 0 01-1.6 2.6c-3 1.4-6.2 2.4-9.7 3.8z" class="cls-1"/></svg>