<svg xmlns="http://www.w3.org/2000/svg" viewBox="0 0 1200.5 1553"><defs><style>.cls-1{fill:#fff;}</style></defs><g id="Layer_2" data-name="Layer 2"><g id="Layer_1-2" data-name="Layer 1"><path class="cls-1" d="M.1,546V.1H970.5c-2.1,1.2-4.2,2.6-6.4,3.7A197,197,0,0,0,855.9,169.6a193.77,193.77,0,0,0,11.8,78c.5,1.3.8,2.6,1.3,4.1a27.29,27.29,0,0,1-12.8,3.2c-5.3-8.9-10.3-17.9-16-27.3-1.7,6-3.1,10.9-4.2,15-4.3.8-7.8,1.4-11.8,2.2-2.6-3.7-5.5-7.9-9-13.1-2.2,11.2-4.1,21.3-6.1,31.6-2.8.4-5.2.9-7.7,1.1-21.1,1-38.9-12.2-44.3-32.7-2.1-7.9-3.9-15.8-5.9-23.7a39.9,39.9,0,0,0-1.3-4.2c-.5.4-.7.4-.7.6-1.2,3-2.4,6.1-3.7,9.1-7.4,17.3-20.1,28.5-38.3,33.2-7,1.8-14.1,3-21.1,4.6-1.8.4-3.6.9-5.5,1.3a5,5,0,0,0,2.7,1.5c7.6,1.9,15.2,3.8,22.8,5.6a17.91,17.91,0,0,1,11.9,8.5c2,3.4,4.1,6.7,6.2,10,.9,1.4,1.9,2.7,2.8,4.1,3.2-2.1,5.8-4.1,8.6-5.8,8-4.8,16.1-4.8,24,.2a50.92,50.92,0,0,1,7.2,6,21.84,21.84,0,0,1,7.3,13.8c.9,7.3,1.7,14.6,2.6,21.9.1.9.5,1.9.9,3.5l2.6-3.7c2.8-4.3,5.6-8.7,8.5-13,8.1-11.8,22.8-13.7,33.4-4.2a88.4,88.4,0,0,1,8.4,8.9c3.6,4.2,6.9,8.6,10.3,12.8a3.51,3.51,0,0,0,1,.8l4.1-.9c2-5.7,3.8-11.4,6-17a85.14,85.14,0,0,1,5.3-11.5,21.21,21.21,0,0,1,25.5-9.9,11,11,0,0,1,5.9,4.3c5,6.9,10.2,13.5,15.3,20.3.6.8,1.1,1.7,2,2.9H895.2a39.67,39.67,0,0,0,3.8,2.4c6.2,3.3,12.5,6.6,18.7,10,6.5,3.6,11.7,8.2,13.4,16a94.27,94.27,0,0,0,3.2,10.3,32.26,32.26,0,0,0,1.5,3.4c4.5-1.4,8.6-2.8,12.8-4.1a7.44,7.44,0,0,1,6.3.8c5.2,2.9,10.6,5.5,15.8,8.2a7.52,7.52,0,0,1,2.7,1.8c4.5,5.8,7.9,12.1,7.1,19.9-.5,4.8-1.3,9.6-1.9,14.5-.5,4.1-1,8.1-1.4,12.2a13.23,13.23,0,0,0,4.4-2.7c4.1-3.7,8-7.5,12.2-11,10.8-9.2,26.2-7.2,34.2,4.4a91.75,91.75,0,0,1,6.7,11.8c2.6,5.3,4.9,10.8,7.4,16.3a7.44,7.44,0,0,0,.9,1.2h4.2c2.5-3.7,4.8-7.5,7.3-11,3.5-4.8,6.8-9.8,10.8-14.2,10.4-11.5,26.1-10.9,36,1.1,3.6,4.4,7,8.9,10.5,13.3a37.26,37.26,0,0,0,2.9,3c.3-8,.9-15.2.7-22.3-.3-9.1,3-16.3,9.2-22.8,9.7-10.1,20.5-12,32.6-5.1,2.3,1.3,4.5,2.6,7,4,2.9-5.7,5.6-10.8,8.2-16a18.51,18.51,0,0,1,11.4-9.8c5.5-1.8,11-3.7,16.5-5.6V1553H1054.4c-9-20.1-18.1-40.2-27.2-60.7-5.8,4.3-10.9,8.3-16.4,12q-17.4,11.55-35.1,22.8c-2.6,1.6-5.6,2.6-9,4.1-5.2-20.8-5.4-41.5-7.3-62.7-14.7,9.8-28.7,19.1-43.7,29.1,3.7-27.8,7.2-54.5,10.7-81.3a152.34,152.34,0,0,0-16,12.1c-5.1,4.2-10.1,8.5-15.2,12.6s-9.8,8.5-15.8,12.8V927.3c0-5.9-.3-11.9-.8-17.8-3.4-39-17-74.3-39.7-106.2-16.3-22.9-36.5-41.7-59.6-57.5-61.5-42.2-129.7-60.8-204-57.4h-2.9a34,34,0,0,1-.9-3.3q-14.1-66.45-28.1-132.9a8.67,8.67,0,0,0-4.3-6.2c-12.5-7.5-24.8-15.3-37.3-22.8a9,9,0,0,1-4.6-6.6c-2.2-10.1-4.5-20.2-6.8-30.3-.5-2.1-1.1-4.2-1.8-6.6-11.7,5.1-23,10-34.1,14.9-6.6-4.9-12.8-9.5-19.4-14.3,5.2-22,10.9-44,16.1-66.2a5.58,5.58,0,0,1-.8-.5c-25.1,16.6-50.1,33.1-75.4,49.8-1.4-1.1-2.7-2.1-3.8-3.1-4.8-4.1-9.6-8.1-14.2-12.3-1.8-1.6-3.4-2.2-5.9-1.4-4,1.3-8.2,2.2-12.2,3.3-19.8,5.3-39.9,10-59.4,16.2C215.2,486.6,151,507.7,86.8,528.6,72,533.4,57.3,538,41.7,539.7,27.6,541.3,13.9,543.9.1,546ZM920.9,446l-.3-.9c-2.2-.1-4.3-.3-6.5-.4-11-.4-21.9-.7-32.9-1.2q-38.55-1.8-59.4-34.2c-2.8-4.3-5.3-8.9-8-13.3a42.64,42.64,0,0,0-2.6-3.5c-.3,3.6-.6,6.2-.8,8.9-.9,11.9-1.6,23.8-2.7,35.6-2.6,28.2-24.6,49.1-52.9,50.4-4.6.2-4.6.2-6.3-4.4l-12.3-33c-.5-1.2-1-2.4-2-4.6-3.6,7.8-6.8,14.7-10,21.7-1.8-.5-3.3-.8-4.8-1.2-.6.9-1.2,1.7-1.8,2.5-.7-.9-1.4-1.7-2.1-2.5-1.6.4-3,.8-4.7,1.2-3.3-7.2-6.6-14.1-10.2-21.9-2.9,7.7-5.4,14.6-8,21.5s-5.2,13.7-8,21.1c-4.7-.5-9.3-.6-13.7-1.5-25.3-5.4-42.6-25.9-44.1-51.8-.6-10.3-1.4-20.6-2.2-31-.2-3.3-.6-6.7-1-10a100.39,100.39,0,0,0-9,13.3q-21.3,35.55-62.7,36.8l-33.4,1.2c-1.6.1-3.1.3-4.6.5a13.17,13.17,0,0,0,4.3,2.8c11.7,5,23.3,10.1,35,15.1a20.84,20.84,0,0,1,11.6,11.7l7.5,18.3c.6,1.4,1.3,2.8,2,4.4,4.7-2.2,9.1-4.3,13.5-6.2a27.69,27.69,0,0,1,32.7,8.1c1.3,1.6,2.5,3.3,3.8,4.8a30.31,30.31,0,0,1,7.2,22.2c-.7,10.2-1.2,20.3-1.7,30.5-.1,1.6-.6,3.3.7,5.1,1.3-1.4,2.3-2.5,3.4-3.6,6-6.4,11.9-13,18-19.2,12-12.1,30.4-11.2,40.8,2.2a131.58,131.58,0,0,1,9.4,14c3.3,5.5,6.2,11.2,9.4,16.9a19.27,19.27,0,0,0,1.6,2.4h8.7c.4-.6,1.1-1.8,1.8-3,3.6-6.5,6.9-13.1,10.7-19.3a90.52,90.52,0,0,1,9.7-13.3c10.2-11.1,27.8-11.1,38.7-.1,6.7,6.8,13.1,14,19.6,20.9a33.36,33.36,0,0,0,2.9,2.4c-.7-12.7-1.2-24.6-1.9-36.5-.4-7.2,1.2-13.7,5.5-19.5,1.4-1.9,2.8-3.8,4.3-5.6,9.4-11.9,22.2-14.9,36.1-8.5,3.7,1.7,7.3,3.4,11.3,5.2.7-1.4,1.3-2.4,1.8-3.6,2.4-5.8,5-11.5,7.1-17.4,2.5-6.8,7-11.2,13.6-14,11.3-4.7,22.5-9.6,33.7-14.5C918.2,447.3,919.5,446.6,920.9,446Z"/><path class="cls-1" d="M.1,609V563.8c16.7-2.5,33.5-5,50.2-7.6,6.3-1,12.9-1.6,18.9-3.5Q152,526.15,234.6,499q54.9-18.15,110.9-32.6c2.9-.7,4.9-.6,7.2,1.5,4.7,4.4,9.7,8.4,14.6,12.6l6,5.1c16.5-10.9,32.7-21.6,48.8-32.2a5.5,5.5,0,0,1,.9.7c-6.6,27.1-13.3,54.2-20.2,82.4,24.9-10.9,48.8-21.4,73-32,.5,1.8,1,3.3,1.3,4.8,1.4,6.3,3,12.5,4.2,18.8a8.62,8.62,0,0,0,4.4,6.1c12.6,7.6,25.1,15.5,37.7,23.1a7.37,7.37,0,0,1,3.8,5.5c7.7,37,15.6,73.9,23.4,110.8,1.1,5.3,2.2,10.6,3.4,16.5a328.22,328.22,0,0,0-81.8,20.5,313.34,313.34,0,0,0-73.6,41c10.2,8.9,20.3,17.1,30.7,26.2-16.5,4.3-32.1,8.4-47.6,12.4-2.9-5.3-5.5-10-8.2-14.9-2.8,1.5-5.1,2.8-7.7,4.2,2.3,4.4,4.4,8.5,6.7,13.1-10.3,2.7-20,5.2-30.1,7.9-3.1-17.9-6-35.1-9-52.8-3.2.6-5.9,1.1-8.8,1.6,3.1,18.1,6,35.7,9,53.5-8.8,2.2-16.9,4.8-25.4,6.6-1.3-7.3-2.5-13.8-3.7-20.9-3,.5-5.7,1-8.7,1.5,1.2,7.5,2.3,14.5,3.5,21.9-11.5,3.1-22.6,6-34,9.1-5.5-14.2-10.7-27.9-16.2-41.9-2.9,1.2-5.5,2.2-8.3,3.3,5.2,13.7,10.3,27.1,15.6,41.1-14.8,3.9-29,8.1-43.4,11.6-4.5-10.2-8.8-19.9-13.2-29.8-3,1.3-5.5,2.4-8.2,3.6,4.3,9.8,8.3,19.1,12.6,28.8-11.2,3.1-21.8,6-32.9,9.1-3-17.4-5.9-34.4-8.9-51.8-3,.5-5.7.9-8.8,1.4,3,17.8,5.9,35.2,8.9,52.9-11.9,3.4-23.4,6.6-35,9.9-4.1-7.6-7.9-14.7-11.9-22-2.9,1.6-5.3,3-7.8,4.4,3.7,7,7.1,13.4,10.6,20.1-5,1.5-9.5,2.9-14.3,4.4.9,3,1.7,5.6,2.5,8.4,5.7-1.6,11-3,16.3-4.4,3.9,7.1,7.5,13.8,11.2,20.8,3-1.7,5.3-3,7.8-4.4-3.4-6.5-6.6-12.5-10-19,11-3.1,21.3-6,32.1-9.1,2.5,14.4,4.9,28.4,7.4,42.6,3.2-.6,5.7-1,8.7-1.6-2.5-14.7-4.8-29-7.3-43.6,11.9-3.3,23.4-6.4,35-9.6,4.4,10,8.6,19.5,13.1,29.5,2.8-1.3,5.3-2.4,8.1-3.6-3.8-9.7-8.4-18.7-12.1-28.4,14.7-4,28.7-7.7,42.8-11.6,4.5,11.8,8.9,23,13.3,34.5,3-1.1,5.5-2.1,8.3-3.2-4.3-11.4-8.5-22.3-12.8-33.7,11.1-2.8,21.4-6.1,32.3-8.3,1.3,7.2,2.5,14,3.8,21.1,3.1-.5,5.8-1,8.7-1.5-1.2-7.6-2.4-14.6-3.6-22.2,8.4-2.2,16.6-4.4,25.4-6.8,1.5,8.4,2.9,16.3,4.4,24.6,3.2-.6,5.8-1.1,8.7-1.7-1.4-8.6-2.7-16.8-4.1-25.3,11.3-3,22.1-5.8,33-8.7,5.1,9.6,10,18.6,15.1,28l7.8-4.2c-4.4-9-9.4-17.3-13.7-26.2,17.6-4.6,34.5-9.1,51.8-13.6,1.2,7.3,2.4,14.1,3.6,21.4-7.6-.3-14.6-.6-22-.9-1,17-1.9,33.5-2.8,50.3-23.5-2.6-46.3-5.2-69.9-7.9,4.4,10.5,8.5,20.3,12.8,30.5-98.1,17.1-195.5,34-292.9,51a8.51,8.51,0,0,1-.7-1.6c-2.9-16.2-5.7-32.4-8.6-48.6-5.8-32.7-11.5-65.4-17.3-98.1q-8.7-49.5-17.6-99c-1.4-7.7-2.1-15.6-4.4-23.1-5-16-10.7-31.8-16.2-47.6A20.53,20.53,0,0,0,.1,609Zm357.1-34.8c-4.5,3.9-9,7.4-12.8,11.4a59.31,59.31,0,0,0-11.6,18.7c-6.9,16.4-10.1,33.3-6.1,51,7.7,33.6,40.9,56,75,49.9,24.1-4.3,42.5-17.7,55.7-38.3a43.2,43.2,0,0,0,5.2-13c2.5-10.1.3-19.3-6.9-27.1-3.1-3.3-6.4-6.5-9.5-9.7-2.1-2.2-4.1-4.5-6.5-7.2l30.8,13.3c1.2-2.7,2.3-5.2,3.6-8.2-39.5-17.2-78.6-34.3-118.2-51.6-1.3,2.9-2.4,5.4-3.5,8.1C354.2,572.6,355.8,573.4,357.2,574.2ZM65,697.8c.7,2.3,1.1,3.6,1.5,4.9,10,33.4,42.7,53.2,76.8,46.5,35.6-6.9,59.2-42.4,51.7-77.9-3.7-17.5-13.1-31.7-25.6-44.1a60.2,60.2,0,0,0-18.9-13c-7.6-3.2-15.3-4.5-23.3-1.5-.4.2-1,0-2,0,6.3-8.9,12.3-17.3,18.4-26.1-2.5-1.8-4.8-3.4-7.3-5.2-29,40.9-57.8,81.5-86.7,122.2,2.7,1.9,4.9,3.5,7.3,5.2C59.7,705.2,62.1,701.9,65,697.8Zm272.1-3.1a12,12,0,0,1,.6,1.2,4.81,4.81,0,0,0,.9,1.1c16.3,18.4,36.2,28.5,61.1,25,28.8-4.1,49-20,61.1-46.4a8.78,8.78,0,0,0,.4-2c-1.3-.4-2.4-.8-3.7-1.2-.7,1.5-1.3,2.8-2,4-6.5,13.5-16,24.3-29,31.8-14.3,8.2-29.5,12-46,9.1-14.9-2.7-27-10.4-37.2-21.5-1-1.1-2.1-2.2-3.2-3.4A34,34,0,0,1,337.1,694.7ZM196.5,717c-.9,2.1-1.7,3.9-2.5,5.8-8.7,18.8-22.2,32.3-42.9,37-25.6,5.8-48.1-.8-67.3-18.6a53,53,0,0,1-4.1-4.9c-1.6,1.4-2.5,2.3-3.6,3.2,1.1,1.3,1.9,2.2,2.8,3.1,12.9,13,28.4,20.9,46.7,23,37.9,4.3,64.2-17.2,74.6-46.5.1-.2-.1-.6-.2-1.2C199,717.6,197.9,717.3,196.5,717Z"/><path class="cls-1" d="M111.2,1553H.1V663.6c2,.7,1.7,2.4,1.9,3.9q9.3,52.35,18.6,104.6,14.4,81,28.6,162c.9,5.2,1.9,10.4,3,16,17.5-3,34.6-6,51.8-8.9s34.1-6.2,51.4-8.8c10.1,59,20,117.4,30,175.8s19.9,117,29.9,176.1c16.5-2.8,32.7-5.5,49.3-8.3,2,11.6,4,22.8,6,34.6,11-1.8,21.7-3.6,33.1-5.4-.2,6.8,4.1,12.3,2.7,19.2q-76.95,13-154.3,26.3c1.8,11,3.5,21.3,5.3,31.7s3.6,20.7,5.4,31,3.4,20.7,5.2,31.1,3.6,20.7,5.3,31,3.9,20.3,5,31.3c-3.6-3.5-6.6-6.3-9.4-9.2s-5.7-5.8-8.6-8.7-5.7-5.8-8.6-8.7-5.6-5.9-8.6-8.7c-2.8-2.7-5.2-6-8.9-8.5-3.6,13.9-7,27.1-10.4,40.3Q117.5,1528.2,111.2,1553Z"/><path d="M111.2,1553c4.2-16.5,8.4-33.1,12.6-49.6,3.4-13.2,6.8-26.4,10.4-40.3,3.7,2.5,6.1,5.7,8.9,8.5s5.7,5.8,8.6,8.7,5.7,5.8,8.6,8.7,5.7,5.9,8.6,8.7,5.8,5.7,9.4,9.2c-1.1-11-3.4-21.1-5-31.3-1.7-10.4-3.6-20.7-5.3-31s-3.4-20.7-5.2-31.1-3.6-20.7-5.4-31-3.5-20.7-5.3-31.7c51.7-8.8,103-17.5,154.3-26.3,1.4-7-2.9-12.4-2.7-19.2-11.4,1.9-22.1,3.6-33.1,5.4-2-11.8-4-23-6-34.6l-49.3,8.3c-10-59.1-19.9-117.6-29.9-176.1s-19.9-116.7-30-175.8c-17.4,2.6-34.4,5.9-51.4,8.8s-34.2,5.8-51.8,8.8c-1.1-5.6-2.1-10.8-3-16q-14.25-81-28.6-162Q11.3,719.75,2,667.5c-.3-1.5,0-3.3-1.9-3.9V609c.6.8,1.6,1.4,1.9,2.3,5.5,15.8,11.3,31.6,16.2,47.6,2.3,7.4,3,15.4,4.4,23.1,5.9,33,11.7,66,17.6,99q8.7,49.05,17.3,98.1c2.9,16.2,5.7,32.4,8.6,48.6.1.4.4.8.7,1.6,97.4-16.9,194.8-33.9,292.9-51-4.3-10.3-8.4-20-12.8-30.5,23.5,2.6,46.3,5.2,69.9,7.9.9-16.8,1.9-33.3,2.8-50.3,7.4.3,14.4.6,22,.9-1.2-7.3-2.4-14.2-3.6-21.4-17.3,4.6-34.2,9-51.8,13.6,4.3,9,9.3,17.3,13.7,26.2-2.6,1.4-5.1,2.7-7.8,4.2-5-9.4-9.9-18.5-15.1-28-10.9,2.8-21.7,5.7-33,8.7,1.4,8.5,2.7,16.6,4.1,25.3-2.9.6-5.5,1.1-8.7,1.7-1.5-8.3-2.9-16.2-4.4-24.6-8.7,2.3-17,4.5-25.4,6.8,1.2,7.6,2.4,14.7,3.6,22.2-3,.5-5.7.9-8.7,1.5-1.3-7.1-2.5-13.8-3.8-21.1-10.9,2.2-21.3,5.5-32.3,8.3,4.3,11.4,8.5,22.3,12.8,33.7-2.8,1.1-5.3,2.1-8.3,3.2-4.4-11.5-8.8-22.7-13.3-34.5-14.1,3.8-28.1,7.6-42.8,11.6,3.7,9.7,8.3,18.7,12.1,28.4-2.7,1.2-5.2,2.3-8.1,3.6-4.4-10-8.6-19.5-13.1-29.5-11.6,3.2-23,6.4-35,9.6,2.4,14.5,4.8,28.8,7.3,43.6-3,.5-5.6,1-8.7,1.6-2.5-14.3-4.9-28.2-7.4-42.6-10.8,3.1-21.1,6-32.1,9.1,3.4,6.5,6.6,12.5,10,19-2.4,1.4-4.8,2.7-7.8,4.4-3.7-7-7.3-13.6-11.2-20.8-5.3,1.4-10.5,2.9-16.3,4.4-.8-2.8-1.6-5.4-2.5-8.4,4.8-1.5,9.2-2.8,14.3-4.4-3.5-6.7-6.9-13.2-10.6-20.1,2.5-1.4,4.9-2.8,7.8-4.4,4,7.4,7.8,14.5,11.9,22,11.6-3.3,23.1-6.5,35-9.9-3-17.7-5.9-35.1-8.9-52.9,3.1-.5,5.8-.9,8.8-1.4,3,17.4,5.9,34.4,8.9,51.8,11.1-3.1,21.7-6,32.9-9.1-4.2-9.7-8.3-19-12.6-28.8,2.7-1.2,5.2-2.3,8.2-3.6,4.4,10,8.7,19.6,13.2,29.8,14.5-3.5,28.6-7.7,43.4-11.6-5.3-13.9-10.4-27.3-15.6-41.1,2.8-1.1,5.4-2.1,8.3-3.3,5.4,14.1,10.7,27.7,16.2,41.9,11.4-3.1,22.6-6,34-9.1-1.2-7.4-2.3-14.5-3.5-21.9,3-.5,5.7-1,8.7-1.5,1.2,7,2.4,13.6,3.7,20.9,8.5-1.8,16.6-4.3,25.4-6.6-3-17.8-6-35.4-9-53.5,2.9-.5,5.6-1,8.8-1.6,3,17.7,6,34.9,9,52.8,10.1-2.6,19.8-5.2,30.1-7.9-2.4-4.6-4.5-8.7-6.7-13.1,2.6-1.4,4.9-2.7,7.7-4.2,2.7,4.9,5.3,9.6,8.2,14.9,15.5-4.1,31.1-8.1,47.6-12.4-10.3-9.1-20.5-17.3-30.7-26.2a313.34,313.34,0,0,1,73.6-41,328.22,328.22,0,0,1,81.8-20.5c-1.2-5.9-2.3-11.2-3.4-16.5-7.8-36.9-15.7-73.9-23.4-110.8a7.55,7.55,0,0,0-3.8-5.5c-12.6-7.7-25.1-15.5-37.7-23.1a8.62,8.62,0,0,1-4.4-6.1c-1.2-6.3-2.8-12.5-4.2-18.8-.3-1.5-.8-2.9-1.3-4.8-24.2,10.6-48.1,21.1-73,32,6.9-28.1,13.5-55.2,20.2-82.4a5.5,5.5,0,0,1-.9-.7c-16.1,10.6-32.3,21.3-48.8,32.2l-6-5.1c-4.9-4.2-9.9-8.3-14.6-12.6-2.3-2.1-4.3-2.3-7.2-1.5Q289.45,480.8,234.5,499,152,526.3,69.1,552.7c-6.1,1.9-12.6,2.5-18.9,3.5-16.7,2.6-33.5,5-50.2,7.6V545.9c13.8-2.1,27.5-4.7,41.4-6.2,15.6-1.7,30.3-6.2,45.1-11.1,64.2-20.9,128.4-42,192.7-62.5,19.5-6.2,39.6-10.8,59.4-16.2,4.1-1.1,8.2-2,12.2-3.3,2.5-.8,4.1-.2,5.9,1.4,4.7,4.2,9.5,8.2,14.2,12.3,1.2,1,2.4,1.9,3.8,3.1,25.2-16.7,50.3-33.2,75.4-49.8a5.58,5.58,0,0,1,.8.5c-5.2,22.1-10.8,44.1-16.1,66.2,6.5,4.8,12.8,9.5,19.4,14.3,11.1-4.9,22.4-9.8,34.1-14.9.7,2.4,1.3,4.5,1.8,6.6,2.3,10.1,4.6,20.2,6.8,30.3a9,9,0,0,0,4.6,6.6c12.5,7.5,24.8,15.3,37.3,22.8a8.49,8.49,0,0,1,4.3,6.2q13.95,66.45,28.1,132.9c.2,1,.6,2.1.9,3.3H575c74.3-3.3,142.5,15.2,204,57.4,23.1,15.9,43.3,34.6,59.6,57.5,22.7,31.8,36.2,67.1,39.7,106.2.5,5.9.8,11.9.8,17.8v526.5c6.1-4.3,10.8-8.7,15.8-12.8s10.1-8.4,15.2-12.6a142.59,142.59,0,0,1,16-12.1c-3.5,26.7-7,53.4-10.7,81.3,15-10,29-19.3,43.7-29.1,1.9,21.3,2.1,42,7.3,62.7,3.4-1.5,6.5-2.4,9-4.1q17.7-11.25,35.1-22.8c5.4-3.6,10.6-7.7,16.4-12,9.2,20.4,18.2,40.6,27.2,60.7Zm627.6-98.1c.4.2.7.3,1.1.5v68.5c24.8-15.9,48.9-31.3,73.6-47.1,4.8,23.3,9.4,45.9,14.1,68.6,14.5,0,28.3.1,42.6-.1V1540q.15-43.5.2-87V932.6c0-4.7-.1-9.4-.4-14.1-1.5-32.9-10.8-63.5-27.2-92-16.5-28.8-39-52-66-71.2-48.9-34.5-103.2-53.5-162.8-57.6a318,318,0,0,0-196.5,52c-1.2.8-2.4,1.8-3.5,2.6.3.6.3.8.4.9l73.2,62.1a8.64,8.64,0,0,1,1.3,1.4.6.6,0,0,1,.1.4,4.08,4.08,0,0,1-.2.7q-30-1.35-60.5-2.8c-1,17.3-1.9,34-2.8,50.9-21.6-2.4-42.5-4.8-64-7.2,3.1,7.4,5.9,14,8.5,20.4-.2.5-.2.7-.3.8-12.7,15.5-25.4,31.1-38.3,46.5a10.36,10.36,0,0,1-4.3,2.6c-3.7,1.2-7.5,2.2-11.2,3.2-.1,1.6-.2,2.9-.2,4.1q0,95.7-.1,191.5a10,10,0,0,0,2.5,6.8c5.7,6.9,11.2,13.9,16.9,20.8a7.32,7.32,0,0,1,1.8,7.2c-6.7,26.9-13.4,53.8-19.9,80.8a40.25,40.25,0,0,0-1.2,9.7q-.15,117,0,233.9v53.2c0,1.7.1,3.3.2,5.3h5.7q145.8,0,291.7.1c3.9,0,6.1-1.1,8.1-4.6,16.1-28.3,32.5-56.6,48.8-84.8.8-1.4,1.3-3.1,3.3-4.2,2.9,17.2,5.7,33.9,8.7,51.4C701.5,1486.7,720.1,1470.8,738.8,1454.9ZM306.2,1250.8c.5-2.9.8-5.4,1.4-7.8,6.3-25.7,12.5-51.4,19-77.1.9-3.5.5-6.1-1.9-8.9-5.2-6-10-12.5-15.2-18.6a11.18,11.18,0,0,1-2.8-7.6q.15-100.5.1-200.9c0-1.5.1-3,.2-4.8,5.1-1.4,9.9-2.8,14.7-4.1a8.72,8.72,0,0,0,5-3.2c3.8-4.8,7.8-9.5,11.6-14.2a31.18,31.18,0,0,0,2.1-3.5c-56.3,9.6-111.7,19-167,28.4.1,5.7,55.1,331.1,57.2,335.3C255.8,1259.5,281.1,1255.2,306.2,1250.8Zm-21.9,231.5c2.7-3.3,4.3-6.1,3.6-10.2q-10.35-59.7-20.5-119.4c-.2-1-.5-2-.9-3.4-10.1,1.7-19.9,3.4-29.8,5.1.1,1.1.1,1.7.2,2.3q4.65,27.3,9.2,54.7a32.86,32.86,0,0,0,4.3,11.8c10.6,18.3,21,36.7,31.5,55.1C282.5,1479.5,283.3,1480.6,284.3,1482.3Zm-58.7,2.7a11.41,11.41,0,0,0,.6-1.5c5.5-19.9,11.1-39.8,16.4-59.8a16.52,16.52,0,0,0,0-7c-2.4-14.4-4.8-28.7-7.3-43.1-1-6-2.1-12-3.2-18.5-10.6,1.8-20.8,3.6-31.2,5.3.1,1.2.2,1.8.3,2.4,2.6,15.6,5.3,31.2,7.9,46.8,3.9,22.9,7.8,45.7,11.6,68.6C221.2,1481.2,222.3,1483.6,225.6,1485Zm45.7-136.5,20.5,120.3c3.2-3.5,5.1-7.4,7.8-10.8a35,35,0,0,0,7.3-26.3c-.5-5,.3-10.1-.5-15-3.5-21.8-7.3-43.6-11-65.4-.4-2.1-.9-4.2-1.4-6.7C286.3,1346,278.9,1347.2,271.3,1348.5Zm-56.6,127,1-.3c-6.4-37.9-12.9-75.7-19.4-113.9-8.2,1.4-15.9,2.7-23.6,4,.1,1.1.1,1.7.2,2.3,4.4,25.8,8.8,51.5,13,77.3a11.63,11.63,0,0,0,4.2,7.5c3.4,3,6.6,6.2,9.9,9.3ZM282.2,1273c.9,6.1,1.6,11.7,3.2,17.3,5.2-1.2,10.2-1.3,15-3-1-5.8-2-11.1-3-16.9C292.3,1271.4,287.6,1272.1,282.2,1273ZM450.1,795.4l-1,.3c.6,3.6,1.3,7.2,1.9,10.9,4.3.5,8.1,1.2,12.9.4C458.8,802.8,454.5,799.1,450.1,795.4Z"/><path class="cls-1" d="M1200.1,113V246.6c-.9,1.9-1.9,3.9-2.8,5.8a160,160,0,0,1-36.1,47.2c-5.1,4.6-10.6,8.7-16.1,13.2-5.9-6.1-8.3-13.6-12.6-21.1-.5,2.8-.8,4.4-1.1,6.1-1.2,7.3-2.4,14.5-3.4,21.8a5.83,5.83,0,0,1-3.9,5.2,155.8,155.8,0,0,1-37.7,13c-5.5,1.1-11,1.9-16.7,2.9-1.3-4.2-2.4-7.9-3.8-12.4-2.8,4.8-5.1,8.9-7.4,13H1045c-1.8-4.8-3.6-9.5-5.8-15.1-2.6,5.2-4.7,9.4-6.7,13.6a17.18,17.18,0,0,1-2.3,0,157.25,157.25,0,0,1-46.3-13.7,4.65,4.65,0,0,1-3-3.9c-.5-4.3-1.3-8.7-1.4-13.1-.2-8.5.1-16.9.1-25.4a38.89,38.89,0,0,0-.3-4.2c-4.4,5.5-8.1,10.5-12.2,15.2a49.83,49.83,0,0,1-15.4,11.4c-18.9-15.4-33.7-33.5-44.3-55.1,6.4-7.2,13.9-9.6,22.8-7.8,3.2.7,6.3,1.6,9.7,2.5.5-1.5.9-2.7,1.2-3.8,1-4.3,2-8.6,2.9-12.8a16.91,16.91,0,0,1,7.8-11.3c4.8-3,9.5-6.2,14.2-9.2a23.94,23.94,0,0,1,2.8-1.3c1,2.3,1.9,4.2,2.8,6.3,2.2-.8,4.1-1.7,6-2.3,4.3-1.3,8.6-1.2,12.1,1.6,5.7,4.4,9.4,10,8.4,17.8-.6,4.1-.8,8.2-1.2,13.5,3.6-3.5,6.3-6.3,9.2-8.8,6.5-5.7,15.1-4.9,20.2,1.9a53,53,0,0,1,4.6,7.6c1.4,2.5,2.4,5.1,3.8,7.5,1.2,2.1,2.4,2.1,3.9.1.7-.9,1.1-1.9,1.7-2.8,2.5-3.8,4.9-7.7,7.7-11.2a14.3,14.3,0,0,1,5.6-4.1c5.3-2.3,11-.7,15.3,3.9,2.5,2.7,4.8,5.5,8,9.1,0-4.9.2-8.6,0-12.3-.4-6.1,1.8-11,6-15.2,4.7-4.7,10.7-6,16.8-3.2,1.7.8,3.3,1.6,5.3,2.6,1.5-3.1,2.9-5.8,4.1-8.7a11.88,11.88,0,0,1,7.4-6.8c3.7-1.3,7.3-2.8,11-4.2a15.94,15.94,0,0,0,2.4-1.7c-4.9-.4-9.1-.8-13.4-1.2-12.7-1-22.2-7.1-28.5-18.1-.8-1.3-1.6-2.6-2.9-4.9-.4,2.7-.7,4.4-.9,6-.6,4.8-.9,9.7-2,14.4-3,13.5-16.5,22.6-29.4,19.9-1.9-5.5-3.8-11.2-5.9-17.6-1.8,3.2-3.2,5.7-4.5,8-2.6-.2-5.1-.3-7.5-.5-1.2-2.6-2.3-5-3.8-8.2-2.8,6.5-5.2,12-7.5,17.3-12.8.6-24.7-8.4-27-20.9-1-5.4-.8-10.9-1.1-16.4-.1-1.6-.2-3.3-.3-5.8-1.2,1.5-1.9,2.1-2.3,2.8-7.7,12.1-18.7,17.6-32.9,17.2-3.7-.1-7.4,0-11,0a8.24,8.24,0,0,0,3.3,2.7c3.4,1.7,6.8,3.2,10.1,5,2.1,1.1,4,2.4,4.3,5.3-5.9.8-11.7,1.4-17.4,2.3a54.45,54.45,0,0,1-27.7-3.1A56.58,56.58,0,0,1,898.8,186c-2-2.3-3.7-4.8-6.9-7.4,1.1,11.8,2.1,22.5,3.1,33.2-.7-.3-1-.6-1.1-1-.3-1.1-.6-2.1-.8-3.2A161.67,161.67,0,0,1,1074.4,19.4c35.7,4.9,66.3,20.3,91.9,45.5A160.09,160.09,0,0,1,1200.1,113Z"/><path d="M1200.1,113a162.65,162.65,0,0,0-33.4-47.9c-25.7-25.2-56.2-40.6-91.9-45.5A161.67,161.67,0,0,0,893.5,207.8c.2,1.1.5,2.1.8,3.2a1.41,1.41,0,0,0,1.1,1c-1-10.7-2-21.4-3.1-33.2a56.7,56.7,0,0,1,6.9,7.4A55.64,55.64,0,0,0,922,202.3a53.5,53.5,0,0,0,27.7,3.1c5.7-.9,11.5-1.5,17.4-2.3-.4-2.9-2.3-4.3-4.3-5.3-3.3-1.7-6.8-3.3-10.1-5a8.24,8.24,0,0,1-3.3-2.7c3.7,0,7.4-.1,11,0,14.2.5,25.2-5.1,32.9-17.2.5-.7,1.1-1.4,2.3-2.8.1,2.5.2,4.2.3,5.8.3,5.5.1,11,1.1,16.4,2.3,12.5,14.2,21.6,27,20.9,2.3-5.3,4.7-10.9,7.5-17.3,1.5,3.2,2.6,5.6,3.8,8.2,2.4.1,4.9.3,7.5.5,1.3-2.3,2.7-4.8,4.5-8,2.2,6.4,4.1,12.1,5.9,17.6,12.9,2.7,26.4-6.4,29.4-19.9,1-4.7,1.3-9.6,2-14.4.2-1.7.5-3.3.9-6,1.3,2.3,2.1,3.6,2.9,4.9,6.4,11,15.8,17.1,28.5,18.1,4.2.3,8.4.7,13.4,1.2a15.94,15.94,0,0,1-2.4,1.7c-3.6,1.5-7.3,2.9-11,4.2a11.88,11.88,0,0,0-7.4,6.8c-1.2,2.8-2.6,5.6-4.1,8.7-2-1-3.6-1.8-5.3-2.6-6.1-2.8-12.1-1.5-16.8,3.2-4.2,4.2-6.4,9.1-6,15.2.2,3.7,0,7.4,0,12.3-3.1-3.6-5.5-6.4-8-9.1-4.3-4.7-10-6.3-15.3-3.9a14.3,14.3,0,0,0-5.6,4.1c-2.8,3.5-5.2,7.4-7.7,11.2-.6.9-1.1,1.9-1.7,2.8-1.5,2-2.7,2-3.9-.1-1.4-2.5-2.5-5.1-3.8-7.5a53,53,0,0,0-4.6-7.6c-5.2-6.8-13.8-7.6-20.2-1.9-2.9,2.6-5.6,5.3-9.2,8.8.5-5.3.7-9.4,1.2-13.5,1.1-7.8-2.7-13.3-8.4-17.8-3.5-2.8-7.9-3-12.1-1.6-1.9.6-3.8,1.4-6,2.3-.9-2.1-1.8-4-2.8-6.3-1,.5-2,.8-2.8,1.3-4.8,3-9.4,6.2-14.2,9.2a16.91,16.91,0,0,0-7.8,11.3c-.9,4.3-1.9,8.6-2.9,12.8-.3,1.2-.7,2.3-1.2,3.8-3.4-.9-6.5-1.9-9.7-2.5-8.9-1.8-16.4.6-22.8,7.8a161.91,161.91,0,0,0,44.3,55.1,49.83,49.83,0,0,0,15.4-11.4c4.1-4.6,7.8-9.7,12.2-15.2.1,1.9.3,3,.3,4.2,0,8.5-.3,16.9-.1,25.4a116.46,116.46,0,0,0,1.4,13.1,4.78,4.78,0,0,0,3,3.9,161.58,161.58,0,0,0,46.3,13.7,17.18,17.18,0,0,0,2.3,0c2.1-4.2,4.2-8.4,6.7-13.6,2.1,5.6,4,10.3,5.8,15.1h13.5c2.4-4.1,4.7-8.2,7.4-13,1.4,4.6,2.5,8.2,3.8,12.4,5.7-1,11.2-1.8,16.7-2.9a154.49,154.49,0,0,0,37.7-13,6.14,6.14,0,0,0,3.9-5.2c.9-7.3,2.2-14.6,3.4-21.8.3-1.7.6-3.4,1.1-6.1,4.3,7.5,6.8,15,12.6,21.1,5.5-4.5,10.9-8.6,16.1-13.2a161.72,161.72,0,0,0,36.1-47.2c1-1.9,1.9-3.9,2.8-5.8v64c-7.3,7.4-14.7,14.8-22.3,22.5,7.5,1.6,14.9,2.2,22.3,2.9v5.6c-5.5,1.9-11,3.8-16.5,5.6a18.51,18.51,0,0,0-11.4,9.8c-2.6,5.2-5.3,10.3-8.2,16-2.5-1.4-4.7-2.7-7-4-12.2-6.8-22.9-4.9-32.6,5.1-6.2,6.5-9.5,13.7-9.2,22.8.2,7.2-.4,14.4-.7,22.3a37.26,37.26,0,0,1-2.9-3c-3.5-4.4-7-8.9-10.5-13.3-9.9-12-25.6-12.6-36-1.1-4,4.4-7.3,9.4-10.8,14.2-2.6,3.6-4.9,7.3-7.3,11h-4.2c-.3-.5-.7-.8-.9-1.2-2.5-5.4-4.8-10.9-7.4-16.3a97.18,97.18,0,0,0-6.7-11.8c-8-11.6-23.4-13.5-34.2-4.4-4.2,3.5-8.1,7.4-12.2,11a11.44,11.44,0,0,1-4.4,2.7c.5-4.1.9-8.1,1.4-12.2.6-4.8,1.4-9.6,1.9-14.5.8-7.7-2.5-14-7.1-19.9a8.51,8.51,0,0,0-2.7-1.8c-5.3-2.7-10.6-5.3-15.8-8.2a7.44,7.44,0,0,0-6.3-.8c-4.2,1.3-8.3,2.7-12.8,4.1-.5-1.2-1.1-2.2-1.5-3.4a94.27,94.27,0,0,1-3.2-10.3c-1.6-7.8-6.9-12.4-13.4-16-6.2-3.4-12.4-6.6-18.7-10-1-.6-2-1.3-3.8-2.4h10.7a34.29,34.29,0,0,0-2-2.9c-5.1-6.7-10.3-13.4-15.3-20.3a11.38,11.38,0,0,0-5.9-4.3,21.25,21.25,0,0,0-25.5,9.9,85.14,85.14,0,0,0-5.3,11.5c-2.1,5.5-4,11.2-6,17-1.3.3-2.7.6-4.1.9-.3-.3-.8-.5-1-.8-3.4-4.3-6.8-8.7-10.3-12.8a100.58,100.58,0,0,0-8.4-8.9c-10.6-9.5-25.3-7.7-33.4,4.2-2.9,4.3-5.7,8.6-8.5,13l-2.6,3.7c-.4-1.7-.8-2.6-.9-3.5-.9-7.3-1.7-14.6-2.6-21.9a21.84,21.84,0,0,0-7.3-13.8,50.92,50.92,0,0,0-7.2-6c-7.9-4.9-16-4.9-24-.2-2.8,1.7-5.5,3.7-8.6,5.8-1-1.4-2-2.8-2.8-4.1-2.1-3.3-4.2-6.6-6.2-10a17.68,17.68,0,0,0-11.9-8.5c-7.6-1.8-15.2-3.7-22.8-5.6a5,5,0,0,1-2.7-1.5c1.8-.4,3.6-.9,5.5-1.3,7-1.5,14.2-2.8,21.1-4.6,18.2-4.7,30.9-15.9,38.3-33.2,1.3-3,2.5-6.1,3.7-9.1a7.28,7.28,0,0,1,.7-.6,39.9,39.9,0,0,1,1.3,4.2c2,7.9,3.8,15.8,5.9,23.7,5.4,20.5,23.2,33.7,44.3,32.7,2.5-.1,4.9-.7,7.7-1.1,2-10.3,4-20.4,6.1-31.6,3.5,5.1,6.4,9.3,9,13.1,4-.7,7.5-1.4,11.8-2.2,1.2-4.1,2.5-9,4.2-15,5.8,9.4,10.7,18.4,16,27.3a29.2,29.2,0,0,0,12.8-3.2c-.5-1.5-.8-2.8-1.3-4.1a194,194,0,0,1-11.8-78A196.84,196.84,0,0,1,964.3,3.9c2.2-1.1,4.3-2.5,6.4-3.7h164.7c1.4.9,2.8,1.9,4.2,2.7a196.15,196.15,0,0,1,60.7,46.3C1200.1,70.4,1200.1,91.7,1200.1,113Zm-225,180.7a9.1,9.1,0,0,0-1.8,1.4c-14.4,16.2-32.5,23.4-54.1,22.1-1.3-.1-2.6,0-3.9,0a29.17,29.17,0,0,0,7.2,4.8A22.4,22.4,0,0,1,934,335.7c1,3.1,2,6.3,3,9.4a32.26,32.26,0,0,0,1.5,3.4c2.4-.8,4.4-1.6,6.5-2.1,9.6-2.6,18.7-1.3,26,5.4,9.9,9.1,16,20.1,13.1,34.3-.7,3.3-.9,6.7-1.3,10a27.81,27.81,0,0,0,6.6-4.7c13.8-12.3,32.8-10.1,42.6,5.4,4.3,6.7,7.3,14.2,10.9,21.3.6,1.2,1.3,2.4,2.1,4,2.5-3.8,4.5-7.1,6.9-10.2,3.4-4.6,6.8-9.5,10.7-13.6a27.4,27.4,0,0,1,40.8,1.1c1.5,1.8,2.9,3.7,4.4,5.5.6.7,1.4,1.3,2.9,2.7,0-4.9-.1-8.8,0-12.7.3-15.2,9.1-24.9,21.6-31.6a22.71,22.71,0,0,1,17.9-1.4c4,1.2,7.8,3.2,12.1,4.9,1.8-3.4,3.8-6.9,5.5-10.6a23.39,23.39,0,0,1,15.2-13.1c2.3-.7,4.5-1.5,6.8-2.3a6.1,6.1,0,0,0-3.7-1.5c-21.1-2.1-37.7-11.8-49.4-29.6a16.39,16.39,0,0,0-2.3-2.4c-1.1,6.5-1.9,12.4-3,18.2a50.14,50.14,0,0,1-56.7,40c-2.2-.3-3.3-1.1-3.8-3.3-1.1-4.4-2.4-8.8-3.7-13.1-.8-2.6-1.6-5.2-2.7-8.7-2.2,3.6-3.8,6.3-5.5,9.2-2.9-1.2-5.4-3-8-3.2-2.8-.2-5.6,1.1-8.5,1.8-1.3-3.4-2.4-6.3-3.9-10.1-2.6,5.6-4.8,10.1-6.9,14.6-4.8,10.1-4.8,10.1-15.8,8a2.92,2.92,0,0,0-.9-.2c-23.8-5.2-39.9-25.1-40-49.6C975.1,305.1,975.1,299.8,975.1,293.7ZM748.9,217.9a19.94,19.94,0,0,0-1.5,2c-9.6,18.1-24.6,28.8-44.7,32.5a19.13,19.13,0,0,0-3.1,1.3c2.6.6,4.3,1.2,6.2,1.5a22.75,22.75,0,0,1,16.5,12c1.7,3,3.7,5.8,5.7,9,1.7-1.1,3.1-2.1,4.5-3a26.92,26.92,0,0,1,32.7,2.3A60,60,0,0,1,771,281a25.88,25.88,0,0,1,7.3,15.4c.4,3.1.7,6.2,1.1,9.3a31.53,31.53,0,0,0,1,3.8c1.8-2.7,3.2-4.8,4.6-6.8,9.5-13.7,27.4-16.1,39.7-4.8,5.4,5,9.8,10.9,14.7,16.4,1,1.1,2,2.3,3.3,3.8,1-2.8,1.7-5.1,2.5-7.2,2.1-5.2,4-10.5,6.3-15.7,7.8-17.7,28.6-21,42-9.4,1.4,1.2,3,2.2,5.4,4-1.1-4.7-1.8-8.3-2.7-11.9a27.53,27.53,0,0,1,2.3-20.1c.7-1.4,1.4-2.8,2.2-4.2,6.8-12.4,18.3-17.5,32.1-14.2,1.3.3,2.6.5,3.7.7,1.9-6.3,3.2-12.3,5.4-17.9,2.4-6.1,8.8-8.5,13.6-12.5a9.38,9.38,0,0,0-2.9,0c-20.2,3-37.9-2-52.9-16a10.36,10.36,0,0,0-1.9-1c.5,5.3.9,10.1,1.3,15a47.39,47.39,0,0,1-32,49.8c-4.3,1.4-8.7,2.6-13.4,2.3-3.9-6.6-7.7-13.1-12-20.4-1.2,3.7-2.1,6.5-3.1,9.7-5.7-2.2-10.6-1.4-15.1,2.6-2.1-2.7-3.9-5.1-6.2-8.1-1.7,8.4-3.1,15.9-4.6,23.2-8.4,2.8-16.3,3.3-24.5,1.2q-27.45-6.9-35.4-34.1C751.5,228.7,750.4,223.6,748.9,217.9Zm276.5-2.2c-2,0-3.5.1-5.1,0a23.48,23.48,0,0,1-3.7-.5,28.92,28.92,0,0,1-22.7-27.6c-.1-3.1-.3-6.1-.5-10.4-9.2,11.4-20.4,15.9-33.8,16,4.1,2.8,8.7,4.7,10.4,9.4,1.8.1,3,.2,4.9.3-1.8,1.3-2.9,2.1-3.9,2.9.9,2.1,1.5,3.4,1.9,4.3,4.1-.5,7.9-1.7,11.5-1.3,9,.9,16.5,10.2,16.4,19.5,0,3-.4,6.1-.6,9.9,2.1-1.9,3.5-3.4,5.1-4.6a15.82,15.82,0,0,1,23,2.3,65.41,65.41,0,0,1,4.5,7.1c1.5,2.6,2.7,5.3,4.3,8.5,1.1-1.7,1.9-3.1,2.7-4.3,2.1-3.1,4-6.4,6.4-9.3,7.1-8.5,17.7-8.5,25.3-.3,1,1.1,1.6,2.7,3.9,2.9-1-8.6.2-16.2,6.7-22.2,6.9-6.3,14.2-6.2,22.1-1.9,2-3.7,3.4-7.5,6-10.3,2.4-2.6,6.1-4.1,9.2-6.1-4.2-.9-8.5-1.3-12.4-2.8a42,42,0,0,1-11-6c-3.3-2.5-5.9-5.8-9.1-9.1-.5,3.5-.9,6.6-1.2,9.7-1.9,15-15.1,26.3-29.9,25.7-2.7-.1-4.3-.9-5-3.7-.9-3.4-2.2-6.7-3.5-10.8-1.4,2.1-2.5,3.6-2.9,4.2h-9.9c-.8-1.4-1.7-2.9-2.8-4.9A133.29,133.29,0,0,0,1025.4,215.7Z"/><path class="cls-1" d="M1200.1,49a197.7,197.7,0,0,0-60.7-46.3,37.42,37.42,0,0,1-4.2-2.7h64.9Z"/><path class="cls-1" d="M1200.1,336.1c-7.4-.8-14.8-1.3-22.3-2.9,7.6-7.7,15-15.1,22.3-22.5Z"/><path d="M920.9,446c-1.4.6-2.7,1.3-4.1,1.9-11.2,4.9-22.4,9.8-33.7,14.5a22.74,22.74,0,0,0-13.6,14c-2.2,5.9-4.7,11.6-7.1,17.4-.5,1.1-1.1,2.2-1.8,3.6l-11.3-5.2c-13.8-6.4-26.7-3.3-36.1,8.5-1.5,1.8-2.9,3.7-4.3,5.6-4.3,5.8-5.9,12.3-5.5,19.5.7,11.9,1.2,23.8,1.9,36.5a33.36,33.36,0,0,1-2.9-2.4c-6.5-7-12.9-14.1-19.6-20.9-10.9-11-28.5-11.1-38.7.1a85.5,85.5,0,0,0-9.7,13.3c-3.8,6.3-7.2,12.9-10.7,19.3-.7,1.2-1.4,2.4-1.8,3h-8.7a23.69,23.69,0,0,1-1.6-2.4c-3.1-5.6-6-11.4-9.4-16.9a131.58,131.58,0,0,0-9.4-14c-10.5-13.4-28.9-14.3-40.8-2.2-6.2,6.2-12,12.8-18,19.2-1.1,1.1-2.1,2.3-3.4,3.6-1.3-1.8-.8-3.5-.7-5.1.5-10.2,1-20.4,1.7-30.5a29.49,29.49,0,0,0-7.2-22.2c-1.3-1.6-2.5-3.2-3.8-4.8a27.83,27.83,0,0,0-32.7-8.1c-4.5,1.9-8.8,4-13.5,6.2a40.85,40.85,0,0,1-2-4.4c-2.5-6.1-5.1-12.2-7.5-18.3a20.84,20.84,0,0,0-11.6-11.7c-11.7-5-23.3-10-35-15.1a12.59,12.59,0,0,1-4.3-2.8c1.5-.2,3.1-.4,4.6-.5,11.1-.4,22.3-.9,33.4-1.2,27.6-.9,48.5-13.1,62.7-36.8a100.39,100.39,0,0,1,9-13.3c.3,3.3.7,6.7,1,10,.8,10.3,1.6,20.6,2.2,31,1.5,25.9,18.8,46.5,44.1,51.8,4.4.9,8.9,1,13.7,1.5,2.8-7.4,5.4-14.3,8-21.1s5.1-13.7,8-21.5c3.6,7.8,6.9,14.8,10.2,21.9,1.7-.4,3.1-.8,4.7-1.2.7.9,1.4,1.7,2.1,2.5.6-.9,1.1-1.6,1.8-2.5,1.5.4,3,.8,4.8,1.2,3.2-7,6.4-13.9,10-21.7.9,2.2,1.5,3.4,2,4.6l12.3,33c1.7,4.6,1.7,4.6,6.3,4.4,28.3-1.3,50.3-22.2,52.9-50.4,1.1-11.9,1.8-23.8,2.7-35.6.2-2.6.5-5.3.8-8.9,1.2,1.7,2,2.5,2.6,3.5,2.7,4.4,5.2,9,8,13.3q20.85,32.4,59.4,34.2c11,.5,21.9.8,32.9,1.2,2.2.1,4.3.3,6.5.4A4.4,4.4,0,0,0,920.9,446ZM617,421.4c-16.9,19.5-37.7,29.9-63.2,31.5a26.55,26.55,0,0,0,4.1,2.5,28.81,28.81,0,0,1,15,15.5c1.4,3.3,2.7,6.7,4.1,10,.6,1.4,1.3,2.8,2,4.4,2.2-.9,4-1.8,5.9-2.5,12.7-4.8,25.1-4,35.6,4.5,13.1,10.5,22,23.7,19.7,41.8-.3,2.8,0,5.7,0,9.4,2.2-2.3,3.6-3.9,5.1-5.4,15.7-16.1,40.4-14.8,54.6,2.7,5.4,6.6,9.5,14,13.5,21.4,1.2,2.2,2.4,4.3,3.9,7,1.7-3,3-5.2,4.2-7.5,4-7.6,8.2-15.1,13.9-21.7,9-10.4,20.3-14.9,34-12.5a35.47,35.47,0,0,1,20,10.7c1.6,1.6,2.8,3.7,5.4,4.9-.2-5-.5-9.5-.6-14a36.34,36.34,0,0,1,7.5-23.3c1.6-2.1,3.2-4.3,4.9-6.3,11.2-13.9,28.6-18.1,44.8-10.9l4.4,1.9c2.1-5,4-9.4,5.8-13.9a29,29,0,0,1,16-16.4c1.1-.5,2.2-1.1,3.4-1.7-3.6-1.1-7.1-1.3-10.4-1.8a80,80,0,0,1-49.7-28c-.7-.8-1.6-1.5-2.9-2.7-.4,5.7-.7,10.5-1.1,15.3-1.6,19.5-9.8,35.5-25.5,47.3-14,10.6-30,14.3-47.7,12.2-3.3-8.8-6.6-17.5-10.2-27l-5,10c-2.8-1.1-5.1-1.8-7.4-2.9a7.94,7.94,0,0,0-7.2,0c-2.4,1.1-4.9,1.9-7.5,2.9-1.7-3.3-3.2-6.3-5-9.8-.9,2.2-1.5,3.6-2.1,5.1-2.4,6.3-4.8,12.6-7,19-.8,2.3-2.1,3.1-4.4,3.3-36.1,3-66.8-23-69.8-59.3C617.9,431.6,617.4,426.5,617,421.4Z"/><path d="M357.2,574.2c-1.4-.7-3-1.6-4.9-2.6,1.2-2.7,2.3-5.2,3.5-8.1,39.6,17.3,78.7,34.4,118.2,51.6-1.3,3-2.4,5.5-3.6,8.2L439.6,610c2.4,2.7,4.4,5,6.5,7.2,3.1,3.3,6.5,6.4,9.5,9.7,7.2,7.7,9.3,17,6.9,27.1a46,46,0,0,1-5.2,13c-13.1,20.5-31.5,34-55.7,38.3-34,6.1-67.2-16.3-75-49.9-4.1-17.7-.8-34.6,6.1-51,2.9-6.8,6.5-13.3,11.6-18.7C348.3,581.5,352.7,578.1,357.2,574.2Zm75.9,43c16.4,37.2-8.2,64.4-30.7,68.8-25.5,4.9-51-13.3-54.1-39.2-1.6-13.8,1.5-26.2,10.6-36.8,10.8-12.5,24.7-17.3,41.2-15.5-.4-.6-.5-1-.8-1.1-8-3.9-16-8-24.2-11.5-2.4-1-5.6-.9-8.3-.5-6.7,1-11.8,5.1-15.9,10.2-13.9,17.8-20,38-15.7,60.4,5.8,30.5,37.1,50.7,67.4,43.8,19-4.3,33.9-15,45.1-30.8a48.15,48.15,0,0,0,5.4-10.9c2.3-6.2,2-12.5-1.8-18C446.5,629.2,440,623.8,433.1,617.2Zm-52.9,24a13.25,13.25,0,1,0,13.3-13A13.28,13.28,0,0,0,380.2,641.2Z"/><path d="M65,697.8c-2.9,4.1-5.3,7.4-8,11.1-2.4-1.7-4.6-3.3-7.3-5.2,28.9-40.8,57.7-81.4,86.7-122.2,2.6,1.8,4.8,3.4,7.3,5.2-6.2,8.7-12.1,17.1-18.4,26.1a12.44,12.44,0,0,0,2,0c8-3,15.7-1.7,23.3,1.5a60.2,60.2,0,0,1,18.9,13c12.5,12.3,21.9,26.6,25.6,44.1,7.5,35.5-16.2,71-51.7,77.9-34.2,6.7-66.8-13.1-76.8-46.5C66.2,701.4,65.7,700.1,65,697.8Zm122.4-13.9a49.23,49.23,0,0,0-3-17.5A82.9,82.9,0,0,0,157.7,629a42.59,42.59,0,0,0-15.3-8.1c-7.3-1.9-13.7-.7-18.9,5-15.4,17-30.3,34.3-42.9,53.5-2.1,3.3-3.9,6.8-5.7,10.3a9.84,9.84,0,0,0-.7,6.8c5.9,28.3,33.7,48.2,62.5,44.5C166,737.3,187.4,713.4,187.4,683.9Z"/><path d="M337.1,694.7c1.1-.8,2-1.4,3.1-2.2,1.1,1.2,2.2,2.3,3.2,3.4,10.1,11.1,22.2,18.8,37.2,21.5,16.5,3,31.8-.8,46-9.1,13-7.5,22.5-18.3,29-31.8.6-1.2,1.2-2.5,2-4,1.3.4,2.4.8,3.7,1.2-.2.8-.2,1.5-.4,2-12.1,26.4-32.3,42.3-61.1,46.4-25,3.5-44.9-6.5-61.1-25-.3-.4-.6-.7-.9-1.1A3.75,3.75,0,0,1,337.1,694.7Z"/><path d="M196.5,717c1.3.3,2.5.6,3.5.9.1.6.3,1,.2,1.2-10.4,29.3-36.6,50.8-74.6,46.5-18.3-2.1-33.8-10-46.7-23-.9-.9-1.7-1.9-2.8-3.1,1.1-.9,2-1.8,3.6-3.2a42.38,42.38,0,0,0,4.1,4.9c19.2,17.8,41.7,24.3,67.3,18.6,20.7-4.7,34.2-18.2,42.9-37C194.9,720.9,195.6,719.1,196.5,717Z"/><path class="cls-1" d="M738.8,1454.9c-18.7,15.9-37.4,31.9-56.8,48.4-3-17.5-5.8-34.2-8.7-51.4-2,1.2-2.5,2.8-3.3,4.2-16.3,28.2-32.7,56.5-48.8,84.8-2,3.5-4.2,4.6-8.1,4.6q-145.8-.15-291.7-.1h-5.7c-.1-1.9-.2-3.6-.2-5.3V1253a39.06,39.06,0,0,1,1.2-9.7c6.5-27,13.2-53.9,19.9-80.8a7.27,7.27,0,0,0-1.8-7.2c-5.7-6.9-11.2-13.9-16.9-20.8a9.87,9.87,0,0,1-2.5-6.8c.1-63.8,0-127.7.1-191.5,0-1.2.1-2.5.2-4.1,3.8-1.1,7.6-2,11.2-3.2a8.64,8.64,0,0,0,4.3-2.6c12.8-15.4,25.5-31,38.3-46.5.1-.1.1-.3.3-.8-2.6-6.3-5.4-12.9-8.5-20.4,21.6,2.4,42.5,4.8,64,7.2.9-16.9,1.9-33.6,2.8-50.9,20.4.9,40.5,1.9,60.5,2.8a4.08,4.08,0,0,0,.2-.7.6.6,0,0,0-.1-.4,8.64,8.64,0,0,0-1.3-1.4l-73.2-62.1c-.1-.1-.1-.3-.4-.9,1.1-.8,2.2-1.8,3.5-2.6a313.06,313.06,0,0,1,104-44.6,316.48,316.48,0,0,1,92.5-7.4c59.6,4.1,113.9,23.1,162.8,57.6,27.1,19.1,49.5,42.4,66,71.2,16.4,28.5,25.7,59.1,27.2,92,.2,4.7.4,9.4.4,14.1v520.4q0,43.5-.2,87v5.3c-14.3.2-28.2.1-42.6.1-4.7-22.8-9.3-45.4-14.1-68.6-24.7,15.8-48.8,31.2-73.6,47.1v-68.5C739.6,1455.2,739.2,1455.1,738.8,1454.9ZM385.9,1069.7c-.8,4-1.6,8.1-2.4,12.6,25.8-1.2,51.1-1.2,76.7,0-1-4.7-1.8-8.7-2.6-12.6-6.9-.8-13.1-1.5-19.7-2.3v-45c2.5-.3,5-.4,7.4-.8,2.8-.5,4.6.5,6.5,2.6,7.5,8.2,14.9,16.5,22.8,24.4,11.1,11.1,22.6,21.7,33.9,32.6,5.2,5,11,7.4,18.4,5.1,2.9-.9,6.1-1.1,9.9-1.7-22.4-22.4-39.3-48-56-73.4a3.86,3.86,0,0,1,.5-1c1.2-1,2.5-1.9,3.7-2.8,8.1-6.2,14.9-13.4,18.9-23,4.9-11.8,1.4-23.7-9.2-30.5a52.63,52.63,0,0,0-13.3-5.8c-10.2-2.9-20.7-3.4-31.2-3.6-17.4-.3-34.8-.1-52.2-.2H383.9c.5,3.6,1,6.5,1.2,9.4.2,2.6,1.4,3.6,3.9,3.6a37.08,37.08,0,0,1,4.7.3c4,.4,8,.9,12.5,1.4.7,36.4.8,72.4-.2,108.6C399,1068.2,392.7,1068.9,385.9,1069.7ZM763.8,958.2c7.7.3,14.3,1,20.4,4.2A19.86,19.86,0,0,1,795,975.9c2.6,10.8-.2,24.4-11.9,31.8-4.1,2.5-8.8,4-13.2,5.9a26.64,26.64,0,0,1-3.9,1.1c-.5,4.3-1.1,8.5-1.6,13.2,2.9-.4,5-.6,7.2-1,12.5-2.2,24.3-6.3,34.8-13.5,10.2-6.9,17.6-16,20.4-28.3,3.4-14.4-1.4-25.7-14.3-33a60.06,60.06,0,0,0-10.8-4.5,98.09,98.09,0,0,0-26.9-3.7c-17.7-.3-35.4-.2-53.1-.3-3.8,0-7.7.2-11.8.4.7,4.4,1.4,8.2,2,11.9,7,.7,13.5,1.4,19.8,2.1,1.7,9.1,1.4,103.5-.3,109-6.4.8-12.9,1.7-19.3,2.5-.5,2.5-1,4.5-1.4,6.5s-.6,3.8-.9,5.7H791c-1.1-4.2-2.1-8.2-3.1-12.2-8.2-.9-15.9-1.7-23.9-2.5C763.2,1030.7,763.2,994.8,763.8,958.2ZM654.1,943.3c-26.1,1.4-51.9,1.2-78,.1,1.1,4.4,2.2,8.4,3.2,12.6,6.6.8,12.9,1.6,19.1,2.4,1.9,10.8,1.7,102.4-.3,109-6.2.8-12.6,1.5-19.2,2.3-.8,4.1-1.6,8.2-2.4,12.6,26.2-1.2,51.7-1.2,77.7,0-1.1-4.5-2.2-8.7-3.2-12.6-6.8-.8-13-1.5-19-2.3-1.7-6.8-1.7-103.3,0-108.9,6.2-.9,12.6-1.7,19.1-2.6C652,951.7,653,947.7,654.1,943.3Z"/><path class="cls-1" d="M306.2,1250.8c-25.1,4.3-50.4,8.7-75.6,13-2-4.2-57.1-329.6-57.2-335.3,55.3-9.4,110.7-18.8,167-28.4a38.54,38.54,0,0,1-2.1,3.5c-3.9,4.7-7.8,9.4-11.6,14.2a8.42,8.42,0,0,1-5,3.2c-4.8,1.3-9.6,2.7-14.7,4.1-.1,1.7-.2,3.2-.2,4.8q0,100.5-.1,200.9a11.18,11.18,0,0,0,2.8,7.6c5.1,6.1,9.9,12.6,15.2,18.6,2.5,2.8,2.8,5.4,1.9,8.9-6.5,25.7-12.7,51.4-19,77.1C307,1245.5,306.7,1247.9,306.2,1250.8Z"/><path class="cls-1" d="M284.3,1482.3c-1-1.7-1.8-2.8-2.5-4-10.5-18.4-20.9-36.8-31.5-55.1a34.86,34.86,0,0,1-4.3-11.8q-4.5-27.3-9.2-54.7c-.1-.6-.1-1.2-.2-2.3,9.9-1.7,19.8-3.4,29.8-5.1a21.79,21.79,0,0,1,.9,3.4q10.2,59.7,20.5,119.4C288.6,1476.2,287.1,1479,284.3,1482.3Z"/><path class="cls-1" d="M225.6,1485c-3.3-1.5-4.4-3.8-4.9-6.8-3.8-22.9-7.7-45.7-11.6-68.6-2.6-15.6-5.3-31.2-7.9-46.8-.1-.6-.2-1.2-.3-2.4,10.4-1.8,20.6-3.5,31.2-5.3,1.1,6.5,2.2,12.5,3.2,18.5,2.5,14.4,4.9,28.7,7.3,43.1a16.52,16.52,0,0,1,0,7q-8.1,30-16.4,59.8C226,1484,225.8,1484.4,225.6,1485Z"/><path class="cls-1" d="M271.3,1348.5c7.7-1.3,15-2.6,22.7-3.9.5,2.5,1.1,4.6,1.4,6.7,3.7,21.8,7.5,43.5,11,65.4.8,4.9,0,10,.5,15a35.48,35.48,0,0,1-7.3,26.3c-2.6,3.4-4.6,7.3-7.8,10.8C284.9,1428.9,278.2,1389,271.3,1348.5Z"/><path class="cls-1" d="M214.7,1475.5,200,1461.7c-3.3-3.1-6.5-6.3-9.9-9.3a12.35,12.35,0,0,1-4.2-7.5c-4.3-25.8-8.7-51.5-13-77.3-.1-.6-.1-1.2-.2-2.3,7.8-1.3,15.4-2.6,23.6-4,6.5,38.2,12.9,76,19.4,113.9A3.81,3.81,0,0,0,214.7,1475.5Z"/><path class="cls-1" d="M282.2,1273c5.4-.9,10.1-1.7,15.2-2.5,1,5.7,2,11,3,16.9-4.8,1.7-9.7,1.8-15,3C283.8,1284.8,283.1,1279.1,282.2,1273Z"/><path class="cls-1" d="M450.1,795.4c4.4,3.7,8.7,7.4,13.8,11.6-4.8.8-8.6.1-12.9-.4-.6-3.7-1.3-7.3-1.9-10.9A1.93,1.93,0,0,0,450.1,795.4Z"/><path class="cls-1" d="M975.1,293.7v16.7c.1,24.5,16.1,44.4,40,49.6a2.92,2.92,0,0,0,.9.2c11.1,2.1,11.1,2.1,15.8-8,2.1-4.5,4.3-9,6.9-14.6,1.5,3.8,2.6,6.7,3.9,10.1,2.9-.7,5.8-2,8.5-1.8s5.2,2,8,3.2c1.7-2.8,3.4-5.6,5.5-9.2,1.1,3.5,1.9,6.1,2.7,8.7,1.3,4.4,2.6,8.7,3.7,13.1.5,2.2,1.7,3,3.8,3.3a50.2,50.2,0,0,0,56.7-40c1.1-5.8,2-11.7,3-18.2a16.39,16.39,0,0,1,2.3,2.4c11.7,17.8,28.2,27.6,49.4,29.6a6.1,6.1,0,0,1,3.7,1.5c-2.3.8-4.5,1.6-6.8,2.3a23.39,23.39,0,0,0-15.2,13.1c-1.7,3.7-3.7,7.2-5.5,10.6-4.3-1.8-8.1-3.7-12.1-4.9a23.14,23.14,0,0,0-17.9,1.4c-12.5,6.8-21.3,16.4-21.6,31.6-.1,3.9,0,7.8,0,12.7-1.5-1.4-2.3-2-2.9-2.7-1.5-1.8-2.9-3.7-4.4-5.5-10.8-12.4-29.4-13.1-40.8-1.1-4,4.2-7.3,9-10.7,13.6-2.3,3.1-4.4,6.5-6.9,10.2-.9-1.6-1.5-2.8-2.1-4-3.6-7.1-6.7-14.6-10.9-21.3-9.8-15.5-28.8-17.7-42.6-5.4a25.25,25.25,0,0,1-6.6,4.7c.4-3.3.6-6.7,1.3-10,2.8-14.2-3.2-25.2-13.1-34.3-7.3-6.7-16.4-8-26-5.4-2.1.6-4.1,1.4-6.5,2.1-.5-1.2-1.1-2.3-1.5-3.4-1.1-3.1-2.1-6.2-3-9.4a22.4,22.4,0,0,0-11.5-13.7,29.17,29.17,0,0,1-7.2-4.8c1.3,0,2.6-.1,3.9,0,21.6,1.2,39.7-6,54.1-22.1C973.6,294.7,974,294.5,975.1,293.7Z"/><path class="cls-1" d="M748.9,217.9c1.4,5.7,2.6,10.8,4.1,15.8q7.95,27.15,35.4,34.1c8.2,2.1,16.1,1.6,24.5-1.2,1.4-7.3,2.9-14.7,4.6-23.2,2.3,3,4.1,5.4,6.2,8.1,4.4-4,9.4-4.8,15.1-2.6,1-3.2,1.9-6,3.1-9.7,4.3,7.2,8.1,13.8,12,20.4a33.5,33.5,0,0,0,13.4-2.3,47.27,47.27,0,0,0,32-49.8c-.5-4.8-.9-9.6-1.3-15a10.36,10.36,0,0,1,1.9,1c15,14,32.8,19,52.9,16a9.38,9.38,0,0,1,2.9,0c-4.7,4-11.2,6.4-13.6,12.5-2.2,5.6-3.6,11.6-5.4,17.9-1.1-.2-2.4-.4-3.7-.7-13.8-3.3-25.3,1.7-32.1,14.2-.8,1.4-1.5,2.8-2.2,4.2a27.53,27.53,0,0,0-2.3,20.1c.9,3.6,1.6,7.2,2.7,11.9-2.4-1.8-4-2.8-5.4-4-13.5-11.5-34.2-8.2-42,9.4-2.3,5.1-4.2,10.4-6.3,15.7-.8,2.2-1.6,4.4-2.5,7.2-1.3-1.5-2.3-2.7-3.3-3.8-4.9-5.5-9.3-11.5-14.7-16.4-12.3-11.3-30.1-9-39.7,4.8-1.4,2-2.7,4.1-4.6,6.8a27.34,27.34,0,0,1-1-3.8c-.4-3.1-.7-6.2-1.1-9.3a26.19,26.19,0,0,0-7.3-15.4c-1.9-1.9-3.8-3.7-5.8-5.5a26.64,26.64,0,0,0-32.7-2.3c-1.4.9-2.8,1.9-4.5,3-2-3.2-4-6-5.7-9A22.94,22.94,0,0,0,706,255c-1.8-.4-3.6-.9-6.2-1.5a26.87,26.87,0,0,1,3.1-1.3c20.1-3.7,35.1-14.4,44.7-32.5A9.33,9.33,0,0,1,748.9,217.9Z"/><path class="cls-1" d="M1025.4,215.7c2-4.5,3.8-8.7,5.8-13.4,1.1,2,2,3.5,2.8,4.9h9.9c.4-.6,1.4-2.1,2.9-4.2,1.3,4,2.7,7.3,3.5,10.8.7,2.9,2.4,3.6,5,3.7a29.33,29.33,0,0,0,29.9-25.7c.4-3.1.8-6.1,1.2-9.7,3.2,3.3,5.9,6.6,9.1,9.1a42,42,0,0,0,11,6c3.9,1.5,8.2,1.9,12.4,2.8-3.1,2-6.8,3.4-9.2,6.1-2.6,2.8-3.9,6.6-6,10.3-7.8-4.3-15.2-4.4-22.1,1.9-6.6,6-7.8,13.6-6.7,22.2-2.3-.2-2.9-1.9-3.9-2.9-7.5-8.2-18.2-8.2-25.3.3-2.4,2.9-4.3,6.2-6.4,9.3-.8,1.3-1.6,2.6-2.7,4.3-1.6-3.2-2.9-5.9-4.3-8.5a65.41,65.41,0,0,0-4.5-7.1,15.82,15.82,0,0,0-23-2.3c-1.5,1.3-2.9,2.7-5.1,4.6.3-3.9.6-6.9.6-9.9.1-9.3-7.5-18.5-16.4-19.5-3.6-.4-7.3.8-11.5,1.3-.4-.9-1-2.3-1.9-4.3,1.1-.8,2.2-1.6,3.9-2.9-1.9-.1-3.1-.2-4.9-.3-1.6-4.6-6.2-6.5-10.4-9.4,13.4-.1,24.6-4.5,33.8-16,.2,4.3.4,7.3.5,10.4a28.92,28.92,0,0,0,22.7,27.6,15.68,15.68,0,0,0,3.7.5C1021.8,215.8,1023.4,215.7,1025.4,215.7Z"/><path class="cls-1" d="M617,421.4c.4,5.1.9,10.2,1.3,15.3,2.9,36.3,33.7,62.4,69.8,59.3,2.3-.2,3.6-1,4.4-3.3,2.2-6.4,4.6-12.7,7-19,.5-1.4,1.2-2.9,2.1-5.1,1.8,3.6,3.3,6.5,5,9.8,2.6-1,5.1-1.8,7.5-2.9a8.27,8.27,0,0,1,7.2,0c2.3,1,4.6,1.8,7.4,2.9l5-10c3.6,9.5,6.9,18.2,10.2,27,17.7,2.1,33.6-1.6,47.7-12.2,15.7-11.8,23.9-27.8,25.5-47.3.4-4.8.7-9.7,1.1-15.3,1.3,1.2,2.2,1.9,2.9,2.7,13.2,15.4,29.7,24.8,49.7,28,3.4.5,6.8.7,10.4,1.8a35.92,35.92,0,0,1-3.4,1.7,29.6,29.6,0,0,0-16,16.4c-1.8,4.5-3.7,8.9-5.8,13.9-1.7-.7-3-1.3-4.4-1.9-16.3-7.2-33.7-2.9-44.8,10.9-1.7,2.1-3.3,4.2-4.9,6.3a36.16,36.16,0,0,0-7.5,23.3c.1,4.5.4,9,.6,14-2.5-1.2-3.8-3.2-5.4-4.9a36.08,36.08,0,0,0-20-10.7c-13.7-2.4-25,2.1-34,12.5-5.7,6.6-9.9,14.1-13.9,21.7-1.2,2.3-2.6,4.6-4.2,7.5-1.5-2.7-2.7-4.8-3.9-7-4-7.4-8.1-14.8-13.5-21.4-14.2-17.5-38.9-18.8-54.6-2.7-1.5,1.6-3,3.1-5.1,5.4,0-3.7-.3-6.6,0-9.4,2.2-18.1-6.6-31.3-19.7-41.8-10.6-8.5-23-9.3-35.6-4.5-1.9.7-3.7,1.6-5.9,2.5-.8-1.6-1.4-3-2-4.4-1.4-3.3-2.7-6.7-4.1-10a28.81,28.81,0,0,0-15-15.5,15.07,15.07,0,0,1-4.1-2.5C579.3,451.3,600.1,440.9,617,421.4Z"/><path class="cls-1" d="M433.1,617.2c6.9,6.6,13.4,12,18.3,18.9,3.9,5.5,4.1,11.8,1.8,18a48.15,48.15,0,0,1-5.4,10.9c-11.2,15.8-26.2,26.5-45.1,30.8-30.2,6.9-61.6-13.4-67.4-43.8-4.3-22.4,1.8-42.6,15.7-60.4,4-5.1,9.1-9.2,15.9-10.2,2.7-.4,5.9-.5,8.3.5,8.2,3.5,16.1,7.6,24.2,11.5.2.1.4.5.8,1.1-16.5-1.8-30.4,3-41.2,15.5-9.1,10.6-12.2,23.1-10.6,36.8,3.1,25.8,28.7,44.1,54.1,39.2C425,681.7,449.5,654.4,433.1,617.2Z"/><path class="cls-1" d="M380.2,641.2a13.25,13.25,0,1,1,13.2,13.6A13.3,13.3,0,0,1,380.2,641.2Zm17.5.1a4.18,4.18,0,0,0-4.7-4,4.42,4.42,0,0,0-3.9,4.4,4.48,4.48,0,0,0,4.8,4.1A4.52,4.52,0,0,0,397.7,641.3Z"/><path class="cls-1" d="M187.4,683.9c0,29.5-21.4,53.4-50.7,57.2-28.8,3.7-56.6-16.2-62.5-44.5a9.84,9.84,0,0,1,.7-6.8c1.8-3.5,3.6-7,5.7-10.3,12.7-19.2,27.6-36.5,42.9-53.5,5.2-5.7,11.6-7,18.9-5a41.09,41.09,0,0,1,15.3,8.1,82.9,82.9,0,0,1,26.7,37.4A44.37,44.37,0,0,1,187.4,683.9Zm-44,.3A13,13,0,0,0,130.3,671a13.25,13.25,0,1,0-.3,26.5A13,13,0,0,0,143.4,684.2Z"/><path d="M385.9,1069.7c6.8-.8,13.1-1.5,20.1-2.3,1-36.3.9-72.3.2-108.6-4.5-.5-8.5-.9-12.5-1.4a37.08,37.08,0,0,0-4.7-.3c-2.5,0-3.7-1-3.9-3.6-.2-2.9-.7-5.8-1.2-9.4H398c17.4,0,34.8-.1,52.2.2,10.5.2,21.1.7,31.2,3.6a50.69,50.69,0,0,1,13.3,5.8c10.7,6.8,14.1,18.7,9.2,30.5-3.9,9.6-10.8,16.8-18.9,23l-3.7,2.8c-.1.1-.1.3-.5,1,16.7,25.4,33.6,50.9,56,73.4-3.8.6-6.9.9-9.9,1.7-7.3,2.2-13.2-.2-18.4-5.1-11.3-10.8-22.8-21.5-33.9-32.6-7.9-7.8-15.3-16.1-22.8-24.4-1.9-2.1-3.8-3-6.5-2.6-2.4.4-4.9.6-7.4.8v45c6.7.8,12.9,1.5,19.7,2.3.8,3.9,1.6,7.9,2.6,12.6-25.7-1.1-50.9-1.2-76.7,0C384.4,1077.8,385.1,1073.7,385.9,1069.7Zm42.8,2.3V953.5H415.2V1072Zm9.2-64.7a46,46,0,0,0,19.8-4.1c5.7-2.6,10.5-6.4,13.3-12.2,5.4-11.3,3-20.8-7.8-26.9a43.31,43.31,0,0,0-16-5c-2.9-.4-5.8-1.4-9.2-.3C437.9,974.8,437.9,990.7,437.9,1007.3Zm17.6,6.8c8.3,11.8,51.3,55,56.9,57.5-7.5-10.2-15.4-20.5-22.8-31.2s-14.4-21.6-21.5-32.5C464.2,1009.9,460,1011.9,455.5,1014.1Zm18.7-11.1c9.3-5.4,17-12.2,21.3-22.3,3.4-8,1.1-15.2-6.3-19.9-7-4.5-15-5.5-23.4-6.1,8.4,5.1,15.2,11.4,16.5,21.5S480.3,995.1,474.2,1003Z"/><path d="M763.8,958.2c-.6,36.5-.7,72.4.2,108.8,8,.8,15.8,1.6,23.9,2.5,1,4,2,8,3.1,12.2H709.8c.3-1.8.5-3.7.9-5.7s.8-4,1.4-6.5c6.4-.8,12.9-1.7,19.3-2.5,1.7-5.5,1.9-99.9.3-109-6.3-.7-12.8-1.4-19.8-2.1-.6-3.8-1.3-7.6-2-11.9,4.1-.1,7.9-.4,11.8-.4,17.7,0,35.4,0,53.1.3a97.57,97.57,0,0,1,26.9,3.7,53.6,53.6,0,0,1,10.8,4.5c12.9,7.3,17.7,18.5,14.3,33-2.9,12.3-10.3,21.3-20.4,28.3-10.5,7.2-22.3,11.3-34.8,13.5-2.1.4-4.3.6-7.2,1,.6-4.7,1.1-8.9,1.6-13.2a26.64,26.64,0,0,0,3.9-1.1c4.5-1.9,9.2-3.3,13.2-5.9,11.7-7.3,14.5-21,11.9-31.8a20.19,20.19,0,0,0-10.8-13.5C778.1,959.2,771.5,958.5,763.8,958.2Zm-9-5.3H741c1.3,39.9.9,79.4.1,119.3h11.6a13.27,13.27,0,0,0,2.1-.3Zm41.4,55.6c13.2-4.9,23.5-20.6,22.6-33.4a14.94,14.94,0,0,0-3.6-9c-6.4-7.5-15.1-10-24.6-11,8.5,6.3,13.5,14.4,14.2,24.9A40.69,40.69,0,0,1,796.2,1008.5Z"/><path d="M654.1,943.3c-1.1,4.4-2.1,8.4-3.1,12.6-6.6.9-12.9,1.8-19.1,2.6-1.7,5.6-1.7,102.1,0,108.9,6,.7,12.2,1.5,19,2.3,1,4,2.1,8.1,3.2,12.6-26-1.2-51.4-1.2-77.7,0,.8-4.4,1.6-8.4,2.4-12.6,6.6-.8,13-1.6,19.2-2.3,2-6.6,2.2-98.2.3-109-6.2-.8-12.5-1.6-19.1-2.4-1.1-4.1-2.1-8.2-3.2-12.6C602.2,944.5,628,944.7,654.1,943.3Zm-45.9,10.2v118.3h13.7V953.5Z"/><path d="M397.7,641.3a4.44,4.44,0,0,1-3.9,4.5,4.54,4.54,0,0,1-4.8-4.1,4.35,4.35,0,0,1,3.9-4.4A4.22,4.22,0,0,1,397.7,641.3Z"/><path d="M143.4,684.2A13,13,0,0,1,130,697.5a13.32,13.32,0,0,1-13.2-13.2,13.3,13.3,0,0,1,26.6-.1Zm-13.1-4.3A4.29,4.29,0,0,0,126,684a4,4,0,0,0,3.8,4.4,4.19,4.19,0,0,0,4.6-4.1A4.46,4.46,0,0,0,130.3,679.9Z"/><path class="cls-1" d="M428.7,1072H415.2V953.5h13.5Z"/><path class="cls-1" d="M437.9,1007.3V958.8c3.4-1,6.3,0,9.2.3a42.74,42.74,0,0,1,16,5c10.8,6.1,13.2,15.6,7.8,26.9-2.8,5.7-7.5,9.6-13.3,12.2A47,47,0,0,1,437.9,1007.3Z"/><path class="cls-1" d="M455.5,1014.1c4.5-2.2,8.7-4.2,12.6-6.2,7.1,10.8,14.1,21.8,21.5,32.5s15.3,21,22.8,31.2C506.8,1069.1,463.8,1025.9,455.5,1014.1Z"/><path class="cls-1" d="M474.2,1003c6.1-7.9,9.5-16.7,8.2-26.7-1.3-10.2-8-16.5-16.5-21.5,8.3.5,16.3,1.5,23.4,6.1,7.3,4.7,9.7,12,6.3,19.9C491.2,990.8,483.5,997.7,474.2,1003Z"/><path class="cls-1" d="M754.8,952.9v119a13.27,13.27,0,0,1-2.1.3H741.1c.8-39.9,1.2-79.4-.1-119.3Z"/><path class="cls-1" d="M796.2,1008.5a41.18,41.18,0,0,0,8.6-28.5c-.7-10.5-5.6-18.7-14.2-24.9,9.5,1,18.2,3.4,24.6,11a14.94,14.94,0,0,1,3.6,9C819.7,987.9,809.4,1003.5,796.2,1008.5Z"/><path class="cls-1" d="M608.2,953.5h13.7v118.3H608.2Z"/><path class="cls-1" d="M130.3,679.9a4.7,4.7,0,0,1,4.2,4.3,4.19,4.19,0,0,1-4.6,4.1,4,4,0,0,1-3.8-4.4A4.26,4.26,0,0,1,130.3,679.9Z"/></g></g></svg>