<svg id="Layer_1" data-name="Layer 1" xmlns="http://www.w3.org/2000/svg" viewBox="0 0 1200 1552.94"><defs><style>.cls-1{fill:#fff;}</style></defs><path class="cls-1" d="M-8,483.71V24.89H1192V519c-12.84,7.53-26.41,8.22-40.71,5.15-17.09-3.67-22.67,0-26.94,16.64-.33,1.26-.56,2.55-.89,3.81-3.38,13.21-11.87,18.89-25.43,16.77-5.79-.9-11.47-2.62-17.28-3.28-32.41-3.69-64.83-7.33-97.28-10.69-33.49-3.47-66.77-14.3-100.76-3.32-.38.12-1-.58-1.92-1.13,0-3.66-.61-7.65.09-11.39,6.39-34.29,11.21-69,20.11-102.64,7.12-26.94,12.8-53.09,7.14-80.86-11.29-55.4-60.79-91-113.25-81.14-26.28,4.94-34.16,16.59-28.87,42.62a34.1,34.1,0,0,1,.58,3.87c.82,9.45-3.51,15.23-13.12,15.68a114.21,114.21,0,0,1-24.38-1.18c-47.94-8.08-95.46-7.35-142.89,4.15-32.07,7.77-46.5,1.06-59.17-28.92-12.55-29.69-49.08-46.85-80.2-45.79-43.25,1.48-76.05,37.84-84.92,70.39-8,29.34-3,57.51,8.5,85.06,6.53,15.64,12.15,31.67,18.68,47.31,9.78,23.45,8.52,45.07-6.08,66.81-12.61,18.77-21.19,39.83-22.35,63A316.75,316.75,0,0,1,336,698.17c-9,21.35-4.59,40.14,9.54,57.46,3,3.68,6.2,7.19,10.91,12.62H330.18L-8,768V579.79c18.92-.27,37.83-.49,56.75-.83q107.23-1.89,214.48-3.83c10.22-.18,20.45,0,30.68,0l.36-2.78a97.2,97.2,0,0,0-9.11-4.86c-48.23-19.91-96.43-39.89-144.77-59.54-32.51-13.23-66.1-18.6-101.48-16.62C23.46,492.17,7.65,486.45-8,483.71Z" transform="translate(8 -24.89)"/><path d="M-8,768l338.18.22h26.29c-4.71-5.43-7.91-8.94-10.91-12.62C331.43,738.31,327,719.52,336,698.17a316.75,316.75,0,0,0,24.64-108.24c1.16-23.17,9.74-44.23,22.35-63,14.6-21.74,15.86-43.36,6.08-66.81-6.53-15.64-12.15-31.67-18.68-47.31-11.49-27.55-16.49-55.72-8.5-85.06,8.87-32.55,41.67-68.91,84.92-70.39,31.12-1.06,67.65,16.1,80.2,45.79,12.67,30,27.1,36.69,59.17,28.92,47.43-11.5,94.95-12.23,142.89-4.15a114.21,114.21,0,0,0,24.38,1.18c9.61-.45,13.94-6.23,13.12-15.68a34.1,34.1,0,0,0-.58-3.87c-5.29-26,2.59-37.68,28.87-42.62,52.46-9.85,102,25.74,113.25,81.14,5.66,27.77,0,53.92-7.14,80.86-8.9,33.63-13.72,68.35-20.11,102.64-.7,3.74-.09,7.73-.09,11.39.89.55,1.54,1.25,1.92,1.13,34-11,67.27-.15,100.76,3.32,32.45,3.36,64.87,7,97.28,10.69,5.81.66,11.49,2.38,17.28,3.28,13.56,2.12,22-3.56,25.43-16.77.33-1.26.56-2.55.89-3.81,4.27-16.62,9.85-20.31,26.94-16.64,14.3,3.07,27.87,2.38,40.71-5.15v56.86L949.16,579c-19.91.25-39.82.6-59.73.59-5.57,0-8.46,1.12-8,7.6,1.9,26.43-3.51,51.7-11.24,76.92-10.4,33.91-19.14,68.33-28.75,103.11,3.54.55,5.1,1,6.65,1Q1020,768.15,1192,768V821H1009.62c-.2,4-.47,6.92-.47,9.8q0,147.51,0,295c0,1.3-.06,2.62,0,3.92,1,12.42,5,16.23,17.23,16.23,30.06,0,60.12-.06,90.18,0,25.14.08,50.28.33,75.42.5v431.37H-8V1146.46H118.69V821H-8ZM995.9,1167.14c12.21-6,15.15-12.65,9.35-25.49a184.52,184.52,0,0,0-13.7-24.82c-33.38-51.21-59.36-105.78-76.4-164.61-7.83-27-18.27-53.07-34-76.69C866.82,854,849.5,835.21,831,820.87c-14.64,14.94-27.47,30.26-42.57,42.87-19,15.87-39.58,30-60,44-22.43,15.4-47,26.3-74.76,25.77-23.76-.45-47.56-2.47-71.2-5.06-50.27-5.5-99-17.16-144.88-39.14C413,877.53,395.37,860.16,390,832.24c-1.26-6.55-4.21-12.78-6.49-19.5-41.35,8.82-75.23,25.22-90.3,67.42-9,25.1-22.59,47.61-39.58,68.28-14.28,17.37-29.06,34.7-40.56,53.88-16.94,28.28-35,54.89-61.59,75.21-10.39,8-9.56,15.76.32,25.45,6.54-4.15,12.94-8.61,19.77-12.28,1.83-1,5,.47,7.49.8-1.28,1.9-2.18,4.34-3.92,5.6-5.33,3.88-11,7.31-18.71,12.34l41.24,22c6.27-9.43,11.07-17.34,16.69-24.63,1.47-1.91,5.44-1.9,8.27-2.77-.95,2.64-1.53,5.5-2.92,7.88-3.39,5.83-7.78,11.18-10.39,17.31-.84,2,2,7.62,4.25,8.38,10.76,3.63,21.76,7.08,32.95,8.86,13.24,2.1,23-2.66,17.36-20.31-8.38-26.41-2.56-39.58,20.81-54.48,14.19-9.05,24.75-20.87,31.34-36.54a284,284,0,0,1,16.69-34.33c22.74-38.52,42.07-78.22,46.89-123.52.22-2,1.89-4,2.88-5.93l2.81.47c.47,3.27,1.61,6.6,1.31,9.8-2.4,26-4.13,52.08-7.86,77.89-8.76,60.63-25.41,119.33-45.63,177.06-6.32,18.07-10.27,36.63-7.87,55.75,2.86,22.65,7.44,45.09,10.19,67.75,3.2,26.22,6.38,52.54,7.41,78.89,1,25-10.71,39.48-34.08,47.7-3.86,1.36-7.52,3.28-12.77,5.6,9.24,13,21.66,19.34,34.05,25.52,1.39.7,4.54-.74,6.12-2.07,8.68-7.3,17-15,25.7-22.29,2.35-2,5.46-3,8.22-4.53-.8,3.16-.62,7.23-2.57,9.3-8.39,8.94-17.4,17.29-26.57,26.22l42.75,20.78c7.37-16,14.31-31.06,21.25-46.14l5.09,2c-2.46,16.75-13.89,30.68-18.59,47.71L434,1466.67c3.85-11.14,7-21.08,10.85-30.76.8-2,4-3.05,6.12-4.54.3,2.31,1.37,4.85.75,6.87-3.11,10.18-6.66,20.22-10.61,31.93,13.92,3.61,26.65,7.51,39.64,10.12,15.72,3.16,24.55-1.42,29.36-16.88,3.84-12.31,6.63-25.49,6.75-38.31.18-19.78-2.25-39.6-3.8-59.38a6.17,6.17,0,0,0-3.09-4.3c-17.11-7.39-26.79-21.71-34-37.66-40.44-89.23-52.63-180.46-19.12-275,10.33-29.14,25.2-54.4,52.35-70.94,87.29-53.18,205.82,7.56,214.31,109.58,3.71,44.64-7.1,86.26-24.89,126.41-11,24.75-24,48.59-35,73.31-9,20.2-15.29,41.89-37.14,52.94,9.86,10.77,9.73,16,0,25.48-5.63,5.46-11.72,10.47-17.05,16.19-11.57,12.39-12.93,25.42-4.78,40.28,22.93,2.08,44.84-1.31,65.58-11.72,2.27-1.14,5.42-.54,8.16-.74l2.91,4.51a47.65,47.65,0,0,0-6.52,2.35c-20,10.69-41.53,14.17-65.23,15.13a210.59,210.59,0,0,0,27.88,27.23c2.32,1.91,6.76,2,10.14,1.73q29.28-2,48.48-24.42c1.51-1.75,4.8-2,7.26-2.9-.52,2.55-.23,5.77-1.69,7.56a72.25,72.25,0,0,1-40.73,25.49c-3.22.74-6.41,1.6-11,2.76,17.75,13,35.46,21.75,55.18,25.82,3.36.7,8.88-.94,10.93-3.49,8.94-11.13,16.88-23,25.4-34.52,1.28-1.72,3.71-2.6,5.6-3.87.41,2.31,1.88,5.18,1,6.85a205.66,205.66,0,0,1-12.33,21.1c-3.64,5.43-8.13,10.28-13.8,17.3,8.17-.92,13.68-1.31,19.12-2.19,37.23-6,71.39-28.59,74.86-75.35,2.92-39.38,5.35-78.81,7.67-118.23,4-67.77,6.73-135.64,12.06-203.31,2.42-30.75,9.37-61.19,15.2-91.59,1.59-8.29,4.73-18.62,15.4-19.22,9.68-.54,14.21,8.33,18.18,15.81,19.25,36.25,24.57,74.48,16.34,114.78-3.88,19,9.24,37.53,30.93,42.54-1.37-8.29-2.81-15.75-3.73-23.27-.26-2.1,1-4.39,1.51-6.6,1.88,1.41,5.08,2.58,5.4,4.28,1.46,8,2,16.09,3.19,24.09.38,2.45,1.51,6.18,3.21,6.8,14.54,5.3,29.45,6.86,47.78,3.32-7.58-11-13.9-19.93-20-29-1.58-2.39-2.36-5.32-3.51-8,3.05.92,7.4.87,9,2.92C981.85,1145.75,988.47,1156.15,995.9,1167.14ZM880.5,481.29c-4.1,1.65-6.53,2.51-8.85,3.58Q707.7,560.59,543.7,636.2c-24.41,11.19-41.26,29.92-57.51,51.1,14.3,0,27.68-1.07,40.83.2,40.91,4,81.53,11.34,123,6.68,15.11-1.7,26.38,6.36,31.87,20.93,6.18,16.39,7,33.38.72,49.85-9,23.73-21.37,45.69-40.59,62.79-34,30.24-73.06,45.34-118.18,31.7-29.93-9.05-52.07-27.8-57.18-61.67-3.16-20.9-8-41.54-12-62.33-1.73-9-3.15-18.14-4.8-27.74-44,3.34-72.58-19.4-88.76-61.35-5.8,17.42-10,34.22-16.92,49.77-10.19,22.76-6.08,42,10.56,59.19,22.15,22.92,36.3,50,43.62,80.86,3.55,15,11.53,27.27,24.29,35.57a226,226,0,0,0,33.52,18c56.9,24.55,117.36,32.26,178.45,37,29,2.25,56.31-3.26,80.43-19.21,25.83-17.1,50.83-35.56,75.41-54.43,23.14-17.77,36-41.78,42.44-70.55,9.54-42.63,20.8-84.91,32.7-126.95a240.32,240.32,0,0,0,9.13-72.42c-.62-24.71.8-49.49,1.89-74.21C877,500.28,879,491.66,880.5,481.29ZM370,581.88c1.33-1.77,2.69-3.52,4-5.31,18.31-24.73,42.41-38.7,73.62-37.34,33,1.44,64.57,9.53,93,27,21.48,13.25,44.34,17.08,67.4,7.92A369.49,369.49,0,0,0,669,543.43c65.43-41.41,135-72.47,210.77-89.16,3.33-.73,7.09-5.08,8.36-8.57,4.13-11.32,7.21-23,10.67-34.59,8.45-28.3,7.22-56.13-4.73-83.2-18.13-41.07-58.38-62.66-100.16-53.74-15.56,3.32-28.44,11.69-21.34,32.79a27.15,27.15,0,0,1,1,5.79c1.47,13.69-6,22.93-19.85,23.5a134.6,134.6,0,0,1-24.4-1.3c-33-4.67-66.11-8.84-99.46-3.66-17.4,2.71-34.58,6.9-52,9.32-28.74,4-45.82-4.46-55.63-31.43-13.51-37.13-68.25-56.14-105.2-37.29-41.91,21.38-62,68.2-47.25,116.68,7.55,24.89,18.05,48.9,27.37,73.25,9.05,23.62,7.2,45.64-7.13,67.09C379.4,544.65,371.92,562.07,370,581.88Zm73.83,582c.8,40.14,9.86,83.56,25.31,125.37a247,247,0,0,0,27.92,53.35c11.44,16.7,22.6,17.54,39.67,7.17,19.39-11.79,40.5-17.55,62.73-14.81,24.1,3,38.54-7.46,47.93-28.15,7.94-17.5,15.59-35.17,24.25-52.32,21.7-43,41.14-86.59,45.38-135.49,6.59-76.13-43.5-141-118.35-152.55-56.24-8.68-108.86,19.29-129.63,70.74C453.35,1076.14,444,1116.8,443.86,1163.88ZM507.7,692.17c-8,1.38-18,2.45-27.76,4.93-21,5.36-24.82,13.71-19.71,34.24,5.49,22.06,8.77,44.67,14,66.8,2.2,9.26,5.2,19.35,11,26.56C505.45,850,532.71,861,564.88,856.62c55-7.51,89-41.26,109.93-90.47,5.87-13.77,6.26-27.86,2.66-42.19-4.24-16.85-13.82-23.05-31.2-22.85-23.42.26-46.91,0-70.27-1.46C553.9,698.24,531.93,694.91,507.7,692.17ZM149.36,1069.44C168.28,1054,183.07,1038,195,1018.76c14.56-23.52,30-46.77,47.48-68.13s33-43.1,42.39-68.79c9.07-24.93,23.45-44.94,46.4-58.54.29-.17.18-1,.28-1.79H149.36ZM843.32,821c3.08,3.28,4.51,5,6.14,6.49a229.05,229.05,0,0,1,60.93,90c9.83,26.25,17.16,53.47,27.57,79.47,11.3,28.23,24.87,55.56,37.45,83.28l3.08-1.13V821H843.32ZM376.63,935.25l-2.24-.32c-6.75,14-13.26,28.05-20.32,41.87-9.33,18.27-20.31,35.82-28.34,54.63-9.09,21.29-22.43,37.76-42.27,49.62-13.51,8.07-18,19.94-15.19,35,1.83,9.69,3.68,19.39,5.67,29.86,13.78,0,28.43.28,43.05-.25,2.63-.1,6.71-3,7.46-5.46,11.8-38.61,24.19-77.09,34.3-116.15C366.3,994.87,370.78,964.88,376.63,935.25ZM895,1145.37c0-13-1.69-25.14.32-36.59,6-34.2-.27-66.18-14.81-96.94-3-6.44-8.26-11.87-12.54-17.88-15,13.21-33.39,115.36-28.34,151.41Zm-684.75.18-60.76-31.62v31.62Z" transform="translate(8 -24.89)"/><path class="cls-1" d="M1192,768q-171.95.11-343.9.18c-1.55,0-3.11-.45-6.65-1,9.61-34.78,18.35-69.2,28.75-103.11,7.73-25.22,13.14-50.49,11.24-76.92-.47-6.48,2.42-7.6,8-7.6,19.91,0,39.82-.34,59.73-.59L1192,575.87Z" transform="translate(8 -24.89)"/><path class="cls-1" d="M1192,1146.46c-25.14-.17-50.28-.42-75.42-.5-30.06-.08-60.12,0-90.18,0-12.21,0-16.26-3.81-17.23-16.23-.1-1.3,0-2.62,0-3.92q0-147.51,0-295c0-2.88.27-5.76.47-9.8H1192Z" transform="translate(8 -24.89)"/><path class="cls-1" d="M-8,821H118.69v325.49H-8Z" transform="translate(8 -24.89)"/><path d="M-8,483.71c15.65,2.74,31.46,8.46,46.91,7.6,35.38-2,69,3.39,101.48,16.62,48.34,19.65,96.54,39.63,144.77,59.54a97.2,97.2,0,0,1,9.11,4.86l-.36,2.78c-10.23,0-20.46-.16-30.68,0Q156,577,48.75,579c-18.92.34-37.83.56-56.75.83Z" transform="translate(8 -24.89)"/><path class="cls-1" d="M995.9,1167.14c-7.43-11-14-21.39-21.42-31.21-1.55-2-5.9-2-9-2.92,1.15,2.69,1.93,5.62,3.51,8,6.05,9.11,12.37,18,20,29-18.33,3.54-33.24,2-47.78-3.32-1.7-.62-2.83-4.35-3.21-6.8-1.24-8-1.73-16.14-3.19-24.09-.32-1.7-3.52-2.87-5.4-4.28-.54,2.21-1.77,4.5-1.51,6.6.92,7.52,2.36,15,3.73,23.27-21.69-5-34.81-23.55-30.93-42.54,8.23-40.3,2.91-78.53-16.34-114.78-4-7.48-8.5-16.35-18.18-15.81-10.67.6-13.81,10.93-15.4,19.22-5.83,30.4-12.78,60.84-15.2,91.59-5.33,67.67-8.06,135.54-12.06,203.31-2.32,39.42-4.75,78.85-7.67,118.23C812.38,1467.42,778.22,1490,741,1496c-5.44.88-11,1.27-19.12,2.19,5.67-7,10.16-11.87,13.8-17.3A205.66,205.66,0,0,0,748,1459.8c.85-1.67-.62-4.54-1-6.85-1.89,1.27-4.32,2.15-5.6,3.87-8.52,11.47-16.46,23.39-25.4,34.52-2.05,2.55-7.57,4.19-10.93,3.49-19.72-4.07-37.43-12.82-55.18-25.82,4.59-1.16,7.78-2,11-2.76a72.25,72.25,0,0,0,40.73-25.49c1.46-1.79,1.17-5,1.69-7.56-2.46.93-5.75,1.15-7.26,2.9q-19.23,22.39-48.48,24.42c-3.38.24-7.82.18-10.14-1.73a210.59,210.59,0,0,1-27.88-27.23c23.7-1,45.26-4.44,65.23-15.13a47.65,47.65,0,0,1,6.52-2.35l-2.91-4.51c-2.74.2-5.89-.4-8.16.74-20.74,10.41-42.65,13.8-65.58,11.72-8.15-14.86-6.79-27.89,4.78-40.28,5.33-5.72,11.42-10.73,17.05-16.19,9.76-9.45,9.89-14.71,0-25.48,21.85-11,28.13-32.74,37.14-52.94,11-24.72,24-48.56,35-73.31,17.79-40.15,28.6-81.77,24.89-126.41-8.49-102-127-162.76-214.31-109.58-27.15,16.54-42,41.8-52.35,70.94-33.51,94.52-21.32,185.75,19.12,275,7.23,16,16.91,30.27,34,37.66a6.17,6.17,0,0,1,3.09,4.3c1.55,19.78,4,39.6,3.8,59.38-.12,12.82-2.91,26-6.75,38.31-4.81,15.46-13.64,20-29.36,16.88-13-2.61-25.72-6.51-39.64-10.12,3.95-11.71,7.5-21.75,10.61-31.93.62-2-.45-4.56-.75-6.87-2.1,1.49-5.32,2.54-6.12,4.54-3.83,9.68-7,19.62-10.85,30.76l-42.54-17.92c4.7-17,16.13-31,18.59-47.71l-5.09-2c-6.94,15.08-13.88,30.15-21.25,46.14L341,1424.4c9.17-8.93,18.18-17.28,26.57-26.22,2-2.07,1.77-6.14,2.57-9.3-2.76,1.49-5.87,2.56-8.22,4.53-8.68,7.3-17,15-25.7,22.29-1.58,1.33-4.73,2.77-6.12,2.07-12.39-6.18-24.81-12.5-34.05-25.52,5.25-2.32,8.91-4.24,12.77-5.6,23.37-8.22,35.06-22.7,34.08-47.7-1-26.35-4.21-52.67-7.41-78.89-2.75-22.66-7.33-45.1-10.19-67.75-2.4-19.12,1.55-37.68,7.87-55.75,20.22-57.73,36.87-116.43,45.63-177.06,3.73-25.81,5.46-51.9,7.86-77.89.3-3.2-.84-6.53-1.31-9.8l-2.81-.47c-1,2-2.66,3.88-2.88,5.93-4.82,45.3-24.15,85-46.89,123.52A284,284,0,0,0,316,1035.12c-6.59,15.67-17.15,27.49-31.34,36.54-23.37,14.9-29.19,28.07-20.81,54.48,5.59,17.65-4.12,22.41-17.36,20.31-11.19-1.78-22.19-5.23-32.95-8.86-2.25-.76-5.09-6.43-4.25-8.38,2.61-6.13,7-11.48,10.39-17.31,1.39-2.38,2-5.24,2.92-7.88-2.83.87-6.8.86-8.27,2.77-5.62,7.29-10.42,15.2-16.69,24.63l-41.24-22c7.73-5,13.38-8.46,18.71-12.34,1.74-1.26,2.64-3.7,3.92-5.6-2.53-.33-5.66-1.78-7.49-.8-6.83,3.67-13.23,8.13-19.77,12.28-9.88-9.69-10.71-17.5-.32-25.45,26.55-20.32,44.65-46.93,61.59-75.21,11.5-19.18,26.28-36.51,40.56-53.88,17-20.67,30.61-43.18,39.58-68.28,15.07-42.2,48.95-58.6,90.3-67.42,2.28,6.72,5.23,13,6.49,19.5,5.36,27.92,23,45.29,47.57,57.08,45.89,22,94.61,33.64,144.88,39.14,23.64,2.59,47.44,4.61,71.2,5.06,27.71.53,52.33-10.37,74.76-25.77,20.46-14,41-28.14,60-44,15.1-12.61,27.93-27.93,42.57-42.87,18.47,14.34,35.79,33.08,50.14,54.66,15.71,23.62,26.15,49.66,34,76.69,17,58.83,43,113.4,76.4,164.61a184.52,184.52,0,0,1,13.7,24.82C1011.05,1154.49,1008.11,1161.11,995.9,1167.14Z" transform="translate(8 -24.89)"/><path class="cls-1" d="M880.5,481.29c-1.52,10.37-3.55,19-3.93,27.69-1.09,24.72-2.51,49.5-1.89,74.21a240.32,240.32,0,0,1-9.13,72.42c-11.9,42-23.16,84.32-32.7,126.95-6.43,28.77-19.3,52.78-42.44,70.55C765.83,872,740.83,890.44,715,907.54c-24.12,16-51.43,21.46-80.43,19.21C573.48,922,513,914.3,456.12,889.75a226,226,0,0,1-33.52-18c-12.76-8.3-20.74-20.61-24.29-35.57-7.32-30.85-21.47-57.94-43.62-80.86-16.64-17.21-20.75-36.43-10.56-59.19,7-15.55,11.12-32.35,16.92-49.77,16.18,41.95,44.73,64.69,88.76,61.35,1.65,9.6,3.07,18.7,4.8,27.74,4,20.79,8.87,41.43,12,62.33,5.11,33.87,27.25,52.62,57.18,61.67C568.94,873.09,608,858,642,827.75c19.22-17.1,31.57-39.06,40.59-62.79,6.27-16.47,5.46-33.46-.72-49.85-5.49-14.57-16.76-22.63-31.87-20.93-41.45,4.66-82.07-2.72-123-6.68-13.15-1.27-26.53-.2-40.83-.2,16.25-21.18,33.1-39.91,57.51-51.1q164.16-75.26,327.95-151.33C874,483.8,876.4,482.94,880.5,481.29ZM723.27,626.61l-.07-.63c-8.42.88-16.87,1.5-25.24,2.7-12.58,1.8-22,7.89-25.76,20.75-3.9,13.41-1.3,25.87,8.94,35,15.47,13.83,33.82,13.94,52.35,6.93s27.39-21.55,28.34-40.79c.66-13.39-8.31-22.75-22-23.9C734.37,626.22,728.8,626.61,723.27,626.61Zm36-21c-.22-1.24-.45-2.47-.67-3.7-27.12-10.5-53.68-10.19-79.32,5-1.79,1.06-2.62,3.75-3.89,5.67,2.13.33,4.89,1.68,6.31.82,22.47-13.61,45.92-15,70.45-6.63C754.2,607.49,756.92,606.06,759.31,605.62Z" transform="translate(8 -24.89)"/><path class="cls-1" d="M370,581.88c1.89-19.81,9.37-37.23,19.89-53,14.33-21.45,16.18-43.47,7.13-67.09-9.32-24.35-19.82-48.36-27.37-73.25C355,340.09,375,293.27,416.93,271.89c36.95-18.85,91.69.16,105.2,37.29,9.81,27,26.89,35.43,55.63,31.43,17.44-2.42,34.62-6.61,52-9.32,33.35-5.18,66.42-1,99.46,3.66a134.6,134.6,0,0,0,24.4,1.3c13.89-.57,21.32-9.81,19.85-23.5a27.15,27.15,0,0,0-1-5.79c-7.1-21.1,5.78-29.47,21.34-32.79,41.78-8.92,82,12.67,100.16,53.74,12,27.07,13.18,54.9,4.73,83.2-3.46,11.57-6.54,23.27-10.67,34.59-1.27,3.49-5,7.84-8.36,8.57C803.93,471,734.39,502,669,543.43A369.49,369.49,0,0,1,608,574.19c-23.06,9.16-45.92,5.33-67.4-7.92-28.39-17.51-59.91-25.6-93-27-31.21-1.36-55.31,12.61-73.62,37.34C372.72,578.36,371.36,580.11,370,581.88Zm61.08-290.6c-3.39.2-7.32.26-11.2.7-21.42,2.45-28.18,11.06-21.55,31.55,6.1,18.84,14.69,36.9,22.56,55.14,3.33,7.73,10.47,9.89,18,8.35,6.61-1.35,13.58-3.27,19.14-6.87,14.21-9.17,28-19,41.43-29.34,14.33-11.05,14.75-17.76,2.86-31.67a66.23,66.23,0,0,0-13.05-11.68C471.93,295.73,452,292.63,431.11,291.28Zm389.48,93.13c11.91-1.33,23.61-2.25,35.18-4,16.13-2.46,20.09-7.58,20.55-24.37.71-25.69-12.81-43.91-31.77-58.65-16.89-13.12-29.72-10.14-38,9.38-7.59,17.95-13.5,36.65-19.41,55.26-3.07,9.66,1.2,16.53,11.37,19.14C805.71,383,813.27,383.38,820.59,384.41Z" transform="translate(8 -24.89)"/><path class="cls-1" d="M443.86,1163.88c.14-47.08,9.49-87.74,25.21-126.69,20.77-51.45,73.39-79.42,129.63-70.74C673.55,978,723.64,1042.87,717.05,1119c-4.24,48.9-23.68,92.49-45.38,135.49-8.66,17.15-16.31,34.82-24.25,52.32-9.39,20.69-23.83,31.12-47.93,28.15-22.23-2.74-43.34,3-62.73,14.81-17.07,10.37-28.23,9.53-39.67-7.17a247,247,0,0,1-27.92-53.35C453.72,1247.44,444.66,1204,443.86,1163.88Z" transform="translate(8 -24.89)"/><path class="cls-1" d="M507.7,692.17c24.23,2.74,46.2,6.07,68.3,7.48,23.36,1.5,46.85,1.72,70.27,1.46,17.38-.2,27,6,31.2,22.85,3.6,14.33,3.21,28.42-2.66,42.19-21,49.21-55,83-109.93,90.47C532.71,861,505.45,850,485.22,824.7c-5.76-7.21-8.76-17.3-11-26.56-5.26-22.13-8.54-44.74-14-66.8-5.11-20.53-1.3-28.88,19.71-34.24C489.66,694.62,499.73,693.55,507.7,692.17Zm23.61,111.22c0-12.86-6.48-19.57-18.8-19.5-14,.08-27.25,10.45-27.32,21.36-.06,10.36,12.42,20.07,25.9,20.15C524,825.47,531.32,817.5,531.31,803.39Zm61.17-14.9c-13.18.16-23.48,10.19-23.09,22.5.33,10.72,9.9,18.78,22.11,18.62a21.44,21.44,0,0,0,21.32-22C612.58,796.37,604.05,788.36,592.48,788.49Z" transform="translate(8 -24.89)"/><path class="cls-1" d="M149.36,1069.44V821.51H331.53c-.1.74,0,1.62-.28,1.79-22.95,13.6-37.33,33.61-46.4,58.54-9.34,25.69-25,47.58-42.39,68.79s-32.92,44.61-47.48,68.13C183.07,1038,168.28,1054,149.36,1069.44Z" transform="translate(8 -24.89)"/><path class="cls-1" d="M843.32,821H978.49v258.11l-3.08,1.13c-12.58-27.72-26.15-55-37.45-83.28-10.41-26-17.74-53.22-27.57-79.47a229.05,229.05,0,0,0-60.93-90C847.83,826,846.4,824.25,843.32,821Z" transform="translate(8 -24.89)"/><path class="cls-1" d="M376.63,935.25c-5.85,29.63-10.33,59.62-17.88,88.82-10.11,39.06-22.5,77.54-34.3,116.15-.75,2.44-4.83,5.36-7.46,5.46-14.62.53-29.27.25-43.05.25-2-10.47-3.84-20.17-5.67-29.86-2.85-15.08,1.68-27,15.19-35,19.84-11.86,33.18-28.33,42.27-49.62,8-18.81,19-36.36,28.34-54.63,7.06-13.82,13.57-27.9,20.32-41.87Z" transform="translate(8 -24.89)"/><path class="cls-1" d="M895,1145.37H839.65c-5-36,13.29-138.2,28.34-151.41,4.28,6,9.49,11.44,12.54,17.88,14.54,30.76,20.81,62.74,14.81,96.94C893.33,1120.23,895,1132.33,895,1145.37Z" transform="translate(8 -24.89)"/><path class="cls-1" d="M210.27,1145.55H149.51v-31.62Z" transform="translate(8 -24.89)"/><path d="M723.27,626.61c5.53,0,11.1-.39,16.6.08,13.65,1.15,22.62,10.51,22,23.9-1,19.24-9.78,33.78-28.34,40.79s-36.88,6.9-52.35-6.93c-10.24-9.15-12.84-21.61-8.94-35,3.75-12.86,13.18-18.95,25.76-20.75,8.37-1.2,16.82-1.82,25.24-2.7Zm2.12,6.36-.07-.53c-8.4.93-16.87,1.51-25.2,2.89-14.16,2.35-20.88,8.89-22.3,20.81-1.47,12.37,5.16,24.57,17,29,17.5,6.61,34.06,4.3,48.51-8,9.33-7.94,14.19-24.55,10.15-33.77-5.21-11.88-16.09-10.24-26.11-10.43Z" transform="translate(8 -24.89)"/><path d="M759.31,605.62c-2.39.44-5.11,1.87-7.12,1.18-24.53-8.37-48-7-70.45,6.63-1.42.86-4.18-.49-6.31-.82,1.27-1.92,2.1-4.61,3.89-5.67,25.64-15.21,52.2-15.52,79.32-5C758.86,603.15,759.09,604.38,759.31,605.62Z" transform="translate(8 -24.89)"/><path d="M431.11,291.28c20.9,1.35,40.82,4.45,58.19,16.18a66.23,66.23,0,0,1,13.05,11.68c11.89,13.91,11.47,20.62-2.86,31.67-13.39,10.33-27.22,20.17-41.43,29.34-5.56,3.6-12.53,5.52-19.14,6.87-7.53,1.54-14.67-.62-18-8.35-7.87-18.24-16.46-36.3-22.56-55.14-6.63-20.49.13-29.1,21.55-31.55C423.79,291.54,427.72,291.48,431.11,291.28Z" transform="translate(8 -24.89)"/><path d="M820.59,384.41c-7.32-1-14.88-1.4-22.06-3.25-10.17-2.61-14.44-9.48-11.37-19.14,5.91-18.61,11.82-37.31,19.41-55.26,8.26-19.52,21.09-22.5,38-9.38,19,14.74,32.48,33,31.77,58.65-.46,16.79-4.42,21.91-20.55,24.37C844.2,382.16,832.5,383.08,820.59,384.41Z" transform="translate(8 -24.89)"/><path d="M531.31,803.39c0,14.11-7.32,22.08-20.22,22-13.48-.08-26-9.79-25.9-20.15.07-10.91,13.33-21.28,27.32-21.36C524.83,783.82,531.3,790.53,531.31,803.39Z" transform="translate(8 -24.89)"/><path d="M592.48,788.49c11.57-.13,20.1,7.88,20.34,19.1a21.44,21.44,0,0,1-21.32,22c-12.21.16-21.78-7.9-22.11-18.62C569,798.68,579.3,788.65,592.48,788.49Z" transform="translate(8 -24.89)"/><path class="cls-1" d="M725.39,633h2c10,.19,20.9-1.45,26.11,10.43,4,9.22-.82,25.83-10.15,33.77-14.45,12.3-31,14.61-48.51,8-11.82-4.46-18.45-16.66-17-29,1.42-11.92,8.14-18.46,22.3-20.81,8.33-1.38,16.8-2,25.2-2.89Zm-8.89,48c6.88-2.69,14.31-4.47,20.51-8.26,11.19-6.84,11.81-17.82,2.51-27-10.21-10.12-25.17-12.11-40-5.63-7.47,3.27-10.92,9-11.25,16.8C687.76,669.74,700,679.71,716.5,681Z" transform="translate(8 -24.89)"/><path d="M716.5,681c-16.51-1.27-28.74-11.24-28.2-24.11.33-7.78,3.78-13.53,11.25-16.8,14.8-6.48,29.76-4.49,40,5.63,9.3,9.2,8.68,20.18-2.51,27C730.81,676.51,723.38,678.29,716.5,681Z" transform="translate(8 -24.89)"/></svg>