<svg xmlns="http://www.w3.org/2000/svg" id="Layer_1" data-name="Layer 1" viewBox="0 0 1200 1550"><defs/><defs><style>.cls-1{fill:#fff}</style></defs><path d="M0 544.4V-1.5h970.4c-2.2 1.2-4.3 2.6-6.5 3.7a197.2 197.2 0 00-101.1 229c1.8 6.4 4 12.6 5.9 18.8a21.4 21.4 0 01-12.8 3.2L840.1 226c-1.7 6-3 11-4.3 15.2l-11.8 2.1-9-13-6.1 31.6c-2.7.3-5.1.9-7.6 1-21 1-39-12-44.4-32.5-1.5-5.6-2.8-11.3-4.2-16.9l-2.9-11.2c-.6.5-1 .7-1 .9l-3.5 8.7q-10.4 24.7-36 32.8c-3.3 1-6.7 1.6-10 2.3l-19 4a4.3 4.3 0 002.4 1.6c6.9 1.7 13.7 3.6 20.6 4.9 7.1 1.4 12.3 5 15.7 11.4 2.2 4.1 5 8 7.5 12l8.6-5.8c8-4.8 16.1-5 24 0a53.1 53.1 0 017.6 6.3 21.3 21.3 0 017 13.5c1 7.3 1.8 14.6 2.7 22 .1 1 .4 2 .8 3.6 1.1-1.6 2-2.5 2.6-3.5l8.8-13.4a21.5 21.5 0 0133-4 97 97 0 018.8 9.1c3.8 4.4 7.3 9 10.8 13.5l4.5-.8c1.7-5 3.2-9.8 5-14.6A117.2 117.2 0 01857 293a21.1 21.1 0 0125.3-10.2 11.3 11.3 0 016.3 4.6c4.8 6.7 10 13.2 15 19.8l2.5 3.1h-10.2a8.1 8.1 0 003 2.6c6 3.3 12.2 6.4 18.3 9.7 6.6 3.7 12 8.4 13.7 16.4 1 4.5 2.8 8.9 4.3 13.7l5.1-1.8 8-2.6a7.3 7.3 0 016.3 1l15.4 8a9.2 9.2 0 013.1 2c4.6 6 8 12.4 7 20.3-1 7-2 14-2.8 21-.3 1.7-.3 3.4-.5 6l4.4-3.7c4.1-3.7 8-7.5 12.2-11a22.8 22.8 0 0134.2 4.5 94.4 94.4 0 016.7 11.9c2.8 5.6 5.2 11.3 7.9 17.2h4.6l7.3-11c3.5-4.8 6.8-9.8 10.8-14.2 10.4-11.4 26.1-10.8 36 1.3 3.6 4.3 7 8.8 10.5 13.2l3 3c.2-8 .8-15.2.6-22.4a30 30 0 019.3-22.8c9.8-10.1 20.6-12 33-4.8l6.6 3.7c2.9-5.7 5.6-10.8 8.1-16a18.6 18.6 0 0111.5-9.8l16.4-5.6v1211.3h-145.8l-27.2-60.6-4.3 3c-8.5 6.2-16.9 12.5-25.6 18.4-7.4 5-15.1 9.5-22.8 14-2.2 1.3-4.8 2.1-7.9 3.4-5-20.8-5.4-41.5-7.1-62.7l-43.8 29.1 10.8-81.3c-16 12-31 24.7-47 37.9V925.4a195.5 195.5 0 00-4.3-41.1 216 216 0 00-78.6-127 321.5 321.5 0 00-210-70.8H572l-.8-3L543 550.8a8.6 8.6 0 00-4.3-6.2c-12.5-7.6-24.8-15.4-37.3-22.9a9.2 9.2 0 01-4.6-6.5l-6.8-30.3-1.8-6.6-34.1 14.9-19.4-14.4 16.2-66.1-.9-.5-75.5 49.9c-6.2-5.3-12-10.1-17.5-15.1-2.1-1.9-4-2.6-6.8-1.6-4.9 1.6-10 2.7-15 4-19.2 5.2-38.6 9.8-57.5 15.8-66.8 21.3-133.3 43.1-200 64.7a199.8 199.8 0 01-19.3 5.7c-7 1.5-14.2 2.2-21.4 3.2zm920.9-100l-.1-1-5.8-.4-33.9-1.2q-38.5-1.8-59.4-34.2c-2.8-4.4-5.3-8.9-8-13.3-.6-1-1.3-1.8-2.5-3.4l-.8 7.8c-.9 12.2-1.6 24.4-2.7 36.6a55 55 0 01-53.4 50.4c-4.2.2-4.2.2-5.7-3.9L736 448.4l-2-4.6-10 21.6-4.8-1.2-2 2.5-1.9-2.5-4.7 1.2-10.2-21.9-15.7 42a22.7 22.7 0 01-2.6.2 54.4 54.4 0 01-54.5-45.9c-1.7-11.9-2-24-3-36l-1-13c-1.2 1.6-2 2.3-2.4 3.2L614 406q-21 34.3-61.3 35.8c-11.1.4-22.3.7-33.4 1.2-1.7 0-3.5.2-5.3.4a12.6 12.6 0 004.5 3l34.1 14.6a21.8 21.8 0 0112.5 12.7l7.7 18.6 1.8 3.3 11.8-5.5a28 28 0 0135 8.3c1 1.4 2 2.8 3.2 4.1a29.6 29.6 0 017 21.8c-.7 9.5-1.1 19.1-1.6 28.6v7.6l3.8-3.7c6-6.5 12-13.2 18.3-19.5 11.8-12 30.2-11 40.6 2a128 128 0 019.4 14c3.4 5.6 6.4 11.5 9.6 17.2a23 23 0 001.5 2.3h8.7l2-3.5c3.6-6.4 6.9-13 10.7-19.3a83 83 0 019.5-12.8c10.2-11.1 27.8-11 38.7 0 6.7 6.8 13 14 19.6 21a27.2 27.2 0 002.8 2.2l-1.9-36.5a28.8 28.8 0 015.6-19.4l4-5.2c9.5-12.2 22.3-15.3 36.3-8.8l11.3 5.2 1.7-3.7c2.4-5.7 5-11.5 7.1-17.3a23.1 23.1 0 0113.7-14c11.3-4.7 22.5-9.7 33.7-14.5l4.1-2z" class="cls-1"/><path d="M0 607.4v-45.1l50.2-7.6c6.2-1 12.6-1.4 18.5-3.3 55.2-17.7 110.4-35.5 165.4-53.7q55.1-18.3 111.3-32.8c3-.7 5-.5 7.3 1.6 5.7 5.1 11.6 10 17.4 15 1 1 2.2 1.7 3.3 2.6l48.7-32.1.9.7-20.2 82.3 73.2-32c1.9 8.2 3.7 15.6 5.2 23.1a9.6 9.6 0 004.9 6.9c12.5 7.5 24.9 15.3 37.3 22.9a7.6 7.6 0 013.9 5.4q11 52.7 22.2 105.3l4.6 22a324.3 324.3 0 00-155.5 61.6l30.9 26.2-47.7 12.4-8.2-14.8-7.7 4.2 6.6 13.1-30 7.9-9-52.7-8.8 1.5 9 53.5-25.4 6.7-3.8-21-8.6 1.5 3.5 22c-11.7 3-22.7 6.3-34.1 8.8l-16.1-41.7-8.3 3.3 15.6 41-43.4 11.7-13.2-30-8.2 3.6 12.6 28.9-32.9 9-9-52-8.8 1.7 9 52.8-35 9.9-12-22-7.8 4.3 10.7 20.1-14.3 4.5 2.5 8.3 16.2-4.4 11.3 20.7 7.7-4.1c-3-6.7-6.9-12.6-9.9-19.3l32-9 7.3 42.6 8.7-1.5c-2-15-5.2-29.1-7-43.7l34.9-9.5 13 29.5 8.2-3.7-12.4-28.3 43-11.6 13.4 34.6 8.3-3.2-12.8-33.7c11.1-3 21.5-6 32.3-8.5l3.8 21.2 8.8-1.5-3.7-22.2 25.4-6.7 4.4 24.5 8.6-1.6-4.1-25.3 33-8.7 15 28 8-4.2-7-13.2c-2.2-4.3-4.7-8.3-6.7-13l51.6-13.7 3.6 21.5-22-1-2.8 50.3-69.9-7.8 12.8 30.5-293 51a19 19 0 01-.7-2.1l-8.5-48.1L40 779.5l-17.5-99c-1.4-7.7-2.2-15.6-4.5-23-5-16-10.7-31.8-16.2-47.7-.3-.9-1.3-1.6-1.9-2.4zm357.2-34.8c-4.4 3.8-9.1 6.8-12.5 11a80.8 80.8 0 00-18 70 65.2 65.2 0 0074.8 50 81.3 81.3 0 0055.4-38 44.9 44.9 0 005.5-13.3c2.5-10 .3-19.4-6.9-27-4.3-4.8-9-9.2-13.6-13.7a16.2 16.2 0 00-3-2l1-1.1 30.4 13.2 3.6-8.3c-39.6-17.1-78.7-34.5-118.3-51.5l-3.5 8zM65 696.3l1.3 4.2a66.2 66.2 0 00128.9-30.3 86.8 86.8 0 00-25.4-44.2 60.8 60.8 0 00-19.2-13.3 30.6 30.6 0 00-23.3-1.6 8 8 0 01-2 0l18.3-26-7.3-5.3-86.7 122.3 7.2 5.2zm271.8-2.9c13.9 16.9 31 27.2 53 27.7a77 77 0 0070.4-45.7l1-3.3-3.7-1.3-2.1 4.4a72 72 0 01-29.2 31.6 66.4 66.4 0 01-45.6 9c-15-2.7-27-10.5-37.2-21.5l-3.2-3.5zm-140.4 22l-2.5 5.9c-9 19.4-23.3 33-44.7 37.3-25 5-47.1-1.8-65.8-19.3a53 53 0 01-3.8-4.5l-3.5 3a15.2 15.2 0 001 1.4l2.3 2.4a76.5 76.5 0 0046.4 22.4 67.8 67.8 0 0074.3-46.2 6 6 0 000-1.6z" class="cls-1"/><path d="M111 1551.4H0V662c2 .7 1.7 2.4 2 4l22.7 128.6L49.1 932l3 16.5 51.8-9c17.1-3 34-6 51.5-8.7l59.8 351.9 49.3-8.3 6 34.7 33-5.4c0 6.7 4.1 12.2 3 19.2L152 1349.2c4.5 26.5 8.7 52.3 13.3 78 6.6 36.1 12.8 74.6 12 77.7l-41.5-42.3a2.8 2.8 0 00-.8-.5.8.8 0 00-.5 0 4.7 4.7 0 00-.6.2l-9.2 35.9-13.6 53.2z" class="cls-1"/><path d="M111 1551.4l13.6-53.2c3-12 6.2-24 9.3-35.9a4.7 4.7 0 01.6-.2.8.8 0 01.4 0 2.8 2.8 0 01.8.5l41.6 42.3c.7-3-5.5-41.5-12-77.7-4.7-25.7-8.9-51.5-13.4-78l154.5-26.3c1.2-6.9-2.8-12.4-3-19.2l-33 5.4-6-34.6-49.2 8.3-59.9-352c-17.3 2.7-34.3 5.9-51.4 8.8l-51.8 9-3-16.5-24.4-137.5L1.9 666c-.2-1.4.1-3.2-1.9-3.9v-54.6c.7.8 1.6 1.5 1.9 2.4 5.5 15.8 11.3 31.6 16.2 47.6 2.3 7.4 3 15.4 4.4 23l17.6 99 17.3 98.2 8.6 48.1a19 19 0 00.7 2.2l293-51-12.7-30.6 69.8 7.9 2.8-50.3 22 1-3.6-21.5-51.7 13.6c2 4.7 4.5 8.8 6.7 13l7 13.2-8 4.3-15-28.1-33 8.7 4.1 25.3-8.6 1.6c-1.5-8.2-3-16.1-4.4-24.6l-25.4 6.8 3.7 22.2-8.7 1.5-3.8-21.2c-10.9 2.4-21.3 5.5-32.3 8.5l12.7 33.7-8.3 3.2-13.3-34.6-43 11.7 12.4 28.4-8.1 3.7-13-29.5-35 9.5c2 14.6 5 28.7 7 43.7l-8.6 1.5-7.3-42.6-32 9c3 6.7 6.8 12.6 9.9 19.3l-7.8 4.1-11.2-20.7-16.3 4.4-2.5-8.3 14.3-4.5-10.7-20.2 7.8-4.3 12 22 35-9.8-9-52.8 8.8-1.7 9 52 32.9-9-12.6-28.9 8.2-3.6 13.2 30 43.4-11.7-15.6-41 8.3-3.4 16 41.8c11.5-2.4 22.5-5.9 34.2-8.9l-3.5-21.9 8.6-1.5 3.8 21 25.4-6.7-9-53.5 8.8-1.5 9 52.7 30-7.9-6.6-13.1 7.7-4.2 8.2 14.8 47.7-12.4-30.9-26.2a324.3 324.3 0 01155.5-61.6l-4.6-22-22.3-105.3a7.6 7.6 0 00-3.8-5.4l-37.3-22.9a9.6 9.6 0 01-4.9-6.9c-1.5-7.5-3.3-15-5.2-23l-73.2 32 20.2-82.5-1-.6-48.6 32c-1.1-.8-2.3-1.6-3.3-2.5-5.8-5-11.8-9.9-17.4-15-2.3-2.1-4.4-2.3-7.3-1.6q-56.2 14.5-111.3 32.8c-55 18.2-110.2 36-165.4 53.7-6 1.9-12.3 2.4-18.5 3.3L0 562.4v-18l37.2-5.5c7.1-1.1 14.3-1.7 21.4-3.3a199.8 199.8 0 0019.3-5.7c66.6-21.6 133.2-43.4 200-64.7 18.8-6 38.3-10.6 57.5-15.8 5-1.3 10-2.4 15-4 2.8-1 4.6-.3 6.7 1.6 5.6 5 11.4 9.8 17.5 15.1l75.6-49.9.9.5-16.2 66.1 19.4 14.4 34-14.9c.7 2.4 1.4 4.5 1.8 6.6 2.3 10.1 4.7 20.2 6.8 30.3a9.2 9.2 0 004.6 6.5l37.3 22.9a8.6 8.6 0 014.4 6.2l28 132.9.9 3h14.2c78.3-1 148.7 22 210 70.8a215.9 215.9 0 0178.6 127 195.5 195.5 0 014.3 41v527.1c16.1-13.2 31-25.9 47-37.9l-10.7 81.3 43.7-29c1.8 21.2 2.2 41.9 7.2 62.7 3.1-1.3 5.6-2.1 7.9-3.4 7.6-4.6 15.4-9 22.8-14 8.7-5.9 17-12.2 25.6-18.4l4.3-3 27.2 60.6zm759-7.9v-5.3l.2-82.8V925.5a184.8 184.8 0 00-3.8-37.4 208.8 208.8 0 00-77.2-124.9 311 311 0 00-175.2-67A318.6 318.6 0 00418 747.7l-4.5 3.2 75.8 64.3-.4 1-60.7-2.8-2.8 50.9-64-7.2 8.7 20.7-37.7 45.8a11.2 11.2 0 01-6.5 4.1c-3.5.8-6.8 2-10.3 3v195.2a10.5 10.5 0 002.6 7.2c5.5 6.7 10.7 13.5 16.3 20.1a8.4 8.4 0 012 8.5c-6.8 27-13.4 53.8-20 80.8a32 32 0 00-1 7.4v289l.3 5h297.7c3.7 0 5.8-1.1 7.7-4.4l48.8-84.8 2.5-4.3 1 .3 8.6 51 57.7-49.3v46.8l.1 23 73.6-47 14 68.3zm-564-294.3l1.5-8.1c6.3-25.6 12.5-51.2 19-76.7.9-3.7.4-6.4-2.2-9.3-5.3-6-10-12.4-15.2-18.6a10.4 10.4 0 01-2.5-7.2V928l.2-4.3c5-1.4 9.9-2.7 14.6-4.2a9.6 9.6 0 004.4-2.4c4.5-5.2 8.8-10.6 13.2-16a14.1 14.1 0 001-2.4L172.8 927l57 335.3zm-69.5 103.6l.2 2.3c3.1 18.3 6.4 36.7 9.3 55a33.1 33.1 0 004.2 11.4l31.5 55.1 2.4 3.9c3.6-3.4 4.4-7 3.4-11.3-1.4-6.1-2.2-12.4-3.2-18.5l-16.5-96.8c-.3-2-.8-3.9-1.3-6.2zm-11.1 130.6l1-2.6c5.4-19.5 10.8-39 16-58.5a17 17 0 000-7c-2.6-16.4-5.4-32.8-8.2-49.1l-2.4-12.7-31 5.3.3 2.7 12.1 71.3 7.1 42.2c.6 3.5 1.1 6.9 5.2 8.3zm66.2-16.2l1 .3c2.3-3.9 4.3-8 7-11.5a33.9 33.9 0 007.1-25.4c-.5-5.4.2-11-.7-16.4-3-19.5-6.4-39-9.7-58.4L294 1343l-22.8 4zm-119.2-103.5l14 81.7a9.4 9.4 0 002.9 4.5c7.5 7.3 15.2 14.5 22.8 21.7l3.7 3-19.6-115zm109.7-92.3c1 6.1 1.6 11.7 3.2 17.3 5.3-1 10.2-1.2 15-3l-3-16.8zM462.7 806l.5-1-13.3-11.4-.9.5 2 11.1z"/><path d="M1200 111.4v133.7l-2.8 5.8a158.4 158.4 0 01-33.7 45c-5.8 5.4-12.1 10.3-18.4 15.6-5.9-6.2-8.4-13.7-12.7-21.3l-1 6.2c-1.3 7.3-2.5 14.5-3.5 21.9a6 6 0 01-3.8 5.2 157.6 157.6 0 01-37.7 13l-16.7 2.8-3.9-12.4-7.3 12.9h-13.7l-5.7-15.1-6.6 13.7a25.8 25.8 0 01-2.8 0 160.1 160.1 0 01-45.8-13.6 4.7 4.7 0 01-3-3.8c-.6-4.5-1.3-9-1.4-13.5-.2-8.2 0-16.3.1-24.5v-5c-4.6 5.6-8.3 10.6-12.4 15.3a49 49 0 01-15 11.3c-16-10.8-39.7-40.5-44.3-55.2a11.2 11.2 0 011.1-1.4 22.1 22.1 0 0121.6-6c3.1.6 6.2 1.5 9.6 2.3l3.7-16a18 18 0 018.6-12.3l10.7-7 5.5-3.5 2.8 6.5c3-1 5.5-2.2 8.3-2.6 9.9-1.6 19.5 8.3 18.4 18.8l-1.4 14.6c3.6-3.4 6.3-6.2 9.2-8.7 6.5-5.9 15.2-5 20.5 2a55 55 0 014.2 6.8l4 8c1.3 2.3 2.6 2.3 4.1 0 1.1-1.5 2-3.2 3-4.8a90.2 90.2 0 016.2-8.8c6-7 15-7 21.3 0l5.2 6a30 30 0 002.6 2.1v-11.9a18.4 18.4 0 015-13.7c5.5-6.2 11.6-7.5 19-4l4 2c.4-.5.8-1 1-1.6 6.4-13.5 4-11.1 18.8-16.9l4.9-2a63.5 63.5 0 00-12.8-2A34.5 34.5 0 011088 177l-2.8-4.7-.9 6.2c-.6 4.7-.9 9.4-1.9 14a25.9 25.9 0 01-29.3 20.3l-6-17.8-4.5 8-7.5-.4c-1.1-2.4-2.2-5-3.8-8.2l-7.6 17.5a41.7 41.7 0 01-4.3-.2 27 27 0 01-23.4-26l-.3-13.2a33.6 33.6 0 00-.6-3.8l-3.7 5.2a32.6 32.6 0 01-18.5 13.2 57.6 57.6 0 01-11.6 1.5c-4.1.2-8.3 0-12.4 0a8.4 8.4 0 003.5 2.8c3.2 1.6 6.5 3 9.7 4.7 2.1 1.2 4.3 2.4 4.6 5.5l-17.5 2.3a55 55 0 01-48.9-17.6c-2-2-3.6-4.3-5.5-6.4a33.3 33.3 0 00-2.8-2.4l3 33a8.5 8.5 0 01-1.8-4.3 163.2 163.2 0 01.1-56.7A161.7 161.7 0 011164 61a161 161 0 0136.1 50.5z" class="cls-1"/><path d="M1200 111.4a161 161 0 00-36.1-50.5 161.7 161.7 0 00-270.5 88.7 163.2 163.2 0 00-.1 56.6 8.5 8.5 0 001.9 4.3l-3.1-33a33.3 33.3 0 012.8 2.5c1.9 2.1 3.6 4.4 5.5 6.4 13.4 14 29.7 20 49 17.6l17.4-2.3c-.3-3.1-2.5-4.4-4.6-5.5-3.2-1.7-6.5-3.1-9.7-4.7a8.4 8.4 0 01-3.5-2.8c4.1 0 8.3.2 12.4 0A57.6 57.6 0 00973 187a32.7 32.7 0 0018.4-13.1l3.7-5.2a33.6 33.6 0 01.5 3.7l.3 13.2a27 27 0 0023.4 26 41.7 41.7 0 004.4.3l7.6-17.6 3.8 8.3 7.4.4 4.6-8c2.2 6.5 4 12.2 6 17.8 10.6 2.4 26-4.7 29.3-20.3 1-4.6 1.3-9.3 1.9-14l.9-6.3 2.8 4.7a34.5 34.5 0 0028.9 18.4 63.5 63.5 0 0112.7 2l-4.8 2c-14.8 5.8-12.4 3.3-18.8 17l-1 1.5-4-2c-7.4-3.5-13.5-2.2-19 4a18.4 18.4 0 00-5 13.7v11.9a30 30 0 01-2.6-2.2c-1.8-2-3.4-4.1-5.2-6-6.4-7-15.3-7-21.3 0a90.3 90.3 0 00-6.2 9c-1 1.5-1.9 3.2-3 4.7-1.5 2.2-2.9 2.2-4.1 0-1.5-2.7-2.6-5.4-4-8a55 55 0 00-4.2-6.9c-5.3-7-14-7.9-20.6-2-2.9 2.6-5.6 5.3-9.1 8.8l1.4-14.6c1-10.5-8.6-20.4-18.5-18.8-2.7.4-5.3 1.6-8.2 2.6l-2.8-6.5-5.6 3.5-10.6 7a18 18 0 00-8.7 12.2c-1 5.2-2.3 10.4-3.6 16.1l-9.6-2.4a22.1 22.1 0 00-21.5 6 11.4 11.4 0 00-1 1.4c4.5 14.7 28.3 44.4 44.1 55.2a49 49 0 0015.2-11.3c4-4.7 7.7-9.7 12.3-15.4v5c0 8.2-.3 16.4-.1 24.5 0 4.5.8 9 1.4 13.6a4.7 4.7 0 003 3.8 160.1 160.1 0 0045.8 13.6 25.8 25.8 0 002.8 0c2-4.2 4-8.5 6.7-13.8 2 5.7 3.8 10.3 5.6 15.1h13.7l7.4-12.8 3.8 12.4c5.7-1 11.2-1.8 16.7-2.9a157.6 157.6 0 0037.7-13 6 6 0 003.8-5.2c1-7.3 2.2-14.6 3.4-21.8l1.1-6.2c4.3 7.6 6.8 15 12.7 21.3 6.3-5.3 12.6-10.2 18.4-15.6a158.4 158.4 0 0033.7-45l2.8-5.9v64l-22.7 22.8 22.7 2.7v5.7c-5.5 1.8-11 3.8-16.5 5.5a18.6 18.6 0 00-11.4 9.8l-8.2 16-6.6-3.7c-12.4-7.1-23.2-5.3-33 4.9a30 30 0 00-9.2 22.7c.2 7.2-.4 14.4-.7 22.4a37.3 37.3 0 01-2.9-3l-10.5-13.2c-9.9-12-25.6-12.7-36-1.2-4 4.4-7.3 9.4-10.8 14.2-2.6 3.5-4.9 7.3-7.3 11h-4.7c-2.6-6-5-11.7-7.8-17.3a94.4 94.4 0 00-6.7-11.8 22.8 22.8 0 00-34.2-4.6c-4.2 3.5-8.1 7.4-12.2 11l-4.4 3.8.4-6.1 2.8-21c1-7.9-2.3-14.4-7-20.3a9.2 9.2 0 00-3-2l-15.4-8a7.3 7.3 0 00-6.3-1l-8 2.7c-1.6.5-3.2 1-5.1 1.8-1.6-4.9-3.4-9.3-4.4-13.8-1.7-8-7-12.6-13.7-16.3-6-3.4-12.1-6.5-18.2-9.8a8.1 8.1 0 01-3-2.5H906l-2.4-3.1c-5-6.6-10.2-13.2-15-19.9a11.3 11.3 0 00-6.3-4.6c-10.2-3-20.2.9-25.3 10.2a116.4 116.4 0 00-6.1 13.8c-1.9 4.8-3.4 9.7-5.1 14.6l-4.5.8c-3.5-4.5-7-9-10.8-13.5a97 97 0 00-8.7-9.2 21.5 21.5 0 00-33.1 4.1L780 317l-2.6 3.5c-.4-1.7-.7-2.7-.8-3.7l-2.6-22a21.3 21.3 0 00-7.1-13.4 53.1 53.1 0 00-7.6-6.3c-7.9-4.9-16-4.8-24 0-2.8 1.7-5.4 3.7-8.6 5.8-2.5-4-5.3-7.9-7.5-12-3.4-6.4-8.6-10-15.7-11.4-6.9-1.3-13.7-3.2-20.6-4.9a4.3 4.3 0 01-2.5-1.6l19-4c3.4-.7 6.8-1.3 10.1-2.3q25.6-8 36-32.8l3.5-8.7c0-.2.4-.4 1-1l3 11.3c1.4 5.6 2.6 11.3 4.1 17a43 43 0 0044.4 32.4c2.5 0 5-.7 7.6-1l6.1-31.6 9 13 11.8-2 4.2-15.3 15.8 27.2a21.4 21.4 0 0012.8-3.2c-2-6.2-4.2-12.4-6-18.8A197.2 197.2 0 01964 2.3c2.2-1.1 4.3-2.5 6.4-3.7h164.8a46.5 46.5 0 004.2 2.7 196.6 196.6 0 0160.7 46.2zm-90.6 293.7l1-.3.1-2.2c0-2.2.2-4.4.1-6.6-.6-11.1 3.9-20 11.6-27.6 10-10 23-12.2 35.3-5.6l4.7 2.4c2-4.1 4-7.9 6-11.6a22.5 22.5 0 0113.8-12l7.8-2.7c-5.4-1.7-10.9-2.2-16-3.8a72.8 72.8 0 01-15.5-6.6 67.8 67.8 0 01-13-10c-3.9-4-7-8.5-10.9-13.2-.8 5.2-1.6 9.8-2.2 14.5a50.2 50.2 0 01-56.4 43.9c-4-.4-4-.4-5-4.2l-2-6.8-4.1-14.3-6 9.7c-5.2-4.8-10.6-3.8-16.1-1.7l-4-10.3-11 23a13.1 13.1 0 01-1.8.4 49.8 49.8 0 01-49.8-40.3c-1.2-6.9-.7-14-1-21v-5.5a70 70 0 01-60 23.1 18.4 18.4 0 004.7 3.2 25.1 25.1 0 0115 18c.9 3.3 2.2 6.4 3.3 9.9l6.7-2.2a28 28 0 0122.6 2.7 37.3 37.3 0 0116.9 35.9l-1.6 11c.7 0 1 .2 1.3 0l6.3-5.5a27.5 27.5 0 0141.5 5.6c4.3 6.2 7.2 13.2 10.3 20l2.8 6c2.6-3.9 4.7-7.2 7-10.3a145.3 145.3 0 0110-13c12-13 31-12.3 42.3 1.4 1.9 2.2 3.6 4.4 5.3 6.6zM898 287.5l.7-.7-2.5-11a27.5 27.5 0 012.1-19.1l2.5-4.6a27 27 0 0132-14.3l4.1.9c.8-3.3 1.7-6.2 2.1-9a23.9 23.9 0 0113-18.6 36.7 36.7 0 003.7-2.7c-22.1 3.3-41-2-57.1-17.3-.4.6-.7.9-.6 1.1.3 4.7.7 9.4 1.2 14a47.4 47.4 0 01-36.8 51c-2.8.6-5.7.8-8.5 1.2-4.3-6.9-7.7-13.6-12.3-20.6l-3 9.7c-5.6-2.6-10.7-1.3-15 2.3-2.8-2-3.3-5.6-6.5-7.2l-4.4 22.6a44 44 0 01-24.5 1c-18.3-4.6-30.1-16-35.4-34.1-1.4-5-2.6-10.1-4.1-16l-1.2 1.8a60.4 60.4 0 01-45.4 33 11.9 11.9 0 00-2.4 1.2c6.4 1.9 13 2.1 17.3 7 4 4.7 7.4 10 11.2 15.3l4.2-2.7a29.6 29.6 0 0117.5-4.4c11.2.3 28.3 15.3 28.6 28.5 0 3.8 1 7.6 1.4 11.3a25.6 25.6 0 005.1-6 25.8 25.8 0 0139.7-4.8c5.2 4.8 9.6 10.7 14.4 16l3.6 4.4 2.5-7.3c2.5-6 4.5-12.1 7.5-17.7 8-15 25.6-18.7 39.3-8.7l6 4.5zm189.2-107l-.8.5-1.2 9.2a29.3 29.3 0 01-29.1 25.6c-4.5 0-4.6-.2-6-4.3l-3.5-10.2-3 4.4-10-.4-2.5-4.8-5.8 13.4a28.6 28.6 0 01-27.5-13.7 28.3 28.3 0 01-4.1-14.3c0-3-.3-6-.6-10.3a41 41 0 01-33.8 16c4.2 2.7 8.6 4.6 10.5 9.4h4.2l.5.7-3.9 2.3 2.2 5a53.5 53.5 0 015.7-1.7 18.3 18.3 0 015.6-.3 20.3 20.3 0 0116.4 19.2c0 3.1-.4 6.3-.6 10.3 2-2 3.5-3.4 5-4.6a15.8 15.8 0 0122.3 1.4l.7.9a59.6 59.6 0 014.8 7.5l4 8 3.3-5a95.7 95.7 0 015.6-8.2c7.5-9 18-9 25.9-.2.8 1 1.8 1.8 2.7 2.7l1-.3c-1.4-8.6 0-16 6.6-22 6.9-6.4 14.3-6.1 22-2 2-3.5 3.3-7.2 5.7-10s6.3-4.2 9.9-6.6a39 39 0 01-32.2-17.6z"/><path d="M1200 47.4a196.6 196.6 0 00-60.7-46.2 46.5 46.5 0 01-4.2-2.7h64.9z" class="cls-1"/><path d="M1200 334.5l-22.7-2.6L1200 309z" class="cls-1"/><path d="M920.9 444.3l-4.2 2c-11.2 4.9-22.4 9.8-33.7 14.5a23.1 23.1 0 00-13.7 14c-2.1 5.9-4.7 11.6-7 17.4l-1.8 3.6-11.2-5.2a28 28 0 00-36.4 8.8l-4 5.2a28.8 28.8 0 00-5.6 19.5l2 36.5a27.2 27.2 0 01-2.9-2.3l-19.6-20.9a26.7 26.7 0 00-38.7 0 83 83 0 00-9.4 12.8c-3.9 6.3-7.2 12.9-10.8 19.3l-2 3.5h-8.7a23 23 0 01-1.5-2.3c-3.2-5.7-6.2-11.6-9.6-17.2a128 128 0 00-9.4-14 26.7 26.7 0 00-40.6-2c-6.2 6.3-12.2 13-18.3 19.5l-3.8 3.7v-7.6l1.6-28.6a29.6 29.6 0 00-7-21.8l-3.2-4a28 28 0 00-35-8.4l-11.8 5.5-1.8-3.3-7.7-18.7a21.8 21.8 0 00-12.5-12.6c-11.4-4.8-22.7-9.8-34-14.7a12.6 12.6 0 01-4.6-3c1.8 0 3.6-.3 5.3-.4l33.4-1.2q40.3-1.4 61.4-35.7c2.5-4 4.8-8.1 7.2-12.1.5-.9 1.2-1.6 2.4-3.1l1.1 12.8c1 12 1.3 24.2 3 36a54.5 54.5 0 0054.5 46 22.7 22.7 0 002.6-.3l15.7-42 10.2 22 4.7-1.2 2 2.5 1.8-2.5 4.8 1.2 10-21.6c1 2.1 1.6 3.3 2 4.6l12.6 33.4c1.5 4 1.5 4 5.7 4a55 55 0 0053.3-50.5c1.1-12.2 1.9-24.4 2.8-36.6l.8-7.9 2.5 3.5c2.7 4.4 5.2 9 8 13.3q20.8 32.4 59.4 34.2L915 443c2 0 3.9.3 5.8.4zm-126.8 92l.8-.5-.6-13.6A36.2 36.2 0 01802 499a201 201 0 014.9-6.3 36.8 36.8 0 0144.8-11l4.4 2 5.8-14a29.3 29.3 0 0116-16.3l4.2-2.2c-6-.8-10.8-1.1-15.5-2.1a88.8 88.8 0 01-13.9-4.3 78.6 78.6 0 01-12.5-6.4 91.8 91.8 0 01-11.6-8.8c-3.5-3.1-6.7-6.7-10.5-10.6l-1.1 14.4a66.5 66.5 0 01-5.7 23.6 63.8 63.8 0 01-67.6 36.8L733.4 467l-5 10.1c-2.8-1-5.3-1.9-7.7-3a7.6 7.6 0 00-6.7 0c-2.5 1.1-5.2 2-7.8 2.9l-4.8-9.8-2 5c-2.4 6.3-4.8 12.6-7 19a4.5 4.5 0 01-4.4 3.4 63.7 63.7 0 01-68-48c-1.7-7-1.8-14.3-2.7-21.4l-.5-5.4c-8.5 9.3-17.6 17-28.5 22.6s-22.5 8-34.5 9.2a9.5 9.5 0 003 1.8 29.4 29.4 0 0116.5 17.1l4.1 10 1.7 3.3 5-2.2a36.9 36.9 0 0143.1 10.3l5 6.3a38 38 0 018.1 27.5c-.3 3.4 0 6.8 0 11 1.9-2 3.3-3.6 4.8-5A36 36 0 01700 534c5.8 7.2 10 15.2 14.4 23.1l3 5.2c2.3-4.2 4.2-7.8 6.3-11.2 3.6-5.7 7-11.6 11-16.9 14-18 39-19.2 54.8-2.8l4.6 4.7z"/><path d="M357.2 572.6l-5-2.7 3.4-8c39.6 17 78.7 34.4 118.3 51.5l-3.6 8.3-30.4-13.2-1 1.2a16.2 16.2 0 013 2c4.6 4.4 9.3 8.9 13.7 13.5 7.2 7.8 9.3 17 6.8 27.1a44.8 44.8 0 01-5.4 13.4 81.3 81.3 0 01-55.4 37.8c-34 6-67.7-16.3-74.8-50a80.5 80.5 0 0118-69.9c3.3-4.2 8-7.2 12.4-11zm76.7 43.8l-.8.6a47.4 47.4 0 014.4 32 45.2 45.2 0 01-17.5 27.4 44.7 44.7 0 01-53.1 0 47.2 47.2 0 01-16.6-53.2c7.2-20.6 24.5-31.3 49.7-30.4-.4-.4-.6-.9-1-1-7.9-4-15.7-8-23.7-11.4-2.6-1-5.9-1-8.7-.5-6.7 1-11.8 5.2-15.8 10.3a72.9 72.9 0 00-15.6 60 56.8 56.8 0 0067.2 44.1 76.3 76.3 0 0037.8-21.6 50.4 50.4 0 0013-20c2.3-7.2 1.9-14.2-3.2-20s-10.7-10.9-16.1-16.3zm-27.3 23.7a13.2 13.2 0 00-13-13.5h-.3a13.3 13.3 0 00-.2 26.6h.3a13.2 13.2 0 0013.2-13.1z"/><path d="M65 696.3l-8.1 11-7.3-5.2 86.7-122.3 7.3 5.4-18.4 26a8 8 0 002 0c8-3 15.8-1.7 23.4 1.5a60.8 60.8 0 0119.2 13.3 86.8 86.8 0 0125.4 44.2 66.2 66.2 0 01-128.9 30.3zm123-13.5c-1-5.4-1.4-11-3-16a80.4 80.4 0 00-28.3-40.1 39.5 39.5 0 00-14.6-7.4c-7-1.8-13.4-.5-18.5 5a453.8 453.8 0 00-42.9 53.5 114.5 114.5 0 00-5.9 10.7 9.2 9.2 0 00-.6 6.4 57.2 57.2 0 0062.9 44.5 58.2 58.2 0 0050.8-56.6z"/><path d="M336.7 693.4l3.4-2.6 3.3 3.5a65.6 65.6 0 0037.1 21.4c16.4 3 31.5-.8 45.7-8.9a72.2 72.2 0 0029.1-31.6l2.2-4.4 3.7 1.3-1 3.3a77 77 0 01-70.5 45.7c-22-.5-39-10.8-53-27.7z"/><path d="M196.4 715.5l3.6.7a6 6 0 010 1.6 67.8 67.8 0 01-74.2 46.3 76.6 76.6 0 01-48.7-24.9 15.2 15.2 0 01-1-1.5l3.5-3a53 53 0 003.8 4.6 71.2 71.2 0 0065.8 19.3c21.4-4.2 35.6-17.9 44.7-37.3l2.5-5.8z"/><path d="M870.1 1543.5h-42.7l-14-68.3-73.6 47c-.2-8.2 0-15.6-.1-23v-46.7l-57.7 49.2-8.6-51-1-.2-2.5 4.2c-16.2 28.3-32.6 56.5-48.7 84.8-2 3.3-4 4.4-7.8 4.4H315.8l-.3-5v-289a32 32 0 011-7.4q9.7-40.5 19.9-80.8a8.4 8.4 0 00-2-8.5c-5.6-6.6-10.8-13.4-16.4-20a10.5 10.5 0 01-2.6-7.3V930.7c3.5-1 6.9-2.2 10.3-3a11.2 11.2 0 006.6-4c12.4-15.3 24.9-30.4 37.6-45.8l-8.6-20.8 64 7.2 2.8-51 60.6 2.9.5-1-75.8-64.2c1.7-1.2 3-2.3 4.5-3.2A318.7 318.7 0 01614 696.2a311.3 311.3 0 01175.2 67 208.8 208.8 0 0177.2 125 184.8 184.8 0 013.8 37.3v529.9l-.2 82.8zm-484.3-475.4l-2.4 12.5a821 821 0 0176.7 0l-2.5-12.5-19.8-2.4v-45a37.6 37.6 0 005-.5c4.5-1.1 7.5.6 10.5 4a667.2 667.2 0 0047 48.1c4.4 4 9.2 7.6 14 11.2 1.2 1 3.1 2 4.6 2 5.7-.6 11.4-1.6 17.9-2.6-22.5-22.5-39.5-48-56.4-73.9 2.6-2 4.9-3.6 7-5.4 7.1-5.9 13.1-12.7 16.5-21.4a23.8 23.8 0 00-9.3-30 51 51 0 00-13.3-5.8c-10.2-3-20.7-3.4-31.2-3.6-17.6-.3-35.2-.1-52.7-.2h-13.6c.4 3.6 1 6.5 1.2 9.4.1 2.6 1.4 3.6 3.9 3.6a43.2 43.2 0 014.7.2c4 .5 8 1 12.5 1.4.6 36.4.8 72.4-.2 108.6zm378.5-41.8l7.3-1a87.9 87.9 0 0035.6-14c9.8-6.9 16.8-15.8 19.6-27.8 3.3-14.2-1.4-25.4-14.1-32.6a51.6 51.6 0 00-10.8-4.5 104 104 0 00-28.3-4l-51.8-.2h-12l1.9 12.3 20.3 2.3c1 36.5.7 72.5 0 108.8l-20 2.6-2.4 12H791l-3.1-12.2-23.7-2.4-.3-5.9c-.2-11.4-.5-22.9-.5-34.3 0-20.6.1-41.1.3-61.7 0-2.2.3-4.5.6-7.1 6.6.5 12.6 1 18.3 3.5 6.6 3 11 7.8 12.5 14.9 2.5 12.2-1.2 25.9-15 33-3.5 1.9-7.5 3-11.3 4.2-1.4.5-2.8.7-3 2.5l-1.5 11.6zm-132.6-69.4l19.1-2.6 3.2-12.6a778.9 778.9 0 01-78 0l3.2 12.6 19 2.4c1.9 9.8 1.7 102-.2 109l-19.3 2.4-2.4 12.3c13.5-.3 26.3-.6 39.2-.6s25.4.4 38.5.6l-3.3-12.4-19.2-2.3c-1.5-8.8-1.3-103.4.2-108.8z" class="cls-1"/><path d="M306.1 1249.2l-76.4 13.2-57-335.4 167.4-28.4a14.1 14.1 0 01-1 2.5c-4.4 5.3-8.7 10.7-13.3 16a9.6 9.6 0 01-4.3 2.4c-4.8 1.5-9.6 2.7-14.6 4.1l-.2 4.4v201.3a10.4 10.4 0 002.5 7.3c5.1 6 9.9 12.5 15.1 18.5 2.6 3 3.1 5.6 2.2 9.3-6.4 25.6-12.7 51.1-18.9 76.7-.6 2.5-1 5.2-1.5 8.1z" class="cls-1"/><path d="M236.6 1352.8l30-5.1c.5 2.3 1 4.2 1.3 6.2l16.5 96.8c1 6.1 1.8 12.4 3.2 18.5 1 4.4.2 8-3.4 11.3l-2.4-3.9-31.5-55a33.1 33.1 0 01-4.2-11.4c-3-18.4-6.1-36.8-9.3-55.1a19.7 19.7 0 01-.2-2.3z" class="cls-1"/><path d="M225.5 1483.4c-4-1.5-4.6-4.9-5.2-8.3l-7.1-42.2-12-71.4-.4-2.6 31-5.3 2.4 12.6 8.3 49.2a17 17 0 01-.1 7c-5.2 19.5-10.6 39-16 58.4a20.9 20.9 0 01-1 2.6z" class="cls-1"/><path d="M291.6 1467.2L271.2 1347l22.8-3.9 2.3 12.7c3.3 19.5 6.7 39 9.8 58.5.8 5.3 0 11 .7 16.4a33.9 33.9 0 01-7.1 25.4c-2.7 3.5-4.7 7.6-7 11.5z" class="cls-1"/><path d="M172.4 1363.7l23.9-4 19.5 115-3.7-3.1c-7.6-7.2-15.3-14.3-22.8-21.6a9.4 9.4 0 01-3-4.6l-14-81.7z" class="cls-1"/><path d="M282.1 1271.4l15.2-2.5 3 16.8c-4.8 1.8-9.7 2-15 3-1.6-5.6-2.3-11.2-3.2-17.3z" class="cls-1"/><path d="M462.7 806l-11.7-.8-1.9-11 .8-.5 13.3 11.3z" class="cls-1"/><path d="M1109.4 405l-5.2-6.5a27.4 27.4 0 00-42.4-1.3 145.3 145.3 0 00-10 13c-2.3 3.1-4.3 6.4-7 10.3-1-2.5-2-4.2-2.8-6-3-6.9-6-13.8-10.2-20a27.5 27.5 0 00-41.5-5.6c-2.2 1.7-4.2 3.6-6.4 5.4-.2.2-.6 0-1.2 0l1.5-11c2-13.6-5.2-29-16.8-35.9a28 28 0 00-22.7-2.7L938 347c-1-3.4-2.4-6.6-3.2-9.9a25.1 25.1 0 00-15-18 18 18 0 01-4.8-3.2 70 70 0 0060-23v5.3c.3 7-.1 14.2 1 21.1a49.8 49.8 0 0049.8 40.3 13.1 13.1 0 001.8-.3l11-23.1 4 10.3c5.5-2.1 11-3 16 1.8l6-9.8 4.2 14.4 2 6.7c1 3.8 1.1 3.8 5 4.2a50.2 50.2 0 0056.4-44l2.3-14.4c3.8 4.7 7 9.3 10.9 13.1a67.8 67.8 0 0013 10.1 72.8 72.8 0 0015.4 6.6c5.2 1.6 10.6 2.1 16 3.8l-7.8 2.7a22.5 22.5 0 00-13.8 12l-6 11.6-4.6-2.4a28.7 28.7 0 00-35.3 5.6 34.8 34.8 0 00-11.7 27.6 63 63 0 010 6.6l-.2 2.2z" class="cls-1"/><path d="M898 287.5l-6-4.5c-13.7-10-31.3-6.4-39.3 8.6-3 5.7-5 11.8-7.4 17.7-.9 2.2-1.6 4.4-2.6 7.3l-3.6-4.3c-4.8-5.4-9.1-11.2-14.4-16A25.8 25.8 0 00785 301a25.6 25.6 0 01-5 6c-.5-3.8-1.4-7.5-1.5-11.3-.3-13.2-17.3-28.2-28.6-28.5-6.3-.2-12.1 1-17.4 4.3l-4.2 2.8c-3.9-5.3-7.2-10.6-11.3-15.3-4.2-4.9-10.9-5.1-17.2-7a11.9 11.9 0 012.4-1.2 60.4 60.4 0 0045.3-33l1.2-1.8c1.6 5.9 2.7 11 4.2 16a46.6 46.6 0 0035.3 34.1 44 44 0 0024.5-1l4.5-22.6c3.1 1.5 3.6 5.1 6.5 7.2 4.3-3.6 9.3-4.9 15-2.3l3-9.7c4.6 7 8 13.7 12.2 20.6 2.8-.4 5.8-.6 8.6-1.2a47.4 47.4 0 0036.7-51l-1.2-14c0-.2.3-.4.6-1 16 15.2 35 20.6 57.1 17.2a36.7 36.7 0 01-3.7 2.7 23.9 23.9 0 00-13 18.5c-.4 3-1.3 5.8-2.1 9-1.6-.2-2.9-.5-4.2-.8a27 27 0 00-32 14.3l-2.4 4.6a27.5 27.5 0 00-2 19.2l2.4 11z" class="cls-1"/><path d="M1087.2 180.5a38.9 38.9 0 0032.2 17.5c-3.6 2.4-7.3 4-9.9 6.7s-3.7 6.4-5.6 10c-7.8-4.2-15.2-4.5-22 1.9-6.6 6-8 13.5-6.8 22l-.9.3-2.7-2.7c-7.9-8.8-18.4-8.7-26 .2a96.4 96.4 0 00-5.5 8.2l-3.2 5.1c-1.6-3-2.8-5.6-4.2-8a59.6 59.6 0 00-4.7-7.5 15.8 15.8 0 00-22-3l-.9.6-5 4.7c.2-4 .5-7.2.5-10.3 0-9-7.6-18-16.4-19.2a18.3 18.3 0 00-5.5.3 53.5 53.5 0 00-5.7 1.7l-2.2-5 3.9-2.3-.5-.7h-4.3c-1.9-4.8-6.3-6.7-10.4-9.4a40.9 40.9 0 0033.8-16c.2 4.3.5 7.3.5 10.3a28.3 28.3 0 004.1 14.3 28.6 28.6 0 0027.5 13.8l5.9-13.4 2.4 4.7 10 .4 3-4.4 3.5 10.2c1.4 4.2 1.5 4.3 6 4.3a29.3 29.3 0 0029.1-25.5l1.2-9.3z" class="cls-1"/><path d="M794 536.2l-4.4-4.7a35.6 35.6 0 00-54.7 2.8c-4.1 5.4-7.5 11.2-11.1 17-2.1 3.4-4 7-6.3 11.2l-3-5.2c-4.4-8-8.6-16-14.4-23.1a35.9 35.9 0 00-54.9-2.6l-4.8 5c0-4.2-.2-7.6 0-11a38 38 0 00-8.2-27.6c-1.6-2.1-3.2-4.3-5-6.3a36.9 36.9 0 00-43-10.3l-5 2.2-1.8-3.3-4.1-10a29.4 29.4 0 00-16.5-17 9.5 9.5 0 01-3-1.9c12-1.2 23.7-3.7 34.5-9.2s20-13.2 28.6-22.6c.1 1.8.2 3.6.5 5.4.8 7.1 1 14.5 2.7 21.4a63.7 63.7 0 0068 48 4.5 4.5 0 004.3-3.4c2.2-6.3 4.6-12.6 7-19l2-5 4.8 9.8c2.7-1 5.3-1.8 7.8-2.9a7.6 7.6 0 016.8 0c2.3 1.1 4.9 2 7.7 3 1.6-3.3 3-6.3 5-10l10 26.8a63.8 63.8 0 0067.7-36.7 66.5 66.5 0 005.7-23.7l1-14.4c3.9 4 7 7.5 10.5 10.6a91.7 91.7 0 0011.6 8.8 78.6 78.6 0 0012.5 6.3 88.8 88.8 0 0014 4.3c4.6 1 9.5 1.4 15.4 2.2l-4.2 2.1a29.3 29.3 0 00-16 16.4l-5.8 14-4.4-2a36.8 36.8 0 00-44.9 11 201 201 0 00-4.9 6.3 36.2 36.2 0 00-7.5 23.2l.6 13.6z" class="cls-1"/><path d="M433.9 616.4c5.4 5.4 11 10.6 16.1 16.4s5.5 12.7 3.1 19.9a50.8 50.8 0 01-12.9 20 76.4 76.4 0 01-37.8 21.7 56.8 56.8 0 01-67.2-44.2 73 73 0 0115.6-60c4-5.1 9-9.2 15.8-10.3 2.8-.4 6.1-.5 8.7.6 8 3.4 15.9 7.4 23.7 11.3.4.1.6.6 1 1-25.1-.8-42.5 9.8-49.7 30.4a47.2 47.2 0 0016.6 53.3 44.7 44.7 0 0053.1 0 45.2 45.2 0 0017.5-27.6c2.4-11 .7-21.7-4.4-32z" class="cls-1"/><path d="M406.6 640a13.2 13.2 0 01-26.5 0v-.3a13.2 13.2 0 0126.4.1zm-9-.1a4.3 4.3 0 00-4-4.3 4.4 4.4 0 00-4.6 4.2 4.3 4.3 0 008.6 0z" class="cls-1"/><path d="M188 682.8a58.2 58.2 0 01-51 56.6A57.3 57.3 0 0174.1 695a9.2 9.2 0 01.6-6.4 114.5 114.5 0 016-10.7 452.2 452.2 0 0142.9-53.5c5-5.5 11.3-6.8 18.4-5a39.5 39.5 0 0114.6 7.4 80.4 80.4 0 0128.3 40c1.7 5.2 2.1 10.7 3 16.1zm-44.7-.3a13 13 0 00-12.9-13.1h-.7a13.3 13.3 0 00.5 26.5h.3a13.1 13.1 0 0012.8-13.4z" class="cls-1"/><path d="M385.8 1068l20.1-2.2c1-36.3.8-72.3.2-108.6l-12.6-1.4a43.2 43.2 0 00-4.6-.3c-2.5 0-3.8-1-4-3.6-.2-2.9-.7-5.8-1.1-9.3h13.5c17.6 0 35.2-.2 52.7.1 10.5.2 21.1.7 31.3 3.7a51 51 0 0113.2 5.7 23.8 23.8 0 019.4 30 53.6 53.6 0 01-16.5 21.5c-2.1 1.8-4.4 3.4-7 5.4 17 25.8 33.9 51.4 56.4 73.9-6.5 1-12.2 2-18 2.5-1.4.1-3.3-1-4.6-2-4.7-3.5-9.5-7.1-13.9-11.1a667.2 667.2 0 01-47-48.2c-3-3.4-6-5-10.5-4a37.6 37.6 0 01-5 .6v45l19.8 2.3 2.5 12.6a849.3 849.3 0 00-76.7 0zM415.2 952v118.4h13.5V952zm22.5 53.5a44.4 44.4 0 0019.4-3.6 26.4 26.4 0 0013.5-12c5.6-11.3 3.5-21.3-8-27.5a43.4 43.4 0 00-15.7-4.8c-2.8-.4-5.7-1.4-9.1-.3zm17.3 7.3a662.7 662.7 0 0057.5 57.9 699 699 0 01-44.2-64.4zm19-11.3c9.2-5.2 16.8-12 21.1-21.8 3.7-8.3 1.3-15.8-6.4-20.6a48 48 0 00-23-5.8c8.3 5.2 15.2 11.3 16.5 21.6 1.3 10-2 18.7-8.2 26.6z"/><path d="M764.3 1026.3l1.5-11.6c.2-1.8 1.6-2 3-2.5 3.8-1.3 7.8-2.4 11.4-4.3 13.7-7 17.4-20.8 15-33-1.5-7-6-12-12.6-14.9-5.7-2.5-11.7-3-18.3-3.5-.3 2.6-.6 4.9-.7 7.2l-.2 61.6c0 11.4.3 22.9.5 34.3l.3 6 23.7 2.4 3 12.2h-81.3l2.4-12.1 20-2.6c.7-36.3 1-72.2 0-108.8l-20.3-2.2-2-12.3h12.1c17.3 0 34.5 0 51.8.2a104 104 0 0128.3 3.9 51.6 51.6 0 0110.8 4.5c12.7 7.3 17.4 18.5 14.1 32.7a46.4 46.4 0 01-19.6 27.8 86.5 86.5 0 01-35.6 14l-7.3 1zm-23.4-75c1.3 39.9.9 79.4 0 119.1h13.8v-119zm49.6 2.1a32.7 32.7 0 0114.2 25 43.6 43.6 0 01-7.8 28.3c10.6-5.7 18.5-13.6 21.1-25.7 2.2-10.4-.9-17.2-10-22.4a40.7 40.7 0 00-17.5-5.1z"/><path d="M631.7 957c-1.5 5.3-1.7 100-.1 108.7l19.2 2.3 3.2 12.4c-13-.2-25.8-.6-38.5-.6s-25.6.3-39.1.6l2.4-12.3 19.2-2.4c2-7 2.1-99.2.2-109l-19-2.4-3.2-12.5c26.2 1.1 52 1.3 78 0l-3.1 12.6zm-9.9 113.4V951.7h-13.7v118.7z"/><path d="M397.6 639.9a4.3 4.3 0 01-8.6 0 4.4 4.4 0 014.5-4.2 4.3 4.3 0 014.1 4.2z"/><path d="M143.3 682.5a13.1 13.1 0 01-12.7 13.4 13.3 13.3 0 01-13.8-12.8 2.8 2.8 0 010-.2 13.2 13.2 0 0112.9-13.5 13 13 0 0113.6 12.3v.8zm-8.9.4a4.6 4.6 0 00-4-4.5 4.3 4.3 0 00-4.5 4v.3a4 4 0 003.9 4.1h.2a4.3 4.3 0 004.4-4z"/><path d="M415.2 951.9h13.5v118.5h-13.5z" class="cls-1"/><path d="M437.7 1005.4v-48.2c3.4-1 6.3 0 9.2.3a43.4 43.4 0 0115.6 4.8c11.6 6.3 13.7 16.3 8 27.5a26.7 26.7 0 01-13.4 12 44.4 44.4 0 01-19.4 3.6z" class="cls-1"/><path d="M455 1012.7l13.3-6.5a695 695 0 0044.2 64.4 650.4 650.4 0 01-57.5-57.9z" class="cls-1"/><path d="M474 1001.4c6-7.9 9.5-16.6 8.2-26.6-1.3-10.2-8.2-16.4-16.4-21.6 8 .5 16 1.5 22.9 5.8 7.7 4.8 10.1 12.3 6.4 20.6a46.8 46.8 0 01-21.1 21.8z" class="cls-1"/><path d="M740.9 951.3h13.8v119.1H741c.8-39.7 1.1-79.2-.1-119z" class="cls-1"/><path d="M790.5 953.4a41 41 0 0117.5 5.1c9.1 5.3 12.2 12 10 22.4-2.6 12.2-10.6 20-21.2 25.8a43.6 43.6 0 008-28.3 32.5 32.5 0 00-14.3-25z" class="cls-1"/><path d="M621.8 1070.4h-13.7V951.7h13.7z" class="cls-1"/><path d="M134.4 682.9a4.2 4.2 0 01-4.4 4 4 4 0 01-4-4v-.2a4.3 4.3 0 014.1-4.3h.4a4.6 4.6 0 013.9 4.5z" class="cls-1"/></svg>