<svg id="Layer_1" data-name="Layer 1" xmlns="http://www.w3.org/2000/svg" viewBox="0 0 1200 1550"><defs><style>.cls-1{fill:#fff;}</style></defs><path class="cls-1" d="M0,544.38V-1.5H970.35c-2.14,1.24-4.22,2.59-6.42,3.7A197.15,197.15,0,0,0,862.8,231.27c1.77,6.31,3.92,12.52,5.89,18.75a21.42,21.42,0,0,1-12.77,3.19L840.06,226c-1.67,6-3,11-4.24,15.21L824,243.3c-2.54-3.68-5.46-7.88-9-13-2.16,11.13-4.12,21.2-6.12,31.56-2.67.38-5.11.94-7.58,1.06-21.08,1.05-39-12.08-44.4-32.52-1.48-5.6-2.75-11.26-4.15-16.88-.91-3.69-1.9-7.37-2.91-11.26-.62.54-1,.69-1.06.94-1.18,2.9-2.26,5.84-3.47,8.73q-10.37,24.7-36,32.74c-3.28,1-6.7,1.59-10.07,2.31q-9.47,2.06-19,4a4.28,4.28,0,0,0,2.5,1.61c6.85,1.68,13.66,3.56,20.57,4.91,7.12,1.4,12.3,5,15.73,11.41,2.18,4.11,4.93,7.91,7.5,12,3.14-2.14,5.79-4.1,8.59-5.8,8-4.84,16.07-4.94,24,0a53.1,53.1,0,0,1,7.55,6.33,21.31,21.31,0,0,1,7.07,13.44c.9,7.31,1.75,14.63,2.65,21.94.12,1,.4,2,.75,3.63,1.17-1.54,2-2.47,2.63-3.47,3-4.44,5.79-9,8.82-13.34,8-11.59,22.68-13.46,33.09-4.11a97.07,97.07,0,0,1,8.72,9.19c3.75,4.41,7.26,9,10.81,13.47l4.44-.84c1.7-4.87,3.25-9.8,5.13-14.6A117.2,117.2,0,0,1,857,293c5.13-9.34,15.15-13.19,25.32-10.19a11.3,11.3,0,0,1,6.28,4.56c4.84,6.74,10,13.26,15,19.87.62.81,1.28,1.6,2.48,3.1H895.91a8.13,8.13,0,0,0,3,2.55c6.08,3.26,12.22,6.41,18.25,9.75,6.61,3.68,12,8.37,13.72,16.33,1,4.53,2.77,8.9,4.34,13.76,2-.69,3.54-1.28,5.13-1.81,2.68-.88,5.37-1.7,8-2.59a7.35,7.35,0,0,1,6.25.89c5.06,2.82,10.28,5.35,15.42,8a9.22,9.22,0,0,1,3.11,2c4.6,6,8,12.44,6.91,20.34-.92,7-1.88,14-2.78,21-.22,1.71-.26,3.45-.45,6.11,2.08-1.78,3.27-2.76,4.41-3.79,4.08-3.68,8-7.5,12.22-11,10.82-9.12,26.21-7.11,34.18,4.54a94.38,94.38,0,0,1,6.7,11.83c2.76,5.62,5.2,11.4,7.85,17.29h4.63c2.46-3.71,4.77-7.44,7.33-11,3.47-4.82,6.8-9.82,10.78-14.2,10.44-11.45,26.14-10.81,36,1.21,3.58,4.36,7,8.85,10.54,13.25.72.89,1.6,1.65,2.87,2.94.29-7.95.93-15.15.73-22.33-.25-9.08,3-16.3,9.24-22.77,9.84-10.18,20.62-12,33-4.89l6.59,3.75c2.91-5.7,5.58-10.83,8.16-16a18.59,18.59,0,0,1,11.44-9.81c5.52-1.76,11-3.69,16.47-5.55V1551.44H1054.12c-9-20.11-18.06-40.21-27.23-60.65l-4.26,3.08c-8.53,6.13-16.92,12.47-25.63,18.33-7.4,5-15.14,9.48-22.82,14-2.22,1.32-4.75,2.1-7.83,3.43-5-20.84-5.43-41.49-7.19-62.77L915.44,1496c3.67-27.84,7.19-54.56,10.72-81.28-16,12-30.92,24.7-47,37.87V925.37a195.53,195.53,0,0,0-4.3-41.08c-11.07-51.66-37.4-94.17-78.59-127-61.27-48.79-131.7-71.68-210-70.78-4.67,0-9.34,0-14.26,0-.25-.88-.61-1.9-.83-2.94q-14.09-66.45-28.09-132.9a8.57,8.57,0,0,0-4.32-6.2c-12.48-7.53-24.81-15.32-37.31-22.84a9.17,9.17,0,0,1-4.58-6.56c-2.15-10.11-4.5-20.18-6.8-30.27-.48-2.09-1.11-4.16-1.77-6.61l-34.13,14.88-19.35-14.34q8.06-33,16.16-66.15l-.87-.48L374.61,462c-6.17-5.29-11.94-10.12-17.55-15.12-2.07-1.84-3.92-2.54-6.73-1.61-4.9,1.61-10,2.71-15,4.06-19.21,5.21-38.63,9.73-57.56,15.77-66.72,21.3-133.26,43.14-199.89,64.73a199.78,199.78,0,0,1-19.36,5.7c-7,1.52-14.25,2.15-21.38,3.22ZM920.85,444.32l-.09-.88c-1.93-.14-3.86-.35-5.8-.42-11.28-.41-22.57-.7-33.85-1.22q-38.49-1.76-59.39-34.2c-2.8-4.35-5.3-8.89-8-13.31-.58-1-1.33-1.83-2.52-3.43-.32,3.23-.59,5.55-.77,7.88-.92,12.19-1.66,24.4-2.76,36.58a54.93,54.93,0,0,1-53.37,50.43c-4.16.13-4.19.14-5.71-3.92q-6.26-16.72-12.49-33.46c-.46-1.25-1-2.45-2-4.59-3.6,7.73-6.81,14.61-10.09,21.63l-4.73-1.17c-.68.88-1.28,1.64-1.92,2.45l-1.92-2.46-4.71,1.19-10.23-21.91c-5.51,14.71-10.61,28.32-15.69,41.92a22.68,22.68,0,0,1-2.61.32c-29-.17-50.79-20.9-54.45-45.94-1.74-11.91-2-24-3-36.07-.32-4-.7-8-1.13-12.87-1.15,1.51-1.84,2.26-2.36,3.12-2.43,4-4.75,8.12-7.22,12.12Q593,440.36,552.71,441.85c-11.13.4-22.26.78-33.38,1.21-1.78.06-3.56.29-5.34.44a12.64,12.64,0,0,0,4.52,2.93c11.36,4.91,22.7,9.89,34.11,14.69a21.78,21.78,0,0,1,12.5,12.64c2.45,6.27,5.1,12.47,7.7,18.69.45,1.08,1.1,2.08,1.74,3.27,4.18-2,8-3.8,11.83-5.55,13-5.89,26.11-2.75,35,8.36,1.08,1.35,2.08,2.76,3.19,4.08a29.57,29.57,0,0,1,7,21.79c-.65,9.54-1.11,19.1-1.59,28.65-.12,2.26,0,4.53,0,7.59,1.63-1.61,2.74-2.63,3.77-3.73,6.12-6.51,12.09-13.18,18.36-19.54,11.74-11.92,30.19-11,40.54,2a127.92,127.92,0,0,1,9.43,14c3.39,5.64,6.38,11.52,9.58,17.27a23,23,0,0,0,1.52,2.27h8.71c.47-.81,1.27-2.13,2-3.49,3.56-6.45,6.89-13,10.74-19.31a82.92,82.92,0,0,1,9.45-12.84c10.19-11.08,27.82-11,38.69.06,6.7,6.82,13.08,14,19.63,20.93a27.19,27.19,0,0,0,2.8,2.21c-.65-12.68-1.21-24.57-1.91-36.45a28.77,28.77,0,0,1,5.56-19.41c1.3-1.77,2.66-3.49,4-5.22,9.52-12.17,22.34-15.27,36.38-8.8l11.22,5.18c.68-1.42,1.27-2.5,1.74-3.62,2.41-5.79,5-11.52,7.14-17.39a23.1,23.1,0,0,1,13.67-14c11.3-4.66,22.47-9.62,33.69-14.47C918.11,445.68,919.47,445,920.85,444.32Z"/><path class="cls-1" d="M0,607.44V562.26q25.11-3.76,50.21-7.55c6.19-1,12.56-1.43,18.47-3.33,55.19-17.72,110.38-35.49,165.42-53.71q55.14-18.26,111.35-32.73c2.89-.75,4.94-.54,7.22,1.53,5.68,5.16,11.6,10.08,17.44,15.07,1,.88,2.17,1.66,3.3,2.52L422.08,452l.88.65c-6.63,27.13-13.27,54.26-20.15,82.4L476,503c1.86,8.18,3.66,15.63,5.2,23.14A9.62,9.62,0,0,0,486.1,533c12.5,7.51,24.85,15.27,37.3,22.86a7.62,7.62,0,0,1,3.85,5.44q11,52.68,22.27,105.32c1.51,7.16,3,14.34,4.55,22-57.18,7.18-108.85,27.18-155.43,61.6l30.82,26.16-47.69,12.45c-2.87-5.2-5.48-10-8.19-14.87l-7.7,4.2c2.34,4.64,4.4,8.73,6.62,13.15l-30,7.84c-3.05-17.79-6-35-9-52.68L324.7,748c3,18,6,35.59,9,53.52l-25.38,6.68-3.79-21.06-8.65,1.57c1.2,7.45,2.35,14.61,3.52,21.91-11.73,3-22.73,6.42-34.13,8.84L249.2,777.77l-8.32,3.31,15.65,41-43.38,11.76-13.26-30-8.17,3.61,12.54,28.81-32.85,9.11c-3-17.4-5.94-34.47-9-52L153.64,795c3,17.84,5.92,35.23,8.88,52.81l-35,9.86c-4-7.4-7.86-14.52-11.9-22L107.81,840l10.67,20.14-14.3,4.46,2.53,8.35,16.2-4.41,11.24,20.68,7.73-4.14c-3.07-6.73-6.88-12.62-9.87-19.28l32-9c2.49,14.45,4.87,28.29,7.34,42.62l8.66-1.54c-2-14.94-5.18-29.12-7-43.64l34.85-9.58c4.46,10.06,8.68,19.61,13.06,29.51l8.15-3.66-12.32-28.32,43-11.55c4.5,11.67,8.88,23,13.35,34.57l8.32-3.23c-4.35-11.47-8.5-22.4-12.78-33.7,11.06-2.92,21.45-6,32.3-8.44,1.32,7.36,2.53,14.09,3.79,21.16l8.74-1.48c-1.26-7.61-2.42-14.68-3.66-22.22l25.35-6.74c1.5,8.42,2.92,16.34,4.39,24.59l8.67-1.68c-1.42-8.7-2.74-16.83-4.12-25.26l33-8.69c5,9.37,10,18.56,15.07,28.06l7.89-4.23c-2.48-4.67-4.78-8.93-7-13.23s-4.68-8.31-6.71-13L438,783.43c1.22,7.28,2.36,14.13,3.59,21.44l-22-.89c-1,17-1.87,33.45-2.81,50.25l-69.85-7.85,12.78,30.53-293.09,51A19.07,19.07,0,0,1,66,925.8q-4.28-24.07-8.53-48.14-8.69-49-17.34-98.15-8.76-49.53-17.57-99c-1.38-7.71-2.11-15.63-4.41-23.06-5-16-10.72-31.77-16.22-47.61C1.59,608.9.65,608.22,0,607.44Zm357.16-34.83c-4.34,3.77-9.1,6.83-12.48,11-16.59,20.49-23.45,43.95-18,69.92,7.11,33.7,40.79,56.08,74.79,50,24-4.27,42.29-17.56,55.44-37.85a44.87,44.87,0,0,0,5.48-13.39c2.5-10.08.35-19.35-6.85-27.06-4.38-4.69-9-9.14-13.64-13.63a16.24,16.24,0,0,0-3.07-1.91l1-1.23,30.45,13.19,3.6-8.25c-39.61-17.12-78.72-34.55-118.3-51.51l-3.45,8ZM65,696.27l1.3,4.26c10,33.69,42,53.43,76.48,47.16,35.46-6.44,59.71-42.26,52.39-77.45-3.64-17.48-12.88-31.81-25.36-44.21a60.77,60.77,0,0,0-19.2-13.34c-7.57-3.19-15.31-4.52-23.32-1.55a8,8,0,0,1-2.08,0l18.41-26-7.3-5.3L49.57,702.11l7.26,5.16Zm271.76-2.85c13.94,16.84,31,27.15,53,27.67,29.59.7,58.77-18.46,70.43-45.7.42-1,.69-2,1.1-3.27l-3.76-1.35-2.13,4.41c-6.61,13.43-16.16,24.22-29.19,31.66-14.15,8.07-29.28,11.81-45.61,8.9-14.94-2.65-27-10.39-37.18-21.4-1-1.13-2.07-2.25-3.25-3.52ZM196.4,715.48c-.89,2.1-1.63,4-2.48,5.81-9.06,19.45-23.29,33.08-44.74,37.31-25,4.94-47.11-1.76-65.76-19.32a53,53,0,0,1-3.83-4.51l-3.45,2.94a15.18,15.18,0,0,0,1,1.51c.72.82,1.46,1.62,2.24,2.39,12.94,12.75,28.34,20.45,46.45,22.44,36.76,4.05,63.21-16.17,74.22-46.25a6,6,0,0,0,0-1.58Z"/><path class="cls-1" d="M111.06,1551.44H0V662c2,.65,1.66,2.44,1.92,3.91q11.4,64.34,22.78,128.67,12.18,68.73,24.38,137.45c1,5.36,2,10.7,3.06,16.48,17.54-3,34.65-6,51.76-8.93s34.08-6.16,51.46-8.79c20,117.55,39.87,234.44,59.85,351.91l49.25-8.26c2,11.63,4,22.83,6,34.62l33-5.41c.12,6.76,4.17,12.3,3,19.21L152,1349.2c4.5,26.46,8.66,52.28,13.32,78,6.55,36.15,12.76,74.61,12.06,77.65l-41.62-42.24a2.81,2.81,0,0,0-.8-.47.82.82,0,0,0-.44,0,4.69,4.69,0,0,0-.6.2c-3.07,11.88-6.19,23.86-9.26,35.84Q117.81,1524.79,111.06,1551.44Z"/><path d="M111.06,1551.44l13.56-53.28c3.07-12,6.19-24,9.26-35.84a4.69,4.69,0,0,1,.6-.2.82.82,0,0,1,.44,0,2.81,2.81,0,0,1,.8.47l41.6,42.29c.7-3-5.51-41.5-12.06-77.65-4.66-25.73-8.82-51.55-13.32-78l154.45-26.31c1.22-6.91-2.83-12.45-2.95-19.21l-33,5.41c-2.05-11.79-4-23-6-34.62l-49.25,8.26c-20-117.47-39.86-234.36-59.85-351.91-17.34,2.6-34.34,5.83-51.44,8.76s-34.22,5.9-51.76,8.93c-1.08-5.78-2.11-11.12-3.06-16.48Q36.87,863.33,24.7,794.61,13.3,730.28,1.92,665.94C1.66,664.47,2,662.68,0,662V607.44c.65.78,1.59,1.46,1.9,2.35,5.5,15.84,11.27,31.6,16.22,47.61,2.3,7.43,3,15.35,4.41,23.06q8.8,49.51,17.57,99,8.68,49.15,17.35,98.15Q61.7,901.69,66,925.75a19.07,19.07,0,0,0,.65,2.11l293.09-51-12.78-30.53,69.85,7.85c.94-16.8,1.86-33.28,2.81-50.25l22,.89c-1.23-7.31-2.37-14.16-3.59-21.44L386.27,797c2,4.69,4.52,8.78,6.71,13s4.53,8.56,7,13.23l-7.89,4.23c-5.11-9.5-10-18.69-15.07-28.06l-33,8.69c1.38,8.43,2.7,16.56,4.12,25.26l-8.67,1.68c-1.47-8.25-2.89-16.17-4.39-24.59l-25.35,6.74c1.24,7.54,2.4,14.61,3.66,22.22l-8.74,1.48c-1.26-7.07-2.47-13.8-3.79-21.16-10.85,2.39-21.24,5.52-32.3,8.44,4.28,11.3,8.43,22.23,12.78,33.7L273,865.11c-4.47-11.57-8.85-22.9-13.35-34.57l-42.93,11.65,12.37,28.42L221,874.27c-4.38-9.9-8.6-19.45-13.06-29.51l-34.85,9.58c1.83,14.52,5,28.7,7,43.64l-8.66,1.54c-2.47-14.33-4.85-28.17-7.34-42.62l-32,9c3,6.66,6.8,12.55,9.87,19.28l-7.73,4.14-11.28-20.71L106.71,873l-2.53-8.35,14.3-4.46-10.67-20.14,7.81-4.32c4,7.47,7.89,14.59,11.9,22l35-9.86c-3-17.58-5.88-35-8.88-52.81l8.77-1.61c3,17.48,6,34.55,9,52l32.85-9.11c-4.27-9.8-8.31-19.09-12.54-28.81l8.17-3.61,13.26,30,43.38-11.76c-5.28-13.85-10.35-27.13-15.65-41l8.32-3.31,16.07,41.72c11.4-2.42,22.4-5.87,34.13-8.84-1.17-7.3-2.32-14.46-3.52-21.91l8.65-1.57,3.79,21.06,25.38-6.68c-3-17.93-6-35.49-9-53.52l8.8-1.52c3,17.66,6,34.89,9,52.68l30-7.84c-2.22-4.42-4.28-8.51-6.62-13.15l7.7-4.2c2.71,4.92,5.32,9.67,8.19,14.87l47.69-12.45-30.82-26.16c46.58-34.42,98.25-54.42,155.43-61.6-1.59-7.69-3-14.87-4.55-22q-11.16-52.65-22.27-105.32A7.62,7.62,0,0,0,523.4,556c-12.45-7.59-24.8-15.35-37.3-22.86a9.62,9.62,0,0,1-4.88-6.89c-1.54-7.51-3.34-15-5.2-23.14l-73.21,32c6.88-28.14,13.52-55.27,20.15-82.4l-.88-.65-48.67,32.1c-1.13-.86-2.26-1.64-3.3-2.52-5.84-5-11.76-9.91-17.44-15.07-2.28-2.07-4.33-2.28-7.22-1.53q-56.24,14.47-111.35,32.73c-55,18.22-110.23,36-165.42,53.71-5.91,1.9-12.28,2.38-18.47,3.33-16.73,2.57-33.47,5-50.21,7.55V544.48l37.18-5.63c7.13-1.07,14.35-1.7,21.38-3.22a199.78,199.78,0,0,0,19.36-5.7c66.63-21.59,133.17-43.43,199.89-64.73,18.93-6,38.35-10.56,57.56-15.77,5-1.35,10.06-2.45,15-4.06,2.81-.93,4.66-.23,6.73,1.61,5.61,5,11.38,9.83,17.55,15.12l75.54-49.89.87.48Q443,445.81,434.9,478.84l19.35,14.34,34.13-14.88c.66,2.45,1.29,4.52,1.77,6.61,2.3,10.09,4.65,20.16,6.8,30.27a9.17,9.17,0,0,0,4.58,6.56c12.5,7.52,24.83,15.31,37.31,22.84a8.57,8.57,0,0,1,4.32,6.2q14,66.47,28.09,132.9c.22,1,.58,2.06.83,2.94h14.26c78.27-.91,148.66,22,210,70.84,41.19,32.81,67.52,75.32,78.59,127a195.53,195.53,0,0,1,4.3,41.08v527.07c16.09-13.17,31-25.89,47-37.87-3.53,26.72-7,53.44-10.72,81.28l43.72-29.1c1.76,21.28,2.17,41.93,7.19,62.77,3.08-1.33,5.61-2.11,7.83-3.43,7.68-4.56,15.42-9,22.82-14,8.71-5.86,17.1-12.2,25.63-18.33l4.26-3.08c9.17,20.44,18.2,40.54,27.23,60.65Zm759-7.91v-5.31c.06-27.61.16-55.21.16-82.82V925.52a184.75,184.75,0,0,0-3.77-37.38c-10.51-51.06-36.55-92.71-77.27-124.94-51.3-40.58-110-62.5-175.15-67.05A318.58,318.58,0,0,0,417.9,747.74c-1.4.93-2.74,2-4.48,3.2l75.83,64.27c-.15.32-.31.63-.47.95l-60.66-2.81c-1,17.21-1.89,33.88-2.83,50.9l-64-7.18c3.08,7.36,5.89,14.09,8.67,20.75-12.74,15.47-25.25,30.56-37.63,45.75a11.22,11.22,0,0,1-6.54,4.13c-3.45.78-6.81,2-10.31,3v4.18q0,95.53-.06,191.06a10.47,10.47,0,0,0,2.66,7.21c5.52,6.62,10.76,13.48,16.34,20.07a8.43,8.43,0,0,1,2,8.47c-6.83,26.92-13.42,53.83-19.95,80.78a31.94,31.94,0,0,0-1,7.41q-.08,144.46,0,288.94c0,1.52.15,3,.25,5h5.43q146.13,0,292.24.08c3.76,0,5.85-1.11,7.73-4.41,16.15-28.32,32.5-56.54,48.79-84.79.82-1.43,1.66-2.83,2.5-4.25l.94.21c2.82,16.71,5.64,33.42,8.61,51l57.75-49.24v46.75c0,7.41-.1,14.83.09,23.1l73.61-47.1c4.77,23.34,9.38,45.84,14,68.36Zm-564-294.29c.53-3,.86-5.61,1.48-8.17,6.25-25.56,12.47-51.14,18.9-76.66.93-3.72.43-6.37-2.15-9.3-5.27-6-10-12.45-15.19-18.56a10.38,10.38,0,0,1-2.54-7.24q.09-100.69.06-201.38c0-1.38.13-2.76.22-4.36,5-1.39,9.83-2.63,14.6-4.12a9.61,9.61,0,0,0,4.33-2.45c4.53-5.2,8.84-10.59,13.2-15.94a14.12,14.12,0,0,0,1.11-2.48L172.7,927q28.56,168,57,335.33Zm-69.54,103.55c.1,1.1.12,1.7.21,2.28,3.12,18.37,6.33,36.72,9.28,55.12a33.15,33.15,0,0,0,4.2,11.33Q266,1449,281.67,1476.61c.74,1.31,1.62,2.54,2.47,3.87,3.54-3.37,4.34-6.9,3.34-11.31-1.38-6.1-2.18-12.33-3.23-18.5q-8.21-48.4-16.41-96.79c-.33-1.94-.84-3.85-1.36-6.2Zm-11.12,130.6c.34-.9.73-1.73,1-2.6,5.38-19.48,10.78-39,16-58.48a17,17,0,0,0,.08-7c-2.69-16.39-5.51-32.76-8.31-49.13-.71-4.11-1.5-8.2-2.32-12.67l-31,5.3c.12,1.15.16,1.91.28,2.66q6,35.68,12.08,71.37,3.57,21.1,7.12,42.19c.56,3.45,1.08,6.86,5.13,8.31Zm66.18-16.15,1,.23c2.32-3.84,4.32-7.92,7-11.46a33.86,33.86,0,0,0,7.16-25.4c-.58-5.43.13-11-.71-16.4-3-19.51-6.44-39-9.74-58.43-.69-4.11-1.49-8.2-2.32-12.73l-22.8,3.9ZM172.36,1363.69c4.73,27.73,9.29,54.72,14,81.69a9.36,9.36,0,0,0,2.89,4.55c7.55,7.28,15.22,14.45,22.87,21.63.87.83,1.84,1.56,3.67,3.09-6.62-38.93-13-76.77-19.55-115Zm109.76-92.28c.91,6.1,1.54,11.72,3.17,17.29,5.26-1.09,10.23-1.23,15-3-1-5.77-2-11.09-3-16.83ZM462.71,806l.45-1.08-13.3-11.29-.81.5c.61,3.57,1.22,7.15,1.9,11.08Z"/><path class="cls-1" d="M1200,111.44V245.09c-.94,1.94-1.85,3.91-2.83,5.84a158.37,158.37,0,0,1-33.66,45c-5.84,5.39-12.14,10.29-18.4,15.56-5.89-6.2-8.43-13.68-12.69-21.25-.51,2.81-.84,4.48-1.11,6.17-1.16,7.28-2.44,14.53-3.38,21.84a6.07,6.07,0,0,1-3.87,5.22,157.58,157.58,0,0,1-37.68,13c-5.47,1.11-11,1.9-16.68,2.87-1.3-4.22-2.44-7.88-3.85-12.43-2.73,4.8-5,8.85-7.33,12.86H1044.8c-1.81-4.84-3.54-9.45-5.65-15.1-2.57,5.3-4.64,9.59-6.65,13.74a25.78,25.78,0,0,1-2.78,0,160.13,160.13,0,0,1-45.8-13.59,4.74,4.74,0,0,1-3.06-3.83c-.54-4.5-1.28-9-1.37-13.52-.17-8.15.07-16.31.14-24.47v-5.06c-4.63,5.67-8.28,10.67-12.38,15.33a48.94,48.94,0,0,1-15.13,11.34c-15.87-10.78-39.65-40.52-44.21-55.17A11.18,11.18,0,0,1,909,248a22.13,22.13,0,0,1,21.6-6.07c3.14.71,6.24,1.56,9.6,2.41,1.32-5.71,2.63-10.86,3.67-16.07a17.93,17.93,0,0,1,8.63-12.3c3.6-2.22,7.1-4.6,10.65-6.91,1.8-1.16,3.62-2.3,5.55-3.53l2.83,6.51c2.93-1,5.52-2.2,8.24-2.64,9.88-1.59,19.48,8.3,18.47,18.79-.44,4.47-.88,8.94-1.43,14.61,3.58-3.43,6.28-6.18,9.15-8.74,6.58-5.86,15.27-5,20.57,2a55.08,55.08,0,0,1,4.16,6.81c1.42,2.61,2.58,5.37,4,8,1.28,2.31,2.6,2.31,4.14.08,1.07-1.55,1.92-3.25,3-4.81a90.15,90.15,0,0,1,6.17-8.84c6.07-7,14.94-7,21.28-.08,1.8,2,3.44,4.07,5.22,6a30,30,0,0,0,2.58,2.2c0-4.42.13-8.17,0-11.91a18.4,18.4,0,0,1,5-13.73c5.52-6.13,11.59-7.49,19-3.9,1.35.67,2.72,1.28,4.08,1.91.36-.5.69-1,1-1.54,6.37-13.59,4-11.15,18.75-16.95,1.63-.63,3.24-1.32,4.85-2a63.48,63.48,0,0,0-12.77-2c-12.89-1-22.47-7.13-28.86-18.33-.72-1.26-1.5-2.48-2.84-4.71-.4,2.89-.64,4.56-.86,6.25-.61,4.66-.89,9.39-1.89,14-3.39,15.58-18.74,22.71-29.34,20.3-1.86-5.54-3.78-11.27-6-17.78l-4.53,8-7.46-.43c-1.11-2.41-2.26-4.91-3.78-8.23-2.76,6.35-5.17,11.86-7.65,17.57a41.72,41.72,0,0,1-4.33-.23,27,27,0,0,1-23.38-26.08c-.2-4.39-.17-8.78-.31-13.17a33.59,33.59,0,0,0-.57-3.73l-3.7,5.2A32.65,32.65,0,0,1,973,187.13a57.59,57.59,0,0,1-11.62,1.48c-4.1.24-8.24,0-12.35,0a8.44,8.44,0,0,0,3.45,2.78c3.24,1.6,6.53,3.08,9.72,4.75,2.14,1.13,4.33,2.37,4.62,5.5-6,.79-11.75,1.57-17.5,2.29-19.26,2.4-35.52-3.61-48.88-17.59-2-2-3.67-4.29-5.55-6.39a33.25,33.25,0,0,0-2.83-2.48c1.09,11.57,2.09,22.29,3.09,33a8.49,8.49,0,0,1-1.86-4.31,163.21,163.21,0,0,1,.12-56.63c15.06-82.6,90.1-139.25,171.9-132.52,38,3.13,70.8,17.87,98.57,43.86A161,161,0,0,1,1200,111.44Z"/><path d="M1200,111.44a161,161,0,0,0-36.12-50.5c-27.77-26-60.58-40.73-98.57-43.86C983.51,10.35,908.47,67,893.41,149.6a163.21,163.21,0,0,0-.12,56.63,8.49,8.49,0,0,0,1.86,4.31c-1-10.72-2-21.44-3.09-33a33.25,33.25,0,0,1,2.83,2.48c1.88,2.1,3.6,4.36,5.55,6.39,13.36,14,29.62,20,48.88,17.59,5.75-.72,11.49-1.5,17.5-2.29-.29-3.13-2.48-4.37-4.62-5.5-3.19-1.67-6.48-3.15-9.72-4.75a8.44,8.44,0,0,1-3.45-2.78c4.11,0,8.25.19,12.35,0A57.58,57.58,0,0,0,973,187.13,32.71,32.71,0,0,0,991.36,174l3.7-5.2a33.59,33.59,0,0,1,.57,3.73c.14,4.39.11,8.78.31,13.17a27,27,0,0,0,23.38,26.08,41.72,41.72,0,0,0,4.33.23c2.48-5.71,4.89-11.22,7.65-17.57,1.52,3.32,2.67,5.82,3.78,8.23l7.46.43,4.53-8c2.19,6.51,4.11,12.24,6,17.78,10.6,2.41,26-4.72,29.34-20.3,1-4.57,1.28-9.3,1.89-14,.22-1.69.46-3.36.86-6.25,1.34,2.23,2.12,3.45,2.84,4.71,6.39,11.2,16,17.34,28.86,18.33a63.48,63.48,0,0,1,12.77,2c-1.61.66-3.22,1.35-4.85,2-14.74,5.8-12.38,3.36-18.75,16.95-.31.53-.64,1-1,1.54-1.36-.63-2.73-1.24-4.08-1.91-7.36-3.59-13.43-2.23-19,3.9a18.4,18.4,0,0,0-5,13.73c.17,3.74,0,7.49,0,11.91a30,30,0,0,1-2.58-2.2c-1.78-2-3.42-4.09-5.22-6-6.34-6.92-15.21-7-21.28.08a90.25,90.25,0,0,0-6.18,8.84c-1,1.56-1.89,3.26-3,4.81-1.54,2.23-2.86,2.23-4.14-.08-1.43-2.61-2.59-5.37-4-8a55.08,55.08,0,0,0-4.16-6.81c-5.3-7-14-7.88-20.57-2-2.87,2.56-5.57,5.31-9.15,8.74.55-5.67,1-10.14,1.43-14.61,1-10.49-8.59-20.38-18.47-18.79-2.72.44-5.31,1.67-8.24,2.64l-2.83-6.51c-1.93,1.23-3.75,2.37-5.55,3.53-3.55,2.31-7,4.69-10.65,6.91a17.93,17.93,0,0,0-8.63,12.3c-1,5.21-2.35,10.36-3.67,16.07-3.36-.85-6.46-1.7-9.6-2.41A22.13,22.13,0,0,0,909,248a11.41,11.41,0,0,0-1.08,1.43c4.56,14.65,28.34,44.39,44.21,55.17a49,49,0,0,0,15.13-11.3c4.09-4.66,7.74-9.66,12.37-15.4v5.06c-.07,8.16-.31,16.32-.14,24.47.09,4.51.83,9,1.37,13.52a4.74,4.74,0,0,0,3.06,3.83,160.13,160.13,0,0,0,45.8,13.59,25.78,25.78,0,0,0,2.78,0c2-4.15,4.08-8.44,6.65-13.74,2.11,5.65,3.84,10.26,5.65,15.1h13.72c2.29-4,4.6-8.06,7.33-12.86,1.41,4.55,2.55,8.21,3.85,12.43,5.67-1,11.21-1.76,16.68-2.87a157.58,157.58,0,0,0,37.68-13,6.07,6.07,0,0,0,3.87-5.22c.94-7.31,2.22-14.56,3.38-21.84.27-1.69.6-3.36,1.11-6.17,4.26,7.57,6.8,15,12.69,21.25,6.26-5.27,12.56-10.17,18.4-15.56a158.37,158.37,0,0,0,33.66-45c1-1.93,1.89-3.9,2.83-5.84v64c-7.35,7.39-14.7,14.79-22.66,22.78l22.66,2.7v5.65c-5.49,1.86-11,3.79-16.47,5.55a18.59,18.59,0,0,0-11.44,9.81c-2.58,5.17-5.25,10.3-8.16,16l-6.59-3.75c-12.43-7.1-23.21-5.29-33,4.89-6.25,6.47-9.49,13.69-9.24,22.77.2,7.18-.44,14.38-.73,22.33a37.27,37.27,0,0,1-2.87-2.94c-3.53-4.4-7-8.89-10.54-13.25-9.86-12-25.56-12.66-36-1.21-4,4.38-7.31,9.38-10.78,14.2-2.56,3.56-4.87,7.29-7.33,11h-4.62c-2.65-5.89-5.09-11.67-7.85-17.29a94.38,94.38,0,0,0-6.7-11.83c-8-11.65-23.36-13.66-34.18-4.54-4.19,3.53-8.14,7.35-12.22,11-1.14,1-2.33,2-4.41,3.79.19-2.66.23-4.4.45-6.11.9-7,1.86-14,2.78-21,1-7.9-2.31-14.37-6.91-20.34a9.22,9.22,0,0,0-3.11-2c-5.14-2.68-10.36-5.21-15.42-8a7.35,7.35,0,0,0-6.25-.89c-2.67.89-5.36,1.71-8,2.59-1.59.53-3.17,1.12-5.13,1.81-1.57-4.86-3.35-9.23-4.34-13.76-1.75-8-7.11-12.65-13.72-16.33-6-3.34-12.17-6.49-18.25-9.75a8.13,8.13,0,0,1-3-2.55h10.16c-1.2-1.5-1.86-2.29-2.48-3.1-5-6.61-10.19-13.13-15-19.87a11.3,11.3,0,0,0-6.28-4.56c-10.17-3-20.19.85-25.32,10.19a116.43,116.43,0,0,0-6.06,13.72c-1.88,4.8-3.43,9.73-5.13,14.6l-4.44.84c-3.55-4.45-7.06-9.06-10.81-13.47a97.07,97.07,0,0,0-8.72-9.19c-10.41-9.35-25.1-7.48-33.09,4.11-3,4.39-5.87,8.9-8.82,13.34-.67,1-1.46,1.93-2.63,3.47-.35-1.65-.63-2.63-.75-3.63-.9-7.31-1.75-14.63-2.65-21.94a21.31,21.31,0,0,0-7.07-13.44,53.1,53.1,0,0,0-7.55-6.33c-7.91-4.91-16-4.81-24,0-2.8,1.7-5.45,3.66-8.59,5.8-2.57-4.07-5.32-7.87-7.5-12-3.43-6.46-8.61-10-15.73-11.41-6.91-1.35-13.72-3.23-20.57-4.91a4.28,4.28,0,0,1-2.5-1.61l19-4c3.37-.72,6.79-1.29,10.07-2.31q25.56-8,36-32.74c1.21-2.89,2.29-5.83,3.47-8.73.1-.25.44-.4,1.06-.94,1,3.89,2,7.57,2.91,11.26,1.4,5.62,2.67,11.28,4.15,16.88,5.39,20.44,23.32,33.57,44.4,32.52,2.47-.12,4.91-.68,7.58-1.06,2-10.36,4-20.43,6.12-31.56,3.54,5.12,6.46,9.32,9,13l11.79-2.08c1.19-4.25,2.57-9.19,4.24-15.21L856,253.19A21.42,21.42,0,0,0,868.76,250c-2-6.23-4.12-12.44-5.89-18.75A197.15,197.15,0,0,1,963.93,2.2c2.2-1.11,4.28-2.46,6.42-3.7h164.71a46.47,46.47,0,0,0,4.24,2.67A196.55,196.55,0,0,1,1200,47.44Zm-90.56,293.64.88-.27c.06-.74.16-1.48.18-2.22.06-2.2.23-4.4.1-6.59-.64-11.14,3.88-19.92,11.63-27.65,9.9-9.86,23-12.16,35.28-5.57,1.46.79,3,1.54,4.64,2.43,2.13-4.15,4.11-7.87,6-11.65a22.54,22.54,0,0,1,13.8-12c2.63-.85,5.22-1.79,7.83-2.7-5.39-1.68-10.86-2.19-16-3.76a72.75,72.75,0,0,1-15.49-6.61,67.76,67.76,0,0,1-12.93-10.07c-3.92-3.84-7.08-8.45-10.93-13.16-.82,5.25-1.58,9.87-2.25,14.5-4.16,28.53-27.85,47-56.36,43.94-4-.43-4-.42-5.09-4.18-.67-2.25-1.29-4.52-1.94-6.78-1.27-4.45-2.56-8.9-4.14-14.38l-6,9.77c-5.12-4.82-10.58-3.88-16.09-1.71l-4-10.35c-4,8.35-7.51,15.82-11,23.09a13.12,13.12,0,0,1-1.77.32c-23.82.6-45.68-16.82-49.78-40.3-1.2-6.87-.76-14-1-21.07-.07-1.8,0-3.6,0-5.4-16.44,17.75-36.4,24.93-60,23.11a18.36,18.36,0,0,0,4.71,3.14,25.13,25.13,0,0,1,15.07,18c.79,3.29,2.08,6.45,3.22,9.9,2.53-.84,4.57-1.61,6.65-2.2a28,28,0,0,1,22.67,2.73c11.67,6.89,18.85,22.38,16.82,35.89-.55,3.68-1,7.37-1.52,11.07.64,0,1,.12,1.23,0,2.14-1.83,4.23-3.73,6.38-5.55,13.21-11.23,31.6-8.66,41.47,5.61,4.29,6.2,7.18,13.2,10.29,20,.82,1.8,1.69,3.59,2.84,6,2.58-3.87,4.61-7.18,6.9-10.3a145.26,145.26,0,0,1,10-13c12-13.05,31.12-12.34,42.38,1.37C1106,400.71,1107.69,402.9,1109.44,405.08ZM898,287.49l.74-.68c-.83-3.64-1.63-7.3-2.49-10.94a27.48,27.48,0,0,1,2.09-19.21c.77-1.54,1.59-3.06,2.41-4.58,6.76-12.44,18.35-17.6,32-14.26,1.31.32,2.63.55,4.16.87.79-3.32,1.71-6.16,2.13-9.08a23.89,23.89,0,0,1,12.87-18.56,36.68,36.68,0,0,0,3.77-2.67c-22.08,3.35-41.06-2-57.1-17.25-.35.59-.64.85-.62,1.07.39,4.69.75,9.38,1.23,14.05,2.46,23.64-13.55,45.9-36.74,50.92-2.84.61-5.77.82-8.55,1.2-4.33-6.84-7.69-13.61-12.32-20.53-1.1,3.6-1.91,6.26-3,9.69-5.59-2.59-10.65-1.3-14.93,2.31-2.88-2.09-3.38-5.68-6.51-7.27-1.53,7.82-3,15.32-4.45,22.68a43.92,43.92,0,0,1-24.52,1c-18.25-4.65-30.08-16.07-35.34-34.17-1.46-5-2.62-10.12-4.13-16-.72,1.07-1,1.44-1.22,1.84-9.63,18.55-24.89,29.36-45.37,33a11.88,11.88,0,0,0-2.4,1.18c6.37,1.89,13,2.13,17.25,7,4.1,4.67,7.4,10,11.26,15.35,1.37-.91,2.77-1.87,4.2-2.79,5.33-3.42,11.12-4.54,17.46-4.36,11.24.33,28.3,15.29,28.6,28.5.08,3.79.94,7.56,1.44,11.34a25.61,25.61,0,0,0,5.08-6c9.52-13.77,27.36-16.15,39.65-4.84,5.27,4.84,9.65,10.66,14.41,16.05,1.1,1.25,2.13,2.55,3.59,4.31,1-2.94,1.72-5.15,2.59-7.29,2.42-5.94,4.46-12.09,7.45-17.72,8-15,25.56-18.68,39.32-8.61C894.05,284.48,896,286,898,287.49Zm189.17-107-.82.48-1.17,9.26a29.27,29.27,0,0,1-29.1,25.54c-4.46,0-4.59-.14-6-4.28-1.08-3.21-2.17-6.41-3.46-10.21-1.46,2.14-2.47,3.62-3,4.38l-10-.39c-.59-1.13-1.36-2.61-2.49-4.76-2.16,5-4,9.31-5.85,13.42-11.77.82-21.79-4.29-27.46-13.77a28.3,28.3,0,0,1-4.13-14.27c0-3-.31-6.06-.55-10.29-9.17,11.44-20.4,15.87-33.81,16,4.17,2.68,8.55,4.6,10.43,9.4H974l.5.7L970.62,204l2.22,5a53.54,53.54,0,0,1,5.68-1.67,18.28,18.28,0,0,1,5.57-.31c8.74,1.23,16.36,10.14,16.37,19.15,0,3.17-.36,6.34-.6,10.33,2.12-2,3.55-3.36,5.08-4.64a15.78,15.78,0,0,1,22.26,1.42c.26.29.5.6.74.91a59.58,59.58,0,0,1,4.72,7.55c1.38,2.43,2.57,5,4.12,8,1.22-2,2.22-3.57,3.22-5.09a95.69,95.69,0,0,1,5.58-8.12c7.51-9,18-9,25.91-.24.84.94,1.8,1.78,2.71,2.66l.91-.29c-1.36-8.53.18-16,6.69-22,6.86-6.33,14.26-6.11,22.06-1.87,2-3.57,3.19-7.34,5.65-10s6.25-4.33,9.87-6.7c-13.61-.73-24.56-6.15-32.22-17.57Z"/><path class="cls-1" d="M1200,47.44a196.55,196.55,0,0,0-60.7-46.27,46.47,46.47,0,0,1-4.24-2.67H1200Z"/><path class="cls-1" d="M1200,334.5l-22.66-2.63c8-8,15.31-15.39,22.66-22.78Z"/><path d="M920.85,444.32c-1.38.65-2.74,1.36-4.14,2-11.22,4.85-22.39,9.81-33.69,14.47a23.1,23.1,0,0,0-13.67,14c-2.16,5.87-4.73,11.6-7.14,17.39-.47,1.12-1.06,2.2-1.74,3.62l-11.22-5.18c-14-6.47-26.86-3.37-36.38,8.8-1.35,1.73-2.71,3.45-4,5.22a28.78,28.78,0,0,0-5.56,19.46c.7,11.88,1.26,23.77,1.91,36.45a27.19,27.19,0,0,1-2.8-2.21c-6.55-7-12.93-14.11-19.63-20.93-10.87-11.07-28.5-11.14-38.69-.06a82.92,82.92,0,0,0-9.45,12.84c-3.85,6.27-7.18,12.86-10.74,19.31-.75,1.36-1.55,2.68-2,3.49H713.2a23,23,0,0,1-1.52-2.27c-3.2-5.75-6.19-11.63-9.58-17.27a127.92,127.92,0,0,0-9.43-14c-10.35-13-28.8-13.93-40.54-2-6.27,6.36-12.24,13-18.36,19.54-1,1.1-2.14,2.12-3.77,3.73,0-3.06-.1-5.33,0-7.59.48-9.55.94-19.11,1.59-28.65a29.57,29.57,0,0,0-7-21.79c-1.11-1.32-2.11-2.73-3.19-4.08-8.86-11.11-22-14.25-35-8.36-3.85,1.75-7.65,3.58-11.83,5.55-.64-1.19-1.29-2.19-1.74-3.27-2.6-6.22-5.25-12.42-7.7-18.69a21.78,21.78,0,0,0-12.5-12.64c-11.41-4.8-22.75-9.78-34.11-14.69a12.64,12.64,0,0,1-4.52-2.93c1.78-.15,3.56-.38,5.34-.44,11.12-.43,22.25-.81,33.38-1.21q40.24-1.47,61.38-35.74c2.47-4,4.79-8.1,7.22-12.12.52-.86,1.21-1.61,2.36-3.12.43,4.88.81,8.88,1.13,12.87,1,12,1.28,24.16,3,36.07,3.66,25,25.49,45.77,54.45,45.94a22.68,22.68,0,0,0,2.61-.32c5.08-13.6,10.18-27.21,15.69-41.92l10.23,21.91,4.71-1.19,1.92,2.46c.64-.81,1.24-1.57,1.92-2.45l4.73,1.17c3.28-7,6.49-13.9,10.09-21.63.92,2.14,1.49,3.34,2,4.59q6.25,16.73,12.49,33.46c1.52,4.06,1.55,4,5.71,3.92a54.93,54.93,0,0,0,53.37-50.43c1.1-12.18,1.84-24.39,2.76-36.58.18-2.33.45-4.65.77-7.88,1.19,1.6,1.94,2.46,2.52,3.43,2.67,4.42,5.17,9,8,13.31q20.85,32.42,59.39,34.2c11.28.52,22.57.81,33.85,1.22,1.94.07,3.87.28,5.8.42ZM794.09,536.21l.84-.38c-.2-4.53-.46-9.06-.59-13.59A36.23,36.23,0,0,1,801.86,499c1.59-2.14,3.23-4.25,4.9-6.32,11.13-13.85,28.53-18.07,44.84-10.9,1.37.6,2.76,1.19,4.39,1.89,2.07-5,4-9.42,5.78-13.91a29.27,29.27,0,0,1,16-16.41c1.15-.51,2.24-1.14,4.22-2.15-5.9-.79-10.75-1.12-15.45-2.15a88.8,88.8,0,0,1-13.89-4.27,78.59,78.59,0,0,1-12.53-6.39,91.83,91.83,0,0,1-11.63-8.78C825,426.5,821.83,422.9,818,419c-.42,5.38-.82,9.89-1.1,14.41a66.55,66.55,0,0,1-5.68,23.63,63.84,63.84,0,0,1-67.62,36.79l-10.16-26.91c-1.85,3.79-3.33,6.79-5,10.09-2.82-1.09-5.33-1.91-7.72-3a7.58,7.58,0,0,0-6.73,0c-2.5,1.12-5.15,1.92-7.79,2.88l-4.78-9.77c-.89,2.12-1.53,3.52-2.07,5-2.36,6.31-4.74,12.61-7,19a4.45,4.45,0,0,1-4.32,3.43,63.74,63.74,0,0,1-68-48.07c-1.72-6.93-1.87-14.25-2.71-21.39-.21-1.79-.32-3.59-.47-5.39-8.52,9.33-17.68,17-28.59,22.57s-22.41,8-34.45,9.23a9.5,9.5,0,0,0,2.94,1.81,29.39,29.39,0,0,1,16.51,17.09c1.3,3.36,2.72,6.67,4.14,10,.47,1.09,1.12,2.11,1.74,3.28,1.9-.84,3.47-1.54,5-2.21a36.88,36.88,0,0,1,43.06,10.32c1.71,2,3.29,4.19,4.94,6.29a38,38,0,0,1,8.18,27.52c-.28,3.35,0,6.75,0,10.93,1.86-2,3.31-3.49,4.79-5,15.86-16.37,40.59-15.08,54.89,2.62,5.77,7.14,10,15.15,14.4,23.1.88,1.59,1.82,3.14,3,5.18,2.33-4.18,4.16-7.82,6.31-11.26,3.56-5.71,7-11.56,11.06-16.86,13.93-18,38.88-19.17,54.77-2.83C791.13,533.06,792.6,534.61,794.09,536.21Z"/><path d="M357.16,572.61l-5-2.7,3.45-8c39.58,17,78.69,34.39,118.3,51.51l-3.6,8.25-30.45-13.19-1,1.23a16.24,16.24,0,0,1,3.07,1.91c4.61,4.49,9.26,8.94,13.64,13.63,7.2,7.71,9.35,17,6.85,27.06A44.77,44.77,0,0,1,457,665.69c-13.15,20.29-31.48,33.58-55.44,37.85-34,6.05-67.68-16.33-74.79-50-5.49-26,1.37-49.43,18-69.92C348.06,579.42,352.82,576.36,357.16,572.61Zm76.7,43.82-.81.54c5.1,10.18,6.87,20.82,4.48,31.95A45.16,45.16,0,0,1,420,676.44a44.66,44.66,0,0,1-53.11,0,47.17,47.17,0,0,1-16.56-53.29c7.14-20.57,24.52-31.23,49.64-30.34-.35-.42-.56-.91-.93-1.09-7.89-3.83-15.69-7.88-23.76-11.29-2.54-1.08-5.86-1-8.7-.53-6.72,1-11.79,5.15-15.79,10.3-13.77,17.71-19.73,37.79-15.6,60,5.66,30.46,37,50.73,67.23,44.12,14.86-3.25,27.19-11.05,37.83-21.66,5.71-5.7,10.34-12.19,12.89-20,2.35-7.19,1.94-14.15-3.14-19.94s-10.73-10.88-16.14-16.31ZM406.55,640.1a13.22,13.22,0,0,0-12.95-13.49h-.31a13.29,13.29,0,0,0-.22,26.57h.29a13.24,13.24,0,0,0,13.19-13.1Z"/><path d="M65,696.27l-8.14,11-7.26-5.16,86.72-122.26,7.3,5.3-18.41,26a8,8,0,0,0,2.08,0c8-3,15.75-1.64,23.32,1.55A60.77,60.77,0,0,1,169.81,626c12.48,12.4,21.72,26.73,25.36,44.21,7.32,35.19-16.93,71-52.39,77.45-34.5,6.27-66.53-13.47-76.48-47.16Zm123-13.46c-1-5.38-1.36-10.93-3-16.09a80.37,80.37,0,0,0-28.31-40.06,39.49,39.49,0,0,0-14.57-7.38c-7.09-1.76-13.45-.49-18.48,5.07-15.36,17-30.28,34.33-42.93,53.48a114.47,114.47,0,0,0-5.91,10.68,9.17,9.17,0,0,0-.59,6.35c6,28.61,33.61,48.23,62.88,44.57a58.16,58.16,0,0,0,50.84-56.62Z"/><path d="M336.73,693.42l3.38-2.6c1.18,1.27,2.22,2.39,3.25,3.52,10.17,11,22.24,18.75,37.18,21.4,16.33,2.91,31.46-.83,45.61-8.9,13-7.44,22.58-18.23,29.19-31.66.68-1.38,1.34-2.77,2.13-4.41l3.76,1.35c-.41,1.25-.68,2.29-1.1,3.27-11.66,27.24-40.84,46.4-70.43,45.7C367.76,720.61,350.67,710.26,336.73,693.42Z"/><path d="M196.37,715.48l3.68.74a6,6,0,0,1,0,1.58c-11,30.08-37.46,50.3-74.22,46.25-18.11-2-33.51-9.69-46.45-22.44-.78-.77-1.52-1.57-2.24-2.39a15.18,15.18,0,0,1-1-1.51l3.45-2.94a53,53,0,0,0,3.83,4.51c18.58,17.56,40.68,24.26,65.73,19.33,21.45-4.23,35.68-17.86,44.74-37.31C194.74,719.46,195.48,717.61,196.37,715.48Z"/><path class="cls-1" d="M870.1,1543.53H827.39c-4.6-22.52-9.21-45-14-68.36l-73.61,47.1c-.19-8.27-.07-15.69-.09-23.1v-46.72L682,1501.69c-3-17.62-5.79-34.33-8.61-51l-.94-.21c-.84,1.42-1.68,2.82-2.5,4.25-16.29,28.25-32.64,56.47-48.79,84.79-1.88,3.3-4,4.42-7.73,4.41q-146.11-.15-292.24-.08h-5.43c-.1-2-.25-3.47-.25-5V1249.91a31.94,31.94,0,0,1,1-7.41q9.74-40.47,19.87-80.82a8.43,8.43,0,0,0-2-8.47c-5.58-6.59-10.82-13.45-16.34-20.07a10.47,10.47,0,0,1-2.66-7.21q.12-95.52.06-191.06v-4.18c3.5-1,6.86-2.21,10.31-3a11.2,11.2,0,0,0,6.55-4.08c12.38-15.19,24.89-30.28,37.63-45.75-2.78-6.66-5.59-13.39-8.67-20.75l64,7.18c.94-17,1.87-33.69,2.83-50.9l60.66,2.81c.16-.32.32-.63.47-1L413.39,751c1.74-1.24,3.08-2.27,4.48-3.2A318.67,318.67,0,0,1,614,696.19c65.14,4.55,123.85,26.47,175.15,67,40.72,32.23,66.76,73.88,77.27,124.94a184.75,184.75,0,0,1,3.77,37.38q.06,264.95,0,529.88c0,27.61-.1,55.21-.16,82.82ZM385.84,1068.06l-2.45,12.55c25.8-1.24,51.07-1.15,76.7,0-.93-4.63-1.75-8.69-2.52-12.55l-19.79-2.32v-45a37.6,37.6,0,0,0,5.07-.55c4.49-1.12,7.42.59,10.48,4a667.18,667.18,0,0,0,47,48.14c4.38,4,9.17,7.59,13.9,11.19,1.31,1,3.17,2.06,4.66,1.92,5.72-.54,11.39-1.55,17.91-2.51-22.49-22.5-39.45-48-56.35-73.9,2.58-2,4.85-3.63,7-5.41,7.1-5.88,13.06-12.7,16.5-21.38,4.6-11.62,1.1-23.38-9.39-30.07a51.06,51.06,0,0,0-13.28-5.76c-10.16-2.93-20.72-3.45-31.22-3.63-17.56-.29-35.13-.13-52.7-.16H383.77c.47,3.55,1,6.45,1.19,9.38.19,2.58,1.44,3.59,3.91,3.56a43.24,43.24,0,0,1,4.69.28c4,.41,8,.87,12.58,1.37.61,36.38.78,72.37-.23,108.63Zm378.43-41.81c2.8-.34,5.1-.51,7.35-.92,12.79-2.3,24.87-6.5,35.56-14,9.8-6.92,16.82-15.87,19.61-27.79,3.31-14.19-1.41-25.4-14.11-32.64a51.58,51.58,0,0,0-10.78-4.55,104,104,0,0,0-28.34-3.86c-17.24-.22-34.49-.19-51.73-.26H709.74c.71,4.54,1.31,8.34,1.93,12.3l20.38,2.23c.91,36.56.64,72.55,0,108.83l-20,2.56c-.84,4.18-1.62,8.12-2.41,12.11H791c-1.1-4.32-2.12-8.33-3.11-12.24l-23.68-2.45c-.13-2.18-.31-4-.34-5.87-.19-11.44-.48-22.89-.48-34.33,0-20.54.13-41.09.26-61.63,0-2.28.38-4.55.61-7.14,6.6.49,12.66,1,18.34,3.5,6.57,2.91,11.07,7.84,12.52,14.9,2.52,12.2-1.25,25.86-14.94,33-3.57,1.86-7.56,2.93-11.4,4.25-1.36.47-2.78.67-3,2.46-.48,3.67-1,7.34-1.51,11.59ZM631.69,956.93l19.14-2.6c1.06-4.17,2.08-8.23,3.19-12.61a778.9,778.9,0,0,1-78.07,0l3.21,12.58,19,2.43c1.92,9.78,1.73,102-.21,109l-19.24,2.33-2.37,12.29c13.48-.21,26.3-.57,39.12-.56s25.45.38,38.5.59L650.7,1068l-19.2-2.33C630,1056.94,630.18,962.3,631.69,956.93Z"/><path class="cls-1" d="M306.12,1249.24l-76.4,13.13q-28.51-167.67-57-335.33l167.42-28.43a14.12,14.12,0,0,1-1.11,2.48c-4.36,5.35-8.67,10.74-13.2,15.94a9.61,9.61,0,0,1-4.33,2.45c-4.77,1.49-9.61,2.73-14.6,4.12-.09,1.6-.22,3-.22,4.36q0,100.68-.06,201.38a10.38,10.38,0,0,0,2.54,7.24c5.15,6.11,9.92,12.56,15.19,18.56,2.58,2.93,3.08,5.58,2.15,9.3-6.43,25.52-12.65,51.1-18.9,76.66C307,1243.61,306.65,1246.26,306.12,1249.24Z"/><path class="cls-1" d="M236.58,1352.79l30-5.11c.52,2.35,1,4.26,1.36,6.2q8.22,48.39,16.41,96.79c1,6.17,1.85,12.4,3.23,18.5,1,4.41.2,7.94-3.34,11.31-.85-1.33-1.73-2.56-2.47-3.87q-15.74-27.54-31.46-55.09a33.15,33.15,0,0,1-4.2-11.33c-3-18.4-6.16-36.75-9.28-55.12A19.72,19.72,0,0,1,236.58,1352.79Z"/><path class="cls-1" d="M225.46,1483.39c-4.05-1.45-4.57-4.86-5.14-8.31q-3.52-21.11-7.12-42.19-6-35.69-12.08-71.37c-.12-.75-.16-1.51-.28-2.66l31-5.3c.82,4.47,1.61,8.56,2.32,12.67,2.8,16.37,5.62,32.74,8.31,49.13a17,17,0,0,1-.08,7c-5.23,19.52-10.63,39-16,58.48A20.9,20.9,0,0,1,225.46,1483.39Z"/><path class="cls-1" d="M291.64,1467.24l-20.47-120.32L294,1343c.83,4.53,1.63,8.62,2.32,12.73,3.3,19.47,6.72,38.92,9.74,58.43.84,5.37.13,11,.71,16.4a33.86,33.86,0,0,1-7.08,25.43c-2.72,3.54-4.72,7.62-7,11.46Z"/><path class="cls-1" d="M172.36,1363.69l23.89-4c6.5,38.22,12.93,76.06,19.55,115-1.83-1.53-2.8-2.26-3.67-3.09-7.65-7.18-15.32-14.35-22.87-21.63a9.36,9.36,0,0,1-2.89-4.55C181.65,1418.41,177.09,1391.42,172.36,1363.69Z"/><path class="cls-1" d="M282.12,1271.41l15.18-2.5c1,5.74,2,11.06,3,16.83-4.76,1.73-9.73,1.87-15,3C283.66,1283.13,283,1277.51,282.12,1271.41Z"/><path class="cls-1" d="M462.71,806,451,805.25c-.68-3.93-1.29-7.51-1.9-11.08l.81-.5L463.16,805Z"/><path class="cls-1" d="M1109.44,405.08c-1.75-2.18-3.49-4.37-5.27-6.53-11.26-13.71-30.37-14.42-42.38-1.37a145.26,145.26,0,0,0-10,13c-2.29,3.12-4.32,6.43-6.9,10.3-1.15-2.44-2-4.23-2.84-6-3.11-6.85-6-13.78-10.29-20-9.87-14.27-28.26-16.84-41.47-5.61-2.15,1.74-4.24,3.63-6.38,5.46-.18.14-.59,0-1.23,0,.51-3.7,1-7.39,1.52-11.07,2-13.51-5.2-29-16.83-35.82a28,28,0,0,0-22.67-2.73c-2.08.59-4.12,1.36-6.65,2.2-1.14-3.45-2.43-6.61-3.22-9.9a25.13,25.13,0,0,0-15.07-18,18,18,0,0,1-4.71-3.17c23.65,1.82,43.61-5.36,60-23.11,0,1.8-.06,3.6,0,5.4.28,7-.16,14.2,1,21.07,4.1,23.48,26,40.9,49.78,40.3a13.12,13.12,0,0,0,1.77-.32c3.45-7.27,7-14.74,11-23.09l4,10.35c5.51-2.17,11-3.11,16.09,1.71l6-9.77c1.58,5.48,2.87,9.93,4.14,14.38.65,2.26,1.27,4.53,1.94,6.78,1.11,3.76,1.13,3.75,5.09,4.18,28.51,3.07,52.2-15.41,56.36-43.94.67-4.63,1.43-9.25,2.25-14.5,3.85,4.71,7,9.32,10.93,13.16a67.76,67.76,0,0,0,12.93,10.07,72.75,72.75,0,0,0,15.49,6.61c5.14,1.57,10.61,2.08,16,3.76-2.61.91-5.2,1.85-7.83,2.7a22.54,22.54,0,0,0-13.8,12c-1.87,3.78-3.85,7.5-6,11.65-1.69-.89-3.18-1.64-4.64-2.43-12.25-6.59-25.38-4.29-35.28,5.57-7.75,7.73-12.27,16.51-11.63,27.65a63,63,0,0,1-.1,6.59c0,.74-.12,1.48-.18,2.22Z"/><path class="cls-1" d="M898,287.49c-2-1.49-3.94-3-5.94-4.47-13.76-10.07-31.34-6.38-39.32,8.61-3,5.63-5,11.78-7.45,17.72-.87,2.14-1.55,4.35-2.59,7.29-1.46-1.76-2.49-3.06-3.59-4.31-4.76-5.39-9.14-11.21-14.41-16.05-12.29-11.31-30.13-8.93-39.65,4.84a25.61,25.61,0,0,1-5.08,6c-.5-3.78-1.36-7.55-1.44-11.34-.3-13.21-17.36-28.17-28.6-28.5-6.34-.18-12.13.94-17.46,4.36-1.43.92-2.83,1.88-4.2,2.79-3.86-5.33-7.16-10.68-11.26-15.35-4.25-4.85-10.88-5.09-17.25-7a11.88,11.88,0,0,1,2.4-1.18c20.48-3.64,35.74-14.45,45.37-33,.21-.4.5-.77,1.22-1.84,1.51,5.89,2.67,11,4.13,16,5.26,18.1,17.09,29.52,35.34,34.17a43.92,43.92,0,0,0,24.52-1c1.45-7.36,2.92-14.86,4.45-22.68,3.13,1.59,3.63,5.18,6.51,7.27,4.28-3.61,9.34-4.9,14.93-2.31,1-3.43,1.85-6.09,3-9.69,4.63,6.92,8,13.69,12.32,20.53,2.78-.38,5.71-.59,8.55-1.2,23.19-5,39.2-27.28,36.74-50.92-.48-4.67-.84-9.36-1.23-14,0-.22.27-.48.62-1.07,16,15.22,35,20.6,57.1,17.25a36.68,36.68,0,0,1-3.77,2.67A23.87,23.87,0,0,0,939,229.61c-.42,2.92-1.34,5.76-2.13,9.08-1.53-.32-2.85-.55-4.16-.87-13.65-3.34-25.24,1.82-32,14.26-.82,1.52-1.64,3-2.41,4.58a27.48,27.48,0,0,0-2.09,19.21c.86,3.64,1.66,7.3,2.49,10.94Z"/><path class="cls-1" d="M1087.16,180.48c7.66,11.42,18.61,16.84,32.23,17.53-3.62,2.37-7.34,4-9.87,6.7s-3.7,6.41-5.65,10c-7.8-4.24-15.2-4.46-22.06,1.87-6.51,6-8,13.52-6.69,22l-.91.29c-.91-.88-1.87-1.72-2.71-2.66-7.9-8.76-18.4-8.73-25.91.24a96.44,96.44,0,0,0-5.59,8.16c-1,1.53-2,3.11-3.24,5.12-1.55-3-2.74-5.6-4.12-8a59.58,59.58,0,0,0-4.72-7.55,15.77,15.77,0,0,0-22.09-3c-.29.21-.56.44-.83.67-1.53,1.28-3,2.69-5.08,4.64.24-4,.61-7.16.6-10.33,0-9-7.63-17.92-16.37-19.15a18.28,18.28,0,0,0-5.57.31A53.54,53.54,0,0,0,972.9,209l-2.22-5,3.88-2.26-.5-.7h-4.27c-1.88-4.8-6.26-6.72-10.43-9.4,13.41-.11,24.64-4.54,33.81-16,.24,4.23.5,7.26.55,10.29a28.3,28.3,0,0,0,4.13,14.27c5.67,9.48,15.69,14.59,27.46,13.77,1.8-4.11,3.69-8.46,5.85-13.42,1.13,2.15,1.9,3.63,2.49,4.76l10,.39c.51-.76,1.52-2.24,3-4.38,1.29,3.8,2.38,7,3.46,10.21,1.39,4.14,1.52,4.23,6,4.28a29.27,29.27,0,0,0,29.1-25.54l1.17-9.26Z"/><path class="cls-1" d="M794.09,536.21l-4.46-4.69c-15.89-16.34-40.84-15.16-54.77,2.83-4.1,5.3-7.5,11.15-11.06,16.86-2.15,3.44-4,7.08-6.31,11.26-1.18-2-2.12-3.59-3-5.18-4.41-7.95-8.63-16-14.4-23.1-14.3-17.7-39-19-54.89-2.62-1.48,1.52-2.93,3.06-4.79,5,0-4.18-.24-7.58,0-10.93A38,38,0,0,0,632.22,498c-1.65-2.1-3.23-4.25-4.94-6.29a36.88,36.88,0,0,0-43.06-10.32c-1.58.67-3.15,1.37-5.05,2.21-.62-1.17-1.27-2.19-1.74-3.28-1.42-3.31-2.84-6.62-4.14-10a29.39,29.39,0,0,0-16.51-17.09,9.5,9.5,0,0,1-2.94-1.81c12-1.27,23.64-3.73,34.45-9.23s20.07-13.24,28.59-22.57c.15,1.8.26,3.6.47,5.39.84,7.14,1,14.46,2.71,21.39a63.74,63.74,0,0,0,68,48.07,4.45,4.45,0,0,0,4.32-3.43c2.26-6.35,4.64-12.65,7-19,.54-1.44,1.18-2.84,2.07-5l4.78,9.77c2.64-1,5.29-1.76,7.79-2.88a7.58,7.58,0,0,1,6.73,0c2.39,1.1,4.9,1.92,7.72,3,1.62-3.3,3.1-6.3,4.95-10.09l10.16,26.91a63.84,63.84,0,0,0,67.62-36.79,66.55,66.55,0,0,0,5.68-23.63c.28-4.52.68-9,1.1-14.41,3.8,3.89,6.92,7.49,10.46,10.6A91.74,91.74,0,0,0,840,438.26a78.59,78.59,0,0,0,12.53,6.39,88.8,88.8,0,0,0,13.89,4.27c4.7,1,9.55,1.36,15.45,2.15-2,1-3.07,1.64-4.22,2.15a29.27,29.27,0,0,0-16,16.41c-1.8,4.49-3.71,8.94-5.78,13.91l-4.39-1.89c-16.31-7.17-33.71-2.95-44.84,10.9-1.67,2.07-3.31,4.18-4.9,6.32a36.23,36.23,0,0,0-7.52,23.24c.13,4.53.39,9.06.59,13.59Z"/><path class="cls-1" d="M433.86,616.41c5.41,5.43,11.1,10.6,16.14,16.35s5.49,12.75,3.14,19.94c-2.55,7.78-7.18,14.27-12.89,20-10.64,10.61-23,18.41-37.83,21.66-30.21,6.61-61.57-13.66-67.23-44.12-4.13-22.18,1.83-42.26,15.6-60,4-5.15,9.07-9.28,15.79-10.3,2.84-.43,6.16-.55,8.7.53,8.07,3.41,15.87,7.46,23.76,11.29.37.18.58.67.93,1.09-25.12-.89-42.5,9.77-49.64,30.34a47.17,47.17,0,0,0,16.56,53.29,44.66,44.66,0,0,0,53.11,0,45.2,45.2,0,0,0,17.53-27.54c2.39-11.13.62-21.77-4.48-32Z"/><path class="cls-1" d="M406.55,640.08A13.23,13.23,0,0,1,380.1,640v-.29a13.23,13.23,0,0,1,26.45.11Zm-8.92-.19a4.35,4.35,0,0,0-4.08-4.26,4.4,4.4,0,0,0-4.59,4.2v0a4.34,4.34,0,0,0,8.67,0Z"/><path class="cls-1" d="M187.93,682.81A58.16,58.16,0,0,1,137,739.43c-29.27,3.66-56.88-16-62.88-44.57a9.17,9.17,0,0,1,.59-6.35,114.47,114.47,0,0,1,5.91-10.68c12.65-19.15,27.57-36.5,42.93-53.48,5-5.56,11.39-6.83,18.48-5.07a39.49,39.49,0,0,1,14.57,7.38,80.37,80.37,0,0,1,28.31,40.06C186.57,671.88,187,677.43,187.93,682.81Zm-44.59-.34a13,13,0,0,0-12.93-13.07l-.74,0a13.26,13.26,0,0,0,.56,26.52h.29a13.11,13.11,0,0,0,12.82-13.39v-.07Z"/><path d="M385.84,1068.06l20.06-2.27c1-36.26.84-72.25.23-108.63-4.57-.5-8.57-1-12.58-1.37a43.24,43.24,0,0,0-4.69-.28c-2.47,0-3.72-1-3.91-3.56-.21-2.93-.72-5.83-1.19-9.38h13.59c17.57,0,35.14-.13,52.7.16,10.5.18,21.06.7,31.22,3.63a51.06,51.06,0,0,1,13.28,5.76c10.49,6.69,14,18.45,9.39,30.07-3.44,8.68-9.4,15.5-16.5,21.38-2.16,1.78-4.43,3.43-7,5.41,16.9,25.86,33.86,51.4,56.35,73.9-6.52,1-12.19,2-17.91,2.51-1.49.14-3.35-.92-4.66-1.92-4.73-3.6-9.52-7.18-13.9-11.19a667.18,667.18,0,0,1-47-48.14c-3.06-3.42-6-5.13-10.48-4a37.6,37.6,0,0,1-5.07.55v45l19.79,2.32c.77,3.86,1.59,7.92,2.52,12.55-25.63-1.11-50.9-1.2-76.7,0Zm29.35-116.2v118.49h13.46V951.86Zm22.55,53.56a44.35,44.35,0,0,0,19.38-3.64c5.71-2.6,10.59-6.29,13.44-12,5.66-11.23,3.51-21.25-8-27.5a43.43,43.43,0,0,0-15.64-4.79c-2.87-.35-5.76-1.36-9.16-.32Zm17.24,7.3c18.47,20.23,36.86,40.14,57.54,57.84a699.09,699.09,0,0,1-44.23-64.34Zm19-11.28c9.24-5.23,16.81-12,21.15-21.82,3.69-8.33,1.3-15.86-6.46-20.63-7-4.29-14.8-5.32-22.9-5.82,8.26,5.19,15.12,11.38,16.41,21.6C483.51,984.82,480.13,993.52,474,1001.44Z"/><path d="M764.27,1026.25c.55-4.25,1-7.92,1.5-11.6.22-1.79,1.64-2,3-2.46,3.84-1.32,7.83-2.39,11.4-4.25,13.69-7.13,17.46-20.79,14.94-33-1.45-7.06-6-12-12.52-14.9-5.68-2.51-11.74-3-18.34-3.5-.23,2.59-.6,4.86-.61,7.14-.13,20.54-.28,41.09-.26,61.63,0,11.44.29,22.89.48,34.33,0,1.85.21,3.69.34,5.87l23.68,2.45c1,3.91,2,7.92,3.11,12.24H709.56c.79-4,1.57-7.93,2.41-12.11l20.09-2.56c.63-36.28.9-72.27,0-108.83l-20.38-2.23c-.62-4-1.22-7.76-1.93-12.3h12.09c17.24.07,34.49,0,51.73.26a104,104,0,0,1,28.34,3.86,51.58,51.58,0,0,1,10.78,4.55c12.7,7.24,17.42,18.45,14.11,32.64-2.79,11.92-9.81,20.87-19.61,27.79-10.69,7.55-22.77,11.75-35.56,14C769.37,1025.74,767.07,1025.91,764.27,1026.25Zm-23.38-74.94c1.26,39.86.91,79.41.1,119.09h13.69V951.31Zm49.63,2.1c8.46,6.32,13.55,14.4,14.23,24.94a43.61,43.61,0,0,1-7.89,28.33C807.48,1001,815.42,993.12,818,981c2.22-10.38-.88-17.17-10-22.45a40.72,40.72,0,0,0-17.52-5.09Z"/><path d="M631.69,956.93c-1.51,5.37-1.68,100-.14,108.79l19.2,2.33,3.26,12.34c-13-.21-25.77-.59-38.5-.59s-25.64.35-39.12.56l2.37-12.29,19.24-2.33c1.94-7,2.13-99.2.21-109l-19-2.43L576,941.75c26.21,1.19,52,1.36,78.07,0-1.11,4.38-2.13,8.44-3.19,12.61Zm-9.86,113.5V951.75h-13.7v118.68Z"/><path d="M397.63,639.89a4.34,4.34,0,0,1-8.67,0,4.39,4.39,0,0,1,4.55-4.24h0A4.35,4.35,0,0,1,397.63,639.89Z"/><path d="M143.34,682.47a13.11,13.11,0,0,1-12.75,13.46h-.07a13.27,13.27,0,0,1-13.73-12.79,2.81,2.81,0,0,1,0-.29,13.22,13.22,0,0,1,12.89-13.43,13,13,0,0,1,13.65,12.31C143.34,682,143.34,682.22,143.34,682.47Zm-8.94.38a4.58,4.58,0,0,0-4-4.47,4.25,4.25,0,0,0-4.5,4c0,.1,0,.2,0,.3a4,4,0,0,0,3.86,4.14H130A4.25,4.25,0,0,0,134.4,682.85Z"/><path class="cls-1" d="M415.19,951.86h13.46v118.49H415.19Z"/><path class="cls-1" d="M437.74,1005.42V957.2c3.4-1,6.29,0,9.16.32a43.43,43.43,0,0,1,15.64,4.79c11.53,6.25,13.68,16.27,8,27.5-2.85,5.68-7.73,9.37-13.44,12A44.38,44.38,0,0,1,437.74,1005.42Z"/><path class="cls-1" d="M455,1012.72l13.31-6.5c13.39,22.37,28.41,43.6,44.23,64.34C491.84,1052.86,473.45,1033,455,1012.72Z"/><path class="cls-1" d="M474,1001.44c6.09-7.92,9.47-16.62,8.2-26.67-1.29-10.22-8.15-16.41-16.41-21.6,8.1.5,15.94,1.53,22.9,5.82,7.76,4.77,10.15,12.3,6.46,20.63C490.85,989.42,483.28,996.21,474,1001.44Z"/><path class="cls-1" d="M740.89,951.31h13.79V1070.4H741C741.8,1030.72,742.15,991.17,740.89,951.31Z"/><path class="cls-1" d="M790.52,953.41A41,41,0,0,1,808,958.5c9.14,5.28,12.24,12.07,10,22.45-2.62,12.17-10.56,20-21.18,25.73a43.61,43.61,0,0,0,7.89-28.33C804.07,967.81,799,959.73,790.52,953.41Z"/><path class="cls-1" d="M621.83,1070.43h-13.7V951.75h13.7Z"/><path class="cls-1" d="M134.4,682.85a4.24,4.24,0,0,1-4.37,4,4,4,0,0,1-4.09-3.91v-.23a4.25,4.25,0,0,1,4.21-4.29h.3A4.57,4.57,0,0,1,134.4,682.85Z"/></svg>