<svg xmlns="http://www.w3.org/2000/svg" viewBox="0 0 1200 1552.9">
  <defs/>
  <defs>
    <style>
      .cls-1{fill:#fff}
    </style>
  </defs>
  <g id="Layer_2" data-name="Layer 2">
    <g id="Layer_1-2" data-name="Layer 1">
      <path d="M280.3 1553H0V0h1200v1553H283l-4.5-3.3c-5.5-4.3-11.3-8.4-16.7-12.9-4-3.4-4.7-8-2.5-12.8l4.2-8.4c2.9-5.2 6-10.3 8.6-15.6a32.8 32.8 0 00-5.4-36.3l-2-2.6c17-2.5 28.2 10.2 32 25 2.5.3 3.5-1.7 4.5-3.4a36.9 36.9 0 001-37.2 22.2 22.2 0 00-13-11.5 50.3 50.3 0 01-6-2.5c-7.2-3.6-8.5-7.1-5.1-14.4a25.2 25.2 0 013.9-5.8c1.6-1.9 3.6-3.4 5.4-5.2l3.2-3.6-.7-.7-7.6 6.6a22.8 22.8 0 00-4 4.6 29 29 0 00-3 6.7c-1.7 5.4-.5 8.7 4.3 11.6a50.7 50.7 0 009 4.2 22.2 22.2 0 0112.5 11.3c3.9 7.8 4.6 15.8 3.1 24.3a23.7 23.7 0 01-5.3 11.9c-2.9-4.8-5.3-9.8-8.6-14.1-6.7-8.8-16.2-11.3-26.8-10.2-1.3.1-2.6 1-4.2 1.7a10 10 0 001.4 1.5 23.8 23.8 0 0111.3 16 33.8 33.8 0 01-3.7 25 331 331 0 00-10.2 19c-3.4 7.2-2.7 11.6 3.2 16.9 4.9 4.3 10.5 7.8 15.7 11.7l3.3 2.4zm-174.7-108.6l5 2.8c-2-1.7-2.8-3.5-5-2.8l-2.8-7.4c.2-3 .2-6 1-8.8a74.5 74.5 0 013.5-9.7 26 26 0 001.9-13.3 51.5 51.5 0 00-17.9-33.2c-5.4-4.6-12-4.9-18.6-3.7a8.3 8.3 0 00-1.5.7l2 2.1c1.8 2 4 3.6 5.3 5.8a39 39 0 016 24.7c-.3 3-.3 6.3-1 9.3-.9 4-1.7 8-3.6 11.6a84 84 0 01-19.2 24.7 78.5 78.5 0 00-6.8 6.5c-.6.6-.5 1.8-.8 2.7-.8.1-1.8 0-2.2.4a44.6 44.6 0 00-5.8 6.5c-4.9 7.4-4.7 14 .6 21.3 3.3 4.5 6.9 8.8 10.4 13.2 1-1.8.1-3.5-1-5s-2.4-2.8-3.6-4.2c-3.4-4-7.5-8-7.5-13.6a22 22 0 019-18.6l8.5-7.4c8.6-7 14.6-16.2 20-25.7a24.5 24.5 0 003-8.3 150.2 150.2 0 001.8-17.7c.3-9.3-3.5-17.4-8.7-24.8l-1.8-2.6c7.4-1.1 13 1.3 17.7 6.3a56.4 56.4 0 0110.7 16.4c4.1 9.8 5.3 19.6.3 29.5a29.9 29.9 0 00-2.5 7.5c-.5 2.4-1.6 5.1.7 7.4-1 3.1 2.4 4.7 2.9 7.4zM286.8 793l2.5 2.2a2.5 2.5 0 00-1.4-2 3.3 3.3 0 00-1.2 0c-2.5-3.9-6.2-6-10.3-7.7a33.8 33.8 0 011.5-5.3l7-14.5-1-.5-9.3 18-10.3-5.3-3.7-2.9-.6 1 4.4 1.7 3.8 3c1.7 1.3 3.6 2.4 5.8 3.8l-6 8.9c-2 2.9-4 3.7-7.4 3.8-9.4.2-18.8.8-28.1 1.4-2.4.1-4.7.6-7.7 1l10-16.1 4.2.9-3.3-2.7c1.9-3.7 4-7.2 5.4-11 2.2-5.6 5.8-8 11.9-8.6 15.6-1.6 31.2-2.8 46.7 1.2a89 89 0 009 1.4c-7-4.2-15-5.2-23.6-6.7l13.9-15.6c2.5 3.2 4.5 5.9 6.7 8.5s4.4 4.8 6.6 7.1l1.6 2.7.7-.5-2.4-2c-.9-1.5-1.6-3-2.6-4.4-3-4.1-6.3-8.1-9.6-12.5l13.8-13.4c6.8 3.4 10.3 9 12.6 15.5 2.5 7 3.1 14-1.6 20.5 3.9-1.9 5.3-5.1 5.5-9a32.4 32.4 0 00-7.3-22.2 19.6 19.6 0 00-9.2-6.7L299 739.2l-7.4-6.8a58.8 58.8 0 00-4.8-3.4l-2.4-2.4-.6.9 3 1.4c1 1 1.7 2.1 2.6 3.1l8.2 8.6-2.5 3.2c-3.4 4-7 7.7-10.1 11.8a6.3 6.3 0 01-5.6 2.5 170.8 170.8 0 00-17.8.7c-15 1.6-29.9 3.5-44.8 5.3l-6 .7 7-9.6c2.1-2.9 4-5.5 6.1-8.1l7-8.3c2.1-2.6 4.7-4.8 6.2-7.8a136.6 136.6 0 00-26 30.6 8.4 8.4 0 01-6.9 4c-6 .5-12 1.2-18.1 2a46.3 46.3 0 00-25.6 10.9 24 24 0 01-2.7 1.8 8.2 8.2 0 01-2.4-1 37.6 37.6 0 01-12.4-21.7 26.6 26.6 0 01.4-11.1c3 1.9 4.6.5 6.4-1.3a25 25 0 015-3.4 84.8 84.8 0 0133.3-10.2c11.5-1.2 23-3 34.5-4.5 5-.7 10-1.2 14.7-2.6s9.7-1.3 14.5-2.1c12.6-2.2 25.3-1.3 38-.5 7.2.5 14.4 1.8 21.6 2.7-6.8-4.4-14.8-4.3-23.2-5.8 7.4-7.3 15.4-12.3 23-17.7 1.9-1.3 3.3-.4 4.7.8a17.9 17.9 0 016.3 16.8l-1 6.2c7.3-10.3.5-25.7-11.4-26.9 1.2 1.6.4 2.2-1 3-7.5 3.9-14 9.2-20.2 15-4 3.7-5.7 3.8-10.8.8l-10.4-7.8c-2-1.4-.5-2.4.5-3.3 3.6-3.7 7.4-7.2 11-11a4.6 4.6 0 014.6-1.3l15.7 3a26.3 26.3 0 002.7.2c-19.5-8.2-40-8-61.4-7.5a133.2 133.2 0 0117.8-18c3.8 2.6 7.5 5 11 7.6s6.7 5.3 10 8l.7-1c-3.1-2.8-6.1-5.7-9.4-8.3s-7-5-10.6-7.7c3.2-3.6 6.9-6.1 8.9-10.3l-11.2 9-23.3-16.3-.7 1 22.1 16.7c-5.3 5.5-10.3 10.6-15.2 16-4.2 4.6-5.3 4.9-11.2 2.2l-3.4-3.7-17.3-15.2 7.2-8c2.4-2.6 5-5 7.5-7.5-7 3.3-11.7 9.2-16.7 14.5l-6.3-4.2-3.7-3.4-.7 1 4.5 2.3 5 5.8c-.9 1-1.8 2.3-2.7 3.5-3.2 4.3-6.7 8.3-9.5 12.8-2.3 3.9-5.3 5.2-9.5 5.5A157.6 157.6 0 00162 694a76.6 76.6 0 00-21.5 7.7 12.2 12.2 0 00-1.9 1.7 17.3 17.3 0 005.9-1.4c4.8-1.7 9.6-3.8 14.6-4.8 8.3-1.5 16.7-2.2 25-3.4a8.7 8.7 0 015.8 1.1l1.8 1a45.3 45.3 0 004 3l11 6.3a27.5 27.5 0 013 2.3c-2.8 2.5-5.3 4.6-7.6 7-2.9 2.8-5.5 5.8-8.3 8.7a2.2 2.2 0 00-2.2 2.6l2.1-2.7c2.3-1.8 4.7-3.4 6.9-5.4 3.6-3 7.1-6.4 10.5-9.4 8.1 4.4 18.4 11.9 20 14.5-2.3.5-4.6 1-6.9 1.3-13.3 1.9-26.6 3.7-40 5.4-1.4.2-3-.4-4.4-.6l-9.8-7.3-1.8-2.5 6.8-9c4.5-5.9 5-7 5.1-9.5l-14 17.6-4.2-1.8-4.2-2.8-4.3-2.5-.5 1.2 9 4 3 3.6-6.1 9.3c-2.3 3.4-4.5 6.8-7 10-2.3 3-3.8 3-6.7.5a16.8 16.8 0 01-5.8-11c-.6-5.9-.5-11.8-.6-17.7 0-1.3.2-2.5.4-4.7a24.8 24.8 0 00-3.3 14.8A27 27 0 00143 741c-1 2.8-2.2 5.1-2.6 7.5a33.2 33.2 0 0011.4 29.9 6.4 6.4 0 006 2l-2.8 4.2a26 26 0 003.3 32.6c.5.5 1.4.7 3 1.3l-3.3-5.1a26.8 26.8 0 01-3.7-22.5 15.6 15.6 0 014-7.2 44.9 44.9 0 0122.2-12.4c4.2-.8 8.3-1.5 12.5-2l42-4.4 8.7-1-9.3 17.2-7.7-2.3-10-4.8-.5 1.2 10.6 3.5 6.6 4.2c-2 3.2-4 6-5.4 9-3 6.4-7.7 10-15 9.8-2 0-4 .7-6 .8a5.4 5.4 0 01-3.2-.5c-5.7-3.7-11.3-7.6-17.2-11.7l9-17-1-.6-9.9 16.5-11.7-7.2-.5.7 11.5 8.1-6.6 9c-2.1 3-5.3 5-6.2 8.8a92.5 92.5 0 0014.6-16.8c5.6 3.7 11 7 16.8 11.4l-10 1.2c-7.6.9-15.2 2.6-21.8 6.6-5.5 3.3-10.8 7.3-11.6 14.4a48 48 0 001.4 19 26 26 0 006.5 11.3 42.4 42.4 0 003.4 2.8c4-2.3 7.8-4.8 11.9-6.7 12.5-5.8 25.8-8.4 39.4-10 7.6-.8 15.3-.6 23-.9h10.9l-13.4 16.6-12-8-.5.8 11.4 8.4c-2 3-4 5.4-5.7 8a5.3 5.3 0 01-4.6 2.6 89 89 0 00-11.2 1 83.8 83.8 0 00-13.1 3.5c-4 1.4-7.6 3.6-11.3 5.5a42.3 42.3 0 012-4.1l16.8-26.4c.6-.8 1-1.8 1.8-3.5l-2 1.3-18.6 28.4c-1 1.5-.6 2.8 0 4.2-2.9 2.2-5.8 4.2-8.6 6.5-8.3 6.7-12.5 15.1-10.6 26a42.4 42.4 0 008.5 18.1c.3.4.8.5 2.2 1.3l-3-5.4a46.8 46.8 0 01-5.6-15.9c-1-7.3 1.4-13.5 6.4-18.8.7-.8 2-1 3.1-1.6l16.4 11.3-4.5 9.3c2-1 3-2.7 4.4-4.1a28 28 0 013.4-2.7l6.7 5c1 1.7 0 2.2-1.2 2.8-4 2-8 3.7-11.6 6.2-13 9-17.6 22.2-17 37.6a12.7 12.7 0 003.5 8.5c-.6-3.6-1.5-6.3-1.6-9-.1-17.5 6.4-31 22.1-38.8 3.5-1.7 7.3-2.7 10.9-4.2a80 80 0 0134-6c12.2.6 24.5 2.3 36.8 3.6a10.4 10.4 0 012.6 1.2c-1.6 3.1-3 6-4.6 8.8l-3.5-2.3-.4.5 3 3.8-3.3 6.7c-1 2.2-2.5 3-5 3.4-6.4.7-12.7 1.9-19 3.1-4 .8-8 2-12.4 3 2.6-7 4.7-9.6 7.2-10 .1-1.4-.1-2.8.4-3.7 1.8-3.3 3.9-6.5 5.7-9.7.9-1.5 1.5-3 2.2-4.5l-1-.5-10.2 15.7-19.2-9.6-.5.9 19.1 10.1c-2.3 3.9-4.4 7.5-6.7 11a6.3 6.3 0 01-3 2c-7 2.6-14.2 5-21.2 7.7-6.8 2.6-14.1 4.3-19.6 9.6-3.5 3.3-7.1 6.6-10 10.4a13.2 13.2 0 001.8 18.3l-1.3-2.4c-3-5.6-2.5-10.8 1.4-15.7 5.5-6.9 12-12.3 20.4-15.3l27-9.5.8.3v3c2.6-1.9 3.3-5 6.6-5.6 7.2-1.4 14.3-3.5 21.4-5 3.5-.8 7-1 10.8-1.5l-.6 4.2c2.4-2 3.3-4.5 6.2-4 6.2.7 12.5 1.3 18.6 2.2 1 .1 1.7 1.4 2.5 2 1-.2 2-.8 2.7-.6 3.8 1.4 7.5 3 11.2 4.6.3 0 .3.8.4 1.2l.2-.1c-5.3 3.6-7.7 9.3-10.6 14.6-1.6 3.2-3 6.5-4.2 9.1-3.7.3-6.7.7-9.7.7l-10.4-.2H276c3.8-8 8.4-15 10-24.3-3.4 7.2-6.5 13.3-9 19.7-1.9 4.5-5 6-9.5 5.9a95.5 95.5 0 00-23.2 2.8l-32.4 7.6a90 90 0 00-11.9 4.3 11.7 11.7 0 00-3.7 2.8c-1.3 1.4-1 3 .5 4a40 40 0 004 2.2c1.1 4.4 2 8.9 3.3 13.2a38.6 38.6 0 0020.6 25.5c3.2 1.6 6.3 2.8 9.9 2.5h5.9c2.2 19.6 1.5 23.6-6 45.4a17 17 0 00-3.9 1.8c-4.7 4-8.8 8.7-9.7 15a84.8 84.8 0 00-.7 16.5c.8 13.3 7.5 18.2 16.8 19.5l10.7 21.8-12.8 7.6c-31.2 19-36.5 55-27.4 80.6a71.6 71.6 0 0041.3 45c1 .3 2 .8 3 1.3 6.6 3 13.1 6 19.6 9.2a74.2 74.2 0 0126 20.5c10 12.6 10 28.6-2.3 39.1-4.6 3.9-9.6 5.4-15.2 3.3l-21-8-2.6-1a7.5 7.5 0 002.6 3 67.2 67.2 0 0023.8 9.5 13.2 13.2 0 009.6-1.5c10-6 15.7-14.7 15.2-26.7a34.1 34.1 0 00-9.5-22.4 90.2 90.2 0 00-26.4-20.1c-8.6-4.2-17.3-8.3-25.8-12.6a56 56 0 01-20.2-15 78.1 78.1 0 01-17.3-40 67.6 67.6 0 0112.5-46.6c7.3-10.3 17.9-16.4 27.7-23 5 3.6 10.2 6.7 14.6 10.6 8 7 17.3 8.1 27.2 7.1a9.4 9.4 0 002.5-1 44.7 44.7 0 00-8.6-.6c-7 .2-13.2-1.7-18.5-6.5-2-1.9-4.6-3.3-6.8-5-2-1.5-4-3-5.8-4.8-6.8-6-8.3-15-12.3-22.8h6.2c.4-2.4 1-4.6.9-6.7s-1.3-4.2-2-6.4c9.2.7 11.1 8.2 14.3 15.4.8-7.3-2.5-13.8-7.7-16.3a25.4 25.4 0 00-12.7-2.9c-.5 0-1 .8-1.9 1.5 4.5 3.5 9.3 6.5 6.9 13.5a67.6 67.6 0 00-6.6-2c-7.4-1.5-12.7-6.7-13.4-14.3a103.7 103.7 0 01.1-17.8c.5-6 4.8-10 8.2-14.5 0 4.5-3.2 8.7 0 14.3l1.2-3.5c1.5-4 2.8-8 4.6-11.8a124.4 124.4 0 0131.5-39.9 51 51 0 0127.5-12.3 15 15 0 0111.8 3.6c11 9.5 14.5 22.2 14.7 36.2l-.1 13.2v11.5l-5.3 1.3c3.6 2.2 1.4 6.5 3.7 9a7 7 0 01-4-1.8c-.9-1-1.2-2.5-2-4.2-2.1 2-1.2 3.7-.5 5.2 1.5 3.4 4.7 3.6 7.7 3.6v6.5l-3.2-2.6-1.8 3.3c2.1 2.6 4.5 4.5 5.5 7 1.7 4.3 2.5 9 3.7 13.5-5.3.7-10 1.7-14.9 2-6.4.3-10.7 3.8-14.3 8.6-1.4 1.8-2.2 4.1-3.3 6.3l-.4-.4-1-1.6c-4.5-7-10.5-11.5-19.3-11.2-2.3.1-4.6-.5-7-.8-2.6-.4-5.1-1.4-8.5.2 1.8 1 3 2 4.3 2.3a79.8 79.8 0 0012.4 2.1c3.8.3 7.2 1.1 10 3.6a76.3 76.3 0 016.7 8.3c.9 1 1 2.6 3 2.4 1.7-.2 2-1.2 2.4-2.4 1.5-4.1 4.4-7.2 7.6-10a14.4 14.4 0 015.8-2.8c3.1-.8 6.5-1 9.7-1.6a24 24 0 0113.4 1.6 40.7 40.7 0 019 4.8c4.1 3 8 7 8.8 12 1.3 7.6.7 15.3-4.3 22-3.6 4.6-6.8 9.6-11.8 13.1a4.7 4.7 0 002.3-.2c4.4-1.5 7-5 9.8-8.5 11.1-14 10.2-28-2.8-41a32 32 0 00-14-7.8l-3.9-27.2c3.5 1.2 3.8-1.2 4.3-2.7 1.1-3-2-3.6-3.7-5v-12.7c-.1-8.8 0-17.6-.5-26.3a46 46 0 00-12.5-29.1 21 21 0 00-22-6.8c-3.4.8-6.7 1.8-10 2.7l-1.3-7.6c6.7 1.4 10.7-1.9 14.1-6.6a34.2 34.2 0 006.7-16.8l1.2-11c5.5 1 10.1-1 14.9-2.5a15.5 15.5 0 007.7-5 7.8 7.8 0 013.6-2.7c3-.8 5.4-2.4 6.6-5.2a51 51 0 002.6-9c1.3-6.3-1.4-10.7-6.7-14-4.6-2.8-9-5.7-13.3-8.8-2.7-2-5-4.7-7.4-7l5.4-8.4-.7-.4a830 830 0 01-6 7.2l-11-15-.2-1c-.5-1.7.4-2.4 1.9-2.1a15.3 15.3 0 013.4 1.4c4.6 2 9 4.8 13.7 6 6.3 1.8 9 5.8 10.4 11.5l1.1 4.6 1.2 3.8c-1.1-6.7-1.6-13.7-5.5-19.1 7.8-12.8 9.5-25.6 2.3-39.4l3.5.5c.2-.9.2-2 .8-2.6a8.8 8.8 0 003-7.6 71 71 0 00-2.4-13.5c-1.2-3.9-4-6.8-7.4-9.2a13.6 13.6 0 002.3 3.2 25 25 0 015.9 20.2c-.5 5.4-3.4 7-8.3 4.7-11-5.4-23-7-35-7.8-9.5-.6-19 0-28.6-.1a37.5 37.5 0 01-6-1l-2.8-2-8.8-7.1c4.5-5.7 8.9-11.2 13.1-16.8 2-2.4 4.6-1.4 7-1.7s2.6 1.8 3.5 3.2c2 3.1 4.1 6.3 6.4 9.3a60.4 60.4 0 004.8 5l-5.2 8.6.8.5 6-7.8 4 2-3-3.4c3-4.8 5.6-9.6 8.8-14 1.1-1.6 3.7-3.1 5.4-3 6.6.7 13.2 2 19.8 3l2.9.3c-6.8-4.8-15-4.2-23-6.5l5.7-11.3 8 9.8.7-.5-6-9.3c-.9-1.4-1.5-2.6-.5-4.3l8-15.2c5.5-.6 8.8 1.8 11 6.2 3.3 7 3 14.3 1.6 21.6a32.8 32.8 0 00-.4 3.3c-.1 1 0 2.1 0 3.2a40 40 0 002.8-21.1c-1.6-9.5-5.9-14-15.2-16-3.6-.7-7.2-2-11.2-3.1a148.3 148.3 0 0015.2-29.6c-4.2 2.9-4.6 8.2-8 12.1l-10.3-9.4-.2.2 10.4 10.6a112.4 112.4 0 01-9 15.3l-10.4-1.2c-3.4-.3-6.8-.3-10.3-.6-3.1-.3-6.4.4-9.6-1.1l6.5-9.6a8.5 8.5 0 012.2-1.6q5 3.9 10.2 7.7zm-90.2-53.6a22 22 0 00-2.8 2.2l-9.1 10.1c-3.7 4.1-3.7 4.1-9 2l-.8.2 4.7 2.9-3.6 4.6a21 21 0 006.6-4.7c3.8-4.2 7.3-8.5 10.9-12.9a53.1 53.1 0 003-4.6l3.4-3-.9-.7-2.4 3.8zm79.3 370.8l9.5 2c6.8 1.4 13.3.6 19.3-3.1a10 10 0 004.4-5.9c.7-2.2 0-4-2.2-5.6-.3 1-.6 1.4-.5 1.8 1 4.1-1.1 6.3-4.4 8.2-5.4 3.1-11 3-16.8 1.9-2.6-.6-5.7-.5-7.6-3 5.3-4.8 11-8.7 18.6-10a48 48 0 00.4 6.6 3.1 3.1 0 002.1 2 5.2 5.2 0 003.2-1.2c.5-.4.6-1.4.7-2.2l-.4-1.2-2.8 2.5-1-6.4 5.3 1.6a9.6 9.6 0 00-11.3-2.5 91.5 91.5 0 00-13 7.3c-1 .7-1.1 2.4-1.7 3.6-5.7-1-7.5 0-8.9 5.1l4.5-4 2.7 2.6c-2.6.9-2.6.9-2.8 3.7zM149.5 1473l7.7 7.9 1-.4c.2-1.4.7-3 .3-4.2a34 34 0 00-12.9-19c-9.4-6.8-20.4-7.5-31.4-8.2a14.3 14.3 0 004.3 1.3c8.4 1.4 16.8 2.1 24.3 7.5a41.2 41.2 0 0114 17.6c.4.8.2 1.8.3 3.6-1.7-1.6-2.8-2.7-4-3.6s-2.5-1.6-3.8-2.4c-.3-.5-.5-1.2-1-1.4-5.5-3.3-16.8-2.5-22 1.5-4.1 3.2-4 7.4-3.2 11.9.8 4 4.2 4.1 7.2 4.8l2.8.5a36.2 36.2 0 0126.8 21.3 96.3 96.3 0 014 9c3.8 10.2 4.3 20.3-2 30 3.5-2.8 4.4-4 5.2-7.7 1.5-7 1.5-14-1.2-20.8a113.3 113.3 0 00-5.3-12.5c-6-11-14.6-18.6-27.4-20.8-1.7-.2-3.4-.6-5-1a4.4 4.4 0 01-3.8-3.6c-1.4-6 .8-10.3 6.7-12a24.7 24.7 0 0118.3.7zm-117.1 37l2.3-1.1c2.4 1.2 4.9 2.2 7.1 3.6 4.6 2.7 9.7 5 10.8 12 1.6-3.7.4-6-1.5-7.6a52 52 0 00-9.5-6.6 16.8 16.8 0 01-8.7-19.8 16.4 16.4 0 011.2 1.5c6.4 11 15.6 14.4 27.8 10.1a11.3 11.3 0 014-.8c7.3.4 14 7.2 14 14.6.2 9.2-1.6 18-7.4 25.6a12.7 12.7 0 00-.8 1.4 7 7 0 003.6-2.7 37.9 37.9 0 006.5-24c-.2-12-10.6-19.3-22-15.4-9.3 3.2-16 .5-21.7-6.4-3.3-4-5.4-8.5-2.7-13.9.3-.7 0-1.9 0-2.9-.7.2-1.1.1-1.2.3a5.7 5.7 0 00-1.3 1.9c-2.6 8.2-4.4 16.4-.3 24.6 1 2 1.2 3.8-.2 5.7-.1 2.6-.6 5.3 1.2 7.6zm210.6-35.7a7.2 7.2 0 00-1.9 1 15.1 15.1 0 01-12 4.4 33 33 0 01-20.6-9c-3.2-2.8-4.5-6.1-2.9-10 1.8-4.3 4-8.2 5.8-12.4 2-4.9 4.8-9.7 5.8-14.8a61.7 61.7 0 00-12.4-49.5 92.3 92.3 0 00-27-23 45.1 45.1 0 00-25.2-6.2c-1 0-1.8.5-3.5 1l10.3 7.2c7 4.8 12.1 11.1 14.5 19.1 4 13.6 2.1 26.2-8.6 36.3A143.3 143.3 0 01152 1429c-5.7 4.3-11.8 8.3-17.6 12.5a31.4 31.4 0 00-3.6 3.6 262.8 262.8 0 0024-15.8c4.2-3 8-6.5 12-9.8 11-9.2 13.5-29 7.8-40.8a44 44 0 00-15.3-18c-1.6-1-3.7-1.7-4.4-4a36 36 0 0120.4 5 229 229 0 0117.3 12.2 62.9 62.9 0 0121.3 31.4 50.4 50.4 0 01-4.5 43.9c-2.3 3.8-3.8 8.1-5.4 12.4-1.4 3.6 0 6.7 2.7 9.3 6.4 6 13.8 9.8 22.7 10 5.6.2 10.5-1.4 13.4-6.8l2.4-5.5c1-2 .4-4-1.9-5.5-.1.5-.4 1-.3 1.3 1.5 2.5 1 5 0 7.6a6.6 6.6 0 00-.1 2.3zM147 654v-.2a6.7 6.7 0 01-6 4.8 13.8 13.8 0 00-5.3 1.9c-3 1.8-6.2 3.3-7.2 7.4-3 12.9 2.3 23 9.9 32.4-5.3-11-11.6-22-7-35.2a29 29 0 0112.4-4.8l35.7-5.6c4.8-.7 9.3-.8 12.8 3.4.3.3.8.4 2 1l-4.3-5.3c4.5-.4 8.2-.8 12-1 8.3-.7 16.8-1 25.1-2 14-1.6 28-3.1 42.2-2.6 20.5.7 38.7 8.2 55 20.2a8.2 8.2 0 012.8 3.2c3.7 8.7 4.8 17.2-2.7 24.8a15.2 15.2 0 00-1.5 1.7l-1.3 2.1a5.2 5.2 0 003.6-1c5-3.7 6.7-9.2 7.3-14.8a23.8 23.8 0 00-4-15.1c-1-1.7-2.7-2.7-2-5.3 1.8-7.1-.4-13.6-4.3-19.6a28.8 28.8 0 00-10.4-10.2c1.1-2 1.8-3.9 3.7-2.9 0-2-.2-4.4 0-6.8.1-3.7.6-7.4.6-11.2 0-3.5-1.4-6.4-5.3-8.3 4.7 6.7 4.1 13.4 1.8 21.3l-16.2-20.7 6.5-5.5-.5-.5-7 4.7-10.7-10.3-.4.5 9.9 10.7c-4.6 3.3-8.6 6.3-12.7 9.1a5.8 5.8 0 01-2.2.5l-1.2-1.4-18.2-17.4 13.3-9.3a6 6 0 016.5-.7l19.7 8.9 5.4 2.3.5-1c-4.3-2.6-8.4-5.3-12.8-7.5a138.5 138.5 0 00-33.8-11.2c-1.7-.4-3.5-.4-4.3-2.4-3-7.3-6.1-14.6-7.4-22.5l2.5-.8c-2.5-2-4.8-3.1-5.9-5.9-13.2-31.7-23.7-64-25-98.8-.2-7-1.4-14-.4-21 .6-4.5 1.2-9 1.5-13.6.8-14 2.2-28.1.6-42.2a29.1 29.1 0 010-3.3c7.8-4.2 16.6-6 23-12a10.7 10.7 0 00-4.3 1c-5 2-10 4.3-15.1 6.4-5.3 2.3-5.8 2.6-5.6 8.3.7 19.3-.9 38.5-2 57.8a215 215 0 002.7 46.3 249.8 249.8 0 0013.7 50.2l9 22.9a44.4 44.4 0 00-30.6 3.1l-2.3-8.7c-.7-2.6-1.3-5.5-2.2-8.1a276 276 0 01-10.7-42.3 338 338 0 01-6.5-57.8c0-18.5-2.7-36.9-6.1-55-.5-2.8-.3-5.2 1.2-7.2 5.8-7.7 12.4-14.4 23.2-16.2a57.8 57.8 0 00-7.2-31.9l-25-1.8 17-18.6c4.8 5.5 7.2 12.2 11.2 17.9-1.4-7.4-5.9-13.3-9.7-20 4.7-3.5 8.8-7 13.5-10 1.7-1 2-2.2 2.5-3.8l-.1.1c8 7.1 10.8 15.5 6.8 25.7a61.8 61.8 0 00-2.2 7.2 20 20 0 00-.2 3.4 6 6 0 002.6-3.2l3-8.9a22 22 0 00-3.5-20.9l-3.3-4.2c1.2-4 2.5-7.6 3.2-11.2 1.7-9.7-1-18.3-6.8-26v.1a30.3 30.3 0 005.2-24.9 65.8 65.8 0 00-11.2-24.9c-5.3-7.3-8.9-15.7-13.2-23.7l11.6-13.7c3 3.8 4.9 7.5 5 11.6.3 6.7.3 13.4.3 20.1 0 2.4-.6 4.7.4 7a47 47 0 002.6-16.8c.2-9.6-1-18.8-7.9-26 5-8.8 5.5-17.7 3.6-26.9-1.7-8.9-3-18-9.2-25.2l1.8-3.1c5.3-10.4 6.7-20.8.5-31.4-1-1.6-2-3-2.9-4.7a138.5 138.5 0 00-17.7-28.1l-2.7-3.5c5.2-5.5 9.5-11.5 15.8-15.5-1.2 2.5-.1 4.8 1 7.1 1.5 3.6 3.3 7 4.7 10.7a41 41 0 01.1 24c-.4 1.6-.5 3-.9 5.1 1-.6 1.4-.7 1.5-.9a9.6 9.6 0 00.8-1.7 41.8 41.8 0 00-3-36.2l-4.2-8.1c-2.3-.8-4 .5-5.4 1.9l-8.8 8.5-3.2 3.1-9.7-9-.6.7 9.3 10c-2.9 3.2-5.6 6-8 9l-7.6 9a50.5 50.5 0 01-3.4-19.3c.2-3.5.8-6.9 2.9-9.8a11.7 11.7 0 002.1-10c-.5-2.8.3-5.8.5-8.8l.5-3.4c-4.3 5.4-3.1 11.3-1.6 17.3-6 4.3-7.2 10.5-7 17.2a59 59 0 004.2 19.2c1.2 3.2 2.3 6.4 5.3 8.5l-.1-.1a19 19 0 00-5 10.4l-.8 3.6a42.2 42.2 0 003 29.8 4.8 4.8 0 01.3 2.6c-2 15 .9 29.2 7.4 42.8a6.8 6.8 0 01.5 4 117.6 117.6 0 01-2.8 11.8 35.9 35.9 0 00.3 21.3c1.1 3.7 2.7 7.3 4.2 11.1-6.3 10.5-4.6 30.3 3.3 41.3-1.5 3.5-3.6 6.6-3.9 9.8-1 10.7-.5 21.3 3.9 31.3a7.4 7.4 0 01-.4 7 17.6 17.6 0 00-2.3 7c-.1 8.6-1.9 17.3 3.3 25.3-6.2 2-12 4.1-17.9 5.6-4.6 1-6.8 3.9-7.6 8.2a25.8 25.8 0 00-.6 4.2c0 6.7-.5 13.5 0 20.2.7 7.6-.4 14.2-6.5 19.4-1.2 1-2 2.5-3 3.6a22 22 0 01-2.4 2c-.9-3.4-1.7-6.4-2.3-9.5L125 344a110 110 0 01-1.2-11.2c-.2-2.8-2.6-3.3-4.5-4-1.5-.5-2.8.3-2.8 2.2l.1-.1c-2.2.4-2 2-1.7 3.6 1.8 8.3 2 16.7 2.2 25.1.3 7.2 1.3 14.6.2 21.6a30.9 30.9 0 002 17.4 30 30 0 012 12.5c-.2 12.8 4.8 16.9 13.7 19.6 2.5.8 4.7 2.5 7.1 3.4 4.3 1.6 5.6 4.9 5.6 8.9a104 104 0 01-.6 15c-2 13.6-4.5 27.2-6.4 40.8-2 13.8-3.2 27.7-2.3 41.7.2 3.9.2 7.8.5 11.7.2 3.3.2 6.6 1 9.8 1.8 6.7 2.9 13.7 7.4 19.8a17.7 17.7 0 01-2.8.9c-6.8.7-12.8 3.8-18.9 6.7-5.3 2.5-7.4 7-8 12.4a29.8 29.8 0 00.6 7.4c1 6.4 4.7 11.2 9 15.7a11.6 11.6 0 001.8 1.3l.8-.7-4.6-6.8a23.2 23.2 0 01-3.9-21.7 7 7 0 012.7-3.7c8-4.4 16-8.2 25.5-8.5a276.1 276.1 0 0033.2-3.3c12-2 24.2-2.9 36.3-4.2a21.6 21.6 0 014 .4L210.3 591l-8.3-6.7-.7.8 7.9 7.4c-1 1.5-1.9 2.9-2.8 4l-13.8 17.8.2-.2c-3 2.8-6.6 2-10.2 2.2a7 7 0 01-6-2.7c-4.2-4.9-8.8-9.4-13.2-14.1l-3.2-3.5 4.4-5.5-.4-.4-5.3 4.4-3.2-2.6-.5.4 2.5 3.9c-5.2 7.4-10.4 14.9-15.7 22.2a13.5 13.5 0 01-3.1 2.8c-2.3 1.7-4.6 3.3-7 4.8a14.3 14.3 0 00-6 9.2c-1.7 7.5 0 14.6 3 21.5.6 1 1.2 2.5 2.7 2.5-1.2-4.5-2.5-8.8-3.4-13.2a22.2 22.2 0 011.5-14.3 8.8 8.8 0 012.7-3.7c5.6-3.4 10.9-7.3 17.9-7.6 3 0 5.9-1 8.8-1.3a102.5 102.5 0 0119-.1l-18.5 16.3-15.2-9.2c2.7 6 9.2 7.3 13.8 11.1-2.5 3.3-5 6.3-7.2 9.5-1.6 2.3-2.8 4.9-4.2 7.3zm771.2-157.8c-7.1 4.9-9.6 12.8-13.1 20.1-.6 1.1-.7 3.1-.1 4a98.8 98.8 0 008.2 10c2.9 3.1 6.2 5.8 9 8.8 1 1 1.4 2.8 1.9 4 4.4-.2 5.2 5.5 9.3 6l-.1-2.5a87 87 0 007.8-4.8 91.2 91.2 0 006.8-6.5l12.4 26.1H861l-.5-3.9c-.8-7-1-14.1-2.8-20.9-4.5-17-9.6-34-14.7-51-6.7-22.5-18.7-42.7-28.2-64-3.9-8.7-9-16.9-13.2-25.4a27.6 27.6 0 013.7-32 124 124 0 0013.6-21.3c8.5-16.3 15-33.4 16.3-52a150 150 0 0052-8.8c-4.4 12.9-4.4 21.1 1 25-3.7-10.2-.8-19.2 2.2-28-7-3-9.1-3.5-11.9-2.5l7.8 3.3-8 1.8-.6-4.6a125.2 125.2 0 014-44.3 11.3 11.3 0 013.4-5.9c4.4-4 8.9-8 13-12.3a22.3 22.3 0 00-.8-31.2 38 38 0 00-5.1-22c-4-6.6-11-10.5-17-14.5 2.5-6.5 4.3-12.7 7.1-18.4s5.7-11.3 9.7-16a56 56 0 0130-19.1l3-1c2.8-.8 3.8-3 3.7-5.4-.2-2.8-.7-5.6-2.4-7.5-11.2.6-22.1.6-33.3 4.8 1.1-3.5 1.8-6 2.7-8.5 5-12.6 7-26 10-39.1a4.7 4.7 0 00-.1-3c-2.7-4.6-11.7-4-14.3.8 9.6-1.5 9.6-1.5 13.3.8-.9 2-2.2 4.1-2.7 6.4-3 13.3-6.9 26.5-10.8 39.7-1 3.4-2.2 5.5-5.3 7-1.4.6-3.4 1-3.6 3.2 2.3 1.2 4-.1 5.7-1 5-3 10.2-5.5 16-6.3 6.9-.9 13.7-1.5 20.5-2.3.5 1.3.9 2.1 1.1 3 1.2 4.3.9 4.5-3.6 5.5-3.5.8-7.3 1.4-10.2 3.2-12.4 7.5-24.3 15.7-30.4 29.8-1 2.1-2 4.2-2.7 6.4l-5.8 15.6a68.5 68.5 0 00-30-5.6l3.8-6.6a22 22 0 002-20.7 57 57 0 01-4.4-17.2 82.3 82.3 0 00-1.8-13c-1.3-5.1-3.2-10-4.9-15.1a58.2 58.2 0 00-7.3-14.4 26.8 26.8 0 001.7 6.7 120.1 120.1 0 019.2 35.3 56 56 0 006.3 22.5 6 6 0 01.3 4.4 147 147 0 01-6.4 15.6c-.8 1.7-3 3.1-5 3.9-4.9 2-10 3.5-14.9 5.7a58.2 58.2 0 00-28.3 23c-2.5 4.5-3.7 9.7-5.3 14.5s-1.6 5-6.8 5.3c-1.7.1-3.4 0-5.1.2a15.2 15.2 0 00-2.8.8c3.8 3.4 8 1 12 2.4l-1.6 5c-1.4 4.1-3 8.2-4.3 12.4-3.4 10.4-5 21-3.4 32 2.3 16.3 12 26 27 30.9 10 3.2 20.2 1.4 30-1.4l4.7-1.5a32.5 32.5 0 01.4 4.1c-.2 4.5-1.5 5.7-6 6.7a120 120 0 00-14.4 4c-3.5 1.4-3.7 2-2.8 5.4 1.4 5.8-.1 11.2-2 16.6-12.1-1.7-24.1-4.3-35.2-1.6a42.4 42.4 0 01-2 5.2c-8 14.7-18.2 28-28.4 41.4a660.7 660.7 0 00-45.5 67.4c-.5 1-1 2.2-1.8 2.7-3.6 2-3.3 5-2.5 8.2a65.8 65.8 0 002.7 8.5 16.1 16.1 0 003.1 5.1c4.1 4.3 8.4 8.4 12.7 12.4l27 24.1 1.4 1.1c2.5 2.1 5.2 4.1 7.5 6.5 6.6 6.8 13.1 13.8 19.6 20.8a13.5 13.5 0 012 2.7c2.6 4.9 3.7 5.2 8.8 3l7.1-3a6.4 6.4 0 01.7 1.3 4 4 0 01-.1 1.4c-1.5 5.2-2.6 10.4-.1 15.6a2.8 2.8 0 01-.2 2.2L779 550.7c-1.4 2.3-3.3 4.3-4.4 6.7-1.7 3.7-4.2 4.5-8.1 4.5q-113.8-.2-227.6 0h-6.5a11.7 11.7 0 01-.8 3c-2.4 3.8-2 7.7-1.4 11.8 2 12.3 4 24.5 3.8 37-.2 8.6-.7 17.2-.8 25.8q-.5 63.2-.8 126.5c0 4.3 2 8.7-.5 13-.3.5 0 1.2 0 1.9v656l-14.1-1a5.1 5.1 0 000 6l4.7 7.5c2.5 4.3 4.8 8.7 7 13.2a8.6 8.6 0 01.6 4c0 1.7-.6 3.4-.7 5a21.7 21.7 0 01-6.7 16c-4.3 4-9 7.5-13.5 11-2.7 2-2.8 1.8-4.3 4.9 3-2 5.6-3.6 8-5.5 3.8-3 7.6-6.1 11-9.4a22.5 22.5 0 006.8-17c0-1.4-.3-3 .2-4.2 1.5-4 .4-7.5-1.5-10.8-2.2-4.1-5-8-7.4-12-1.2-1.9-2.3-4-3.7-6.5 13.7.4 25 4 33.8 14a79.4 79.4 0 0118.3 35.7 54.6 54.6 0 01-22.6 58l-4.5 3.4.7.7q28.3-14.7 30.3-46.6c1.6-23-14.6-55.4-36.3-64.6v-662h661v-6.1h-24.8c-1.6-9.2-3.4-18-4.5-26.7-1-8.1-1-16.3-1.6-24.4-.7-10.5-1.6-21-2.2-31.4-.5-8.2-.3-16.4-1.2-24.4-2-18.2-1.7-36.3-1-54.5.6-13.4 1.9-27-2.6-40.1l.5-1.3h32.3v-6H967a3.8 3.8 0 01-4-2.5l-13-26.6a4.3 4.3 0 01-.5-2.7c1.5-5.2-.7-9.9-1.7-14.7l-.9-4.9a53.9 53.9 0 005.6 2.2 37.6 37.6 0 007.8 1.6c3.4.1 4.9-1.6 5.9-4.9a150 150 0 015.2-15c4.6-10.8 10-21.2 15.6-31.5a68.5 68.5 0 0118.3-20.4 194.7 194.7 0 0017.4-15.7c5.7-5.8 10.7-12.2 16.1-18.3 4-4.6 4.4-7.7 2-13.4a16 16 0 00-6.6-7c-14-9.2-27-19.4-38.6-31.4-9.5-10-19.4-19.6-28.9-29.6a82.6 82.6 0 00-62.1-23.8c-9.4.3-17.8 3.5-24.2 10.8a27.5 27.5 0 00-6.4 14.3c-.3 1.6-.5 3.6 2.5 3.8l.7-4.5c.8-5.5 3-10.6 7.1-14a30.8 30.8 0 0117.1-7.2 79.7 79.7 0 0120.6 1 74.5 74.5 0 0142.4 21.6q14.9 15 29.6 30.2a170 170 0 0028 23.5c4.8 3.2 9.5 6.3 13.9 9.8 5.4 4.4 5.4 8.8.8 13.7-5.8 6-11.8 11.8-16.7 18.4s-11 11.5-17.4 16.3a59.1 59.1 0 00-16.9 18l-12.2 20.6a39.6 39.6 0 00-3.1 6.3c-2 5.2-3.7 10.6-5.5 15.8-4.7-4.6-9.2-8.8-13.4-13.1-4.5-4.6-10.7-6.2-16-9.4l.7-3.6a374.1 374.1 0 0122.8-60.1c.9-1.8 2-3.6 3-5.3a40.1 40.1 0 0120.4-18l6.8-3c-4-.4-7.7 1-11.2 2.7l-10 5c-2.8-1.5-5.5-3.5-8.5-4.6a73.2 73.2 0 01-25.5-15.4 60 60 0 00-8.5-6.7 27.2 27.2 0 00-6.8-3c-2.3-.7-3-.2-5.4 2 6.3-.3 10.6 3 14.8 6.5l8.7 7.2a61.5 61.5 0 0031.3 14 4.4 4.4 0 01-.6 1.2 71.8 71.8 0 00-14.4 23 372.3 372.3 0 00-20.4 56l-2.6 1 .8 3.2-3.8 2-6.5-7.5c-1.9-2.3-3.6-4.6-6.8-5.5a4.5 4.5 0 01-2.4-2.4l-4.5-11.4a19.3 19.3 0 01-.8-12.4c4.4-18 9.4-35.8 18.3-52.2a97.7 97.7 0 004.3-9.9 7.6 7.6 0 000-2.6 171.4 171.4 0 00-23 54.4 52.5 52.5 0 002.8 35.3 6.7 6.7 0 01.2 5.4c-1.6 4.7-.4 8.9 3.5 12.2l6.8 5.8-.9 4zm-656.8 670.2c-6.2 2-9 5.8-8 11.2a39.8 39.8 0 003.2 9.8 73 73 0 0021.2 24.8c3 2.3 6 4.5 8.8 7 10.6 9.6 21 19.4 31.5 29 14.1 13 23.4 28.9 29 47l4.9 15.2c5.2 15.9 7.4 32 5.3 48.7-.6 4-1.4 8.6-3.6 12a72 72 0 01-21.7 23.1 29 29 0 01-29.5 2 67 67 0 01-19.5-13.6c-5.7-5.8-11.6-11.4-15.6-18.7 0 3 1.3 5.5 3 7.8a83.6 83.6 0 0031.4 26.9 35.3 35.3 0 008.9 2.9 31 31 0 0021.6-4.2c8.8-5 15-12.8 21.2-20.4a28.3 28.3 0 005.9-12.7c3.5-17.8 1.2-35.2-4-52.4-2-6.7-4.3-13.4-6.6-20-6-17.7-14.6-33.6-28.8-46.1-2.4-2.2-4.7-4.6-7.2-6.8-10.1-9-20-18.5-30.5-27.2-6.7-5.5-13-11.2-18.5-17.9a37 37 0 01-7.8-15.9 7.7 7.7 0 011.9-7.4l3.6-4.1zM403.3 1505a11.6 11.6 0 01-1-1.2l-1.6-3a64 64 0 01-5.4-39.7 67.6 67.6 0 0112.7-31 88.8 88.8 0 0116.2-17.5 58.1 58.1 0 0017.6-25.7 21.5 21.5 0 00-.6-18.1l-2.4-5.9a34.7 34.7 0 002.1 7.6 20.4 20.4 0 010 14.7 53 53 0 01-17.5 26.1 44.2 44.2 0 00-5 4.4c-12.1 11.7-22 24.8-24.9 42-2.8 16.8-2 32.9 7.1 47.7 1.3 2.1 1.2 3.9-.4 5.5s-3.2 3.3-5.1 4c-10 3.3-20 3.5-29.7-1.2-7.7-3.8-9-7.8-5.4-15.7a34.8 34.8 0 001.5-3.4c2-5.9 4.4-11.8 5.6-17.8 1.5-7.8.5-15.5-5-21.7a65.4 65.4 0 00-24.3-18 19.4 19.4 0 01-12.2-14c-1.7-7.4.9-13.5 5.5-19.1 1.3-1.6 2.8-3.1 4.2-4.6-7.7 4.5-12.6 11-12.3 20 .3 9.3 5.6 15.8 14 19.5a76 76 0 0121.1 14.5 24 24 0 017.3 23.1c-1 6-3.5 11.7-5.4 17.4-.8 2.4-2.2 4.6-3 7-1.6 5-.6 8.2 3.6 11.6a27 27 0 0012.3 5.5 48.2 48.2 0 0016.8 0 18.8 18.8 0 0015.3-12 47.4 47.4 0 012.5-4.5l3 1.2-4.3-5.1c0 3-.1 5.4-3 7.4zM6.6 1477.6l.7.7a52.2 52.2 0 0018-18.8 29.5 29.5 0 004-16.2 13 13 0 00-5.8-10.7l-5-3.5a15.2 15.2 0 01-7.2-11 44.2 44.2 0 01-.4-9.3 64.9 64.9 0 0111.7-31.8 12.4 12.4 0 012-1.8l-.8 4.9c-1.3 9.3 1 13.6 9.4 17.7l7 3c6.3 2.9 10.3 7.7 11.7 14.7a46.7 46.7 0 01.3 16.4c-1.6 10.3-6 19.7-9.4 29.4l-1 3a135.4 135.4 0 0011-26.3 52 52 0 001.8-18.6c-.7-10.4-5.5-17.7-15.4-21.6a66 66 0 01-7.3-3.2c-5-2.7-7.1-7-6-12.6 1-5.2 2.2-10.3 3.4-15.5.3-1.2 1.1-2.4-.7-3.4a5.9 5.9 0 00-1.2 1.1c-2.3 4-4.5 8.2-7 12.1a72.3 72.3 0 00-10.4 24 78.7 78.7 0 00-1.4 9.3c-.8 10 2.3 18.2 11.6 23.2 6.6 3.5 8 9.3 6.8 16a31.7 31.7 0 01-6.8 14.8c-2.8 3.6-6.1 6.7-9.3 10l-4.3 4zm494.2 23.7a298.1 298.1 0 01-20.7-27.6 30 30 0 01-2.5-32c2.7-5.5 5.6-10.8 8.4-16.3q2.3-4.4 4.3-8.8c1.1-2.3 1.2-4.7-.2-8-2.4 9.7-7.4 17.3-11.4 25.3-1.5 3-3 5.9-4.2 8.9a30.5 30.5 0 00-1.5 19.8 35.5 35.5 0 006 13q8 10.6 16.3 20.8c1.5 1.9 3.7 3.3 5.5 4.9zM892 36.8c-3.7 8.7-5.5 18.1-10.6 26.3.4-5.8 1.3-11.5 2.1-17.2s2-11.4 1.8-17.2a3.7 3.7 0 00-1.2 2l-3.7 18c-1.8 9.4-1.6 19.2-4.8 28.5l.8.8c.4-.3 1.1-.5 1.3-1 4.2-8.9 9.4-17.4 12-27 1.3-4.2 2.9-8.5 2.3-13.2zM865.2 68l-.8-4.9a58.3 58.3 0 00-6.1-21 23.1 23.1 0 00-2.2-3.6c-2.3-2.9-5.7-3.3-8.3-1a14.1 14.1 0 002 0c3.5-.2 5.1 1.5 6.4 4.8 3.1 8.2 4.8 16.8 6.3 25.5.5 3 1.8 5.7 3 9.1 3.4-5.4 6.3-31.6 4.7-41.6-2.8 10.7-2 21.9-5 32.7zm-375 1321.8c2-2.9 1.1-5.1.3-7.3a56.7 56.7 0 00-21.7-29.8 90.3 90.3 0 01-17.9-15.1 11.3 11.3 0 00-1.8-1.4 12.6 12.6 0 003.2 5.3c4.3 4 8.5 8.4 13.4 11.7a59 59 0 0123.2 32.6l1.3 4zM206.8 331.4l4.4-1.2a78 78 0 0127.3-3.9 62.4 62.4 0 016.2 1c-.3 4.7-.8 8.7-1 12.8-.4 9-.4 9 1.4 11.8l1.9-25.7c-6.9-5-34.4-2.1-40.2 5.2zM852 97.8l1 1c4.3-1.7 8.3-4.5 13.3-3.5A18.3 18.3 0 01878 103l-3.7 2.8c-7 4.6-11.4 4.1-17.4-1.8a25 25 0 00-2.3-1.8 12 12 0 0010.2 9c5.2.8 9.5-1.6 12.8-5.6 2.3-2.8 2.2-5.1-.3-7.8-5.3-6-15.7-7.3-22.4-3a20.7 20.7 0 00-3 3zM295.7 1169.3l-.7.4a6.8 6.8 0 00.5 1.6c2.4 3.8 8.1 5.9 13.2 5a28.1 28.1 0 0014.5-7.3c4.6-4.4 9.1-3.9 12.3 1.4 3.4 5.6 6.4 11.3 1.3 17.7 4.4-3.4 5.6-6.5 3.9-11a46.2 46.2 0 00-5-9.5c-2.8-4-7.9-4-12-1.2a80.2 80.2 0 01-12.5 7 12.3 12.3 0 01-10.9-.5 30.6 30.6 0 01-4.6-3.6zm532-1120h12.8c1.8 4 3.5 7.9 5.4 11.6s3.2 7.9 5.4 11.5l1.1-.4-3.2-26.1c-.5 3 0 5.9.2 8.8.2 2.8 2 5.5.2 8.8-2-4-4-7.5-5.6-11.2-1.6-4-4.6-5-8.3-5.2-2.8-.1-5.6-.4-8 2.3zM201.3 951.3c6-2.5 21.8-29.2 22.9-37.8-4.9 6.7-8 14.6-12.6 21.5l-2.3-1c2.6 1.8 1 3.5 0 5.2l-8 12zm107.4 160a66.4 66.4 0 00-18.1 15c-.4.6-.3 1.5-.7 3.4 7.5-5.4 13-11.9 21.7-14.1l-3-4.2zm4.5-343l4.6 2.2c10 5.2 14 19.2 7.9 28.7-1 1.4-.8 2.2.7 3.3 5.4-7.4 5.3-15.1 1.8-23-2.8-6.5-7.2-11.1-15-11.2zm-13.5 291.5l11.4-2c2.5 3-.9 2.8-2.8 4.5l5.3-.7v-6.9a73.8 73.8 0 01-7.5 1.7c-2.7.2-5.3 0-8 .1-2.2.2-4.6-1.7-7.4.6 5.3.3 7.8 6 13.5 5.1zm9.6-395.1c-5.1 2.4-23.6 20-24.7 23.4 8.6-7 17-14 24.7-23.4zM169.5 864.9c-4.8 6.7-1.9 23 5.8 29.7-4.1-10-8.4-19.2-5.8-29.7zm243.2 683.9c7.7-15.5 8.1-32.3-.5-42 3.2 6.6 6 13.5 4.8 21-1.1 7.3-3 14.4-4.3 21zm-206-577.2l.7.7c.3 0 .7 0 .9-.2l18.9-22.4c-9.5 5.4-14.9 13.8-20.6 21.9zm55.8-31a53.8 53.8 0 00-16.2 23 18.6 18.6 0 002.8-3.3l3.5-5.5c1.1-1.9 2.3-1 4.2.4-2.1-3.4-2.2-3.4-1-5.3l6.7-9.4zM256 738.8c1 1.5 1 2.4-.3 3.4-2 1.7-3.7 3.5-5.5 5.3 4.3-1 5.8-7.2 11.5-4.9l-1.6-2.5 4.9-3.8 5.2-4c1.4-1.1 3-2.1 3.8-3.8-4.7 3-9 6.2-13.3 9.6-1.4 1.1-2.8 1.9-4.7.6zM193.7 1c2.5 6.9-.4 13-.7 20.3 5.1-8.6 5.5-16.9.7-20.3zm120.1 845.8c-6 4.7-8.6 11-11.3 17.4 3.6-2 3.4-7.6 7.8-9-1.6-3.4 3-4.9 3.5-8.4zm550-739.6c.7-1.4 1.6-6.9 1.2-8-.3-.8-1.1-1.4-1.7-2-2.4 3.9-2.3 6.3.6 10zM318 1073.5c-4.2 3.3-6 7.6-5 12 2-4 4.2-7.5 5-12zM188.4 8.2c-7.7-.3-11.1.7-15.1 3.7zm693.8 18.5c-4.8-2.6-8.7-.8-11.8 5.9 2-1.7 3.6-3.4 5.5-4.2s4.3-1.2 6.3-1.7zm-16.3 63c.5-4 .6-7-1.7-9.4-.8 3-1.3 5.9 1.7 9.3zm-1.8 32.6h1.3c.9-2.5 1-5-1.3-7.2zm-11.5-5.8c3.7-.6 4.8-2 4.5-5.3-2.4 1-4.3 2.3-4.5 5.2zm-544.5 955.1l.4 1 8.3-2.2a8.7 8.7 0 00-8.7 1.2zM873 91.8a9.3 9.3 0 003.3-7c-2.7 1.8-3.6 3.8-3.3 7zm-15.6-3.2l1-1c-.7-2.2-1.9-3.9-5.8-4zm-556.1 961.8l6-1c-2.8-1.9-4.6-1.9-6 1zM161 679l.7.6 2.7-5-.8-.5zm150.7 107.8l-.6.6 3.6 3 .5-.4zM874 117.2l1.1-.3c.6-1.8-.3-3-2.5-3.6zm-600.7 983.5l-.6 1 3.6 1.8.5-1zM37 1521.3l-.3.7 3.4 1.6.2-.4zM159 684.7l-1.1-.5-1 2.5 1 .4 1.1-2.4zm85 103l.4-.6-3-1.6-.2.6zm87.5 305l-.5-1-2 1.2.4.8zm-26-242.3l.6-.3-1.3-2-.7.7zm-37.5-102.9l.4-.5-2.5-1.8-.4.5zm-99.2 3.1l-.5.6 2.7 1.1.2-.4zM280.2 913l.5-.5-2-1.5-.3.4z" class="cls-1"/>
      <path d="M280.3 1553l-3.3-2.5c-5.2-4-10.8-7.4-15.7-11.8-6-5.2-6.6-9.7-3.2-16.8 3.2-6.5 6.6-12.8 10.2-19a33.8 33.8 0 003.7-25 23.8 23.8 0 00-11.3-16 10 10 0 01-1.5-1.6c1.7-.6 3-1.5 4.3-1.6 10.6-1.1 20 1.3 26.7 10.2 3.3 4.3 5.8 9.2 8.7 14a23.7 23.7 0 005.3-11.9c1.5-8.4.8-16.5-3.2-24.2a22.2 22.2 0 00-12.5-11.4 50.7 50.7 0 01-8.9-4.1c-4.8-3-6-6.2-4.4-11.6a29 29 0 013-6.8 22.8 22.8 0 014-4.5l7.6-6.6.8.7-3.2 3.6c-1.8 1.7-3.8 3.3-5.5 5.2a25.2 25.2 0 00-3.9 5.8c-3.3 7.2-2 10.7 5.2 14.3a50.3 50.3 0 006 2.5 22.2 22.2 0 0113 11.6c6.3 12.6 6.1 25-1 37.2-1 1.7-2 3.7-4.6 3.5-3.7-15-15-27.7-31.9-25.1.7 1 1.3 1.8 2 2.5a32.8 32.8 0 015.3 36.3c-2.5 5.4-5.7 10.5-8.5 15.7l-4.2 8.4c-2.2 4.8-1.6 9.4 2.5 12.8 5.4 4.5 11.1 8.6 16.7 12.8l4.5 3.3zM968 396.9c3.3-1.7 6.6-3.5 10-5.1s7.1-3 11.3-2.7l-6.9 3a40.1 40.1 0 00-20.4 18l-3 5.3c-9 19.5-17.2 39.4-22.8 60.1l-.7 3.7c5.3 3.1 11.5 4.8 16 9.3l13.5 13.1 5.4-15.8a39.6 39.6 0 013.2-6.3c4-6.9 8.2-13.7 12.1-20.6 4.2-7.4 10.2-13 17-18 6.3-4.8 12.4-9.7 17.3-16.3s11-12.4 16.7-18.3c4.7-5 4.7-9.4-.8-13.7-4.4-3.5-9.1-6.7-13.8-9.8a170 170 0 01-28.1-23.6Q979.3 344 964.4 329a74.5 74.5 0 00-42.4-21.5 79.7 79.7 0 00-20.6-1 30.8 30.8 0 00-17 7c-4 3.5-6.4 8.6-7.2 14l-.7 4.7c-3-.3-2.8-2.2-2.5-3.8a27.5 27.5 0 016.3-14.5 32.2 32.2 0 0124.2-10.7 83.6 83.6 0 0162.1 23.7c9.5 10 19.4 19.7 29 29.6 11.5 12 24.6 22.2 38.5 31.5a16 16 0 016.6 7c2.4 5.7 2 8.8-2 13.3-5.3 6.1-10.4 12.5-16 18.3a194.7 194.7 0 01-17.4 15.7 68.5 68.5 0 00-18.4 20.5c-5.6 10.3-11 20.7-15.6 31.5a150 150 0 00-5.2 15c-1 3.2-2.5 5-5.9 4.8a37.6 37.6 0 01-7.8-1.5 53.9 53.9 0 01-5.6-2.2c.4 2 .6 3.4 1 4.8 1 4.9 3 9.6 1.6 14.8a4.3 4.3 0 00.6 2.6l12.9 26.7a3.8 3.8 0 004 2.5H1194v6h-32.3l-.5 1.2c4.5 13.2 3.2 26.7 2.6 40.1a363 363 0 001 54.5c1 8 .7 16.3 1.2 24.4.6 10.5 1.5 21 2.2 31.4.6 8.2.7 16.3 1.6 24.4 1.1 8.8 3 17.6 4.5 26.7h24.7v6.1h-661v662c21.8 9.3 38 41.6 36.4 64.6q-2.1 32-30.3 46.7l-.7-.7 4.5-3.4a54.6 54.6 0 0022.6-58 79.3 79.3 0 00-18.3-35.7c-8.7-10-20.1-13.7-33.8-14 1.4 2.5 2.5 4.6 3.7 6.5 2.5 4 5.2 7.8 7.4 12 1.9 3.2 3 6.8 1.5 10.7-.5 1.3-.2 2.8-.2 4.2 0 6.6-2 12.4-6.8 17-3.5 3.4-7.2 6.5-11 9.5-2.4 1.9-5 3.4-8 5.4 1.5-3 1.6-2.8 4.3-4.9 4.6-3.5 9.2-7 13.5-10.9 4.6-4.2 6.5-9.8 6.7-16 0-1.7.6-3.4.7-5a8.6 8.6 0 00-.5-4c-2.3-4.5-4.6-9-7.1-13.3l-4.8-7.5a5.1 5.1 0 010-6l14.2 1V787v-6.1c0-.6-.2-1.4 0-1.9 2.5-4.2.5-8.6.5-13l.8-126.5c0-8.6.6-17.2.7-25.8.3-12.5-1.8-24.7-3.7-37-.6-4-1-8 1.4-11.7a11.7 11.7 0 00.8-3.1h234.1c3.9 0 6.4-.7 8.1-4.5 1-2.4 3-4.4 4.4-6.6l10.4-18.3a2.8 2.8 0 00.2-2.2c-2.4-5.3-1.3-10.4.2-15.6a4 4 0 000-1.4 6.4 6.4 0 00-.6-1.4l-7.1 3c-5.1 2.3-6.2 2-8.9-3a13.5 13.5 0 00-1.9-2.6L752 488.3c-2.3-2.3-5-4.3-7.5-6.5-.4-.4-1-.6-1.5-1-9-8-18-16-26.9-24.2-4.3-4-8.6-8-12.7-12.3a16.1 16.1 0 01-3.1-5.2 65.8 65.8 0 01-2.7-8.5c-.8-3.1-1-6.2 2.5-8.2.9-.4 1.3-1.7 1.8-2.6a660.7 660.7 0 0145.5-67.4 345.7 345.7 0 0028.5-41.4 42.4 42.4 0 001.9-5.3c11-2.6 23 0 35.2 1.6a29.1 29.1 0 002-16.5c-.9-3.5-.7-4 2.8-5.4a120 120 0 0114.4-4c4.5-1.1 5.8-2.2 6-6.7a32.5 32.5 0 00-.4-4.2l-4.6 1.5c-10 2.9-20 4.6-30 1.4-15.1-4.8-24.8-14.6-27.1-31-1.6-11 0-21.5 3.4-31.9 1.3-4.1 2.9-8.2 4.3-12.4.6-1.6 1-3.3 1.5-5-3.9-1.3-8.1 1-12-2.3a15.2 15.2 0 012.8-.8c1.7-.1 3.5 0 5.2-.2 5.2-.2 5.1-.3 6.7-5.3s2.9-10 5.4-14.4a58.2 58.2 0 0128.2-23.2c4.9-2.2 10-3.5 15-5.6 1.9-.8 4-2.2 5-3.9a147 147 0 006.3-15.6 6 6 0 00-.3-4.5 56 56 0 01-6.3-22.4 120.1 120.1 0 00-9.2-35.3 26.8 26.8 0 01-1.8-6.7 58.2 58.2 0 017.3 14.3c1.8 5 3.7 10 5 15.2a82.3 82.3 0 011.8 13 57 57 0 004.3 17.2c3 7.3 2 14-2 20.6l-3.8 6.7a68.4 68.4 0 0130 5.6l5.8-15.6c.8-2.2 1.8-4.3 2.8-6.5 6-14 18-22.2 30.3-29.7 3-1.9 6.7-2.4 10.2-3.2 4.5-1 4.8-1.2 3.7-5.5l-1.1-3-20.5 2.2c-5.8.8-11 3.4-16.1 6.3-1.7 1-3.4 2.2-5.7 1 .3-2.2 2.2-2.6 3.6-3.2 3.1-1.4 4.4-3.5 5.4-6.9A593 593 0 00902 41.5c.5-2.2 1.8-4.2 2.8-6.3-3.8-2.3-3.8-2.3-13.4-.8 2.6-4.8 11.6-5.4 14.3-.8a4.7 4.7 0 010 3c-2.8 13.1-5 26.4-10 39-1 2.5-1.5 5-2.6 8.6 11.1-4.2 22-4.2 33.3-4.8 1.7 1.9 2.2 4.7 2.3 7.5.1 2.5-.9 4.6-3.6 5.4l-3 1a56 56 0 00-30 19c-4 4.8-7 10.5-9.7 16s-4.7 12-7.1 18.5c6 4 13 7.9 17 14.5a38 38 0 015 22 22.3 22.3 0 01.8 31.2c-4 4.3-8.5 8.3-13 12.3a11.3 11.3 0 00-3.3 5.9 125.2 125.2 0 00-4 44.3c0 1.3.3 2.7.6 4.6l8-1.8-7.8-3.3c2.8-1 4.9-.5 12 2.5-3 8.8-6 17.8-2.3 28-5.4-3.9-5.4-12.1-1-25a150 150 0 01-52 8.8 132 132 0 01-16.3 52 124 124 0 01-13.6 21.3c-8 9.8-9.5 20.6-3.8 32 4.3 8.5 9.4 16.7 13.3 25.4 9.5 21.3 21.5 41.5 28.2 64 5 17 10.2 34 14.7 51 1.8 6.8 1.9 14 2.8 21l.4 3.8h99.2l-12.3-26a91.2 91.2 0 01-6.9 6.4 87 87 0 01-7.8 4.8l.1 2.4c-4-.4-4.9-6-9.3-6-.5-1.1-.8-2.8-1.8-3.9-2.9-3-6.2-5.7-9-8.7a98.8 98.8 0 01-8.2-10c-.6-.9-.5-2.9 0-4 3.6-7.2 6-15.2 13.3-20.1a37.1 37.1 0 01-1.6 4.1c-2.9 5.5-6 10.9-8.7 16.4-1.2 2.5-.5 3.5 2.6 5.2 0 .6-.3 1.4 0 1.8 2.4 3 5 6 8.6 7.8l5.7-5.1c5.4-5 10.5-10.4 11.5-18.2.3-1.7 1.5-1.3 2.5-1.6l-1 4.6a33.7 33.7 0 01-10 15.4l-6.5 6.1 5.3 7.2c4.4-5 8.5-9.1 11.8-13.7 6.4-8.7 6.6-11 .3-19.4a24.1 24.1 0 00-6.4-7.7c-1.5 2.4-2.5 4.7-4 6.4q-6.3 7-13 13.6c-1.3 1.3-3.3 2-5 3a10 10 0 011.2-2c4-4.2 8-8.2 12-12.6 2.7-3 5.5-6.2 6.8-10.9l-7.5-3.8a28.2 28.2 0 01-2.7 3.2c-.5.3-1.3.2-2 .3l.9-4-6.8-5.8a10.5 10.5 0 01-3.5-12.2 6.7 6.7 0 00-.2-5.4 52.5 52.5 0 01-2.9-35.3c4.6-18.8 12-37.9 23.1-54.4a7.6 7.6 0 010 2.6 97.7 97.7 0 01-4.4 9.9 214.4 214.4 0 00-18.2 52.2 19.3 19.3 0 00.8 12.4c1.6 3.8 2.8 7.6 4.5 11.4a4.5 4.5 0 002.4 2.4c3.1.9 4.9 3.2 6.8 5.5 2 2.5 4.2 4.9 6.5 7.5l3.8-2-.9-3.2 2.7-1a372.3 372.3 0 0120.4-56 72.7 72.7 0 0114.4-23 4.4 4.4 0 00.6-1.2zM792.4 519.3l2.4 3.9c1.1 2 2 4.2 3.4 6.1 2.4 3.7 2.8 3.8 7 2.7l3.3-.6c-4 5.2-8 5.8-16.5 2.7l-7.4 13.8c-2.4 4.6-6.4 8.3-8.5 14 6-.3 11.2-.7 16.3-.2s10.7 0 16 0h15.7c5-9 6.4-10.2 11-9.2-4.5 1.4-6.6 4.6-8.1 9h15.3a8.5 8.5 0 00-1-7c-2.3-3.9-6.5-4.3-11.3-5.2 5-1.2 6.6-1 9.5.6 4.6 2.5 5.4 7 5.3 11.8 4.8 0 9 .3 13.1-.2a83.6 83.6 0 00-2.5-24.3c-2.8-11-6-21.8-9.1-32.6a329.7 329.7 0 00-14.7-42.1c-2.1-4.6-4.5-9.1-7.1-14.3-.7 4.6-.8 8.4-1.9 11.9-1.5 4.8-3.8 9.3-10.1 9l.6 9.7v9.8c0 .8.3 2 .7 2.1 2.4.6 1.7 2.3 1.3 3.7-1.8 5.8.5 10 5 13.6 1.2 1 2.3 2.3 3.4 3.3-7 13.1-12.5 18.7-18.3 18.8l1.3-3.1c-9.2-4.8-10.6-13.2-10.4-23-3 5.3-2.7 10.4-3.7 15.2-.2 2.3-.8 4.6-.5 6.8.2 1.5 1.6 2.9 2.4 4.3s1.8 2.7 4.2 2.1a29.7 29.7 0 01-6.1-13.1zm24.4-208.8c-1.6 3.6-3.2 7-4.7 10.7-1.4 3.4-3 6.4-6 8.8-1.9 1.4-3.3 3.4-5.4 5.6 3.4.1 6 .7 6.2 3.9.7 8-1.6 15-7.4 20.4-2.8 2.6-6 1.4-6.6-2.3a21.8 21.8 0 012.7-15.4c0-.2.5-.2.7-.3a28 28 0 00-2.5 14.4c.6 3.5 2.7 4.7 5 2.4a23.5 23.5 0 007-18.3c-.2-2.6-1.6-3.5-4.3-3a36.2 36.2 0 00-5.3 1.8c.8-3 2.7-4.8 4.7-6.5 6.4-5.7 9-13.3 11.2-21-.7-.6-1-1-1.4-1.1a98.6 98.6 0 00-28.9-2.7c-.9 0-2 1.4-2.5 2.3-1.8 3.1-3.1 6.6-5.2 9.5-7.6 11.1-15.1 22.3-23.2 33a696 696 0 00-49.4 73.8 5.7 5.7 0 00-.8 4c1 3.5 2 7.4 4.2 10.2 4.4 5.7 9.5 10.8 14.5 16a78.4 78.4 0 007 6.2c3 2.5 6.3 4.7 9.2 7.2 7 6.2 14 12.5 20.9 18.9 3 2.8 5.7 6.2 8.6 9.3l6.9 7.2c2.2-3.4 3.8-6.5 6-9.3 5.1-6.4 12-10.3 19.6-13 2-.7 3.8-1.7 6-2.7-2.4-2.9-4.4-5.3-6.5-7.6-4.3-4.7-9-9.2-11.6-15.2a56 56 0 00-12.4-17c-2.7-2.7-5.2-5.6-8.2-7.7-4.3-2.9-9-5-13.6-7.5a10.2 10.2 0 00-10.3-.1c-2 1.1-4.1 2-6.9 1.1 8-7.3 15.9-6.7 23.6-.6 5.5-3 10.2-6.3 13.7-11.3l-2.9-4.2a53.9 53.9 0 01-8.2-19.4c-1.8-8.7 1-16.3 6.5-22.7 4.6-5.5 10-10.3 15.2-15.3l2.5-2.1c.3 3.3-1.2 5.1-2.7 6.7-4.2 4.3-8.5 8.4-12.8 12.5-.7.8-1.8 1.4-2.3 2.3-3 5.1-4.6 10.6-3.6 16.6a45.2 45.2 0 0010.6 23.2 246.9 246.9 0 0018.6 18.6 55 55 0 0114.8 20.3l2.4 6c.7-3 1-5 1.7-7.1s1-4.5 4.3-5.5a24.3 24.3 0 00-3.2 19c.2 1.2 1.3 3 2.2 3.1s2.7-.8 3.4-1.8a19.6 19.6 0 002.7-19.1c-.6-1.7-2.5-3-4-4.4a9.5 9.5 0 00-1.9-1.2l.3-.6 6.1 1.6c-2.8-6.2-5.2-12-8-17.5-4.5-9-9.4-17.7-13.9-26.7-6.2-12.5-3.9-23.8 4.4-34.7a165 165 0 0013.2-19.9 167.2 167.2 0 0016.2-43.9c.5-2.4.4-4.9.6-7.9H818a39 39 0 01-1.7 16.8c-.2 1 .3 2.1.4 3.1zm254.8 459.8h99l-1-5.5c-1.2-6.6-2.8-13.2-3.4-19.9q-2.2-22-3.6-44a1354 1354 0 01-2.8-79.8c.1-12.7 1-25.4 1.1-38 .1-5-.8-10-1.3-14.7-6-1-124-.7-127 .1.3 4.3.9 8.5 1 12.7l3 86.4a16.2 16.2 0 002.4 8.4 35 35 0 013.4 7.7c1.3 4.1.6 6-3 8.3-1.4 1-2.4 1.8-2.4 3.6.2 5.7.2 11.3 2.5 16.7a228 228 0 0026.8 50c1.8 2.5 3.4 5.2 5.3 8zm-414.7 0c-.8-5.1-1.7-9.7-2.2-14.4-1.1-11.8-1.9-23.7-3.2-35.5a271.8 271.8 0 01-.3-46c.3-5.3 1.3-10.6 1.6-15.9q2.1-33.8 2-67.6v-22.4c-5.3-1-117.9-.9-121.4.2l.4 2.7c3 15.4 5 31 4.7 46.6-.3 10.5-1 21-1 31.5-.3 39-.4 78-.5 117 0 1.3.3 2.7.4 3.8zm111.8-202.2H657.5v7.2c.4 7.2 1 14.4 1.2 21.6a563.5 563.5 0 01-2.5 70 274.5 274.5 0 00-1.2 43.6c.8 13.8 2.1 27.5 3.5 41.2.6 6.2 1.9 12.3 2.9 19 2.5 0 4.5-.2 6.5 0 2.4.1 3.6-1 4.6-3 1.9-4 4-7.9 6-11.8l35.6-68.9c.7-1.2 1.1-2.5 1.6-3.6l-4.6-3c1.4-4.7 2.5-9.4 4-14 5.4-15 14.1-28.2 23-41.3 3.2-4.7 6.7-9 9.8-13.8 8.7-13.2 13.2-28.6 20.8-43.2zM887 663c-10.1.5-20 1-29.9 1.3-4 .1-6.4 1.5-8.4 5.2a137.7 137.7 0 01-30.2 37.5c-12 10.3-23.1 21.6-34.7 32.4-1.8 1.7-2.1 3.5-1.8 5.9.7 6.2 1.1 12.4 1.6 18.7.1 1.4.1 2.8-2.3 3.4-4-6.4-2.4-14-3.8-21.9-8.8 8.3-17 16-24.8 24.6a10.8 10.8 0 002 .6h165.5a11.6 11.6 0 001.9-.3l.4-.3.4-.5-.5-5-4-23.5-2.5-12.5-5.6-30a7.8 7.8 0 00-1.1-3.4c-4.1-5-8.4-9.7-12.2-14.2-6.6 1.2-12.8 2.3-19 3.2a179.4 179.4 0 01-31.4 1.3c-1.4 0-3 .1-3.7-2 .6-.3 1-.6 1.4-.6a373 373 0 0052-3.8zm18-95c-15 0-29.3-.2-43.8 0 .2 15.9-2.6 30.7-5.4 45.4-2.2 11.3-4 22.6-8.3 33.3l-2 4.6a42.4 42.4 0 011.4-8.4c5.1-21.5 9.5-43.2 11.4-65.2.3-3 0-6.2 0-9.5h-15a28.9 28.9 0 01-3 4.5c-1.9 2-3.8 4.2-6.2 5.5-4.7 2.6-8.7.6-10.2-4.5-.5-1.8-.7-3.6-1-5.5h-33.6c0 16.6.3 33-.1 49.2s-1.7 32.4-2.6 48.6a8.3 8.3 0 001.9.4c9-.6 18.1-1 27.2-1.8 12.3-1 24.6-2.4 37-3.3 9.7-.6 19.4-.7 29-1l8.4-.5 19-.3c1.6-30.8-.6-60.9-4.1-91.6zM893.4 183c.7-8.5-5.6-22.6-12.2-27.2a72.8 72.8 0 00-10-6.2 48 48 0 00-30.6-4.8 85 85 0 00-17.2 6 57 57 0 00-29.8 26.7 19.3 19.3 0 00-2.3 11.6c2.3-.7 4.4-1.4 6.5-1.8 3.7-.8 7.3-1.9 11-2 4-.2 5.7 2.1 5.3 6.1-5.1-3.9-5.1-3.9-11.9-2.2-3.4.8-7 1.6-10.4 2.7a4.3 4.3 0 00-2.4 2.4c-2.6 7.4-5.2 14.8-7.4 22.3a58.3 58.3 0 00-1.5 28c1 4.7 2.3 9.2 5.5 13.2a33.5 33.5 0 0021 12 47 47 0 0032.2-5.2c9.1-5.2 17.9-11 26.6-16.8a18.8 18.8 0 006-6.4c3.7-6.8 6.9-14 10.3-21 .3-.7.9-1.4 1.7-2.7l1.7 4.5 9.2-9c4.3-4 6.2-8.8 4.8-14.8a40 40 0 01-.4-4.7c-.5-4.7-3.6-7.2-8.3-6.6a35.4 35.4 0 00-3.8 1c.6-4.3 3.7-4.3 6.4-5.1zm149.4 587.4l-2.9-7.7c-1.6-4.6-3.1-9.1-1.7-14.2a17 17 0 000-6.5q-2-16.3-4.4-32.6a35.1 35.1 0 00-2-7.6c-3.3-8.5-6.9-16.8-10.1-25.3a6.5 6.5 0 00-5-4.3c-8.7-2.6-17.7-3.4-26.7-5a392.7 392.7 0 00-73.4-5 29 29 0 00-3 .4c0 1.8-.3 3.3-.2 4.8.3 7.8.8 15.6.8 23.5 0 3.6 1.4 6 3.8 8.5a466.4 466.4 0 0146 52c1.4 1.8 2.9 3.3 4.4 5 3.3 3.7 7 7.3 10 11.2 1.8 2.4 3.8 3 6.7 3h53.1l4.6-.2zm-9.5-97.6l-5-7c-2.4-3-5.2-6-7.3-9.1-6.6-9.6-12.8-19.4-21-27.7a26.9 26.9 0 01-2.3-3l-4.4-6c-1.5-2-3.4-4-4.8-6.3a333.3 333.3 0 01-22.9-42.6c-1-2.5-2.6-3.3-5.3-3.3h-49a24.8 24.8 0 00-3 .5 442.5 442.5 0 015.3 91h7.4a402 402 0 0183 7.1c9.4 1.8 18.7 4.1 29.3 6.5zM674.7 770a7.3 7.3 0 001.6.6h69a7.2 7.2 0 004.4-2.1c8.5-8.2 16.7-16.5 25.1-24.7a6.3 6.3 0 002-5.4c-.3-6.5-.7-13.2-.1-19.7 1.2-13.4 3-26.7 4.5-40l.7-9c-9 .8-17.2 1.3-25.3 2.5-9.5 1.4-18.7 4.3-28.3 4-4.4 0-6.4 1.8-8.2 5.5-6.9 14.4-14 28.7-21.3 42.9-6.4 12.5-13.3 24.8-20 37.2l-4 8.2zm107-103.3a686 686 0 002.7-98.5h-11l-1.7 3.6-13.6 31a59.2 59.2 0 01-14 20.3 24.9 24.9 0 00-3 3.6 186.3 186.3 0 00-25.5 46.3 5.5 5.5 0 000 1.6l4.3-.7c3.1-.4 6.2-1 9.3-1.2 4.1-.4 8.4-.1 12.5-.9 10.5-2 21-4 31.6-4.5l8.5-.6zm186-98.7c.6 1.7 1 2.9 1.6 4 8.6 20 21.1 37.6 33.8 55.1 7 9.5 13.7 19.1 20.7 28.6 2.3 3.2 5 6.1 8 9.8l-2-97.5zm-187 168.6l1.3.4 9.2-8.6c9.3-8.7 18.2-17.7 27.8-26a136.7 136.7 0 0027.2-34.5 24 24 0 001.2-3l-61 4.8c-1.8 22.6-7 44.4-5.7 66.9zm197.6 33.7l-3.8-4.6-27.9-31.1c-9.2-10.4-18.3-21.4-29-30.7l-2.7-2.2 12.9 68.6zm-217-342.8c2.7 1.6 5.3 2.6 7 4.4 6.9 6.4 14 12.7 18.3 21.3 4 7.9 8.7 15.1 15.4 21a30.4 30.4 0 012.7 3.3c3 3.6 5.1 7.4 1 12 2.4 0 3.5-1 3.6-2.6.6-6.9 2.4-13.7.5-20.5a126.2 126.2 0 00-5.6-16.4 46 46 0 00-15.8-19.4c-4-2.9-7.6-6.5-11.3-9.9-1.5-1.3-2.8-2.8-4-4.2-1.8 2.3-3.2 4.4-5 6.1a66.2 66.2 0 01-6.7 4.9zm78.4-140a95 95 0 0034.4-5.2l-.6-12c0-4 .3-8 .2-11.8s1.6-7.8.8-11.5L842 269c2.6 6.4-2.3 12-2.4 18.4zm201.6 436.4l-1.1.5.4 4.6c.6 8 2.6 15.8.7 23.9a8.6 8.6 0 00.6 4l4.4 13.8h10.4c3.6 0 7 .2 11.4-.4a214.6 214.6 0 01-26.8-46.4zm-98.8-236.5c.9 5.3 1.6 10.5 2.6 15.6a6.2 6.2 0 002.7 4 87.7 87.7 0 0011.3 4.1c1 .3 2.3-.2 3.4-.4-.7-9-11.4-21.6-20-23.3zM909 688l1-.3-1-24.9c-5.4-.8-14.6-.3-18 1 4.8 9 12.2 16 18 24.2zM787.1 491.9c-4.5 3.4-8.4 6.9-10.5 12-.9 2-1.3 4.2.5 6s3.7 2.2 6.7 1c2-.9 4-1.6 5.9-2.3l5-10zm33 19.8c-5.6-3.6-8.7-8.2-8.7-14.5a4.2 4.2 0 00-1.4-2.8c-1.3-1.1-2.9-1.8-4.7-.7s-3.7 2.2-3.2 4.6a38.4 38.4 0 002.1 7.7 25.1 25.1 0 0011.5 12.8zm121.7-4l-1.6-22.4-5.4-2.8c-4.2 2.3-8 4.3-10.4 8.5a34.6 34.6 0 0117.4 16.6zm4 13l-17.1 20.7 2.9 3.5a29.6 29.6 0 0011-7.5c4.2-4.8 6.4-10.2 3.1-16.8zm-148.2-20l.9 8a20 20 0 0010.4 17.5l6-6.1c-8.8-4.2-13-10.7-14.4-22.6l-3 3.3zm127.8-16L915 473.6l-3.3 1.3c-1.9 1-2.2 3.3-1.1 5.4 2.2 4.3 4.6 8.4 9.9 10zm-85.1 84.5l-.6-1h-14a21.5 21.5 0 000 3c.5 5.6 4.5 7.6 9 4 2.2-1.6 3.8-4 5.6-6zm183.8 105.3c2.6 6.3 4.6 12.7 7.8 19 .6-1 .8-1.1.8-1.4l.1-9.8c0-5.7-2-7.6-8.7-7.8zM800.8 484.9l-10.8 5 6.3 7 6.5-5.7-2-6.3zm34.7-202c-5.8 1.3-11.3 1.6-16.2 4.3a92 92 0 0012 .4c3.4 0 3.4-.1 4.2-4.7zm201.8 402v4.6c3.3-1.7 1.5-3.2 0-4.6zm-318.8-6.7l-1-1a23.1 23.1 0 00-1.7 1.8 9 9 0 00.9 1zM276.5 785.3a8.5 8.5 0 00-2.2 1.6l-6.4 9.6c3.2 1.5 6.4.8 9.6 1 3.4.4 6.9.4 10.3.7l10.3 1.2a112.4 112.4 0 009-15.3l-10.4-10.6.3-.2 10.3 9.5c3.4-4 3.8-9.3 8-12.2a148.3 148.3 0 01-15.2 29.6c4 1.2 7.6 2.4 11.2 3.2 9.4 2 13.6 6.4 15.3 16a40 40 0 01-3 21v-3.2a32.8 32.8 0 01.6-3.2 34.4 34.4 0 00-1.8-21.7c-2-4.3-5.4-6.7-10.8-6.2-2.7 5-5.3 10.2-8.1 15.2-1 1.7-.4 3 .5 4.3l6 9.3-.7.6-8-9.9-5.6 11.4c7.8 2.3 16.1 1.7 22.9 6.5-1 0-2 0-2.9-.2-6.6-1-13.1-2.4-19.8-3-1.7-.2-4.3 1.3-5.4 2.9-3.2 4.3-5.8 9.1-8.8 14l3 3.5-4-2.1-6 7.8-.7-.5 5.1-8.6a60.4 60.4 0 01-4.8-5c-2.3-3-4.3-6.2-6.4-9.3-.9-1.4-1.2-3.6-3.4-3.2s-5-.7-7 1.7l-13.1 16.8 8.7 7.2-10.1-5.7-6.6 8.5h18c.6 0 1-.6 1.6-1a37.5 37.5 0 005.9 1c9.5 0 19-.5 28.6.1 12 .9 24 2.4 35 7.8 4.9 2.3 7.8.7 8.3-4.7a25 25 0 00-5.9-20.2 13.6 13.6 0 01-2.3-3.2c3.3 2.4 6.2 5.3 7.4 9.2a71 71 0 012.5 13.3 8.8 8.8 0 01-3 7.6c-.6.6-.5 1.8-.8 2.7l-3.5-.6c7.2 13.8 5.5 26.6-2.3 39.4 4 5.5 4.4 12.4 5.5 19.2l-1.2-4a92 92 0 01-1.1-4.5c-1.3-5.7-4-9.7-10.4-11.4-4.7-1.2-9-4-13.6-6a15.3 15.3 0 00-3.5-1.5c-1.5-.3-2.4.5-2 2.2-1.4-2.2-2.6-5-6.3-2.5a67.5 67.5 0 01-2.9 6.5c-1.2 2.2-.6 3.7 1 5.3a30.9 30.9 0 014.7 5.2c2.3 3.6 5.8 4.4 9.6 5 2.4.5 3.5-.5 4-2.7-1.3-1.7-2.6-3.3-3.6-5-2.2-3.6-4.2-7.3-6.2-11l11 15 6-7.1.7.5-5.4 8.3c2.4 2.4 4.7 5 7.4 7 4.2 3.2 8.7 6 13.3 8.8 5.3 3.3 8 7.8 6.7 14.1a51 51 0 01-2.6 9c-1.2 2.8-3.6 4.3-6.6 5.1a7.8 7.8 0 00-3.6 2.7 15.5 15.5 0 01-7.7 5c-4.8 1.6-9.4 3.6-15 2.6l-1.1 10.9a34.2 34.2 0 01-6.7 16.8c-3.4 4.8-7.4 8-14 6.6l1.3 7.7c-3.4-1.4-3.7-4.6-4.1-7.5-1.6-11.8-2.1-23.7.5-35.5 1.1-5 2.6-10 4-15-4.2-1-7.9.4-11.4 2.7v5.8l6 .3c-.9 4.8 1.8 10.5-5.5 12v7.8l4.5 4.1c-.5 2-1 3.7-1.2 5.3-.3 2.2-2 3-3.1 4.5-.8 1-.4 3-.5 5l4.3-3.3-.6 13.8h7c3.3-.9 6.6-1.9 10-2.6 8.6-2 15.7-.2 22 6.7a46 46 0 0112.5 29.1c.5 8.8.4 17.6.5 26.3v12.8c1.6 1.4 4.8 1.9 3.8 5-.5 1.4-1 3.8-4.4 2.7l3.8 27.2a32 32 0 0114.1 7.8c13 12.9 14 27 2.8 41-2.7 3.4-5.4 7-9.8 8.4a4.7 4.7 0 01-2.3.3c5-3.5 8.3-8.5 11.8-13.2 5-6.7 5.6-14.4 4.3-22-.9-5-4.7-8.9-8.7-12a40.7 40.7 0 00-9.1-4.8 24 24 0 00-13.4-1.5c-3.2.5-6.5.8-9.7 1.6a14.4 14.4 0 00-5.8 2.8 24.1 24.1 0 00-7.6 10c-.4 1.1-.7 2.2-2.4 2.3-2 .2-2.1-1.4-3-2.4a76.3 76.3 0 00-6.8-8.2 15.1 15.1 0 00-9.9-3.6 79.8 79.8 0 01-12.4-2.2c-1.3-.3-2.5-1.3-4.3-2.3 3.4-1.6 6-.6 8.5-.2 2.3.3 4.7 1 7 .9 8.9-.4 14.8 4 19.3 11.1l1 1.6c0 .2.2.2.5.4 1-2.1 1.8-4.4 3.2-6.3 3.6-4.7 7.9-8.3 14.4-8.6 4.8-.3 9.5-1.2 14.8-2-1.2-4.5-2-9.1-3.7-13.4-1-2.5-3.4-4.4-5.5-7l1.8-3.3 3.2 2.5v-6.4c-3 0-6.2-.3-7.7-3.6-.7-1.5-1.6-3.1.5-5.2.8 1.7 1.1 3.2 2 4.2a7 7 0 004 1.8c-2.3-2.6-.1-6.8-3.7-9l5.3-1.4v-11.5c0-4.3.2-8.7.1-13.1-.2-14-3.6-26.7-14.7-36.3a15 15 0 00-11.8-3.5 51 51 0 00-27.5 12.3c-13 11.3-24 24.3-31.5 39.9-1.8 3.8-3 7.9-4.6 11.8l-1.2 3.4c-3.2-5.5 0-9.8 0-14.2-3.4 4.4-7.7 8.5-8.2 14.5a103.7 103.7 0 000 17.8c.6 7.6 6 12.8 13.3 14.3a67.6 67.6 0 016.6 2c2.4-7-2.4-10-6.9-13.5.9-.7 1.4-1.5 2-1.5a25.4 25.4 0 0112.6 2.9c5.3 2.5 8.5 9 7.7 16.3-3.1-7.3-5.1-14.7-14.3-15.5.7 2.3 1.8 4.3 2 6.5s-.5 4.3-.9 6.7H241c4 7.7 5.5 16.7 12.3 22.8 1.9 1.7 3.8 3.3 5.8 4.8 2.2 1.7 4.8 3 6.8 5a25.3 25.3 0 0018.5 6.5 44.7 44.7 0 018.7.5 9.4 9.4 0 01-2.6 1c-10 1-19.2 0-27.2-7-4.4-4-9.6-7-14.6-10.7-9.8 6.7-20.4 12.8-27.7 23-10 14-14 29.5-12.5 46.6 1.3 15.3 8.4 28.1 17.3 40a55 55 0 0020.2 15c8.5 4.4 17.2 8.4 25.8 12.6a90.2 90.2 0 0126.4 20.2 34.1 34.1 0 019.5 22.4c.5 12-5.2 20.6-15.2 26.7a13.2 13.2 0 01-9.6 1.4 67.2 67.2 0 01-23.8-9.4 7.5 7.5 0 01-2.6-3l2.6 1 21 8c5.7 2 10.6.6 15.2-3.3 12.4-10.5 12.4-26.6 2.3-39.1a74.2 74.2 0 00-26-20.5c-6.5-3.2-13-6.2-19.5-9.2l-3-1.4a71.5 71.5 0 01-41.4-45c-9-25.6-3.8-61.6 27.4-80.5l12.8-7.6-10.7-21.9c-9.3-1.2-16-6.1-16.8-19.5a84.8 84.8 0 01.7-16.3c.9-6.4 5-11 9.7-15.1a17 17 0 013.8-1.9c7.6-21.7 8.4-25.7 6.1-45.3h-5.9c-3.6.2-6.7-1-9.9-2.5a38.6 38.6 0 01-20.5-25.5c-1.3-4.3-2.3-8.8-3.4-13.3a40 40 0 01-4-2.1c-1.6-1-1.8-2.6-.5-4a11.7 11.7 0 013.7-2.8 90 90 0 0112-4.3c10.7-2.7 21.5-5.2 32.3-7.6 7.7-1.7 15.4-3 23.2-2.9 4.6.1 7.6-1.3 9.4-5.9 2.6-6.3 5.7-12.4 9-19.6-1.5 9.3-6.1 16.3-9.8 24.2h9.8l10.3.3c3 0 6-.4 9.7-.7 1.2-2.6 2.6-6 4.3-9 2.8-5.5 5.2-11 10.5-14.7a23.8 23.8 0 01-1.4 3.3c-1.5 2.5-3.3 5-4.7 7.6l-6.9 14c8.7.9 16.8.8 23.5 5.9 4.2-3 6.2-6.3 7-12.8.6-5.1-.7-9.5-5.6-12.3-2.6-1.4-5-3.1-7.7-4.5a20 20 0 00-4.3-1c-.2-.5-.2-1.2-.4-1.4-3.8-1.5-7.5-3.1-11.3-4.5-.7-.3-1.7.4-2.7.6-.7-.7-1.5-2-2.4-2-6.2-1-12.4-1.5-18.6-2.3-3-.4-4 2.2-6.3 4l.6-4.1c-3.7.5-7.3.7-10.7 1.4-7.2 1.6-14.3 3.7-21.5 5.1-3.3.7-4 3.7-6.6 5.6v-3c-.2-.1-.5-.4-.7-.3l-27 9.5c-8.4 3-15 8.4-20.4 15.2a13 13 0 00-1.5 15.7l1.3 2.5a13.2 13.2 0 01-1.8-18.3c2.9-3.8 6.6-7 10-10.4 5.5-5.3 12.8-7 19.6-9.6 7-2.7 14.2-5 21.2-7.7a6.3 6.3 0 003-2c2.3-3.5 4.4-7.1 6.7-11L232 915.5l.4-.9 19.3 9.6 10.2-15.7 1 .6-2.2 4.4c-1.9 3.2-4 6.4-5.7 9.7-.5 1-.3 2.3-.4 3.7-2.5.4-4.6 3-7.2 10 4.3-1 8.3-2.2 12.4-3 6.3-1.2 12.6-2.4 19-3.1 2.5-.3 4-1 5-3.4s2.2-4.4 3.3-6.7l-3-3.8.4-.5 3.5 2.3 4.6-8.8a10.4 10.4 0 00-2.6-1.2c-12.3-1.3-24.6-3-36.9-3.6a80 80 0 00-34 6c-3.5 1.5-7.3 2.5-10.8 4.2-15.7 7.8-22.2 21.3-22 38.8 0 2.7.9 5.4 1.5 9a12.7 12.7 0 01-3.5-8.5c-.6-15.4 3.9-28.5 17-37.6 3.5-2.5 7.6-4.2 11.5-6.2 1.3-.6 2.3-1.1 1.3-2.7 1.9 1.3 3.7.8 5.7.3l16.2-4.2 6-2-.2-.1a33.1 33.1 0 004.4.8c6 .5 12.1.6 18.2 1.2 4.5.5 9 1.5 13.4 2.3a39 39 0 0013.2-.2l-11.4-18.9-10.2 13.6-.7-.6 9.6-14.9-3-5.8.4-.2 3.9 4 4-6.3c1.2-2 2.5-3.7 3.9-5.8a18.1 18.1 0 00-2.2-.3c-20.6.3-41.3-.9-61.9 1a59.5 59.5 0 00-34 14.3c-.8.7-1.1 2-1.7 3-1 .5-2.4.7-3.1 1.5a22 22 0 00-6.4 18.9 46.8 46.8 0 005.6 15.8l3 5.5c-1.4-.8-2-1-2.2-1.3-4.1-5.4-7.3-11.3-8.5-18.1-1.9-10.9 2.3-19.3 10.6-26 2.8-2.3 5.7-4.4 8.6-6.5 3.7-1.8 7.4-4 11.3-5.4a83.8 83.8 0 0113-3.4 89 89 0 0111.3-1.1 5.3 5.3 0 004.6-2.6c1.7-2.6 3.6-5 5.7-8l-11.4-8.5.5-.7 12 8 13.3-16.6h-10.8c-7.7.2-15.4 0-23 1-13.6 1.4-27 4-39.4 9.9-4.1 1.9-7.9 4.3-12 6.6a42.4 42.4 0 01-3.3-2.7 26 26 0 01-6.6-11.3 48 48 0 01-1.3-19c.8-7.2 6-11.2 11.6-14.5a54 54 0 0121.8-6.6l10-1.2c-5.8-4.4-11.2-7.7-16.8-11.4-4.5 6.1-9 12-14.6 16.9.9-3.8 4-6 6.1-9s4.3-5.7 6.7-8.8l-11.5-8.1.5-.7 11.6 7.2 9.8-16.5 1 .5-8.9 17.2c5.9 4 11.5 8 17.2 11.7a5.4 5.4 0 003.2.4c2-.1 4-.8 6-.7 7.3.1 12-3.4 15-9.8 1.5-3.1 3.5-6 5.4-9l-6.6-4.2 7.6 2.4 9.3-17.2-8.7.9-42 4.5c-4.2.5-8.3 1.1-12.5 1.9a44.9 44.9 0 00-22.2 12.4 15.6 15.6 0 00-4 7.3 26.8 26.8 0 003.7 22.4l3.3 5.2c-1.5-.7-2.4-.8-3-1.3a26 26 0 01-3.3-32.6l2.9-4.3a24.8 24.8 0 002.7-1.8 46.3 46.3 0 0125.5-11l18.2-2a8.4 8.4 0 006.9-3.9 140 140 0 0126-30.6c-1.5 3-4.1 5.2-6.3 7.8l-7 8.3-6.1 8.2-7 9.5 6-.7c15-1.8 29.9-3.7 44.8-5.3a170.8 170.8 0 0117.8-.7 6.3 6.3 0 005.6-2.5c3.2-4 6.7-7.9 10.1-11.8l2.6-3.2c-2.9-3-5.6-5.7-8.2-8.6-1-1-1.7-2-2.6-3.1a58.8 58.8 0 014.8 3.5l7.3 6.8 15-13.2a19.6 19.6 0 019.1 6.7 32.4 32.4 0 017.3 22.2c-.2 3.9-1.6 7.1-5.5 9 4.7-6.6 4-13.5 1.6-20.5-2.3-6.5-5.8-12-12.6-15.5L300 741.3l9.6 12.5c1 1.3 1.8 2.9 2.6 4.3h.1l-6.5-7.2c-2.1-2.4-4.3-5.4-6.8-8.5L285 758c8.6 1.5 16.6 2.6 23.8 6.8a89 89 0 01-9.1-1.4c-15.5-4-31-2.9-46.7-1.3-6.1.6-9.7 3-11.9 8.6-1.4 3.8-3.5 7.3-5.4 11l3.3 2.7-4.3-.9-10 16.1 7.8-1c9.3-.5 18.7-1.2 28.1-1.4 3.3-.1 5.7-1 7.5-3.8l6-8.8c-2.3-1.4-4.2-2.5-6-3.8l-3.7-3 10.2 5.3 9.4-18 1 .5c-2.4 4.9-4.9 9.7-7 14.6a33.8 33.8 0 00-1.6 5.2zm-20.7 17c-3.7-4.1-8.2-2-12-1.9l-12 21 9 6.9 9.5 8c-3-1.7-6-3.4-8.7-5.4-3.6-2.4-7-5-10.8-7.8l-5 7.9c-3 5-3.1 5-6.7 6.8l9.6-16.6c-4.3-4-8.5-8-10.8-13.4l11.6 12 11.7-19.6c-4.7.6-8.6.8-12.4 1.5a508.2 508.2 0 01-30.9 4.6c-6.6.8-13.2 2.4-19.7 4-2.1.5-4 1.9-6.5 3a132.2 132.2 0 0020.2 19c4-8.8 10-15.6 16.6-22a37.1 37.1 0 01-4 6.6l-9.4 13.5c-1.4 2-2 4.1 1 6.5l-3.7-.6-4.4 7.8-.8-.4 3.4-9.2-20.6-20a11 11 0 00-2 1.2l-7.3 6.8c.7 12-.3 24.6 9.7 33.8 3.2-2 6-4 9-5.6a125 125 0 0143.2-11.6c8-.9 16-.7 24-1a22.5 22.5 0 004.3-1.1c3 1.2 6.1.6 9.1-.4a3.8 3.8 0 002.1-1.5l8-16.6c-2.3-2.2-4.6-4.3-6.6-6.6-2.8-3.2-5.3-6.5-7.9-9.8l5.5 5 10 9.9L279 800h-23.4zm-53.4 182.1l1.8 10.3a71.1 71.1 0 006.9 20c5 9.5 17.2 16.5 27.4 15.5a9.6 9.6 0 006.2-2.8 30.3 30.3 0 008-16.7c2.5-12.7 4-25.6 6-38.4l-.4-.8c-8.6-.1-44.6 8-56 12.9zm60-13.6c-1.8 4.6-2.2 9.3-2.9 13.9-1.3 8.8-2.2 17.7-4.2 26.4a32.6 32.6 0 01-10.3 19.6l-2.5 2 1.5 4.7c9.4-6.3 19.7-9 30.7-9.8 0-3.8.3-7.3-3.9-8.7a18 18 0 00-.2-3.5c-.8-2.7-.7-4.8 2.3-6.3 1.5-.7 2.2-5.5 1.5-7l-3.6-1.7v-8.6c0-2 .5-3.4 2.4-4.1a26.4 26.4 0 002.5-1.3v-6l-5.9-.6.6-9.4zm18-85.4c3.6 6.2 7.3 11.8 10.3 17.8 2 4 5 5.1 8.6 4.8 3-4.3 5.7-8.4 8.6-12.3 1.3-1.7 2-3.3.4-5.8l2.9 1.7 11.4-13.4-1-1.1a95.6 95.6 0 00-29.9-5.8 4.2 4.2 0 00-3 1.6c-3 4.1-5.6 8.4-8.3 12.5zm6 84l-.6 1.9c-4 13.5-6 27.2-4.6 41.3.6 5 2.8 6.6 7.5 4.4a10.4 10.4 0 003.3-2.5 29 29 0 008-16.6c.7-8.3.8-16.6 1-24.9a23 23 0 00-.3-3.2l-12-.7a13.8 13.8 0 00-2.3.3zm-6-168.7c-1.1 3-2 5.8-3.2 8.5-1.1 3-2.4 6-3.7 9.1l7 7.5c.8 1 2.2 1.8 2.3 4l-10.7-9.4c-2.7 5.8-6 10.7-8.3 16.3h28.7c1.9-3.5 3.8-7.3 5.9-11 1.3-2.1 1-3.9-.3-6a130.6 130.6 0 01-8.6-14.4c-2-4.2-4.5-5.8-9.2-4.6zm43.2 118c9-10 9.3-30 1.3-39.4L314 892c-1.3 1.4-2 2.7-.7 4.5v.7L311 896a76.1 76.1 0 00-9 13.2zm-82.3 147.5a153.4 153.4 0 0134.6-35.4c-9.2-.4-17.7 2-25.7 5.8a13.5 13.5 0 00-4.2 3 6.8 6.8 0 00-1.8 4c-.1 7.6-.2 15.2-2.9 22.6zm62.7-96.4V984c8.6-1.6 17.2-2 22.8-10.4-7.3-3.4-14.7-3-22.8-3.8zm-23.8-113.6l10.4-16.6c-8.3-1-15.5-.7-23.4-.4a45.4 45.4 0 0013 17zm20.4-35.8l9.2-15.2c-3.4-.8-6.7-1.7-10.1-2.3-1-.2-3 .8-3.3.3-2-2.8-4.7-1.6-8-2zm-5 111l.6-1-7.7-8.5-4.2 8.6zM200.9 990l-.8-5-3.2 2.1zM209.5 249.4a32.7 32.7 0 016.7 26c-.6 3.6-2 7.1-3.2 11.2 1 1 2.2 2.6 3.4 4.3a22 22 0 013.5 20.8l-3 9a6 6 0 01-2.7 3.1 20 20 0 01.3-3.4 61.8 61.8 0 012.2-7.1c4-10.3 1.1-18.7-6.9-25.7l-1.8-4 3.3.2a33.2 33.2 0 00-3.5-32.9c-6.8 2.6-10.2 8.5-15.4 13.2l15.3 22.6c.4.5 1.5.5 2.3.7-.5 1.6-.8 2.8-2.6 4-4.6 2.8-8.8 6.4-13.4 10 3.8 6.5 8.2 12.4 9.6 19.8-4-5.7-6.4-12.4-11.1-18l-17 18.7 25 1.9a57.8 57.8 0 017.1 31.9c-10.7 1.7-17.3 8.4-23.1 16.2-1.5 2-1.8 4.3-1.2 7 3.4 18.3 6 36.6 6 55.1A340 340 0 00196 492a276 276 0 0010.7 42.3c.9 2.6 1.4 5.4 2.2 8.1l2.3 8.7c10-4.9 20-5.6 30.6-3.2-3.2-8-6.2-15.4-9-22.8a249.8 249.8 0 01-13.7-50.2 215 215 0 01-2.7-46.3c1.1-19.3 2.7-38.5 2-57.8-.2-5.7.2-6 5.6-8.3 5-2 10-4.3 15-6.5a10.7 10.7 0 014.5-1c-6.5 6.2-15.3 8-23.1 12.1a29.1 29.1 0 000 3.3c1.6 14 .2 28.2-.6 42.2-.3 4.6-1 9-1.6 13.6-1 7 .3 14 .6 21 1.2 34.8 11.7 67.1 24.9 98.8 1.1 2.8 3.4 3.9 5.9 5.9l-2.5.9c1.3 7.8 4.4 15.1 7.4 22.4.8 2 2.6 2 4.3 2.4 11.6 2.5 23 5.8 33.8 11.2 4.4 2.2 8.5 5 12.8 7.5l-.5 1-5.4-2.3c-6.6-3-13.2-5.9-19.7-9a6 6 0 00-6.6.8c-4.2 3.1-8.6 6.1-13.2 9.3l18.2 17.4c-2-1.3-4-2.6-5.7-4l-14-12c-9 5.7-17.2 12-26.6 16.4l-.6-1 25.2-16.8-5-4.3-4.9-4.8 11.4 7.8 15.3-10.2a6.7 6.7 0 00-1.3-1 140 140 0 00-43.4-6.5 5.3 5.3 0 00-3.4 1c-4.5 4.7-8.7 9.4-13.2 14.3l13.7 13.8-.8.8-13.8-13.2-9.3 12.5c-2.5 3.2-5 6.5-9 8q7-8.8 13.8-17.7c1-1.2 1.7-2.5 2.8-4l-7.9-7.4.7-.9 8.3 6.7 12.5-13.2a21.6 21.6 0 00-3.8-.3c-12.2 1.3-24.4 2.2-36.4 4.2a276.1 276.1 0 01-33.1 3.2c-9.5.4-17.7 4.1-25.6 8.5a7 7 0 00-2.7 3.7c-2.6 8-.8 15.1 4 21.8l4.5 6.7-.7.8a11.6 11.6 0 01-2-1.4c-4.2-4.5-8-9.3-9-15.6a29.8 29.8 0 01-.5-7.5c.6-5.3 2.7-9.8 8-12.3 6.1-3 12-6 19-6.8a17.7 17.7 0 002.7-.8c-4.5-6.1-5.6-13.1-7.4-19.9-.8-3.1-.8-6.5-1-9.8l-.5-11.7c-1-14 .4-27.8 2.3-41.7 2-13.6 4.5-27.1 6.4-40.8a104 104 0 00.7-15c0-4-1.4-7.3-5.6-8.8-2.5-1-4.7-2.7-7.2-3.4-8.9-2.7-13.9-6.9-13.7-19.6 0-4.5-.2-8.4-2-12.6a30.9 30.9 0 01-2-17.4c1-7 0-14.3-.1-21.5-.3-8.4-.5-16.9-2.3-25.2-.4-1.5-.5-3.2 1.8-3.6l.8 3.2c2.2 13.4 2.6 27 2.7 40.6a43 43 0 01-.6 8c-1.2 6.2.8 11.8 2.9 17.2l10.3-12c-6.1-18.2-10.5-37-11.8-56.8h-4.5c0-2 1.3-2.8 2.8-2.2 1.9.7 4.3 1 4.5 4A110 110 0 00125 344c2 10.9 4.3 21.8 6.6 32.6.6 3.1 1.4 6.1 2.2 9.6a22 22 0 002.5-2c1-1.2 1.8-2.6 3-3.6 6-5.2 7.1-11.9 6.5-19.5-.5-6.7 0-13.4 0-20.2a25.8 25.8 0 01.6-4.1c.8-4.4 3-7.2 7.6-8.3 6-1.4 11.7-3.6 17.8-5.5-5-8-3.4-16.8-3.2-25.3 0-2.4 1.2-4.9 2.3-7a7.4 7.4 0 00.3-7c-4.3-10-4.9-20.7-3.8-31.4.3-3.2 2.4-6.2 3.8-9.7-7.8-11-9.5-30.9-3.3-41.4-1.4-3.8-3-7.4-4.1-11a35.9 35.9 0 01-.3-21.4 117.6 117.6 0 002.8-11.9 6.8 6.8 0 00-.5-4 73.8 73.8 0 01-7.4-42.7 4.8 4.8 0 00-.4-2.7 42.3 42.3 0 01-3-29.7l.8-3.7a19.1 19.1 0 015-10.3c1.3.9 1.3 2 .5 3.2-2.8 4.2-3.2 9-4.3 13.8-2 8.5-.3 16.8 2.5 24.8a7 7 0 001.2 1.6l14.6-23.1-2.8-4.2-4.2-6.6 5.1 5.8c1.2 1.4 2.2 2.9 3.6 4.7 5-5.6 9.5-10.8 14.2-15.8 1.9-2 2-3.7.6-5.8-4.7-7-9.2-14-14-21a54.4 54.4 0 00-3.4-4.3l-11.7 13.3c-3.6 4.2-4.6 8.7-1.7 13.7-3-2.1-4.1-5.3-5.3-8.6a59 59 0 01-4.2-19.1c-.2-6.7 1-12.9 7-17.2-1.5-6-2.7-11.9 1.6-17.3l-.5 3.4c-.2 3-1 6-.5 8.8a11.7 11.7 0 01-2.1 10 17 17 0 00-2.8 9.8 50.5 50.5 0 003.4 19.3c2.6-3.2 5-6.2 7.5-9l8-9-9.3-10.1.7-.7 9.7 9 3.2-3 8.7-8.6c1.5-1.4 3.1-2.7 5.4-2-6.3 4.2-10.6 10-15.8 15.6l2.7 3.5a138.5 138.5 0 0117.7 28c.8 1.7 2 3.2 3 4.8 6.1 10.6 4.7 21-.6 31.4l-1.8 3.1c6.1 7.3 7.5 16.4 9.2 25.3 1.9 9.1 1.5 18-3.6 26.8 6.8 7.2 8 16.5 8 26a47 47 0 01-2.7 16.8c-1-2.3-.4-4.7-.4-7 0-6.7 0-13.4-.3-20a20 20 0 00-5-11.7L190.3 176c4.3 8 8 16.5 13.2 23.7a65.8 65.8 0 0111.2 25 30.3 30.3 0 01-5.3 24.8c.7-3.2 1.5-6.3 2-9.6.5-4.6 1.6-9.4 1-13.9-1.2-7.7-4.8-14.7-8.7-21.6a47.6 47.6 0 00-14 14.4c13.7 17.7 17.5 24 17.3 29.8-6.2-9.9-11-20-19.4-28a82.7 82.7 0 00-12.1 19.9c-1 2.2-1.6 4.6-2.4 6.9-.7.4-1.8.7-2 1.3-.7 2-1.6 4.3-1.5 6.4.3 6.5.8 13 1.5 19.6.3 2.4 1.4 4.8 2 7l16.5-18.8-9.3-8.5-7.3-7.1c2.8 1.9 5.8 3.6 8.4 5.7 3.5 2.8 6.7 5.9 10 8.8 2.7-2.6 5.3-5 7.8-7.6a15.3 15.3 0 0110.3-4.8zM168 151.7c1.9-8.3 6-15.6 10-23L165.5 115l14 11.4 9.7-12.7c2.1-2.8 5.3-4.8 6.1-8.9.8-3.7 2.9-7.1 4.2-10.7 3.7-9.7-.5-17.8-5.3-26l-16 18 9.8 14.6-.8.6-10-14.1a77.6 77.6 0 00-14.4 23.9l2.4 3.6c-4-2.4-5-2-5.1 2.2a20.7 20.7 0 000 4.7c1.5 7.6 2.9 15.3 4.6 22.9.6 2.4 2.2 4.7 3.4 7 .6 2.9 3.1 4 5 5.8l16.6 15.9 9.7-11.7a144.9 144.9 0 00-20.2-31l-7.8 15.7c-1 1.9-2.2 3.6-3.3 5.4zm-25.3 408.7c10.2-3.5 20.4-8 31-10.4a109.3 109.3 0 0133.6-2.5c-1-4.2-1.7-7.8-2.8-11.3a299.8 299.8 0 01-11.3-44.7c-3.2-19.6-7.3-39-5.9-59.2a16.5 16.5 0 00-.1-3.3c-2-15.5-3.6-31-5.9-46.6A19 19 0 01187 365c5.2-5.1 10.6-10.3 18.5-11.7a58 58 0 00-6.7-27l-8.5-.9c-8.4-1-16.6-.7-24.6 2.2a95.8 95.8 0 01-13.5 4.1c-2.6.5-3.4 1.8-3.5 4-.3 5.6-.6 11.3-.6 16.9 0 5.3.2 10.6.4 16a11.2 11.2 0 01-2.5 7.9c-4.5 5.4-8.7 11.2-13.8 16a24.6 24.6 0 00-8.3 18.2c-.2 11 3.2 15.1 11.5 17.4a6.7 6.7 0 011.3.5c3 1.5 6.4 2.7 9.2 4.7 3.4 2.4 4.4 6.2 4.6 10.3.7 10.8-1.8 21.2-3.3 31.7-2 13.7-4 27.3-5.8 41-1.8 14.4.3 28.7.8 43.1 0 .3.3.5.6 1zm109 15.5a5 5 0 000-1.3c-2.4-6.7-5.3-13.3-6.4-20.6-.2-1.1-1.8-2.5-3-3a43 43 0 00-30 1.7 20.5 20.5 0 00.7 3.4l6.1 14.2a26.7 26.7 0 01.9 3.1l-1.2.6a23.8 23.8 0 01-2.5-3.6c-1.8-4-3.7-8-5.2-12-3.3-8.8-3.6-9.3-13.1-8.7a116 116 0 00-40.8 8.2c-4.7 2-9.5 3.8-14.5 5.7a44.5 44.5 0 007.5 18.7c6.6-.5 13.3-.7 20-1.5 14-1.7 28-4 42-5.5a136.2 136.2 0 0134.5.2l5 .5zm-50-375.2l-6.2-10.6c-2.2-4-4.2-8.3-6.5-12.9-3.7 4.2-7.3 7.5-10 11.4s-4.3 8.4-6.4 12.6a12.9 12.9 0 010-6c1-4 3.5-7.2 6.3-10.2l8.8-9.8c-4.4-8.2-11.9-12.8-18.1-19.6-.7 2.2-1.3 3.7-1.7 5.3a123.8 123.8 0 00-2.6 12.4 36.5 36.5 0 00-.1 10.7c1 5.8 2.7 11.5 4.1 17.3a2.7 2.7 0 00.7 1.2 158.5 158.5 0 0017.3 14.1zM181 128.5l19.6 29a29.9 29.9 0 003.6-12.5c.8-9.7-1.8-19-4.4-28.1-.7-2.4-2.3-4.6-3.8-7.4a191.2 191.2 0 00-15 19zm11.1 170.9l14.5-10.8-15.7-22.9c-6.5 5-12 10.7-16 18.3zm-19.6-58.9l13-22-8.3-6.9-8.9-7.7c-1.7 13.1-2.8 25.3 4.3 36.6zm.2 80.7L191 301 176 287.1c-2.5 4-4.8 7.3-4.9 11.6v14.5c.2 2.4 1 4.8 1.7 8z"/>
      <path d="M246.5 586.8c1.6 1.6 3.2 3.3 5 4.8 1.4 1.4 3 2.6 5 4.3l-25.3 16.8.6 1c9.4-4.4 17.6-10.7 26.7-16.4l13.9 12c1.8 1.5 3.8 2.7 5.7 4l1.2 1.4-.7 2.7c6.7-2.5 11-7.5 17-10.4l16.4 21-2.6 6.8c11.5 7 18 20.1 14.1 29.2a152.7 152.7 0 00-38.1-17.4c3.2-1.7 6.7-2.3 9.5-4 4-2.3 7.5-5.4 11.2-8.2v-.9l-1.3-.5-1.3-.7c-2.2-1.4-4.3-3.1-6.8-4-8-3-16-6.3-24.3-8.4a174 174 0 00-52.2-4.3l-24.5.6a22.6 22.6 0 01-3.4-.4l.6-1.8-.2.2c4-1.5 6.5-4.8 9-8l9.3-12.6 13.8 13.4.8-.8-13.7-13.8c4.5-4.9 8.7-9.6 13.2-14.2a5.3 5.3 0 013.4-1.2 140 140 0 0143.4 6.5 6.7 6.7 0 011.3.9l-15.3 10.2-11.5-7.7-2.4-2.6-.6.9zM242 902.2l-6 2-16.2 4.2c-2 .6-3.8 1-5.7-.3l-6.7-5.1c-1.2-1.6 0-2.6.8-3.7l13-18.9 2.5-3.7a13.5 13.5 0 00-4.5 4l-12 16.7a31.2 31.2 0 01-3.1 3.2l-16.4-11.4c.6-1 .9-2.2 1.7-3a59.5 59.5 0 0134-14.3c20.6-1.8 41.2-.7 61.9-1a18.1 18.1 0 012.1.3l-3.8 5.9-4 6.3-3.9-4-.5.1 3 5.9-9.6 14.9.8.6 10.2-13.6 11.3 18.9a39 39 0 01-13.1.2c-4.5-.8-9-1.8-13.4-2.3-6-.6-12.2-.7-18.3-1.2a33.1 33.1 0 01-4.3-.8c1.1-1.5 2.5-2.8 3.5-4.4l11.1-16.8 3.5-4.8a3.2 3.2 0 00-2.3 1.4l-11.9 16.9c-1.6 2.4-2.5 5.2-3.8 7.8z" class="cls-1"/>
      <path d="M192.9 614l-.6 1.8a22.6 22.6 0 003.5.5c8.1-.2 16.3-.3 24.4-.7a174 174 0 0152.2 4.3c8.3 2.2 16.3 5.4 24.4 8.4 2.4 1 4.5 2.7 6.8 4-2-.5-4-1-5.9-1.7l-24.4-8a9.7 9.7 0 00-7.3.2c.4-1.8-.8-2-2.2-2.2-8.8-.9-17.7-2.4-26.6-2.5-13.4-.3-26.9.5-40.3.7h-12.1a10.2 10.2 0 00-8 3.3c-3.8 4-8 7.5-11.9 11.3a35.2 35.2 0 00-2.4 2.8 17.6 17.6 0 001.9 1.3c7.2 3.7 14.4 7.4 20.8 12.6a3.5 3.5 0 002 1c4.3-.3 8.9.8 12.2-3-.2 2 1.1 2.1 2.7 2l25.1-2.1a9 9 0 004-2l12.6-10 5-4-14.2-8.4.4-.8 15.3 8.3a66.7 66.7 0 016.1-4c3.2-1.6 6.5-3 9.7-4.4-4.4 3.6-10 5.4-14 9.9 1.5 1.3 2.9 2.4 4.1 3.6l3.7 3.7-.6.5c-2.8-2.4-5.7-4.7-8.5-6.8a84 84 0 00-17.6 13.7l7.7-.6c11.2-.9 22.4-1.9 33.7-.7 8.6 1 10 .3 17.4-6.2a1.3 1.3 0 01.7-.2c5-.3 8.6-3.4 12.1-6.6l1.3.6v.9c-3.7 2.8-7.2 6-11.2 8.3-2.8 1.6-6.3 2.2-9.5 3.9a152.7 152.7 0 0138.1 17.4c3.9-9-2.6-22.2-14.1-29.2l2.6-6.8-16.3-21c-6 2.9-10.4 8-17.1 10.4l.7-2.7a5.8 5.8 0 002.2-.4l12.7-9.1-10-10.8.5-.5 10.8 10.4 6.8-4.8.6.6-6.5 5.4 16.2 20.7c2.3-8 2.9-14.6-1.9-21.4a8.6 8.6 0 015.4 8.4c0 3.7-.5 7.5-.7 11.2v6.8c-1.8-1-2.5.9-3.7 2.8a28.8 28.8 0 0110.5 10.3c3.8 6 6 12.4 4.2 19.6-.6 2.5 1 3.6 2 5.3a23.8 23.8 0 014 15.1c-.5 5.6-2.3 11.1-7.2 14.8a5.2 5.2 0 01-3.6 1l1.2-2.1a15.2 15.2 0 011.6-1.8c7.5-7.5 6.4-16 2.6-24.8a8.2 8.2 0 00-2.7-3.1 97.7 97.7 0 00-55-20.3c-14.2-.5-28.2 1-42.2 2.7-8.4 1-16.8 1.3-25.2 2-3.8.2-7.5.6-12 1l4.4 5.3c-1.2-.6-1.7-.7-2-1-3.5-4.2-8-4.2-12.8-3.4l-35.7 5.5a29 29 0 00-12.4 4.8c-4.6 13.3 1.7 24.2 7 35.3-7.6-9.5-13-19.6-9.9-32.4 1-4 4.2-5.7 7.2-7.4a13.8 13.8 0 015.3-1.9 6.7 6.7 0 006-4.8l-.3 3.8 37-6.2c-7.7-5.8-15.3-9.5-23.3-13.4L147 654c1.4-2.5 2.5-5 4.1-7.3 2.2-3.2 4.7-6.3 7.2-9.5-4.6-3.8-11-5.2-13.8-11.2l15.2 9.3 18.5-16.3a102.5 102.5 0 00-19 0c-3 .4-5.8 1.3-8.8 1.4-7 .3-12.3 4.2-17.9 7.6a8.8 8.8 0 00-2.7 3.7 22.2 22.2 0 00-1.5 14.3c1 4.4 2.3 8.7 3.5 13.3-1.6-.1-2.2-1.5-2.7-2.6-3.1-6.9-4.8-14-3.1-21.5a14.3 14.3 0 016.1-9.2c2.3-1.6 4.7-3.1 7-4.8a13.5 13.5 0 003-2.8c5.4-7.4 10.6-14.8 15.8-22.2l-2.5-4 .5-.4 3.2 2.7 5.3-4.4.5.4-4.5 5.5 3.2 3.4c4.4 4.7 9 9.3 13.2 14a7 7 0 006 2.8c3.6-.1 7.2.7 10.2-2.1zm-49 4.8l32.6-3.4-17.8-18.7a18.7 18.7 0 01-1 2.4L144 618.8z"/>
      <path d="M200.4 664l6.3 4.1c5-5.3 9.6-11.2 16.7-14.5l-7.6 7.6c-2.5 2.6-4.7 5.3-7.1 8l17.3 15-18.7-13.8-14.8 19.6a25.6 25.6 0 002.6.3l31.5-.6a10.7 10.7 0 002.7-.4c.2 0 .1-1 .1-1.4 6 2.7 7 2.4 11.2-2.2l15.2-16-22.1-16.6.7-1 23.3 16.2 11.1-9c-2 4.1-5.6 6.7-8.9 10.3 3.7 2.6 7.3 5 10.7 7.7s6.3 5.5 9.4 8.3l-.7 1c-3.3-2.7-6.6-5.5-10-8s-7.2-5-11-7.6a133.2 133.2 0 00-17.8 18c21.3-.6 41.9-.8 61.3 7.5a26.3 26.3 0 01-2.6-.2l-15.7-3a4.6 4.6 0 00-4.7 1.3c-3.5 3.8-7.3 7.3-11 11-.9 1-2.4 1.9-.4 3.3-1.9-1.2-3.2 0-4.6 1l-7.3 6.5a13 13 0 00-1.6 2.1h22c1.1 0 2.3-.1 2-1.8 5 3 6.6 2.9 10.7-.8 6.2-5.8 12.7-11 20.2-15 1.4-.8 2.2-1.4 1-3 12 1.3 18.7 16.6 11.4 27l1-6.2a17.9 17.9 0 00-6.3-16.9c-1.4-1.2-2.8-2-4.6-.8-7.7 5.5-15.7 10.4-23 17.7 8.3 1.5 16.3 1.4 23.1 5.9-7.2-1-14.4-2.3-21.7-2.8-12.6-.8-25.3-1.7-37.9.5-4.8.8-9.7.8-14.5 2.1s-9.8 2-14.7 2.6c-11.5 1.6-23 3.3-34.5 4.6a84.9 84.9 0 00-33.3 10.1 25 25 0 00-5 3.5c-1.8 1.7-3.5 3.1-6.4 1.2a26.6 26.6 0 00-.4 11.1 37.6 37.6 0 0012.3 21.7 8.2 8.2 0 002.5 1 6.4 6.4 0 01-6-2 33.2 33.2 0 01-11.4-29.8c.3-2.4 1.5-4.7 2.6-7.6a27 27 0 01-7.3-19.7c-.1-6.5.6-10.3 3.3-14.8-.2 2.2-.4 3.4-.3 4.7 0 6-.1 11.9.5 17.7a16.8 16.8 0 005.8 11c2.9 2.5 4.4 2.5 6.7-.4 2.6-3.2 4.8-6.6 7-10 2.1-3.1 4-6.3 6-9.4l-2.7-3.4 4.2 1.9 14-17.6c-.1 2.5-.7 3.6-5.2 9.5l-6.8 9 1.8 2.4c-2-.6-3.6-.4-4.7 1.7-1.6 2.7-3.4 5.2-5.1 7.9l-4.3 6.7a25.6 25.6 0 002.8-.9c6-2.9 12.2-5.6 19-6.5.7 0 1.4-1 2-1.6 1.6.3 3 .9 4.5.7 13.4-1.7 26.7-3.5 40-5.4 2.3-.3 4.6-.8 7-1.3a85.5 85.5 0 00-20.1-14.6c-3.4 3-6.9 6.4-10.5 9.5-2.2 2-4.6 3.6-6.9 5.4h.1l8.3-8.7c2.3-2.3 4.8-4.4 7.6-7a27.5 27.5 0 00-3-2.2c-3.6-2.2-7.3-4.2-11-6.3a45.3 45.3 0 01-4-3.1l19.8 9.9 12.8-9.5.6.8-11.7 9.5.7 1.3c6.3 4.4 12.5 8.8 18.9 13.1a6.3 6.3 0 003.9.8 103.5 103.5 0 0010.6-1.8 10.2 10.2 0 004.6-2l23.9-22.4a25.7 25.7 0 002.2-3l-5.7-.5c-12.1-.7-24.3-2.2-36.3 1l-1.3-.3a31 31 0 00-4.6-.6l-29.6.5-8.4.3a1.9 1.9 0 00-2.2 2 8.7 8.7 0 00-5.8-1.3c-8.3 1.2-16.7 2-25 3.5-5 1-9.8 3.1-14.6 4.8a17.3 17.3 0 01-6 1.4 12.2 12.2 0 012-1.7 76.6 76.6 0 0121.5-7.7 157.6 157.6 0 0121.8-2.7c4.2-.3 7.2-1.6 9.5-5.4 2.8-4.5 6.3-8.6 9.5-12.9l2.7-3.5-5-5.8z"/>
      <path d="M189.9 695a1.9 1.9 0 012.1-1.9c2.9 0 5.7-.3 8.5-.3l29.6-.5a31 31 0 014.6.5c.4.1.9.5 1.2.4 12-3.3 24.2-1.7 36.4-1 1.7 0 3.3.3 5.7.5a25.7 25.7 0 01-2.2 3c-8 7.5-15.9 15-24 22.3a10.2 10.2 0 01-4.5 2.1 103.5 103.5 0 01-10.6 1.8 6.3 6.3 0 01-4-.8c-6.3-4.3-12.5-8.7-18.8-13.2-.2-.1-.3-.5-.7-1.2l11.7-9.5-.6-.8-12.8 9.5-19.8-9.9z" class="cls-1"/>
      <path d="M261.4 1166.4c-1.3 1.6-2.4 2.9-3.5 4a7.7 7.7 0 00-1.9 7.4 37 37 0 007.8 16c5.4 6.7 11.8 12.3 18.5 17.9 10.5 8.6 20.4 18 30.5 27.2l7.2 6.7a103 103 0 0128.8 46c2.3 6.7 4.6 13.4 6.6 20.2a108 108 0 014 52.4 28.3 28.3 0 01-6 12.6c-6.2 7.7-12.3 15.3-21.1 20.4-6.8 4-14 5.6-21.7 4.2a35.3 35.3 0 01-8.9-2.9 83.6 83.6 0 01-31.4-27c-1.6-2.2-3-4.6-2.9-7.6 4 7.3 10 12.8 15.6 18.6a67 67 0 0019.5 13.7 29 29 0 0029.5-2 72.4 72.4 0 0021.7-23.2c2.1-3.4 3-8 3.5-12 2.2-16.6 0-32.8-5.2-48.6l-5-15.2c-5.5-18.2-14.8-34.1-29-47l-31.4-29c-2.8-2.6-5.9-4.7-8.8-7.1a73 73 0 01-21.2-24.8 39.8 39.8 0 01-3.2-9.7c-1-5.4 1.8-9.3 8-11.2zM403.1 1505.1c2.9-2 3-4.5 3-7.4l4.4 5.2-3.1-1.2a47.4 47.4 0 00-2.4 4.4c-3 6.9-8 10.8-15.4 12a48.2 48.2 0 01-16.8 0 27 27 0 01-12.3-5.5c-4.2-3.3-5.2-6.5-3.5-11.6.7-2.4 2.1-4.6 2.9-7 2-5.7 4.4-11.4 5.4-17.3a24 24 0 00-7.3-23.2c-6.4-5.8-13-11-21.1-14.5-8.4-3.6-13.7-10.1-14-19.5-.3-9 4.7-15.5 12.3-20-1.4 1.5-2.9 3-4.2 4.6-4.6 5.6-7.2 11.8-5.5 19.2 1.6 6.8 6 11.4 12.2 13.9a65.4 65.4 0 0124.4 18c5.4 6.2 6.4 14 5 21.7-1.3 6-3.7 12-5.6 17.9a34.8 34.8 0 01-1.6 3.4c-3.5 7.9-2.3 11.9 5.4 15.6a37.8 37.8 0 0029.7 1.2c2-.6 3.5-2.5 5.1-4s1.7-3.3.4-5.4c-9.1-14.9-10-31-7-47.7 2.9-17.3 12.7-30.3 24.8-42a44.2 44.2 0 015-4.4c9.1-6.5 13.8-16 17.6-26.1a20.4 20.4 0 000-14.7 34.7 34.7 0 01-2.2-7.7l2.4 6a21.5 21.5 0 01.6 18c-4 10-9 19-17.5 25.7a88.8 88.8 0 00-16.3 17.6 67.6 67.6 0 00-12.7 31 64 64 0 007 42.6 11.6 11.6 0 001 1.2zM242.8 1474.2c-2.8 5.4-7.8 7-13.4 6.8-8.9-.2-16.3-4-22.6-10-2.8-2.7-4.2-5.8-2.8-9.4 1.6-4.2 3-8.6 5.4-12.4 8.7-14 9.3-28.5 4.5-43.8a63 63 0 00-21.3-31.4 229 229 0 00-17.2-12.2c-6.1-4-13-5.2-20.5-5.1.7 2.3 2.8 3 4.4 4a44 44 0 0115.3 18c5.7 12 3.2 31.6-7.8 40.8-4 3.4-7.8 6.8-12 9.8a262.8 262.8 0 01-24 15.9 31.4 31.4 0 013.6-3.6c5.9-4.3 11.9-8.3 17.7-12.6a143.3 143.3 0 0013.1-10.6c10.8-10 12.7-22.6 8.6-36.2-2.4-8-7.6-14.4-14.5-19.2l-10.2-7c1.6-.6 2.5-1.2 3.4-1.2 9-.1 17.4 1.4 25.1 6.2a91.5 91.5 0 0127.1 23 61.7 61.7 0 0112.4 49.6c-1 5-3.7 9.9-5.8 14.7-1.8 4.2-4 8.2-5.7 12.4-1.7 4-.4 7.2 2.8 10 6 5.2 12.6 8.6 20.7 9a15.1 15.1 0 0012-4.4 7.2 7.2 0 011.8-1zM6.6 1477.6c1.4-1.3 3-2.6 4.3-4 3.1-3.3 6.4-6.5 9.3-10a31.7 31.7 0 006.7-14.8c1.2-6.8-.1-12.5-6.7-16-9.3-5-12.4-13.2-11.6-23.2a78.7 78.7 0 011.4-9.3 72.7 72.7 0 0110.4-24c2.5-4 4.7-8.1 7-12.1a5.9 5.9 0 011.2-1.2c1.8 1 1 2.3.6 3.4l-3.4 15.6c-1 5.6 1 9.8 6 12.5a66 66 0 007.3 3.3c10 3.8 14.7 11.2 15.4 21.6a52 52 0 01-1.7 18.6 135.4 135.4 0 01-11.1 26.3l1-3c3.3-9.7 7.8-19.1 9.4-29.4a46.7 46.7 0 00-.3-16.4c-1.4-7-5.4-11.8-11.8-14.7l-6.9-3c-8.4-4-10.7-8.4-9.4-17.7l.8-4.9a12.4 12.4 0 00-2 1.8 64.9 64.9 0 00-11.7 31.8 44.2 44.2 0 00.4 9.3 15.2 15.2 0 007.2 11l5 3.5a13 13 0 015.8 10.7 29.5 29.5 0 01-4 16.2 52.2 52.2 0 01-18 18.8z"/>
      <path d="M229.4 687.9v1.4a10.7 10.7 0 01-2.8.5l-31.5.6a25.6 25.6 0 01-2.6-.3l14.8-19.7 18.7 13.8zM147 654l13.4-16c8 4 15.6 7.7 23.3 13.5l-37 6.1.4-3.8z" class="cls-1"/>
      <path d="M53.1 1456.5c.3-1 .3-2.2.9-2.8a78.5 78.5 0 016.8-6.5c8.2-6.8 14-15.6 19.1-24.7 2-3.5 2.7-7.6 3.6-11.6.7-3 .7-6.2 1-9.3 1-9-1.4-17.1-6-24.7-1.3-2.2-3.5-3.9-5.3-5.8l-2-2.1a8.3 8.3 0 011.5-.7c6.7-1.2 13.3-1 18.7 3.7a51.5 51.5 0 0117.8 33.2 26 26 0 01-1.8 13.3 74.5 74.5 0 00-3.6 9.7c-.7 2.8-.7 5.9-1 8.8-2.3-2.3-1.2-5-.7-7.4a29.9 29.9 0 012.5-7.6c5-9.9 3.9-19.6-.2-29.4a56.4 56.4 0 00-10.8-16.4c-4.7-5-10.3-7.4-17.7-6.4l1.8 2.6c5.3 7.5 9 15.5 8.7 24.8a150.2 150.2 0 01-1.7 17.7 24.5 24.5 0 01-3 8.4 89.8 89.8 0 01-20.1 25.7c-3 2.4-5.7 5-8.5 7.4zM32.4 1510c1.4-1.8 1.2-3.5.2-5.6-4.1-8.2-2.3-16.4.3-24.6a5.7 5.7 0 011.3-1.9c.1-.2.5-.1 1.2-.3 0 1 .3 2.2 0 3-2.7 5.3-.5 10 2.7 13.8 5.7 7 12.4 9.6 21.7 6.4 11.4-3.9 21.9 3.3 22 15.4.2 8.6-1.2 16.8-6.5 24a7 7 0 01-3.6 2.7 12.7 12.7 0 01.8-1.4A39.6 39.6 0 0080 1516a15.4 15.4 0 00-14-14.6 11.3 11.3 0 00-4.1.8c-12.2 4.3-21.3 1-27.8-10a16.4 16.4 0 00-1.1-1.6 16.8 16.8 0 008.6 19.8 52 52 0 019.6 6.7c1.9 1.5 3 3.8 1.5 7.5-1.2-7-6.3-9.3-10.8-12-2.3-1.4-4.7-2.4-7.1-3.6l-2.4 1.1z"/>
      <path d="M299.9 914.6c2 3.6 4 7.3 6.2 10.9 1 1.7 2.4 3.3 3.6 5-.5 2.2-1.6 3.2-4 2.7-3.7-.6-7.2-1.4-9.5-5a30.9 30.9 0 00-4.8-5.2c-1.6-1.6-2.2-3-1-5.3a67.5 67.5 0 003-6.5c3.7-2.6 4.8.3 6.3 2.5l.2.9z" class="cls-1"/>
      <path d="M500.8 1501.3c-1.9-1.6-4-3-5.5-5q-8.3-10.1-16.2-20.6a35.5 35.5 0 01-6.1-13.1 30.5 30.5 0 011.5-19.8c1.3-3 2.7-6 4.2-8.9 4-8 9-15.6 11.4-25.3 1.4 3.3 1.3 5.7.2 8q-2 4.5-4.3 8.8c-2.8 5.5-5.7 10.8-8.4 16.3a30 30 0 002.5 32 298.1 298.1 0 0020.7 27.6zM892 36.8c.6 4.7-1 9-2.3 13.3-2.6 9.6-7.8 18-12 27-.2.4-.9.7-1.3 1l-.8-.8c3.2-9.3 3-19.1 4.8-28.6l3.7-18a3.7 3.7 0 011.2-2c.2 5.9-.9 11.6-1.8 17.3s-1.7 11.3-2 17.1c5-8.2 6.8-17.6 10.5-26.3zM865.2 68c3-10.8 2.2-22 5-32.7 1.6 10-1.3 36.2-4.7 41.6-1.2-3.4-2.6-6.2-3-9.1-1.5-8.7-3.2-17.3-6.3-25.5-1.3-3.3-2.9-5-6.4-4.8a14.1 14.1 0 01-2 0c2.5-2.3 6-1.9 8.2 1a23.1 23.1 0 012.3 3.5 58.3 58.3 0 016 21.1l.9 4.9zM149.4 1473a24 24 0 00-18.2-.8c-5.9 1.8-8.1 6.2-6.7 12.1a4.4 4.4 0 003.7 3.7l5.1 1a37.3 37.3 0 0127.4 20.7 113.3 113.3 0 015.4 12.5 35.5 35.5 0 011.1 20.8c-.7 3.6-1.7 4.9-5.1 7.6 6.2-9.6 5.7-19.6 1.8-29.8a96.3 96.3 0 00-3.8-9 36.3 36.3 0 00-27-21.3l-2.7-.6c-3-.7-6.4-.7-7.2-4.8-.9-4.5-1-8.7 3.2-11.9 5.2-4 16.5-4.8 22-1.5.5.3.7 1 1 1.4zM968 396.8a61.2 61.2 0 01-31.2-14l-8.7-7.2c-4.3-3.5-8.6-6.8-14.8-6.6 2.4-2.2 3.1-2.6 5.3-1.9a27.2 27.2 0 016.8 3 60 60 0 018.5 6.7c7.4 7 16 11.8 25.6 15.3 3 1.2 5.6 3.2 8.5 4.7zM490.2 1389.8l-1.3-4a59.2 59.2 0 00-23.2-32.6c-4.9-3.3-9-7.7-13.4-11.7a12.6 12.6 0 01-3.2-5.4 11.3 11.3 0 011.8 1.5 90.3 90.3 0 0017.9 15.1 56.7 56.7 0 0121.7 29.8c.8 2.2 1.7 4.5-.3 7.3z"/>
      <path d="M179.7 729c-.7.6-1.3 1.5-2 1.6a62 62 0 00-19 6.5 25.6 25.6 0 01-2.9.9l4.3-6.8c1.7-2.6 3.6-5.1 5.1-7.9 1.2-2 2.7-2.3 4.7-1.6z" class="cls-1"/>
      <path d="M206.8 331.4c5.8-7.3 33.3-10.2 40.1-5.1l-1.8 25.6c-1.8-2.7-1.9-2.7-1.4-11.8.2-4 .6-8 1-12.7a62.4 62.4 0 00-6.3-1 78 78 0 00-27.2 3.8l-4.4 1.2zM852 97.8a20.7 20.7 0 013-3c6.7-4.4 17-3 22.4 3 2.5 2.6 2.6 5 .2 7.8-3.3 4-7.5 6.3-12.7 5.5a12 12 0 01-10.2-9 25 25 0 012.3 1.8c6 6 10.4 6.5 17.4 1.8 1.2-.7 2.3-1.6 3.7-2.7a18.3 18.3 0 00-11.8-7.7c-5-1-9 1.8-13.3 3.4z"/>
      <path d="M277.8 716.8c.4 1.7-.8 1.8-1.9 1.8h-22a13 13 0 011.6-2c2.4-2.3 5-4.4 7.4-6.5 1.3-1.2 2.6-2.3 4.5-1.1z" class="cls-1"/>
      <path d="M295.7 1169.3a30.6 30.6 0 004.6 3.6 12.3 12.3 0 0011 .5 80.2 80.2 0 0012.5-7c4-2.9 9.1-2.8 12 1.2a46.2 46.2 0 014.9 9.5c1.7 4.5.5 7.5-4 11 5.2-6.4 2.2-12.1-1.2-17.7-3.2-5.3-7.7-5.8-12.3-1.5a28.1 28.1 0 01-14.5 7.4c-5 1-10.8-1.2-13.2-5a6.8 6.8 0 01-.5-1.6zM277.6 1106.4c2 2.6 5 2.5 7.6 3a23 23 0 0016.8-1.8c3.3-2 5.4-4.1 4.4-8.2 0-.4.2-.9.5-1.8 2.2 1.6 2.9 3.4 2.2 5.6a10 10 0 01-4.4 5.9c-6 3.7-12.5 4.4-19.3 3l-9.5-2 .1.1-2.7-2.5-4.5 4c1.4-5.2 3.2-6.2 9-5.2zM149.3 1473.1c1.3.8 2.7 1.5 3.8 2.4l4 3.6c0-1.8.1-2.8-.2-3.5a41.2 41.2 0 00-14.1-17.6c-7.5-5.4-15.9-6.1-24.3-7.5a14.3 14.3 0 01-4.3-1.3c11 .6 22 1.4 31.4 8.1a34 34 0 0112.9 19c.4 1.4-.1 2.9-.3 4.3l-1 .4-7.7-8zM191.5 19.8l4.3 8.2a42 42 0 013 36.2 9.6 9.6 0 01-.8 1.7c-.1.2-.5.3-1.5 1 .3-2 .5-3.7.9-5.2 2-8 2.7-16-.2-24-1.3-3.7-3.2-7.2-4.8-10.7-1-2.3-2.1-4.6-.9-7.2zM827.8 49.4c2.3-2.7 5.1-2.4 7.9-2.3 3.7.1 6.7 1.3 8.3 5.2 1.5 3.7 3.6 7.2 5.6 11.2 1.7-3.3 0-6-.2-8.8-.1-2.9-.6-5.8-.2-8.8l3.2 26.1-1 .4c-2.3-3.6-3.6-7.7-5.5-11.5s-3.6-7.6-5.4-11.5zM201.2 951.1l8-12c1.1-1.7 2.6-3.4 0-5.2l2.3 1c4.6-6.9 7.7-14.7 12.6-21.5-1.1 8.6-17 35.3-23 37.8zM308.6 1111.3l3 4.2c-8.9 2.2-14.3 8.7-21.8 14.2.4-2 .3-3 .7-3.6 2.2-3.6 13-12.4 18-14.8zM53 1456.4a22 22 0 00-9 18.5c0 5.7 4.1 9.6 7.5 13.7 1.2 1.4 2.6 2.7 3.7 4.2s2 3.2 1 5c-3.6-4.4-7.2-8.7-10.5-13.3-5.2-7.1-5.4-13.9-.5-21.3a44.6 44.6 0 015.8-6.5c.4-.4 1.4-.2 2.1-.3H53z"/>
      <path d="M256 867.3c-.5.3-1 1-1.5 1h-18.1l6.6-8.5 10.1 5.6z" class="cls-1"/>
      <path d="M277.7 1106.6c.6-1.2.8-3 1.7-3.6a91.5 91.5 0 0113-7.4c4-1.7 8-.9 11.3 2.6l-5.4-1.6 1 6.3 3-2.4c0 .4.4.8.3 1.2-.1.8-.2 1.8-.7 2.1a5.2 5.2 0 01-3.2 1.3 3.1 3.1 0 01-2-2 48 48 0 01-.5-6.7 36.4 36.4 0 00-18.6 10zM313.1 768.2c7.8 0 12.2 4.7 15 11.1 3.5 8 3.6 15.7-1.8 23.1-1.5-1.1-1.6-2-.7-3.3 6-9.5 2.1-23.6-7.9-28.7l-4.6-2.2zM299.6 1059.7l4.5 2.5c-5.7.8-8.2-4.8-13.5-5.2 2.8-2.3 5.2-.4 7.4-.5 2.7-.2 5.3 0 8-.2a73.8 73.8 0 007.5-1.6v6.9l-5.3.7c2-1.8 5.3-1.7 2.8-4.5zM204 900.6a31.2 31.2 0 003.2-3.2l12-16.7a13.5 13.5 0 014.5-4l-2.5 3.7-13 18.8c-.7 1.1-2 2.2-.8 3.7a28 28 0 00-3.5 2.8c-1.3 1.4-2.4 3-4.3 4zM309.2 664.6C301.5 674 293 681 284.5 688c1.1-3.4 19.6-21 24.7-23.4zM195.3 879c-.6-1.3-1-2.6 0-4.1l18.6-28.5c.2-.3.8-.5 2-1.2-.9 1.7-1.2 2.6-1.8 3.4L197.3 875a42.7 42.7 0 00-2 4.1zM169.5 865c-2.6 10.4 1.7 19.5 5.8 29.6-7.7-6.7-10.6-23-5.8-29.7zM412.7 1548.8c1.4-6.6 3.2-13.7 4.3-21 1.3-7.5-1.6-14.3-4.8-21 8.6 9.7 8.2 26.5.5 42zM206.6 971.6c5.7-8.1 11-16.5 20.5-22-6.5 7.9-12.7 15.2-18.9 22.5-.1.2-.5.2-.8.2zM262.5 940.5l-6.7 9.4c-1.2 1.8-1.1 1.9 1 5.2-1.9-1.3-3.2-2.1-4.2-.3s-2.3 3.7-3.5 5.5a18.6 18.6 0 01-2.9 3.3c1-5.4 9.3-17.7 16.3-23zM196.5 739.2a53.1 53.1 0 01-3 4.6c-3.5 4.3-7 8.7-10.8 12.9a21 21 0 01-6.6 4.6l3.6-4.6-4.7-2.8c.3 0 .6-.3.8-.2 5.2 2 5.2 2 9-2l9-10.1a22 22 0 012.9-2.3zM255.9 738.8c1.9 1.2 3.3.4 4.7-.7 4.3-3.4 8.6-6.7 13.3-9.7-.8 1.7-2.4 2.7-3.9 3.8l-5.1 4-5 3.9 1.6 2.4c-5.6-2.3-7.1 4-11.4 5 1.8-1.8 3.6-3.7 5.5-5.3 1.2-1 1.3-2 .3-3.5zM193.7 1c4.8 3.5 4.4 11.8-.7 20.4.3-7.3 3.2-13.4.7-20.3zM313.8 847c-.5 3.4-5.1 4.8-3.5 8.2-4.4 1.4-4.2 7-7.8 9a39.9 39.9 0 0111.3-17.3zM863.9 107.3c-3-3.7-3-6.1-.6-10 .6.7 1.4 1.2 1.7 2 .4 1.1-.5 6.7-1.1 8zM318 1073.5c-.8 4.5-3 8-5 12-1-4.4.8-8.7 5-12zM188.4 8.2L173.3 12c4-3 7.4-4 15.1-3.7zM882.2 26.7c-2 .5-4.4.7-6.3 1.7s-3.4 2.5-5.5 4.2c3-6.7 7-8.5 11.8-6zM865.9 89.6c-3-3.4-2.5-6.3-1.7-9.3 2.3 2.4 2.1 5.3 1.7 9.3zM864 122.3V115c2.5 2.3 2.3 4.7 1.4 7.2zM243 1474.3a6.6 6.6 0 010-2.3c1-2.5 1.5-5 0-7.6-.2-.2.2-.8.3-1.3 2.3 1.5 3 3.5 2 5.6-1 1.7-1.7 3.6-2.5 5.4zM852.6 116.4c.3-3 2.1-4.2 4.5-5.2.3 3.3-.8 4.6-4.5 5.2zM308.1 1071.6a8.7 8.7 0 018.7-1.2l-8.3 2.2zM276.4 785.4c4 1.7 7.8 3.9 10.3 7.7v-.1l-10.2-7.7zM226.8 778.7L216 775l.5-1.2 10 4.9zM873 91.8c-.4-3.2.5-5.2 3.2-7a9.3 9.3 0 01-3.3 7zM162 716.5l-9-4 .5-1.2 4.2 2.5 4.2 2.8zM857.3 88.6l-4.7-5c3.8.1 5 1.8 5.7 4zM301.2 1050.4c1.5-2.9 3.3-2.9 6-1zM161 679l2.6-4.9.8.4-2.7 5.1zM311.7 786.8l3.5 3.2-.5.4-3.6-3zM32.4 1510l1.3 7.7c-1.9-2.3-1.4-5-1.3-7.6zM874 117.2l-1.4-3.9c2.2.6 3.1 1.8 2.5 3.6zM105.6 1444.4c-.5-2.7-3.8-4.3-2.8-7.5v.1l2.8 7.4zM273.3 1100.7l3.5 1.8-.5 1-3.5-1.7zM36.9 1521.3l3.3 1.9-.2.4-3.4-1.6zM200.5 663.8l-4.5-2.3.7-1 3.7 3.5zM105.6 1444.4c2.2-.7 3 1.1 5 2.8l-5-2.8z"/>
      <path d="M196.6 739.3l2.5-3.8.8.7-3.4 3zM276 1110.1l-2.8 3.8c.2-2.8.2-2.8 2.8-3.7zM159.1 684.7l-1.1 2.4-1-.4 1-2.5zM264.4 777.7L260 776l.6-1 3.7 2.9zM244 787.7l-2.7-1.6.2-.6 3 1.6zM331.6 1092.8l-2.1 1-.4-.8 2-1.2.5 1zM305.6 850.5l-1.4-1.8.7-.7 1.3 2zM193.7 723.2l-2.1 2.7a2.2 2.2 0 012.2-2.6zM287 728.9l-3.2-1.4.7-.9 2.3 2.4zM268.1 747.5l-2.5-1.8.4-.5 2.5 1.8zM168.9 750.6l2.4 1.3-.2.4-2.7-1zM312.2 758.1l2.4 2.1-.7.5-1.6-2.7zM280.2 913l-1.8-1.6.4-.4 2 1.5zM286.7 793a3.3 3.3 0 011.3.2 2.5 2.5 0 011.3 2l-2.5-2.2z"/>
      <path d="M1071.5 770.3c-1.8-2.8-3.4-5.5-5.3-8a228 228 0 01-26.8-50c-2.2-5.4-2.3-11-2.4-16.6 0-1.9 1-2.8 2.4-3.7 3.6-2.3 4.3-4.2 3-8.3a35 35 0 00-3.4-7.7 16.2 16.2 0 01-2.4-8.4l-3-86.5c0-4.2-.6-8.4-1-12.6 3.1-.8 121-1 127-.1.6 4.7 1.5 9.7 1.4 14.6-.1 12.7-1 25.4-1 38a1654.1 1654.1 0 002.8 79.8q1.3 22 3.4 44c.7 6.8 2.3 13.4 3.4 20l1 5.4zM657 770.4H537.3c-.1-1.2-.4-2.5-.4-3.8l.4-117c0-10.5.8-21 1-31.5.5-15.8-1.7-31.3-4.6-46.7l-.4-2.7c3.5-1 116-1.2 121.3-.2V591q.3 33.9-1.9 67.6c-.3 5.3-1.3 10.6-1.6 16-1 15.3-1.3 30.6.3 46 1.3 11.7 2 23.6 3.2 35.5.5 4.6 1.4 9.2 2.2 14.4z" class="cls-1"/>
      <path d="M768.7 568.1c-7.6 14.6-12 30-20.8 43.3-3 4.7-6.6 9.1-9.7 13.8a185.4 185.4 0 00-23 41.3c-1.6 4.6-2.7 9.3-4 14l4.5 3-1.5 3.6-35.7 68.9c-2 3.9-4.1 7.7-6 11.7-1 2-2.2 3.2-4.6 3-2-.2-4 0-6.5 0-1-6.6-2.2-12.7-2.9-18.9-1.3-13.7-2.6-27.4-3.5-41.2a274.5 274.5 0 011.3-43.6 563.5 563.5 0 002.5-70c-.2-7.2-.9-14.4-1.2-21.6-.2-2.3 0-4.6 0-7.2zM816.8 310.5c-.2-1-.7-2.2-.4-3a39 39 0 001.7-17h15.6c-.2 3-.1 5.6-.6 8a167.2 167.2 0 01-16.3 44 165 165 0 01-13.2 19.8c-8.2 10.8-10.6 22.2-4.3 34.7 4.4 9 9.4 17.7 13.9 26.7 2.8 5.5 5.2 11.3 8 17.5l-6.1-1.6-.3.6a9.5 9.5 0 012 1.2c1.3 1.4 3.2 2.6 4 4.4a19.6 19.6 0 01-2.8 19.1c-.7 1-2.5 2-3.4 1.8s-2-2-2.2-3.1c-1.3-6.4-1-12.7 3.2-19-3.4 1-3.7 3.4-4.4 5.5s-1 4.1-1.7 7l-2.3-6c-3.2-8-8.4-14.4-14.8-20.2a246.9 246.9 0 01-18.6-18.6A45.2 45.2 0 01763 389c-1-6 .7-11.5 3.6-16.6.5-1 1.6-1.5 2.4-2.3 4.3-4.1 8.6-8.2 12.7-12.5 1.6-1.6 3-3.4 2.8-6.7l-2.5 2c-5.2 5.1-10.6 10-15.3 15.4-5.4 6.4-8.2 14-6.4 22.7a53.9 53.9 0 008.2 19.4l2.9 4.2c-3.6 5-8.3 8.2-13.8 11.3-7.6-6-15.5-6.7-23.5.6 2.7 1 4.9 0 6.9-1.1a10.2 10.2 0 0110.3.1c4.6 2.4 9.3 4.6 13.5 7.5 3.1 2 5.6 5 8.3 7.7 5 5 9.5 10.4 12.4 17 2.6 6 7.3 10.5 11.6 15.2 2.1 2.3 4 4.7 6.5 7.6-2.3 1-4.1 2-6 2.7a41.4 41.4 0 00-19.6 13c-2.2 2.8-3.9 6-6 9.3l-7-7.2c-2.9-3-5.5-6.5-8.5-9.3a888.7 888.7 0 00-21-18.9c-2.9-2.6-6.1-4.7-9.1-7.2a78.4 78.4 0 01-7-6.3c-5-5.2-10.1-10.3-14.6-16-2.1-2.7-3-6.6-4.2-10.2a5.7 5.7 0 01.8-3.9 696 696 0 0149.4-73.8c8.2-10.7 15.7-22 23.3-33 2-3 3.3-6.4 5.1-9.5.6-1 1.7-2.2 2.6-2.3 9.7-.2 19.4 0 28.9 2.6l1.4 1.1a41.4 41.4 0 01-11.2 21 13 13 0 00-4.8 6.6 36.2 36.2 0 015.4-1.8c2.7-.5 4.1.4 4.2 3a23.5 23.5 0 01-7 18.3c-2.2 2.3-4.4 1.1-5-2.4a28 28 0 012.6-14.4c-.3 0-.7.1-.8.3a21.8 21.8 0 00-2.7 15.4c.7 3.7 3.9 4.9 6.6 2.3a24 24 0 007.5-20.4c-.3-3.2-2.8-3.8-6.2-3.9 2-2.2 3.5-4.2 5.4-5.7 3-2.3 4.6-5.3 6-8.7 1.4-3.6 3-7.1 4.6-10.7v9.8c1.4 0 3.1.6 4 0 4.2-3.2 7.2-7.4 7.3-13 0-3-1.5-4.5-3.8-4.9.7 1.7 2.2 3.8 2.2 5.8.2 5.2-4.7 10.8-9.7 12.1v-9.8zM780.6 398l.1-.2a22.4 22.4 0 00-2 15.4c1 4.5 4.1 5.8 8.1 3.4 10.6-6.5 10.5-20.8 2.9-26a50.3 50.3 0 01-4-3.4 999 999 0 00-2.3 4.7l-.8.8-2 5.3zM887 662.9l9.3 16.2c-17.7 2.2-34.8 4-52 3.8-.4 0-.8.3-1.5.6.7 2 2.4 2 3.8 2a179.4 179.4 0 0031.4-1.3c6.2-.9 12.3-2 19-3.2 3.8 4.5 8 9.2 12.1 14.2a7.8 7.8 0 011.2 3.4c2 10 3.7 20 5.6 30 .8 4.2 1.7 8.3 2.4 12.5l4 23.6.6 4.9-.5.5-.3.3a11.6 11.6 0 01-1.9.3H754.7a10.8 10.8 0 01-2-.6c7.8-8.6 16-16.3 24.8-24.6 1.4 7.9-.3 15.5 3.8 22 2.4-.7 2.4-2.1 2.3-3.5-.5-6.3-1-12.5-1.7-18.7-.2-2.4 0-4.2 1.9-6 11.6-10.7 22.7-22 34.7-32.3a137.7 137.7 0 0030.1-37.5c2-3.7 4.5-5.1 8.5-5.2l29.9-1.4zM905 567.8a547 547 0 014.1 91.6c-6.6 0-12.8.2-19 .3-2.8 0-5.6.4-8.4.5-9.7.4-19.4.4-29 1-12.4.9-24.7 2.3-37 3.3l-27.3 1.8a8.3 8.3 0 01-1.8-.4c.9-16.2 2.1-32.4 2.5-48.6s.1-32.5.1-49.1h33.6l1 5.4c1.5 5 5.6 7 10.2 4.5 2.4-1.3 4.4-3.5 6.3-5.5a28.9 28.9 0 003-4.5h15.1c0 3.3.2 6.4 0 9.5-1.9 22-6.3 43.7-11.4 65.2a42.4 42.4 0 00-1.5 8.4c.7-1.5 1.5-3 2-4.6 4.3-10.7 6-22 8.3-33.3 2.9-14.7 5.6-29.5 5.5-45.3 14.5-.3 28.8 0 43.7-.2zm-82 41.9c2.8 1.7 5.6 2.8 7.4 4.7 6 6.3 3.5 19.1-4.2 23.2-3.5 2-6.3 1.2-8.4-2.2a12 12 0 01-1.9-9.4c1-3.8 2.4-7.5 3.5-10.8a17.9 17.9 0 00-3.8 20.2c2.8 5.4 7.6 6.6 12.6 3.3 7.5-5 9.9-16.8 4.8-24.3-2.2-3.3-5.2-5.3-10-4.7zM893.4 183c-2.7.8-5.8.8-6.3 5a35.4 35.4 0 013.7-1c4.8-.5 7.8 2 8.3 6.7a40 40 0 00.4 4.7c1.4 6-.5 10.7-4.8 14.8l-9.2 9-1.6-4.5-1.8 2.7c-3.4 7-6.5 14.2-10.2 21a18.8 18.8 0 01-6 6.4 456.5 456.5 0 01-26.6 16.8 47.1 47.1 0 01-32.2 5.3 33.5 33.5 0 01-21-12.2c-3.3-3.9-4.6-8.4-5.5-13.2a58.3 58.3 0 011.4-27.9c2.2-7.5 4.8-14.9 7.4-22.3a4.3 4.3 0 012.4-2.3c3.4-1.1 7-2 10.4-2.8 6.8-1.7 6.8-1.7 11.8 2.2.5-4-1.2-6.3-5.2-6-3.7 0-7.3 1.1-11 2-2.1.4-4.2 1-6.5 1.7a19.3 19.3 0 012.3-11.6 57.1 57.1 0 0129.8-26.7 85 85 0 0117.2-6c10.6-2 21 .1 30.6 4.8a72.8 72.8 0 0110 6.2 37.9 37.9 0 0112.2 27.2zM799 230.6l-.4.8c1.2.7 2.4 1.8 3.7 2.2 2.2.6 3 2.2 3.5 4a28.1 28.1 0 01.6 3.7c.8 5.5 4.6 9 10 8 8.8-1.7 17.7-3.5 23-12 1.3-2 2.8-3.6 5.5-3.9 1.4 0 3-.7 3.3-3.8-8.1 4-15.1-.6-22.5-1.6-5.4-.7-11-.3-15.5 2.3-3.5 2-6.2 2.3-9.5.5a4.9 4.9 0 00-1.7-.2zm36.6-39.6l.6.8 3.6-2.6a7.2 7.2 0 017-1c8.2 3 17 2.7 25.4 3.8a15 15 0 003.4-.3c-4-2.5-8.3-3-12.5-3.6-5.1-.7-10.2-.8-15.2-2.7-5.5-2.2-9.5-.2-12.3 5.6zm1.8 19.6a17.5 17.5 0 00-23.4-6 7.4 7.4 0 00-4 6.3c5.5-5.7 8.7-7 14.8-5.9 2.6.5 5 1.9 7.4 3 1.8.7 3.4 1.7 5.2 2.6zm21-37.6l.2-1a20.8 20.8 0 00-9.3-2 13.5 13.5 0 00-8.2 2.9c-1.1.8-1.7 1.8-.5 2.9 3-1 5.9-2.3 8.9-2.7s6-.2 9-.2zm-41.6 3.8c-4.2-5.4-12-6.6-15.3-3.1zm1.9 78.8l-6.2-1.7c2.1 2.1 4 2.9 6.2 1.7zM1042.8 770.4l-4.5.2h-53.1c-3 0-5-.6-6.8-3-3-4-6.7-7.5-10-11.2-1.5-1.6-3-3.2-4.3-5a466.4 466.4 0 00-46-52 11 11 0 01-3.8-8.5c0-7.8-.6-15.7-.9-23.5l.2-4.8a29 29 0 013-.4c24.6-.2 49.2.7 73.5 5 8.9 1.6 18 2.4 26.7 5a6.5 6.5 0 014.9 4.3l10.1 25.3a35.1 35.1 0 012 7.7q2.4 16.2 4.4 32.5a17 17 0 010 6.5c-1.4 5 .1 9.6 1.7 14.2l2.9 7.7z" class="cls-1"/>
      <path d="M1033.3 672.9c-10.6-2.4-20-4.7-29.4-6.5a402 402 0 00-82.9-7h-7.4a442.5 442.5 0 00-5.2-91.1 24.8 24.8 0 013-.4l48.9-.1c2.7 0 4.2.8 5.3 3.3a340.6 340.6 0 0023 42.6c1.3 2.3 3.1 4.2 4.7 6.4l4.4 6a26.9 26.9 0 002.2 3c8.3 8.3 14.5 18 21 27.6 2.2 3.2 5 6 7.4 9.2l5 7zM674.7 770l4.2-8.2c6.6-12.4 13.5-24.7 20-37.3a1838 1838 0 0021.3-42.9c1.8-3.6 3.8-5.5 8.1-5.4 9.6.3 18.9-2.7 28.3-4 8.2-1.2 16.4-1.8 25.3-2.6-.2 3.5-.3 6.3-.6 9-1.6 13.3-3.4 26.7-4.6 40-.5 6.6-.1 13.2.2 19.8a6.3 6.3 0 01-2 5.3c-8.4 8.2-16.7 16.6-25.1 24.7a7.2 7.2 0 01-4.4 2.1h-69.1a7.3 7.3 0 01-1.6-.5zM792.4 519.3c1-4.8.8-10 3.7-15.3-.2 9.8 1.2 18.2 10.4 23l-1.3 3.2c5.8-.1 11.2-5.7 18.3-18.8-1-1-2.2-2.3-3.5-3.4-4.4-3.5-6.7-7.7-4.9-13.5.4-1.4 1-3.1-1.4-3.8-.3 0-.5-1.3-.5-2l-.1-9.9-.6-9.6c6.3.2 8.6-4.2 10.1-9.1 1-3.5 1.2-7.3 1.9-11.8 2.6 5.1 5 9.6 7 14.2 6.1 13.6 10.6 27.9 14.8 42.1 3.1 10.9 6.3 21.7 9 32.6a83.6 83.6 0 012.6 24.3c-4.2.6-8.3.2-13 .2 0-4.8-.8-9.2-5.4-11.7-3-1.6-4.5-1.8-9.5-.7 4.8 1 9 1.3 11.2 5.2a8.5 8.5 0 011 7H827c1.5-4.3 3.6-7.5 8.1-9-4.6-1-5.9.2-11 9.3h-15.7c-5.3 0-10.7.4-16 0s-10.3 0-16.3 0c2-5.6 6-9.3 8.4-13.8L792 534c8.5 3.1 12.4 2.5 16.4-2.6l-3.3.5c-4 1-4.5 1-7-2.6-1.3-2-2.2-4.1-3.4-6.2l-2.4-3.9zm37.8-22.7a33.9 33.9 0 003.6.6 6.2 6.2 0 015.9 4.6 20 20 0 01-2.9 18.3c-2.1 3.1-4.7 2.7-6.4-.7a19.3 19.3 0 01-1.6-12.9c.3-1.2 1.8-2.2 2.7-3.3-2.5-1.4-3.5-1.1-4.3 1.8a21.4 21.4 0 001.8 16c2.2 4.1 6 4.4 9.2.9 4.4-5 6-16 3-21.8-2.2-4.4-5.2-5.5-11-3.5zM781.8 666.7l-8.5.6c-10.7.5-21.1 2.5-31.6 4.5-4.1.8-8.4.5-12.6.8-3 .3-6.1.9-9.2 1.3l-4.3.6a5.5 5.5 0 010-1.5 186.3 186.3 0 0125.6-46.3 24.9 24.9 0 013-3.7 58.6 58.6 0 0014-20.3l13.6-31a91 91 0 011.6-3.6h11c1 33 1 65.7-2.6 98.6z" class="cls-1"/>
      <path d="M967.6 568h62.2l2 97.5c-3-3.7-5.7-6.7-8-9.9-7-9.4-13.7-19-20.6-28.5a289.3 289.3 0 01-34-55.1l-1.6-4zM780.7 736.6c-1.2-22.5 4-44.3 5.7-66.9l61-4.7a24 24 0 01-1.3 3 136.7 136.7 0 01-27.2 34.5c-9.5 8.2-18.5 17.3-27.7 26L782 737zM978.3 770.3h-50.5l-12.9-68.6 2.8 2.2c10.6 9.3 19.6 20.1 29 30.7l27.8 31 3.8 4.7zM761.4 427.5a66.2 66.2 0 006.7-4.9c1.8-1.7 3.2-3.8 5-6 1.2 1.3 2.5 2.8 4 4.1 3.7 3.4 7.2 7 11.3 9.9a46 46 0 0115.8 19.4 126.2 126.2 0 015.7 16.4c2 6.8 0 13.6-.5 20.5-.1 1.7-1.3 2.7-3.6 2.6 4-4.6 2-8.4-1-12a30.4 30.4 0 00-2.7-3.3 68.2 68.2 0 01-15.4-21c-4.3-8.6-11.5-14.8-18.2-21.3-2-1.8-4.5-2.8-7.1-4.4zM839.6 287.4c0-6.4 5-12 2.4-18.4l32.5-22c.8 3.6-.8 7.5-.8 11.4s-.2 7.8-.2 11.8.4 8 .6 12c-5.7 3-25.6 6.1-34.5 5.2zM1041.3 723.9c6.5 16.5 16 31.4 26.8 46.3-4.3.7-7.9.3-11.4.4s-7.1 0-10.4 0l-4.4-13.7a8.6 8.6 0 01-.6-4c1.9-8 0-16-.7-24 0-1.5-.3-3-.4-4.5zM910.4 522c1.7-1 3.7-1.6 5-3q6.7-6.5 13-13.5c1.5-1.8 2.4-4 4-6.4a24.1 24.1 0 016.3 7.7l.1-.2c-.9.3-2.2-.1-2.4 1.6-1 7.8-6 13.1-11.5 18.2l-5.7 5.1c-3.6-1.9-6.2-4.8-8.6-7.8-.3-.4 0-1.2 0-1.8zM942.5 487.4c8.6 1.7 19.3 14.2 20 23.3-1 .2-2.3.7-3.3.4a87.7 87.7 0 01-11.4-4 6.2 6.2 0 01-2.6-4c-1.1-5.2-1.8-10.4-2.7-15.8zM909 688c-5.8-8.1-13.2-15.1-18-24.1a49.7 49.7 0 0118-1l1 24.9z" class="cls-1"/>
      <path d="M910.6 521.9c-3-1.7-3.8-2.7-2.6-5.2 2.7-5.6 5.8-11 8.7-16.4a37.1 37.1 0 001.5-4.1c.6 0 1.5.1 2-.2a28.2 28.2 0 002.7-3.2l7.5 3.8c-1.3 4.7-4 7.9-6.8 11-3.9 4.3-8 8.3-12 12.5a10 10 0 00-1.1 2zM938.8 506.7c6.3 8.4 6.1 10.8-.3 19.4-3.3 4.6-7.4 8.7-11.8 13.8l-5.3-7.2 6.4-6c4.7-4.4 8.4-9.4 10.1-15.6l1-4.5zM787.1 491.9l7.6 6.6-5 10-5.9 2.3c-3 1.3-4.8 1-6.7-.9s-1.4-4-.5-6c2.1-5.1 6-8.6 10.5-12zM820 511.7l-4.3 7a25.1 25.1 0 01-11.5-12.7 38.4 38.4 0 01-2-7.6c-.6-2.5 1.2-3.6 3-4.7s3.5-.4 4.8.7a4.2 4.2 0 011.4 2.8c0 6.3 3 10.9 8.7 14.5z" class="cls-1"/>
      <path d="M941.8 507.6a34.6 34.6 0 00-17.4-16.6c2.4-4.2 6.2-6.2 10.4-8.5l5.4 2.8 1.6 22.3zM945.7 520.6c3.3 6.6 1.1 12-3.1 16.8a29.6 29.6 0 01-11 7.4l-3-3.4zM797.6 500.8l2.9-3.3c1.5 12 5.6 18.4 14.3 22.6l-5.9 6.1c-7-4-9.9-10-10.4-17.4l-1-8zM925.4 484.8l-5 5.5c-5.3-1.7-7.6-5.8-9.9-10.1-1-2-.7-4.3 1.2-5.3l3.2-1.4zM840.3 569.2c-1.8 2-3.4 4.4-5.6 6-4.5 3.5-8.5 1.6-9-4.1a21.5 21.5 0 010-3h14l.6 1.1zM1024.1 674.5c6.7.2 8.7 2 8.7 7.8v9.8c0 .3-.3.5-.8 1.5-3.3-6.4-5.3-12.8-7.9-19.1zM800.8 484.9l2 6.3-6.5 5.8-6.3-7.2zM835.5 282.9c-.8 4.6-.8 4.7-4.3 4.7a92 92 0 01-11.9-.4c5-2.7 10.4-3 16.2-4.3zM792.4 519.3a29.7 29.7 0 006.1 13.2c-2.5.6-3.3-.8-4.2-2.2s-2.2-2.7-2.4-4.2c-.3-2.2.3-4.5.5-6.8zM1037.3 684.9c1.5 1.4 3.3 3 0 4.6zM718.5 678.2l-1.8 1.7a9 9 0 01-.9-.9 23.1 23.1 0 011.7-1.7zM251 837a22.5 22.5 0 01-4.4 1c-8 .5-16 .2-24 1-15 1.7-29.6 4.9-43.2 11.7-3 1.5-5.8 3.6-9 5.6-10-9.2-9-21.7-9.7-33.8l7.3-6.7a11 11 0 012-1.3l20.6 20-3.4 9.2.8.4 4.4-7.8 3.6.6c-2.9-2.4-2.3-4.5-.9-6.5l9.4-13.5a37.1 37.1 0 004-6.6 74.7 74.7 0 00-16.7 22 132.2 132.2 0 01-20.1-19c2.4-1.1 4.3-2.5 6.5-3 6.5-1.5 13-3.2 19.7-4 10.3-1.1 20.6-2.8 30.8-4.6 3.8-.6 7.7-1 12.4-1.5L229.5 820l-11.6-12c2.2 5.4 6.4 9.3 10.7 13.3l-9.5 16.6c3.5-1.8 3.6-1.8 6.7-6.8l5-7.9 10.7 7.9 8.7 5.4a5.6 5.6 0 00.7.6zM202.4 984.4c11.3-4.8 47.3-13 55.9-12.9.1.3.5.6.4.8-1.9 12.8-3.5 25.7-6 38.4-1.1 6-3.3 12.1-8 16.7a9.6 9.6 0 01-6.2 2.9c-10.1.9-22.3-6-27.4-15.6a71.1 71.1 0 01-6.8-20l-2-10.3z" class="cls-1"/>
      <path d="M262.4 970.8l8-.4-.6 9.4 5.8.6v6a26.4 26.4 0 01-2.4 1.3c-1.9.7-2.5 2.2-2.4 4v8.7l3.6 1.7c.7 1.5 0 6.3-1.6 7-3 1.5-3 3.6-2.2 6.3a18 18 0 01.2 3.5c4.1 1.4 4 4.9 3.8 8.7-11 .8-21.3 3.4-30.6 9.8l-1.5-4.7 2.5-2c6.2-5 8.7-12.3 10.3-19.6 2-8.7 3-17.6 4.2-26.4.7-4.6 1.1-9.3 2.9-14zM280.4 885.4l8.2-12.5a4.2 4.2 0 013-1.6c10.3.6 20.3 2 29.9 5.8.3 0 .4.4 1 1l-11.4 13.5-2.9-1.7c1.7 2.5 1 4.1-.4 5.9-2.9 3.8-5.6 7.9-8.6 12.3-3.6.3-6.5-.8-8.5-4.9-3-6-6.7-11.6-10.3-17.8zm26.2 2l.8-.4-2.5-4.6-.7.4zM251 837a5.6 5.6 0 01-.7-.7c-3.2-2.7-6.3-5.4-9.6-8-2.7-2.3-5.6-4.4-8.9-6.8l12-21.1c3.8 0 8.3-2.3 12 2l-.2-.3 7.9 9.8c2 2.3 4.3 4.4 6.6 6.6l-8 16.6a3.8 3.8 0 01-2.1 1.5c-3 1-6 1.6-9 .4zM286.4 969.4a13.8 13.8 0 012.3-.3l12 .7a23 23 0 01.4 3.2c-.3 8.3-.4 16.6-1 24.8a29 29 0 01-8 16.7 10.4 10.4 0 01-3.4 2.4c-4.7 2.2-7 .7-7.4-4.4-1.5-14 .5-27.7 4.5-41.2l.6-1.9zM280.3 800.7c4.7-1.2 7.2.4 9.2 4.5a130.6 130.6 0 008.6 14.6c1.3 2 1.6 3.8.3 6-2.1 3.6-4 7.4-5.9 10.8h-28.7c2.4-5.6 5.6-10.5 8.3-16.2l10.6 9.4c0-2.2-1.4-3-2.3-4l-6.9-7.5 3.7-9 3.1-8.6zM323.5 918.7l-21.5-9.6a76.1 76.1 0 019-13.1l2.3 1.4c0-.3.2-.6 0-.8-1.2-1.8-.5-3.1.8-4.5l10.8-12.8c8 9.5 7.6 29.3-1.4 39.4zM320.5 942.6a20 20 0 014.3 1.1c2.7 1.3 5.2 3 7.7 4.5 4.9 2.8 6.3 7.2 5.6 12.3-.7 6.5-2.7 9.8-7 12.8-6.7-5-14.8-5-23.5-5.9 2.5-5 4.6-9.6 7-14 1.3-2.7 3.1-5 4.6-7.6a23.8 23.8 0 001.4-3.4z" class="cls-1"/>
      <path d="M241.3 1066.2c2.7-7.4 2.8-15 2.9-22.7a6.8 6.8 0 011.8-4 13.5 13.5 0 014.2-3c8-3.9 16.5-6.2 25.7-5.8a154 154 0 00-34.6 35.5zM283.4 1027.5h-7l.7-13.9-4.4 3.4c.1-2-.3-4 .5-5 1-1.5 2.9-2.4 3.1-4.5.2-1.7.8-3.3 1.2-5.3l-4.4-4.1v-8c7.3-1.4 4.6-7 5.4-11.8l-6-.3v-5.7c3.6-2.3 7.2-3.7 11.4-2.8-1.4 5.1-2.8 10-4 15a100.2 100.2 0 00-.5 35.5c.4 3 .8 6 4.1 7.5zM304 969.8c8 .8 15.4.4 22.8 3.7-5.6 8.4-14.2 8.8-22.8 10.5zM280.2 856.2a45.4 45.4 0 01-13-17c8-.3 15-.5 23.3.4zM255.8 802.3l-.2-2.2H279l-7.8 16.9L261 807l-5.5-5zM300.6 820.4l-12.3-19.3c3.4.5 6.1-.7 8.1 2.1.3.4 2.2-.5 3.3-.3 3.3.6 6.7 1.5 10 2.3zM295.6 931.4l-11.3-.9 4.2-8.6 7.7 8.5zM201 990l-4-2.9 3.1-2.2zM142.7 560.4c-.3-.5-.6-.7-.6-1-.5-14.4-2.6-28.7-.8-43.1 1.8-13.7 3.8-27.3 5.8-41 1.5-10.5 4-21 3.3-31.7-.2-4-1.2-8-4.6-10.3-2.8-2-6.1-3.2-9.2-4.7a6.7 6.7 0 00-1.3-.5c-8.3-2.3-11.7-6.4-11.5-17.4a24.6 24.6 0 018.3-18.2c5.1-4.8 9.3-10.6 13.8-16a11.2 11.2 0 002.5-7.9c-.2-5.3-.5-10.6-.4-16 0-5.6.3-11.3.6-16.9 0-2.2.9-3.5 3.5-4a95.8 95.8 0 0013.5-4c8-3 16.2-3.2 24.6-2.2l8.5.8a58 58 0 016.7 27c-8 1.4-13.3 6.6-18.5 11.7a18.9 18.9 0 00-5.6 17.5c2.3 15.4 4 31 5.9 46.6a16.5 16.5 0 01.1 3.2c-1.4 20.1 2.7 39.6 6 59.3a299.8 299.8 0 0011.2 44.6c1.1 3.5 1.8 7.2 2.8 11.3a109.3 109.3 0 00-33.7 2.5c-10.5 2.5-20.7 6.9-31 10.4z" class="cls-1"/>
      <path d="M251.7 576c-1.7-.1-3.3-.2-5-.5a136.2 136.2 0 00-34.6-.2c-14 1.6-27.9 3.8-41.9 5.5-6.6.8-13.3 1-20 1.5a44.5 44.5 0 01-7.5-18.6c5-2 9.9-3.7 14.5-5.8 13-5.8 26.9-7.3 40.8-8.1 9.5-.6 9.8-.2 13 8.6 1.6 4.1 3.5 8.1 5.4 12a23.8 23.8 0 002.5 3.6l1.1-.6a26.7 26.7 0 00-.9-3l-6-14.3a20.5 20.5 0 01-.8-3.4 43 43 0 0130-1.6c1.2.4 2.9 1.8 3 3 1 7.2 4 13.8 6.5 20.5a5 5 0 010 1.4zM168.4 73.3l4.2 6.7 2.7 4.1-14.6 23.2a7 7 0 01-1.2-1.6c-2.8-8.1-4.4-16.3-2.4-24.9 1-4.7 1.4-9.6 4.2-13.7.8-1.2.9-2.4-.4-3.3l.1.1c-2.9-5-1.9-9.5 1.8-13.7L174.4 37a54.4 54.4 0 013.5 4.3l13.9 21c1.4 2.2 1.3 3.9-.5 5.9-4.8 5-9.2 10.1-14.3 15.8-1.4-1.9-2.4-3.4-3.6-4.7-1.6-2-3.4-3.9-5.1-5.8l-1.8-3-.7.6zM209.5 249.4a15.3 15.3 0 00-10.2 4.8l-7.8 7.6c-3.4-3-6.6-6-10-8.8-2.7-2.1-5.6-3.8-8.5-5.7l.2.1c.7-2.3 1.3-4.7 2.3-7a82.7 82.7 0 0112.1-19.8c8.5 8 13.2 18.1 19.5 28 .1-5.8-3.7-12.1-17.3-29.8 2.2-4.3 8.6-10.9 14-14.3a61.7 61.7 0 018.5 21.5c.7 4.5-.4 9.3-1 14-.4 3.2-1.2 6.3-1.8 9.5a1.5 1.5 0 010-.1zM201.7 200.7l-14.4 16a158.5 158.5 0 01-17.3-14.2 2.7 2.7 0 01-.6-1.2c-1.5-5.7-3.2-11.4-4.2-17.3a36.5 36.5 0 010-10.7A123.8 123.8 0 01168 161c.4-1.6 1-3.1 1.7-5.3 6.2 6.8 13.8 11.4 18.2 19.6l-8.9 9.8a23 23 0 00-6.3 10.2 12.9 12.9 0 000 6c2.1-4.2 3.8-8.7 6.4-12.6s6.4-7.2 10-11.4l6.6 12.9 6.1 10.6zM165.2 114.8l-2.4-3.6a77.6 77.6 0 0114.4-24l10 14.1.8-.5-9.7-14.6 16-18c4.7 8.1 9 16.2 5.3 26-1.4 3.6-3.5 7-4.2 10.7-.9 4-4 6-6.2 9-3.1 4.2-6.4 8.3-9.7 12.5l-14-11.3a3.4 3.4 0 01-.3-.3zM168 151.7c1.1-1.8 2.5-3.5 3.4-5.4 2.6-5 5-10 7.8-15.7a144.9 144.9 0 0120.3 31l-9.7 11.7-16.7-15.9c-1.9-1.7-4.4-2.9-5-5.8l-.1.1zM181 128.5a191.2 191.2 0 0115-19c1.5 2.9 3.1 5 3.8 7.4 2.6 9.2 5.2 18.4 4.4 28.1a29.9 29.9 0 01-3.5 12.6zM192.2 299.4L175 284c4-7.6 9.4-13.3 16-18.3l15.6 22.9z" class="cls-1"/>
      <path d="M210 287.5c-.8-.3-1.9-.3-2.2-.8l-15.4-22.5c5.2-4.7 8.6-10.7 15.4-13.2a33 33 0 013.5 32.9l-3.3-.2 1.9 4zM116.5 331h4.5c1.3 20 5.7 38.8 11.8 56.9L122.4 400c-2-5.4-4-11-2.9-17.3a43 43 0 00.7-8c-.2-13.5-.6-27-2.8-40.5l-.8-3.2zM173 247.3l7.3 7.1 9.3 8.5-16.4 18.9c-.7-2.3-1.8-4.7-2-7.1-.8-6.6-1.3-13.1-1.6-19.6 0-2.1.8-4.3 1.5-6.4.2-.6 1.4-.9 2-1.3zM172.6 240.5c-7.1-11.4-6-23.5-4.3-36.6 3.4 3 6.1 5.4 9 7.7l8.2 6.8zM172.7 321.2c-.7-3.2-1.5-5.6-1.6-8-.2-4.8 0-9.6 0-14.5 0-4.2 2.4-7.6 4.9-11.5l15 13.7zM165.2 114.8a3.4 3.4 0 00.3.3l12.5 13.5c-4 7.5-8.1 14.8-10 23.1l.2-.1c-1.2-2.3-2.8-4.6-3.4-7-1.8-7.6-3.2-15.2-4.6-22.9a20.7 20.7 0 010-4.6c0-4.3 1.1-4.7 5-2.3zM266 622.9a9.7 9.7 0 017.3-.2l24.5 8 5.8 1.6 1.2.7c-3.4 3.2-7 6.3-12 6.6a1.3 1.3 0 00-.8.1c-7.4 6.6-8.8 7.2-17.4 6.3-11.3-1.2-22.5-.2-33.7.7l-7.7.6c2.2-3 13-11.3 17.6-13.8l8.6 6.8.5-.4-3.6-3.7-4.2-3.6c4-4.5 9.7-6.3 14-9.9zm23.6 13.8l.7-.7-3.8-4.4-1 .9z" class="cls-1"/>
      <path d="M246.5 586.8l-3.2-1.6.7-.9 2.4 2.6zM242 902.2c1.2-2.6 2.1-5.4 3.7-7.8 3.8-5.7 8-11.2 12-16.8a3.2 3.2 0 012.2-1.4c-1.1 1.6-2.4 3.1-3.5 4.8l-11 16.8c-1 1.5-2.4 2.9-3.6 4.3z"/>
      <path d="M199.4 648c-3.3 3.9-8 2.8-12.2 3a3.5 3.5 0 01-2-1c-6.3-5.1-13.6-8.9-20.8-12.6a17.6 17.6 0 01-1.8-1.2 35.2 35.2 0 012.3-2.8c4-3.8 8.2-7.4 12-11.3a10.2 10.2 0 017.9-3.3h12c13.5-.3 27-1 40.4-.8 9 .2 17.8 1.7 26.6 2.6 1.4.1 2.6.4 2.2 2.2l.1-.1c-3.2 1.4-6.5 2.7-9.7 4.3a66.7 66.7 0 00-6 4l-15.4-8.3-.5.8 14.3 8.5-5 4-12.5 9.8a9 9 0 01-4 2c-8.5 1-16.9 1.5-25.2 2.2-1.5.1-3 0-2.7-2 2-2.7 3.9-5.4 6-8a61.7 61.7 0 014.4-4.4c1.7 3.4 1.7 3.4 4.6 5l-4.7-4.9a30.2 30.2 0 012.1-4.5c1.9-2.8 4-5.5 6-8.2l-.8-.5-8.7 10.7-9.2-8.9-.4.4 8.8 9.6c-1 1.5-1.9 2.7-2.6 4l-5.5 9.8zM144 618.8l13.7-19.7a18.7 18.7 0 001-2.4l17.9 18.6zM782.6 392.6l.8-.8 2.3-2.6c8.9 4.3 10.5 16.1 3.7 23.2-2 2-4 4.5-7.1 3.3-3-1.1-2.7-4.3-2.6-6.9.1-3.7.6-7.4 1-11.1l-.1.2 2-5.3z" class="cls-1"/>
      <path d="M780.7 397.7c-.4 3.7-.9 7.4-1 11.1-.1 2.6-.3 5.8 2.6 7 3.1 1.1 5.2-1.4 7.1-3.4 6.9-7 5.2-19-3.6-23.2l-2.3 2.6 2.1-4.7a50.3 50.3 0 004.1 3.5c7.6 5.1 7.8 19.4-2.9 25.9-4 2.4-7.1 1-8-3.4a22.4 22.4 0 011.9-15.4zM816.8 320.4c5-1.3 9.9-7 9.7-12.1 0-2.1-1.6-4.1-2.3-5.8 2.4.4 4 1.8 3.8 4.9 0 5.5-3 9.7-7.3 13-.8.6-2.6 0-3.9 0zM816.8 310.5v0zM782.6 392.6l-2 5.3 2-5.3zM823 609.7c4.8-.6 7.8 1.4 10 4.7 5 7.5 2.7 19.2-4.8 24.3-5 3.3-9.8 2-12.6-3.3a17.9 17.9 0 013.8-20.2c-1 3.3-2.5 7-3.5 10.8a12 12 0 002 9.4c2 3.4 4.8 4.1 8.3 2.2 7.7-4 10.2-16.9 4.2-23.2-1.8-2-4.6-3-7.4-4.7zM798.9 230.6a4.9 4.9 0 011.7.2c3.3 1.8 6 1.5 9.4-.5 4.6-2.7 10.2-3 15.6-2.3 7.4 1 14.4 5.6 22.5 1.6-.2 3.2-1.9 3.7-3.3 3.9-2.7.2-4.2 2-5.5 4-5.3 8.3-14.2 10.1-23 11.8-5.4 1-9.2-2.5-10-8a28.1 28.1 0 00-.6-3.7c-.5-1.8-1.3-3.3-3.5-4-1.3-.3-2.5-1.4-3.7-2.2zM836 234c-11-5.1-23-4.4-28.9 1.7l2.9 3.5c-2 1.8-1.5 3.5-.1 5.3 1.9 2.3 4.4 2.8 7.2 2.1 4.4-1 8.7-2.5 13-3.5 3.3-.7 5-2.4 5.2-5.6a29.6 29.6 0 01.7-3.5zM835.5 191c2.8-5.8 6.8-7.8 12.3-5.6 5 2 10 2 15.2 2.7 4.2.6 8.5 1.1 12.5 3.6a15 15 0 01-3.4.3c-8.5-1-17.2-.8-25.3-3.9a7.2 7.2 0 00-7.1 1.2l-3.6 2.5zM837.3 210.6c-1.7-.9-3.4-1.9-5.2-2.7-2.4-1-4.8-2.4-7.4-2.9-6-1.2-9.3.2-14.7 5.9a7.4 7.4 0 013.9-6.3 17.5 17.5 0 0123.4 6zM858.4 173c-3 0-6-.4-9 0s-5.8 1.8-8.9 2.7c-1.2-1-.6-2 .5-2.9a13.5 13.5 0 018.3-2.8 20.8 20.8 0 019.2 2zM816.7 176.8l-15.4-3.1c3.4-3.5 11.2-2.3 15.4 3.1zM818.6 255.6c-2.2 1.2-4 .4-6.2-1.7zM830.1 496.6c5.8-2 8.9-.9 11 3.5 3 5.8 1.5 16.8-3 21.7-3.2 3.6-6.9 3.3-9.1-.8a21.4 21.4 0 01-1.8-16c.8-3 1.8-3.2 4.3-1.8-1 1-2.4 2-2.7 3.3a19.3 19.3 0 001.6 12.8c1.7 3.5 4.3 4 6.4.8a20 20 0 002.8-18.3 6.2 6.2 0 00-5.9-4.6 33.9 33.9 0 01-3.6-.6zM306.6 887.3l-2.4-4.5.7-.4 2.5 4.6zM168.4 73.3l-2.6-2.3.7-.6 1.8 3zM289.6 636.7l-4-4.2.9-.9 3.8 4.4zM209.8 635.7c-1.5 1.4-3 2.8-4.4 4.4-2.1 2.5-4 5.3-6 8l5.4-9.7 2.7-4-8.8-9.7.4-.3 9.2 8.8 8.7-10.7.7.5-5.9 8.2a30.2 30.2 0 00-2 4.6z"/>
      <path d="M209.8 635.8l4.6 4.8c-3-1.5-3-1.5-4.6-5z"/>
      <path d="M836.1 234a29.6 29.6 0 00-.7 3.4c-.2 3.2-1.9 4.9-5.1 5.6-4.4 1-8.7 2.4-13.1 3.5-2.8.7-5.3.2-7.2-2.2-1.4-1.7-1.9-3.4.1-5.2l-2.9-3.5c6-6 18-6.8 28.9-1.7z" class="cls-1"/>
    </g>
  </g>
</svg>
