<svg xmlns="http://www.w3.org/2000/svg" viewBox="0 0 1200 1074.4"><defs><style>.cls-1{fill:#fff;}</style></defs><g id="Layer_2" data-name="Layer 2"><g id="Layer_1-2" data-name="Layer 1"><path class="cls-1" d="M0,0H1200V1074.4H0ZM996.2,834c1.5-3.3,1.5-3.3,1.5-5.7-.4-14.5.5-28.9,4.7-43,.6-2,1.5-3.9,2.2-5.8,0,19.6,2.1,34,6.5,40.5,6.5-19.7,11.4-39.4,12.7-60,2.8,8,3.9,16.3,4.7,24.5,1,9.9,1.6,19.8,2.4,29.7.1,1.3-.6,3.3,2.2,3.8V806.2c12.2,1.6,24,3,35.7,4.6s23.3,2.7,34.7,4.9c-2.3,6.6-4.9,12.3-6.3,18.4-1.5,6.4-1.8,13-2.5,19.6-.1,1.4-.1,3.1,2.5,4.5-1.3-11.5.8-21.7,5-32.5,5.3,19,9.3,28.4,14.1,33.8,6.3-24.5,3.5-48.1-4.6-71.6a14.58,14.58,0,0,1,3.7,5.3c1.9,5.2,4,10.5,5.1,15.9,2.2,10.9,3.7,22,5.5,33,.3,2.1,0,4.4,2.4,6.8,2.3-14.9,11.2-24.7,21.2-34.4-.1,6.3-.7,12-.2,17.6s1.3,11.1,5.1,15.8c-1.3-8.4-4.4-16.6-3-25.6,8.1,1.2,15.9,2.4,23.6,3.5a22.92,22.92,0,0,0,5.2.5c.6,0,1.2-1.3,2.3-2.6-10.8-1.7-20.6-3.2-30.3-4.8,0-6.4,5-10,7.3-15a6.82,6.82,0,0,0-3.3,1.6c-3.7,3.2-7.2,6.6-10.9,9.8-1,.9-2.4,2.1-3.4,2-6-.6-12-1.6-17.5-2.5-1.8-6.5-3.2-12.3-5.1-17.9a48.63,48.63,0,0,0-5.1-10.2c-1.5-2.4-3.7-4.1-7.3-3.1,3.9,9.7,7.6,19.1,8.7,29.9-28-3.7-55.3-7.4-82.8-11-.3-2.2-.6-4.1-.8-6-.8-7.1-1.1-14.3-2.4-21.3-1.6-8.5-3.8-17-6.2-25.3-.8-2.9-3-5.5-5-7.8-1.3-1.5-3.4-2.5-5.3-.3,5.1,3.5,6.3,5.5,7.4,11.5,1.7,9.8-.1,19.5-1.8,29.1-1,5.9-2.6,11.8-3.9,17.9-2.7-.3-4.7-.6-6.7-.9-2.1-11.4-.6-22.1,2.8-32.9a5.67,5.67,0,0,0-3.1,2.2,57.72,57.72,0,0,0-8.3,19.6c-.8,3.2-1.5,6.3-2.3,9.8-20.8-2.3-41.2-4.5-62-6.8.3-2.4.6-4.4.9-6.5a87.39,87.39,0,0,0-3.9-41.2,33.17,33.17,0,0,0-2.3-4c.3,7.6.9,14,.8,20.3a55.1,55.1,0,0,1-4.1,19.6c-3.4-10.1-2.1-19.8-2.8-29.7-3.7,2.6-4.4,3.2-4.8,7.1-.7,6.4-.9,12.8-1.3,19.3-.1,1.4-.2,2.9-.4,4.7a90.45,90.45,0,0,0-8.7-5,21.77,21.77,0,0,0-7.4-2.2c-3.8-.4-4.9.9-5.8,5.5.5-.2,1-.3,1.4-.5,3.5-2.4,4.5-2.5,7.1.3,2.4,2.7,4.6,5.6,5.5,9.7-25.3-1.9-50.3-3.9-75.5-5.8-.3-2.1-.6-4-.8-5.9-.6-6.1-1-12.2-1.7-18.2a15.67,15.67,0,0,1,1.7-9c5.6-11.4,11.3-22.8,16.1-34.5,3.1-7.5,5-15.6,6.8-23.6,2.9-13.1.9-26-3.5-38.5-3.5-10.1-2.3-19.5,3.3-28.5a114.74,114.74,0,0,1,20.2-25.2c9.9-9,16-8.6,24.5,1.8,4.2,5.1,8,10.6,11.8,15.9,12.8,17.7,28.6,32.4,45.3,46.1a62.11,62.11,0,0,0,35.4,14.1,98.23,98.23,0,0,0,30.1-2.5c25.5-5.8,49.5-15.4,72.5-27.6a100.27,100.27,0,0,0,11.8-7.8,21,21,0,0,0,5-5.3c3.2-4.8,2.1-9.3-3.1-11.6a38.67,38.67,0,0,0-10.5-2.7c-11-1.3-21.9,0-32.8,1.5s-21.7,3.3-32.6,4.1c-19.1,1.5-34.9-5.3-46.3-21-3.6-4.9-6.9-10.1-10-15.3a279.58,279.58,0,0,0-40.3-53.9,30.6,30.6,0,0,1-2.5-3.3c12.1-3.2,23.7-6.2,36.3-9.5-.6,6-1.1,10.9-1.6,15.9,2.8-5.5,3.4-11.3,3.3-17.4a49.79,49.79,0,0,1,6.3,8.4c1.6,2.9,2.6,6.1,4.3,10.4,1.2-8.5,2.3-15.8,3.4-23.1h1c-1.4,9.7-1.7,19.3,2,28.9,2.1-5.5,4.2-10.9,6.3-16.4.4.1.7.1,1.1.2.5,4.8,1.1,9.7,1.6,14.5,2.4-9.2-1.2-17.5-4.1-26.3a874.2,874.2,0,0,1,99.7-13.1c-.3,3.1-.6,5.6-.8,8,2.8-3.3,2.6-7,1.8-10.7s-2-7-3-10.5c5.7,5.1,7.5,12.1,9.9,18.9l1-.3-.9-7.2c.2-.1.5-.1.7-.2,1.3,1.6,2.6,3.2,3.9,4.9.2-.2.4-.3.6-.5-.2-.9-.4-1.9-.7-3.2,2.6-.2,5-.3,7.4-.4,2.6-.2,5.2-.2,7.8-.6,2.1-.3,4.7.9,7.3-2.4-8.8.4-16.6.7-23.9,1.1-3-3-.9-6.1-1.5-9.3-1.2,2.3-2.3,4.6-3.6,7.1-6.7-11.3-8.2-12.8-13.3-12.9,2.6,5,5.9,9.8,6.3,16a912.68,912.68,0,0,0-103.9,14c1.5-5.7,2.8-10.5,4.1-15.4-3,.1-4.2,1.9-4.9,3.9a48.28,48.28,0,0,0-2.8,8.9c-.5,3-2,4.2-4.7,4.5a10.89,10.89,0,0,0-2.6.5c-2.8,1.1-5,.5-6.9-1.9-1.1-1.4-2.3-3.2-4.9-3.6,1.3,2.6,2.3,4.7,3.6,7.1-1.6.5-2.6.8-3.5,1.1-9.9,2.6-19.9,5.1-29.8,7.9a11.37,11.37,0,0,1-8.5-.6,112.49,112.49,0,0,0-33.4-9.8c-20.9-2.6-39.8,1.9-56.5,15-10.9,8.6-19,19.4-25.5,31.5-.8,1.5-1.7,3.1-3,5.5-.5-2.6-.9-3.9-1.1-5.3q-4.2-27.15-8.4-54.2c-1.7-10.7-2.9-21.4-1.3-32.3,1.4-9.6,4.2-18.7,10.2-26.5,1.3-1.7,3-3.3,4.5-4.9,2.2.9,4,1.6,5.8,2.2,7.6,2.6,15.1,5.3,22.8,7.6,11,3.3,22.4,3.3,33.7,3,9.1-.3,16.8,2.7,24.3,7.8,37,25.1,77.2,32.7,120.5,20.6,24.4-6.8,45.5-19.9,64.9-36a39.47,39.47,0,0,1,6.9-4.6,209,209,0,0,0,44.7-31.6c9.2-8.7,17.2-18.3,23-29.6,4.7-9.1,7.8-18.7,8.1-29,1.1-32.9-20.1-60.9-52.1-68.9a123.4,123.4,0,0,0-34.2-3.3c-12.9.4-25.8,1-38.7,1.6a64,64,0,0,1-29.5-5.1A601.71,601.71,0,0,0,914.5,249c-24.3-5.8-48.9-9.7-74.1-7.9a10,10,0,0,1-5.2-1.7c-4.2-2.5-8.1-5.4-12.3-7.9-28.1-16.7-58.2-28.2-89.7-36.6C686.9,182.6,639.7,178,591.8,179c-17.9.4-35.9,2-53.8.2-1.9-.2-4-.2-5.5-1.1a41.51,41.51,0,0,0-15.6-5.8c-1.1-.2-2.6-.6-3.1-1.5-3.3-5.7-6.3-11.5-9.7-17.8h77.8c6.3-.1,12.6.2,20-.3-14.6-14-29.6-23.6-49.5-21.7-6.7-9.3-15.7-14.6-26.5-16.9a65.74,65.74,0,0,0-23.4-.4c-6.5,1-12.9,2.7-19.3,4.1-3.9-4.2-7.7-8.6-11.8-12.6C464.6,98.6,457.1,93,448,89.8c-10.8-3.8-21-2.6-30.1,4.6-3.1,2.5-5.6,5.7-8.6,8.4a15.45,15.45,0,0,1-4.5,3.2c-8.1,3.2-16.3,6.2-24.4,9.4-2,.8-3.4,1-5.2-.4-11.8-9-25.1-10.3-39.2-7.5-13.9,2.8-26.4,8.8-38.3,16.1a9,9,0,0,1-8.7,1c-11.1-4-22.6-6.1-34.4-5.2-13.5,1-24,6.9-29.5,19.9a15.45,15.45,0,0,1-1.2,2.2h-3.3c-13.6-.2-26.3,2.8-37.2,11.4-1.9,1.5-3.8,1.4-5.9,1.3-18.3-.8-36.6-1.1-54.8,1.7-10.9,1.7-21.5,4.4-31.3,9.5-7.2,3.8-13.5,8.8-17.7,15.9-5.1,8.7-7.1,17.8-4.4,28a471.72,471.72,0,0,1,14.6,87.5c.5,7.3,1,14.6,1.9,21.9,1.2,10.1,4.3,19.5,11.9,26.7,10.9,10.3,18.4,22.7,23.7,36.5a28.18,28.18,0,0,0,16.4,16.7,73.35,73.35,0,0,0,16.1,4.2c14.3,2.1,28.5.1,42.6-2.6,24.6-4.6,48.3-12.2,71.4-21.4a8.07,8.07,0,0,1,8.2.8c33.9,21.9,70.7,36.7,110,45.4,4.7,1,9.4,2.1,14.1,3.2,3.3,19,5.8,37.6,6.5,56.5.4,10.5-1.4,20.5-6.8,29.6a99.57,99.57,0,0,0-5.2,9.6c-2.9,6.4-7.5,11-13.6,14.6a156.22,156.22,0,0,0-13,8.8,57.78,57.78,0,0,0-7.6,6.3c-5.7,5.8-5,12.3,2.1,16.5,3.5,2.1,7.6,3.2,11.6,4.7,1.9.7,3.9,1.1,6.1,1.7-5.3,11.7-10.4,22.9-15.6,34.2-1.8-.7-3.4-1.4-5.1-1.9-10.9-3.7-21.6-7.8-32.7-10.8-20.6-5.6-41.6-8.8-63.1-5.9-13.6,1.8-26.1,6.2-36.9,14.9-15,12-21.6,27.9-20.4,46.9.9,14.8,6.2,28.1,15,40.1a26.87,26.87,0,0,1,1.9,3.2c-19.3,4.9-38.3,9.8-58.3,14.9,1.6-4.9,2.6-9.2,4.3-13.1s4.1-7.4,6.2-11.1c-4.7,2.8-7.7,7-10.4,11.3s-5,8.9-7.6,13.6c-2.3-5-3.6-10.4-10-10.4,1.6,3.9,3.3,7.7,4.7,11.5.6,1.7.1,3.1-2.5,2.7-.5-1.9-1.1-3.9-1.7-6-1.9,3.3-3.1,6.9-5.5,8.9-2.6,2.1-6.4,2.5-9.7,3.7-2.8,1-5.5,2.1-8.3,3.1-3,1.1-6,2.3-9.3,3.5.2-1.8.4-3,.5-4.2a2.35,2.35,0,0,0-.8-.2c-1.1,2-2.3,4-3.9,6.8-3.5-5.7-6-11.7-13.5-13.6,2.5,5.6,6,10.1,6.5,15.9-2.2,1-4.3,2-6.3,2.9C71.1,750,46.3,763.4,23.3,780a17.57,17.57,0,0,0-3.7,2.9c-.5.5,0,1.8,0,3.8,26.7-19.7,54.5-34.8,84.6-47.6-.3,3.2-.5,5.6-.6,7.9,4.3-7.8.7-15-2.4-23.3,6.8,6.3,8.4,14,11.1,21.1.4-.1.7-.3,1.1-.4-.4-2.4-.8-4.8-1.1-7.2.3-.1.6-.1.9-.2,1.3,1.6,2.5,3.2,3.8,4.7.3-.2.5-.4.8-.6-1-2-2-4.1-3.2-6.6,8.9-3.3,17.2-6.5,25.5-9.4,1.2-.4,2.8.5,4,.8.6-2.6,1.2-5.1,2-8.9,2.6,4.4,3.6,8.4,7.7,10.4.8-6.6-.5-12.5-1.8-18.4,3.3,3.6,2.8,8.5,4.7,13.7,1.2-4.2,2-7.4,3-10.4a23.09,23.09,0,0,1,5.1-9c-1.5,7.7-3.4,14.4-.8,21.2.1-2.5.3-5,.4-7.5,3.4-1,6.3-2,9.4-2.7,15.5-4,31.1-7.8,46.6-11.9,3.5-.9,6.2-.6,8.9,2.2a56.59,56.59,0,0,0,8.6,6.7C250,720,261,729.8,270,741.8c4.4,5.9,8.1,12.2,9.8,19.5,1.9,8.2-.5,15-7.3,19.7a38.93,38.93,0,0,1-11.2,5.5c-5.6,1.8-11.5,2.9-17.2,4.2-7.5,1.7-15,3.3-21.7,7.4s-7.1,10-.6,14.6a54.61,54.61,0,0,0,12,6.2c13.5,5.2,27.6,7.1,41.9,8.2,11.9.9,23.7.3,34.9-4.6.2-.1.5.2,1,.4-.1.6-.1,1.3-.2,2-3,15.4-6,30.8-9.2,46.1a37.9,37.9,0,0,1-2.6,6.8c-2.6,6.1-5.8,11.9-7.8,18.2a30.86,30.86,0,0,0-1.4,12.8c1.6,15.5,8.7,28.6,19.8,39.3,5.8,5.5,12.3,10.3,18.7,15.1,2.2,1.7,3.5,3.2,2.9,6-.9,4.2-1.7,8.5-2.8,12.7-.5,1.7-.8,3,1.7,3.4a18.34,18.34,0,0,0,1.8-3,34.86,34.86,0,0,0,2-7c1.9-14.5-.1-28.8-2.2-43.3,1.6,1.4,3.2,2.8,3.9,4.6a72,72,0,0,1,3.9,11.9c2.4,12.4,2.5,24.9,1.6,37.5-.4,5.2-.8,10.5-1.4,16.8a16.7,16.7,0,0,0,1.7-2.6c8.9-20.5,16.3-41.5,18-64.1.6-8.4,5.2-14.5,12.2-17-1.3,3.8-2.9,7.5-3.9,11.3-1,4-1.7,8.2-2.3,12.3-1.9,14.2-1.3,28.5-.6,42.8.3,5.6,1,11.1,1.6,16.7.2,2.2,1.2,2.6,3.2,1.6-.1-6.8-1.8-13.4-1-20.3,8.3,2.8,16.2,5.4,24.3,8.1-.8,7.9-4,14.9-6.2,22.1,2.9.8,3,.8,3.9-1.4,6.3-16.7,10-33.7,7.4-51.7-.3-1.8-.6-3.6-.9-6a16.69,16.69,0,0,1,1.7,1.5c7.9,12.2,14.3,25.2,17.1,39.6,1,5.3,1.3,10.7,1.9,16.1.2,1.7.1,3.3,3.1,2.4.6-13.5.7-27.2,3.7-40.7.3,11.6-2.6,23.5,3.1,35.3,5.4-5.5,8.5-11.6,11.8-17.6.4.4.7.5.7.6,3.1,10.8,5.7,21.6,3.3,32.9-.4,1.8,0,2.7,2.5,2.8,2.6-5.2,5.4-10.6,7.9-16.1s4.9-11.2,6.9-16.9c2-5.5,3.5-11.2,5.3-16.9H468c1.7,8.3,3.7,16.6,5.1,25,1.6,9.6,1.7,19.1-3.8,27.8-1.1,1.8.3,2.3,1.7,3,6.1-7.1,6.2-15.8,6.4-24.8,48.7,8,97.1,6.7,145.7,5.3-.1,1.6-.1,2.6-.2,3.7-.3,4.9-.7,9.7-1.1,14.6-.1,2,.6,2.9,3.1,2.3,1.6-18.8,2.5-37.7,8.3-55.8a167.94,167.94,0,0,0,5.4,30.1c2.7,10,5.6,19.9,10.3,30.2a93.52,93.52,0,0,0,7.5-39.8,28.29,28.29,0,0,1,2.8,6.2c3.8,12.5,4.7,25.3,4.4,38.3a18.39,18.39,0,0,0,.1,4.7c.2.8,1.3,1.3,2.8,2.7,1.2-14,.1-26.5-2-39.4,7.1-.5,13.8-1,21.1-1.6-.9,7.2-2.9,13.9-.1,20.4,2.3.1,2.5-.8,2.4-2.6-.3-4-.6-8.1.1-11.9,1.8-10,5.8-19.3,10.2-28.5a15.34,15.34,0,0,1,1.7-2.1,179.25,179.25,0,0,0,13.7,47.7c1.4-2.2,2.9-4.5,3.1-6.9.8-7.8,1.8-15.6,1.5-23.4-.8-25-5.4-49.5-10.3-73.9a34.58,34.58,0,0,1-.3-3.9,14.74,14.74,0,0,1,6.6,7.3c2.5,5.9,5.2,11.8,6.8,18,5.9,21.8,8.1,44.2,9.6,66.6a30.7,30.7,0,0,0,.6,5.2c.1.4,1,.8,1.6.9a1.78,1.78,0,0,0,1.1-.8,22.26,22.26,0,0,0,.5-3.6c.6-4.3.9-8.7,1.8-12.9,4.5-21.7,14.9-40.4,28.7-57.4a9.35,9.35,0,0,1,1.9-1.4c-1.4,9.7-2.8,19.2-3.9,28.6a142.63,142.63,0,0,0-.6,28.5c4.2-.4,1.6-4.1,3.5-5.2,10.6-2.9,21.2-5.8,32.7-8.9-2.5,8-4.7,15.1-6.9,22.1,2.6,1.9,3.2.1,3.8-1.6,2.1-7,4.4-13.9,6.2-21,1.2-4.9,1.6-10,2.5-16,.8,1.4,1.1,2,1.4,2.6,2.9,6.8,5.3,13.7,5.5,21.1.1,1.9.2,3.6,3.2,2.5v-5.1c0-13.1-.2-26.2.3-39.2.3-8,1.8-15.9,2.9-23.8a7.78,7.78,0,0,1,2.7-5.4c.1,1.9.2,3,.3,4.2.4,11.5.6,23,1.4,34.5.6,8.1,1.9,16.3,3.1,24.3.3,2.2,1.6,4.3,2.4,6.5,1-.5,1.5-.7,1.6-.8.3-6.2-3.1-11.9-2.5-18.4a5.77,5.77,0,0,1,.8-1c13.3-10.2,21.7-23.9,27.8-39.2,7.5-18.7,9-38.3,6.1-58.1-2.6-17.2-7.3-33.7-17.1-48.4a22.69,22.69,0,0,1-2.6-5.7c-1.4-4.7-2.8-9.4-3.7-14.1-1.4-7.4-2.4-15-3.6-22.8,2.1,0,3.4-.1,4.8,0,14.3,1,28.5,2,42.8,3.1,8.5.7,17,1.5,25.5,2.2,2.7.2,5.2.6,6,3.9.1.4,1.1.7,2.6,1.5a118.28,118.28,0,0,0-8.8-20c4.1,2.6,8.2,5.2,12.7,8,.7-9.1-.9-17.8,1.7-26.2.5,9,.8,18.1,5.1,27,4-8.2,5-16.5,7.2-24.6a65.31,65.31,0,0,1,.9,12.4,97.31,97.31,0,0,1-1.1,12c-.6,3.9-1.5,7.8-2.3,11.6,3.7-3.1,3.7-3.1,8.5-2.5l35.9,3.9c6.9.8,13.8,1.6,20.8,2.5C996.3,812.5,994.1,822.8,996.2,834ZM919.7,73.7c-13.1-2.2-25.5-4.2-37.8-6.2-3.1-.5-6.3-.6-9.2-1.6a39.61,39.61,0,0,0-22.6-1.1c-9,2-17,6-24.7,10.9a161.76,161.76,0,0,0-33.5,28.2,28.69,28.69,0,0,1-16.2,9.3c-11.8,2.5-23.4,5.7-34.2,11a51.15,51.15,0,0,0-11.7,7.6c-5,4.5-5.1,10.1-.2,14.6,6.8,6.2,14.5,10.6,24.2,10.6,55.8-.1,111.6,0,167.3-.1,4,0,6.4,1.1,8.9,4.6,21.9,31.1,52.2,45.6,90,42,30-2.8,53.4-17.9,70.2-43a7.07,7.07,0,0,1,6.7-3.7c16.2.2,32.4.1,48.6.1h5.5a9.67,9.67,0,0,0,.5-2.1c-.2-5.8-4-8.7-8.9-10.3-7.8-2.5-15.8-2.6-23.8-2-1.5.1-3,0-4.5,0,0-.6-.2-.9-.1-1.2,2.8-8.6.4-15.4-7-20.5-1.8-1.2-1.7-2.7-1.7-4.5,0-6.6.3-13.3-.5-19.8A96.08,96.08,0,0,0,921.8,69.1C921.1,70.7,920.3,72.3,919.7,73.7Zm25,858.6c-25.3,27.2-46,55.8-56,92.2-.7-2.9-1.1-4.6-1.5-6.3-1.8-7.8-4.2-15.5-8.4-22.4-2.8-4.5-6.1-8.5-10.9-11a19.23,19.23,0,0,0-13.9-2c8.3,6,12.3,14.1,15.4,22.7,4.9,13.8,6.6,28.1,6.7,42.6a8.61,8.61,0,0,1-.8,2.2c-11.1-12.9-16.3-27.3-15.8-43.9a4.17,4.17,0,0,0-1.6,1.7c-4.5,9.3-8.5,18.7-10.8,28.8a72.46,72.46,0,0,0-1.5,12.4c-.2,2.5.6,5.1,3.5,7.6.4-1.8.8-2.8.7-3.7-.2-2.1-1.1-4.1-.9-6.1.6-9.5,3.8-18.2,7.5-27.1.5.7.8.9.9,1.2.3,1.2.6,2.4.9,3.5a65.19,65.19,0,0,0,17.6,31,36.85,36.85,0,0,0,4.1,3c-.2-25.6-1.8-49.6-15.2-71.4a22.25,22.25,0,0,1,6,3.6c4.6,4,7.4,9.2,9.5,14.8a103.55,103.55,0,0,1,6.3,27.9c.3,2.5.6,5,.8,7.3,3.2.6,3-1.1,3.3-2.7.8-5.3,1.4-10.7,2.7-15.9,5.4-20.9,15.9-39.3,28.5-56.5.1-.2.5-.1,1.2-.3a159.05,159.05,0,0,0-12.8,42c-2.7,17.4-2.8,37.4.1,43.2,2.6.1,2.2-1.6,2-3.2a136.53,136.53,0,0,1,.2-31.3c3.1-28.6,13.1-54.3,31.2-76.8a10.13,10.13,0,0,0,2.2-2.9C945.8,935.4,945.2,934.3,944.7,932.3ZM189.3,474.1c-2.3-1.7-4.1-3.1-5.9-4.5-7.5-5.5-15.3-10.2-24.4-12.7-13.8-3.7-25.8-.6-36.4,8.8a58.43,58.43,0,0,0-14.3,19.8c-1.4,3.1-3.1,4.7-6.7,5.4-11.4,2.5-17.3,13.2-13.7,24.8h4.5q132,0,264,.1c3.7,0,5.9-1.1,7.3-4.3.4-.8.8-1.5,1.2-2.3,5-10.4,1.5-17.6-9.7-20.3a3.55,3.55,0,0,0-1-.2c-3.5.3-5.2-1.6-6.8-4.5-5.9-9.9-14.9-15.4-26.3-16.8-3.1-.4-6.2-.5-9.4-.7-.7-1.4-1.3-2.8-2-4.2a20.52,20.52,0,0,0-14.8-11.4,47,47,0,0,0-13.5-.7,73.06,73.06,0,0,0-15.2,3.6c-2.8.9-4.8.4-7.2-1-6.7-3.6-13.4-7.7-20.5-10.2-21.3-7.5-37.9.5-46,21.7C191.4,467.4,190.5,470.4,189.3,474.1Zm857.9,54.3c1.6,10.4,3.9,20.3.4,31.2,4.1-5.2,4.2-5.6,2.2-27.8,3.6,2.7,3.8,6.7,4.3,10.3a95.5,95.5,0,0,1,.6,12c.1,3.6,0,7.3,0,12.1,1-1.7,1.4-2.3,1.7-2.9,3.7-9.4,7-18.9,7.7-29.1.4-4.9,1.9-7,5.7-8.6-3.5,15.3-4,35.9-.6,43,0-3.4-.4-6.8-.4-10.2,0-7.6-.1-15.3.6-22.9.6-6.1,1.7-12.6,9.8-14-7.8-1.3-15,3.4-16.3,10.4-.4,2.2-.5,4.5-.9,6.7-.9,5.7-2.1,11.4-5,16.7-.4-1.9-.2-3.9-.5-5.7a133.77,133.77,0,0,0-2.2-13.9C1053.5,532.3,1051.8,529.4,1047.2,528.4ZM200.5,758.1c-1-13.7-2-27-3.1-40.5-3.6,1.9-4.2,2.4-4.7,6.5-.8,6-1.1,12.1-1.6,18.2-.1,1.6-.2,3.3-.4,6-2.4-3.9-4.3-6.9-6.1-9.9a4.87,4.87,0,0,0-1.1.4c4.1,10.1-.4,19.3-2.4,28.9,3.8-6.2,4.9-13.1,5.9-20h1.2c1.3,4.3,2.6,8.6,3.8,12.9.7-6.7.4-13.3.7-19.8s0-13.3,3.2-19.4c.7,6.3.7,12.5,1.2,18.7C197.8,745.9,197.3,752.2,200.5,758.1Z"/><path d="M996.2,834c-2.1-11.2.1-21.5-.1-32.2-7.1-.8-13.9-1.7-20.8-2.5l-35.9-3.9c-4.9-.5-4.9-.6-8.5,2.5.8-3.9,1.8-7.7,2.3-11.6a97.31,97.31,0,0,0,1.1-12,65.31,65.31,0,0,0-.9-12.4c-2.3,8.1-3.2,16.4-7.2,24.6-4.3-9-4.6-18-5.1-27-2.6,8.4-1,17.1-1.7,26.2-4.5-2.8-8.6-5.4-12.7-8,3.3,6.4,6.4,12.5,8.8,20-1.5-.8-2.5-1-2.6-1.5-.7-3.3-3.3-3.7-6-3.9-8.5-.7-17-1.6-25.5-2.2-14.3-1.1-28.5-2.1-42.8-3.1-1.4-.1-2.7,0-4.8,0,1.2,7.9,2.2,15.4,3.6,22.8a132.65,132.65,0,0,0,3.7,14.1,19.64,19.64,0,0,0,2.6,5.7c9.9,14.7,14.6,31.2,17.1,48.4,3,19.8,1.4,39.3-6.1,58.1-6.1,15.3-14.6,28.9-27.8,39.2a3.14,3.14,0,0,0-.8,1c-.6,6.5,2.8,12.2,2.5,18.4,0,.2-.6.3-1.6.8-.9-2.2-2.1-4.3-2.4-6.5-1.2-8.1-2.5-16.2-3.1-24.3-.8-11.5-.9-23-1.4-34.5a40.64,40.64,0,0,0-.3-4.2,7.4,7.4,0,0,0-2.7,5.4c-1.1,7.9-2.5,15.9-2.9,23.8-.5,13.1-.2,26.1-.3,39.2v5.1c-3,1.2-3.2-.6-3.2-2.5-.2-7.5-2.6-14.3-5.5-21.1-.3-.6-.6-1.2-1.4-2.6-.9,5.9-1.3,11.1-2.5,16-1.7,7.1-4.1,14-6.2,21-.5,1.7-1.2,3.5-3.8,1.6,2.2-7,4.4-14.1,6.9-22.1-11.5,3.1-22.1,6-32.7,8.9-1.9,1.1.7,4.8-3.5,5.2a142.47,142.47,0,0,1,.6-28.5c1.1-9.5,2.6-18.9,3.9-28.6a15.63,15.63,0,0,0-1.9,1.4c-13.8,17-24.2,35.8-28.7,57.4-.9,4.3-1.2,8.6-1.8,12.9-.2,1.2-.2,2.4-.5,3.6-.1.4-.8.9-1.1.8-.6-.1-1.5-.5-1.6-.9a43.5,43.5,0,0,1-.6-5.2c-1.5-22.5-3.7-44.8-9.6-66.6-1.7-6.2-4.3-12.1-6.8-18a14.35,14.35,0,0,0-6.6-7.3,34.58,34.58,0,0,0,.3,3.9c4.9,24.5,9.4,49,10.3,73.9.3,7.8-.7,15.6-1.5,23.4-.2,2.4-1.7,4.7-3.1,6.9a179.25,179.25,0,0,1-13.7-47.7,15.34,15.34,0,0,0-1.7,2.1c-4.4,9.1-8.4,18.4-10.2,28.5a47.4,47.4,0,0,0-.1,11.9c.1,1.8-.1,2.7-2.4,2.6-2.7-6.5-.8-13.1.1-20.4-7.3.6-14,1.1-21.1,1.6a150.91,150.91,0,0,1,2,39.4c-1.5-1.4-2.7-2-2.8-2.7a24.44,24.44,0,0,1-.1-4.7c.3-13-.6-25.8-4.4-38.3a22.83,22.83,0,0,0-2.8-6.2,93.52,93.52,0,0,1-7.5,39.8c-4.6-10.3-7.5-20.2-10.3-30.2a151.94,151.94,0,0,1-5.4-30.1c-5.7,18.2-6.7,37-8.3,55.8-2.5.6-3.2-.3-3.1-2.3.4-4.9.7-9.7,1.1-14.6.1-1,.1-2,.2-3.7-48.6,1.3-97,2.6-145.7-5.3-.3,9.1-.3,17.7-6.4,24.8-1.4-.7-2.8-1.2-1.7-3,5.6-8.7,5.4-18.2,3.8-27.8-1.4-8.4-3.4-16.7-5.1-25h-1.3c-1.7,5.6-3.3,11.3-5.3,16.9s-4.4,11.4-6.9,16.9-5.3,10.9-7.9,16.1c-2.5-.2-2.9-1-2.5-2.8,2.4-11.3-.2-22.1-3.3-32.9,0-.1-.3-.2-.7-.6-3.3,6-6.4,12.1-11.8,17.6-5.7-11.8-2.9-23.7-3.1-35.3-3.1,13.4-3.1,27.2-3.7,40.7-3,.9-2.9-.7-3.1-2.4a144.3,144.3,0,0,0-1.9-16.1c-2.8-14.4-9.2-27.3-17.1-39.6a9.82,9.82,0,0,0-1.7-1.5c.4,2.4.7,4.2.9,6,2.6,18-1.1,35-7.4,51.7-.9,2.3-1,2.2-3.9,1.4,2.2-7.2,5.5-14.2,6.2-22.1-8.1-2.7-16-5.3-24.3-8.1-.7,6.9.9,13.5,1,20.3-2,.9-3,.5-3.2-1.6-.5-5.6-1.3-11.1-1.6-16.7-.7-14.3-1.2-28.6.6-42.8a85.94,85.94,0,0,1,2.3-12.3c1-3.8,2.5-7.5,3.9-11.3-7.1,2.6-11.6,8.7-12.2,17-1.7,22.6-9.1,43.5-18,64.1-.3.6-.7,1.1-1.7,2.6.5-6.3,1-11.6,1.4-16.8.9-12.6.8-25.1-1.6-37.5a63.71,63.71,0,0,0-3.9-11.9c-.7-1.8-2.3-3.2-3.9-4.6,2,14.5,4.1,28.8,2.2,43.3a34.86,34.86,0,0,1-2,7,18.34,18.34,0,0,1-1.8,3c-2.5-.5-2.1-1.7-1.7-3.4,1.1-4.2,1.9-8.4,2.8-12.7.6-2.7-.7-4.3-2.9-6-6.4-4.8-12.9-9.6-18.7-15.1-11.2-10.7-18.2-23.8-19.8-39.3a32.61,32.61,0,0,1,1.4-12.8c2.1-6.2,5.2-12.1,7.8-18.2a32.91,32.91,0,0,0,2.6-6.8c3.2-15.4,6.2-30.7,9.2-46.1a13.55,13.55,0,0,0,.2-2c-.4-.2-.8-.5-1-.4-11.2,4.9-23,5.5-34.9,4.6-14.3-1.1-28.4-3-41.9-8.2a59.29,59.29,0,0,1-12-6.2c-6.5-4.6-6.1-10.4.6-14.6s14.2-5.6,21.7-7.4c5.8-1.3,11.6-2.4,17.2-4.2a46.63,46.63,0,0,0,11.2-5.5c6.8-4.8,9.2-11.6,7.3-19.7-1.7-7.3-5.4-13.6-9.8-19.5-8.9-12-19.9-21.9-32.1-30.5-3-2.1-6.2-4.1-8.6-6.7-2.7-2.9-5.4-3.1-8.9-2.2-15.5,4-31,7.9-46.6,11.9-3,.8-6,1.8-9.4,2.7-.1,2.5-.3,5-.4,7.5-2.6-6.8-.7-13.5.8-21.2a23.81,23.81,0,0,0-5.1,9c-1.1,3-1.8,6.2-3,10.4-2-5.2-1.4-10.1-4.7-13.7,1.2,5.9,2.6,11.8,1.8,18.4-4.1-2-5.1-6-7.7-10.4-.9,3.7-1.4,6.3-2,8.9-1.2-.3-2.8-1.2-4-.8-8.4,2.9-16.6,6.1-25.5,9.4,1.2,2.5,2.2,4.5,3.2,6.6-.3.2-.5.4-.8.6-1.3-1.6-2.5-3.2-3.8-4.7-.3.1-.6.1-.9.2.4,2.4.8,4.8,1.1,7.2-.4.1-.7.3-1.1.4-2.7-7.1-4.3-14.8-11.1-21.1,3.1,8.3,6.7,15.4,2.4,23.3.2-2.3.4-4.7.6-7.9C73.8,751.8,46,767,19.3,786.6c0-2-.5-3.3,0-3.8a17.57,17.57,0,0,1,3.7-2.9c23-16.5,47.8-29.9,73.7-41.4,2.1-.9,4.1-1.9,6.3-2.9-.5-5.8-4-10.3-6.5-15.9,7.5,1.9,10,7.8,13.5,13.6,1.6-2.8,2.7-4.8,3.9-6.8a2.35,2.35,0,0,0,.8.2c-.1,1.2-.3,2.4-.5,4.2,3.3-1.2,6.3-2.4,9.3-3.5,2.8-1,5.5-2.1,8.3-3.1,3.3-1.2,7.1-1.7,9.7-3.7s3.6-5.6,5.5-8.9c.6,2.1,1.2,4.1,1.7,6,2.6.4,3.2-1,2.5-2.7-1.4-3.8-3.1-7.6-4.7-11.5,6.3-.1,7.7,5.3,10,10.4,2.6-4.7,4.9-9.3,7.6-13.6s5.7-8.5,10.4-11.3c-2.1,3.7-4.5,7.2-6.2,11.1s-2.7,8.1-4.3,13.1c20-5.1,38.9-10,58.3-14.9-.6-1-1.2-2.1-1.9-3.2-8.8-11.9-14.1-25.3-15-40.1-1.2-19,5.4-34.9,20.4-46.9,10.8-8.6,23.3-13.1,36.9-14.9,21.5-2.9,42.4.3,63.1,5.9,11.1,3,21.8,7.2,32.7,10.8,1.6.5,3.2,1.2,5.1,1.9,5.2-11.3,10.3-22.6,15.6-34.2-2.1-.6-4.2-1-6.1-1.7-3.9-1.4-8-2.6-11.6-4.7-7-4.2-7.8-10.7-2.1-16.5a57.78,57.78,0,0,1,7.6-6.3,141.2,141.2,0,0,1,13-8.8A31.54,31.54,0,0,0,393.6,525c1.5-3.3,3.4-6.5,5.2-9.6,5.4-9.2,7.2-19.1,6.8-29.6-.7-18.8-3.2-37.5-6.5-56.5-4.7-1.1-9.4-2.1-14.1-3.2-39.3-8.7-76.1-23.5-110-45.4a8.07,8.07,0,0,0-8.2-.8c-23.2,9.2-46.9,16.9-71.4,21.4-14.1,2.6-28.3,4.7-42.6,2.6a74.84,74.84,0,0,1-16.1-4.2c-7.8-3-13.3-8.8-16.4-16.7-5.3-13.8-12.8-26.2-23.7-36.5-7.6-7.2-10.7-16.6-11.9-26.7-.9-7.3-1.4-14.6-1.9-21.9a471.72,471.72,0,0,0-14.6-87.5c-2.7-10.2-.7-19.3,4.4-28,4.2-7.1,10.5-12.1,17.7-15.9,9.8-5.2,20.4-7.8,31.3-9.5,18.2-2.9,36.5-2.5,54.8-1.7,2.1.1,4,.2,5.9-1.3,10.9-8.7,23.6-11.6,37.2-11.4h3.3a15.45,15.45,0,0,0,1.2-2.2c5.5-13,15.9-18.9,29.5-19.9,11.8-.9,23.3,1.2,34.4,5.2a9,9,0,0,0,8.7-1c11.9-7.3,24.5-13.4,38.3-16.1,14.1-2.8,27.4-1.5,39.2,7.5,1.8,1.4,3.3,1.2,5.2.4,8.1-3.2,16.3-6.2,24.4-9.4a14.24,14.24,0,0,0,4.5-3.2c2.9-2.7,5.4-5.9,8.6-8.4,9.1-7.2,19.3-8.3,30.1-4.6,9.1,3.2,16.6,8.7,23.4,15.4,4.1,4,7.8,8.4,11.8,12.6,6.4-1.4,12.8-3,19.3-4.1a61.43,61.43,0,0,1,23.4.4c10.8,2.3,19.8,7.6,26.5,16.9,19.9-2,34.9,7.7,49.5,21.7-7.4.5-13.7.2-20,.3-6.5.1-12.9,0-19.4,0H503c3.4,6.3,6.5,12.1,9.7,17.8.5.8,2,1.3,3.1,1.5a38.38,38.38,0,0,1,15.6,5.8c1.5,1,3.6,1,5.5,1.1,17.9,1.8,35.9.2,53.8-.2,47.8-1,95,3.6,141.4,15.9,31.5,8.4,61.6,19.9,89.7,36.6,4.2,2.5,8.1,5.4,12.3,7.9a10,10,0,0,0,5.2,1.7c25.2-1.8,49.7,2.1,74.1,7.9,34.2,8.1,67.2,19.6,99.4,33.4a66.71,66.71,0,0,0,29.5,5.1c12.9-.6,25.8-1.2,38.7-1.6a126.93,126.93,0,0,1,34.2,3.3c32,8,53.2,35.9,52.1,68.9-.3,10.3-3.4,19.9-8.1,29-5.9,11.3-13.8,20.9-23,29.6-13.4,12.7-28.5,22.9-44.7,31.6a46,46,0,0,0-6.9,4.6c-19.3,16.1-40.4,29.2-64.9,36-43.3,12.1-83.5,4.5-120.5-20.6-7.5-5.1-15.2-8.1-24.3-7.8-11.3.3-22.7.3-33.7-3-7.7-2.3-15.2-5-22.8-7.6-1.8-.6-3.5-1.4-5.8-2.2-1.5,1.6-3.1,3.2-4.5,4.9-6,7.8-8.8,16.9-10.2,26.5-1.6,10.9-.4,21.5,1.3,32.3,2.9,18.1,5.6,36.1,8.4,54.2.2,1.4.6,2.7,1.1,5.3,1.3-2.4,2.2-4,3-5.5,6.5-12.1,14.6-22.9,25.5-31.5,16.7-13.1,35.6-17.7,56.5-15a113.73,113.73,0,0,1,33.4,9.8,11.37,11.37,0,0,0,8.5.6c9.9-2.8,19.8-5.3,29.8-7.9,1-.3,1.9-.6,3.5-1.1-1.2-2.4-2.2-4.5-3.6-7.1,2.6.4,3.8,2.2,4.9,3.6,1.9,2.4,4.1,3,6.9,1.9a10.89,10.89,0,0,1,2.6-.5c2.8-.3,4.2-1.5,4.7-4.5a46,46,0,0,1,2.8-8.9c.8-2,1.9-3.8,4.9-3.9-1.3,4.9-2.6,9.7-4.1,15.4a915.71,915.71,0,0,1,103.9-14c-.4-6.2-3.7-10.9-6.3-16,5.1.1,6.6,1.6,13.3,12.9,1.3-2.5,2.4-4.8,3.6-7.1.6,3.2-1.5,6.2,1.5,9.3,7.4-.3,15.1-.7,23.9-1.1-2.6,3.2-5.1,2.1-7.3,2.4-2.6.3-5.2.4-7.8.6-2.4.2-4.8.3-7.4.4.3,1.3.5,2.3.7,3.2-.2.2-.4.3-.6.5-1.3-1.6-2.6-3.2-3.9-4.9-.2.1-.5.1-.7.2l.9,7.2c-.3.1-.7.2-1,.3-2.4-6.7-4.2-13.8-9.9-18.9,1,3.5,2.3,6.9,3,10.5s1,7.4-1.8,10.7c.2-2.5.5-4.9.8-8a874.2,874.2,0,0,0-99.7,13.1c2.9,8.8,6.5,17.1,4.1,26.3-.5-4.8-1.1-9.7-1.6-14.5-.4-.1-.7-.1-1.1-.2-2.1,5.5-4.2,10.9-6.3,16.4-3.6-9.6-3.4-19.2-2-28.9h-1c-1.1,7.3-2.1,14.6-3.4,23.1-1.7-4.3-2.7-7.5-4.3-10.4a41,41,0,0,0-6.3-8.4c.2,6.1-.4,11.9-3.3,17.4.5-4.9,1-9.8,1.6-15.9-12.6,3.3-24.2,6.3-36.3,9.5,1.1,1.4,1.7,2.4,2.5,3.3,15.8,16.2,28.9,34.4,40.3,53.9a174.84,174.84,0,0,0,10,15.3c11.4,15.7,27.2,22.5,46.3,21,10.9-.8,21.8-2.6,32.6-4.1s21.8-2.8,32.8-1.5a36.88,36.88,0,0,1,10.5,2.7c5.3,2.3,6.4,6.8,3.1,11.6a22.85,22.85,0,0,1-5,5.3,92.62,92.62,0,0,1-11.8,7.8c-23,12.2-47.1,21.8-72.5,27.6a98.49,98.49,0,0,1-30.1,2.5,62.81,62.81,0,0,1-35.4-14.1c-16.7-13.7-32.5-28.5-45.3-46.1-3.9-5.4-7.7-10.8-11.8-15.9-8.5-10.4-14.6-10.9-24.5-1.8a111.9,111.9,0,0,0-20.2,25.2c-5.5,9-6.8,18.5-3.3,28.5,4.4,12.5,6.4,25.4,3.5,38.5-1.8,8-3.7,16-6.8,23.6-4.8,11.7-10.5,23.1-16.1,34.5a15.67,15.67,0,0,0-1.7,9c.7,6,1.1,12.1,1.7,18.2.2,1.9.5,3.8.8,5.9,25.2,1.9,50.1,3.9,75.5,5.8-.9-4.1-3.1-7-5.5-9.7s-3.6-2.7-7.1-.3a10.87,10.87,0,0,1-1.4.5c.9-4.7,2-6,5.8-5.5a27.43,27.43,0,0,1,7.4,2.2c2.8,1.3,5.4,3.1,8.7,5,.1-1.9.3-3.3.4-4.7.4-6.4.6-12.9,1.3-19.3.4-3.9,1.1-4.5,4.8-7.1.6,9.9-.7,19.6,2.8,29.7a55.1,55.1,0,0,0,4.1-19.6c.1-6.4-.5-12.7-.8-20.3,1.1,1.9,2,2.9,2.3,4a88.68,88.68,0,0,1,3.9,41.2c-.3,2-.6,4.1-.9,6.5,20.8,2.3,41.2,4.5,62,6.8.8-3.5,1.5-6.6,2.3-9.8a57.72,57.72,0,0,1,8.3-19.6,6.06,6.06,0,0,1,3.1-2.2c-3.3,10.8-4.9,21.5-2.8,32.9,2,.3,4,.5,6.7.9,1.4-6.1,2.9-11.9,3.9-17.9,1.6-9.6,3.5-19.2,1.8-29.1-1.1-6.1-2.2-8-7.4-11.5,1.9-2.2,4-1.3,5.3.3,2,2.3,4.1,5,5,7.8,2.4,8.3,4.6,16.8,6.2,25.3,1.3,7,1.6,14.2,2.4,21.3.2,1.9.5,3.8.8,6,27.5,3.7,54.9,7.3,82.8,11-1.1-10.8-4.8-20.3-8.7-29.9,3.5-1,5.8.7,7.3,3.1a48.63,48.63,0,0,1,5.1,10.2c1.9,5.6,3.3,11.4,5.1,17.9,5.5.8,11.5,1.8,17.5,2.5,1.1.1,2.4-1.1,3.4-2,3.7-3.2,7.2-6.5,10.9-9.8a6.82,6.82,0,0,1,3.3-1.6c-2.3,5-7.3,8.5-7.3,15,9.7,1.5,19.4,3.1,30.3,4.8-1.1,1.3-1.6,2.6-2.3,2.6a30.52,30.52,0,0,1-5.2-.5c-7.7-1.1-15.5-2.3-23.6-3.5-1.4,9,1.7,17.2,3,25.6-3.8-4.7-4.6-10.3-5.1-15.8s.1-11.2.2-17.6c-10,9.7-18.9,19.5-21.2,34.4-2.4-2.5-2.1-4.8-2.4-6.8-1.8-11-3.3-22-5.5-33-1.1-5.4-3.2-10.7-5.1-15.9a15.9,15.9,0,0,0-3.7-5.3c8.2,23.4,10.9,47,4.6,71.6-4.8-5.4-8.7-14.8-14.1-33.8-4.2,10.8-6.3,21-5,32.5-2.6-1.4-2.7-3.1-2.5-4.5.7-6.6,1.1-13.2,2.5-19.6,1.4-6.1,4-11.9,6.3-18.4-11.4-2.2-23.1-3.3-34.7-4.9s-23.5-3-35.7-4.6v11.8c-2.9-.5-2.1-2.5-2.2-3.8-.8-9.9-1.4-19.8-2.4-29.7-.8-8.3-2-16.5-4.7-24.5-1.3,20.6-6.2,40.3-12.7,60-4.5-6.5-6.5-20.8-6.5-40.5-.7,1.9-1.6,3.8-2.2,5.8-4.1,14-5,28.4-4.7,43C997.7,830.7,997.7,830.7,996.2,834ZM82.6,211.1c.9-17.2,13.1-25.6,28.5-20.1,8.4,3,15.7,7.6,20.8,15.1,5.7,8.5,11.4,17.1,16.7,25.9,16.4,27.2,33.4,53.9,53.9,78.3,37.1,44.1,82.2,77.1,136.3,97.4,44.1,16.5,89.9,23.6,136.7,24.2A996.32,996.32,0,0,0,582,427.1a621.59,621.59,0,0,0,71.8-10.7c19.4-4.2,38.7-8.8,58.1-13,19.2-4.2,38.5-4.3,57.4,1.3a371.58,371.58,0,0,1,35.5,12.2c31.3,12.8,61.2,28.7,91.1,44.4a40.48,40.48,0,0,1,4.3,2.9c36.4,25,75.9,33.1,118.8,20.9,23.9-6.8,44.5-19.7,63.4-35.5a41.21,41.21,0,0,1,6.5-4.4,208.23,208.23,0,0,0,35.7-23.6c11.2-9.3,21.3-19.6,28.7-32.2,6-10.1,9.7-20.9,9.8-32.7.4-32-21.9-58.1-54.3-63.9-14.4-2.6-28.8-2.3-43.3-1.6-9.7.5-19.5,1.1-29.3,1.3a53.29,53.29,0,0,1-22.8-4.7c-41.5-17.5-83.9-32.3-128.5-39.5-15.4-2.5-30.8-3.7-46.3-1.9-2.1.3-3.6-.5-5.3-1.6-8.7-5.5-17.3-11.2-26.3-16-42.3-22.3-87.7-34.3-134.9-40.6-29.3-3.9-58.7-4.9-88.2-4.1-11.1.3-22.3,1-33.4.7-19.3-.4-38.7-1.4-58-2.2-43-1.7-86.1-2.4-129.2-1.6-14.8.3-29.6,1.7-44.4,2.5a17.35,17.35,0,0,1-5.1-.5,850.26,850.26,0,0,0-89.5-18.4c-26.1-3.9-52.2-6.5-78.6-5.6-14.8.5-29.6,2.1-43.7,7.1-7.8,2.8-15.2,6.4-20.9,12.5-8,8.7-11.6,18.5-8.5,30.6A489.12,489.12,0,0,1,87,294.1c.6,7.8,1.1,15.7,1.9,23.4,1,9.3,3.4,18.3,10.5,25.1,11.5,10.9,19.6,24,25.2,38.7a24.3,24.3,0,0,0,13,13.7,46.91,46.91,0,0,0,10.4,3.4c13.4,2.8,26.7,1.6,40-.5,23.7-3.8,46.5-10.8,68.9-19.1,3.1-1.1,6.1-2.3,9.6-3.7a40,40,0,0,0-3.3-2.6c-29.6-20.9-54.7-46.4-76.6-75.1-15.9-20.8-29.5-43.1-43.1-65.5-5-8.2-10.3-16.1-15.8-24-5.1-7.4-12.6-11.4-21-13.6-8.7-2.3-14.6.7-18,9-1,2.5-1.7,5.2-2.5,7.7C84.9,211.1,83.9,211.1,82.6,211.1ZM368.4,978c8.7,4.2,22.1,8.4,26.5,8.2,2.7-17,1.5-33.2-8.9-48,1-.7,1.7-1.2,2.6-1.8a131.66,131.66,0,0,1,17.6,24.8c4.7,9,8.8,18.4,13.1,27.7.4-3.4.7-6.9,1.3-10.4,1-4.9,2-9.9,3.4-14.7.8-2.6,2.3-5.1,6.3-4.7-.9,12.3-3.2,24.3-2,36.6,1.7.3,3.2.6,4.9.9,2.7-4.2,4.6-8.4,4.9-13.2.1-1.6.5-2.7,3-2.5,1.1,3.6,2.3,7.3,3.4,11.1,2.1,7.8,2.1,7.8,10.1,8.7.2,0,.3-.1.9-.2a110.38,110.38,0,0,0,7.4-23c1.2-6,1.1-11.7-1.8-17.3-1.3-2.5-2.2-5.1-3.3-7.6a8.26,8.26,0,0,0,1.3-.7c2.3,3.4,5.2,6.6,6.7,10.3a162.19,162.19,0,0,1,6.2,19.4c2,7.4,3.6,14.9,5.4,22.6,48.4,8,97.2,7.1,146.2,5.2.4-2.6.7-4.6,1-6.7,1.5-10.9,3.1-21.8,7.3-32a43.72,43.72,0,0,1,5.9-10.3c3-3.8,5.2-3.8,10.6-1.3-7.5,1.9-10.5,7-11.1,13.8-1,12.2,1.5,23.8,4.8,35.8,3.7-.2,7-.4,10.4-.6.1-1.5.2-2.4.2-3.2-.3-6.1-1.3-12.1-4-17.7-.9-1.8-1.4-3.3,1.6-3.9,7,6.5,9.9,15.5,13.1,24.4,8.2-.7,16-1.4,23.7-2,4.7-12.8,10-24.7,17.5-35.7-3.4,11.5-1.3,22.4,2,33.8,2.8-.4,5.4-.7,8.3-1.1-1.2-27.8-6.6-54.5-12-81.6a11,11,0,0,1,9.6,4.3c2.4,3,4.8,6.2,6.1,9.7,2.8,7.7,5.6,15.4,7.2,23.4,2.6,12.8,4.1,25.8,6.1,38.7.2,1,.6,2,.9,3.1a13.08,13.08,0,0,0,2.6-4.7c1.7-4.6,3.2-9.2,5.1-13.7,8.3-19.6,21.3-35.9,35.9-51a24.18,24.18,0,0,1,12-6.1,7.26,7.26,0,0,1-.5.9,33.67,33.67,0,0,1-3.6,3c-8.6,5.8-13,14.3-15.2,24.1a187.19,187.19,0,0,0-4.3,39.4,16.42,16.42,0,0,0,.5,2.3c11.6-2.5,22.8-5.4,33.6-9.7,1.2-8.2,1.6-15.9-1.9-23.4-.9-1.9.3-2.5,2.5-2.7,3.2,5.9,6.5,12,10.5,19.2.2-2.8.2-4.5.3-6.1.5-9.9.7-19.9,1.6-29.7a74.66,74.66,0,0,1,3.7-16.2c1.3-4,3-4.5,7.5-4.2.2,16.3.4,32.6,2.2,50,2.9-2.8,5.2-4.7,7.1-6.9a99.3,99.3,0,0,0,16.1-24.9c9.8-21.8,11.3-44.4,6.7-67.5-2.6-13.2-6.7-25.9-13.7-37.6a55.91,55.91,0,0,1-5.8-12.7c-4.1-13.9-5.6-28.3-7.2-42.7-.7-6.7-1.4-13.3-2.1-20.6-1.4.8-2.2,1.2-2.9,1.7-13.4,8.9-21.8,4.1-26.8-8.4a178.77,178.77,0,0,1-6.4-20.4c-3.1-12-6.1-23.9-5.8-36.5a292.31,292.31,0,0,1,4.8-44.7,663.74,663.74,0,0,1,15.2-65.6,16.57,16.57,0,0,0,.7-6.6c-3.5-23.1-7.1-46.1-10.8-69.2-2-12.4-2.2-24.7.7-36.9,4.2-17.8,14.4-30.7,31.9-37.2.7-.3,1.5-.6,2.7-1.1a14.69,14.69,0,0,0-2.1-1.4c-18.6-8.8-37.4-17-57.3-22.5-15.1-4.2-30.5-6-46-3.5-10,1.6-19.9,3.4-29.7,5.9-37.8,9.5-75.9,16.5-114.7,20-38.2,3.4-76.5,5.4-114.9,4.2-14.8-.5-29.5-2.3-44.3-3.7-5.5-.5-10.9-1.4-16.8-2.2.1,1.4.2,2.2.3,3,1.8,14.9,3.7,29.7,5.4,44.6,1.8,16.1-.8,31.3-9.8,45a58.57,58.57,0,0,0-3,5.8c18.1-8.8,36-8.3,54-4.2,17.3,3.9,33.5,10.6,49.6,17.8a23.22,23.22,0,0,1,5.7,3.7c5.5,4.6,6,10.4.7,15.3-3.4,3.1-7.7,5.3-11.6,7.9-1.7,1.1-3.7,2-5.3,3.2a39.73,39.73,0,0,1-16,7.4c-12.4,2.6-24.4.9-35.9-3.6-8.8-3.4-16.8-2.9-25.4.1-6.5,2.3-13,4.9-20.3,4.9,3.4,2.5,4.6,2.8,10.3,3,6.8.2,13.6.4,20.3.9,6,.4,12.1.9,18.1,1.8,6.5,1,12.9,2.8,19.4,3.9,6.7,1.2,13.4,1.9,20,2.8,4.8-6.7,9.4-13,14.1-19.5,1.4,1.3,2.2,2.1,3,2.8-7.6,11.2-15.2,22-22.3,33.2-4.7,7.5-8.7,15.5-12.8,23.3-2,3.8-2.6,7.8-.4,12,1.2,2.3,1.6,5,2.5,7.4A27.39,27.39,0,0,0,478.2,669a58,58,0,0,0,10.7,4.2c13.6,3.7,27.5,4.3,41.5,3a39.68,39.68,0,0,0,18.2-6c8.3-5.3,12.1-13.9,9.8-23.4-1.8-7.5-5.8-13.5-13.1-16.6-5-2.1-6.9-5.8-6.4-10.7.3-3.1,1.4-6.1,2.2-9.1.1-.2.5-.4,1-.7q1.35.75,3,1.5a34,34,0,0,0-.9,3.3c-2,7.8-1.6,8.8,5.4,12.8,15.4,8.8,21.4,34.9.6,47a53.18,53.18,0,0,1-13.6,5.2c-11.9,2.9-23.9,2-35.9.6a72.58,72.58,0,0,1-21.6-5.7c-7.7-3.5-13.9-8.8-17.3-16.7a129.83,129.83,0,0,1-5.2-14.8,10.74,10.74,0,0,1,.3-5.6,84.82,84.82,0,0,1,2.6-8.2c-1.3-.3-2.2-.5-3.2-.7-12.4-1.7-19.1-8.4-20-20.8-.3-5.1.2-10.4.3-16.3-4.9-.5-10-1.3-15.1-1.7-7.1-.5-14.3-.5-21.4-.9-6.7-.4-12.6-2.5-15.8-10.1a402.82,402.82,0,0,0-37.5,108c3-1.8,6.9-2.1,8.5-5.8,4.1-9.1,8.5-18,12.3-27.1a51.45,51.45,0,0,0,3.9-22,50,50,0,0,1,.7-10.9c1.4-7.9,6.1-10.5,13.7-8,2,.7,3.3,1.7,3.4,4,.5,6.8,1.5,13.5,1.5,20.3-.1,10.5-2.6,20.3-9.6,28.7a26.91,26.91,0,0,0-5.7,12.3c5.5.2,10.6,1.2,14-4,.4-.6,1.5-.9,2.2-1.3a37.09,37.09,0,0,0,13.9-13.9,20.05,20.05,0,0,0,2.4-6.3c1.1-6.8,8-15.1,14.7-15.9a87.15,87.15,0,0,1,17.7-.4c6.5.5,8.5,3.4,7.5,9.9-1.4,9-5.1,17.1-11.9,23.3a19.46,19.46,0,0,1-8.1,4.4c-5.8,1.5-8.9,5.6-12.5,10.5,20.2,6.7,37.4,18,54.7,28.8,4.4-4.6,4.9-5.7,6-11.8,1.3-7.5,5-10.6,12.6-10.3,2.4.1,4.8.6,7.2.9,4.6.6,7.5,3.4,8.2,7.6s.5,8.3.6,12.4a7.2,7.2,0,0,1-3.1,6.2c-1.8,1.4-3.1,3.6-5,5.9,11.4,3.2,22,5.4,32.9,5.6,3.4-6.3,6.1-12.5,6.4-19.5.2-4.7.5-9.4.8-14.1.6-9.8,5.5-14.5,15.3-14.4h3.1c4,.3,6.8,2,7.6,6a36.74,36.74,0,0,1,.7,11.9c-.5,4.4-2,8.8-3.1,13.2-1.3,5.1-3.1,10.2-2.6,16.2a200.08,200.08,0,0,0,47.6-11.3c-2.2-5-3.9-9.6-6-13.9-5.4-10.7-4.1-21.3,0-31.8,2.5-6.4,7.7-10.2,14.4-11.7,4.4-.9,8.2.8,9.8,5a22.21,22.21,0,0,1,1.4,7.6c.1,12.4,3.7,23.3,13.7,32,14.4-7,30.4-6.9,45.5-7.7,3-11.4,5.7-22.2,8.8-32.9a52.51,52.51,0,0,1,5-12c2.6-4.6,6.6-5.9,11.7-4.6a80.46,80.46,0,0,1,9.5,3c4.2,1.6,6.3,5,5.6,9.5a39.93,39.93,0,0,1-2.4,7.4c-2.3,5.7-4.9,11.2-6.9,16.9a26.75,26.75,0,0,0-1.6,13c1.7.1,3.3.3,4.8.4,13.2,1,26.4,2.1,39.6,2.8,11.2.6,18.6,6.1,23.3,15.9a50,50,0,0,1,2.1,4.8c4.6,13,5.9,26.5,5.6,40.1a3.36,3.36,0,0,1-.5,1.4c-2.9.8-3.6-.6-3.8-3.2-.5-8.2-1.1-16.3-2.2-24.4a49,49,0,0,0-7.1-20.1c-3.4-5.4-8-9.1-14.7-9.6-15.1-1.1-30.2-2.2-45.4-3.2a9.23,9.23,0,0,0-2.2.6c.6,5,1.5,9.8,1.9,14.6.7,8.3,1.6,16.7,1.5,25-.1,9.4-5.5,14.7-14.9,15.6-1.4.1-2.8.2-4.2.2-4.9-.2-8.1-2.3-9-7.1a46.74,46.74,0,0,1-.5-12.4c.4-5.9,1.5-11.8,1.9-17.7a25.31,25.31,0,0,0-.9-8.7c-1.1-3.6-3.1-6.9-4.9-10.8-14.7.9-29.8.3-43.4,7.4,1.2,5.7,2.6,10.8,3.3,16a116.88,116.88,0,0,1,1.1,15.6c-.1,6.5.1,12.4,4.3,18.2,3.6,5,1.7,9-3.9,11.8-3.1,1.6-6.3,2.9-9.4,4.6-5.6,3.2-10.4,2.8-15.3-1.5a28.84,28.84,0,0,1-7.7-11.7,44.4,44.4,0,0,1-2.7-16.9,58.73,58.73,0,0,0-4-22.8,256.38,256.38,0,0,1-49.2,11.5,29,29,0,0,0,0,4.2c1,4.4,1.9,8.9,3.2,13.1,2.2,7,4.7,13.9,4.6,21.3-.1,12.1-10.8,19.1-21.8,14.2-2-.9-3.7-3.1-5-5-1-1.5-1.2-3.6-1.4-5.5a100.21,100.21,0,0,0-5.1-22.3c-1.8-5.2-2.1-10.9-3.1-16.3-.2-1-.2-2-.3-2.5-11.4-2-22.3-4-33.6-6-.6,1.9-1.4,3.8-1.9,5.8-1.8,6.4-3.1,12.9-5.3,19.1a84.58,84.58,0,0,1-7,15.7c-3,5.4-8.2,7.5-14.3,6.2-5.3-1.2-10.5-2.6-15.6-4.3-3.6-1.1-5-3.6-4.1-7.3.6-2.7,1.9-5.2,2.8-7.8,2.2-5.8,5-11.5,6.6-17.5a51.31,51.31,0,0,1,8.6-18.3c.9-1.2,1.7-2.4,2.6-3.7-17.4-11-34.2-22.2-54.1-28.3-4.1,7.5-6.6,14.9-6.9,23.1a89.55,89.55,0,0,1-.4,10.4c-1.3,10.3-14.8,17.4-24.1,12.6a10.7,10.7,0,0,1-4-3.9,20.24,20.24,0,0,1-2.2-6.4c-1.4-8.1-.2-16,1.8-23.8,1.5-5.9,3.5-11.6,5.3-17.6h-9.3c-1.8,4.9-3.2,9.5-5.2,14a53.39,53.39,0,0,1-5.7,10.5c-2.8,3.8-6.5,4.3-10.7,2.2-3.5-1.7-5.3-4.7-4.8-9a93.47,93.47,0,0,1,2.1-9.3c-3,1.2-4.8,2.8-5.1,6-.2,2.8-1,5.5-1.4,8.2-4,23.3-5.6,46.7-1.6,70.2,2.9,17.1,7.7,33.6,16.7,48.6,7.1,11.9,16.5,21.6,28.7,28.3a80.13,80.13,0,0,0,27.7,8.8,9.76,9.76,0,0,1,1.6.7c-.2,1.2-.4,2.3-.7,3.9-3.8-.7-7.4-1.2-11-2C380,858.6,363,844,351.4,822.8c-8.9-16.3-13.4-33.9-15.8-52.2-.7-5.8-1.2-11.6-1.7-17.6-.7.4-1.1.5-1.2.7-.8,2.7-1.7,5.3-2.4,8-8.8,32.8-15.4,66.2-21.9,99.5-1.7,8.9-3.3,17.8-8.5,25.5-1.4,2.1-2.2,4.7-3.2,7.1a33,33,0,0,0-1.4,21.5c5,20.1,18.3,33.6,35,44.4.1.1.3-.1,1-.3,0-10.9-2.7-21.5-4.3-32.6a13.08,13.08,0,0,1,10.6,7,38.3,38.3,0,0,1,4.1,10.1c1.4,7,2.3,14.1,3,21.2.3,3.1,1.3,4.9,4.6,5.2a16.32,16.32,0,0,0,.9-1.9c3.1-10,5.6-20.2,6.1-30.7.8-18.2,18.2-25.8,31.2-25.7.3,0,.6.3.9.5.7,3.2-1.9,2.9-3.6,3-5.2.2-8.3,3.3-10.3,7.6a49.82,49.82,0,0,0-3.5,9.8C367.6,947.2,367.9,962.5,368.4,978ZM884.3,523.1c-15.7,0-29.2,4-41.1,12.7a88.37,88.37,0,0,0-33.1,46.4,577.69,577.69,0,0,0-19.6,90.2c-3.7,26.4,1.1,51.3,9.8,75.9a33.51,33.51,0,0,0,4.9,8.6,7,7,0,0,0,7.8,3c6.1-1.5,11.7-4.3,14.8-9.8,8.7-15.3,16.3-31.2,21.2-48.2,3.1-11,5-22.1,2.6-33.5-1.2-5.6-2.8-11.1-4.4-16.6-2.3-7.9-2-15.6,1.5-22.9a99.07,99.07,0,0,1,27.1-34.7c9.3-7.5,17.1-6.7,25.3,2a56.78,56.78,0,0,1,5,6c2.6,3.5,5.2,7,7.7,10.6,12.4,17.9,28.3,32.6,44.8,46.6a60.26,60.26,0,0,0,32.1,14c10.4,1.3,20.6.2,30.6-2,25.7-5.7,49.8-15.4,72.9-27.9a78.69,78.69,0,0,0,10.8-7.3c2.1-1.7,4.9-3.6,4-6.8-.8-2.9-3.9-3.1-6.5-3.7-9.2-2-18.4-1.5-27.6-.4-12.6,1.5-25.1,3.8-37.8,5.1-23.4,2.5-42.5-5.3-56-25.1-3.2-4.7-6.3-9.6-9.2-14.6-11.3-19.1-24.3-37-40-52.7a18.33,18.33,0,0,0-4.9-3.9C913.3,527.6,898.8,523.3,884.3,523.1ZM362.1,616.3a40.45,40.45,0,0,0-5-2.2c-9.7-3.4-19.3-7.1-29.2-9.9-20.7-5.8-41.8-9.5-63.5-6.8-11.2,1.4-21.8,4.6-31.3,10.9-16.9,11.2-24.9,27-23.1,47.2,2,22,12,39.7,30.4,52.4a139.56,139.56,0,0,1,33.5,32c4.5,6.1,8.2,12.5,10,20,2.6,10.8-.8,19.7-10,25.9-5.7,3.8-12.2,5.9-18.8,7.5-7.3,1.7-14.6,3.3-21.8,5.3a38.41,38.41,0,0,0-9,4.1c-3.3,2-3.5,4.2-.2,6.5a42.79,42.79,0,0,0,10.5,5.7,144.38,144.38,0,0,0,54.9,8.3c6.8-.3,13.5-1.5,19.7-4.7a9.14,9.14,0,0,0,5.1-6.6c4.9-20.8,10.2-41.6,15.2-62.4a27.43,27.43,0,0,0,.4-10.3c-1.5-10.2-6.6-19-12.2-27.5-9-13.8-20.1-25.8-31.8-37.3-4-3.9-7.8-8-11.4-12.2-1.7-1.9-3.7-4.4-1.7-7s4.9-1.3,7.2-.1c10.7,5.2,21.2,10.7,27.6,21.5a9.55,9.55,0,0,0,2.1,2.4c8.6,8,18.8,13.5,29.6,19.7A454,454,0,0,1,362.1,616.3ZM184,155.4c12,1.4,22.7,2.4,33.4,3.8a880.77,880.77,0,0,1,95.2,19,28.35,28.35,0,0,0,7.7.7c15.1-.7,30.3-1.9,45.4-2.2,52.6-1,105.2.5,157.8,2.6a24.77,24.77,0,0,0,2.7-.3c0-.4.1-.8.1-1.2-4.8-1.2-9.6-2.4-14.6-3.6-.7-1.5-1.5-3.1-2.2-4.6a85.57,85.57,0,0,0-17.2-24.1c-7.7-7.4-16.5-12.8-27-15-13.1-2.7-25.6-.3-37.7,4.8-10.7,4.5-20.2,10.9-29.3,17.9-1.3,1-2.6,1.8-3.5,2.4-2.8-7.4-4.8-14.5-8-21-10.1-20.4-28.4-28.9-50.8-24.4-14.2,2.9-27,9.1-39.2,16.7a8.58,8.58,0,0,1-8.2.9c-10.7-3.8-21.8-6.2-33.3-5.6-14,.8-24.8,6.5-29.7,20.5a17.59,17.59,0,0,1-1.2,2C209.9,143.9,196.7,146.1,184,155.4Zm194.9-36.8c3.8,5.8,7.4,10.7,10.2,16.1s4.5,11.2,6.9,17.4c2.2-1.6,4.1-3,6-4.4,10.2-7.4,21-13.7,33.1-17.4a60.67,60.67,0,0,1,29.9-1.9c13.6,2.7,24.3,10.1,33.2,20.4a7.89,7.89,0,0,0,6.7,3c28.6-.1,57.1-.1,85.7-.1,1.2,0,2.5-.3,4.7-.5-13.6-11.4-27.3-19.4-45.1-16.7-6.9-10.8-17.1-16.1-29.4-17.9-10-1.4-19.8-.2-29.5,2.3-3.3.9-6.7,1.8-9.8,2.7-4.1-4.6-7.8-9-11.9-13-6.8-6.8-14.4-12.6-23.7-15.8-10.6-3.6-20.3-2-28.8,5.2a37.44,37.44,0,0,0-6.5,6.7,14.1,14.1,0,0,1-7.1,4.9C395.4,112.4,387.3,115.5,378.9,118.6ZM361.4,558.7c.2.5.4.9.6,1.4a53.51,53.51,0,0,0,5.5-1.1,108,108,0,0,0,10.8-4c8.5-3.9,16.7-3.5,25.1.8s17,8.1,25.6,11.9c8.9,3.9,18.1,7.2,27.9,8.2,10.7,1.2,20.8-.2,29.8-6.7,2.2-1.6,4.7-2.9,7-4.4a81.49,81.49,0,0,0,8-4.9c6.1-4.6,5.9-8.5-.5-12.5a28.8,28.8,0,0,0-4.6-2.4c-11.3-4.4-22.6-9.1-34.1-13.1-12.9-4.4-26.3-6.8-40.1-5.9-9.2.6-17.9,2.9-25.7,7.8-9.5,6.1-18.9,12.4-28.2,18.8C366,554.5,363.8,556.7,361.4,558.7ZM640.5,740c.2,0,.4-.1.7-.1-1-7.7-1.8-15.5-3.2-23.2-.8-4.6-2.5-9.2-5.9-12.6-8.4-8.6-11.5-19.3-11.7-31a18.37,18.37,0,0,0-.5-5.2c-.9-3.4-2.8-4.5-6.3-3.8-4.1.9-7.6,3.1-9.4,6.8-4.7,9.4-6.1,19.3-1.6,29.1,5.7,12.4,10.8,25,11.9,38.7.3,4.2.1,8.4.6,12.5.7,6.9,3.1,13.2,8.3,18.1,2.4,2.3,5.2,3.7,8.6,2.1,4.1-1.9,8.1-4,12.1-6.1,2.3-1.2,2.9-2.9,1.6-5.2a11.74,11.74,0,0,0-1.5-2.7c-3.6-3.7-4.3-8.1-3.7-13A32.15,32.15,0,0,0,640.5,740Zm-261-25.1v4.3c.5,11.3,3.9,13.5,15.8,10.1A7.72,7.72,0,0,0,401,723a64.93,64.93,0,0,0,.9-9.8c-.1-13.9,5.2-25.8,13.5-36.5a19.75,19.75,0,0,1,10.1-7.1c9.4-2.9,18.5-15.6,18.4-25.6,0-2.6-1.1-3.9-3.7-3.9-5.2,0-10.5-.3-15.6.2-5.3.5-11.1,7.1-12.1,12.2a23.2,23.2,0,0,1-2.2,6.9,37.62,37.62,0,0,1-14.9,15.7,18,18,0,0,0-7.9,8.7A82.34,82.34,0,0,0,379.5,714.9Zm332.9,22h.2c-.6-6.2-1.2-12.5-1.8-18.7-.7-8-2-15.9-1.9-23.9.1-10.1,4.1-19.3,8.6-28.2a24.09,24.09,0,0,0,2.4-6.3c.7-3.4-.3-4.8-3.4-6-2.1-.8-4.3-1.5-6.4-2.1-5.2-1.5-7.3-.6-9.8,4a24.08,24.08,0,0,0-1.5,3.3c-3,11.1-6.3,22.1-8.9,33.2-1.2,4.9-1.3,10.1,1.6,14.7s3.4,9.7,2.8,15c-.7,6-1.6,12.1-2.2,18.1a37.12,37.12,0,0,0,.4,8.8c.6,3.3,2.1,4.4,5.5,4.3,11.1-.2,14-4.7,14.3-13.2C712.4,738.9,712.4,737.9,712.4,736.9Zm-262,29.2c4.8,1.4,9.1,2.7,13.4,3.9,7.8,2.2,11.3.9,14.8-6.4a114.27,114.27,0,0,0,5.7-15.1c2-6.3,3.4-12.8,5.3-19.1,1.4-4.9,3.2-9.8,7.1-13.2,3.5-3.1,4-6.7,3.9-10.7-.2-7.6-1.7-9.2-9.3-10.3l-2.1-.3c-5.7-.4-8.1,1.3-8.9,7a25.43,25.43,0,0,1-5.7,12.7c-2.4,3-5.1,5.8-7.2,9-2.3,3.6-4.9,7.4-5.9,11.5a128.51,128.51,0,0,1-9.3,24.9A45.65,45.65,0,0,0,450.4,766.1Zm82-27.8c1.2,4.8,2.5,9.9,3.7,14.9,1.3,5.2,2.8,10.4,4,15.6.7,3,1,6.2,1.5,9.3a5.1,5.1,0,0,0,4,4.3c8.8,2.4,15-2.4,14.8-11.5a14.2,14.2,0,0,0-.4-3.6c-1.4-5.4-2.6-10.8-4.4-16.1a53.09,53.09,0,0,1-3.2-20.5,86.8,86.8,0,0,1,4.7-23.5c1.9-5.7,2.9-11.5,1.6-17.5a6.47,6.47,0,0,0-2.3-3.8,10.37,10.37,0,0,0-14.9,6.7,45.74,45.74,0,0,0-.7,8.3c-.3,9.1-1.2,18-5.5,26.3C533.7,730.5,533.4,734.3,532.4,738.3ZM384.9,616.9c-6.4-1.4-7.6-.8-8.4,4.7a66.53,66.53,0,0,0-.7,10.9,50.4,50.4,0,0,1-3.3,20c-2.9,7.3-5.9,14.5-9.2,21.6-2.9,6.2-6.2,12.1-9.2,18.2a29.38,29.38,0,0,0-2.5,6.8c-.8,3.7.2,5.4,2.8,6.4s4,.3,5.9-2.8a52.21,52.21,0,0,0,3.7-7.5c1.8-4.7,3.5-9.5,5.1-14.2,2.8-7.9,6.2-15.5,11.3-22.2a29.44,29.44,0,0,0,4.4-9.9C387.4,638.2,386.8,627.6,384.9,616.9Zm-23.3-51.3c2.9,3.2,6.7,4.4,10.5,5.5,6.5,1.8,13.1,3.5,19.7,5a9,9,0,0,0,4.6.2c7.6-2.1,15.2-4.5,22.8-6.7a204.12,204.12,0,0,0-20-10.7,20.3,20.3,0,0,0-17.2-.6C375.6,560.8,368.8,563.1,361.6,565.6ZM875.4,455.4c-12.1-6-24.2-12.1-36.2-18.1a4.62,4.62,0,0,0-2.5-.6A39.87,39.87,0,0,0,817,445C836,453.1,854.8,458.5,875.4,455.4ZM305.1,687.7c12.2,14.6,23.4,29.1,29.3,46.9,1.3-10.6,2.6-21.2,3.8-31.7-3.8-2.2-7.1-4-10.4-6a115.19,115.19,0,0,1-10.1-6.4C314.1,687.7,310.4,686.6,305.1,687.7Zm135.7-80.2c.5,11.2,10,17.8,21.2,15.8,5.1-8.4,10.2-16.8,15.7-25.7-4.3-.6-8-1-11.7-1.5C460.4,606.1,453.3,612.4,440.8,607.5ZM1114.6,854c3.2-9.2,3.6-28,1-36.7-3.2-.4-6.6-.9-10.4-1.4C1103.1,829.9,1108.9,841.3,1114.6,854ZM307.1,683.7c-6.3-12.2-16.7-18.8-28.4-24a26.34,26.34,0,0,0,4,5.3c5.3,5.4,10.9,10.7,16.1,16.3A7.74,7.74,0,0,0,307.1,683.7Zm832.5,136.9c-5.2-.7-9.7-1.2-14.8-1.9,1.1,6.9,2.1,13.1,3.1,19.7C1131.9,832.3,1135.5,826.8,1139.6,820.6ZM441,598.2c-1.3,2.9.1,4,1.9,5,6.8,3.9,14.1.7,17.6-7.7-5.1-1.7-5.7-2-7.7-.3A13.93,13.93,0,0,1,441,598.2Zm551.6-79c-4.4.2-4.6.2-4.8,3.7-.2,4.7-.1,9.4-.1,14.1,0,1.1.5,2.1.9,4.3C992.2,533.4,994.3,526.7,992.6,519.2ZM643.7,1012.9c1.2,7.5,3,12.4,5.8,15.5,1-5.4,2-10.3,3-15.5Zm68.8,10.7h1.6a74.59,74.59,0,0,0,.8-16.5c-2.6.2-4.6.4-7.3.6C709.3,1013.5,710.9,1018.6,712.5,1023.6ZM974.4,522.3c3.7,3,4.1,6.9,7.5,9,.5-3.7.8-6.9,1.3-10.7C980.4,521.1,978.1,521.6,974.4,522.3ZM447.3,1003.9c.5,4.1.9,7.1,1.3,10.1.3,0,.7.1,1,.1,1.2-2.7,2.5-5.5,3.9-8.6C451.5,1005,449.9,1004.6,447.3,1003.9ZM1009.9,812a5.7,5.7,0,0,1,1.3.1c.7-2.6,1.4-5.3,2.3-8.3h-5.3C1008.8,806.8,1009.4,809.4,1009.9,812ZM345.5,981.1c3.3-6,3.3-6,0-7.3Zm96.6-389.3c2.1,2.4,2.1,2.4,4.6.9A46.35,46.35,0,0,0,442.1,591.8Z"/><path d="M919.7,73.7c.6-1.4,1.4-3,2.1-4.5A96.08,96.08,0,0,1,1105,96.6c.8,6.5.5,13.2.5,19.8,0,1.8-.1,3.3,1.7,4.5,7.4,5.1,9.7,11.9,7,20.5a2.63,2.63,0,0,0,.1,1.2c1.5,0,3,.1,4.5,0,8-.6,16.1-.4,23.8,2,4.9,1.6,8.8,4.4,8.9,10.3a9.67,9.67,0,0,1-.5,2.1h-5.5c-16.2,0-32.4.1-48.6-.1a7.07,7.07,0,0,0-6.7,3.7c-16.8,25.1-40.2,40.1-70.2,43-37.8,3.6-68.1-10.9-90-42-2.4-3.5-4.8-4.6-8.9-4.6-55.8.1-111.6,0-167.3.1-9.7,0-17.5-4.4-24.2-10.6-4.9-4.5-4.8-10.1.2-14.6a52.17,52.17,0,0,1,11.7-7.6c10.8-5.3,22.5-8.6,34.2-11a29,29,0,0,0,16.2-9.3,159.2,159.2,0,0,1,33.5-28.2c7.7-4.9,15.8-8.9,24.7-10.9A39.61,39.61,0,0,1,872.7,66c2.9,1,6.1,1.1,9.2,1.6C894.2,69.5,906.6,71.5,919.7,73.7Zm190.2,71.9c.6-1.6,1-2.4,1.3-3.2,3.6-9.4,1.6-15.8-7.1-20.7a58.61,58.61,0,0,0-13.5-5.4c-13.5-3.8-27.4-4.5-41.4-4.8-1.9,0-4-.1-5.5-1-6.1-3.5-12.8-4.4-19.6-4.7-11.9-.4-23.6,1.3-35.3,3.6-3.4.7-6.7,1.3-10.2,2-2.8-8.3-8.3-13.8-15.1-17.9a122.31,122.31,0,0,0-14.8-7.7c-16.1-6.9-33.1-10.5-50.3-13.7-10.8-2-21.7-2.5-32.4-5.6-4.1-1.2-9-.6-13.4.1-8,1.1-15.3,4.6-22.3,8.7a157.29,157.29,0,0,0-37.1,30.4,30.05,30.05,0,0,1-17,9.8,147.22,147.22,0,0,0-33.7,10.8,52.6,52.6,0,0,0-11,7c-4.6,3.9-4.7,8.1-.2,12.1,6.4,5.6,13.5,9.7,22.4,9.7,57.2-.1,114.4,0,171.5,0h217.5c2,0,4-.1,6.2-.2-.5-5.1-3.8-6.7-7.3-7.9-7.1-2.2-14.4-2.5-21.7-2C1116.9,145.1,1113.8,145.3,1109.9,145.6Zm-7.6-27.7c4.4-17.2-2-52.4-25.6-75.3C1048.9,15.4,1016,7.7,979,19.5c-32.5,10.3-53.1,39.6-56.3,55.4,1.6.5,3.3.9,4.9,1.5,7.7,2.6,15.6,4.9,23.2,8,12.2,5.1,23.5,11.6,29.4,24.4,1.1-.2,1.9-.3,2.8-.5,13.8-3,27.7-5.3,41.9-4.7,6.7.3,13.1,1.3,19.2,4.5a14.21,14.21,0,0,0,5.5,1.1C1067.5,109.7,1085.4,110.7,1102.3,117.9Zm-13.4,39.4c-18.4-1.1-154.3-.5-159,.8,20.6,29.8,48.4,44.9,84.6,43.9C1044.2,201,1079.8,179.8,1088.9,157.3Z"/><path d="M944.7,932.3c.5,2,1.1,3.1.8,3.9a11.71,11.71,0,0,1-2.2,2.9c-18.1,22.5-28.2,48.2-31.2,76.8a142.38,142.38,0,0,0-.2,31.3c.2,1.6.6,3.3-2,3.2-2.9-5.8-2.8-25.8-.1-43.2a166.85,166.85,0,0,1,12.8-42,9.1,9.1,0,0,0-1.2.3c-12.6,17.3-23.1,35.7-28.5,56.5-1.3,5.2-1.9,10.6-2.7,15.9-.2,1.6-.1,3.3-3.3,2.7-.3-2.3-.6-4.8-.8-7.3a106.56,106.56,0,0,0-6.3-27.9c-2.2-5.6-5-10.8-9.5-14.8a22.25,22.25,0,0,0-6-3.6c13.4,21.7,15,45.8,15.2,71.4a36.85,36.85,0,0,1-4.1-3,65.55,65.55,0,0,1-17.6-31,35.77,35.77,0,0,0-.9-3.5c-.1-.3-.4-.5-.9-1.2-3.7,8.9-6.8,17.7-7.5,27.1-.1,2,.7,4.1.9,6.1a12.84,12.84,0,0,1-.7,3.7,8.87,8.87,0,0,1-3.5-7.6,75,75,0,0,1,1.5-12.4c2.3-10.1,6.3-19.5,10.8-28.8a4.17,4.17,0,0,1,1.6-1.7c-.4,16.6,4.7,31,15.8,43.9a7.48,7.48,0,0,0,.8-2.2c-.2-14.5-1.8-28.9-6.7-42.6-3.1-8.6-7-16.7-15.4-22.7a20.2,20.2,0,0,1,13.9,2c4.8,2.5,8.2,6.4,10.9,11,4.2,6.9,6.6,14.6,8.4,22.4.4,1.7.8,3.4,1.5,6.3C898.7,988.1,919.5,959.5,944.7,932.3Z"/><path d="M189.3,474.1c1.2-3.6,2.1-6.6,3.2-9.5,8.1-21.1,24.7-29.2,46-21.7,7.2,2.5,13.8,6.6,20.5,10.2,2.4,1.3,4.4,1.9,7.2,1a80,80,0,0,1,15.2-3.6,43.83,43.83,0,0,1,13.5.7c6.6,1.3,11.6,5.3,14.8,11.4.7,1.4,1.4,2.8,2,4.2,3.2.2,6.3.3,9.4.7,11.4,1.4,20.4,6.9,26.3,16.8,1.7,2.8,3.4,4.7,6.8,4.5a3.55,3.55,0,0,1,1,.2c11.3,2.6,14.7,9.9,9.7,20.3a25.32,25.32,0,0,0-1.2,2.3c-1.4,3.2-3.7,4.3-7.3,4.3q-132-.15-264-.1H87.9c-3.5-11.6,2.4-22.3,13.7-24.8a8.55,8.55,0,0,0,6.7-5.4,59.42,59.42,0,0,1,14.3-19.8c10.5-9.4,22.6-12.5,36.4-8.8,9.1,2.5,17,7.1,24.4,12.7C185.3,470.9,187,472.3,189.3,474.1ZM89.7,513.6H353.5c1.2,0,2.4-.1,3.7,0,2,.2,3.2-.8,4.2-2.4,7.2-11,3.7-19-9.4-20.4-3.2-.3-4.5-1.7-5.8-4.2-5.1-9.3-13.1-14.8-23.4-16.6-4.1-.7-8.3-.5-12.7-.8-.3-.8-.8-1.7-1.2-2.6-3.1-8.4-9.1-12.8-17.9-13.9-8.6-1.1-16.7.7-24.6,3.6a7.89,7.89,0,0,1-8.2-1c-8.4-5.7-17.4-10.3-27.5-12.2-11.3-2.1-21.1.4-28.8,9.4a45,45,0,0,0-8.5,16c-.9,3.1-1.7,6.2-2.6,9.2-.5,0-.7,0-.8-.1-1.2-.9-2.5-1.9-3.7-2.9-7.6-6.2-15.6-11.7-25-14.8-14.6-4.9-27.5-2.1-38.5,8.7A58.31,58.31,0,0,0,110.1,487c-1.5,3.5-3.3,5.3-7.4,6C92.8,494.7,87.6,503.1,89.7,513.6Z"/><path d="M1047.2,528.4c4.5,1,6.3,3.9,7.1,7.2a125.81,125.81,0,0,1,2.2,13.9c.2,1.9,0,3.8.5,5.7,2.9-5.2,4.1-10.9,5-16.7.4-2.2.5-4.5.9-6.7,1.4-7,8.5-11.7,16.3-10.4-8.1,1.5-9.2,8-9.8,14-.7,7.6-.6,15.3-.6,22.9,0,3.4.4,6.8.4,10.2-3.3-7-2.9-27.6.6-43-3.8,1.6-5.3,3.7-5.7,8.6-.8,10.2-4.1,19.7-7.7,29.1a25.6,25.6,0,0,1-1.7,2.9c0-4.8.1-8.5,0-12.1a96.45,96.45,0,0,0-.6-12c-.5-3.6-.8-7.6-4.3-10.3,2,22.1,2,22.6-2.2,27.8C1051.1,548.6,1048.9,538.8,1047.2,528.4Z"/><path d="M200.5,758.1c-3.2-5.9-2.7-12.2-3.3-18.2-.6-6.2-.6-12.4-1.2-18.7-3.1,6.1-2.9,12.9-3.2,19.4s-.1,13.2-.7,19.8c-1.3-4.3-2.6-8.6-3.8-12.9h-1.2c-1.1,6.9-2.2,13.8-5.9,20,1.9-9.5,6.4-18.8,2.4-28.9a4.87,4.87,0,0,0,1.1-.4c1.8,3,3.7,5.9,6.1,9.9.2-2.7.3-4.3.4-6,.5-6.1.8-12.2,1.6-18.2.5-4.1,1.2-4.6,4.7-6.5C198.5,731.1,199.5,744.4,200.5,758.1Z"/><path class="cls-1" d="M82.6,211.1h3.5c.8-2.5,1.5-5.2,2.5-7.7,3.5-8.3,9.4-11.3,18-9s16,6.3,21,13.6c5.4,7.9,10.8,15.8,15.8,24,13.6,22.3,27.2,44.7,43.1,65.5,22,28.7,47.1,54.2,76.6,75.1,1,.7,1.9,1.5,3.3,2.6-3.5,1.4-6.6,2.6-9.6,3.7-22.4,8.3-45.2,15.3-68.9,19.1-13.3,2.1-26.7,3.3-40,.5a48.67,48.67,0,0,1-10.4-3.4,24,24,0,0,1-13-13.7,103.4,103.4,0,0,0-25.2-38.7c-7.1-6.8-9.4-15.7-10.5-25.1-.9-7.8-1.4-15.6-1.9-23.4a489.12,489.12,0,0,0-14.4-84.9c-3.1-12.1.5-22,8.5-30.6,5.7-6.2,13.1-9.7,20.9-12.5,14.1-5,28.8-6.6,43.7-7.1,26.4-.9,52.6,1.7,78.6,5.6a876.43,876.43,0,0,1,89.5,18.4,17.35,17.35,0,0,0,5.1.5c14.8-.8,29.6-2.2,44.4-2.5,43.1-.8,86.1-.1,129.2,1.6,19.3.8,38.7,1.8,58,2.2,11.1.2,22.3-.5,33.4-.7,29.5-.7,58.9.2,88.2,4.1,47.1,6.3,92.6,18.4,134.9,40.6,9.1,4.8,17.6,10.6,26.3,16a7.77,7.77,0,0,0,5.3,1.6c15.5-1.9,31-.6,46.3,1.9,44.6,7.3,87,22.1,128.5,39.5a56.44,56.44,0,0,0,22.8,4.7c9.8-.2,19.5-.8,29.3-1.3,14.5-.8,28.9-1,43.3,1.6,32.4,5.8,54.8,31.9,54.3,63.9-.2,11.8-3.9,22.6-9.8,32.7-7.5,12.6-17.5,23-28.7,32.2a216.3,216.3,0,0,1-35.7,23.6,35.38,35.38,0,0,0-6.5,4.4c-18.9,15.9-39.5,28.8-63.4,35.5-42.9,12.2-82.4,4-118.8-20.9a40.48,40.48,0,0,0-4.3-2.9c-29.9-15.7-59.8-31.6-91.1-44.4a371.58,371.58,0,0,0-35.5-12.2c-18.9-5.6-38.2-5.5-57.4-1.3-19.4,4.2-38.7,8.9-58.1,13-23.7,5.1-47.7,8.3-71.8,10.7A970.87,970.87,0,0,1,475.4,432c-46.9-.6-92.7-7.6-136.7-24.2-54.1-20.3-99.1-53.3-136.3-97.4C182,285.9,165,259.1,148.6,232c-5.3-8.8-11-17.4-16.7-25.9-5.1-7.5-12.4-12.1-20.8-15.1C95.6,185.5,83.5,193.9,82.6,211.1Z"/><path class="cls-1" d="M368.4,978c-.5-15.4-.8-30.7,2.9-45.8a47.63,47.63,0,0,1,3.5-9.8c2-4.3,5.1-7.4,10.3-7.6,1.7-.1,4.2.2,3.6-3-.3-.2-.6-.5-.9-.5-13-.1-30.5,7.5-31.2,25.7-.4,10.5-3,20.7-6.1,30.7a10.67,10.67,0,0,1-.9,1.9c-3.4-.3-4.3-2-4.6-5.2-.7-7.1-1.6-14.2-3-21.2a38.3,38.3,0,0,0-4.1-10.1c-2.1-3.8-5.4-6.3-10.6-7,1.5,11,4.3,21.7,4.3,32.6-.7.2-.9.4-1,.3-16.7-10.8-30-24.2-35-44.4a33.69,33.69,0,0,1,1.4-21.5c1-2.4,1.8-5,3.2-7.1,5.2-7.8,6.7-16.6,8.5-25.5,6.5-33.3,13.1-66.6,21.9-99.5.7-2.7,1.5-5.4,2.4-8,.1-.2.5-.3,1.2-.7.6,6,1,11.8,1.7,17.6,2.4,18.3,6.9,35.9,15.8,52.2,11.6,21.2,28.6,35.8,52.5,41.4,3.5.8,7.1,1.3,11,2,.3-1.6.5-2.8.7-3.9a9.76,9.76,0,0,0-1.6-.7c-9.7-1.4-19.1-4-27.7-8.8-12.2-6.7-21.5-16.4-28.7-28.3-9-15-13.8-31.5-16.7-48.6-4-23.5-2.4-46.9,1.6-70.2a78.06,78.06,0,0,0,1.4-8.2c.3-3.2,2.1-4.8,5.1-6a71.87,71.87,0,0,0-2.1,9.3c-.5,4.4,1.3,7.3,4.8,9,4.2,2.1,7.9,1.6,10.7-2.2a59.18,59.18,0,0,0,5.7-10.5c1.9-4.5,3.4-9.1,5.2-14h9.3c-1.8,6-3.8,11.7-5.3,17.6-2,7.8-3.2,15.7-1.8,23.8a21.14,21.14,0,0,0,2.2,6.4,10,10,0,0,0,4,3.9c9.2,4.8,22.8-2.3,24.1-12.6.4-3.4.3-7,.4-10.4.3-8.2,2.8-15.6,6.9-23.1,19.8,6.1,36.6,17.3,54.1,28.3-.9,1.3-1.7,2.6-2.6,3.7a46.77,46.77,0,0,0-8.6,18.3c-1.6,6-4.4,11.7-6.6,17.5-1,2.6-2.3,5.1-2.8,7.8-.8,3.7.6,6.2,4.1,7.3,5.1,1.6,10.4,3.1,15.6,4.3,6.1,1.4,11.3-.8,14.3-6.2a100.19,100.19,0,0,0,7-15.7c2.1-6.2,3.5-12.8,5.3-19.1.5-2,1.3-3.9,1.9-5.8,11.3,2,22.2,4,33.6,6,.1.6.1,1.5.3,2.5,1,5.5,1.3,11.2,3.1,16.3a101.5,101.5,0,0,1,5.1,22.3c.2,1.9.4,4,1.4,5.5,1.2,2,2.9,4.1,5,5,11,4.9,21.7-2.2,21.8-14.2.1-7.4-2.4-14.4-4.6-21.3a119.08,119.08,0,0,1-3.2-13.1c-.3-1.1,0-2.4,0-4.2a254.65,254.65,0,0,0,49.2-11.5,56.94,56.94,0,0,1,4,22.8,44.09,44.09,0,0,0,2.7,16.9,28.84,28.84,0,0,0,7.7,11.7c4.9,4.3,9.7,4.7,15.3,1.5,3-1.7,6.2-3.1,9.4-4.6,5.6-2.8,7.5-6.8,3.9-11.8-4.1-5.7-4.4-11.7-4.3-18.2a90.27,90.27,0,0,0-1.1-15.6c-.7-5.2-2.1-10.2-3.3-16,13.6-7.1,28.8-6.5,43.4-7.4,1.8,3.9,3.7,7.2,4.9,10.8a23.08,23.08,0,0,1,.9,8.7c-.4,5.9-1.6,11.8-1.9,17.7a46.74,46.74,0,0,0,.5,12.4c.9,4.8,4.1,6.9,9,7.1a19.72,19.72,0,0,0,4.2-.2c9.4-1,14.8-6.2,14.9-15.6.1-8.3-.8-16.7-1.5-25-.4-4.8-1.2-9.6-1.9-14.6,1-.3,1.6-.7,2.2-.6,15.1,1.1,30.2,2.2,45.4,3.2,6.7.5,11.3,4.2,14.7,9.6a50,50,0,0,1,7.1,20.1c1.1,8.1,1.6,16.3,2.2,24.4.2,2.6.8,4,3.8,3.2a3.94,3.94,0,0,0,.5-1.4c.4-13.7-1-27.2-5.6-40.1a50,50,0,0,0-2.1-4.8c-4.7-9.7-12.1-15.3-23.3-15.9-13.2-.7-26.4-1.8-39.6-2.8-1.5-.1-3.1-.3-4.8-.4-.8-4.7.2-8.9,1.6-13,2-5.7,4.6-11.3,6.9-16.9a33.64,33.64,0,0,0,2.4-7.4c.7-4.5-1.4-7.9-5.6-9.5a80.46,80.46,0,0,0-9.5-3c-5.1-1.3-9,0-11.7,4.6a57.4,57.4,0,0,0-5,12c-3.1,10.7-5.7,21.5-8.8,32.9-15.1.8-31,.7-45.5,7.7-10-8.7-13.5-19.6-13.7-32a21.36,21.36,0,0,0-1.4-7.6c-1.6-4.1-5.4-5.9-9.8-5-6.8,1.5-12,5.2-14.4,11.7-4.1,10.5-5.3,21.2,0,31.8,2.2,4.3,3.9,8.9,6,13.9A205,205,0,0,1,558,728.3c-.5-6,1.3-11,2.6-16.2,1.1-4.4,2.6-8.7,3.1-13.2A43.34,43.34,0,0,0,563,687c-.8-4-3.5-5.7-7.6-6-1-.1-2.1,0-3.1,0-9.8,0-14.7,4.6-15.3,14.4-.3,4.7-.6,9.4-.8,14.1-.3,7-3,13.1-6.4,19.5-10.9-.2-21.6-2.4-32.9-5.6,1.9-2.3,3.1-4.4,5-5.9a7.2,7.2,0,0,0,3.1-6.2c-.1-4.1.1-8.4-.6-12.4-.7-4.3-3.6-7-8.2-7.6-2.4-.3-4.8-.8-7.2-.9-7.6-.3-11.3,2.8-12.6,10.3-1.1,6.1-1.6,7.2-6,11.8-17.3-10.7-34.4-22.1-54.7-28.8,3.6-4.9,6.7-9,12.5-10.5a20.66,20.66,0,0,0,8.1-4.4c6.8-6.2,10.5-14.3,11.9-23.3,1-6.5-1-9.4-7.5-9.9a80.5,80.5,0,0,0-17.7.4c-6.6.9-13.5,9.2-14.7,15.9a17.89,17.89,0,0,1-2.4,6.3A37.82,37.82,0,0,1,392,672.1c-.8.4-1.8.7-2.2,1.3-3.4,5.2-8.6,4.2-14,4a28.5,28.5,0,0,1,5.7-12.3c7-8.4,9.5-18.2,9.6-28.7,0-6.8-1-13.5-1.5-20.3-.2-2.3-1.4-3.3-3.4-4-7.6-2.5-12.2.1-13.7,8a44.44,44.44,0,0,0-.7,10.9,51.72,51.72,0,0,1-3.9,22c-3.9,9.1-8.3,18-12.3,27.1-1.7,3.7-5.5,3.9-8.5,5.8a399.39,399.39,0,0,1,37.5-108c3.2,7.6,9.1,9.7,15.8,10.1,7.1.4,14.3.5,21.4.9,5.1.3,10.3,1.1,15.1,1.7-.2,6-.7,11.2-.3,16.3.8,12.4,7.5,19.2,20,20.8a27.11,27.11,0,0,1,3.2.7c-.9,3-2,5.5-2.6,8.2-.4,1.8-.8,3.9-.3,5.6a152.56,152.56,0,0,0,5.2,14.8c3.4,7.9,9.6,13.1,17.3,16.7a74.2,74.2,0,0,0,21.6,5.7c12,1.4,24,2.3,35.9-.6a51,51,0,0,0,13.6-5.2c20.8-12.2,14.8-38.3-.6-47-7-4-7.4-5-5.4-12.8.3-1,.6-2,.9-3.3q-1.65-.9-3-1.5c-.5.3-1,.5-1,.7-.8,3-1.9,6-2.2,9.1-.4,4.9,1.5,8.7,6.4,10.7,7.3,3,11.4,9.1,13.1,16.6,2.3,9.5-1.5,18.1-9.8,23.4a40.07,40.07,0,0,1-18.2,6c-14,1.3-27.9.8-41.5-3a60.91,60.91,0,0,1-10.7-4.2,27.09,27.09,0,0,1-13.7-15.8c-.9-2.5-1.3-5.1-2.5-7.4-2.2-4.2-1.6-8.2.4-12,4.1-7.9,8.1-15.8,12.8-23.3,7.1-11.2,14.7-22,22.3-33.2-.7-.7-1.6-1.5-3-2.8-4.7,6.5-9.3,12.8-14.1,19.5-6.6-.9-13.3-1.7-20-2.8-6.5-1.1-12.9-2.9-19.4-3.9-6-.9-12-1.4-18.1-1.8-6.8-.5-13.6-.6-20.3-.9-5.7-.2-6.8-.5-10.3-3,7.2,0,13.8-2.6,20.3-4.9,8.5-3.1,16.6-3.5,25.4-.1,11.5,4.5,23.6,6.2,35.9,3.6a39.73,39.73,0,0,0,16-7.4c1.6-1.3,3.6-2.1,5.3-3.2,3.9-2.6,8.2-4.8,11.6-7.9,5.3-4.9,4.8-10.7-.7-15.3a31,31,0,0,0-5.7-3.7c-16.1-7.2-32.3-14-49.6-17.8-18-4-35.9-4.5-54,4.2a58.57,58.57,0,0,1,3-5.8c9-13.8,11.6-29,9.8-45-1.6-14.9-3.6-29.7-5.4-44.6-.1-.8-.2-1.6-.3-3,5.8.8,11.3,1.7,16.8,2.2,14.7,1.4,29.5,3.2,44.3,3.7,38.4,1.2,76.7-.8,114.9-4.2,38.8-3.5,76.9-10.5,114.7-20,9.8-2.5,19.7-4.3,29.7-5.9,15.6-2.5,30.9-.7,46,3.5,19.9,5.5,38.7,13.7,57.3,22.5.6.3,1,.7,2.1,1.4-1.3.5-2,.9-2.7,1.1-17.5,6.5-27.7,19.3-31.9,37.2-2.9,12.2-2.7,24.5-.7,36.9q5.55,34.5,10.8,69.2a16.57,16.57,0,0,1-.7,6.6c-6,21.7-11.4,43.5-15.2,65.6a304,304,0,0,0-4.8,44.7c-.3,12.6,2.7,24.5,5.8,36.5a178.77,178.77,0,0,0,6.4,20.4c5,12.5,13.4,17.3,26.8,8.4a25,25,0,0,1,2.9-1.7c.7,7.3,1.3,13.9,2.1,20.6,1.6,14.4,3.1,28.8,7.2,42.7a54,54,0,0,0,5.8,12.7c7,11.7,11.1,24.4,13.7,37.6,4.5,23.2,3,45.8-6.7,67.5a99.3,99.3,0,0,1-16.1,24.9c-1.9,2.2-4.2,4.1-7.1,6.9-1.8-17.4-2-33.8-2.2-50-4.5-.4-6.2.2-7.5,4.2a82.62,82.62,0,0,0-3.7,16.2c-.9,9.9-1.1,19.8-1.6,29.7-.1,1.6-.2,3.3-.3,6.1-4-7.3-7.3-13.3-10.5-19.2-2.2.2-3.4.8-2.5,2.7,3.5,7.5,3.1,15.2,1.9,23.4-10.8,4.3-22,7.2-33.6,9.7a13.89,13.89,0,0,1-.5-2.3c.3-13.3,1.3-26.4,4.3-39.4,2.2-9.8,6.6-18.3,15.2-24.1,1.3-.9,2.4-2,3.6-3a2.62,2.62,0,0,0,.5-.9,25,25,0,0,0-12,6.1c-14.7,15.1-27.6,31.4-35.9,51-1.9,4.5-3.4,9.1-5.1,13.7a11.63,11.63,0,0,1-2.6,4.7,28,28,0,0,1-.9-3.1c-2-12.9-3.6-25.9-6.1-38.7-1.6-8-4.4-15.7-7.2-23.4-1.3-3.5-3.7-6.7-6.1-9.7a11.15,11.15,0,0,0-9.6-4.3c5.3,27.1,10.8,53.9,12,81.6-3,.4-5.5.7-8.3,1.1-3.3-11.3-5.3-22.3-2-33.8-7.5,11-12.8,22.9-17.5,35.7-7.7.7-15.5,1.3-23.7,2-3.2-8.9-6.1-17.8-13.1-24.4-3,.6-2.5,2.2-1.6,3.9,2.7,5.6,3.7,11.6,4,17.7,0,.9-.1,1.7-.2,3.2l-10.4.6c-3.3-12-5.8-23.7-4.8-35.8.6-6.8,3.6-11.9,11.1-13.8-5.3-2.5-7.6-2.5-10.6,1.3a42.28,42.28,0,0,0-5.9,10.3c-4.1,10.3-5.8,21.1-7.3,32-.3,2.1-.6,4.1-1,6.7-49,1.9-97.9,2.8-146.2-5.2-1.8-7.7-3.4-15.2-5.4-22.6a168.17,168.17,0,0,0-6.2-19.4c-1.5-3.7-4.4-6.9-6.7-10.3a8.26,8.26,0,0,0-1.3.7c1.1,2.5,2.1,5.1,3.3,7.6,2.9,5.6,3,11.3,1.8,17.3a104.77,104.77,0,0,1-7.4,23c-.6.2-.7.3-.9.2-8-.9-8-.9-10.1-8.7-1-3.8-2.3-7.6-3.4-11.1-2.5-.2-2.9.9-3,2.5-.3,4.8-2.2,9-4.9,13.2-1.6-.3-3.1-.6-4.9-.9-1.1-12.3,1.2-24.3,2-36.6-3.9-.4-5.5,2.1-6.3,4.7a149,149,0,0,0-3.4,14.7c-.7,3.5-.9,7.1-1.3,10.4-4.4-9.3-8.4-18.7-13.1-27.7s-10.8-17-17.6-24.8c-.9.6-1.6,1.1-2.6,1.8,10.4,14.8,11.5,31,8.9,48C390.5,986.4,377.1,982.2,368.4,978ZM686.3,585.5c2.7.6,4.9,1.2,7.1,1.6,5.6,1,11.3,2.6,16.9,2.8,11.8.5,15.8-6.1,10.5-16.8A54.19,54.19,0,0,0,703,552.3a93.58,93.58,0,0,0-22.8-11.4,191.26,191.26,0,0,0-81.9-9.3c-8.3.8-16.5,2.6-24.1,6.4a20.48,20.48,0,0,1-6.8,2c-10,1.4-20.1,2.2-30,4.1a48.09,48.09,0,0,0-14.9,6c-7.6,4.7-8.8,12.1-3.4,19.2a40.9,40.9,0,0,0,8.3,7.8c2.4,1.8,4.4,3.5,5.2,6.7a20.36,20.36,0,0,0,9.3,12.2,121.7,121.7,0,0,0,12.6,6.1c1.2.6,2.5,1,3.8,1.5-.7,8.1,3.2,13.6,8.9,18.2a23.48,23.48,0,0,0,2.5,1.9,79.81,79.81,0,0,0,28.8,11.8c15.4,3,27.6-3.1,34.4-17.3,2.4-5,3.6-10.5,5.3-15.8.4-1.1.7-2.2,1.1-3.4,5.5,0,10.7.4,15.9-.1a162.5,162.5,0,0,0,19.6-2.9C680.3,595.2,684.8,592.2,686.3,585.5Zm61.9,234.1a18.39,18.39,0,0,0-2.3,1.5,200.68,200.68,0,0,1-53.4,28.1c-36.6,13-74.4,18.9-113.2,19.2h-6.9v4.2c1.8.1,3.4.3,4.9.3a364.38,364.38,0,0,0,98-13.5c24.8-7.1,48.2-17.1,69.3-32,2-1.4,3.9-2.9,6-4.5C749.7,821.7,749.1,820.8,748.2,819.6Z"/><path class="cls-1" d="M884.3,523.1c14.5.2,28.9,4.5,42.8,10.9a17.93,17.93,0,0,1,4.9,3.9c15.7,15.8,28.7,33.6,40,52.7,2.9,4.9,6,9.8,9.2,14.6,13.5,19.8,32.6,27.6,56,25.1,12.6-1.4,25.2-3.6,37.8-5.1,9.2-1.1,18.4-1.6,27.6.4,2.5.5,5.7.8,6.5,3.7.9,3.2-1.9,5.1-4,6.8a70.61,70.61,0,0,1-10.8,7.3c-23.1,12.4-47.3,22.1-72.9,27.9-10.1,2.2-20.2,3.3-30.6,2a60.26,60.26,0,0,1-32.1-14c-16.5-14-32.4-28.6-44.8-46.6-2.5-3.6-5.1-7.1-7.7-10.6a72.24,72.24,0,0,0-5-6c-8.2-8.6-16.1-9.5-25.3-2a99.73,99.73,0,0,0-27.1,34.7,31.29,31.29,0,0,0-1.5,22.9c1.6,5.5,3.3,11,4.4,16.6,2.4,11.4.5,22.5-2.6,33.5-4.8,17-12.4,32.9-21.2,48.2-3.1,5.5-8.7,8.4-14.8,9.8a7.17,7.17,0,0,1-7.8-3,36.73,36.73,0,0,1-4.9-8.6c-8.7-24.6-13.5-49.5-9.8-75.9a589.35,589.35,0,0,1,19.6-90.2,88.53,88.53,0,0,1,33.1-46.4C855.2,527,868.7,523.1,884.3,523.1Z"/><path class="cls-1" d="M362.1,616.3a466.35,466.35,0,0,0-22.9,82.1c-10.8-6.2-21-11.7-29.6-19.7a12.06,12.06,0,0,1-2.1-2.4c-6.4-10.7-16.9-16.2-27.6-21.5-2.3-1.1-5.2-2.4-7.2.1s0,5,1.7,7c3.7,4.2,7.5,8.3,11.4,12.2,11.7,11.5,22.8,23.5,31.8,37.3,5.5,8.5,10.7,17.2,12.2,27.5a27.43,27.43,0,0,1-.4,10.3c-5,20.8-10.3,41.6-15.2,62.4a9,9,0,0,1-5.1,6.6c-6.2,3.2-12.9,4.4-19.7,4.7a146.36,146.36,0,0,1-54.9-8.3,42.79,42.79,0,0,1-10.5-5.7c-3.2-2.3-3.1-4.5.2-6.5a38.41,38.41,0,0,1,9-4.1c7.2-2,14.5-3.6,21.8-5.3,6.7-1.5,13.1-3.6,18.8-7.5,9.2-6.2,12.6-15.1,10-25.9-1.8-7.4-5.5-13.9-10-20a141.42,141.42,0,0,0-33.5-32C222,695.1,212,677.4,210,655.4c-1.8-20.2,6.1-36,23.1-47.2,9.5-6.3,20.1-9.5,31.3-10.9,21.7-2.7,42.8,1,63.5,6.8,9.9,2.8,19.5,6.5,29.2,9.9C358.7,614.6,360.2,615.4,362.1,616.3Z"/><path class="cls-1" d="M184,155.4c12.7-9.3,25.9-11.5,40.3-10.5a9.63,9.63,0,0,0,1.2-2c4.9-14.1,15.7-19.7,29.7-20.5,11.5-.7,22.5,1.8,33.3,5.6a8.58,8.58,0,0,0,8.2-.9c12.2-7.6,25-13.8,39.2-16.7,22.4-4.6,40.7,4,50.8,24.4,3.2,6.5,5.2,13.6,8,21,.9-.6,2.3-1.5,3.5-2.4,9.1-7.1,18.7-13.4,29.3-17.9,12.1-5.2,24.6-7.6,37.7-4.8,10.6,2.2,19.4,7.6,27,15a85.57,85.57,0,0,1,17.2,24.1c.8,1.6,1.5,3.1,2.2,4.6,4.9,1.2,9.8,2.4,14.6,3.6,0,.4-.1.8-.1,1.2a24.77,24.77,0,0,1-2.7.3c-52.6-2-105.2-3.6-157.8-2.6-15.1.3-30.3,1.5-45.4,2.2a24.88,24.88,0,0,1-7.7-.7,857.25,857.25,0,0,0-95.2-19C206.7,157.8,196,156.8,184,155.4Z"/><path class="cls-1" d="M378.9,118.6c8.4-3.1,16.5-6.2,24.6-9.1a14.1,14.1,0,0,0,7.1-4.9,41.22,41.22,0,0,1,6.5-6.7c8.6-7.2,18.3-8.9,28.8-5.2,9.3,3.2,16.9,9,23.7,15.8,4.1,4,7.7,8.4,11.9,13,3.1-.9,6.4-1.8,9.8-2.7,9.7-2.6,19.5-3.7,29.5-2.3,12.3,1.7,22.5,7,29.4,17.9,17.8-2.7,31.4,5.3,45.1,16.7a39.66,39.66,0,0,1-4.7.5c-28.6,0-57.1,0-85.7.1a7.89,7.89,0,0,1-6.7-3c-8.9-10.3-19.6-17.7-33.2-20.4a60.67,60.67,0,0,0-29.9,1.9c-12.1,3.8-22.9,10-33.1,17.4-1.9,1.4-3.9,2.8-6,4.4-2.4-6.2-4.2-12-6.9-17.4S382.7,124.4,378.9,118.6Z"/><path class="cls-1" d="M361.4,558.7a83.21,83.21,0,0,1,7.1-6c9.3-6.4,18.7-12.8,28.2-18.8,7.8-4.9,16.5-7.2,25.7-7.8,13.8-.9,27.1,1.5,40.1,5.9,11.5,3.9,22.8,8.6,34.1,13.1a25.1,25.1,0,0,1,4.6,2.4c6.3,4,6.5,7.9.5,12.5-2.5,1.9-5.3,3.2-8,4.9-2.4,1.4-4.8,2.8-7,4.4-9,6.5-19.1,7.9-29.8,6.7-9.8-1.1-19-4.3-27.9-8.2-8.6-3.8-17.2-7.6-25.6-11.9s-16.6-4.7-25.1-.8a99.54,99.54,0,0,1-10.8,4,31.51,31.51,0,0,1-5.5,1.1C361.8,559.6,361.6,559.2,361.4,558.7Z"/><path class="cls-1" d="M640.5,740a36.84,36.84,0,0,1,0,4.7c-.7,4.9.1,9.3,3.7,13a11.74,11.74,0,0,1,1.5,2.7c1.3,2.3.7,4-1.6,5.2-4,2-8,4.2-12.1,6.1-3.3,1.5-6.2.1-8.6-2.1-5.2-4.9-7.6-11.2-8.3-18.1-.4-4.1-.2-8.4-.6-12.5-1.1-13.8-6.2-26.3-11.9-38.7-4.5-9.9-3.1-19.7,1.6-29.1,1.9-3.8,5.3-5.9,9.4-6.8,3.5-.8,5.4.3,6.3,3.8a29.57,29.57,0,0,1,.5,5.2c.2,11.7,3.2,22.3,11.7,31A23.4,23.4,0,0,1,638,717c1.3,7.7,2.1,15.5,3.2,23.2C641,739.9,640.8,740,640.5,740Z"/><path class="cls-1" d="M379.5,714.9a83.56,83.56,0,0,1,7.9-31.1,18,18,0,0,1,7.9-8.7,38.21,38.21,0,0,0,14.9-15.7,23.2,23.2,0,0,0,2.2-6.9c.9-5.2,6.8-11.7,12.1-12.2s10.4-.2,15.6-.2c2.6,0,3.7,1.3,3.7,3.9.1,10-9,22.7-18.4,25.6a20.35,20.35,0,0,0-10.1,7.1c-8.3,10.7-13.6,22.6-13.5,36.5a53.33,53.33,0,0,1-.9,9.8,7.58,7.58,0,0,1-5.7,6.3c-11.8,3.4-15.2,1.2-15.8-10.1C379.4,718.2,379.5,717.1,379.5,714.9Z"/><path class="cls-1" d="M712.4,736.9V740c-.3,8.5-3.2,13-14.3,13.2-3.4.1-4.9-1-5.5-4.3a32.52,32.52,0,0,1-.4-8.8c.5-6.1,1.4-12.1,2.2-18.1.7-5.3.2-10.4-2.8-15s-2.8-9.8-1.6-14.7c2.7-11.1,5.9-22.2,8.9-33.2a12.37,12.37,0,0,1,1.5-3.3c2.5-4.6,4.6-5.5,9.8-4,2.2.6,4.3,1.3,6.4,2.1,3.2,1.2,4.1,2.6,3.4,6a24.09,24.09,0,0,1-2.4,6.3c-4.5,8.9-8.5,18.1-8.6,28.2-.1,7.9,1.2,15.9,1.9,23.9.6,6.2,1.2,12.5,1.8,18.7C712.5,736.8,712.4,736.9,712.4,736.9Z"/><path class="cls-1" d="M450.4,766.1a58.89,58.89,0,0,1,1.8-6.2,128.51,128.51,0,0,0,9.3-24.9c1-4.1,3.6-7.9,5.9-11.5,2.1-3.2,4.8-6,7.2-9a25.43,25.43,0,0,0,5.7-12.7c.8-5.7,3.2-7.5,8.9-7l2.1.3c7.7,1.1,9.1,2.7,9.3,10.3.1,4.1-.4,7.7-3.9,10.7-3.9,3.4-5.6,8.3-7.1,13.2-1.9,6.3-3.3,12.8-5.3,19.1a101.79,101.79,0,0,1-5.7,15.1c-3.5,7.3-7.1,8.6-14.8,6.4C459.5,768.8,455.2,767.5,450.4,766.1Z"/><path class="cls-1" d="M532.4,738.3c1-4,1.3-7.8,2.9-11,4.3-8.3,5.2-17.2,5.5-26.3a45.74,45.74,0,0,1,.7-8.3,10.43,10.43,0,0,1,14.9-6.7c1.1.6,2,2.4,2.3,3.8,1.3,5.9.4,11.8-1.6,17.5a85.31,85.31,0,0,0-4.7,23.5,53.09,53.09,0,0,0,3.2,20.5c1.8,5.2,3,10.7,4.4,16.1a14.72,14.72,0,0,1,.4,3.6c.2,9.1-6,13.8-14.8,11.5a5.1,5.1,0,0,1-4-4.3c-.6-3.1-.8-6.2-1.5-9.3-1.2-5.2-2.7-10.4-4-15.6S533.6,743.2,532.4,738.3Z"/><path class="cls-1" d="M384.9,616.9c1.9,10.7,2.5,21.3-.1,31.8a25.31,25.31,0,0,1-4.4,9.9c-5.1,6.8-8.5,14.3-11.3,22.2-1.7,4.8-3.3,9.5-5.1,14.2a43.52,43.52,0,0,1-3.7,7.5c-1.9,3.1-3.5,3.7-5.9,2.8-2.7-1-3.6-2.7-2.8-6.4a27.8,27.8,0,0,1,2.5-6.8c3-6.1,6.3-12,9.2-18.2,3.3-7.1,6.4-14.3,9.2-21.6a50.4,50.4,0,0,0,3.3-20,57.06,57.06,0,0,1,.7-10.9C377.3,616,378.5,615.4,384.9,616.9Z"/><path class="cls-1" d="M361.6,565.6c7.2-2.5,13.9-4.7,20.6-7.3a20.3,20.3,0,0,1,17.2.6c6.6,3.3,13.3,6.4,20,10.7-7.6,2.3-15.2,4.6-22.8,6.7a9,9,0,0,1-4.6-.2c-6.6-1.6-13.2-3.2-19.7-5C368.3,570,364.5,568.8,361.6,565.6Z"/><path class="cls-1" d="M875.4,455.4c-20.6,3.1-39.4-2.3-58.4-10.4,6-4.9,12.6-7.1,19.7-8.3a4.62,4.62,0,0,1,2.5.6C851.2,443.3,863.3,449.4,875.4,455.4Z"/><path class="cls-1" d="M305.1,687.7c5.4-1.1,9.1,0,12.6,2.8a81.86,81.86,0,0,0,10.1,6.4c3.3,2,6.6,3.8,10.4,6-1.3,10.5-2.5,21.1-3.8,31.7C328.4,716.8,317.2,702.3,305.1,687.7Z"/><path class="cls-1" d="M440.8,607.5c12.5,4.8,19.6-1.4,25.2-11.5,3.7.5,7.4,1,11.7,1.5-5.4,8.9-10.5,17.3-15.7,25.7C450.8,625.3,441.3,618.8,440.8,607.5Z"/><path class="cls-1" d="M1114.6,854c-5.7-12.6-11.5-24.1-9.4-38.1,3.8.5,7.2.9,10.4,1.4C1118.3,826,1117.9,844.8,1114.6,854Z"/><path class="cls-1" d="M307.1,683.7a7.57,7.57,0,0,1-8.3-2.4c-5.2-5.6-10.7-10.9-16.1-16.3a26.34,26.34,0,0,1-4-5.3C290.4,664.8,300.8,671.5,307.1,683.7Z"/><path class="cls-1" d="M1139.6,820.6c-4.1,6.2-7.6,11.7-11.6,17.8-1-6.6-2-12.7-3.1-19.7C1129.8,819.4,1134.3,819.9,1139.6,820.6Z"/><path class="cls-1" d="M441,598.2a13.93,13.93,0,0,0,11.8-3c2.1-1.6,2.7-1.4,7.7.3-3.5,8.3-10.8,11.5-17.6,7.7C441.1,602.2,439.7,601.1,441,598.2Z"/><path class="cls-1" d="M992.6,519.2c1.7,7.5-.4,14.3-4,22a21.9,21.9,0,0,1-.9-4.3c-.1-4.7-.1-9.4.1-14.1C988,519.3,988.2,519.3,992.6,519.2Z"/><path class="cls-1" d="M643.7,1012.9h8.8c-1,5.2-1.9,10.2-3,15.5C646.7,1025.4,644.9,1020.4,643.7,1012.9Z"/><path class="cls-1" d="M712.5,1023.6c-1.6-5-3.2-10.1-4.9-15.8,2.8-.2,4.7-.4,7.3-.6a74.9,74.9,0,0,1-.8,16.5A9.15,9.15,0,0,0,712.5,1023.6Z"/><path class="cls-1" d="M974.4,522.3c3.7-.7,6-1.2,8.8-1.7-.5,3.8-.8,7-1.3,10.7C978.5,529.1,978.1,525.2,974.4,522.3Z"/><path class="cls-1" d="M447.3,1003.9c2.6.6,4.2,1,6.2,1.6-1.4,3.2-2.7,5.9-3.9,8.6-.3,0-.7-.1-1-.1C448.2,1011,447.8,1008,447.3,1003.9Z"/><path class="cls-1" d="M1009.9,812c-.5-2.6-1.1-5.2-1.7-8.3h5.3c-.8,3-1.5,5.7-2.3,8.3A2.85,2.85,0,0,1,1009.9,812Z"/><path class="cls-1" d="M345.5,981.1v-7.3C348.8,975.1,348.8,975.1,345.5,981.1Z"/><path class="cls-1" d="M442.1,591.8c1.4.3,2.9.6,4.6.9C444.3,594.2,444.3,594.2,442.1,591.8Z"/><path class="cls-1" d="M1109.9,145.6c3.9-.3,7-.5,10.1-.7,7.4-.5,14.7-.3,21.7,2,3.5,1.1,6.8,2.7,7.3,7.9-2.2.1-4.2.2-6.2.2h-389c-9,0-16.1-4.1-22.4-9.7-4.5-3.9-4.4-8.1.2-12.1a52.6,52.6,0,0,1,11-7,138.05,138.05,0,0,1,33.7-10.8,29.5,29.5,0,0,0,17-9.8,157.73,157.73,0,0,1,37.1-30.4c7-4.1,14.2-7.5,22.3-8.7,4.4-.6,9.3-1.3,13.4-.1,10.6,3.2,21.6,3.6,32.4,5.6,17.1,3.2,34.2,6.8,50.3,13.7a115.32,115.32,0,0,1,14.8,7.7c6.8,4.1,12.4,9.6,15.1,17.9,3.4-.7,6.8-1.4,10.2-2,11.6-2.3,23.4-4,35.3-3.6,6.8.2,13.5,1.2,19.6,4.7,1.5.9,3.7,1,5.5,1,14,.3,27.9,1,41.4,4.8a63.46,63.46,0,0,1,13.5,5.4c8.7,4.9,10.7,11.3,7.1,20.7C1110.9,143.2,1110.6,144,1109.9,145.6Z"/><path class="cls-1" d="M1102.3,117.9c-16.9-7.1-34.8-8.1-52.7-8.7a12.59,12.59,0,0,1-5.5-1.1c-6-3.1-12.5-4.2-19.2-4.5-14.2-.5-28.1,1.7-41.9,4.7-.8.2-1.7.3-2.8.5-5.9-12.9-17.2-19.4-29.4-24.4-7.5-3.1-15.4-5.4-23.2-8-1.6-.6-3.3-1-4.9-1.5,3.2-15.8,23.8-45.1,56.3-55.4,37-11.7,69.8-4,97.7,23.1C1100.3,65.4,1106.7,100.6,1102.3,117.9Z"/><path class="cls-1" d="M1088.9,157.3c-9.1,22.5-44.7,43.8-74.4,44.6-36.2,1.1-64-14-84.6-43.9C934.6,156.7,1070.5,156.2,1088.9,157.3Z"/><path class="cls-1" d="M89.7,513.6c-2.1-10.5,3.1-18.9,13-20.6,4.1-.7,5.9-2.5,7.4-6a58.31,58.31,0,0,1,12.7-18.4c11.1-10.7,23.9-13.5,38.5-8.7,9.4,3.1,17.4,8.6,25,14.8,1.2,1,2.5,1.9,3.7,2.9.1.1.3,0,.8.1.8-3,1.6-6.2,2.6-9.2a44.13,44.13,0,0,1,8.5-16c7.7-9,17.5-11.5,28.8-9.4,10.1,1.9,19.1,6.5,27.5,12.2,2.8,1.9,5,2.1,8.2,1,7.9-2.9,16-4.7,24.6-3.6,8.8,1.1,14.8,5.6,17.9,13.9a21.66,21.66,0,0,0,1.2,2.6c4.4.2,8.6.1,12.7.8,10.4,1.8,18.3,7.3,23.4,16.6,1.3,2.4,2.6,3.9,5.8,4.2,13,1.4,16.6,9.4,9.4,20.4-1.1,1.6-2.2,2.6-4.2,2.4-1.2-.1-2.4,0-3.7,0H89.7Z"/><path d="M686.3,585.5c-1.5,6.7-6,9.8-11.5,10.9a159.61,159.61,0,0,1-19.6,2.9c-5.2.5-10.4.1-15.9.1-.4,1.2-.7,2.3-1.1,3.4-1.7,5.3-2.9,10.8-5.3,15.8-6.8,14.2-19.1,20.3-34.4,17.3a79.81,79.81,0,0,1-28.8-11.8,23.48,23.48,0,0,1-2.5-1.9c-5.7-4.6-9.6-10.1-8.9-18.2-1.3-.5-2.6-.9-3.8-1.5-4.2-2-8.6-3.7-12.6-6.1a20.36,20.36,0,0,1-9.3-12.2c-.8-3.2-2.8-4.9-5.2-6.7a43.89,43.89,0,0,1-8.3-7.8c-5.4-7.2-4.2-14.6,3.4-19.2a44.9,44.9,0,0,1,14.9-6c9.9-1.9,20-2.7,30-4.1a23.14,23.14,0,0,0,6.8-2c7.6-3.9,15.8-5.6,24.1-6.4a189.89,189.89,0,0,1,81.9,9.3A93.58,93.58,0,0,1,703,552.7a53.36,53.36,0,0,1,17.8,20.8c5.3,10.7,1.3,17.3-10.5,16.8-5.7-.2-11.3-1.8-16.9-2.8A55.24,55.24,0,0,0,686.3,585.5ZM615.7,535c-3.4.2-9.3.2-15.2.9-8.5.9-17,2.1-24.6,6.5a16.61,16.61,0,0,1-8.3,2.4c-10.8.3-21.6,1.3-32,4.5a42.91,42.91,0,0,0-11.3,5.2c-4.8,3.1-5.4,7.6-2,12.2a27.58,27.58,0,0,0,6.6,6.6c13.4,9.1,28.1,13.6,44.3,12.7a16.78,16.78,0,0,0,11-4.2c3-2.9,6.7-4.3,10.6-5.2,11.7-2.5,23.6-2.4,35.4-1.6,23.8,1.7,47.5,3.7,70.8,9.7a43.7,43.7,0,0,0,11.4,1.1c5.9-.2,7.4-2.9,5.3-8.3a37.78,37.78,0,0,0-3.6-6.9c-7.1-11.6-18-18.2-30.1-23.2C663,538.5,640.9,535.5,615.7,535Zm-77.5,49.1c-.3.2-.7.3-1,.5a69,69,0,0,0,4.7,6c3.9,4,8.9,6,14.1,7.7a14.4,14.4,0,0,0,9.6-.3c7.6-2.6,15.3-4.8,23-6.8,12.5-3.3,25-.7,37.3,1.5,12.8,2.4,25.6,3.3,38.5,1.4a68.47,68.47,0,0,0,12.6-3.2c2.4-.8,4.7-2.4,4.3-6a44.23,44.23,0,0,0-5-1c-11.8-1.4-23.5-3-35.3-4-12.8-1.1-25.7-2-38.6-.3-5.2.7-10.5,1.2-14.6,5a20.41,20.41,0,0,1-13.8,5.5c-5.5,0-11.2,0-16.6-1C550.8,588,544.5,585.8,538.2,584.1Zm27,29a19.31,19.31,0,0,0,6.6,7,75.42,75.42,0,0,0,28.3,11.6c12.4,2.3,22.1-2.2,28-13.4,2.7-5.2,4.1-11,5.9-16.6a10.68,10.68,0,0,0,0-3.1c-7.9-1.1-15.2-3-22.7-3.3a17.5,17.5,0,0,0-.7,2.6c-2.5,11-9.6,17.1-20.5,18.8C581.5,618,573.1,617.4,565.2,613.1Zm41-18.7H595.8c-1.9,0-3,1-3.8,2.9-4.1,9.4-8.3,10.4-16.9,4.4-2.3-1.6-6.5-1.3-7.9.7s-.5,5.7,2,7.3a16.52,16.52,0,0,0,4.7,2.1,37.4,37.4,0,0,0,17.6.1C600.2,609.8,605.4,603.6,606.2,594.4Zm-27,3.5c5,4.1,6.4,3.7,7.8-1.9C584.3,596.7,581.8,597.3,579.2,597.9Z"/><path d="M748.2,819.6c.9,1.2,1.5,2.1,2.4,3.3-2.2,1.6-4,3.1-6,4.5-21.1,14.9-44.6,24.9-69.3,32a364.38,364.38,0,0,1-98,13.5c-1.5,0-3.1-.2-4.9-.3v-4.2h6.9c38.8-.3,76.6-6.2,113.2-19.2a200.68,200.68,0,0,0,53.4-28.1C746.4,820.7,747,820.4,748.2,819.6Z"/><path class="cls-1" d="M615.7,535c25.1.5,47.3,3.6,68.4,12.2,12.1,5,23,11.6,30.1,23.2a45.24,45.24,0,0,1,3.6,6.9c2.1,5.4.5,8-5.3,8.3a39.79,39.79,0,0,1-11.4-1.1c-23.2-6-47-8-70.8-9.7-11.8-.8-23.7-1-35.4,1.6-4,.9-7.6,2.3-10.6,5.2s-6.9,4-11,4.2c-16.2.9-31-3.6-44.3-12.7a27.58,27.58,0,0,1-6.6-6.6c-3.4-4.6-2.8-9.1,2-12.2a46.37,46.37,0,0,1,11.3-5.2c10.4-3.2,21.1-4.2,32-4.5a16.61,16.61,0,0,0,8.3-2.4c7.5-4.4,16.1-5.5,24.6-6.5C606.4,535.2,612.3,535.1,615.7,535Z"/><path class="cls-1" d="M538.2,584.1c6.3,1.7,12.6,3.9,19.1,5,5.4,1,11.1,1,16.6,1a20,20,0,0,0,13.8-5.5c4.1-3.8,9.4-4.3,14.6-5,12.9-1.7,25.8-.7,38.6.3,11.8,1,23.5,2.6,35.3,4,1.7.2,3.4.7,5,1,.4,3.6-1.9,5.2-4.3,6a68.47,68.47,0,0,1-12.6,3.2c-12.9,1.8-25.7.9-38.5-1.4-12.3-2.3-24.7-4.8-37.3-1.5-7.7,2-15.4,4.2-23,6.8a14.4,14.4,0,0,1-9.6.3c-5.2-1.8-10.2-3.8-14.1-7.7a69,69,0,0,1-4.7-6C537.5,584.4,537.8,584.3,538.2,584.1Z"/><path class="cls-1" d="M565.2,613.1c7.9,4.3,16.3,4.9,24.9,3.5,10.9-1.8,18-7.9,20.5-18.8.2-.7.4-1.3.7-2.6,7.5.4,14.9,2.2,22.7,3.3,0,1.2.3,2.3,0,3.1-1.9,5.6-3.2,11.5-5.9,16.6-5.9,11.1-15.6,15.7-28,13.4A73.19,73.19,0,0,1,571.8,620,18.2,18.2,0,0,1,565.2,613.1Z"/><path class="cls-1" d="M606.2,594.4c-.8,9.2-6,15.4-14.6,17.5a37.4,37.4,0,0,1-17.6-.1,13.31,13.31,0,0,1-4.7-2.1c-2.5-1.6-3.4-5.4-2-7.3s5.6-2.4,7.9-.7c8.6,6.1,12.8,5,16.9-4.4.8-1.9,1.8-2.9,3.8-2.9C599.3,594.3,602.7,594.4,606.2,594.4Z"/><path class="cls-1" d="M579.2,597.9c2.5-.6,5.1-1.2,7.8-1.9C585.6,601.6,584.2,602,579.2,597.9Z"/></g></g></svg>