<svg xmlns="http://www.w3.org/2000/svg" viewBox="0 0 1200 1562.9">
  <defs/>
  <defs>
    <style>
      .cls-1{fill:#fff}
    </style>
  </defs>
  <g id="Layer_2" data-name="Layer 2">
    <g id="Layer_1-2" data-name="Layer 1">
      <path d="M1200 1474v89H0V0h1200v2.9a54.2 54.2 0 00-18 9.7 52.7 52.7 0 00-13.8 17c-2.3 4.8-4.3 9.8-6.4 14.7-3-1.3-4.5-4.2-6-7a63 63 0 01-4-8.2c-.8-2.2-2-3-4.3-3-15.6-.7-30.8.8-45.7 5.7-11.7 3.8-23.3 7.9-35 12a108.8 108.8 0 00-12.4 5.2 466 466 0 00-24.2 12.8 107 107 0 00-23.7 18c-4.3 4.4-3.5 8 2.2 10.3 1.7.8 3.6 1.3 5.6 2-12.7 4.3-25.1 8.1-37.3 12.5a283 283 0 00-24 9.8c-14.8 6.8-29.5 14-44.2 21-9 4.3-17.3 9.9-25.3 15.8a8.3 8.3 0 00-3.4 8.4c1 6.6 3.3 12.4 9.6 15.8 5.5 3 11.1 5.6 17.7 5.1 3.4-.2 6.8 0 10.1 0 1 0 2 .3 3.7.5-7 5.6-13.5 10.6-19.7 15.9-15.4 13.2-29 28.2-43 43a49 49 0 00-5.9 8.2c-1.4 2.3-.4 4.1 2 4.7a8.2 8.2 0 003.4.2c3.8-.7 7.6-1.2 11.3-2.2 9.2-2.5 18.2-5.5 27.3-7.7 7.5-1.9 15-3.6 22.7-4.3 10.5-.9 21.2-.7 31.8-1 1 0 2.1.2 3.5.4-.4 1.3-.6 2.2-1 3-3.2 8-6.7 15.9-8.8 24.3-3 12.3-6.4 24.6-8 37.2-.3 3-1.9 4.2-4.6 5.2-7.1 2.5-14.1 5.3-21 8.5-5.5 2.5-10.7 5.7-15.8 8.6a618.9 618.9 0 00-87-61.1l7.2-5.2c1.4-1 4.4-1.6 2.8-4.1-1.4-2.1-3.5-.4-5.1.4s-3 1.9-4.6 2.8L804 261l-34.1-20c1.8-1.5 3.2-3.5 5-4 4-1 6.8-3.7 9.1-6.7 2-2.5 4.5-5.5 3.7-9.3-2-1-3.6-.4-5 1l-13.8 12.7-4 3.7-55.7-30a48 48 0 001.7-18.9c0-2.6-1.3-4-3.8-4.8-5.4-1.7-10 .1-14.5 3a14.3 14.3 0 01-4.2 2c-4.8 1.2-8 4.2-8.5 9.2a93 93 0 00-.4 11.6c0 3 1.5 5.1 4.8 5.7a5.1 5.1 0 012.5 1.1c2.8 2.7 6 2 9.1 1.4a13 13 0 009-6.1L761 243l-8.9 9.5c-2.9 3.1-5.7 6.5-8.4 9.9-.5.6-.6 2.5-.2 2.8a4.3 4.3 0 003 .3c.8 0 1.4-.8 2-1.4l5-5.2 12.3-13.2a477.5 477.5 0 0133.3 19.4c-6.6 6.9-9.1 11.6-8 15.6 5.7-3 6.9-10.2 13-12.9 29.4 18.5 59.6 36.3 85.5 61-5.4 3.4-10.3 6.6-15.4 9.6-5.5 3.3-11.5 5.8-16 10.5-1.5 1.4-3.6 2.1-5.5 3-8 3.5-15.8 7.1-23.8 10.4-7 3-12.6 7.6-18.6 12-.6.4-1.5 1.1-1.5 1.7-.3 3-2.7 3.8-4.8 5a18.3 18.3 0 00-3 2.3l.3 1h4.5a39.8 39.8 0 00-5.1 2.6c-4.1 3-8.5 6-12 9.6-1.8 2-3.4 4-5.8 5.2-6.2 3.2-12.2 6.6-18.6 9.3s-11.5 7.5-18.5 8.5c-.5.1-.9 1-1.3 1.3l-6.2 4.8c-3.3-2.7-5-3.6-5.5 2.6a68.3 68.3 0 00-6 4.2c-1.2 1-4.6 1.2-3 3.9 1.4 2.1 3.6 0 5.3-.5.9-.2 1.6-1.1 2.4-1.6l3-1.5a509 509 0 019 51.2c1.8 16.2 3.3 32.5 4.9 48.8l5 50.8 2 23.5c1.2 12.1 2.6 24.2 3.4 36.4.7 10.4 1 20.9 1 31.3a7.6 7.6 0 004 7.1c6 3.7 12 7.6 18.2 10.9a294.5 294.5 0 0041 17.7 777.7 777.7 0 0078 22.4c11.2 2.6 22.3 4.8 33.5 7.1l15.4 3.2c-4.4 6-8.3 11.6-12.5 17a31.8 31.8 0 00-6.5 18.2 48 48 0 005.8 25c1 1.7 1.6 3.5 2.4 5-2.7 3-6.5 2.4-9.4 3.8-9.8 4.5-19.3 9.4-29 14.2-5.7 2.9-11.2 6.2-17 8.8A230.3 230.3 0 00855 850c-4.4 2.7-8.8 5.2-13.3 7.7-8 4.4-16.1 8.6-24 13.1q-10 5.7-19.9 11.9-12.4 7.8-24.5 16c-7.9 5.3-15.5 10.8-23 16-6.3-2.7-8.9-1.8-11.8 3.8l-2.8 5.6a8.4 8.4 0 01-2 2.6l-15 11.3c-10.4 7.8-20.9 15.4-28.1 26.6-4.6 7-9.4 14-10.3 22.5a95.9 95.9 0 00.1 18.3 13.6 13.6 0 0013.3 12.7l34.8.1a9.2 9.2 0 002.4-.2l29-8.2 9.1-3 27.6-8.2c7.8-2.4 15.5-4.8 23.2-7.5 7.3-2.4 14.7-4.8 21.6-8 7.9-3.5 15.3-8 23-12a10.1 10.1 0 014.5-1.2c7.4.1 14.8.4 22.2.7 2.1 0 4.3.2 7.5.4-2.2 1.5-3.3 2.4-4.5 3.1l-12.5 7.3c-7.5 4.6-15.3 8.9-20.9 16a7.8 7.8 0 01-3 2.4c-9.7 4-19.4 8.4-29.4 12-14.3 5-28.9 9.5-43.4 14.2a236 236 0 00-28.2 11 165.2 165.2 0 00-34.6 24.3l-24.9 20.6a36 36 0 00-4.2 4c-2 2.2-1.1 4.3 1.9 4.6a16.1 16.1 0 006.2-.2 265.7 265.7 0 0035.8-13.8c8.6-4 17.1-8 25.8-11.8 9.6-4 19.2-8 29-11.6 10.4-3.8 21-7 31.4-10.6 10.8-3.6 21.6-7 32.4-10.9a78.2 78.2 0 0115.6-4.2c4.1-.5 8.5-.5 12.3-1.6 6.1-1.8 12.4-1.8 18.4-3.3a17.6 17.6 0 013.8 0c-3.2 5.7-5.6 11.5-9.3 16.2-4.7 6.1-7.3 13.1-10.2 20a18.7 18.7 0 00-1.2 6.6c-.5 18.3.2 36.6-1.1 55-.9 11.3-5.7 21-9.1 31.2a5.6 5.6 0 01-1 1.7c-4.4 5.5-8.3 11.4-13.4 16.3a115.7 115.7 0 01-17.5 13.4 49 49 0 01-24.3 6.8 107.2 107.2 0 00-13.4 1.6q-15.8 2.9-31.6 6.2c-4.8 1-9.6 2.3-14.3 3.8-1.2.4-2.7 1.8-2.7 2.9s1 2.7 2.1 3.3c9.4 5.5 19 10.7 29.5 13.9l40 12c3.7 1 7.3 2.2 11 3.4a36 36 0 01-11.2 14c-7.8 5.6-16.4 9.2-25.3 12.6a61.8 61.8 0 01-24.5 4c-9.2-.3-18.4 0-27.6-.1a68.4 68.4 0 01-7.7-.4 211.6 211.6 0 00-28.3-1.6q-12.8.2-25.7 0c-15-.2-29.3 2.8-43.5 7.2-7.6 2.4-15.1 5.4-22.5 8.4-11.7 4.8-23.4 9.5-34.9 14.9-17.1 8-34.1 16.3-51 24.8-11 5.6-22.2 11-32.5 17.7a399.4 399.4 0 00-33.7 24.9 210 210 0 00-36.4 38.4 87 87 0 00-5.8 9.4 6.1 6.1 0 00-1 3.7c.3 1.2 1.2 2.9 2.2 3.3s2.4-.7 3.4-1.5a9.3 9.3 0 001.8-2.9 62.8 62.8 0 0119-21.5c13.1-9.3 28-15 43.5-18.6 13.7-3.2 27.4-6.6 40.7-11.3l26-8.7c7.2-2.4 14.4-4.4 21.4-7.2 9.9-3.8 19.5-8.1 29.3-12.1q15.5-6.5 31.1-12.8l15-5.9a168 168 0 01-15.8 23.7c-8.5 10.3-17.5 20.1-26.7 29.8-10.4 11-21.2 21.6-31.9 32.4l-13.7 14.2c-3 3.3-6.5 6.3-9.1 10q-17 23.6-33.6 47.5a113.4 113.4 0 00-14.3 30.4 44.7 44.7 0 00-1.6 11.9c-.2 3.6 2.5 5.2 5.8 3.6a118.8 118.8 0 0024.7-15.4c12.2-10 24-20.3 37-29.2 11-7.5 21.8-15.3 33-22.4 12.2-7.7 24.9-14.7 37.2-22 5.1-3 10-6.5 15-9.6 6.7-4.2 13.3-8.4 20-12.4 6.2-3.7 12.6-7.1 18.8-11 7.8-4.9 15.5-10 23.3-15.2 3.4-2.2 6.7-4.5 10.2-6.5a151.2 151.2 0 0143.7-15.7c5.6-1.1 11.4-1.5 17.2-2.1 8-1 15.9-2.2 23.9-2.4 11-.2 22.2.4 33.2.9a27 27 0 0121.8 12.2 33.7 33.7 0 015.7 15.2c1.2 10 2 20 3 30.1.5 5.1 3.1 6.6 7.3 3.6 6.3-4.7 12.5-9.6 18.5-14.6s12-10.7 18.4-15.6c4.1-3.2 8.6-6 14.2-6.2 3.6-.2 7.1-.3 10.6-.6 5.6-.5 11.1-1.8 16.7-1.8a689 689 0 0135.2.7c9 .3 18 1 26.9 2.1 12.8 1.6 25.7 3.7 38.5 5.6a117.7 117.7 0 0111.8 2.2c8.2 2 16.6 3.9 24.5 7 20 7.8 35.5 22 49.2 37.8 8.8 10.1 17.5 20.2 27.2 29.4 4 3.9 8.8 7.2 13.2 10.8zM1 682c3.7-.4 7-1 10.3-1 5.5 0 11 .3 16.4.7 13.7 1 27 3.3 39.7 8.8s22.4 13.6 28.3 26.2a28.4 28.4 0 012.5 14.6 62 62 0 01-14.9 34.9 676.7 676.7 0 01-48.5 46.2c-7 6-12.5 13.2-18.4 20.3-1.5 1.9-1 3.7 1.1 4.7a8.5 8.5 0 004.2.8c5.6-.5 11.1-1 16.7-1.7l41-5.5c6-.8 12.1-1.5 18.2-2.1 11.2-1.2 22.4.7 33.7 1a6.4 6.4 0 011.8.4 79.3 79.3 0 0021.2 3.9c3.5.2 7.2.4 10.6-.3 2.8-.6 5.3-2.6 8-3.8 1.1-.4 2.4-.3 4.7-.6-2.9 2.7-5.7 4.6-4.5 7.8 1 2.6 3 4.8 4.6 7-.4 3.4-5 5.4-3 9.5.1.2-.2.6-.5.8-2.5 2-2.2 4.7-2.3 7.5a15 15 0 01-1 5c-1.7 4-2.6 7.9.4 11.8a3.1 3.1 0 01.8 2.1c-1 4.4.9 8.2 3.1 12.2-10 3.3-19.4 7.8-30 9.2l-.8-4.7h-7.3l-18.8 1a76.2 76.2 0 01-42.9-12.2c-.5-.3-1-1-1.5-1-1.2 0-2.9 0-3.5.8s-.5 2.5 0 3.4a51 51 0 003.9 5l9 12.2a9.7 9.7 0 01-5.2-1.3l-21.5-11.8c-8.8-5-17.3-10.5-24.5-17.8a21.5 21.5 0 00-5.1-4.3 6.2 6.2 0 00-4.9-.2c-.7.4-1 3-.5 4.3 1.3 4 3 7.7 4.6 11.6l4.9 11.7-.9.6-12.4-9c-4.7-3.6-9.2-7.5-13.8-11.2A17.9 17.9 0 001 878c-.8 5.8-.8 5.8 1.4 7.8a300 300 0 0034 25.2c1 .7 3 1 4 .3s1-2.4 1.1-3.8a4.7 4.7 0 00-.7-2.2l-5-10.5c-1.4-3-2.6-6.2-3.9-9.4a19.3 19.3 0 015.3 3 379 379 0 0040.4 23.4 57.9 57.9 0 008.9 3.6c1.8.6 4 .7 5.4-1s.8-3.7-.3-5.4l-2.6-4.1-4.5-7a88.7 88.7 0 0033.2 6.1c.1 4.5 3 5 6.3 4.9 6.5-.4 13-.4 19.3-1.1a57.7 57.7 0 0012.6-2.9c7.4-2.5 14.6-5.6 21.8-8.4 4.8 2.3 8.8 6.3 14.8 5.7 1 6.7 6.4 8 12 9.4a19.6 19.6 0 01-3 2.4 12.1 12.1 0 00-7.5 9.9c-.2 1.4-.8 3.3-1.9 4.1-9 6.8-18 13.5-27 20a58.7 58.7 0 01-6.6 3.7l-.7-.8c1.7-2.4 3.3-5 5-7.3 1-1.2 1.9-2.3.9-3.8a3 3 0 00-4.3-1c-2.7 1.4-5.6 2.6-8 4.5-7 5.7-13.6 11.7-20.5 17.4-3.7 3.1-7.2 6.6-11.4 8.8-8.9 4.7-18.1 8.9-27.4 13-7.5 3.2-15.2 6-22.8 9a56.5 56.5 0 01-15 3.5l4.7-3.6c2.3-2 4.8-3.8 7-5.8a5.3 5.3 0 001.8-5.3c-.4-2-2.2-2.1-3.7-2.4l-5.7-1c-10-2-20.4-2-30.4-4.7-7.8-2.2-13.4-7-19-12.4 3.6.4 7 1.4 10.4 1.8a96.5 96.5 0 0012.5.3 3.4 3.4 0 003.5-2.8c.4-1.9-.8-2.7-2.3-3.7a90.2 90.2 0 01-9-7.2 97.5 97.5 0 01-19-23.4c-1.1-1.9-2.4-3.6-4.1-6.2-.7 5.8-1.5 10.6 1.9 14.6 4.8 5.8 9.8 11.4 14.8 17.1 1.7 2 4 3.4 5.4 6.4l-22-5.1c-1.5 7.3-1.3 8 3.4 12.7l1 1a45.8 45.8 0 0022.5 12.6c5.5.8 11 1.9 16.5 2.8l15.9 2.2c-3 2.3-5 3.8-6.9 5.5-3.3 2.7-6.8 5.4-10 8.3a4.1 4.1 0 00-1 3.3c.2.8 1.6 1.4 2.5 1.8a7.8 7.8 0 002.4.2c7 .4 13.5-1.3 19.9-3.5a457 457 0 0045.7-18.8c5.9-2.8 11.8-5.4 16.6-9.7 5.6-4.9 11-10 16.4-15l3.8-2.7-.6 4.6c-.6 3.6 1.1 5.2 4.6 4.2a19.3 19.3 0 004-1.7 177.1 177.1 0 0030-20.2c3-2.5 6.3-4.7 9.5-7l5.4 3.3c-6 4.7-8.6 11.3-12.2 17.2-2.5 4.3-1.4 8 3 10.5l-2.2 5.7c-2.8 7.9 1 15 8.3 16.6 7 1.7 13.7.4 20.2-2.1 5.2-2 10.3-4.4 15.5-6.6a13 13 0 003.3-1.9c2-1.7 1.7-4.2 1-6.3a4.4 4.4 0 00-3.1-2.2c-6.4-.7-12.8-1.5-19.1.5-3.2 1-6.7 1.5-10.5 2.3l3.2-7.5 1.6-.4c10-2.6 20-4.4 29.3-9.3 6.5-3.5 6.9-3.9 6-11.3-6.2-3.8-21.4-3-34.8 2l1-5.6c3.2 0 6.7.6 10-.1 6.6-1.6 13.2-4 19.7-6 1.7-.6 3.4-1.1 3.5-3.4a4.7 4.7 0 00-2.8-4.7 19 19 0 00-10.5-2.8c-3 .1-6-.1-10-.2 4-3 9-2.2 10.6-7 4.4 2.9 9.4 2.2 14.1 1.9 2-.2 4-1.4 5.5-2.7a51.1 51.1 0 005.5-5.4c2-2.2 4.6-3 7.4-1.9a27.5 27.5 0 017 4.1c5.7 5 12.8 5.5 18.9 1.2 1.5-1.1 3-2.5 4.7-3.9l8.1 2c9 2.2 17.7 3 25.8-3a26.8 26.8 0 014.5-2l3.1 7.2c-5.1 3-10.4 5.6-15 9a39.6 39.6 0 00-9 9.7c-3 4.6-1 7.8 4.4 8l3 .2a56 56 0 00-3.4 6 46.7 46.7 0 00-1.9 6.5 6.6 6.6 0 003 7.8 24.6 24.6 0 003 1.3 26.3 26.3 0 01-1.8 3.4A34 34 0 00315 982c-.1 2.3.7 3.6 3.3 3.7 1 0 2 .7 4 1.6-4.6.6-8 1-11.5 1.6-4.2.8-5.6 2.3-5.4 6.5.2 5.8.6 11.6 1.1 17.3.4 4 1.2 8 1.7 12a3.3 3.3 0 003.1 3c2.2.3 4.5.4 6.8.4 11.9.5 23.6-1.2 35.4-2.7 13.6-1.7 27.2-2.2 40.8-3.3 5-.4 9.9-1 14.8-1.8 4.5-.7 5.8-2.8 4.3-7.1-.7-2.1-2-4-2.9-6.1-1.7-4.7-5.2-6.3-9.8-6-4.8.4-9.5 1.5-14.3 1.8-10.2.5-20.5.8-30.8 1-2.6 0-5.3-.7-8-1.1 1.3-4.8 2.7-9 8-9.8.4-4.3.2-4.7-3.1-5.1-1.9-.3-3.8-.4-6.8-.6l5.5-3c6.3-3.3 10.5-7.7 9.5-15.6-.6-4.3-1.2-5.6-5.5-6.6a15 15 0 00-5.2-.2c-5.2.7-9.7 3.3-13.8 6.4a29.9 29.9 0 01-12 6l5.8-12.4a4.5 4.5 0 014.1-2.8 67.6 67.6 0 0012.3-1.9 48.2 48.2 0 0020.8-11.5c1.3-1.2 2.5-2.5 1.7-4.6a4.2 4.2 0 00-3.8-3 43.8 43.8 0 00-24.6 2.4l-8.1 3.7c3.3-4.5 5.6-7.8 11-8.2 8.2-.7 15.9-3.7 23-7.8 3.8-2 5.6-4.6 4.6-6.4-1.4-3-4.3-3-7-3l-19.4 1c2.3-3.6 5.3-6.3 10.4-5.9a6.2 6.2 0 003.2-.7l10.6-5.8a58.7 58.7 0 015.8 2.5 37.6 37.6 0 0022 4c3.4-.4 6.6-1.7 7.6-5.6l2-9c1.2-.2 2.8-.7 4.5-.9 5.9-.6 11.8-1 17.7-1.8 4.9-.7 6.5-2.7 6-7.5a67 67 0 00-3.2-12c-1-3-2.4-5.7-3.7-8.9l2.8-.6c4.8-1.2 9.7-2.1 14.5-3.5 2.7-.7 4-2.6 4-5.8a18.5 18.5 0 00-3.4-10.2c-2.7-4.3-6.5-7.5-10.2-10.8-2-1.8-4.6-3.5-8.5-1.7a15.8 15.8 0 002 3c2.5 2.3 5.3 4.2 7.6 6.7 3.3 3.6 6.5 7.5 7.4 13.1a44.4 44.4 0 01-4.4 1.7 82.5 82.5 0 01-10.8 2.6c-6.3.7-7.2 6.2-5 10.3a61.2 61.2 0 016 17.8 28.2 28.2 0 01-4.4 1.2l-19.2 1.8c-4.8.4-5.8 1.2-5.4 6 .6 6.4-2.4 10.2-10.4 9.4a16.3 16.3 0 01-4.2-1c-4.8-1.8-9.7-3.5-14.3-5.7-3.6-1.7-6.3-.9-9.1 1.7a24.8 24.8 0 01-6.8 4.3c-6 2.6-12 0-14.5-6a13.5 13.5 0 00-1.4-2.5c-2.2-3.1-4.1-3.7-7.3-2a29 29 0 00-3.7 2.3c-7.5 5.5-15.5 5.2-23.8 2.2a36.6 36.6 0 00-7.5-1.6 6.3 6.3 0 00-6 2.2 17.5 17.5 0 01-6.8 4.3c-2.7.9-5-.2-7.3-2.3a20.6 20.6 0 00-15.4-5.7c-5 .2-7.3 3.5-10.2 6.4l-1 1c-3.2 3.6-7 4.2-11.4 2.6-2.1-.8-4.1-2-6.3-2.4-3.2-.8-6.6-1-9.9-1.5-3.6 3-7.9 2.1-12 2-4.6-.2-9.3-.8-13-4.3l-.4-5.7c-.9-.2-1.5-.6-2-.5-5 1-9-1.2-12.6-4-4.2-3.3-8.2-7.4-6.6-13.8.6-2.5-.3-4.2-2.6-5.7l2.8-5.8c2.3.3 4 .5 5.7.9 3.3.8 7 1 9.6 2.8 6.1 4.1 12.6 5.2 19.7 5 4.2-.2 7.7-1.8 10-5a25.1 25.1 0 004.1-8.6c1.7-7.2 2.8-14.5 4-21.8a33.3 33.3 0 00.2-7.2c-.1-1.8-1.4-3-3.3-2.5-1.7.5-1.4 1.8-1.3 3.2a34.8 34.8 0 01-.2 6.5c-.5 3.7-1.3 7.3-1.9 11s-1 7.2-2 10.8c-1.1 4.4-3.6 8.3-8.1 9.4-6.5 1.4-12.8.6-18.2-3.9a15.7 15.7 0 00-5.5-2.6c-3.6-1-7.4-1.7-11.1-2.7-1-.3-1.7-1.4-2.6-2l.4-1c3 1.6 5.1.4 7.4-1.6 2.6-2.2 6.2-3.4 9.5-2 4 1.5 8.7 2.7 10.4 7.6a2.2 2.2 0 002 1 2.5 2.5 0 001.4-1.6c.7-2.9-.5-5-2.8-6.7l-5.4-3.5 4-6c3.8-.2 7 3 10.5 1.1.5-3.8.6-3.8-2.5-4.8-3.5-1.1-7.1-2-10.7-3-2.5-.8-5.1-1.6-6.7-4.2 3.1-2.9 7-3.6 10.6-4.4a65.2 65.2 0 0118.2-2c1.4 0 2.6-.4 2.8-2 .2-1.8-1-2.6-2.7-2.7a70.1 70.1 0 00-8.6-.1 55 55 0 00-21 4.7c-6 3-6.7 7-2.4 12l1 1.2a19.7 19.7 0 00-1.5 1.7 22.6 22.6 0 00-1.2 2.1c-2.2 4-2.2 4-6.6 3.3.6-2.7 2-5.6 1.4-8s-3.4-4.2-5.6-6.7c3.4-2 6.4-4.3 9.8-5.5a6.3 6.3 0 004.4-4.5c2.7-9 5.2-18.2 8-27.2l6.3-20 .9 2a5.2 5.2 0 01.3 1.4c.6 9.7 6.4 15.8 14 20.7 8.8 5.6 18.5 4.5 28.1 4.2a6.6 6.6 0 003.2-1.1c4.7-3 8.9-6.4 11.4-11.5 1.4-2.6 2.6-5.3 4.3-8.7l1 1.8c3 7 8.4 11.3 15.3 13.8a29 29 0 0027.1-3 47.6 47.6 0 0017.4-22.8l6-1.3 1 7c.9 8.7 6.3 15 11.7 21.1a2.4 2.4 0 00.8.6c5.2 2.7 10.4 5.6 16.5 6 7.6.3 14-1.4 19.7-7a67.3 67.3 0 0014.3-21 23.6 23.6 0 012-3.2l2.5 2.2c2 1.9 4.3 2.4 6.6.8 4.6-3.2 5.1-1.7 8.3 2 1.6 1.8 2.4 4.3 3.7 6.7a53.4 53.4 0 00-5.9-.3c-3.2.1-6.4 2.3-6.5 4.5l-1.3 31.3a9.7 9.7 0 00.7 3.8 2.3 2.3 0 002 1 2.5 2.5 0 001.5-1.5 6.8 6.8 0 000-2.4c0-5.8-.2-11.6.2-17.4.3-4.3.3-9 2.9-13.5l16 2.5c0 3.4 1.9 4.5 4.7 4.8.1 7.1 1.7 14 .5 21.4l-12 2.2c-3 .6-6 1-9 1.8-2.6.7-3.2 2.1-2.6 4.2.7 2.4 2.4 2.2 4.3 1.8 5.8-1.1 11.6-2.4 17.5-3.3 1.7-.2 4.1-.2 5.4.9 2.9 2.3 6 2.6 9.4 2.7 4.2.1 8.5-.3 12.6.5 11 2.4 21.7 5.4 32.6 7.9a351 351 0 0025.4 5.1c11.5 1.8 22.6 4.8 33.7 7.8 5.4 1.5 10.7 3.4 16.5 3 4.1-.4 5.6-2.6 4-6.5a17 17 0 00-1.6-2.4c-5.6-8.6-11.5-17-16.7-25.8-5.9-9.9-12-19.4-19.5-28a84.8 84.8 0 01-15.4-23.8c-3-7.4-4-15 .7-21.7a47 47 0 0111.7-11.9c13.3-9 28.4-14.4 43.7-18.7 21.3-6 43.4-8.2 65.5-9.9 10.8-.8 21.8-.7 32.7-1a91.4 91.4 0 0010-1c6-.8 12-2 18-3 1.6-.1 3 0 3.4-2a4.1 4.1 0 00-1.5-4c-4.8-4.3-9.2-9-14-13.3-7.8-7.3-15.8-14.2-23.4-21.6-9-8.7-18-17.5-26.5-26.6-7.2-7.6-13.7-15.8-20.5-23.8-7.3-8.5-14.8-17-21.9-25.7a153 153 0 01-16.7-25.3c-4.3-8.2-9-16.2-12.1-25-1.5-4-3.3-8-5.1-12.5l8.8-19.1c.7-1.7 1.3-3.5-.4-4.8s-3.2-.5-4.8.6a85.5 85.5 0 00-23.1 24.9c-6.2 9.1-12.6 18-19 27-10 13.8-21.8 26.2-30 41.3A52.9 52.9 0 00490 614a24.3 24.3 0 01-1.6 7q-8.6 20.9-17.5 41.6l-12.9 29c-4.3-3.7-9.2-3-14-3-3.3 0-4.3 1-4.7 4.2a15.4 15.4 0 00.3 4.8 28.3 28.3 0 008.4 15.7c-8.4 21.8-17.9 43-23.7 66.7-4.4-6.9-9.4-9.4-15.9-5.4l-5.7-4.5c.8-8.6 1.8-16.8 1-25.2-1.3-15-12.6-25-24.7-26.3a134 134 0 00-13.4-.7 8 8 0 00-4.9 1.3c-.8.7-.6 2.8-.8 4.5-7.8 1-12.7 6.1-16.6 12.5-5 8.2-6.9 17.2-7.5 26.6-.2 2.3 0 4.6 0 7.3l-4-.5a13 13 0 01.3-2.7c3-9.2 2.6-18.7 2.5-28.2a20.4 20.4 0 00-18.6-20.2c-4-.5-7.7-1.4-12.3-2.2a36 36 0 013.7-2.5c6.8-3.2 13.6-6.3 19.4-11.4 4.5-3.9 9-7.7 10.2-13.8 4.7 1 5.9.4 8.3-3a43.3 43.3 0 013.5-4 99.7 99.7 0 006.7-7.5c5.6-7.6 11.5-14.8 18.8-20.7 5.4-4.3 10-9.5 16.4-12.5 3.6-1.7 8-1.8 10.6 2.3a62.3 62.3 0 013.2 5.3 95.1 95.1 0 018.6 26 35.6 35.6 0 001 4.2c.6 1.7 1.7 3.2 3.5 2.8a5.8 5.8 0 003.5-2.6 16 16 0 001.7-6.4c.3-5.6.1-11.2.1-16.8 0-11.1-3-21.6-6.2-32a48.4 48.4 0 00-11.5-18.7 11.3 11.3 0 00-4-2.4c-4.4-1.8-8 0-10.8 3-6.8 7.4-13.8 14.6-19.9 22.4-7 9-13.6 18.6-20 28.2-4.1 6.3-7.5 13-11.2 19.7l-1.9 3.5a5 5 0 01-.5-2.7 47.7 47.7 0 00-.5-7.6c-.2-1-1.7-2.3-2.8-2.6-1.6-.5-2.6.7-3 2.3a9 9 0 01-1.2 3.2c-5.7 7.7-10.9 16-17.5 22.9-6.8 7.1-15.1 12.9-22.8 19.2a4.6 4.6 0 01-2.2.8l-6.7.8c-3.9.3-4.2.8-2.8 5.7H288l.6.7a56.8 56.8 0 00-19 28.4c-1.2-7.1-5.8-11.7-11.4-16.5 2.4 0 4 .1 5.4.3.8 0 1.6.4 2.4.4 2 0 4 .3 4.6-2.3.6-2-.4-3.3-3.4-4.3-1-.4-2.2-.5-3.3-.8-8.4-2.1-9.9-4.6-8-13.1a24.4 24.4 0 011-4.3c2.4-5.4 1.7-11 1.6-16.7-.1-5.1-3.7-7.8-8.8-7a25.9 25.9 0 00-14.3 7.3c-4.7 4.7-9 9.7-13.5 14.5l-3.1 3c.3-4.4 1-8 .6-11.4-.4-4.1 1.6-6 4.6-8.1a49.3 49.3 0 007.8-7c2.5-2.6 2-6.1 1-9.1s-4-3.1-7-3H220l-1.5-13.6a120 120 0 00-6.2-28q-7.3-20.7-15.1-41.2a60.8 60.8 0 00-6.3-12.4c-6.7-10-13.7-19.7-20.9-29.4a67 67 0 01-8.8-14.8c-3.6-8.9-8.5-17-13.8-24.8-.8-1.1-1.8-2.7-3-2.8s-2.7.9-4.3 1.5c-.2-.5-.3-1.3-.8-1.6a4 4 0 00-2.4-.9c-.5 0-1 1.1-1.3 1.8a5 5 0 00.2 2.4l3.7 14a72 72 0 00-6 4.3c-5 4.4-9.7 9-14.5 13.5-8.3 7.8-16.5 15.8-25 23.5-11 9.8-22.5 19.2-33.5 29-7 6.1-14 12.3-20.3 19.2a411.5 411.5 0 00-38.4 49.4c-2 3-1.4 5.8-.2 9.7 3.7-5.5 6.9-10.3 10.3-15 5.7-7.7 11.6-15.3 17.5-23a253.8 253.8 0 0133.2-35.6c10.6-9.4 21.5-18.3 32-27.8 9.3-8.4 18.2-17.3 27.4-25.9 5.8-5.4 11.9-10.7 18-16.1a6 6 0 011 1.3l9.4 27.2L165 599l6.5 19.5c1.4 4.1 3.4 8 4.4 12.3 2.4 10.6 4.5 21.3 6.5 32 1.5 8 3.2 16 3.8 24.2.7 11 .6 22.2.4 33.3a81.8 81.8 0 01-2 15.2c-1 4.9-2.9 9.6-4.1 14.4-1.1 4.3-2.4 8.7-2.7 13.1a111.8 111.8 0 01-5.2 24.7l-4.7 2c-2.7 1.3-4.3 3.2-3.8 6.5.3 2.2.1 4.5.5 6.7.8 5.6 1.7 11.1-.8 16.6a5.4 5.4 0 001 5.9 19.3 19.3 0 011.3 2.4c-3 .3-5.8 1.1-8.4.9-6.9-.8-13.8-1.3-20.3-3.8a21.2 21.2 0 00-5.7-1l-13.4-1c-2.7-.3-5.4-.6-8.2-.5-3.2 0-6.3.4-9.5.6-5.7.4-11.3.6-16.8 1.3-8 1-15.9 2.5-23.8 3.6q-13.8 2-27.7 3.7a61.4 61.4 0 01-7 0c5.4-8.1 12.2-13.8 18.8-19.6A633.3 633.3 0 0083 775.4a70.8 70.8 0 0019.8-39.7c1.8-12-1-23-8.7-32.4a69.6 69.6 0 00-38-22.4 121 121 0 00-26-4.1c-8.5-.3-17-.5-25.6-.4-3.8 0-3.9.6-3.6 5.6zm303.8-351a74.7 74.7 0 01-.9-7.8 78.5 78.5 0 00-6-30c-2.9-7.2-8.4-12.4-15.9-13.4a46.3 46.3 0 00-23.8 2.4l-35.6 14.5c-9.4 3.7-18.8 7.5-28.2 11-6 2.2-12.3 3.8-18.4 5.8a66.5 66.5 0 01-25.2 3 5.1 5.1 0 01-3.3-1.4 18.8 18.8 0 01-3.8-6c-1.8-5.9-3.2-11.8-4.5-17.8-2.2-10-3.8-20.1-6.3-30a81.7 81.7 0 00-13.9-28.9 55.4 55.4 0 00-24-20.2c-11-4.3-22-4-33-.5-10.4 3.3-20 8.9-29.4 14.1-10.2 5.6-19.8 12-31 15.2-.3.1-.5.4-1 1l.4 4.3a7.2 7.2 0 002.3.3c4.3-1.4 9-2.4 13-4.5 10.1-5.1 20-10.8 30-16.2a82 82 0 0125.3-10c10.5-1.8 20.3-.1 28.7 6.5a77.4 77.4 0 0125.3 36.7c4 11.6 6 23.7 8 35.7 1.4 8.4 3 16.7 8.3 23.8a9.3 9.3 0 007.6 4.2c12.2.8 24-1.4 35.5-5.4a629.7 629.7 0 0061.3-23.8 101.8 101.8 0 0126-8.2c11.2-1.7 18.4 4.3 21 12.5a88.4 88.4 0 014.7 27 32.5 32.5 0 00.7 7.6 6.7 6.7 0 002.8 3.6 12.3 12.3 0 004.5 1.4c4.7.8 9.5 1.8 14.2 2.4 12 1.3 24 3.1 36 3.7 12.3.5 24.7-.4 37-.5 4.5 0 9-.6 13.8.6a184.1 184.1 0 01-8.8 49.4l-13.6-3.3c-14-3.7-28.5-2.8-42.7-3.5-9.1-.4-18.3.4-27.5.6l-69 .9c-6 0-12.2-.5-18.3-.6l-61.3-1q-13-.3-26-1.1L99 382.2 80.2 381c-10.2-.8-20.4-1.8-30.7-2.5-8.6-.6-17.3-.8-26-1.2-6.4-.2-12.8-.6-19.2-.7-3.8 0-4 .7-2.5 5l2.7.2c5.2.1 10.4 0 15.5.3l25.4 1.6 16.4 1 49.9 3.9c11.7.8 23.4 1.4 35.1 2 13 .7 26 1.5 39 1.8 16.6.3 33.2.4 49.8.3 24.8-.2 49.5-.7 74.3-1h45.4a128.5 128.5 0 0132.7 4.7c4.7 1.2 9.6 2.4 14.7 1.9 5.5-19.5 10-38.8 9-59.5a35.5 35.5 0 00-5.8-1l-19.7.7a343.5 343.5 0 01-63.4-3.9c-6-1-12-2.3-18-3.5zM169.8 1348a11.7 11.7 0 012.6.7c8.9 6 18 11.7 26.5 18.2 9.6 7.3 18.7 15.2 27.8 23 14.1 12 28.2 24 42 36.2 10.4 9.1 20.3 18.8 30.4 28.3 4.5 4.3 8.9 8.8 13.5 13a230.7 230.7 0 0127 29.5c1.5 2 3.6 3.7 4.6 6 1.3 3.2 1.9 6.7 3 10 .2 1 1 2.3 1.7 2.4 1.6.3 2-1.2 2-2.6.2-3.7-.2-7.5-2-10.7a113.6 113.6 0 00-8.8-13.3 207.4 207.4 0 00-24.8-26.8c-11.6-10.2-22.5-21.1-33.8-31.6-7-6.5-13.9-13-21-19.2q-16.4-14.2-33-28c-10.9-9-21.8-18-33-26.6-10.7-8.3-22.6-14.7-34.4-21.1a13.2 13.2 0 00-3.5-1.5c-2.2-.5-3.6 1-3 3a12.9 12.9 0 002.4 4.2l23 29.1c5.2 6.9 10.7 13.7 15.4 21 7.6 11.5 14.6 23.4 21.8 35.1 2.6 4.3 5 8.8 7.4 13.2a4 4 0 01-3-.6c-5.8-3.8-11.6-7.6-17.3-11.6a258.2 258.2 0 00-52.2-28.6 28.4 28.4 0 00-8.8-1.9c-2.5-.1-3.6 1.5-2.5 3.9a45.8 45.8 0 005.2 8.5c10.5 13.8 21.2 27.4 31.8 41.1a23.8 23.8 0 011.5 2.9 36 36 0 01-3.5-1.4c-5-2.9-10-6-15-8.5-8.2-4.2-16.5-8.2-24.8-11.9-6.5-2.8-13-5.3-19.7-7.6a78.8 78.8 0 00-12.7-2.8c-3.2-.5-4 .4-4.2 3.7a12.6 12.6 0 002.4 8.6 91.6 91.6 0 0012.3 14.1c9.6 9 18.8 18.5 28.1 27.8 2 2 3.6 4 5.8 6.6l-5.4.3h-15.5c-3 0-3.5.7-3.5 3.8a8.8 8.8 0 00.3 2.9c1.1 3 2.4 6 3.4 9 1.4 4 3.6 7.7 4 12.3a51 51 0 00-5.8-2c-3.1-.6-4.5.6-4.9 3.7a13 13 0 002.5 9.1 38.8 38.8 0 017.7 17.7 16.5 16.5 0 00-1.2-16c-1.4-2.3-2.3-5-3.8-8.2 3.3 1 5.6 1.9 7.9 2.5 4 1 5.6-.5 4.6-4.4a96.5 96.5 0 00-3.1-9.6l-5.9-15.5H151.1c3.6 0 4.8-2.2 3.4-5.4a10.6 10.6 0 00-1.9-2.9c-3-3.3-6-6.6-9.3-9.7l-20-19.5-9.6-9.6a61 61 0 01-10-13.5l6.9 1.4c10.6 2.7 20.4 7.5 30.3 12 16.1 7.4 31.3 16.4 46.3 25.7 2 1.2 3.7 1.8 5.8 1.2 2-2.3 1-4.1-.5-6l-32-41.7-11.6-14.4c1 0 1.4-.3 1.7-.1 11.9 5.2 23.7 10.4 34.6 17.7l36.2 24a13.4 13.4 0 003.3 2c2.3.6 4.5 3.2 7.1 1 1.8-1.4 1.7-4-.4-7.8-5.2-9.2-10.2-18.5-15.7-27.6-6.5-10.7-13-21.4-20.2-31.7s-15.2-20.4-22.9-30.5c-.8-1-1.5-2.2-2.7-4zM410.5 1126a16.9 16.9 0 011.8-2.1l14.1-11a317 317 0 0054.1-48.5c2.7-3.1 5.6-6.3 3.8-11-3.9-2-7.5-.8-10.8.7-9.9 4.3-19.9 8.5-29.2 13.8-16.6 9.4-30.5 22.4-44.6 35-1.6 1.4-3.3 3.2-1.4 6.2 1.6-.7 3.4-1.1 4.7-2.1l13-10.7c8.9-7.1 17.5-14.6 27-21 8.3-5.4 17.5-9.5 26.3-14 2.4-1.2 5-1.6 8-2.6-.4 1-.4 1.5-.7 1.8-8.1 8.3-15.7 17.1-24.6 24.5-15.2 12.8-31.2 24.7-47 37-2.4 1.9-4.8 3.7-7.4 5.4-1.3.9-2.4 2-1.7 3.5.5.8 2 1.4 3 1.5a27.2 27.2 0 006.3-.2q17.4-2.5 34.7-5.3c8-1.3 16.1-2.8 24.2-4a44.4 44.4 0 016.7 0l.2 1.1c-8 3.2-16 6.7-24 9.5-14.3 4.9-28.6 9.5-42.4 15.6l-11 5a3.4 3.4 0 00-2 4c.3 1.8 1.8 2 3.2 2.2l17.7 2.2c4 .6 7.8 1.4 12.4 2.3a17.5 17.5 0 01-1.8 1.4 131.5 131.5 0 00-25.2 17.7c-1 .9-2.2 1.4-3 2.4a3.3 3.3 0 00-.4 2.9 3 3 0 002.7 1.2 16.3 16.3 0 004.5-2.5c5.9-4.3 11.7-8.9 17.7-13.1 3-2.2 6.3-3.8 9.5-5.8 2.7-1.6 4.3-3.8 2.8-7.6-8.7-3.6-18.3-3.9-27.7-5 .2-.8.3-1.2.5-1.3 6.5-2.7 13-5.5 19.6-8 14.6-5.3 29.3-10.3 43.8-15.8 4.8-1.7 9.2-4.4 13.8-6.7 2-1 3.3-2.7 2.6-5.1-.6-2.2-2.6-2.1-4.4-2-7.2.3-14.5.1-21.6 1-14 2-28 4.5-41.8 6.7zM262.6 838.6c-3.1-.4-6.1.1-6.8-4-.1-.9-1.8-1.8-3-2.2-6.6-2.2-12.2 1.5-13 8.5 0 .5.2 1 0 1.4-.4 1.1-.8 2.5-1.6 3.2-4.6 3.7-5 5-3.3 10.6.4 1.4.2 3 .3 4.5.2 1.3 0 3.3.8 3.8a6.2 6.2 0 004.4.7c1-.2 1.9-1.5 3-2.2 2-1.5 4-3.4 6.3-4.1 6.4-2 13-3.6 19.4-5.2a165 165 0 0152-3.7l2.4.3a54.2 54.2 0 0124.4 10.5c1.7 1.3 3.4 1.6 4.9.5 1.6-1.3 1.5-3.2.1-4.7-1.5-1.7-1.2-3.5-.4-5.4l2.4-5.2c1.3-2.9.5-5-2.6-6-2.7-.7-5.5-1.2-8.4-1.8.3-.6.5-1.2.9-1.7 5.3-8.8 2-9-4.3-11-4.9-1.5-9.7-2.4-14 1.6a12 12 0 00-10.4-1.4c-3.7 1-7.6 1.5-11.1 2.9s-8 .4-10.5 4.2c-1.5-4.6-2.4-5.5-6.3-5.4-2.8 0-6.3-.2-8.3 1.3s-2.7 5-3.7 7.2a104.6 104.6 0 00-10.2-2.9c-2.7-.5-3.6.7-3.7 3.6l.3 2.1zM622 959.8c2.2.1 3.8.4 5.3.3 15.7-.5 31.1 1.7 46.6 3.2 2 .2 4 1.5 6 2a10.8 10.8 0 004.1.7 3 3 0 002.8-3.3c0-1.8-1-2.6-2.6-2.9-2.3-.4-4.4-1-6.7-1.3l-28.7-2.9a113.9 113.9 0 00-11.5-.7c-5.3 0-10.6.2-15.9.8-3.3.3-6.5 1.4-9.8 2a12.6 12.6 0 01-3.7.7l-19.6-2-34.4-3.5-36.4-3.2c-12.2-1-24.3-2.1-36.5-2.8-14.2-.8-28.5-1.3-42.8-1.8-7.9-.2-15.8-.1-23.7-.2-1.2 0-3-.1-3.4-.8-1.4-3-3.8-2.3-5.8-1.8a87.6 87.6 0 01-21 2 85.2 85.2 0 00-11 1c-1.9.2-3 1.4-2.8 3.3s1.3 2.6 3.4 2.2a80.4 80.4 0 0110.5-1.3c7.3-.3 14.6-.6 22-.7 4.3 0 8.6.5 13 .7 11.7.3 23.4.5 35.1 1 11.4.5 22.8 1 34.1 1.9 16.8 1.2 33.6 2.7 50.4 4.1l13.9 1c12.8 1.2 25.5 2.6 38.3 3.7 8.5.8 17.1 1.2 25.7 1.8 2.6.2 4.5-.4 5.1-3.2zM344.3 1149l-.9-.3c-.2-2.7-.7-5.4-.8-8.1a84.2 84.2 0 00-5.4-25.4 54.5 54.5 0 00-5.8-11c-2.4-3.6-5.7-3.2-7.1 1a27.5 27.5 0 00-1.5 9c.2 14.4-1 29 1.1 43.3.7 4.4.6 8.8.9 14.3-1.8-1.4-2.6-2-3.4-2.8l-7.6-6.6a6.9 6.9 0 00-7.4-1.3c-1 9.7 6 17.3 5.9 26.8 3-2 3.3-2 3.1-4.3-.3-4.4-1-8.7-1.7-13.7a59.4 59.4 0 005.4 5.2 19.5 19.5 0 006.3 3.4c2.9.8 4.2-.5 4.2-3.4 0-5.5-.2-11-.6-16.4-.2-4.8-1.1-9.6-1.2-14.4-.2-9.8-.1-19.7 0-29.5a20.2 20.2 0 01.6-3.4c9.2 15.5 9.5 32.8 10.5 49.6 3.5 1 5.4.2 6.8-2.6 5.4-10.4 11-20.7 16.5-31 2.4-4.6 4.5-9.3 7-13.8a128.4 128.4 0 0116.6-24.1 12.2 12.2 0 017.2-4.4c-.4 3.1-.5 5.9-1 8.5-1.5 6.7-3.2 13.4-4.6 20.1a24.7 24.7 0 00-.3 4c3.2.5 4-1 4.5-3 1.2-4.7 2.4-9.4 4-14a47.5 47.5 0 002.1-17.6c-.2-3.4-1.8-4.7-5.3-4-3.9.8-7 3-9.7 5.8-7.5 7.5-13 16.4-18 25.5-6.6 12.2-12.8 24.6-19.2 36.8a21.9 21.9 0 01-1.2 1.8zM119 1093.5h1.2c3.4 11 3.7 22.2 3.1 33.8-2-.3-3.3-2.9-5.5-.5.5 3.6 3.9 5.5 5.9 8.2.4.6 2.2.2 3.8.2 0-9.1.4-17.8-.1-26.5a61 61 0 00-4.7-21.5c-1.5-3.5-2.4-4-6.4-2.7-1 5.3-1.8 10.7-3 16s-.6 10.7-2.4 16.3l-2.4-1.7c-5.2-4.2-7.8-10.1-10.7-15.9-2.5-5.3-5-10.8-8-15.8-1.8-2.8-4.5-5.1-7-7.3-.8-.7-2.5-.4-3.9-.6a29 29 0 001.3 15.3c-6.7-3.1-12.7-6.3-19-8.7-7.7-3.1-15.7-5.6-22.4-10.8a2.8 2.8 0 00-2.5-.3c-.7.6-1.5 2-1.2 2.8 1.8 5 3.2 10.2 6 14.6 4 6.3 9.1 12 13.8 17.9 2.4 3 5.4 5.7 7.3 10.5l-5.9-3.1a39.5 39.5 0 00-4.7-2.4c-1.4-.6-3.5-1.5-4.3.3a6 6 0 000 4.9 31.4 31.4 0 005.4 6 52.3 52.3 0 004.6 3.5l-5.1 4.1a29.4 29.4 0 009-1.7c1.8-.7 2.2-3.3.8-4.8a22.6 22.6 0 00-2.6-2.2c4.6 1 8.5 4.6 14.2 2.7-.4-1.4-.5-2.9-1.3-3.9-4.8-6-9.9-11.8-14.7-17.8-5.7-7-12.1-13.3-16.3-21.4a25.3 25.3 0 01-1.1-3.3c5 2.2 9.2 4.5 13.8 5.9a112.3 112.3 0 0126.6 12.2 11.6 11.6 0 002.9 1.6 3.2 3.2 0 002.6-.5 3.5 3.5 0 00.5-2.6 10.8 10.8 0 00-1-2.2l-3.6-10 1-.5a103.8 103.8 0 0110.2 17.8c1.4 3.2 2.6 6.6 4.5 9.5a80 80 0 008 10c2 2.2 5 2.5 7.7 1.6 2.3-.9 2.1-3.4 2.5-5.4l.2-2.4zm113.2-106a14.9 14.9 0 00-2.9-.6l-34.7 1a18.8 18.8 0 00-4.7.6c-1.1.4-2.6 1-3 1.9-3 6.8-5.8 13.6-8.4 20.5-1.2 3.2 0 5.1 3.4 5.3a173.1 173.1 0 0125.3 2.9c11.7 2.3 23.7 3.9 35.5 5.8 4.3.7 8.5 1.6 12.8 1.9 4.7.3 5.6-.7 6.5-5.3a20.8 20.8 0 014.7-10.3 14.3 14.3 0 002-3.3c2-4 .5-6.6-4-6.9H221.2c3.8-4.9 11.8-5.4 11-13.5zm151-144.5l-3.3-7.9a55.4 55.4 0 00-2.2-5.3c-1.6-3-4.1-3.6-6-1.1-2.6 3.3-5.1 6.9-5.1 11.5 0 7.8 2.4 15.2 4.4 22.6a162.7 162.7 0 005.4 15.3c1.7 4.5 4.7 7.2 9.9 6.6a42.3 42.3 0 016.7 0 17.3 17.3 0 0011.7-3.5c2.5-1.9 4.6-4 7-6 6-5 7.6-11.6 5.9-18.9-2.8-3-6.3-2.1-9.2-2.3a54 54 0 01-5.8-30.1c-2.9-2.2-4.8-1.5-6.8.5-5.4 5.2-9 11.6-12.6 18.6zM246 937.5l4.5.6 33.8 1a107.2 107.2 0 0111.3 1.5c5.8 1 11.5 2.6 17.4 1 .1-3.2.1-3.2-2.3-3.4-10.2-1-20-4.5-30.4-4.2s-20.8-.9-31.3-1.3c-2.9-.1-3.3.6-3 4.8zm236.4 51c.8 4-1 6.8-1.7 9.8-.7 2.8-1.5 5.6-2 8.4a3.1 3.1 0 001.3 2.7c1.5.6 2.3-.6 2.7-2 1.2-4.2 2.6-8.5 3.6-12.8a16.9 16.9 0 00-.2-9.5c-10.2-1.5-15.3 6-21.6 11.8l.9-5.9c0-.6-.5-1.8-1-1.9a3.5 3.5 0 00-2.5.6 4 4 0 00-1.5 2.3 60.4 60.4 0 00-.8 8.6 3.8 3.8 0 001.6 3 4 4 0 003.4-.8c2.4-2 4.5-4.5 6.8-6.7a31.2 31.2 0 0111-7.5z" class="cls-1"/>
      <path d="M1200 1376.2v91c-6.3-4.1-10.7-10.1-16-15.2a177.8 177.8 0 01-14.2-15.1 223.3 223.3 0 00-26.2-27.1 111 111 0 00-49-24.6c-6-1.4-12.3-2.4-18.3-3.9a230.6 230.6 0 00-30.8-5l-22-2.2c-7.2-.6-14.4-1.3-21.6-1.7-18.7-1-37.2 1.1-55.9 2a26.3 26.3 0 00-12.7 4 140.6 140.6 0 00-22.7 17.9c-5.2 4.9-10.9 9.3-17.1 14.5-.5-4.2-.9-7.4-1.1-10.5-.3-4.3-.2-8.7-.8-13-1.2-9.1-3-18-9-25.4a30 30 0 00-19-11.3 153.3 153.3 0 00-21.7-1.4c-11 0-22.2.5-33.3 1a178.9 178.9 0 00-18.1 2 236 236 0 00-17.5 3.5 140.6 140.6 0 00-27.7 9.5c-14.6 6.8-27.5 16.4-41 24.9l-6.5 4c-9.9 6-19.8 12-29.6 18.2-5.7 3.6-11.1 7.6-17 11-12.7 7.6-25.8 14.8-38.6 22.5-9.3 5.7-18.2 12-27.2 18.1a361.1 361.1 0 00-32.3 24.3c-8.5 7.3-17 14.7-26.9 20.3l-5.7 3a20.6 20.6 0 01.2-2.8 135.3 135.3 0 0117.8-37.1c6-8.7 12.5-17 18.3-25.9 8.1-12.1 17.8-22.8 27.9-33.3 11.8-12.3 24-24.2 35.8-36.5 9.3-9.8 18.3-20 27.3-30a59.7 59.7 0 004.7-5.5c4.6-6.5 9.2-13.1 13.6-19.8a87.1 87.1 0 005.8-10 4.7 4.7 0 00-.5-4 3.5 3.5 0 00-3.4-.6c-3.8 2.6-8.3 3.3-12.4 5-10.9 4.2-21.7 8.7-32.5 13.2l-22 9.3c-9 3.7-18 7.6-27.3 10.9-9.5 3.3-19.3 6-28.8 9.2a544.2 544.2 0 01-46.7 13.7c-8.8 2.2-17.4 5.3-26 8.1-3 1-5.8 2.5-8.7 3.7a58 58 0 017.2-7.6c11.8-11.1 25-20.2 38.6-28.8a381 381 0 0138-20.5c21-10.2 42-20.9 63.6-29.8 14-5.7 27.6-12.1 42.2-15.9 11-2.8 22-5 33.3-5h37.7c2.9 0 5.8.2 8.6.5 5.6.4 11.2 1.3 16.8 1.4 12.2.2 24.5 0 36.7 0a26.4 26.4 0 005.3-.6c7.7-1.6 15-4.4 22.3-7.2a62 62 0 0032.8-27.6c2-3.6 1.3-5.7-2.6-6.8-4.4-1.2-8.7-2.3-13-3.6-4.5-1.2-9-2.7-13.4-3.8a253.1 253.1 0 01-37.5-12.2c-4.1-1.7-8.5-3.2-12.2-6.5a11 11 0 012.1-1c7.5-1.6 15-3.3 22.6-4.6 9.4-1.6 19-3.1 28.5-4 7.1-.8 14-2.2 20.4-5.4 19.7-10.3 35.2-24.6 42.3-46.4.3-.8.8-1.4 1-2.2 1.6-4.9 3.9-9.7 4.4-14.7 1-11 1.1-22.2 1.4-33.2.2-7.3.3-14.6 0-21.8a46 46 0 019.4-27.2l5-7.6c2.7-4.2 3.7-9.7 8.7-13.2h4.5c.6-4.6-.5-6.2-4.8-6.3-5.3-.2-10.6 0-16 .2a99.4 99.4 0 00-11 1.3c-5.6 1-11.1 2.7-16.8 3-5.2.4-10 2.2-14.8 3.7-12.4 4-24.4 9-37 12.5a371.7 371.7 0 00-38.5 13.2c-17.5 7.2-34.6 15.4-51.9 23-6.5 3-13.2 5.3-19.9 8l-1-1.4a5.2 5.2 0 001.8-.5c8-6.6 16-13.1 23.6-20a133 133 0 0148.4-27l28.4-9c16-5.4 31.7-11.3 47.3-17.8 4.3-1.8 8.4-3.8 11.2-7.8a15.7 15.7 0 014-4c6-4 12-8.2 18.4-11.6a184.4 184.4 0 0029.7-20.5l34.6-29.3c7.7-6.4 15.3-12.9 21.3-21 3-3.8 4.8-8.4 7-12.8a6.7 6.7 0 00.3-2.9v-7.7a29 29 0 00-2.8-14c-3.6-7.2-6.8-14.6-10.5-21.7-7-13.6-14.5-26.9-21.5-40.5-4.5-8.5-9.6-16.8-11.4-26.5-1.3-6.9-1.6-14 2.3-20.1 4.8-7.8 10.2-15.1 15.3-22.5l44 8a59.3 59.3 0 01-.5 7.6 92.7 92.7 0 00-1.6 21v4.9a76 76 0 008.1 35.3 30 30 0 0019.6 16.3c8 2.4 16.1 4.5 24.1 6.8 13.7 4.1 27.5 7.6 41.7 9.4 9.7 1.2 19.5 2.3 29.1 3.7 11.1 1.6 21.7 4.1 29.2 13.8 3.2 4.1 5.5 8.3 5.8 13.4.5 7.9.7 15.8 1 23.7a12.1 12.1 0 01-.3 4.3c-2.3 6.6-4.7 13.3-7.3 19.8-1.5 4-3.7 7.6-5.5 11.3-3 6.4-6 12.8-9.2 19.2a23.4 23.4 0 01-2.4 3.4 36 36 0 011.5-9.6 126.6 126.6 0 005-39.6c0-2.4-.6-4.4-2.7-5.9-3.1-2.1-6.2-4.5-9.5-6.4-8.6-4.8-17.6-9-27.5-9.5-10.6-.5-21.3-.2-31.9-.2a8.3 8.3 0 00-2.4.4 99 99 0 00-26 13.3c-7.1 4.7-13.6 10.4-20 16a36.3 36.3 0 00-13.4 23.3c-.7 8.1-.9 16.4 1.2 24.5a162 162 0 015.3 32.3c.5 9.6.5 19.2.7 28.9a35.1 35.1 0 01-.4 3.8c-1.9-.6-3.4-1-4.8-1.6-4.1-1.5-6.2 0-6 4.3a11.5 11.5 0 001.1 4.6l9.8 18.7c6.7 12.6 15.3 23.8 23.8 35.1 10.8 14.5 23.6 27.2 36.3 40 8 8 15.8 16 21 26.3a82.5 82.5 0 0111 43.3c-.5 6.2-1 12.5-5.4 17.7a115.5 115.5 0 00-8.1 10.6 61.7 61.7 0 00-4.5 8.9c-2 4.2-1.2 8.8-1.4 13.3a12 12 0 002.9 8.5c3.1 3.8 6.2 7.7 9.6 11.4 4 4.5 8.3 8.8 12.6 13.1s9.5 8.5 13.3 13.3c6.7 8.4 12.8 17.3 18.9 26.1a74 74 0 017.7 13.1 26.9 26.9 0 009.3 11.3c7.4 5.5 14.5 11.3 21.8 17 1 .8 2.3 1.9 3.2 1.6 1-.2 1.7-1.8 2.8-3zm-216-136c1-5.8 2.6-11.6 3.1-17.4a162.3 162.3 0 00.3-18.4 13.4 13.4 0 00-3.3-8.3A90 90 0 00968 1181a35.4 35.4 0 01-14.7-28.4c-.2-5-1.1-9.9-1.5-14.8-.2-2.1-1.3-3-3.1-2.9a2.8 2.8 0 00-2.9 3.2l.3 4.3c.4 4.3 1 8.6 1.2 13a39.5 39.5 0 0015.7 30c5.7 4.5 11.3 9 15.9 14.8a11.4 11.4 0 012.5 6c.7 10.6.2 21.3-3.8 31.3-3.4 8.5-7.5 16.7-11.2 25-1 2.2-2.4 4.3-3 6.5a5.9 5.9 0 001.2 4.8c1.5 1.5 3.7 1 5-.8 4.5-5.9 9-11.7 13.2-17.7 2.5-3.6 4.3-7.5 6.5-11.3 4.8-8.6 10-17.1 14.4-26a65.6 65.6 0 006.5-18 89.2 89.2 0 00-5.1-52.4 110 110 0 00-21.5-31.6 6 6 0 00-3.7-1.6c-.7 0-2.2 1.6-2 2a23 23 0 003.1 6.3c1.4 1.9 3.7 3 5.2 4.7a91 91 0 0115.7 28.5 83 83 0 013.6 33.4 69.1 69.1 0 01-3 15c-3.8 12.7-11.1 23.7-17.5 35.2-.2.3-.7.5-1 .6zM1200 281.4v459.4l-8.7 3.9c-8.9 3.8-17.7 7.5-26.5 11.4-4.5 2-8.9 4.3-14 3.2a18.1 18.1 0 00-3.5 0c-10.9-.2-21.8-.3-32.8-.7q-19.7-.8-39.4-2c-9-.6-18-1.2-26.9-2.3-16-2-32.1-4.2-48.1-6.7-13.2-2-26.3-4.5-39.4-7-1.6-.3-3.9 0-4.4-2.8-.4-1.7-2.1-1.7-3.5-.6l-2 1.7-3-.8c-16.7-3.5-33.4-6.4-50-10.5-17.4-4.2-34.6-9.3-51.8-14.4-10.5-3-21-6.5-31-10.5a312.3 312.3 0 01-36-16 140.6 140.6 0 01-15.3-10c-.5-14.7-.7-28.7-1.6-42.6-.7-12.7-2-25.3-3.2-38l-5.7-57.9c-1.5-14.8-3.2-29.6-4.4-44.5A456.8 456.8 0 00741 442l-2.6-12.7 14.9-3.4-1.9-2.2c2-1.3 3.8-2.5 5.6-3.5 11.7-6 23.6-11.7 35.2-17.9 4.4-2.3 9.2-2.9 13.6-4.6 8.8-3.5 17.6-7.1 26.1-11.1 13.7-6.4 27.1-13.3 40.8-19.8 3.6-1.7 7.5-2.7 11.3-4 3-1 6.5-.6 8.2-4.2.3-.6 1.3-.8 2-1.2 6-2.7 12.6-4.4 17.3-9.6.3-.4 1.2-.3 1.8-.6 8-3 15.9-5.9 23.8-9.1 7-2.9 13.6-6.5 20.6-9.1 23.9-9 47.8-17.6 71.7-26.7a3858 3858 0 0061.3-23.9c10-4 19.7-8.4 29.6-12.6 1.4-.6 3-1 4.4-1.5l-.2-.2c-1.2 1.7-1 2.8.8 4a8.4 8.4 0 013.1 3.3 30.6 30.6 0 012.7 8.2c1.1 8.6 2 17.2 2.8 25.8.7 7.4 1 14.8 1.5 22.1l2.8 47.7 1 21.2 2.5 36 1.4 27.5c.8 14.4 1.7 28.8 2.4 43.3.5 9.6.7 19.2 1.1 28.9.6 15.4 1.6 30.8 1.8 46.2.4 31.6.3 63.2.4 94.7V713c0 3.6.5 7 .5 10.6 0 4.2-.3 8.4-.5 12.5l-1 13.3c1.5.4 2.4-.7 2.8-2.2a42.9 42.9 0 001.8-8.8c.3-8.7.4-17.4.4-26l-.4-100c0-18-.2-35.8-.6-53.6-.4-13.7-1.3-27.3-1.9-41l-1-29.3-.3-11.1-2.6-39.9-1.3-25-2.5-42.8c-.5-9.4-.8-19-1.5-28.4-.6-10.2-1.5-20.4-2.4-30.7-.7-8.1-1.3-16.3-2.4-24.4-.7-5.3-2.1-10.5-3.4-16.3 22.7 6.1 45 9.1 67.5 11.5zM762.3 452.5c.7 8.7 1.2 17 2.1 25.3 1.2 11.2 2.8 22.3 4 33.5 1.3 11.8 2.2 23.6 3.5 35.4 1.8 15.5 3 31 3.3 46.6.1 5.5.4 11 .3 16.4-.1 7 .2 14.3-1.3 21.1-1.2 6-4.6 11.5-7.2 17.2-1.4 3-1.3 4.4 1.6 5.7a44.5 44.5 0 007.7 2.7c3.2.8 6.5 1.3 9.3 3.2 1.2.8 3 1.7 4 1.4 4.6-1.4 8.6 1 12.7 1.6 17.2 2.4 34.3 5.2 51.4 7.7l54.3 7.6c12 1.6 24.2 3 36.2 5.2q30.2 5.6 60.3 12.2c13.4 2.9 26.9 6 40 10.2 17.9 5.7 36 10.8 52.8 19.4a38.5 38.5 0 008.6 2.8c3.2.8 4.7-.6 5-4v-1.9l1-102.9q.3-32.9.3-65.7v-36.3c-.3-31.9 1.2-63.8-2-95.6-1-11.5-2.3-23-3.8-34.4-1.6-12.1-3.5-24.2-5.2-36.3-.7-4.8-.7-9.6-1.8-14.3s.5-10-3.5-13.8c.7-3.6-1.4-3.3-3.6-2.6l-11.4 3.7c-8 2.6-16 5.8-24.2 7.6a98 98 0 00-16.5 4.8c-4.4 1.9-8.8 3.7-13.3 5.4-3.8 1.3-7.8 2-11.5 3.4-11.7 4.9-23.3 10-34.9 15a813.2 813.2 0 00-25.8 11.8c-4 2-9.2 1.4-12 5.6-.4.6-1.4.8-2.2 1.1l-34.2 17.3c-5.2 2.6-10.2 5.4-15.6 7.5-7.3 2.8-14.9 4.9-22.3 7.4-6.6 2.2-13.1 4.4-19.6 6.8-4.2 1.6-8.2 3.5-12.4 5.1-2 .9-4 2-5.7-1-7 6-15 8.8-23.3 11.6-5.4 2-10.9 3.7-16.3 5.7a10 10 0 00-4.2 3 18.3 18.3 0 01-10.4 6.5c-4.4 1.1-8.8 2.7-14.2 4.3z" class="cls-1"/>
      <path d="M1124.7 264.1l-4.4 1.5c-9.8 4.2-19.6 8.7-29.6 12.6-20.4 8.1-40.8 16.2-61.3 24-23.8 9-47.8 17.6-71.6 26.6-7 2.6-13.8 6.2-20.7 9.1-7.9 3.2-15.9 6.1-23.8 9.1-.6.3-1.5.2-1.8.6-4.7 5.2-11.3 6.9-17.3 9.6-.7.4-1.8.6-2 1.2-1.7 3.6-5.3 3.3-8.2 4.3-3.8 1.2-7.7 2.2-11.3 4C859 373 845.6 380 832 386.3c-8.6 4-17.4 7.6-26.2 11.1-4.4 1.8-9.2 2.3-13.5 4.6-11.6 6.2-23.5 12-35.2 18-1.9.9-3.5 2.1-5.6 3.4l1.9 2.2-15 3.4 2.6 12.7c3.4 17.2 6.4 34.4 7.8 51.8 1.3 14.9 3 29.7 4.4 44.6 2 19.3 4 38.6 5.8 57.9 1.2 12.6 2.5 25.2 3.2 37.9.8 14 1 28 1.5 42.7a140.6 140.6 0 0015.3 10 297.8 297.8 0 0036 16 375 375 0 0031 10.4c17.3 5.1 34.5 10.2 52 14.4 16.4 4 33.2 7 49.8 10.5l3.1.8c.6-.5 1.2-1.2 2-1.7 1.4-1.1 3.1-1 3.4.6.6 2.9 2.9 2.5 4.5 2.8 13.1 2.5 26.2 5 39.3 7 16 2.5 32.1 4.7 48.2 6.7 9 1.1 17.9 1.8 26.9 2.3q19.7 1.2 39.4 2c11 .4 21.9.5 32.8.7a18.1 18.1 0 013.4 0c5.2 1.1 9.6-1.1 14.1-3.1 8.7-4 17.6-7.7 26.4-11.5l8.8-3.9v5.8c-1.7 1-3.4 1.8-5.2 2.6l-36.2 15.7a88.8 88.8 0 01-11.7 3.9c-1.8.5-4 .3-4.8-2.5l4.2-3.3c-48.8 1-96.3-3.4-144-10.5a187 187 0 00.3 48.2l5.6-2.3.4.8-3.2 3.4c8.1 2.2 15.5 4.9 23.2 6 11.5 1.9 23.2 2.6 34.9 3.9 7.1.7 14.3 1.5 21.4 2.7 14.1 2.4 26.8 8.7 39.3 15.2 5.5 3 10.7 6.5 16 10 4.8 3 9.7 6.1 14.3 9.6 9.7 7.4 19.6 14.3 31.1 18.7 5 1.9 9.6 5 14.4 7.5v6.9c-5.2-2.8-10.4-5.6-15.7-8.2s-10.7-4.3-15.5-7.4c-10.3-6.7-20.2-14.1-30.3-21.1-6-4-12-8-18.2-11.7-2.1-1.3-4.8-1.8-7-3a93.8 93.8 0 00-23.4-9.7c-14-4-28.5-4.7-42.8-5.7-13.2-1-26-3-38.5-7.5a15.4 15.4 0 00-3.3-.3 33.4 33.4 0 001.2 4c1 2.1 2.2 4.2 3.1 6.4 2.6 6.3 7.4 10 13.6 12.2 1.6.6 3.3 1.2 5 1.6 9.5 2.7 19 5.5 28.7 8 7.7 2 15.5 4.3 23.3 5.6 14.1 2.3 28.3 3.9 42.4 6 11.4 1.6 21.7 5 29.3 14.7 3.6 4.6 6.3 9.2 6.7 15 .4 7.7.4 15.4 1 23 .8 9.6-2.5 18.2-6.1 26.5-4.9 11-10.5 21.7-15.7 32.6l-1.4 3.1a57.3 57.3 0 016.2 2.1l13.8 6.9c5.8 3 11.5 6.3 17.2 9.5a70 70 0 0024.1 7.2v-5.2c-.3-9-.8-18-.9-27-.1-16.6-.3-33.2.1-49.8.1-5.4 2-10.8 3-16.3V1003c-.5-.6-1.4-1-1.5-1.7-.3-2.5-2-3-4-3.3a78.2 78.2 0 01-28.7-10.4c-6.4-4-13.1-7.4-19.8-10.9-4.1-2.1-8.3-4-11.4-4-5.4 2.2-5.1 9.4-12 7.6v-11.4l-3.5-2-7-3.1c-7-3.4-14-7-21.1-10.3-7.3-3.3-15-5.7-21.4-10.9a8.5 8.5 0 00-1.6-1l-23.4-11.2c-1.8-1-3.7-1.8-5.4-2.9-3.1-1.8-6.1-3.8-9.6-6-2.4 1.9-5.1 3.8-7.6 6-6.8 6.4-12.4 13.6-13.1 23.3-.9 10.7 1.1 21 4.2 30.7 2.1 0 4-.4 5.8 0 6 1.6 12 3.7 18 5.3 8 2 16 4.3 24.2 5.8 7.4 1.4 15 1.9 22.4 2.7 3.5.4 7 .9 10.5 1a83.6 83.6 0 0121 2.6 51.8 51.8 0 008.1 1.2c3.2.3 6.4.3 9.6.9 7.7 1.4 15.4 3 23 4.8 14.6 3.4 29.5 5.6 44.4 7.8v5.8c-1.6-.3-3.1-.8-4.7-1-5.7-.9-11.4-1.5-17-2.5-7.9-1.5-15.7-3.3-23.5-4.9-2.5-.5-5.1-.7-7.6-1.4a96 96 0 00-22.6-4c-4.3-.2-8.6-1.2-12.8-1.8-7-1-14-2-21-2.7-9.2-.9-18.5-1.5-27.8-2.3a2.5 2.5 0 01-.4-.1c-13.4-3.1-27-5.9-39.9-10.8-2.9-1.1-6-2-9.3-3 .7 4.9 1.6 9.3 1.8 13.8.5 11.7.7 23.4 1 35.2a49.1 49.1 0 01-.5 5.2c-.2 2.4-1.7 3.3-4 3.3h-6c1.6 3.6 2.7 6.5 4.3 9.2a385 385 0 0021 32.8 355.2 355.2 0 0029.7 36c7 7.3 14.3 14.3 21.2 21.8a117.3 117.3 0 0110.7 13.5c6 8.8 9.7 18.8 12.7 29 1.8 5.8 3 11.7 2.3 17.9-.2 2 .2 4.1 0 6.2-.4 6.1-.6 12.2-4.3 17.5-2.4 3.4-4.8 6.8-7.4 10a28.8 28.8 0 00-7.4 21.7 9.2 9.2 0 002.2 5.7l14.1 16.3c1.8 2 3.8 4 5.7 5.8 7.3 7.3 15.5 13.8 21.4 22.3 6.6 9.6 13 19.4 19.5 29a10.4 10.4 0 011.8 4c.6 3.9 3.1 6 6 8.3q7.7 5.7 15.3 11.7a33.3 33.3 0 0013.1 6.5c4.2 1 8.3 2.6 12.4 3.9v4.8l-15.3-5.6c-1 1.2-1.7 2.8-2.8 3-.9.3-2.2-.8-3.2-1.6l-21.7-17a26.9 26.9 0 01-9.4-11.2 74 74 0 00-7.7-13.1c-6.1-8.9-12.2-17.7-18.8-26.1-3.9-5-9-8.9-13.3-13.3s-8.6-8.7-12.7-13.2c-3.3-3.7-6.4-7.6-9.6-11.4a12 12 0 01-2.8-8.5c.2-4.4-.6-9 1.3-13.3a61.7 61.7 0 014.5-9 115.5 115.5 0 018.1-10.5c4.4-5.1 5-11.4 5.4-17.7 1-15.5-4.2-29.6-11-43.2-5.2-10.3-13-18.4-21-26.3-12.7-12.8-25.4-25.6-36.3-40-8.5-11.3-17-22.6-23.7-35.1-3.3-6.3-6.7-12.5-9.8-18.7a11.5 11.5 0 01-1.2-4.6c-.2-4.4 2-5.9 6-4.4l4.8 1.6a35.1 35.1 0 00.4-3.8c-.2-9.6-.2-19.3-.7-29a162 162 0 00-5.2-32.2c-2.1-8-2-16.3-1.2-24.5.9-9.5 6.5-17 13.4-23.2 6.3-5.7 12.8-11.4 19.9-16.1a98.8 98.8 0 0126-13.2 8.3 8.3 0 012.4-.4c10.7 0 21.3-.4 32 .2 9.9.5 18.9 4.6 27.4 9.5 3.4 1.9 6.4 4.2 9.6 6.4 2 1.4 2.6 3.5 2.7 5.8a126.6 126.6 0 01-5 39.6 36 36 0 00-1.6 9.6 23.4 23.4 0 002.5-3.4l9.1-19.1c1.9-3.8 4-7.4 5.5-11.3 2.7-6.6 5-13.2 7.3-20a12.1 12.1 0 00.3-4.2c-.3-7.9-.5-15.8-1-23.6-.3-5.1-2.6-9.3-5.8-13.5-7.4-9.6-18-12.2-29.1-13.8-9.7-1.4-19.4-2.5-29.1-3.7a261 261 0 01-41.7-9.3c-8-2.4-16.1-4.5-24.1-6.8a30 30 0 01-19.6-16.4 76 76 0 01-8.1-35.3v-4.8a92.7 92.7 0 011.5-21.1 59.3 59.3 0 00.6-7.5l-44-8c-5.1 7.3-10.6 14.7-15.4 22.4-3.9 6.2-3.5 13.3-2.2 20.1 1.7 9.7 6.9 18 11.3 26.6 7 13.5 14.5 26.9 21.5 40.4 3.8 7.1 7 14.5 10.5 21.7a29 29 0 012.8 14v7.8a6.7 6.7 0 01-.3 2.8c-2.2 4.4-4 9-7 13-6 8-13.6 14.4-21.2 20.8-11.6 9.7-23 19.7-34.7 29.3a184.4 184.4 0 01-29.7 20.5c-6.3 3.4-12.3 7.6-18.3 11.6a15.7 15.7 0 00-4 4c-2.9 4-7 6-11.3 7.9a712.1 712.1 0 01-47.3 17.7c-9.4 3.1-18.9 6-28.3 9a133 133 0 00-48.4 27c-7.7 6.9-15.7 13.4-23.6 20a5.2 5.2 0 01-1.8.6l1 1.3c6.6-2.6 13.3-5 19.9-8 17.3-7.5 34.3-15.8 51.8-23a371.7 371.7 0 0138.6-13.1c12.5-3.6 24.6-8.6 37-12.6 4.8-1.5 9.5-3.3 14.8-3.6 5.6-.4 11.2-2.1 16.8-3a99.4 99.4 0 0111-1.4c5.3-.3 10.6-.4 16-.2 4.2.1 5.3 1.7 4.7 6.4H914c-5 3.5-6 8.9-8.7 13.1l-5 7.6a46.1 46.1 0 00-9.3 27.2c.3 7.3.2 14.5 0 21.8-.3 11-.5 22.2-1.5 33.2-.5 5-2.8 9.8-4.3 14.7l-1 2.2c-7.2 21.9-22.6 36.2-42.4 46.4a55.5 55.5 0 01-20.4 5.3c-9.5 1-19 2.5-28.5 4.1-7.6 1.3-15 3-22.6 4.6a11 11 0 00-2 1c3.6 3.3 8 4.8 12.1 6.5a253.1 253.1 0 0037.5 12.2c4.5 1 9 2.6 13.4 3.9l13 3.5c4 1.1 4.7 3.2 2.7 6.8a62.1 62.1 0 01-32.8 27.6 139 139 0 01-22.4 7.2 26.4 26.4 0 01-5.2.6c-12.3 0-24.5.2-36.8 0-5.6-.1-11.1-1-16.7-1.4l-8.7-.5h-37.7c-11.3 0-22.3 2.2-33.2 5-14.7 3.8-28.3 10.2-42.2 16-21.7 8.8-42.5 19.5-63.6 29.7-13 6.3-26 12.8-38 20.5a247.8 247.8 0 00-38.6 28.8 58 58 0 00-7.3 7.6c2.9-1.2 5.7-2.7 8.7-3.6 8.6-2.9 17.2-6 26-8.2 15.8-3.9 31.4-8.3 46.7-13.6 9.5-3.3 19.3-6 28.9-9.3 9.2-3.3 18.1-7.2 27.2-10.9 7.4-3 14.7-6.3 22-9.3 10.9-4.5 21.7-9 32.5-13.2 4.2-1.7 8.6-2.4 12.4-5a3.5 3.5 0 013.4.7 4.7 4.7 0 01.5 4 87.1 87.1 0 01-5.8 10 950 950 0 01-13.6 19.8 59.7 59.7 0 01-4.6 5.5c-9.1 10-18 20.2-27.4 30-11.8 12.3-24 24.2-35.8 36.5a244.3 244.3 0 00-27.9 33.3c-5.8 8.8-12.4 17.1-18.3 25.9a135.3 135.3 0 00-17.8 37 20.6 20.6 0 00-.2 2.9l5.7-3c9.9-5.6 18.4-13 27-20.3a361.1 361.1 0 0132.2-24.3c9-6.1 18-12.4 27.3-18 12.7-7.9 25.8-15 38.6-22.6 5.8-3.5 11.2-7.5 17-11 9.7-6.2 19.6-12.1 29.5-18.2l6.5-4c13.5-8.6 26.4-18.2 41-25a140.6 140.6 0 0127.7-9.5 236 236 0 0117.5-3.5 178.9 178.9 0 0118.1-1.9c11.1-.5 22.2-1 33.3-1a153.3 153.3 0 0121.6 1.3c7.8 1.1 14.1 5.3 19 11.3 6 7.4 8 16.3 9.1 25.5.6 4.3.5 8.6.8 13l1 10.5c6.3-5.3 12-9.6 17.3-14.6a140.6 140.6 0 0122.7-17.8 26.3 26.3 0 0112.6-4c18.7-.9 37.2-3 55.9-2 7.2.4 14.4 1 21.6 1.7l22 2.1a230.6 230.6 0 0130.8 5.1c6 1.4 12.2 2.4 18.3 3.8a111.5 111.5 0 0149 24.6 223.3 223.3 0 0126.2 27.1 177.8 177.8 0 0014.1 15.1c5.3 5.1 9.7 11.2 16 15.2v6.8c-4.4-3.6-9.2-7-13.3-10.9-9.7-9.2-18.4-19.3-27.1-29.4-13.8-15.9-29.3-30-49.3-37.8-7.8-3.1-16.2-4.9-24.4-7a117.7 117.7 0 00-11.9-2.2c-12.8-1.9-25.6-4-38.5-5.6a340 340 0 00-26.9-2.2 689 689 0 00-35.2-.6c-5.5 0-11 1.2-16.7 1.8-3.5.3-7 .4-10.5.5-5.6.2-10.2 3-14.3 6.3-6.3 5-12.1 10.5-18.3 15.6s-12.2 10-18.6 14.6c-4.1 3-6.8 1.5-7.3-3.6-1-10-1.8-20.1-3-30.1a33.7 33.7 0 00-5.6-15.2 27 27 0 00-21.8-12.2c-11-.6-22.2-1.1-33.3-.9-8 .1-16 1.5-23.9 2.3-5.7.7-11.5 1-17.1 2.2-15.3 3.2-30 8-43.8 15.7-3.5 2-6.8 4.3-10.1 6.5-7.8 5.1-15.5 10.3-23.4 15.3-6.1 3.8-12.5 7.1-18.7 10.9-6.7 4-13.3 8.2-20 12.4-5 3.1-10 6.5-15 9.5-12.4 7.4-25 14.4-37.2 22-11.3 7.2-22 15-33 22.5-13 8.9-24.8 19.3-37 29.2A118.8 118.8 0 01520 1519c-3.3 1.6-6 0-5.8-3.7a44.7 44.7 0 011.6-11.8c3.5-10.7 7.8-21.1 14.3-30.4q16.6-23.9 33.6-47.5c2.7-3.7 6-6.7 9.2-10 4.5-4.7 9-9.5 13.7-14.2 10.6-10.8 21.4-21.4 31.8-32.4 9.2-9.7 18.3-19.5 26.8-29.8 6-7.2 11-15.3 15.8-23.7l-15 5.8-31.1 12.8c-9.8 4-19.5 8.4-29.3 12.2-7 2.8-14.3 4.8-21.4 7.2-8.7 2.9-17.4 5.6-26 8.7-13.3 4.7-27 8-40.8 11.3A123.2 123.2 0 00454 1392a62.8 62.8 0 00-19 21.5 9.3 9.3 0 01-1.7 2.9c-1 .8-2.6 1.8-3.5 1.4s-1.9-2-2-3.2a6.1 6.1 0 01.9-3.7 87 87 0 015.7-9.4 210 210 0 0136.5-38.4 399.4 399.4 0 0133.6-24.9c10.4-6.7 21.5-12.1 32.6-17.7 16.8-8.5 33.8-16.8 51-24.8 11.4-5.4 23.1-10.1 34.8-15 7.5-3 15-6 22.6-8.3 14.1-4.4 28.5-7.4 43.5-7.2q12.8.2 25.6 0a211.6 211.6 0 0128.4 1.6 68.4 68.4 0 007.7.3c9.2 0 18.4-.2 27.5.1a61.8 61.8 0 0024.6-3.9c8.9-3.4 17.5-7 25.3-12.7a36 36 0 0011.1-13.9l-10.9-3.5c-13.4-4-26.8-7.8-40.1-11.9-10.5-3.2-20-8.4-29.5-13.9-1-.6-2.2-2.2-2.1-3.3s1.5-2.5 2.7-2.8c4.7-1.5 9.5-2.9 14.4-4q15.7-3.2 31.6-6a107.2 107.2 0 0113.3-1.7 49 49 0 0024.4-6.8 115.7 115.7 0 0017.5-13.4c5-4.8 9-10.8 13.4-16.3a5.6 5.6 0 00.9-1.7c3.4-10.2 8.3-19.9 9.1-31.2 1.4-18.4.6-36.7 1.1-55a18.7 18.7 0 011.2-6.6c2.9-6.9 5.5-13.9 10.3-20 3.7-4.7 6-10.4 9.3-16.2a17.6 17.6 0 00-3.8 0c-6 1.6-12.4 1.5-18.4 3.3-3.9 1.1-8.2 1.1-12.3 1.6a78.2 78.2 0 00-15.7 4.3l-32.4 10.9c-10.5 3.5-21 6.7-31.4 10.5-9.7 3.6-19.4 7.6-29 11.7-8.7 3.7-17.2 7.8-25.8 11.8a265.7 265.7 0 01-35.7 13.9 16.1 16.1 0 01-6.2.2c-3-.3-3.9-2.4-2-4.7a36 36 0 014.3-3.9l24.9-20.6a165.2 165.2 0 0134.6-24.3 236 236 0 0128.2-11c14.5-4.7 29-9.2 43.4-14.3 10-3.5 19.7-7.8 29.5-11.9a7.8 7.8 0 003-2.4c5.5-7.1 13.3-11.4 20.8-16l12.5-7.3 4.5-3-7.5-.5c-7.4-.3-14.8-.6-22.2-.7a10.1 10.1 0 00-4.5 1.3c-7.7 4-15.1 8.4-23 12-7 3-14.3 5.4-21.6 8-7.7 2.6-15.4 5-23.2 7.4l-27.6 8.2-9 3-29.1 8.2a9.2 9.2 0 01-2.4.2l-34.8-.1a13.6 13.6 0 01-13.3-12.7 95.9 95.9 0 01-.1-18.3c1-8.5 5.7-15.5 10.3-22.5 7.2-11.2 17.7-18.8 28-26.6l15-11.3a8.4 8.4 0 002-2.6l3-5.6c2.8-5.6 5.4-6.5 11.7-3.7 7.4-5.3 15-10.8 23-16.1q12.1-8.3 24.5-16 9.8-6.2 19.9-11.9c7.9-4.5 16-8.7 24-13.1 4.5-2.5 9-5 13.3-7.7a230.3 230.3 0 0128.5-14.9c5.9-2.6 11.4-6 17.2-8.8 9.6-4.8 19.1-9.7 28.9-14.2 2.9-1.4 6.7-.8 9.4-3.8l-2.4-5a48 48 0 01-5.8-25 31.8 31.8 0 016.5-18.2c4.2-5.5 8.1-11 12.5-17l-15.4-3.2c-11.2-2.3-22.3-4.5-33.4-7a777.7 777.7 0 01-78.1-22.7 294.5 294.5 0 01-41-17.7c-6.3-3.3-12.2-7.2-18.2-10.9a7.6 7.6 0 01-4-7c0-10.5-.3-21-1-31.4-.8-12.1-2.2-24.3-3.3-36.4-.7-7.8-1.3-15.7-2.1-23.5l-5-50.8c-1.6-16.2-3-32.5-4.8-48.8a498 498 0 00-9-51.2l-3 1.5c-.9.5-1.6 1.4-2.4 1.7-1.8.4-4 2.5-5.3.4-1.6-2.7 1.8-2.8 3-3.9a68.3 68.3 0 015.9-4.2c.6-6.2 2.3-5.2 5.5-2.6l6.2-4.7c.5-.4.8-1.3 1.3-1.3 7-1.1 12.3-5.9 18.5-8.6s12.5-6 18.6-9.2c2.4-1.3 4-3.3 6-5.3 3.4-3.7 7.7-6.5 11.8-9.6a39.8 39.8 0 015.1-2.7h-4.5c0-.3-.3-.7-.2-.8a18.3 18.3 0 013-2.4c2-1.2 4.4-2 4.7-5 0-.6 1-1.3 1.5-1.7 6-4.3 11.7-9 18.6-12 8-3.3 15.9-6.9 23.8-10.4 1.9-.8 4-1.5 5.5-3 4.6-4.7 10.5-7.2 16-10.4 5.1-3 10-6.3 15.5-9.7-26-24.6-56.1-42.4-85.5-61-6.2 2.7-7.4 10-13.1 13-1.1-4 1.3-8.8 8-15.7-10.8-6.9-21.8-13.2-33.2-19.4L753.5 259l-5 5.2c-.5.6-1.2 1.4-1.9 1.5a4.3 4.3 0 01-3-.4c-.5-.3-.4-2.1.1-2.8 2.7-3.4 5.6-6.7 8.5-9.9l8.8-9.5-56-30.3a13 13 0 01-9 6.1c-3 .7-6.3 1.4-9-1.3a5.1 5.1 0 00-2.6-1.1c-3.2-.6-4.7-2.7-4.7-5.8a93 93 0 01.3-11.6c.6-5 3.7-8 8.6-9.2a14.3 14.3 0 004.1-2c4.5-2.9 9.1-4.7 14.5-3 2.5.8 3.7 2.2 3.9 4.9a48 48 0 01-1.8 18.8l55.7 30 4-3.7 13.8-12.8c1.5-1.3 3-2 5-.9.8 3.9-1.6 6.8-3.6 9.4-2.3 2.9-5.2 5.5-9.2 6.7-1.8.5-3.2 2.4-5 4l34 19.8 4.8-3.2c1.5-1 3-1.9 4.6-2.7s3.7-2.6 5-.5c1.7 2.5-1.3 3-2.7 4-2.1 1.7-4.3 3.3-7.1 5.3 30.5 18.6 60 37.8 86.9 61.1 5.1-2.8 10.3-6 15.8-8.6 6.9-3.2 13.9-6 21-8.5 2.7-1 4.3-2.2 4.6-5.2 1.5-12.6 4.9-24.8 8-37.1 2.1-8.5 5.6-16.4 8.9-24.3l1-3.1-3.6-.3c-10.6.2-21.3 0-31.8 1-7.6.6-15.2 2.3-22.7 4.2-9.1 2.3-18.1 5.2-27.3 7.7-3.7 1-7.5 1.6-11.3 2.2a8.2 8.2 0 01-3.3-.1c-2.5-.7-3.5-2.5-2-4.8a49 49 0 015.8-8.2c14-14.7 27.6-29.7 43-43 6.2-5.3 12.7-10.3 19.7-15.9-1.6-.2-2.7-.4-3.7-.4-3.3 0-6.7-.2-10.1 0a32 32 0 01-17.7-5.1c-6.3-3.5-8.6-9.3-9.6-15.9a8.3 8.3 0 013.4-8.4c8-6 16.2-11.5 25.3-15.8 14.7-7 29.4-14.2 44.2-21 7.8-3.6 15.9-6.9 24-9.8 12.2-4.3 24.6-8.2 37.3-12.5-2-.6-3.9-1.2-5.6-2-5.7-2.2-6.5-5.9-2.2-10.3a107 107 0 0123.7-18 466 466 0 0124.2-12.8 108.8 108.8 0 0112.4-5.2c11.7-4.1 23.3-8.2 35-12 14.8-4.8 30.1-6.3 45.7-5.7 2.2 0 3.5.7 4.3 3a63 63 0 004 8.2c1.5 2.8 3 5.7 6 7 2.1-5 4-9.8 6.3-14.6a52.7 52.7 0 0113.8-17.1 54.2 54.2 0 0118-9.7v5.8a18.4 18.4 0 01-2.8 1.7 48.4 48.4 0 00-23.3 21.4 55.5 55.5 0 00-6.5 19c-.7 3.7-3.5 4.7-6.3 2a63.4 63.4 0 01-8.4-9.2c-2.6-3.6-4.5-7.7-6.6-11.6-15.2-.8-29.6 1.8-43.8 6q-11.3 3.4-22.4 7.5c-7 2.6-14 5.3-20.9 8.5a205.9 205.9 0 00-39.5 22.8c-2.8 2.2-6 4.2-8.2 7.8a12.5 12.5 0 002 .6l19.2 1.8c1.9.2 3.9-.2 5.8.2a4 4 0 012.3 2.4 2.4 2.4 0 01-2.2 3.1c-5.5.5-10.6 2.2-15.8 3.9-9.3 3-18.8 5.2-28.1 8.2-6.6 2.1-13 4.8-19.3 7.3-10.8 4.4-21.7 8.6-32.3 13.5q-19.2 9-37.9 19c-5.9 3-11.2 7.3-16.7 11.2-1 .7-2.2 2.3-2 3 1 3.3 1.8 7.4 4.2 9.4 3.2 2.8 7.7 5.3 11.9 5.7 9 1 18.3 1.3 27.4-.8 4.1-.9 5.6-.6 6.3 1.3 1 3-1.3 4-3 5.3-14 11.2-28.3 21.8-41 34.4-8.1 8-16 16.4-23.8 24.6-2 2-3.7 4.2-6 6.8 2.3 0 3.9.3 5.2 0 9.3-2.4 18.5-5.3 27.8-7.5 8.4-2 17-3.8 25.5-4.4 10.8-.8 21.6-.4 32.4-.5l4.3-.2 13.5-28.4 10.3-21.7c-2.6-2.7-2.3-6.8-1.5-10.7 1.7-8.5 6.3-13.4 15.8-12l3.8.5c7.5.8 12.3 5.7 16.5 11.2a3.4 3.4 0 01.3 2 73.8 73.8 0 010 7.7c-.5 5.6-4.3 9.8-9.3 9.9-7 0-14.2 1.2-20.4-2.9-2.5 2.8-21 41-21.7 44.7l13.5-1c2.7-.1 5.4-.2 8.2-.5q10.5-1.1 21-2.5c8.4-1 16.8-2.2 25.2-3.4 8-1 15.9-2.3 23.9-3.3 6.8-.9 13.7-1.2 20.5-2.2a457.1 457.1 0 0146.4-5.3l41-2 35.6-1.2v3.9a20 20 0 01-3.3.6l-25 1-25.5 1.3c-10.6.5-21.1 1.2-31.7 1.8l-8.6.7-23.4 3.2-26.2 3.5-24.3 3.3c-8 1-16 1.8-23.8 3.2-13.5 2.4-27.1 3.1-40.8 3.6h-5.4a214.8 214.8 0 00-19.5 63.3l13.3 1.5c3.3.5 6.5 1.7 9.9 1.9 8.3.5 15.8 3.3 23.1 7.9 45.1-17.7 91.2-33.4 135.3-53.8 2.4 1.8.5 3.7.5 5.4zM743 1009c10.4-3.2 20-6.1 29.6-9.2l27.7-9.3 2.3-.8c6-1.7 12-3.1 18-5a144.3 144.3 0 0027.8-11.8c10.7-6 21.9-11.2 32.7-17.2 10-5.5 19.9-11.2 29.2-17.6a133.8 133.8 0 0128.9-15.2c5-2 10.1-3.8 14.5-7.3s9.8-4.2 16-3.6l4.7-9c.4-.7.4-1.7 1-2.2 2.7-2.3 2.2-5.4 2.4-8.5a36 36 0 00-4.3-18c-8-16.3-16.4-32.5-24.8-48.6-2.1-4.2-4.8-8.2-7.3-12.3-6 2.6-11.8 5-17.4 7.7-6.5 3-12.9 6.5-19.3 9.7l-20.3 10c-7.4 3.9-14.9 7.5-22.1 11.6-12 6.7-23.6 13.7-35.3 20.7l-14.5 8.5-10.3 6.2c-7.6 4.7-15.3 9.3-22.8 14.3-6 4-11.7 8.5-17.5 12.7l-9.5 6.4c3 6.8 3.3 13.5 3.1 20.4-.1 5 .3 10 0 15a152.2 152.2 0 01-2.3 16.1c-.5 2.5-2 4.8-2.5 7.3-2 9.5-3.7 19.1-7.7 29zm381.1-46.5l2.4-8.7a132.4 132.4 0 005-32.7c.1-4.8-2.3-7.4-6-9.5a108.7 108.7 0 00-18.1-8.7 55.7 55.7 0 00-16.9-3.3c-7-.2-14.1 0-21.2 0a11.4 11.4 0 00-3.8.3 108.6 108.6 0 00-32.2 17.8c1.9 1.5 3.4 3 5.2 3.9 8.9 4.4 17.7 8.8 26.8 12.8a81 81 0 0114.1 8 16.6 16.6 0 003.4 1.8c11.5 4.5 22.8 9.2 33.6 15.2a62.5 62.5 0 007.7 3.1zM722 1012.9c-.2-3.7-.6-6.6-.5-9.4 0-4.8.4-9.6.6-14.4.3-7.5.5-15 1-22.6a65 65 0 015.6-24.1 20.1 20.1 0 001-3.8 21.4 21.4 0 00-3.2 1.5l-13.7 10.6a83.5 83.5 0 00-22.6 27 40 40 0 00-3.7 26.6c.7 3.7 3.7 7.5 8 7.7 9.1.2 18.3.6 27.5 1zm26-88a13.4 13.4 0 00-8.5 7.2c-2.7 5.8-5.5 11.7-7.2 17.8a113.3 113.3 0 00-4.3 30.9c0 5-.4 10-.5 14.9v11.6l2 .7c5.5 1.4 6.3 1.2 8.3-4.1a137.6 137.6 0 004.5-14.2c.5-2 0-4.2 0-5.5 1-3.1 1.9-5.6 2.4-8.1.5-2.4.4-4.8 1-7.2.2-1.3.8-3 1.8-3.6 2.1-1.5 2.7-3.5 2.7-5.8 0-8.4.4-16.8.1-25.1 0-3.1-1.4-6.1-2.3-9.5zm125.6 42.2h5.6c6.7.1 13.5-.2 20.2.5a9.2 9.2 0 007.8-2.3l41.4-34.5 12-10.3-.7-1-4 2a53.6 53.6 0 01-11.5 5.9 115.2 115.2 0 00-27 13.2 460 460 0 01-20.6 13.3c-7.3 4.5-14.9 8.5-23.2 13.3z"/>
      <path d="M1200 211.8l-35.7 1.3-40.9 2a457.1 457.1 0 00-46.4 5.2c-6.8 1-13.7 1.3-20.5 2.2-8 1-16 2.2-23.9 3.3l-25.2 3.4-21 2.6c-2.7.3-5.5.3-8.2.5l-13.5.9c.8-3.7 19.3-42 21.7-44.7 6.2 4.1 13.4 3 20.4 2.9 5 0 8.8-4.3 9.3-10a73.8 73.8 0 000-7.7 3.4 3.4 0 00-.2-1.8c-4.3-5.6-9-10.5-16.6-11.3l-3.8-.5c-9.5-1.4-14.1 3.4-15.8 12-.8 4-1.1 8 1.5 10.7l-10.3 21.7-13.4 28.4-4.4.2c-10.8.1-21.6-.3-32.3.5-8.6.6-17.1 2.5-25.6 4.4-9.3 2.2-18.5 5-27.8 7.6-1.3.3-2.8 0-5.2 0 2.3-2.6 4-4.8 6-6.8 7.9-8.3 15.7-16.6 23.8-24.7 12.6-12.6 27-23.2 41-34.4 1.7-1.3 4.1-2.3 3-5.3-.6-1.9-2.2-2.2-6.3-1.2-9 2-18.3 1.6-27.4.7-4.2-.4-8.7-2.8-12-5.6-2.3-2-3-6.2-4-9.5-.3-.7 1-2.3 1.9-3 5.5-3.9 10.8-8.1 16.8-11.3q18.6-10 37.8-18.8c10.6-5 21.5-9.1 32.3-13.5 6.4-2.6 12.8-5.3 19.3-7.4 9.3-3 18.8-5.2 28.1-8.2 5.2-1.7 10.4-3.3 15.8-3.9a2.4 2.4 0 002.2-3 4 4 0 00-2.3-2.5c-1.9-.4-3.9 0-5.8-.2-6.4-.5-12.8-1.2-19.1-1.8a12.5 12.5 0 01-2.1-.6c2.2-3.6 5.4-5.6 8.2-7.8A205.9 205.9 0 011059 54c6.8-3.1 13.8-6 20.8-8.5q11-4 22.4-7.5c14.2-4.2 28.7-6.8 43.8-6 2.2 3.9 4 8 6.6 11.6a63.4 63.4 0 008.4 9.2c2.8 2.7 5.6 1.7 6.3-2a55 55 0 016.5-19 48.2 48.2 0 0123.3-21.3 18.4 18.4 0 002.9-1.8zM1200 1371.4c-4.1-1.3-8.2-2.9-12.3-3.9a33.3 33.3 0 01-13.2-6.5q-7.6-6-15.3-11.7c-2.9-2.2-5.4-4.4-6-8.3a10.4 10.4 0 00-1.8-4c-6.4-9.6-12.9-19.4-19.5-29-5.9-8.5-14-15-21.3-22.2-2-2-4-3.8-5.7-5.8l-14.2-16.4a9.2 9.2 0 01-2.1-5.6 28.8 28.8 0 017.3-21.8c2.6-3.2 5-6.6 7.4-10 3.7-5.2 4-11.3 4.4-17.4 0-2.1-.3-4.2 0-6.3.7-6.2-.6-12-2.3-17.9-3.1-10.2-6.7-20.2-12.7-29a117.3 117.3 0 00-10.7-13.5c-7-7.4-14.3-14.4-21.3-21.8a355.2 355.2 0 01-29.7-36 400.3 400.3 0 01-21-32.8c-1.5-2.6-2.7-5.6-4.3-9.1h6.1c2.3 0 3.7-1 4-3.3a49.1 49.1 0 00.4-5.3c-.3-11.7-.5-23.5-1-35.2-.2-4.4-1-8.8-1.7-13.8l9.3 3c12.9 5 26.4 7.7 39.8 10.8a2.5 2.5 0 00.5.1l27.8 2.4c7 .7 14 1.7 21 2.6 4.2.6 8.4 1.7 12.7 1.8a96 96 0 0122.7 4c2.4.7 5 1 7.5 1.5 7.9 1.6 15.7 3.4 23.5 4.9 5.7 1 11.4 1.6 17 2.4l4.7 1z" class="cls-1"/>
      <path d="M1124.7 264.1c0-1.7 2-3.6-.7-5.3-44 20.3-90 36-135.2 53.7a48.3 48.3 0 00-23.2-8c-3.3-.1-6.5-1.3-9.9-1.7-4.2-.6-8.5-1-13.2-1.5 3.5-22 9.2-43 19.5-63.4h5.4c13.7-.4 27.3-1.2 40.7-3.6 8-1.4 16-2 23.9-3.1l24.3-3.3 26.2-3.5 23.4-3.2c2.8-.4 5.7-.6 8.6-.7l31.7-2 25.5-1.1 25-1a20 20 0 003.3-.7v60c-5.8-.6-11.6-.8-17.2-1.7-15.7-2.6-31.3-5.5-46.9-8.2l-11.4-1.8zM1200 876.2c-4.8-2.5-9.3-5.7-14.3-7.6a123.7 123.7 0 01-31.2-18.6c-4.6-3.5-9.5-6.6-14.3-9.7-5.3-3.4-10.4-7-16-9.9a133.6 133.6 0 00-39.3-15.2c-7-1.2-14.3-2-21.4-2.8-11.7-1.2-23.4-2-35-3.7-7.6-1.2-15-4-23-6.1l3.2-3.4-.5-.8-5.6 2.3a187 187 0 01-.2-48.2c47.6 7 95.2 11.5 144 10.5l-4.3 3.3c.9 2.8 3 3 4.8 2.5a88.8 88.8 0 0011.8-4c12-5 24-10.4 36.1-15.6l5.2-2.6z" class="cls-1"/>
      <path d="M1200 894.6c-1 5.4-2.9 10.8-3 16.3-.4 16.6-.3 33.2-.1 49.8 0 9 .6 18 1 27v5.2a70 70 0 01-24.2-7.2c-5.7-3.2-11.5-6.5-17.3-9.6-4.5-2.4-9-4.6-13.7-6.8a57.3 57.3 0 00-6.2-2.1l1.4-3.2c5.2-10.8 10.8-21.5 15.6-32.6 3.7-8.3 7-16.8 6.2-26.4-.6-7.6-.6-15.4-1-23a26 26 0 00-6.7-15c-7.6-9.7-18-13.2-29.3-14.8-14.1-2-28.3-3.6-42.4-6-7.8-1.2-15.6-3.5-23.3-5.5-9.6-2.5-19.2-5.3-28.7-8-1.7-.5-3.4-1-5-1.7-6.2-2.1-11-5.9-13.6-12-1-2.3-2.2-4.4-3.2-6.6a33.4 33.4 0 01-1.1-4 15.4 15.4 0 013.3.3c12.4 4.6 25.3 6.6 38.4 7.5 14.4 1.1 28.9 1.7 42.9 5.8 8 2.4 16 5 23.4 9.6 2.1 1.3 4.8 1.8 7 3 6.1 3.8 12.2 7.7 18.1 11.8 10.2 7 20 14.3 30.4 21 4.8 3.1 10.4 4.9 15.5 7.4s10.5 5.5 15.7 8.3zM1200 1013.6a556.6 556.6 0 01-44.4-7.9c-7.6-1.8-15.3-3.3-23-4.8-3.1-.5-6.4-.5-9.6-.9a51.8 51.8 0 01-8-1.2 83.6 83.6 0 00-21-2.7c-3.5 0-7-.5-10.5-.9-7.5-.8-15-1.3-22.4-2.7-8.2-1.5-16.2-3.7-24.3-5.8-6-1.6-11.9-3.6-18-5.2-1.7-.5-3.6-.1-5.7-.1-3-9.7-5-20-4.3-30.6.8-9.8 6.3-17 13.2-23.4 2.4-2.2 5.2-4.1 7.6-6 3.4 2.2 6.5 4.2 9.6 6 1.7 1.1 3.6 2 5.4 2.9l23.4 11.2a8.5 8.5 0 011.6 1c6.3 5.2 14.1 7.6 21.3 11 7.1 3.2 14.1 6.8 21.1 10.2 2.3 1 4.7 2 7 3.2 1.2.5 2.3 1.2 3.6 2v11.4c6.8 1.7 6.6-5.4 12-7.6 3 0 7.3 1.9 11.4 4 6.7 3.5 13.4 6.9 19.8 10.9a78.2 78.2 0 0028.7 10.4c2 .3 3.7.8 4 3.3 0 .6 1 1 1.5 1.6z" class="cls-1"/>
      <path d="M1124.5 264l11.4 1.8c15.7 2.7 31.3 5.6 47 8.2 5.6 1 11.4 1.1 17.1 1.7v5.8a416.2 416.2 0 01-67.4-11.7c1.2 5.7 2.7 11 3.4 16.2 1 8.1 1.7 16.3 2.4 24.5.8 10.2 1.7 20.4 2.4 30.7.6 9.4 1 19 1.5 28.4l2.4 42.7 1.4 25 2.5 40 .4 11 1 29.4c.6 13.6 1.5 27.3 1.8 41 .5 17.8.6 35.6.7 53.5l.4 100c0 8.7-.1 17.4-.4 26a42.9 42.9 0 01-1.9 8.9c-.3 1.4-1.2 2.5-2.8 2.2l1-13.3c.3-4.2.6-8.4.6-12.5 0-3.6-.5-7-.5-10.6v-40.1c-.1-31.6 0-63.2-.4-94.8-.2-15.4-1.2-30.8-1.8-46.2-.4-9.6-.6-19.3-1.1-28.9-.7-14.4-1.7-28.9-2.5-43.3-.5-9.1-.8-18.3-1.4-27.5l-2.4-36-1-21.2-2.9-47.6c-.4-7.4-.8-14.8-1.4-22.2-.8-8.6-1.7-17.2-2.9-25.8a30.6 30.6 0 00-2.6-8.1 8.4 8.4 0 00-3.1-3.3c-1.9-1.1-2-2.3-.9-3.9zM1 682c-.3-5-.2-5.5 3.7-5.6 8.5-.1 17 0 25.5.4a121 121 0 0126.1 4.1 69.5 69.5 0 0138 22.4 39.6 39.6 0 018.6 32.4 70.8 70.8 0 01-19.8 39.7 633.3 633.3 0 01-39 36.7c-6.5 5.7-13.2 11.5-18.6 19.6a61.4 61.4 0 007 0Q46.3 830 60 828c8-1.2 15.8-2.6 23.8-3.6 5.5-.7 11.2-.9 16.8-1.3 3.2-.2 6.4-.6 9.6-.6 2.7 0 5.4.2 8.1.4q6.8.5 13.5 1.2a21.2 21.2 0 015.6.9c6.6 2.6 13.5 3 20.3 3.8 2.6.3 5.3-.5 8.4-1a19.3 19.3 0 00-1.4-2.3 5.4 5.4 0 01-.9-5.9c2.5-5.5 1.6-11 .7-16.6-.3-2.2-.2-4.5-.5-6.7-.4-3.3 1.2-5.2 4-6.4l4.6-2.1a111.8 111.8 0 005.1-24.6c.4-4.5 1.6-8.8 2.7-13.2 1.3-4.8 3.1-9.5 4.2-14.3a81.8 81.8 0 002-15.3c.2-11 .3-22.2-.4-33.3-.6-8.1-2.4-16.2-3.9-24.2-2-10.7-4-21.4-6.4-32-1-4.2-3-8.1-4.4-12.2L165 599l-14.6-42.7-9.5-27.2a6 6 0 00-1-1.3l-18 16.2c-9.1 8.5-18 17.4-27.3 25.8-10.5 9.5-21.5 18.5-32 27.9a253.8 253.8 0 00-33.2 35.5c-5.9 7.7-11.8 15.3-17.5 23-3.4 4.7-6.6 9.5-10.3 15-1.2-3.9-1.7-6.7.2-9.6a411.5 411.5 0 0138.4-49.4c6.2-7 13.3-13.1 20.3-19.3 11-9.8 22.5-19.2 33.5-29 8.5-7.6 16.7-15.7 25-23.5l14.5-13.4a72 72 0 016-4.4l-3.7-14a5 5 0 01-.1-2.4c.1-.7.7-1.7 1.2-1.8a4 4 0 012.4 1c.5.3.6 1 .8 1.5 1.6-.6 3-1.7 4.3-1.5s2.2 1.7 3 2.9c5.3 7.8 10.2 15.9 13.8 24.7A67 67 0 00170 548c7.2 9.7 14.2 19.4 20.9 29.4a60.8 60.8 0 016.3 12.4q7.8 20.4 15 41a120 120 0 016.3 28.2l1.4 13.6h6c2.8-.1 5.9 0 7 3s1.3 6.5-1.2 9.1a49.3 49.3 0 01-7.7 7c-3 2-5 4-4.6 8 .3 3.5-.4 7-.6 11.5l3-3c4.6-4.9 9-9.8 13.6-14.5a25.9 25.9 0 0114.3-7.3c5-.8 8.6 1.8 8.7 7 .1 5.6.8 11.3-1.4 16.7a24.4 24.4 0 00-1 4.2c-2 8.6-.5 11 7.9 13.2 1 .2 2.2.3 3.3.7 3 1 4 2.3 3.4 4.4-.6 2.5-2.7 2.3-4.6 2.3-.8 0-1.6-.4-2.4-.5l-5.5-.3c5.7 4.9 10.3 9.5 11.4 16.6a57.1 57.1 0 0119-28.4l-.5-.8h-10.7c-1.4-4.8-1.1-5.3 2.8-5.7l6.7-.7a4.6 4.6 0 002.2-.9c7.7-6.3 16-12 22.8-19.2 6.6-6.9 11.8-15.1 17.5-22.9a9 9 0 001.2-3.1c.4-1.7 1.4-2.8 3-2.4 1.1.4 2.6 1.6 2.8 2.6a47.7 47.7 0 01.4 7.7 5 5 0 00.6 2.6l1.9-3.5c3.7-6.5 7-13.3 11.2-19.6 6.4-9.6 13-19.2 20-28.2 6.1-7.9 13.1-15 19.9-22.3 2.8-3.2 6.4-5 10.8-3.2a11.3 11.3 0 014 2.4c5 5.5 9.2 11.4 11.5 18.7 3.2 10.5 6.2 21 6.2 32v16.8a16 16 0 01-1.8 6.5 5.8 5.8 0 01-3.6 2.7c-1.7.3-2.8-1.2-3.4-2.9a35.6 35.6 0 01-1-4.2 95.1 95.1 0 00-8.6-26 62.3 62.3 0 00-3.3-5.3c-2.6-4-6.9-4-10.5-2.3-6.4 3-11 8.2-16.4 12.5a106.3 106.3 0 00-18.8 20.7 99.7 99.7 0 01-6.8 7.5 43.3 43.3 0 00-3.4 4c-2.5 3.4-3.6 4-8.4 3-1.2 6.1-5.6 10-10.1 13.9-5.8 5-12.7 8-19.4 11.3a36 36 0 00-3.7 2.5c4.5.8 8.3 1.8 12.2 2.2a20.4 20.4 0 0118.6 20.2c.1 9.5.6 19-2.4 28.2a13 13 0 00-.3 2.7l4 .5c0-2.6-.2-5 0-7.3a57 57 0 017.4-26.5c4-6.4 8.9-11.5 16.6-12.6.3-1.7 0-3.8.9-4.5a8 8 0 014.8-1.3 134 134 0 0113.5.7 28.4 28.4 0 0124.7 26.2c.7 8.4-.2 16.6-1 25.2l5.7 4.6c6.5-4 11.5-1.5 15.9 5.3 5.8-23.7 15.2-44.8 23.6-66.7a28.3 28.3 0 01-8.4-15.7 15.4 15.4 0 01-.2-4.8c.4-3.2 1.4-4.1 4.7-4.1 4.7 0 9.7-.8 14 3 4.4-10 8.7-19.4 12.8-29q9-20.8 17.6-41.7a24.3 24.3 0 001.5-7c.7-7.4 4-13.7 7.5-20.1 8.2-15 20-27.4 30-41.2 6.4-9 12.8-18 19-27.1a85.5 85.5 0 0123-24.9c1.7-1 3.1-2 4.8-.6s1.2 3.2.5 4.8l-8.8 19.2c1.8 4.4 3.6 8.3 5 12.5 3.2 8.8 7.9 16.8 12.2 25a153 153 0 0016.7 25.2c7 8.8 14.6 17.2 21.9 25.8 6.8 7.9 13.3 16 20.4 23.7 8.6 9.2 17.6 18 26.6 26.7 7.6 7.3 15.6 14.3 23.4 21.5 4.7 4.4 9.1 9 14 13.3a4.1 4.1 0 011.6 4.2c-.3 1.9-1.9 1.8-3.3 2l-18 3a91.4 91.4 0 01-10 .9c-11 .4-22 .2-32.8 1-22.1 1.8-44.2 4-65.5 10a146.9 146.9 0 00-43.7 18.7 47 47 0 00-11.7 11.9c-4.7 6.7-3.6 14.3-.7 21.6 3.6 9 9.2 16.7 15.4 23.8 7.5 8.7 13.6 18.2 19.5 28 5.2 8.9 11 17.3 16.7 25.9a17 17 0 011.6 2.4c1.7 3.8.2 6-4 6.4-5.8.4-11.1-1.4-16.5-3-11.1-3-22.2-6-33.7-7.7-8.5-1.3-17-3.3-25.4-5.2-10.9-2.5-21.7-5.5-32.6-7.8-4-.9-8.4-.4-12.6-.6-3.4 0-6.5-.4-9.4-2.7-1.3-1-3.7-1-5.4-.8-5.9.9-11.7 2.1-17.5 3.3-1.9.3-3.6.5-4.3-1.8-.6-2.1 0-3.5 2.6-4.2 3-.8 6-1.3 9-1.9l12-2.2c1.2-7.3-.4-14.2-.5-21.4-2.8-.2-4.7-1.4-4.7-4.8l-16-2.4c-2.6 4.5-2.6 9.1-2.9 13.5-.4 5.8-.1 11.6-.2 17.4a6.8 6.8 0 010 2.3 2.5 2.5 0 01-1.6 1.5 2.3 2.3 0 01-2-1 9.7 9.7 0 01-.6-3.7l1.3-31.4c.1-2.2 3.3-4.3 6.5-4.5a53.4 53.4 0 016 .4c-1.4-2.5-2.2-5-3.8-6.8-3.2-3.6-3.7-5.1-8.3-2-2.3 1.6-4.5 1.1-6.6-.7l-2.4-2.3a23.6 23.6 0 00-2.1 3.2 67.3 67.3 0 01-14.3 21 24.4 24.4 0 01-19.7 7c-6.1-.3-11.3-3.3-16.5-6a2.4 2.4 0 01-.8-.5c-5.4-6.2-10.8-12.4-11.7-21.1l-1-7-6 1.2c-3.8 9.3-9 17.3-17.4 22.8a29.1 29.1 0 01-27.1 3 24.5 24.5 0 01-15.3-13.8l-1-1.8-4.3 8.8a30 30 0 01-11.4 11.4 6.6 6.6 0 01-3.2 1.1c-9.6.3-19.3 1.4-28-4.2-7.7-4.8-13.5-11-14-20.6a5.2 5.2 0 00-.4-1.4l-.9-2c-2.2 7-4.4 13.4-6.3 20-2.8 9-5.3 18-8 27.1a6.3 6.3 0 01-4.4 4.6c-3.4 1.2-6.4 3.5-9.8 5.5 2.2 2.4 5 4.3 5.6 6.7s-.8 5.3-1.4 8c4.4.7 4.4.7 6.6-3.3a22.6 22.6 0 011.2-2.1 19.7 19.7 0 011.6-1.8l-1.1-1.1c-4.3-5-3.6-9 2.4-12a55 55 0 0121-4.7 70.1 70.1 0 018.6 0c1.7.1 2.9 1 2.7 2.8-.2 1.6-1.4 2-2.8 2a65.2 65.2 0 00-18.2 2c-3.7.8-7.5 1.5-10.6 4.3 1.6 2.7 4.2 3.5 6.7 4.2l10.7 3c3 1 3 1.1 2.5 4.9-3.6 2-6.7-1.4-10.5-1l-4 5.8 5.4 3.6c2.3 1.6 3.5 3.8 2.8 6.6a2.5 2.5 0 01-1.5 1.7 2.2 2.2 0 01-1.9-1c-1.7-5-6.4-6.2-10.4-7.7-3.3-1.3-6.9-.1-9.5 2.1-2.3 2-4.4 3.1-7.4 1.6l-.4 1c.9.6 1.6 1.7 2.6 2 3.7 1 7.5 1.6 11.1 2.6a15.7 15.7 0 015.5 2.7 20.5 20.5 0 0018.2 3.8c4.5-1 7-5 8.1-9.4 1-3.5 1.4-7.2 2-10.8s1.4-7.3 1.9-11a34.8 34.8 0 00.2-6.5c0-1.3-.4-2.7 1.3-3.1 2-.5 3.2.6 3.3 2.5a33.3 33.3 0 01-.2 7.2c-1.2 7.3-2.3 14.6-4 21.7a25.1 25.1 0 01-4 8.6 12.4 12.4 0 01-10 5c-7.2.3-13.7-.8-19.8-4.9-2.7-1.8-6.3-2-9.6-2.8-1.6-.5-3.4-.6-5.7-1l-2.8 5.9c2.3 1.4 3.2 3.1 2.6 5.7-1.6 6.3 2.4 10.5 6.6 13.9 3.5 2.7 7.7 4.8 12.5 3.8.6 0 1.2.3 2.1.6l.4 5.7c3.7 3.5 8.4 4 13 4.2 4 .2 8.4 1 12-2 3.3.5 6.7.8 10 1.5 2 .5 4.1 1.6 6.2 2.4 4.4 1.6 8.2 1 11.4-2.6l1-1c3-2.8 5.2-6.2 10.2-6.3a20.6 20.6 0 0115.3 5.6c2.3 2.1 4.7 3.3 7.4 2.3a17.5 17.5 0 006.7-4.3 6.3 6.3 0 016-2.2 36.6 36.6 0 017.5 1.7c8.4 3 16.3 3.3 23.8-2.2a29 29 0 013.7-2.4c3.2-1.6 5.1-1 7.3 2a13.5 13.5 0 011.4 2.5c2.5 6 8.5 8.6 14.5 6a24.8 24.8 0 006.8-4.2c2.9-2.6 5.5-3.4 9.1-1.7 4.7 2.2 9.5 3.9 14.3 5.7a16.3 16.3 0 004.2 1c8 .7 11-3 10.4-9.5-.4-4.7.6-5.5 5.4-6l19.2-1.8a28.2 28.2 0 004.3-1.2 61.2 61.2 0 00-6-17.7c-2-4.2-1.1-9.6 5.2-10.4a82.5 82.5 0 0010.7-2.5 44.4 44.4 0 004.5-1.7c-1-5.7-4.2-9.5-7.5-13.2-2.2-2.4-5-4.3-7.5-6.6a15.8 15.8 0 01-2-3c3.8-1.9 6.3-.2 8.4 1.7 3.7 3.2 7.5 6.4 10.2 10.8a18.5 18.5 0 013.3 10.2c0 3.2-1.2 5-4 5.8-4.7 1.3-9.6 2.3-14.4 3.4l-2.8.7c1.3 3.2 2.8 6 3.7 8.9a67 67 0 013.1 12c.6 4.8-1 6.8-6 7.5-5.8.8-11.7 1.2-17.6 1.8-1.7.2-3.3.7-4.5.9l-2 9c-1 3.9-4.2 5.2-7.6 5.6a37.6 37.6 0 01-22-4 58.7 58.7 0 00-5.8-2.5l-10.6 5.8a6.2 6.2 0 01-3.2.7c-5-.4-8.1 2.3-10.4 6 6.4-.4 12.9-.8 19.3-1 2.8-.2 5.7 0 7.1 2.8 1 2-.8 4.4-4.5 6.5-7.2 4.1-15 7.1-23.1 7.8-5.4.4-7.7 3.7-11 8.2l8-3.7c8-3.6 16.3-3.6 24.7-2.4a4.2 4.2 0 013.8 3c.8 2-.3 3.4-1.7 4.6a48.2 48.2 0 01-20.8 11.5 67.6 67.6 0 01-12.3 1.9 4.5 4.5 0 00-4 2.8c-2 3.8-3.7 7.8-5.9 12.4a29.9 29.9 0 0012-6c4.1-3.1 8.6-5.7 13.8-6.4a15 15 0 015.2.2c4.3 1 5 2.3 5.5 6.6 1 8-3.2 12.2-9.5 15.5l-5.5 3c3 .3 5 .4 6.8.7 3.3.4 3.5.8 3.2 5.1-5.4.7-6.8 5-8.2 9.8 2.8.4 5.5 1.1 8 1 10.4 0 20.7-.4 31-1 4.7-.2 9.4-1.3 14.2-1.7 4.6-.4 8.1 1.3 9.8 6 .8 2.1 2.2 4 3 6 1.4 4.4.1 6.5-4.4 7.2a216 216 0 01-14.8 1.8c-13.6 1.1-27.2 1.6-40.8 3.3-11.8 1.4-23.5 3.2-35.4 2.7-2.3 0-4.6 0-6.8-.3a3.3 3.3 0 01-3-3.2c-.6-4-1.4-7.9-1.8-11.9a250 250 0 01-1.1-17.3c-.2-4.2 1.2-5.7 5.4-6.5 3.4-.6 7-1 11.5-1.6-2-.9-3-1.6-4-1.6-2.6 0-3.4-1.4-3.3-3.7.3-7 1.4-13.7 5.7-19.6a26.3 26.3 0 001.8-3.4 24.6 24.6 0 01-3-1.4 6.6 6.6 0 01-3-7.8 46.7 46.7 0 011.9-6.4 56 56 0 013.4-6l-3-.2c-5.4-.3-7.4-3.4-4.4-8a39.6 39.6 0 019-9.7c4.6-3.5 9.9-6 15-9l-3.1-7.2a26.8 26.8 0 00-4.5 2c-8 6-16.8 5.2-25.8 3l-8.1-2c-1.8 1.4-3.2 2.8-4.7 3.9-6.1 4.3-13.2 3.7-19-1.2a27.5 27.5 0 00-7-4c-2.7-1.3-5.2-.4-7.3 1.8a51.1 51.1 0 01-5.5 5.4 11.3 11.3 0 01-5.5 2.7c-4.7.3-9.7 1-14.1-1.9-1.6 4.8-6.6 4-10.5 7 3.8 0 6.9.3 9.9.2 3.9-.3 7.2 1 10.5 2.8a4.7 4.7 0 012.8 4.7c0 2.2-1.8 2.8-3.5 3.4-6.5 2-13 4.4-19.7 6-3.2.7-6.8.1-10 .1l-1 5.6c13.4-5 28.6-5.8 34.8-2 1 7.4.6 7.8-6 11.3-9.2 4.9-19.4 6.7-29.3 9.3l-1.6.4-3.2 7.4c3.8-.8 7.3-1.2 10.5-2.3 6.3-2 12.7-1.2 19-.5a4.4 4.4 0 013.3 2.2c.5 2.1.9 4.6-1.1 6.3a13 13 0 01-3.3 2l-15.5 6.5a33.1 33.1 0 01-20.3 2.1c-7.2-1.7-11-8.7-8.2-16.6.6-1.9 1.5-3.8 2.2-5.7-4.3-2.6-5.5-6.2-3-10.5 3.6-5.9 6.1-12.5 12.2-17.2l-5.4-3.4c-3.2 2.4-6.5 4.6-9.6 7.1a177.1 177.1 0 01-29.8 20.2 19.3 19.3 0 01-4 1.7c-3.5 1-5.2-.6-4.7-4.2l.7-4.6c-1.7 1.2-2.9 1.9-3.9 2.8l-16.3 15c-4.9 4.2-10.8 6.8-16.6 9.6a457 457 0 01-45.8 18.8c-6.3 2.2-13 3.9-19.8 3.5a7.8 7.8 0 01-2.4-.2c-1-.4-2.4-1-2.5-1.7a4.1 4.1 0 011-3.4c3.2-3 6.6-5.6 10-8.4l6.8-5.4-15.8-2.2c-5.6-1-11-2-16.6-2.8a45 45 0 01-22.4-12.6l-1-1c-4.7-4.7-4.9-5.4-3.4-12.7l22 5.1c-1.4-3-3.7-4.4-5.4-6.3L3 933.3c-3.5-4.1-2.6-9-2-14.7 1.8 2.6 3 4.3 4.1 6.2a97.5 97.5 0 0019.1 23.4 90.2 90.2 0 009 7.2c1.5 1 2.7 1.8 2.3 3.7A3.4 3.4 0 0132 962a96.5 96.5 0 01-12.5-.3c-3.5-.4-6.8-1.4-10.4-1.8a44.7 44.7 0 0019 12.4c10 2.8 20.3 2.7 30.4 4.6l5.7 1c1.5.3 3.3.5 3.6 2.5a5.3 5.3 0 01-1.6 5.3l-7.1 5.8-4.7 3.6a56.5 56.5 0 0015-3.6c7.6-3 15.3-5.7 22.8-9 9.3-4 18.5-8.2 27.4-12.9 4.2-2.2 7.7-5.7 11.4-8.8 6.9-5.7 13.6-11.7 20.6-17.4 2.3-1.9 5.2-3.1 7.9-4.5a3 3 0 014.3 1c1 1.5.1 2.6-.8 3.8-1.8 2.4-3.4 4.9-5.1 7.3l.7.8a58.7 58.7 0 006.5-3.6c9.1-6.6 18.2-13.3 27.1-20 1-1 1.7-2.8 1.9-4.3a12.1 12.1 0 017.4-9.8 19.6 19.6 0 003.1-2.4c-5.6-1.4-11-2.7-12-9.4-6 .6-10-3.4-14.8-5.7-7.2 2.8-14.4 5.9-21.8 8.4a57.7 57.7 0 01-12.6 2.9c-6.4.7-12.9.7-19.3 1-3.4.3-6.2-.3-6.3-4.8a88.7 88.7 0 01-33.3-6l4.6 6.9 2.6 4c1 1.8 1.7 3.6.2 5.4s-3.5 1.7-5.3 1.1a57.9 57.9 0 01-9-3.6 379 379 0 01-40.3-23.4 19.3 19.3 0 00-5.2-3c1.2 3.2 2.4 6.3 3.8 9.4l5 10.5a4.7 4.7 0 01.7 2.2c-.1 1.4-.3 3.2-1.2 3.8s-2.8.4-3.8-.3a302.3 302.3 0 01-34.1-25.2c-2.2-2-2.2-2-1.4-7.9a17.9 17.9 0 012.8 1.6l13.9 11.2 12.4 9 .8-.6-4.8-11.8c-1.6-4-3.3-7.6-4.6-11.6-.5-1.3-.2-3.9.5-4.2a6.2 6.2 0 014.9.2A21.5 21.5 0 0132 876c7.2 7.3 15.8 12.8 24.6 17.8L78 905.7a9.7 9.7 0 005.2 1.2l-9-12.2a51 51 0 01-3.8-5c-.5-.9-.6-2.7 0-3.4s2.2-.7 3.4-.8c.5 0 1 .7 1.6 1a76 76 0 0042.8 12.3l18.8-1h7.4l.8 4.6c10.5-1.4 19.9-5.8 30-9.2-2.3-4-4.1-7.7-3.1-12.2a3.1 3.1 0 00-.8-2.1c-3-3.9-2.2-7.8-.5-11.8a15 15 0 001-5c.2-2.7-.1-5.5 2.4-7.5.2-.2.6-.6.5-.8-2-4 2.6-6 3-9.4-1.6-2.3-3.7-4.5-4.7-7-1.2-3.2 1.7-5.2 4.5-7.9-2.2.3-3.5.2-4.6.6-2.7 1.2-5.3 3.2-8 3.8-3.5.7-7 .5-10.6.3a79.3 79.3 0 01-21.2-3.9 6.4 6.4 0 00-1.9-.4c-11.2-.2-22.4-2.2-33.7-1a794 794 0 00-18.1 2.1l-41 5.5c-5.6.7-11.2 1.3-16.8 1.7a8.5 8.5 0 01-4.1-.8c-2.2-1-2.7-2.8-1.1-4.7 5.8-7 11.3-14.3 18.4-20.3a676.7 676.7 0 0048.5-46.2 62 62 0 0014.8-34.9 28.4 28.4 0 00-2.5-14.5c-5.8-12.6-15.7-21-28.2-26.3s-26-7.8-39.7-8.7c-5.5-.4-11-.8-16.4-.8-3.3 0-6.7.6-10.4 1zm562.4-153a36.5 36.5 0 00-2.2 3c-1.9 3.2-3.8 6.3-5.5 9.6-2.7 5.4-5.5 10.9-7.9 16.5s-4.3 11.7-6.6 17.5l-7.6 18.7c-3 7.6-5.8 15.3-9.3 22.7-4.3 9.2-9 18.1-13.9 27a121.5 121.5 0 01-10.7 16.5 240.2 240.2 0 00-25.5 41.3c-4.1 8-6.1 17.2-8.9 26-1.7 5.6-2.9 11.4-4.8 17-4 12-10.3 23-15.9 34.4-2 4-3.8 8-5.6 12.1l1.2.1c.7 1.8 1.7 3.6 2 5.4.6 6.4 1.5 12.8 1.4 19.1 0 10 2.4 12.1 11.6 11.4a22.6 22.6 0 016.7.2c7.6 1.7 15.2 3.7 22.8 5.5 8.1 1.9 16.2 3.9 24.4 5.5 7 1.4 14.3 2 21.3 3.7 9.8 2.2 19.5 5 29.2 7.6 2.2.6 4.4.9 7.4 1.5-1-1.5-1.3-2.2-1.7-2.9-4.7-7.2-9.7-14.4-14-21.8a171.8 171.8 0 00-19-27.2 85.4 85.4 0 01-15.8-24.6c-4-10-5-20 1.2-29.5 1.3-2 3.3-3.5 4.8-5.4 4.2-5.2 9.7-8.7 15.6-11.8a149.4 149.4 0 0126.1-10.8c8.5-2.6 17-4.8 25.6-6.6 24-5 48.3-6.7 72.7-7.2a277 277 0 0030.7-2.4 48.5 48.5 0 006-1.7c-7.7-7.4-14.7-14.2-21.9-20.9-8.2-7.6-17-14.7-24.8-22.8-10.1-10.5-19.6-21.7-29.2-32.6-7-7.8-13.9-15.6-20.7-23.5-15-17.3-27-36.2-34.6-57.9l-4.6-12.7zM186.6 824.2c1.5-5 3-9.4 4.1-13.8 5-18.8 11.3-37.2 14.8-56.3 1.3-7 3.4-13.8 4.3-20.7 1.6-13.3 2.9-26.5 3.7-39.8a204 204 0 00-.3-28 144.9 144.9 0 00-4-22.6c-1.8-7.3-4.2-14.5-6.6-21.6-2.8-8-7.7-15.1-8.5-23.8a10.5 10.5 0 00-.8-2.3c-4.3-12.2-12.2-22-19.7-32.3a372.2 372.2 0 01-15-21.7c-3-4.9-5-10.4-7.7-15.5s-5.9-9.5-8.8-14.3l-1 .5 3.1 11c1.7 5 3.9 9.8 5.6 14.8l20.3 58.6c2.8 8 6 16 8.8 24a125 125 0 013.5 12.9c1.8 7.6 3.4 15.3 5 23 1.4 7.5 3.6 15 4.1 22.6a777 777 0 011 45.8 44.7 44.7 0 01-1.8 12.4c-3.3 11.4-6.8 22.7-7.9 34.6-.4 5-2 10-3 15.2l3.4.3c2 0 4 .1 4.2 2.8s-2 3-4 3.3a11.9 11.9 0 01-2.2-.1A19.9 19.9 0 00170 796c1 8.6 2.5 17.1.3 26 5.5 1.8 10.9 1.9 16.3 2.2zm180-23.1c4.6 0 9 .1 12.8-3.1a53.6 53.6 0 0012.4-15.8c1.3-2.6 1.1-5 1.2-7.7s3.5-3.6 3.8-6.9c.6-7.3 1.6-14.5.8-22-1.2-11-7.7-18.9-18.5-21a24.6 24.6 0 00-23 6.2 43 43 0 00-13.6 26.3 99.8 99.8 0 00-.2 20.6 24 24 0 0024.4 23.4zM564 512.7c-2.6 3-5.4 6-7.7 9.2-6.2 8.6-12 17.5-18.3 26-9 12.1-18.6 23.9-27.5 36-4.2 5.7-7.4 12-11 18.1a3.3 3.3 0 00-.2 3.5 9 9 0 01.3 5.9 76.7 76.7 0 01-3.9 9.3l-14 31.6c-4.2 9.9-7.8 20-12.5 29.7a1012 1012 0 00-31.9 75.2c-3.8 9.9-7.3 19.9-9 30.8l4.7 3.5c2.3-9.8 7.5-17.6 11.6-25.9 3.5-6.9 7-13.8 9.5-21 3.6-10.5 6.2-21.5 9.4-32.2 1.9-6.3 4-12.5 7.6-18.1 2.4-3.6 4-7.7 6.4-11.3 4.8-7.6 9.8-15 14.8-22.5 3.3-5 7.2-9.6 10-14.8 8.1-15 16.2-29.9 22.5-45.7 6.2-15.4 12-31 18.5-46.4 2.8-6.7 6.7-13 10.3-19.4 3.9-7 8.1-13.7 10.4-21.5zM273.6 768.9c0 2.7-.2 5.5 0 8.2.4 6.8 3.8 11.7 9.5 15.3 7.2 4.6 22.2 4.6 29.8-3.8a56 56 0 0012.6-24 42.7 42.7 0 00-.8-27.8c-2.8-6.9-6.9-11.7-14.5-13.1s-14.1-.5-19.9 5.1a51.8 51.8 0 00-16.7 40zm-31.3 31c3-.2 6.7 1 9.4-1.7s5.3-5.3 7-8.4c5.4-10 5.3-20.9 4.7-31.9-.3-6.7-4.3-11.5-8-16.5a9.4 9.4 0 00-3.7-3c-8.4-3.6-16.6-3.6-23.9 2.5-8.7 7.2-12 17.1-13.3 27.9a45.2 45.2 0 00-.5 4.7c-.2 11 1.2 18 13 24 4.8 2.3 9.9 2.4 15.3 2.3zM344.2 993c-11.3.7-22.3-1.9-32.7 3.4-1 8.6 1.5 16.6 3 25.2a31.5 31.5 0 005 .7c3.7 0 7.4-.3 11-.6l34.5-3.3 34-2.8 7.4-1c-2.2-7.6-4.3-8.5-11-7.2a110.4 110.4 0 01-18.5 2.1c-10.3.3-20.6.2-30.9 0-5-.2-6.6-2.6-5.2-7.4l3.4-9.1zm71.2-337.6l.6.1c-.2-2.5-.2-5-.6-7.6a115.5 115.5 0 00-2.5-13.2c-2.3-8-4.4-16-10.3-22.5-3.7-4-5.2-4.2-9-.4a237 237 0 00-30.3 35.6 98.3 98.3 0 00-9.2 16.5 2.4 2.4 0 001.5-.8c7-9.3 16.2-16.4 25.2-23.7a43 43 0 019.4-5.7c6-2.7 12-.6 16.3 5.8 3.3 5 6 10.5 8.9 15.8zM243 729.9c-6.8-3.8-9.8-9.8-11-17.7-3.3 3-6 5.5-8.9 7.7s-2.8 6.7-6.4 8.4c-.2 0-.2.6-.3.9l-3 18.5c8-10.3 15.8-19 29.6-17.8zm-9.1-26.3c4.7 1.4 4.8 1.5 4.8 6.2 0 8.3 2.4 11.6 10.6 14.7-.6-7.2.8-14 2.7-20.8 1-3.4.2-7.2.2-11.4-8.3.7-13 5.8-18.3 11.4zM198.8 954c1-7.3 6.6-11.4 11.2-17.4-1.8.6-2.9.7-3.5 1.3-5.3 5.4-8.4 12.2-12 19.3 3.5 0 6.5.5 9.4 0 7.2-1.5 14.4-3 21.5-5 4.7-1.4 9.3-3.6 13.8-5.6 1-.4 1.6-1.4 3-2.7a53 53 0 00-36.2 8.9 7.2 7.2 0 01-7.2 1.2zm125.4 28c12.2 4.3 21.2.1 29.6-6.6 1.7-1.5 2.5-5.4 1.4-7-1.5-2.1-3.8-1.1-5.8-1a3.2 3.2 0 00-1.3.6l-8.3 4.8-9.5 5.5-6.1 3.6zM200 962.1c-1.4 3-3.2 5.7-4 8.7-1.6 5.5 2 9.8 7.7 10.1a33.9 33.9 0 0016.3-3.3l9.6-4.3 3.6-1.6a33.6 33.6 0 00-10.4-.5c-3.8.5-7.5 1.7-11.2 2.6a72.9 72.9 0 01-7.5 1.7c-1.1.1-2.8-.2-3.4-1s-.3-2.3 0-3.4c1.3-2.9 2.9-5.6 4.4-8.7zm6.2-31.7a8.6 8.6 0 013.6-9.5 51.3 51.3 0 019.7-5.1c3.2-1.5 6.6-2.6 10-4a37.5 37.5 0 00-21.9 4.9 31.7 31.7 0 00-6.2 4.3c-2.7 2.5-2.5 4 .2 6.3a48.4 48.4 0 004.6 3.1zm127.4 22.6a40 40 0 0026.2-9.7 31 31 0 00-26.2 9.7zm122.2-257c-3.4-3.8-7.4-4-12-3.4-.8 6.1 2.2 10.6 6.3 15.2l5.7-11.7zM341 916c-7.7 3.6-15.3 7.3-20.8 15.3H331c1.5-6.6 7.4-9.8 10-15.3zm-31.8-210a46 46 0 0019.8-14.3c2.1-2.6 2-5.8 1.6-9.2zM208.9 931.2c10 1.6 19.1-.5 28-4.7a25.2 25.2 0 00-14-.3c-4.6 1.4-8.6 4.2-13.5 4.2-.2 0-.2.2-.6.8zm19.3-253.1h-8.6c.4 3.1-.3 6 .8 9.6 3-3.2 6.7-4.8 7.8-9.6zm129.7 246.8c-6.3.6-12.6 1.4-18 5a39.8 39.8 0 0018-5zm-167.5-73c5.4.4 5.6-3.7 7.7-6l-3.3-1.8zm141.1 86.3c-5 1.3-8.6 6.3-8.9 12zM304.8 331c6 1.3 12 2.7 18 3.6a343.5 343.5 0 0063.4 4c6.6-.3 13.2-.6 19.7-.7a35.5 35.5 0 015.7.9c1 20.7-3.4 40-9 59.5-5 .5-10-.7-14.6-2a128.5 128.5 0 00-32.8-4.6h-45.4c-24.8.2-49.6.7-74.3.9-16.6.1-33.2 0-49.8-.3-13-.3-26-1-39-1.8-11.7-.6-23.4-1.2-35.1-2-16.7-1.2-33.3-2.6-50-3.9l-16.3-1L20 382l-15.5-.3-2.7-.2c-1.6-4.2-1.3-5 2.5-5 6.4.1 12.8.5 19.2.8 8.7.3 17.4.6 26 1.1 10.3.7 20.5 1.7 30.7 2.5L99 382l40.8 2.9q13 .8 26 1c20.4.5 40.9.7 61.3 1 6 .2 12.2.8 18.3.7q34.5-.3 69-1c9.2 0 18.3-1 27.5-.5 14.2.7 28.6-.2 42.6 3.5l13.7 3.3a184.1 184.1 0 008.9-49.3c-4.8-1.2-9.3-.6-13.8-.5-12.3 0-24.7 1-37.1.4-12-.6-24-2.4-35.9-3.7-4.7-.6-9.5-1.5-14.2-2.4a12.3 12.3 0 01-4.6-1.4 6.7 6.7 0 01-2.7-3.5 32.5 32.5 0 01-.7-7.7c0-9.3-2-18-4.8-27-2.6-8.2-9.8-14.2-21-12.4a101.8 101.8 0 00-26 8.2c-9.9 4.4-20 8.6-30 12.5-10.4 4-20.8 7.7-31.3 11.3a88.2 88.2 0 01-35.5 5.3 9.3 9.3 0 01-7.6-4.1 54.3 54.3 0 01-8.2-23.8c-2-12-4-24.1-8-35.7a77.5 77.5 0 00-25.3-36.7 35.1 35.1 0 00-28.7-6.6 80.5 80.5 0 00-25.4 10c-10 5.5-19.8 11.1-29.9 16.3-4 2-8.7 3-13 4.4a7.2 7.2 0 01-2.3-.3L.7 242c.4-.4.6-.8 1-.9 11.2-3.1 20.9-9.6 31-15.2 9.5-5.2 19-10.8 29.4-14 11-3.6 22-3.9 33 .4a55.9 55.9 0 0124 20.2 81.7 81.7 0 0113.9 28.9c2.5 10 4.1 20 6.3 30 1.3 6 2.7 12 4.5 17.7a18.8 18.8 0 003.8 6.1 5.1 5.1 0 003.3 1.4 66.5 66.5 0 0025.2-3c6.1-2 12.3-3.6 18.4-5.8 9.4-3.5 18.8-7.2 28.2-11 11.9-4.8 23.7-9.7 35.6-14.4a46.3 46.3 0 0123.7-2.5 20 20 0 0115.9 13.3 78.5 78.5 0 016 30 74.7 74.7 0 00.9 8zM169.9 1347.9c1.2 1.8 1.9 3 2.7 4 7.7 10 15.7 20 23 30.3s13.6 21 20.1 31.7c5.5 9 10.5 18.4 15.7 27.6 2.1 3.9 2.2 6.4.4 7.9-2.7 2-4.8-.5-7-1.1a13.4 13.4 0 01-3.4-2l-36.2-24c-10.9-7.3-22.7-12.5-34.6-17.7-.3-.2-.6 0-1.7.1 4 5 7.8 9.6 11.5 14.4q16.1 20.8 32 41.7c1.5 1.9 2.7 3.8.6 6-2.1.6-3.8 0-5.8-1.2-15-9.3-30.2-18.3-46.3-25.7-9.9-4.5-19.7-9.3-30.3-12l-6.8-1.4a61 61 0 009.9 13.5l9.5 9.6 20 19.5c3.3 3.1 6.4 6.4 9.4 9.7a10.6 10.6 0 011.9 2.9c1.4 3.2.2 5.3-3.4 5.4H128.3l5.9 15.5a96.5 96.5 0 013.1 9.6c1 4-.6 5.4-4.6 4.4-2.3-.6-4.6-1.4-7.9-2.5 1.5 3.3 2.4 6 3.8 8.3 2.9 4.8 3.7 9.6 1.2 15.9a39 39 0 00-7.8-17.7 13 13 0 01-2.4-9c.4-3.2 1.8-4.4 4.9-3.8a51 51 0 015.8 2c-.4-4.6-2.6-8.3-4-12.3-1-3-2.3-6-3.4-9a8.8 8.8 0 01-.3-2.9c0-3 .5-3.7 3.5-3.8h15.5l5.4-.3c-2.2-2.6-3.9-4.7-5.8-6.6-9.3-9.3-18.5-18.7-28.1-27.8a91.6 91.6 0 01-12.3-14.1 12.6 12.6 0 01-2.4-8.6c.3-3.3 1-4.2 4.2-3.7a78.8 78.8 0 0112.7 2.8c6.7 2.3 13.2 4.8 19.7 7.7 8.3 3.7 16.6 7.6 24.7 11.8 5.2 2.6 10 5.6 15.1 8.5a36 36 0 003.5 1.4 23.8 23.8 0 00-1.5-2.9l-31.8-41a45.8 45.8 0 01-5.2-8.6c-1.1-2.4 0-4 2.5-3.9a28.4 28.4 0 018.8 2 258.2 258.2 0 0152.2 28.5c5.7 4 11.5 7.8 17.3 11.6a4 4 0 003 .6c-2.5-4.4-4.8-8.9-7.4-13.2-7.2-11.7-14.2-23.6-21.8-35.1-4.7-7.3-10.2-14.1-15.5-21-7.5-9.7-15.3-19.4-23-29.1a12.9 12.9 0 01-2.2-4.1c-.7-2.2.7-3.5 2.9-3a13.2 13.2 0 013.5 1.4c11.8 6.5 23.7 12.9 34.4 21a1692 1692 0 0133 26.9q16.6 13.8 33 28a793 793 0 0121 19.2c11.3 10.6 22.2 21.5 33.8 31.7a207.4 207.4 0 0124.8 26.8 113.6 113.6 0 018.7 13.2c2 3.3 2.3 7 2 10.8 0 1.4-.3 2.8-2 2.6-.6-.1-1.4-1.4-1.7-2.4-1-3.3-1.6-6.9-3-10-1-2.3-3-4-4.5-6a230.7 230.7 0 00-27-29.5c-4.6-4.3-9-8.8-13.6-13-10-9.6-20-19.2-30.3-28.4-13.8-12.2-27.9-24.1-42-36.1-9.1-7.8-18.2-15.7-27.8-23-8.5-6.5-17.6-12.2-26.5-18.2a11.7 11.7 0 00-2.5-.8zM410.4 1126.1l6-1c13.9-2.2 27.8-4.7 41.7-6.6 7.2-1 14.5-.8 21.7-1.1 1.7-.1 3.7-.2 4.4 2 .7 2.4-.6 4-2.6 5-4.6 2.4-9 5-13.8 6.8-14.5 5.5-29.2 10.5-43.8 15.9-6.6 2.4-13.1 5.2-19.6 7.9-.2 0-.3.5-.6 1.3 9.5 1.2 19.1 1.4 27.7 5 1.6 3.8 0 6-2.7 7.6-3.2 2-6.5 3.6-9.5 5.8-6 4.2-11.8 8.8-17.8 13.1a16.3 16.3 0 01-4.4 2.5 3 3 0 01-2.7-1.2 3.3 3.3 0 01.5-2.9c.7-1 2-1.5 3-2.4a131.5 131.5 0 0125.1-17.6 17.5 17.5 0 001.8-1.4c-4.5-.9-8.4-1.7-12.4-2.3l-17.6-2.2c-1.5-.2-3-.4-3.3-2.2a3.4 3.4 0 012-4c3.7-1.7 7.3-3.5 11-5 13.8-6.1 28.1-10.7 42.4-15.7 8.1-2.8 16-6.2 24-9.4l-.1-1.1a44.4 44.4 0 00-6.8 0c-8 1.2-16 2.7-24.1 4l-34.7 5.3a27.2 27.2 0 01-6.3.2c-1-.1-2.6-.7-3-1.5-.8-1.5.3-2.6 1.6-3.5 2.6-1.7 5-3.6 7.5-5.4 15.7-12.3 31.7-24.2 47-37 8.8-7.4 16.4-16.2 24.5-24.5.3-.3.4-.8.8-1.8-3 1-5.7 1.4-8 2.6-9 4.5-18.1 8.6-26.4 14-9.4 6.4-18 13.9-27 21-4.4 3.4-8.6 7.2-13 10.6-1.3 1-3 1.5-4.7 2.2-1.9-3-.1-4.8 1.4-6.2 14.2-12.6 28-25.6 44.6-35 9.4-5.3 19.4-9.5 29.2-13.8 3.3-1.5 7-2.7 10.8-.8 1.9 4.8-1 8-3.7 11.1a316.6 316.6 0 01-54.1 48.6c-4.8 3.5-9.5 7.2-14.2 10.8a16.9 16.9 0 00-1.8 2.3z"/>
      <path d="M262.6 838.6l-.2-2c0-3 1-4.2 3.6-3.7a104.6 104.6 0 0110.2 3c1-2.2 1.6-5.7 3.6-7.3s5.5-1.3 8.4-1.3c4 0 4.7.8 6.3 5.4 2.5-3.8 7-2.9 10.5-4.2s7.4-1.9 11.1-2.9a12 12 0 0110.3 1.4c4.3-4 9.2-3 14-1.6 6.4 2 9.7 2.2 4.3 11l-.8 1.7c2.9.7 5.7 1.1 8.4 2 3 .8 3.9 3 2.6 5.8l-2.4 5.2c-.7 1.7-1.2 3.7.4 5.4 1.4 1.6 1.5 3.5-.2 4.7-1.4 1.1-3.1.8-4.8-.5a54.2 54.2 0 00-24.4-10.5l-2.4-.3a165 165 0 00-52 3.7c-6.5 1.7-13 3.2-19.4 5.2-2.3.7-4.3 2.7-6.4 4.1-1 .7-1.9 2-3 2.2a6.2 6.2 0 01-4.4-.6c-.7-.6-.5-2.5-.7-3.9-.1-1.5.1-3-.3-4.5-1.7-5.6-1.3-6.9 3.3-10.6.8-.7 1.2-2 1.6-3.1.2-.4 0-1 0-1.5.7-7 6.3-10.7 13-8.4 1.2.4 2.9 1.3 3 2.2.7 4 3.7 3.5 6.8 4zm70.9 8l5.8-14.4c-4.7-2.6-6.2-2.4-9.6 1a20.4 20.4 0 01-2.4 2.2c-2.7 1.9-4.7 1-5.6-2.3l-.7-2.4-16.5 4c-1.5.3-2.7.9-2.6 2.8a2.7 2.7 0 01-3.1 2.9c-3.9-.3-7.9-.7-10-4.5-1.3-2.3-2.7-3-5.6-1.9l-1.2 9.7c17.8-1.7 35-2.8 51.5 2.8zm-64.8-6.2l-1 1.7c-1.6 3.1-2.4 3.8-5.5 3-4.2-.8-8.5-1.8-11.7-5.1-1-1-1.8-2.3-3.1-1.3a4.1 4.1 0 00-1.4 3.2c.4 3.3 1.2 6.5 1.8 9.7l29.5-7c-3.3-1.8-5.1-4.4-8.6-4.2zm73.4.8h-1l-1.8 7.4 7 3.4 2-6.2c-2.1-1.6-5.8-.8-6.2-4.6zM622 959.8c-.6 2.8-2.5 3.4-5 3.3-8.6-.7-17.2-1.1-25.8-1.9-12.8-1.1-25.5-2.5-38.3-3.7l-14-1c-16.7-1.3-33.4-2.9-50.2-4-11.4-1-22.8-1.5-34.1-2-11.8-.5-23.5-.7-35.2-1-4.3-.2-8.7-.7-13-.7-7.4.1-14.7.4-22 .8a80.4 80.4 0 00-10.5 1.2c-2 .4-3.1-.2-3.4-2.2s1-3 2.7-3.3a85.2 85.2 0 0111-1 87.6 87.6 0 0021-2c2.2-.5 4.5-1.1 6 1.8.2.7 2.2.8 3.3.8 8 .1 15.8 0 23.7.2 14.3.5 28.6 1 42.8 1.8 12.2.7 24.3 1.8 36.5 2.8l36.4 3.3c11.5 1 23 2.3 34.4 3.4l19.7 2a12.6 12.6 0 003.7-.6c3.2-.7 6.5-1.8 9.8-2.1 5.2-.6 10.5-.7 15.8-.7a113.9 113.9 0 0111.5.6l28.8 3c2.2.2 4.4.8 6.6 1.2 1.6.3 2.5 1 2.6 3a3 3 0 01-2.8 3.2 10.8 10.8 0 01-4-.6c-2.1-.6-4-1.9-6.2-2-15.4-1.6-30.9-3.8-46.5-3.3l-5.3-.3zM344.3 1149a21.9 21.9 0 001.2-1.8c6.4-12.3 12.6-24.6 19.2-36.8 5-9.2 10.4-18 18-25.5 2.7-2.8 5.8-5 9.7-5.8 3.4-.7 5 .6 5.3 4a47.5 47.5 0 01-2.2 17.6c-1.5 4.6-2.7 9.2-4 13.9-.5 2-1.2 3.6-4.4 3.1a24.7 24.7 0 01.2-4l4.6-20.1c.5-2.7.7-5.4 1-8.5a12.2 12.2 0 00-7.1 4.3 128.4 128.4 0 00-16.7 24.1c-2.4 4.5-4.5 9.3-7 13.8l-16.4 31.1c-1.5 2.8-3.4 3.6-6.8 2.6-1-16.9-1.3-34-10.6-49.6a20.2 20.2 0 00-.6 3.4v29.5c.1 4.8 1 9.5 1.3 14.3l.6 16.4c0 3-1.4 4.3-4.3 3.5a19.5 19.5 0 01-6.2-3.4 59.4 59.4 0 01-5.4-5.2c.6 5 1.3 9.3 1.7 13.7.2 2.3-.1 2.3-3.2 4.2.1-9.5-6.9-17-5.8-26.8a6.9 6.9 0 017.3 1.4l7.6 6.6 3.4 2.8c-.3-5.5-.2-10-.8-14.3-2.1-14.4-1-28.9-1.2-43.4a27.5 27.5 0 011.5-9c1.4-4 4.7-4.5 7.1-1a54.5 54.5 0 015.9 11 84.2 84.2 0 015.3 25.4c.2 2.8.6 5.5.9 8.2zM119 1093.5l-2.8 19.3-.3 2.4c-.3 2-.1 4.5-2.4 5.4-2.7 1-5.6.7-7.7-1.5a80 80 0 01-8-10c-2-3-3.1-6.4-4.6-9.6a103.8 103.8 0 00-10.1-17.8l-1 .4 3.5 10.1a10.8 10.8 0 011 2.2 3.5 3.5 0 01-.4 2.6 3.2 3.2 0 01-2.7.5 11.6 11.6 0 01-2.9-1.6 112.3 112.3 0 00-26.6-12.3c-4.6-1.3-8.8-3.7-13.8-5.8a25.3 25.3 0 001.1 3.2c4.2 8.1 10.6 14.5 16.3 21.5 4.8 6 9.9 11.8 14.7 17.8.8 1 .9 2.5 1.3 3.8-5.7 2-9.6-1.7-14.2-2.6a22.6 22.6 0 012.6 2.1c1.4 1.6 1 4.2-.8 4.8a29.4 29.4 0 01-9 1.8l5.1-4.2a52.3 52.3 0 01-4.6-3.5 31.4 31.4 0 01-5.4-6 6 6 0 010-4.9c.9-1.7 3-.8 4.3-.3a39.5 39.5 0 014.7 2.4l6 3.1c-2-4.8-5-7.4-7.4-10.5-4.7-5.9-9.8-11.6-13.8-17.9-2.8-4.4-4.2-9.6-6-14.6-.3-.7.5-2.2 1.2-2.8a2.8 2.8 0 012.5.3c6.7 5.3 14.7 7.7 22.5 10.8 6.2 2.5 12.3 5.6 19 8.7a29 29 0 01-1.4-15.3c1.4.2 3 0 4 .7 2.4 2.2 5.1 4.4 6.8 7.2 3.1 5 5.6 10.5 8.1 15.8 2.9 5.8 5.5 11.7 10.7 16l2.4 1.7c1.8-5.6 1.3-11.1 2.5-16.3s2-10.8 2.9-16c4-1.3 4.9-.8 6.5 2.6a61 61 0 014.6 21.6c.5 8.6 0 17.3 0 26.5-1.4 0-3.3.3-3.7-.3-2-2.7-5.4-4.6-6-8.2 2.3-2.3 3.6.2 5.6.6.6-11.6.3-23-3.1-33.9zM232.2 987.5c.7 8.1-7.3 8.6-11.1 13.5H264.8c4.4.2 6 2.9 4 6.9a14.3 14.3 0 01-2.1 3.2 20.8 20.8 0 00-4.7 10.4c-.9 4.6-1.8 5.6-6.4 5.3-4.3-.3-8.6-1.3-12.8-2-11.9-1.8-23.8-3.4-35.6-5.8a173.1 173.1 0 00-25.3-2.9c-3.3-.1-4.6-2-3.4-5.3 2.6-6.9 5.5-13.7 8.4-20.4.4-1 1.9-1.6 3-1.9a18.8 18.8 0 014.7-.7l34.7-1a14.9 14.9 0 012.9.7zm-9.8 4.9l-30 .9-6.5 16.2 69.1 11 6.2-13.7h-42a20.5 20.5 0 01-3.9-.1c-3.4-.7-4.6-3.4-2.5-6a43.5 43.5 0 015.6-5.4c1-.9 2.2-1.6 4-2.9zM383.2 843c3.6-7 7.2-13.4 12.5-18.7 2-2 4-2.6 6.8-.5a54 54 0 005.8 30.2c3 .2 6.5-.6 9.2 2.3 1.7 7.4.1 13.8-5.9 19-2.3 2-4.5 4-6.9 5.9a17.3 17.3 0 01-11.7 3.5 42.3 42.3 0 00-6.8 0c-5.2.6-8.1-2.1-9.8-6.6a162.7 162.7 0 01-5.5-15.3c-2-7.4-4.4-14.8-4.4-22.6 0-4.6 2.6-8.2 5.2-11.5 1.9-2.5 4.4-1.9 6 1a55.4 55.4 0 012.2 5.4l3.3 7.9zm-9.1-4.8l-1.4.2a25 25 0 000 4.5 99.4 99.4 0 002.5 11.2c2 7 4.5 14 6.8 21a4.6 4.6 0 005.1 3.4c2.4-.1 4.8.4 7.2.5a8 8 0 003.2-.4 33.3 33.3 0 0014.3-12.5 6 6 0 00.7-6.3c-8-1.2-15.7 1-23.3 2-.6-4.5-.6-4.8 2.3-5.5 3.2-.8 6.4-1.3 9.4-1.9l-5.4-20-.9 1.5-7.2 14.1c-1 1.9-2 3.7-4.5 3.8s-3-2-3.7-3.7l-5.1-11.8zM245.9 937.5c-.3-4.2 0-4.9 3-4.8 10.4.4 20.9 1.6 31.3 1.3s20.2 3.1 30.4 4.1c2.4.3 2.4.2 2.3 3.5-5.9 1.6-11.6 0-17.4-1a107.2 107.2 0 00-11.4-1.5c-11.2-.5-22.5-.7-33.7-1l-4.5-.6zM482.3 988.6a31.2 31.2 0 00-11 7.5c-2.3 2.3-4.4 4.6-6.8 6.7a4 4 0 01-3.4.8 3.8 3.8 0 01-1.6-3 60.4 60.4 0 01.8-8.6 4 4 0 011.5-2.3 3.5 3.5 0 012.5-.6c.5.1 1 1.3 1 2l-.9 5.8c6.3-5.8 11.4-13.3 21.6-11.8a16.9 16.9 0 01.2 9.5c-1 4.3-2.4 8.6-3.6 12.9-.4 1.3-1.2 2.5-2.7 1.9a3.1 3.1 0 01-1.3-2.7c.5-2.8 1.3-5.6 2-8.3.8-3 2.5-6 1.7-9.8zM984 1240.1c.3-.1.7-.3 1-.6 6.3-11.5 13.7-22.5 17.5-35.3a69.1 69.1 0 003-15 83 83 0 00-3.6-33.4 91 91 0 00-15.7-28.5c-1.5-1.7-3.8-2.8-5.2-4.7a23 23 0 01-3.1-6.3c-.2-.4 1.3-2 2-2a6 6 0 013.7 1.6 110 110 0 0121.5 31.6c7.7 17 7.9 34.6 5 52.4-1 6.2-3.6 12.3-6.4 18-4.4 8.9-9.6 17.4-14.4 26-2.2 3.8-4 7.7-6.5 11.3-4.2 6-8.7 11.8-13.2 17.7-1.3 1.7-3.5 2.3-5 .8a5.9 5.9 0 01-1.2-4.8c.6-2.2 2-4.3 3-6.5 3.7-8.3 7.8-16.5 11.2-25 4-10 4.5-20.7 3.8-31.3a11.4 11.4 0 00-2.5-6 95.2 95.2 0 00-16-14.7 39.5 39.5 0 01-15.6-30.2c-.2-4.3-.8-8.6-1.2-13a70 70 0 01-.3-4.2 2.8 2.8 0 012.9-3.2c1.8-.1 2.9.8 3 2.9.5 5 1.4 9.8 1.6 14.8a35.4 35.4 0 0014.7 28.4A90 90 0 01984 1196a13.4 13.4 0 013.3 8.3 162.3 162.3 0 01-.2 18.3c-.6 6-2 11.8-3.2 17.5zM762.3 452.5c5.4-1.7 9.8-3.2 14.3-4.3a18.3 18.3 0 0010.3-6.5 10 10 0 014.3-3c5.3-2 10.8-3.7 16.3-5.7 8.1-2.8 16.3-5.7 23.2-11.6 1.6 3 3.7 1.8 5.7 1 4.2-1.6 8.2-3.5 12.4-5 6.5-2.5 13-4.7 19.6-7 7.4-2.4 15-4.5 22.3-7.3 5.4-2 10.5-5 15.6-7.5l34.3-17.3c.7-.3 1.7-.5 2-1 3-4.3 8-3.8 12-5.7l12.7-6c4.2-2 8.8-3.8 13.2-5.8l35-15c3.6-1.5 7.6-2.1 11.4-3.4 4.5-1.6 9-3.5 13.3-5.4a98 98 0 0116.5-4.8c8.2-1.8 16.2-5 24.2-7.6l11.4-3.7c2.3-.7 4.4-1 3.7 2.6 3.9 3.9 2.3 9.2 3.4 13.8s1.2 9.5 1.8 14.3c1.7 12.1 3.6 24.2 5.2 36.3 1.5 11.5 2.7 23 3.9 34.4 3.1 31.8 1.6 63.7 2 95.6v36.3l-.4 65.7-1 103v1.8c-.3 3.4-1.8 4.8-5 4a38.5 38.5 0 01-8.6-2.8c-16.8-8.5-35-13.7-52.8-19.4-13-4.1-26.5-7.3-40-10.2q-30-6.6-60.3-12.2c-12-2.2-24-3.6-36.2-5.2l-54.3-7.6c-17-2.5-34.2-5.3-51.3-7.7-4.2-.6-8.2-3-12.7-1.6-1.1.3-2.9-.6-4-1.4-2.9-1.9-6.1-2.4-9.3-3.2a44.5 44.5 0 01-7.8-2.7c-2.9-1.3-3-2.6-1.6-5.7 2.6-5.7 6-11.2 7.3-17.2 1.4-6.8 1-14 1.2-21 .2-5.5-.1-11-.3-16.5-.3-15.6-1.5-31-3.2-46.6-1.4-11.8-2.3-23.6-3.6-35.4-1.2-11.2-2.8-22.3-4-33.5-.9-8.3-1.4-16.6-2.1-25.3zm342.4 268.1l.3-3.5 1-100.5c.3-33.5.4-67 .3-100.5-.1-30.9 1.1-61.8-2-92.7-1-11-2.1-22-3.5-33l-7.1-52-1.8-14-10.2 3.9c-3.5 1.4-7.2 2.7-10.7 4.3-6.7 3.2-14.6 2.8-21 7.3a10.6 10.6 0 00-3.6 3.5c-4.9 9-6.5 19-8.5 29-1.8 9.3.8 18.1 4.9 26.4a35.5 35.5 0 007.3 9.4c3.8 3.6 8.3 6.6 12.3 10a5.3 5.3 0 011.5 3.4 24.1 24.1 0 01-.4 5.7c-.9 4.7-2.2 9.4-2.7 14.2-2.2 19.6-8.3 38.5-11 58-.2 1.3-1.7 2.8-3 3.3-1.3.7-2.7 0-3.9-1.6-7.1-9.7-14.6-19.2-21.8-28.9q-6.2-8.3-12-17c-1.7-2.6-3.5-5.2-3.7-8.6-.5-8.5-1.5-17-1.5-25.5 0-18.7.5-37.3.7-56l.2-5.3c.2-1.6.8-2.8 2.6-2.9 2 0 2.4 1.4 2.4 3l-.1 7.2c-.3 6.4-1 12.8-.8 19.2.4 17 1.2 33.8 1.9 50.7.2 6.5 1.6 12.5 5.8 17.8 6.6 8.3 12.6 17 19 25.5l8.4 11.1c7-22.7 9.2-45.7 13.8-68.3-3.5-3-6.7-6.1-10.4-8.7a31.6 31.6 0 01-11-14.1 47.2 47.2 0 01-5-17.5 87.3 87.3 0 014.3-28.9c1.2-3.7 2.2-7.4 3.4-11.6-30.4 9.4-58.3 23.7-87 36.5l1.8 5c2 5.7 4.3 11.2 5.8 17a64.6 64.6 0 011.6 14.1 209.3 209.3 0 01-.4 22.7 86.5 86.5 0 01-7.2 26.8c-.9 2-1.7 4.6-3.3 5.7a118.3 118.3 0 01-16.7 10.3c-10 4.7-20.4 8.5-30.4 13.1-15.5 7.1-32 11.1-48.2 16.4-3.6 1.2-6-1.3-5-5a30.1 30.1 0 011-3.7 238.2 238.2 0 0115-32.8c9.4-17 18.7-34 26.8-51.8l5.8-12.8-3.9 1.2c-6.3 2.7-12.5 5.6-19 8.1C861 419 846 424.7 831 430.3a5.9 5.9 0 00-4.3 5.6c-.6 7.4-1.7 14.7-2.4 22l-3 30.7c-.6 7.9-.8 15.7-1.3 23.6-.2 3.3-2.8 4.3-5.4 2.3a8.5 8.5 0 01-1.8-2.2c-5-8-10.3-15.8-15.2-24-3.2-5.2-6.1-10.8-8.9-16.4-3.4-7-6.5-14-10-21.3l-9 4c0 3 .6 5.8-.1 8-1.4 4.4-.6 8.6 0 12.8l2 14.3c2.1 18.4 4.4 37 6.3 55.4 1.3 13.1 2.7 26.2 3.3 39.4s.4 26 .4 39.1a35.6 35.6 0 01-3.5 16.3l-4.3 9.1 7 2 6.3 1.4c3-3.4 5.8-6.2 8.3-9.3 8-9.8 13.9-20.8 19-32.3 3-6.7 6-13.4 9.2-20 1.7-3.6 2.4-3.8 6.5-3 .6 1.3 1.2 2.8 2 4.2a41.7 41.7 0 015.7 24.5c-.3 2.6.1 5.2-.1 7.8-.7 7.8-1 15.7-3.8 23.2l-4.7 13.2 49.6 7.1c-2.5-4.6-1.3-8.8-1.5-13a2.7 2.7 0 01.8-1.6c3-3.3 5.8-6.9 9.2-9.8q15.2-13.7 30.8-27c4.3-3.7 9-6.7 13.6-10 1.6-1.2 3.6-1.7 4.8-.1.7 1 .7 3.1 0 4.3-2 4.3-4.7 8.3-6.6 12.7-2.6 6-4.2 12.2.5 18.2a8.7 8.7 0 01.8 2.2c4 9.9 8.4 19.5 16.8 26.5 1.5 1.3 2.6 2.7 1.4 4.5s-3.3.7-4.9.1c-.7-.2-1.2-1-1.8-1.5a48.6 48.6 0 01-10.3-13.8c-3.4-6.4-6.4-13-9.5-19.5a12.6 12.6 0 01-1.2-4.6c-.1-3.8-.3-7.7 1.3-11.4.3-.9.3-2 .5-3.8l-5.1 4.3c-6.4 5.7-12.6 11.6-19.1 17-5 4.3-10 8.4-14.2 13.6-1.5 1.9-2.3 3.6-1.9 5.7.6 2.7.4 5.1-2.2 7.2 37 4.6 73.4 9.9 108.3 17.2l4.7-3.7c2.9-2 6-3.8 8.7-6a68.2 68.2 0 0019.9-25.7c3.6-8 6.5-16.4 6.1-25.5-.3-9.9 0-19.7 0-29.5 0-1.9-.6-4.1 1.7-5.1 2.6-1.2 3.8 1 5.2 2.5l7.1 8.4a157.7 157.7 0 0123.5 34.5 185.6 185.6 0 0113.3 35c1.5 5.8 1.7 12 2.5 18 .4 2.7-.8 4.6-2.6 6.4-3.6 3.8-7 7.8-10.5 11.7zM946.3 382l-8.5 3.8L909 399a5.2 5.2 0 00-2.5 2q-3.7 8-7 16.2c-7.8 18.5-17.8 35.8-27 53.5-4 7.3-7.7 14.8-11.1 22.3-1.3 2.7-2.7 5.7-2.6 9.2 5.5-1.6 10.6-2.8 15.6-4.6 9.5-3.3 19-6.7 28.4-10.4 8.5-3.3 16.9-7 25.1-10.9a172.3 172.3 0 0015.3-8.8c1.3-.8 2.8-1.9 3.4-3.2a115.5 115.5 0 006-15.2c2.7-9.8 2.6-20 3-30.1.6-13.4-4.8-25-9.3-37.1zm116.1 322c3.8-4.3 7.6-8.7 11.5-12.9 1.4-1.5 2.3-3 2-5.2-.4-3-.7-6-1.4-9a181.6 181.6 0 00-9-27.3A146 146 0 001041 609l-6.3-7v22.8a66.5 66.5 0 01-12.8 38 76.5 76.5 0 01-24.8 23.6zM784.4 448c2.6 11.2 23.8 49.1 29.5 53.1l6.4-66.8zm9.4 206.2a273.6 273.6 0 0030.5 5.4c2.2-7 4.8-13.5 6.2-20.2a129.2 129.2 0 002.3-25.3c0-6.2-2-11.5-4.8-17.5-5 10.4-9.7 20.4-14.7 30.1a111.8 111.8 0 01-19.5 27.5z"/>
      <path d="M743 1009c4-10 5.8-19.6 7.7-29.2.5-2.5 2-4.8 2.5-7.2a152.2 152.2 0 002.2-16.2c.4-5 0-10 .1-15 .2-6.8-.1-13.5-3.1-20.4l9.5-6.4c5.9-4.2 11.5-8.7 17.5-12.7 7.5-5 15.2-9.6 22.8-14.3l10.3-6.1L827 873c11.7-7 23.4-14 35.2-20.7 7.3-4.1 14.8-7.8 22.2-11.6l20.2-10c6.5-3.3 12.9-6.7 19.4-9.8 5.6-2.6 11.3-5 17.4-7.7 2.5 4.2 5.1 8.1 7.3 12.3 8.4 16.2 16.7 32.3 24.8 48.6a36 36 0 014.3 18c-.2 3.1.3 6.2-2.5 8.5-.5.5-.5 1.5-.9 2.2l-4.7 9c-6.3-.5-11.6 0-16 3.6s-9.5 5.4-14.6 7.3a133.8 133.8 0 00-28.8 15.2 354.5 354.5 0 01-29.3 17.7c-10.7 6-22 11.1-32.7 17.2a144.3 144.3 0 01-27.8 11.8c-5.9 1.9-12 3.4-18 5l-2.2.8-27.8 9.2c-9.5 3.2-19.1 6-29.5 9.3zM1124.1 962.4a62.5 62.5 0 01-7.7-3c-10.8-6-22.1-10.8-33.5-15.4a16.6 16.6 0 01-3.5-1.7 81 81 0 00-14.1-8c-9-4-18-8.5-26.8-12.9-1.8-.9-3.3-2.4-5.2-3.8a108.6 108.6 0 0132.2-17.8 11.4 11.4 0 013.8-.3c7.1 0 14.2-.2 21.3 0a55.7 55.7 0 0116.8 3.3 108.7 108.7 0 0118.1 8.7c3.7 2 6 4.7 6 9.4a132.4 132.4 0 01-5 32.7l-2.4 8.8zM722 1013c-9.3-.4-18.4-.8-27.5-1-4.3-.2-7.3-4-8-7.8a40 40 0 013.7-26.6 83.5 83.5 0 0122.6-27l13.7-10.5a21.4 21.4 0 013-1.6 20.1 20.1 0 01-.8 3.8 64.3 64.3 0 00-5.7 24.2c-.5 7.5-.6 15-1 22.5-.2 4.8-.5 9.6-.5 14.4 0 3 .3 5.8.5 9.5z" class="cls-1"/>
      <path d="M748 925c.8 3.2 2.2 6.3 2.3 9.4.3 8.3 0 16.7-.1 25 0 2.4-.6 4.4-2.8 5.9-1 .7-1.5 2.3-1.8 3.6-.5 2.4-.4 4.8-.9 7.2-.5 2.5-1.4 5-2.3 8 0 1.4.4 3.6-.1 5.6a137.6 137.6 0 01-4.5 14.2c-2 5.3-2.8 5.5-8.3 4-.5 0-1-.2-2-.6v-11.6c0-5 .5-10 .5-15a113.3 113.3 0 014.3-30.8c1.7-6.1 4.5-12 7.2-17.8a13.4 13.4 0 018.5-7.2zM873.6 967.2c8.3-4.8 15.9-8.8 23.2-13.2 7-4.3 13.8-8.7 20.6-13.3a115.2 115.2 0 0127-13.3 53.6 53.6 0 0011.5-5.8c1.3-.8 2.7-1.4 4-2l.6 1-11.9 10.2-41.4 34.5a9.2 9.2 0 01-7.8 2.4c-6.6-.8-13.5-.4-20.2-.5h-5.6zM563.4 529l4.6 12.7a177.6 177.6 0 0034.6 57.8c6.8 8 13.7 15.7 20.6 23.5 9.7 11 19.1 22.2 29.3 32.6 7.8 8.1 16.6 15.2 24.8 22.9 7.2 6.6 14.1 13.5 21.9 20.9a48.5 48.5 0 01-6 1.7 277 277 0 01-30.7 2.3c-24.5.5-48.7 2.3-72.7 7.3-8.7 1.8-17.2 4-25.6 6.6A149.4 149.4 0 00538 728a47.9 47.9 0 00-15.5 11.9c-1.6 1.8-3.5 3.3-4.8 5.3-6.3 9.6-5.1 19.6-1.2 29.5a85.4 85.4 0 0015.8 24.6 171.8 171.8 0 0119 27.2c4.3 7.5 9.3 14.6 14 21.9l1.7 2.8c-3-.5-5.2-.8-7.4-1.4-9.7-2.6-19.4-5.4-29.2-7.7-7-1.6-14.2-2.3-21.3-3.7-8.2-1.6-16.3-3.6-24.4-5.5l-22.8-5.4a22.6 22.6 0 00-6.7-.3c-9.2.8-11.7-1.3-11.6-11.3 0-6.4-.8-12.8-1.5-19.2-.2-1.8-1.2-3.5-1.9-5.3l-1.2-.1c1.8-4 3.6-8.2 5.6-12.2 5.6-11.3 12-22.3 16-34.4 1.8-5.6 3-11.4 4.7-17 2.7-8.7 4.7-17.9 8.8-26a240.2 240.2 0 0125.6-41.3 121.5 121.5 0 0010.7-16.5 442 442 0 0014-27c3.4-7.3 6.1-15 9.2-22.6l7.6-18.7c2.3-5.9 4.2-11.8 6.6-17.6s5.1-11 7.9-16.4c1.7-3.3 3.6-6.5 5.5-9.6a36.5 36.5 0 012.2-3zM186.6 824.2c-5.4-.3-10.8-.4-16.3-2.3 2.2-8.8.7-17.3-.3-26a19.9 19.9 0 0111.2-2.7 11.9 11.9 0 002.3 0c2-.2 4-.6 4-3.2s-2.3-2.8-4.3-2.8l-3.3-.3c1-5.2 2.5-10.1 3-15.2 1-12 4.6-23.2 7.9-34.6a44.7 44.7 0 001.7-12.4c0-15.3-.1-30.5-1-45.8-.4-7.6-2.6-15-4.2-22.6-1.5-7.7-3.1-15.4-4.8-23a125 125 0 00-3.6-13c-2.8-8-6-15.8-8.7-23.8l-20.4-58.7c-1.7-5-3.8-9.8-5.5-14.8-1.3-3.6-2-7.4-3.1-11l1-.5c3 4.8 6 9.4 8.7 14.4s4.7 10.5 7.7 15.4c4.7 7.5 9.8 14.6 15 21.7 7.5 10.3 15.5 20.2 19.7 32.3a10.5 10.5 0 01.8 2.3c.8 8.7 5.7 15.9 8.5 23.8 2.4 7.1 4.8 14.3 6.6 21.6a144.9 144.9 0 014 22.7 204 204 0 01.3 28c-.8 13.2-2 26.5-3.7 39.7-.8 7-3 13.8-4.2 20.7-3.6 19.2-9.9 37.6-14.9 56.3-1.2 4.4-2.6 8.8-4.1 13.8zM366.7 801a23.9 23.9 0 01-24.4-23.2 99.8 99.8 0 01.2-20.6 43 43 0 0113.6-26.3 24.6 24.6 0 0123-6.2c10.8 2 17.3 10 18.5 21 .8 7.4-.2 14.6-.8 22-.3 3.2-3.8 4.1-3.8 6.8s.1 5.2-1.2 7.7a53.6 53.6 0 01-12.4 15.8c-3.8 3.2-8.2 3.2-12.7 3zm10.2-49c-3.5-.3-4.3-.2-4.3 1.4a67 67 0 00.7 8.9 2.5 2.5 0 003 2.3c2-.3 2.1-2 2-3.7l-1.4-8.8z" class="cls-1"/>
      <path d="M563.9 512.7c-2.2 7.8-6.5 14.5-10.4 21.5-3.6 6.4-7.4 12.7-10.3 19.4-6.4 15.3-12.3 31-18.5 46.4a440.8 440.8 0 01-22.4 45.7c-2.9 5.2-6.8 9.8-10.1 14.7-5 7.5-10 15-14.8 22.6-2.3 3.6-4 7.6-6.3 11.3a69.4 69.4 0 00-7.7 18c-3.2 10.8-5.8 21.7-9.4 32.3-2.4 7.2-6 14.1-9.4 21-4.2 8.3-9.4 16-11.7 25.9l-4.6-3.5c1.6-11 5.1-21 9-30.8 9.8-25.4 20-50.7 31.8-75.2 4.7-9.7 8.3-19.8 12.6-29.7 4.5-10.6 9.3-21 14-31.6a76.7 76.7 0 003.8-9.3 9 9 0 00-.3-5.9 3.3 3.3 0 01.2-3.5c3.6-6 6.9-12.4 11-18 9-12.2 18.5-24 27.5-36.1 6.4-8.5 12.1-17.4 18.3-26 2.3-3.2 5-6.2 7.6-9.2zM273.6 768.9c-.6-16 5.5-29 16.8-40 5.7-5.7 12.4-6.6 19.9-5.2S322 730 324.7 737c3.7 9.2 3.3 18.4.8 27.8a56 56 0 01-12.6 24c-7.6 8.3-22.5 8.3-29.8 3.7-5.6-3.5-9-8.5-9.5-15.3-.2-2.7 0-5.5 0-8.2zm36.6-4v-13.6c-4-.8-6.2.5-6.2 4.2 0 2.4 1 4.9 2 7.1.5.9 2 1.2 4.2 2.3zM242.3 799.8a33 33 0 01-15.3-2.4c-11.8-6-13.2-12.9-13-23.9a45.2 45.2 0 01.6-4.8c1.3-10.7 4.6-20.6 13.3-27.8 7.3-6.1 15.5-6.2 23.8-2.5a9.4 9.4 0 013.8 3c3.6 5 7.6 9.7 8 16.5.5 11 .6 21.9-4.7 31.9-1.8 3.1-4.5 5.8-7 8.3s-6.5 1.5-9.5 1.7zm5.4-44.5c-4.1-1.2-4.8-.8-4.8 2.5a30.6 30.6 0 00.6 5.7c.6 3.4.7 3.4 5.4 3l-1.2-11.2zM344.2 993c-1.4 3.7-2.5 6.3-3.3 9-1.4 4.9.2 7.3 5.2 7.4 10.3.3 20.6.4 30.9.1a110.4 110.4 0 0018.6-2c6.6-1.4 8.7-.5 10.9 7-2.5.4-5 .8-7.4 1l-34 2.9-34.5 3.2c-3.6.4-7.3.6-11 .7a31.5 31.5 0 01-5-.7c-1.6-8.6-4-16.6-3-25.2 10.3-5.3 21.3-2.8 32.6-3.4zM415.4 655.3c-3-5.3-5.6-10.8-9-15.8-4.2-6.4-10.2-8.5-16.2-5.8a43 43 0 00-9.4 5.7c-9 7.3-18.2 14.3-25.2 23.7a2.4 2.4 0 01-1.5.8 98.3 98.3 0 019.2-16.6c8.7-13 19.3-24.4 30.3-35.5 3.8-3.9 5.3-3.6 9 .3 5.9 6.5 8 14.6 10.3 22.6a115.5 115.5 0 012.5 13.2c.4 2.5.4 5 .6 7.6zM243.1 729.9c-13.8-1.2-21.6 7.5-29.5 17.8 1-7 2-12.7 3-18.5 0-.3 0-.8.2-1 3.6-1.6 3.4-6.1 6.4-8.3s5.6-4.8 9-7.7c1.1 7.8 4.1 13.9 11 17.7zM234 703.6c5.3-5.5 10-10.6 18.3-11.3 0 4.2.8 8-.2 11.4-1.9 6.8-3.3 13.6-2.7 20.8-8.2-3.1-10.5-6.4-10.6-14.7-.1-4.7-.1-4.8-4.8-6.1zM198.8 954a7.2 7.2 0 007.2-1.2 53.2 53.2 0 0136.1-8.8c-1.3 1.2-2 2.3-3 2.7-4.5 2-9 4.1-13.7 5.4-7 2-14.3 3.6-21.5 5-2.9.6-6 .1-9.5.1 3.7-7 6.8-13.9 12.1-19.3.6-.6 1.6-.6 3.5-1.3-4.6 6-10.2 10.1-11.2 17.4zM324.2 981.9l6-3.7 9.6-5.5 8.3-4.8a3.2 3.2 0 011.3-.6c2 0 4.3-1 5.8 1 1.2 1.6.4 5.6-1.4 7-8.4 6.8-17.4 11-29.6 6.6zM200 962.2l5 .3-4.3 8.7c-.4 1-.6 2.8 0 3.5s2.2 1 3.4.9a72.9 72.9 0 007.5-1.7c3.7-.9 7.4-2.1 11.1-2.6a33.6 33.6 0 0110.4.5l-3.5 1.6-9.7 4.3a33.9 33.9 0 01-16.3 3.3c-5.7-.3-9.3-4.6-7.6-10.1.8-3 2.6-5.7 4-8.7zM206.2 930.5a48.4 48.4 0 01-4.6-3.1c-2.6-2.3-2.8-3.8-.2-6.3a31.7 31.7 0 016.3-4.3 37.5 37.5 0 0121.8-4.8c-3.3 1.3-6.8 2.4-10 3.9a51.3 51.3 0 00-9.7 5.1 8.6 8.6 0 00-3.6 9.5zM333.6 953.1a31 31 0 0126.2-9.7 40 40 0 01-26.2 9.7zM455.8 696.2l-5.7 11.7c-4.2-4.6-7.1-9-6.3-15.2 4.6-.6 8.6-.4 12 3.5zM341 916c-2.5 5.5-8.4 8.7-10 15.3h-10.8c5.4-8 13-11.6 20.8-15.3zM309.2 706l21.4-23.5c.4 3.4.5 6.6-1.6 9.2a46 46 0 01-19.8 14.3zM208.8 931.2l.5-.8c5 0 9-2.8 13.5-4.2a25 25 0 0114 .3 46 46 0 01-28 4.7zM228.2 678c-1.1 4.9-4.8 6.5-7.8 9.7-1.1-3.7-.4-6.5-.8-9.6zM358 924.9a39.8 39.8 0 01-18.2 5 39.2 39.2 0 0118.1-5zM190.4 851.9l4.4-7.8 3.3 1.8c-2.1 2.3-2.3 6.4-7.7 6zM331.5 938.2l-8.9 12c.3-5.7 3.8-10.7 9-12zM333.5 846.5c-16.4-5.6-33.7-4.5-51.5-2.8l1.2-9.7c2.9-1 4.3-.4 5.6 1.9 2.1 3.8 6.1 4.2 10 4.5a2.7 2.7 0 003-3c0-1.8 1.2-2.4 2.7-2.8l16.4-3.9.8 2.4c.9 3.3 2.9 4.2 5.5 2.3a20.4 20.4 0 002.5-2.3c3.4-3.3 4.9-3.5 9.6-.9l-5.8 14.3zM268.7 840.4c3.5-.2 5.3 2.4 8.6 4.1l-29.5 7c-.6-3.1-1.4-6.3-1.8-9.6a4.1 4.1 0 011.4-3.2c1.3-1 2.2.3 3.1 1.3 3.2 3.3 7.5 4.3 11.7 5.2 3.1.7 3.9 0 5.5-3.1l1-1.7zM342.1 841.2c.5 3.8 4 3 6.3 4.6l-2.1 6.2-7-3.4 1.8-7.3zM222.4 992.4c-1.8 1.3-3 2-4 3a43.5 43.5 0 00-5.5 5.2c-2 2.7-1 5.4 2.5 6a20.5 20.5 0 003.9.2h42l-6.3 13.6-69-11 6.3-16.1zM374 838.3l5.2 11.8c.7 1.7 1.1 3.7 3.7 3.6s3.6-1.8 4.5-3.7l7.2-14c.2-.5.5-1 1-1.6l5.3 20c-3 .6-6.2 1.1-9.4 1.9-2.9.7-3 1-2.3 5.6 7.6-1 15.3-3.3 23.3-2a6 6 0 01-.7 6.2c-3.8 5.3-8.1 10-14.3 12.5a8 8 0 01-3.2.4c-2.4 0-4.8-.6-7.2-.4a4.6 4.6 0 01-5-3.5c-2.4-7-4.8-13.9-7-21a99.4 99.4 0 01-2.4-11.2 25 25 0 010-4.5zM1104.7 720.6l-35.9-14.3c3.5-3.9 7-7.9 10.5-11.6 1.8-2 3-3.8 2.6-6.5-.8-6-1-12.2-2.5-18a185.6 185.6 0 00-13.3-35 157.7 157.7 0 00-23.5-34.4c-2.4-2.8-4.6-5.7-7.1-8.5-1.4-1.4-2.6-3.7-5.2-2.5-2.3 1-1.7 3.2-1.7 5 0 10-.3 19.8 0 29.6.4 9.2-2.4 17.6-6 25.5a68.2 68.2 0 01-20 25.7c-2.7 2.2-5.8 4-8.7 6l-4.6 3.7a1327 1327 0 00-108.4-17.2c2.6-2 2.8-4.5 2.2-7.2-.4-2.1.4-3.8 1.9-5.6 4.1-5.2 9.2-9.4 14.2-13.6 6.5-5.5 12.7-11.4 19.1-17l5.1-4.4c-.2 2-.1 3-.5 3.8-1.6 3.7-1.4 7.6-1.2 11.4a12.6 12.6 0 001.1 4.6c3.1 6.6 6 13.2 9.5 19.5a48.6 48.6 0 0010.3 13.8c.6.5 1.2 1.3 1.9 1.5 1.5.6 3.4 1.9 4.8 0s.2-3.3-1.4-4.6a63 63 0 01-16.7-26.5 8.7 8.7 0 00-.9-2.2c-4.7-6-3-12.2-.5-18.2 1.9-4.4 4.7-8.4 6.7-12.7.6-1.2.6-3.4-.1-4.3-1.2-1.6-3.2-1-4.8 0-4.5 3.4-9.3 6.4-13.6 10q-15.6 13.3-30.8 27c-3.3 3-6.2 6.6-9.2 10a2.7 2.7 0 00-.8 1.6c.2 4.1-1 8.3 1.5 13l-49.5-7.2 4.6-13.2c2.8-7.5 3.1-15.4 3.8-23.2.2-2.6-.2-5.2 0-7.7 1-8.9-1.5-16.9-5.6-24.5-.8-1.4-1.4-3-2-4.4-4-.6-4.8-.5-6.5 3l-9.2 20.1c-5 11.5-11 22.5-19 32.3-2.5 3-5.3 6-8.3 9.4l-6.3-1.5c-2.3-.5-4.6-1.3-7-2l4.3-9a35.6 35.6 0 003.5-16.4c0-13 .2-26-.4-39.1s-2-26.3-3.3-39.4c-2-18.5-4.1-37-6.3-55.4l-2-14.3c-.6-4.2-1.4-8.3 0-12.7.7-2.2.1-5 .1-8l9-4.1c3.5 7.4 6.6 14.4 10 21.3 2.8 5.6 5.7 11.2 9 16.5 4.8 8.1 10 16 15.2 24a8.5 8.5 0 001.7 2.1c2.7 2 5.2 1 5.4-2.3.5-7.8.8-15.7 1.4-23.6.8-10.2 1.8-20.4 2.9-30.6.7-7.4 1.8-14.7 2.5-22a5.9 5.9 0 014.3-5.7c15-5.6 30-11.2 44.9-17 6.4-2.5 12.6-5.5 19-8.2l3.8-1.2L893 417c-8 17.6-17.4 34.7-26.7 51.7a238.2 238.2 0 00-15 32.8 30.1 30.1 0 00-1.2 3.6c-.8 3.8 1.5 6.4 5.1 5.2 16.1-5.4 32.7-9.3 48.2-16.4 10-4.6 20.5-8.5 30.4-13.2a118.3 118.3 0 0016.7-10.3c1.7-1.1 2.4-3.7 3.3-5.7a86.5 86.5 0 007.3-26.8 209.3 209.3 0 00.4-22.7 64.6 64.6 0 00-1.7-14.3c-1.5-5.7-3.8-11.2-5.8-16.8l-1.8-5c28.7-12.9 56.6-27.2 87-36.6-1.2 4.2-2.2 8-3.4 11.7a87.3 87.3 0 00-4.2 28.9c.1 6.2 2.4 11.8 4.8 17.4a31.6 31.6 0 0011.1 14.2c3.7 2.5 7 5.7 10.4 8.7-4.6 22.5-6.8 45.6-13.8 68.2l-8.5-11c-6.3-8.5-12.3-17.2-18.9-25.5a29.2 29.2 0 01-5.8-18c-.7-16.8-1.5-33.6-1.9-50.5-.2-6.4.5-12.8.8-19.3V360c0-1.6-.3-3-2.3-3-1.8 0-2.4 1.3-2.6 3l-.2 5.2c-.2 18.7-.7 37.3-.7 56 0 8.5 1 17 1.5 25.5.2 3.4 2 6 3.8 8.7q5.7 8.6 12 17c7.1 9.6 14.6 19 21.7 28.8 1.2 1.6 2.6 2.3 4 1.7 1.2-.6 2.7-2 3-3.3 2.6-19.5 8.7-38.4 11-58 .4-4.9 1.7-9.5 2.6-14.3a24.1 24.1 0 00.4-5.7 5.3 5.3 0 00-1.5-3.4c-4-3.4-8.5-6.4-12.3-10a35.5 35.5 0 01-7.3-9.4c-4.1-8.2-6.7-17-4.9-26.4 2-9.9 3.6-20 8.5-29a10.6 10.6 0 013.6-3.4c6.4-4.6 14.3-4.2 21-7.3 3.5-1.7 7.2-3 10.7-4.4l10.2-4c.6 5 1.1 9.6 1.8 14.2 2.3 17.3 4.8 34.6 7 52 1.5 11 2.6 22 3.7 33 3 30.8 1.8 61.7 1.9 92.6l-.3 100.6c-.2 33.6-.7 67-1 100.5l-.3 3.4zm-78.4-173a50 50 0 00-.1-7.3 3.5 3.5 0 00-2.4-2.4c-.8 0-2 1.3-2.5 2.2-.7 1.4-.6 3.3-2.8 3.5-3.8.2-7.6.5-11.3-1.1a147.2 147.2 0 01-30.3-18.4c-8.5-6.4-17-12.6-24-20.7a4.6 4.6 0 00-3.8-1.2c-.7.2-1.6 2-1.7 3a34.3 34.3 0 00.3 8.2 54 54 0 0017.2 31.5l3.1 3c-1.9 1.6-4 3-5.4 4.8a44.5 44.5 0 00-9.9 21.1c-1 7.6-.7 15.2 4.8 21.5 4 4.4 7.5 9.1 11.7 13.4 6.2 6.4 16.8 6.3 23-3.1a49.3 49.3 0 007.8-26.9c.1-7.1 1-14.3-1.4-21.2a8.7 8.7 0 011.3-.4h3c9.3.4 18.5-.3 27.1-4.5 1.5-.7 3.4-.7 5-1s4.8-3 5.2-4.5a2.8 2.8 0 00-2.5-3.4 8.6 8.6 0 00-3.2.7c-2.8 1-5.6 2.2-8.2 3.3zm-163 13L861 562c-2.5 1.7-5.5 2.8-7 5.8-1.7 3.6-3.6 7.2-3.8 11.3-.2 5-.2 10-.2 14.9 0 4 1.7 7.3 3.6 10.8 3 5.5 10.7 6.8 14.8.1a63.8 63.8 0 0010-24.7c1.5-9.5 1.7-18.8-4.2-27.4l3-2.9c5.1-5 9.5-10.8 10.2-18s.4-14.5.5-21.8c0-1.7-.3-3.2-2.6-3.3-1.8 0-3.1.9-3.2 2.8-.4 5.5-3.6 9.5-6.7 13.6a196.2 196.2 0 01-30.8 32.3c-4.4 3.6-8.4 4.8-13.6 3-.7-.3-2-.5-2.3 0-1.5 2-3.6 1.4-5.6 1.5-4.3.2-4.8.8-3.3 5.3 10.5 1.1 13 3.2 43.6-4.7z" class="cls-1"/>
      <path d="M946.3 381.9c4.5 12.1 10 23.7 9.3 37-.5 10.2-.4 20.3-3.1 30.1a115.5 115.5 0 01-6 15.2c-.5 1.3-2 2.4-3.4 3.2a172.3 172.3 0 01-15.3 8.9c-8.2 4-16.6 7.5-25 10.9-9.4 3.7-19 7-28.5 10.4-5 1.7-10 3-15.5 4.5-.2-3.5 1.2-6.4 2.5-9.1 3.5-7.6 7.2-15 11-22.4 9.4-17.6 19.4-35 27-53.4q3.5-8.2 7.2-16.2a5.2 5.2 0 012.5-2l28.8-13.3 8.5-3.8zM1062.4 703.9L997 686.4a76.5 76.5 0 0024.9-23.5 66.2 66.2 0 0012.7-38.2V602c2.6 3 4.6 5 6.4 7a146 146 0 0124.6 40.6 181.6 181.6 0 019 27.3c.7 3 1 6 1.4 9 .3 2.1-.6 3.7-2 5.2-4 4.2-7.8 8.6-11.6 12.9zM784.5 448l35.8-13.7-6.4 67c-5.7-4-26.9-42-29.4-53.2zM793.8 654.3a111.8 111.8 0 0019.5-27.5c5-9.7 9.6-19.7 14.7-30.1 2.7 6 4.8 11.3 4.8 17.5a129.2 129.2 0 01-2.3 25.3c-1.4 6.7-4 13.2-6.2 20.2a273.6 273.6 0 01-30.5-5.4z" class="cls-1"/>
      <path d="M376.9 752l1.4 8.9c.2 1.6.1 3.3-2 3.7a2.5 2.5 0 01-3-2.3 67 67 0 01-.8-9c0-1.5.9-1.7 4.4-1.2zM310.2 764.9c-2.1-1.1-3.7-1.4-4.1-2.2-1-2.3-2.2-4.8-2.1-7.2 0-3.7 2.1-5 6.2-4.2zM247.7 755.3l1.2 11.1c-4.7.5-4.8.5-5.4-3a30.6 30.6 0 01-.7-5.7c0-3.2.8-3.6 5-2.4zM1026.3 547.6l8.3-3.2a8.6 8.6 0 013.2-.7 2.8 2.8 0 012.5 3.4c-.4 1.6-3.5 4.3-5.2 4.5s-3.5.3-5 1a56.4 56.4 0 01-27.2 4.5h-3a8.7 8.7 0 00-1.3.4c2.4 6.9 1.6 14 1.5 21.2a49.3 49.3 0 01-7.9 27c-6.2 9.4-16.7 9.5-23 3-4.1-4.3-7.7-9-11.7-13.4-5.4-6.3-5.8-13.9-4.7-21.4 1-8 5-15 9.8-21.2 1.4-1.8 3.5-3.1 5.5-4.8l-3.2-3a54 54 0 01-17.2-31.5 34.3 34.3 0 01-.2-8.1c0-1.1 1-2.9 1.6-3a4.6 4.6 0 013.8 1.1c7 8.1 15.6 14.3 24 20.8a147.2 147.2 0 0030.3 18.3c3.7 1.6 7.5 1.3 11.4 1 2.1 0 2-2 2.8-3.3.5-1 1.6-2.3 2.5-2.2a3.5 3.5 0 012.3 2.3 50 50 0 010 7.4zM994 573.1c0-2.6.2-5.2 0-7.7-.5-6.6-2.3-8.4-8.6-9.4a32.8 32.8 0 01-6.8-2.2c-5-2-8.2-1.6-11.5 2.4a33.6 33.6 0 00-8.5 17.5c-.5 5-1.3 10.3 1.7 15a73.9 73.9 0 006.5 9 59.8 59.8 0 008.7 8.2c3.3 2.5 6 2 9-1a20.8 20.8 0 002.7-3.4c5.6-8.5 7-18.3 6.8-28.4zm17.1-21.8l.2-1a18.8 18.8 0 00-2.4-.9c-1.3-.2-2.7 0-3.8-.6a143.3 143.3 0 01-14.5-7.3 229.2 229.2 0 01-34-25 11.4 11.4 0 00-2.2-1.2 47.7 47.7 0 0020.7 30.2c1.7 1.2 4 1.7 6 2.4 2.6-4.8 4.6-5.1 8.2-1.8a27.2 27.2 0 013.4 3.5 4 4 0 003.6 1.8c4.9-.2 9.9-.1 14.8-.1zM863.3 560.6c-30.6 8-33 5.8-43.6 4.7-1.4-4.5-1-5.1 3.3-5.3 2 0 4.2.6 5.7-1.6.2-.4 1.6-.2 2.2 0 5.2 2 9.2.7 13.6-2.9a196.2 196.2 0 0030.9-32.3c3-4 6.3-8.2 6.6-13.7.1-1.9 1.4-2.7 3.3-2.7 2.2 0 2.6 1.6 2.6 3.3-.1 7.2.2 14.5-.5 21.7s-5.1 13-10.2 18.1l-3 3c5.8 8.5 5.6 17.7 4.2 27.3-1.4 9-5.3 17.1-10 24.7-4.2 6.7-11.8 5.4-14.9-.1-1.9-3.5-3.6-6.8-3.6-10.8 0-5 0-10 .3-15 .2-4 2-7.7 3.8-11.3 1.4-2.9 4.4-4 7-5.7l2.3-1.4zm-2.4 43.2c8-5.8 16-33.5 10.5-42.4-2.7 1.8-6 2.8-7.2 6.3-.2.6-1.2 1.5-1.7 1.4-3.2-.4-4 2-5 4.1a37.1 37.1 0 00-1.7 23.6 10.1 10.1 0 005.1 7zm-7.6-47.3l6.7-2.3c1.8-.7 3.6-1.3 3.7-3.8a2.6 2.6 0 013.4-2.5c2.3.9 3.5-.4 4.6-1.6 2.4-2.7 5-5.4 6.9-8.6 1.9-3.3 3.5-7 2.8-11.2z"/>
      <path d="M994.1 573.1a49.4 49.4 0 01-6.9 28.6 20.8 20.8 0 01-2.6 3.3c-3 3-5.7 3.5-9 1a59.8 59.8 0 01-8.8-8.2 73.9 73.9 0 01-6.4-9c-3-4.7-2.3-10-1.7-15 .7-6.7 4.2-12.4 8.5-17.5 3.3-4 6.4-4.4 11.4-2.3a32.8 32.8 0 006.9 2.1c6.2 1 8.1 2.9 8.6 9.4.2 2.4 0 5 0 7.6zM1011.2 551.3h-14.9a4 4 0 01-3.6-1.8 27.2 27.2 0 00-3.4-3.5c-3.5-3.3-5.6-3-8.2 1.8-2-.7-4.2-1.2-6-2.4a47.7 47.7 0 01-20.7-30.1 11.4 11.4 0 012.2 1.1 229.2 229.2 0 0034 25 143.3 143.3 0 0014.5 7.3c1.1.5 2.5.4 3.8.6a18.8 18.8 0 012.4 1v1zM861 603.8a10.1 10.1 0 01-5.2-7 37.1 37.1 0 011.7-23.6c1-2.2 1.8-4.5 5-4 .5 0 1.4-.9 1.7-1.5 1.2-3.6 4.5-4.5 7.2-6.3 5.6 8.9-2.4 36.6-10.5 42.4zM853.3 556.5l28.1-30c.7 4.2-1 7.9-2.8 11.2-1.8 3.1-4.5 5.8-7 8.6-1 1.2-2.2 2.4-4.5 1.6a2.6 2.6 0 00-3.4 2.4c-.1 2.6-1.9 3.2-3.7 3.8l-6.7 2.4z" class="cls-1"/>
    </g>
  </g>
</svg>
