<?xml version="1.0" encoding="utf-8"?>
<!-- Generator: Adobe Illustrator 24.2.1, SVG Export Plug-In . SVG Version: 6.00 Build 0)  -->
<svg version="1.1" id="Layer_1" xmlns="http://www.w3.org/2000/svg" xmlns:xlink="http://www.w3.org/1999/xlink" x="0px" y="0px"
	 viewBox="0 0 1200 1550" style="enable-background:new 0 0 1200 1550;" xml:space="preserve">
<style type="text/css">
	.st0{fill:#FFFFFF;}
</style>
<path class="st0" d="M0,0v433.7v47v635.6V1550h1200v-433.7V480.7v-47V0H0z M3.7,962.3c4.9-4.6,10.8-7.3,16.9-9.7
	c2.3-0.9,4.6-1.7,7.1-2.7c-1-2.3-1.9-4.1-2.6-6.1c-5.8-17.9-11.5-35.9-13.7-54.8c-1.5-13.7,2.2-25.5,13.9-33.5
	c16.2-11.2,32.4-22.5,49.1-32.8c43.9-27.2,89.3-51.8,135.7-74.6c16.5-8.1,34.5-12.7,52.9-13.5c30.5-1.3,61-2.5,91.5-1.4
	c5.4,0.2,10.9,0.5,16.3,0.9c4.1,0.3,8,0.1,11.4-2.5c22.9-17,48.5-29.3,73.7-42.3c35.3-18.2,71.3-34.8,108-49.8
	c16.7-6.9,33.8-12.4,51.9-13.7c13.5-1,27-1.5,40.5-1.3c38,0.5,76,1.4,114,2.4c18.8,0.5,37.5,1.4,56.3,2.2c3.5,0.1,7.1,0.4,10.8,0.6
	c-1.2-5.8-1.3-11.9-0.2-17.7c1.9-9.2,7.2-16.2,14.9-21.4c5.4-3.6,11.2-6.7,16.8-10.2c4.2-2.6,8.2-5.5,12-8.6
	c7.1-6.1,11.2-13.9,13-23.1c0.1-1-0.1-1.9-0.5-2.8c-1.2-2-2.6-3.8-3.9-5.7c-2.3-3.6-5.5-6.5-9.3-8.3c-7.6-3.6-11.6-10.4-14.2-18.2
	l1.7-1.1c-4-7.4-4.4-15.2-3.2-23.2c0.3-2,0.5-3.6-1.5-5.3c-1.2-1-2-2.2-2.6-3.4H949c0.5,3.4-0.7,6.9-3.5,9.3c-1.1,0.8-2.4,1.5-3.7,2
	c0.3,4.2,1.2,8.6,1,12.9c-0.4,6.8-1.1,13.5-2.2,20.2c-1,5.1-0.6,10.4,1,15.3c0.8,2.1,1.4,4.2,1.8,6.4c1.2,8.4-3,14.6-11.3,16.8
	c-5.3,1.5-10.6,1.3-16.5,0.1c-0.5,2.3-0.8,4.7-1,7c-0.1,2,1.8,3.2,3.5,1.6c0.6-0.6,1.3-1.1,2.2-1.3c1.2-0.3,2.8-0.8,3.5-0.2
	c0.8,0.9,1.1,2.2,0.9,3.4c-0.6,2.4,0.5,3.3,2.5,4.1c7.2,2.7,14.5,5.5,21.7,8.3c10.8,4.2,18.5,11.4,21.7,22.9
	c4.5,16.1,9.2,32.1,13.7,48.2c0.3,1.9,1.6,3.5,3.4,4.2c22.8,10.5,45.7,21,68.5,31.6c11.7,5.3,24.3,8.2,37.1,8.5
	c19.4,0.7,38.6,3.1,57.6,7.1c10.5,2,20.7,5.8,30,11.1c11.9,7,17.8,17.3,18.4,31.1c0.9,25.7,0.4,51.4-1.5,77
	c-1.2,17.2-2.2,34.5-4.4,51.6c-1.4,9.6-3.9,19-7.5,28c-4.6,11.7-10.6,23-16.2,34.3c-1.7,3.2-3.8,6.2-6.2,9
	c-4.8,6.1-10.9,9.8-18.8,9.8c-9.2,0-18.5-0.2-27.8-0.5c-4.2-0.2-6.3-3.5-8.3-6.7l-4-7.1c-0.7-0.8-1.3-1.6-1.8-2.6
	c-1.8-5.4-3.4-10.8-5.2-16.4c-0.3,4.7-0.8,9.3-1,14c-0.1,2.3-0.9,3.2-3.1,3.7c-29.9,7.6-59.9,15.2-89.8,22.9c-0.6,0.1-1.2,0.3-2,0.6
	c0.2,3.1,0.4,6.2,0.6,9.3c1.2,15.6,2.3,31.2,3.6,46.8c0.1,1.6,0.5,3.2,0.8,4.8c1.3,7.1,5.4,11.7,12.3,13.5
	c7.3,1.9,14.7,3.5,22.1,5.2c6.6,1.5,13.3,2.9,19.8,4.7c2.7,0.7,5.2,2,7.3,3.8c3,2.6,2.6,5.8-1.1,7.2c-4.1,1.6-8.4,2.7-12.8,3.2
	c-12.5,1.1-25.1,1.7-37.6,2.7c-5.6,0.4-11.1,1.4-16.7,1.7c-3.6,0.2-7.1-0.1-10.6-0.7c-3.8-0.6-6.7-3.8-6.8-7.6
	c-0.3-4.7-0.1-9.3,0.5-13.9c1-7.9,0.3-15.9-2-23.4c-4.4-15.3-8.7-30.5-13.1-45.8c-0.2-0.7-0.5-1.4-0.8-2.3l-17.2,4.3
	c-15.6,4-31.2,8-46.9,11.9c-1.8,0.5-2.7,1.1-3,3.3c-1.7,13.3-3.5,26.6-5.3,39.9c-1.1,7.6,0.8,15.3,5.2,21.5
	c6.8,10,13.5,20.1,20,30.2c2.1,3.4,4,6.9,5.7,10.5c0.6,1.4,1.1,2.9,1.3,4.4c1.2,5.6-1.6,9.3-7.3,9.3c-3.1,0-6.1-0.6-8.9-1.7
	c-11.4-4.8-21.3-11.6-28-22.3c-3.9-6.2-7.7-12.4-13.4-17.2c-3.8-3.2-4.2-7.3-1.8-11.8c1.3-2.6,3.2-4.8,4.4-7.5c1-2.3,2.1-5,1.9-7.5
	c-1.2-13.3-2.8-26.7-4.3-40c-0.1-0.6-0.2-1.3-0.4-2.3l-16.1,4l-98.4,25.2c-3.3,0.8-3.3,0.8-2.9-2.5c4-29,6-58.2,4-87.5
	c-0.7-9.6-2.2-19.1-3.4-28.6c0-0.4-0.2-0.7-0.6-0.9v8.4c0,21.9,0.1,43.9,0,65.8c-0.2,28.5-9.1,54.5-23.1,79.1
	c-9.7,16.9-24.5,26.9-42.9,32.1c-20.8,5.9-42.1,7.4-63.6,6.9c-8.3-0.2-16.7-0.6-25-0.6c-5.9,0-11.7,0.3-17.6,0.4c-2.5,0-4.9,0-7.4,0
	c-5.1-0.1-9.1-2.3-11.1-6.8c-2.1-4.8-3.5-9.8-5.2-14.8c-0.3-1-0.5-2-0.7-3c-9.9,2-19.7,4.3-29.5,6c-29.7,5.2-59.4,10.3-89.2,15
	c-24.7,3.9-49.5,3.4-74.2,0.9c-51.2-5.2-101.9-14.3-152.2-25.2c-24.4-5.3-48.4-12.2-71.5-21.9c-7.3-3-14.2-7.1-20.3-12.1
	c-3.9-3.3-8.7-4.5-13.6-5.3c-15.7-2.8-29.8-9.6-43.6-17.3c-18.5-10.3-36-22-50.8-37.2c-2.6-2.6-5-5.3-7.3-8.2
	C-0.8,970-0.5,966.2,3.7,962.3z"/>
<path d="M1104.5,946.7c-0.7-0.8-1.3-1.6-1.8-2.6c-1.8-5.4-3.4-10.8-5.2-16.4c-0.4,4.7-0.9,9.4-1,14c-0.1,2.3-0.9,3.2-3.1,3.7
	c-30,7.6-60,15.2-89.9,22.9c-0.6,0.2-1.1,0.3-2,0.6c0.2,3.1,0.3,6.2,0.6,9.3c1.2,15.6,2.4,31.2,3.6,46.8c0.1,1.6,0.5,3.2,0.8,4.8
	c1.2,7.1,5.4,11.7,12.3,13.5c7.3,1.9,14.7,3.4,22.1,5.2c6.6,1.5,13.3,2.9,19.8,4.7c2.7,0.7,5.2,2,7.3,3.8c3,2.6,2.6,5.8-1.1,7.2
	c-4.1,1.6-8.4,2.7-12.8,3.2c-12.5,1.2-25.1,1.7-37.6,2.7c-5.6,0.4-11.1,1.4-16.7,1.7c-3.6,0.2-7.1-0.1-10.6-0.7
	c-3.8-0.6-6.7-3.8-6.8-7.6c-0.3-4.7-0.1-9.3,0.5-13.9c1-7.9,0.3-15.9-2-23.4c-4.4-15.2-8.8-30.5-13.1-45.8c-0.2-0.7-0.5-1.4-0.8-2.3
	l-17.1,4.3c-15.6,4-31.3,8-46.9,11.9c-1.9,0.5-2.8,1.1-3,3.3c-1.7,13.3-3.5,26.6-5.3,39.9c-1.1,7.6,0.8,15.3,5.2,21.6
	c6.8,10,13.4,20.1,20,30.2c2.1,3.4,4,6.9,5.7,10.5c0.6,1.4,1,2.8,1.3,4.3c1.2,5.6-1.6,9.4-7.3,9.3c-3.1,0-6.1-0.6-8.9-1.7
	c-11.4-4.8-21.3-11.6-28-22.3c-3.9-6.2-7.7-12.3-13.4-17.2c-3.8-3.2-4.2-7.3-1.8-11.8c1.3-2.6,3.2-4.8,4.4-7.4c1-2.3,2.1-5,1.9-7.5
	c-1.2-13.4-2.8-26.7-4.3-40c-0.1-0.7-0.2-1.3-0.4-2.3l-16.1,4.1l-98.4,25.2c-3.3,0.8-3.3,0.8-2.9-2.5c4-29,6.1-58.2,4-87.5
	c-0.7-9.6-2.2-19.1-3.4-28.6c0-0.4-0.2-0.7-0.6-0.9v8.3c0,21.9,0.1,43.9,0,65.8c-0.2,28.5-9.1,54.5-23.1,79.1
	c-9.7,16.9-24.5,26.9-42.9,32.1c-20.8,5.9-42.1,7.4-63.6,6.9c-8.3-0.2-16.7-0.6-25-0.6c-5.9,0-11.7,0.3-17.6,0.4c-2.5,0-4.9,0-7.4,0
	c-5-0.1-9.1-2.3-11.1-6.8c-2.1-4.8-3.5-9.9-5.2-14.8c-0.3-1-0.5-2-0.7-3c-9.9,2-19.7,4.3-29.5,6c-29.7,5.1-59.4,10.3-89.2,15
	c-24.7,3.9-49.5,3.4-74.2,0.9c-51.3-5.3-101.9-14.3-152.2-25.2c-24.4-5.3-48.4-12.2-71.5-21.9c-7.3-3-14.2-7.1-20.2-12.2
	c-3.9-3.3-8.7-4.5-13.6-5.3c-15.7-2.8-29.8-9.6-43.6-17.3c-18.5-10.3-36-22-50.8-37.2c-2.6-2.6-5-5.3-7.3-8.2
	c-3.5-4.5-3.2-8.3,1-12.2c4.8-4.6,10.8-7.3,16.9-9.7c2.3-0.9,4.6-1.7,7.1-2.7c-1-2-1.8-4-2.6-6.1c-5.8-17.9-11.5-35.9-13.7-54.7
	c-1.5-13.7,2.2-25.5,13.9-33.5c16.2-11.2,32.4-22.5,49.2-32.8c43.9-27.2,89.3-51.8,135.7-74.6c16.5-8.1,34.5-12.7,52.9-13.4
	c30.5-1.3,61-2.5,91.5-1.4c5.4,0.2,10.9,0.5,16.3,0.9c4.1,0.3,8,0.1,11.4-2.5c22.9-17,48.5-29.3,73.7-42.3
	c35.2-18.2,71.3-34.7,108-49.8c16.7-6.9,33.8-12.4,51.9-13.8c13.5-1,27-1.5,40.5-1.3c38,0.5,76,1.5,114,2.4
	c18.8,0.5,37.5,1.5,56.3,2.2c3.5,0.1,7.1,0.4,10.8,0.6c-1.2-5.8-1.3-11.9-0.2-17.7c1.9-9.2,7.1-16.2,14.8-21.4
	c5.4-3.6,11.2-6.7,16.8-10.2c4.2-2.6,8.1-5.5,11.9-8.6c7.1-6,11.3-13.9,13-23.1c0.1-1-0.1-1.9-0.5-2.8c-1.2-2-2.6-3.8-3.9-5.7
	c-2.3-3.6-5.5-6.5-9.3-8.3c-7.6-3.6-11.6-10.5-14.2-18.2l1.7-1.1c-4-7.4-4.4-15.2-3.2-23.2c0.3-2.1,0.4-3.6-1.5-5.3
	c-4.2-3.6-4.5-9-1.4-13.9c3.9-6,9.8-10.5,16.7-12.5c7.8-2.1,15.6-3.9,23.6-5.2c5.1-0.9,6.1-1.7,6.8-6.8c0.5-3.7,2.8-6.9,6.1-8.6
	c5.3-2.8,11-3.2,17-2.5c-0.6,0.4-1.1,0.7-1.7,1c-5.2,2.9-6,6.7-1.4,10.4c4.4,3.4,6.8,8.7,6.6,14.2c0,3.6,2.1,6.2,4.5,8.6
	c2.2,2.1,4.6,4,6.6,6.3c3.8,4.3,3.4,10.9-0.9,14.8l-0.1,0.1c-1.1,0.8-2.4,1.5-3.7,2c0.4,4.2,1.2,8.6,1,12.9
	c-0.4,6.8-1.2,13.5-2.3,20.2c-1,5.1-0.6,10.4,1,15.3c0.8,2.1,1.4,4.2,1.8,6.4c1.2,8.4-3,14.6-11.3,16.8c-5.3,1.5-10.6,1.3-16.5,0.1
	c-0.3,2.4-0.8,4.7-1,7c-0.1,2,1.8,3.2,3.5,1.6c0.6-0.6,1.3-1,2.2-1.3c1.2-0.3,2.8-0.8,3.5-0.2c0.8,0.9,1.1,2.2,0.9,3.4
	c-0.6,2.4,0.5,3.3,2.5,4.1c7.2,2.7,14.5,5.5,21.7,8.3c10.8,4.2,18.5,11.4,21.7,22.9c4.7,16.1,9.3,32.2,13.8,48.3
	c0.3,1.9,1.6,3.5,3.4,4.2c22.8,10.5,45.7,21,68.5,31.6c11.7,5.3,24.3,8.2,37.2,8.5c19.4,0.7,38.6,3.1,57.6,7.1
	c10.5,2,20.7,5.8,30,11.1c11.9,7,17.8,17.3,18.4,31.1c0.9,25.7,0.4,51.4-1.5,77c-1.2,17.2-2.2,34.5-4.4,51.6c-1.4,9.6-3.9,19-7.5,28
	c-4.6,11.7-10.6,23-16.2,34.3c-1.7,3.2-3.8,6.2-6.2,9c-4.7,6.1-10.9,9.8-18.8,9.8c-9.2,0-18.5-0.2-27.8-0.5
	c-4.2-0.2-6.3-3.5-8.3-6.7c2.5,2.4,5.1,4.4,8.8,4.7c5.8,0.4,11.7,1,17.5,1.2s11.4-0.3,16.8-2.5c3.8-1.6,7.1-4.4,8.4-7
	c-7.4,4.3-14.3,3.2-17.8,0.7c8,3.1,14.6,0.3,19.9-5.6c3.2-3.6,6-7.6,8.2-11.9c6.7-13.2,9.7-27.5,11.3-42.1
	c1.7-15.6,1.5-31.2,0.9-46.9c-0.3-7.9-0.3-15.8-2.9-23.4c-2.5-7.2-5.3-14.2-10.7-19.8c-6.2-6.5-12.9-7-19.9-1.4
	c-2.9,2.3-5.5,4.8-7.8,7.6c-9.6,11.6-15.3,25.2-19.3,39.5c-5.8,21.2-5.7,42.7-1.7,64.2c2.7,14.8,7.7,28.5,20,38.5
	c-1.3-0.7-2.6-1.4-3.8-2.3c-7.9-6.8-12.9-15.5-15.8-25.4c-7.7-24.7-8.2-51-1.6-76c4.5-17,12.3-32.4,25-44.9
	c7.7-7.5,15.2-8.2,24.1-2.2c6.5,4.2,10.3,10.5,13,17.5c3,8,3.6,16.4,3.9,24.8c0.7,19.6,0.8,39.1-2.2,58.5c-0.8,5.4-1.9,10.7-2.8,16
	c1.5-3.1,2.9-6.3,4.1-9.6c3.1-8.5,6.3-17.1,6.5-26.3c0.2-6.7-0.2-13.4-0.7-20.1c-1.2-16.6-3.4-33.1-8.1-49.2
	c-2.3-8-5.4-15.8-10.8-22.3c-6.2-7.5-14-9.2-22.8-5.2c-5.8,2.8-10.9,7.1-14.8,12.3c-6.7,8.7-10.9,18.6-14.4,28.8
	c-8.6,25.3-14.7,51.3-18.3,77.8c-0.9,6.5-2.1,13-1.9,19.5C1099,930,1100.9,938.6,1104.5,946.7z M572.6,637.7l0.1,0.5
	c0.4,0,0.8,0.1,1.2,0.1c18.1,0.3,36.2,0.5,54.3,1c25,0.7,50,1.3,74.9,2.5c22.5,1.1,45,2.9,67.4,4.4c4.3,0.2,8.6,0.6,12.9,1.3
	c6.2,1.2,8.7,4.7,7.8,11c-0.6,4.4-1.7,8.8-3.2,13c-7.3,19.5-16.2,38.3-26.7,56.3c-5.3,9.3-10.8,18.5-16.7,27.4
	c-6.2,9.4-15,13.9-26.7,13.1c-21.9-1.5-43.8-2.4-65.7-3.8c-18.7-1.2-37.3-2.5-56-3.9c-15.9-1.2-31.9-2.4-47.8-3.8
	c-18.2-1.5-36.4-3.1-54.6-4.9c-14.5-1.3-28.9-2.8-43.4-4.4c-15.3-1.7-30.5-3.5-45.8-5.3c-8.9-1.1-17.7-2.4-25.9-6.2
	c-0.6-0.2-1.3-0.3-1.9-0.2c-3.3,0-6.6,0.2-9.9,0c-3.9-0.2-7.8-1.1-11.7-1.2c-33.2-0.9-66.5-0.6-99.6,2.4
	c-15.4,1.4-30.3,4.5-44.1,11.7c-24.1,12.5-48.3,25-72.1,38c-36.2,19.8-72,40.5-105.6,64.6c-4.5,3.2-8.6,7.2-12.8,10.8
	c-2.3,2-3.3,5.1-2.6,8.1c1,5.5,2.1,11,3.3,16.4c1.4,6,4.8,11.1,8.4,15.8c9.8,12.6,23.5,19.5,38.2,24.7c5.6,2,11.5,3,17.3,4.2
	c10.9,2.2,21.8,4.7,32.8,6.2c25.1,3.4,50.3,5.7,75.6,6.9c36.1,1.7,72.3,1.4,108.3-0.9c24.9-1.6,49.8-3.7,74.7-6.5
	c26.3-2.9,52.7-6.1,78.8-10.4c32.7-5.4,65.2-11.7,97.7-18.2c13.7-2.7,27.5-5.1,40.8-9.9c1.6-0.5,2.9-1.7,3.7-3.2
	c3.8-6.3,7.5-12.8,11.9-18.7c17.2-23.5,39.6-38.5,69.3-40.7c21.2-1.6,39.4,5,53.2,21.7c7.4,8.9,12.3,19.1,16,30
	c5.8,17.3,8.5,35.2,9.7,53.2c1.7,25.4,0.3,50.6-2.3,75.9c-0.5,4.5-1.1,9.1-1.7,13.7l114.7-29.3c-0.3-5.2-0.6-10-1-15
	c-0.7,0.1-1.2,0.2-1.7,0.3l-27,6.6c-24.1,5.9-48.1,11.8-72.2,17.7c-1.6,0.4-2.8,0.5-3.1-1.9l103.8-25.5v-12.6l-1.7,0.4l-83.3,21.5
	c-4.5,1.2-4.6,1.1-4.6-3.5V859.9c0-2.7-0.3-5.4-0.5-8.3l-33.9,8.2c-0.1-0.3-0.2-0.6-0.2-0.9c11.2-3.3,22.7-5.4,34-8.6
	c-2.2-21.9-9.1-42.2-17-62.4c2.4-0.2,2.4-0.2,3.1,1.5c5.8,14.8,11.1,29.8,14.1,45.4c1,4.9,1.7,9.8,2.6,15l86.4-21.2
	c-3.3-20.5-6-40.7-1.7-61.2c-0.9,0.1-1.2,0.2-1.5,0.2c-16.8,2.8-33.6,5.9-50.5,8.4c-12.2,1.8-24.4,3.1-36.7,4.6
	c-4.1,0.6-8.3,0.9-12.4,0.9c-5.7-0.1-7.7-2.8-6.2-8.3c1.4-5,3-9.9,4.9-14.7c10.3-25.8,23.6-49.9,37.2-73.9c2.7-4.7,5.7-9.3,8.8-13.7
	c6.9-9.5,15.6-16.5,27.3-19.2c2.7-0.6,5.4-1.1,8.5-1.7c-0.4-1.5-0.7-2.8-1.2-4c-1.5-4.2-3.1-8.4-4.5-12.7c-0.2-1.4-1.5-2.3-2.8-2.2
	c-22.2-1.1-44.3-2.5-66.5-3.5c-48.4-2.1-96.9-2.7-145.3-1.1c-11.6,0.4-23.1,1.3-34.2,5C584.2,633.6,578.4,635.6,572.6,637.7
	L572.6,637.7z M16.8,869c-0.4,0.8-0.6,1.1-0.7,1.4c-0.3,0.9-0.6,1.8-0.8,2.7c-1.9,8-1.2,16.1,0.3,24c3.2,17.2,7.9,34.1,14.1,50.5
	c0.7,1.8,0.5,2.7-1.5,3.3c-2.4,0.8-4.8,1.7-7.1,2.7c-5.3,2.3-10.5,5-14.5,9.2c-3.8,4-4,7.3-0.6,11.5c2.5,3.1,5.2,6,8.1,8.8
	c17.2,17,37.5,29.8,58.9,40.7c12.1,6.1,24.6,11,38.2,13c3.1,0.5,6,1.9,8.4,3.9c6.1,5.2,12.9,9.4,20.3,12.5
	c18,7.2,36.6,13.1,55.5,17.6c58.4,14.5,117.8,24.4,177.7,29.8c17.3,1.6,34.7,1.3,51.9-1c26.9-3.6,53.7-7.4,80.5-11.6
	c15.1-2.4,30-6,45-9c3.6-0.7,5.4-2.8,5.7-6.4c0.5-5.6,1.4-11.1,1.9-16.7c2.6-25.6,5.9-51.1,11.3-76.3c5.7-26.5,13.2-52.5,25-77.1
	c0.2-0.4,0.3-0.8,0.4-1.2c-4.4,1-8.6,2.1-12.8,3c-23,4.9-46,10-69,14.5c-38,7.4-76.3,13.6-114.8,17.9c-25.6,2.9-51.2,5.6-76.9,7.3
	c-25.3,1.7-50.7,2.6-76.2,2.7c-25.9,0.1-51.9-1-77.7-2.2c-20.2-0.9-40.3-3.3-60.2-7.1c-16-3-32-6-47.2-12.4
	c-8.1-3.3-15.7-7.8-22.5-13.4c-10.4-8.8-17.7-19.4-19.4-33.2C17.7,875.6,17.3,872.6,16.8,869L16.8,869z M380.5,735.2
	c4.7,1.3,8.9,2.9,13.2,3.5c14.1,1.9,28.3,3.6,42.5,5.2c14.9,1.7,29.9,3.3,44.9,4.8c17.8,1.8,35.5,3.4,53.3,4.9
	c15.5,1.3,31,2.6,46.5,3.8c17.7,1.3,35.4,2.6,53.2,3.9c15.3,1.1,30.7,2.1,46.1,2.9c14.1,0.7,28.2,1.2,42.3,1.8
	c5.2,0.3,10.2-1.9,13.5-5.9c4.5-5,8.6-10.3,12.4-15.8c14.5-22,26.1-45.5,35.9-69.9c2-5.3,3.6-10.8,4.8-16.3c1.2-5.4-0.8-7.8-6.4-8.4
	c-7.2-0.8-14.4-1.6-21.6-2c-30.3-1.6-60.6-3.4-90.9-4.5c-33.9-1.2-67.8-1.8-101.7-2.6c-1.3,0-2.7,0.2-3.9,0.7
	C520,659,477,680,434.6,702.4C416.2,712.1,397.5,721.6,380.5,735.2z M1177.6,742.8l0.2,0.5c-0.8,0.5-1.7,1-2.6,1.4
	c-9.5,3.8-18.8,8.4-28.7,11.1c-51.2,14.3-102.5,28-153.8,42c-3.9,1.1-7.8,2-11.6,3c0,0.4,0,0.7,0,1.1c3,14.7,6,29.3,8.8,44
	c3,15.9,7.5,31.6,5.6,48.2c0.4-0.6,0.6-1.2,0.8-1.8c7.9-31.8,19.4-62.6,23.7-95.3c0.1-0.8,1.1-1.6,1.7-2.3l0.7,0.4
	c0,1.1-0.1,2.2-0.3,3.2c-1.5,8.3-2.7,16.6-4.8,24.7c-6.9,26.2-14.2,52.2-21.3,78.4c-0.5,1.8-0.6,3.7-0.4,5.5
	c0.5,5.3,1.1,10.6,1.7,16c0.5,4.2,0.9,8.4,1.3,12.7l29-7c0.1,0.2,0.1,0.5,0.2,0.8l-29.2,7.5c0.4,4.7,0.8,9.2,1.2,13.8
	c1-0.2,1.7-0.3,2.5-0.5l33.6-8.3l44.3-10.9c1.5-0.4,3.1-0.9,3.2,1.8c-0.7,0.2-1.4,0.5-2.2,0.7c-12.6,3.1-25.2,6.2-37.8,9.3
	c-13.7,3.3-27.4,6.7-41,10.2c-0.8,0.2-2.1,1-2.1,1.5c0.1,4.2,0.5,8.4,0.8,12.7l1.3-0.3c17.1-4.2,34.3-8.4,51.4-12.8
	c12.5-3.2,24.9-6.5,37.4-9.8c1.6-0.2,2.7-1.6,2.6-3.2c0-2.9,0.2-5.8,0.5-8.6c1.8-13.9,3.4-27.9,5.4-41.7
	c2.6-17.5,5.7-34.9,10.7-51.8c4.5-15.2,10.4-29.8,19.8-42.8c4.8-6.6,10.4-12.3,18.3-15.3c9.5-3.6,17.9-1.6,24.3,6.2
	c2.5,3.1,4.6,6.5,6.4,10.1c4.1,8.5,7.1,17.5,8.7,26.8c1.9,10.7,3.3,21.5,4.9,32.3c0-1.2,0.1-2.4,0.2-3.6c1-15.4,2.1-30.7,2.8-46.1
	c0.9-19,1.6-38.1-0.2-57.1c-1.1-12.2-6.5-21.6-17.4-27.6c-7.5-4.2-15.5-7.5-23.7-9.8c-21.7-6.1-43.9-8-66.3-8.6
	c-10-0.3-19.6-1.8-28.7-5.9c-23.8-11-47.6-22-71.4-33l-2.7-1.2c0.5,4.3,1.2,8.3,1.5,12.3c0.1,1.5,0.9,2.9,2.3,3.5
	c8.1,4.8,16.2,9.6,24.2,14.6c2.2,1.4,4.2,2.9,6,4.7c3.8,3.7,3.8,6.8,0,10.5c-1.7,1.6-3.5,3-5.3,4.3c-13,9.3-27.3,16.2-41.9,22.5
	c-2.3,1-3.6,1.9-2.8,4.8c0.6,2.3,0.5,4.7,0.9,7.1c2.5,13.4,5,26.9,7.6,40.3c0.7,3.9,1.6,7.7,2.4,11.7c0.9-0.2,1.5-0.3,2.1-0.4
	c49.7-13.4,99.5-26.9,149.2-40.3c15-4,30-8.2,43.8-15.5C1176.4,743.1,1177,742.9,1177.6,742.8z M876.2,730.2
	c-0.3,0.6-0.5,1.2-0.7,1.8c-2.5,9.7-5.3,19.3-7.3,29.1c-3,14.4-4.1,28.9-2.2,43.6c4.2,31.9,8.3,63.8,12.4,95.8
	c1.4,10.9,1.3,21.7-1.9,32.3c-4.3,14.6-6.1,29.7-5.5,44.9c0.7,16.6,2.1,33.2,3.2,49.9c0,1.5,0.9,2.9,2.3,3.4c2.1,1,3.9,2.8,6.1,3.7
	c2.3,0.8,4.6,1.4,7,1.6c2.1,0.2,3-0.9,3.2-3.2c0.8-9.4,1.3-18.8,2.8-28.1c3.7-23.4,7.8-46.8,11.8-70.1c3.7-21.4,7.3-42.9,8.3-64.7
	c1.4-30.1,2.4-60.1,3.6-90.2c0-1.4,0.2-2.9,0.6-4.3c0.5-2.2,1.8-4.1,4.2-4.1s2.5,2.4,3,4.1c7.7,27.9,15.4,55.8,23,83.7
	c3.1,11.2,5.9,22.5,9,33.7c2.7,9.8,2,19.7,1.3,29.7c-0.5,8.2-0.5,16.3,1.6,24.3c6.8,25.1,13.5,50.2,20.2,75.2
	c0.7,2.7,0.8,6.2,2.5,7.7s5.4,1.4,8.3,2c3.8,0.7,6.9-0.7,9.5-3.2c0.5-0.5,0.7-1.3,0.7-2c-1.2-17.5-2.5-34.9-3.9-52.4
	c-1.2-15.2-2.5-30.5-3.9-45.7c-1.2-12.7-2.7-25.3-1.9-38.2c0.3-4.1,0.1-8.2-0.6-12.2c-3.7-21.1-7.6-42.1-11.7-63.1
	c-4.8-25.2-11.4-50.2-14.1-75.8c-0.4-4-1.3-6.8-5.4-8.1c-1.7-0.5-3-2.2-4.4-3.4c-0.3-0.4-0.6-0.9-0.8-1.4l0.4-0.5l9.4,6.1
	c-0.4-5-0.8-9-1.1-13.1c-29.1,10.2-57.3,5.1-85.4-3.4c-1.2,4.7-2.3,9.2-3.4,13.8c0.9,0.3,1.6,0.5,2.3,0.7c4.8,1.3,9.1-0.1,13.2-2.2
	c1.1-0.6,2.2-1.1,2.8,0.6C889,732.2,882.8,733,876.2,730.2z M780.6,991.7c0.4,0,0.7,0,1.1,0c28.2-7.3,56.4-14.5,84.5-21.7
	c1.5-0.4,1.8-1.2,1.8-2.5c0.5-10.3,2.3-20.4,5.3-30.3c3.2-10.8,4.5-21.7,2.9-33c-2.4-16.6-4.3-33.3-6.4-50c-1-8.1-2.1-16.1-3.2-24.5
	l-86.1,21.2L780.6,991.7z M749,949.4L749,949.4c-0.1-9.2,0.1-18.4-0.1-27.5c-0.2-7.6-0.4-15.2-1.2-22.7c-2-17.1-9.8-31.6-21.3-44.2
	c-7.1-8-16.7-13.5-27.2-15.7c-27.6-5.7-51.7,1.2-72.1,20.5c-14.2,13.4-24.2,29.8-32.1,47.4c-16.7,37.1-25.2,76.5-30.2,116.7
	c-1.9,15.1-3.7,30.2-5.5,45.3c-0.4,3.2-1.8,6.4-1.5,9.4c0.5,6.3,2.4,12.4,5.7,17.8c2.2,3.6,5.2,6,9.6,6.3c2.3,0.1,4.6,0.5,6.9,0.5
	c19.8,0.1,39.6,0.3,59.4,0.2c14.6-0.3,29.2-2.2,43.3-5.9c20-4.9,35.1-16.3,44.7-34.6c3.7-7.1,7.2-14.2,10.4-21.6
	c6.5-15.3,11.2-31.2,11.4-48C749.1,978.7,749,964,749,949.4z M767.5,780.3l0.1,0.4c19.1-2.5,38.3-4.8,57.3-7.5
	c12.5-1.8,24.9-4.2,37.4-6.4c1.3-0.2,2.6-0.2,3.1-2.3c2.9-12.5,5.8-25,9-37.4c2-7.8,4.2-15.4,3.2-23.5c0-1.2-0.7-2.4-1.7-3
	c-8.2-4.9-13.9-12.1-18-20.6c-4.2-8.7-8.1-17.6-12-26.4c-0.9-2-2-2.3-3.9-2c-13.6,1.8-24.1,8.5-31.5,19.9
	c-19.3,29.7-35.5,61.3-48.6,94.2c-1,2.6-1.7,5.4-2,8.1c-0.6,4.2,1.4,6.2,5.5,6.4C766.1,780.3,766.8,780.3,767.5,780.3z M903.6,588.8
	c-5.1,1.5-9.6,3.2-14.2,4.1s-5.5-0.8-4.6-5.3c1.2-5.8,1.9-11.7,2.8-17.5c-7.8,9.1-18.6,13.4-28.6,19c-2.1,1.2-4.1,2.5-6,3.8
	c-12.1,8.7-15.8,20.9-13.4,34.8c1.5,8.4,4.6,16.6,7.8,24.5c4.5,11,9.7,21.7,15,32.3c2.2,4.7,5.7,8.8,10,11.7
	c2.3,1.4,4.4,2.8,6.5,4.4c7.7,6.2,16.2,7.5,25.4,4.3c11.2-3.8,22.4-7.9,33.6-11.8c1.7-0.6,2-1.5,1.8-3.1c-0.6-4.8-2.3-9.4-5-13.5
	c-2.7-4.3-1.6-3.8-6.4-2.9c-10.5,2.1-21,4.3-31.4,6.6c-2.1,0.5-3.2-0.1-4.1-2c-6-13.1-12.3-26.1-18.1-39.3
	c-2.6-5.9-4.2-12.3-6.3-18.4l0.9-0.4c0.5,0.9,1,1.8,1.3,2.7c0.7,2.3,1.2,4.6,1.9,6.9c4.9,15.9,12.5,30.6,19.6,45.5
	c1.2,2.6,2.6,3.2,5.2,2.4c9-2.5,18-4.8,27.4-5.6c4.1-0.3,4-0.6,3.6-4.7c-0.1-1.1-0.2-2.2-0.3-3.3c-1.7-12-5.9-23.2-10.2-34.3
	c-4.4-11.4-9-22.7-11.3-34.8C906.3,592.3,906.1,589.7,903.6,588.8z M931.2,706.5c0.7,0.1,1.1,0.1,1.5,0.2
	c14.6,1.2,28.7-1.8,42.7-5.5c5.7-1.5,8.7-5.2,9.3-11c1.3-10.3,0.5-20.8-2.2-30.8c-4.9-17.9-10.2-35.8-15.4-53.6
	c-2-7.3-7.2-13.2-14.2-16.1c-9.5-4.1-19.2-7.6-29.3-11.6c0.2,2.3,0.4,4.2,0.7,6.1s1,4,1.2,6c0.2,2.6-1.4,4-4,3.6
	c-1.4-0.3-2.8-0.7-4.1-1.3c-2.2-1-4.3-2.3-6.5-3.4c-0.9,0.8-1.8,1.4-2.6,2.1c1.3,9.2,4.1,17.9,7.3,26.5
	c6.4,17.4,14.4,34.3,15.5,53.4c6.2-0.9,11.1-3.2,14-9c2.3-4.5,5.3-8.3,11.5-5.9c0.6-15.4-1.3-30.9-5.5-45.7c2.3-0.6,2.7,0.7,3.2,2.2
	c3.7,13.2,5.4,26.9,5,40.6c-0.2,3.2,0.8,6.3,2.6,8.9c5.6,7.9,4.5,15.5-2.7,22c-2,1.9-4.2,3.5-6.6,4.8c-6,3-12.1,5.7-18.2,8.4
	c-3.4,1.5-4,2.1-3.8,5.8C930.7,704.2,930.9,705.4,931.2,706.5z M920.2,816.4c-0.3,48.2-5.3,96.3-15,143.5l53.5-13.8c0-0.5,0-1,0-1.4
	c-1.9-8.5-1.4-17.1-0.6-25.6c0.8-8.9,0.7-17.8-1.7-26.6c-7-26-14.1-52-21.1-77.9c-0.2-0.6-0.5-1.2-0.7-1.9L920.2,816.4z M885.7,521
	l-1,0.6c-1.2-0.6-2.2-1.4-3.2-2.3c-2.1-2.8-5.5-4.2-9-3.8c-2.9,0.2-3.4,1.2-2,3.8c2.4,4.5,5.7,8.3,10.3,10.6s7.8,5.7,10.5,10
	c3.5,5.3,7.3,10.4,11.4,15.3c6.2,7.2,14.5,9.3,23.7,8.5s15.1-7.2,14.2-15.5c-0.3-2.5-0.8-5-1.7-7.4c-1.7-4.9-2.1-10.2-1.2-15.3
	l0.8-4.5c-2.1,2.6-4.8,2.9-7.7,2.8c-2.6-0.1-4.8-1.9-5.3-4.4c-0.9-3.2-0.3-5.4,2.1-6.9c3.9-2.5,7.9-3.8,12.2-0.2
	c0.9-6.9,0.4-13.8-1.3-20.5c-0.2-0.5-0.5-1-0.9-1.5c-1.2-1.3-2.2-2.7-3.1-4.2c-1.1-2.4-3.2-4.2-5.8-5c-5.4-1.8-11.3-2-16.8-0.6
	c-4.7,1.2-9.2,3-13.8,4.3c-5.1,1.5-10.2,2.9-15.1,4.3C883.9,499.6,884.8,510.3,885.7,521z M927.9,435.2c-2.3,0.3-4.1,0.4-5.9,0.7
	c-5.8,1-10.2,5.1-10.8,10.3c-0.5,4.6-1.8,6.1-6.4,6.8c-3.5,0.6-7.1,0.9-10.6,1.6c-6.8,1.2-13.5,2.7-19.6,6.1
	c-4.8,2.7-8.7,6.3-10.7,11.5c-1.8,5-0.5,9.9,3.7,12.3c2.1,1.2,4.5,1.8,7,1.9c8.8,0.2,17.5-1.5,25.6-4.7c7.9-3.1,16.2-5.3,24.9-3.8
	c5.3,0.9,10,2.8,12.8,7.8c0.6,0.9,1.3,1.7,2.1,2.5c1.3,1.6,2.4,1.1,3.6-0.1c3.3-3.5,3.8-8.5,0.9-12.4c-1.7-2.4-3.8-4.6-6.2-6.3
	c-4.9-3.2-7.1-7.2-6.1-13.1c0.6-3.4-1.1-6.1-3.7-8.2c-0.9-0.7-1.9-1.4-2.9-2.1c-4.6-3.5-4.2-7.3,0.9-10
	C926.8,435.9,927.1,435.8,927.9,435.2L927.9,435.2z M876.9,1044.6c-1.7,3.6-3.2,7-4.8,10.3c-0.7,1.5-1.8,2.9-2.6,4.4
	c-2.2,4.6-1.2,8.4,2.6,11.8c2.5,2.4,4.8,5,6.9,7.7c1.8,2.3,3.1,4.9,4.6,7.3c6.8,10.8,17.1,19,29.2,23.2c2.1,0.8,4.4,1.2,6.6,1.4
	c3.1,0.2,4.8-1.4,4.4-4.5c-0.4-3-1.2-6-2.3-8.8c-3.2-8.3-8.7-15.3-13.8-22.5c-5.9-8.3-12.3-16.4-15.4-26.7
	C886.4,1049.6,881.2,1047.5,876.9,1044.6L876.9,1044.6z M985.7,1040.3c-0.2,2-0.3,3.9-0.5,5.7s-0.5,3.9-0.7,5.8
	c-0.3,2.9-0.4,5.7-0.3,8.6c0.3,5.2,2.8,8.4,7.9,9.5c3,0.6,6,0.8,9.1,0.6c5.9-0.5,11.8-1.7,17.7-2.2c12.2-1,24.4-1.8,36.6-2.3
	c5.3-0.2,8.5-2.7,10.7-7.1c-2-2.4-4.7-4-7.8-4.5c-8.2-1.8-16.4-3.5-24.6-5.5c-9.5-2.4-19.8-3-26.9-11
	C1000.8,1042.2,998.5,1042.5,985.7,1040.3L985.7,1040.3z M969.3,736.8c9.8-4.8,19.1-9,28.1-14c6.2-3.4,12.2-7.4,17.8-11.8
	c6.2-4.9,6-7.4,0-12.8c-6.9-6.3-14.9-10.9-23.1-15.3c-1.3-0.7-2.8-1.5-4.2-2.2c-0.4,4.2-0.8,8-1.2,11.9c-0.5,5.4-3.5,8.7-8.7,10
	c-3.7,0.9-7.4,1.9-11.2,2.9C967.7,715.7,968.5,725.8,969.3,736.8z M900.4,993.2l66-16.9c-1.3-4.7-2.6-9.1-3.8-13.5
	c-19.5,4.8-38.8,9.5-58,14.3c-0.7,0.2-1.8,0.9-1.9,1.6C901.8,983.3,901.2,988,900.4,993.2L900.4,993.2z M959.1,947.5
	c-0.2,0-0.5,0-0.7,0c-17.2,4.4-34.4,8.8-51.5,13.3c-0.6,0.2-1.4,0.7-1.5,1.1c-0.7,4.2-1.3,8.3-2,12.8l58.6-14.5L959.1,947.5z
	 M927.8,707.8c-2.5-0.7-4.7-0.9-6.5-1.8c-4.1-2.1-9-2.1-13.1,0c-1.6,0.6-3.2,1.1-4.9,1.4c-6.2,1.7-12.2,1.6-18.1-1.4
	c-1.6-0.8-3.1-1.6-5-2.7c0,3.2-0.1,6.1,0.1,9c0.2,0.7,0.7,1.3,1.4,1.6c13.9,4.5,28.2,7.5,42.8,8.8c1.3,0.1,2.1-0.3,2.2-1.7
	C926.9,716.7,927.3,712.3,927.8,707.8z M928.6,722.6c0.9,0.1,1.9,0.2,2.8,0.1c6.7-0.7,13.3-1.2,20-2.2c4.1-0.8,8.1-1.9,12-3.3
	c0.7-0.2,1.7-1.2,1.7-1.9c-0.1-3-0.4-6-0.7-9.3c-11.6,2.3-23,3.5-34.6,2.1C929.3,713.1,929,717.8,928.6,722.6L928.6,722.6z
	 M948.8,688.9c3.1-2,5.8-3.5,8.3-5.5c7.2-5.8,8.3-15.2,2.7-22.7c-2.7-3.6-6.7-3.9-9.8-0.7c-0.8,0.9-1.6,2-2.3,3l-5.5,7.8
	C946.2,676.1,948.5,682.4,948.8,688.9z M882.1,517.6l0.8-0.2c-0.8-9.5-1.7-19.1-2.5-28.4l-12.9-1.3c-1.6,7.6-2,15.4,1.5,23
	c0.3,0.8,1.1,1.8,1.8,1.8C875.2,512.8,878.8,514.9,882.1,517.6z M923.5,773.6l-1.3,0.4c-0.5,13.6-1.1,27.1-1.6,41l13.8-3.5
	c-0.2-0.9-0.3-1.3-0.4-1.8c-1.9-7.4-3.8-14.8-5.7-22.2c-0.9-3.6-1.7-7.3-2.7-10.8C925.2,775.6,924.2,774.7,923.5,773.6L923.5,773.6z
	 M913,563.1c-7.1-2.2-12.3-7.2-16.6-13.1l-4.6,13.2c2.4,1.9,4.9,3.6,7.5,5.1c4.5,2.4,7.1,5.6,6.4,10.9c0,0.1,0.2,0.2,0.5,0.4
	c0.5-1.3,0.9-2.5,1.3-3.8c0.7-2.1,0.9-4.4,3.8-4.8c0.3,0,0.7-0.7,0.7-1.1C912.4,567.7,912.7,565.5,913,563.1z M903.2,581.1
	c-1-1.4-2.3-3-3.5-4.6c-1.7-2-3.2-4.2-5.1-6c-2.3-2.4-4-2-5.3,1.1c-0.5,1.5-0.9,3.1-1.1,4.7c-0.7,4.2-1.3,8.3-2,12.5
	c-0.5,3-0.1,3.8,2.8,3c4.1-1.2,8-2.7,12-4.2c0.6-0.3,1-0.8,1.1-1.4C902.5,584.6,902.8,583.1,903.2,581.1L903.2,581.1z M912.2,587.2
	l-0.5,0.6c2.6,1.3,5.1,2.7,7.7,3.7c1.2,0.4,2.6,0.3,3.8-0.2c0.5-0.3,0.5-2.1,0.2-3.2c-0.8-4.2-1.7-8.3-0.7-12.6
	c0.2-0.9,0.1-2.6-0.2-2.7c-1-0.3-2.5-0.4-3.2,0.2c-3.2,2.6-6.2,5.6-9.3,8.4l0.9,0.3L912.2,587.2z M892.1,1037.2
	c-6.8,2.7-11.9-0.8-17.5-4.7c0.5,3.4,0.8,6.1,1.2,8.9c0.1,0.4,0.3,0.8,0.7,1c3.8,2.7,7.9,4.5,12.8,4c2.1-0.2,3.2-1,2.9-3.4
	C892.1,1041,892.1,1039.1,892.1,1037.2L892.1,1037.2z M984.6,1032.2c0.2,1.9,0.3,3.4,0.6,4.9c0.1,0.5,0.4,1.3,0.8,1.4
	c5,1.5,10,3,15.1,0.8c4.5-2,4.8-2.8,3.1-7.4c0-0.1-0.2-0.2-0.5-0.4C997.8,1036.7,991.3,1032.9,984.6,1032.2L984.6,1032.2z
	 M942.4,691.2c4.3-1.2,4.5-1.5,3.9-5.6c-0.6-4.7-2.5-9.2-5.4-13c-0.5-0.6-1.2-1-2-1c-1.6,0.3-3.1,0.8-4.6,1.3
	C938.5,678.5,941.5,684.3,942.4,691.2L942.4,691.2z M907,581.9c-1.6-0.1-3.3,1.7-3.4,3.5c0.1,2,1.6,3.6,3.6,4c1.5,0,3.4-2.2,3.4-4.1
	C910.7,583.6,908.9,582,907,581.9z M888.8,567.4c2.8-1.1,4.7,0.1,6.4,2c2,2.2,3.9,4.5,5.8,6.7c0.7,0.8,1.3,1.7,2.4,3.1
	c-0.2-1.8-0.2-2.8-0.4-3.8s-0.2-2.2-0.8-2.7c-3.8-2.8-7.7-5.4-11.7-8.1L888.8,567.4z M929.9,522.4c5.7,0.7,9.7-3.7,8.5-8.7
	c-0.5-1.9-1.6-2.8-3.7-2.4C936.6,517.9,935.7,519.9,929.9,522.4z M931.4,511.9c-1.5,0.9-3.8,1.1-3.2,3.5c0.4,1.4,1,2.7,1.7,4
	c0.9-0.5,2.2-0.7,2.7-1.5C934,515.7,932.8,513.8,931.4,511.9z M912.2,572.9c-3.6,1.4-2.9,5-4.5,8.2l6.1-6.4L912.2,572.9z
	 M925.1,700.6c-0.3,5.4-0.1,5.8,3.4,5.2c-0.1-2-0.2-4-0.4-6.2L925.1,700.6z M922.3,701.5l-5.8,1.9l5.8,1.7V701.5z"/>
<path class="st0" d="M1104.5,946.7c-3.6-8-5.6-16.6-5.8-25.4c-0.2-6.5,1-13,1.9-19.5c3.6-26.4,9.7-52.5,18.3-77.7
	c3.5-10.2,7.7-20.1,14.4-28.8c3.9-5.2,8.9-9.4,14.7-12.3c8.8-4.1,16.6-2.3,22.8,5.2c5.4,6.6,8.4,14.3,10.8,22.3
	c4.7,16.1,6.9,32.5,8.1,49.2c0.5,6.7,0.8,13.4,0.7,20.1c-0.2,9.2-3.4,17.8-6.5,26.3c-1.2,3.3-2.6,6.5-4.1,9.6c1-5.3,2-10.7,2.8-16
	c3-19.4,2.9-39,2.2-58.5c-0.3-8.4-0.8-16.8-3.9-24.8c-2.7-7-6.5-13.3-13-17.5c-9-5.9-16.5-5.3-24.1,2.2
	c-12.7,12.5-20.5,27.9-25,44.9c-6.7,25-6.2,51.3,1.5,76c3,9.8,7.9,18.6,15.8,25.4c1.2,0.9,2.5,1.7,3.8,2.3l2.1,1.2
	c3.5,2.5,10.4,3.6,17.8-0.7c-1.3,2.6-4.6,5.4-8.4,7c-5.4,2.3-11,2.8-16.8,2.5s-11.7-0.8-17.5-1.2c-3.6-0.2-6.3-2.3-8.8-4.7
	C1107.2,951.5,1105.8,949.1,1104.5,946.7z"/>
<path class="st0" d="M572.6,637.7c5.8-2,11.6-4.1,17.4-6c11.1-3.7,22.6-4.6,34.2-5c48.5-1.6,96.9-1,145.4,1.1
	c22.2,1,44.3,2.3,66.5,3.5c1.4-0.1,2.6,0.8,2.8,2.2c1.3,4.3,3,8.5,4.5,12.7c0.4,1.3,0.7,2.6,1.2,4c-3,0.6-5.8,1.1-8.5,1.7
	c-11.7,2.7-20.5,9.7-27.3,19.2c-3.2,4.4-6.1,9-8.8,13.7c-13.7,24-27,48.2-37.3,73.8c-1.9,4.8-3.6,9.7-4.9,14.7
	c-1.5,5.5,0.5,8.2,6.2,8.3c4.2,0,8.3-0.3,12.4-0.9c12.2-1.4,24.5-2.7,36.7-4.6c16.9-2.6,33.7-5.6,50.5-8.4c0.3-0.1,0.7-0.1,1.5-0.2
	c-4.3,20.5-1.6,40.7,1.7,61.2l-86.4,21.2c-0.9-5.2-1.6-10.1-2.6-15c-3.1-15.6-8.3-30.6-14.1-45.4c-0.7-1.7-0.7-1.7-3.1-1.5
	c7.9,20.2,14.8,40.5,17,62.4c-11.3,3.2-22.8,5.2-34,8.6c0.1,0.3,0.2,0.6,0.2,0.9l33.9-8.1c0.2,2.9,0.4,5.6,0.5,8.3v129.3
	c0,4.5,0.1,4.6,4.6,3.5l83.5-21.5l1.7-0.4v12.6l-103.8,25.5c0.3,2.4,1.5,2.3,3.1,1.9c24.1-6,48.1-11.9,72.2-17.7l27-6.6
	c0.5-0.1,1-0.2,1.7-0.3c0.3,5,0.6,9.9,1,15l-114.7,29.4c0.6-4.7,1.2-9.2,1.7-13.7c2.6-25.2,4.1-50.5,2.3-75.9
	c-1.2-18.1-3.9-36-9.7-53.2c-3.6-10.9-8.6-21.1-16-30c-13.8-16.7-32-23.3-53.2-21.7c-29.7,2.2-52,17.3-69.3,40.7
	c-4.4,5.9-8,12.4-11.9,18.7c-0.8,1.5-2.1,2.6-3.7,3.1c-13.2,4.8-27.1,7.2-40.8,9.9c-32.5,6.5-65,12.8-97.6,18.2
	c-26.1,4.3-52.5,7.5-78.8,10.4c-24.8,2.8-49.7,4.8-74.7,6.5c-36.1,2.3-72.2,2.6-108.3,0.9c-25.3-1.2-50.5-3.5-75.6-6.9
	c-11-1.5-21.9-4-32.8-6.2c-5.8-1.2-11.7-2.2-17.3-4.2c-14.7-5.2-28.4-12.1-38.2-24.7c-3.7-4.7-7.1-9.8-8.5-15.8
	c-1.2-5.4-2.3-10.9-3.3-16.4c-0.8-3,0.2-6.1,2.6-8.1c4.2-3.6,8.3-7.6,12.8-10.8c33.7-24,69.4-44.7,105.6-64.6
	c23.8-13,47.9-25.6,72.1-38c13.8-7.1,28.7-10.2,44.1-11.7c33.2-3,66.4-3.3,99.6-2.4c3.9,0.1,7.8,0.9,11.7,1.2c3.3,0.2,6.6,0,9.9,0
	c0.7-0.1,1.3,0,1.9,0.2c8.2,3.8,17,5.1,25.9,6.2c15.3,1.8,30.5,3.7,45.8,5.3c14.4,1.6,28.9,3.1,43.4,4.4c18.2,1.7,36.4,3.3,54.6,4.9
	c15.9,1.3,31.8,2.6,47.8,3.8c18.7,1.4,37.3,2.7,56,3.9c21.9,1.3,43.8,2.3,65.7,3.8c11.7,0.8,20.5-3.7,26.7-13.1
	c5.9-8.9,11.3-18.1,16.7-27.4c10.4-18,19.3-36.8,26.6-56.3c1.5-4.2,2.6-8.6,3.3-13c1-6.3-1.5-9.8-7.8-11c-4.3-0.7-8.6-1.1-12.9-1.3
	c-22.5-1.5-44.9-3.3-67.4-4.4c-25-1.2-50-1.8-74.9-2.5c-18.1-0.5-36.2-0.7-54.3-1c-0.4,0-0.8,0-1.2-0.1L572.6,637.7z M600.9,879.4
	c-1.2-3-1.2-2.9-3.4-2.2c-11.2,3.7-22.2,8-33.6,11c-33.2,8.9-67.3,13.6-101.4,17.3c-25.9,2.8-51.9,5.2-78,6.7
	c-32.8,1.9-65.5,3.4-98.4,3.9c-43.9,0.7-87.7,1-131.4-4.4c-17-2.1-33.9-5-50.4-10.2C90.1,897,76.2,891.3,64.2,882
	c-9.6-7.4-16.7-16.5-18.5-28.9c-0.2-0.8-0.5-1.5-0.9-2.2l-0.7,0.2c0.1,1,0.2,1.9,0.4,2.9c1.7,7.9,5.5,15.3,11,21.2
	c9.2,10.2,20.8,16.9,33.3,22.1c27.2,11.3,55.7,16.1,84.8,18.3c15.1,1.2,30.2,2,45.3,2.2c27.1,0.5,54.2,1,81.4,0.5
	c30-0.6,60-2.2,89.9-3.8c18-1,35.9-2.8,53.8-4.7c17.7-1.8,35.3-4.1,52.9-6.4c23-3,45.9-6.7,68.3-12.9
	C577.2,887.3,588.8,883.2,600.9,879.4L600.9,879.4z M318.4,891.4l0.3,0.6c0.4,0,0.8,0.1,1.2,0.1c20.9-1.4,41.7-2.6,62.5-4.4
	c15.7-1.2,31.2-4,46.3-8.4c29-8.8,56-22.1,82.2-37c4.3-2.6,8.4-5.5,12.2-8.8c4.8-3.9,4.4-7.5-1-10.5c-2.6-1.4-5.2-2.5-8-3.4
	c-14.5-4.8-29.3-7.2-44.4-3.7c-12.1,2.8-23.6,7.7-34.6,13.4c-38.3,20-76.5,40.1-114.7,60.4C319.7,890.2,319,890.8,318.4,891.4
	L318.4,891.4z M640.8,767.4c0-0.4,0-0.7-0.1-1.1c-0.8-0.2-1.7-0.3-2.6-0.3c-10.9,1.7-21.9,3-32.7,5.3c-27.2,5.9-54.4,11.9-81.4,18.6
	c-45.9,11.4-91.2,25-135.2,42.3c-23.5,9.2-46.6,19.4-68.1,32.6c-0.7,0.4-1.3,0.8-1.9,1.3c-0.3,0.4-0.4,0.8-0.3,1.3
	c0.3,0.4,0.8,0.6,1.3,0.5c0.6-0.2,1.3-0.5,1.8-0.9c22.2-13.8,45.9-24.6,70.4-33.8c41.7-15.7,84.2-28.5,127.3-39.8
	c32.1-8.4,64.5-15.7,97.2-21.6c7.2-1.3,14.4-2.3,21.6-3.4C639,768.1,639.9,767.8,640.8,767.4L640.8,767.4z M613.5,859.1
	c1.9,1.2,2.7,0.1,3.6-0.9c9.1-10.2,20.3-18.2,32.9-23.6c18.9-8.2,38.8-10.9,59.2-11c17,0.1,34,1.9,50.6,5.5c1,0.1,2,0,3-0.1v-1
	c-0.7-0.2-1.3-0.4-2-0.6c-10.4-1.6-20.8-3.5-31.2-4.6c-20.1-2.1-40.1-1.4-59.8,3.2c-21.1,5-39.7,14.3-54.4,30.7
	C614.7,857.4,614.2,858.2,613.5,859.1L613.5,859.1z M84.2,850.9l-0.9,1.1c0.9,0.5,1.7,1.1,2.5,1.7c9.1,8.3,19.7,13.9,31,18.2
	c34.8,13.2,70.9,17.4,107.9,15.2c0.4-0.1,0.9-0.2,1.3-0.3c-1.9-0.4-3.9-0.5-5.8-0.4c-31.1,1.6-61.6-1.8-91.3-11.4
	c-15.5-5-30.4-11.4-42.3-23C85.8,851.5,85,851.2,84.2,850.9L84.2,850.9z"/>
<path class="st0" d="M16.8,869c0.5,3.7,1,6.6,1.3,9.5c1.7,13.9,9.1,24.5,19.4,33.3c6.7,5.6,14.3,10.1,22.4,13.4
	c15.2,6.4,31.2,9.4,47.2,12.4c19.9,3.8,40,6.1,60.2,7.1c25.9,1.2,51.8,2.2,77.7,2.2c25.4-0.1,50.8-1,76.2-2.7
	c25.7-1.7,51.3-4.5,76.9-7.3c38.5-4.3,76.7-10.5,114.8-17.9c23.1-4.5,46-9.6,69-14.5c4.2-0.9,8.4-1.9,12.8-3
	c-0.1,0.4-0.2,0.8-0.4,1.2c-11.8,24.6-19.3,50.5-25,77.1c-5.4,25.2-8.7,50.7-11.3,76.3c-0.6,5.6-1.4,11.1-1.9,16.7
	c-0.3,3.7-2.2,5.7-5.7,6.4c-15,3-29.9,6.6-45,9c-26.8,4.3-53.6,8-80.5,11.6c-17.2,2.2-34.6,2.5-51.9,0.9
	c-59.9-5.3-119.3-15.3-177.6-29.8c-18.9-4.5-37.5-10.4-55.5-17.6c-7.4-3-14.3-7.2-20.3-12.5c-2.4-2-5.3-3.4-8.4-3.9
	c-13.6-2-26.1-6.8-38.2-13c-21.5-10.9-41.7-23.7-58.9-40.7c-2.8-2.8-5.5-5.8-8.1-8.9c-3.4-4.2-3.2-7.6,0.6-11.5
	c4.1-4.3,9.2-6.9,14.5-9.2c2.3-1,4.7-2,7.1-2.7c2-0.6,2.2-1.5,1.5-3.3c-6.2-16.4-10.9-33.3-14.1-50.5c-1.5-8-2.2-16-0.3-24
	c0.2-0.9,0.5-1.8,0.8-2.7C16.2,870.1,16.4,869.8,16.8,869z M144.4,982.1c0,2.8-0.1,5.3,0,7.7c0.7,14,6.3,25.9,15.8,36.1
	c8.9,9.5,20.2,15.2,32.6,17.9c17.5,3.8,35.1,7.3,52.8,9.7c31.3,4.1,62.8,7.3,94.2,10.5c6.5,0.7,13.2,0.1,19.8-0.3
	c4.5-0.2,5.8-2.8,4-6.9c-0.8-1.9-1.8-3.6-3-5.3c-4.9-7-9.8-14.1-15-20.9c-11.8-15.7-23.8-31.2-35.8-46.8c-1.3-1.8-2.9-3.4-4.6-4.7
	c-1.7-1.2-3.7-2-5.8-2.4c-2.9-0.5-5.9-0.7-8.9-0.6c-13.3,0.2-26.7,0.6-40,0.9c-36.3,0.9-72.6,1.7-108.8,2.8
	c-9.9,0.1-19.7,1.6-29.2,4.3c-0.8,0.3-1.6,0.7-2.3,1l0.2,1c1.1,0.1,2.2,0,3.3-0.2C123.7,983.1,134,982.4,144.4,982.1z M538.6,1062.1
	c-1.2,0.2-2.2,0.5-3.3,0.6c-13.2,1.6-26.5,3.3-39.7,4.9c-18.5,2.3-36.9,4.7-55.4,6.9c-14.6,1.8-29.2,3.3-43.8,5
	c-14.5,1.6-28.9,3.2-43.5,2.7c-3.7-0.1-7.5-0.6-11.2-0.8c-0.7,0-1.4,0.6-2,1c0.6,0.4,1.1,1.2,1.7,1.3c2.5,0.4,5.1,0.6,7.6,0.6
	c12.7-0.6,25.5-1,38.2-2c16.2-1.3,32.3-3,48.4-4.8c17.5-2,34.9-4.1,52.4-6.4c16.9-2.2,33.8-4.7,50.8-6.9c2.1-0.3,2.6-1.1,2.7-3.1
	c0.9-16.9,1.8-33.8,2.9-50.6c0.9-14.2,4.1-28.1,9.3-41.4c5.5-13.8,12.7-26.8,20.1-39.7c0.5-0.9,0.9-1.9,1.3-2.8l-0.7-0.7
	c-0.8,0.5-1.8,0.9-2.2,1.6c-1.5,2.3-2.8,4.8-4.2,7.3c-7.6,13.5-14.6,27.2-19.6,41.9c-5.8,17.1-6.9,34.9-8.1,52.7
	C539.6,1040.1,539.2,1051.1,538.6,1062.1L538.6,1062.1z M563.2,932.8c-1.2-2-2.7-1.6-4.2-1.1c-13,3.9-25.8,8.5-39,11.4
	c-14.2,3.2-23.8,10.9-29.9,23.9c-6.8,14.4-14.2,28.5-21.3,42.8c-0.3,0.7-0.6,1.3-1.1,2.5c1.5,0.3,2.7,0.8,3.8,0.7
	c7.1-0.9,14.3-2,21.4-2.9c12.1-1.5,21.4-7.2,28-17.7c5.4-8.5,11.7-16.5,17.6-24.7C546.7,956.2,554.9,944.5,563.2,932.8L563.2,932.8z
	 M535.8,1013.2c0.4-1.8-0.7-2.1-2.8-1.8c-14.5,2.2-29.1,4.2-43.6,6.6c-7.5,1.2-14.9,3.2-22.3,5c-1,0.3-1.9,1-2.4,1.9
	c-6.3,12-12.6,24-18.9,36.1c-0.3,0.7-0.4,1.5-0.4,2.3c0.8,0.2,1.6,0.3,2.4,0.3c4.7-0.8,9.4-1.5,14-2.4c17.1-3.4,34.1-6.7,51.2-10.2
	c8-1.6,13.8-6.1,17.1-13.8S534.9,1021.9,535.8,1013.2L535.8,1013.2z M116.7,1026.8c-0.4-1.3-0.6-2-0.8-2.6
	c-3.7-8.4-7.4-16.8-11-25.2c-1.1-2.6-3.2-4.7-5.8-5.7c-16.7-7.1-33.3-14.2-50-21.4c-1.9-0.8-2.7-0.6-3.1,1.6
	c-1.3,7.5-2.6,15-4.2,22.5c-0.6,2.6,0.1,3.5,2.5,4.4c23.1,8.4,46.2,16.9,69.3,25.4C114.2,1026.1,115.1,1026.3,116.7,1026.8
	L116.7,1026.8z M31.7,955.4c0.8,4.7,7,17.1,8.7,17.8C41.1,970.8,33.9,955.7,31.7,955.4L31.7,955.4z"/>
<path class="st0" d="M380.5,735.2c17-13.6,35.7-23.1,54.1-32.8C477,680,520,659,564.5,641.1c1.2-0.5,2.6-0.7,3.9-0.7
	c33.9,0.8,67.8,1.4,101.7,2.6c30.3,1.1,60.6,2.9,90.9,4.5c7.2,0.4,14.4,1.2,21.6,2c5.5,0.6,7.6,3,6.4,8.4c-1.2,5.6-2.8,11-4.8,16.3
	c-9.8,24.4-21.4,47.9-35.9,69.9c-3.8,5.5-8,10.8-12.4,15.8c-3.3,4.1-8.3,6.3-13.5,6c-14.1-0.6-28.2-1-42.3-1.8
	c-15.4-0.8-30.7-1.8-46.1-2.9c-17.7-1.2-35.4-2.5-53.2-3.9c-15.5-1.2-31-2.5-46.5-3.8c-17.8-1.5-35.5-3.2-53.3-4.9
	c-15-1.5-29.9-3.1-44.9-4.8c-14.2-1.6-28.4-3.2-42.5-5.2C389.4,738.1,385.2,736.5,380.5,735.2z"/>
<path class="st0" d="M1177.6,742.8c-0.6,0.1-1.2,0.3-1.8,0.5c-13.8,7.4-28.8,11.5-43.8,15.5c-49.7,13.4-99.5,26.9-149.2,40.3
	c-0.6,0.2-1.2,0.2-2.1,0.4c-0.8-3.9-1.7-7.8-2.4-11.7c-2.6-13.5-5.1-26.9-7.6-40.3c-0.4-2.3-0.3-4.8-0.9-7.1
	c-0.8-2.8,0.5-3.8,2.8-4.8c14.6-6.3,28.9-13.1,41.9-22.5c1.9-1.3,3.7-2.7,5.3-4.3c3.8-3.7,3.8-6.8,0-10.5c-1.8-1.8-3.8-3.4-6-4.7
	c-8-5-16.1-9.8-24.2-14.6c-1.4-0.7-2.3-2-2.3-3.5c-0.4-4-1-8-1.5-12.3l2.7,1.2c23.8,11,47.6,22,71.4,33c9.1,4.2,18.7,5.7,28.7,5.9
	c22.4,0.6,44.6,2.5,66.3,8.6c8.2,2.4,16.2,5.7,23.7,9.8c10.9,6,16.3,15.4,17.4,27.6c1.8,19,1.1,38.1,0.2,57.1
	c-0.7,15.4-1.9,30.7-2.8,46.1c-0.2,1.2-0.2,2.4-0.2,3.6c-1.6-10.8-3-21.6-4.9-32.3c-1.6-9.3-4.6-18.3-8.7-26.8
	c-1.7-3.6-3.9-7-6.4-10.1c-6.4-7.8-14.8-9.8-24.3-6.2c-7.9,3-13.5,8.7-18.3,15.3c-9.4,13-15.3,27.5-19.8,42.8
	c-5,17-8.1,34.4-10.7,51.8c-2,13.9-3.7,27.8-5.5,41.7c-0.3,2.9-0.5,5.8-0.5,8.7c0.1,1.6-1,3-2.6,3.2c-12.5,3.2-24.9,6.6-37.4,9.8
	c-17.1,4.3-34.3,8.5-51.4,12.8c-0.3,0.1-0.6,0.1-1.3,0.3c-0.3-4.3-0.7-8.5-0.8-12.7c0-0.5,1.3-1.3,2.1-1.5
	c13.7-3.4,27.3-6.8,41-10.2l37.8-9.3c0.7-0.2,1.4-0.5,2.2-0.7c-0.1-2.7-1.7-2.1-3.2-1.8l-44.2,10.9l-33.6,8.3
	c-0.7,0.2-1.5,0.3-2.5,0.5c-0.4-4.6-0.8-9.1-1.2-13.8l29.2-7.5l-0.2-0.8l-29,7c-0.5-4.3-0.9-8.5-1.3-12.7c-0.6-5.3-1.2-10.6-1.7-16
	c-0.2-1.8,0-3.7,0.4-5.5c7.1-26.1,14.4-52.2,21.3-78.4c2.1-8.1,3.3-16.5,4.8-24.7c0.2-1.1,0.2-2.2,0.3-3.2l-0.7-0.4
	c-0.6,0.8-1.6,1.5-1.7,2.3c-4.3,32.7-15.8,63.5-23.7,95.3c-0.2,0.6-0.5,1.3-0.8,1.8c1.9-16.5-2.6-32.3-5.6-48.2
	c-2.8-14.7-5.9-29.3-8.8-44c0-0.4,0-0.7,0-1.1c3.8-1,7.7-2,11.6-3c51.3-13.9,102.6-27.7,153.8-42c9.8-2.7,19.1-7.3,28.7-11.1
	c0.9-0.4,1.8-0.9,2.6-1.4L1177.6,742.8z M1045.2,874.3c-2.2,0.4-4.4,0.7-6.5,1.3c-0.8,0.3-1.4,1.1-1.6,1.9c0,13.3,0.2,26.5,0.4,39.8
	c0,4.2,0.7,8.6-4.3,10.9l6.5-1.8v-3.1c0-14.7,0-29.4-0.1-44.1c0-2,0.7-2.9,2.4-3.5C1043.2,875.3,1044.2,874.8,1045.2,874.3
	c2.5-0.1,5-0.3,7.5-0.6c10.8-2,21.5-4,32.3-6.1l15.3-3c-0.1-0.3-0.1-0.7-0.2-1L1045.2,874.3z M1041.7,715.3c0,0.4-0.1,0.6,0,0.7
	c6.5,13.6,13,27.2,19.6,40.8c1,2.1,2.4,1.1,3.4,0c4.1-4.5,8.4-8.9,12.1-13.7c1.9-2.5,3.3-5.3,4.3-8.3c3.2-8.9-0.4-17.1-9-21.1
	c-5.5-2.5-11.3-2.9-17.2-2.2C1050.3,711.8,1045.8,713.1,1041.7,715.3L1041.7,715.3z"/>
<path class="st0" d="M876.2,730.2c6.7,2.9,12.8,2,18.6-1.7c-0.7-1.7-1.7-1.2-2.8-0.6c-4.2,2.1-8.5,3.6-13.2,2.2
	c-0.7-0.2-1.4-0.4-2.3-0.7c1.2-4.6,2.3-9.1,3.4-13.8c28.1,8.5,56.3,13.6,85.4,3.4c0.3,4.1,0.7,8.1,1.1,13.1L957,726l-0.4,0.5
	c0.2,0.5,0.4,1,0.8,1.4c1.4,1.2,2.8,2.8,4.4,3.4c4.2,1.3,5,4.1,5.4,8.1c2.7,25.7,9.3,50.6,14.2,75.8c4,21,7.9,42,11.7,63.1
	c0.7,4,0.9,8.1,0.6,12.2c-0.8,12.8,0.7,25.5,1.9,38.2c1.4,15.2,2.7,30.5,3.9,45.7c1.4,17.5,2.6,34.9,3.9,52.4c0.1,0.7-0.2,1.5-0.7,2
	c-2.7,2.5-5.8,3.9-9.5,3.2c-2.8-0.5-6.4-0.3-8.3-2s-1.8-5-2.5-7.7c-6.7-25.1-13.5-50.2-20.3-75.2c-2.2-8-2.1-16.1-1.6-24.3
	c0.6-9.9,1.4-19.8-1.3-29.6c-3.1-11.2-5.9-22.5-9-33.7c-7.6-27.9-15.3-55.8-23-83.7c-0.5-1.7-0.5-4.1-3-4.1s-3.7,1.9-4.2,4.1
	c-0.3,1.4-0.5,2.8-0.6,4.3c-1.2,30.1-2.2,60.2-3.6,90.2c-1,21.8-4.6,43.2-8.3,64.7c-4,23.3-8.1,46.7-11.8,70.1
	c-1.5,9.3-2,18.8-2.8,28.1c-0.2,2.3-1.1,3.4-3.2,3.2c-2.4-0.2-4.7-0.7-7-1.6c-2.2-0.9-4-2.6-6.1-3.7c-1.4-0.6-2.3-1.9-2.3-3.4
	c-1.1-16.7-2.5-33.2-3.2-49.9c-0.7-15.2,1.2-30.3,5.5-44.9c3.1-10.7,3.3-21.5,1.9-32.3c-4.1-31.9-8.2-63.8-12.4-95.8
	c-1.9-14.7-0.8-29.2,2.2-43.6c2-9.8,4.9-19.4,7.3-29.1C875.7,731.4,875.9,730.8,876.2,730.2z"/>
<path class="st0" d="M780.6,991.7V850.9l86.1-21.1c1.1,8.3,2.1,16.4,3.2,24.5c2.1,16.7,4,33.4,6.4,50c1.6,11.3,0.3,22.2-2.9,33
	c-3,9.8-4.8,20-5.3,30.2c0,1.3-0.3,2.1-1.8,2.5c-28.2,7.2-56.3,14.5-84.5,21.7C781.3,991.7,780.9,991.7,780.6,991.7z"/>
<path class="st0" d="M749,949.4c0,14.6,0.1,29.2,0,43.9c-0.2,16.8-4.8,32.7-11.4,48c-3.1,7.3-6.7,14.5-10.4,21.6
	c-9.6,18.3-24.6,29.7-44.7,34.6c-14.2,3.7-28.7,5.7-43.3,5.9c-19.8,0.1-39.6-0.1-59.4-0.2c-2.3,0-4.6-0.4-6.9-0.5
	c-4.4-0.2-7.4-2.7-9.6-6.3c-3.2-5.4-5.2-11.5-5.7-17.8c-0.2-3.1,1.1-6.3,1.5-9.5c1.9-15.1,3.7-30.2,5.5-45.3
	c5-40.2,13.4-79.5,30.2-116.7c7.9-17.6,17.9-34,32.1-47.4c20.5-19.3,44.6-26.2,72.1-20.5c10.5,2.2,20,7.7,27.2,15.7
	c11.5,12.6,19.3,27.1,21.3,44.2c0.9,7.5,1.1,15.1,1.2,22.7C749.1,931.1,748.9,940.2,749,949.4L749,949.4z M591.2,983.8
	c0.9,10.5,1.4,21,2.7,31.5c1.7,15.2,7.2,29.7,15.8,42.3c19,27.6,56.3,35.8,84.9,16.7c17-11.3,30.1-27.5,37.5-46.5
	c6.6-16.4,9.5-33.6,10.4-51.2c1.1-21.7,0-43.3-4.7-64.4c-5.9-26.3-22.4-44.9-46.7-56.4c-5.6-2.8-11.8-4-18.1-3.5
	c-10.9,1-20.4,5.5-29.5,11.1c-18.2,11.3-30.2,27.8-38.4,47.3C595.3,934.1,591.9,958.6,591.2,983.8z"/>
<path class="st0" d="M767.5,780.3h-2c-4.2-0.2-6.1-2.2-5.5-6.4c0.3-2.8,1-5.5,2-8.1c13-32.9,29.3-64.5,48.6-94.2
	c7.4-11.4,17.9-18.1,31.5-19.9c1.9-0.2,3,0,3.9,2c3.9,8.9,7.8,17.7,12,26.4c4.1,8.5,9.8,15.6,18,20.6c1.1,0.6,1.7,1.8,1.7,3
	c1,8.2-1.3,15.8-3.3,23.5c-3.2,12.4-6.1,24.9-9,37.4c-0.5,2-1.7,2-3.1,2.3c-12.5,2.2-24.9,4.6-37.4,6.4c-19.1,2.7-38.2,5-57.3,7.5
	L767.5,780.3z"/>
<path class="st0" d="M903.6,588.8c2.5,0.9,2.8,3.6,3.3,6.3c2.3,12.1,6.9,23.4,11.3,34.8c4.3,11.2,8.5,22.4,10.2,34.3
	c0.2,1.1,0.2,2.2,0.3,3.3c0.4,4.2,0.4,4.4-3.6,4.7c-9.4,0.8-18.4,3.1-27.4,5.6c-2.7,0.7-4,0.2-5.2-2.4
	c-7.2-14.9-14.8-29.7-19.6-45.6c-0.7-2.3-1.2-4.6-1.9-6.9c-0.4-0.9-0.8-1.9-1.3-2.7l-0.9,0.4c2.1,6.2,3.7,12.5,6.3,18.4
	c5.8,13.2,12.1,26.2,18.1,39.3c0.8,1.8,2,2.4,4.1,2c10.5-2.3,20.9-4.6,31.4-6.7c4.8-0.9,3.7-1.4,6.4,2.9c2.7,4.1,4.4,8.7,5,13.5
	c0.2,1.6-0.1,2.5-1.8,3.1c-11.2,3.9-22.4,8-33.6,11.8c-9.2,3.1-17.7,1.8-25.4-4.3c-2.1-1.6-4.3-3.1-6.5-4.4c-4.3-2.9-7.8-7-10-11.7
	c-5.3-10.6-10.5-21.3-15-32.3c-3.3-7.9-6.4-16.2-7.8-24.5c-2.4-13.9,1.3-26.2,13.4-34.8c1.9-1.4,3.9-2.7,6-3.8
	c9.9-5.6,20.7-10,28.5-19.1c-0.9,5.8-1.6,11.8-2.8,17.5c-0.9,4.5,0.1,6.2,4.6,5.3S898.5,590.3,903.6,588.8z"/>
<path class="st0" d="M1142.3,950.9l-2.1-1.2c-12.2-9.9-17.2-23.7-20-38.5c-4-21.5-4.1-43,1.7-64.2c3.9-14.4,9.6-28,19.3-39.5
	c2.4-2.8,5-5.4,7.8-7.7c7-5.7,13.7-5.2,19.9,1.4c5.3,5.6,8.2,12.6,10.7,19.8c2.6,7.6,2.6,15.6,2.9,23.4c0.6,15.6,0.8,31.3-0.9,46.9
	c-1.6,14.6-4.6,28.9-11.3,42.1c-2.2,4.3-4.9,8.3-8.2,11.9C1156.9,951.1,1150.3,954,1142.3,950.9z"/>
<path class="st0" d="M931.2,706.5c-0.2-1.1-0.4-2.3-0.5-3.4c-0.2-3.7,0.4-4.3,3.8-5.8c6.1-2.7,12.2-5.4,18.2-8.4
	c2.4-1.3,4.6-2.9,6.6-4.8c7.2-6.5,8.3-14.2,2.7-22c-1.9-2.6-2.8-5.7-2.6-8.9c0.4-13.7-1.3-27.4-5-40.6c-0.4-1.5-0.8-2.8-3.2-2.2
	c4.3,14.8,6.1,30.3,5.5,45.7c-6.2-2.5-9.2,1.3-11.5,5.9c-2.9,5.8-7.9,8-14,9c-1.2-19.1-9.2-36.1-15.6-53.5c-3.2-8.6-6-17.3-7.3-26.5
	c0.8-0.7,1.7-1.4,2.7-2.1c2.1,1.1,4.2,2.4,6.5,3.4c1.3,0.6,2.6,1.1,4,1.4c2.6,0.4,4.2-1,4-3.6c-0.2-2-0.8-4-1.2-6s-0.4-3.8-0.7-6.1
	c10.1,4,19.8,7.5,29.3,11.6c7,2.9,12.2,8.9,14.2,16.1c5.2,17.8,10.4,35.7,15.4,53.6c2.7,10,3.5,20.5,2.2,30.8
	c-0.7,5.8-3.6,9.5-9.3,11c-14,3.8-28.1,6.7-42.7,5.5C932.3,706.7,931.9,706.6,931.2,706.5z"/>
<path class="st0" d="M920.1,816.4l14.4-3.6c0.2,0.7,0.5,1.2,0.7,1.9c7,26,14.1,52,21.1,77.9c2.4,8.8,2.5,17.6,1.7,26.6
	c-0.8,8.6-1.3,17.1,0.6,25.6c0,0.5,0,1,0,1.4l-53.5,13.8C914.8,912.7,919.9,864.6,920.1,816.4z"/>
<path class="st0" d="M885.7,521c-0.9-10.7-1.8-21.4-2.6-32c4.9-1.4,10-2.8,15.1-4.3c4.6-1.4,9.2-3.2,13.8-4.3
	c5.5-1.4,11.4-1.2,16.8,0.6c2.5,0.8,4.6,2.6,5.8,5c0.9,1.5,2,2.9,3.1,4.2c0.4,0.4,0.7,0.9,0.9,1.5c1.7,6.7,2.1,13.6,1.3,20.5
	c-4.3-3.6-8.3-2.3-12.2,0.2c-2.4,1.5-3,3.7-2.1,6.9c0.5,2.5,2.7,4.3,5.3,4.4c2.9,0.1,5.6-0.2,7.7-2.8l-0.8,4.5
	c-1,5.1-0.6,10.4,1.2,15.4c0.8,2.4,1.4,4.9,1.7,7.4c0.8,8.4-5,14.7-14.2,15.6s-17.4-1.4-23.6-8.6c-4.1-4.8-7.9-10-11.4-15.3
	c-2.8-4.2-6-7.7-10.5-10c-4.5-2.4-8.1-6.1-10.3-10.6c-1.4-2.6-0.9-3.6,2-3.8c3.5-0.4,6.9,1,9,3.8c0.9,0.9,2,1.7,3.2,2.3L885.7,521z
	 M900.4,510.1c-0.5,0-1.1,0-1.6,0.1c-2.5,0.2-4.7,1.8-5.7,4.1c-1,2.5,0.3,4.5,2,6.1c3.3,3.3,8,4.9,12.6,4.3c4.2-0.4,6.2-3.7,4.7-7.3
	S904.7,510,900.4,510.1L900.4,510.1z M910.9,549.1c2.9,0.7,6,0.7,7.7,3.7c-0.1-0.9-0.2-1.7-0.3-2.6l5.4-1.3l2.2,3.2l0.6-0.4
	l-1.2-3.5l5.1-1.5c0.5,1.4,0.8,2.5,1.2,3.5c0.1,0.3,0.6,0.4,0.9,0.7c0.2-0.4,0.6-0.8,0.5-1.2c-0.2-1-0.5-2-0.9-3l3.5-0.3l-6.1-3.6
	c0.1,1,0.2,1.8,0.3,2.6l-4.9,1.3l-1.9-2.3l-0.5,0.4c0.2,0.8,0.4,1.6,0.6,2.7l-4.8,1.2l-1.2-3.5l-0.7,0.2c-0.1,1.1-0.2,2.1-0.2,3.4
	c-1.3-0.2-2.6-0.4-3.9-0.7c-0.5-0.3-0.9-0.8-1.1-1.3c-0.2-0.9-0.4-1.9-0.5-2.9c-0.4,0.9-0.9,1.8-1.3,2.7c0,0.1-0.1,0.1-0.4,0.4
	l-4.2-2.4l1.4-4l-0.9-0.4l-2,3l-2.4-1.3l-0.3,0.4l1.8,2l-0.5,4.1l0.7,0.1l1.5-2.9c0.8,0.6,1.7,1.1,2.5,1.5c1.8,0.8,3.1,1.7,2.3,4
	c-0.2,0.5,0.4,1.2,0.6,1.8l0.6-0.2L910.9,549.1z M917.3,537.5c4.9,6,15,3.9,18.6-3.5c-8.5-4.2-12.8-11.7-15.3-20.5
	c-0.4-1.5-1.4-1.7-2.8-0.9c2.6,9.1,6.9,16.9,15.2,21.9c-3.7,5-7.9,6-13.1,3.5C919,537.8,918.2,537.6,917.3,537.5L917.3,537.5z
	 M909.8,501.8l0.6-0.6c-0.4-0.6-0.7-1.6-1.2-1.8c-3.6-1.7-7.3-3-11.1-4.1c-4.6-1.1-8.7,2.1-9.3,6.7c-0.1,0.8,0.5,1.7,0.9,3.2
	c4-8.4,6.7-9.4,14.6-5.9C906.1,500.3,908,501.1,909.8,501.8L909.8,501.8z M925.1,502.5c0,0.3,0,0.6,0.1,0.9c0.1,0.3,0.3,0.6,0.6,0.8
	c3.3,1.5,6.7,2.7,10.2,1.2c1.2-0.6,2.2-1.5,2.8-2.7c1-1.6,0.1-2.4-1.5-2.6C934.3,506.4,929.5,503.3,925.1,502.5L925.1,502.5z"/>
<path class="st0" d="M927.9,435.2c-0.8,0.5-1.1,0.7-1.4,0.9c-5.2,2.8-5.5,6.5-0.9,10c0.9,0.7,1.9,1.4,2.9,2.1
	c2.6,2.1,4.3,4.8,3.7,8.2c-1,5.9,1.2,9.9,6.1,13.1c2.4,1.7,4.5,3.9,6.2,6.3c3,3.9,2.4,8.8-0.9,12.4c-1.2,1.2-2.3,1.7-3.6,0.1
	c-0.7-0.8-1.4-1.6-2.1-2.5c-2.9-5-7.5-6.9-12.8-7.8c-8.7-1.5-16.9,0.6-24.9,3.8c-8.1,3.3-16.8,4.9-25.6,4.8c-2.4-0.1-4.8-0.7-7-1.9
	c-4.2-2.4-5.5-7.3-3.7-12.3c2-5.3,5.9-8.9,10.7-11.5c6.1-3.4,12.8-4.9,19.6-6.1c3.5-0.6,7.1-1,10.6-1.6c4.6-0.8,5.8-2.2,6.4-6.8
	c0.6-5.2,5-9.4,10.8-10.3C923.8,435.6,925.6,435.5,927.9,435.2z"/>
<path class="st0" d="M876.9,1044.6c4.4,2.9,9.5,5,15.5,3.6c3.1,10.3,9.5,18.4,15.4,26.7c5.1,7.2,10.5,14.2,13.8,22.5
	c1.1,2.8,1.9,5.8,2.3,8.8c0.4,3.1-1.3,4.7-4.4,4.5c-2.3-0.2-4.5-0.6-6.7-1.4c-12.1-4.2-22.3-12.4-29.2-23.2c-1.5-2.4-2.9-5-4.6-7.3
	c-2.1-2.8-4.4-5.4-6.9-7.7c-3.8-3.5-4.8-7.2-2.6-11.8c0.7-1.5,1.8-2.9,2.6-4.4C873.7,1051.6,875.2,1048.2,876.9,1044.6z"/>
<path class="st0" d="M985.7,1040.3c12.8,2.2,15.1,2,21.3-2.4c7.1,8,17.4,8.7,26.9,11c8.2,2,16.4,3.8,24.6,5.5c3,0.5,5.8,2.1,7.8,4.5
	c-2.2,4.3-5.4,6.9-10.7,7.1c-12.2,0.5-24.4,1.4-36.6,2.3c-5.9,0.5-11.8,1.7-17.7,2.2c-3,0.2-6.1,0-9.1-0.6c-5.1-1.1-7.7-4.3-7.9-9.5
	c-0.1-2.9,0-5.8,0.3-8.6c0.1-1.9,0.5-3.9,0.7-5.8S985.5,1042.3,985.7,1040.3z"/>
<path class="st0" d="M969.3,736.8c-0.8-10.9-1.6-21-2.4-31.2c3.9-1,7.5-2,11.2-2.9c5.2-1.3,8.2-4.6,8.7-10c0.4-3.9,0.8-7.8,1.2-11.9
	c1.4,0.8,2.8,1.5,4.2,2.2c8.1,4.4,16.2,9,23.1,15.3c5.9,5.4,6.2,7.9,0,12.8c-5.6,4.4-11.6,8.3-17.8,11.7
	C988.4,727.7,979.1,731.9,969.3,736.8z"/>
<path class="st0" d="M900.4,993.2c0.8-5.2,1.4-9.9,2.2-14.5c0.1-0.7,1.2-1.4,1.9-1.6c19.2-4.8,38.5-9.5,58-14.3
	c1.3,4.4,2.5,8.8,3.8,13.5L900.4,993.2z"/>
<path class="st0" d="M959.1,947.5l2.9,12.8l-58.7,14.4c0.7-4.5,1.3-8.7,2-12.8c0.1-0.5,0.9-1,1.5-1.1c17.2-4.5,34.3-8.9,51.5-13.3
	C958.6,947.4,958.8,947.5,959.1,947.5z"/>
<path class="st0" d="M927.8,707.8c-0.4,4.5-0.8,8.9-1.2,13.3c-0.1,1.5-0.9,1.8-2.2,1.7c-14.5-1.3-28.9-4.3-42.8-8.9
	c-0.7-0.3-1.2-0.9-1.4-1.6c-0.1-2.8-0.1-5.7-0.1-9c1.9,1,3.5,1.8,5,2.7c5.8,3,11.9,3.1,18.1,1.5c1.7-0.3,3.3-0.8,4.9-1.4
	c4.1-2.1,9-2.1,13.1,0C923.1,706.9,925.3,707.2,927.8,707.8z"/>
<path class="st0" d="M928.6,722.6c0.3-4.8,0.7-9.5,1.1-14.5c11.6,1.4,23,0.2,34.6-2.1c0.3,3.3,0.7,6.3,0.7,9.3c0,0.6-1,1.7-1.7,1.9
	c-3.9,1.4-7.9,2.5-12,3.3c-6.6,1-13.3,1.5-20,2.2C930.5,722.7,929.5,722.7,928.6,722.6z"/>
<path class="st0" d="M948.8,688.9c-0.3-6.5-2.6-12.7-6.6-17.9l5.5-7.8c0.7-1,1.5-2.1,2.3-3c3.1-3.2,7.1-2.9,9.8,0.7
	c5.5,7.4,4.4,16.9-2.8,22.7C954.6,685.4,951.9,686.9,948.8,688.9z"/>
<path class="st0" d="M882.1,517.6c-3.4-2.7-6.9-4.9-11.4-5.1c-0.6,0-1.4-1.1-1.8-1.8c-3.5-7.6-3.1-15.4-1.5-23l12.9,1.3
	c0.8,9.3,1.7,18.9,2.5,28.4L882.1,517.6z"/>
<path class="st0" d="M923.5,773.7c0.7,1,1.7,1.9,2.1,3.1c1,3.6,1.8,7.2,2.7,10.8c1.9,7.4,3.8,14.8,5.7,22.2c0.1,0.5,0.2,1,0.4,1.8
	l-13.8,3.5c0.6-13.9,1.1-27.5,1.6-41L923.5,773.7z"/>
<path class="st0" d="M913,563.1c-0.3,2.4-0.6,4.5-1,6.7c-0.1,0.4-0.4,1.1-0.7,1.1c-2.8,0.4-3.1,2.8-3.8,4.8
	c-0.4,1.3-0.9,2.5-1.3,3.8c-0.3-0.2-0.5-0.3-0.5-0.4c0.6-5.3-1.9-8.5-6.4-10.9c-2.6-1.6-5.1-3.3-7.5-5.1l4.6-13.2
	C900.8,555.9,905.9,560.9,913,563.1z"/>
<path class="st0" d="M903.2,581.1c-0.4,2-0.7,3.5-1.1,5c-0.2,0.6-0.6,1.1-1.1,1.4c-4,1.5-7.9,3-12,4.2c-2.9,0.8-3.4,0-2.8-3
	c0.8-4.1,1.3-8.3,2-12.5c0.2-1.6,0.6-3.1,1.1-4.7c1.3-3.1,3-3.5,5.3-1.1c1.8,1.9,3.4,4,5.1,6C901,578.1,902.2,579.8,903.2,581.1z"/>
<path class="st0" d="M912.3,587.2l-1.4-5.5l-0.9-0.3c3.1-2.8,6.1-5.7,9.3-8.4c0.7-0.6,2.2-0.5,3.2-0.2c0.3,0.1,0.4,1.8,0.2,2.7
	c-1,4.3-0.1,8.4,0.7,12.5c0.2,1,0.3,2.9-0.2,3.2c-1.2,0.6-2.5,0.7-3.8,0.2c-2.7-1-5.2-2.5-7.7-3.7L912.3,587.2z"/>
<path class="st0" d="M892.2,1037.2c-0.1,1.9-0.1,3.8,0,5.7c0.3,2.4-0.8,3.2-2.9,3.4c-4.8,0.6-8.9-1.3-12.8-4c-0.3-0.2-0.6-0.6-0.7-1
	c-0.4-2.7-0.8-5.5-1.2-8.9C880.3,1036.3,885.4,1039.9,892.2,1037.2z"/>
<path class="st0" d="M984.7,1032.2c6.6,0.8,13.1,4.6,19.1-0.8c0.3,0.2,0.5,0.3,0.5,0.4c1.8,4.6,1.4,5.4-3.1,7.4
	c-5.2,2.3-10.2,0.7-15.1-0.8c-0.4-0.1-0.7-0.9-0.8-1.4C985,1035.6,984.9,1034,984.7,1032.2z"/>
<path class="st0" d="M942.4,691.2c-0.9-7-4-12.7-8.1-18.3c1.5-0.5,3.1-1,4.7-1.3c0.8,0,1.5,0.4,2,1c3,3.8,4.8,8.3,5.4,13
	C946.9,689.8,946.8,690,942.4,691.2z"/>
<path class="st0" d="M907,581.9c1.9,0.1,3.6,1.7,3.6,3.3c0,1.9-1.9,4.2-3.4,4.1c-2-0.3-3.5-1.9-3.6-3.9
	C903.7,583.6,905.4,581.8,907,581.9z"/>
<path class="st0" d="M888.8,567.4l1.8-2.8c4,2.7,7.9,5.3,11.7,8.1c0.6,0.5,0.6,1.8,0.8,2.7s0.2,2,0.4,3.8c-1.1-1.4-1.7-2.3-2.4-3.1
	c-1.9-2.2-3.8-4.5-5.8-6.7C893.6,567.6,891.6,566.3,888.8,567.4z"/>
<path class="st0" d="M929.9,522.4c5.8-2.5,6.6-4.5,4.8-11.1c2.1-0.4,3.2,0.5,3.7,2.4C939.7,518.6,935.6,523,929.9,522.4z"/>
<path class="st0" d="M931.4,511.9c1.4,1.9,2.6,3.8,1.2,6c-0.5,0.8-1.8,1-2.7,1.5c-0.7-1.3-1.2-2.6-1.7-4
	C927.6,512.9,929.9,512.8,931.4,511.9z"/>
<path class="st0" d="M912.2,572.9l1.6,1.8l-6.1,6.4C909.3,577.9,908.6,574.3,912.2,572.9z"/>
<path class="st0" d="M925.1,700.6l3-0.9c0.1,2.2,0.3,4.2,0.4,6.2C925,706.3,924.8,706,925.1,700.6z"/>
<path class="st0" d="M922.3,701.5v3.6l-5.8-1.7L922.3,701.5z"/>
<path d="M600.9,879.4c-12,3.8-23.7,8-35.6,11.3c-22.4,6.2-45.3,10-68.3,12.9c-17.6,2.3-35.2,4.6-52.9,6.4
	c-17.9,1.9-35.9,3.7-53.8,4.7c-30,1.7-59.9,3.2-89.9,3.8c-27.1,0.5-54.2,0-81.4-0.5c-15.1-0.3-30.2-1.1-45.3-2.2
	c-29.1-2.2-57.7-7-84.8-18.3c-12.5-5.2-24.1-11.9-33.3-22.1c-5.5-6-9.3-13.3-11-21.2c-0.2-0.9-0.2-1.9-0.4-2.9l0.7-0.2
	c0.4,0.7,0.7,1.4,0.9,2.2c1.8,12.4,8.9,21.5,18.5,28.9c12,9.3,25.8,14.9,40.1,19.5c16.4,5.2,33.3,8.1,50.4,10.2
	c43.7,5.4,87.6,5.1,131.4,4.4c32.8-0.5,65.6-2,98.4-3.9c26-1.5,52-3.9,78-6.7c34.1-3.7,68.1-8.4,101.4-17.3c11.4-3,22.4-7.3,33.6-11
	C599.6,876.5,599.6,876.4,600.9,879.4z"/>
<path d="M318.4,891.4c0.7-0.6,1.4-1.1,2.1-1.6c38.2-20.2,76.4-40.4,114.7-60.4c11-5.8,22.5-10.6,34.6-13.4
	c15.1-3.5,29.9-1.1,44.3,3.7c2.8,0.9,5.4,2,8,3.4c5.5,3,5.8,6.6,1,10.5c-3.8,3.2-7.9,6.2-12.2,8.8c-26.2,14.9-53.2,28.2-82.2,37
	c-15.1,4.4-30.6,7.3-46.3,8.4c-20.8,1.7-41.7,2.9-62.5,4.3c-0.4,0-0.8,0-1.2-0.1L318.4,891.4z M324.5,889.2l0.1,0.5c0.3,0,0.7,0,1,0
	c20.9-1.5,41.9-2.8,62.8-4.7c15.9-1.4,31.6-4.6,46.8-9.5c29.6-9.8,57.1-23.9,83.6-40c1.1-0.7,2.1-1.4,3-2.3c3.1-2.8,2.9-5.6-0.6-7.9
	c-1.7-1.2-3.7-2.1-5.7-2.8c-5.3-1.5-10.7-2.8-16-3.9c-16.1-3.5-33-1.5-47.9,5.6c-31.7,14.8-63,30.5-93.7,47.1
	C346.8,877.2,335.6,883.2,324.5,889.2L324.5,889.2z"/>
<path d="M640.8,767.4c-0.9,0.4-1.9,0.7-2.8,0.9c-7.2,1.2-14.5,2.1-21.6,3.4c-32.7,5.9-65,13.3-97.2,21.6
	c-43.1,11.2-85.6,24.1-127.3,39.8c-24.4,9.2-48.1,20.1-70.4,33.8c-0.6,0.4-1.2,0.7-1.8,0.9c-0.5,0.1-0.9-0.1-1.3-0.5
	c-0.1-0.5,0-0.9,0.3-1.3c0.6-0.5,1.2-0.9,1.9-1.3c21.6-13.3,44.6-23.4,68.1-32.6c44.1-17.3,89.3-30.9,135.2-42.3
	c27-6.7,54.2-12.7,81.4-18.6c10.8-2.3,21.8-3.6,32.7-5.3c0.9,0,1.7,0.1,2.6,0.3C640.8,766.6,640.8,767,640.8,767.4z"/>
<path d="M613.5,859.1c0.7-0.8,1.2-1.6,1.9-2.3c14.7-16.3,33.3-25.7,54.4-30.7c19.7-4.6,39.7-5.3,59.8-3.2c10.5,1.1,20.8,3,31.2,4.6
	c0.7,0.2,1.3,0.3,2,0.6v0.9c-1,0.1-2,0.2-3,0.1c-16.6-3.5-33.6-5.4-50.6-5.5c-20.4,0-40.3,2.8-59.2,11
	c-12.6,5.3-23.8,13.4-32.9,23.6C616.2,859.2,615.4,860.4,613.5,859.1z"/>
<path d="M84.2,850.9c0.8,0.2,1.6,0.5,2.4,1c12,11.7,26.8,18,42.3,23c29.7,9.6,60.2,13,91.3,11.4c2-0.1,3.9,0,5.9,0.4
	c-0.4,0.2-0.8,0.3-1.2,0.4c-37,2.2-73.1-2-107.9-15.2c-11.3-4.3-22-9.9-31-18.2c-0.8-0.6-1.6-1.2-2.5-1.7L84.2,850.9z"/>
<path d="M144.4,982.1c-10.4,0.3-20.7,1-30.7,3.8c-1.1,0.2-2.2,0.2-3.3,0.2l-0.2-1c0.8-0.4,1.5-0.8,2.4-1.1
	c9.5-2.8,19.3-4.2,29.2-4.3c36.3-1,72.6-1.9,108.8-2.8c13.3-0.3,26.7-0.7,40-0.9c3-0.1,5.9,0.1,8.9,0.6c2.1,0.4,4,1.2,5.8,2.4
	c1.8,1.3,3.3,2.9,4.6,4.7c12,15.6,23.9,31.1,35.8,46.8c5.2,6.8,10,13.9,15,20.9c1.2,1.7,2.2,3.4,3,5.3c1.8,4.1,0.5,6.6-4,6.9
	c-6.6,0.4-13.3,1-19.8,0.3c-31.4-3.2-62.9-6.4-94.2-10.5c-17.7-2.3-35.3-5.8-52.8-9.7c-12.4-2.7-23.7-8.4-32.6-17.9
	c-9.5-10.2-15.1-22.1-15.8-36.1C144.3,987.4,144.4,984.9,144.4,982.1z M225.1,978.8v0.5c-16.8,0.5-33.6,0.9-50.5,1.4
	c-8.3,0.3-16.6,0.8-25,1.1c-2.1,0.1-2.9,0.8-2.8,2.9c0.1,1.9,0.2,3.7,0.2,5.6c0.5,17.3,8.2,30.5,22.5,40c10.1,6.7,21.3,10.8,33,13.6
	c25.2,6.2,51.1,8.6,76.8,11.7c17.5,2.1,35.2,3.5,52.8,4.9c9,0.7,18,1,27,1.3c3.2,0.1,3.8-0.9,2.3-3.7c-1.7-3.2-3.7-6.3-5.8-9.2
	c-17.6-22.9-35.2-45.8-53-68.6c-0.7-0.8-1.8-1.3-2.9-1.4C274.9,978.7,250,978.7,225.1,978.8L225.1,978.8z"/>
<path d="M538.6,1062.1c0.6-11.1,1-22,1.7-33c1.2-17.8,2.3-35.6,8.1-52.7c5-14.7,12-28.4,19.6-41.9c1.4-2.4,2.7-4.9,4.2-7.3
	c0.5-0.7,1.5-1,2.2-1.6l0.7,0.7c-0.4,1-0.8,1.9-1.3,2.8c-7.4,12.9-14.6,25.9-20.1,39.7c-5.3,13.2-8.4,27.1-9.3,41.3
	c-1.2,16.9-2,33.8-2.9,50.7c-0.1,2-0.6,2.8-2.7,3.1c-16.9,2.2-33.8,4.7-50.8,6.9c-17.4,2.3-34.9,4.5-52.4,6.4
	c-16.1,1.8-32.3,3.5-48.4,4.8c-12.7,1-25.4,1.4-38.2,2c-2.5,0-5.1-0.2-7.6-0.6c-0.6-0.1-1.2-0.8-1.7-1.3c0.7-0.3,1.4-1,2-1
	c3.7,0.2,7.5,0.7,11.2,0.8c14.6,0.5,29-1.1,43.5-2.7s29.2-3.2,43.8-4.9c18.5-2.2,36.9-4.6,55.4-6.9l39.7-4.9
	C536.4,1062.6,537.5,1062.4,538.6,1062.1z"/>
<path d="M563.2,932.8c-8.2,11.7-16.4,23.4-24.7,35c-5.8,8.2-12.2,16.2-17.6,24.7c-6.7,10.5-15.9,16.1-28,17.6
	c-7.2,0.9-14.3,2-21.4,2.9c-1.1,0.1-2.3-0.4-3.8-0.7c0.5-1.2,0.8-1.9,1.1-2.5c7.1-14.3,14.6-28.4,21.3-42.8
	c6.1-13.1,15.7-20.7,29.9-23.9c13.2-3,26-7.5,39-11.4C560.5,931.3,561.9,930.8,563.2,932.8z M558.9,934.2
	c-16,4.7-31.4,9.2-46.7,13.8c-5.6,1.7-10.4,5.3-13.6,10.2c-2.5,3.8-4.9,7.8-7,11.8c-6.3,12.2-12.4,24.6-18.5,36.9
	c-0.7,1.3-1.3,2.7-2.3,4.8c8.4-1.3,16.1-2.5,23.8-3.8c10.4-1.7,17.9-7.3,23.6-16.1c6.3-9.7,13.3-18.9,20-28.3
	C545,953.9,551.8,944.2,558.9,934.2L558.9,934.2z"/>
<path d="M535.8,1013.2c-0.9,8.7-2.5,16.5-5.7,24c-3.3,7.7-9.1,12.1-17.1,13.8c-17,3.5-34.1,6.9-51.2,10.2c-4.7,0.9-9.4,1.7-14,2.4
	c-0.8,0-1.6-0.1-2.4-0.3c0-0.8,0.2-1.6,0.4-2.3c6.3-12.1,12.5-24.1,18.9-36.1c0.5-0.9,1.4-1.6,2.4-1.9c7.4-1.8,14.8-3.7,22.3-5
	c14.5-2.4,29.1-4.4,43.6-6.6C535.1,1011.1,536.2,1011.4,535.8,1013.2z M533.1,1013.9c-2.2,0.3-4.2,0.4-6.1,0.7
	c-10.3,1.5-20.7,3-31,4.4c-9,1.2-18,2.4-26.6,5.7c-1.4,0.6-2.6,1.6-3.4,3c-5.6,10.6-11.1,21.2-16.6,31.8c-0.2,0.3-0.3,0.7-0.5,1.4
	c8.3-1.4,16.3-2.7,24.3-4.3c13.3-2.6,26.6-5.3,39.9-8.1c7.3-1.5,12.1-6.2,14.9-13S532.2,1021.6,533.1,1013.9z"/>
<path d="M116.7,1026.8c-1.6-0.5-2.4-0.7-3.3-1l-69.3-25.4c-2.3-0.8-3-1.8-2.5-4.4c1.6-7.5,2.9-15,4.2-22.5c0.4-2.2,1.2-2.4,3.1-1.6
	c16.7,7.2,33.4,14.3,50,21.4c2.6,1,4.7,3.1,5.8,5.7c3.6,8.4,7.3,16.8,11,25.2C116.1,1025,116.4,1025.9,116.7,1026.8z M113.3,1024.5
	c-3.2-7.3-6.1-14-9-20.7c-4.2-9.5-4.3-9.2-14-12.9c-13.1-5.1-26-10.8-39-16.2c-0.8-0.3-1.7-0.7-2.7-1c-0.2,0.7-0.2,1-0.3,1.5
	c-1.3,7.1-2.5,14.2-4.1,21.2c-0.6,2.8,1,3,2.8,3.7c19.8,7.3,39.6,14.6,59.4,22L113.3,1024.5z"/>
<path d="M31.7,955.4c2.2,0.4,9.4,15.4,8.7,17.8C38.7,972.5,32.5,960,31.7,955.4z"/>
<path d="M1041.7,715.3c4.1-2.1,8.6-3.4,13.2-3.8c5.9-0.7,11.7-0.3,17.2,2.2c8.6,4,12.2,12.2,9,21.1c-1,3-2.4,5.8-4.3,8.3
	c-3.8,4.8-8,9.2-12.1,13.7c-1,1.1-2.4,2.1-3.4,0c-6.6-13.6-13.1-27.2-19.6-40.8C1041.7,715.7,1041.7,715.5,1041.7,715.3z
	 M1063.5,755.4c7-6.8,13.4-13.7,15.5-23.3c1.8-8-1.4-13.8-9-16.9c-5.8-2.4-11.9-2.6-18-1.7c-2.5,0.4-5,1.2-7.7,1.9
	C1050.8,729,1057.1,742,1063.5,755.4L1063.5,755.4z"/>
<path d="M1045.2,874.3c-1,0.5-2,1-3.1,1.4c-1.7,0.6-2.4,1.5-2.4,3.5c0.1,14.7,0.1,29.4,0.1,44.1v3.1l-6.5,1.8
	c5-2.3,4.3-6.7,4.3-10.9c-0.2-13.2-0.3-26.5-0.4-39.8c0.2-0.9,0.8-1.6,1.6-1.9C1040.8,875,1043.1,874.7,1045.2,874.3L1045.2,874.3z"
	/>
<path d="M1045.2,874.3l54.9-10.7c0.1,0.3,0.1,0.7,0.2,1l-15.3,3c-10.8,2.1-21.5,4.2-32.3,6.1C1050.2,874,1047.7,874.2,1045.2,874.3
	L1045.2,874.3z"/>
<path d="M591.2,983.8c0.7-25.1,4.1-49.7,13.8-73c8.2-19.5,20.2-36,38.4-47.3c9.1-5.6,18.6-10.1,29.5-11.2c6.2-0.5,12.5,0.7,18.1,3.4
	c24.4,11.5,40.8,30.1,46.7,56.4c4.7,21.1,5.9,42.7,4.7,64.4c-0.9,17.6-3.8,34.8-10.4,51.2c-7.4,19-20.5,35.2-37.5,46.5
	c-28.6,19.1-65.9,10.9-84.9-16.7c-8.6-12.6-14-27.1-15.7-42.3C592.7,1004.8,592.1,994.3,591.2,983.8z M740.7,965.3
	c-0.1-16.1-1.4-32.2-4-48.1c-4-24.9-17.3-43.6-38.7-56.5c-10-6-20.9-8-32.3-4.6c-13,3.9-24.9,10.9-34.6,20.4
	c-13.7,13.3-22.2,29.7-27.5,47.8c-7.9,27.2-10.8,55.7-8.5,84c0.9,13.5,4.3,26.7,9.9,39c14.9,31.7,55.1,48.8,89.6,24.1
	c16-11.5,28.3-27.3,35.5-45.7C738.1,1005.9,740.6,985.1,740.7,965.3z"/>
<path d="M900.4,510.1c4.3-0.1,10.4,3.7,11.9,7.3s-0.4,7-4.7,7.3c-4.6,0.5-9.2-1.1-12.6-4.3c-1.7-1.7-3-3.6-2-6.1
	c1-2.3,3.2-3.9,5.7-4.1C899.4,510.2,900,510.1,900.4,510.1z M898.7,521.1c3.3,2,6.9,2.8,9.3,2.3c3.2-0.7,4.5-3.1,2.7-5.5
	c-1.2-1.8-3.1-3.1-5.1-5.1C905.9,519.8,905,520.8,898.7,521.1L898.7,521.1z M903.1,515.6c-0.7-1.2,0.4-3.9-2.5-4.1
	c-2-0.1-4.5,2-4.5,3.7c0,1.9,2.2,3.6,4.5,3.7C902.6,519,903.3,517.8,903.1,515.6L903.1,515.6z"/>
<path d="M910.9,549.2l-0.7,3.4l-0.6,0.2c-0.2-0.6-0.8-1.3-0.6-1.8c0.8-2.3-0.5-3.2-2.3-4c-0.9-0.5-1.7-1-2.5-1.5l-1.5,2.9l-0.7-0.1
	l0.5-4.1l-1.8-2l0.3-0.4l2.4,1.3l2-3l0.9,0.4l-1.4,4l4.2,2.4c0.3-0.3,0.4-0.3,0.4-0.4c0.4-0.9,0.9-1.8,1.3-2.7
	c0.1,1,0.3,1.9,0.5,2.9c0.2,0.6,0.6,1.1,1.1,1.3c1.3,0.3,2.6,0.6,3.9,0.7c0.1-1.3,0.2-2.3,0.2-3.4l0.7-0.2l1.2,3.5l4.8-1.2
	c-0.2-1.1-0.4-1.9-0.6-2.7l0.5-0.4l1.9,2.3l4.9-1.3c-0.1-0.8-0.2-1.6-0.3-2.6l6.1,3.6l-3.5,0.3c0.3,1,0.6,2,0.9,3
	c0.1,0.4-0.3,0.8-0.5,1.2c-0.3-0.2-0.8-0.4-0.9-0.7c-0.4-1-0.7-2.1-1.2-3.5l-5.1,1.5l1.2,3.5l-0.6,0.4l-2.2-3.2l-5.4,1.3
	c0.1,0.9,0.2,1.8,0.3,2.6C916.9,549.9,913.8,549.8,910.9,549.2z"/>
<path d="M917.3,537.6c0.9,0.1,1.7,0.2,2.5,0.5c5.2,2.5,9.5,1.5,13.1-3.5c-8.3-5-12.6-12.8-15.2-21.9c1.4-0.8,2.4-0.6,2.8,0.9
	c2.5,8.8,6.8,16.3,15.3,20.5C932.3,541.5,922.2,543.6,917.3,537.6z"/>
<path d="M909.8,501.9l-5.6-2.4c-7.9-3.5-10.6-2.6-14.6,5.9c-0.4-1.5-1-2.4-0.9-3.2c0.6-4.6,4.8-7.8,9.3-6.7
	c3.8,1.1,7.5,2.5,11.1,4.1c0.6,0.2,0.8,1.2,1.2,1.8L909.8,501.9z"/>
<path d="M925.1,502.5c4.4,0.8,9.2,3.9,12.2-2.4c1.6,0.2,2.5,1,1.5,2.6c-0.7,1.2-1.6,2.1-2.8,2.7c-3.6,1.5-7,0.3-10.2-1.2
	c-0.3-0.2-0.5-0.5-0.6-0.8C925.1,503.2,925.1,502.8,925.1,502.5z"/>
<path class="st0" d="M324.5,889.2l33.4-18c30.8-16.6,62.1-32.2,93.7-47.1c14.9-7.2,31.7-9.1,47.9-5.6c5.4,1.1,10.8,2.4,16,3.9
	c2,0.6,4,1.5,5.7,2.8c3.5,2.3,3.7,5.1,0.6,7.9c-0.9,0.9-1.9,1.6-3,2.3c-26.5,16.2-54.1,30.2-83.6,40c-15.2,5-30.9,8.2-46.8,9.5
	c-20.9,1.9-41.9,3.2-62.8,4.7h-1L324.5,889.2z"/>
<path class="st0" d="M225.1,978.8c24.9,0,49.8,0,74.7,0.1c1.1,0.1,2.1,0.6,2.9,1.4c17.7,22.8,35.4,45.7,53,68.6
	c2.2,2.9,4.1,6,5.8,9.2c1.5,2.8,0.8,3.8-2.3,3.7c-9-0.3-18-0.6-27-1.3c-17.6-1.4-35.2-2.8-52.8-4.9c-25.7-3-51.5-5.4-76.8-11.7
	c-11.7-2.9-22.9-6.9-33-13.6c-14.3-9.5-22-22.8-22.5-40c-0.1-1.9-0.1-3.7-0.2-5.6s0.7-2.8,2.8-2.9c8.3-0.3,16.6-0.8,25-1.1
	c16.8-0.5,33.6-1,50.5-1.4L225.1,978.8z"/>
<path class="st0" d="M558.9,934.2c-7.1,10-13.9,19.7-20.7,29.3c-6.7,9.4-13.7,18.6-20,28.3c-5.7,8.8-13.2,14.4-23.6,16.1
	c-7.7,1.2-15.4,2.5-23.8,3.8c1-2.1,1.6-3.5,2.3-4.8c6.1-12.3,12.2-24.6,18.5-36.9c2.1-4.1,4.5-8,7-11.8c3.1-4.9,8-8.6,13.6-10.2
	C527.6,943.4,543,938.9,558.9,934.2z"/>
<path class="st0" d="M533.1,1013.9c-0.9,7.7-2.2,14.9-5,21.7s-7.6,11.4-14.9,13c-13.3,2.8-26.6,5.5-39.9,8.1c-8,1.6-16,2.8-24.3,4.3
	c0.3-0.7,0.4-1,0.5-1.4c5.5-10.6,11-21.3,16.6-31.8c0.8-1.3,2-2.4,3.4-3c8.5-3.3,17.6-4.5,26.6-5.7c10.3-1.4,20.7-2.9,31-4.4
	C528.9,1014.3,530.8,1014.1,533.1,1013.9z"/>
<path class="st0" d="M113.3,1024.5l-6.9-2.5c-19.8-7.3-39.6-14.6-59.4-21.9c-1.7-0.7-3.4-0.8-2.8-3.7c1.6-7,2.8-14.1,4.1-21.2
	c0.1-0.4,0.2-0.8,0.3-1.5c1,0.4,1.8,0.7,2.7,1c13,5.4,25.9,11.1,39,16.2c9.6,3.7,9.8,3.4,14,12.9
	C107.3,1010.5,110.2,1017.2,113.3,1024.5z"/>
<path class="st0" d="M1063.5,755.4c-6.4-13.4-12.7-26.4-19.2-39.9c2.7-0.7,5.2-1.5,7.7-1.9c6.1-0.9,12.2-0.7,18,1.7
	c7.6,3.1,10.8,8.9,9,16.9C1076.9,741.8,1070.5,748.6,1063.5,755.4z"/>
<path class="st0" d="M740.7,965.3c-0.1,19.8-2.5,40.6-10.6,60.5c-7.5,18.6-19.1,33.9-35.5,45.7c-34.5,24.8-74.8,7.6-89.6-24.1
	c-5.7-12.3-9-25.5-9.9-39c-2.3-28.3,0.6-56.8,8.5-84c5.3-18.1,13.8-34.5,27.5-47.8c9.7-9.5,21.6-16.5,34.6-20.4
	c11.5-3.5,22.4-1.5,32.3,4.6c21.3,12.9,34.7,31.6,38.7,56.5C739.3,933.1,740.6,949.2,740.7,965.3z"/>
<path class="st0" d="M898.7,521.1c6.3-0.4,7.2-1.4,7-8.3c2,1.9,3.8,3.3,5.1,5.1c1.7,2.5,0.4,4.8-2.7,5.5
	C905.6,524,902,523.1,898.7,521.1z"/>
<path class="st0" d="M903.1,515.7c0.1,2.2-0.5,3.3-2.5,3.3c-2.3,0-4.5-1.8-4.5-3.7c0-1.7,2.5-3.9,4.5-3.7
	C903.5,511.8,902.5,514.4,903.1,515.7z"/>
</svg>
