<svg xmlns="http://www.w3.org/2000/svg" viewBox="0 0 1200 1562.9"><defs><style>.cls-1{fill:#fff;}</style></defs><g id="Layer_2" data-name="Layer 2"><g id="Layer_1-2" data-name="Layer 1"><path class="cls-1" d="M0,632.49V0H1200V1562.9H0V1560c3.41-1.82,6.77-3.74,10.23-5.45,25.26-12.47,50.43-25.13,75.86-37.27,24.26-11.58,49-22.21,74.26-31.37a771.72,771.72,0,0,1,78.91-24.23c23-5.65,46-11.28,69.27-15.63,35.78-6.7,71.72-12.61,107.68-18.27,27.69-4.36,55.46-8.28,83.29-11.58,43.52-5.16,87-10.45,130.7-14.15s87.45-5.92,131.22-8c30.73-1.43,61.53-1.71,92.3-2,68.82-.72,137.61-.21,206.26,5.68,19.42,1.67,38.87,3,58.27,4.86,25.65,2.52,51.26,5.49,76.89,8.24a36.52,36.52,0,0,0,3.78,0v-9c-2-.33-3.52-.67-5.1-.84-26.43-2.82-52.83-6-79.31-8.31-32.1-2.75-64.27-4.73-96.41-7-31-2.15-62.15-2.54-93.24-2.7-71.56-.37-143.11.13-214.54,4.82-39.23,2.58-78.41,5.81-117.57,9.21-20.38,1.77-40.68,4.45-61,6.88-18.71,2.24-37.42,4.49-56.09,7.1-26.32,3.68-52.61,7.65-78.9,11.58-40.32,6-80.43,13.19-120.22,22.14-24.37,5.47-48.56,11.56-72.44,18.85-24.49,7.47-48.82,15.47-72.29,25.76-23.73,10.39-47.38,21-70.79,32.07-18.91,9-37.41,18.8-56.11,28.2A35.39,35.39,0,0,1,0,1551.3V1216.66a10.85,10.85,0,0,0,3.1-1c5.9-4.21,11.64-8.65,17.58-12.8,14-9.76,27.72-20,42.21-29,17.78-11,36.16-21.05,54.43-31.27C149.1,1124.85,182,1109.36,215,1094a928,928,0,0,1,95.14-37.75c13.12-4.42,26.34-8.54,39.55-12.72,12.8-4,10.87-4.94,21.7,4.73,12.57,11.22,22.6,24.69,32.11,38.5a380.34,380.34,0,0,1,27.85,47.49c3.62,7.35,7.81,14.42,11.7,21.64.83,1.55,1.47,3.21,2.21,4.81,3.21,6.85,6.34,13.73,9.7,20.51.53,1.06,2.12,1.61,3.22,2.39a15.34,15.34,0,0,0,2-3.47c.56-2,.3-4.27,1.07-6.15,2.6-6.31,3.69-13,5.2-19.53,2.61-11.29,5.79-22.44,8.81-33.63q8.28-30.78,16.67-61.54c5.71-21,11.64-41.9,17.06-62.95,1.3-5,3.76-7.7,8.46-9.37,10-3.56,19.91-7.44,29.81-11.32,21.59-8.46,43.2-16.84,64.69-25.54,26.26-10.63,52.48-21.36,78.53-32.5,5.58-2.39,9.28-1.78,13.86,1.93,17.27,14,34.94,27.51,52.28,41.42,15.31,12.3,30.37,24.92,45.59,37.33,2,1.61,3.48,3.4,3.81,5.93a34.72,34.72,0,0,1,.25,5.3c-.53,22.43,1.09,44.8,2.66,67.13,1.1,15.72,3.27,31.4,5.59,47,2.65,17.84,5.59,35.65,9.15,53.33,3.27,16.26,7.38,32.35,11.45,48.43,1.34,5.26,3.67,10.29,5.68,15.36a5.91,5.91,0,0,0,2.27,3c4.4,2.28,8.74,5.12,13.47,6.24,14,3.31,28.36,4.55,42.69,4.85,29.15.62,58.34,1,87.44-1.75,16.23-1.54,32.31-4,47.93-8.8,4.76-1.47,9.39-3.4,14-5.28,2.1-.85,4.33-2,4.29-4.7s-2.49-3.56-4.65-4.2a70.57,70.57,0,0,0-8.91-2.18c-16.76-2.61-32.27-8.91-47.41-16.16a773.53,773.53,0,0,1-77.59-42.34c-16.08-10.1-30.57-22-42.22-37.16-15.79-20.5-24.14-44.28-29.92-69.09-2.6-11.13-4.46-22.43-6.67-33.65-.53-2.69-1.55-5.34-1.64-8-.33-10.13-.52-20.27-.44-30.4,0-3.17-.56-5.53-3.12-7.58-4.51-3.61-8.71-7.61-13.21-11.23Q795.72,955.1,774.12,938c-13.9-11-27.86-21.91-41.78-32.88-1.07-.85-2-1.92-3.46-3.43,2.54-1.39,4.38-2.6,6.37-3.46,10.33-4.48,20.7-8.85,31-13.3q24.41-10.5,48.78-21,32.17-13.8,64.37-27.52c14.82-6.29,29.51-13,44.59-18.55,19.61-7.28,39.45-14,59.37-20.38A449.67,449.67,0,0,1,1053,781.09a464.38,464.38,0,0,1,71.78-5c23.38.08,46.72.6,70,2.92,1.36.14,2.75,0,4.22,0v-8.62a21.4,21.4,0,0,0-2.65-.59c-10.93-.73-21.85-1.8-32.8-2.05-16.43-.38-32.87-.29-49.31-.19a391,391,0,0,0-62.06,5.56c-34.4,5.76-67.85,15.3-100.75,26.81-28.89,10.12-57,22.23-85.15,34.17-26.53,11.24-53,22.72-79.41,34.18a9.15,9.15,0,0,1-7.91.13c-4.09-1.91-8.08-4-12.22-5.81-11.25-4.81-22.29-10.3-33.9-14-23.16-7.43-46.64-13.85-70-20.69-6.26-1.84-6.78-2.53-7.43-9-2.15-21.53.26-42.35,8.39-62.58,8.5-21.15,14-43.22,17.38-65.74,1.74-11.44,2.6-23,3.8-34.55.38-3.57.82-4.43,3.91-3.94,8.51,1.36,16.75-.32,24.92-2a65.13,65.13,0,0,0,21.77-9,11.43,11.43,0,0,0,3.14-2.94,11.22,11.22,0,0,1,6.65-4.43c10.4-2.91,20.91-5.49,31.09-9,16.27-5.65,32.27-12,48.46-17.92a31.45,31.45,0,0,1,9.84-2c6-.16,11.91-.42,17.55-2.74a7.74,7.74,0,0,1,7.36.76,35.87,35.87,0,0,0,7,3.15c10.71,3.5,21.51,6.77,32.19,10.36a33.74,33.74,0,0,1,7.51,4.11c4.14,2.74,8.07,5.8,12.21,8.52a14.71,14.71,0,0,0,10.63,2.26c1.28-.19,3.32,0,3.94.83,2.69,3.59,5.93,2.58,9.16,1.5,2.39-.81,4.67-2,7.33-3.1.49,1.57,1.15,2.75,1.17,3.94.09,5.07,4.09,7.21,7.21,10.07,2.15,2,4.8,1.56,7.32,1.79,3.18.3,6.38.53,9.58.66,2.35.11,4.93.64,7-.09,8.81-3.06,17.58-6.26,26.16-9.9,7.85-3.32,15.41-7.32,23.13-10.94,3.29-1.53,4.29-4.28,4.06-7.52a14.56,14.56,0,0,0-1.47-5.55c-2-4-4.37-7.87-6.68-11.74a16.83,16.83,0,0,1-2.56-9.55c.33-11.44-2.53-22-10.15-30.91a4.84,4.84,0,0,0-3.3-1.43,38.64,38.64,0,0,0-6.2.84,23.16,23.16,0,0,1-3.77.72c-.75,0-1.49-.79-2.24-1.22.45-.75.73-1.81,1.39-2.19a13.31,13.31,0,0,1,3.66-1.19c9.88-2.31,19.74-4.72,29.66-6.83,14.66-3.11,29.31-6.31,44.06-8.88,17.93-3.12,35.91-6.08,54-8.28a556,556,0,0,1,62.65-4.57c1.53,0,3.06-.31,5.06-.53-.19-2.78-.35-5.06-.53-7.58-2,0-3.48-.07-4.91,0-12.54.76-25.09,1.41-37.61,2.33-35.92,2.63-71.28,9-106.49,16.27-15.46,3.19-30.8,6.95-46.21,10.39-1.95.43-4,.51-6.4.81,0-1.56-.28-2.6,0-3.38,1.23-2.91,0-5.32-1.29-7.74-.77-1.41-1.58-2.8-2.48-4.14-2.57-3.86-3.7-4.37-8-2.54-8.8,3.77-18.07,5.78-27.35,7.88a133.12,133.12,0,0,0-14.7,4.63c-3.6,1.25-5.62,3.88-6.53,7.72-1.18,5-1.56,5.14-6.67,4.3A165.18,165.18,0,0,1,896,546.5c-6.11-2.42-12.3-4.76-19.1-4.76-1.63,0-3.33-1-4.89-1.69q-8.49-4-16.91-8.18a20.49,20.49,0,0,1-4.49-2.69c-7-6.17-14.63-7.24-21.93-1.5-5.38,4.21-11.35,6.51-17.5,8.79-1.36.5-2.71,1-4,1.62-15.9,7.27-32.32,12.77-49.67,15.45-4.1.64-6.63-.3-9.09-3.53-5.06-6.64-11.88-11.34-19-15.43-7.29-4.17-15.43-5.45-23.77-5.48H696c1-9.34,25.48-58.72,32.49-65.47-3.2,6.73-6.16,12.79-9,18.91q-8,17.31-15.81,34.71a10.78,10.78,0,0,0-.45,2.88,7.18,7.18,0,0,0,3.29-3c4.36-7.53,8.87-15,12.92-22.67,13.73-26.09,27.25-52.28,40.9-78.4q16.11-30.81,32.34-61.56c5.56-10.54,11.24-21,16.94-31.47.75-1.39,1.3-3.1,3.39-4.12a11.08,11.08,0,0,1-.24,2.33c-5.61,14.22-11.3,28.41-16.85,42.65-3.33,8.54-6.48,17.16-9.63,25.78a19.55,19.55,0,0,0-.61,3.86l1.06.49a13.65,13.65,0,0,0,2.52-2.45c2.18-3.57,4.38-7.15,6.24-10.89,11.54-23.08,20.44-47.27,30-71.17,3.72-9.25,7.27-18.58,10.72-27.94,1.19-3.2,3.1-4.49,6.5-4.39,4,.12,8.05-.35,12.08-.29,3.34,0,6.66.21,9.5,2.64,9.53,8.15,18.69,16.83,28.87,24.09,20.47,14.57,43.49,18.86,67.6,11.85,26.28-7.65,49-21.86,68-41.67,8.13-8.47,14.56-18,16.9-29.87.72-3.63,1.52-3.83,5.5-3.45,24.23,2.33,47.61-.34,69.55-11.67,5.24-2.71,5.6-2.49,10,1.8q32.4,31.83,64.88,63.59a33.11,33.11,0,0,0,3.23,2.4c.9-7.16.68-12.7-4.88-18-18.13-17.4-35.64-35.45-53.36-53.27-1.55-1.56-3-3.28-4.71-5.26,2.73-2.47,5.07-4.65,7.48-6.74,8.39-7.25,14.85-16,20.38-25.56,8.93-15.39,11.81-32.25,11.67-49.72a61.16,61.16,0,0,0-7.18-28.81c-7.85-14.66-19.52-25.52-34-33.42-18.16-10-37.82-13.27-58.33-12.55q-10.15.35-20.3.29c-3.35,0-6.69-.48-9.3-.68-2.07-4-3.83-7.38-5.54-10.78a17.94,17.94,0,0,1-1-2.71c-5.23-16.38-16.34-26.25-33.15-29.55a69.14,69.14,0,0,0-30.23.71,200.86,200.86,0,0,0-22.42,7.43c-3.44,1.3-6,1.45-8.6-1.51-2.32-2.67-5-5-7.56-7.47-3-2.89-6-5.82-9.23-8.53-2.3-1.95-3.26-1.5-4.63,1.28a6,6,0,0,1-2.24,2.8c-2.2,1-2.9,2.82-3.43,4.92-2.76,10.93-5.64,21.83-8.3,32.78a18,18,0,0,1-5.61,9.35c-2.49,2.28-4.85,4.71-7.17,7.17C884.9,82,875.22,97.21,865.2,112.19c-2.47,3.69-5.12,5.23-9.43,5.15a102.81,102.81,0,0,0-25.9,2.61c-27.83,6.64-50.23,21.14-66,45.29a73.09,73.09,0,0,0-9.81,22.94c-1.81,7.5-1.8,15-2,22.57-.46,20.67,9.1,36.11,25.54,47.62,4.84,3.38,10.42,5.7,15.67,8.5,1,.52,2,1,3.43,1.75-1.1,1.82-2,3.48-3,5q-25.62,36-51.28,72-18.51,25.95-37.07,51.87c-1.16,1.62-2.53,3.1-4,4.95-1.05-1.51-1.76-2.36-2.3-3.31-6-10.47-11.68-21.16-18.07-31.4-9.3-14.89-19.2-29.4-28.7-44.17-12.56-19.51-24.77-39.24-37.49-58.65-21.64-33-43.53-65.84-65.37-98.72-4.64-7-9.49-13.81-14.29-20.67a13.33,13.33,0,0,0-11-5.91,55.2,55.2,0,0,1-1.87,6.58c-2.49,5.94-5.13,11.82-7.78,17.69C498.32,199.7,484.06,236.28,471,273.35c-9.29,26.42-18.92,52.72-28.46,79.06a28.34,28.34,0,0,1-2.31,4.08c-.87-.67-1.35-.88-1.59-1.25-4.27-6.62-8.5-13.27-12.78-19.89a5.68,5.68,0,0,1-.26-6.36c3.2-5.69,4.83-11.84,6-18.24a88.8,88.8,0,0,0-4.08-48c-7.23-19.55-20.34-33.23-40-40.69-14.54-5.53-29.68-7.09-45.05-7.58-16.83-.54-31.71,4.44-44.6,15.33-1,.81-2.06,1.45-3.36,2.34a22.17,22.17,0,0,1-2.48-3.08c-2.49-4.68-6.53-6.27-11.58-6.43a50.84,50.84,0,0,0-19,3.14c-15.59,5.63-27.35,16-36.09,30a157.08,157.08,0,0,0-17.59,38c-2.66,8.79-5,17.66-4.6,27,.25,5.27.19,5.22-4.91,7.19-11.59,4.48-21,11.74-25.71,23.41-8.51,21.17-7.61,42,5.1,61.44,14.17,21.73,36.57,28.44,59.83,20.36a123.46,123.46,0,0,0,33.25-17.44C276.12,411.78,281,407.28,286,403c1.63-1.42,3-2.78,5.51-2,12.66,4,25.63,4.53,38.75,3.28a47.91,47.91,0,0,1,5.34.15c-1.41,2.64-2.31,4.48-3.36,6.23-8.59,14.37-17.44,28.59-25.76,43.11-12.65,22.07-25.43,44.08-37.25,66.59-15.87,30.22-30.87,60.89-46.27,91.35-.75,1.48-1.79,2.82-3.13,4.89a21.18,21.18,0,0,1-1.49-3.35c-.74-3.79-1.39-7.6-2-11.41-2.45-14.45-4.94-28.89-7.3-43.35-1.66-10.17-2.94-20.41-4.71-30.56-2.27-13-4.67-26-7.39-38.92a33,33,0,0,0-6.57-14.45c-1.32,1.55-2.78,2.63-3.39,4.08-1.5,3.54-2.63,7.25-3.87,10.91q-7.41,22-14.83,43.94c-.54,1.6-1.42,3.09-2.47,5.35-2.29-2.33-4.05-4.13-5.82-5.91-3.59-3.61-5.47-3.49-8.49.62a35.91,35.91,0,0,0-2.59,4.07c-3.93,7.21-8.12,14.3-11.65,21.7-14.84,31.14-31.95,61-49.18,90.88a44.7,44.7,0,0,1-3.1,4.1c-1.32-1.6-2.26-2.64-3.08-3.77C80,648,78.44,645.35,76.48,643q-15.78-18.93-31.73-37.7-8-9.39-16.31-18.47c-3-3.3-7.5-2.61-10,1.22a10.81,10.81,0,0,0-.81,1.76Q10.62,607.27,3.53,624.7C2.46,627.34,1.18,629.9,0,632.49ZM309.2,81.13c-9.86.41-16.69,5.09-21.57,13.07a31.66,31.66,0,0,0-4.52,20.34c.17,1.62.51,3.38,2.48,3.69,2.22.34,3.15-1.35,3.71-3.08.49-1.52.55-3.17,1-4.71,1.17-4.32,2.22-8.69,3.74-12.9,1.36-3.8,4.41-5.76,8.51-6.07A27.94,27.94,0,0,1,315.34,93c2.68,1.08,5.32,2.27,8,3.4,5,2.14,9.84-.27,11.08-5.57.36-1.57.47-3.19.78-4.77,1.22-6.39,4.5-9.44,11-10.26a23,23,0,0,1,14.5,2.49c2.79,1.57,5.38,3.5,8.18,5s5.21.7,7-2.09c1.56-2.5,1.26-4.93-1.18-6.76a53.81,53.81,0,0,0-7.27-4.72c-15.49-8.09-31.52-2.88-39.45,12.72-1.51,3-1.93,3-5.28,2.09C318.2,83.32,313.69,82.27,309.2,81.13ZM138.65,94.77c-3.91.41-8.43.62-12.85,1.41-14.43,2.58-24.86,14.59-23.47,28.44,0,.32,0,.64,0,1,.23,2.15-.75,3.36-2.85,3.71l-4.77.77A22.32,22.32,0,0,0,78,141.92c-2.9,5.49-4.66,11.6-6.81,17.48-.64,1.74-.67,3.71,1.55,4.43,2,.62,2.87-1,3.67-2.4s1.36-2.56,2-3.88c1.37-3.09,2.89-6.14,4-9.32,2.06-5.91,6.34-8.71,12.3-9.26,3.2-.3,6.43-.28,9.64-.54,6.26-.51,9.32-4.86,8.07-10.9a45.35,45.35,0,0,1-1.09-9.56c0-6.1,3-10.09,9-11.63,8.78-2.28,17.64-3.4,26.55-.32,3,1.06,7.27-1.88,8-5.28.57-2.75-1-4.57-4.94-5.13C146.35,95.11,142.79,95.06,138.65,94.77ZM60.44,336.26v-.09l2.89.17c8,.37,11.13-4,8.62-11.51a19.35,19.35,0,0,1-.8-7.57c.32-3.74,2.42-5.31,6.2-5.28a14.33,14.33,0,0,1,9.59,3.9c2.16,1.89,4.72,1.46,6.76-.75a5.5,5.5,0,0,0,.27-7.4c-6-6.33-17.49-7.08-24.31-1.53A20.34,20.34,0,0,0,62,321.7c-.2,4.37-.36,4.47-4.57,5.3a13.76,13.76,0,0,1-1.43.24c-7.27.8-12.46,5-16.45,10.68-3.21,4.6-4.84,9.79-3.8,15.52.33,1.82,1,3.64,3.15,3.71s3.07-1.62,3.48-3.41c.49-2.2.64-4.46,1.09-6.67,1.52-7.39,5.11-10.45,12.61-10.8C57.54,336.2,59,336.26,60.44,336.26Zm566.69,1200.8-.72.75a24,24,0,0,1-2.39-1.44c-5.24-4-10.43-8-15.7-12q-10.22-7.67-20.55-15.16c-1.44-1-2.83-2.69-5.67-1.54,2.77,3.84,6.57,5.88,10,8.37s7,5.16,10.45,7.74,6.76,4.9,10.05,7.47,6.65,5.57,10.08,8.22,5.49,6.5,9.79,8.73c.27-1.63.08-3,.68-3.67,1.84-2,.92-3.43-.33-5.07-2-2.54-3.84-5.15-5.79-7.71-5.33-7-11.11-13.75-13.85-22.37,0-.12-.55-.09-1-.16a8.43,8.43,0,0,0,.56,6.92,50.83,50.83,0,0,0,4.44,7.43C620.35,1528.14,623.78,1532.57,627.13,1537.06ZM140,1342c-4.43-3.35-8.49-7-13-9.75-7.69-4.7-11.5-5.24-15.51-2.72,3.86,1.23,7.41,2,10.62,3.48a39.89,39.89,0,0,1,8.89,5.6c2.77,2.34,5,5.32,7.52,8.07l6.4-.57c-.61-4.17-2.36-7.75-4.2-11.24s-3.46-7.24-6.73-9.89C133.76,1331.5,139.3,1336,140,1342Zm209.15,162c-3.34-4.51-8.19-7.91-9.13-14s-1.2-11.88.91-17.57c2-5.48,6.91-8.72,12.26-12.72-5.72.62-10.47,3.59-12.8,7.58-5.54,9.48-5.41,19.31-1.15,29.11C341,1500.48,344.44,1503.05,349.15,1504Zm762.1-180.39c-3-.95-4.32.46-5.47,1.65a138.64,138.64,0,0,0-11,12.13c-2.77,3.68-4.8,7.95-6.94,12.07-.94,1.79-1.54,3.87.08,5.64,3.24-5.67,5.92-11.54,9.67-16.62S1106.35,1328.86,1111.25,1323.62Zm-69.65-195.37c-.38-7.17-.72-13.81-1.07-20.5-2.85-.8-4.58.4-5.83,2.88-2.84,5.62-2.54,11.51-1.69,17.45,0,.32.64.57,1.35,1.16,2.23-4-1-9.08,2.55-12.84C1040,1119.94,1037.06,1125.53,1041.6,1128.25ZM465.77,1370.19c-3-.21-4.95-1.6-6.85-3.09-1.15-.9-2.33-1.15-2.88,1.13,4,3.83,10,5.81,11.57,11.74,5.69-.81,5.78-1.07,3.84-5.57-1.14-2.64-1.93-5.43-3-8.11a34.59,34.59,0,0,0-1.83-3.45l-.87.35Zm608.85-4.24c1.5-2.3.7-4.29-.17-6.12-4.47-9.34-11.48-16.66-18.69-24.2-1.74,2.7-.11,3.87,1,5.14,6.56,7.65,13.65,14.93,17,24.78C1073.78,1365.66,1074,1365.69,1074.62,1366Zm-.1-39.67c-2.87,6.76,1,26.86,6,34.77,1.93-1.91,1-4.06.32-5.81a90.07,90.07,0,0,1-5-25C1075.81,1329.24,1075.22,1328.27,1074.52,1326.28ZM676.3,1511.57c-11.24,1.12-27.27,14.24-28.68,23.29C655.17,1524.25,665.53,1517.68,676.3,1511.57Zm394.37-526.06c-.5-8.36-4-14.69-6.61-21.25-.74-1.87-.69-4.57-3.79-5.45a6.85,6.85,0,0,0-.22,2.42q4,11.1,8.13,22.12C1068.4,984,1069.25,984.32,1070.67,985.51Zm-715.13,495.1c-3,1.38-3.12,3.5-3.3,5.58-.54,6.24,1.17,17,3.55,20.35C357.36,1497.65,354.09,1489.37,355.54,1480.61Zm9.1,21c1.39-4.29.74-8.42,1.92-12.08,1.25-3.85,3.35-7.43,4.91-10.76C364.41,1481.82,360.11,1494.23,364.64,1501.57ZM1057.72,1093c-6.93,5.36-11.59,24-7.32,29.71.54-5.13.55-10.11,1.7-14.8S1055.57,1098.6,1057.72,1093Zm17.71-112.4,1.28,0a18.56,18.56,0,0,0,.55-3.09c0-5.77-.17-11.53,1.9-17.1.34-.92-.14-2.16-.25-3.25C1073.46,964.73,1074.61,972.7,1075.43,980.63ZM976.5,861.23c.67,4.36,5.35,13.89,7.55,15.85C985.06,872.7,982.13,866.29,976.5,861.23ZM480.83,1361.46c-4.67,4.4-6.9,9.45-4.47,15.7Zm581.55-377.28c-.3-5.32-3.33-12.7-6-14.54-.39,4.85,2.1,8.73,3.29,12.88C1059.85,983.2,1061.25,983.53,1062.38,984.18Zm-910.06,338.5c-5.65,6.08-7,13.77-3.46,18.37C147.88,1334.49,149.69,1328.51,152.32,1322.68ZM647,1117c1.3-4.12,1.48-7.12.11-11.06C645.26,1109.86,645.37,1112.86,647,1117Zm-11.42-5.29-1.27.3,2.59,9.41C639.3,1116.75,635.67,1114.63,635.54,1111.69Zm363-243.85,1.26.43,2.43-6.29-1.14-.46A5.73,5.73,0,0,0,998.58,867.84Zm-8.72-3.8a5.47,5.47,0,0,0,0,7ZM773.7,843.1c-.19-2.75-.19-2.75-2.41-4Zm333.7-184.8c1.78-1.55,1.78-1.55.58-4.16C1107.71,656.13,1107.55,657.21,1107.4,658.3ZM633.11,1105.77c-.11.27-.38.65-.29.8s.56.4.85.59a2,2,0,0,0,.1-.88C633.68,1106.06,633.34,1105.93,633.11,1105.77ZM768.3,843a3.72,3.72,0,0,0-1.22-.54c-.25,0-.51.44-.77.68a8,8,0,0,0,1,.76C767.39,843.94,767.68,843.58,768.3,843Z"/><path d="M0,632.49c1.18-2.59,2.46-5.15,3.53-7.79q7.13-17.41,14.15-34.88a10.81,10.81,0,0,1,.81-1.76c2.45-3.83,6.91-4.52,10-1.22q8.34,9.06,16.31,18.47,16,18.77,31.73,37.7c2,2.34,3.53,5,5.33,7.47.82,1.13,1.76,2.17,3.08,3.77a44.7,44.7,0,0,0,3.1-4.1c17.23-29.84,34.34-59.74,49.18-90.88,3.53-7.4,7.72-14.49,11.65-21.7a35.91,35.91,0,0,1,2.59-4.07c3-4.11,4.9-4.23,8.49-.62,1.77,1.78,3.53,3.58,5.82,5.91,1.05-2.26,1.93-3.75,2.47-5.35q7.45-22,14.83-43.94c1.24-3.66,2.37-7.37,3.87-10.91.61-1.45,2.07-2.53,3.39-4.08A33,33,0,0,1,196.85,489c2.72,12.92,5.12,25.91,7.39,38.92,1.77,10.15,3,20.39,4.71,30.56,2.36,14.46,4.85,28.9,7.3,43.35.65,3.81,1.3,7.62,2,11.41a21.18,21.18,0,0,0,1.49,3.35c1.34-2.07,2.38-3.41,3.13-4.89,15.4-30.46,30.4-61.13,46.27-91.35,11.82-22.51,24.6-44.52,37.25-66.59,8.32-14.52,17.17-28.74,25.76-43.11,1.05-1.75,1.95-3.59,3.36-6.23a47.91,47.91,0,0,0-5.34-.15c-13.12,1.25-26.09.7-38.75-3.28-2.47-.78-3.88.58-5.51,2-5,4.33-9.83,8.83-15.11,12.75a123.46,123.46,0,0,1-33.25,17.44c-23.26,8.08-45.66,1.37-59.83-20.36-12.71-19.49-13.61-40.27-5.1-61.44,4.68-11.67,14.12-18.93,25.71-23.41,5.1-2,5.16-1.92,4.91-7.19-.44-9.35,1.94-18.22,4.6-27a157.08,157.08,0,0,1,17.59-38c8.74-14,20.5-24.32,36.09-30a50.84,50.84,0,0,1,19-3.14c5.05.16,9.09,1.75,11.58,6.43a22.17,22.17,0,0,0,2.48,3.08c1.3-.89,2.4-1.53,3.36-2.34,12.89-10.89,27.77-15.87,44.6-15.33,15.37.49,30.51,2,45.05,7.58,19.62,7.46,32.73,21.14,40,40.69a88.8,88.8,0,0,1,4.08,48c-1.19,6.4-2.82,12.55-6,18.24a5.68,5.68,0,0,0,.26,6.36c4.28,6.62,8.51,13.27,12.78,19.89.24.37.72.58,1.59,1.25a28.34,28.34,0,0,0,2.31-4.08c9.54-26.34,19.17-52.64,28.46-79.06,13-37.07,27.3-73.65,43.43-109.49,2.65-5.87,5.29-11.75,7.78-17.69a55.2,55.2,0,0,0,1.87-6.58,13.33,13.33,0,0,1,11,5.91c4.8,6.86,9.65,13.7,14.29,20.67,21.84,32.88,43.73,65.72,65.37,98.72,12.72,19.41,24.93,39.14,37.49,58.65,9.5,14.77,19.4,29.28,28.7,44.17C687.34,378,693,388.64,699,399.11c.54.95,1.25,1.8,2.3,3.31,1.52-1.85,2.89-3.33,4-4.95q18.57-25.92,37.07-51.87,25.65-36,51.28-72c1.07-1.52,1.94-3.18,3-5-1.47-.75-2.46-1.23-3.43-1.75-5.25-2.8-10.83-5.12-15.67-8.5-16.44-11.51-26-27-25.54-47.62.17-7.56.16-15.07,2-22.57a73.09,73.09,0,0,1,9.81-22.94c15.74-24.15,38.14-38.65,66-45.29a102.81,102.81,0,0,1,25.9-2.61c4.31.08,7-1.46,9.43-5.15,10-15,19.7-30.24,32.1-43.47,2.32-2.46,4.68-4.89,7.17-7.17a18,18,0,0,0,5.61-9.35c2.66-11,5.54-21.85,8.3-32.78.53-2.1,1.23-3.88,3.43-4.92a6,6,0,0,0,2.24-2.8c1.37-2.78,2.33-3.23,4.63-1.28,3.19,2.71,6.19,5.64,9.23,8.53,2.57,2.44,5.24,4.8,7.56,7.47,2.59,3,5.16,2.81,8.6,1.51a200.86,200.86,0,0,1,22.42-7.43,69.14,69.14,0,0,1,30.23-.71c16.81,3.3,27.92,13.17,33.15,29.55a17.94,17.94,0,0,0,1,2.71c1.71,3.4,3.47,6.76,5.54,10.78,2.61.2,5.95.66,9.3.68q10.14,0,20.3-.29c20.51-.72,40.17,2.6,58.33,12.55,14.43,7.9,26.1,18.76,34,33.42a61.16,61.16,0,0,1,7.18,28.81c.14,17.47-2.74,34.33-11.67,49.72-5.53,9.52-12,18.31-20.38,25.56-2.41,2.09-4.75,4.27-7.48,6.74,1.76,2,3.16,3.7,4.71,5.26,17.72,17.82,35.23,35.87,53.36,53.27,5.56,5.33,5.78,10.87,4.88,18a33.11,33.11,0,0,1-3.23-2.4q-32.46-31.77-64.88-63.59c-4.37-4.29-4.73-4.51-10-1.8-21.94,11.33-45.32,14-69.55,11.67-4-.38-4.78-.18-5.5,3.45-2.34,11.86-8.77,21.4-16.9,29.87-19,19.81-41.75,34-68,41.67-24.11,7-47.13,2.72-67.6-11.85-10.18-7.26-19.34-15.94-28.87-24.09-2.84-2.43-6.16-2.6-9.5-2.64-4-.06-8.06.41-12.08.29-3.4-.1-5.31,1.19-6.5,4.39-3.45,9.36-7,18.69-10.72,27.94-9.6,23.9-18.5,48.09-30,71.17-1.86,3.74-4.06,7.32-6.24,10.89a13.65,13.65,0,0,1-2.52,2.45l-1.06-.49a19.55,19.55,0,0,1,.61-3.86c3.15-8.62,6.3-17.24,9.63-25.78,5.55-14.24,11.24-28.43,16.85-42.65a11.08,11.08,0,0,0,.24-2.33c-2.09,1-2.64,2.73-3.39,4.12-5.7,10.46-11.38,20.93-16.94,31.47Q776.48,385.23,760.37,416c-13.65,26.12-27.17,52.31-40.9,78.4-4.05,7.69-8.56,15.14-12.92,22.67a7.18,7.18,0,0,1-3.29,3,10.78,10.78,0,0,1,.45-2.88q7.85-17.38,15.81-34.71c2.82-6.12,5.78-12.18,9-18.91-7,6.75-31.46,56.13-32.49,65.47h9.55c8.34,0,16.48,1.31,23.77,5.48,7.13,4.09,13.95,8.79,19,15.43,2.46,3.23,5,4.17,9.09,3.53,17.35-2.68,33.77-8.18,49.67-15.45,1.32-.6,2.67-1.12,4-1.62,6.15-2.28,12.12-4.58,17.5-8.79,7.3-5.74,15-4.67,21.93,1.5a20.49,20.49,0,0,0,4.49,2.69q8.43,4.15,16.91,8.18c1.56.73,3.26,1.69,4.89,1.69,6.8,0,13,2.34,19.1,4.76a165.18,165.18,0,0,0,34.36,9.66c5.11.84,5.49.72,6.67-4.3.91-3.84,2.93-6.47,6.53-7.72a133.12,133.12,0,0,1,14.7-4.63c9.28-2.1,18.55-4.11,27.35-7.88,4.28-1.83,5.41-1.32,8,2.54.9,1.34,1.71,2.73,2.48,4.14,1.31,2.42,2.52,4.83,1.29,7.74-.33.78,0,1.82,0,3.38,2.41-.3,4.45-.38,6.4-.81,15.41-3.44,30.75-7.2,46.21-10.39,35.21-7.28,70.57-13.64,106.49-16.27,12.52-.92,25.07-1.57,37.61-2.33,1.43-.08,2.87,0,4.91,0,.18,2.52.34,4.8.53,7.58-2,.22-3.53.52-5.06.53a556,556,0,0,0-62.65,4.57c-18.06,2.2-36,5.16-54,8.28-14.75,2.57-29.4,5.77-44.06,8.88-9.92,2.11-19.78,4.52-29.66,6.83a13.31,13.31,0,0,0-3.66,1.19c-.66.38-.94,1.44-1.39,2.19.75.43,1.49,1.21,2.24,1.22a23.16,23.16,0,0,0,3.77-.72,38.64,38.64,0,0,1,6.2-.84,4.84,4.84,0,0,1,3.3,1.43c7.62,8.89,10.48,19.47,10.15,30.91a16.83,16.83,0,0,0,2.56,9.55c2.31,3.87,4.63,7.74,6.68,11.74a14.56,14.56,0,0,1,1.47,5.55c.23,3.24-.77,6-4.06,7.52-7.72,3.62-15.28,7.62-23.13,10.94-8.58,3.64-17.35,6.84-26.16,9.9-2.1.73-4.68.2-7,.09-3.2-.13-6.4-.36-9.58-.66-2.52-.23-5.17.18-7.32-1.79-3.12-2.86-7.12-5-7.21-10.07,0-1.19-.68-2.37-1.17-3.94-2.66,1.14-4.94,2.29-7.33,3.1-3.23,1.08-6.47,2.09-9.16-1.5-.62-.82-2.66-1-3.94-.83A14.71,14.71,0,0,1,918.61,629c-4.14-2.72-8.07-5.78-12.21-8.52a33.74,33.74,0,0,0-7.51-4.11c-10.68-3.59-21.48-6.86-32.19-10.36a35.87,35.87,0,0,1-7-3.15,7.74,7.74,0,0,0-7.36-.76c-5.64,2.32-11.55,2.58-17.55,2.74a31.45,31.45,0,0,0-9.84,2c-16.19,5.88-32.19,12.27-48.46,17.92-10.18,3.54-20.69,6.12-31.09,9a11.22,11.22,0,0,0-6.65,4.43,11.43,11.43,0,0,1-3.14,2.94,65.13,65.13,0,0,1-21.77,9c-8.17,1.7-16.41,3.38-24.92,2-3.09-.49-3.53.37-3.91,3.94-1.2,11.52-2.06,23.11-3.8,34.55-3.4,22.52-8.88,44.59-17.38,65.74-8.13,20.23-10.54,41-8.39,62.58.65,6.43,1.17,7.12,7.43,9,23.34,6.84,46.82,13.26,70,20.69,11.61,3.73,22.65,9.22,33.9,14,4.14,1.77,8.13,3.9,12.22,5.81a9.15,9.15,0,0,0,7.91-.13c26.44-11.46,52.88-22.94,79.41-34.18,28.16-11.94,56.26-24,85.15-34.17,32.9-11.51,66.35-21.05,100.75-26.81a391,391,0,0,1,62.06-5.56c16.44-.1,32.88-.19,49.31.19,11,.25,21.87,1.32,32.8,2.05a21.4,21.4,0,0,1,2.65.59V779c-1.47,0-2.86.12-4.22,0-23.28-2.32-46.62-2.84-70-2.92a464.38,464.38,0,0,0-71.78,5,449.67,449.67,0,0,0-69.56,16.36c-19.92,6.4-39.76,13.1-59.37,20.38-15.08,5.6-29.77,12.26-44.59,18.55q-32.22,13.68-64.37,27.52-24.41,10.49-48.78,21c-10.35,4.45-20.72,8.82-31,13.3-2,.86-3.83,2.07-6.37,3.46,1.51,1.51,2.39,2.58,3.46,3.43,13.92,11,27.88,21.88,41.78,32.88q21.58,17.09,43.06,34.34c4.5,3.62,8.7,7.62,13.21,11.23,2.56,2,3.15,4.41,3.12,7.58-.08,10.13.11,20.27.44,30.4.09,2.69,1.11,5.34,1.64,8,2.21,11.22,4.07,22.52,6.67,33.65,5.78,24.81,14.13,48.59,29.92,69.09,11.65,15.13,26.14,27.06,42.22,37.16A773.53,773.53,0,0,0,992,1211.83c15.14,7.25,30.65,13.55,47.41,16.16a70.57,70.57,0,0,1,8.91,2.18c2.16.64,4.61,1.41,4.65,4.2s-2.19,3.85-4.29,4.7c-4.62,1.88-9.25,3.81-14,5.28-15.62,4.83-31.7,7.26-47.93,8.8-29.1,2.76-58.29,2.37-87.44,1.75-14.33-.3-28.7-1.54-42.69-4.85-4.73-1.12-9.07-4-13.47-6.24a5.91,5.91,0,0,1-2.27-3c-2-5.07-4.34-10.1-5.68-15.36-4.07-16.08-8.18-32.17-11.45-48.43-3.56-17.68-6.5-35.49-9.15-53.33-2.32-15.61-4.49-31.29-5.59-47-1.57-22.33-3.19-44.7-2.66-67.13a34.72,34.72,0,0,0-.25-5.3c-.33-2.53-1.84-4.32-3.81-5.93-15.22-12.41-30.28-25-45.59-37.33-17.34-13.91-35-27.42-52.28-41.42-4.58-3.71-8.28-4.32-13.86-1.93-26,11.14-52.27,21.87-78.53,32.5-21.49,8.7-43.1,17.08-64.69,25.54-9.9,3.88-19.8,7.76-29.81,11.32-4.7,1.67-7.16,4.35-8.46,9.37-5.42,21-11.35,42-17.06,62.95q-8.39,30.75-16.67,61.54c-3,11.19-6.2,22.34-8.81,33.63-1.51,6.58-2.6,13.22-5.2,19.53-.77,1.88-.51,4.15-1.07,6.15a15.34,15.34,0,0,1-2,3.47c-1.1-.78-2.69-1.33-3.22-2.39-3.36-6.78-6.49-13.66-9.7-20.51-.74-1.6-1.38-3.26-2.21-4.81-3.89-7.22-8.08-14.29-11.7-21.64a380.34,380.34,0,0,0-27.85-47.49c-9.51-13.81-19.54-27.28-32.11-38.5-10.83-9.67-8.9-8.77-21.7-4.73-13.21,4.18-26.43,8.3-39.55,12.72A928,928,0,0,0,215,1094c-33,15.33-65.93,30.82-97.71,48.59-18.27,10.22-36.65,20.27-54.43,31.27-14.49,9-28.21,19.2-42.21,29C14.74,1207,9,1211.44,3.1,1215.65a10.85,10.85,0,0,1-3.1,1v-6.77a23.56,23.56,0,0,0,3.83-1.8c5.27-3.71,10.44-7.54,15.68-11.29,10.73-7.69,21.24-15.71,32.26-23,24.08-15.86,49.31-29.84,74.91-43.06,26.32-13.58,52.88-26.69,79.56-39.57q35.65-17.22,72.91-30.75c21.16-7.73,42.62-14.65,64-21.93,2.54-.87,5-1.82,7.74-2.8-1.51-3.63-4.69-3.92-7.23-4.87-16.3-6-33-5.9-49.43-1.32-20.45,5.7-40.63,12.32-61,18.4-3,.89-5.89,2.58-9.72,1.87a10.1,10.1,0,0,1,3.35-7.3q3.45-3,7-5.87a123.36,123.36,0,0,1,25.27-15c1.44-.66,3.45-.88,4.19-3.42a52.82,52.82,0,0,0-5.33-.83c-6.74-.39-13.48-.79-20.23-1-8.11-.21-11.79-3.37-12.8-11.44a44.63,44.63,0,0,1-.36-5.78c0-4.83,0-9.67.28-14.5,1.09-20.5,3.24-40.8,11.65-59.89.52-1.16.48-2.57.81-4.51-5.39,1.75-9.4,0-13.14-2.28s-7.45-5-11.15-7.58c-1.41-1-2.8-2-4.94-3.49a44.3,44.3,0,0,1-2.75,3.75c-5.85,6.43-11.84,5.83-17.76.74a100.35,100.35,0,0,1-9.46-9q-14.68-16.35-29.08-33c-3.64-4.18-3.68-9.36-.31-13.74,6.76-8.79,13.58-17.55,20.33-26.35a29.66,29.66,0,0,0,2-3.7c-2.31-.56-4-1.1-5.65-1.34-12.6-1.78-25.16-3.88-37.8-5.17-36.36-3.73-71.58,2.07-106.07,13.46C14.44,835,7.2,837.21,0,839.47v-7.74c2.28-.8,4.52-1.7,6.83-2.37a23.11,23.11,0,0,0,11-7.31,185.5,185.5,0,0,1,17.14-17c10.16-8.76,22-15.12,33.5-21.92,5-2.94,8.95-6.09,9.94-12.06a12,12,0,0,1,1.09-2.67c4.34-10,8.62-20,11.77-30.59,7.29-24.38,16.11-48.25,25.42-71.93,10.72-27.25,21.17-54.61,31.76-81.92,4.3-11.1,8.69-22.17,12.95-33.28.48-1.26.95-3.05.41-4.06-1.68-3.18-3.84-6.12-6-9.45a37.64,37.64,0,0,0-2.17,3.47c-1.58,3.16-3,6.42-4.58,9.58-10.3,20.4-20.17,41-31.06,61.1-11.82,21.77-24.33,43.18-37,64.48C61,709.43,40.3,742.6,21.71,777c-3.59,6.65-7.41,13.18-11.2,19.72a29.31,29.31,0,0,1-2.73,3.49,3.59,3.59,0,0,1-.53-3.15c1.88-5,3.53-10,5.84-14.81,5.8-12,11.93-23.9,17.89-35.85,1-2,1.92-4.18,2.87-6.27a5.16,5.16,0,0,0-2.8,2.19C22,755.23,12.9,768.14,3.75,781c-1,1.33-2.49,2.25-3.75,3.36v-9.67a23.68,23.68,0,0,0,3.42-3.28c7.64-10.95,15.12-22,22.79-32.94,6-8.56,12.15-17,18.33-25.44a14.57,14.57,0,0,1,7.18-5.45A8.78,8.78,0,0,0,55.93,704c7.62-12.5,15-25.13,22.62-37.63,1.4-2.3,1.3-3.94-.31-6.07-11.38-15-23.28-29.59-35.46-44C37.52,610.07,33.46,602.83,29,596c-1.47-2.22-2.62-4.66-4.43-7.93a23.67,23.67,0,0,0-2.34,3.78C15.44,611.46,8.78,631.11,2,650.73a14.45,14.45,0,0,1-2,3Zm1043.85-401.7c2.91,3.14,5.77,3,8.71,2.82,6.12-.32,12.25-.33,18.36-.74,15.35-1,30.36-3.7,44.53-10,16.28-7.26,29.57-18,39-33.31,8.94-14.47,12.34-30.29,12.3-47,0-12.29-4-23.44-10.87-33.51a74.18,74.18,0,0,0-20.62-20.14A116.23,116.23,0,0,0,1082.16,70c-6.89-.68-13.67-1.45-20.66-.15-5.33,1-10.92.87-16.38.74-6.69-.16-9.2-2.19-10-8.75-.56-4.72-2.56-8.64-4.85-12.47-6.23-10.42-15-17.73-27.14-20.06-14.09-2.72-27.87-1-41.35,3.88C946.6,38.63,933.39,47.45,920.56,57a123.77,123.77,0,0,0-25.75,25.3c-7.78,10.45-15.39,21-23,31.59a22.17,22.17,0,0,0-1.47,3.1c1.88.44,3.35.8,4.84,1.12,6.27,1.39,12.65,2.44,18.81,4.24,7.45,2.17,13.8,6.19,17.65,13.3.82,1.52,2,3.08.46,4.87-2.54.82-3.85-1.22-5.44-2.39a53.77,53.77,0,0,0-22.36-9.82A163.94,163.94,0,0,0,852.5,126c-24.26.32-46.34,6.88-65.3,22.56a73.46,73.46,0,0,0-22.79,31.74c-3.45,9.43-3.72,19.23-3.69,29.06.09,22.94,16.1,42.7,36.92,50.77,10.12,3.92,20.56,6.43,31,9.13,10.66,2.76,21.36,2.54,32.13,1.73,3.12-.24,5.89.18,8,2.37,6.38,6.52,14.23,11.06,21.56,16.27,14.77,10.48,30.52,18.43,49.21,19.2A73.57,73.57,0,0,0,968,304.71a160.63,160.63,0,0,0,39.87-21.37c16.13-11.69,28.06-26.39,33.17-46C1041.57,235.36,1042.65,233.55,1043.85,230.79Zm-636.33,227c-.84,2.2-1.73,4.38-2.51,6.6-6.46,18.37-12.46,36.93-19.49,55.09-7.08,18.31-15,36.3-22.89,54.3-5.87,13.42-12.23,26.63-18.43,39.91-.74,1.58-1.39,3.37-4,4.61,4.33-19.3,13.19-36.14,19.24-54a36.69,36.69,0,0,0-5.07,7.57q-8.1,16.74-16,33.61c-12.15,26.15-24.41,52.23-41.8,75.48-.57.77-.68,1.88-1.2,3.41,2.22-.18,3.8-.23,5.35-.46,9.24-1.37,18.47-2.84,27.72-4.18,8.61-1.25,17.24-2.37,25.86-3.54,4.61-.63,4.85-.89,5.91-5.53.62-2.67,1.25-5.34,2.08-7.94,5.16-16.32,14.83-28.88,30.83-35.74,5.59-2.39,11.59-3.87,17.45-5.59a50.6,50.6,0,0,1,9.87-2.21c10.72-.91,21.28,0,31.35,4.09,2.74,1.12,4.86.87,7.09-1Q470.91,612,483,602a5.71,5.71,0,0,0,2.14-5.48c-.61-7.54-1.2-15.09-1.38-22.65-.26-11-.13-21.92-.2-32.88,0-5.67-.63-6-5.9-7.58a22.55,22.55,0,0,1-8.47-4.32c-15.14-13.45-28.48-28.5-38.46-46.22a60.32,60.32,0,0,1-8-34.84c.36-4.62.71-9.59,2.63-13.66,8.73-18.42,22-33.17,38.61-44.87,2.1-1.49,3.15-2.93,2.86-5.53a7,7,0,0,1,.58-4.21c2.2-3.46,5.64-.6,8.47-1.23,1.71-.38,3.08.64,3.64,2.46,1.45,4.75-2.75,10.89-7.65,10.6a9.15,9.15,0,0,0-7.32,2.8,160.14,160.14,0,0,0-25.75,30A45.37,45.37,0,0,0,433,437c-3.6,13.25-1.13,26,5.22,37.85,8.75,16.38,21.11,30,34.33,42.81.77.75,2,1,3.85,2-.21-2.61-.19-4.2-.48-5.72a223.23,223.23,0,0,1-3.82-42.3c0-9.18.22-18.37.75-27.54a27.77,27.77,0,0,1,5.87-15.6c3.52-4.54,8.11-7.1,13.84-6.28,8.43,1.21,15.05,5.39,19,13.21.76,1.5,1.68,2.92,2.61,4.53a11.41,11.41,0,0,0,2-1.45q7.31-9,14.54-18c1.81-2.28,1-3.54-2.46-4.22-3.84-.75-5.19-2.23-5.17-5.66s1.77-5.62,5.41-6.2a17.87,17.87,0,0,1,4.32-.2c3.76.33,4.81,1.84,3.94,5.44-.35,1.46-.84,2.88-1.27,4.31l.91.77c1.63-.82,3.23-1.7,4.89-2.45,3.94-1.77,7.77-4,11.89-5.12,7.23-2,11.86,1.16,12.37,8.56a44,44,0,0,1-.92,12.91c-2.4,10.4-6.7,20.14-11.8,29.51-1.13,2.07-2,4-1,6.37a20.5,20.5,0,0,1,.58,12.84c-1.12,4.43-.19,7.51,3.35,10.08a14.6,14.6,0,0,1,1.41,1.32c3.77,3.48,4.62,3.43,8.26-.4,2-2.1,3.94-4.26,6-6.27,5.72-5.53,11.88-10.53,19.61-12.89,9.38-2.87,15.81-.27,13.64,12.11-1.11,6.32-4.2,11.83-7.42,17.2-3.73,6.21-7.69,12.29-11.81,18.24-2.09,3-2,5.42.18,8.29,3.9,5.12,7.54,10.45,11.32,15.67,2.34,3.23,3.22,3.22,5.6-.1,9.28-13,18.5-26,27.81-38.9Q653,470.31,675.65,439c6-8.36,11.89-16.82,17.92-25.17,1.84-2.55,2-4.75.17-7.47-3.5-5.22-6.56-10.73-10-16-11.1-16.8-22.46-33.43-33.42-50.33-13.85-21.36-27.39-42.92-41.1-64.37a57,57,0,0,0-3.78-4.75l-2.1,1.37c-4.71,3.05-8.5,2.88-12.71-.89-2.15-1.92-3.88-4.31-6-6.29q-7.75-7.23-15.72-14.26a8.39,8.39,0,0,0-8.11-1.93c-6.18,1.67-11.46-.46-16.23-4.13-2.29-1.76-4.28-3.91-6.42-5.87-2.72-2.5-5.33-5.16-8.24-7.44s-5.15-1.2-5.71,2.49c-.24,1.59-.1,3.25-.48,4.8a7,7,0,0,1-5.46,5.53c-2.88.66-3.92-1.73-5.12-3.56-3.27-5-6.43-10-9.66-15.05-1.18-1.84-2.08-4-5.15-4.54-.58,1.27-1.25,2.49-1.73,3.78-5.06,13.73-10.16,27.46-15.12,41.23q-11.79,32.7-23.41,65.47c-5.77,16.23-11.65,32.43-17.1,48.76-6,18-11.64,36.17-17.36,54.28-5.09,16.12-9.93,32.31-15.16,48.38-2.83,8.72-6.21,17.27-9.44,25.86a30.2,30.2,0,0,1-2.45,4.35l-1.12-.46c.58-9.43,3.66-18.38,5.82-27.5S406.43,467.21,407.52,457.74Zm200.4,95.64c.37,1,.38,1.27.48,1.34.67.43,1.34.87,2,1.24,6.58,3.52,10.47,8.93,11.41,16.36.36,2.87.6,5.76.75,8.65.51,10.24-1.85,20.19-3.2,30.24a86.4,86.4,0,0,0-.56,21.68c.37,3.15,1.37,5.42,4.13,7.12a9.91,9.91,0,0,1,5,6.83c.72,4.35-.4,8.24-4.12,10.63s-7.94,2.75-11.82,0c-2.24-1.56-4.13-3.62-6.38-5.15-7.21-4.91-14.75-6.13-22.7-1.66a37.67,37.67,0,0,1-5.65,2.73,18.86,18.86,0,0,1-5.6,1.26c-6.4.23-9.39-4.08-6.46-9.78,3.19-6.19,7.12-11.95,14-14.71a3.7,3.7,0,0,0,2.69-3c.5-3,1.15-6,1.76-9A14.64,14.64,0,0,0,581.89,607c-1.11-1.77-2.28-3.51-3.47-5.23-5.14-7.39-10.55-10.34-21.89-7.15-3.1.87-6.18,1.8-9.32,2.52-5.72,1.32-11.07.28-15.23-3.92-2.54-2.58-4.36-5.9-6.45-8.92a31.44,31.44,0,0,1-1.72-3.35c-6.53,2.66-11.73,7-17.08,10.91C486.19,606.91,465.08,625,463,629.07a45.52,45.52,0,0,1,3.14,3.43c3.17,4.23,6.71,8.27,9.26,12.86,4,7.26,5.7,15.27,6.09,23.63.46,9.7.71,19.25-2.21,28.72-3.79,12.28-10.51,22.34-21,29.82-7.32,5.22-7.46,5.3-1.89,12.73,11.21,14.93,22.68,29.68,33.85,44.65,10.87,14.56,22.64,28.64,28.35,46.34,2.17,6.72,4.4,13.54,5.4,20.49,2,13.6,1.35,27.34.32,41-.23,3-.81,6.06-1.22,9.1-.3,2.26.52,3.76,2.88,4.21,2.53.48,5,1.34,7.59,1.38,7.88.12,15.89.77,23.63-.32,16.89-2.39,33.66-5.63,50.45-8.7a103.84,103.84,0,0,0,36.76-14.09,28.88,28.88,0,0,0,10.9-11.28A76.22,76.22,0,0,1,659,866.3c1.43-2.2,1.21-4.15,0-6.32a69.45,69.45,0,0,1-3.28-7,114.31,114.31,0,0,1-8.4-37.52c-.86-16.86.09-33.42,5.81-49.55,5.16-14.57,10.58-29,14-44.19,4.43-19.5,8.44-39,9.25-59.09.24-5.95.41-11.93,1.1-17.84.91-7.76.35-15.46-.61-23.1-1.11-8.93-2.65-17.83-4.37-26.67-1.57-8-3.69-16-5.45-24-.69-3.13-2.58-4.85-5.37-6.29a107.55,107.55,0,0,0-49.35-11.8A44,44,0,0,0,607.92,553.38ZM277.62,266.67l-1.06-.6c.45-2.35.75-4.74,1.41-7a29,29,0,0,1,2.39-5.79c2-3.69,4.12-7.28,6.24-10.89,1.77-3,1.59-4.71-.71-7.36-2.71-3.12-6.22-3.81-10.08-3.47-16.39,1.43-30.06,8.06-39.93,21.49-9.45,12.85-15.9,27.21-20.39,42.46a82.74,82.74,0,0,0-3.87,24.25c0,4.73.15,4.89,4.7,5.31a50.13,50.13,0,0,1,6.69,1,24.85,24.85,0,0,1,4.93,1.9,3.3,3.3,0,0,1,1.71,4.1c-.45,1.78-2,1.84-3.52,1.8-.48,0-.95-.19-1.43-.22-4.65-.29-9.32-.9-14-.78-18.11.49-31.9,12.19-35.31,29.91-3.36,17.48-.61,33.74,10.66,47.94,4.83,6.07,10.38,11.46,17.71,14.63,11.74,5.07,23.5,4.74,35.28.26,16.61-6.33,31.56-15.29,43.8-28.31,2.75-2.93,5.59-4.06,9.4-3.33,1.26.23,2.57.21,3.84.41a131.09,131.09,0,0,0,52.73-2.5c17.75-4.47,33.2-13,45.81-26.42,8.63-9.17,14.3-19.78,15.58-32.5a55.45,55.45,0,0,1,1.15-7.15,42.33,42.33,0,0,1,1.81-5.05c4.23.68,2.62,5,5.13,6.47,3.35-.81,3.06-4,3.52-6.18,3.34-16,3.77-31.94-1.22-47.76C414,252.36,401,237.7,380.12,230.35c-16.57-5.82-33.71-7.25-51-6.07a47.21,47.21,0,0,0-34.89,18.38c-5.06,6.42-9.37,13.43-14,20.18C279.33,264.11,278.48,265.39,277.62,266.67Zm-100.17,450a39.87,39.87,0,0,0,4.55-1c11.34-4.1,22.51-8.74,34-12.27,14.3-4.39,28.84-8.05,43.36-11.69,7.8-1.95,15.8-3.13,23.67-4.82,1.61-.35,3.65-1.06,4.47-2.28,6.18-9.23,12.48-18.4,18-28,11.37-19.67,20.65-40.42,30.21-61,7.47-16.07,14.88-32.18,24.85-46.91a68.38,68.38,0,0,1,8.89-10.74,17.27,17.27,0,0,0,4.72-6.51q10.06-27.43,20.22-54.85c2.53-6.78,5.18-13.53,8.15-20.12,1-2.2,2.86-4.95,4.89-5.54,3.51-1,4.52-3.09,5.18-6.09.44-2,1.2-4,1.82-6,3.79-12.14,7.54-24.28,11.37-36.4q4.53-14.28,9.22-28.5a7.37,7.37,0,0,0-.38-6.47c-4.62-7.93-9.14-15.93-13.75-23.86a46.91,46.91,0,0,0-3.14-4.13c-.69,1.62-1,2.48-1.43,3.32-2.47,5.22-4.35,10.85-7.54,15.59-13.31,19.83-31.78,33-54.39,40.39-3.52,1.16-7.1,2.11-10.65,3.16a4.1,4.1,0,0,0-3.17,3.16,45.71,45.71,0,0,1-3.72,9.81c-4.49,8.18-9.34,16.16-14,24.26-10.43,18.14-21.28,36.05-31.13,54.51-15.09,28.27-29.43,56.93-44.17,85.39-11.25,21.72-22.75,43.32-33.9,65.1-6.38,12.45-14.06,24.18-19.61,37.1-4.75,11.08-10.58,21.69-15.9,32.52A18.72,18.72,0,0,0,177.45,716.66ZM371.79,830.55c2.6-3.81,6.36-6.36,6.61-11.56,1.35-27.06,5-53.87,9.82-80.53.48-2.65-.14-4.38-2.44-5.6-.86-.45-1.72-.89-2.56-1.37-16.21-9.28-24.64-23.1-24.51-41.94,0-6.18-.23-6.52-6.26-5.63-22.3,3.32-44.6,6.66-66.86,10.21a474,474,0,0,0-82.36,20.75,392.24,392.24,0,0,0-45.87,19.21C138,743.78,120.22,756,102.49,768.28q-18.24,12.66-37.15,24.35c-10.69,6.6-21.61,12.83-31.27,20.94-3,2.5-6.33,4.8-8.72,8.78a10.47,10.47,0,0,0,2.7.15c2.65-.67,5.27-1.45,7.9-2.22,19.22-5.6,38.69-9.94,58.78-10.83,16.93-.75,33.84-.56,50.65,1.78,9.88,1.39,19.74,3,29.57,4.75,3.65.65,6.54,0,9.23-2.63,3.54-3.51,7.28-6.85,11.1-10.05,2.57-2.16,5.42-4,8.19-5.92,2.09-1.45,4.48-2.54,6.35-4.22,7.86-7,17.33-10,27.47-10.39a68,68,0,0,1,26.54,4.13c17,6.44,34.35,12.08,51.36,18.55,17.6,6.7,35.23,13.41,51.62,22.89A50.77,50.77,0,0,0,371.79,830.55Zm9.69,134.78c.83.75,1.61,1.16,1.95,1.81,4.46,8.38,9,16.73,13.24,25.22,3.67,7.34,7,14.88,10.49,22.29,1.38,2.9,2.22,3.22,5.38,2.41q2.81-.72,5.55-1.68c20.82-7.28,41.59-14.71,62.48-21.78,4.68-1.59,7-4.26,8.35-8.9,5.09-17.63,10.51-35.17,15.76-52.76,1.46-4.93,2.74-9.91,4.1-14.87.68-2.46,1.22-5,2.05-7.36.73-2.13,1.81-4.13,2.68-6.21,3.29-7.91,3.45-16.32,3.82-24.69.72-16.35-1.42-32.17-8.56-47.08-2.23-4.64-2.67-5-7.84-4.27-9.42,1.23-18.84,2.56-28.26,3.81-8,1.06-16,2-24,3.14-4,.56-4.28,1.16-3.66,5.08a57.16,57.16,0,0,1-2.95,29c-4.89,13.3-13.06,24.28-25.2,32.09s-31,8.29-42.56-5.51a50.87,50.87,0,0,1-6.51-10.67c-1.28-2.66-2.91-4-5.79-4.28A43,43,0,0,1,346,875.21c-4.45-2.25-8.9-4.51-13.39-6.71-1.56-.76-3.2-1.35-4.94-2.08a35.44,35.44,0,0,0-2.59,3.19q-11.25,17.75-22.4,35.52c-2.72,4.34-6.1,5.39-10.59,2.88a50,50,0,0,1-5.06-3.7l-4.05-3c-3.9,3.28-4,3.81-1.45,6.68a69.33,69.33,0,0,1,12.43,21.13c.76,1.94,1.73,4,1.77,6a16,16,0,0,0,3.4,9.36c5.31,7.28,10.59,14.58,16,21.75,2.9,3.8,4.33,7.66,3.11,12.55-1.06,4.27-2.21,8.39-4.73,12.05a16.85,16.85,0,0,0-1.25,3.48c1.7-.72,2.58-1,3.41-1.45,11.8-5.89,23.45-12.1,35.43-17.59a122.23,122.23,0,0,1,20.11-6.68C374.69,967.68,378.53,968.22,381.48,965.33Zm285.24-98.22c-1.77,2.64-3.25,4.82-4.71,7-2.44,3.67-2.43,4,1.35,6.33,5.08,3.1,10.43,5.8,15.37,9.11,10.52,7,21.52,13.42,30.64,22.39a51.85,51.85,0,0,0,6.91,5.27c5.15,3.57,10.54,6.81,15.5,10.62q19.94,15.32,39.54,31c8.52,6.82,17.83,12.78,24.63,21.6a13.25,13.25,0,0,0,2.55,2.21c4.48,3.4,9,6.79,13.49,10.17a6.18,6.18,0,0,1,2.81,5.26c0,7.09.22,14.18.48,21.26.46,12.56.65,25.14,1.63,37.66,1.41,18.14,3.21,36.26,5.24,54.35,1.22,10.87,2.9,21.7,4.87,32.47,2.76,15,5.89,30,9,45a482,482,0,0,0,14,51.28c.82,2.49,2.23,3.69,4.85,3.82,15.29.77,30.57,2.28,45.86,2.26,26.25,0,52.53-.5,78.76-1.76,14.43-.69,28.78-3.32,43.15-5.19a41.24,41.24,0,0,0,6.21-1.78c0-.38,0-.76,0-1.14-1.78-.5-3.57-1-5.33-1.51-6.29-2-12.74-3.59-18.84-6.07-26.16-10.66-51-23.93-75.48-38-12.43-7.14-24.72-14.49-36.25-23.1a143.83,143.83,0,0,1-49.76-66.88,287.3,287.3,0,0,1-14-54.18c-1.22-7.6-1.54-15.35-2.3-23-.18-1.76-.5-3.51-.71-5.26-.59-4.94-2.11-10-1.54-14.78,1-8.82-1.34-15.37-8.82-20.3-6-4-11.91-8.25-17.61-12.7Q764.64,944.39,731.29,918c-7.94-6.28-15.65-12.87-23.67-19-10.32-8-20.9-15.62-31.28-23.52C673.18,873,670.31,870.24,666.72,867.11Zm67.18-414.2c.92-1.66,1.76-3,2.47-4.44,8.57-17.12,16.92-34.36,25.72-51.36,9.18-17.71,18.67-35.27,28.22-52.78q13.29-24.37,27-48.49c1.65-2.9,3.64-5.91,6.24-7.86a15,15,0,0,0,5.1-7.33c1.22-3.27.55-4.17-3-4.87-5.68-1.12-11.4-2.11-17-3.56-3.32-.85-5.46-.11-7.36,2.7-4.25,6.25-8.67,12.38-13.06,18.54q-28.2,39.48-56.42,78.94C720.71,388,709.45,403.45,698.29,419q-24.63,34.33-49.17,68.71-18.29,25.51-36.55,51c-1,1.32-2.69,2.49-1.77,5.17,2.13.14,4.48.45,6.81.4,9.73-.22,19.31.59,28.63,3.58a4.43,4.43,0,0,0,5.15-1.54c4-4.63,9.2-7.58,14.81-9.7,4.95-1.87,10-3.81,15.17-4.71,4.86-.84,7-3.55,8.86-7.62,6.64-14.31,13.29-28.63,20.53-42.64,4.64-9,10.26-17.48,15.55-26.13C728,452.81,730.19,450.7,733.9,452.91ZM85.05,770.7l1,.79c2.69-1.69,5.43-3.31,8.06-5.09,12.26-8.3,24.29-17,36.82-24.86,9.24-5.82,19.11-10.64,28.72-15.87,2.83-1.54,5.71-3,7.36-6,2.7-4.94,5.72-9.72,8.2-14.77,4.47-9.09,8.42-18.45,13-27.49,7.12-14.08,14.54-28,21.93-41.94a14.27,14.27,0,0,0,1.55-9.79c-1.95-10.12-4-20.23-5.79-30.37-2.38-13.16-5-26.29-6.81-39.52-2.85-20.91-5.11-41.9-7.63-62.85-.18-1.48-.48-2.95-.72-4.43a6.93,6.93,0,0,0-2.06,3.59,485,485,0,0,1-17.18,51.27c-6.75,17.07-13.5,34.14-20.1,51.27q-15.72,40.79-31.22,81.66c-7.37,19.42-14.52,38.92-21.83,58.37-4.14,11-8.41,21.94-12.58,32.92A22.5,22.5,0,0,0,85.05,770.7ZM543.34,536.24c-2-1.61-1.79-3.62.33-5.37a15.9,15.9,0,0,1,9.27-3.69c2-.12,2.93.92,3.06,2.88.16,2.55-1.4,4.11-3,5.81-4.79,5.2-9.8,10.25-14.12,15.82-5.46,7.07-8.5,15.08-7.1,24.35,1.34,8.84,8.46,14.65,17.26,13.58a67.2,67.2,0,0,0,8.46-1.94c12.13-3.13,19.41-.71,26.76,8.94,5.84,7.66,8.61,15.81,4.1,25.19a25.19,25.19,0,0,0-2.13,5.89c-.86,4.3-3.27,7-7.09,9.12-2.51,1.43-4.32,4.19-6.26,6.51-.48.57-.61,2.26-.23,2.55a4,4,0,0,0,3,.64,25,25,0,0,0,4.42-1.87c2.49-1.11,4.89-2.58,7.49-3.28,10.37-2.79,19.34.2,27.25,7.12,1.39,1.21,3,3.45,4.89,1.79,2.25-2,0-3.73-1.31-5.28-5.16-6.34-8.36-13.36-7.53-21.75.56-5.76,1.08-11.54,1.93-17.26,1.29-8.62,2.55-17.21,2.15-26-.47-10.46-4.63-16.1-14.75-18.82a56.82,56.82,0,0,0-12.87-1.73c-5.62-.19-11.27.33-16.9.38a64.46,64.46,0,0,1-9.63-.46c-4.26-.6-5.76-3.13-4.57-7.28a17.42,17.42,0,0,1,2-4.4c5.83-9.25,11.74-18.47,17.63-27.68,6.33-9.9,12.8-19.7,18.92-29.72a27,27,0,0,0,3.19-9c1-5.44-1.44-7.43-6.52-5.45a32.92,32.92,0,0,0-8.52,4.4c-4.53,3.58-8.65,7.68-12.91,11.59-5.56,5.11-11,10.34-16.7,15.3a14.5,14.5,0,0,1-5.63,2.53c-.79.23-1.9-.7-2.87-1.1.41-.94.58-2.18,1.29-2.78,1.59-1.33,3.57-2.2,5.17-3.53,2.77-2.31,2.77-3.66.19-6.34a128.63,128.63,0,0,0-26.24-21.18,36.48,36.48,0,0,0-8.76-3.94c-5.67-1.62-9.54-.1-12.13,5.1a119.12,119.12,0,0,0-7.17,17.35c-4.25,13.62-5.6,27.68-5.63,42,0,18.84-.58,37.68-.86,56.52a11.72,11.72,0,0,0,.79,2.85c1-.6,1.73-.94,2.36-1.39,9.17-6.54,18.38-13,27.43-19.73a8.31,8.31,0,0,0,2.86-4.68,47.24,47.24,0,0,1,8.14-18.43C535.61,545.65,539.37,541.24,543.34,536.24ZM423.21,729.92c8.93,2,18.13-2.36,27-6.15,11.1-4.72,18-14,20.68-25.78,1.79-8,2.61-16.18,3.76-24.29a24.13,24.13,0,0,0-4.5-17.82,48.18,48.18,0,0,1-4.47-6.88c-4.38-9.35-13-13.84-21.6-17.41-10.1-4.17-21.08-4.33-31.87-2.21-12.86,2.53-23.5,9.44-33.34,17.69a20.71,20.71,0,0,0-5.4,6.68c-6.74,14.11-9.18,28.67-4.52,44.06,3.32,11,10.08,18.92,19.82,24.53C399,728.21,410.18,730.17,423.21,729.92Zm31.17,411.58a11.07,11.07,0,0,1-2.31-.84,13.5,13.5,0,0,1-1.68-1.7,66.41,66.41,0,0,1-11.76-19.87c-7.36-18.39-14.3-37-21.76-55.31-5-12.21-10.55-24.17-15.83-36.26-.44-1-.58-2.16-.94-3.22-1-3-2-6.1-3.21-9-1.56-3.71-3.53-7.24-5.08-11-4.1-9.81-8.06-19.67-12.09-29.51-1.22-3-2.09-3.28-5.17-1.87-2.05.93-4.06,2-6.16,2.79a371.59,371.59,0,0,0-56.85,27.56c-15.05,9.08-30.86,16.62-47,23.6-7.66,3.32-15,7.45-22.4,11.3a13.08,13.08,0,0,0-2.46,2.27c.18.28.36.56.53.84,1.83-.46,3.71-.79,5.49-1.4,6.39-2.19,12.72-4.58,19.13-6.69,15.15-5,30.23-10.14,46.23-11.93,16.16-1.82,31.46.7,45.89,8.21A114,114,0,0,1,394,1060.69c8.45,10.75,16.5,21.85,24.19,33.15a210.13,210.13,0,0,1,19.38,34.51c2,4.7,3.59,9.61,5.58,14.33,2.36,5.6,6.51,10.32,7.81,16.5a7.72,7.72,0,0,0,4.14,4.81c3.17-4,3.75-8.68,4.85-13.19,2.76-11.25,5.73-22.46,8.73-33.65,4.39-16.32,8.88-32.61,13.32-48.92,3.64-13.36,7.19-26.75,10.94-40.08,2.57-9.13,5.47-18.17,8.12-27.28.8-2.76,1.76-5.6,1.8-8.41a16.46,16.46,0,0,1,2-8.3,25.13,25.13,0,0,0,1.94-5.44c2.53-8.65,5-17.32,7.5-26,3.37-11.76,6.79-23.51,10.05-35.31.34-1.21.25-3.12-.49-3.93-1.57-1.7-3.69-2.88-6.11-4.67-1.53,4.6-3,8.47-4.12,12.44-3.77,13.66-7.67,27.29-11,41.06-2.77,11.41-7.46,22.18-10,33.72-3.43,15.53-8.36,30.73-12.64,46.08-3.51,12.56-7.1,25.1-10.47,37.7q-5,18.66-9.57,37.42c-1.54,6.39-4,12.6-3.74,19.38C456.24,1138.15,455.07,1139.73,454.38,1141.5ZM655.56,550.6l3.5,2.1c2.46,1.52,5,2.91,7.37,4.59,3.82,2.73,6.3,6.22,6.71,11.19a27.88,27.88,0,0,0,2.31,7.81,53.36,53.36,0,0,1,4.23,17.28,63.21,63.21,0,0,0,1.67,10.92c2.34,10,5,20,3.72,30.47a22.36,22.36,0,0,0,.16,4.83c.39,3.65.87,4.28,4.48,4.13,5.94-.24,11.87-.91,17.81-1.22,11.87-.63,21.32-6.58,30.15-13.76a23.35,23.35,0,0,0,5.35-6.16c3.83-6.49,8-12.87,8.73-20.73.8-8.2,1.65-16.44-.89-24.41-1.69-5.33-4.51-10.29-6.5-15.54a29,29,0,0,0-13-15c-8.87-5.25-18.34-8.53-28.78-8.68-13.84-.18-27.33,1.53-40.15,7C660,546.46,657.19,547.22,655.56,550.6Zm35.1,358.55c-1.75-1.57-2.84-2.7-4.08-3.64-9.49-7.2-19-14.34-28.5-21.54-1.87-1.42-3.48-1.28-5.15.29-2.1,2-4.17,4-6.43,5.84-10.27,8.23-22.15,13-34.85,15.85-12.42,2.74-24.91,5.18-37.41,7.51-13.34,2.49-26.8,3.64-40.39,2.3-1.24-.13-2.5,0-4,0-.37,1.5-.72,2.71-1,3.94-1,4.73-1.66,9.53-2.86,14.2-3.57,13.88-7.34,27.7-11,41.55a37.94,37.94,0,0,0-.59,4.48,23,23,0,0,0,3.91-.61c5.29-1.93,10.57-3.89,15.81-6,33.22-13.13,66.46-26.18,99.61-39.49,17.62-7.08,35.07-14.59,52.57-22A34.52,34.52,0,0,0,690.66,909.15ZM260.88,884a25.69,25.69,0,0,0-3.61-4c-1.56-1.19-3.7-.46-3.74,1.3-.1,3.74-.91,7.66,1,11.2,2.39,4.53,2.12,9-1,13a16.84,16.84,0,0,0-2.56,3.48c-3.77,9.05-8,18-11,27.28-4.93,15.25-6.38,31.18-7.39,47.1a162.37,162.37,0,0,0,.11,17.37c.16,3.53,1.49,7,5.33,7.8,6.44,1.3,13,2.7,19.52,2.77,14.64.17,27.68-5.23,39.61-13.41a54.12,54.12,0,0,0,14.58-15.27c1.95-3,1.93-3.7-.2-6.45-.79-1-1.75-1.88-2.58-2.86-4.05-4.79-8.48-9.31-12-14.43-8.46-12.14-16.55-24.54-24.69-36.9-1.67-2.54-3.55-5.23-4.14-8.1-.8-3.94-3-6.12-6.18-8-3.56-2.12-4-5.27-1.28-8.42,1-1.15,2.09-2.2,3.16-3.31C257.61,889,257.61,889,260.88,884Zm175.25-59.35c.07-1.56.14-2.8.18-4.05.18-7.24,0-14.51.59-21.72,1.44-18.63,3.2-37.23,4.81-55.84.5-5.74-.6-6.62-6.12-5.39-12.81,2.84-25.59,2.24-38.34-.47-1.33-.28-2.69-.4-4.4-.65-.26,2-.49,3.35-.63,4.75-.86,9-1.6,18-2.56,26.94-1.61,15.06-3.36,30.1-5,45.16-.18,1.67,0,3.37,0,5.54,5.91,0,11.35.13,16.79,0,10.88-.34,21.59.24,31.64,5.08A14.79,14.79,0,0,0,436.13,824.61Zm46.59,175.9c-1.85.56-3.5,1-5.1,1.54l-54.21,18.86c-2.73,1-5.5,1.8-8.23,2.76-2.25.79-2.9,2.39-2.05,4.59.29.75.66,1.47,1,2.21q13.2,32.68,26.36,65.37c2.7,6.71,5.25,13.49,7.93,20.22a32,32,0,0,0,2.06,3.63c.85-.71,1.43-1,1.53-1.31q15.67-57.74,31.24-115.49C483.35,1002.37,483,1001.7,482.72,1000.51ZM373.51,862.05c-.5,11,.4,14.54,4.88,21.63,8.88,14.08,27.75,17.5,40.3,6.93,13.8-11.62,19.38-26.81,17.67-44.71-.44-4.66-2.46-8.25-7.2-9.87-1.05-.36-2-1.06-3-1.51-4.26-1.87-8.39-4.4-12.86-5.4a59,59,0,0,0-26.8.11c-7.46,1.82-10.12,8.68-12.9,15a2.47,2.47,0,0,0-.07,1C373.5,850.81,373.51,856.43,373.51,862.05ZM527.14,150.17c-1,2.21-1.71,3.42-2.23,4.7-3.83,9.39-7.6,18.81-11.45,28.2-3.06,7.45-6.12,14.89-9.34,22.27-1.51,3.47-1.57,6.14,1.6,9s5.4,6.37,8.11,9.55c1.09,1.28,2.32,2.44,4.44,4.65a19.13,19.13,0,0,1,2-3.52c3.6-3.8,8-5,12.74-2.72a41.1,41.1,0,0,1,8.32,5.65c3.21,2.67,6,5.88,9.22,8.52,3.55,2.91,7.63,5.07,12.44,4.07a13.59,13.59,0,0,1,12.2,3c5.64,4.78,11.07,9.8,16.59,14.72l3.28,2.89a7.2,7.2,0,0,0-.47-7.85q-2.64-4-5.27-8.11-29.6-45.6-59.2-91.19C529.47,153,528.63,152.06,527.14,150.17ZM277.69,809.7c0,1.86.08,2.92,0,4a76.81,76.81,0,0,1-1,9.5,24.32,24.32,0,0,1-5.92,11.44c-2.85,3.12-2.33,5.22,1.33,7.28.84.47,1.75.82,2.62,1.22,4.82,2.21,9.7,4.3,14.43,6.68,3.5,1.75,3.8,3.87,1.52,7-5.64,7.61-11.22,15.26-16.88,22.86-1.26,1.7-.89,2.79.74,4,6.6,4.85,13.16,9.77,19.71,14.7,3.38,2.55,4.67,2.34,6.82-1.32,6.35-10.83,12.84-21.58,19-32.51,3.86-6.85,7.41-13.89,10.78-21,2.16-4.58,1.13-6-3.66-7.86a78.94,78.94,0,0,1-9.47-4.63c-2.81-1.53-5.42-3.43-8.24-4.93-8.94-4.77-17.94-9.42-26.93-14.1C281.2,811.24,279.78,810.66,277.69,809.7Zm-74.75,15.49c-.09,7.1,3.72,12.45,7.85,17.34,4,4.69,8.83,9,15.47,8.84,11-.22,21.37-2.51,29.4-11a100.69,100.69,0,0,1,7.49-6.8c7.5-6.47,8-17.78.55-24.17a67.73,67.73,0,0,0-35-16.12,17.93,17.93,0,0,0-13.6,3.62c-4.18,3-7.44,6.8-8.72,11.79C204.93,814.12,204.05,819.68,202.94,825.19Zm456.38,12c1.19,8.42,3.56,15.12,9.93,19.9q24.72,18.51,49.37,37.1c2.4,1.81,4.73,1.61,7.24.51,13.57-5.92,27.14-11.8,40.68-17.77a22.07,22.07,0,0,0,3.54-2.55,15.76,15.76,0,0,0-2.41-1.83c-11.1-4.72-21.94-10.26-33.38-13.93-23.28-7.47-46.87-13.94-70.35-20.78A37.21,37.21,0,0,0,659.32,837.18ZM873.68,563.42c.66-4.89-1.83-9.13-5.93-12.75-9.68-8.54-21.23-13.1-33.58-16-2.91-.7-4.93.5-6.61,2.78-8,10.77-12,23-13.09,36.22a16.3,16.3,0,0,0,3.4,11.83c7.06,8.61,16.44,12.4,27.34,10.91,9.56-1.31,15.88-8.52,22.73-14.53a4,4,0,0,0,.83-1.18C871.54,575.51,873.61,570.16,873.68,563.42ZM198.55,810.49c-1.87,1.08-3.05,1.48-3.85,2.27-2.75,2.68-5.35,5.5-8,8.26-5.93,6.1-12.27,11.86-17.69,18.38-5.08,6.11-11.14,11.59-13.84,19.51-1.71,5-1.5,6.58,2.22,10.11,7.58,7.19,15,14.56,22.51,21.8,5.21,5,10.42,10,15.83,14.8,2.34,2.08,3.53,2,5.24-.38,3.92-5.44,7.54-11.09,11.66-17.22a29.82,29.82,0,0,1-3.32-2.56c-3.7-3.79-7.42-7.56-10.92-11.53-1.65-1.88-2.32-4.22-.75-6.67,2.44-3.79,4.8-7.61,7.24-11.39s2.36-3.86-.39-7.56c-6.62-8.89-10.05-18.6-7.42-29.83C197.58,816.19,197.92,813.86,198.55,810.49ZM812.9,596.87c-.7-1.13-1.22-2.1-1.86-3A25.3,25.3,0,0,1,806.29,579a65.45,65.45,0,0,1,5.84-27.6c1.11-2.57,2.08-5.2,3.12-7.81l-.73-.77c-9.22,3.93-18.25,8.36-27.69,11.65s-19.39,5.48-29.12,8.15c1.22,7.66,2.73,15.31,3.57,23,.88,8-.91,15.92-3.36,23.84,1.3.3,2.1.75,2.77.6q24.9-5.67,49.77-11.51C811.28,598.42,812,597.57,812.9,596.87Zm-312,221.19c-16.06-23.71-33.43-45.87-51.12-68.1-.66.8-1.17,1.14-1.2,1.51q-3,36.1-5.92,72.22a7.76,7.76,0,0,0,.45,2.17C448,826.59,496,820.29,500.93,818.06Zm382.22-264c-.33,3.89-.27,7.91-1.09,11.75a65.06,65.06,0,0,1-4,11.81,50.69,50.69,0,0,1-5.64,10.59c-2.37,3.17-5.64,5.67-9,8.91,2.59.86,4.38,1.54,6.21,2.06,8.06,2.25,16.13,4.45,24.19,6.68,4.62,1.28,5.27.85,5.68-4,.61-7.26,2.85-13.91,8-19.18,5-5.11,8.62-11.65,15.33-15,.5-.26.8-.91,1.18-1.34-.33-.42-.48-.83-.71-.89a319.25,319.25,0,0,1-38.28-11.53C884.69,553.77,884.16,554,883.15,554.1Zm90.59,52.83c-.32.05.32,0,1-.17,13-2.71,25.57-6.43,37.21-13,3.55-2,4.82-3.48,3.93-7.26-1.37-5.76-3.35-11.38-5.1-17-.73-2.37-2.37-3-4.52-2-8.92,4.11-18.6,5-28.07,6.75-5,1-10,2.29-15,3.69-3,.85-3.52,2.1-2.52,5.08.57,1.67,1.3,3.29,1.93,4.94,2,5.26,4,10.52,6.08,15.77C969.37,605.6,970.34,607.27,973.74,606.93ZM511.59,461.79c3.18.49,6.35.45,9.09,1.54a136.89,136.89,0,0,1,13.82,6.77c3.89,2.07,4,2.18,6.44-1.58,6.24-9.85,10.74-20.53,14.62-31.48a67.38,67.38,0,0,0,2.89-10.7,26.83,26.83,0,0,0,.1-8.15c-.47-3.53-1.85-4.4-5.28-4a9.41,9.41,0,0,0-3.74.86c-4,2.36-8.16,4.57-11.75,7.47-12.11,9.77-19.15,23.24-26,36.8A7.51,7.51,0,0,0,511.59,461.79Zm-180.46,398c6.45,2.57,12.11,4.85,17.79,7.07,3.75,1.46,7.48,3,11.31,4.21,4.29,1.36,4.93.68,5.35-3.82.61-6.73,1.25-13.46,2.21-20.14A13.64,13.64,0,0,0,358.85,832c-3-1.06-6.17-1.87-9.17-3-13.24-5.05-26.44-10.23-39.68-15.25-4.08-1.55-8.27-2.76-12.42-4.13a5.21,5.21,0,0,0,2.28,2.85,298.26,298.26,0,0,0,35.57,18.38c1.32.58,2.6,1.26,3.86,2a2.94,2.94,0,0,1,1.47,4.07c-2.25,5.49-4.47,11-6.74,16.49C333.18,855.35,332.23,857.34,331.13,859.82Zm-98.31,0a8.58,8.58,0,0,0-1.52-.9c-5.35-1-10.68-2.08-16.07-2.86a5,5,0,0,0-3.84,1.19,49.56,49.56,0,0,0-8,11.29c.78.73,1.33,1.3,1.93,1.81,3.82,3.19,7.64,6.39,11.49,9.56,2.07,1.71,2.67,3.58,1.93,6.36-1.15,4.34-2,8.69-4.81,12.41-1.19,1.59-1.16,3.49.81,4.56q8.69,4.69,17.51,9.14c2,1,3.75.45,4.9-1.58,2.07-3.63,4.36-7.14,6.17-10.89,2.87-5.93,2.24-8-2.31-12.79-3.64-3.85-6.94-8-10.52-11.92-2.56-2.8-2.52-5.73-1-8.88C230.53,864.18,231.63,862.09,232.82,859.79ZM484.31,507.28c2.46-1.82,2.16-3.75,2.48-5.37,1.8-9.22,4.44-18.12,9-26.39,4.28-7.75,8.41-15.58,12.73-23.3,1.41-2.52,1.53-4.62-.07-7.17-4-6.42-10.17-10.06-16.73-13.21a6,6,0,0,0-1.39-.4c-3.71-.78-6,.33-7.14,3.89a37.75,37.75,0,0,0-1.72,8c-1.53,15.95-.45,31.89.55,47.81C482.36,496.22,483.44,501.27,484.31,507.28Zm532.87,92.38c-1.08.47-2.38,1-3.62,1.59-3.33,1.62-6.53,3.56-10,4.89a163.17,163.17,0,0,0-27,13.87c-3.19,2-3.44,2.45-2,5.79s2.84,6.5,4.47,9.64c2,3.8,3.48,4.24,7.38,2.55,6.79-2.94,13.6-5.84,20.36-8.85,5.3-2.35,10.53-4.85,15.82-7.23,2.11-.95,3-2.32,2.06-4.59C1022.24,611.58,1019.81,605.85,1017.18,599.66ZM235.09,868.85l10,8.62c3.38-3.54,5.72-7.73,10.76-8.19s8.86,2.17,12.38,5.89a48.79,48.79,0,0,0,3.91-4.15c2.78-3.74,5.5-7.52,8.08-11.39,1.9-2.85,1.7-3.76-1.42-5.11-5.31-2.29-10.74-4.31-16.1-6.48-2.22-.91-3.92,0-5.84,1.06-4.74,2.68-9.65,5-14.45,7.61a6.79,6.79,0,0,0-2.9,2.26C238,861.94,236.75,865.09,235.09,868.85ZM925.78,600.8A50.75,50.75,0,0,1,930.1,606c3.41,5.6,6.79,11.23,9.89,17,2.06,3.83,2.24,4.06,6.07,1.83q5.4-3.15,10.82-6.27c4.61-2.65,5.1-3.86,3.73-9q-2.45-9-4.82-18.12c-.85-3.27-1.59-3.76-4.72-2.39C947,591,943,593,938.88,594.84S930.5,598.65,925.78,600.8Zm-6.61-1.54c1.19-1.32,2.52-3.4,4.38-4.72a77.62,77.62,0,0,1,9.18-5.26c6-3.12,6-3.07,4.44-9.53-.19-.78-.39-1.56-.61-2.33a3.61,3.61,0,0,0-3.92-2.83c-4.62,0-9,.45-12.31,4.24-2.93,3.36-6.5,6.33-8.74,10.1-7.83,13.18-.92,25.76,14.42,31.49.21.07.56-.24,1.4-.65C924.83,613.36,922.24,606.91,919.17,599.26ZM988.76,538c-5.36,2-9.89,4.16-14.64,5.4-8.38,2.19-16.9,3.84-25.37,5.67-4.62,1-5.48,1.92-5.85,6.67-.34,4.45.81,5.59,5.24,4.75,5.68-1.07,11.38-2.11,17-3.57,7.6-2,15.14-4.25,22.62-6.65,4.17-1.34,4.84-3.2,3.24-7.36C990.35,541.29,989.56,539.75,988.76,538ZM924.83,16.19c-2,10.84-3.84,21.15-5.71,31.46l.78.7c6.64-4.27,13.15-8.74,19.37-13.16-.1-.9,0-1.31-.19-1.51C934.45,28,929.79,22.27,924.83,16.19ZM564.35,550.78c3.88,1,6.84-.38,9.86-1.12a90.59,90.59,0,0,0,9.34-2.39c2.79-1,6.55.43,8.73-3.42-5.88-3.75-9.36-9.94-15.29-14.07C572.39,536.85,567.67,543.06,564.35,550.78Zm382.54,31.29c4-1,7.27-1.58,8.76-5.75.68-1.89,2.74-3.64,4.61-4.66a48.5,48.5,0,0,1,10.6-4.45c5.72-1.53,11.62-2.37,17.41-3.67.84-.18,1.48-1.26,2.22-1.92a9,9,0,0,0-2.69-1.2,8.56,8.56,0,0,0-2.78.68c-6.34,1.66-12.68,3.35-19,5-5.43,1.41-10.9,2.68-16.3,4.19-3.76,1.05-4.09,1.73-3.62,5.46C946.31,577.62,946.56,579.5,946.89,582.07ZM780.94,615.15l-.39-1.4c-3.25.69-6.51,1.35-9.76,2.07-4.86,1.07-9.73,2.14-14.57,3.28-2,.49-4.07,1.12-4.26,4.59Zm182.22,24.46a22.71,22.71,0,0,0,3.81-.54,2.72,2.72,0,0,0,1.57-1.58,4.43,4.43,0,0,0-5.11-5.45,23.61,23.61,0,0,0-2.37.46c-2.78.72-3.06,1.38-2.55,4.06S960.86,639.72,963.16,639.61ZM277,908.27c-2.41.86-2.84,1.19-2.8,2,.1,1.72,2.44,3.86,5.24,4.56Zm-9.59-7.17c2.73,1.14,4.91,1.36,6.46-.61,1-1.27.46-2.67-1.7-3.29ZM546.89,471.15l-1.14-.67a21.35,21.35,0,0,0-2.76,4c-.21.52,1,1.64,1.56,2.48.66-.54,1.68-1,1.88-1.64A21,21,0,0,0,546.89,471.15Zm-15-62.16c-2-.63-3.56-1.37-4.49.6a2.46,2.46,0,0,0,.89,2.25C530.38,412.7,531.41,411.54,531.85,409ZM473,387.07c.9-1.35,1.88-2.23,1.71-2.67-.32-.82-1.3-1.38-2-2-.48.52-1.42,1.12-1.35,1.55C471.52,384.8,472.2,385.6,473,387.07ZM959.93,624.38c4,1.33,4,1.33,3.54-2.1Z"/><path class="cls-1" d="M0,839.47c7.2-2.26,14.44-4.43,21.6-6.79,34.49-11.39,69.71-17.19,106.07-13.46,12.64,1.29,25.2,3.39,37.8,5.17,1.69.24,3.34.78,5.65,1.34a29.66,29.66,0,0,1-2,3.7c-6.75,8.8-13.57,17.56-20.33,26.35-3.37,4.38-3.33,9.56.31,13.74q14.44,16.58,29.08,33a100.35,100.35,0,0,0,9.46,9c5.92,5.09,11.91,5.69,17.76-.74a44.3,44.3,0,0,0,2.75-3.75c2.14,1.52,3.53,2.52,4.94,3.49,3.7,2.55,7.33,5.23,11.15,7.58s7.75,4,13.14,2.28c-.33,1.94-.29,3.35-.81,4.51-8.41,19.09-10.56,39.39-11.65,59.89-.26,4.83-.25,9.67-.28,14.5A44.63,44.63,0,0,0,225,1005c1,8.07,4.69,11.23,12.8,11.44,6.75.17,13.49.57,20.23,1a52.82,52.82,0,0,1,5.33.83c-.74,2.54-2.75,2.76-4.19,3.42a123.36,123.36,0,0,0-25.27,15q-3.6,2.85-7,5.87a10.1,10.1,0,0,0-3.35,7.3c3.83.71,6.75-1,9.72-1.87,20.34-6.08,40.52-12.7,61-18.4,16.46-4.58,33.13-4.71,49.43,1.32,2.54,1,5.72,1.24,7.23,4.87-2.69,1-5.2,1.93-7.74,2.8-21.33,7.28-42.79,14.2-64,21.93q-37.18,13.59-72.91,30.75c-26.68,12.88-53.24,26-79.56,39.57-25.6,13.22-50.83,27.2-74.91,43.06-11,7.25-21.53,15.27-32.26,23-5.24,3.75-10.41,7.58-15.68,11.29a23.56,23.56,0,0,1-3.83,1.8ZM98,985.25l6.41,6.61C104.4,987.3,101.22,986.23,98,985.25Zm9.44-2.53-1.56.32c-.21,2,.09,3.9,2.57,5.19C108.1,986.39,107.77,984.56,107.43,982.72Z"/><path d="M0,1551.3a35.39,35.39,0,0,0,4.91-1.65c18.7-9.4,37.2-19.24,56.11-28.2,23.41-11.09,47.06-21.68,70.79-32.07,23.47-10.29,47.8-18.29,72.29-25.76,23.88-7.29,48.07-13.38,72.44-18.85,39.79-9,79.9-16.12,120.22-22.14,26.29-3.93,52.58-7.9,78.9-11.58,18.67-2.61,37.38-4.86,56.09-7.1,20.32-2.43,40.62-5.11,61-6.88,39.16-3.4,78.34-6.63,117.57-9.21,71.43-4.69,143-5.19,214.54-4.82,31.09.16,62.2.55,93.24,2.7,32.14,2.23,64.31,4.21,96.41,7,26.48,2.26,52.88,5.49,79.31,8.31,1.58.17,3.13.51,5.1.84v9a36.52,36.52,0,0,1-3.78,0c-25.63-2.75-51.24-5.72-76.89-8.24-19.4-1.91-38.85-3.19-58.27-4.86-68.65-5.89-137.44-6.4-206.26-5.68-30.77.33-61.57.61-92.3,2-43.77,2-87.57,4.26-131.22,8s-87.18,9-130.7,14.15c-27.83,3.3-55.6,7.22-83.29,11.58-36,5.66-71.9,11.57-107.68,18.27-23.25,4.35-46.28,10-69.27,15.63a771.72,771.72,0,0,0-78.91,24.23c-25.3,9.16-50,19.79-74.26,31.37-25.43,12.14-50.6,24.8-75.86,37.27-3.46,1.71-6.82,3.63-10.23,5.45Z"/><path class="cls-1" d="M0,784.34c1.26-1.11,2.8-2,3.75-3.36,9.15-12.84,18.21-25.75,27.3-38.63a5.16,5.16,0,0,1,2.8-2.19c-1,2.09-1.84,4.22-2.87,6.27-6,12-12.09,23.82-17.89,35.85-2.31,4.77-4,9.84-5.84,14.81a3.59,3.59,0,0,0,.53,3.15,29.31,29.31,0,0,0,2.73-3.49c3.79-6.54,7.61-13.07,11.2-19.72C40.3,742.6,61,709.43,81,675.83c12.67-21.3,25.18-42.71,37-64.48,10.89-20.08,20.76-40.7,31.06-61.1,1.59-3.16,3-6.42,4.58-9.58a37.64,37.64,0,0,1,2.17-3.47c2.18,3.33,4.34,6.27,6,9.45.54,1,.07,2.8-.41,4.06-4.26,11.11-8.65,22.18-12.95,33.28-10.59,27.31-21,54.67-31.76,81.92-9.31,23.68-18.13,47.55-25.42,71.93-3.15,10.55-7.43,20.55-11.77,30.59a12,12,0,0,0-1.09,2.67c-1,6-5,9.12-9.94,12.06C57,790,45.17,796.32,35,805.08a185.5,185.5,0,0,0-17.14,17,23.11,23.11,0,0,1-11,7.31c-2.31.67-4.55,1.57-6.83,2.37Z"/><path class="cls-1" d="M0,653.77a14.45,14.45,0,0,0,2-3c6.74-19.62,13.4-39.27,20.14-58.9a23.67,23.67,0,0,1,2.34-3.78c1.81,3.27,3,5.71,4.43,7.93,4.51,6.85,8.57,14.09,13.83,20.31,12.18,14.37,24.08,29,35.46,44,1.61,2.13,1.71,3.77.31,6.07-7.6,12.5-15,25.13-22.62,37.63a8.78,8.78,0,0,1-4.21,3.61A14.57,14.57,0,0,0,44.54,713c-6.18,8.42-12.33,16.88-18.33,25.44-7.67,10.93-15.15,22-22.79,32.94A23.68,23.68,0,0,1,0,774.67Z"/><path d="M309.2,81.13c4.49,1.14,9,2.19,13.45,3.44,3.35.94,3.77.88,5.28-2.09,7.93-15.6,24-20.81,39.45-12.72a53.81,53.81,0,0,1,7.27,4.72c2.44,1.83,2.74,4.26,1.18,6.76-1.75,2.79-4.2,3.63-7,2.09s-5.39-3.48-8.18-5a23,23,0,0,0-14.5-2.49c-6.5.82-9.78,3.87-11,10.26-.31,1.58-.42,3.2-.78,4.77-1.24,5.3-6.07,7.71-11.08,5.57-2.67-1.13-5.31-2.32-8-3.4a27.94,27.94,0,0,0-12.82-1.52c-4.1.31-7.15,2.27-8.51,6.07-1.52,4.21-2.57,8.58-3.74,12.9-.42,1.54-.48,3.19-1,4.71-.56,1.73-1.49,3.42-3.71,3.08-2-.31-2.31-2.07-2.48-3.69a31.66,31.66,0,0,1,4.52-20.34C292.51,86.22,299.34,81.54,309.2,81.13Z"/><path d="M138.65,94.77c4.14.29,7.7.34,11.19.84,4,.56,5.51,2.38,4.94,5.13-.71,3.4-4.94,6.34-8,5.28-8.91-3.08-17.77-2-26.55.32-5.93,1.54-8.92,5.53-9,11.63a45.35,45.35,0,0,0,1.09,9.56c1.25,6-1.81,10.39-8.07,10.9-3.21.26-6.44.24-9.64.54-6,.55-10.24,3.35-12.3,9.26-1.1,3.18-2.62,6.23-4,9.32-.59,1.32-1.25,2.61-2,3.88s-1.72,3-3.67,2.4c-2.22-.72-2.19-2.69-1.55-4.43,2.15-5.88,3.91-12,6.81-17.48a22.32,22.32,0,0,1,16.75-11.86l4.77-.77c2.1-.35,3.08-1.56,2.85-3.71,0-.32,0-.64,0-1-1.39-13.85,9-25.86,23.47-28.44C130.22,95.39,134.74,95.18,138.65,94.77Z"/><path d="M60.44,336.26c-1.45,0-2.9-.06-4.34,0-7.5.35-11.09,3.41-12.61,10.8-.45,2.21-.6,4.47-1.09,6.67-.41,1.79-1.38,3.47-3.48,3.41s-2.82-1.89-3.15-3.71c-1-5.73.59-10.92,3.8-15.52,4-5.72,9.18-9.88,16.45-10.68a13.76,13.76,0,0,0,1.43-.24c4.21-.83,4.37-.93,4.57-5.3a20.34,20.34,0,0,1,7.64-15.5c6.82-5.55,18.29-4.8,24.31,1.53a5.5,5.5,0,0,1-.27,7.4c-2,2.21-4.6,2.64-6.76.75a14.33,14.33,0,0,0-9.59-3.9c-3.78,0-5.88,1.54-6.2,5.28a19.35,19.35,0,0,0,.8,7.57c2.51,7.5-.64,11.88-8.62,11.51l-2.89-.17Z"/><path d="M627.13,1537.06c-3.35-4.49-6.78-8.92-10-13.48a50.83,50.83,0,0,1-4.44-7.43,8.43,8.43,0,0,1-.56-6.92c.49.07,1,0,1,.16,2.74,8.62,8.52,15.36,13.85,22.37,2,2.56,3.83,5.17,5.79,7.71,1.25,1.64,2.17,3.11.33,5.07-.6.65-.41,2-.68,3.67-4.3-2.23-6.46-6.16-9.79-8.73s-6.66-5.55-10.08-8.22-6.7-5-10.05-7.47-7-5.17-10.45-7.74-7.2-4.53-10-8.37c2.84-1.15,4.23.5,5.67,1.54q10.34,7.5,20.55,15.16c5.27,3.95,10.46,8,15.7,12a24,24,0,0,0,2.39,1.44Z"/><path d="M140,1342c-.7-6.06-6.24-10.52-6.06-17,3.27,2.65,4.88,6.39,6.73,9.89s3.59,7.07,4.2,11.24l-6.4.57c-2.51-2.75-4.75-5.73-7.52-8.07a39.89,39.89,0,0,0-8.89-5.6c-3.21-1.48-6.76-2.25-10.62-3.48,4-2.52,7.82-2,15.51,2.72C131.51,1335.05,135.57,1338.67,140,1342Z"/><path d="M349.15,1504c-4.71-1-8.16-3.53-9.91-7.57-4.26-9.8-4.39-19.63,1.15-29.11,2.33-4,7.08-7,12.8-7.58-5.35,4-10.23,7.24-12.26,12.72-2.11,5.69-1.83,11.6-.91,17.57S345.81,1499.5,349.15,1504Z"/><path d="M1111.25,1323.62c-4.9,5.24-9.81,9.67-13.67,14.87s-6.43,11-9.67,16.62c-1.62-1.77-1-3.85-.08-5.64,2.14-4.12,4.17-8.39,6.94-12.07a138.64,138.64,0,0,1,11-12.13C1106.93,1324.08,1108.26,1322.67,1111.25,1323.62Z"/><path d="M1041.6,1128.25c-4.54-2.72-1.61-8.31-4.69-11.85-3.6,3.76-.32,8.8-2.55,12.84-.71-.59-1.31-.84-1.35-1.16-.85-5.94-1.15-11.83,1.69-17.45,1.25-2.48,3-3.68,5.83-2.88C1040.88,1114.44,1041.22,1121.08,1041.6,1128.25Z"/><path d="M465.77,1370.19v-7l.87-.35a34.59,34.59,0,0,1,1.83,3.45c1,2.68,1.84,5.47,3,8.11,1.94,4.5,1.85,4.76-3.84,5.57C466,1374,460,1372.06,456,1368.23c.55-2.28,1.73-2,2.88-1.13C460.82,1368.59,462.72,1370,465.77,1370.19Z"/><path d="M1074.62,1366c-.6-.26-.84-.29-.87-.4-3.35-9.85-10.44-17.13-17-24.78-1.1-1.27-2.73-2.44-1-5.14,7.21,7.54,14.22,14.86,18.69,24.2C1075.32,1361.66,1076.12,1363.65,1074.62,1366Z"/><path d="M1074.52,1326.28c.7,2,1.29,3,1.36,4a90.07,90.07,0,0,0,5,25c.65,1.75,1.61,3.9-.32,5.81C1075.48,1353.14,1071.65,1333,1074.52,1326.28Z"/><path d="M676.3,1511.57c-10.77,6.11-21.13,12.68-28.68,23.29C649,1525.81,665.06,1512.69,676.3,1511.57Z"/><path d="M1070.67,985.51c-1.42-1.19-2.27-1.56-2.49-2.16q-4.17-11-8.13-22.12a6.85,6.85,0,0,1,.22-2.42c3.1.88,3,3.58,3.79,5.45C1066.66,970.82,1070.17,977.15,1070.67,985.51Z"/><path d="M355.54,1480.61c-1.45,8.76,1.82,17,.25,25.93-2.38-3.33-4.09-14.11-3.55-20.35C352.42,1484.11,352.55,1482,355.54,1480.61Z"/><path d="M364.64,1501.57c-4.53-7.34-.23-19.75,6.83-22.84-1.56,3.33-3.66,6.91-4.91,10.76C365.38,1493.15,366,1497.28,364.64,1501.57Z"/><path d="M1057.72,1093c-2.15,5.57-4.44,10.1-5.62,14.91s-1.16,9.67-1.7,14.8C1046.13,1117,1050.79,1098.39,1057.72,1093Z"/><path d="M1075.43,980.63c-.82-7.93-2-15.9,3.48-23.4.11,1.09.59,2.33.25,3.25-2.07,5.57-1.85,11.33-1.9,17.1a18.56,18.56,0,0,1-.55,3.09Z"/><path d="M976.5,861.23c5.63,5.06,8.56,11.47,7.55,15.85C981.85,875.12,977.17,865.59,976.5,861.23Z"/><path d="M480.83,1361.46l-4.47,15.7C473.93,1370.91,476.16,1365.86,480.83,1361.46Z"/><path d="M1062.38,984.18c-1.13-.65-2.53-1-2.73-1.66-1.19-4.15-3.68-8-3.29-12.88C1059.05,971.48,1062.08,978.86,1062.38,984.18Z"/><path d="M152.32,1322.68c-2.63,5.83-4.44,11.81-3.46,18.37C145.27,1336.45,146.67,1328.76,152.32,1322.68Z"/><path d="M647,1117c-1.59-4.12-1.7-7.12.11-11.06C648.44,1109.86,648.26,1112.86,647,1117Z"/><path d="M635.54,1111.69c.13,2.94,3.76,5.06,1.32,9.71l-2.59-9.41Z"/><path d="M998.58,867.84a5.73,5.73,0,0,1,2.55-6.32l1.14.46-2.43,6.29Z"/><path d="M989.86,864v7A5.47,5.47,0,0,1,989.86,864Z"/><path d="M773.7,843.1l-2.41-4C773.51,840.35,773.51,840.35,773.7,843.1Z"/><path d="M1107.4,658.3c.15-1.09.31-2.17.58-4.16C1109.18,656.75,1109.18,656.75,1107.4,658.3Z"/><path d="M633.11,1105.77c.23.16.57.29.66.51a2,2,0,0,1-.1.88c-.29-.19-.68-.32-.85-.59S633,1106,633.11,1105.77Z"/><path d="M768.3,843c-.62.58-.91.94-1,.9a8,8,0,0,1-1-.76c.26-.24.52-.69.77-.68A3.72,3.72,0,0,1,768.3,843Z"/><path class="cls-1" d="M1043.85,230.79c-1.2,2.76-2.28,4.57-2.79,6.52-5.11,19.64-17,34.34-33.17,46A160.63,160.63,0,0,1,968,304.71a73.57,73.57,0,0,1-28.46,4.16c-18.69-.77-34.44-8.72-49.21-19.2-7.33-5.21-15.18-9.75-21.56-16.27-2.13-2.19-4.9-2.61-8-2.37-10.77.81-21.47,1-32.13-1.73-10.44-2.7-20.88-5.21-31-9.13-20.82-8.07-36.83-27.83-36.92-50.77,0-9.83.24-19.63,3.69-29.06A73.46,73.46,0,0,1,787.2,148.6c19-15.68,41-22.24,65.3-22.56a163.94,163.94,0,0,1,31.76,2.25,53.77,53.77,0,0,1,22.36,9.82c1.59,1.17,2.9,3.21,5.44,2.39,1.5-1.79.36-3.35-.46-4.87-3.85-7.11-10.2-11.13-17.65-13.3-6.16-1.8-12.54-2.85-18.81-4.24-1.49-.32-3-.68-4.84-1.12a22.17,22.17,0,0,1,1.47-3.1c7.65-10.55,15.26-21.14,23-31.59A123.77,123.77,0,0,1,920.56,57c12.83-9.53,26-18.35,41.24-23.82,13.48-4.86,27.26-6.6,41.35-3.88,12.1,2.33,20.91,9.64,27.14,20.06,2.29,3.83,4.29,7.75,4.85,12.47.78,6.56,3.29,8.59,10,8.75,5.46.13,11.05.26,16.38-.74,7-1.3,13.77-.53,20.66.15a116.23,116.23,0,0,1,53.15,18.93A74.18,74.18,0,0,1,1155.93,109c6.89,10.07,10.85,21.22,10.87,33.51,0,16.71-3.36,32.53-12.3,47-9.48,15.35-22.77,26-39,33.31-14.17,6.31-29.18,9-44.53,10-6.11.41-12.24.42-18.36.74C1049.62,233.77,1046.76,233.93,1043.85,230.79Z"/><path class="cls-1" d="M407.52,457.74c-1.09,9.47-4.1,18.42-6.27,27.57s-5.24,18.07-5.82,27.5l1.12.46a30.2,30.2,0,0,0,2.45-4.35c3.23-8.59,6.61-17.14,9.44-25.86,5.23-16.07,10.07-32.26,15.16-48.38C429.32,416.57,435,398.42,441,380.4c5.45-16.33,11.33-32.53,17.1-48.76q11.64-32.76,23.41-65.47c5-13.77,10.06-27.5,15.12-41.23.48-1.29,1.15-2.51,1.73-3.78,3.07.52,4,2.7,5.15,4.54,3.23,5,6.39,10.07,9.66,15.05,1.2,1.83,2.24,4.22,5.12,3.56a7,7,0,0,0,5.46-5.53c.38-1.55.24-3.21.48-4.8.56-3.69,2.79-4.76,5.71-2.49s5.52,4.94,8.24,7.44c2.14,2,4.13,4.11,6.42,5.87,4.77,3.67,10.05,5.8,16.23,4.13a8.39,8.39,0,0,1,8.11,1.93q8,7,15.72,14.26c2.11,2,3.84,4.37,6,6.29,4.21,3.77,8,3.94,12.71.89l2.1-1.37a57,57,0,0,1,3.78,4.75c13.71,21.45,27.25,43,41.1,64.37,11,16.9,22.32,33.53,33.42,50.33,3.46,5.24,6.52,10.75,10,16,1.82,2.72,1.67,4.92-.17,7.47-6,8.35-11.9,16.81-17.92,25.17q-22.56,31.38-45.18,62.7c-9.31,12.94-18.53,25.94-27.81,38.9-2.38,3.32-3.26,3.33-5.6.1-3.78-5.22-7.42-10.55-11.32-15.67-2.17-2.87-2.27-5.28-.18-8.29,4.12-6,8.08-12,11.81-18.24,3.22-5.37,6.31-10.88,7.42-17.2,2.17-12.38-4.26-15-13.64-12.11-7.73,2.36-13.89,7.36-19.61,12.89-2.09,2-4,4.17-6,6.27-3.64,3.83-4.49,3.88-8.26.4a14.6,14.6,0,0,0-1.41-1.32c-3.54-2.57-4.47-5.65-3.35-10.08a20.5,20.5,0,0,0-.58-12.84c-1-2.38-.12-4.3,1-6.37,5.1-9.37,9.4-19.11,11.8-29.51a44,44,0,0,0,.92-12.91c-.51-7.4-5.14-10.59-12.37-8.56-4.12,1.16-7.95,3.35-11.89,5.12-1.66.75-3.26,1.63-4.89,2.45l-.91-.77c.43-1.43.92-2.85,1.27-4.31.87-3.6-.18-5.11-3.94-5.44a17.87,17.87,0,0,0-4.32.2c-3.64.58-5.39,2.65-5.41,6.2s1.33,4.91,5.17,5.66c3.49.68,4.27,1.94,2.46,4.22q-7.21,9-14.54,18a11.41,11.41,0,0,1-2,1.45c-.93-1.61-1.85-3-2.61-4.53-4-7.82-10.61-12-19-13.21-5.73-.82-10.32,1.74-13.84,6.28a27.77,27.77,0,0,0-5.87,15.6c-.53,9.17-.71,18.36-.75,27.54a223.23,223.23,0,0,0,3.82,42.3c.29,1.52.27,3.11.48,5.72-1.85-.92-3.08-1.2-3.85-2-13.22-12.84-25.58-26.43-34.33-42.81C431.88,463,429.41,450.26,433,437a45.37,45.37,0,0,1,5.83-12.62,160.14,160.14,0,0,1,25.75-30,9.15,9.15,0,0,1,7.32-2.8c4.9.29,9.1-5.85,7.65-10.6-.56-1.82-1.93-2.84-3.64-2.46-2.83.63-6.27-2.23-8.47,1.23a7,7,0,0,0-.58,4.21c.29,2.6-.76,4-2.86,5.53-16.63,11.7-29.88,26.45-38.61,44.87-1.92,4.07-2.27,9-2.63,13.66a60.32,60.32,0,0,0,8,34.84c10,17.72,23.32,32.77,38.46,46.22a22.55,22.55,0,0,0,8.47,4.32c5.27,1.57,5.86,1.91,5.9,7.58.07,11-.06,21.93.2,32.88.18,7.56.77,15.11,1.38,22.65A5.71,5.71,0,0,1,483,602q-12.11,10-24.07,20.18c-2.23,1.9-4.35,2.15-7.09,1-10.07-4.09-20.63-5-31.35-4.09a50.6,50.6,0,0,0-9.87,2.21c-5.86,1.72-11.86,3.2-17.45,5.59-16,6.86-25.67,19.42-30.83,35.74-.83,2.6-1.46,5.27-2.08,7.94-1.06,4.64-1.3,4.9-5.91,5.53-8.62,1.17-17.25,2.29-25.86,3.54-9.25,1.34-18.48,2.81-27.72,4.18-1.55.23-3.13.28-5.35.46.52-1.53.63-2.64,1.2-3.41,17.39-23.25,29.65-49.33,41.8-75.48q7.83-16.87,16-33.61a36.69,36.69,0,0,1,5.07-7.57c-6,17.86-14.91,34.7-19.24,54,2.59-1.24,3.24-3,4-4.61,6.2-13.28,12.56-26.49,18.43-39.91,7.88-18,15.81-36,22.89-54.3,7-18.16,13-36.72,19.49-55.09C405.79,462.12,406.68,459.94,407.52,457.74Z"/><path class="cls-1" d="M607.92,553.38a44,44,0,0,1,4.48-.44,107.55,107.55,0,0,1,49.35,11.8c2.79,1.44,4.68,3.16,5.37,6.29,1.76,8,3.88,16,5.45,24,1.72,8.84,3.26,17.74,4.37,26.67,1,7.64,1.52,15.34.61,23.1-.69,5.91-.86,11.89-1.1,17.84-.81,20.06-4.82,39.59-9.25,59.09-3.44,15.15-8.86,29.62-14,44.19-5.72,16.13-6.67,32.69-5.81,49.55a114.31,114.31,0,0,0,8.4,37.52,69.45,69.45,0,0,0,3.28,7c1.2,2.17,1.42,4.12,0,6.32a76.22,76.22,0,0,0-3.71,6.76,28.88,28.88,0,0,1-10.9,11.28,103.84,103.84,0,0,1-36.76,14.09c-16.79,3.07-33.56,6.31-50.45,8.7-7.74,1.09-15.75.44-23.63.32-2.54,0-5.06-.9-7.59-1.38-2.36-.45-3.18-2-2.88-4.21.41-3,1-6.06,1.22-9.1,1-13.68,1.63-27.42-.32-41-1-7-3.23-13.77-5.4-20.49-5.71-17.7-17.48-31.78-28.35-46.34-11.17-15-22.64-29.72-33.85-44.65-5.57-7.43-5.43-7.51,1.89-12.73,10.49-7.48,17.21-17.54,21-29.82,2.92-9.47,2.67-19,2.21-28.72-.39-8.36-2.06-16.37-6.09-23.63-2.55-4.59-6.09-8.63-9.26-12.86a45.52,45.52,0,0,0-3.14-3.43c2.05-4.08,23.16-22.16,43.7-37.23,5.35-3.92,10.55-8.25,17.08-10.91a31.44,31.44,0,0,0,1.72,3.35c2.09,3,3.91,6.34,6.45,8.92,4.16,4.2,9.51,5.24,15.23,3.92,3.14-.72,6.22-1.65,9.32-2.52,11.34-3.19,16.75-.24,21.89,7.15,1.19,1.72,2.36,3.46,3.47,5.23a14.64,14.64,0,0,1,1.77,11.17c-.61,3-1.26,6-1.76,9a3.7,3.7,0,0,1-2.69,3c-6.89,2.76-10.82,8.52-14,14.71-2.93,5.7.06,10,6.46,9.78a18.86,18.86,0,0,0,5.6-1.26,37.67,37.67,0,0,0,5.65-2.73c8-4.47,15.49-3.25,22.7,1.66,2.25,1.53,4.14,3.59,6.38,5.15,3.88,2.73,8.09,2.37,11.82,0s4.84-6.28,4.12-10.63a9.91,9.91,0,0,0-5-6.83c-2.76-1.7-3.76-4-4.13-7.12a86.4,86.4,0,0,1,.56-21.68c1.35-10.05,3.71-20,3.2-30.24-.15-2.89-.39-5.78-.75-8.65-.94-7.43-4.83-12.84-11.41-16.36-.7-.37-1.37-.81-2-1.24C608.3,554.65,608.29,554.42,607.92,553.38Z"/><path class="cls-1" d="M277.62,266.67c.86-1.28,1.71-2.56,2.58-3.83,4.65-6.75,9-13.76,14-20.18a47.21,47.21,0,0,1,34.89-18.38c17.3-1.18,34.44.25,51,6.07,20.9,7.35,33.92,22,40.51,42.87,5,15.82,4.56,31.77,1.22,47.76-.46,2.21-.17,5.37-3.52,6.18-2.51-1.51-.9-5.79-5.13-6.47a42.33,42.33,0,0,0-1.81,5.05,55.45,55.45,0,0,0-1.15,7.15c-1.28,12.72-6.95,23.33-15.58,32.5-12.61,13.4-28.06,21.95-45.81,26.42a131.09,131.09,0,0,1-52.73,2.5c-1.27-.2-2.58-.18-3.84-.41-3.81-.73-6.65.4-9.4,3.33-12.24,13-27.19,22-43.8,28.31-11.78,4.48-23.54,4.81-35.28-.26-7.33-3.17-12.88-8.56-17.71-14.63-11.27-14.2-14-30.46-10.66-47.94,3.41-17.72,17.2-29.42,35.31-29.91,4.64-.12,9.31.49,14,.78.48,0,1,.2,1.43.22,1.49,0,3.07,0,3.52-1.8a3.3,3.3,0,0,0-1.71-4.1A24.85,24.85,0,0,0,223,326a50.13,50.13,0,0,0-6.69-1c-4.55-.42-4.66-.58-4.7-5.31a82.74,82.74,0,0,1,3.87-24.25c4.49-15.25,10.94-29.61,20.39-42.46,9.87-13.43,23.54-20.06,39.93-21.49,3.86-.34,7.37.35,10.08,3.47,2.3,2.65,2.48,4.35.71,7.36-2.12,3.61-4.26,7.2-6.24,10.89A29,29,0,0,0,278,259c-.66,2.29-1,4.68-1.41,7Z"/><path class="cls-1" d="M177.45,716.66a18.72,18.72,0,0,1,.75-2.92c5.32-10.83,11.15-21.44,15.9-32.52,5.55-12.92,13.23-24.65,19.61-37.1,11.15-21.78,22.65-43.38,33.9-65.1,14.74-28.46,29.08-57.12,44.17-85.39,9.85-18.46,20.7-36.37,31.13-54.51,4.65-8.1,9.5-16.08,14-24.26a45.71,45.71,0,0,0,3.72-9.81,4.1,4.1,0,0,1,3.17-3.16c3.55-1.05,7.13-2,10.65-3.16,22.61-7.41,41.08-20.56,54.39-40.39,3.19-4.74,5.07-10.37,7.54-15.59.4-.84.74-1.7,1.43-3.32a46.91,46.91,0,0,1,3.14,4.13c4.61,7.93,9.13,15.93,13.75,23.86a7.37,7.37,0,0,1,.38,6.47q-4.69,14.22-9.22,28.5c-3.83,12.12-7.58,24.26-11.37,36.4-.62,2-1.38,4-1.82,6-.66,3-1.67,5.08-5.18,6.09-2,.59-3.9,3.34-4.89,5.54-3,6.59-5.62,13.34-8.15,20.12q-10.21,27.39-20.22,54.85a17.27,17.27,0,0,1-4.72,6.51,68.38,68.38,0,0,0-8.89,10.74c-10,14.73-17.38,30.84-24.85,46.91-9.56,20.59-18.84,41.34-30.21,61-5.55,9.61-11.85,18.78-18,28-.82,1.22-2.86,1.93-4.47,2.28-7.87,1.69-15.87,2.87-23.67,4.82-14.52,3.64-29.06,7.3-43.36,11.69-11.51,3.53-22.68,8.17-34,12.27A39.87,39.87,0,0,1,177.45,716.66Z"/><path class="cls-1" d="M371.79,830.55a50.77,50.77,0,0,1-5-2.21c-16.39-9.48-34-16.19-51.62-22.89-17-6.47-34.34-12.11-51.36-18.55a68,68,0,0,0-26.54-4.13c-10.14.35-19.61,3.39-27.47,10.39-1.87,1.68-4.26,2.77-6.35,4.22-2.77,1.92-5.62,3.76-8.19,5.92-3.82,3.2-7.56,6.54-11.1,10.05-2.69,2.66-5.58,3.28-9.23,2.63-9.83-1.74-19.69-3.36-29.57-4.75-16.81-2.34-33.72-2.53-50.65-1.78-20.09.89-39.56,5.23-58.78,10.83-2.63.77-5.25,1.55-7.9,2.22a10.47,10.47,0,0,1-2.7-.15c2.39-4,5.73-6.28,8.72-8.78,9.66-8.11,20.58-14.34,31.27-20.94Q84.23,781,102.49,768.28c17.73-12.31,35.51-24.5,54.87-34.19a392.24,392.24,0,0,1,45.87-19.21,474,474,0,0,1,82.36-20.75c22.26-3.55,44.56-6.89,66.86-10.21,6-.89,6.3-.55,6.26,5.63-.13,18.84,8.3,32.66,24.51,41.94.84.48,1.7.92,2.56,1.37,2.3,1.22,2.92,2.95,2.44,5.6-4.79,26.66-8.47,53.47-9.82,80.53C378.15,824.19,374.39,826.74,371.79,830.55Z"/><path class="cls-1" d="M381.48,965.33c-3,2.89-6.79,2.35-10.25,3.26a122.23,122.23,0,0,0-20.11,6.68c-12,5.49-23.63,11.7-35.43,17.59-.83.42-1.71.73-3.41,1.45a16.85,16.85,0,0,1,1.25-3.48c2.52-3.66,3.67-7.78,4.73-12.05,1.22-4.89-.21-8.75-3.11-12.55-5.46-7.17-10.74-14.47-16-21.75a16,16,0,0,1-3.4-9.36c0-2-1-4-1.77-6A69.33,69.33,0,0,0,281.5,908c-2.56-2.87-2.45-3.4,1.45-6.68l4.05,3a50,50,0,0,0,5.06,3.7c4.49,2.51,7.87,1.46,10.59-2.88q11.14-17.79,22.4-35.52a35.44,35.44,0,0,1,2.59-3.19c1.74.73,3.38,1.32,4.94,2.08,4.49,2.2,8.94,4.46,13.39,6.71A43,43,0,0,0,362,880.15c2.88.23,4.51,1.62,5.79,4.28a50.87,50.87,0,0,0,6.51,10.67c11.59,13.8,30.5,13.27,42.56,5.51s20.31-18.79,25.2-32.09a57.16,57.16,0,0,0,2.95-29c-.62-3.92-.31-4.52,3.66-5.08,8-1.15,16-2.08,24-3.14,9.42-1.25,18.84-2.58,28.26-3.81,5.17-.68,5.61-.37,7.84,4.27,7.14,14.91,9.28,30.73,8.56,47.08-.37,8.37-.53,16.78-3.82,24.69-.87,2.08-1.95,4.08-2.68,6.21-.83,2.4-1.37,4.9-2.05,7.36-1.36,5-2.64,9.94-4.1,14.87-5.25,17.59-10.67,35.13-15.76,52.76-1.34,4.64-3.67,7.31-8.35,8.9-20.89,7.07-41.66,14.5-62.48,21.78q-2.74,1-5.55,1.68c-3.16.81-4,.49-5.38-2.41-3.53-7.41-6.82-14.95-10.49-22.29-4.24-8.49-8.78-16.84-13.24-25.22C383.09,966.49,382.31,966.08,381.48,965.33Z"/><path class="cls-1" d="M666.72,867.11c3.59,3.13,6.46,5.92,9.62,8.33,10.38,7.9,21,15.55,31.28,23.52,8,6.18,15.73,12.77,23.67,19q33.38,26.34,66.86,52.54c5.7,4.45,11.57,8.71,17.61,12.7,7.48,4.93,9.87,11.48,8.82,20.3-.57,4.8.95,9.84,1.54,14.78.21,1.75.53,3.5.71,5.26.76,7.68,1.08,15.43,2.3,23a287.3,287.3,0,0,0,14,54.18,143.83,143.83,0,0,0,49.76,66.88c11.53,8.61,23.82,16,36.25,23.1,24.45,14.06,49.32,27.33,75.48,38,6.1,2.48,12.55,4.09,18.84,6.07,1.76.55,3.55,1,5.33,1.51,0,.38,0,.76,0,1.14a41.24,41.24,0,0,1-6.21,1.78c-14.37,1.87-28.72,4.5-43.15,5.19-26.23,1.26-52.51,1.73-78.76,1.76-15.29,0-30.57-1.49-45.86-2.26-2.62-.13-4-1.33-4.85-3.82a482,482,0,0,1-14-51.28c-3.14-15-6.27-30-9-45-2-10.77-3.65-21.6-4.87-32.47-2-18.09-3.83-36.21-5.24-54.35-1-12.52-1.17-25.1-1.63-37.66-.26-7.08-.46-14.17-.48-21.26a6.18,6.18,0,0,0-2.81-5.26c-4.5-3.38-9-6.77-13.49-10.17a13.25,13.25,0,0,1-2.55-2.21c-6.8-8.82-16.11-14.78-24.63-21.6q-19.61-15.71-39.54-31c-5-3.81-10.35-7.05-15.5-10.62a51.85,51.85,0,0,1-6.91-5.27c-9.12-9-20.12-15.35-30.64-22.39-4.94-3.31-10.29-6-15.37-9.11-3.78-2.32-3.79-2.66-1.35-6.33C663.47,871.93,665,869.75,666.72,867.11Z"/><path class="cls-1" d="M733.9,452.91c-3.71-2.21-5.91-.1-7.59,2.66-5.29,8.65-10.91,17.14-15.55,26.13-7.24,14-13.89,28.33-20.53,42.64-1.89,4.07-4,6.78-8.86,7.62-5.18.9-10.22,2.84-15.17,4.71-5.61,2.12-10.79,5.07-14.81,9.7a4.43,4.43,0,0,1-5.15,1.54c-9.32-3-18.9-3.8-28.63-3.58-2.33,0-4.68-.26-6.81-.4-.92-2.68.82-3.85,1.77-5.17q18.21-25.57,36.55-51,24.58-34.35,49.17-68.71c11.16-15.56,22.42-31,33.57-46.61q28.25-39.43,56.42-78.94c4.39-6.16,8.81-12.29,13.06-18.54,1.9-2.81,4-3.55,7.36-2.7,5.6,1.45,11.32,2.44,17,3.56,3.53.7,4.2,1.6,3,4.87a15,15,0,0,1-5.1,7.33c-2.6,1.95-4.59,5-6.24,7.86q-13.68,24.15-27,48.49c-9.55,17.51-19,35.07-28.22,52.78-8.8,17-17.15,34.24-25.72,51.36C735.66,449.89,734.82,451.25,733.9,452.91Z"/><path class="cls-1" d="M85.05,770.7a22.5,22.5,0,0,1,.7-3.1c4.17-11,8.44-21.93,12.58-32.92,7.31-19.45,14.46-38.95,21.83-58.37q15.5-40.87,31.22-81.66c6.6-17.13,13.35-34.2,20.1-51.27a485,485,0,0,0,17.18-51.27,6.93,6.93,0,0,1,2.06-3.59c.24,1.48.54,3,.72,4.43,2.52,20.95,4.78,41.94,7.63,62.85,1.8,13.23,4.43,26.36,6.81,39.52,1.83,10.14,3.84,20.25,5.79,30.37a14.27,14.27,0,0,1-1.55,9.79c-7.39,13.93-14.81,27.86-21.93,41.94-4.57,9-8.52,18.4-13,27.49-2.48,5.05-5.5,9.83-8.2,14.77-1.65,3-4.53,4.45-7.36,6-9.61,5.23-19.48,10.05-28.72,15.87-12.53,7.89-24.56,16.56-36.82,24.86-2.63,1.78-5.37,3.4-8.06,5.09Z"/><path class="cls-1" d="M543.34,536.24c-4,5-7.73,9.41-11.09,14.09a47.24,47.24,0,0,0-8.14,18.43,8.31,8.31,0,0,1-2.86,4.68c-9,6.7-18.26,13.19-27.43,19.73-.63.45-1.34.79-2.36,1.39a11.72,11.72,0,0,1-.79-2.85c.28-18.84.81-37.68.86-56.52,0-14.27,1.38-28.33,5.63-42a119.12,119.12,0,0,1,7.17-17.35c2.59-5.2,6.46-6.72,12.13-5.1a36.48,36.48,0,0,1,8.76,3.94,128.63,128.63,0,0,1,26.24,21.18c2.58,2.68,2.58,4-.19,6.34-1.6,1.33-3.58,2.2-5.17,3.53-.71.6-.88,1.84-1.29,2.78,1,.4,2.08,1.33,2.87,1.1a14.5,14.5,0,0,0,5.63-2.53c5.69-5,11.14-10.19,16.7-15.3,4.26-3.91,8.38-8,12.91-11.59a32.92,32.92,0,0,1,8.52-4.4c5.08-2,7.53,0,6.52,5.45a27,27,0,0,1-3.19,9c-6.12,10-12.59,19.82-18.92,29.72-5.89,9.21-11.8,18.43-17.63,27.68a17.42,17.42,0,0,0-2,4.4c-1.19,4.15.31,6.68,4.57,7.28a64.46,64.46,0,0,0,9.63.46c5.63-.05,11.28-.57,16.9-.38a56.82,56.82,0,0,1,12.87,1.73c10.12,2.72,14.28,8.36,14.75,18.82.4,8.75-.86,17.34-2.15,26-.85,5.72-1.37,11.5-1.93,17.26-.83,8.39,2.37,15.41,7.53,21.75,1.27,1.55,3.56,3.32,1.31,5.28-1.9,1.66-3.5-.58-4.89-1.79-7.91-6.92-16.88-9.91-27.25-7.12-2.6.7-5,2.17-7.49,3.28a25,25,0,0,1-4.42,1.87,4,4,0,0,1-3-.64c-.38-.29-.25-2,.23-2.55,1.94-2.32,3.75-5.08,6.26-6.51,3.82-2.16,6.23-4.82,7.09-9.12a25.19,25.19,0,0,1,2.13-5.89c4.51-9.38,1.74-17.53-4.1-25.19-7.35-9.65-14.63-12.07-26.76-8.94a67.2,67.2,0,0,1-8.46,1.94c-8.8,1.07-15.92-4.74-17.26-13.58-1.4-9.27,1.64-17.28,7.1-24.35,4.32-5.57,9.33-10.62,14.12-15.82,1.55-1.7,3.11-3.26,3-5.81-.13-2-1.07-3-3.06-2.88a15.9,15.9,0,0,0-9.27,3.69C541.55,532.62,541.36,534.63,543.34,536.24Z"/><path class="cls-1" d="M423.21,729.92c-13,.25-24.19-1.71-34.4-7.58-9.74-5.61-16.5-13.58-19.82-24.53-4.66-15.39-2.22-29.95,4.52-44.06a20.71,20.71,0,0,1,5.4-6.68c9.84-8.25,20.48-15.16,33.34-17.69,10.79-2.12,21.77-2,31.87,2.21,8.61,3.57,17.22,8.06,21.6,17.41a48.18,48.18,0,0,0,4.47,6.88,24.13,24.13,0,0,1,4.5,17.82c-1.15,8.11-2,16.31-3.76,24.29-2.66,11.8-9.58,21.06-20.68,25.78C441.34,727.56,432.14,731.9,423.21,729.92Z"/><path class="cls-1" d="M454.38,1141.5c.69-1.77,1.86-3.35,1.81-4.88-.23-6.78,2.2-13,3.74-19.38q4.54-18.77,9.57-37.42c3.37-12.6,7-25.14,10.47-37.7,4.28-15.35,9.21-30.55,12.64-46.08,2.54-11.54,7.23-22.31,10-33.72,3.34-13.77,7.24-27.4,11-41.06,1.1-4,2.59-7.84,4.12-12.44,2.42,1.79,4.54,3,6.11,4.67.74.81.83,2.72.49,3.93-3.26,11.8-6.68,23.55-10.05,35.31-2.49,8.67-5,17.34-7.5,26a25.13,25.13,0,0,1-1.94,5.44,16.46,16.46,0,0,0-2,8.3c0,2.81-1,5.65-1.8,8.41-2.65,9.11-5.55,18.15-8.12,27.28-3.75,13.33-7.3,26.72-10.94,40.08-4.44,16.31-8.93,32.6-13.32,48.92-3,11.19-6,22.4-8.73,33.65-1.1,4.51-1.68,9.14-4.85,13.19a7.72,7.72,0,0,1-4.14-4.81c-1.3-6.18-5.45-10.9-7.81-16.5-2-4.72-3.55-9.63-5.58-14.33a210.13,210.13,0,0,0-19.38-34.51c-7.69-11.3-15.74-22.4-24.19-33.15A114,114,0,0,0,357,1029.48c-14.43-7.51-29.73-10-45.89-8.21-16,1.79-31.08,7-46.23,11.93-6.41,2.11-12.74,4.5-19.13,6.69-1.78.61-3.66.94-5.49,1.4-.17-.28-.35-.56-.53-.84a13.08,13.08,0,0,1,2.46-2.27c7.43-3.85,14.74-8,22.4-11.3,16.12-7,31.93-14.52,47-23.6a371.59,371.59,0,0,1,56.85-27.56c2.1-.82,4.11-1.86,6.16-2.79,3.08-1.41,3.95-1.1,5.17,1.87,4,9.84,8,19.7,12.09,29.51,1.55,3.71,3.52,7.24,5.08,11,1.24,2.94,2.18,6,3.21,9,.36,1.06.5,2.21.94,3.22,5.28,12.09,10.86,24,15.83,36.26,7.46,18.35,14.4,36.92,21.76,55.31A66.41,66.41,0,0,0,450.39,1139a13.5,13.5,0,0,0,1.68,1.7A11.07,11.07,0,0,0,454.38,1141.5Z"/><path class="cls-1" d="M655.56,550.6c1.63-3.38,4.4-4.14,6.84-5.18,12.82-5.47,26.31-7.18,40.15-7,10.44.15,19.91,3.43,28.78,8.68a29,29,0,0,1,13,15c2,5.25,4.81,10.21,6.5,15.54,2.54,8,1.69,16.21.89,24.41-.76,7.86-4.9,14.24-8.73,20.73a23.35,23.35,0,0,1-5.35,6.16c-8.83,7.18-18.28,13.13-30.15,13.76-5.94.31-11.87,1-17.81,1.22-3.61.15-4.09-.48-4.48-4.13a22.36,22.36,0,0,1-.16-4.83c1.29-10.47-1.38-20.43-3.72-30.47a63.21,63.21,0,0,1-1.67-10.92,53.36,53.36,0,0,0-4.23-17.28,27.88,27.88,0,0,1-2.31-7.81c-.41-5-2.89-8.46-6.71-11.19-2.35-1.68-4.91-3.07-7.37-4.59Z"/><path class="cls-1" d="M690.66,909.15a34.52,34.52,0,0,1-4.32,2.73c-17.5,7.38-35,14.89-52.57,22-33.15,13.31-66.39,26.36-99.61,39.49-5.24,2.07-10.52,4-15.81,6a23,23,0,0,1-3.91.61,37.94,37.94,0,0,1,.59-4.48c3.65-13.85,7.42-27.67,11-41.55,1.2-4.67,1.9-9.47,2.86-14.2.25-1.23.6-2.44,1-3.94,1.5,0,2.76-.11,4,0,13.59,1.34,27,.19,40.39-2.3,12.5-2.33,25-4.77,37.41-7.51,12.7-2.8,24.58-7.62,34.85-15.85,2.26-1.8,4.33-3.85,6.43-5.84,1.67-1.57,3.28-1.71,5.15-.29,9.48,7.2,19,14.34,28.5,21.54C687.82,906.45,688.91,907.58,690.66,909.15Z"/><path class="cls-1" d="M260.88,884c-3.27,5-3.27,5,2.9,10.13-1.07,1.11-2.18,2.16-3.16,3.31-2.68,3.15-2.28,6.3,1.28,8.42,3.18,1.89,5.38,4.07,6.18,8,.59,2.87,2.47,5.56,4.14,8.1,8.14,12.36,16.23,24.76,24.69,36.9,3.56,5.12,8,9.64,12,14.43.83,1,1.79,1.85,2.58,2.86,2.13,2.75,2.15,3.45.2,6.45a54.12,54.12,0,0,1-14.58,15.27c-11.93,8.18-25,13.58-39.61,13.41-6.52-.07-13.08-1.47-19.52-2.77-3.84-.78-5.17-4.27-5.33-7.8a162.37,162.37,0,0,1-.11-17.37c1-15.92,2.46-31.85,7.39-47.1,3-9.3,7.19-18.23,11-27.28a16.84,16.84,0,0,1,2.56-3.48c3.12-4,3.39-8.49,1-13-1.87-3.54-1.06-7.46-1-11.2,0-1.76,2.18-2.49,3.74-1.3A25.69,25.69,0,0,1,260.88,884Z"/><path class="cls-1" d="M436.13,824.61a14.79,14.79,0,0,1-3.07-.68c-10.05-4.84-20.76-5.42-31.64-5.08-5.44.16-10.88,0-16.79,0,0-2.17-.16-3.87,0-5.54,1.65-15.06,3.4-30.1,5-45.16,1-9,1.7-18,2.56-26.94.14-1.4.37-2.79.63-4.75,1.71.25,3.07.37,4.4.65,12.75,2.71,25.53,3.31,38.34.47,5.52-1.23,6.62-.35,6.12,5.39-1.61,18.61-3.37,37.21-4.81,55.84-.56,7.21-.41,14.48-.59,21.72C436.27,821.81,436.2,823.05,436.13,824.61Z"/><path class="cls-1" d="M482.72,1000.51c.26,1.19.63,1.86.49,2.38q-15.57,57.77-31.24,115.49c-.1.36-.68.6-1.53,1.31a32,32,0,0,1-2.06-3.63c-2.68-6.73-5.23-13.51-7.93-20.22q-13.14-32.7-26.36-65.37c-.3-.74-.67-1.46-1-2.21-.85-2.2-.2-3.8,2.05-4.59,2.73-1,5.5-1.81,8.23-2.76l54.21-18.86C479.22,1001.49,480.87,1001.07,482.72,1000.51Z"/><path class="cls-1" d="M373.51,862.05c0-5.62,0-11.24,0-16.86a2.47,2.47,0,0,1,.07-1c2.78-6.33,5.44-13.19,12.9-15a59,59,0,0,1,26.8-.11c4.47,1,8.6,3.53,12.86,5.4,1,.45,2,1.15,3,1.51,4.74,1.62,6.76,5.21,7.2,9.87,1.71,17.9-3.87,33.09-17.67,44.71-12.55,10.57-31.42,7.15-40.3-6.93C373.91,876.59,373,873,373.51,862.05Z"/><path class="cls-1" d="M527.14,150.17c1.49,1.89,2.33,2.81,3,3.85q29.63,45.58,59.2,91.19,2.63,4.06,5.27,8.11a7.2,7.2,0,0,1,.47,7.85l-3.28-2.89c-5.52-4.92-10.95-9.94-16.59-14.72a13.59,13.59,0,0,0-12.2-3c-4.81,1-8.89-1.16-12.44-4.07-3.24-2.64-6-5.85-9.22-8.52a41.1,41.1,0,0,0-8.32-5.65c-4.73-2.26-9.14-1.08-12.74,2.72a19.13,19.13,0,0,0-2,3.52c-2.12-2.21-3.35-3.37-4.44-4.65-2.71-3.18-5-6.79-8.11-9.55s-3.11-5.51-1.6-9c3.22-7.38,6.28-14.82,9.34-22.27,3.85-9.39,7.62-18.81,11.45-28.2C525.43,153.59,526.09,152.38,527.14,150.17Z"/><path class="cls-1" d="M277.69,809.7c2.09,1,3.51,1.54,4.87,2.25,9,4.68,18,9.33,26.93,14.1,2.82,1.5,5.43,3.4,8.24,4.93a78.94,78.94,0,0,0,9.47,4.63c4.79,1.84,5.82,3.28,3.66,7.86-3.37,7.11-6.92,14.15-10.78,21-6.16,10.93-12.65,21.68-19,32.51-2.15,3.66-3.44,3.87-6.82,1.32-6.55-4.93-13.11-9.85-19.71-14.7-1.63-1.19-2-2.28-.74-4,5.66-7.6,11.24-15.25,16.88-22.86,2.28-3.09,2-5.21-1.52-7-4.73-2.38-9.61-4.47-14.43-6.68-.87-.4-1.78-.75-2.62-1.22-3.66-2.06-4.18-4.16-1.33-7.28a24.32,24.32,0,0,0,5.92-11.44,76.81,76.81,0,0,0,1-9.5C277.77,812.62,277.69,811.56,277.69,809.7Z"/><path class="cls-1" d="M202.94,825.19c1.11-5.51,2-11.07,3.39-16.51,1.28-5,4.54-8.75,8.72-11.79a17.93,17.93,0,0,1,13.6-3.62,67.73,67.73,0,0,1,35,16.12c7.42,6.39,6.95,17.7-.55,24.17a100.69,100.69,0,0,0-7.49,6.8c-8,8.5-18.42,10.79-29.4,11-6.64.13-11.5-4.15-15.47-8.84C206.66,837.64,202.85,832.29,202.94,825.19Z"/><path class="cls-1" d="M659.32,837.18a37.21,37.21,0,0,1,4.62.65c23.48,6.84,47.07,13.31,70.35,20.78,11.44,3.67,22.28,9.21,33.38,13.93a15.76,15.76,0,0,1,2.41,1.83,22.07,22.07,0,0,1-3.54,2.55c-13.54,6-27.11,11.85-40.68,17.77-2.51,1.1-4.84,1.3-7.24-.51q-24.64-18.61-49.37-37.1C662.88,852.3,660.51,845.6,659.32,837.18Z"/><path class="cls-1" d="M873.68,563.42c-.07,6.74-2.14,12.09-4.91,17.23a4,4,0,0,1-.83,1.18c-6.85,6-13.17,13.22-22.73,14.53-10.9,1.49-20.28-2.3-27.34-10.91a16.3,16.3,0,0,1-3.4-11.83c1.08-13.22,5.09-25.45,13.09-36.22,1.68-2.28,3.7-3.48,6.61-2.78,12.35,3,23.9,7.51,33.58,16C871.85,554.29,874.34,558.53,873.68,563.42Z"/><path class="cls-1" d="M198.55,810.49c-.63,3.37-1,5.7-1.51,8-2.63,11.23.8,20.94,7.42,29.83,2.75,3.7,2.82,3.81.39,7.56s-4.8,7.6-7.24,11.39c-1.57,2.45-.9,4.79.75,6.67,3.5,4,7.22,7.74,10.92,11.53A29.82,29.82,0,0,0,212.6,888c-4.12,6.13-7.74,11.78-11.66,17.22-1.71,2.37-2.9,2.46-5.24.38-5.41-4.79-10.62-9.8-15.83-14.8-7.53-7.24-14.93-14.61-22.51-21.8-3.72-3.53-3.93-5.1-2.22-10.11,2.7-7.92,8.76-13.4,13.84-19.51,5.42-6.52,11.76-12.28,17.69-18.38,2.68-2.76,5.28-5.58,8-8.26C195.5,812,196.68,811.57,198.55,810.49Z"/><path class="cls-1" d="M812.9,596.87c-.95.7-1.62,1.55-2.44,1.74q-24.87,5.85-49.77,11.51c-.67.15-1.47-.3-2.77-.6,2.45-7.92,4.24-15.8,3.36-23.84-.84-7.73-2.35-15.38-3.57-23,9.73-2.67,19.62-4.84,29.12-8.15s18.47-7.72,27.69-11.65l.73.77c-1,2.61-2,5.24-3.12,7.81a65.45,65.45,0,0,0-5.84,27.6A25.3,25.3,0,0,0,811,593.89C811.68,594.77,812.2,595.74,812.9,596.87Z"/><path class="cls-1" d="M500.93,818.06c-4.89,2.23-52.89,8.53-57.79,7.8a7.76,7.76,0,0,1-.45-2.17q2.91-36.11,5.92-72.22c0-.37.54-.71,1.2-1.51C467.5,772.19,484.87,794.35,500.93,818.06Z"/><path class="cls-1" d="M883.15,554.1c1-.11,1.54-.33,1.93-.18a319.25,319.25,0,0,0,38.28,11.53c.23.06.38.47.71.89-.38.43-.68,1.08-1.18,1.34-6.71,3.39-10.33,9.93-15.33,15-5.16,5.27-7.4,11.92-8,19.18-.41,4.85-1.06,5.28-5.68,4-8.06-2.23-16.13-4.43-24.19-6.68-1.83-.52-3.62-1.2-6.21-2.06,3.35-3.24,6.62-5.74,9-8.91a50.69,50.69,0,0,0,5.64-10.59,65.06,65.06,0,0,0,4-11.81C882.88,562,882.82,558,883.15,554.1Z"/><path class="cls-1" d="M973.74,606.93c-3.4.34-4.37-1.33-5.1-3.21-2-5.25-4-10.51-6.08-15.77-.63-1.65-1.36-3.27-1.93-4.94-1-3-.52-4.23,2.52-5.08,5-1.4,9.94-2.74,15-3.69,9.47-1.79,19.15-2.64,28.07-6.75,2.15-1,3.79-.39,4.52,2,1.75,5.67,3.73,11.29,5.1,17,.89,3.78-.38,5.26-3.93,7.26-11.64,6.55-24.25,10.27-37.21,13C974.06,606.89,973.42,607,973.74,606.93Z"/><path class="cls-1" d="M511.59,461.79a7.51,7.51,0,0,1,.22-2.49c6.82-13.56,13.86-27,26-36.8,3.59-2.9,7.75-5.11,11.75-7.47a9.41,9.41,0,0,1,3.74-.86c3.43-.38,4.81.49,5.28,4a26.83,26.83,0,0,1-.1,8.15,67.38,67.38,0,0,1-2.89,10.7c-3.88,10.95-8.38,21.63-14.62,31.48-2.39,3.76-2.55,3.65-6.44,1.58a136.89,136.89,0,0,0-13.82-6.77C517.94,462.24,514.77,462.28,511.59,461.79Z"/><path class="cls-1" d="M331.13,859.82c1.1-2.48,2.05-4.47,2.89-6.5,2.27-5.49,4.49-11,6.74-16.49a2.94,2.94,0,0,0-1.47-4.07c-1.26-.7-2.54-1.38-3.86-2a298.26,298.26,0,0,1-35.57-18.38,5.21,5.21,0,0,1-2.28-2.85c4.15,1.37,8.34,2.58,12.42,4.13,13.24,5,26.44,10.2,39.68,15.25,3,1.14,6.13,1.95,9.17,3a13.64,13.64,0,0,1,8.94,15.18c-1,6.68-1.6,13.41-2.21,20.14-.42,4.5-1.06,5.18-5.35,3.82-3.83-1.22-7.56-2.75-11.31-4.21C343.24,864.67,337.58,862.39,331.13,859.82Z"/><path class="cls-1" d="M232.82,859.79c-1.19,2.3-2.29,4.39-3.34,6.5-1.56,3.15-1.6,6.08,1,8.88,3.58,3.91,6.88,8.07,10.52,11.92,4.55,4.79,5.18,6.86,2.31,12.79-1.81,3.75-4.1,7.26-6.17,10.89-1.15,2-2.89,2.6-4.9,1.58q-8.82-4.46-17.51-9.14c-2-1.07-2-3-.81-4.56,2.77-3.72,3.66-8.07,4.81-12.41.74-2.78.14-4.65-1.93-6.36-3.85-3.17-7.67-6.37-11.49-9.56-.6-.51-1.15-1.08-1.93-1.81a49.56,49.56,0,0,1,8-11.29,5,5,0,0,1,3.84-1.19c5.39.78,10.72,1.87,16.07,2.86A8.58,8.58,0,0,1,232.82,859.79Z"/><path class="cls-1" d="M484.31,507.28c-.87-6-1.95-11.06-2.27-16.16-1-15.92-2.08-31.86-.55-47.81a37.75,37.75,0,0,1,1.72-8c1.13-3.56,3.43-4.67,7.14-3.89a6,6,0,0,1,1.39.4c6.56,3.15,12.69,6.79,16.73,13.21,1.6,2.55,1.48,4.65.07,7.17-4.32,7.72-8.45,15.55-12.73,23.3-4.58,8.27-7.22,17.17-9,26.39C486.47,503.53,486.77,505.46,484.31,507.28Z"/><path class="cls-1" d="M1017.18,599.66c2.63,6.19,5.06,11.92,7.49,17.66,1,2.27,0,3.64-2.06,4.59-5.29,2.38-10.52,4.88-15.82,7.23-6.76,3-13.57,5.91-20.36,8.85-3.9,1.69-5.42,1.25-7.38-2.55-1.63-3.14-3.1-6.37-4.47-9.64s-1.14-3.82,2-5.79a163.17,163.17,0,0,1,27-13.87c3.43-1.33,6.63-3.27,10-4.89C1014.8,600.64,1016.1,600.13,1017.18,599.66Z"/><path class="cls-1" d="M235.09,868.85c1.66-3.76,2.88-6.91,4.45-9.88a6.79,6.79,0,0,1,2.9-2.26c4.8-2.57,9.71-4.93,14.45-7.61,1.92-1.08,3.62-2,5.84-1.06,5.36,2.17,10.79,4.19,16.1,6.48,3.12,1.35,3.32,2.26,1.42,5.11-2.58,3.87-5.3,7.65-8.08,11.39a48.79,48.79,0,0,1-3.91,4.15c-3.52-3.72-7.28-6.36-12.38-5.89s-7.38,4.65-10.76,8.19Z"/><path class="cls-1" d="M925.78,600.8c4.72-2.15,8.92-4,13.1-6s8.08-3.89,12.19-5.7c3.13-1.37,3.87-.88,4.72,2.39q2.37,9.08,4.82,18.12c1.37,5.09.88,6.3-3.73,9q-5.43,3.12-10.82,6.27c-3.83,2.23-4,2-6.07-1.83-3.1-5.78-6.48-11.41-9.89-17A50.75,50.75,0,0,0,925.78,600.8Z"/><path class="cls-1" d="M919.17,599.26c3.07,7.65,5.66,14.1,8.24,20.51-.84.41-1.19.72-1.4.65-15.34-5.73-22.25-18.31-14.42-31.49,2.24-3.77,5.81-6.74,8.74-10.1,3.3-3.79,7.69-4.26,12.31-4.24a3.61,3.61,0,0,1,3.92,2.83c.22.77.42,1.55.61,2.33,1.58,6.46,1.55,6.41-4.44,9.53a77.62,77.62,0,0,0-9.18,5.26C921.69,595.86,920.36,597.94,919.17,599.26Z"/><path class="cls-1" d="M988.76,538c.8,1.76,1.59,3.3,2.21,4.91,1.6,4.16.93,6-3.24,7.36-7.48,2.4-15,4.65-22.62,6.65-5.59,1.46-11.29,2.5-17,3.57-4.43.84-5.58-.3-5.24-4.75.37-4.75,1.23-5.68,5.85-6.67,8.47-1.83,17-3.48,25.37-5.67C978.87,542.15,983.4,540,988.76,538Z"/><path class="cls-1" d="M924.83,16.19c5,6.08,9.62,11.77,14.25,17.49.17.2.09.61.19,1.51-6.22,4.42-12.73,8.89-19.37,13.16l-.78-.7C921,37.34,922.86,27,924.83,16.19Z"/><path class="cls-1" d="M564.35,550.78c3.32-7.72,8-13.93,12.64-21,5.93,4.13,9.41,10.32,15.29,14.07-2.18,3.85-5.94,2.41-8.73,3.42a90.59,90.59,0,0,1-9.34,2.39C571.19,550.4,568.23,551.81,564.35,550.78Z"/><path class="cls-1" d="M946.89,582.07c-.33-2.57-.58-4.45-.82-6.33-.47-3.73-.14-4.41,3.62-5.46,5.4-1.51,10.87-2.78,16.3-4.19,6.35-1.64,12.69-3.33,19-5a8.56,8.56,0,0,1,2.78-.68,9,9,0,0,1,2.69,1.2c-.74.66-1.38,1.74-2.22,1.92-5.79,1.3-11.69,2.14-17.41,3.67a48.5,48.5,0,0,0-10.6,4.45c-1.87,1-3.93,2.77-4.61,4.66C954.16,580.49,950.91,581,946.89,582.07Z"/><path class="cls-1" d="M780.94,615.15l-29,8.54c.19-3.47,2.22-4.1,4.26-4.59,4.84-1.14,9.71-2.21,14.57-3.28,3.25-.72,6.51-1.38,9.76-2.07Z"/><path class="cls-1" d="M963.16,639.61c-2.3.11-4.12-.28-4.65-3.05s-.23-3.34,2.55-4.06a23.61,23.61,0,0,1,2.37-.46,4.43,4.43,0,0,1,5.11,5.45,2.72,2.72,0,0,1-1.57,1.58A22.71,22.71,0,0,1,963.16,639.61Z"/><path class="cls-1" d="M277,908.27l2.44,6.56c-2.8-.7-5.14-2.84-5.24-4.56C274.13,909.46,274.56,909.13,277,908.27Z"/><path class="cls-1" d="M267.38,901.1l4.76-3.9c2.16.62,2.69,2,1.7,3.29C272.29,902.46,270.11,902.24,267.38,901.1Z"/><path class="cls-1" d="M546.89,471.15a21,21,0,0,1-.46,4.15c-.2.67-1.22,1.1-1.88,1.64-.56-.84-1.77-2-1.56-2.48a21.35,21.35,0,0,1,2.76-4Z"/><path class="cls-1" d="M531.85,409c-.44,2.55-1.47,3.71-3.6,2.85a2.46,2.46,0,0,1-.89-2.25C528.29,407.62,529.89,408.36,531.85,409Z"/><path class="cls-1" d="M473,387.07c-.81-1.47-1.49-2.27-1.64-3.17-.07-.43.87-1,1.35-1.55.7.67,1.68,1.23,2,2C474.89,384.84,473.91,385.72,473,387.07Z"/><path class="cls-1" d="M959.93,624.38l3.54-2.1C963.88,625.71,963.88,625.71,959.93,624.38Z"/><path d="M98,985.25c3.23,1,6.41,2,6.41,6.61Z"/><path d="M107.43,982.72c.34,1.84.67,3.67,1,5.51-2.48-1.29-2.78-3.16-2.57-5.19Z"/></g></g></svg>