<svg xmlns="http://www.w3.org/2000/svg" viewBox="0 0 1200 1501"><defs><style>.cls-1{fill:#fff;}</style></defs><g id="Layer_2" data-name="Layer 2"><g id="Layer_1-2" data-name="Layer 1"><path class="cls-1" d="M0,1501V0H1200V1501ZM231.2,852.2c4.8,2.1,9.6,4.4,14.6,6.2,5.8,2.1,9.9,6.2,13.9,10.4,3,3.3,4.3,6.9,2.1,11.4a16.81,16.81,0,0,0,.7,17.3,20.62,20.62,0,0,1,1.2,2.6c4.6,8.9,11.3,13.9,22,14,7.3,0,11.7-4.8,11.9-10.8.6-16.9-5.8-25.4-18.6-32.8-1.7-1-3.7-1.9-6,.7a41.9,41.9,0,0,0,3.4,2.8c2.3,1.6,4.8,3,7.1,4.7,8.3,6.4,10.7,15.2,9.8,25.1-.3,3.5-2.1,5.2-5.4,5.5-7.2.7-13.6-.7-17.7-7.4-1.5-2.4-2.7-4.9-4.1-7.4a12.23,12.23,0,0,1-.4-12c3.9-7.4.8-12.7-4-18.3-7.4-8.6-18.3-10.9-27.5-16.2-.2-.1-.7.1-1.6.3-.3,1.2-.6,2.6-1,4-3.7-2.3-7.3-4.7-11.1-6.7-10.5-5.5-21.9-8.3-33.3-10.8-15.1-3.2-29.7-1.2-43,7-4.2,2.6-8.2,5.4-12.1,8.3-.7.5-.9,1.8-1.7,3.4,7.4.4,10.8-6,16.2-7.7,1.9,1.6,3.3,3.5,5.3,4.3,3.2,1.3,4.1,3.6,4.1,6.7,0,7.2.1,14.4.1,21.5a37.33,37.33,0,0,0,8.1,23.1c3.5,4.6,7.2,5.7,12.4,3.4a20,20,0,0,0,6.2-4.7c4.2-4.4,5.5-10.1,6.9-15.8a22.84,22.84,0,0,0-1.7-15.9,94.81,94.81,0,0,0-5.7-10.4c-3.8-6.2-10-8.3-16.6-9.4-.5-.1-1.2.6-1.9,1,.8,3.2,3.7,3.3,5.8,4.3,3.3,1.5,6.8,2.6,8.8,5.9,5.2,8.6,10.5,17.1,6.3,28-1.5,4-3.2,7.7-6,10.8-4.1,4.5-8.7,4.1-12.2-.9-3.9-5.8-6.2-12.1-6.1-19.1.1-6.8-.1-13.6-.1-20.4,0-3.1-.6-5.9-3.4-8-2.3-1.8-4.2-4-6.6-6.2a10.72,10.72,0,0,1,2.4-1.7c8.3-2.8,16.6-5.2,25.5-4.2,12.1,1.4,23.6,4.9,35,9,12.1,4.4,20.9,12.3,26.2,24.3,3,6.7,6.7,13.1,10.2,19.6.9,1.7,1.7,4.7,4.3,3.1,2.1-1.3.2-3.4-.6-5-3.9-7.7-7.6-15.6-12-23.1C238.2,861,234.5,856.7,231.2,852.2Zm597,477.9c1.6,1.7,2.7,2.9,3.9,4,6.3,5.6,12.6,11.3,19.1,16.8,2.6,2.2,5.9,2.9,9,.9s3.4-5.3,2.6-8.6c-.8-3.7-1.8-7.3-2.7-11-3.3-13.3-3-27-3.5-40.5-.4-9.8-.6-19.7-3.4-29.2-2.3-8-5.5-15.7-7.8-23.6-2.8-9.6-5.4-19.2-7.7-29-.6-2.8.2-5.9.6-8.9.4-3.3,1.5-6.7,1.3-10-.6-13-1.4-26-2.3-39a85,85,0,0,0-1.9-12.3c-4.9-22.2-11.5-43.8-18.5-65.4a95.31,95.31,0,0,0-13.7-27.2c-3.8-5.2-7-10.8-10.7-16-3.9-5.4-3.9-10.9-2-17.2,4.2-13.3,8.2-26.7,11.3-40.3,2.9-12.2,2.5-24.9-.1-37.1-2.7-12.7-6.3-25.2-9.8-37.8-3.2-11.5-7.5-22.6-15.4-31.9-5.5-6.5-10.8-13.1-16.2-19.7-1.9-2.3-3.5-4.7-5.8-7.8,5.4-2.3,10-4.3,14.7-6.1,9.2-3.6,18.1-7.6,24.8-15.9,1.7,1.5,3.2,2.9,4.6,4.3,3,2.8,5.9,6,9.2,8.4,24.7,18.5,50.6,35,80.7,43.5,2.4.7,4,1.8,4.3,4.6.8,7.5,2.2,15,2.7,22.5.9,13.2-.4,26.4-2.3,39.5-1.4,9.5-3.6,18.9-5.4,28.4-.2,1.2.4,2.4.6,3.7a18.61,18.61,0,0,0,4.1-.8c.6-.2,1-1,1.5-1.6,4.7-5.6,9.4-11.3,14.2-16.9.7-.9,1.9-1.4,3.2-2.4a22,22,0,0,1,.7,2.8c-.8,12,2.8,23.6,3.9,35.4a13.51,13.51,0,0,0,.4,2.8c1,2.9,3.2,3.8,5.7,1.9a10,10,0,0,0,3.4-3.7,50.24,50.24,0,0,0,4-10.6c1.7-7.9,2.9-16,4.4-24,.2-1,.5-2.1,1-4.4,1.7,2.3,2.8,3.7,3.8,5.2,2.6,3.9,5.1,8,7.9,11.7a14.22,14.22,0,0,0,5.2,4.2c5.7,2.5,9.3.3,9.5-5.9.3-7.2.1-14.4.2-21.5.1-7.6-.6-15.2.5-22.6,1.3-9.4,1.2-18.8,1.4-28.3s.8-19.2,1.1-28.8c.1-2.7,1.4-4.5,3.1-6.4,4.1-4.4,8.4-8.7,12-13.6,13.5-18.1,25.1-37.3,32.4-58.8,2.9-8.8,6.3-17.4,8.9-26.3,4.8-16.5,8.9-33.2,13.9-49.6a154.39,154.39,0,0,0,6.9-45.7c0-45.7.2-91.4-.1-137.2a239.6,239.6,0,0,0-2.5-29.3c-2.3-16.1-5.8-32-11.5-47.2-.8-2.2-1.1-4.1.9-6.1,3.4-3.3,3.5-5.5,1.3-9.5a31.1,31.1,0,0,0-2.5-3.8A290.92,290.92,0,0,0,998,396a104.89,104.89,0,0,0-22.5-17.9c-12.4-7.2-25.7-12.3-39.4-17-17.3-5.9-35.1-9-52.8-12.7a148.57,148.57,0,0,0-25.8-2.7c-8.9-.3-17.7-.4-26.3-3.1a9.51,9.51,0,0,0-6,.3c-4.4,1.6-8.6,3.7-12.9,5.6a7.5,7.5,0,0,1-8-.8c-6.3-4.8-12.6-9.6-19-14.3-2.8-2-3.3-4.1-1.8-7.2a28.31,28.31,0,0,0,1.7-7.1c1.5-8.2,3.2-16.3,4.4-24.5a171.41,171.41,0,0,0,2.4-21.3c.4-11.5,0-23,.1-34.6.2-13.6-.2-27.2-3.3-40.5a8.33,8.33,0,0,1-.3-2.2,136.84,136.84,0,0,0-5.7-32.3c-1.2-4-1.5-8.1-2.2-12.2-.6-3.7-1-7.5-1.7-11.2-1.8-9.6-4.3-19.2-3.9-29.1.3-8.1-1.7-15.7-4.8-23.1-1.9-4.3-3.5-8.9-6.1-12.8-4.6-7.1-9.2-14.4-14.9-20.6C738.5,43,724.1,36.9,709.7,31.1a21.12,21.12,0,0,0-5-1c-6.5-.9-13.2-1-19.6-2.6-13.5-3.3-27.3-3.5-41-4.6-7.7-.6-15.6,0-23.2-1.2-18.4-3-36.9-3.1-55.4-2.4-4.5.2-8.9,1.2-13.4,1.8-5.2.7-10.5,1.7-15.7,1.7-18.1.2-36.3.1-54.4.2a144.79,144.79,0,0,0-14.7.8c-8.6.9-17.2,2.1-25.8,3.1-2.2.3-4.5.5-6.7,1q-8.25,1.8-16.5,3.9c-6.2,1.5-12.7,2.1-17.4,7.3a8.42,8.42,0,0,1-2.5,1.3c-7.5,3-14.9,6.5-22.6,9-21.3,6.8-41,16.2-58.6,30.1-6.2,4.9-12.5,9.8-18.6,14.8-9.9,8.2-20,16.1-28.1,26.2-7.5,9.3-15.4,18.2-23,27.3q-10,12-19.8,24c-8.9,11-17.9,21.9-26.6,33.1a189.84,189.84,0,0,0-13.5,18.8,152.89,152.89,0,0,0-10,20.3c-6.2,14.4-11.4,29.1-11.1,45.3.3,16,13.2,21.9,25.8,16.6,9.4-3.9,18.5-8.3,28.4-11,4.2-1.1,8-4.1,11.9-6.4,2.3-1.3,4.2-3.2,6.5-4.6,13-7.7,25.9-15.5,39-23a172,172,0,0,0,40.4-31.7c9-9.5,19.5-16.6,32.3-20.1,7.8-2.2,15.6-4.8,23.5-6.2,15.7-2.7,31.5-4.2,47.1.1a93.18,93.18,0,0,1,11.3,3.7c4.2,1.7,6.1,4.9,6.3,9.7.4,7-3.4,12.1-6.4,17.8-3.7,7-9.5,11.3-16.5,14-9.3,3.6-18.8,6.7-28.3,9.9-5.5,1.9-11.3,3.2-16.7,5.4-21.8,9.1-43.1,19.2-63,32-5.1,3.3-10.2,6.5-15.2,10a139.53,139.53,0,0,0-13.1,9.8q-17.1,15-33.7,30.3c-9.6,8.8-18.8,18-25.6,29.4-4.1,6.9-7.2,14.3-6.4,22.5.9,9.3,4.5,17.8,12.8,22.1,11.9,6.2,25,7,37.1.4,10.4-5.7,21-11.2,31.1-17.4,23.5-14.1,49.3-22.6,74.4-33,8-3.3,16.4-5.9,24-9.9,8-4.2,15.3-9.6,22.8-14.8a72,72,0,0,1,22.3-10.8c11.5-3.1,23.1-5.9,34.2-9.8a91.79,91.79,0,0,1,28.8-5c17.4-.3,34.1,3.4,50.6,8.3,10.5,3.1,20.9,6.5,31.3,9.7,2.2.7,4.5,1.2,7.6,2.1-1.9,1.4-2.7,2.1-3.7,2.8-20.5,13.8-41.2,27.3-61.6,41.4-6.5,4.5-12.2,10.1-17.9,15.6-8.3,8-16.1,16.4-24.2,24.6-.4.4-.9.6-.4.3H471a15.43,15.43,0,0,1,1.7-3.4c5.3-6.1,10.3-12.6,16.1-18.2,8.6-8.2,17.9-15.7,26.7-23.6a89.77,89.77,0,0,1,35.4-19.4,16.84,16.84,0,0,0,4.2-1.7c2.2-1.4,3.5-3.4,3-6.2-.5-2.5-2.9-4.3-5.9-4.4a13.05,13.05,0,0,0-3.4.3c-10.1,3.2-20.3,6.3-28.9,12.7-6.5,4.9-12.7,10.1-19.1,15A194.26,194.26,0,0,0,464.7,411c-10.4,13.6-22.1,25.8-34.4,37.5-16,15.1-28.5,32.6-39,51.8q-9.15,16.65-19.2,32.7c-6.2,10-12.2,20.1-14.9,31.6-4.5,19.7-11,38.9-17.1,58.1-2.4,7.7-4.9,15.7-5.2,23.7-.7,15.1-.3,30.2.4,45.3.5,11.3,2.4,22.5,3.5,33.8a508.24,508.24,0,0,0,8.2,54.9c2.8,13.4,8.3,25.2,17.8,34.8,6.5,6.5,13.9,12.2,20.9,18.2,2,1.7,4.2,3,6,4.4-.5,3.2-1.5,5.8-1.3,8.3.7,12.7-2.3,24.8-5,36.9-2.6,11.5-7.6,21.6-16.6,29.6-5.8,5.1-9.3,11.9-11.9,19a16.54,16.54,0,0,0-1,4.4c-.2,3.1,1.5,4.8,4.5,4.2a16.35,16.35,0,0,0,5.5-2.6c2.9-1.9,5.7-4.2,8.5-6.2.1,3.4-.9,6.2-1.4,9.1-.8,5-1.6,10.1-1.9,15.1a5.43,5.43,0,0,0,2.2,4c.8.5,2.9-.3,4-1.2a13.52,13.52,0,0,0,3.7-4.2c3.9-6.5,7.6-13,11.4-19.5,1.5-2.5,2.3-5.6,6-6.7.7,2,1.3,3.7,2,5.5,1.6,4.2,2.9,8.6,4.9,12.7.7,1.5,2.7,3.2,4.1,3.2s3.4-1.6,4.2-3a58,58,0,0,0,4-10c3.6-11.3,6.7-22.8,12.7-33.2,4.2-7.2,8.1-14.5,11.9-21.9a134,134,0,0,0,5.6-13.6c.7-1.9,1.2-4-.3-5.6-.7,0-1.3-.2-1.4,0a7.23,7.23,0,0,0-1.7,2.2c-4.2,13.9-12.3,25.9-18.8,38.7-3.6,7.1-7.2,14.1-9,22a122.28,122.28,0,0,1-4.1,13c-.6,1.8-1.7,3.5-2.9,6.2a36.18,36.18,0,0,1-2.4-4.4c-1.4-3.9-2.6-7.9-3.9-11.8-2-6-5.9-7.1-9.7-2.1-3.1,4-5.2,8.7-7.8,13-2.1,3.6-4.2,7.1-6.5,10.6-.5.7-1.6,1.1-2.8,1.8a20.55,20.55,0,0,1,1.5-12.2c3-7.3,6.5-14.4,9.8-21.6,1-2.2,2.5-4.4-.6-7-4.7,3.5-7.7,8.5-11.7,12.6s-7.4,9.4-13.4,11.3a6.19,6.19,0,0,1-.6-1.4,17.42,17.42,0,0,1,.5-2.2,42.61,42.61,0,0,1,11.4-16.7,50,50,0,0,0,15-25.5c3.6-13.9,7-27.9,6.1-42.4-.1-1.5.4-3.1.7-5.4,9.8,5.8,18.9,10.9,29.2,12.9,10.1,1.9,20.3,3.2,30.8,4.9a15.1,15.1,0,0,1-1,3c-3.9,8.1-7.8,16.3-11.9,24.4-8.6,17.1-13.2,35.4-15.2,54.3-1.5,14.1-1.9,28.2-2.5,42.4-.2,4.9-1.3,9.2-4.9,12.8a33.47,33.47,0,0,0-5.4,7.9c-5.2,9.4-10.6,18.8-15.2,28.5a294.78,294.78,0,0,0-13,31.3c-3.6,10.5-5.7,21.5-8.6,32.3-4.5,17.1-5,34.7-5.5,52.2a38.41,38.41,0,0,1-4.3,17.2,36.82,36.82,0,0,0-2.6,5.7c-6.9,18.6-18.4,34.7-28.4,51.5a29.25,29.25,0,0,1-14,11.9c-7.4,3.2-14.6,7-22,10.5-4.6,2.2-9.1,4.8-13.8,6.4a251.19,251.19,0,0,0-37.9,17.7,64.58,64.58,0,0,0-10,7.4c-2.4,2.1-3.5,4.9-2.2,8.2s4.1,4.2,7.4,4a42,42,0,0,0,6.2-.7c5.7-1.1,11.4-2.4,17.2-3.6,5.6-1.2,11.3-2.5,17.2-1.8a14.12,14.12,0,0,1-4,2.9c-15.6,7.1-26.9,19.2-37.2,32.4a34.93,34.93,0,0,0-5.7,11c-2,6.7,2.6,11.5,9.3,9.8a150.71,150.71,0,0,0,19.2-6.7c4.7-2,9-4.8,13.5-7.3,13.5-7.4,28.6-11.9,40.5-22.3a5.64,5.64,0,0,1,2-1.1,32.69,32.69,0,0,1,3.4-.7c-.5,1.3-.7,2.1-1,2.7-6.5,13.4-13,26.8-19.5,40.3a33.33,33.33,0,0,0-2.6,7.5,5.79,5.79,0,0,0,3.7,6.8,6.88,6.88,0,0,0,6.9-1.3c4-3.2,8.3-6.1,11.7-9.8,11.5-12.7,22.8-25.7,34.1-38.6,1.2-1.4,2.3-2.8,3.9-4.7.6,1.7,1,2.5,1.2,3.4,1.7,7,3.4,13.9,5,20.9a31.22,31.22,0,0,0,12,18.6c4.7,3.6,9.5,2.8,12.5-2.2a23.23,23.23,0,0,0,3.2-8.4c1.3-9.3,2.4-18.7,3-28.1.7-11.3,1.5-22.6,5.5-33.4a101.61,101.61,0,0,0,3.6-11.9c2.3-9.6,6.6-17.8,14.3-24.4a49.22,49.22,0,0,0,14.2-21.5c5.7-16.6,11.7-33.1,17.3-49.7a10.67,10.67,0,0,0,.2-6.6c-1-2.9.2-4.5,1.8-6.5,6.2-7.6,12.7-15.1,18.1-23.2,11.9-17.9,23.2-36.3,34.7-54.4a46.26,46.26,0,0,0,7.1-18.9,31.91,31.91,0,0,1,5.9-14.5c8.2-11.8,15.6-24.1,20.4-37.8,5.8-16.7,12.9-33.1,15.9-50.7,1-5.6,2.1-11.1,3.5-16.6,1.9-7.2,4.1-14.4,6.3-22.1.9,0,2.6-.1,4.2,0,11.7.5,23.4,1.1,35.1,1.4,7,.2,14,.3,20.7-2.1.4-.2,1.1.2,1.6.3a5.48,5.48,0,0,1,.8,1.5,22.71,22.71,0,0,1,.3,4.5c-.6,9.7,1.9,18.8,5.4,27.6,2.1,5.4,4.6,10.8,7.2,16,7.1,14.4,14.7,28.5,21.6,43,7.2,15.1,15.3,29.5,27.4,41.3a7.51,7.51,0,0,1,1.7,4.5c.4,7,.2,14,1,20.9,1.2,9.9,2.2,19.9,6.3,29.2,4.5,10.2,8.4,20.6,12.8,30.9,3.9,9.2,7.9,18.4,12.2,27.4a116.33,116.33,0,0,0,25.1,34.7c6.4,6,11.6,13,14.6,21.3,2.7,7.4,3.9,15,1.3,22.7-3.3,9.8-9.4,17.7-17.3,24.1-19.3,15.5-38.9,30.5-58.2,46a244.11,244.11,0,0,0-18.3,16.9c-3.6,3.5-3.9,6.5-1.8,9.5,1.9,2.6,4.8,3.2,9.2,1.4,6.1-2.5,12.1-5.2,18.2-7.8l7.8-3.3c12.2-5.1,24.9-8.6,36.5-15.1a36,36,0,0,1,14-4.3c-2.1,3.9-3.9,6.8-5.2,9.9-5.3,11.7-10.5,23.4-15.6,35.2-1.6,3.6-1.1,6.5,1.1,8.3s5.4,1.8,8.4-.3a75.87,75.87,0,0,0,8.8-7.1c12.4-12.3,27.3-21.4,41.2-31.8a9.05,9.05,0,0,1,2.9-1c.8,5.8,1.2,11.3,2.5,16.6a122.91,122.91,0,0,0,6,17.7c1.7,4.2,4.2,8,6.6,11.9,1.7,2.8,4.3,4.3,7.7,3.4s4.7-3.6,5-6.8c.2-2.1.3-4.1.3-6.2C828.3,1348.2,828.2,1339.7,828.2,1330.1ZM193.9,1087.8c1.4-.3,1.8-.5,2.1-.4,8.8,4.3,17.8,8.3,26.3,13,9.3,5.2,13.3,13.4,11.5,24.3a51.46,51.46,0,0,0-.2,12.4c.7,7.3,4.6,12.4,11.9,14a42.63,42.63,0,0,0,10.1.8c7.4-.1,10.3-3.2,10.3-10.4a56.14,56.14,0,0,0-8.2-28.5c-8.2-13.9-20.8-21.1-36.3-23.2-5.2-.7-9.9-1.8-14.3-4.6a16.75,16.75,0,0,0-11.9-2.8c-3.4.5-5-1.1-6.6-3.9a62.58,62.58,0,0,0-8.1-11.5,18,18,0,0,0-7.9-5.1,55,55,0,0,0-12.8-1.9c-5.6-.3-11.3-.1-17-.1-5.5-.1-5.9-.4-5.9-5.8-.1-7.9.1-15.9-.2-23.8-.2-3.7-1.3-7.4-2.1-11-1.3-5.9-3.3-11.7-3.8-17.6-.9-11.3-.8-22.6-1.3-33.9-.6-10.7-1.7-21.4-2.2-32.2-.5-10.4-1.5-20.8-.6-31.1,1.1-13.2,1.8-26.4,1.7-39.6a53.55,53.55,0,0,0-5.7-23.5,21,21,0,0,1-2.4-6.3c-1-7.5-1.8-15-2.5-22.4-.6-6.2-.7-12.4-1.7-18.6-.7-4.6-3.8-6.5-8.6-6.5-4.1,0-5,1-6.4,6.4a105.74,105.74,0,0,0-3.4,27.5c.1,14.5.8,29.1-2,43.5a27,27,0,0,0-.2,5.7A475.88,475.88,0,0,1,90.4,948c-2.2,14.8-2.1,29.9-.8,44.7,1.4,14.4,4.7,28.7,7.9,42.9s7.6,28,10.9,42.2a114.14,114.14,0,0,1,2.8,21.8,242.9,242.9,0,0,1,0,28.3,197.18,197.18,0,0,1-3.6,27.5c-2.5,12.2-4.7,24.5-4.7,37-.1,12.1,0,24.2,0,36.3,0,7,.1,14-.2,21-.6,14.3-1.3,28.6-2.1,43a65.73,65.73,0,0,1-1.5,11.7c-1.7,7.5-3.6,15.1-5.9,22.5q-7.35,23.85-15.1,47.5c-4.3,12.9-9.6,25.4-17.1,36.9-1.1,1.6-3.3,3.9-1.1,5.4,2.7,1.8,3.8-1.5,4.8-3.2,5.8-9.5,11.2-19.3,14.7-29.9,1.9-5.9,3.7-11.9,5.9-17.7,6.7-17.5,11.5-35.6,16.4-53.6,2.3-8.7,3.9-17.3,3.4-26.3-.1-1.3.1-2.6.1-4,.6-14.9,1.5-29.8,1.8-44.7.3-15.9-.4-31.8.3-47.6a188.35,188.35,0,0,1,4.1-30.8c2.3-10.8,4.2-21.5,4.1-32.5-.1-7.6-.3-15.1.1-22.7.8-15.2-3.2-29.6-6.9-44-2.5-10.1-6-19.9-8.3-30s-3.9-20.4-5.6-30.6c-2.4-14.4-2-29-.7-43.5.8-8.5,2.7-16.8,3.2-25.3,1.2-19.6,3-39.2,2.5-58.8-.1-3.2.3-6.4.5-9.6.5-7.1,1.1-14.3,1.4-21.4.2-7.6-.4-15.1.2-22.7.5-7.3,2.1-14.5,3.3-21.8.3-1.8,1.1-3.4,3.2-3.4,2.3,0,3.2,1.7,3.7,3.6a16.6,16.6,0,0,1,.3,2.2c.4,6.2.9,12.4,1.2,18.6.5,10.2,1.6,20.2,6.4,29.6a34.87,34.87,0,0,1,3.8,14.1,250.26,250.26,0,0,1-.3,30c-1.2,17.4-2.4,34.6.3,52a147.37,147.37,0,0,1,1.4,17.5c.5,13.2.3,26.4,1.2,39.6.5,6.9,2.6,13.7,3.9,20.5.8,4.2,2.2,8.4,2.3,12.7.5,23.6.8,47.2,1.1,70.8.4,29.3.8,58.5,1.1,87.8.1,9.4.3,18.9-.1,28.3-.8,17.5-3.7,34.5-10.9,50.6a50.51,50.51,0,0,0-4.5,15.7c-1,10.1-1,20.3-1.4,30.5-.5,14.3,2.8,27.7,8.6,40.6,6.2,13.7,15.1,25.6,24.4,37.3a232.74,232.74,0,0,0,26.7,27.7c1.8,1.6,3.3,4.3,7.4,2.4a29.06,29.06,0,0,0-2.9-4.1c-4.3-4.2-9-8-13.2-12.4a315.51,315.51,0,0,1-25.6-30.9c-13.9-19.3-22.2-40.2-21.1-64.3.4-7.7.8-15.5,1-23.2a43.81,43.81,0,0,1,4.3-17.5c7.8-16.7,11.2-34.6,11.4-52.8.3-25.9-.6-51.7-.9-77.6-.1-12.3,0-24.6-.1-36.8,0-2.5-.2-4.9-.3-7.4-.3-9.6-.5-19.2-.7-28.9a5.78,5.78,0,0,1,1.2-3.6c1.8-1.9,9.2-1,10.8,1.2,7.3,9.7,11.6,20.3,12.2,32.7.3,6.2-1.7,10.3-5.5,14.6-6.5,7.4-9.9,16.1-9.2,26,.5,6.8,4.9,9.3,10.9,6.2a41.12,41.12,0,0,0,17-15.3c5.3-8.9,4.8-16.6-2.5-24a21.71,21.71,0,0,1-6.1-11.2c-1.9-9.4-4.6-18.7-9.9-27a15.24,15.24,0,0,1-1.3-3.5c4.8-1,9-.4,13.2.3,4.7.7,8.7,2.6,11.3,6.7a145.17,145.17,0,0,1,7.6,12.6c5.5,10.8,10.7,21.7,18.5,31.1,3,3.6,5.6,7.6,6.6,12.4a11.18,11.18,0,0,0,2.4,4.4c7.2,8.9,8.5,19.1,6.2,29.9-1.7,8-4.9,10.8-14.6,10.8-4.9,0-7.2-2.4-7.4-7.4-.2-4.3.1-8.7-.1-13a39.2,39.2,0,0,1,6.7-23c.8-1.3,1.4-2.8,2.2-4.2a6.47,6.47,0,0,1-.8-.9c-1.1.3-2.5.4-3.2,1.1a27.69,27.69,0,0,0-4,5.5c-6.7,11.9-5.6,24.8-4.7,37.6.3,4.3,3.3,7.3,7.6,8.1,9.6,1.9,20.2-.4,22.4-12.9.4-2.2.9-4.5,1.1-6.7.7-7.5.3-14.7-3.9-21.3-2.1-3.3-3.9-6.9-5.9-10.3-2.8-4.9-5.6-9.8-8.6-14.6-3.7-6.1-7.6-12.1-11.3-18.3A31,31,0,0,1,193.9,1087.8ZM35.4,917c-.3,12.7,3.7,17.4,12,21.7,5.5,2.9,11.8,2.8,17-1.6,6.2-5.2,11-11.4,13.1-19.4,1.7-6.4,3.9-12.7,5-19.2a78.7,78.7,0,0,0,1.1-16.8c-.1-4.4-1.9-9.2-5.8-11.2-7.1-3.6-6.6-8.4-4.1-14.3a13.82,13.82,0,0,0,.8-2.7c2.1-12.1,8.2-22.2,16.2-31.2a14.85,14.85,0,0,0,2.7-4.3c.4-1-.2-2.4-.3-3.6-1.1.5-2.5.6-3.2,1.5-2.5,3-4.9,6.2-7.2,9.4-5.5,7.3-9.8,15.2-11.5,24.3a52.89,52.89,0,0,1-11.4,23.7Q51.55,883.35,43.9,894C38.6,901.5,36.4,910.3,35.4,917Zm-1.9,217.9c.6,0,1.2-.1,1.9-.1a29.66,29.66,0,0,0,.8-5.2c.1-7,.1-14,.1-21a61.53,61.53,0,0,1,5.4-25.3,33,33,0,0,1,2.9-4.5c3.6,3,6.6,5.5,9.5,8.1,7.3,6.7,14.1,13.7,15.8,24.1a3.87,3.87,0,0,0,.8,2.1,4.14,4.14,0,0,0,2.3.9c.4,0,1.2-1.1,1.2-1.6a36.58,36.58,0,0,0-1-5.6c-2.4-9.9-9.2-16.7-16.4-23.2-3.5-3.1-7-6.2-10.7-9.3a24.91,24.91,0,0,1,1.4-3.9c3.9-7.3,7.7-14.8,11.8-21.9a100,100,0,0,1,16.1-21.1c3.4-3.4,6.8-6.5,11.5-8,1.6-.5,3.4-1,3.1-3.9-1.1-.1-2.4-.8-3.4-.4-3.3,1.4-6.8,2.7-9.4,4.9a77.14,77.14,0,0,0-18.1,20.9c-5.6,9.6-11.3,19.2-16.2,29.2-4.4,8.9-9.4,17.9-10,28.1-.7,11.1-.7,22.2-.8,33.4C32.1,1132.8,33.1,1133.9,33.5,1134.9Zm189-239.2h0v-5.1a84.35,84.35,0,0,0-4.6-29.5,33.31,33.31,0,0,0-4.4-7.8c-.5-.7-2.2-.5-3.4-.7a8,8,0,0,0,.2,3.1c1.2,2.9,3,5.6,4,8.6,3.6,10.3,3.7,21.1,4,31.9.2,7.1-1.1,13.3-5,19.3-4.1,6.4-6.8,13.5-6.7,21.3,0,5.8,1.5,11,6.3,14.5a10.89,10.89,0,0,0,6.7,2.1c6.2-.6,13.6-7.3,14.2-14.2.8-8.1,0-15.5-6.2-21.4-4.4-4.2-6.3-9.1-5.3-15.2C222.8,900.3,222.5,898,222.5,895.7ZM66.1,1119.4c-1.5,1.6-2.3,2.1-2.7,2.9-4.4,7.8-8,15.8-7,25.2.3,3,0,6,.1,9.1a58.69,58.69,0,0,0,3.9,19.9c1.8,4.8,4.9,7.3,10.1,7.5a18.4,18.4,0,0,0,10.3-2.3A39.34,39.34,0,0,0,95.3,1167c5.6-9.5,4.3-19-3.7-26.5-4.8-4.5-9.7-9-12.4-15.3-.6-1.4-1.9-2.4-2.8-3.6-.4.2-.8.3-1.2.5-.1,1.2-.6,2.6-.2,3.5a103.73,103.73,0,0,0,7,11.5c2.4,3.1,5.6,5.6,8.4,8.4,2.6,2.5,3.4,5.6,3.9,9.1,1.3,9.9-12.2,23.5-19.2,24.9-6.2,1.3-9.5-.1-11.2-6.2-4.3-15.3-6.3-30.7,1.6-45.6a12.61,12.61,0,0,0,1.6-4.2C67.3,1122.4,66.7,1121.4,66.1,1119.4Z"/><path d="M828.2,1330.1v26.5c0,2.1-.1,4.2-.3,6.2-.3,3.2-1.5,5.9-5,6.8s-6-.7-7.7-3.4a76.72,76.72,0,0,1-6.6-11.9,122.91,122.91,0,0,1-6-17.7c-1.3-5.2-1.7-10.7-2.5-16.6a8.28,8.28,0,0,0-2.9,1c-13.9,10.4-28.8,19.5-41.2,31.8a66.68,66.68,0,0,1-8.8,7.1c-3,2.1-6.2,2.1-8.4.3s-2.6-4.7-1.1-8.3c5.2-11.7,10.3-23.5,15.6-35.2,1.4-3,3.1-5.9,5.2-9.9a35.5,35.5,0,0,0-14,4.3c-11.6,6.5-24.4,10-36.5,15.1-2.6,1.1-5.2,2.1-7.8,3.3-6.1,2.6-12.1,5.3-18.2,7.8-4.5,1.8-7.4,1.2-9.2-1.4-2.2-3-1.8-6,1.8-9.5a244.11,244.11,0,0,1,18.3-16.9c19.3-15.5,38.9-30.5,58.2-46,7.9-6.3,14.1-14.2,17.3-24.1,2.6-7.8,1.3-15.4-1.3-22.7-3-8.3-8.3-15.3-14.6-21.3a114.6,114.6,0,0,1-25.1-34.7c-4.3-9-8.3-18.2-12.2-27.4-4.4-10.3-8.3-20.7-12.8-30.9-4.1-9.4-5.1-19.3-6.3-29.2-.8-6.9-.6-14-1-20.9a7.14,7.14,0,0,0-1.7-4.5c-12.1-11.8-20.2-26.2-27.4-41.3-6.9-14.5-14.5-28.6-21.6-43-2.6-5.2-5.1-10.6-7.2-16-3.5-8.8-5.9-17.9-5.4-27.6a22.71,22.71,0,0,0-.3-4.5,5.48,5.48,0,0,0-.8-1.5c-.6-.1-1.2-.5-1.6-.3-6.7,2.4-13.8,2.3-20.7,2.1-11.7-.3-23.4-.9-35.1-1.4-1.6-.1-3.3,0-4.2,0-2.2,7.7-4.5,14.9-6.3,22.1-1.4,5.5-2.5,11-3.5,16.6-3,17.6-10.1,34-15.9,50.7-4.8,13.7-12.2,25.9-20.4,37.8a32.36,32.36,0,0,0-5.9,14.5,47.73,47.73,0,0,1-7.1,18.9c-11.5,18.2-22.8,36.5-34.7,54.4-5.4,8.2-11.9,15.6-18.1,23.2-1.6,2-2.8,3.6-1.8,6.5a10.67,10.67,0,0,1-.2,6.6c-5.7,16.6-11.6,33.1-17.3,49.7a49.22,49.22,0,0,1-14.2,21.5c-7.7,6.6-12,14.8-14.3,24.4a96.14,96.14,0,0,1-3.6,11.9c-4.1,10.8-4.8,22-5.5,33.4-.6,9.4-1.7,18.8-3,28.1a21.55,21.55,0,0,1-3.2,8.4c-3,5-7.8,5.7-12.5,2.2a31.22,31.22,0,0,1-12-18.6c-1.6-7-3.3-14-5-20.9-.2-.9-.6-1.7-1.2-3.4-1.6,1.9-2.7,3.3-3.9,4.7-11.3,12.9-22.5,25.9-34.1,38.6-3.4,3.7-7.7,6.6-11.7,9.8a6.92,6.92,0,0,1-6.9,1.3,5.61,5.61,0,0,1-3.7-6.8,29,29,0,0,1,2.6-7.5c6.4-13.5,13-26.8,19.5-40.3.3-.7.5-1.4,1-2.7-1.5.3-2.4.4-3.4.7a5.64,5.64,0,0,0-2,1.1c-11.9,10.4-27,14.9-40.5,22.3-4.5,2.5-8.8,5.3-13.5,7.3a140.62,140.62,0,0,1-19.2,6.7c-6.8,1.7-11.3-3.1-9.3-9.8a36,36,0,0,1,5.7-11c10.3-13.2,21.6-25.2,37.2-32.4a15.67,15.67,0,0,0,4-2.9c-6-.7-11.6.7-17.2,1.8s-11.4,2.4-17.2,3.6a42,42,0,0,1-6.2.7c-3.2.2-6.1-.6-7.4-4s-.2-6.1,2.2-8.2a60.14,60.14,0,0,1,10-7.4c12.2-6.7,24.7-13,37.9-17.7,4.8-1.7,9.2-4.3,13.8-6.4,7.3-3.5,14.5-7.3,22-10.5,6-2.6,10.8-6.4,14-11.9,10.1-16.8,21.6-32.9,28.4-51.5a48,48,0,0,1,2.6-5.7,38.41,38.41,0,0,0,4.3-17.2c.5-17.5,1-35.1,5.5-52.2,2.9-10.8,5-21.7,8.6-32.3a294.78,294.78,0,0,1,13-31.3c4.6-9.7,10-19.1,15.2-28.5a35.65,35.65,0,0,1,5.4-7.9c3.6-3.7,4.6-7.9,4.9-12.8.7-14.1,1-28.3,2.5-42.4,2-18.9,6.6-37.2,15.2-54.3,4.1-8.1,8-16.3,11.9-24.4a15.1,15.1,0,0,0,1-3c-10.5-1.6-20.7-2.9-30.8-4.9-10.3-2-19.4-7.1-29.2-12.9-.3,2.3-.8,3.9-.7,5.4.9,14.6-2.5,28.5-6.1,42.4a51.13,51.13,0,0,1-15,25.5,43.69,43.69,0,0,0-11.4,16.7,7.85,7.85,0,0,0-.5,2.2,6.19,6.19,0,0,0,.6,1.4c6-2,9.3-7.1,13.4-11.3s7-9.2,11.7-12.6c3.1,2.6,1.7,4.7.6,7-3.3,7.2-6.8,14.3-9.8,21.6a20.44,20.44,0,0,0-1.5,12.2c1.1-.7,2.3-1.1,2.8-1.8,2.3-3.5,4.4-7,6.5-10.6,2.6-4.4,4.7-9.1,7.8-13,3.9-4.9,7.7-3.9,9.7,2.1,1.3,3.9,2.6,7.9,3.9,11.8a36.18,36.18,0,0,0,2.4,4.4,45.86,45.86,0,0,0,2.9-6.2,122.28,122.28,0,0,0,4.1-13c1.8-7.8,5.4-14.9,9-22,6.5-12.8,14.5-24.8,18.8-38.7a6.88,6.88,0,0,1,1.7-2.2c.2-.2.7,0,1.4,0,1.5,1.7,1,3.8.3,5.6a134,134,0,0,1-5.6,13.6c-3.7,7.4-7.7,14.7-11.9,21.9-6,10.4-9.1,21.9-12.7,33.2a61.36,61.36,0,0,1-4,10c-.8,1.4-2.8,3.1-4.2,3s-3.4-1.7-4.1-3.2c-1.9-4.1-3.3-8.4-4.9-12.7-.6-1.7-1.3-3.5-2-5.5-3.7,1.2-4.5,4.3-6,6.7-3.8,6.5-7.5,13.1-11.4,19.5a16.67,16.67,0,0,1-3.7,4.2c-1.1.8-3.1,1.6-4,1.2a5.13,5.13,0,0,1-2.2-4,127.14,127.14,0,0,1,1.9-15.1c.5-2.9,1.5-5.7,1.4-9.1-2.8,2.1-5.6,4.3-8.5,6.2a17.31,17.31,0,0,1-5.5,2.6c-3,.6-4.7-1.1-4.5-4.2a13.41,13.41,0,0,1,1-4.4c2.6-7.2,6.1-13.9,11.9-19,9-8,14.1-18,16.6-29.6,2.7-12.2,5.7-24.3,5-36.9-.1-2.5.8-5.1,1.3-8.3a70,70,0,0,1-6-4.4c-7-6-14.4-11.6-20.9-18.2-9.5-9.6-15-21.4-17.8-34.8a484.58,484.58,0,0,1-8.2-54.9c-1-11.3-2.9-22.5-3.5-33.8-.7-15.1-1.1-30.2-.4-45.3.4-8,2.8-16,5.2-23.7,6.1-19.3,12.5-38.4,17.1-58.1,2.6-11.5,8.6-21.6,14.9-31.6q10-16,19.2-32.7c10.5-19.2,23-36.7,39-51.8,12.3-11.7,24.1-23.9,34.4-37.5a194.26,194.26,0,0,1,36.1-35.8c6.4-5,12.7-10.2,19.1-15,8.6-6.5,18.8-9.5,28.9-12.7a9.4,9.4,0,0,1,3.4-.3c3,.1,5.4,1.9,5.9,4.4.6,2.8-.7,4.8-3,6.2a15.43,15.43,0,0,1-4.2,1.7,89.77,89.77,0,0,0-35.4,19.4c-8.8,7.9-18.1,15.4-26.7,23.6-5.8,5.6-10.8,12.1-16.1,18.2a15.43,15.43,0,0,0-1.7,3.4h12.3c-.5.3.1.1.4-.3,8.1-8.2,16-16.6,24.2-24.6,5.7-5.5,11.4-11.1,17.9-15.6,20.3-14.1,41-27.6,61.6-41.4.9-.6,1.8-1.3,3.7-2.8-3.1-.9-5.4-1.4-7.6-2.1-10.5-3.2-20.9-6.6-31.3-9.7-16.5-4.9-33.3-8.7-50.6-8.3a91.79,91.79,0,0,0-28.8,5c-11.2,3.9-22.8,6.7-34.2,9.8a74.32,74.32,0,0,0-22.3,10.8c-7.5,5.1-14.8,10.6-22.8,14.8-7.6,4-16,6.6-24,9.9-25.1,10.4-50.9,18.9-74.4,33-10.1,6.1-20.7,11.7-31.1,17.4-12.1,6.6-25.1,5.8-37.1-.4-8.3-4.3-11.9-12.9-12.8-22.1-.8-8.3,2.3-15.6,6.4-22.5,6.8-11.3,16-20.5,25.6-29.4q16.65-15.3,33.7-30.3a153.91,153.91,0,0,1,13.1-9.8c5-3.4,10.1-6.7,15.2-10,19.9-12.8,41.3-22.9,63-32,5.4-2.3,11.1-3.6,16.7-5.4,9.5-3.2,19-6.3,28.3-9.9,7-2.7,12.8-7.1,16.5-14,3-5.7,6.8-10.7,6.4-17.8-.3-4.8-2.1-8-6.3-9.7a83,83,0,0,0-11.3-3.7c-15.7-4.3-31.5-2.8-47.1-.1-8,1.4-15.7,4-23.5,6.2-12.7,3.5-23.3,10.6-32.3,20.1a177.38,177.38,0,0,1-40.4,31.7c-13.1,7.5-26,15.3-39,23-2.3,1.3-4.2,3.2-6.5,4.6-3.9,2.3-7.6,5.3-11.9,6.4-9.9,2.7-19,7.1-28.4,11-12.7,5.3-25.5-.6-25.8-16.6-.3-16.2,4.9-30.8,11.1-45.3A182,182,0,0,1,188,223a207.74,207.74,0,0,1,13.5-18.8c8.7-11.1,17.7-22.1,26.6-33.1q9.9-12.15,19.8-24c7.6-9.1,15.6-18,23-27.3,8.1-10.1,18.2-18.1,28.1-26.2,6.1-5,12.4-9.9,18.6-14.8C335,65.3,354.8,55.8,376,49c7.7-2.5,15.1-5.9,22.6-9a6.61,6.61,0,0,0,2.5-1.3c4.7-5.2,11.3-5.8,17.4-7.3,5.5-1.3,11-2.7,16.5-3.9,2.2-.5,4.5-.7,6.7-1,8.6-1.1,17.2-2.2,25.8-3.1a144.79,144.79,0,0,1,14.7-.8c18.1-.1,36.3.1,54.4-.2,5.2-.1,10.5-1.1,15.7-1.7,4.5-.6,8.9-1.6,13.4-1.8,18.5-.6,37-.5,55.4,2.4,7.6,1.2,15.5.6,23.2,1.2,13.7,1.1,27.5,1.4,41,4.6,6.4,1.5,13.1,1.7,19.6,2.6a21.12,21.12,0,0,1,5,1c14.4,5.7,28.8,11.9,39.5,23.6,5.7,6.2,10.3,13.5,14.9,20.6,2.5,3.9,4.2,8.4,6.1,12.8,3.2,7.4,5.1,15,4.8,23.1-.3,9.9,2.1,19.5,3.9,29.1.7,3.7,1.1,7.5,1.7,11.2.7,4.1,1,8.3,2.2,12.2a136.84,136.84,0,0,1,5.7,32.3,7.8,7.8,0,0,0,.3,2.2c3.1,13.3,3.5,26.9,3.3,40.5-.2,11.5.3,23.1-.1,34.6a171.41,171.41,0,0,1-2.4,21.3c-1.3,8.2-2.9,16.3-4.4,24.5-.5,2.4-.7,5-1.7,7.1-1.5,3.1-1,5.2,1.8,7.2,6.4,4.7,12.6,9.6,19,14.3a7.31,7.31,0,0,0,8,.8c4.3-1.9,8.5-4,12.9-5.6a9.51,9.51,0,0,1,6-.3c8.6,2.8,17.4,2.8,26.3,3.1a159,159,0,0,1,25.8,2.7c17.7,3.7,35.5,6.8,52.8,12.7,13.6,4.7,26.9,9.8,39.4,17a104.89,104.89,0,0,1,22.5,17.9,290.92,290.92,0,0,1,29.3,35.2,31.1,31.1,0,0,1,2.5,3.8c2.2,4,2.1,6.2-1.3,9.5-2.1,2-1.8,3.9-.9,6.1a214.06,214.06,0,0,1,11.5,47.2,205.65,205.65,0,0,1,2.5,29.3c.3,45.7.1,91.4.1,137.2a154.39,154.39,0,0,1-6.9,45.7c-5,16.4-9.1,33.1-13.9,49.6-2.6,8.9-6,17.5-8.9,26.3-7.2,21.6-18.8,40.7-32.4,58.8-3.6,4.8-7.9,9.1-12,13.6-1.7,1.9-3,3.7-3.1,6.4-.3,9.6-.8,19.2-1.1,28.8-.2,9.4-.1,18.8-1.4,28.3-1,7.4-.4,15.1-.5,22.6-.1,7.2.1,14.4-.2,21.5-.2,6.2-3.8,8.4-9.5,5.9a14.22,14.22,0,0,1-5.2-4.2c-2.9-3.7-5.3-7.8-7.9-11.7-1-1.5-2.1-2.8-3.8-5.2a29.28,29.28,0,0,0-1,4.4c-1.4,8-2.6,16-4.4,24a54.73,54.73,0,0,1-4,10.6,10.94,10.94,0,0,1-3.4,3.7c-2.5,1.8-4.7,1-5.7-1.9a9,9,0,0,1-.4-2.8c-1-11.8-4.6-23.4-3.9-35.4a12.25,12.25,0,0,0-.7-2.8,37.76,37.76,0,0,0-3.2,2.4c-4.8,5.6-9.5,11.2-14.2,16.9-.5.6-.9,1.4-1.5,1.6-1.3.4-2.8.5-4.1.8-.2-1.2-.8-2.5-.6-3.7,1.7-9.5,3.9-18.9,5.4-28.4,2-13.1,3.2-26.3,2.3-39.5-.5-7.5-1.9-15-2.7-22.5-.3-2.7-1.9-3.9-4.3-4.6-30.2-8.4-56-24.9-80.7-43.5-3.3-2.5-6.1-5.6-9.2-8.4l-4.6-4.3c-6.7,8.3-15.6,12.4-24.8,15.9-4.7,1.8-9.3,3.9-14.7,6.1,2.2,3,3.9,5.5,5.8,7.8,5.4,6.6,10.7,13.2,16.2,19.7,7.9,9.3,12.2,20.3,15.4,31.9,3.5,12.5,7.1,25.1,9.8,37.8,2.6,12.3,3,24.9.1,37.1-3.2,13.6-7.2,27-11.3,40.3-2,6.3-1.9,11.7,2,17.2,3.7,5.2,6.9,10.9,10.7,16a95.31,95.31,0,0,1,13.7,27.2c7,21.6,13.6,43.2,18.5,65.4a85,85,0,0,1,1.9,12.3c.9,13,1.8,26,2.3,39,.1,3.3-.9,6.6-1.3,10-.3,3-1.2,6.1-.6,8.9,2.2,9.7,4.8,19.4,7.7,29,2.4,8,5.5,15.7,7.8,23.6,2.8,9.5,3.1,19.3,3.4,29.2.5,13.6.2,27.2,3.5,40.5.9,3.7,1.9,7.3,2.7,11,.8,3.3.5,6.6-2.6,8.6s-6.3,1.3-9-.9c-6.5-5.5-12.8-11.2-19.1-16.8C830.9,1333,829.9,1331.8,828.2,1330.1Zm201.2-733.3h0c.1-22.7.1-45.3.1-68a193.35,193.35,0,0,0-5.2-44.9c-2.6-10.8-6.1-21.4-8.9-32.2a83.18,83.18,0,0,0-10.1-23.3c-.9-1.4-2.1-3-2.1-4.6-.1-5.3-3.5-8.5-6.9-11.9-2.8-2.8-5.3-6-8.3-8.5-6-5.1-12-10.3-18.6-14.6-14.8-9.8-32.1-14-48.5-20a17.42,17.42,0,0,0-2.2-.5c-8.7-1.8-17.4-3.4-26-5.4a182.36,182.36,0,0,0-45.9-5.4c-3,.1-6-.6-9-.8-7.2-.4-14.4-.9-20,5.1-1.3,1.4-3.6,2.1-5.5,2.8-3.9,1.5-7.9,2.7-11.8,4.1-12.4,4.5-23.9,10.4-32.1,21.2-3.1,4-6.1,8.2-9.4,12.1a88.17,88.17,0,0,0-18.9,37c-1.5,6.2-2.3,12.6-4,18.8-3.6,13.5-7.4,26.9-11.5,40.3-3.6,11.6-6.5,23.3-5.6,35.6,0,.6-.1,1.1-.1,1.7-.5,16-1.2,32.1-1.5,48.1a102.37,102.37,0,0,0,1.1,13.5c.6,5.4,1.4,10.9,2.2,16.3,1.2,7.3,2.1,14.6,3.8,21.7a235.5,235.5,0,0,0,18.2,49.3c5.1,10.3,8.6,21.4,13.8,31.6,9.7,18.9,16.4,39,22.9,59.1,3,9.2,6.9,17.2,13.8,24.2,13.1,13.4,26.2,26.7,42.6,36.2,7.7,4.4,15.2,9.1,23.1,13.3a146.19,146.19,0,0,0,20.4,9.7,190.71,190.71,0,0,0,43.6,9.5c4.6.5,9.2.4,13.2-1.9,5.2-3.1,10.4-6.1,15.3-9.7,9-6.7,15.8-15.5,22.6-24.4,16.9-22.4,26.8-48,34.9-74.5,5.3-17.1,9.3-34.6,14.6-51.8a137.29,137.29,0,0,0,5.9-40.2ZM430,97.6c7.6-4,14.1-7.7,20.9-10.8,5.5-2.5,11.3-4.1,16.9-6.4,8.4-3.5,16.5-7.4,24.9-10.7A174.62,174.62,0,0,1,551.2,58c8.3-.3,15.5,2.2,22.5,6.3,7.9,4.6,12.3,11.4,14.3,20.1,2.3,10.4,2.7,20.9,2.7,31.5a86.33,86.33,0,0,1-6.4,33.7c-4.8,11.8-11.2,22.4-22.4,29.1-8.9,5.3-18.3,10-28.5,12.4-13.2,3.2-26.6,5.7-39.9,8.3a16.19,16.19,0,0,1-6.2-.2,4.84,4.84,0,0,1-4.2-4.7,5.18,5.18,0,0,1,3.2-5.5,33.21,33.21,0,0,1,5.4-1.5c7.8-1.5,15.6-2.9,23.4-4.3a125.91,125.91,0,0,0,37.2-13.1,40.92,40.92,0,0,0,17.2-17.5c11.1-20.7,10.1-42.5,6.7-64.7-1.6-10.6-9.3-15.6-18.6-17.2a60.54,60.54,0,0,0-28,1.9c-.9.3-1.6,1-3.6,2.2,11.5.4,16.3,7,19.2,15.6,1.3,3.7,3,7.4,3.9,11.2,1.4,6.2,2.9,12.5,3.3,18.9.8,10.5-3.8,18.4-13,23.9-8.2,4.9-17.1,6.9-26.4,7.8-13,1.3-25.9.8-38.3-4.7-8.2-3.6-9.2-11.7-13.3-17.9-.5-.8-.1-2.2.1-3.3,1.9-9.2,5.1-17.8,12.1-24.5a115.6,115.6,0,0,1,10.7-9.2c5.6-4.2,11.5-8.2,17.2-12.2a5.36,5.36,0,0,1-.5-1.1c-5.7,2.3-11.4,4.5-17.1,6.8-7.5,3-14.9,6.3-22.5,9.2a121.38,121.38,0,0,0-23.8,12.1c3.7,4.8,7.2,9.5,10.8,13.9,8,9.7,15,19.8,19.6,31.6s9,23.7,11.3,36.2c2.5,13.4,4.8,26.7,7.2,40.1,3.3,18.4,6.7,36.8,9.7,55.2.9,5.6.5,11.3.9,17,.3,4.4.8,5.2,5,5,11.7-.6,22.8,2.5,34.2,4.3a97.42,97.42,0,0,1,13.2,3.1c12.3,3.7,24.5,7.6,36.8,11.2,8.9,2.6,17.8,5,26.8,7.2,4.1,1,8.2,2.4,12.6-.2,1.5-.9,4.4-.1,6.4.7,16.3,6.4,33.2,9.9,50.8,9.4,7.7-.2,15.5-.1,23.2,0,9.5.1,18.9-.2,28.2-2,9.1-1.8,18.2-3.3,27.3-4.8,3.9-.6,6.5-2.5,7.6-6.5,1-3.6,2.6-7.1,3.3-10.8,2.1-10.4,4.1-20.7,5.8-31.2a119.15,119.15,0,0,0,1.4-16.9c.2-9.3-.3-18.5.1-27.8,1-20-3.1-39.5-5.7-59.1-.8-6.5-3.1-12.8-4.3-19.3-1.5-8.2-2.4-16.4-3.9-24.6-1.8-9.5-3.6-18.9-3.4-28.6a26.23,26.23,0,0,0-.8-7.9c-6.1-20.9-16.1-39.1-35.6-50.5-9.8-5.7-20-10.6-31.5-11.9-5.1-.6-10.2-.8-15.1-1.8-12.4-2.7-25.1-2.8-37.6-3.8-7.1-.6-14.5.3-21.5-.9-17.6-2.9-35.3-3.3-53.1-2.7-4.9.2-9.7,1.2-14.6,1.7-5.4.6-10.8,1.6-16.3,1.7-14.7.2-29.5.1-44.2.1-11,0-21.8.1-32.7,2.2-6.8,1.3-13.9,1.1-20.8,2.3-8,1.4-15.8,3.6-23.7,5.6-6.3,1.6-7.8,3.2-8.1,9.7a18.68,18.68,0,0,0,1.1,6.6c4.2,12.3,11.2,23.1,18.9,33.4A12,12,0,0,1,430,97.6ZM624.1,711.1a36.23,36.23,0,0,0,5.3-1.2c8.3-3,16.9-3.5,25.7-3.4,6.4.1,10.8,2.7,13.1,8.8.6,1.7,1.5,3.3,2.2,4.8,9.6-4.7,18.8-3.5,27.8-.4,7.6,2.6,11.8,9,15.3,15.9,8.3,16.8,10.1,34.6,9.1,53,0,.7.1,1.7-.3,2.2-2.6,3.3-.7,6,1,8.7,4.3,6.6,8.5,13.3,12.8,20a5.84,5.84,0,0,0,1.6.6c.6-1.7,1.3-3.4,1.8-5.1,1.5-5.1,2.8-10.2,4.4-15.2,3.7-12,6.8-24,5.5-36.7-.9-8.4-1.8-16.9-3.3-25.2-1.1-6.3-4.7-11.5-9.7-15.6-5.3-4.3-11.3-3.2-15,2.5-.8,1.2-1.5,2.3-2.4,3.7-2.2-3-2-3-2-5.3.2-8.5.6-17,.3-25.4a26.19,26.19,0,0,0-7.8-17.7,19,19,0,0,0-23.2-3.2c-2.4,1.5-4.7,3.2-7.1,4.6-1.5.9-3.1,1.6-4.2-1,2.6-4.4,7.4-6.2,11.5-8.5,7.4-4.1,19.2-1.8,25.2,4.1a32.93,32.93,0,0,1,9.9,20.5c.5,4.7.3,9.4.6,14.1a57.93,57.93,0,0,0,.9,6.2c13-4.8,18.6,4.4,25.2,11.8-2.7-7.4-5.6-14.6-8.6-21.7-2.7-6.4-5.7-12.8-8.4-19.2-3.9-9-8-17.9-11.5-27.1-2.5-6.5-4.2-13.3-6.3-20-2-6.2-4.3-7.6-10.9-7.6-4.6,0-8.3,2.3-12.2,4.1s-6.2.1-5.4-4c1.4-7.2,2.7-14.6,5.4-21.3,3.4-8.5,1.8-15.8-2.8-23a9.84,9.84,0,0,0-10.1-4.8c-4.1.4-8.3.4-12.4.4-1,0-2.1-.8-4.2-1.8,2.2-1.1,3.2-2,4.3-2.1a130.14,130.14,0,0,1,15.2-.8,13.47,13.47,0,0,1,7.6,3.1c8.2,6.8,10.7,20.2,6.6,30.1-1.9,4.7-3,9.7-4.3,14.6a6.58,6.58,0,0,0,.4,3.2c6.8-.9,13-1.8,19.5-2.7a24.32,24.32,0,0,0,0-2.7c-1.2-9-2.5-18-3.6-26.9-.6-5-1.4-10.1-1.3-15.2.2-14.3.6-28.7,1.1-43,.2-7.4.1-14.8,1.3-22,1.6-9.5,4.4-18.7,6.8-28,3.7-14,7.8-28,11.4-42.1,1.4-5.3.7-6.3-4.8-7.2-5.8-.9-10.7-3.5-15.3-6.8-1-.7-2-1.5-3.3-2.4-1.8,1.6-3.2,3.1-4.8,4.3a12.62,12.62,0,0,1-4.4,2.4c-.7.2-1.8-.7-2.8-1.1.4-.8.5-1.9,1.2-2.3,8.4-5.4,12.9-13.6,16.6-22.3a29.64,29.64,0,0,0,2.1-14.4,13,13,0,0,0-5.2-9.6c-6.9-5.6-14.8-6.2-22.5-3.2-7.3,2.8-10.6,10.3-15,16.3a2,2,0,0,0-.2,1.1c-.3,4.3-.6,8.5-.9,13.3,1.6-.3,3.1-.5,4.5-.8,5.7-1.2,7.8-.2,10.1,5.3,3,7.6,3.2,15.5,2.4,23.4a120.5,120.5,0,0,1-2.7,13.3c-.4,1.8-1.2,3.8-4.5,2.6.2-1.5.4-3.1.7-4.6.7-3.5,1.7-7,2.2-10.5.9-7.4.9-14.7-1.6-21.8-1.3-3.5-2.5-4.2-6-3.2-4.9,1.3-9.8,2.7-14,5.8-9.2,6.6-18.5,13.1-27.7,19.6-.4.3-1,.2-1.7.4-2-2.2-.7-3.9.9-5.3,2.3-2,4.8-3.6,7.2-5.5,7.8-6.3,15.5-12.7,23.3-18.9,3.9-3.1,4.3-7.3,3.8-11.8-.2-1.7-.8-3.4-.7-5,.3-5.9-2.1-10.6-5.9-14.8-4.6-5.1-10.4-4.3-16.3-3.7-4.5.4-4.9,4.1-6.3,7.1-6.5,14.1-13.3,28-24.8,38.9-4.6,4.3-8.5,9.4-12.8,14.3a53.82,53.82,0,0,1,5.1,6.9c1.7,2.9,2.7,6.1,4.3,9.8a62,62,0,0,1,5.7-3.3c13.1-5.8,21.9-3.2,26.1,9.7.1.4.3.7.4,1.1,3.4,15.4,4.9,31,3.4,46.7-.3,3.5-2,6.8-3.4,10.1-.5,1.1-2,1.7-3,2.5-.4-.3-.8-.5-1.2-.8a13.57,13.57,0,0,1,.8-4.1c3.4-6.7,3.7-13.8,3.3-21-.5-7.4-.8-14.7-1.9-22a80.13,80.13,0,0,0-4.5-15.7,6.83,6.83,0,0,0-5.9-4.7c-5-.4-9.9,0-14,3.3-5.6,4.5-11.4,8.7-14.8,15.3-1,2-2.8,3.6-4.1,5.4-3.2,4.5-6.3,8.9-9.3,13.5-.7,1-.9,2.3-1.6,4.3,2.7,0,4.7-.1,6.7,0,5.8.5,11.7.5,17.4,1.7a23.4,23.4,0,0,1,18.7,21.5c.5,5.9.1,11.9.1,18.4,1.9-.7,3.8-1.3,5.7-1.9,8.9-2.8,17.8.9,21.2,9.3,2.1,5,4.1,10.3,4.8,15.7,2.2,17.8,2.3,35.5-4.9,52.4-.7,1.7-1,3.5-1.7,5.7a37.05,37.05,0,0,0,5,.6c6.1.2,10.6,3,12.7,8.6a73.66,73.66,0,0,1,3.2,13.1c.6,3,.3,6.1.8,9,1.2,6.7-.4,13.2-1.4,19.7-.3,1.7-.8,3.3-3.7,3.2,0-2.2-.4-4.4.1-6.4,2.2-10.6.3-21.1-1.1-31.5a17,17,0,0,0-1.6-4.8c-3.6-8-15-9.1-20.3-2-1.2,1.7-2.1,4.2-5,3.5-1.7-2.2.1-3.6.9-5.1,2.4-4.3,5-8.5,7-12.9,5.6-12.5,7.3-25.6,6.9-39.3a79.54,79.54,0,0,0-5.2-26.5c-2.8-7.3-9-10.3-16.4-7.9a21.1,21.1,0,0,0-7.1,4.4c-2.7,2.3-5.1,5-7.7,7.5-1.5,1.5-3,3-5.6,1.6-1.1-2.7.7-4.5,2.1-6.4,5.6-7.8,8.3-16.3,7.1-26.1-1.2-10-6.9-17.7-16.8-19.3-6.4-1.1-13.1-.9-19.7-1a10.25,10.25,0,0,0-8.9,5.2,30.9,30.9,0,0,1-4.3,4.6c-.5-.2-.9-.5-1.4-.7.2-1.3,0-2.8.6-3.8,6-10.5,11.4-21.3,19.4-30.6,1.3-1.6,3.1-3.4,3.2-5.2.4-3.7,2.5-5.7,5.2-7.6a6.05,6.05,0,0,0,2.9-6.3c-.8-4.1-1.9-8.2-5-11.2-1.1-1.1-2.8-2.4-4.3-2.3-7.1.1-14.3.5-21.4.9-1.5.1-2.8,1.1-4.3,1.3-1.2.1-2.9,0-3.5-.7s-.2-2.4,0-3.6a5.48,5.48,0,0,1,.8-1.5c5.8-8.3,11.1-17.1,18.8-24,4.9-4.5,6.8-10.2,6.1-16.9a51.51,51.51,0,0,0-7.7-23.5c-1.7-2.6-4.2-4.8-6.4-7.1-1.5-1.5-3.2-1.5-5.1-.3-6,3.9-12.2,7.5-18,11.7-9.8,7.1-19.3,14.5-28.8,21.9a16,16,0,0,0-5.8,7.3c2.1-.2,3.6-.4,5-.4,9.6-.3,19.2-1.1,28.8-.7,7.3.3,11.9,5.1,12.9,12.1.9,5.6.7,11.3-1.9,16.6-5.4,10.8-10.9,21.6-16.2,32.4-.7,1.4-1.2,2.9-2,4.9,3.3.8,5.9,1.2,8.4,1.9,7.6,2.2,10.2,5.5,10.3,13.4q.15,7.95,0,15.9a41.36,41.36,0,0,1-5.8,21.1c-2.4,4-5.1,7.9-7.7,11.9A17.6,17.6,0,0,0,545,548l3.5-3.1a37.56,37.56,0,0,1,19.1-9.2c5.4-.9,9.6.6,12.6,5.4a26.85,26.85,0,0,1,4.1,12.2c.4,4.8,1.1,9.5,1.7,14.4,3.8-1.2,7.1-2.1,10.3-3.2,7.5-2.4,13.9-.2,19.1,5.1,12.8,12.9,18.1,28.8,15.6,46.6-2.1,15-3.7,30-3.6,45.1a68,68,0,0,1-1.5,11.8c-.3,1.7-.8,3.9-4,3.5a21.74,21.74,0,0,1-.2-3.6l1.5-19.2c.8-10.3,1.3-20.7,2.7-31,1-7.5,2.1-14.9.8-22.5a49.82,49.82,0,0,0-14.6-28.1,14.28,14.28,0,0,0-14.6-3.7c-3.6,1-7.3,1.7-11.6,2.7-.1,1.7-.3,3.9-.3,6.1-.2,12.4-5.3,22.6-14,31.2-1.4,1.4-3.2,4.4-5.4,1.9-1.9-2.1,1.2-3.4,2.4-4.9,4.7-5.4,9.5-10.8,11.1-18.1,2.9-13,1.7-25.9-.5-38.8-.3-1.8-1.5-3.4-2.5-5-1.8-3.2-4.7-4.2-8.2-3.6-6.9,1.2-13.1,3.9-17.8,9.1s-9.1,10.6-13.5,16c-1.3,1.6-2.4,2.8-4.7,1.8-.6-.3-1.8.8-2.7,1.2a3.14,3.14,0,0,0,2.5,1.2c8.5.2,14,5.4,13.8,13.8a73.52,73.52,0,0,1-1.8,14c-1.2,5.7-3.1,11.3-4.3,17-2.8,12.7-6.2,25-15,35-3.1,3.5-6.3,7-9.4,10.6-1.3,1.5-2.4,3.1-3.5,4.5,3.8,4,7,7.5,10.4,11.2a19.21,19.21,0,0,0,2-2.3c5.3-8.2,12.4-14.6,20.3-20.3,9.3-6.7,18.3-4.7,23.4,5.6,1.4,2.9,2.4,5.9,3.8,8.8,2.4,4.9,3.9,10.4,2.4,15.4-2.3,7.8.8,11.2,7.6,13.8,4.8,1.8,7.5,6,8.5,11.2,2,10.8,3.8,21.6,1.7,32.6a5.13,5.13,0,0,0,.6,3.2c3.1,6.5,4.1,13.4,4.2,20.4a83.89,83.89,0,0,1-1.2,14.1c-.2,1.9-.7,4.2-3.6,4.4-2.2-2.1-.6-4.3-.3-6.3,2.1-13.1,1.5-25.7-7.5-36.5-6.7-8.1-18-9.2-26.3-2.5-4.2,3.5-8.1,7.4-12.2,11a12.92,12.92,0,0,0-4.8,9.3c-.1,1.3-.9,2.5-1.3,3.7h-1.2a11.69,11.69,0,0,1-1.4-3.3c-.2-3.4-.2-6.8-.2-10.2.1-6.9-.6-13.6-3.4-19.9-1.5-3.4-2.7-6.8-7.3-5.8a11.41,11.41,0,0,1-.3-2.1c.9-5.6-.3-7.4-5.6-7.8a59.21,59.21,0,0,0-11.9.3c-7.4,1.1-14.4,3.3-18.3,10.7-.6,1.2-2,1.9-3.6,3.5-.4-2-1.1-3.2-.7-3.9,2.7-5,5.5-10,11.6-11.7,4.9-1.4,9.8-2.8,14.7-4.1,6.3-1.6,6.3-1.8,6.5-8.5a66.4,66.4,0,0,0-2.5-20.7c-1.5-5.4-3.9-7.9-9.7-8.1-1.2-.1-2.7-.3-3.5-1.1-1.8-1.7-3.8-1.6-5.8-.8-3.9,1.5-7.7,3.1-11.5,4.8s-4.7,1.2-6.5-2.6c-1.9-4.1-4-8.1-6.2-12a12.61,12.61,0,0,0-9.6-6.3c-5.8-.7-11.6-1.4-17.5-1.6-7.6-.3-10.4,1.8-13.3,8.8-.6,1.5-1,3.6-2.2,4.5-3.3,2.3-3.4,5.6-3.6,9-.4,7-.8,13.9-1.1,20.9a35.44,35.44,0,0,0,.6,4,60.4,60.4,0,0,0,10.3-10.7,47.68,47.68,0,0,1,17.5-14c4.1-1.9,8.6-3.1,12.5-.5,6.4,4.1,11.2,9.6,11.3,17.9.1,6.4.6,12.8,2.8,19,.6,1.7,1.4,3.6-1.3,5.3-.8-1-1.9-1.8-2.3-2.9a63.63,63.63,0,0,1-2.7-10.4c-.6-3.9-.6-7.9-.9-11.8-1.1-11.7-11.3-16.9-21.2-10.7a54.76,54.76,0,0,0-13.8,12.5c-3.6,4.5-7.2,9.2-12.6,11.4-2.1,16.5.1,32.4,6.2,45.4a24.35,24.35,0,0,0,2.9-2.6c2.9-3.5,5.7-7.1,8.6-10.6,4.3-5.3,9.6-9.4,16.6-9.9,5.4-.4,10.9.4,16.3.8,2.9.2,4.6,2,6.1,4.5,2.2,3.7,5.2,6.9,7.4,10.6a49,49,0,0,1,4.2,9.7,3.62,3.62,0,0,1-1.8,4.8c-.6-.4-1.3-.7-1.4-1.1-1.1-6.6-4.9-11.7-9.3-16.4a7.68,7.68,0,0,1-1.4-2.5c-1.4-4.9-5.1-6.1-9.6-6.3-1.7-.1-3.4-.1-5.1-.2-8.5-.5-14.8,3.2-19.8,9.9-3.7,4.9-7.9,9.6-12,14.4,1.1,6.6,10.9,23.3,15.9,26.8,4.8-7.9,9.7-15.7,19.2-18.9,9.1-3.1,18-4,26.5.9,2-1.8,3.5-4.1,5.6-4.9,7.2-2.8,14.6-3.8,21.9,0,1.8,1,3.6,2,5.5,3,5.6,3,9.5,7.5,10.9,13.8s2.3,13,3.4,19.5c.2,1.4.5,2.7.9,4.8,1.3-1.2,2-1.8,2.7-2.4,2.5-2.3,4.9-4.7,7.6-6.8,4.7-3.7,9.8-4.6,15.3-1.4a61,61,0,0,0,8,4.2,23.37,23.37,0,0,1,11.9,10c1,1.5,2,2.9,3.4,4.8,1.1-1.7,1.7-2.7,2.3-3.6,5.7-9.5,11.9-11.2,21.9-6.1,1.6.8,3.3,1.6,5,2.5,2.4-3.6,2.4-7.2,2.5-10.7.1-2.8.1-5.7,0-8.5-.6-10-1.2-20-1.8-29.9a27.44,27.44,0,0,0-.9-3.9,11.17,11.17,0,0,0-5.8-7.3,21.43,21.43,0,0,0-10.7-3.1c-2.6,0-5.7.4-7.9-3.1,1.4-.6,2.5-1.4,3.6-1.4a51.08,51.08,0,0,1,9.6.6c8.8,1.5,14.5,7.3,16,16,.7,4.3.8,8.6,1.3,13,.2,1.5.6,3,.9,4.5.4,0,.8.1,1.2.1a54.83,54.83,0,0,1,3.1-5.2c4.5-6.2,9.7-11.6,17.9-12.7,9.9-1.3,18.5,4.1,21,13.8,1,4,1.3,8.2,2,12.3.3,1.7.8,3.4,1.5,6.3,2.2-2.1,3.5-3.4,4.9-4.6,3.9-3.8,8.1-4.7,13.5-3,8.1,2.6,14.2,7.6,19.6,13.9,1.5,1.7,3.2,3.3,5.4,5.4.5-1.8.8-2.4.9-3.1,1.3-17.9-1.6-35-9.6-51.2-3.1-6.3-7.6-11.5-14.6-13.3-4.3-1.1-9-1-13.5-1.4-4-.3-6.6,1.5-7.6,5.3-1.1,4-1.9,8.1-2.9,12.1-.6,2.3-.2,5.1-3.3,6.1-2.7-1-2.6-3.4-2.5-5.6.2-3.2.8-6.4.8-9.6a72.12,72.12,0,0,0-1.1-12.3,7.44,7.44,0,0,0-7.7-6.3c-7.5-.1-15-.2-22.5,1.9-6.5,1.8-11.5,4.5-12.9,11.6-.4,1.9-1.2,4-4.4,4.1-.1-1.4-.5-2.7-.2-3.8a77,77,0,0,0,2.8-25.7c-.2-4,.1-8-.5-11.9-.8-5.9-4.2-10.8-11.7-10.4-5.3.3-10.6,0-15.9.1-3.8.1-7.7.3-9.2,4.9a2.53,2.53,0,0,1-2.2,1.1c-.9-.4-2.1-1.7-1.9-2.3.4-1.7,1.1-3.9,2.4-4.7,2.5-1.5,5.5-2.9,8.4-3,7.3-.4,14.7-.4,22.1-.1,4.8.2,8.8,2.4,10.3,7.4a48.09,48.09,0,0,1,2.3,9.8c.4,4.9.1,9.8.2,14.7C623.6,706.6,623.9,708.5,624.1,711.1ZM277.2,1267.8a3.55,3.55,0,0,1,.2,1,16.15,16.15,0,0,0,3.1.2c7.3-.7,14.7-1.3,22-2.3,8.9-1.3,17.8-3.1,26.7-4.7a43.43,43.43,0,0,1,6.1-1.1,5.91,5.91,0,0,1,5.8,3.8,6.16,6.16,0,0,1-2,7.1,12.23,12.23,0,0,1-2.9,1.7c-13.3,5.9-26.4,12.2-39.9,17.4a89.82,89.82,0,0,0-37.7,27.1,22.68,22.68,0,0,0-1.7,3.1,14.56,14.56,0,0,0,6.2-1.8c11.3-5.6,22.6-11.2,33.9-16.9a36.35,36.35,0,0,0,6.4-3.6c12.1-9.9,26.4-16.1,39.9-23.6,3.6-2,6.7-1.6,8.8.7s2.3,5.2-.1,8.9c-3,4.6-6.4,8.9-9.4,13.5-4.1,6.3-8.1,12.7-12,19.1a36,36,0,0,0-2.2,5.4c.4.2.8.5,1.2.7,6.9-8.2,14.1-16.1,20.7-24.5,4.7-6.1,8.7-12.8,12.9-19.3,1.7-2.5,3.6-4.4,6.9-4,2.8.3,4.7,2.8,5.3,6.5a19.4,19.4,0,0,1,.2,3.4,129,129,0,0,0,6.3,39.5,35.43,35.43,0,0,0,2.5,5.2,6.75,6.75,0,0,1,1.4-.2,54.3,54.3,0,0,0,1.3-5.8,145.6,145.6,0,0,0,1.2-14.7c-.1-15.5,2-30.5,7.7-45a44.44,44.44,0,0,0,2.1-7.1,52.43,52.43,0,0,1,16.8-28.8c7.1-6.2,11.4-14.4,13.8-23.6.7-2.7,1.6-5.4,2.5-8.1,3.1-9.1,6.3-18.2,9.5-27.3.8-2.4,1.5-4.5-.7-6.8s-1.9-5.3-.2-7.9a76.43,76.43,0,0,1,6.5-8.5c2.6-3.2,5.6-6.2,8.2-9.4,17.6-22.1,31.6-46.5,46.3-70.5a33,33,0,0,0,4.3-12.2c1.2-7.9,4.4-14.7,8.9-21.2a172.25,172.25,0,0,0,10.8-17.3c8.7-16.2,13.7-33.9,19.5-51.3a76.17,76.17,0,0,0,2.2-8.2c2.1-11.5,4.1-23,8.1-34.1,1-2.8,1.6-5.7,2.7-9.4-3.2-.6-6.1-1.3-9-1.6-12.5-1.2-23.5-5.3-31.6-15.4-6.8-8.4-13.8-16.5-20-25.3-8.3-11.9-15.6-24.5-23.8-36.5-8.5-12.5-17.5-24.6-26.3-36.9-2.1-2.9-4.3-5.7-6.6-8.5a14.35,14.35,0,0,0-2.8-2.2,42.23,42.23,0,0,0-5.8,16.2c-.7,5.4-1.1,10.9-1.8,16.3-.6,4.5-1.3,8.9-2.2,13.3-.2.9-1.3,1.6-2,2.3-.7-.7-2-1.4-2-2.2a59.33,59.33,0,0,1,.6-8.4c.5-3.5,1.3-7,1.8-10.5,1.3-9.1,1.6-18.6,6.3-26.8,2.5-4.3,2-7.7-.7-11.5-9.9-13.9-13.7-30.1-17.8-46.2a25.64,25.64,0,0,1-.7-6.2c.3-12.8.7-25.7.9-38.5,0-2.3-.3-4.6-.4-6.9-.5-.1-1-.3-1.5-.4-1.2,1.8-2.8,3.4-3.4,5.3-3.6,10.7-7,21.5-10.4,32.3-3.9,12.6-7.5,25.4-13.2,37.3a163.08,163.08,0,0,1-8.3,14.7c-.9,1.5-2,3.4-4.4,2.4-1.5-2.1.1-3.6,1.1-5.1,7.3-10.5,11.7-22.4,15.6-34.4,5.1-15.4,9.8-30.9,14.6-46.4a20,20,0,0,1,7-10.7c2.3-1.7,3.2-3.9,3.4-6.8.9-17.5,2.1-35,2.7-52.6a192.41,192.41,0,0,1,6.1-40.8c5.9-23,12.5-45.9,18.8-68.8,1.3-4.7,2.1-9.6,3.8-14.2,7.5-20.5,17.3-39.8,31.2-56.8a51.26,51.26,0,0,0,3.3-5.1c-8.4.8-14.5,2.8-16.7,10.7-.6,2.2-1.1,4.4-1.8,6.5-1.6,4.6-2.6,9.6-5.2,13.6-2.9,4.3-7.3,7.6-11.2,11.1-1.3,1.2-3.1,3.3-4.8,1.3s.6-3.2,1.9-4.5c3.5-3.4,7.3-6.6,10.5-10.3,3.5-4.1,4.7-9.1,4.3-15.7-2.3,1.9-3.6,2.8-4.8,3.9-8,8-16.2,15.9-23.8,24.3a165.49,165.49,0,0,0-15.8,20.6c-12.4,19.2-21.9,40.1-34.8,59-3.8,5.6-6,12.6-8,19.2-5.5,18-9.6,36.6-16.1,54.3-7.4,20.4-7.4,41.1-6.2,62,.8,12.2,2.5,24.4,3.8,36.6,1.2,10.9,2,21.8,3.5,32.7,1.2,8.6,3.5,17,5,25.6,1.9,10.8,7.2,19.8,14.2,27.9,8.3,9.5,18.6,16.6,28.9,23.6,19.9,13.4,41.8,17.7,65.3,12.6a8.51,8.51,0,0,1,2.2-.4c3.9-.4,6.6.9,7.4,3.7s-.7,5.8-3.8,7.4a37.16,37.16,0,0,1-4.4,2c-1.1,3.6-1.6,6.6-2.8,9.2-3.7,7.8-8,15.4-11.5,23.3-3.9,8.8-7.9,17.6-10.5,26.8-5.1,18.1-6.8,36.8-6.3,55.5a88.91,88.91,0,0,1-3.3,25.7,15.85,15.85,0,0,1-4.3,7.1,42.35,42.35,0,0,0-7,8.8c-4.8,8.5-9.5,17.2-13.8,26-3.8,7.8-7.8,15.6-10.5,23.8-3.7,11.5-6.4,23.3-9.4,35-4.4,17.1-5.3,34.7-5.5,52.3-.1,5.6-.7,10.8-3,15.9-2.6,5.5-5.2,10.9-7.5,16.5-6.6,16-16.7,30-25.3,44.8-5,8.6-12,15.4-21.8,18.9a114.92,114.92,0,0,0-17.4,8.2,127.72,127.72,0,0,1-22.6,10.3C283.5,1264.8,280.4,1266.4,277.2,1267.8ZM394.6,55.7c-5.5,1.8-10.8,3.7-16.2,5.4C359.8,66.8,342.5,75,327.1,87c-11.3,8.8-22.4,17.9-33.5,27a79.16,79.16,0,0,0-9.4,8.9c-10.3,11.8-20.3,23.8-30.4,35.8-4.6,5.5-9.3,11-13.8,16.6q-14.55,18-29,36.2c-4.3,5.5-9,10.8-12.3,16.9-8,14.6-15.2,29.6-18.8,46a63.74,63.74,0,0,0-1.2,15.1c.1,4.7,3.4,6.6,7.9,5.1,1.2-.4,2.3-1.2,3.6-1.7,8.1-3.1,16.2-6.1,24.2-9.3a94.66,94.66,0,0,0,11.1-5.4c2.3-1.3,4.2-3.2,6.4-4.6,13.3-8,26.5-16,39.9-23.7A160.35,160.35,0,0,0,310,220c7.3-7.8,15.6-14.4,25.4-18.6,25.4-10.8,52-15.8,79.6-12.8a63.77,63.77,0,0,1,24.3,7.2c5.5,3,10.1,7.1,11.1,13.5,1.4,9.3.9,18.5-5,26.5a28.22,28.22,0,0,0-2.6,4.4,32.22,32.22,0,0,1-15.5,15.2c-9.4,4.2-19.1,8-28.9,11.6-8.7,3.2-17.9,5.1-26.3,8.7-22.1,9.6-44.1,19.8-63.9,33.8-2.8,2-5.8,3.5-8.6,5.5-3.6,2.5-7.2,4.9-10.5,7.7-11.7,10.4-23.4,20.8-34.9,31.4-9,8.3-17.8,16.9-24,27.8-2.6,4.5-4.3,9.3-3.7,14.6.5,5.1,2.4,9.9,7.1,12.2,8.6,4.1,17.8,4.4,26.1-.6,9.1-5.4,17.8-11.4,27.7-15.3a12.29,12.29,0,0,0,2.5-1.4,214.3,214.3,0,0,1,34.8-17.6c15.5-6,30.9-12.1,46.4-18.1,5.4-2.1,11.1-3.9,16.2-6.8,7.2-4.1,14.1-8.8,20.9-13.6,8.1-5.7,16.6-10.5,26.2-13.2,10.7-3,21.5-5.8,32.1-8.9,6.3-1.8,12.5-4,19.1-6.2-.3-7.1-.1-14.1-1.1-20.9-2.6-17-5.7-33.9-8.7-50.8-2.3-12.4-4.7-24.9-7.3-37.2-1.7-8.5-3.2-17.1-5.7-25.3-5.1-16.8-12.9-32.1-24.5-45.5-8.1-9.2-15.3-19.2-22.6-29.1-6.8-9.1-12.8-18.7-16.7-29.4C397.4,64.7,396.1,60.4,394.6,55.7Zm349.1,790c-5.7,3.8-11.7,7.6-17.5,11.7-8,5.7-15.4,12.3-23.6,17.6-18.2,11.8-35.7,24.8-55.6,33.6-2.4,1.1-3.1,2.8-3.2,5.4-.2,10.1.6,20,4.6,29.4,2.2,5.2,4.6,10.4,7.1,15.4,7.3,14.7,14.9,29.3,22.1,44,7,14.5,14.6,28.6,27.7,38.8a6.64,6.64,0,0,1,2.6,7c-1.8,8.9-.4,17.7.6,26.5.9,7.8,2,15.7,5.2,23.1,6.2,14.4,12.2,28.9,18.2,43.3,7.4,17.8,16.7,34.2,31.2,47.4a60.55,60.55,0,0,1,15,22.5c3.9,9.9,5.5,20.1,2.3,30.5-3.9,12.6-11.5,22.9-21.7,31.2-13.9,11.3-28.1,22.3-42.1,33.5-1.4,1.1-2.6,2.5-3.9,3.7,7-1.6,13.9-3.1,19.8-6.5,8-4.5,16.7-7,25-10.5,4.2-1.8,8.4-3.4,12.5-5.2,3.2-1.3,6.2-1.8,9,.8,2.3,2.1,2.5,5.7.5,9.5-1,2-2.5,3.8-3.6,5.7-4.7,7.7-9.4,15.5-13.9,23.3-.5.9-.5,2.2-.8,4.1,1.8-1.1,2.8-1.5,3.7-2.2,5.8-4.2,11.4-8.7,17.4-12.6,6.8-4.4,12.6-9.5,16.7-16.5,1.8-3.1,4.4-5.3,8.3-4.6,3.1.6,5.2,3.7,5.6,8.3.2,2.6.2,5.3.3,7.9,0,4.5,0,9.1.1,13.6,0,1.9.4,3.8.6,5.8.5,0,1-.1,1.5-.1v-12.2a77,77,0,0,1,.3-9.6,6.38,6.38,0,0,1,4.7-5.8,6.79,6.79,0,0,1,7.1,2.4,42.41,42.41,0,0,1,3.8,5.6c3.1,4.5,6,9.2,9.2,13.6,1.3,1.8,2.7,4.2,5.8,4.1a9.75,9.75,0,0,0,.2-2.3c-.7-12.2-1.3-24.5-2.1-36.7-.5-7.3-.8-14.8-2.3-21.9-1.7-7.7-4.8-15.1-7.2-22.6-2.9-9.2-5.9-18.3-8.2-27.6-2-7.9-3.1-16.2-1.2-24.1a51.69,51.69,0,0,0,1.2-15.6c-1-13.3-.4-26.9-4.1-39.9-5.6-19.8-11.2-39.6-17-59.3a85.94,85.94,0,0,0-12.8-25.7c-4.9-6.9-9.3-14.2-13.7-21.5-3.5-5.8-3.8-11.6-1.5-18.3,4.8-14.1,8.9-28.5,12.4-42.9a67.83,67.83,0,0,0,0-30.4c-2.6-12.3-6-24.5-9.5-36.7-2.3-8-4.2-16.2-9.2-23-4.8-6.6-9.8-12.9-14.9-19.3C752.6,856.4,748.5,851.5,743.7,845.7ZM484,666a8.44,8.44,0,0,0,1.9-.2c5.6-2.4,11.2-4.4,17.5-4,1.6.1,3.5-1.3,4.8-2.4a86.68,86.68,0,0,0,7.8-8.2c7.9-8.9,14.3-18.5,16.8-30.3,2.1-9.8,4.9-19.4,7.2-29.1a38.63,38.63,0,0,0,.7-9c-.1-6.9-4.1-10.2-11-9.3-3.2.4-6.3,1.2-9.5,1.5a3.28,3.28,0,0,1-2.7-1.5,3.64,3.64,0,0,1,.5-3,13.15,13.15,0,0,1,2.5-2.2c5.4-4.4,10.4-9.3,14-15.4,5.9-9.9,12.2-19.6,17.6-29.7a43.09,43.09,0,0,0,4.2-14.6c.7-6.5.1-13.2.2-19.8a7.06,7.06,0,0,0-5.2-7.3,82.93,82.93,0,0,0-9.9-2.1c-4.8-1-5.8-2.7-3.5-7.1q8.25-16.35,16.8-32.7c2.7-5.2,4.2-10.5,3.6-16.3-.8-6.9-4-10.4-10.9-10.6-12.9-.4-25.7,0-38.1,3.8a11.66,11.66,0,0,0-5.6,3.5c-8.6,10-17.4,19.9-25.1,30.6-5.7,7.9-10.2,16.7-14.6,25.5-3.4,6.9-5.9,14.3-8.6,21.5-.9,2.6-1.2,5.4-2,9.4,4.3-2.4,7.4-4.1,10.4-5.9,5.7-3.4,11.7-3.9,18-2.5,1.3.3,2.5.8,3.8,1,12.8,2.1,28.1,19.9,26,36.2-.9,6.5-2.7,12.9-4.3,19.3-.2.9-1.7,1.5-2.7,2.2-.4-.9-1.3-1.9-1.2-2.8.4-3,1.1-5.9,1.7-8.9.8-3.9,2.3-7.8,2.3-11.6,0-12.7-6.3-22.2-17.2-27.9-8.6-4.5-17.8-6.1-26.8.3-3.2,2.3-7.2,3.5-12.1,5.8-4.5,16.4-9.3,34.1-14.3,52.5a25.58,25.58,0,0,0,3.6-.2c4.9-1.2,10-2.2,14.8-3.8,9.2-3,18.6-2.7,28.1-2.4a9.08,9.08,0,0,1,8,4.6,28.33,28.33,0,0,1,3.1,6.6c2.5,9.3,4.9,18.6,7.1,28a71.44,71.44,0,0,1,1.4,11.2,2.34,2.34,0,0,1-1.4,2,2.41,2.41,0,0,1-2.2-1.2,20.25,20.25,0,0,1-1.1-4.4c-1.5-7.4-2.8-14.9-4.5-22.2-1.2-5.1-2.9-10.2-4.6-15.2-1.1-3.2-3.3-5.4-7.1-5.4-8.9-.2-17.7-.1-26.4,2.5-6.3,1.9-12.8,3.2-20.1,5-.9,3.8-2.1,8.2-3,12.5s-1.7,8.9-2.2,13.4c-.5,4.3-3,8.5-.8,13.2a23,23,0,0,0,2.3-1.2c19.6-13.6,20.4-12.7,42.7-12.7h1.1c6.9.2,9.8,2.7,11.5,9.4,1.3,5.3,2.5,10.7,4.1,15.9,2.9,9.4,2.8,19,2.5,28.6a13.59,13.59,0,0,1-1.5,4.7,1.86,1.86,0,0,1-1.9.7c-.5-.1-1.1-1-1.2-1.6s.2-1.5.2-2.2c.9-10,.6-20-2.4-29.7-1.5-5.1-2.7-10.2-4-15.3-1.2-4.7-2.6-6-7.4-6.1s-9.8,0-14.7,0a26.78,26.78,0,0,0-14.6,4,94.33,94.33,0,0,0-10,6.4c-4.7,3.8-9.1,7.7-8.9,14.7.2,7.7,0,15.5,0,23.2,0,.5.4,1,.8,1.9,3.4-2.7,6.6-5.1,9.7-7.8a18.75,18.75,0,0,1,13.5-4.8c2.3.1,4.5.5,6.8.5,6.2,0,10.9,2.9,14.5,7.6,4.2,5.3,8.5,10.7,9.7,17.7A8.66,8.66,0,0,0,484,666ZM599.3,903a110.24,110.24,0,0,0,21.5,0c4-.5,7.8-1.4,10.5-4.9a4.82,4.82,0,0,1,6.1-1.5,7.9,7.9,0,0,0,7.6-.5c6.9-3.9,13.8-7.7,20.6-11.8,16.1-9.8,32.1-19.9,47.1-31.5,3.5-2.7,4.9-5.5,3.5-9.7-2.6-8.1-5-16.2-7.8-24.2a55.5,55.5,0,0,0-4.6-9.1,9.64,9.64,0,0,0-8.8-5.2c-3.2,0-6.4-.1-9.6,0-7.5.1-10.1,2.2-11.7,9.5a20.18,20.18,0,0,1-.9,4.4,3.58,3.58,0,0,1-2.6,1.6c-.6.1-1.6-1-1.8-1.8-.4-1.6-.4-3.4-.7-5-.8-5.1-2.8-9.7-7.9-11.6-8.8-3.2-17.4-2.8-25.1,3.4-2.3,1.9-4.6,3.8-7.4,6,.4,2.9,1,6.2,1.5,9.5.5,3.6,1,7.1,1.2,10.7.2,3.4.1,6.8.2,10.2s-.7,7.1,1.3,11.4c1.4-1.7,2.4-2.9,3.3-4.2,1.7-2.3,3.2-4.6,5.1-6.8,3-3.5,7.1-4.3,11.4-3.4,8.6,1.9,14.5,7.1,17.2,15.5,1.6,5,3,10.1,4.3,15.3a19.56,19.56,0,0,1,0,4.2c-3.2-.2-3.8-2-4.3-3.8-1.3-4.3-2.4-8.7-3.7-13.1-1.9-6.4-5.6-11-12.2-13.1-5.4-1.7-8.3-1.2-11.4,3.4-3.5,5.1-6.6,10.6-9.6,16-2.4,4.3-2.1,9.1-2.1,13.9,0,2,.5,4.4-3.4,4.8a37.51,37.51,0,0,1-.9-5.7c.1-8.3.6-16.5.5-24.8-.1-9.4-.4-18.9-1.2-28.3a73.82,73.82,0,0,0-3.5-16c-1.9-5.8-9.8-10.7-15.1-10-6.3.8-8.3,5.9-10,11a27.59,27.59,0,0,0-.8,2.7c-.8,4.3-1.5,8.6-2.5,12.8-.2,1-1.5,1.8-2.3,2.7-.8-.9-2.1-1.8-2.2-2.8a80.33,80.33,0,0,1,0-8.5c-.1-8.4-3.5-15-10.7-19.4-3.5-2.1-7.4-3.7-11.1-5.7-4-2.1-7.6-1.4-11.1,1.2-4.9,3.7-9,8.1-11.2,13.9-1.2,3-3.3,5.3-5.2,7.8-2.7,3.6-3.9,8.4-5.5,12.8-.3.8.4,2.3,1.1,3.1,5.5,7.1,7.5,15.5,8.9,24.2a49.13,49.13,0,0,0,1.5,5.1H546c1.1-4.1,2.1-8.3,3.4-12.4a71.32,71.32,0,0,1,3.6-10.1c2.1-4.7,5.8-7.1,11.2-7.2,5.7,0,11.3.2,16.8,1.8a18,18,0,0,1,12.2,10.9,57.26,57.26,0,0,1,2.7,9.2,153.81,153.81,0,0,1,3.2,37.7C599.2,892.8,599.3,897.5,599.3,903ZM545,894.9c-3.7-2.4-3-5.1-2.9-7.4.4-11.4-1.2-22.6-2.7-33.8-1.9-14.5-9.3-25.7-19.1-35.7-3.3-3.3-6.2-4-10.1-1.5a34.92,34.92,0,0,0-8.4,7.4c-3.9,5-7.3,10.5-11.2,16.3.6,1,1.4,2.5,2.3,3.9,2.1,3.1,4.4,6.1,6.4,9.3,7.8,12.3,16.1,24.2,26.2,34.8,4.9,5.2,10.3,9.4,17.7,10.3,3.7.5,7.4,1.2,11.2,1.6,11.3,1.2,22.5,2.3,33.8,3.3,2.1.2,4.3-.4,6.8-.6-.5-14.4,1.1-28.2-1.5-41.9-1.1-5.9-2.4-11.8-4-17.6a12.3,12.3,0,0,0-8-8.3,43.12,43.12,0,0,0-17.8-2.3,6.67,6.67,0,0,0-5.9,3.8,60.88,60.88,0,0,0-3.7,8.8c-1.7,6.2-2,13-4.9,18.5-3.2,6-2.6,11.9-2.8,18-.1,2.8.1,5.7-.1,8.5C546.3,891.6,545.6,892.9,545,894.9Zm62.5-549.6a7.56,7.56,0,0,0,1.6,1.4c4.6,2.2,9.4,4,13.8,6.5,6.8,3.9,11.5,9.6,12.9,17.7.3,1.6.8,3.2,1.3,5,6.7,0,13.3-1.8,19.1,2.1,5.5,3.6,8,9.6,11.2,15.9,2.2-2.5,3.9-4.4,5.5-6.4,2.3-2.8,4.6-5.7,8.4-6.4a66.5,66.5,0,0,1,14-1.4c11.6.7,19.5,9.9,19.6,21.5,0,8.1-3.3,15-6.9,21.9-2.2,4.2-1.9,5.7,1.8,8.5a29.5,29.5,0,0,0,13,5.2c4.5.7,4.7.8,6.1-3.5,3.2-9.7,6.6-19.3,12.2-28,.6-1,.3-2.8.1-4.2a19.15,19.15,0,0,0-1.5-3.7c-3.2-8.6-8.1-12.1-17.3-12.6-2-.1-4.2.3-5.6-2.4,1.1-.6,1.9-1.4,2.9-1.6A20.88,20.88,0,0,1,743,393.7c.6,1.5,1.3,2.9,2.4,5.4,3-3.6,5.6-6.3,7.6-9.4a81.33,81.33,0,0,1,38.7-31,37.4,37.4,0,0,0,4-2.4c-5.1-3.7-9.6-7.1-14.3-10.2a2.57,2.57,0,0,0-4.1,1.4c.9,2.7,5.4,2.6,4.8,7.2-1.4-.3-3-.1-4-.8-6.7-4.7-13.4-3.1-19.8.3-8.1,4.4-16,9.3-24,14-1.6.9-3.3,3.8-5.1,1.2-1.5-2.1,1.1-3.7,2.8-4.8,2-1.4,4.1-2.7,6.2-3.9,2.9-1.7,5.9-3.3,8.8-5.1.8-.5,1.2-1.4,2.3-2.8-5,.5-9.1,1.2-13.2,1.2-23,.2-46.1.3-69.1.2a53.91,53.91,0,0,1-10.6-1.3c-6.3-1.2-12.4-3.4-18.8-4a131.35,131.35,0,0,1-21.7-3.8C613.4,344.7,610.7,344.1,607.5,345.3ZM959.1,866.7c-5.9,3.4-10.9,6.3-15.9,9.2-4.7,2.7-9.7,4.4-15.1,3.9-8.1-.7-16.1-1.8-24.2-2.6-1.9-.2-3.9-.3-5.6-.5.5,14.6,1.7,28.5,1.2,42.4s-3,27.5-4.7,42.6a45.44,45.44,0,0,0,4.3-4.1c3.6-4.6,7.1-9.3,10.6-14,1.1-1.5,2.3-3.7,4.3-2.7,1.3.7,1.7,3,2.4,4.6a3.75,3.75,0,0,1,.1,1.1,151.51,151.51,0,0,0,2.9,34.9c.4,1.9,0,4.1,2.8,5.6,1.1-2.9,2.5-5.4,3-8,1.6-7.8,3.2-15.6,4-23.4.5-4.8,0-9.7-.4-14.6-.2-2-1.5-4.5,1-5.4s3.4,1.8,4.4,3.5c3.2,5.6,6.2,11.2,9.5,16.7a73.32,73.32,0,0,0,6.8,9.7c1,1.2,3.2,1.4,4.8,2.1.6-1.5,1.6-2.9,1.7-4.4.2-5.5.1-10.9.1-16.4.1-8.7.2-17.4.5-26,.3-7.3,1.2-14.7,1.3-22C959.3,888.4,959.1,878.1,959.1,866.7Zm-507.9-83c12.3,17.1,24.4,34.1,37.2,51.8,1.9-2.6,3.5-4.6,4.9-6.7,3.5-5.3,6.5-11,12.2-14.7,7.6-4.9,12.8-4.4,19,2,1.6,1.6,3.5,3,5.8,5,1.3-3.6,2.1-6.3,3.2-8.8,5.7-13,5.1-26.1,1-39.3a17.42,17.42,0,0,0-8.7-10.6c-1.7-.9-3.3-1.8-5-2.7-8-4.1-16.7-2.6-23.2,3.8.7,3.9,1.6,7.7,2.1,11.6,2,17.9-4,34.3-9.4,50.8-.4,1.2-1.5,2.2-2.3,3.4-2.7-1.9-1.8-3.9-1.3-5.6a96.14,96.14,0,0,1,3.6-11.9c4.5-11.3,5.6-23,5.3-35-.3-12.2-4.3-16.3-16.3-15.2-9.1.9-17.2,4.2-22.1,12.8C455.2,777.3,453.4,780.2,451.2,783.7Zm270.5,61.4c4.7-2.9,8.8-5.4,12.8-8,1.8-1.2,1.5-2.9,1-4.6-2.4-8.6-5.4-16.9-11.2-23.9a35.91,35.91,0,0,1-4.5-6.5c-3.4-6.9-9-12.1-14-17.6a32.13,32.13,0,0,0-5.5-4.9c-9.6-7.2-14.9-6.6-22.6,2.4-1.6,1.9-2.7,5.3-6,4-2.9-1.1-2.4-4.4-2.7-7-.7-5.8-1.6-11.6-2.1-17.4-1.1-10.8-17-13.4-23-8.7-5.5,4.3-10.1,9.3-11.7,16.2-2.5,10.8-4.5,21.8-6.6,32.7-.3,1.4.3,3,.6,4.6.4.2.7.4,1.1.6,5.6-7.4,13-10.9,22-11.2,9.2-.3,17,2.5,21.8,11,6.5-6.3,6.5-6.3,15.9-6.3,2.3,0,4.5.2,6.8,0,7.2-.5,11.9,2.9,14.8,9.1,2.6,5.6,5,11.4,7.2,17.2C717.8,832.5,719.5,838.4,721.7,845.1ZM576.1,364a10.9,10.9,0,0,1,.1,1.2,6.71,6.71,0,0,0,.9,1.4c8.9,8,12.4,18.5,14.4,30,1.7,10-1.3,17.9-8.6,24.9-4.5,4.2-7.9,9.6-11.6,14.5-.7.9-.8,2.3-1.3,3.9,8.1.1,15.8.9,22.1-4.3,4.9-4.1,9.5-8.6,14.2-12.9,11.8-10.9,18.4-25.2,24.5-39.6,2.8-6.9,1.6-13.6-2.9-19.8-3.3-4.5-8.1-6.6-12.6-9.3-6.4-3.8-12.9-3.6-19.6-1-1.6.6-3.2,1.1-4.8,1.7A67.42,67.42,0,0,0,576.1,364Zm10.6,370.7a20.05,20.05,0,0,0,1-2.8,89,89,0,0,0-2.9-25.7,9.78,9.78,0,0,0-3.4-5c-5.2-4-11.1-7-17.7-6.2-11.6,1.4-21.6,6.3-29,15.8a7.22,7.22,0,0,0-.6,8.8,46.71,46.71,0,0,1,6.3,20.9c0,1,.6,2,1.1,4,3.9-3.5,7.2-6.4,10.5-9.4,9.9-8.9,20.8-9.7,31.8-2.2C584.6,733.4,585.4,733.8,586.7,734.7Zm-64.6-53.9v25.8c2.1,1.1,4.5,2.4,7.2,3.8,9.5-13.2,22.9-18.6,37.7-20.7,5.7-12.4.4-22.9-5.7-32.7-3.5-5.6-8.2-6-13.7-2.2-6.5,4.6-13,9-17.4,15.9C528.3,673.8,525.6,676.5,522.1,680.8ZM758.8,824c.5-4.1.7-7.5,1.4-10.7,1.4-6.4,2.8-12.9,4.7-19.2,2.8-9.6,3.2-18.8-1.1-28.1-2.3-4.9-3.4-10.4-5.3-15.5s-4.1-10.1-6.2-15.2a19.26,19.26,0,0,0-2.5-3.4c1.2,7.9,2.6,15.1,3.2,22.4,1,11.8,1.7,23.7-1.8,35.4-3.8,13-7.4,26.1-11,39.2-.3.9.1,2,.2,3.8C747.2,829.5,753.4,826.6,758.8,824ZM524.7,103c1.5,4.7,1,8.1-3.6,10.2a125.38,125.38,0,0,0-12.5,6.7,15.29,15.29,0,0,1-11.4,1.9c-2.7-.6-4.4-2-4.2-5.1a29.85,29.85,0,0,0,0-3c-4.3.5-8.4,2.2-11.8-.9-4.8,4.9-7.8,12.9-7.3,19.2,2.4-1.1,4.6-2.7,7-3.1,8.3-1.6,16.7-3,25.1-4.1,10.3-1.4,20.5-3.1,30.2-7.1,2-.8,4-1.5,3.6-4.2-.8-4.6-1.7-9.2-4.6-13.8C531.8,100.7,528.5,101.8,524.7,103Zm-40.9,33.1-.3,1.5c1.7.6,3.3,1.5,5,1.7,4.5.6,9,.9,13.5,1.2,8.4.7,16.6-.8,24.5-3.4,3.7-1.2,6.9-3.7,10.2-5.9,1.9-1.3,3.2-3.1,2.1-6.6C521.1,131.7,502,131.7,483.8,136.1ZM786.5,809.3c-3.3-3.4-6.3-6-8.7-9s-4.3-6.6-7.2-10.9c-3.4,11.5-6.2,21.6-7.6,32.7C772.3,819.9,779.2,815.2,786.5,809.3ZM532.3,91.9c-.6-3.4-2.6-4.8-5.2-4.8a33.63,33.63,0,0,0-10,.9c-10.4,2.8-18.6,9.6-27.1,15.9-.4.3-.5,1-1,2.2,7.9-2.6,14.9-5.2,22.1-7.3S525.7,95.7,532.3,91.9ZM499,116.5c4.8,1.3,14.6-3.1,20.1-9a77.51,77.51,0,0,0-9.3-.6c-1.1,0-2.8,1.1-3,1.9-.7,3.1-3.2,4-5.4,5.4C500.6,114.8,500,115.6,499,116.5ZM464.5,646c-2.9-3.2-2.9-3.2-9.2-3.9s-6.5-.7-10.1,2.2C452,644.9,458.2,645.4,464.5,646Z"/><path d="M193.9,1087.8a26,26,0,0,0,2,5c3.7,6.1,7.6,12.1,11.3,18.3,2.9,4.8,5.8,9.7,8.6,14.6,2,3.4,3.7,7,5.9,10.3,4.2,6.6,4.6,13.8,3.9,21.3-.2,2.2-.7,4.5-1.1,6.7-2.2,12.5-12.8,14.8-22.4,12.9-4.3-.9-7.3-3.8-7.6-8.1-.9-12.8-2-25.8,4.7-37.6a26.65,26.65,0,0,1,4-5.5c.7-.7,2.1-.8,3.2-1.1a6.47,6.47,0,0,1,.8.9,33.56,33.56,0,0,1-2.2,4.2,39.2,39.2,0,0,0-6.7,23c.2,4.3-.1,8.7.1,13,.2,5,2.5,7.4,7.4,7.4,9.8,0,12.9-2.8,14.6-10.8,2.3-10.9,1.1-21-6.2-29.9a11.18,11.18,0,0,1-2.4-4.4c-.9-4.8-3.6-8.8-6.6-12.4-7.8-9.4-13-20.3-18.5-31.1-2.2-4.3-5-8.4-7.6-12.6s-6.6-6-11.3-6.7c-4.2-.6-8.5-1.3-13.2-.3.6,1.5.8,2.6,1.3,3.5,5.2,8.3,7.9,17.6,9.9,27a21.71,21.71,0,0,0,6.1,11.2c7.2,7.4,7.8,15,2.5,24-4.1,6.9-9.9,11.7-17,15.3-6,3.1-10.5.7-10.9-6.2-.7-10,2.7-18.7,9.2-26,3.8-4.3,5.8-8.4,5.5-14.6-.6-12.4-4.9-23-12.2-32.7-1.6-2.1-9-3.1-10.8-1.2a5.58,5.58,0,0,0-1.2,3.6c.1,9.6.4,19.2.7,28.9.1,2.5.3,4.9.3,7.4,0,12.3-.1,24.6.1,36.8.3,25.9,1.2,51.7.9,77.6-.2,18.2-3.6,36-11.4,52.8a42.2,42.2,0,0,0-4.3,17.5c-.2,7.7-.7,15.5-1,23.2-1.1,24.1,7.1,45,21.1,64.3a315.51,315.51,0,0,0,25.6,30.9c4.1,4.4,8.8,8.2,13.2,12.4a29.06,29.06,0,0,1,2.9,4.1c-4.1,1.8-5.6-.8-7.4-2.4a233,233,0,0,1-26.7-27.7c-9.3-11.7-18.3-23.6-24.4-37.3-5.8-12.9-9.2-26.4-8.6-40.6.4-10.2.4-20.4,1.4-30.5a51.3,51.3,0,0,1,4.5-15.7c7.3-16.1,10.2-33.2,10.9-50.6.4-9.4.2-18.9.1-28.3-.3-29.3-.7-58.5-1.1-87.8-.3-23.6-.6-47.2-1.1-70.8-.1-4.2-1.5-8.5-2.3-12.7-1.3-6.8-3.5-13.6-3.9-20.5-.9-13.2-.7-26.4-1.2-39.6a147.37,147.37,0,0,0-1.4-17.5c-2.7-17.3-1.5-34.6-.3-52a250.26,250.26,0,0,0,.3-30,34.45,34.45,0,0,0-3.8-14.1c-4.8-9.4-5.9-19.4-6.4-29.6-.3-6.2-.8-12.4-1.2-18.6a14.6,14.6,0,0,0-.3-2.2c-.5-1.9-1.4-3.7-3.7-3.6-2.1,0-2.9,1.7-3.2,3.4-1.2,7.3-2.7,14.5-3.3,21.8-.6,7.5.1,15.1-.2,22.7-.2,7.2-.9,14.3-1.4,21.4-.2,3.2-.6,6.4-.5,9.6.6,19.7-1.2,39.2-2.5,58.8-.5,8.5-2.5,16.8-3.2,25.3-1.3,14.5-1.7,29,.7,43.5,1.7,10.2,3.3,20.5,5.6,30.6s5.8,19.9,8.3,30c3.6,14.4,7.7,28.8,6.9,44-.4,7.5-.1,15.1-.1,22.7.1,11-1.9,21.7-4.1,32.5a188.35,188.35,0,0,0-4.1,30.8c-.7,15.8.1,31.7-.3,47.6-.3,14.9-1.2,29.8-1.8,44.7a26.39,26.39,0,0,0-.1,4c.5,9-1,17.6-3.4,26.3-4.9,18-9.7,36.1-16.4,53.6-2.2,5.8-4,11.8-5.9,17.7-3.5,10.7-8.9,20.4-14.7,29.9-1,1.7-2.1,5-4.8,3.2-2.2-1.5,0-3.8,1.1-5.4,7.5-11.5,12.8-23.9,17.1-36.9q7.8-23.7,15.1-47.5c2.3-7.4,4.2-14.9,5.9-22.5a65.73,65.73,0,0,0,1.5-11.7c.8-14.3,1.5-28.6,2.1-43,.3-7,.2-14,.2-21v-36.3c.1-12.5,2.2-24.7,4.7-37a211.12,211.12,0,0,0,3.6-27.5,242.9,242.9,0,0,0,0-28.3,132.68,132.68,0,0,0-2.8-21.8c-3.3-14.1-7.7-28-10.9-42.2s-6.5-28.5-7.9-42.9c-1.4-14.8-1.5-29.8.8-44.7a475.88,475.88,0,0,0,5.1-77.3,27.2,27.2,0,0,1,.2-5.7c2.8-14.4,2.1-29,2-43.5a106.81,106.81,0,0,1,3.4-27.5c1.4-5.4,2.3-6.3,6.4-6.4,4.8-.1,7.9,1.8,8.6,6.5,1,6.1,1.1,12.4,1.7,18.6.7,7.5,1.5,15,2.5,22.4a21,21,0,0,0,2.4,6.3,54.62,54.62,0,0,1,5.7,23.5c.1,13.2-.6,26.4-1.7,39.6-.9,10.3.1,20.7.6,31.1.5,10.7,1.6,21.4,2.2,32.2.6,11.3.4,22.7,1.3,33.9.5,5.9,2.5,11.7,3.8,17.6.8,3.7,1.9,7.3,2.1,11,.3,7.9.1,15.9.2,23.8.1,5.3.5,5.7,5.9,5.8,5.7.1,11.3-.2,17,.1a55,55,0,0,1,12.8,1.9,18,18,0,0,1,7.9,5.1,70.19,70.19,0,0,1,8.1,11.5c1.6,2.8,3.2,4.4,6.6,3.9a17.26,17.26,0,0,1,11.9,2.8c4.4,2.8,9.1,3.9,14.3,4.6,15.5,2.1,28.1,9.3,36.3,23.2a56.43,56.43,0,0,1,8.2,28.5c0,7.3-2.9,10.3-10.3,10.4a42.63,42.63,0,0,1-10.1-.8c-7.4-1.6-11.3-6.6-11.9-14a51.38,51.38,0,0,1,.2-12.4c1.7-10.9-2.2-19.1-11.5-24.3-8.5-4.8-17.5-8.7-26.3-13C195.7,1087.3,195.3,1087.6,193.9,1087.8Zm30,7.6c2.3,2.1,3.7,3.2,5,4.5a72.88,72.88,0,0,1,5.3,5.8c4.7,6,4.4,13,3.7,20a60.81,60.81,0,0,0-.2,11.3c.5,5.2,3.3,8.8,8.5,10a30.83,30.83,0,0,0,6.7.9c7.3.1,8.9-1.5,8.4-8.6-1.4-17.5-8.8-31.4-24.4-40.3C233.4,1096.9,229.6,1095.7,223.9,1095.4ZM166,1107.8c-3.2,3.9-6.3,7.4-9,11.2-4.2,5.9-6.8,12.6-6.3,20,.2,3.1,1.9,4.3,4.4,3.1,7.6-3.5,13.7-8.7,16.9-16.5C174.8,1118.7,175.1,1113.4,166,1107.8Z"/><path d="M231.2,852.2c3.3,4.5,7.1,8.8,9.9,13.7,4.3,7.5,8.1,15.4,12,23.1.8,1.6,2.7,3.7.6,5-2.6,1.6-3.4-1.4-4.3-3.1-3.5-6.5-7.3-12.8-10.2-19.6-5.3-12-14.1-19.9-26.2-24.3-11.4-4.2-22.9-7.7-35-9-8.9-1-17.2,1.4-25.5,4.2a10.72,10.72,0,0,0-2.4,1.7,75,75,0,0,0,6.6,6.2c2.8,2.1,3.3,4.9,3.4,8,.1,6.8.2,13.6.1,20.4a32.43,32.43,0,0,0,6.1,19.1c3.5,5.1,8.1,5.5,12.2.9,2.8-3.1,4.4-6.8,6-10.8,4.2-11-1.1-19.4-6.3-28-2-3.3-5.5-4.4-8.8-5.9-2.1-.9-4.9-1-5.8-4.3.7-.4,1.4-1.1,1.9-1,6.7,1.2,12.9,3.3,16.6,9.4a117.62,117.62,0,0,1,5.7,10.4,22.9,22.9,0,0,1,1.7,15.9c-1.4,5.8-2.7,11.4-6.9,15.8a20,20,0,0,1-6.2,4.7c-5.3,2.3-8.9,1.2-12.4-3.4a37.12,37.12,0,0,1-8.1-23.1c0-7.2-.1-14.4-.1-21.5,0-3.1-.8-5.3-4.1-6.7-1.9-.8-3.4-2.8-5.3-4.3-5.4,1.7-8.8,8.1-16.2,7.7.8-1.6,1-2.9,1.7-3.4,4-2.9,7.9-5.8,12.1-8.3,13.4-8.2,27.9-10.3,43-7,11.4,2.4,22.8,5.3,33.3,10.8,3.8,2,7.4,4.5,11.1,6.7C231.4,852.4,231.2,852.2,231.2,852.2Z"/><path d="M35.4,917c1.1-6.7,3.2-15.5,8.6-23,5-7.1,10.3-13.9,15.8-20.7,5.7-7,9.8-14.8,11.4-23.7,1.7-9.1,6-17,11.5-24.3,2.4-3.2,4.7-6.4,7.2-9.4.7-.8,2.1-1,3.2-1.5.1,1.2.7,2.6.3,3.6a16.32,16.32,0,0,1-2.7,4.3c-8,9.1-14.1,19.1-16.2,31.2a12,12,0,0,1-.8,2.7c-2.5,5.9-3,10.7,4.1,14.3,3.9,2,5.7,6.8,5.8,11.2a78.7,78.7,0,0,1-1.1,16.8c-1.2,6.5-3.3,12.8-5,19.2-2.1,8-7,14.2-13.1,19.4-5.2,4.4-11.5,4.5-17,1.6C39.1,934.4,35.1,929.7,35.4,917Zm32.9-46.9a32.51,32.51,0,0,0-2.7,2.6C59.7,880.3,54,888,48.1,895.6c-4.9,6.3-6.5,13.9-8.4,21.4a14.43,14.43,0,0,0,.1,6.2c1,6.2,5,10.2,10.6,12.1,6,2.1,11.1,0,15-4.9,4.2-5.2,7.8-10.6,8.9-17.4.6-3.7,2.2-7.2,2.9-10.9a108.85,108.85,0,0,0,2.2-16.2C79.7,877.1,77,873.5,68.3,870.1Z"/><path d="M33.5,1134.9c-.5-1.1-1.4-2.2-1.4-3.2.2-11.1.1-22.3.8-33.4.7-10.2,5.6-19.2,10-28.1,4.9-10,10.6-19.6,16.2-29.2a77.14,77.14,0,0,1,18.1-20.9c2.7-2.2,6.2-3.5,9.4-4.9.9-.4,2.3.2,3.4.4.3,2.9-1.5,3.4-3.1,3.9-4.7,1.4-8.2,4.6-11.5,8a103.4,103.4,0,0,0-16.1,21.1c-4.2,7.2-7.9,14.6-11.8,21.9a24.91,24.91,0,0,0-1.4,3.9c3.6,3.2,7.2,6.2,10.7,9.3,7.2,6.5,14,13.3,16.4,23.2a50.33,50.33,0,0,1,1,5.6c0,.5-.7,1.6-1.2,1.6a3.88,3.88,0,0,1-2.3-.9,3.34,3.34,0,0,1-.8-2.1c-1.7-10.4-8.5-17.4-15.8-24.1-2.9-2.6-6-5.1-9.5-8.1a46.62,46.62,0,0,0-2.9,4.5,61.19,61.19,0,0,0-5.4,25.3c0,7,0,14-.1,21a32.84,32.84,0,0,1-.8,5.2Z"/><path d="M231.2,852.2l.2.2c.3-1.4.7-2.8,1-4,.9-.2,1.3-.5,1.6-.3,9.2,5.3,20.1,7.6,27.5,16.2,4.8,5.6,7.9,10.9,4,18.3a12.24,12.24,0,0,0,.4,12c1.4,2.5,2.6,5,4.1,7.4,4.1,6.7,10.5,8.1,17.7,7.4,3.3-.3,5-2,5.4-5.5,1-10-1.4-18.8-9.8-25.1-2.2-1.7-4.7-3.1-7.1-4.7-1.1-.8-2.1-1.7-3.4-2.8,2.3-2.6,4.3-1.7,6-.7,12.9,7.3,19.2,15.8,18.6,32.8-.2,5.9-4.6,10.8-11.9,10.8-10.7-.1-17.4-5.1-22-14-.4-.8-.7-1.8-1.2-2.6a16.81,16.81,0,0,1-.7-17.3c2.2-4.5,1-8.1-2.1-11.4-4-4.3-8.1-8.4-13.9-10.4C240.8,856.5,236,854.2,231.2,852.2Z"/><path d="M222.5,895.7a38.48,38.48,0,0,1-.1,6.8c-1,6.1.8,11,5.3,15.2,6.2,5.9,7,13.3,6.2,21.4-.7,6.9-8.1,13.6-14.2,14.2a10.89,10.89,0,0,1-6.7-2.1c-4.8-3.5-6.3-8.7-6.3-14.5,0-7.8,2.6-14.9,6.7-21.3,3.9-6,5.2-12.2,5-19.3-.3-10.8-.4-21.6-4-31.9-1-3-2.8-5.7-4-8.6-.4-.9-.1-2-.2-3.1,1.2.2,2.9,0,3.4.7A33.31,33.31,0,0,1,218,861c3.4,9.5,4.6,19.4,4.6,29.5-.1,1.8-.1,3.5-.1,5.2Zm-3.4,19.2a38.46,38.46,0,0,0-7.6,16.3,33.82,33.82,0,0,0-.3,9c.4,3.7,1.9,7.1,5.8,8.4s7.1-.9,9.3-3.8a17.88,17.88,0,0,0,3.2-7C231.7,928,226.3,921.4,219.1,914.9Z"/><path d="M66.1,1119.4c.6,2,1.3,3,1.1,3.9a15.21,15.21,0,0,1-1.6,4.2c-7.9,14.9-5.9,30.3-1.6,45.6,1.7,6.2,5,7.5,11.2,6.2,7.1-1.5,20.5-15,19.2-24.9-.5-3.5-1.3-6.6-3.9-9.1-2.8-2.8-6-5.3-8.4-8.4a78.35,78.35,0,0,1-7-11.5c-.5-.9.1-2.3.2-3.5.4-.2.8-.3,1.2-.5a15.89,15.89,0,0,1,2.8,3.6c2.7,6.3,7.5,10.8,12.4,15.3,8,7.5,9.3,17,3.7,26.5a39.34,39.34,0,0,1-14.5,14.7,18.4,18.4,0,0,1-10.3,2.3c-5.2-.2-8.3-2.8-10.1-7.5a58.69,58.69,0,0,1-3.9-19.9c-.1-3,.2-6.1-.1-9.1-1-9.3,2.6-17.4,7-25.2C63.8,1121.5,64.6,1121,66.1,1119.4Z"/><path class="cls-1" d="M1029.4,596.8v68.6a134,134,0,0,1-5.9,40.2c-5.3,17.1-9.3,34.6-14.6,51.8-8.1,26.4-18,52.1-34.9,74.5-6.8,8.9-13.6,17.7-22.6,24.4a172,172,0,0,1-15.3,9.7c-4.1,2.4-8.6,2.4-13.2,1.9a190.71,190.71,0,0,1-43.6-9.5c-7.1-2.5-13.8-6.1-20.4-9.7-7.8-4.2-15.4-8.9-23.1-13.3-16.4-9.4-29.4-22.8-42.6-36.2-6.9-7-10.8-15-13.8-24.2-6.6-20.1-13.3-40.1-22.9-59.1-5.2-10.2-8.7-21.3-13.8-31.6A235.5,235.5,0,0,1,724.5,635c-1.7-7.1-2.7-14.5-3.8-21.7-.9-5.4-1.6-10.8-2.2-16.3a102.37,102.37,0,0,1-1.1-13.5c.3-16,1-32.1,1.5-48.1,0-.6.1-1.1.1-1.7-.8-12.3,2.1-24,5.6-35.6,4.1-13.4,7.9-26.8,11.5-40.3,1.7-6.2,2.5-12.6,4-18.8A87,87,0,0,1,759,402c3.3-3.8,6.3-8,9.4-12.1,8.3-10.8,19.7-16.7,32.1-21.2,3.9-1.4,7.9-2.6,11.8-4.1,1.9-.7,4.2-1.4,5.5-2.8,5.7-6.1,12.8-5.5,20-5.1,3,.2,6,.8,9,.8a181.83,181.83,0,0,1,45.9,5.4c8.6,2.1,17.4,3.6,26,5.4a17.42,17.42,0,0,1,2.2.5c16.4,6,33.7,10.3,48.5,20,6.6,4.3,12.6,9.6,18.6,14.6,3,2.5,5.5,5.7,8.3,8.5,3.3,3.4,6.8,6.5,6.9,11.9,0,1.5,1.2,3.2,2.1,4.6a81.94,81.94,0,0,1,10.1,23.3c2.8,10.8,6.3,21.4,8.9,32.2a193.35,193.35,0,0,1,5.2,44.9q0,33.9-.1,68ZM869.2,455.7a41.36,41.36,0,0,1-2.9-5.5c-5.3-13.7-9.9-27.7-17-40.7-.4-.8-.7-1.7-1-2.4,4.7-.4,9.2-.2,13.5-1.1,6.1-1.3,12-3.4,18-4.9s11.8-2.6,17.7-3.7,12-1.8,17.8-3.1c3.7-.8,5.6-3.6,5.2-6.4-.4-3.2-3-5.2-7.1-5-3.2.2-6.4.8-9.5,1.2-11.6,1.5-23.1,3.5-34.2,7.3-5.6,1.9-11.8,2.2-17.7,2.9-3,.4-5.5,1.1-6.7,4.2a28.6,28.6,0,0,1-1.7,2.9,37.29,37.29,0,0,0-3.2-3.9c-6.9-6.2-13.7-12.4-20.8-18.3a13.29,13.29,0,0,0-7.1-3c-4.6-.5-7.2,3.9-5.2,8.1a39.84,39.84,0,0,0,2.4,3.8c-.9,1-1.6,1.9-2.4,2.7-5.9,6.1-10.2,13.3-11.8,21.6a65.47,65.47,0,0,1-9.3,22.9c-2.2,3.5-4.2,7.1-6.2,10.8a16.45,16.45,0,0,0-1.7,5.3c-.3,4.1,3.2,6.9,7,5.4a11.21,11.21,0,0,0,4.5-3.9,57.7,57.7,0,0,0,4-6.8c5.9-9.9,11.6-19.8,13.5-31.6,1.2-7.9,6.7-13.6,11.4-19.8,1,.6,1.6.9,2.2,1.3,13.3,9.8,21,23.5,26.5,38.6,3.5,9.6,7,19.1,10.2,28.8,5.4,16.5,10.6,33.1,15.8,49.6a29.89,29.89,0,0,1,.9,5.5c-3.4.2-6.4-.3-8.8.7-11.3,4.8-19.8,12.6-22.6,25-2.9,12.9-5.6,25.8-8.1,38.8a89.88,89.88,0,0,1-8,24.1,249.93,249.93,0,0,0-11.2,24.1c-7.6,19.9-14,40.3-18,61.3-.8,4.1-1.3,8.2-1.8,12.3-.4,3.9,1.2,6.4,4.2,7,3.2.7,6.1-1,7.3-4.8a52.71,52.71,0,0,0,1.6-7.7c.5-2.8.7-5.6,1.4-8.4,3.2-11.8,6.4-23.7,9.8-35.5a174.59,174.59,0,0,1,14.3-36.3c6.8-12.8,11.8-26,13.5-40.6a207.56,207.56,0,0,1,3.9-20.6,76.27,76.27,0,0,1,4.2-14.1,27.56,27.56,0,0,1,6.6-8.9c4.2-3.6,9-6.5,13.8-9.8.4,1,.8,2.2,1.2,3.4,2.9,9,5.8,18,8.9,26.9,2.3,6.8,5.4,13.3,7.4,20.2,3,10.9,5,22.1,8.1,33,7.2,25.5,11.4,51.6,13.9,77.9.4,3.9.6,7.9.9,11.9.9,11.9,2.4,23.7,2.6,35.6.4,26.1.1,52.1,0,78.2a94.36,94.36,0,0,1-1.2,11.8c-.5,4.3-1.5,8.6-1.7,12.9-.2,4.1,2.2,6.6,5.3,6.9s5.8-1.8,6.4-5.8c1.6-10.8,4.3-21.5,3.5-32.6-.3-5.1,0-10.2-.1-15.3-.2-22.9-.5-45.7-.7-68.6a25.85,25.85,0,0,1,.6-3.8c1.9.8,3.6,1.1,4.9,2A70.41,70.41,0,0,1,966.5,754a31.22,31.22,0,0,0,1.8,4.2c1.6,2.8,3.9,3.8,6.6,3.1a5.55,5.55,0,0,0,4-6.1,21.84,21.84,0,0,0-1.8-7.1c-9.8-20.7-23.9-36.9-47.1-43.5-2.3-18.7-3.9-37.9-7.2-56.9s-8.1-37.8-12.3-56.6a105.32,105.32,0,0,1,11,1.8,27.57,27.57,0,0,1,8.4,3.2c8.6,5.8,17.8,10.7,25,18.5a20.36,20.36,0,0,0,4,3.1c6.6,4.4,13.1,8.9,19.8,13.1a35.65,35.65,0,0,1,11.7,12.1,29.7,29.7,0,0,0,4.4,6.5c3,3.2,8.2,2.4,9.2-1.5a9.44,9.44,0,0,0-.4-6c-4.2-8.8-9.8-16.3-18.4-21.6a219.51,219.51,0,0,1-25.9-18.2c-7.7-6.5-16.5-11.9-25-17.6a23.65,23.65,0,0,0-7.3-3.1c-5.8-1.3-11.6-2.4-16.4,2.6-.3.3-1,.1-1.2.1-3.4-10-6.7-19.8-10.1-29.6-3.3-9.6-7.3-19.1-10-28.9-6-21.7-11.8-43.3-19.5-64.5a48,48,0,0,1-1.2-6.6c2.7,2.7,6.2,3.3,9.9,3.3,11.7.2,23.4.6,35.1.8,9.7.2,16.6,5.2,22.7,12.1,4.8,5.3,9.6,10.7,14.7,15.7,12.2,12,27.2,17.3,44.1,17.6a19.81,19.81,0,0,0,7.7-1.3c4-1.8,4.1-6.9.2-9-1.7-1-3.9-1.2-5.9-1.5-5.4-.8-10.9-1.1-16.2-2.4a36.75,36.75,0,0,1-11.9-5,96.82,96.82,0,0,1-22.8-21c-6.8-8.7-15.5-15-26.7-16.8-14.4-2.3-29-1.2-43.5-1.1C870.5,446.9,868.8,449.5,869.2,455.7ZM761.6,553.3a32.41,32.41,0,0,0,1.1,4.8,4.34,4.34,0,0,0,4.9,3,9.3,9.3,0,0,0,4.5-2.8,4.9,4.9,0,0,0,1-3.2c.3-6.4,3.3-11.5,7.1-16.3,12.7-15.8,22.8-33.3,34.2-50,8.8-12.9,18.2-25.5,27.3-38.2.4-.6.9-1.2,1.3-1.8,1.4-2.4,1.3-4.8-.6-6.8a5.27,5.27,0,0,0-6.7-1.1,24.22,24.22,0,0,0-6,5,144.55,144.55,0,0,0-8.8,11.8c-14.6,21.6-29,43.2-43.6,64.8-3,4.4-6.4,8.4-9.4,12.7C764.5,540.3,761.7,545.7,761.6,553.3ZM903.3,667.4c-.1-5-3.7-7.7-7.5-5.9a15.57,15.57,0,0,0-5.6,4.6c-8.3,11.1-14.4,23.4-19.8,36.1-4.6,10.8-8.9,21.6-16.8,30.6-2.2,2.5-4.8,4.8-6.8,7.5-2.5,3.4-2.2,7.2.2,9.3s5.9,1.4,9-1.6c11.3-10.8,18.9-23.9,24.5-38.3A167.17,167.17,0,0,1,900.8,672,21.65,21.65,0,0,0,903.3,667.4Z"/><path class="cls-1" d="M430,97.6c-.5-.7-1.3-1.9-2.2-3.1-7.7-10.3-14.7-21.1-18.9-33.4a18.68,18.68,0,0,1-1.1-6.6c.3-6.5,1.7-8.1,8.1-9.7,7.9-2,15.7-4.1,23.7-5.6,6.8-1.2,14-1,20.8-2.3,10.8-2.1,21.7-2.3,32.7-2.2,14.7.1,29.5.2,44.2-.1,5.4-.1,10.9-1.1,16.3-1.7,4.9-.6,9.7-1.6,14.6-1.7,17.7-.6,35.4-.3,53.1,2.7,7,1.2,14.3.3,21.5.9,12.6,1,25.2,1.1,37.6,3.8,4.9,1.1,10.1,1.3,15.1,1.8,11.5,1.3,21.7,6.2,31.5,11.9,19.5,11.4,29.5,29.6,35.6,50.5a25.9,25.9,0,0,1,.8,7.9c-.2,9.7,1.6,19.2,3.4,28.6,1.5,8.1,2.4,16.4,3.9,24.6,1.2,6.5,3.4,12.8,4.3,19.3,2.5,19.6,6.6,39.1,5.7,59.1-.4,9.2.1,18.5-.1,27.8a120.38,120.38,0,0,1-1.4,16.9c-1.7,10.4-3.7,20.8-5.8,31.2-.8,3.7-2.4,7.2-3.3,10.8-1.1,4-3.7,5.8-7.6,6.5-9.1,1.5-18.3,3-27.3,4.8-9.3,1.8-18.7,2.1-28.2,2-7.7-.1-15.5-.2-23.2,0-17.6.6-34.5-2.9-50.8-9.4-2-.8-4.9-1.6-6.4-.7-4.4,2.5-8.5,1.2-12.6.2-9-2.2-17.9-4.6-26.8-7.2-12.3-3.6-24.5-7.6-36.8-11.2a101.08,101.08,0,0,0-13.2-3.1c-11.3-1.8-22.5-4.9-34.2-4.3-4.2.2-4.7-.6-5-5-.4-5.6,0-11.4-.9-17-3-18.4-6.4-36.8-9.7-55.2-2.4-13.4-4.8-26.8-7.2-40.1-2.3-12.5-6.7-24.4-11.3-36.2s-11.6-22-19.6-31.6c-3.7-4.5-7.1-9.1-10.8-13.9a121.38,121.38,0,0,1,23.8-12.1c7.6-2.9,15-6.1,22.5-9.2,5.7-2.3,11.4-4.6,17.1-6.8a5.36,5.36,0,0,1,.5,1.1c-5.8,4.1-11.6,8-17.2,12.2a117.78,117.78,0,0,0-10.7,9.2c-7,6.7-10.2,15.3-12.1,24.5-.2,1.1-.6,2.6-.1,3.3,4.1,6.2,5.1,14.3,13.3,17.9,12.4,5.5,25.3,5.9,38.3,4.7,9.2-.9,18.1-2.9,26.4-7.8,9.2-5.6,13.8-13.4,13-23.9a135.93,135.93,0,0,0-3.3-18.9c-.9-3.8-2.6-7.5-3.9-11.2-3-8.6-7.8-15.2-19.2-15.6,2-1.2,2.7-1.9,3.6-2.2a63.43,63.43,0,0,1,28-1.9c9.3,1.6,17,6.6,18.6,17.2,3.4,22.1,4.5,44-6.7,64.7-4.1,7.5-9.5,13.5-17.2,17.5A129.86,129.86,0,0,1,516,183.4c-7.8,1.4-15.6,2.8-23.4,4.3a25.48,25.48,0,0,0-5.4,1.5,5.11,5.11,0,0,0-3.2,5.5,4.76,4.76,0,0,0,4.2,4.7,16.19,16.19,0,0,0,6.2.2c13.3-2.6,26.7-5.2,39.9-8.3,10.1-2.4,19.5-7.1,28.5-12.4,11.3-6.7,17.6-17.3,22.4-29.1a88.18,88.18,0,0,0,6.4-33.7c0-10.6-.4-21.1-2.7-31.5-2-8.7-6.4-15.5-14.3-20.1-7-4.1-14.2-6.6-22.5-6.3a174.62,174.62,0,0,0-58.5,11.7c-8.4,3.3-16.6,7.3-24.9,10.7-5.6,2.3-11.4,3.9-16.9,6.4C444.1,89.9,437.6,93.6,430,97.6Z"/><path class="cls-1" d="M624.1,711.1c-.2-2.7-.4-4.5-.5-6.3-.1-4.9.2-9.8-.2-14.7a48.09,48.09,0,0,0-2.3-9.8c-1.5-5-5.6-7.2-10.3-7.4-7.3-.3-14.7-.3-22.1.1a20.26,20.26,0,0,0-8.4,3c-1.3.8-2,3-2.4,4.7-.2.6,1,1.9,1.9,2.3a2.65,2.65,0,0,0,2.2-1.1c1.6-4.6,5.5-4.8,9.2-4.9,5.3-.2,10.6.1,15.9-.1,7.6-.4,10.9,4.5,11.7,10.4.5,3.9.3,7.9.5,11.9a79.64,79.64,0,0,1-2.8,25.7c-.3,1.1.1,2.4.2,3.8,3.2-.1,4-2.2,4.4-4.1,1.5-7.2,6.4-9.8,12.9-11.6,7.5-2.1,14.9-1.9,22.5-1.9,4.3,0,6.8,2.6,7.7,6.3a56.32,56.32,0,0,1,1.1,12.3,77.68,77.68,0,0,1-.8,9.6c-.2,2.3-.2,4.6,2.5,5.6,3.1-1.1,2.7-3.9,3.3-6.1,1-4,1.8-8.1,2.9-12.1,1-3.8,3.6-5.7,7.6-5.3,4.5.4,9.1.3,13.5,1.4,7,1.8,11.5,7.1,14.6,13.3,8,16.1,10.8,33.3,9.6,51.2a16.17,16.17,0,0,1-.9,3.1c-2.1-2.2-3.9-3.7-5.4-5.4-5.4-6.3-11.5-11.3-19.6-13.9-5.3-1.7-9.6-.7-13.5,3-1.3,1.3-2.6,2.5-4.9,4.6-.7-2.9-1.2-4.6-1.5-6.3-.7-4.1-1-8.3-2-12.3-2.5-9.6-11.1-15.1-21-13.8-8.2,1.1-13.3,6.5-17.9,12.7a44.6,44.6,0,0,0-3.1,5.2c-.4,0-.8-.1-1.2-.1-.3-1.5-.7-3-.9-4.5-.5-4.3-.6-8.7-1.3-13-1.4-8.7-7.2-14.5-16-16a61.13,61.13,0,0,0-9.6-.6c-1.1,0-2.2.8-3.6,1.4,2.2,3.5,5.3,3.1,7.9,3.1a21.14,21.14,0,0,1,10.7,3.1,11.17,11.17,0,0,1,5.8,7.3,27.44,27.44,0,0,1,.9,3.9c.7,10,1.3,20,1.8,29.9a80.33,80.33,0,0,1,0,8.5c-.1,3.5-.1,7.1-2.5,10.7-1.8-.9-3.4-1.6-5-2.5-10-5.2-16.1-3.5-21.9,6.1-.6.9-1.2,1.9-2.3,3.6-1.4-1.9-2.5-3.3-3.4-4.8a23.37,23.37,0,0,0-11.9-10,50.9,50.9,0,0,1-8-4.2c-5.5-3.2-10.6-2.2-15.3,1.4-2.7,2.1-5,4.5-7.6,6.8-.7.6-1.3,1.2-2.7,2.4-.4-2.1-.6-3.5-.9-4.8-1.1-6.5-2-13-3.4-19.5-1.3-6.3-5.2-10.8-10.9-13.8-1.8-1-3.6-2-5.5-3-7.3-3.8-14.7-2.8-21.9,0-2.1.8-3.6,3.1-5.6,4.9-8.6-4.9-17.4-4-26.5-.9-9.6,3.2-14.5,10.9-19.2,18.9-5.1-3.5-14.8-20.1-15.9-26.8,4-4.8,8.2-9.5,12-14.4,5-6.7,11.3-10.4,19.8-9.9,1.7.1,3.4.1,5.1.2,4.4.2,8.2,1.4,9.6,6.3a6.21,6.21,0,0,0,1.4,2.5c4.4,4.7,8.2,9.8,9.3,16.4.1.4.8.6,1.4,1.1a3.62,3.62,0,0,0,1.8-4.8,64.54,64.54,0,0,0-4.2-9.7c-2.2-3.7-5.1-6.9-7.4-10.6-1.5-2.5-3.2-4.3-6.1-4.5-5.4-.4-10.9-1.2-16.3-.8-6.9.5-12.2,4.6-16.6,9.9-2.9,3.5-5.7,7.1-8.6,10.6a24.35,24.35,0,0,1-2.9,2.6c-6.1-13-8.3-28.9-6.2-45.4,5.4-2.2,9-6.9,12.6-11.4a53.11,53.11,0,0,1,13.8-12.5c9.9-6.2,20.1-1,21.2,10.7.4,3.9.3,7.9.9,11.8a75.69,75.69,0,0,0,2.7,10.4c.3,1.1,1.5,1.9,2.3,2.9,2.7-1.6,1.9-3.6,1.3-5.3-2.2-6.2-2.7-12.5-2.8-19-.1-8.3-4.9-13.8-11.3-17.9-3.9-2.5-8.5-1.3-12.5.5a47.68,47.68,0,0,0-17.5,14c-2.9,3.6-5.8,7.3-10.3,10.7-.3-2-.7-3-.6-4,.3-7,.8-13.9,1.1-20.9.2-3.4.3-6.7,3.6-9,1.2-.8,1.5-2.9,2.2-4.5,2.9-7,5.7-9,13.3-8.8,5.8.2,11.7.9,17.5,1.6a12.12,12.12,0,0,1,9.6,6.3c2.2,4,4.3,8,6.2,12,1.8,3.8,2.7,4.2,6.5,2.6s7.6-3.3,11.5-4.8c2-.8,3.9-.9,5.8.8a5.24,5.24,0,0,0,3.5,1.1c5.8.3,8.2,2.8,9.7,8.1a68.73,68.73,0,0,1,2.5,20.7c-.2,6.7-.2,6.8-6.5,8.5-4.9,1.3-9.8,2.7-14.7,4.1-6,1.7-8.8,6.7-11.6,11.7-.4.7.3,1.9.7,3.9,1.7-1.6,3-2.3,3.6-3.5,3.9-7.3,10.9-9.6,18.3-10.7a52.52,52.52,0,0,1,11.9-.3c5.3.3,6.5,2.2,5.6,7.8a6.44,6.44,0,0,0,.3,2.1c4.7-1,5.9,2.4,7.3,5.8,2.8,6.4,3.4,13.1,3.4,19.9,0,3.4-.1,6.8.2,10.2a11.69,11.69,0,0,0,1.4,3.3h1.2c.5-1.2,1.3-2.5,1.3-3.7a12.92,12.92,0,0,1,4.8-9.3c4.1-3.6,8-7.5,12.2-11a18.44,18.44,0,0,1,26.3,2.5c9,10.8,9.6,23.4,7.5,36.5-.3,2.1-1.9,4.2.3,6.3,2.8-.3,3.3-2.5,3.6-4.4a111.76,111.76,0,0,0,1.2-14.1c-.1-7-1.1-13.9-4.2-20.4a5.26,5.26,0,0,1-.6-3.2c2.1-11,.3-21.8-1.7-32.6-1-5.3-3.7-9.4-8.5-11.2-6.7-2.6-9.9-5.9-7.6-13.8,1.5-5,0-10.5-2.4-15.4-1.4-2.9-2.4-6-3.8-8.8-5.1-10.3-14.1-12.3-23.4-5.6-7.9,5.7-14.9,12.1-20.3,20.3a19.21,19.21,0,0,1-2,2.3c-3.4-3.7-6.7-7.1-10.4-11.2,1.1-1.4,2.2-3,3.5-4.5,3.1-3.6,6.3-7.1,9.4-10.6,8.8-10,12.3-22.3,15-35,1.2-5.7,3.1-11.3,4.3-17a82.53,82.53,0,0,0,1.8-14c.2-8.4-5.3-13.5-13.8-13.8a3.51,3.51,0,0,1-2.5-1.2c.9-.4,2.1-1.5,2.7-1.2,2.3.9,3.4-.2,4.7-1.8,4.4-5.4,8.9-10.8,13.5-16s11-7.9,17.8-9.1c3.5-.6,6.4.4,8.2,3.6.9,1.6,2.2,3.3,2.5,5,2.2,12.9,3.4,25.8.5,38.8-1.6,7.3-6.4,12.7-11.1,18.1-1.3,1.5-4.3,2.8-2.4,4.9,2.2,2.5,4-.5,5.4-1.9,8.7-8.6,13.7-18.8,14-31.2,0-2.2.2-4.4.3-6.1,4.3-1,8-1.6,11.6-2.7,5.7-1.7,10.5-.3,14.6,3.7a49.82,49.82,0,0,1,14.6,28.1c1.3,7.6.3,15-.8,22.5-1.4,10.3-1.8,20.6-2.7,31-.5,6.4-1.1,12.8-1.5,19.2-.1,1.2.2,2.4.2,3.6,3.1.3,3.7-1.8,4-3.5a66.84,66.84,0,0,0,1.5-11.8,325.11,325.11,0,0,1,3.6-45.1c2.5-17.8-2.8-33.7-15.6-46.6-5.3-5.3-11.7-7.5-19.1-5.1-3.2,1-6.4,2-10.3,3.2-.6-4.9-1.2-9.6-1.7-14.4a25.72,25.72,0,0,0-4.1-12.2c-3.1-4.8-7.3-6.3-12.6-5.4a37.18,37.18,0,0,0-19.1,9.2l-3.5,3.1a21.08,21.08,0,0,1,3.2-8.4c2.6-4,5.3-7.8,7.7-11.9a42.36,42.36,0,0,0,5.8-21.1q.15-7.95,0-15.9c-.1-7.9-2.7-11.3-10.3-13.4-2.5-.7-5.1-1.2-8.4-1.9.8-2,1.3-3.5,2-4.9l16.2-32.4c2.7-5.3,2.8-11,1.9-16.6-1.1-7-5.6-11.8-12.9-12.1-9.6-.4-19.2.4-28.8.7-1.5,0-2.9.2-5,.4a16,16,0,0,1,5.8-7.3c9.5-7.4,19.1-14.8,28.8-21.9,5.8-4.2,12-7.8,18-11.7,1.9-1.2,3.6-1.2,5.1.3,2.2,2.3,4.7,4.4,6.4,7.1,4.6,7.1,6.8,15,7.7,23.5.7,6.7-1.2,12.4-6.1,16.9-7.7,6.9-13,15.7-18.8,24-.3.5-.8.9-.8,1.5-.1,1.2-.6,2.9,0,3.6s2.3.8,3.5.7c1.5-.2,2.9-1.2,4.3-1.3,7.1-.4,14.3-.8,21.4-.9,1.4,0,3.2,1.2,4.3,2.3,3,3.1,4.2,7.1,5,11.2.5,2.7-.7,4.8-2.9,6.3-2.7,1.9-4.8,3.8-5.2,7.6-.2,1.8-1.9,3.6-3.2,5.2-8,9.2-13.4,20.1-19.4,30.6-.6,1.1-.4,2.6-.6,3.8.5.2.9.5,1.4.7,1.4-1.5,3.2-2.9,4.3-4.6,2.1-3.3,5-5.2,8.9-5.2,6.6.1,13.3-.1,19.7,1,9.9,1.7,15.6,9.3,16.8,19.3,1.2,9.8-1.5,18.3-7.1,26.1-1.4,1.9-3.2,3.8-2.1,6.4,2.6,1.4,4.1-.1,5.6-1.6,2.6-2.5,4.9-5.2,7.7-7.5a21.1,21.1,0,0,1,7.1-4.4c7.4-2.4,13.6.6,16.4,7.9a77.12,77.12,0,0,1,5.2,26.5c.4,13.6-1.3,26.8-6.9,39.3-2,4.5-4.6,8.6-7,12.9-.9,1.6-2.6,3-.9,5.1,2.9.7,3.8-1.8,5-3.5,5.3-7.1,16.6-6,20.3,2a17,17,0,0,1,1.6,4.8c1.4,10.5,3.2,20.9,1.1,31.5-.4,2-.1,4.2-.1,6.4,2.9.1,3.5-1.5,3.7-3.2,1-6.5,2.6-13,1.4-19.7-.5-3-.3-6.1-.8-9a83.46,83.46,0,0,0-3.2-13.1c-2.1-5.7-6.6-8.5-12.7-8.6a39,39,0,0,1-5-.6c.7-2.2,1-4.1,1.7-5.7,7.2-17,7.1-34.6,4.9-52.4-.7-5.3-2.7-10.6-4.8-15.7-3.5-8.4-12.3-12-21.2-9.3-1.9.6-3.8,1.3-5.7,1.9,0-6.5.4-12.5-.1-18.4a23.5,23.5,0,0,0-18.7-21.5c-5.7-1.2-11.6-1.2-17.4-1.7-2-.2-4,0-6.7,0,.7-2,.9-3.3,1.6-4.3,3-4.5,6.2-9,9.3-13.5,1.3-1.8,3-3.5,4.1-5.4,3.4-6.6,9.2-10.8,14.8-15.3,4.1-3.3,9-3.7,14-3.3a6.71,6.71,0,0,1,5.9,4.7,94,94,0,0,1,4.5,15.7c1.1,7.3,1.4,14.7,1.9,22s.2,14.3-3.3,21c-.6,1.2-.5,2.7-.8,4.1.4.3.8.5,1.2.8,1-.8,2.6-1.4,3-2.5,1.4-3.3,3.1-6.6,3.4-10.1,1.5-15.7,0-31.3-3.4-46.7a4.87,4.87,0,0,0-.4-1.1c-4.1-12.9-13-15.5-26.1-9.7a62,62,0,0,0-5.7,3.3c-1.6-3.6-2.6-6.9-4.3-9.8a65.31,65.31,0,0,0-5.1-6.9c4.3-4.9,8.2-10,12.8-14.3,11.6-10.9,18.4-24.8,24.8-38.9,1.4-3,1.8-6.7,6.3-7.1,5.9-.6,11.8-1.4,16.3,3.7,3.8,4.2,6.3,8.9,5.9,14.8-.1,1.7.5,3.3.7,5,.5,4.5.1,8.6-3.8,11.8-7.8,6.3-15.5,12.6-23.3,18.9-2.3,1.9-4.9,3.5-7.2,5.5-1.5,1.3-2.9,3.1-.9,5.3a3.87,3.87,0,0,0,1.7-.4c9.3-6.5,18.6-12.9,27.7-19.6,4.3-3.1,9.1-4.4,14-5.8,3.6-1,4.8-.3,6,3.2,2.6,7.1,2.6,14.5,1.6,21.8-.4,3.5-1.5,7-2.2,10.5-.3,1.6-.5,3.1-.7,4.6,3.3,1.2,4.1-.8,4.5-2.6a87.1,87.1,0,0,0,2.7-13.3c.9-7.9.7-15.9-2.4-23.4-2.2-5.5-4.3-6.6-10.1-5.3-1.4.3-2.8.5-4.5.8.3-4.7.6-9,.9-13.3a2,2,0,0,1,.2-1.1c4.5-6,7.7-13.5,15-16.3,7.7-2.9,15.5-2.3,22.5,3.2a13,13,0,0,1,5.2,9.6,29.47,29.47,0,0,1-2.1,14.4c-3.8,8.8-8.3,17-16.6,22.3-.6.4-.8,1.5-1.2,2.3.9.4,2,1.4,2.8,1.1a14.48,14.48,0,0,0,4.4-2.4,59.82,59.82,0,0,0,4.8-4.3c1.2.9,2.2,1.7,3.3,2.4a34.23,34.23,0,0,0,15.3,6.8c5.5.9,6.2,1.9,4.8,7.2-3.7,14.1-7.7,28-11.4,42.1-2.5,9.3-5.2,18.6-6.8,28-1.2,7.2-1.1,14.7-1.3,22-.5,14.3-.9,28.7-1.1,43-.1,5.1.7,10.2,1.3,15.2,1.1,9,2.4,18,3.6,26.9a24.32,24.32,0,0,1,0,2.7c-6.5.9-12.8,1.8-19.5,2.7-.1-.9-.6-2.2-.4-3.2,1.3-4.9,2.4-9.9,4.3-14.6,4.1-9.9,1.5-23.3-6.6-30.1a13.47,13.47,0,0,0-7.6-3.1,96.19,96.19,0,0,0-15.2.8c-1.1.1-2.1,1-4.3,2.1,2.1.9,3.2,1.8,4.2,1.8,4.1,0,8.3,0,12.4-.4a9.84,9.84,0,0,1,10.1,4.8c4.6,7.2,6.2,14.5,2.8,23-2.7,6.8-4,14.1-5.4,21.3-.8,4.1,1.5,5.7,5.4,4s7.6-4.1,12.2-4.1c6.6,0,8.9,1.4,10.9,7.6,2.1,6.6,3.8,13.5,6.3,20,3.5,9.1,7.6,18.1,11.5,27.1,2.8,6.4,5.7,12.8,8.4,19.2,3,7.1,5.9,14.2,8.6,21.7-6.6-7.4-12.3-16.6-25.2-11.8a57.93,57.93,0,0,1-.9-6.2c-.2-4.7,0-9.5-.6-14.1a33.18,33.18,0,0,0-9.9-20.5c-6-5.8-17.8-8.2-25.2-4.1-4.1,2.3-8.9,4.1-11.5,8.5,1.1,2.7,2.7,1.9,4.2,1,2.4-1.5,4.7-3.2,7.1-4.6a18.93,18.93,0,0,1,23.2,3.2,26.19,26.19,0,0,1,7.8,17.7c.3,8.5-.1,17-.3,25.4-.1,2.3-.2,2.3,2,5.3.9-1.4,1.6-2.5,2.4-3.7,3.8-5.7,9.8-6.8,15-2.5,5,4.1,8.6,9.3,9.7,15.6,1.5,8.3,2.4,16.8,3.3,25.2,1.3,12.7-1.8,24.7-5.5,36.7-1.6,5-2.9,10.2-4.4,15.2-.5,1.7-1.2,3.4-1.8,5.1a5.84,5.84,0,0,1-1.6-.6c-4.3-6.6-8.5-13.3-12.8-20-1.8-2.8-3.6-5.4-1-8.7.4-.5.3-1.5.3-2.2,1-18.4-.8-36.2-9.1-53-3.4-6.9-7.6-13.3-15.3-15.9-9-3.1-18.3-4.3-27.8.4-.7-1.5-1.6-3.1-2.2-4.8-2.3-6.1-6.6-8.7-13.1-8.8-8.7-.1-17.4.3-25.7,3.4C628,710.5,626.5,710.6,624.1,711.1Zm67.4-168.2c0-.6-.1-1.1.1-1.3l2.7-3.6c5-7.2,10-14.3,10.1-23.5.1-8.7.3-17.4,0-26a37,37,0,0,0-10.3-25.1c-4.7-4.9-8.6-5.8-13.9-1.5-5.9,4.7-11.1,10.2-16.4,15.5-.5.5-.1,2-.2,3,.9,0,2,.4,2.6,0,2.3-1.7,4.4-3.5,6.5-5.4,3.3-3,6.4-6.5,9.9-9.2,3.9-3,5.4-2.6,8.7.9a33,33,0,0,1,8.8,22.7c.1,7.4-.2,14.7.1,22.1a30.57,30.57,0,0,1-4.7,17.2c-2,3.2-4.4,6.1-6.5,9.2-2,2.9-3.9,5.9-6.4,9.7,6.5.7,12,1.4,17.6,1.9.5.1,1.2-.7,1.8-1.1C700.1,542.9,694.8,544.7,691.5,542.9Zm-73.7,97.7a12.13,12.13,0,0,0,1.4-1c-.7-8.4-4.1-15.9-10.9-21.1a36.59,36.59,0,0,0-21.1-7.3c-7.7-.3-14.9,1.4-20.8,5.4-3.2-3.8-5.8-7.7-9.2-10.8s-6.9-6.8-12.6-6.2a5.73,5.73,0,0,0,1.9,3.6,47.23,47.23,0,0,0,5.2,3.5c6.9,4.2,10,10.6,10.3,18.4.1,2.1.1,4.2.1,6.2,0,4.2-.1,8.3.1,12.5.1,1.8-.2,4,3.2,4.4a32.84,32.84,0,0,0,.8-5.2c.1-5.1.5-10.2,0-15.3-.5-4.5,1.4-7.1,5.1-8.9a28.33,28.33,0,0,1,3.6-1.6c9.1-3.2,17.7-1.7,26.4,2.1,7.5,3.3,10.6,9.8,13.1,16.8a14.28,14.28,0,0,0,1.2,3.1A6.36,6.36,0,0,0,617.8,640.6ZM645.1,498a19.09,19.09,0,0,0,3.6.5c5.9-.1,10.3,2.4,12.6,7.8a36.61,36.61,0,0,1,2.8,10.8c.7,7.5,1,15,1.3,22.6.2,5.6.7,11.3-1.4,16.8-.4.9.3,2.3.4,3.4.6.4,1.2.7,1.8,1.1a16.15,16.15,0,0,0,1.7-3.5c.8-3.1,2-6.2,1.9-9.3-.2-10.9-.4-21.9-1.5-32.7-.5-4.7-2.5-9.4-4.6-13.8-2.4-4.9-7.4-6.8-12.5-7.6C648.7,493.7,646.1,494,645.1,498Z"/><path class="cls-1" d="M277.2,1267.8c3.2-1.4,6.3-3,9.6-4.1a124.53,124.53,0,0,0,22.6-10.3,102.31,102.31,0,0,1,17.4-8.2c9.8-3.5,16.8-10.3,21.8-18.9,8.6-14.8,18.8-28.8,25.3-44.8,2.3-5.6,4.9-11,7.5-16.5,2.4-5.1,3-10.3,3-15.9.3-17.6,1.2-35.1,5.5-52.3,3-11.7,5.6-23.5,9.4-35,2.7-8.2,6.6-16,10.5-23.8,4.3-8.8,8.9-17.5,13.8-26a45.14,45.14,0,0,1,7-8.8,15.85,15.85,0,0,0,4.3-7.1,85.59,85.59,0,0,0,3.3-25.7c-.4-18.8,1.2-37.4,6.3-55.5,2.6-9.2,6.7-18,10.5-26.8,3.5-7.9,7.8-15.5,11.5-23.3,1.2-2.6,1.7-5.6,2.8-9.2,1-.5,2.7-1.1,4.4-2,3.1-1.7,4.6-4.6,3.8-7.4s-3.4-4.1-7.4-3.7c-.7.1-1.5.3-2.2.4-23.6,5-45.5.8-65.3-12.6-10.3-7-20.6-14.1-28.9-23.6-7-8.1-12.3-17.1-14.2-27.9-1.5-8.6-3.8-17-5-25.6-1.5-10.8-2.4-21.8-3.5-32.7-1.3-12.2-3.1-24.4-3.8-36.6-1.3-21-1.3-41.7,6.2-62,6.5-17.7,10.6-36.2,16.1-54.3,2-6.6,4.2-13.6,8-19.2,12.9-19,22.4-39.8,34.8-59a167.76,167.76,0,0,1,15.8-20.6c7.6-8.4,15.8-16.2,23.8-24.3a58.12,58.12,0,0,1,4.8-3.9c.4,6.7-.8,11.6-4.3,15.7-3.2,3.7-7,6.9-10.5,10.3-1.3,1.3-3.6,2.6-1.9,4.5s3.5-.2,4.8-1.3c3.9-3.6,8.3-6.8,11.2-11.1,2.6-3.9,3.6-9,5.2-13.6.7-2.1,1.2-4.3,1.8-6.5,2.2-7.9,8.4-9.9,16.7-10.7a51.26,51.26,0,0,1-3.3,5.1c-13.9,17-23.7,36.3-31.2,56.8-1.7,4.6-2.5,9.5-3.8,14.2-6.3,22.9-12.9,45.8-18.8,68.8a192.41,192.41,0,0,0-6.1,40.8c-.6,17.5-1.9,35-2.7,52.6a7.91,7.91,0,0,1-3.4,6.8c-3.7,2.7-5.7,6.4-7,10.7-4.8,15.5-9.5,31-14.6,46.4-4,12-8.3,23.9-15.6,34.4-1,1.5-2.6,2.9-1.1,5.1,2.5,1,3.5-.9,4.4-2.4,2.9-4.8,5.9-9.7,8.3-14.7,5.7-12,9.3-24.7,13.2-37.3,3.4-10.8,6.8-21.6,10.4-32.3.6-1.9,2.3-3.6,3.4-5.3.5.1,1,.3,1.5.4.1,2.3.5,4.6.4,6.9-.3,12.8-.7,25.7-.9,38.5a25.64,25.64,0,0,0,.7,6.2c4.1,16.1,7.9,32.3,17.8,46.2,2.7,3.7,3.1,7.2.7,11.5-4.7,8.2-5.1,17.7-6.3,26.8-.5,3.5-1.3,7-1.8,10.5a59.33,59.33,0,0,0-.6,8.4c0,.7,1.3,1.5,2,2.2.7-.8,1.8-1.5,2-2.3.9-4.4,1.6-8.9,2.2-13.3.7-5.4,1.1-10.9,1.8-16.3a42.23,42.23,0,0,1,5.8-16.2,14.35,14.35,0,0,1,2.8,2.2c2.3,2.8,4.5,5.6,6.6,8.5,8.8,12.3,17.8,24.4,26.3,36.9,8.2,12,15.5,24.6,23.8,36.5,6.1,8.8,13.2,17,20,25.3,8.1,10.1,19.1,14.2,31.6,15.4,2.9.3,5.8,1,9,1.6-1,3.7-1.7,6.6-2.7,9.4-4,11.1-6,22.6-8.1,34.1a58.36,58.36,0,0,1-2.2,8.2c-5.9,17.3-10.9,35-19.5,51.3a192.48,192.48,0,0,1-10.8,17.3A51.11,51.11,0,0,0,505,1055a34.86,34.86,0,0,1-4.3,12.2c-14.7,24-28.8,48.4-46.3,70.5-2.6,3.2-5.5,6.2-8.2,9.4-2.3,2.8-4.5,5.6-6.5,8.5-1.6,2.5-2.1,5.5.2,7.9,2.2,2.2,1.5,4.4.7,6.8-3.2,9.1-6.4,18.2-9.5,27.3-.9,2.7-1.8,5.4-2.5,8.1-2.4,9.2-6.6,17.4-13.8,23.6a51.85,51.85,0,0,0-16.8,28.8,44.44,44.44,0,0,1-2.1,7.1c-5.6,14.5-7.7,29.5-7.7,45a145.6,145.6,0,0,1-1.2,14.7,37.49,37.49,0,0,1-1.3,5.8,6.75,6.75,0,0,1-1.4.2,49.67,49.67,0,0,1-2.5-5.2c-3.9-12.9-6.4-26-6.3-39.5a19.4,19.4,0,0,0-.2-3.4c-.5-3.7-2.4-6.2-5.3-6.5-3.2-.4-5.2,1.5-6.9,4-4.2,6.5-8.1,13.2-12.9,19.3-6.6,8.4-13.8,16.4-20.7,24.5-.4-.2-.8-.5-1.2-.7a32.14,32.14,0,0,1,2.2-5.4c3.9-6.4,7.9-12.8,12-19.1,3-4.6,6.4-8.9,9.4-13.5,2.4-3.6,2.2-6.6.1-8.9s-5.2-2.7-8.8-.7c-13.5,7.5-27.8,13.7-39.9,23.6a36.35,36.35,0,0,1-6.4,3.6c-11.3,5.6-22.6,11.3-33.9,16.9a14.56,14.56,0,0,1-6.2,1.8,30.71,30.71,0,0,1,1.7-3.1,92,92,0,0,1,37.7-27.1c13.5-5.2,26.7-11.5,39.9-17.4a16.92,16.92,0,0,0,2.9-1.7,6.31,6.31,0,0,0,2-7.1,5.74,5.74,0,0,0-5.8-3.8,32.6,32.6,0,0,0-6.1,1.1c-8.9,1.6-17.8,3.3-26.7,4.7-7.3,1.1-14.6,1.6-22,2.3a16.15,16.15,0,0,1-3.1-.2A6.22,6.22,0,0,0,277.2,1267.8Zm81.5-614.3c1.8-.9,2.9-1.1,3.6-1.8,5.1-5.3,10.1-10.6,15.1-15.9,3.4-3.5,6.6-7.3,10.3-10.5,9-7.7,14.4-17.4,17.2-28.6a162.77,162.77,0,0,0,3.1-17.2c.9-6.7,3.8-11.3,10.8-12.7a17.31,17.31,0,0,0,3.6-1.8c-1.1-2.7-2.9-2.6-4.5-2.2-6.3,1.3-11.4,4.4-13,11.1-1.2,4.9-1.8,10-2.6,15-1.7,10.2-4.9,20-11.9,27.7-8.2,9-17.2,17.4-25.8,26.1a40.79,40.79,0,0,0-5.2,6.6C358.8,650,359,651.5,358.7,653.5Z"/><path class="cls-1" d="M394.6,55.7c1.6,4.7,2.9,9,4.4,13.2,3.9,10.7,10,20.3,16.7,29.4,7.3,9.8,14.5,19.8,22.6,29.1,11.7,13.4,19.5,28.7,24.5,45.5,2.5,8.3,4,16.9,5.7,25.3,2.5,12.4,5,24.8,7.3,37.2,3.1,16.9,6.1,33.8,8.7,50.8,1,6.8.8,13.8,1.1,20.9-6.6,2.2-12.8,4.4-19.1,6.2-10.7,3.1-21.4,6-32.1,8.9-9.6,2.7-18.1,7.5-26.2,13.2-6.8,4.8-13.7,9.5-20.9,13.6-5.1,2.8-10.7,4.6-16.2,6.8q-23.1,9.15-46.4,18.1a214.3,214.3,0,0,0-34.8,17.6,20.13,20.13,0,0,1-2.5,1.4c-9.9,3.9-18.6,9.9-27.7,15.3-8.3,5-17.5,4.6-26.1.6-4.8-2.2-6.6-7.1-7.1-12.2-.5-5.3,1.2-10,3.7-14.6,6.1-10.9,15-19.4,24-27.8,11.5-10.7,23.2-21.1,34.9-31.4a101.18,101.18,0,0,1,10.5-7.7c2.8-1.9,5.8-3.5,8.6-5.5,19.8-14.1,41.8-24.2,63.9-33.8,8.4-3.7,17.6-5.6,26.3-8.7,9.7-3.5,19.4-7.3,28.9-11.6,6.9-3.1,12-8.5,15.5-15.2a39.07,39.07,0,0,1,2.6-4.4c6-8,6.4-17.2,5-26.5-1-6.5-5.6-10.5-11.1-13.5a65.59,65.59,0,0,0-24.3-7.2c-27.6-3-54.2,2-79.6,12.8-9.8,4.2-18.2,10.8-25.4,18.6A160.35,160.35,0,0,1,271.8,250c-13.4,7.7-26.7,15.7-39.9,23.7-2.3,1.4-4.2,3.3-6.4,4.6a94.66,94.66,0,0,1-11.1,5.4c-8,3.2-16.2,6.2-24.2,9.3a39.71,39.71,0,0,1-3.6,1.7c-4.5,1.4-7.8-.5-7.9-5.1a63.74,63.74,0,0,1,1.2-15.1c3.6-16.4,10.7-31.4,18.8-46,3.3-6,8-11.4,12.3-16.9,9.6-12.2,19.3-24.2,29-36.2,4.5-5.6,9.1-11.1,13.8-16.6,10.1-12,20.2-24,30.4-35.8a71.81,71.81,0,0,1,9.4-8.9c11.1-9.1,22.2-18.2,33.5-27,15.4-12,32.7-20.2,51.2-25.9C383.8,59.5,389,57.6,394.6,55.7Z"/><path class="cls-1" d="M743.7,845.7c4.8,5.8,8.9,10.7,12.9,15.7,5,6.4,10.1,12.7,14.9,19.3,5,6.8,6.9,15.1,9.2,23,3.5,12.1,6.9,24.3,9.5,36.7a70.84,70.84,0,0,1,0,30.4c-3.5,14.5-7.6,28.8-12.4,42.9-2.3,6.8-2,12.6,1.5,18.3,4.4,7.3,8.7,14.6,13.7,21.5a83.65,83.65,0,0,1,12.8,25.7q8.55,29.55,17,59.3c3.7,13.1,3.1,26.6,4.1,39.9a51.69,51.69,0,0,1-1.2,15.6c-1.8,7.9-.8,16.2,1.2,24.1,2.4,9.3,5.4,18.5,8.2,27.6,2.4,7.6,5.5,14.9,7.2,22.6,1.6,7.1,1.8,14.6,2.3,21.9.8,12.2,1.4,24.5,2.1,36.7a19.53,19.53,0,0,1-.2,2.3c-3.1,0-4.5-2.3-5.8-4.1-3.3-4.4-6.2-9-9.2-13.6-1.3-1.9-2.4-3.9-3.8-5.6a6.62,6.62,0,0,0-7.1-2.4,6.28,6.28,0,0,0-4.7,5.8,77,77,0,0,0-.3,9.6v12.2c-.5,0-1,.1-1.5.1a54.2,54.2,0,0,1-.6-5.8c-.1-4.5,0-9.1-.1-13.6,0-2.6-.1-5.3-.3-7.9-.4-4.6-2.5-7.7-5.6-8.3-4-.8-6.5,1.4-8.3,4.6-4.1,7-9.9,12.1-16.7,16.5-6,3.9-11.6,8.4-17.4,12.6-.9.6-1.9,1.1-3.7,2.2.4-1.9.3-3.2.8-4.1,4.6-7.8,9.3-15.5,13.9-23.3,1.2-1.9,2.6-3.7,3.6-5.7,2-3.8,1.8-7.4-.5-9.5-2.8-2.5-5.8-2.1-9-.8-4.2,1.8-8.4,3.4-12.5,5.2-8.3,3.5-17,6-25,10.5-5.9,3.3-12.9,4.9-19.8,6.5a45.07,45.07,0,0,1,3.9-3.7c14-11.2,28.2-22.2,42.1-33.5,10.2-8.3,17.8-18.6,21.7-31.2,3.2-10.4,1.6-20.6-2.3-30.5a61.36,61.36,0,0,0-15-22.5c-14.4-13.2-23.8-29.6-31.2-47.4-6-14.5-12-28.9-18.2-43.3-3.2-7.4-4.3-15.3-5.2-23.1-1-8.8-2.4-17.6-.6-26.5a6.64,6.64,0,0,0-2.6-7c-13.1-10.2-20.6-24.3-27.7-38.8-7.2-14.8-14.8-29.3-22.1-44-2.5-5.1-4.9-10.2-7.1-15.4-4-9.4-4.8-19.3-4.6-29.4,0-2.6.8-4.3,3.2-5.4,20-8.8,37.4-21.8,55.6-33.6,8.2-5.3,15.6-11.8,23.6-17.6C732,853.2,738,849.5,743.7,845.7Z"/><path class="cls-1" d="M484,666a10.85,10.85,0,0,1-1.5-2.8c-1.3-7-5.6-12.3-9.7-17.7-3.6-4.6-8.4-7.5-14.5-7.6-2.3,0-4.5-.4-6.8-.5a18.33,18.33,0,0,0-13.5,4.8c-3,2.7-6.3,5.1-9.7,7.8-.4-.9-.8-1.4-.8-1.9,0-7.7.3-15.5,0-23.2-.2-7,4.2-11,8.9-14.7a80.72,80.72,0,0,1,10-6.4,26.78,26.78,0,0,1,14.6-4c4.9.1,9.8-.1,14.7,0s6.2,1.4,7.4,6.1c1.3,5.1,2.5,10.3,4,15.3,2.9,9.8,3.2,19.7,2.4,29.7a5.5,5.5,0,0,0-.2,2.2c.2.6.7,1.5,1.2,1.6a1.86,1.86,0,0,0,1.9-.7,11.76,11.76,0,0,0,1.5-4.7c.3-9.6.4-19.2-2.5-28.6-1.6-5.2-2.9-10.6-4.1-15.9-1.6-6.7-4.5-9.2-11.5-9.4h-1.1c-22.2,0-23-.9-42.7,12.7a23,23,0,0,1-2.3,1.2c-2.2-4.7.3-8.9.8-13.2.5-4.5,1.3-9,2.2-13.4s2.1-8.7,3-12.5c7.3-1.8,13.8-3.1,20.1-5,8.7-2.6,17.5-2.7,26.4-2.5,3.8.1,6,2.2,7.1,5.4a156.8,156.8,0,0,1,4.6,15.2c1.7,7.3,3,14.8,4.5,22.2a21.81,21.81,0,0,0,1.1,4.4,2.75,2.75,0,0,0,2.2,1.2,2.47,2.47,0,0,0,1.4-2,81.61,81.61,0,0,0-1.4-11.2c-2.2-9.4-4.6-18.7-7.1-28a28.33,28.33,0,0,0-3.1-6.6,9,9,0,0,0-8-4.6c-9.4-.2-18.9-.6-28.1,2.4-4.8,1.6-9.8,2.6-14.8,3.8a26.74,26.74,0,0,1-3.6.2c5-18.4,9.8-36.1,14.3-52.5,4.9-2.3,8.9-3.5,12.1-5.8,9-6.4,18.2-4.8,26.8-.3,10.9,5.8,17.2,15.2,17.2,27.9,0,3.9-1.5,7.8-2.3,11.6-.6,3-1.3,5.9-1.7,8.9-.1.9.8,1.9,1.2,2.8.9-.7,2.4-1.3,2.7-2.2,1.6-6.4,3.5-12.8,4.3-19.3,2.1-16.2-13.1-34-26-36.2-1.3-.2-2.5-.7-3.8-1-6.3-1.5-12.4-.9-18,2.5-3,1.8-6.1,3.5-10.4,5.9.8-4.1,1.1-6.9,2-9.4,2.7-7.3,5.2-14.6,8.6-21.5,4.4-8.8,8.9-17.6,14.6-25.5,7.7-10.7,16.6-20.5,25.1-30.6a12.69,12.69,0,0,1,5.6-3.5c12.4-3.9,25.3-4.3,38.1-3.8,7,.2,10.2,3.7,10.9,10.6a28.17,28.17,0,0,1-3.6,16.3q-8.55,16.2-16.8,32.7c-2.2,4.4-1.2,6.1,3.5,7.1,3.3.7,6.7,1.2,9.9,2.1,3.4,1,5.2,3.6,5.2,7.3,0,6.6.5,13.3-.2,19.8a39,39,0,0,1-4.2,14.6c-5.4,10.1-11.7,19.8-17.6,29.7-3.6,6.1-8.6,11-14,15.4a9,9,0,0,0-2.5,2.2c-.5.8-.9,2.3-.5,3a3.28,3.28,0,0,0,2.7,1.5c3.2-.3,6.3-1.1,9.5-1.5,6.9-.9,10.9,2.4,11,9.3a33.88,33.88,0,0,1-.7,9c-2.3,9.7-5.1,19.4-7.2,29.1-2.6,11.9-9,21.5-16.8,30.3-2.5,2.8-5.1,5.6-7.8,8.2-1.3,1.2-3.2,2.5-4.8,2.4-6.3-.4-11.9,1.6-17.5,4A7.75,7.75,0,0,0,484,666Zm31.3-167.7c3.1-.3,3.2-2.1,2.9-3.8-1.1-8.2-1.5-16.6-3.6-24.6-2.5-9.8-7.7-18.4-16.2-24.5a12.56,12.56,0,0,0-10.7-2.2c-.9.2-1.6,1.5-2.6,2.3.8.7,1,1,1.3,1.2a4.71,4.71,0,0,0,1.6.4c7.6-.2,12,4.6,15.9,10.2a50.25,50.25,0,0,1,8.7,25.4c.3,3.6.6,7.1,1.1,10.7C514.1,495,514.8,496.7,515.3,498.3Z"/><path class="cls-1" d="M599.3,903c0-5.5-.2-10.2,0-14.9a153.81,153.81,0,0,0-3.2-37.7,57.26,57.26,0,0,0-2.7-9.2,18,18,0,0,0-12.2-10.9c-5.5-1.6-11.1-1.8-16.8-1.8-5.4,0-9,2.5-11.2,7.2a71.32,71.32,0,0,0-3.6,10.1c-1.3,4.1-2.3,8.2-3.4,12.4H545a49.13,49.13,0,0,1-1.5-5.1c-1.4-8.7-3.3-17.1-8.9-24.2-.7-.8-1.4-2.3-1.1-3.1,1.6-4.4,2.7-9.2,5.5-12.8,1.9-2.5,4-4.8,5.2-7.8,2.3-5.8,6.3-10.2,11.2-13.9,3.5-2.6,7.1-3.3,11.1-1.2,3.7,2,7.5,3.5,11.1,5.7,7.2,4.4,10.6,11,10.7,19.4a80.33,80.33,0,0,0,0,8.5c.1,1,1.4,1.9,2.2,2.8.8-.9,2.1-1.7,2.3-2.7,1-4.2,1.7-8.5,2.5-12.8a27.59,27.59,0,0,1,.8-2.7c1.7-5.1,3.7-10.2,10-11,5.4-.7,13.2,4.3,15.1,10a72.55,72.55,0,0,1,3.5,16c.8,9.4,1.1,18.8,1.2,28.3.1,8.3-.4,16.5-.5,24.8a37.51,37.51,0,0,0,.9,5.7c3.9-.5,3.4-2.9,3.4-4.8,0-4.7-.3-9.6,2.1-13.9,3-5.4,6.1-10.9,9.6-16,3.1-4.5,6-5.1,11.4-3.4,6.6,2,10.3,6.7,12.2,13.1,1.3,4.3,2.4,8.7,3.7,13.1.5,1.8,1.2,3.6,4.3,3.8a19.6,19.6,0,0,0,0-4.2c-1.3-5.1-2.7-10.2-4.3-15.3-2.8-8.4-8.6-13.6-17.2-15.5-4.3-.9-8.4-.1-11.4,3.4-1.8,2.1-3.4,4.5-5.1,6.8-.9,1.2-1.9,2.4-3.3,4.2-2-4.3-1.1-7.9-1.3-11.4s0-6.8-.2-10.2c-.2-3.6-.7-7.1-1.2-10.7-.5-3.3-1-6.6-1.5-9.5,2.8-2.3,5.1-4.2,7.4-6,7.7-6.2,16.2-6.7,25.1-3.4,5.1,1.9,7.1,6.4,7.9,11.6a27.38,27.38,0,0,0,.7,5c.2.7,1.3,1.8,1.8,1.8A3.78,3.78,0,0,0,673,819c.6-1.3.5-2.9.9-4.4,1.6-7.3,4.2-9.4,11.7-9.5,3.2,0,6.4.1,9.6,0a9.47,9.47,0,0,1,8.8,5.2,51.79,51.79,0,0,1,4.6,9.1c2.8,8,5.2,16.1,7.8,24.2,1.3,4.2,0,6.9-3.5,9.7-15,11.6-30.9,21.6-47.1,31.5-6.8,4.1-13.7,7.9-20.6,11.8a7.89,7.89,0,0,1-7.6.5,4.71,4.71,0,0,0-6.1,1.5c-2.7,3.4-6.5,4.4-10.5,4.9A159.4,159.4,0,0,1,599.3,903Z"/><path class="cls-1" d="M545,894.9a24.39,24.39,0,0,0,1.3-4.7c.2-2.8,0-5.7.1-8.5.2-6.1-.4-11.9,2.8-18,2.9-5.5,3.2-12.4,4.9-18.5a52.73,52.73,0,0,1,3.7-8.8,6.67,6.67,0,0,1,5.9-3.8,42.9,42.9,0,0,1,17.8,2.3,12.51,12.51,0,0,1,8,8.3c1.6,5.8,2.8,11.7,4,17.6,2.6,13.7,1.1,27.5,1.5,41.9-2.5.3-4.7.8-6.8.6-11.3-1-22.5-2.1-33.8-3.3-3.7-.4-7.4-1.1-11.2-1.6-7.4-.9-12.8-5.2-17.7-10.3-10.1-10.6-18.4-22.5-26.2-34.8-2-3.2-4.3-6.2-6.4-9.3-.9-1.4-1.7-2.8-2.3-3.9,3.9-5.8,7.2-11.3,11.2-16.3a34.92,34.92,0,0,1,8.4-7.4c4-2.5,6.9-1.8,10.1,1.5,9.8,10.1,17.2,21.3,19.1,35.7,1.5,11.3,3.1,22.4,2.7,33.8C542.1,889.8,541.3,892.5,545,894.9Z"/><path class="cls-1" d="M607.5,345.3c3.2-1.2,5.9-.6,8.5.1a131.35,131.35,0,0,0,21.7,3.8c6.3.6,12.5,2.7,18.8,4a54.84,54.84,0,0,0,10.6,1.3c23,0,46.1-.1,69.1-.2,4.1,0,8.2-.7,13.2-1.2a21.35,21.35,0,0,1-2.3,2.8c-2.9,1.8-5.9,3.4-8.8,5.1-2.1,1.3-4.2,2.5-6.2,3.9-1.6,1.2-4.2,2.7-2.8,4.8,1.8,2.6,3.5-.3,5.1-1.2,8-4.6,15.8-9.6,24-14,6.4-3.4,13.1-5,19.8-.3,1,.7,2.6.5,4,.8.6-4.5-3.9-4.4-4.8-7.2a2.66,2.66,0,0,1,4.1-1.4c4.7,3.1,9.1,6.5,14.3,10.2a25.67,25.67,0,0,1-4,2.4,80.29,80.29,0,0,0-38.7,31c-2.1,3.1-4.7,5.8-7.6,9.4-1.1-2.5-1.8-3.9-2.4-5.4a20.88,20.88,0,0,0-23.3-12.9c-1,.2-1.8,1-2.9,1.6,1.4,2.7,3.6,2.3,5.6,2.4,9.3.5,14.1,4,17.3,12.6a16.9,16.9,0,0,1,1.5,3.7c.3,1.4.6,3.1-.1,4.2-5.5,8.7-8.9,18.3-12.2,28-1.4,4.3-1.6,4.2-6.1,3.5a27.94,27.94,0,0,1-13-5.2c-3.8-2.8-4.1-4.3-1.8-8.5,3.6-6.9,6.9-13.8,6.9-21.9-.1-11.6-8-20.8-19.6-21.5-4.6-.3-9.4.6-14,1.4-3.7.6-6.1,3.5-8.4,6.4-1.6,2-3.4,3.9-5.5,6.4-3.2-6.3-5.7-12.2-11.2-15.9-5.8-3.9-12.4-2.1-19.1-2.1-.5-1.9-1-3.4-1.3-5-1.4-8-6.1-13.8-12.9-17.7-4.4-2.5-9.2-4.3-13.8-6.5Zm36.7,27.9c2.2-.4,4.2-.4,6-1a98.88,98.88,0,0,1,34.5-5.4c9.1.1,15.9,4,20.4,11.9a17.24,17.24,0,0,0,2.2,3.3c.4.4,1.4.3,2,.1.4-.1.8-.9.8-1.3a6.26,6.26,0,0,0-.6-2.7c-4.2-9.2-11.5-14.6-21.4-15.4a96.31,96.31,0,0,0-40.1,5.7C646.3,369,644.2,369.3,644.2,373.2Z"/><path class="cls-1" d="M959.1,866.7c0,11.4.2,21.7-.1,32.1-.2,7.3-1.1,14.7-1.3,22-.3,8.7-.4,17.4-.5,26-.1,5.5.1,11-.1,16.4-.1,1.5-1.1,2.9-1.7,4.4-1.6-.7-3.8-.9-4.8-2.1a65,65,0,0,1-6.8-9.7c-3.3-5.5-6.3-11.2-9.5-16.7-1-1.7-1.8-4.4-4.4-3.5s-1.2,3.4-1,5.4c.4,4.9.9,9.8.4,14.6-.9,7.9-2.5,15.6-4,23.4-.5,2.7-1.9,5.2-3,8-2.8-1.5-2.5-3.7-2.8-5.6a145.74,145.74,0,0,1-2.9-34.9c0-.4.1-.8-.1-1.1-.7-1.6-1.2-3.9-2.4-4.6-2-1.1-3.2,1.1-4.3,2.7-3.5,4.7-7,9.4-10.6,14-1,1.2-2.3,2.2-4.3,4.1,1.8-15.1,4.2-28.8,4.7-42.6s-.7-27.8-1.2-42.4c1.7.1,3.7.2,5.6.5,8.1.9,16.1,1.9,24.2,2.6,5.4.5,10.4-1.3,15.1-3.9C948.2,873,953.2,870.1,959.1,866.7Z"/><path class="cls-1" d="M451.2,783.7c2.2-3.5,4-6.4,5.7-9.3,4.9-8.5,13.1-11.9,22.1-12.8,12-1.2,15.9,3,16.3,15.2.3,12-.8,23.7-5.3,35a117,117,0,0,0-3.6,11.9c-.5,1.7-1.4,3.6,1.3,5.6.8-1.2,1.9-2.1,2.3-3.4,5.4-16.5,11.4-32.9,9.4-50.8-.4-3.9-1.4-7.7-2.1-11.6,6.5-6.4,15.2-7.9,23.2-3.8,1.7.9,3.3,1.8,5,2.7a17.09,17.09,0,0,1,8.7,10.6c4.1,13.2,4.8,26.3-1,39.3-1.1,2.5-1.9,5.2-3.2,8.8-2.3-2-4.2-3.3-5.8-5-6.2-6.3-11.5-6.8-19-2-5.7,3.6-8.7,9.3-12.2,14.7-1.4,2.1-3,4.1-4.9,6.7C475.6,817.8,463.5,800.8,451.2,783.7Z"/><path class="cls-1" d="M721.7,845.1c-2.2-6.7-3.9-12.7-6.1-18.4s-4.5-11.6-7.2-17.2c-2.9-6.2-7.7-9.6-14.8-9.1-2.3.2-4.5,0-6.8,0-9.4,0-9.4,0-15.9,6.3-4.8-8.6-12.6-11.3-21.8-11-9,.3-16.4,3.7-22,11.2-.4-.2-.7-.4-1.1-.6-.2-1.5-.8-3.1-.6-4.6,2.1-10.9,4.1-21.9,6.6-32.7,1.6-6.9,6.2-11.8,11.7-16.2,6-4.7,21.9-2.1,23,8.7.6,5.8,1.4,11.6,2.1,17.4.3,2.6-.2,5.8,2.7,7,3.3,1.3,4.4-2.2,6-4,7.7-9,13-9.7,22.6-2.4a42.78,42.78,0,0,1,5.5,4.9c5.1,5.6,10.6,10.7,14,17.6a35.91,35.91,0,0,0,4.5,6.5c5.9,7,8.8,15.3,11.2,23.9.5,1.7.8,3.4-1,4.6C730.5,839.7,726.4,842.2,721.7,845.1Z"/><path class="cls-1" d="M576.1,364a65.15,65.15,0,0,1,14.8-9.3c1.6-.7,3.2-1.1,4.8-1.7,6.7-2.6,13.1-2.7,19.6,1,4.6,2.7,9.3,4.8,12.6,9.3,4.5,6.1,5.8,12.9,2.9,19.8-6,14.5-12.6,28.7-24.5,39.6-4.7,4.3-9.2,8.8-14.2,12.9-6.3,5.2-14,4.4-22.1,4.3.5-1.6.6-3,1.3-3.9,3.8-4.9,7.2-10.3,11.6-14.5,7.4-7,10.4-14.9,8.6-24.9-2-11.4-5.5-21.9-14.4-30a6.71,6.71,0,0,1-.9-1.4A10.9,10.9,0,0,0,576.1,364Z"/><path class="cls-1" d="M586.7,734.7c-1.4-.9-2.2-1.3-2.9-1.8-11-7.5-21.9-6.7-31.8,2.2-3.3,3-6.6,5.9-10.5,9.4-.6-2-1.1-3-1.1-4a46.71,46.71,0,0,0-6.3-20.9c-1.8-3.3-1.6-5.9.6-8.8,7.4-9.5,17.3-14.4,29-15.8,6.6-.8,12.5,2.2,17.7,6.2a10.68,10.68,0,0,1,3.4,5,85.68,85.68,0,0,1,2.9,25.7C587.7,732.6,587.3,733.2,586.7,734.7Z"/><path class="cls-1" d="M522.1,680.8c3.5-4.3,6.1-7,8.1-10.1,4.4-6.9,11-11.4,17.4-15.9,5.5-3.9,10.2-3.5,13.7,2.2,6.1,9.9,11.4,20.3,5.7,32.7-14.8,2.2-28.2,7.5-37.7,20.7-2.7-1.4-5.1-2.7-7.2-3.8Z"/><path class="cls-1" d="M758.8,824c-5.4,2.5-11.6,5.4-18.4,8.6-.1-1.8-.4-2.8-.2-3.8,3.6-13.1,7.2-26.2,11-39.2,3.5-11.7,2.8-23.5,1.8-35.4-.6-7.2-2.1-14.4-3.2-22.4a19.26,19.26,0,0,1,2.5,3.4c2.2,5,4.3,10,6.2,15.2s3.1,10.6,5.3,15.5c4.3,9.3,3.9,18.6,1.1,28.1-1.9,6.3-3.3,12.8-4.7,19.2C759.5,816.6,759.3,819.9,758.8,824Z"/><path class="cls-1" d="M524.7,103c3.7-1.2,7-2.3,10.5-3.4,3,4.6,3.9,9.2,4.6,13.8.5,2.8-1.5,3.4-3.6,4.2-9.7,4-19.9,5.7-30.2,7.1-8.4,1.1-16.8,2.5-25.1,4.1-2.4.5-4.7,2-7,3.1-.6-6.3,2.4-14.3,7.3-19.2,3.4,3.1,7.5,1.4,11.8.9a29.85,29.85,0,0,1,0,3c-.2,3.1,1.5,4.5,4.2,5.1a15.76,15.76,0,0,0,11.4-1.9,125.38,125.38,0,0,1,12.5-6.7C525.7,111.1,526.3,107.6,524.7,103Z"/><path class="cls-1" d="M483.8,136.1c18.2-4.4,37.3-4.4,55.1-11.5,1.2,3.5-.2,5.4-2.1,6.6-3.3,2.2-6.6,4.7-10.2,5.9a63.58,63.58,0,0,1-24.5,3.4c-4.5-.4-9-.7-13.5-1.2a22.7,22.7,0,0,1-5-1.7A7.72,7.72,0,0,1,483.8,136.1Z"/><path class="cls-1" d="M786.5,809.3c-7.3,5.9-14.2,10.5-23.5,12.8,1.5-11.1,4.2-21.2,7.6-32.7,2.8,4.4,4.7,7.9,7.2,10.9S783.2,805.9,786.5,809.3Z"/><path class="cls-1" d="M532.3,91.9c-6.6,3.9-14.1,4.7-21.2,6.8s-14.2,4.7-22.1,7.3c.5-1.2.6-1.9,1-2.2,8.4-6.3,16.7-13.1,27.1-15.9a37.29,37.29,0,0,1,10-.9C529.7,87.1,531.7,88.5,532.3,91.9Z"/><path class="cls-1" d="M499,116.5a15.49,15.49,0,0,1,2.4-2.2c2.2-1.4,4.7-2.3,5.4-5.4.2-.9,1.9-1.9,3-1.9a78.82,78.82,0,0,1,9.3.6C513.6,113.4,503.8,117.8,499,116.5Z"/><path class="cls-1" d="M464.5,646c-6.2-.6-12.5-1.1-19.2-1.7,3.6-2.8,3.7-2.9,10.1-2.2C461.6,642.8,461.6,642.8,464.5,646Z"/><path class="cls-1" d="M223.9,1095.4A27.41,27.41,0,0,1,237,1099c15.6,8.9,23,22.8,24.4,40.3.6,7.1-1.1,8.7-8.4,8.6a30.83,30.83,0,0,1-6.7-.9c-5.2-1.2-8.1-4.8-8.5-10a61.12,61.12,0,0,1,.2-11.3c.7-7.1,1-14-3.7-20a72.88,72.88,0,0,0-5.3-5.8C227.7,1098.6,226.3,1097.5,223.9,1095.4Z"/><path class="cls-1" d="M166,1107.8c9.1,5.6,8.8,10.9,6,17.8-3.2,7.9-9.3,13-16.9,16.5-2.6,1.2-4.2,0-4.4-3.1-.5-7.5,2.1-14.1,6.3-20C159.7,1115.2,162.8,1111.7,166,1107.8Z"/><path class="cls-1" d="M68.3,870.1c8.7,3.4,11.4,6.9,11.1,15.8a112.53,112.53,0,0,1-2.2,16.2c-.7,3.7-2.2,7.2-2.9,10.9-1.2,6.8-4.7,12.2-8.9,17.4-4,4.9-9.1,7-15,4.9-5.6-2-9.6-6-10.6-12.1a16.17,16.17,0,0,1-.1-6.2c1.9-7.5,3.4-15.1,8.4-21.4,5.9-7.6,11.7-15.3,17.5-22.9A32.51,32.51,0,0,1,68.3,870.1Z"/><path class="cls-1" d="M219.1,914.9c7.2,6.5,12.6,13.1,10.5,22.9a17.88,17.88,0,0,1-3.2,7c-2.3,2.9-5.3,5.2-9.3,3.8-3.8-1.3-5.4-4.7-5.8-8.4a30.11,30.11,0,0,1,.3-9A39.47,39.47,0,0,1,219.1,914.9Z"/><path d="M869.1,455.5c.4,2.2.4,4.5,1.2,6.6,7.7,21.2,13.5,42.8,19.5,64.5,2.7,9.8,6.7,19.2,10,28.9s6.7,19.6,10.1,29.6c.2,0,.9.2,1.2-.1,4.8-5,10.7-4,16.4-2.6a22.35,22.35,0,0,1,7.3,3.1c8.5,5.7,17.2,11,25,17.6a201.17,201.17,0,0,0,25.9,18.2c8.6,5.3,14.3,12.8,18.4,21.6a9.44,9.44,0,0,1,.4,6c-1,3.8-6.2,4.7-9.2,1.5a35.38,35.38,0,0,1-4.4-6.5,33.89,33.89,0,0,0-11.7-12.1c-6.7-4.2-13.3-8.7-19.8-13.1a20.36,20.36,0,0,1-4-3.1c-7.2-7.7-16.4-12.7-25-18.5a26.62,26.62,0,0,0-8.4-3.2,105.32,105.32,0,0,0-11-1.8c4.1,18.8,9,37.5,12.3,56.6,3.2,18.9,4.9,38.1,7.2,56.9,23.2,6.6,37.3,22.8,47.1,43.5a21.84,21.84,0,0,1,1.8,7.1,5.65,5.65,0,0,1-4,6.1c-2.6.7-5-.4-6.6-3.1-.7-1.3-1.2-2.8-1.8-4.2a70.41,70.41,0,0,0-30.1-34.3,49.24,49.24,0,0,0-4.9-2,16.15,16.15,0,0,0-.6,3.8c.2,22.9.5,45.7.7,68.6.1,5.1-.3,10.2.1,15.3.8,11.1-1.9,21.8-3.5,32.6-.6,4-3.2,6.1-6.4,5.8s-5.5-2.8-5.3-6.9c.2-4.3,1.1-8.6,1.7-12.9a94.36,94.36,0,0,0,1.2-11.8c.1-26.1.4-52.1,0-78.2-.2-11.9-1.7-23.7-2.6-35.6-.3-4-.6-7.9-.9-11.9-2.5-26.4-6.7-52.4-13.9-77.9-3.1-10.9-5-22.1-8.1-33-1.9-6.9-5-13.4-7.4-20.2-3.1-8.9-5.9-17.9-8.9-26.9-.4-1.2-.9-2.4-1.2-3.4-4.8,3.3-9.6,6.2-13.8,9.8a26.19,26.19,0,0,0-6.6,8.9c-2,4.4-3.1,9.3-4.2,14.1a207.56,207.56,0,0,0-3.9,20.6c-1.7,14.5-6.7,27.8-13.5,40.6a186.42,186.42,0,0,0-14.3,36.3c-3.3,11.8-6.6,23.6-9.8,35.5-.7,2.7-.9,5.6-1.4,8.4a65.7,65.7,0,0,1-1.6,7.7c-1.2,3.8-4.1,5.5-7.3,4.8-2.9-.7-4.5-3.1-4.2-7,.4-4.1,1-8.3,1.8-12.3,4-21,10.4-41.4,18-61.3a229.44,229.44,0,0,1,11.2-24.1,89.88,89.88,0,0,0,8-24.1c2.5-13,5.1-25.9,8.1-38.8,2.8-12.4,11.3-20.2,22.6-25,2.4-1,5.4-.5,8.8-.7a41.77,41.77,0,0,0-.9-5.5c-5.2-16.6-10.4-33.1-15.8-49.6-3.2-9.7-6.7-19.2-10.2-28.8-5.5-15.1-13.2-28.9-26.5-38.6-.6-.4-1.3-.8-2.2-1.3-4.7,6.2-10.2,12-11.4,19.8-1.9,11.7-7.6,21.6-13.5,31.6a75.82,75.82,0,0,1-4,6.8c-1.2,1.6-2.7,3.3-4.5,3.9-3.9,1.5-7.4-1.3-7-5.4a12.7,12.7,0,0,1,1.7-5.3c1.9-3.7,4-7.3,6.2-10.8a67.43,67.43,0,0,0,9.3-22.9,42,42,0,0,1,11.8-21.6c.8-.8,1.5-1.7,2.4-2.7a26.57,26.57,0,0,1-2.4-3.8c-2-4.2.6-8.5,5.2-8.1a13.29,13.29,0,0,1,7.1,3c7.1,5.9,13.9,12.1,20.8,18.3a37.29,37.29,0,0,1,3.2,3.9,28.6,28.6,0,0,0,1.7-2.9c1.2-3.1,3.6-3.9,6.7-4.2,6-.7,12.1-1,17.7-2.9,11.2-3.8,22.6-5.8,34.2-7.3,3.2-.4,6.3-1.1,9.5-1.2,4.1-.2,6.7,1.8,7.1,5,.3,2.8-1.5,5.6-5.2,6.4-5.9,1.3-11.9,2-17.8,3.1s-11.8,2.2-17.7,3.7-11.9,3.6-18,4.9c-4.3.9-8.8.8-13.5,1.1a17.25,17.25,0,0,0,1,2.4c7.1,13,11.7,27,17,40.7a41.36,41.36,0,0,0,2.9,5.5Z"/><path d="M869.2,455.7c-.4-6.2,1.3-8.8,7.2-8.9,14.5-.1,29.1-1.1,43.5,1.1,11.2,1.8,19.9,8,26.7,16.8a92.93,92.93,0,0,0,22.8,21,40.15,40.15,0,0,0,11.9,5c5.3,1.3,10.8,1.6,16.2,2.4,2,.3,4.2.5,5.9,1.5a5,5,0,0,1-.2,9,18.13,18.13,0,0,1-7.7,1.3c-16.9-.3-31.9-5.6-44.1-17.6-5.1-5-9.9-10.3-14.7-15.7-6.1-6.9-13.1-11.9-22.7-12.1-11.7-.2-23.4-.6-35.1-.8-3.7-.1-7.1-.6-9.9-3.3A1.44,1.44,0,0,1,869.2,455.7Z"/><path d="M761.6,553.3c.1-7.6,2.9-12.9,6.4-17.9,3-4.3,6.5-8.4,9.4-12.7,14.6-21.6,29-43.2,43.6-64.8a144.55,144.55,0,0,1,8.8-11.8,23.86,23.86,0,0,1,6-5,5.23,5.23,0,0,1,6.7,1.1c1.9,2,1.9,4.4.6,6.8-.4.7-.9,1.2-1.3,1.8-9.1,12.7-18.6,25.2-27.3,38.2-11.3,16.7-21.5,34.2-34.2,50-3.8,4.8-6.8,10-7.1,16.3a5.53,5.53,0,0,1-1,3.2,10.31,10.31,0,0,1-4.5,2.8,4.28,4.28,0,0,1-4.9-3A30.21,30.21,0,0,1,761.6,553.3Z"/><path d="M903.3,667.4a25.82,25.82,0,0,1-2.4,4.6,163.28,163.28,0,0,0-20.3,37.7c-5.6,14.4-13.2,27.5-24.5,38.3-3.2,3-6.6,3.7-9,1.6s-2.7-5.9-.2-9.3c2-2.7,4.6-5,6.8-7.5,7.8-9,12.2-19.8,16.8-30.6,5.4-12.7,11.5-25,19.8-36.1a14.77,14.77,0,0,1,5.6-4.6C899.5,659.7,903.2,662.4,903.3,667.4Z"/><path d="M691.5,542.9c3.3,1.8,8.6,0,10.4,5.3-.7.4-1.3,1.2-1.8,1.1-5.6-.5-11.1-1.2-17.6-1.9,2.5-3.8,4.4-6.8,6.4-9.7,2.1-3.1,4.5-6.1,6.5-9.2a28.87,28.87,0,0,0,4.7-17.2c-.3-7.3,0-14.7-.1-22.1a33,33,0,0,0-8.8-22.7c-3.2-3.5-4.8-3.9-8.7-.9-3.5,2.8-6.6,6.2-9.9,9.2a66.45,66.45,0,0,1-6.5,5.4c-.6.4-1.7.1-2.6,0,0-1-.4-2.5.2-3,5.4-5.3,10.5-10.9,16.4-15.5,5.4-4.3,9.2-3.4,13.9,1.5a36.81,36.81,0,0,1,10.3,25.1c.3,8.7.1,17.4,0,26-.1,9.2-5.1,16.4-10.1,23.5l-2.7,3.6C691.4,541.8,691.6,542.3,691.5,542.9Z"/><path d="M617.8,640.6c-.7-.4-1.7-.6-2.2-1.3a16.59,16.59,0,0,1-1.2-3.1c-2.4-7.1-5.5-13.5-13.1-16.8-8.6-3.8-17.3-5.3-26.4-2.1-1.2.4-2.4,1.1-3.6,1.6-3.7,1.8-5.6,4.4-5.1,8.9a111.6,111.6,0,0,1,0,15.3,31.17,31.17,0,0,1-.8,5.2c-3.5-.4-3.2-2.7-3.2-4.4-.1-4.1-.1-8.3-.1-12.5,0-2.1,0-4.2-.1-6.2-.3-7.9-3.5-14.2-10.3-18.4a36.39,36.39,0,0,1-5.2-3.5,6,6,0,0,1-1.9-3.6c5.6-.6,9.1,3.1,12.6,6.2s6,7,9.2,10.8a33.54,33.54,0,0,1,20.8-5.4,36.59,36.59,0,0,1,21.1,7.3c6.8,5.2,10.2,12.6,10.9,21.1A8,8,0,0,0,617.8,640.6Z"/><path d="M645.1,498c1-4,3.6-4.3,5.9-3.9,5.2.8,10.1,2.7,12.5,7.6,2.1,4.3,4.2,9.1,4.6,13.8,1,10.9,1.3,21.8,1.5,32.7.1,3.1-1.1,6.2-1.9,9.3A18.74,18.74,0,0,1,666,561c-.6-.4-1.2-.7-1.8-1.1-.2-1.2-.8-2.5-.4-3.4,2.2-5.5,1.6-11.1,1.4-16.8-.2-7.5-.5-15.1-1.3-22.6a40,40,0,0,0-2.8-10.8c-2.2-5.4-6.6-7.9-12.6-7.8A13.09,13.09,0,0,1,645.1,498Z"/><path d="M358.7,653.5c.3-2,.1-3.4.7-4.3a47.17,47.17,0,0,1,5.2-6.6c8.6-8.7,17.6-17.1,25.8-26.1,7-7.7,10.2-17.5,11.9-27.7.8-5,1.4-10.1,2.6-15,1.6-6.7,6.7-9.7,13-11.1,1.6-.4,3.4-.5,4.5,2.2-1.2.6-2.4,1.6-3.6,1.8-7,1.4-9.9,6-10.8,12.7a140.69,140.69,0,0,1-3.1,17.2c-2.8,11.2-8.2,21-17.2,28.6-3.7,3.2-6.9,7-10.3,10.5-5.1,5.3-10,10.7-15.1,15.9C361.6,652.4,360.5,652.6,358.7,653.5Z"/><path d="M515.3,498.3a28.51,28.51,0,0,1-1.4-5c-.5-3.5-.8-7.1-1.1-10.7a51.21,51.21,0,0,0-8.7-25.4c-3.8-5.6-8.3-10.4-15.9-10.2a4.71,4.71,0,0,1-1.6-.4c-.3-.1-.6-.5-1.3-1.2.9-.9,1.6-2.1,2.6-2.3a12.49,12.49,0,0,1,10.7,2.2c8.6,6.1,13.7,14.7,16.2,24.5,2,8,2.5,16.4,3.6,24.6C518.4,496.2,518.4,498,515.3,498.3Z"/><path d="M644.2,373.2c0-3.9,2.1-4.2,3.8-4.9a96.31,96.31,0,0,1,40.1-5.7c9.9.8,17.2,6.2,21.4,15.4a6.26,6.26,0,0,1,.6,2.7,1.51,1.51,0,0,1-.8,1.3,2.67,2.67,0,0,1-2-.1,15.81,15.81,0,0,1-2.2-3.3c-4.5-7.9-11.3-11.8-20.4-11.9a98.88,98.88,0,0,0-34.5,5.4C648.5,372.8,646.5,372.8,644.2,373.2Z"/></g></g></svg>