<svg xmlns="http://www.w3.org/2000/svg" viewBox="0 0 1200 682.7"><defs><style>.cls-1{fill:#fff;}</style></defs><g id="Layer_2" data-name="Layer 2"><g id="Layer_1-2" data-name="Layer 1"><path class="cls-1" d="M1200,682.7H0V0H1200Zm-91.6-162.8c2.2,3.9,4.9,7.1,9.9,7.2,3.5.1,7,.7,10.4.7a195.7,195.7,0,0,0,20.3-.9c7-.9,12.1-5.4,15.8-11.1,4.7-7.4,8.8-15.1,12.9-22.8,7.7-14.3,12.3-29.7,15.5-45.5a128.36,128.36,0,0,0,1.6-15.2c1.3-19,2.7-38,3.8-57a529.65,529.65,0,0,0,.3-59.1c-.6-12.2-5.9-21.5-16.2-28.2a80.73,80.73,0,0,0-22-9.9c-21.8-6.1-44.2-8.1-66.7-9.7-9.9-.7-19.8-1.1-29.2-4.8-26.8-10.7-52.7-23.1-78.5-36a5.11,5.11,0,0,1-2-2.9c-2.8-10.5-5.4-21-8.4-31.5-1.8-6.4-4.2-12.7-6.2-19.1-3.1-10-10-16.4-19.3-20.4-7.6-3.2-15.3-6-23-8.9-2.3-.8-3.4-1.8-2.8-4.6.7-3.2-1.3-4.4-4.3-3-.8.4-1.6.9-2.4,1.4-1.9,1.2-3.2.7-3.3-1.5a35.4,35.4,0,0,1,.9-7.1c6,1.3,11.3,1.4,16.6-.1,8.1-2.3,12.3-8.4,11.2-16.7a35.53,35.53,0,0,0-1.7-6.4,28.47,28.47,0,0,1-1.1-15.3c1.5-7.7,2.8-15.4,2.3-23.3-.2-3.4-.8-6.8-1.3-10.2,6.8-1.9,9.8-10.2,5.5-15.7a55.5,55.5,0,0,0-6.9-6.8c-3-2.8-5.2-6-5.1-10.4,0-5.1-1.8-9.3-6-12.3a7.69,7.69,0,0,1-1.8-1.8c-2.4-3-2-5.8,1.1-8.1a29,29,0,0,1,3.3-2C925,.2,918.6.6,913,4.4a10.59,10.59,0,0,0-4.5,7.4c-.7,5.4-1.7,6-7.1,7a225,225,0,0,0-24.3,5.6A28.62,28.62,0,0,0,861.7,36c-3.5,5.1-3,10.7,1.4,14.5a4.16,4.16,0,0,1,1.4,4.4c-1.4,8.2-1.1,16.2,2.7,23.2-.4,1.3-1.1,2.3-.9,2.9,2.6,7.3,6.7,13.7,13.9,17.2a21.18,21.18,0,0,1,8.7,7.5c1.5,2.2,3.1,4.3,4.5,6.5a3.68,3.68,0,0,1,.5,2.5c-1.6,8.4-5,16.1-11.5,21.6-5.5,4.7-11.6,8.5-17.6,12.6-4.9,3.3-10.3,6-15,9.6-10.5,7.9-14.2,18.9-13.2,31.7a45.77,45.77,0,0,0,1,5.7c-3.7-.2-7-.5-10.4-.6-23.6-.9-47.2-2-70.8-2.7-31.2-.9-62.4-1.7-93.6-2-15.5-.2-31.1.3-46.6,1.4-18.2,1.2-35.4,6.8-52.2,13.7q-64.05,26.4-125.4,58.8c-19,10.1-38.4,19.7-55.7,32.9-3.5,2.7-7.5,3.2-11.8,2.9-11.4-.6-22.8-1.4-34.1-1.3q-38.25.45-76.5,2c-16.4.6-32.3,4.2-47.1,11.8-26.8,13.9-53.9,27.5-80.4,41.9-28.5,15.5-56.5,31.9-83.5,50-9.3,6.2-18.4,12.8-27.3,19.7A25.66,25.66,0,0,0,11.8,443c-.5,5.5-.8,11.4.3,16.7,2.9,13.9,6.5,27.7,10.1,41.5,1.3,5,3.4,9.7,5.2,14.9-1.8.7-3.6,1.5-5.4,2.1-6.4,2.3-12.6,5.2-17.8,9.7-4.9,4.3-5.3,8.3-1.1,13.3A129,129,0,0,0,13.2,552c14.8,14.4,32,25.5,50,35.4,13.3,7.3,27,13.6,42.1,16.1a33.16,33.16,0,0,1,14.7,6.6,70,70,0,0,0,14.1,8.6c19.5,9.1,40.2,15.1,61,20.4,27.7,7.1,55.7,12.1,83.8,16.9,31.7,5.5,63.5,10.4,95.7,12.9a286.53,286.53,0,0,0,66.1-2.6c14.8-2.3,29.5-4.9,44.2-7.4q26-4.5,51.9-9.1c6-1.1,12-2.6,17.5-3.8,2,5.7,3.6,11.4,5.9,16.9,2.2,5.3,6.5,8,12.3,7.9,6.5-.1,12.9-.6,19.4-.5,10.1.1,20.2.5,30.3.7,21.3.5,42.4-1.1,63.1-6.9,18.5-5.2,33.4-15.2,43.1-32.2,14.2-24.9,23.1-51.4,23.1-80.4V478.9a1.21,1.21,0,0,1,.6.9c1.2,9.5,2.7,19,3.4,28.6,2,29.2,0,58.3-4,87.2-.5,3.3-.4,3.4,2.8,2.6q48.3-12.3,96.7-24.7c5.9-1.5,11.8-3,17.9-4.5.2,1.2.4,2.1.5,3,1.1,10.5,1.6,21.1,3.4,31.4,1.4,8.1.3,14.9-4.7,21.5-3.8,5.1-3,9.9,1.8,14a46.63,46.63,0,0,1,10.7,13.5C887.2,664,897,671.8,909,677a29.65,29.65,0,0,0,10.6,2.3c5.6.1,8.7-3.8,7-9.2a65.71,65.71,0,0,0-6.7-14.5c-6.5-10.4-13.3-20.5-20.2-30.7a30.31,30.31,0,0,1-5.2-21.8c1.8-13.3,3.6-26.6,5.3-39.9a3,3,0,0,1,2.6-3q28.65-7.2,57.2-14.6l7.1-1.8a17.66,17.66,0,0,1,.8,2.5c4.3,14.8,8.5,29.7,12.8,44.5a59.62,59.62,0,0,1,1.8,27.2,45.82,45.82,0,0,0-.2,11.1,8.31,8.31,0,0,0,7,7.8,38.51,38.51,0,0,0,9.6.7c5.8-.3,11.7-1.3,17.5-1.7,12.5-.9,25.1-1.5,37.6-2.6a51.27,51.27,0,0,0,12.3-2.9c4.4-1.6,4.9-4.9,1.2-7.9a17.21,17.21,0,0,0-6.5-3.2c-5.1-1.4-10.2-2.5-15.3-3.7-8.8-2-17.7-3.9-26.5-6.1-7.2-1.8-11.4-6.6-12.7-14a48.08,48.08,0,0,1-.7-5.3c-1-12.7-2-25.4-2.9-38.1-.4-5.7-.8-11.3-1.1-17.1.9-.3,1.6-.5,2.4-.7,29.8-7.6,59.7-15.3,89.5-22.8,2.2-.6,2.9-1.6,3-3.8.2-4.6.7-9.3,1-13.9a11.66,11.66,0,0,1,1,2.6c1.3,4.5,2.7,8.9,4.1,13.4a6.22,6.22,0,0,0,1.4,1.9C1105.4,514.6,1106.9,517.2,1108.4,519.9Z"/><path d="M1104,511.9a6.22,6.22,0,0,1-1.4-1.9c-1.4-4.4-2.7-8.9-4.1-13.4a8.25,8.25,0,0,0-1-2.6c-.4,4.6-.9,9.3-1,13.9-.1,2.2-.8,3.2-3,3.8q-44.85,11.4-89.5,22.8c-.7.2-1.5.4-2.4.7.4,5.7.7,11.4,1.1,17.1,1,12.7,1.9,25.4,2.9,38.1a48.08,48.08,0,0,0,.7,5.3c1.3,7.3,5.5,12.2,12.7,14,8.8,2.2,17.7,4,26.5,6.1,5.1,1.2,10.3,2.3,15.3,3.7a18.82,18.82,0,0,1,6.5,3.2c3.7,3,3.2,6.3-1.2,7.9a46.93,46.93,0,0,1-12.3,2.9c-12.5,1.1-25.1,1.7-37.6,2.6-5.8.4-11.7,1.4-17.5,1.7a38.51,38.51,0,0,1-9.6-.7,8.23,8.23,0,0,1-7-7.8,45.73,45.73,0,0,1,.2-11.1,60.93,60.93,0,0,0-1.8-27.2c-4.3-14.8-8.6-29.7-12.8-44.5-.2-.7-.5-1.4-.8-2.5-2.4.6-4.8,1.2-7.1,1.8-19.1,4.9-38.1,9.8-57.2,14.6-1.8.5-2.4,1.2-2.6,3-1.7,13.3-3.6,26.6-5.3,39.9a30.31,30.31,0,0,0,5.2,21.8c6.9,10.1,13.7,20.3,20.2,30.7a63.67,63.67,0,0,1,6.7,14.5c1.7,5.3-1.4,9.3-7,9.2a30.12,30.12,0,0,1-10.6-2.3c-12-5.2-21.8-13-28.4-24.6a51.42,51.42,0,0,0-10.7-13.5c-4.8-4.1-5.6-8.9-1.8-14,4.9-6.6,6.1-13.4,4.7-21.5-1.8-10.4-2.3-20.9-3.4-31.4-.1-.9-.3-1.8-.5-3-6.1,1.5-12,3-17.9,4.5q-48.3,12.3-96.7,24.7c-3.2.8-3.3.8-2.8-2.6,4-28.9,6.1-58,4-87.2-.7-9.6-2.2-19.1-3.4-28.6a1,1,0,0,0-.6-.9v72.6c0,29-8.9,55.4-23.1,80.4-9.7,17-24.6,27-43.1,32.2-20.7,5.8-41.8,7.3-63.1,6.9-10.1-.2-20.2-.6-30.3-.7-6.5-.1-12.9.4-19.4.5-5.8.1-10.1-2.6-12.3-7.9-2.2-5.5-3.9-11.2-5.9-16.9-5.5,1.2-11.4,2.8-17.5,3.8q-25.95,4.65-51.9,9.1c-14.7,2.5-29.4,5.1-44.2,7.4a286.53,286.53,0,0,1-66.1,2.6c-32.1-2.5-63.9-7.4-95.7-12.9-28.1-4.9-56.2-9.9-83.8-16.9-20.8-5.3-41.5-11.3-61-20.4a78.19,78.19,0,0,1-14.1-8.6,31.19,31.19,0,0,0-14.7-6.6c-15.2-2.5-28.8-8.8-42.1-16.1-18-9.8-35.2-21-50-35.4-3.5-3.4-6.9-7-10.1-10.8-4.2-5-3.8-9,1.1-13.3,5.2-4.5,11.3-7.4,17.8-9.7l5.4-2.1c-1.8-5.1-3.9-9.9-5.2-14.9-3.6-13.8-7.2-27.6-10.1-41.5-1.1-5.4-.7-11.2-.3-16.7a25.66,25.66,0,0,1,10.4-18.6c8.9-6.8,18-13.4,27.3-19.7,27-18.1,55-34.5,83.5-50,26.6-14.4,53.6-28,80.4-41.9,14.8-7.6,30.6-11.2,47.1-11.8,25.5-1,51-1.6,76.5-2,11.4-.1,22.8.7,34.1,1.3,4.3.2,8.3-.2,11.8-2.9,17.2-13.2,36.6-22.8,55.7-32.9q61.2-32.55,125.4-58.8c16.8-6.9,34-12.5,52.2-13.7,15.5-1,31.1-1.5,46.6-1.4,31.2.3,62.4,1.1,93.6,2,23.6.7,47.2,1.8,70.8,2.7,3.4.1,6.8.4,10.4.6-.4-2.1-.8-3.9-1-5.7-1-12.8,2.7-23.8,13.2-31.7,4.7-3.6,10.1-6.3,15-9.6,6-4,12.1-7.9,17.6-12.6,6.5-5.6,9.9-13.2,11.5-21.6a3.57,3.57,0,0,0-.5-2.5c-1.4-2.2-3-4.3-4.5-6.5a20.48,20.48,0,0,0-8.7-7.5c-7.2-3.5-11.3-9.9-13.9-17.2-.2-.6.5-1.6.9-2.9-3.8-6.9-4.1-15-2.7-23.2a4.21,4.21,0,0,0-1.4-4.4c-4.4-3.8-4.8-9.4-1.4-14.5a28.62,28.62,0,0,1,15.4-11.6A244.9,244.9,0,0,1,901.6,19c5.4-1,6.4-1.6,7.1-7a10.39,10.39,0,0,1,4.5-7.4C918.8.8,925.1.4,931.8,1.1c-1.1.7-2.3,1.3-3.3,2-3.1,2.2-3.5,5.1-1.1,8.1a7.69,7.69,0,0,0,1.8,1.8,14.17,14.17,0,0,1,6,12.3c0,4.4,2.1,7.6,5.1,10.4a63.36,63.36,0,0,1,6.9,6.8c4.3,5.5,1.3,13.8-5.5,15.7.4,3.4,1,6.8,1.3,10.2.5,7.9-.8,15.6-2.3,23.3a27.53,27.53,0,0,0,1.1,15.3,28.82,28.82,0,0,1,1.7,6.4c1.1,8.3-3.1,14.4-11.2,16.7-5.3,1.5-10.6,1.4-16.6.1a59.94,59.94,0,0,0-.9,7.1c.1,2.2,1.4,2.6,3.3,1.5.8-.5,1.6-1,2.4-1.4,3-1.4,4.9-.3,4.3,3-.6,2.8.6,3.7,2.8,4.6,7.7,2.9,15.5,5.7,23,8.9,9.4,3.9,16.2,10.4,19.3,20.4,2,6.4,4.4,12.7,6.2,19.1,2.9,10.5,5.5,21,8.4,31.5a4.68,4.68,0,0,0,2,2.9c25.8,12.8,51.7,25.3,78.5,36,9.5,3.8,19.3,4.1,29.2,4.8,22.5,1.6,44.9,3.6,66.7,9.7a77.83,77.83,0,0,1,22,9.9c10.3,6.6,15.6,16,16.2,28.2a529.65,529.65,0,0,1-.3,59.1q-1.8,28.5-3.8,57c-.4,5.1-.5,10.2-1.6,15.2-3.3,15.8-7.8,31.2-15.5,45.5-4.1,7.7-8.2,15.4-12.9,22.8-3.6,5.7-8.8,10.3-15.8,11.1a196.94,196.94,0,0,1-20.3.9c-3.5.1-6.9-.6-10.4-.7-5-.1-7.7-3.3-9.9-7.2,1.6,1.3,3,3,4.8,3.7a25.42,25.42,0,0,0,8.2,1.6,226.62,226.62,0,0,0,23.3.2c6.3-.4,11.7-3.4,16.1-9.3-6.4,3.7-12.3,4.7-18.4,1.3,9.1,3.1,15.8-.8,21.5-7.4a47.56,47.56,0,0,0,5.1-7.3c7.7-14,11-29.3,12.7-45,1.7-15.4,1.4-30.9,1-46.4-.3-10.6-1-21-5.6-30.8-2.4-5.2-5.1-10.2-9.4-14.1-5.5-4.9-11.4-5.4-17.4-1a54.34,54.34,0,0,0-7.6,6.8c-10.2,11.3-16,24.9-20.2,39.3-6.3,21.8-6.4,43.9-2.3,66.1,3,15.7,8.2,30.3,22.2,40-1.9-1.2-4.1-2.1-5.8-3.6a48.21,48.21,0,0,1-15.1-22.6c-9.3-28.3-9.6-56.7-.6-85.2,4.7-14.8,12.2-28,23.4-38.9,7.4-7.2,14.9-7.8,23.5-2.2,7.2,4.7,11.2,11.6,13.9,19.5,2.6,7.6,3,15.5,3.3,23.4.5,16.5.8,33-1.2,49.4-1,8.3-2.4,16.6-3.7,24.9,1.2-3.1,2.5-6.2,3.7-9.4,3.4-9.2,6.8-18.6,6.7-28.6a269.37,269.37,0,0,0-7.4-61.9c-2.4-9.5-5.4-18.8-11.4-26.8-6.8-9-15.5-10.8-25.4-5.5-6.8,3.7-11.9,9.3-16.1,15.7-6.5,9.9-10.4,21-13.9,32.1a418.07,418.07,0,0,0-16.2,73.2c-.8,5.9-1.7,11.8-1.4,17.7A67.9,67.9,0,0,0,1104,511.9ZM846.6,216.3a6.37,6.37,0,0,1,.2.7,18.16,18.16,0,0,1-2.9.8c-14.8,1.4-26.1,8.6-34,21a540.93,540.93,0,0,0-47.8,93,47.59,47.59,0,0,0-2,7.4c-1,5.4,1.1,7.8,6.6,7.5,5.1-.3,10.2-.8,15.2-1.4,13.9-1.7,27.8-3.3,41.7-5.4,13.2-2,26.3-4.5,39.4-6.7a2.48,2.48,0,0,0,2.4-2.3c2.3-10.6,4.7-21.2,7.4-31.7,2.4-9.6,6.1-18.9,4.9-29.2a3.37,3.37,0,0,0-1.7-2.8c-5.4-3.5-10.1-7.6-13.2-13.3-4.6-8.6-8.8-17.4-13.2-26.1-.1-.2,0-.5,0-1.5,2.4,5.1,4.5,9.5,6.6,13.9,5.6,11.4,12.1,22,23.8,28.3,7.4,4,15,6,23.2,3.2,11.7-3.9,23.4-8.1,35.1-12.3a3.27,3.27,0,0,0,1.5-2.3c-.3-5.1-2.3-9.7-4.9-14-2.2-3.7-2.3-3.8-6.4-2.9l-31.4,6.6c-1.9.4-3.1,0-3.9-1.8-7.6-15.3-15.5-30.5-20.9-46.7-1.3-3.7-2.3-7.5-3.4-11.3.3-.1.5-.2.8-.3a23.94,23.94,0,0,1,1.3,2.8c.9,2.8,1.5,5.6,2.4,8.3,4.8,15.3,12.2,29.5,19.1,43.9,1.3,2.7,2.7,3.2,5.4,2.5,6.6-1.7,13.2-3.2,19.8-4.6,3.7-.8,7.5-1,11.6-1.6-.5-3.7-.8-7.2-1.4-10.6-1.9-10.9-5.8-21.3-9.8-31.6-4.4-11.3-8.9-22.6-11.1-34.6-.5-2.8-.9-5.3-3-6.1-5.5,1.5-10.2,3.2-15.1,4.1-3.8.7-4.8-.9-4.1-4.8,1.1-6,2-12.1,2.9-18.1a5.55,5.55,0,0,1-.8-.6,5.24,5.24,0,0,1-1,1.8c-4.4,3.6-8.6,7.4-13.4,10.5-5.2,3.4-10.9,6-16.2,9.1-8.3,4.9-14.1,11.8-16.3,21.5-1.6,7-1.1,14,.3,21,.5,2.4,1.1,4.7,1.6,7.1a32.4,32.4,0,0,1-2.9-7,2.43,2.43,0,0,0-2.6-2.1c-22.3-1.1-44.6-2.5-67-3.5-37.1-1.6-74.3-2.5-111.4-1.7-17.5.4-35,1-52.5,2.3-11.5.9-22.1,5.4-32.7,9.8a3.53,3.53,0,0,0,1.4.3c16.7.3,33.5.5,50.2,1,26.5.7,53,1.3,79.5,2.6,22,1,43.9,2.8,65.9,4.3a114,114,0,0,1,14.2,1.5c5.7,1.1,8.1,4.5,7.4,10.3a50.1,50.1,0,0,1-2.4,10.7c-6.4,18.6-14.9,36.3-24.4,53.5-6,10.8-12.3,21.5-19,32-6.5,10.1-15.6,15.5-28.1,14.4-9.6-.9-19.4-1-29-1.5-14.8-.9-29.5-1.8-44.3-2.8-18.1-1.2-36.3-2.5-54.4-3.9-15.9-1.2-31.9-2.5-47.8-3.9-16.2-1.4-32.3-2.8-48.5-4.3-14.4-1.4-28.8-2.8-43.1-4.4-15.3-1.7-30.6-3.5-45.8-5.3-8.8-1.1-17.5-2.3-25.6-6.1a4.13,4.13,0,0,0-1.9-.2c-3.4,0-6.8.2-10.2,0-3.8-.2-7.6-1-11.4-1.1-33.3-.9-66.6-.6-99.9,2.5-15.7,1.4-30.9,4.9-45,12.1q-26.7,13.65-53.1,27.8c-35.6,19-70.7,39-104.4,61.2-9.4,6.2-18.6,12.9-27.6,19.7-8.1,6.2-11.8,14.8-11.2,25a118.1,118.1,0,0,0,1.9,16.9,284.35,284.35,0,0,0,13.6,47.9c.7,1.8.2,2.5-1.4,3s-3,1.1-4.5,1.7C17.4,522,11,524.9,6.2,530.2c-3.3,3.7-3.5,6.9-.4,10.7,2.7,3.3,5.6,6.4,8.6,9.4,17.2,16.9,37.3,29.7,58.7,40.5,10.8,5.5,21.9,10.3,33.9,12,6,.9,11.1,2.9,15.7,7.1a49.68,49.68,0,0,0,11.3,7.3c13.4,6.7,27.7,11.2,42.1,15.2,40.7,11.5,82.2,19.8,124,26,24.6,3.6,49.4,6.5,74.1,9a224.89,224.89,0,0,0,51.2-.9c17.3-2.2,34.6-4.2,51.7-7,23.6-3.9,47.1-8.4,70.6-12.9,7.8-1.5,8-2.3,9-10.3,2.3-19.6,4.5-39.2,7.2-58.7a432.46,432.46,0,0,1,17.9-77c6.9-20.5,15.5-40.1,28.5-57.5,17.3-23.2,39.6-38.1,69-40.3,18.8-1.4,35.7,3.7,49.3,17.4,9.6,9.7,15.6,21.6,19.9,34.3,5.8,17.1,8.4,34.8,9.7,52.7,1.8,25.4.4,50.6-2.3,75.9-.5,4.7-1.1,9.4-1.8,14.4,2.1-.6,3.9-1.2,5.8-1.7,25.3-6.5,50.6-12.9,76-19.4,10.4-2.6,20.7-5.3,31.1-8,.8-.2,1.9-1.1,1.9-1.7-.2-4.6-.6-9.1-.9-13.8-.6.1-1,.1-1.4.2l-23.2,5.7c-25.5,6.2-50.9,12.5-76.4,18.8-1.7.4-2.6.2-3-1.9Q816.05,563,867.9,550.2V537.7a15.69,15.69,0,0,0-1.6.3c-27.9,7.2-55.7,14.3-83.6,21.5-4.3,1.1-4.4,1-4.4-3.4q0-65.1-.1-130.1c0-2.5-.3-5-.5-7.6-11.5,2.8-22.6,5.4-33.7,8.1-.1-.4-.2-.7-.3-1.1,11.3-2.8,22.6-5.5,33.9-8.3-2.2-21.9-9.2-42.3-16.6-62.7,1.1.3,2.2.8,2.5,1.5,5.9,14.6,11,29.4,14.2,44.9,1,5.1,1.8,10.3,2.7,15.5.6-.1,1.2-.1,1.6-.2,25.9-6.4,51.8-12.7,77.6-19.1,2.3-.6,5.5-.7,6.5-2.2s-.1-4.5-.4-6.9c-2.3-15.4-4-30.9-1.8-46.5.3-2.4.6-4.8,1-7.4a12.29,12.29,0,0,0-1.3.2c-16.7,2.8-33.5,5.9-50.2,8.4-12.3,1.9-24.6,3.1-36.9,4.6a86.21,86.21,0,0,1-12.4.9c-5.7-.1-7.6-2.8-6.2-8.3a102.18,102.18,0,0,1,3.4-10.7c7.5-20,17.2-39,27.5-57.6,6.1-11.1,12.4-22.1,19.3-32.7,5.2-8.1,12.2-14.6,21.4-18.3C834.8,218,840.7,216.9,846.6,216.3Zm-466,85.3c4.6,1.2,8.8,2.8,13.1,3.4,16.9,2.2,33.9,4.2,50.8,6.1,13.9,1.6,27.9,3,41.8,4.3,16.2,1.6,32.3,3,48.5,4.4,15.4,1.3,30.8,2.6,46.2,3.8,17.6,1.4,35.3,2.7,52.9,3.9,15.3,1,30.5,2.1,45.8,2.9,14.3.8,28.5,1.2,42.8,1.8a15.91,15.91,0,0,0,13.1-5.7,173.52,173.52,0,0,0,12.6-16c13.6-20.5,24.6-42.5,34-65.2a163.15,163.15,0,0,0,6.6-20.5c1.5-5.9-.6-8.4-6.7-8.9-10.8-.9-21.5-2.1-32.3-2.6-31.9-1.6-63.8-3.2-95.8-4.4-25.3-.9-50.7-1.1-76-2-7.8-.3-15.2.3-22.1,4-1.6.8-3.3,1.4-4.9,2.1-43.7,18.4-86.2,39.4-127.9,61.9C408.6,282.7,394,290.5,380.6,301.6Zm703.1,197.7c-.8.2-1.6.5-2.4.7-10.5,2.6-20.9,5.1-31.4,7.7-15.8,3.9-31.6,7.8-47.5,11.7-.7.2-1.9,1-1.9,1.4.1,4.2.5,8.4.8,12.8,1.3-.3,2.2-.5,3-.7l45.7-11.4c13.8-3.5,27.6-7.1,41.4-10.7a3,3,0,0,0,2.6-3.1c.5-6.9,1-13.7,1.8-20.6,2.8-23.7,6.3-47.3,11.8-70.5,4-16.8,9.6-33.1,18.8-47.9,4.2-6.7,8.8-13,15.3-17.6,6.3-4.4,13.2-6.7,20.9-4.7,5.7,1.5,9.7,5.5,12.9,10.2,4.5,6.7,7.2,14.2,9.6,21.9,4.4,14.5,6.4,29.3,7.5,44.4a22.54,22.54,0,0,0,.6-3.6c1-15.4,2.1-30.7,2.8-46.1.9-19.2,1.6-38.4-.2-57.6-1.1-11.8-6.3-21-16.8-26.9a106.75,106.75,0,0,0-24.4-10.2c-21.4-6-43.4-8-65.5-8.6-10.7-.3-20.9-2-30.6-6.5-23-10.6-46.1-21.4-69.1-32-1.2-.5-2.3-1.1-3.7-1.8.6,4.4,1.2,8.5,1.5,12.5a3.91,3.91,0,0,0,2.2,3.3c8.3,4.9,16.5,9.8,24.6,14.9a38.08,38.08,0,0,1,7.1,6.2c2.2,2.4,2.1,5-.1,7.4a36.62,36.62,0,0,1-5.9,5.2c-12.5,9.1-26.3,15.8-40.4,22.1-5.6,2.5-5.8,2.5-4.7,8.6,2.3,13,4.7,26.1,7.1,39.1,1.1,5.7,2.3,11.3,3.5,17,.9-.2,1.5-.3,2.2-.5,12.4-3.2,24.8-6.3,37.2-9.7q54-14.7,108-29.5c16.4-4.5,32.8-8.7,48-16.7a3.4,3.4,0,0,1,1.4-.2,1.85,1.85,0,0,1,.2.7c-4.2,1.9-8.3,4-12.6,5.8-13.4,5.6-27.5,9.2-41.5,13L997.5,363c-5.5,1.5-11,2.8-16.5,4.3a5.72,5.72,0,0,0,.1,1.4c2.9,14.6,6,29.1,8.8,43.7,3,15.9,7.5,31.6,5.6,48.2,1.2-3.5,2.2-7,3.1-10.5,7.3-28.8,17.6-57,21.4-86.7.1-.8,1.1-1.6,1.7-2.4.2.1.5.3.7.4-.1,1,0,2-.2,3-1.7,9.1-3,18.3-5.4,27.2-6.7,25.4-13.8,50.8-20.7,76.1a12.21,12.21,0,0,0-.6,4.2c.7,7.7,1.6,15.4,2.5,23.1.3,2.3.5,4.6.8,6.9,9.9-2.4,19.4-4.6,28.9-6.9.1.3.1.5.2.8-9.7,2.5-19.3,5-29.1,7.5.4,4.7.8,9.2,1.2,13.7l2.2-.3c16.1-3.9,32.1-7.9,48.2-11.8,10.1-2.5,20.1-5,30.1-7.4C1082.1,497.1,1083.6,496.7,1083.7,499.3ZM876.1,296.6a186.88,186.88,0,0,0-8.1,30.8c-2.6,14.5-4,28.9-2.1,43.6,4.1,31.8,8.3,63.7,12.4,95.5a82.16,82.16,0,0,1-2.1,33.8,135.3,135.3,0,0,0-5.2,40c.1,9.4.5,18.9,1.1,28.3.5,8.6,1.4,17.3,2.3,25.9.1.7.4,1.7,1,2a56.18,56.18,0,0,0,7.4,4.5,20.52,20.52,0,0,0,6.6,1.5c2.3.3,3.3-.8,3.5-3.4.6-8,1-16.1,2.3-24.1q5.85-37.05,12.3-74.1c4.2-24.4,7.8-48.8,8.8-73.6,1.1-27.3,2.1-54.5,3.1-81.8a12.09,12.09,0,0,1,.6-3.8c.6-2.1,1.9-4.1,4.3-4s2.3,2.4,2.9,4c0,.1,0,.2.1.2q15,55.35,30.2,110.8c2.7,9.9,4.5,19.9,3.4,30.2-1.6,14.3.2,28.2,4.3,42,6.2,21.1,11.5,42.4,17.3,63.6.7,2.7.8,6.1,2.6,7.7s5.3,1.3,8,1.9c3.8.8,6.9-.6,9.6-3a3.49,3.49,0,0,0,.8-2.2q-2.1-29.4-4.3-58.7c-1-13-2.3-26.1-3.3-39.1-.8-10.7-2.1-21.4-1.9-32a175.58,175.58,0,0,0-3.1-35.5c-5.7-28.6-11.7-57.2-17.4-85.8-2.5-12.8-4.3-25.8-6.3-38.7-.3-2.1-.7-3.5-2.9-4.3a17.3,17.3,0,0,1-7.5-5.6,5.58,5.58,0,0,1,.5-.8c2.9,1.9,5.9,3.8,9.4,6-.4-5.2-.8-9.6-1.1-14.1a9.74,9.74,0,0,1-1.6.1c.5-.8,1.4-1.5,1.4-2.2-.1-3.3-.5-6.5-.8-10-11.7,2.4-23.1,3.4-34.6,2.2-.4,5.4-.8,10.2-1.2,15.4,3.2,0,6.3.1,9.3,0s6.1-.3,9.1-.4c-23.1,3.8-45.2-.7-67-7.5-1.2,4.8-2.3,9.3-3.4,13.8a15,15,0,0,0,10.4.6c1.8-.6,3.6-1.6,5.4-2.2a9.86,9.86,0,0,1,2.4.1C888.9,298.7,882.7,299.2,876.1,296.6ZM780.6,558.2c1.1-.2,1.9-.3,2.6-.5L866,536.4c1.6-.4,2-1.1,2.1-2.6.3-10.9,2.7-21.4,5.7-31.7a73.71,73.71,0,0,0,2.6-31c-2.3-16.7-4.3-33.5-6.4-50.3-1-8.2-2.1-16.3-3.2-24.7-28.9,7.1-57.6,14.2-86.1,21.1C780.6,464.3,780.6,511.1,780.6,558.2ZM749,515.3h0c0-8.5.2-17-.1-25.5-.3-9.4-.3-19-1.8-28.2-2.5-15-9.7-28-19.8-39.3-7.6-8.5-17-14.4-28.3-16.7-28-5.8-52.3,1.5-72.8,21.3-14.4,13.9-24.3,30.7-32.3,48.8-16,36.5-24.3,75-29.1,114.3-1.9,15.1-3.6,30.2-5.5,45.3-.4,3.2-1.8,6.4-1.6,9.5a39.58,39.58,0,0,0,6.2,18.7c2.1,3.1,4.8,5.2,8.7,5.4s7.6.6,11.4.6c13.2.1,26.4-.2,39.5.2,19.9.5,39.5-1.1,58.9-5.9,20-5,35-16.3,44.8-34.5a215.81,215.81,0,0,0,15.4-35.2c3.5-10.4,6-21.1,6.2-32.1C749.2,546.4,749,530.9,749,515.3ZM927.3,45.6c3.7.2,7.1,1.4,9.4,4.6,1.1,1.4,2.2,2.8,3.2,4.2,1.4,1.8,2.6,1.4,3.9-.1,3.3-3.8,3.6-8.7.5-12.6a30.81,30.81,0,0,0-6.3-6.2c-4.7-3-6.6-6.9-5.8-12.5.6-3.7-1.2-6.6-4.1-8.8-1.4-1.1-2.9-2.1-4.2-3.3-2.1-2.1-2.1-4.6.1-6.7a24.47,24.47,0,0,1,3.5-2.6,49.34,49.34,0,0,0-5.7.7c-6.2,1.1-9.9,5-10.7,11.2-.4,3.4-1.7,4.9-5.2,5.7-1.6.4-3.2.5-4.8.8-7.8,1-15.6,2.4-23,5.5-6,2.6-11.2,6.2-13.9,12.5s-.4,12.1,6.1,14.7a24.47,24.47,0,0,0,15.8.7c6.8-2,13.5-4.4,20.4-6.4,3.5-1,7.1-1.5,10.4-2.2L882.4,55.4a166,166,0,0,1,2.3,32.5,7.13,7.13,0,0,1-3.3-2,9.12,9.12,0,0,0-7.7-3.8,16.2,16.2,0,0,0-3.8.9,22.38,22.38,0,0,0,1,3.7,22.78,22.78,0,0,0,10,9.9,24.48,24.48,0,0,1,10,9.4c2.4,3.9,5,7.7,7.7,11.4,6.8,9,15.5,14,27.1,12.9,12.2-1.1,16.5-9.8,14.4-18.1a50.09,50.09,0,0,0-1.4-5.2,28.73,28.73,0,0,1-1.1-15.1c.3-1.5.5-3,.8-4.8-3.1,2.7-3.3,2.8-5.2,2.2.7-.4,1.2-.7,1.8-1.1,2.4-1.8,3.9-5.5,3.1-8.1-.5-1.9-1.6-2.8-3.8-2.3.3.9.7,1.7.9,2.5a6.21,6.21,0,0,1-4.3,7.8c-2,.6-3.7.3-4.8-1.8-1.3-2.4-1.3-5.9.3-6.8,2-1.2,4.1-2.6,6.4-2.9s4.5.6,7,1a53.17,53.17,0,0,0-1.4-19.7,5.72,5.72,0,0,0-1.1-1.6,39.07,39.07,0,0,1-3-4.1C933,49.1,930.9,46.6,927.3,45.6Zm3.9,227.2a11.48,11.48,0,0,0,1.4.2c15.2,1.2,29.8-1.8,44.2-6,5-1.5,7.4-5.2,8-10.1a86.44,86.44,0,0,0-1.7-29.1,567.55,567.55,0,0,0-15.9-56,26.4,26.4,0,0,0-13.5-15.6c-2.6-1.3-5.2-2.5-7.9-3.6-5.8-2.2-11.6-4.2-17.5-6.3-1.4-.5-2.7-1.1-4.6-1.9.3,2.4.4,4.2.7,6,.3,2.1,1,4.1,1.1,6.2.2,2.5-1.4,3.8-3.9,3.4a15.06,15.06,0,0,1-4.1-1.3c-2.2-1-4.3-2.3-6.4-3.3-2.9,1-3,3-2.3,5.3,2.7,9.1,5.2,18.3,8.3,27.2,4.2,12.1,9.5,23.8,12.1,36.4.9,4.3,1.4,8.6,2.1,13,6.3-.9,11-3.6,14.1-9.4,3.2-6.1,5.3-6.9,11.2-5.6a142.76,142.76,0,0,0-5.5-45.5c2.4-.2,2.4-.2,3.1,2.1,3.9,13.2,5.2,26.6,5,40.3,0,3.4.5,6.2,2.6,9.1,5.5,7.6,4.6,14.9-2.2,21.5a24,24,0,0,1-6,4.6c-6.3,3.2-12.8,6.2-19.3,9.1-3.3,1.5-3.9,2-3.8,5.6C930.7,270.4,931,271.6,931.2,272.8Zm3.5,106.3c-4.5,1.1-8.7,2.1-12.8,3.2a2.81,2.81,0,0,0-1.5,2.1c-.6,11.2-1,22.4-1.6,33.6-.6,11.5-.8,23.2-2.2,34.6-2.5,19.9-5.8,39.7-8.7,59.5-.7,4.6-1.4,9.1-2.2,14l53-13.6a5.48,5.48,0,0,0,0-1.3c-1.9-8.6-1.4-17.2-.6-25.9.7-8.2.9-16.5-1.3-24.6q-8.85-33.15-17.7-66.1C937.6,389.4,936.2,384.3,934.7,379.1ZM876.9,611c-1.8,3.7-3.4,7.2-5.1,10.7-.9,1.8-2.1,3.5-2.9,5.4-1.3,3.5-.9,7,2.1,9.3,5.1,3.9,8.2,9.2,11.5,14.5,4.8,7.9,10.8,14.7,18.9,19.3a77.2,77.2,0,0,0,15.3,6.7c5.6,1.8,8.2-1,6.9-6.7a26.93,26.93,0,0,0-2.5-7.4c-4.4-7.4-8.9-14.8-13.7-22-5.6-8.3-11.9-16.1-14.9-26.1C886.5,615.8,881.3,614,876.9,611Zm108.8-4.5c-.2,2.1-.3,4-.5,5.8s-.5,3.9-.7,5.8a62.36,62.36,0,0,0-.3,8.6c.2,5.2,2.8,8.5,7.9,9.5a30.82,30.82,0,0,0,9.1.6c5.8-.5,11.6-1.7,17.4-2.2,12-1,24.1-1.8,36.1-2.3,5.4-.2,9.1-2.3,11.3-7.2a12.21,12.21,0,0,0-7.1-4.3c-9.2-2-18.4-3.9-27.6-6.2-8.7-2.2-18.1-3-24.5-10.6C1000.4,609.7,993.2,608.5,985.7,606.5ZM987.9,247c-.2,3.4-.4,6.3-.7,9.3-.7,8.6-2.8,11.1-11.1,13.2-3,.8-6,1.5-9.2,2.3.8,10.3,1.6,20.4,2.4,30.8a24.93,24.93,0,0,0,2.7-1.1c9.3-4.5,18.8-8.8,27.9-13.7a115.42,115.42,0,0,0,16.5-11.4c4.7-3.7,4.5-6.4.2-10.5C1008.3,257.9,998.2,252.5,987.9,247ZM962.7,529.2a6.81,6.81,0,0,0-1.2.3c-18.5,4.5-37,9.1-55.6,13.5-2.3.6-3.4,1.5-3.6,4-.4,4.1-1.2,8.1-1.8,12.6,22.3-5.7,44.1-11.3,66-16.9C965.2,538,963.9,533.6,962.7,529.2ZM903.3,541c19.9-4.9,39.2-9.6,58.7-14.4-1-4.5-2-8.6-2.9-12.7a3.55,3.55,0,0,1-.7-.1c-17.2,4.4-34.5,8.8-51.7,13.3a2.11,2.11,0,0,0-1.4,1.2C904.6,532.4,904,536.5,903.3,541Zm24.5-266.8c-2.5-.7-4.9-.9-6.9-1.9-4.2-2-8.1-1.7-12.4,0a29.84,29.84,0,0,1-26.5-1.8,8.51,8.51,0,0,0-1.7-.6v10.2c6.1,1.6,12,3.5,18,4.7,8.4,1.7,16.9,3,25.3,4.3,1.1.2,2.7.7,2.9-1.3C926.9,283.3,927.3,278.7,927.8,274.2Zm14.4-36.9c3.8,4.8,6,10.7,6.6,17.8,2.7-1.7,5.1-3,7.2-4.6,7.1-5.2,9-10.4,5.5-20.1-1.1-3-2.8-5.9-6.4-6.2s-5.6,2.3-7.4,5S944.2,234.5,942.2,237.3ZM867.6,53.9c-1.8,7.8-1.6,15.4.6,21.3.8,2.3,1.6,4.2,4.8,4.2,1.9,0,3.8,1.3,5.6,2.2,1.3.7,2.5,1.7,3.7,2.5a2.35,2.35,0,0,1,.8-.2c-1-9.2-1.9-18.5-3-27.7a2.2,2.2,0,0,0-1.5-1.3C875,54.4,871.3,54.1,867.6,53.9Zm56,286c-.5.1-1,.3-1.5.4-.5,13.6-1.1,27.1-1.6,41,4.9-1.2,9.3-2.4,13.8-3.5-.2-.9-.4-1.5-.5-2.1-1.7-6.3-3.4-12.6-5-18.9-1.1-4.4-1.8-8.8-3-13.1C925.5,342.4,924.4,341.2,923.6,339.9ZM896.4,116.3l-4.6,13.2a82.29,82.29,0,0,0,7.8,5.3c4.4,2.4,6.8,5.7,6.1,10.8,0,.1.2.2.5.5a24.69,24.69,0,0,1,1-2.9c1-2.3.9-5.4,4.3-5.9.2,0,.5-.6.6-1,.3-2.2.6-4.5.9-6.8C905.9,127.1,900.8,122.2,896.4,116.3ZM888,158.4c3.4-1.1,6.7-2.2,10.1-3.4,2.2-.8,4.7-1.3,4.2-4.6a1.75,1.75,0,0,1,.4-1.2c1.1-1.2.5-2-.3-3-2-2.4-3.8-5-5.8-7.4-1.4-1.6-2.8-4.4-5.1-3.3-1.6.8-2.2,3.7-3.2,5.6-.1.1,0,.3-.1.5-.7,4.7-1.4,9.3-2.3,14C885.6,157.6,886.1,158.3,888,158.4Zm24.5-3.9a72,72,0,0,0,7.3,3.5c3.2,1.2,4.5-.2,3.7-3.5-1-4.4-1.9-8.8-.6-13.3a2.79,2.79,0,0,0-.5-2.2c-1-.2-2.4-.3-3.1.3-3.2,2.7-6.2,5.6-9.3,8.4a6.89,6.89,0,0,1,1,.4C911.4,149.9,911.8,151.7,912.5,154.5ZM874.8,598.7c.5,3.4.8,6,1.2,8.6a2.09,2.09,0,0,0,.7,1.3c4.1,2.9,8.5,5,13.8,3.7.7-.2,1.7-1,1.8-1.6.2-2.3.1-4.6.1-7.1C885.5,606.1,880.4,602.8,874.8,598.7Zm109.9-.2c.2,1.9.3,3.6.6,5.2a1.88,1.88,0,0,0,.8,1.1c5.2,1.5,10.6,3.3,15.8.3,4.7-2.7,4.4-2.6,1.9-7.4C997.8,603,991.3,599.3,984.7,598.5ZM942.4,257.6c4.4-1.4,4.5-1.5,3.9-5.5a26.7,26.7,0,0,0-5.5-13.2,2.27,2.27,0,0,0-1.8-.9,34.77,34.77,0,0,0-4.7,1.4C938.5,244.9,941.5,250.7,942.4,257.6ZM910.6,151.4c0-1.5-2-3.2-3.7-3.1-1.5,0-3.3,1.9-3.3,3.6s2,3.9,3.7,3.8C908.8,155.6,910.7,153.1,910.6,151.4Zm-7.5-6.4a1.42,1.42,0,0,1,.6-.2c-.5-2-.4-4.6-1.6-5.7-3.5-3-7.5-5.4-11.5-8.1-.7,1.1-1.3,1.9-1.8,2.8,2.7-1.1,4.6,0,6.3,1.8,1.3,1.4,2.7,2.8,3.9,4.3C900.5,141.6,901.8,143.3,903.1,145ZM931,77.7c-1.1,1.4-2.5,2.5-2.7,3.8s1,2.8,1.5,4.2c1-.5,2.3-.8,2.8-1.7C933.9,81.9,932.9,80,931,77.7Zm-23,69c.2.1.4.1.6.2,1.8-1.9,3.6-3.8,5.4-5.8-1.8-2-3-2.2-3.8-.6A57.89,57.89,0,0,0,908,146.7Zm20.5,125.8c-.1-2.3-.3-4.3-.4-6.4-3.5.8-3.4.8-3.1,4.4C925.2,273,927,272.2,928.5,272.5Zm-6.1-1c-.1-1.4-.1-2.5-.2-3.7l-5.7,1.8C918.8,270.3,920.5,270.9,922.4,271.5Z"/><path class="cls-1" d="M1104,511.9a70.54,70.54,0,0,1-5.2-23c-.3-5.9.6-11.9,1.4-17.7a434.82,434.82,0,0,1,16.2-73.2c3.6-11.2,7.5-22.2,13.9-32.1,4.2-6.4,9.2-12,16.1-15.7,9.8-5.4,18.6-3.5,25.4,5.5,6,8,9,17.2,11.4,26.8a268.71,268.71,0,0,1,7.4,61.9c.1,10-3.3,19.3-6.7,28.6-1.2,3.2-2.5,6.3-3.7,9.4,1.2-8.3,2.7-16.6,3.7-24.9,2-16.4,1.7-32.9,1.2-49.4-.3-7.9-.7-15.8-3.3-23.4-2.7-7.9-6.7-14.9-13.9-19.5-8.7-5.6-16.1-5-23.5,2.2-11.2,10.9-18.7,24.2-23.4,38.9-9,28.4-8.7,56.9.6,85.2a48.21,48.21,0,0,0,15.1,22.6,56.45,56.45,0,0,0,5.8,3.6l-.1-.1c6.1,3.4,12,2.4,18.4-1.3-4.4,5.9-9.7,8.9-16.1,9.3a226.13,226.13,0,0,1-23.3-.2,26,26,0,0,1-8.2-1.6c-1.8-.7-3.2-2.4-4.8-3.7C1106.9,517.2,1105.4,514.6,1104,511.9Z"/><path class="cls-1" d="M846.6,216.3a61.17,61.17,0,0,0-17.4,4c-9.2,3.7-16.2,10.2-21.4,18.3-6.8,10.6-13.1,21.6-19.3,32.7-10.3,18.6-20,37.6-27.5,57.6a95.19,95.19,0,0,0-3.4,10.7c-1.4,5.5.5,8.2,6.2,8.3a86.21,86.21,0,0,0,12.4-.9c12.3-1.4,24.7-2.7,36.9-4.6,16.8-2.6,33.5-5.6,50.2-8.4a12.29,12.29,0,0,1,1.3-.2c-.3,2.6-.6,5-1,7.4-2.2,15.6-.5,31,1.8,46.5.3,2.3,1.4,5.3.4,6.9s-4.2,1.6-6.5,2.2c-25.9,6.4-51.7,12.7-77.6,19.1-.5.1-1,.1-1.6.2-.9-5.2-1.6-10.4-2.7-15.5-3.2-15.4-8.3-30.3-14.2-44.9-.3-.8-1.4-1.2-2.5-1.5,7.4,20.4,14.4,40.8,16.6,62.7-11.4,2.8-22.6,5.5-33.9,8.3.1.4.2.7.3,1.1,11.1-2.7,22.2-5.3,33.7-8.1.2,2.6.5,5.1.5,7.6q0,65.1.1,130.1c0,4.4.1,4.5,4.4,3.4,27.9-7.2,55.7-14.3,83.6-21.5.5-.1,1-.2,1.6-.3V550q-51.75,12.75-103.9,25.5c.4,2.1,1.3,2.3,3,1.9,25.5-6.3,50.9-12.5,76.4-18.8l23.2-5.7c.4-.1.8-.1,1.4-.2.3,4.6.7,9.2.9,13.8,0,.6-1.1,1.5-1.9,1.7-10.3,2.7-20.7,5.4-31.1,8-25.3,6.5-50.6,12.9-76,19.4-1.9.5-3.7,1.1-5.8,1.7.6-5,1.3-9.7,1.8-14.4,2.6-25.2,4-50.5,2.3-75.9-1.3-17.9-3.9-35.6-9.7-52.7-4.3-12.7-10.3-24.6-19.9-34.3-13.6-13.7-30.5-18.8-49.3-17.4-29.4,2.2-51.7,17.1-69,40.3-13,17.4-21.6,37.1-28.5,57.5a415.76,415.76,0,0,0-17.9,77c-2.7,19.5-4.9,39.1-7.2,58.7-1,8-1.2,8.8-9,10.3-23.5,4.5-47,9-70.6,12.9-17.2,2.8-34.5,4.9-51.7,7a224.79,224.79,0,0,1-51.2.9c-24.7-2.6-49.5-5.4-74.1-9-41.8-6.2-83.3-14.5-124-26-14.4-4.1-28.7-8.5-42.1-15.2a49.68,49.68,0,0,1-11.3-7.3c-4.6-4.2-9.7-6.2-15.7-7.1-12.1-1.8-23.2-6.6-33.9-12C51.4,579.8,31.3,567,14.1,550.1c-3-3-5.9-6.1-8.6-9.4-3.1-3.9-2.9-7.1.4-10.7,4.8-5.3,11.2-8.2,17.7-10.8,1.5-.6,3-1.2,4.5-1.7s2.1-1.2,1.4-3a287,287,0,0,1-13.6-47.9A121.41,121.41,0,0,1,14,449.7c-.6-10.2,3.1-18.8,11.2-25,9-6.8,18.1-13.5,27.6-19.7,33.7-22.2,68.8-42.2,104.4-61.2q26.4-14.1,53.1-27.8c14.1-7.2,29.2-10.7,45-12.1,33.2-3.1,66.6-3.3,99.9-2.5,3.8.1,7.6.9,11.4,1.1,3.4.2,6.8,0,10.2,0a5.55,5.55,0,0,1,1.9.2c8.1,3.8,16.9,5.1,25.6,6.1,15.3,1.8,30.5,3.6,45.8,5.3,14.4,1.6,28.7,3,43.1,4.4,16.2,1.5,32.3,3,48.5,4.3,15.9,1.4,31.8,2.7,47.8,3.9,18.1,1.4,36.3,2.6,54.4,3.9,14.8,1,29.5,1.9,44.3,2.8,9.7.6,19.4.7,29,1.5,12.6,1.1,21.7-4.3,28.1-14.4,6.7-10.4,13-21.1,19-32,9.5-17.2,18-34.9,24.4-53.5a55.29,55.29,0,0,0,2.4-10.7c.7-5.8-1.7-9.2-7.4-10.3a131.23,131.23,0,0,0-14.2-1.5c-22-1.5-43.9-3.3-65.9-4.3-26.5-1.2-53-1.8-79.5-2.6-16.7-.5-33.5-.7-50.2-1a3.53,3.53,0,0,1-1.4-.3c10.6-4.4,21.3-8.9,32.7-9.8,17.4-1.3,35-1.9,52.5-2.3,37.2-.8,74.3.1,111.4,1.7,22.3.9,44.7,2.3,67,3.5a2.43,2.43,0,0,1,2.6,2.1,30.45,30.45,0,0,0,2.9,7c-.5-2.4-1.2-4.7-1.6-7.1-1.3-7-1.9-13.9-.3-21,2.2-9.7,7.9-16.6,16.3-21.5,5.3-3.1,11-5.7,16.2-9.1a167.07,167.07,0,0,0,13.4-10.5c.5-.4.6-1.2,1-1.8a5.55,5.55,0,0,1,.8.6c-1,6-1.9,12.1-2.9,18.1-.7,3.8.3,5.5,4.1,4.8,4.9-.9,9.6-2.6,15.1-4.1,2.1.8,2.5,3.4,3,6.1,2.2,12,6.8,23.3,11.1,34.6,4,10.3,7.9,20.6,9.8,31.6.6,3.4.9,6.9,1.4,10.6-4.1.5-7.9.8-11.6,1.6-6.6,1.4-13.3,2.9-19.8,4.6-2.7.7-4.1.2-5.4-2.5-6.9-14.4-14.3-28.6-19.1-43.9-.9-2.7-1.6-5.6-2.4-8.3a23.94,23.94,0,0,0-1.3-2.8c-.3.1-.5.2-.8.3,1.1,3.8,2.1,7.6,3.4,11.3,5.5,16.2,13.4,31.4,20.9,46.7a3,3,0,0,0,3.9,1.8c10.5-2.3,20.9-4.5,31.4-6.6,4.2-.9,4.2-.8,6.4,2.9,2.6,4.3,4.6,8.9,4.9,14a2.92,2.92,0,0,1-1.5,2.3c-11.7,4.2-23.3,8.4-35.1,12.3-8.2,2.7-15.8.8-23.2-3.2-11.7-6.4-18.2-17-23.8-28.3-2.2-4.4-4.2-8.9-6.6-13.9a6.85,6.85,0,0,0,0,1.5c4.4,8.7,8.5,17.6,13.2,26.1,3,5.6,7.8,9.8,13.2,13.3a3.37,3.37,0,0,1,1.7,2.8c1.2,10.2-2.4,19.6-4.9,29.2-2.7,10.5-5,21.1-7.4,31.7a2.48,2.48,0,0,1-2.4,2.3c-13.1,2.3-26.2,4.7-39.4,6.7-13.9,2.1-27.8,3.7-41.7,5.4-5.1.6-10.1,1.1-15.2,1.4-5.5.3-7.5-2.1-6.6-7.5a38.59,38.59,0,0,1,2-7.4c12.8-32.6,29-63.4,47.8-93,7.9-12.5,19.2-19.7,34-21a13.79,13.79,0,0,0,2.9-.8C846.8,216.7,846.7,216.5,846.6,216.3ZM44.8,417.2c-.2.1-.4.1-.6.2.1,1,.3,1.9.4,2.9a45.19,45.19,0,0,0,11.6,22c9.1,9.9,20.5,16.4,32.8,21.5,25,10.5,51.3,15.7,78.2,17.6s53.6,3,80.5,3.6q61.95,1.35,123.9-2.8c24.1-1.6,48.2-3.2,72.2-5.9,28-3.1,56-6.9,83.8-11.1a318.59,318.59,0,0,0,65-16.8c2.7-1,5.5-2.2,8.2-3.3-1.1-2.4-1.1-2.3-3-1.6-9.3,3.2-18.5,6.8-27.9,9.5-27,7.8-54.7,12.3-82.5,15.7-27.6,3.4-55.4,6.6-83.1,8.6-33.4,2.4-66.9,3.9-100.3,4.8-46.7,1.3-93.5,1.7-140.1-3-19.2-1.9-38.2-4.9-56.8-10.5-15.1-4.5-29.7-10.4-42.4-20-9.7-7.4-16.8-16.5-18.7-29C45.7,418.7,45.1,418,44.8,417.2ZM146.9,553.7c-2.8-.5-2.5,1.3-2.4,2.8.8,13.9,6.4,25.7,15.9,35.8,8.9,9.5,20.2,15.1,32.6,17.8,17.2,3.8,34.6,7.3,52.1,9.5,32.1,4.1,64.3,7.4,96.5,10.7,5.9.6,12.1,0,18.1-.4,4.6-.3,6-2.9,4-7a40,40,0,0,0-4.4-7.1c-13.1-17.5-26.3-34.9-39.4-52.3-3.9-5.2-7.8-10.5-11.8-15.6a12,12,0,0,0-8.4-4.9,79.06,79.06,0,0,0-8.4-.6c-9.2.1-18.4.3-27.5.5q-60.6,1.5-121.1,3.1c-10.1.3-20.2,1.4-29.9,4.4a17.91,17.91,0,0,0-2.4,1.2c.1.3.1.6.2.9a12.18,12.18,0,0,0,2.7,0c8.5-2.6,17.3-3.5,26.2-3.8,26.5-1,53-2.1,79.5-2.7,26.9-.6,53.9-.6,80.8-.8a3.76,3.76,0,0,1,2.8,1.1q27.45,35.4,54.6,70.9a47.77,47.77,0,0,1,4.4,7.2c1.5,3,.9,3.9-2.4,3.8-6-.1-12.1-.2-18.1-.7-21.8-1.9-43.7-3.5-65.5-6-20.7-2.4-41.3-5.4-61.8-8.7-14.5-2.4-28.5-6.6-41.2-14.2-13.7-8.2-22.7-19.7-24.9-35.9C147.3,559.6,147.1,556.6,146.9,553.7Zm438.5-83.8v-1a13.05,13.05,0,0,0-3.4-.3c-3.8.8-7.6,1.9-11.4,2.6-30,6-60,12.7-90.2,17.9-30,5.1-60.3,9.3-90.5,13-26.4,3.2-52.9,5.5-79.4,7.5-31.3,2.4-62.7,2.9-94.1,2.2q-38.7-.75-77.3-5.2c-14.1-1.6-28.1-3.5-42.2-5.5-5.8-.8-11.6-2.3-17.4-3.4a6.53,6.53,0,0,0,1.7.8,427.44,427.44,0,0,0,53.8,9.8c23.7,2.8,47.6,4,71.5,4.7a1130.55,1130.55,0,0,0,122.1-2.8c24.6-2,49.3-4.5,73.8-7.5,22.9-2.8,45.8-6,68.6-9.9,29.3-5.1,58.6-11,87.8-16.7C567.8,474.2,576.6,471.9,585.4,469.9ZM318.3,457.6l.3.6h1.9c18.9-1.2,37.8-2.3,56.7-3.8a246.13,246.13,0,0,0,43.5-6.8c22.7-5.8,44-14.9,64.7-25.6,10.5-5.4,20.7-11.3,30.9-17.2a41.67,41.67,0,0,0,7.8-6.2c3.3-3.1,2.9-6.1-.8-8.6a19.48,19.48,0,0,0-4.5-2.4,96.06,96.06,0,0,0-35.5-7.1c-11.4-.1-21.8,3.7-32.2,7.9-17.9,7.2-34.7,16.7-51.8,25.7-25.7,13.7-51.5,27.3-77.2,40.9C320.9,455.9,319.6,456.8,318.3,457.6ZM538.4,628.5a25.15,25.15,0,0,1-3.1.5c-15.8,2-31.7,3.9-47.5,5.9s-31.5,4-47.3,5.8c-13.1,1.5-26.2,3.1-39.3,4.3s-26.4,2.5-39.6,3.2c-6.4.4-12.9-.5-19.3-.7a6.57,6.57,0,0,0-2.5,1c.8.4,1.5,1.2,2.3,1.3a52.4,52.4,0,0,0,7.9.5c10.4-.4,20.9-.7,31.3-1.6,16.8-1.4,33.5-3,50.2-4.9,17.6-1.9,35.3-4.1,52.9-6.4,18.2-2.4,36.3-5,54.5-7.4,1.9-.3,2.5-.9,2.6-2.9.9-16.9,1.8-33.8,2.9-50.6a135.81,135.81,0,0,1,8.3-38.9c5.6-14.6,13-28.2,20.7-41.7.6-1.1,1.1-2.2,1.7-3.3-1.8-1.3-2.5-.2-3.2,1-3.6,6.5-7.2,12.9-10.7,19.4-10.9,20.3-18.2,41.6-19.6,64.8C540.7,594.7,539.5,611.4,538.4,628.5Zm101-296.4a7.5,7.5,0,0,1-1.2.1c-13.5,2.2-27.1,3.9-40.4,6.8-29.9,6.7-59.7,13.6-89.4,21.2C458.9,373,410.2,388.5,363.3,409a325,325,0,0,0-43.4,22.6c-.6.4-.9,1.4-1.4,2a6.92,6.92,0,0,0,2.5-.1c1.7-.9,3.3-2,5-3,25.3-15.1,52.2-26.5,79.9-36.3a1341.19,1341.19,0,0,1,159.4-45.7c21-4.7,42.3-8.5,63.4-12.6,3.3-.6,6.7-.9,10.1-1.5.7-.1,1.2-.9,1.8-1.4A7.35,7.35,0,0,1,639.4,332.1ZM467.5,578.6c1.6.3,2.9.9,4,.8,7.2-.9,14.5-1.9,21.7-2.9,11.5-1.6,20.5-6.8,27.2-16.8,10.8-16.1,22.5-31.8,33.7-47.6,3.1-4.3,6.1-8.7,9.1-13.1-.1-.3-.1-.6-.2-.9-1.3,0-2.6-.4-3.8,0-14.7,4.3-29.4,8.9-44.2,12.9-10.1,2.7-17.4,8.4-22.2,17.6-1,1.9-2.1,3.7-3,5.6-4.6,9.1-9.1,18.2-13.7,27.3C473.4,567,470.6,572.5,467.5,578.6Zm68.2,2c.1-3.1-.1-3.3-2.9-2.9-14.4,2.2-28.9,4.1-43.3,6.6-7.6,1.3-15.1,3.2-22.6,5a3.79,3.79,0,0,0-2.3,1.8c-6.3,12-12.6,24.1-18.9,36.1a8.65,8.65,0,0,0-.6,2.3,12.22,12.22,0,0,0,2.6.3c8.5-1.4,17.1-2.8,25.6-4.4,13.7-2.7,27.4-5.6,41.1-8.6,7.5-1.6,12.5-6.4,15.6-13.4C533.4,596,534.9,588.2,535.7,580.6ZM116.5,592.9c-.3-1-.3-1.6-.5-2.1-3.8-8.7-7.5-17.5-11.6-26a10.37,10.37,0,0,0-4.9-4.8c-16.8-7.4-33.8-14.5-50.7-21.8-1.9-.8-2.5-.3-2.9,1.7-1.4,7.7-2.8,15.4-4.3,23-.4,2.1-.1,3,2,3.7q35,12.75,70,25.7C114.4,592.5,115.2,592.6,116.5,592.9ZM762.7,395.5v-1.1a9.83,9.83,0,0,0-1.6-.5c-10.5-1.6-20.9-3.5-31.5-4.7-20-2.1-39.9-1.4-59.5,3.1-21.1,4.9-39.7,14.2-54.5,30.4a27.82,27.82,0,0,0-2.1,2.7c2,1.1,2.8-.1,3.7-1.1a90.28,90.28,0,0,1,30.3-22.4c24.6-11.3,50.7-13.5,77.3-11.4,11.7.9,23.4,3.2,35,4.8A9.68,9.68,0,0,0,762.7,395.5ZM83.8,417.3c.1.6.1.8.2.9l1.8,1.8c8.9,8.2,19.4,13.8,30.5,18,34.9,13.2,71.1,17.6,108.1,15.4a6.11,6.11,0,0,0,1.3-.3,21.68,21.68,0,0,0-6.2-.5c-29.7,1.5-58.9-1.6-87.3-10.4-16.8-5.2-33-11.7-46-24.3A13.61,13.61,0,0,0,83.8,417.3ZM31.9,521.7c0,3.5,6.7,17.2,8.6,17.7C40.9,536.6,33.9,522.1,31.9,521.7Zm2.4-46.9a56,56,0,0,1-12.9-22.7c-.2-.7-1-1.2-1.6-1.8-.2.2-.4.3-.6.5A49.57,49.57,0,0,0,34.3,474.8Z"/><path class="cls-1" d="M380.6,301.6c13.4-11.1,28-18.9,42.6-26.8,41.7-22.5,84.2-43.5,127.9-61.9,1.6-.7,3.3-1.3,4.9-2.1,7-3.7,14.3-4.3,22.1-4,25.3.9,50.7,1,76,2,31.9,1.2,63.9,2.8,95.8,4.4,10.8.5,21.5,1.7,32.3,2.6,6.1.5,8.2,2.9,6.7,8.9a158.06,158.06,0,0,1-6.6,20.5c-9.4,22.7-20.4,44.7-34,65.2a173.52,173.52,0,0,1-12.6,16,15.5,15.5,0,0,1-13.1,5.7c-14.3-.6-28.5-1.1-42.8-1.8-15.3-.8-30.5-1.8-45.8-2.9-17.6-1.2-35.3-2.5-52.9-3.9-15.4-1.2-30.8-2.4-46.2-3.8-16.2-1.4-32.3-2.9-48.5-4.4-14-1.3-27.9-2.7-41.8-4.3-17-1.9-33.9-3.9-50.8-6.1C389.4,304.5,385.2,302.8,380.6,301.6Z"/><path class="cls-1" d="M1083.7,499.3c-.1-2.5-1.6-2.1-3-1.8-10.1,2.5-20.1,5-30.1,7.4-16.1,4-32.1,7.9-48.2,11.8a13,13,0,0,1-2.2.3c-.4-4.5-.8-9-1.2-13.7,9.8-2.5,19.4-5,29.1-7.5-.1-.3-.1-.5-.2-.8-9.5,2.3-19,4.6-28.9,6.9-.3-2.3-.5-4.6-.8-6.9-.8-7.7-1.7-15.4-2.5-23.1a11.88,11.88,0,0,1,.6-4.2c6.9-25.4,14.1-50.7,20.7-76.1,2.3-8.9,3.6-18.1,5.4-27.2.2-1,.1-2,.2-3-.2-.1-.5-.3-.7-.4-.6.8-1.6,1.5-1.7,2.4-3.7,29.7-14,57.8-21.4,86.7-.9,3.5-1.9,7-3.1,10.5,1.8-16.5-2.6-32.3-5.6-48.2-2.8-14.6-5.8-29.1-8.8-43.7a5.72,5.72,0,0,1-.1-1.4c5.6-1.4,11.1-2.8,16.5-4.3l126-34.2c14-3.8,28.1-7.4,41.5-13,4.3-1.8,8.4-3.9,12.6-5.8a1.85,1.85,0,0,1-.2-.7,5.9,5.9,0,0,0-1.4.2c-15.1,8.1-31.6,12.2-48,16.7q-54,14.7-108,29.5c-12.4,3.4-24.8,6.5-37.2,9.7-.6.2-1.3.3-2.2.5-1.2-5.8-2.4-11.4-3.5-17-2.4-13-4.8-26-7.1-39.1-1.1-6.1-.9-6.1,4.7-8.6,14.1-6.2,27.9-12.9,40.4-22.1a41.45,41.45,0,0,0,5.9-5.2c2.1-2.4,2.2-5,.1-7.4a38.08,38.08,0,0,0-7.1-6.2c-8.1-5.1-16.4-10-24.6-14.9a3.91,3.91,0,0,1-2.2-3.3c-.4-4-1-8.1-1.5-12.5,1.3.6,2.5,1.2,3.7,1.8q34.5,16,69.1,32c9.7,4.5,19.9,6.2,30.6,6.5,22.1.6,44.1,2.5,65.5,8.6a110.61,110.61,0,0,1,24.4,10.2c10.5,6,15.7,15.1,16.8,26.9,1.9,19.2,1.2,38.4.2,57.6-.7,15.4-1.9,30.7-2.8,46.1a22.54,22.54,0,0,1-.6,3.6c-1.1-15.1-3.1-29.9-7.5-44.4-2.3-7.6-5-15.2-9.6-21.9-3.2-4.8-7.2-8.7-12.9-10.2-7.7-2-14.6.2-20.9,4.7-6.5,4.6-11.2,10.9-15.3,17.6-9.2,14.8-14.8,31.1-18.8,47.9a599.37,599.37,0,0,0-11.8,70.5c-.8,6.8-1.3,13.7-1.8,20.6a3,3,0,0,1-2.6,3.1c-13.8,3.5-27.6,7.2-41.4,10.7-15.2,3.9-30.5,7.6-45.7,11.4-.9.2-1.8.4-3,.7-.3-4.4-.7-8.6-.8-12.8,0-.5,1.2-1.2,1.9-1.4,15.8-3.9,31.6-7.8,47.5-11.7,10.5-2.6,20.9-5.1,31.4-7.7C1082.1,499.8,1082.9,499.5,1083.7,499.3Zm-38.5-58.7c-2.2.4-4.4.7-6.5,1.3a2.74,2.74,0,0,0-1.6,1.9c.1,13.3.2,26.7.4,40,0,4.1.6,8.4-4.3,10.6,2.2-.6,4.3-1.2,6.5-1.7V448.3c0-5.1.1-5.1,5-7.2.2,0,.3-.3.5-.5,2.5-.2,5-.2,7.5-.6,14.3-2.7,28.6-5.4,42.9-8.2,1.6-.3,3.1-.6,4.7-1-.1-.3-.1-.6-.2-1Q1072.65,435.35,1045.2,440.6Zm-3.5-159c.1.4,0,.7.1.9,6.5,13.5,13,27.1,19.4,40.6.7,1.5,1.9,1.4,2.9.5,6.9-6.2,13.4-12.9,16.8-21.7,3.6-9.5-.3-18.4-9.7-22.3-5.2-2.2-10.7-2.5-16.3-1.8A35.83,35.83,0,0,0,1041.7,281.6Z"/><path class="cls-1" d="M876.1,296.6c6.5,2.7,12.7,2.1,18.6-2.4a6.55,6.55,0,0,0-2.4-.1c-1.8.6-3.6,1.6-5.4,2.2a15,15,0,0,1-10.4-.6c1.1-4.5,2.2-9,3.4-13.8,21.8,6.8,44,11.3,67,7.5-3,.1-6.1.4-9.1.4s-6.1,0-9.3,0c.4-5.2.8-10,1.2-15.4,11.5,1.2,22.9.2,34.6-2.2.3,3.5.7,6.7.8,10,0,.7-.9,1.4-1.4,2.2.4,0,.9-.1,1.6-.1.4,4.5.7,8.8,1.1,14.1-3.5-2.3-6.4-4.2-9.4-6a5.58,5.58,0,0,1-.5.8,17.3,17.3,0,0,0,7.5,5.6c2.2.8,2.6,2.2,2.9,4.3,2,12.9,3.8,25.9,6.3,38.7,5.6,28.6,11.7,57.2,17.4,85.8a175.58,175.58,0,0,1,3.1,35.5c-.1,10.7,1.1,21.4,1.9,32,1,13,2.3,26.1,3.3,39.1q2.25,29.4,4.3,58.7a3,3,0,0,1-.8,2.2c-2.7,2.4-5.8,3.8-9.6,3-2.7-.6-6.2-.3-8-1.9s-1.9-5-2.6-7.7c-5.7-21.2-11.1-42.5-17.3-63.6a106.74,106.74,0,0,1-4.3-42c1.1-10.3-.6-20.2-3.4-30.2C947,415.8,937.1,378.9,927,341.9c0-.1,0-.2-.1-.2-.6-1.6-.5-3.9-2.9-4s-3.7,1.9-4.3,4a15.87,15.87,0,0,0-.6,3.8C918,372.8,917,400,916,427.3c-1,24.8-4.6,49.2-8.8,73.6Q900.75,538,894.9,575c-1.3,8-1.7,16-2.3,24.1-.2,2.6-1.2,3.6-3.5,3.4a25.26,25.26,0,0,1-6.6-1.5,56.18,56.18,0,0,1-7.4-4.5,3.48,3.48,0,0,1-1-2c-.8-8.6-1.7-17.3-2.3-25.9-.6-9.4-1-18.8-1.1-28.3a134.87,134.87,0,0,1,5.2-40c3.3-11.2,3.6-22.4,2.1-33.8-4.1-31.8-8.3-63.7-12.4-95.5-1.9-14.7-.4-29.2,2.1-43.6A216.68,216.68,0,0,1,876.1,296.6Z"/><path class="cls-1" d="M780.6,558.2v-141q42.75-10.5,86.1-21.1c1.1,8.4,2.2,16.6,3.2,24.7,2.1,16.8,4.1,33.5,6.4,50.3a72.25,72.25,0,0,1-2.6,31c-3,10.4-5.3,20.9-5.7,31.7,0,1.5-.5,2.2-2.1,2.6-27.6,7-55.2,14.2-82.8,21.3C782.5,557.8,781.7,558,780.6,558.2Z"/><path class="cls-1" d="M749,515.3c0,15.6.2,31.1-.1,46.7-.2,11-2.7,21.7-6.2,32.1a239.1,239.1,0,0,1-15.4,35.2c-9.8,18.2-24.7,29.5-44.8,34.5-19.4,4.8-39,6.4-58.9,5.9-13.2-.3-26.3-.1-39.5-.2-3.8,0-7.6-.4-11.4-.6s-6.7-2.3-8.7-5.4a40.71,40.71,0,0,1-6.2-18.7c-.3-3.1,1.2-6.3,1.6-9.5,1.9-15.1,3.7-30.2,5.5-45.3,4.8-39.3,13.1-77.8,29.1-114.3,7.9-18.1,17.9-35,32.3-48.8,20.5-19.8,44.8-27.1,72.8-21.3,11.3,2.3,20.6,8.2,28.3,16.7,10.1,11.3,17.2,24.4,19.8,39.3,1.6,9.2,1.5,18.8,1.8,28.2.2,8.5-.1,17,0,25.5Zm-6.1,16.3c-.1-18.6-1.1-36-5-52.9-6-26-22.1-44.5-46-56.1-8.1-3.9-16.7-5.2-25.5-2.7-20.7,5.8-37,17.8-49.3,35.4-14.2,20.4-20.7,43.6-23.7,67.9a222.37,222.37,0,0,0,.5,58.2c2.2,16.1,7.4,31.1,17.1,44.4,18.7,25.6,54,33,80.9,16.6,19.7-12.1,33.1-29.2,41.2-50.6C740.6,571.8,742.8,551.2,742.9,531.6Z"/><path class="cls-1" d="M1142.4,517.4c-14-9.6-19.3-24.3-22.2-40-4.2-22.2-4.1-44.3,2.3-66.1,4.2-14.4,10.1-28,20.2-39.3a49.23,49.23,0,0,1,7.6-6.8c6-4.4,11.8-3.9,17.4,1,4.3,3.9,7,8.9,9.4,14.1,4.6,9.8,5.3,20.3,5.6,30.8.5,15.5.8,30.9-1,46.4-1.8,15.7-5.1,31-12.7,45a36.8,36.8,0,0,1-5.1,7.3c-5.7,6.8-12.5,10.7-21.5,7.6Z"/><path class="cls-1" d="M927.3,45.6c3.6,1,5.7,3.5,7.3,6.7.7,1.5,2,2.7,3,4.1.4.5,1,1,1.1,1.6a53,53,0,0,1,1.4,19.7c-2.4-.4-4.8-1.4-7-1s-4.4,1.7-6.4,2.9c-1.5.9-1.5,4.4-.3,6.8,1.1,2,2.8,2.3,4.8,1.8a6.25,6.25,0,0,0,4.3-7.8c-.2-.8-.6-1.6-.9-2.5,2.2-.6,3.2.4,3.8,2.3.7,2.6-.7,6.3-3.1,8.1a14.19,14.19,0,0,1-1.8,1.1c1.9.6,2.1.5,5.2-2.2-.3,1.8-.6,3.3-.8,4.8a29.87,29.87,0,0,0,1.1,15.1c.6,1.7.9,3.4,1.4,5.2,2.1,8.3-2.2,17-14.4,18.1-11.6,1-20.4-3.9-27.1-12.9-2.7-3.7-5.4-7.5-7.7-11.4a23.84,23.84,0,0,0-10-9.4,22.78,22.78,0,0,1-10-9.9,15.57,15.57,0,0,1-1-3.7,29.64,29.64,0,0,1,3.8-.9,9.38,9.38,0,0,1,7.7,3.8,8.35,8.35,0,0,0,3.3,2,165.4,165.4,0,0,0-2.3-32.5c11.6-3.6,23.1-7.1,34.5-10.6-3.4.7-7,1.2-10.4,2.2-6.8,2-13.5,4.4-20.4,6.4a23.83,23.83,0,0,1-15.8-.7c-6.5-2.6-8.9-8.3-6.1-14.7,2.7-6.2,7.8-9.9,13.9-12.5,7.3-3.1,15.1-4.5,23-5.5a40,40,0,0,0,4.8-.8c3.5-.8,4.8-2.3,5.2-5.7.8-6.2,4.5-10.1,10.7-11.2,1.8-.3,3.7-.4,5.7-.7a24.47,24.47,0,0,0-3.5,2.6c-2.2,2.1-2.2,4.6-.1,6.7a22.65,22.65,0,0,0,4.2,3.3c2.9,2.2,4.7,5.1,4.1,8.8-.9,5.5,1,9.4,5.8,12.5a28.49,28.49,0,0,1,6.3,6.2c3.2,3.9,2.8,8.8-.5,12.6-1.3,1.5-2.6,1.9-3.9.1-1.1-1.4-2.2-2.8-3.2-4.2A12.6,12.6,0,0,0,927.3,45.6Zm-11.1,69.3a22.58,22.58,0,0,1-2.9-.4c-.7-.2-1.8-.4-1.9-.9-.3-1.1.1-3.2-.2-3.2-2.2-.6-.9,1.7-1.7,2.4-.1.1-.1.1-.5.3-1.3-.8-2.8-1.6-4.1-2.4.5-1.6,1-2.8,1.4-4-.3-.1-.6-.3-.9-.4-.7,1-1.3,2-2,3-.8-.5-1.6-.9-2.3-1.4-.1.1-.2.3-.3.4.6.7,1.2,1.4,1.7,2-.2,1.4-.4,2.7-.7,4,.3.1.5.1.8.2.5-.9,1-1.9,1.5-2.9a27.09,27.09,0,0,0,2.7,1.6c1.7.8,2.8,1.7,2.1,3.8-.2.5.4,1.2.6,1.9.2,0,.4-.1.6-.1.3-1.1.5-2.2.8-3.3,3,.5,6,.7,7.7,3.7-.1-.9-.1-1.7-.2-2.6,2-.5,3.8-.9,5.4-1.3.8,1.2,1.5,2.1,2.2,3.1.2-.1.4-.3.6-.4-.4-1.1-.8-2.1-1.2-3.4,1.7-.5,3.3-1,4.9-1.5.7,1.6,1.3,3,1.9,4.3l.9-.3c-.2-1.4-.5-2.7-.7-4.2,1-.1,2-.2,3.3-.3-2.2-1.3-4-2.4-6-3.6.1,1,.2,1.8.3,2.6-1.8.5-3.4,1-4.9,1.4a29.94,29.94,0,0,1-1.8-2.4c-.2.1-.3.2-.5.3.2.9.3,1.7.5,2.8-1.7.4-3.3.8-4.8,1.1-.4-1.4-.8-2.4-1.1-3.5-.3.1-.5.1-.8.2A26.59,26.59,0,0,0,916.2,114.9Zm-3.8-29.6c-1.5-6.7-11.2-10.9-16.5-7.7-3.6,2.2-4.2,5.7-1.2,8.7a30.18,30.18,0,0,0,5.9,3.9,6,6,0,0,0,2,.3,2.35,2.35,0,0,0,.2-.8c-1.3-.7-2.6-1.4-3.5-1.8,1.8-.7,4.2-.9,5.3-2.3s1.1-3.8,1.6-5.9C908.1,81.4,910,83.1,912.4,85.3Zm5,18.6c-.1.3-.1.5-.2.8,5.5,5.1,14.5,3.3,18.6-3.7-.1-.2-.1-.4-.2-.5-.7-.6-1.5-1.2-2.2-1.7a25.93,25.93,0,0,1-11-14.2,34.72,34.72,0,0,0-1.7-4.5c-.4-.7-1.4-1-2.2-1.5a5.5,5.5,0,0,0-.2,2.2c2.6,7.7,6.3,14.7,13.4,19.2.4.3.7.7,1.1,1-3,4.7-8,6-12.6,3.6A14.34,14.34,0,0,0,917.4,103.9ZM889.5,71a1.27,1.27,0,0,0,.6-.1,16.67,16.67,0,0,0,.8-2c1.8-4.3,5-5.9,9.4-4.6,2.2.6,4.2,1.7,6.4,2.5,1.1.4,2.3.8,3.4,1.2a2.18,2.18,0,0,1,.4-.5c-.4-.6-.7-1.5-1.2-1.7-3.8-1.5-7.7-3.3-11.7-4.3-4.2-1-8.6,2.7-8.9,7A7.32,7.32,0,0,0,889.5,71Zm35.1-2.3c.7,1,.9,1.7,1.3,1.9,3.2,1.4,6.5,2.7,10,1.3a8,8,0,0,0,2.9-2.6c1.1-1.5.3-2.4-1.4-2.8C934.4,72.7,929.7,69.8,924.6,68.7Z"/><path class="cls-1" d="M931.2,272.8a23.91,23.91,0,0,1-.5-3.6c-.1-3.5.5-4.1,3.8-5.6,6.5-2.9,13-5.9,19.3-9.1a26.61,26.61,0,0,0,6-4.6c6.7-6.6,7.6-13.9,2.2-21.5a13.67,13.67,0,0,1-2.6-9.1,137.12,137.12,0,0,0-5-40.3c-.7-2.3-.7-2.3-3.1-2.1a142.76,142.76,0,0,1,5.5,45.5c-5.8-1.3-7.9-.5-11.2,5.6-3.1,5.8-7.8,8.5-14.1,9.4-.7-4.3-1.2-8.7-2.1-13-2.6-12.6-7.9-24.3-12.1-36.4-3.1-8.9-5.6-18.1-8.3-27.2-.7-2.3-.6-4.3,2.3-5.3,2,1.1,4.1,2.3,6.4,3.3a15.06,15.06,0,0,0,4.1,1.3,3.08,3.08,0,0,0,3.9-3.4c-.1-2.1-.8-4.1-1.1-6.2-.3-1.8-.4-3.7-.7-6,1.9.8,3.2,1.4,4.6,1.9,5.8,2.1,11.7,4.1,17.5,6.3a62,62,0,0,1,7.9,3.6,26.12,26.12,0,0,1,13.5,15.6,575.43,575.43,0,0,1,15.9,56A86.44,86.44,0,0,1,985,257c-.6,5-3,8.7-8,10.1-14.4,4.2-29,7.2-44.2,6C932.2,273,931.9,272.9,931.2,272.8Z"/><path class="cls-1" d="M934.7,379.1c1.5,5.3,2.9,10.4,4.3,15.5,5.9,22,11.8,44.1,17.7,66.1,2.2,8.1,2,16.3,1.3,24.6-.8,8.7-1.3,17.3.6,25.9a5.48,5.48,0,0,1,0,1.3l-53,13.6c.8-4.9,1.5-9.5,2.2-14,3-19.8,6.2-39.6,8.7-59.5,1.4-11.4,1.6-23.1,2.2-34.6.6-11.2,1-22.4,1.6-33.6a2.74,2.74,0,0,1,1.5-2.1C926.1,381.1,930.3,380.2,934.7,379.1Z"/><path class="cls-1" d="M876.9,611c4.3,3,9.6,4.9,15.5,3.7,3,10,9.4,17.8,14.9,26.1,4.8,7.2,9.4,14.5,13.7,22a26.93,26.93,0,0,1,2.5,7.4c1.3,5.7-1.2,8.4-6.9,6.7a83.49,83.49,0,0,1-15.3-6.7c-8.1-4.6-14-11.4-18.9-19.3-3.2-5.3-6.4-10.6-11.5-14.5-3-2.3-3.4-5.8-2.1-9.3a56.07,56.07,0,0,1,2.9-5.4C873.6,618.2,875.2,614.7,876.9,611Z"/><path class="cls-1" d="M985.7,606.5c7.5,2,14.7,3.2,21.2-2.4,6.4,7.7,15.8,8.4,24.5,10.6,9.1,2.3,18.4,4.2,27.6,6.2a12.41,12.41,0,0,1,7.1,4.3c-2.3,4.9-6,7-11.3,7.2-12.1.5-24.1,1.3-36.1,2.3-5.8.5-11.6,1.7-17.4,2.2a31,31,0,0,1-9.1-.6c-5.1-1.1-7.7-4.3-7.9-9.5a81.43,81.43,0,0,1,.3-8.6c.1-1.9.5-3.9.7-5.8S985.5,608.6,985.7,606.5Z"/><path class="cls-1" d="M987.9,247c10.4,5.5,20.4,10.9,28.7,18.8,4.3,4.1,4.4,6.8-.2,10.5a115.42,115.42,0,0,1-16.5,11.4c-9.1,5-18.5,9.2-27.9,13.7-.8.4-1.5.6-2.7,1.1-.8-10.4-1.6-20.5-2.4-30.8,3.1-.8,6.2-1.5,9.2-2.3,8.3-2.2,10.4-4.6,11.1-13.2C987.5,253.3,987.6,250.4,987.9,247Z"/><path class="cls-1" d="M962.7,529.2c1.3,4.4,2.5,8.8,3.8,13.4-22,5.6-43.8,11.2-66,16.9.7-4.4,1.5-8.5,1.8-12.6.2-2.5,1.2-3.4,3.6-4,18.5-4.4,37.1-9,55.6-13.5A9.64,9.64,0,0,0,962.7,529.2Z"/><path class="cls-1" d="M903.3,541c.7-4.6,1.3-8.7,2-12.7a1.92,1.92,0,0,1,1.4-1.2c17.2-4.5,34.5-8.9,51.7-13.3a2.64,2.64,0,0,1,.7.1c.9,4.1,1.9,8.3,2.9,12.7C942.5,531.4,923.2,536.1,903.3,541Z"/><path class="cls-1" d="M927.8,274.2c-.4,4.6-.9,9.1-1.3,13.7-.2,2.1-1.8,1.5-2.9,1.3-8.5-1.4-16.9-2.6-25.3-4.3-6-1.2-12-3.1-18-4.7V270a6.74,6.74,0,0,1,1.7.6,29.86,29.86,0,0,0,26.5,1.8c4.3-1.7,8.2-2,12.4,0A68.1,68.1,0,0,0,927.8,274.2Z"/><path class="cls-1" d="M942.2,237.3c2-2.8,3.8-5.4,5.6-8s3.7-5.3,7.4-5,5.3,3.2,6.4,6.2c3.5,9.7,1.6,14.9-5.5,20.1-2.2,1.6-4.5,2.9-7.2,4.6C948.2,248,946,242.1,942.2,237.3Z"/><path class="cls-1" d="M867.6,53.9c3.8.3,7.4.5,11,.9a2.43,2.43,0,0,1,1.5,1.3c1.1,9.2,2,18.5,3,27.7a2.35,2.35,0,0,1-.8.2c-1.2-.8-2.4-1.8-3.7-2.5-1.8-.9-3.8-2.2-5.6-2.2-3.2.1-4-1.9-4.8-4.2C865.9,69.2,865.7,61.6,867.6,53.9Z"/><path class="cls-1" d="M923.6,339.9c.8,1.3,1.9,2.5,2.2,3.8,1.1,4.3,1.9,8.8,3,13.1,1.6,6.3,3.4,12.6,5,18.9a16.48,16.48,0,0,1,.5,2.1c-4.5,1.2-9,2.3-13.8,3.5.6-13.9,1.1-27.5,1.6-41A8.33,8.33,0,0,0,923.6,339.9Z"/><path class="cls-1" d="M896.4,116.3c4.4,6,9.5,10.8,16.6,13.1-.3,2.3-.6,4.6-.9,6.8-.1.4-.3,1-.6,1-3.4.6-3.3,3.6-4.3,5.9-.4.9-.6,1.9-1,2.9-.3-.3-.5-.4-.5-.5.6-5.1-1.7-8.4-6.1-10.8-2.7-1.5-5.2-3.5-7.8-5.3C893.3,125.1,894.8,120.9,896.4,116.3Z"/><path class="cls-1" d="M888,158.4c-2-.1-2.4-.8-2.1-2.7.9-4.6,1.5-9.3,2.3-14a.75.75,0,0,1,.1-.5c1-1.9,1.6-4.8,3.2-5.6,2.2-1.1,3.7,1.6,5.1,3.3,2,2.4,3.9,4.9,5.8,7.4.8,1,1.4,1.9.3,3a1.37,1.37,0,0,0-.4,1.2c.5,3.3-2,3.8-4.2,4.6C894.8,156.2,891.4,157.3,888,158.4Z"/><path class="cls-1" d="M912.5,154.5c-.6-2.7-1.1-4.6-1.5-6.5a6.89,6.89,0,0,1-1-.4c3.1-2.8,6.1-5.7,9.3-8.4.7-.6,2.1-.5,3.1-.3a2.79,2.79,0,0,1,.5,2.2c-1.2,4.5-.4,8.9.6,13.3.7,3.3-.6,4.6-3.7,3.5C917,156.9,914.5,155.4,912.5,154.5Z"/><path class="cls-1" d="M874.8,598.7c5.6,4.1,10.7,7.4,17.5,4.8,0,2.6.1,4.9-.1,7.1-.1.6-1.1,1.4-1.8,1.6-5.2,1.3-9.6-.8-13.8-3.7a1.86,1.86,0,0,1-.7-1.3C875.6,604.7,875.2,602.1,874.8,598.7Z"/><path class="cls-1" d="M984.7,598.5c6.6.8,13.1,4.5,19.1-.8,2.6,4.8,2.8,4.8-1.9,7.4-5.2,3-10.6,1.2-15.8-.3a1.33,1.33,0,0,1-.8-1.1C985.1,602,984.9,600.4,984.7,598.5Z"/><path class="cls-1" d="M942.4,257.6c-.9-6.9-3.9-12.7-8.1-18.3,1.7-.5,3.2-1.1,4.7-1.4.5-.1,1.4.5,1.8.9a26.7,26.7,0,0,1,5.5,13.2C946.9,256.1,946.8,256.2,942.4,257.6Z"/><path class="cls-1" d="M910.6,151.4c0,1.8-1.8,4.2-3.3,4.3-1.7.1-3.7-2-3.7-3.8s1.7-3.6,3.3-3.6C908.7,148.2,910.6,149.8,910.6,151.4Z"/><path class="cls-1" d="M903.1,145c-1.3-1.7-2.6-3.5-4-5.1s-2.6-2.9-3.9-4.3c-1.7-1.8-3.6-2.8-6.3-1.8.6-.9,1.1-1.8,1.8-2.8,3.9,2.7,8,5,11.5,8.1,1.2,1.1,1.1,3.8,1.6,5.7A6.37,6.37,0,0,0,903.1,145Z"/><path class="cls-1" d="M931,77.7c1.9,2.3,2.9,4.2,1.7,6.3-.5.8-1.9,1.1-2.8,1.7-.6-1.4-1.7-2.9-1.5-4.2C928.4,80.2,929.9,79.1,931,77.7Z"/><path class="cls-1" d="M908,146.7a62.63,62.63,0,0,1,2.1-6.1c.8-1.7,2-1.4,3.8.6-1.8,1.9-3.6,3.8-5.4,5.8C908.4,146.8,908.2,146.8,908,146.7Z"/><path class="cls-1" d="M928.5,272.5c-1.6-.3-3.3.5-3.5-2-.3-3.6-.3-3.7,3.1-4.4C928.3,268.2,928.4,270.2,928.5,272.5Z"/><path class="cls-1" d="M922.4,271.5c-2-.6-3.6-1.2-5.9-1.9l5.7-1.8C922.3,269,922.4,270,922.4,271.5Z"/><path d="M44.8,417.2a7.66,7.66,0,0,1,1,2.3c1.8,12.5,9,21.6,18.7,29,12.7,9.7,27.2,15.5,42.4,20,18.5,5.6,37.6,8.6,56.8,10.5,46.6,4.7,93.4,4.3,140.1,3,33.5-.9,66.9-2.4,100.3-4.8,27.8-2,55.5-5.1,83.1-8.6,27.8-3.5,55.5-7.9,82.5-15.7,9.4-2.7,18.6-6.3,27.9-9.5,2-.7,1.9-.8,3,1.6-2.7,1.1-5.4,2.2-8.2,3.3a325.22,325.22,0,0,1-65,16.8c-27.9,4.2-55.8,8-83.8,11.1-24,2.6-48.1,4.3-72.2,5.9-41.2,2.8-82.6,3.7-123.9,2.8-26.8-.6-53.7-1.6-80.5-3.6s-53.2-7.1-78.2-17.6c-12.2-5.1-23.6-11.6-32.8-21.5a45.19,45.19,0,0,1-11.6-22,28.86,28.86,0,0,1-.4-2.9C44.4,417.3,44.6,417.2,44.8,417.2Z"/><path d="M146.9,553.7c.2,2.9.3,5.9.7,8.8,2.2,16.2,11.2,27.7,24.9,35.9,12.7,7.6,26.7,11.9,41.2,14.2,20.5,3.3,41.1,6.4,61.8,8.7,21.8,2.5,43.6,4.1,65.5,6,6,.5,12.1.6,18.1.7,3.3.1,3.9-.9,2.4-3.8a53.34,53.34,0,0,0-4.4-7.2Q330,581.45,302.5,546.1a3.93,3.93,0,0,0-2.8-1.1c-26.9.2-53.9.2-80.8.8-26.5.6-53,1.7-79.5,2.7-8.8.3-17.6,1.2-26.2,3.8a8.15,8.15,0,0,1-2.7,0c-.1-.3-.1-.6-.2-.9.8-.4,1.6-.9,2.4-1.2,9.7-3,19.8-4.1,29.9-4.4q60.6-1.65,121.1-3.1c9.2-.2,18.4-.4,27.5-.5a79.06,79.06,0,0,1,8.4.6,12.59,12.59,0,0,1,8.4,4.9c4.1,5.1,7.9,10.4,11.8,15.6q19.8,26.1,39.4,52.3a40,40,0,0,1,4.4,7.1c2,4.1.6,6.7-4,7-6,.4-12.1,1-18.1.4-32.2-3.3-64.4-6.6-96.5-10.7-17.5-2.3-34.8-5.8-52.1-9.5-12.4-2.7-23.7-8.4-32.6-17.8-9.5-10.1-15.1-21.8-15.9-35.8C144.4,555,144.1,553.2,146.9,553.7Z"/><path d="M585.4,469.9c-8.8,2-17.6,4.3-26.5,6-29.2,5.7-58.4,11.6-87.8,16.7q-34.05,5.85-68.6,9.9-36.75,4.5-73.8,7.5a1104.92,1104.92,0,0,1-122.1,2.8c-23.9-.7-47.7-1.9-71.5-4.7a394.29,394.29,0,0,1-53.8-9.8,5.31,5.31,0,0,1-1.7-.8c5.8,1.2,11.5,2.6,17.4,3.4,14,2,28.1,3.9,42.2,5.5,25.7,3,51.5,4.6,77.3,5.2,31.4.7,62.8.2,94.1-2.2,26.5-2,53-4.3,79.4-7.5,30.3-3.7,60.5-7.8,90.5-13,30.2-5.2,60.1-11.8,90.2-17.9,3.8-.8,7.6-1.9,11.4-2.6a13.05,13.05,0,0,1,3.4.3A4.12,4.12,0,0,1,585.4,469.9Z"/><path d="M318.3,457.6c1.3-.8,2.5-1.7,3.9-2.4,25.7-13.6,51.5-27.3,77.2-40.9,17-9,33.8-18.5,51.8-25.7,10.4-4.2,20.8-7.9,32.2-7.9a96.06,96.06,0,0,1,35.5,7.1,19.48,19.48,0,0,1,4.5,2.4c3.7,2.6,4.1,5.5.8,8.6a42.53,42.53,0,0,1-7.8,6.2c-10.2,5.9-20.5,11.8-30.9,17.2-20.7,10.7-42.1,19.8-64.7,25.6a246.13,246.13,0,0,1-43.5,6.8c-18.9,1.4-37.8,2.5-56.7,3.8h-1.9A5.9,5.9,0,0,1,318.3,457.6Zm5.6-1.5h1.9c20.8-1.5,41.5-2.8,62.3-4.7a213.36,213.36,0,0,0,48-9.9c29.1-9.7,56.3-23.7,82.5-39.6a18.19,18.19,0,0,0,3.8-2.9c2.4-2.4,2.3-5-.5-6.9a26.32,26.32,0,0,0-7.7-3.8c-7.8-1.8-15.6-3.4-23.4-4.6-8.7-1.4-17.5-1.4-25.9,1.8-8.2,3.1-16.2,6.5-24.2,10.2-39.2,18.1-77.1,38.6-115,59.3C325.3,455.2,324.9,455.5,323.9,456.1Z"/><path d="M538.4,628.5c1.1-17.1,2.3-33.8,3.3-50.5,1.4-23.2,8.7-44.5,19.6-64.8,3.5-6.5,7.1-12.9,10.7-19.4.6-1.2,1.4-2.3,3.2-1-.6,1.1-1.1,2.2-1.7,3.3-7.7,13.5-15.2,27.1-20.7,41.7a133.91,133.91,0,0,0-8.3,38.9c-1.2,16.9-2,33.8-2.9,50.6-.1,1.9-.7,2.6-2.6,2.9-18.2,2.4-36.3,5.1-54.5,7.4-17.6,2.3-35.2,4.5-52.9,6.4-16.7,1.8-33.5,3.5-50.2,4.9-10.4.9-20.9,1.1-31.3,1.6a52.4,52.4,0,0,1-7.9-.5,6.73,6.73,0,0,1-2.3-1.3,6.57,6.57,0,0,1,2.5-1c6.4.2,12.9,1,19.3.7,13.2-.7,26.4-1.9,39.6-3.2s26.2-2.8,39.3-4.3c15.8-1.9,31.5-3.9,47.3-5.8s31.7-3.9,47.5-5.9C536.4,628.9,537.4,628.7,538.4,628.5Z"/><path d="M639.4,332.1c.3.2.8.6,1.3,1-.6.5-1.2,1.3-1.8,1.4-3.3.6-6.7.8-10.1,1.5-21.2,4.1-42.4,7.9-63.4,12.6A1354.75,1354.75,0,0,0,406,394.3c-27.7,9.8-54.6,21.3-79.9,36.3-1.7,1-3.3,2.1-5,3a6.92,6.92,0,0,1-2.5.1c.5-.7.7-1.6,1.4-2a337.11,337.11,0,0,1,43.4-22.6c46.9-20.5,95.6-36.1,145.1-48.8,29.7-7.7,59.5-14.6,89.4-21.2,13.3-3,26.9-4.6,40.4-6.8C638.4,332.2,638.6,332.2,639.4,332.1Z"/><path d="M467.5,578.6l8.7-17.1c4.6-9.1,9.1-18.2,13.7-27.3,1-1.9,2-3.7,3-5.6,4.8-9.2,12.1-14.9,22.2-17.6,14.8-4,29.5-8.6,44.2-12.9a16.09,16.09,0,0,1,3.8,0c.1.3.1.6.2.9-3,4.4-6.1,8.8-9.1,13.1-11.3,15.8-22.9,31.5-33.7,47.6-6.7,10-15.7,15.2-27.2,16.8-7.2,1-14.4,2.1-21.7,2.9C470.3,579.6,469.1,579,467.5,578.6Zm3.6-1.2a3.2,3.2,0,0,0,1.3.1c8.9-1.5,17.7-2.8,26.6-4.5,7.3-1.4,12.7-5.7,16.9-11.7l40.8-57.6c.7-.9,1.3-1.9,2.2-3.2-1.4.4-2.2.6-3,.8-12.9,3.8-25.8,7.8-38.8,11.4-8.4,2.4-15.5,6.4-20.1,14.1a60.52,60.52,0,0,0-3.2,5.5c-5.9,11.7-11.8,23.5-17.7,35.3C474.4,570.8,472.8,574,471.1,577.4Z"/><path d="M535.7,580.6a77.48,77.48,0,0,1-5.5,22.8c-3,7-8.1,11.8-15.6,13.4-13.7,3-27.4,5.9-41.1,8.6-8.5,1.7-17,3-25.6,4.4a12.22,12.22,0,0,1-2.6-.3,8.65,8.65,0,0,1,.6-2.3c6.2-12.1,12.5-24.1,18.9-36.1a3.79,3.79,0,0,1,2.3-1.8c7.5-1.8,15-3.8,22.6-5,14.4-2.4,28.9-4.4,43.3-6.6C535.6,577.4,535.8,577.5,535.7,580.6Zm-86.8,46.7c11.5-2.1,22.6-4,33.7-6.1,10.3-2,20.6-4.1,30.9-6.4a18.87,18.87,0,0,0,14.1-12.1,101.82,101.82,0,0,0,4-13.3c.7-2.9,1-5.9,1.5-9.1-1.1.1-1.8.1-2.5.2-8.7,1.3-17.5,2.5-26.2,3.8-10,1.6-19.9,3.3-29.8,4.9-5.4.9-9.2,3.5-10.8,8.9,0,.2-.1.3-.2.5C458.8,608,454,617.4,448.9,627.3Z"/><path d="M116.5,592.9c-1.2-.3-2.1-.4-2.9-.7q-34.95-12.9-70-25.7c-2.1-.8-2.4-1.7-2-3.7,1.6-7.6,3-15.3,4.3-23,.3-1.9,1-2.5,2.9-1.7,16.9,7.3,33.9,14.4,50.7,21.8a10.37,10.37,0,0,1,4.9,4.8c4.1,8.6,7.8,17.3,11.6,26C116.2,591.3,116.2,591.9,116.5,592.9ZM44.2,565q34.2,12.6,69,25.5c-4-9.1-7.8-17.9-11.7-26.5a7,7,0,0,0-3.3-3.5c-3-1.5-6.2-2.3-9.2-3.6-12.5-5.2-24.9-10.5-37.3-15.7-1-.4-1.9-.7-2.8-1C47.3,548.6,45.8,556.8,44.2,565Z"/><path d="M762.7,395.5a26.15,26.15,0,0,1-2.8,0c-11.7-1.6-23.3-3.9-35-4.8-26.6-2.1-52.6.1-77.3,11.4a89.3,89.3,0,0,0-30.3,22.4c-.9,1-1.7,2.2-3.7,1.1.7-.9,1.4-1.9,2.1-2.7,14.8-16.2,33.4-25.5,54.5-30.4,19.7-4.6,39.6-5.2,59.5-3.1,10.5,1.1,21,3.1,31.5,4.7a7.49,7.49,0,0,1,1.6.5A3.44,3.44,0,0,1,762.7,395.5Z"/><path d="M83.8,417.3c1,.3,2,.3,2.5.8,12.9,12.6,29.1,19.1,46,24.3,28.5,8.8,57.6,11.9,87.3,10.4a22,22,0,0,1,6.2.5,6.11,6.11,0,0,1-1.3.3c-37.1,2.2-73.3-2.2-108.1-15.4-11.2-4.2-21.6-9.9-30.5-18l-1.8-1.8C83.9,418.1,84,417.9,83.8,417.3Z"/><path d="M31.9,521.7c1.9.4,9,14.9,8.6,17.7C38.6,538.9,32,525.2,31.9,521.7Z"/><path d="M34.3,474.8a49.57,49.57,0,0,1-15.1-24c.2-.2.4-.3.6-.5.5.6,1.4,1.1,1.6,1.8A56,56,0,0,0,34.3,474.8Z"/><path d="M1041.7,281.6a36.32,36.32,0,0,1,13.3-3.8,32.48,32.48,0,0,1,16.3,1.8c9.5,3.9,13.4,12.7,9.7,22.3-3.4,8.9-9.9,15.5-16.8,21.7-1,.9-2.2,1-2.9-.5-6.5-13.5-13-27.1-19.4-40.6C1041.7,282.3,1041.7,282,1041.7,281.6Zm2.6.3c6.5,13.5,12.8,26.5,19.4,40.2,3.4-4,6.6-7.5,9.5-11.2a29.53,29.53,0,0,0,6.1-13.6c1-6.2-1.3-11.5-6.7-14.4C1063.5,278.1,1054.1,278.7,1044.3,281.9Z"/><path d="M1045.2,440.6c-.1.2-.2.5-.4.6-5,2.1-5,2-5,7.2v44.4c-2.2.6-4.4,1.2-6.5,1.7,4.9-2.2,4.4-6.5,4.3-10.6-.1-13.3-.3-26.7-.4-40a2.4,2.4,0,0,1,1.6-1.9,42.66,42.66,0,0,1,6.4-1.4Z"/><path d="M1045.2,440.6c18.3-3.6,36.6-7.1,54.9-10.7.1.3.1.6.2,1-1.6.3-3.1.7-4.7,1-14.3,2.7-28.6,5.5-42.9,8.2-2.4.4-5,.3-7.5.5Z"/><path d="M742.9,531.6c-.1,19.7-2.3,40.3-9.8,60-8.1,21.4-21.5,38.5-41.2,50.6-26.9,16.5-62.2,9-80.9-16.6-9.7-13.3-14.9-28.3-17.1-44.4a222.37,222.37,0,0,1-.5-58.2c3-24.3,9.5-47.5,23.7-67.9,12.2-17.5,28.5-29.6,49.3-35.4,8.9-2.5,17.4-1.2,25.5,2.7,23.9,11.6,40,30.1,46,56.1C741.8,495.5,742.8,512.9,742.9,531.6Zm-2.2-.3a307.41,307.41,0,0,0-4-47.9c-4.3-25.8-18.2-45-41-57.6a38.15,38.15,0,0,0-32-2.7,85.48,85.48,0,0,0-32.6,19.8c-12.7,12.4-20.8,27.6-26.4,44.2-4.8,14.5-7.3,29.5-8.9,44.6-2,19.8-2.4,39.5,1.8,59.1,2.7,12.8,7,25,15.3,35.4,18.4,23.1,51.6,32.3,80.6,12.3,17-11.8,29-27.5,36.7-46.6C738.1,572.1,740.6,551.3,740.7,531.3Z"/><path d="M916.2,114.9c.1-1.4.1-2.3.2-3.3.3-.1.5-.1.8-.2.3,1,.7,2.1,1.1,3.5,1.5-.4,3.1-.7,4.8-1.1-.2-1.1-.4-2-.5-2.8.2-.1.3-.2.5-.3.6.7,1.1,1.5,1.8,2.4,1.5-.4,3.1-.9,4.9-1.4-.1-.8-.2-1.5-.3-2.6,2,1.2,3.9,2.3,6,3.6-1.3.1-2.2.2-3.3.3.2,1.4.5,2.8.7,4.2l-.9.3c-.6-1.3-1.2-2.7-1.9-4.3-1.5.5-3.1,1-4.9,1.5.5,1.3.8,2.4,1.2,3.4-.2.1-.4.3-.6.4-.7-1-1.3-1.9-2.2-3.1-1.6.4-3.4.8-5.4,1.3.1.9.1,1.8.2,2.6-1.7-3-4.7-3.2-7.7-3.7-.3,1.1-.5,2.2-.8,3.3-.2,0-.4.1-.6.1-.2-.6-.7-1.4-.6-1.9.7-2.2-.4-3.1-2.1-3.8a27.09,27.09,0,0,1-2.7-1.6c-.5,1.1-1,2-1.5,2.9-.3-.1-.5-.1-.8-.2.2-1.3.4-2.6.7-4-.5-.6-1.1-1.3-1.7-2,.1-.1.2-.3.3-.4.7.4,1.5.9,2.3,1.4.7-1,1.3-2,2-3,.3.1.6.3.9.4-.4,1.2-.8,2.4-1.4,4,1.3.8,2.7,1.6,4.1,2.4.3-.2.4-.3.5-.3.8-.7-.5-3,1.7-2.4.3.1-.1,2.2.2,3.2.1.4,1.2.7,1.9.9C914.2,114.7,915.1,114.7,916.2,114.9Z"/><path d="M912.4,85.3c-2.4-2.2-4.3-3.9-6.2-5.6-.5,2.2-.5,4.6-1.6,5.9s-3.5,1.6-5.3,2.3c.9.5,2.2,1.2,3.5,1.8a2.35,2.35,0,0,0-.2.8,6.45,6.45,0,0,1-2-.3,33.5,33.5,0,0,1-5.9-3.9c-3-3-2.4-6.5,1.2-8.7C901.1,74.4,910.9,78.5,912.4,85.3Zm-9.3-2.8c0-3.1-.9-4.7-2.6-4.7-2,0-4.5,2.2-4.4,3.9.1,1.9,2.3,3.6,4.6,3.6C902.5,85.3,903.2,84.3,903.1,82.5Z"/><path d="M917.4,103.9a9,9,0,0,1,2.8.8c4.6,2.4,9.6,1.1,12.6-3.6a11,11,0,0,0-1.1-1c-7.1-4.5-10.8-11.5-13.4-19.2a5.81,5.81,0,0,1,.2-2.2c.7.5,1.8.8,2.2,1.5a18.91,18.91,0,0,1,1.7,4.5,25.93,25.93,0,0,0,11,14.2,18.39,18.39,0,0,1,2.2,1.7c.1.1.1.3.2.5-4,7-13.1,8.8-18.6,3.7A2,2,0,0,1,917.4,103.9Z"/><path d="M889.5,71a5.49,5.49,0,0,1-.7-2.3c.3-4.3,4.7-8,8.9-7A86.77,86.77,0,0,1,909.4,66c.5.2.8,1.1,1.2,1.7a2.18,2.18,0,0,1-.4.5c-1.1-.4-2.3-.8-3.4-1.2-2.1-.8-4.2-1.9-6.4-2.5-4.4-1.3-7.6.3-9.4,4.6a16.67,16.67,0,0,0-.8,2A.93.93,0,0,0,889.5,71Z"/><path d="M924.6,68.7c5.1,1.2,9.8,4,12.8-2.3,1.7.4,2.5,1.3,1.4,2.8a7.22,7.22,0,0,1-2.9,2.6c-3.5,1.4-6.8.2-10-1.3C925.4,70.4,925.2,69.7,924.6,68.7Z"/><path class="cls-1" d="M323.9,456.1c1-.6,1.3-.8,1.8-1.1,37.9-20.6,75.8-41.2,115-59.3,7.9-3.7,16-7,24.2-10.2,8.4-3.2,17.2-3.2,25.9-1.8,7.9,1.2,15.7,2.8,23.4,4.6a23.09,23.09,0,0,1,7.7,3.8c2.8,1.9,2.9,4.5.5,6.9a21.24,21.24,0,0,1-3.8,2.9c-26.2,15.9-53.3,29.8-82.5,39.6a213.36,213.36,0,0,1-48,9.9c-20.7,1.9-41.5,3.1-62.3,4.7Z"/><path class="cls-1" d="M471.1,577.4c1.7-3.4,3.4-6.6,5-9.9,5.9-11.8,11.8-23.5,17.7-35.3,1-1.9,2.2-3.7,3.2-5.5,4.6-7.7,11.6-11.8,20.1-14.1,13-3.6,25.9-7.6,38.8-11.4.8-.2,1.6-.4,3-.8-.9,1.4-1.5,2.3-2.2,3.2l-40.8,57.6c-4.2,6-9.6,10.4-16.9,11.7-8.8,1.7-17.7,3-26.6,4.5C472.1,577.6,471.7,577.5,471.1,577.4Z"/><path class="cls-1" d="M448.9,627.3c5.1-9.9,9.9-19.3,14.7-28.7.1-.2.2-.3.2-.5,1.6-5.4,5.4-8,10.8-8.9,10-1.6,19.9-3.3,29.8-4.9,8.7-1.4,17.5-2.6,26.2-3.8.7-.1,1.3-.1,2.5-.2-.5,3.2-.8,6.2-1.5,9.1a120,120,0,0,1-4,13.3,19.21,19.21,0,0,1-14.1,12.1c-10.3,2.3-20.6,4.4-30.9,6.4C471.5,623.3,460.4,625.2,448.9,627.3Z"/><path class="cls-1" d="M44.2,565c1.5-8.2,3-16.4,4.6-24.9.9.3,1.9.6,2.8,1,12.4,5.2,24.9,10.5,37.3,15.7,3,1.3,6.3,2.1,9.2,3.6a8,8,0,0,1,3.3,3.5c3.9,8.6,7.7,17.4,11.7,26.5C90,581.9,67.1,573.4,44.2,565Z"/><path class="cls-1" d="M1044.3,281.9c9.8-3.2,19.2-3.8,28.2,1,5.5,2.9,7.8,8.3,6.7,14.4a29.53,29.53,0,0,1-6.1,13.6c-2.9,3.7-6.1,7.2-9.5,11.2C1057.1,308.4,1050.8,295.4,1044.3,281.9Z"/><path class="cls-1" d="M740.7,531.3c-.1,20-2.5,40.8-10.5,60.7-7.7,19.1-19.7,34.8-36.7,46.6-29,20.1-62.3,10.8-80.6-12.3-8.3-10.4-12.6-22.6-15.3-35.4-4.2-19.6-3.8-39.3-1.8-59.1,1.6-15.2,4.1-30.1,8.9-44.6,5.6-16.7,13.7-31.8,26.4-44.2a85.48,85.48,0,0,1,32.6-19.8c11.1-3.8,22-2.9,32,2.7,22.8,12.6,36.7,31.8,41,57.6A305.09,305.09,0,0,1,740.7,531.3Z"/><path class="cls-1" d="M903.1,82.5c.1,1.8-.6,2.7-2.5,2.8-2.3,0-4.5-1.7-4.6-3.6-.1-1.7,2.4-3.8,4.4-3.9C902.2,77.8,903.2,79.5,903.1,82.5Z"/></g></g></svg>