<svg id="Layer_1" data-name="Layer 1" xmlns="http://www.w3.org/2000/svg" viewBox="0 0 1200 682.65"><defs><style>.cls-1{fill:#fff;}</style></defs><path class="cls-1" d="M322,434.54H-878V-248.11H322ZM230.57,272.06c2,3.24,4.08,6.54,8.29,6.71,9.24.36,18.5.57,27.75.55,7.84,0,14-3.72,18.75-9.8a54.19,54.19,0,0,0,6.15-9c5.62-11.32,11.56-22.55,16.17-34.28a119,119,0,0,0,7.52-28c2.21-17.09,3.15-34.36,4.37-51.57a693.47,693.47,0,0,0,1.53-77c-.57-13.88-6.46-24.11-18.37-31.14a97.2,97.2,0,0,0-30-11.08,344.05,344.05,0,0,0-57.62-7.07A94.86,94.86,0,0,1,178,11.84Q143.79-4,109.54-19.77A5.73,5.73,0,0,1,106.15-24c-4.49-16.1-9.17-32.14-13.7-48.23-3.23-11.5-10.9-18.71-21.74-22.93q-10.8-4.2-21.65-8.26c-2-.75-3.1-1.64-2.47-4.07a3.92,3.92,0,0,0-.87-3.42c-.72-.54-2.34-.06-3.51.23a5,5,0,0,0-2.16,1.29c-1.65,1.6-3.55.38-3.45-1.58.12-2.3.61-4.57,1-7,5.89,1.23,11.2,1.37,16.47-.09,8.26-2.28,12.47-8.48,11.28-16.84a33.9,33.9,0,0,0-1.75-6.36c-1.8-5-1.83-10.08-1-15.32A196.6,196.6,0,0,0,64.8-176.8c.21-4.34-.67-8.74-1-12.94a19.1,19.1,0,0,0,3.65-2,10.45,10.45,0,0,0,1-14.86c-2-2.27-4.43-4.21-6.64-6.33-2.44-2.35-4.52-5-4.51-8.55a17.12,17.12,0,0,0-6.59-14.2c-4.53-3.7-3.79-7.54,1.42-10.41.59-.33,1.15-.69,1.73-1-6-.65-11.73-.28-17,2.55A11,11,0,0,0,30.66-236c-.64,5.14-1.68,5.9-6.76,6.84A231.35,231.35,0,0,0,.32-224a29.56,29.56,0,0,0-16.64,12.43c-3.17,4.9-2.78,10.31,1.37,13.88,1.95,1.68,1.87,3.21,1.55,5.27-1.26,8-.88,15.76,3.16,23.17l-1.68,1.11c2.67,7.79,6.65,14.6,14.23,18.23a23.45,23.45,0,0,1,9.31,8.35c1.31,1.89,2.71,3.71,3.89,5.68a4.38,4.38,0,0,1,.55,2.78c-1.75,9.14-5.89,17-13,23.06a113.13,113.13,0,0,1-12,8.62c-5.5,3.54-11.32,6.57-16.75,10.21C-33.38-86-38.63-79-40.55-69.77a44.79,44.79,0,0,0,.16,17.71c-3.71-.21-7.25-.46-10.8-.6-18.77-.77-37.54-1.73-56.32-2.22-38-1-76-1.89-114-2.43-13.5-.19-27,.36-40.52,1.35-18.1,1.33-35.24,6.85-51.93,13.7-36.7,15-72.76,31.53-108,49.78-25.17,13-50.78,25.38-73.72,42.33-3.46,2.56-7.33,2.78-11.41,2.48-5.42-.4-10.85-.74-16.28-.94-30.54-1.09-61,.09-91.54,1.44a131.29,131.29,0,0,0-52.9,13.44c-46.36,22.84-91.76,47.41-135.7,74.59-16.75,10.37-32.94,21.65-49.16,32.84-11.69,8.06-15.39,19.83-13.86,33.51,2.11,18.86,7.86,36.82,13.65,54.75.64,2,1.62,3.86,2.57,6.12-2.56,1-4.85,1.79-7.13,2.69-6.11,2.4-12.05,5.15-16.9,9.71-4.15,3.89-4.48,7.68-1,12.15a106.45,106.45,0,0,0,7.29,8.18c14.84,15.27,32.34,26.95,50.82,37.24,13.76,7.66,27.88,14.49,43.6,17.27,4.88.86,9.7,2,13.6,5.31a78,78,0,0,0,20.26,12.13c23.1,9.67,47.07,16.61,71.48,21.92,50.33,10.93,101,19.95,152.25,25.25,24.8,2.57,49.58,3,74.25-.86,29.78-4.69,59.49-9.83,89.2-15,9.85-1.7,19.6-4,29.5-6a26.21,26.21,0,0,0,.67,3c1.66,5,3.09,10,5.18,14.83,2,4.59,6,6.75,11.06,6.85,2.47.05,4.93.05,7.4,0,5.86-.12,11.72-.46,17.58-.41,8.33.08,16.66.45,25,.64,21.51.5,42.79-1.05,63.62-6.91,18.43-5.18,33.25-15.16,42.91-32.08,14-24.52,22.93-50.54,23.1-79.07.13-21.93,0-43.87,0-65.8v-8.37a1.07,1.07,0,0,1,.56.86c1.17,9.53,2.74,19,3.4,28.59,2,29.29,0,58.43-4,87.47-.46,3.31-.44,3.38,2.86,2.54l98.44-25.17L-9.18,321c.16,1,.29,1.64.36,2.3,1.48,13.34,3.09,26.67,4.3,40,.22,2.43-.85,5.13-1.87,7.46-1.15,2.62-3.06,4.9-4.38,7.46-2.33,4.52-2,8.59,1.84,11.81,5.73,4.83,9.55,11,13.41,17.19,6.7,10.75,16.58,17.6,28,22.35a24.18,24.18,0,0,0,8.91,1.72c5.7,0,8.46-3.73,7.27-9.33a18,18,0,0,0-1.32-4.37,109.57,109.57,0,0,0-5.71-10.5q-9.81-15.21-20-30.2a30,30,0,0,1-5.2-21.52c1.76-13.31,3.65-26.59,5.31-39.91.27-2.12,1.15-2.79,3-3.26,15.65-3.93,31.27-7.94,46.9-11.92L88.79,296c.34.93.65,1.62.85,2.34q6.57,22.88,13.13,45.76a57.1,57.1,0,0,1,2,23.44,73.82,73.82,0,0,0-.49,13.94,8,8,0,0,0,6.81,7.61,44.92,44.92,0,0,0,10.61.72c5.59-.3,11.14-1.25,16.73-1.67,12.55-.93,25.12-1.51,37.64-2.65a49.07,49.07,0,0,0,12.76-3.15c3.72-1.41,4.19-4.59,1.14-7.17a19.69,19.69,0,0,0-7.33-3.77c-6.54-1.8-13.21-3.16-19.82-4.7-7.36-1.7-14.77-3.22-22.07-5.15-6.87-1.81-11-6.41-12.27-13.49-.28-1.59-.64-3.18-.76-4.78q-1.82-23.38-3.56-46.78c-.23-3.11-.39-6.21-.58-9.3.84-.25,1.4-.45,2-.59q44.91-11.49,89.82-22.91c2.19-.55,3-1.43,3.13-3.72.17-4.65.67-9.3,1-14,1.76,5.58,3.41,11,5.2,16.38a11.19,11.19,0,0,0,1.81,2.58Z" transform="translate(878 248.11)"/><path d="M226.5,264.9a11.19,11.19,0,0,1-1.81-2.58c-1.79-5.38-3.44-10.8-5.2-16.38-.37,4.72-.87,9.37-1,14-.09,2.29-.94,3.17-3.13,3.72Q170.4,275,125.5,286.59c-.57.14-1.13.34-2,.59.19,3.09.35,6.19.58,9.3q1.76,23.38,3.56,46.78c.12,1.6.48,3.19.76,4.78,1.25,7.08,5.4,11.68,12.27,13.49,7.3,1.93,14.71,3.45,22.07,5.15,6.61,1.54,13.28,2.9,19.82,4.7a19.69,19.69,0,0,1,7.33,3.77c3.05,2.58,2.58,5.76-1.14,7.17A49.07,49.07,0,0,1,176,385.47c-12.52,1.14-25.09,1.72-37.64,2.65-5.59.42-11.14,1.37-16.73,1.67a44.92,44.92,0,0,1-10.61-.72,8,8,0,0,1-6.81-7.61,73.82,73.82,0,0,1,.49-13.94,57.1,57.1,0,0,0-2-23.44q-6.58-22.87-13.13-45.76c-.2-.72-.51-1.41-.85-2.34l-17.07,4.36c-15.63,4-31.25,8-46.9,11.92-1.87.47-2.75,1.14-3,3.26-1.66,13.32-3.55,26.6-5.31,39.91A30,30,0,0,0,21.69,377q10.17,15,20,30.2a109.57,109.57,0,0,1,5.71,10.5A18,18,0,0,1,48.68,422c1.19,5.6-1.57,9.37-7.27,9.33a24.18,24.18,0,0,1-8.91-1.72c-11.44-4.75-21.32-11.6-28-22.35C.62,401.07-3.2,394.92-8.93,390.09c-3.83-3.22-4.17-7.29-1.84-11.81,1.32-2.56,3.23-4.84,4.38-7.46,1-2.33,2.09-5,1.87-7.46-1.21-13.37-2.82-26.7-4.3-40-.07-.66-.2-1.32-.36-2.3l-16.11,4.1-98.44,25.17c-3.3.84-3.32.77-2.86-2.54,4-29,6.08-58.18,4-87.47-.66-9.57-2.23-19.06-3.4-28.59a1.07,1.07,0,0,0-.56-.86v8.37c0,21.93.13,43.87,0,65.8-.17,28.53-9.1,54.55-23.1,79.07-9.66,16.92-24.48,26.9-42.91,32.08-20.83,5.86-42.11,7.41-63.62,6.91-8.33-.19-16.66-.56-25-.64-5.86-.05-11.72.29-17.58.41-2.47.05-4.93.05-7.4,0-5-.1-9.06-2.26-11.06-6.85-2.09-4.79-3.52-9.87-5.18-14.83a26.21,26.21,0,0,1-.67-3c-9.9,2-19.65,4.28-29.5,6-29.71,5.13-59.42,10.27-89.2,15-24.67,3.89-49.45,3.43-74.25.86-51.27-5.3-101.92-14.32-152.25-25.25-24.41-5.31-48.38-12.25-71.48-21.92A78,78,0,0,1-760,360.63c-3.9-3.29-8.72-4.45-13.6-5.31-15.72-2.78-29.84-9.61-43.6-17.27-18.48-10.29-36-22-50.82-37.24a106.45,106.45,0,0,1-7.29-8.18c-3.5-4.47-3.17-8.26,1-12.15,4.85-4.56,10.79-7.31,16.9-9.71,2.28-.9,4.57-1.73,7.13-2.69-1-2.26-1.93-4.13-2.57-6.12-5.79-17.93-11.54-35.89-13.65-54.75-1.53-13.68,2.17-25.45,13.86-33.51,16.22-11.19,32.41-22.47,49.16-32.84,43.94-27.18,89.34-51.75,135.7-74.59a131.29,131.29,0,0,1,52.9-13.44c30.5-1.35,61-2.53,91.54-1.44,5.43.2,10.86.54,16.28.94,4.08.3,7.95.08,11.41-2.48,22.94-17,48.55-29.29,73.72-42.33,35.22-18.25,71.28-34.73,108-49.78C-297.25-49.11-280.11-54.63-262-56c13.47-1,27-1.54,40.52-1.35,38,.54,76,1.45,114,2.43,18.78.49,37.55,1.45,56.32,2.22,3.55.14,7.09.39,10.8.6a44.79,44.79,0,0,1-.16-17.71C-38.63-79-33.38-86-25.69-91.2c5.43-3.64,11.25-6.67,16.75-10.21A113.13,113.13,0,0,0,3-110c7.14-6,11.28-13.92,13-23.06a4.38,4.38,0,0,0-.55-2.78c-1.18-2-2.58-3.79-3.89-5.68a23.45,23.45,0,0,0-9.31-8.35c-7.58-3.63-11.56-10.44-14.23-18.23l1.68-1.11c-4-7.41-4.42-15.19-3.16-23.17.32-2.06.4-3.59-1.55-5.27-4.15-3.57-4.54-9-1.37-13.88A29.56,29.56,0,0,1,.32-224a231.35,231.35,0,0,1,23.58-5.19c5.08-.94,6.12-1.7,6.76-6.84a11,11,0,0,1,6.13-8.56c5.27-2.83,11-3.2,17-2.55-.58.35-1.14.71-1.73,1-5.21,2.87-6,6.71-1.42,10.41a17.12,17.12,0,0,1,6.59,14.2c0,3.58,2.07,6.2,4.51,8.55,2.21,2.12,4.61,4.06,6.64,6.33a10.45,10.45,0,0,1-1,14.86,19.1,19.1,0,0,1-3.65,2c.37,4.2,1.25,8.6,1,12.94a196.6,196.6,0,0,1-2.26,20.22c-.81,5.24-.78,10.29,1,15.32a33.9,33.9,0,0,1,1.75,6.36c1.19,8.36-3,14.56-11.28,16.84-5.27,1.46-10.58,1.32-16.47.09-.35,2.42-.84,4.69-1,7-.1,2,1.8,3.18,3.45,1.58a5,5,0,0,1,2.16-1.29c1.17-.29,2.79-.77,3.51-.23a3.92,3.92,0,0,1,.87,3.42c-.63,2.43.47,3.32,2.47,4.07q10.86,4.05,21.65,8.26c10.84,4.22,18.51,11.43,21.74,22.93C97-56.15,101.66-40.11,106.15-24a5.73,5.73,0,0,0,3.39,4.24Q143.8-4,178,11.84a94.86,94.86,0,0,0,37.18,8.51,344.05,344.05,0,0,1,57.62,7.07,97.2,97.2,0,0,1,30,11.08c11.91,7,17.8,17.26,18.37,31.14a693.47,693.47,0,0,1-1.53,77c-1.22,17.21-2.16,34.48-4.37,51.57a119,119,0,0,1-7.52,28c-4.61,11.73-10.55,23-16.17,34.28a54.19,54.19,0,0,1-6.15,9c-4.73,6.08-10.91,9.78-18.75,9.8-9.25,0-18.51-.19-27.75-.55-4.21-.17-6.33-3.47-8.29-6.71,2.46,2.42,5.14,4.44,8.78,4.69,5.84.4,11.68,1,17.53,1.22s11.38-.27,16.75-2.55c3.81-1.62,7.14-4.41,8.43-7-7.41,4.36-14.27,3.24-17.78.72,8,3.12,14.61.26,19.91-5.61a54.87,54.87,0,0,0,8.16-11.92c6.7-13.2,9.66-27.49,11.27-42.09,1.73-15.59,1.53-31.23.91-46.87-.31-7.88-.31-15.81-2.94-23.43-2.48-7.2-5.34-14.18-10.69-19.79-6.22-6.52-12.9-7-19.88-1.37a55.38,55.38,0,0,0-7.82,7.64c-9.64,11.59-15.34,25.18-19.27,39.55-5.79,21.23-5.71,42.68-1.71,64.18,2.74,14.8,7.72,28.55,20,38.48a26.88,26.88,0,0,1-3.84-2.33c-7.93-6.8-12.87-15.54-15.85-25.38A137,137,0,0,1,241,164.21c4.49-17,12.27-32.38,24.95-44.89,7.65-7.54,15.15-8.16,24.13-2.25,6.46,4.25,10.28,10.48,13,17.53,3,8,3.6,16.36,3.88,24.8.65,19.56.78,39.1-2.24,58.51-.83,5.36-1.88,10.68-2.84,16a98.33,98.33,0,0,0,4.1-9.59c3.14-8.53,6.29-17.13,6.5-26.33.15-6.7-.21-13.43-.69-20.12-1.19-16.64-3.42-33.12-8.12-49.18-2.35-8-5.36-15.77-10.75-22.34-6.16-7.48-14-9.24-22.8-5.17a40.08,40.08,0,0,0-14.75,12.28c-6.69,8.65-10.9,18.57-14.43,28.79A417.19,417.19,0,0,0,222.6,220c-.91,6.46-2.12,13-1.95,19.48A68,68,0,0,0,226.5,264.9Zm-531.94-309,.14.54c.4,0,.79.08,1.19.08,18.11.34,36.22.55,54.32,1,25,.68,50,1.28,74.94,2.47,22.5,1.07,45,2.86,67.43,4.39a106.76,106.76,0,0,1,12.9,1.31c6.25,1.2,8.74,4.68,7.77,11A66.4,66.4,0,0,1-90-10.28a374.16,374.16,0,0,1-26.67,56.33c-5.35,9.26-10.78,18.5-16.7,27.39-6.24,9.38-15,13.92-26.7,13.12-21.88-1.5-43.79-2.43-65.68-3.78-18.66-1.16-37.32-2.5-56-3.87q-23.89-1.77-47.78-3.79-27.31-2.31-54.6-4.88-21.71-2-43.37-4.38c-15.29-1.67-30.55-3.51-45.82-5.33-8.87-1.06-17.69-2.36-25.91-6.18a4.78,4.78,0,0,0-1.94-.2c-3.3,0-6.61.18-9.9,0-3.9-.23-7.77-1.06-11.66-1.17-33.25-.89-66.47-.61-99.63,2.44-15.38,1.41-30.3,4.54-44.06,11.65-24.14,12.47-48.26,25-72.08,38-36.22,19.84-72,40.52-105.61,64.57-4.54,3.25-8.59,7.18-12.83,10.82a8,8,0,0,0-2.57,8.09c1,5.48,2.09,11,3.34,16.4,1.38,6,4.76,11.12,8.45,15.85,9.83,12.6,23.54,19.53,38.19,24.7,5.57,2,11.5,3,17.31,4.16,10.9,2.2,21.76,4.72,32.76,6.2,25.1,3.37,50.31,5.72,75.64,6.89a976.44,976.44,0,0,0,108.34-.91c24.93-1.62,49.84-3.72,74.67-6.46,26.34-2.9,52.67-6.14,78.81-10.44,32.67-5.38,65.18-11.74,97.65-18.19,13.7-2.72,27.54-5.1,40.76-9.9a6.68,6.68,0,0,0,3.7-3.15c3.84-6.31,7.51-12.76,11.87-18.7,17.21-23.47,39.61-38.55,69.26-40.74,21.18-1.57,39.38,5,53.23,21.74,7.36,8.89,12.34,19.1,16,29.95,5.79,17.27,8.45,35.15,9.68,53.24,1.73,25.36.29,50.64-2.35,75.87-.48,4.53-1.11,9.05-1.69,13.73L-9.2,319.46c-.33-5.15-.64-10-1-15-.71.11-1.21.16-1.7.28l-27,6.61q-36.11,8.85-72.21,17.74c-1.64.4-2.8.49-3.12-1.9l103.81-25.5V289.06c-.69.16-1.19.26-1.67.38L-95.35,310.9c-4.46,1.14-4.57,1.06-4.57-3.46q0-64.67,0-129.33c0-2.7-.29-5.41-.45-8.28L-134.29,178c-.08-.3-.16-.59-.23-.89,11.16-3.35,22.69-5.41,34-8.57-2.19-21.87-9.14-42.22-17-62.38,2.37-.24,2.42-.25,3.09,1.45,5.82,14.79,11.07,29.76,14.14,45.4,1,4.89,1.72,9.82,2.61,15l86.41-21.2c-3.28-20.46-6-40.65-1.72-61.17-.87.13-1.2.16-1.52.22-16.84,2.83-33.64,5.87-50.51,8.44-12.17,1.85-24.43,3.13-36.66,4.56a89.52,89.52,0,0,1-12.43.92c-5.72-.12-7.72-2.84-6.2-8.32a140.22,140.22,0,0,1,4.92-14.71C-105.13,51-91.82,26.85-78.17,2.85a151.37,151.37,0,0,1,8.84-13.69C-62.46-20.35-53.75-27.39-42-30c2.7-.61,5.44-1.09,8.47-1.69-.42-1.45-.72-2.75-1.16-4-1.49-4.24-3.14-8.43-4.48-12.72A2.62,2.62,0,0,0-42-50.62c-22.16-1.14-44.31-2.51-66.47-3.46-48.44-2.1-96.89-2.65-145.35-1.08-11.58.38-23.09,1.31-34.18,5C-293.85-48.2-299.64-46.14-305.44-44.13Zm-555.81,231.3c-.39.84-.56,1.12-.66,1.42-.29.89-.59,1.77-.81,2.68-1.95,8-1.24,16.07.28,24a297.31,297.31,0,0,0,14.07,50.47c.71,1.85.5,2.74-1.46,3.35-2.42.77-4.79,1.74-7.12,2.74-5.34,2.29-10.46,4.95-14.53,9.23-3.76,4-4,7.31-.57,11.54a109.06,109.06,0,0,0,8.1,8.82c17.23,17,37.45,29.8,58.91,40.7,12.08,6.14,24.62,11,38.18,13a17.34,17.34,0,0,1,8.38,3.88,74.16,74.16,0,0,0,20.31,12.49,388.85,388.85,0,0,0,55.52,17.63,1170.06,1170.06,0,0,0,177.73,29.79A234.82,234.82,0,0,0-453,418c26.85-3.62,53.69-7.37,80.45-11.64,15.07-2.41,30-6,45-9,3.58-.72,5.39-2.77,5.74-6.42.55-5.58,1.37-11.13,1.93-16.71,2.57-25.62,5.93-51.13,11.3-76.34,5.67-26.55,13.18-52.52,25-77.09a7.1,7.1,0,0,0,.36-1.21c-4.38,1-8.57,2.06-12.8,3-23,4.88-46,10-69,14.5-38,7.42-76.27,13.59-114.77,17.93-25.58,2.88-51.21,5.64-76.88,7.35q-38,2.52-76.19,2.7c-25.92.07-51.85-1-77.74-2.16a427.55,427.55,0,0,1-60.21-7.08c-16-3-32-6-47.16-12.44A85.93,85.93,0,0,1-840.49,230c-10.36-8.77-17.7-19.42-19.43-33.28C-860.29,193.77-860.74,190.83-861.25,187.17ZM-497.52,53.45c4.68,1.26,8.87,2.86,13.19,3.45,14.13,1.93,28.31,3.58,42.49,5.18q22.41,2.54,44.86,4.76,26.64,2.61,53.31,4.91,23.25,2,46.51,3.79,26.57,2,53.15,3.88c15.35,1.06,30.7,2.06,46.06,2.88,14.09.74,28.19,1.19,42.28,1.79a16.05,16.05,0,0,0,13.51-5.94,170.87,170.87,0,0,0,12.43-15.8c14.51-22,26.11-45.5,35.93-69.89A107.94,107.94,0,0,0-89-23.86c1.21-5.36-.81-7.79-6.36-8.36-7.18-.75-14.36-1.61-21.57-2-30.3-1.63-60.6-3.44-90.93-4.55-33.89-1.24-67.82-1.81-101.73-2.61a10,10,0,0,0-3.92.72C-358-22.76-401-1.79-443.37,20.6-461.82,30.36-480.47,39.84-497.52,53.45Zm797.1,7.62.23.55a19.13,19.13,0,0,1-2.57,1.44c-9.53,3.78-18.84,8.38-28.67,11.12-51.18,14.26-102.49,28-153.76,42-3.89,1.06-7.81,2-11.62,3a7.23,7.23,0,0,0,0,1.11c3,14.65,6,29.28,8.82,44,3,15.9,7.49,31.65,5.58,48.16a7.15,7.15,0,0,0,.81-1.82c7.86-31.78,19.43-62.64,23.7-95.32.11-.84,1.12-1.57,1.72-2.35l.74.43a29.06,29.06,0,0,1-.27,3.25c-1.55,8.26-2.67,16.63-4.81,24.74-6.91,26.18-14.21,52.25-21.28,78.38a16.09,16.09,0,0,0-.41,5.49c.46,5.33,1.14,10.64,1.71,16,.45,4.2.88,8.39,1.33,12.69l29-7c.06.25.13.51.19.77l-29.16,7.54c.4,4.65.79,9.17,1.19,13.79,1-.18,1.73-.28,2.46-.47l33.63-8.28,44.27-10.87c1.5-.37,3.13-.91,3.19,1.75-.74.23-1.44.5-2.17.68q-18.92,4.65-37.84,9.27-20.53,5-41,10.16c-.8.2-2.09,1-2.08,1.53.13,4.21.52,8.41.84,12.74.7-.15,1-.21,1.33-.29,17.14-4.25,34.29-8.43,51.4-12.77,12.5-3.16,24.94-6.54,37.42-9.77a3,3,0,0,0,2.55-3.19,86,86,0,0,1,.5-8.65C218.32,237,220,223,222,209.17c2.58-17.47,5.7-34.86,10.69-51.85,4.47-15.24,10.43-29.81,19.82-42.77,4.81-6.63,10.43-12.35,18.3-15.33,9.47-3.59,17.91-1.57,24.32,6.21a52.23,52.23,0,0,1,6.36,10.08,101.43,101.43,0,0,1,8.69,26.82c1.91,10.72,3.29,21.54,4.9,32.32a26.81,26.81,0,0,1,.22-3.62c1-15.36,2.1-30.7,2.83-46.07.9-19,1.56-38.06-.2-57.08-1.13-12.21-6.47-21.59-17.41-27.61a112.28,112.28,0,0,0-23.7-9.83c-21.68-6.11-43.93-8-66.3-8.64-10-.27-19.62-1.75-28.71-5.94q-35.75-16.44-71.41-33l-2.65-1.23c.55,4.29,1.16,8.3,1.53,12.34a4.07,4.07,0,0,0,2.32,3.53q12.18,7.15,24.21,14.61a35.39,35.39,0,0,1,6,4.72c3.85,3.74,3.84,6.77.05,10.49a47.33,47.33,0,0,1-5.34,4.32c-13,9.33-27.31,16.16-41.91,22.45-2.33,1-3.63,1.91-2.85,4.76.63,2.26.49,4.73.93,7.06q3.75,20.16,7.64,40.29c.74,3.88,1.59,7.73,2.41,11.67.91-.19,1.49-.28,2.06-.44Q179.4,97.26,254,77.08c15-4,30-8.15,43.82-15.53A9,9,0,0,1,299.58,61.07ZM-1.8,48.39a18,18,0,0,0-.71,1.8C-5,59.89-7.82,69.51-9.85,79.29c-3,14.38-4.13,28.92-2.21,43.6Q-5.79,170.77.37,218.67c1.4,10.87,1.26,21.65-1.88,32.32A137.58,137.58,0,0,0-7,295.85c.72,16.63,2.11,33.24,3.17,49.86a3.65,3.65,0,0,0,2.29,3.44c2.12,1.05,3.94,2.78,6.11,3.65a26.62,26.62,0,0,0,7,1.57c2.1.24,3-.91,3.17-3.18.78-9.39,1.35-18.84,2.81-28.14,3.69-23.4,7.75-46.75,11.79-70.09,3.72-21.44,7.31-42.9,8.32-64.67,1.38-30.06,2.42-60.14,3.63-90.21a20.41,20.41,0,0,1,.57-4.27c.55-2.2,1.81-4.08,4.24-4.13s2.55,2.36,3,4.07q11.55,41.85,23,83.72c3.07,11.22,5.9,22.5,9,33.71,2.7,9.81,1.95,19.72,1.32,29.65-.51,8.17-.55,16.29,1.61,24.3q10.15,37.61,20.23,75.24c.72,2.67.76,6.2,2.52,7.72s5.43,1.45,8.26,2c3.75.72,6.86-.68,9.53-3.15a2.71,2.71,0,0,0,.69-2c-1.25-17.46-2.48-34.92-3.86-52.37-1.21-15.25-2.48-30.5-3.92-45.73-1.2-12.69-2.72-25.34-1.92-38.15a51.88,51.88,0,0,0-.58-12.2q-5.62-31.59-11.67-63.1C98.5,108.16,91.9,83.23,89.2,57.58c-.42-4-1.27-6.76-5.42-8.09-1.66-.54-3-2.17-4.41-3.38a4.51,4.51,0,0,1-.75-1.39l.42-.49,9.38,6.07c-.41-5-.75-9-1.08-13.11C58.25,47.39,30,42.33,1.9,33.78.72,38.51-.39,43-1.54,47.61c.87.26,1.59.49,2.31.69,4.76,1.34,9.06-.14,13.24-2.23,1.12-.56,2.17-1.1,2.83.64C11,50.43,4.85,51.25-1.8,48.39ZM-97.43,309.88a6.87,6.87,0,0,0,1.09,0Q-54.07,299-11.79,288.19c1.55-.39,1.77-1.19,1.82-2.5a124.09,124.09,0,0,1,5.3-30.27c3.17-10.78,4.52-21.66,2.89-33-2.41-16.63-4.27-33.35-6.38-50-1-8.07-2.1-16.14-3.17-24.45l-86.1,21.15ZM-129,267.63h-.1c0-9.18.15-18.36-.05-27.54-.16-7.56-.36-15.15-1.22-22.65-2-17.13-9.82-31.65-21.28-44.23a50.05,50.05,0,0,0-27.17-15.69c-27.56-5.72-51.65,1.21-72.13,20.49-14.22,13.39-24.17,29.77-32.1,47.39-16.73,37.14-25.21,76.46-30.16,116.67-1.86,15.09-3.65,30.19-5.54,45.28-.4,3.18-1.79,6.37-1.54,9.46a40.48,40.48,0,0,0,5.65,17.82c2.17,3.61,5.18,6,9.6,6.28,2.29.13,4.57.49,6.86.5,19.8.12,39.61.33,59.41.2a185.67,185.67,0,0,0,43.33-5.91c20.05-4.94,35.07-16.31,44.66-34.61,3.7-7.06,7.23-14.24,10.36-21.56,6.54-15.33,11.2-31.2,11.38-48C-128.88,296.88-129,282.25-129,267.63Zm18.48-169.12.06.39c19.11-2.48,38.26-4.77,57.34-7.51,12.51-1.8,24.94-4.22,37.4-6.4,1.35-.23,2.62-.23,3.08-2.26,2.86-12.48,5.8-25,9-37.36C-1.69,37.62.57,30-.39,21.82a3.4,3.4,0,0,0-1.74-3C-10.32,13.9-16,6.72-20.14-1.74c-4.22-8.71-8.14-17.56-12-26.43-.89-2-2-2.27-3.91-2-13.56,1.81-24.09,8.5-31.45,19.92A535,535,0,0,0-116.09,84a35.31,35.31,0,0,0-2,8.13c-.57,4.16,1.37,6.23,5.54,6.41C-111.88,98.54-111.2,98.51-110.52,98.51ZM25.6-93c-5.13,1.51-9.59,3.23-14.2,4.08s-5.53-.8-4.63-5.33c1.15-5.8,1.88-11.69,2.79-17.55C1.73-102.72-9-98.35-19-92.74a65.07,65.07,0,0,0-6,3.84C-37.07-80.24-40.81-68-38.37-54.09c1.48,8.39,4.57,16.62,7.84,24.55,4.53,11,9.7,21.69,15,32.31a29.29,29.29,0,0,0,10,11.71C-3.33,15.92-1,17.25,1,18.89c7.7,6.15,16.24,7.46,25.42,4.35,11.25-3.81,22.41-7.9,33.63-11.78,1.66-.58,2-1.5,1.77-3.06a32.36,32.36,0,0,0-5-13.5C54.11-9.36,55.21-8.91,50.46-8,40-5.94,29.51-3.66,19.07-1.39,17-.94,15.86-1.5,15-3.34,9-16.44,2.67-29.43-3.12-42.64c-2.6-5.93-4.23-12.28-6.31-18.44l.93-.37a19.11,19.11,0,0,1,1.33,2.73c.71,2.26,1.24,4.59,1.93,6.86C-.37-36,7.21-21.23,14.4-6.32c1.25,2.6,2.56,3.17,5.22,2.43,9-2.51,18-4.84,27.4-5.63,4.07-.35,4-.57,3.64-4.74-.1-1.1-.2-2.2-.35-3.29-1.68-12-5.86-23.18-10.17-34.35-4.39-11.41-9-22.75-11.28-34.83C28.35-89.44,28.06-92.11,25.6-93ZM53.16,24.75c.71.08,1.13.13,1.55.16,14.63,1.17,28.73-1.77,42.72-5.55,5.71-1.54,8.66-5.2,9.34-11a79.82,79.82,0,0,0-2.23-30.78C99.6-40.34,94.39-58.18,89.16-76A24.49,24.49,0,0,0,75-92.15c-9.48-4.08-19.19-7.62-29.3-11.59.24,2.33.37,4.25.67,6.14s1,4,1.15,6c.2,2.59-1.44,4-4,3.59a15.67,15.67,0,0,1-4.09-1.33c-2.2-1-4.32-2.27-6.45-3.4-.94.75-1.79,1.42-2.64,2.11,1.33,9.19,4.13,17.91,7.29,26.52C44-46.71,52-29.77,53.14-10.69c6.15-.94,11.1-3.18,14-9,2.29-4.54,5.29-8.33,11.46-5.88a144.36,144.36,0,0,0-5.54-45.71c2.33-.59,2.74.71,3.17,2.18a136.27,136.27,0,0,1,5,40.56,13.88,13.88,0,0,0,2.62,8.86c5.59,7.86,4.52,15.54-2.67,22a30.28,30.28,0,0,1-6.56,4.8c-6,3-12.08,5.73-18.21,8.39-3.36,1.46-4,2.1-3.8,5.78A33.89,33.89,0,0,0,53.16,24.75Zm-11,109.86a734.58,734.58,0,0,1-15,143.53l53.48-13.76a8.3,8.3,0,0,0,0-1.43c-1.93-8.5-1.38-17.06-.59-25.63.83-8.94.66-17.82-1.71-26.56q-10.56-39-21.08-77.91c-.17-.63-.45-1.22-.69-1.87ZM7.67-160.74l-1,.6a14.36,14.36,0,0,1-3.15-2.3,9.71,9.71,0,0,0-8.95-3.82c-2.88.2-3.38,1.22-2,3.8,2.41,4.54,5.65,8.31,10.3,10.62s7.77,5.74,10.55,10A150.11,150.11,0,0,0,24.8-126.57c6.17,7.21,14.47,9.34,23.65,8.53s15.09-7.18,14.24-15.55A32.7,32.7,0,0,0,61-141a30.13,30.13,0,0,1-1.19-15.32l.78-4.55c-2.07,2.6-4.82,2.93-7.71,2.79a5.54,5.54,0,0,1-5.3-4.39c-.88-3.19-.31-5.37,2.09-6.89,3.91-2.46,7.93-3.79,12.23-.17a55.53,55.53,0,0,0-1.27-20.5,4.72,4.72,0,0,0-.94-1.46,28.74,28.74,0,0,1-3.14-4.25,9.33,9.33,0,0,0-5.76-5A29.61,29.61,0,0,0,34-201.37c-4.68,1.16-9.2,3-13.83,4.33-5.09,1.53-10.22,2.91-15.1,4.29C5.92-182.16,6.8-171.45,7.67-160.74Zm42.24-85.81c-2.35.26-4.13.38-5.89.66-5.85.95-10.21,5.15-10.8,10.33-.52,4.61-1.79,6.05-6.36,6.84-3.51.6-7.07.93-10.58,1.57C9.51-225.91,2.78-224.43-3.3-221c-4.77,2.7-8.7,6.26-10.66,11.55-1.83,5-.54,9.89,3.69,12.32a15.37,15.37,0,0,0,7,1.87A65.1,65.1,0,0,0,22.32-200c7.93-3.15,16.16-5.27,24.87-3.79,5.3.9,10,2.8,12.82,7.76a27.48,27.48,0,0,0,2.09,2.53c1.26,1.65,2.43,1.15,3.58-.08,3.33-3.55,3.84-8.5.89-12.37a26.67,26.67,0,0,0-6.24-6.3c-4.88-3.2-7.11-7.19-6.12-13.07.57-3.38-1.11-6.09-3.73-8.18-.94-.74-1.92-1.41-2.86-2.13-4.6-3.55-4.25-7.26.92-10C48.83-245.84,49.1-246,49.91-246.55Zm-51,609.39c-1.67,3.63-3.16,7-4.77,10.3-.74,1.52-1.82,2.88-2.56,4.4-2.22,4.6-1.17,8.38,2.61,11.84a59.07,59.07,0,0,1,6.9,7.74c1.75,2.27,3.07,4.88,4.62,7.31a56.73,56.73,0,0,0,29.18,23.16A25.05,25.05,0,0,0,41.53,429c3.07.2,4.77-1.46,4.37-4.52a37.79,37.79,0,0,0-2.3-8.8c-3.24-8.31-8.65-15.34-13.78-22.53-5.94-8.34-12.33-16.43-15.4-26.71C8.42,367.86,3.24,365.73-1.12,362.84Zm108.79-4.32c-.16,2-.27,3.86-.46,5.7s-.55,3.87-.68,5.81a73.31,73.31,0,0,0-.32,8.63c.27,5.23,2.85,8.45,7.94,9.52a31.87,31.87,0,0,0,9.08.61c5.91-.51,11.76-1.73,17.67-2.19,12.19-1,24.39-1.8,36.6-2.32,5.28-.22,8.46-2.74,10.67-7.09a12.91,12.91,0,0,0-7.77-4.53c-8.2-1.75-16.41-3.51-24.56-5.53-9.5-2.37-19.77-3-26.91-11C122.79,360.5,120.47,360.77,107.67,358.52ZM91.33,55c9.76-4.81,19.11-9,28.09-14a132.1,132.1,0,0,0,17.79-11.74c6.21-4.86,6-7.41,0-12.78-6.91-6.26-14.92-10.88-23.06-15.3C112.8.44,111.4-.29,110-1c-.41,4.17-.8,8-1.17,11.92-.52,5.4-3.47,8.65-8.69,10-3.69.92-7.36,1.89-11.23,2.89C89.69,33.93,90.48,44.05,91.33,55ZM22.44,311.39l66.05-16.88c-1.34-4.72-2.59-9.09-3.85-13.51-19.52,4.8-38.8,9.52-58,14.3-.74.19-1.79.94-1.9,1.58C23.85,301.53,23.21,306.22,22.44,311.39Zm58.64-45.67a3.58,3.58,0,0,0-.73,0Q54.58,272.29,28.82,279c-.57.14-1.39.67-1.47,1.12-.74,4.14-1.34,8.31-2,12.83L84,278.49ZM49.75,26c-2.48-.65-4.66-.89-6.53-1.77a14.39,14.39,0,0,0-13.12,0,28.2,28.2,0,0,1-4.88,1.39C19,27.35,13,27.22,7.13,24.21c-1.56-.8-3.1-1.64-5-2.65,0,3.24-.07,6.1.07,9a2.33,2.33,0,0,0,1.37,1.63A194.62,194.62,0,0,0,46.32,41c1.35.11,2.09-.27,2.21-1.72C48.9,34.93,49.33,30.55,49.75,26Zm.88,14.77a20,20,0,0,0,2.84.12c6.66-.68,13.35-1.18,20-2.22a85.91,85.91,0,0,0,12-3.3c.71-.23,1.68-1.25,1.66-1.88-.07-3-.43-6.05-.72-9.35-11.59,2.29-23,3.46-34.64,2.1C51.32,31.33,51,36,50.63,40.8ZM70.77,7.12c3.11-2,5.85-3.54,8.26-5.46C86.24-4.11,87.3-13.55,81.75-21c-2.67-3.59-6.72-3.9-9.8-.68a27.42,27.42,0,0,0-2.27,3.05l-5.5,7.79A32,32,0,0,1,70.77,7.12ZM4.12-164.15l.75-.2c-.85-9.54-1.7-19.08-2.54-28.41l-12.88-1.33c-1.58,7.58-2,15.42,1.5,23,.34.75,1.13,1.81,1.75,1.84C-2.8-169,.76-166.86,4.12-164.15Zm41.34,256-1.32.38c-.54,13.56-1.08,27.11-1.64,41l13.84-3.53c-.2-.86-.31-1.35-.44-1.83-1.89-7.38-3.81-14.76-5.68-22.15-.92-3.6-1.65-7.26-2.69-10.83C47.2,93.83,46.17,92.9,45.46,91.89ZM35-118.68c-7.11-2.23-12.28-7.22-16.62-13.13l-4.59,13.2a78.73,78.73,0,0,0,7.51,5.11c4.5,2.38,7.07,5.64,6.43,10.93,0,.07.2.18.47.39.46-1.31.94-2.55,1.35-3.81.67-2.07.94-4.41,3.76-4.85.3,0,.66-.71.73-1.13C34.44-114.13,34.71-116.3,35-118.68Zm-9.79,18c-1.05-1.36-2.26-3-3.54-4.57-1.65-2-3.23-4.16-5.06-6-2.35-2.41-4-2-5.32,1.09a22.08,22.08,0,0,0-1.13,4.65c-.71,4.16-1.26,8.34-2,12.48-.55,3-.06,3.78,2.83,3,4.06-1.15,8-2.7,12-4.16a2.33,2.33,0,0,0,1.14-1.4C24.54-97.15,24.81-98.69,25.25-100.68Zm9,6.09-.55.57c2.56,1.26,5.06,2.7,7.72,3.72a5.07,5.07,0,0,0,3.77-.25c.51-.27.45-2.12.24-3.17-.84-4.16-1.74-8.27-.72-12.55.21-.89.11-2.63-.23-2.73-1-.3-2.55-.42-3.25.16-3.21,2.64-6.21,5.55-9.29,8.37l.94.33Zm-20.07,450c-6.84,2.69-11.94-.86-17.45-4.74.45,3.4.8,6.14,1.2,8.88a1.73,1.73,0,0,0,.65,1c3.83,2.68,7.93,4.5,12.77,3.95,2.07-.23,3.2-1,2.88-3.4A44.47,44.47,0,0,1,14.23,355.38Zm92.46-5c.22,1.87.33,3.39.59,4.89.09.5.44,1.26.82,1.37,5,1.5,10,3,15.14.76,4.49-2,4.85-2.85,3.08-7.39,0-.13-.25-.21-.54-.42C119.82,354.93,113.31,351.16,106.69,350.37ZM64.43,9.45C68.75,8.2,68.93,8,68.37,3.86a26.14,26.14,0,0,0-5.43-13,2.67,2.67,0,0,0-2-1,33.5,33.5,0,0,0-4.63,1.3C60.47-3.29,63.51,2.49,64.43,9.45ZM29-99.89c-1.59-.06-3.29,1.67-3.4,3.47a4.21,4.21,0,0,0,3.57,3.94c1.5,0,3.37-2.25,3.42-4.13C32.66-98.2,30.89-99.82,29-99.89ZM10.85-114.35c2.79-1.08,4.74.14,6.43,2,2,2.2,3.88,4.47,5.79,6.72.7.83,1.34,1.71,2.44,3.12-.2-1.82-.25-2.83-.43-3.82s-.19-2.25-.8-2.7c-3.78-2.78-7.71-5.37-11.67-8.08Zm41.07-45.06c5.67.65,9.73-3.73,8.47-8.66-.49-1.91-1.62-2.82-3.68-2.44C58.56-163.88,57.74-161.89,51.92-159.41Zm1.5-10.5c-1.5.91-3.78,1.06-3.19,3.55a24.27,24.27,0,0,0,1.66,4c.91-.49,2.19-.74,2.68-1.51C56-166.12,54.79-168,53.42-169.91Zm-19.19,61c-3.61,1.43-2.88,5-4.55,8.15l6.11-6.36ZM47.11,18.78C46.78,24.2,47,24.55,50.49,24c-.12-2-.24-4-.38-6.19Zm-2.83.89-5.79,1.87,5.79,1.73Z" transform="translate(878 248.11)"/><path class="cls-1" d="M226.5,264.9a68,68,0,0,1-5.85-25.42c-.17-6.47,1-13,1.95-19.48a417.19,417.19,0,0,1,18.31-77.72c3.53-10.22,7.74-20.14,14.43-28.79a40.08,40.08,0,0,1,14.75-12.28c8.78-4.07,16.64-2.31,22.8,5.17,5.39,6.57,8.4,14.32,10.75,22.34,4.7,16.06,6.93,32.54,8.12,49.18.48,6.69.84,13.42.69,20.12-.21,9.2-3.36,17.8-6.5,26.33a98.33,98.33,0,0,1-4.1,9.59c1-5.35,2-10.67,2.84-16,3-19.41,2.89-38.95,2.24-58.51-.28-8.44-.85-16.81-3.88-24.8-2.68-7-6.5-13.28-13-17.53-9-5.91-16.48-5.29-24.13,2.25-12.68,12.51-20.46,27.86-24.95,44.89a137,137,0,0,0,1.47,75.95c3,9.84,7.92,18.58,15.85,25.38a26.88,26.88,0,0,0,3.84,2.33l2.11,1.23c3.51,2.52,10.37,3.64,17.78-.72-1.29,2.63-4.62,5.42-8.43,7-5.37,2.28-11,2.79-16.75,2.55s-11.69-.82-17.53-1.22c-3.64-.25-6.32-2.27-8.78-4.69C229.21,269.67,227.85,267.29,226.5,264.9Z" transform="translate(878 248.11)"/><path class="cls-1" d="M-305.44-44.13c5.8-2,11.59-4.07,17.41-6,11.09-3.71,22.6-4.64,34.18-5,48.46-1.57,96.91-1,145.35,1.08,22.16.95,44.31,2.32,66.47,3.46a2.62,2.62,0,0,1,2.85,2.16c1.34,4.29,3,8.48,4.48,12.72.44,1.26.74,2.56,1.16,4-3,.6-5.77,1.08-8.47,1.69-11.74,2.65-20.45,9.69-27.32,19.2A151.37,151.37,0,0,0-78.17,2.85c-13.65,24-27,48.17-37.27,73.85a140.22,140.22,0,0,0-4.92,14.71c-1.52,5.48.48,8.2,6.2,8.32a89.52,89.52,0,0,0,12.43-.92c12.23-1.43,24.49-2.71,36.66-4.56,16.87-2.57,33.67-5.61,50.51-8.44.32-.06.65-.09,1.52-.22-4.26,20.52-1.56,40.71,1.72,61.17L-97.73,168c-.89-5.16-1.64-10.09-2.61-15-3.07-15.64-8.32-30.61-14.14-45.4-.67-1.7-.72-1.69-3.09-1.45,7.86,20.16,14.81,40.51,17,62.38-11.26,3.16-22.79,5.22-34,8.57.07.3.15.59.23.89l33.87-8.14c.16,2.87.44,5.58.45,8.28q0,64.66,0,129.33c0,4.52.11,4.6,4.57,3.46L-12,289.44c.48-.12,1-.22,1.67-.38v12.59l-103.81,25.5c.32,2.39,1.48,2.3,3.12,1.9q36.09-8.93,72.21-17.74l27-6.61c.49-.12,1-.17,1.7-.28.31,5,.62,9.89,1,15l-114.74,29.35c.58-4.68,1.21-9.2,1.69-13.73,2.64-25.23,4.08-50.51,2.35-75.87-1.23-18.09-3.89-36-9.68-53.24-3.63-10.85-8.61-21.06-16-29.95-13.85-16.73-32-23.31-53.23-21.74-29.65,2.19-52.05,17.27-69.26,40.74-4.36,5.94-8,12.39-11.87,18.7a6.68,6.68,0,0,1-3.7,3.15c-13.22,4.8-27.06,7.18-40.76,9.9-32.47,6.45-65,12.81-97.65,18.19-26.14,4.3-52.47,7.54-78.81,10.44-24.83,2.74-49.74,4.84-74.67,6.46a976.44,976.44,0,0,1-108.34.91c-25.33-1.17-50.54-3.52-75.64-6.89-11-1.48-21.86-4-32.76-6.2-5.81-1.18-11.74-2.2-17.31-4.16-14.65-5.17-28.36-12.1-38.19-24.7-3.69-4.73-7.07-9.84-8.45-15.85-1.25-5.44-2.29-10.92-3.34-16.4a8,8,0,0,1,2.57-8.09c4.24-3.64,8.29-7.57,12.83-10.82,33.65-24,69.39-44.73,105.61-64.57,23.82-13,47.94-25.57,72.08-38,13.76-7.11,28.68-10.24,44.06-11.65,33.16-3,66.38-3.33,99.63-2.44,3.89.11,7.76.94,11.66,1.17,3.29.2,6.6,0,9.9,0a4.78,4.78,0,0,1,1.94.2c8.22,3.82,17,5.12,25.91,6.18,15.27,1.82,30.53,3.66,45.82,5.33q21.66,2.36,43.37,4.38,27.28,2.57,54.6,4.88,23.88,2,47.78,3.79c18.65,1.37,37.31,2.71,56,3.87,21.89,1.35,43.8,2.28,65.68,3.78,11.66.8,20.46-3.74,26.7-13.12,5.92-8.89,11.35-18.13,16.7-27.39A374.16,374.16,0,0,0-90-10.28a66.4,66.4,0,0,0,3.3-13c1-6.29-1.52-9.77-7.77-11a106.76,106.76,0,0,0-12.9-1.31c-22.47-1.53-44.93-3.32-67.43-4.39-25-1.19-50-1.79-74.94-2.47-18.1-.49-36.21-.7-54.32-1-.4,0-.79-.05-1.19-.08Zm28.3,241.71c-1.25-3-1.22-2.89-3.4-2.16-11.18,3.73-22.23,8-33.6,11-33.24,8.88-67.26,13.57-101.37,17.29-25.93,2.83-51.93,5.21-78,6.73-32.75,1.92-65.55,3.37-98.35,3.9-43.85.71-87.74,1-131.41-4.4-17-2.12-33.94-5.05-50.36-10.22-14.32-4.52-28.12-10.2-40.14-19.46-9.57-7.38-16.65-16.45-18.46-28.86a9.5,9.5,0,0,0-.91-2.15l-.65.18c.13.95.19,1.92.38,2.86a44.78,44.78,0,0,0,11,21.24c9.19,10.22,20.77,16.89,33.26,22.12C-762,227-733.43,231.74-704.35,234c15.08,1.15,30.21,2,45.33,2.24,27.11.49,54.25,1.05,81.35.5,30-.61,60-2.17,89.93-3.84,18-1,35.93-2.79,53.84-4.66,17.66-1.84,35.27-4.13,52.88-6.4,23-3,45.9-6.71,68.28-12.93C-300.83,205.56-289.15,201.42-277.14,197.58Zm-282.49,12,.28.57a9.74,9.74,0,0,0,1.2.06c20.86-1.42,41.72-2.64,62.55-4.35a222.24,222.24,0,0,0,46.27-8.44c29-8.77,56-22.07,82.24-37a93.7,93.7,0,0,0,12.2-8.75c4.8-3.88,4.41-7.47-1-10.46a48.43,48.43,0,0,0-7.95-3.38c-14.48-4.83-29.26-7.22-44.35-3.68-12.11,2.83-23.6,7.67-34.58,13.41-38.3,20-76.46,40.23-114.67,60.4A18.06,18.06,0,0,0-559.63,209.59Zm322.47-124c0-.37-.05-.74-.08-1.11a9.52,9.52,0,0,0-2.56-.33c-10.9,1.71-21.91,3-32.68,5.33-27.2,5.92-54.39,11.92-81.41,18.62-45.91,11.39-91.17,25-135.25,42.3-23.5,9.23-46.57,19.35-68.13,32.62a10.9,10.9,0,0,0-1.9,1.28,1.42,1.42,0,0,0-.32,1.29,1.43,1.43,0,0,0,1.26.5,6.28,6.28,0,0,0,1.81-.87c22.25-13.77,45.91-24.64,70.35-33.85,41.66-15.7,84.22-28.54,127.28-39.78,32.12-8.38,64.49-15.73,97.17-21.64,7.18-1.3,14.42-2.26,21.63-3.43A17.34,17.34,0,0,0-237.16,85.6Zm-27.34,91.72c1.9,1.25,2.74.11,3.64-.91A92.28,92.28,0,0,1-228,152.82c18.89-8.21,38.82-10.93,59.21-11a250.21,250.21,0,0,1,50.59,5.49,12.85,12.85,0,0,0,3-.12l0-.95a19.59,19.59,0,0,0-2-.57c-10.41-1.57-20.78-3.51-31.24-4.61-20.06-2.1-40.07-1.4-59.8,3.24-21.06,4.95-39.7,14.33-54.39,30.65C-263.27,175.7-263.84,176.49-264.5,177.32Zm-529.33-8.19-.86,1.15a20.66,20.66,0,0,1,2.5,1.69c9.06,8.26,19.67,13.9,31,18.19,34.83,13.15,70.93,17.4,107.93,15.2A5.31,5.31,0,0,0-652,205a23.22,23.22,0,0,0-5.84-.39c-31.1,1.64-61.57-1.78-91.26-11.39-15.54-5-30.39-11.39-42.35-23.05A7.48,7.48,0,0,0-793.83,169.13Z" transform="translate(878 248.11)"/><path class="cls-1" d="M-861.25,187.17c.51,3.66,1,6.6,1.33,9.55,1.73,13.86,9.07,24.51,19.43,33.28a85.93,85.93,0,0,0,22.42,13.38c15.17,6.4,31.17,9.42,47.16,12.44a427.55,427.55,0,0,0,60.21,7.08c25.89,1.17,51.82,2.23,77.74,2.16q38.1-.12,76.19-2.7c25.67-1.71,51.3-4.47,76.88-7.35,38.5-4.34,76.74-10.51,114.77-17.93,23.08-4.5,46-9.62,69-14.5,4.23-.89,8.42-1.93,12.8-3a7.1,7.1,0,0,1-.36,1.21c-11.8,24.57-19.31,50.54-25,77.09-5.37,25.21-8.73,50.72-11.3,76.34-.56,5.58-1.38,11.13-1.93,16.71-.35,3.65-2.16,5.7-5.74,6.42-15,3-29.88,6.56-45,9-26.76,4.27-53.6,8-80.45,11.64a234.82,234.82,0,0,1-51.93.88A1170.06,1170.06,0,0,1-682.65,389.1a388.85,388.85,0,0,1-55.52-17.63A74.16,74.16,0,0,1-758.48,359a17.34,17.34,0,0,0-8.38-3.88c-13.56-2-26.1-6.81-38.18-13-21.46-10.9-41.68-23.66-58.91-40.7a109.06,109.06,0,0,1-8.1-8.82c-3.44-4.23-3.19-7.58.57-11.54,4.07-4.28,9.19-6.94,14.53-9.23,2.33-1,4.7-2,7.12-2.74,2-.61,2.17-1.5,1.46-3.35a297.31,297.31,0,0,1-14.07-50.47c-1.52-8-2.23-16-.28-24,.22-.91.52-1.79.81-2.68C-861.81,188.29-861.64,188-861.25,187.17ZM-733.6,300.3c0,2.81-.11,5.27,0,7.71.74,14,6.31,25.92,15.84,36.06,8.92,9.48,20.18,15.17,32.6,17.88,17.48,3.82,35.09,7.34,52.82,9.65,31.32,4.07,62.76,7.27,94.19,10.5,6.54.68,13.24.11,19.84-.27,4.45-.25,5.76-2.77,3.95-6.87a30.76,30.76,0,0,0-3-5.29c-4.94-7-9.82-14.08-15-20.93-11.83-15.65-23.8-31.2-35.77-46.75a21.91,21.91,0,0,0-4.64-4.68,15,15,0,0,0-5.76-2.44,45.44,45.44,0,0,0-8.88-.63c-13.34.23-26.68.57-40,.9-36.28.9-72.56,1.74-108.84,2.77a109.23,109.23,0,0,0-29.15,4.34,22.22,22.22,0,0,0-2.35,1.05l.16,1a14.64,14.64,0,0,0,3.26-.17C-754.27,301.31-744,300.64-733.6,300.3Zm394.22,80.05c-1.15.21-2.21.47-3.28.6q-19.84,2.46-39.7,4.87c-18.46,2.29-36.91,4.66-55.38,6.87-14.59,1.75-29.21,3.32-43.81,4.95-14.45,1.61-28.9,3.2-43.48,2.68-3.73-.14-7.45-.61-11.18-.79-.66,0-1.35.64-2,1,.57.45,1.11,1.22,1.73,1.29a45.26,45.26,0,0,0,7.61.56c12.73-.58,25.48-1,38.17-2,16.17-1.31,32.32-3,48.44-4.79,17.48-2,34.92-4.16,52.36-6.43,16.93-2.2,33.82-4.66,50.75-6.9,2.08-.28,2.59-1.13,2.69-3.09.9-16.88,1.77-33.77,2.92-50.64a135.29,135.29,0,0,1,9.32-41.33c5.55-13.84,12.74-26.83,20.12-39.73a30.15,30.15,0,0,0,1.28-2.83l-.67-.69c-.77.52-1.79.87-2.25,1.58-1.51,2.35-2.84,4.83-4.21,7.28-7.57,13.48-14.64,27.19-19.62,41.9-5.8,17.12-6.87,34.94-8.07,52.73C-338.39,358.31-338.81,369.26-339.38,380.35Zm24.54-129.29c-1.23-2-2.69-1.56-4.2-1.11-13,3.88-25.85,8.45-39,11.42-14.19,3.2-23.75,10.88-29.86,23.94-6.75,14.44-14.2,28.55-21.34,42.81-.33.65-.59,1.34-1.1,2.52,1.5.29,2.71.82,3.84.68,7.15-.89,14.28-2,21.44-2.91,12.09-1.54,21.37-7.15,28-17.65,5.4-8.52,11.72-16.46,17.56-24.7C-331.28,274.43-323.09,262.76-314.84,251.06Zm-27.37,80.38c.38-1.8-.71-2.14-2.82-1.82-14.52,2.23-29.09,4.19-43.58,6.61-7.5,1.25-14.9,3.2-22.31,5a4.21,4.21,0,0,0-2.44,1.92q-9.52,18-18.87,36.12a8.6,8.6,0,0,0-.44,2.31,9.07,9.07,0,0,0,2.4.27c4.69-.75,9.39-1.49,14-2.41,17.08-3.36,34.15-6.72,51.19-10.21,8-1.63,13.84-6.08,17.14-13.75C-344.66,347.94-343.08,340.09-342.21,331.44ZM-761.33,345c-.44-1.36-.58-2-.84-2.59-3.68-8.39-7.42-16.75-11-25.17a10.34,10.34,0,0,0-5.79-5.71Q-804,300.88-829,290.11c-1.88-.81-2.69-.56-3.06,1.61-1.3,7.52-2.62,15-4.24,22.51-.56,2.58.12,3.55,2.47,4.4q34.67,12.62,69.27,25.39C-763.77,344.32-762.9,344.53-761.33,345Zm-85-71.42c.83,4.68,7,17.11,8.73,17.83C-836.89,289-844.09,273.94-846.29,273.58Z" transform="translate(878 248.11)"/><path class="cls-1" d="M-497.52,53.45c17-13.61,35.7-23.09,54.15-32.85C-401-1.79-358-22.76-313.53-40.66a10,10,0,0,1,3.92-.72c33.91.8,67.84,1.37,101.73,2.61,30.33,1.11,60.63,2.92,90.93,4.55,7.21.39,14.39,1.25,21.57,2,5.55.57,7.57,3,6.36,8.36A107.94,107.94,0,0,1-93.8-7.54c-9.82,24.39-21.42,47.91-35.93,69.89a170.87,170.87,0,0,1-12.43,15.8,16.05,16.05,0,0,1-13.51,5.94c-14.09-.6-28.19-1-42.28-1.79-15.36-.82-30.71-1.82-46.06-2.88q-26.58-1.82-53.15-3.88-23.26-1.79-46.51-3.79-26.65-2.32-53.31-4.91-22.44-2.2-44.86-4.76c-14.18-1.6-28.36-3.25-42.49-5.18C-488.65,56.31-492.84,54.71-497.52,53.45Z" transform="translate(878 248.11)"/><path class="cls-1" d="M299.58,61.07a9,9,0,0,0-1.75.48C284,68.93,269,73,254,77.08q-74.59,20.17-149.2,40.32c-.57.16-1.15.25-2.06.44-.82-3.94-1.67-7.79-2.41-11.67Q96.48,86,92.7,65.88c-.44-2.33-.3-4.8-.93-7.06-.78-2.85.52-3.76,2.85-4.76,14.6-6.29,28.93-13.12,41.91-22.45a47.33,47.33,0,0,0,5.34-4.32c3.79-3.72,3.8-6.75-.05-10.49a35.39,35.39,0,0,0-6-4.72q-12-7.45-24.21-14.61a4.07,4.07,0,0,1-2.32-3.53c-.37-4-1-8-1.53-12.34l2.65,1.23q35.7,16.53,71.41,33c9.09,4.19,18.71,5.67,28.71,5.94,22.37.61,44.62,2.53,66.3,8.64a112.28,112.28,0,0,1,23.7,9.83c10.94,6,16.28,15.4,17.41,27.61,1.76,19,1.1,38.06.2,57.08-.73,15.37-1.86,30.71-2.83,46.07a26.81,26.81,0,0,0-.22,3.62c-1.61-10.78-3-21.6-4.9-32.32a101.43,101.43,0,0,0-8.69-26.82,52.23,52.23,0,0,0-6.36-10.08c-6.41-7.78-14.85-9.8-24.32-6.21-7.87,3-13.49,8.7-18.3,15.33-9.39,13-15.35,27.53-19.82,42.77-5,17-8.11,34.38-10.69,51.85-2,13.87-3.71,27.78-5.46,41.69a86,86,0,0,0-.5,8.65,3,3,0,0,1-2.55,3.19c-12.48,3.23-24.92,6.61-37.42,9.77-17.11,4.34-34.26,8.52-51.4,12.77-.31.08-.63.14-1.33.29-.32-4.33-.71-8.53-.84-12.74,0-.5,1.28-1.33,2.08-1.53q20.51-5.14,41-10.16,18.91-4.64,37.84-9.27c.73-.18,1.43-.45,2.17-.68-.06-2.66-1.69-2.12-3.19-1.75L158.2,260.27l-33.63,8.28c-.73.19-1.49.29-2.46.47-.4-4.62-.79-9.14-1.19-13.79l29.16-7.54c-.06-.26-.13-.52-.19-.77l-29,7c-.45-4.3-.88-8.49-1.33-12.69-.57-5.32-1.25-10.63-1.71-16a16.09,16.09,0,0,1,.41-5.49c7.07-26.13,14.37-52.2,21.28-78.38,2.14-8.11,3.26-16.48,4.81-24.74a29.06,29.06,0,0,0,.27-3.25l-.74-.43c-.6.78-1.61,1.51-1.72,2.35-4.27,32.68-15.84,63.54-23.7,95.32a7.15,7.15,0,0,1-.81,1.82c1.91-16.51-2.56-32.26-5.58-48.16-2.78-14.68-5.87-29.31-8.82-44a7.23,7.23,0,0,1,0-1.11c3.81-1,7.73-2,11.62-3,51.27-13.94,102.58-27.72,153.76-42,9.83-2.74,19.14-7.34,28.67-11.12a19.13,19.13,0,0,0,2.57-1.44ZM167.23,192.54c-2.17.39-4.38.66-6.49,1.26a2.67,2.67,0,0,0-1.58,1.94c.05,13.26.22,26.52.37,39.77.05,4.17.7,8.58-4.28,10.88l6.51-1.75v-3.08c0-14.7.05-29.4-.07-44.11,0-2,.68-2.93,2.4-3.53,1.06-.37,2.06-.94,3.1-1.41a73.12,73.12,0,0,0,7.56-.6c10.77-2,21.51-4,32.27-6.11,5.09-1,10.18-2,15.28-3-.07-.34-.13-.67-.2-1Zm-3.51-159c0,.37-.06.56,0,.69Q173.49,54.6,183.28,75c1,2.11,2.45,1.11,3.44,0,4.13-4.48,8.36-8.9,12.14-13.67A29.23,29.23,0,0,0,203.14,53c3.18-8.91-.43-17.12-9-21.11-5.48-2.55-11.29-2.91-17.18-2.23A35.48,35.48,0,0,0,163.72,33.49Z" transform="translate(878 248.11)"/><path class="cls-1" d="M-1.8,48.39c6.65,2.86,12.78,2,18.64-1.68-.66-1.74-1.71-1.2-2.83-.64C9.83,48.16,5.53,49.64.77,48.3c-.72-.2-1.44-.43-2.31-.69C-.39,43,.72,38.51,1.9,33.78,30,42.33,58.25,47.39,87.34,37.19c.33,4.06.67,8.09,1.08,13.11L79,44.23l-.42.49a4.51,4.51,0,0,0,.75,1.39c1.42,1.21,2.75,2.84,4.41,3.38,4.15,1.33,5,4.08,5.42,8.09,2.7,25.65,9.3,50.58,14.16,75.84q6.08,31.5,11.67,63.1a51.88,51.88,0,0,1,.58,12.2c-.8,12.81.72,25.46,1.92,38.15,1.44,15.23,2.71,30.48,3.92,45.73,1.38,17.45,2.61,34.91,3.86,52.37a2.71,2.71,0,0,1-.69,2c-2.67,2.47-5.78,3.87-9.53,3.15-2.83-.55-6.36-.35-8.26-2s-1.8-5-2.52-7.72q-10.12-37.62-20.23-75.24c-2.16-8-2.12-16.13-1.61-24.3.63-9.93,1.38-19.84-1.32-29.65-3.08-11.21-5.91-22.49-9-33.71q-11.43-41.88-23-83.72c-.47-1.71-.5-4.13-3-4.07s-3.69,1.93-4.24,4.13a20.41,20.41,0,0,0-.57,4.27c-1.21,30.07-2.25,60.15-3.63,90.21-1,21.77-4.6,43.23-8.32,64.67-4,23.34-8.1,46.69-11.79,70.09-1.46,9.3-2,18.75-2.81,28.14-.19,2.27-1.07,3.42-3.17,3.18a26.62,26.62,0,0,1-7-1.57c-2.17-.87-4-2.6-6.11-3.65a3.65,3.65,0,0,1-2.29-3.44C-4.89,329.09-6.28,312.48-7,295.85A137.58,137.58,0,0,1-1.51,251c3.14-10.67,3.28-21.45,1.88-32.32q-6.13-47.89-12.43-95.78c-1.92-14.68-.77-29.22,2.21-43.6,2-9.78,4.86-19.4,7.34-29.1A18,18,0,0,1-1.8,48.39Z" transform="translate(878 248.11)"/><path class="cls-1" d="M-97.43,309.88V169.13L-11.33,148c1.07,8.31,2.14,16.38,3.17,24.45,2.11,16.68,4,33.4,6.38,50,1.63,11.3.28,22.18-2.89,33A124.09,124.09,0,0,0-10,285.69c0,1.31-.27,2.11-1.82,2.5Q-54.07,299-96.34,309.92A6.87,6.87,0,0,1-97.43,309.88Z" transform="translate(878 248.11)"/><path class="cls-1" d="M-129,267.63c0,14.62.12,29.25,0,43.87-.18,16.83-4.84,32.7-11.38,48-3.13,7.32-6.66,14.5-10.36,21.56-9.59,18.3-24.61,29.67-44.66,34.61a185.67,185.67,0,0,1-43.33,5.91c-19.8.13-39.61-.08-59.41-.2-2.29,0-4.57-.37-6.86-.5-4.42-.25-7.43-2.67-9.6-6.28a40.48,40.48,0,0,1-5.65-17.82c-.25-3.09,1.14-6.28,1.54-9.46,1.89-15.09,3.68-30.19,5.54-45.28,4.95-40.21,13.43-79.53,30.16-116.67,7.93-17.62,17.88-34,32.1-47.39,20.48-19.28,44.57-26.21,72.13-20.49a50.05,50.05,0,0,1,27.17,15.69c11.46,12.58,19.3,27.1,21.28,44.23.86,7.5,1.06,15.09,1.22,22.65.2,9.18.05,18.36.05,27.54ZM-286.75,302c.88,10.49,1.42,21,2.73,31.46a94.36,94.36,0,0,0,15.75,42.32c18.95,27.58,56.29,35.8,84.88,16.68A99,99,0,0,0-145.88,346c6.62-16.41,9.48-33.59,10.41-51.18,1.14-21.67,0-43.32-4.73-64.41-5.9-26.31-22.36-44.91-46.72-56.37A34.25,34.25,0,0,0-205,170.57c-10.87,1-20.42,5.53-29.51,11.15C-252.75,193-264.75,209.49-272.92,229-282.69,252.32-286.07,276.85-286.75,302Z" transform="translate(878 248.11)"/><path class="cls-1" d="M-110.52,98.51c-.68,0-1.36,0-2,0-4.17-.18-6.11-2.25-5.54-6.41a35.31,35.31,0,0,1,2-8.13A535,535,0,0,1-67.5-10.27C-60.14-21.69-49.61-28.38-36-30.19c1.91-.25,3,0,3.91,2,3.86,8.87,7.78,17.72,12,26.43,4.09,8.46,9.82,15.64,18,20.58a3.4,3.4,0,0,1,1.74,3c1,8.16-1.3,15.8-3.28,23.55-3.17,12.41-6.11,24.88-9,37.36-.46,2-1.73,2-3.08,2.26-12.46,2.18-24.89,4.6-37.4,6.4-19.08,2.74-38.23,5-57.34,7.51Z" transform="translate(878 248.11)"/><path class="cls-1" d="M25.6-93c2.46.91,2.75,3.58,3.26,6.29,2.28,12.08,6.89,23.42,11.28,34.83,4.31,11.17,8.49,22.39,10.17,34.35.15,1.09.25,2.19.35,3.29.41,4.17.43,4.39-3.64,4.74-9.37.79-18.41,3.12-27.4,5.63-2.66.74-4,.17-5.22-2.43C7.21-21.23-.37-36-5.24-51.86c-.69-2.27-1.22-4.6-1.93-6.86A19.11,19.11,0,0,0-8.5-61.45l-.93.37c2.08,6.16,3.71,12.51,6.31,18.44C2.67-29.43,9-16.44,15-3.34c.85,1.84,2,2.4,4.06,2C29.51-3.66,40-5.94,50.46-8c4.75-.92,3.65-1.37,6.38,2.89a32.36,32.36,0,0,1,5,13.5c.19,1.56-.11,2.48-1.77,3.06-11.22,3.88-22.38,8-33.63,11.78C17.26,26.35,8.72,25,1,18.89c-2-1.64-4.35-3-6.55-4.41a29.29,29.29,0,0,1-10-11.71C-20.83-7.85-26-18.57-30.53-29.54c-3.27-7.93-6.36-16.16-7.84-24.55C-40.81-68-37.07-80.24-25-88.9a65.07,65.07,0,0,1,6-3.84c9.94-5.61,20.71-10,28.54-19.08C8.65-106,7.92-100.07,6.77-94.27c-.9,4.53.06,6.18,4.63,5.33S20.47-91.51,25.6-93Z" transform="translate(878 248.11)"/><path class="cls-1" d="M264.28,269.1l-2.11-1.23c-12.23-9.93-17.21-23.68-20-38.48-4-21.5-4.08-42.95,1.71-64.18,3.93-14.37,9.63-28,19.27-39.55A55.38,55.38,0,0,1,271,118c7-5.66,13.66-5.15,19.88,1.37,5.35,5.61,8.21,12.59,10.69,19.79,2.63,7.62,2.63,15.55,2.94,23.43.62,15.64.82,31.28-.91,46.87-1.61,14.6-4.57,28.89-11.27,42.09a54.87,54.87,0,0,1-8.16,11.92C278.89,269.36,272.32,272.22,264.28,269.1Z" transform="translate(878 248.11)"/><path class="cls-1" d="M53.16,24.75a33.89,33.89,0,0,1-.5-3.41c-.19-3.68.44-4.32,3.8-5.78,6.13-2.66,12.24-5.39,18.21-8.39a30.28,30.28,0,0,0,6.56-4.8c7.19-6.48,8.26-14.16,2.67-22a13.88,13.88,0,0,1-2.62-8.86,136.27,136.27,0,0,0-5-40.56c-.43-1.47-.84-2.77-3.17-2.18a144.36,144.36,0,0,1,5.54,45.71C72.45-28,69.45-24.2,67.16-19.66c-2.92,5.79-7.87,8-14,9C52-29.77,44-46.71,37.6-64.13c-3.16-8.61-6-17.33-7.29-26.52C31.16-91.34,32-92,33-92.76c2.13,1.13,4.25,2.36,6.45,3.4A15.67,15.67,0,0,0,43.49-88c2.56.43,4.2-1,4-3.59-.16-2-.83-4-1.15-6s-.43-3.81-.67-6.14c10.11,4,19.82,7.51,29.3,11.59A24.49,24.49,0,0,1,89.16-76c5.23,17.82,10.44,35.66,15.38,53.56a79.82,79.82,0,0,1,2.23,30.78c-.68,5.82-3.63,9.48-9.34,11-14,3.78-28.09,6.72-42.72,5.55C54.29,24.88,53.87,24.83,53.16,24.75Z" transform="translate(878 248.11)"/><path class="cls-1" d="M42.12,134.61,56.56,131c.24.65.52,1.24.69,1.87q10.55,39,21.08,77.91c2.37,8.74,2.54,17.62,1.71,26.56-.79,8.57-1.34,17.13.59,25.63a8.3,8.3,0,0,1,0,1.43L27.16,278.14A734.58,734.58,0,0,0,42.12,134.61Z" transform="translate(878 248.11)"/><path class="cls-1" d="M7.67-160.74c-.87-10.71-1.75-21.42-2.61-32,4.88-1.38,10-2.76,15.1-4.29,4.63-1.38,9.15-3.17,13.83-4.33a29.61,29.61,0,0,1,16.83.58,9.33,9.33,0,0,1,5.76,5,28.74,28.74,0,0,0,3.14,4.25,4.72,4.72,0,0,1,.94,1.46,55.53,55.53,0,0,1,1.27,20.5c-4.3-3.62-8.32-2.29-12.23.17-2.4,1.52-3,3.7-2.09,6.89a5.54,5.54,0,0,0,5.3,4.39c2.89.14,5.64-.19,7.71-2.79l-.78,4.55A30.13,30.13,0,0,0,61-141a32.7,32.7,0,0,1,1.66,7.44c.85,8.37-5,14.74-14.24,15.55S31-119.36,24.8-126.57a150.11,150.11,0,0,1-11.39-15.29c-2.78-4.24-6-7.71-10.55-10S-5-157.92-7.44-162.46c-1.37-2.58-.87-3.6,2-3.8a9.71,9.71,0,0,1,9,3.82,14.36,14.36,0,0,0,3.15,2.3Zm14.75-10.93c-.44,0-1,0-1.62.12a6.63,6.63,0,0,0-5.69,4.09c-1,2.47.31,4.45,2,6.11A15.4,15.4,0,0,0,29.7-157c4.21-.37,6.22-3.7,4.65-7.33S26.72-171.75,22.42-171.67Zm10.44,39c2.9.69,6,.7,7.72,3.73-.09-.87-.17-1.74-.26-2.62l5.38-1.33,2.22,3.16.58-.39-1.21-3.49,5.07-1.5c.47,1.42.78,2.47,1.2,3.48.12.29.6.44.92.65.18-.4.57-.83.5-1.19a26.82,26.82,0,0,0-.86-3l3.54-.33-6.1-3.62c.1,1,.18,1.75.26,2.56l-4.89,1.35L45-137.52l-.52.38c.19.81.37,1.61.62,2.71l-4.82,1.17-1.16-3.52-.73.21c-.08,1.06-.15,2.11-.25,3.4a31.81,31.81,0,0,1-3.87-.73,2.22,2.22,0,0,1-1.09-1.34,21,21,0,0,1-.51-2.87c-.44.91-.86,1.82-1.3,2.72,0,.07-.12.11-.43.38l-4.19-2.39,1.42-4-.9-.4-2,3-2.43-1.32-.29.43,1.76,2-.55,4.06.74.09,1.52-2.88a26.1,26.1,0,0,0,2.53,1.54c1.77.79,3.06,1.71,2.27,4-.16.46.41,1.19.64,1.79l.62-.17Zm6.44-11.53c4.92,6,15.05,3.92,18.6-3.52-8.51-4.19-12.77-11.69-15.31-20.47-.44-1.5-1.4-1.72-2.84-.93,2.6,9.1,6.87,16.94,15.21,21.89-3.67,5.05-7.89,6-13.12,3.5A9.94,9.94,0,0,0,39.3-144.16ZM31.84-179.9l.62-.55c-.4-.62-.67-1.58-1.23-1.81a79.71,79.71,0,0,0-11.12-4.15c-4.56-1.12-8.69,2.07-9.33,6.71-.11.82.46,1.73.89,3.24,4-8.42,6.72-9.37,14.61-5.86C28.12-181.5,30-180.71,31.84-179.9Zm15.25.66a2.9,2.9,0,0,0,.08.91,1.59,1.59,0,0,0,.62.77c3.27,1.51,6.66,2.71,10.22,1.25A6.84,6.84,0,0,0,60.82-179c1-1.6.13-2.38-1.5-2.59C56.28-175.36,51.47-178.45,47.09-179.24Z" transform="translate(878 248.11)"/><path class="cls-1" d="M49.91-246.55c-.81.51-1.08.71-1.37.87-5.17,2.76-5.52,6.47-.92,10,.94.72,1.92,1.39,2.86,2.13,2.62,2.09,4.3,4.8,3.73,8.18-1,5.88,1.24,9.87,6.12,13.07a26.67,26.67,0,0,1,6.24,6.3c3,3.87,2.44,8.82-.89,12.37-1.15,1.23-2.32,1.73-3.58.08A27.48,27.48,0,0,1,60-196.06c-2.86-5-7.52-6.86-12.82-7.76-8.71-1.48-16.94.64-24.87,3.79a65.1,65.1,0,0,1-25.58,4.77,15.37,15.37,0,0,1-7-1.87c-4.23-2.43-5.52-7.34-3.69-12.32,2-5.29,5.89-8.85,10.66-11.55,6.08-3.43,12.81-4.91,19.58-6.15,3.51-.64,7.07-1,10.58-1.57,4.57-.79,5.84-2.23,6.36-6.84.59-5.18,5-9.38,10.8-10.33C45.78-246.17,47.56-246.29,49.91-246.55Z" transform="translate(878 248.11)"/><path class="cls-1" d="M-1.12,362.84c4.36,2.89,9.54,5,15.54,3.61,3.07,10.28,9.46,18.37,15.4,26.71,5.13,7.19,10.54,14.22,13.78,22.53a37.79,37.79,0,0,1,2.3,8.8c.4,3.06-1.3,4.72-4.37,4.52a25.05,25.05,0,0,1-6.67-1.42A56.73,56.73,0,0,1,5.68,404.43c-1.55-2.43-2.87-5-4.62-7.31a59.07,59.07,0,0,0-6.9-7.74c-3.78-3.46-4.83-7.24-2.61-11.84.74-1.52,1.82-2.88,2.56-4.4C-4.28,369.84-2.79,366.47-1.12,362.84Z" transform="translate(878 248.11)"/><path class="cls-1" d="M107.67,358.52c12.8,2.25,15.12,2,21.26-2.42,7.14,8,17.41,8.66,26.91,11,8.15,2,16.36,3.78,24.56,5.53a12.91,12.91,0,0,1,7.77,4.53c-2.21,4.35-5.39,6.87-10.67,7.09-12.21.52-24.41,1.36-36.6,2.32-5.91.46-11.76,1.68-17.67,2.19a31.87,31.87,0,0,1-9.08-.61c-5.09-1.07-7.67-4.29-7.94-9.52a73.31,73.31,0,0,1,.32-8.63c.13-1.94.49-3.87.68-5.81S107.51,360.53,107.67,358.52Z" transform="translate(878 248.11)"/><path class="cls-1" d="M91.33,55c-.85-10.91-1.64-21-2.44-31.24,3.87-1,7.54-2,11.23-2.89,5.22-1.31,8.17-4.56,8.69-10C109.18,7,109.57,3.12,110-1c1.42.76,2.82,1.49,4.21,2.24,8.14,4.42,16.15,9,23.06,15.3,5.93,5.37,6.17,7.92,0,12.78A132.1,132.1,0,0,1,119.42,41C110.44,45.92,101.09,50.15,91.33,55Z" transform="translate(878 248.11)"/><path class="cls-1" d="M22.44,311.39c.77-5.17,1.41-9.86,2.25-14.51.11-.64,1.16-1.39,1.9-1.58,19.25-4.78,38.53-9.5,58.05-14.3,1.26,4.42,2.51,8.79,3.85,13.51Z" transform="translate(878 248.11)"/><path class="cls-1" d="M81.08,265.72,84,278.49,25.31,292.91c.7-4.52,1.3-8.69,2-12.83.08-.45.9-1,1.47-1.12q25.76-6.69,51.53-13.28A3.58,3.58,0,0,1,81.08,265.72Z" transform="translate(878 248.11)"/><path class="cls-1" d="M49.75,26c-.42,4.52-.85,8.9-1.22,13.29-.12,1.45-.86,1.83-2.21,1.72a194.62,194.62,0,0,1-42.77-8.9,2.33,2.33,0,0,1-1.37-1.63c-.14-2.85-.07-5.71-.07-9,1.92,1,3.46,1.85,5,2.65,5.82,3,11.88,3.14,18.09,1.47a28.2,28.2,0,0,0,4.88-1.39,14.39,14.39,0,0,1,13.12,0C45.09,25.14,47.27,25.38,49.75,26Z" transform="translate(878 248.11)"/><path class="cls-1" d="M50.63,40.8c.35-4.84.69-9.47,1.06-14.53,11.63,1.36,23,.19,34.64-2.1.29,3.3.65,6.33.72,9.35,0,.63-1,1.65-1.66,1.88a85.91,85.91,0,0,1-12,3.3c-6.61,1-13.3,1.54-20,2.22A20,20,0,0,1,50.63,40.8Z" transform="translate(878 248.11)"/><path class="cls-1" d="M70.77,7.12a32,32,0,0,0-6.59-17.95l5.5-7.79A27.42,27.42,0,0,1,72-21.67c3.08-3.22,7.13-2.91,9.8.68C87.3-13.55,86.24-4.11,79,1.66,76.62,3.58,73.88,5.08,70.77,7.12Z" transform="translate(878 248.11)"/><path class="cls-1" d="M4.12-164.15C.76-166.86-2.8-169-7.3-169.22c-.62,0-1.41-1.09-1.75-1.84-3.46-7.61-3.08-15.45-1.5-23l12.88,1.33c.84,9.33,1.69,18.87,2.54,28.41Z" transform="translate(878 248.11)"/><path class="cls-1" d="M45.46,91.89c.71,1,1.74,1.94,2.07,3.06,1,3.57,1.77,7.23,2.69,10.83,1.87,7.39,3.79,14.77,5.68,22.15.13.48.24,1,.44,1.83L42.5,133.29c.56-13.91,1.1-27.46,1.64-41Z" transform="translate(878 248.11)"/><path class="cls-1" d="M35-118.68c-.33,2.38-.6,4.55-1,6.71-.07.42-.43,1.08-.73,1.13-2.82.44-3.09,2.78-3.76,4.85-.41,1.26-.89,2.5-1.35,3.81-.27-.21-.48-.32-.47-.39.64-5.29-1.93-8.55-6.43-10.93a78.73,78.73,0,0,1-7.51-5.11l4.59-13.2C22.76-125.9,27.93-120.91,35-118.68Z" transform="translate(878 248.11)"/><path class="cls-1" d="M25.25-100.68c-.44,2-.71,3.53-1.14,5A2.33,2.33,0,0,1,23-94.25c-4,1.46-7.91,3-12,4.16-2.89.81-3.38,0-2.83-3,.77-4.14,1.32-8.32,2-12.48a22.08,22.08,0,0,1,1.13-4.65c1.29-3.14,3-3.5,5.32-1.09,1.83,1.87,3.41,4,5.06,6C23-103.67,24.2-102,25.25-100.68Z" transform="translate(878 248.11)"/><path class="cls-1" d="M34.3-94.59l-1.37-5.55-.94-.33c3.08-2.82,6.08-5.73,9.29-8.37.7-.58,2.25-.46,3.25-.16.34.1.44,1.84.23,2.73-1,4.28-.12,8.39.72,12.55.21,1,.27,2.9-.24,3.17a5.07,5.07,0,0,1-3.77.25c-2.66-1-5.16-2.46-7.72-3.72Z" transform="translate(878 248.11)"/><path class="cls-1" d="M14.23,355.38a44.47,44.47,0,0,0,0,5.71c.32,2.37-.81,3.17-2.88,3.4-4.84.55-8.94-1.27-12.77-3.95a1.73,1.73,0,0,1-.65-1c-.4-2.74-.75-5.48-1.2-8.88C2.29,354.52,7.39,358.07,14.23,355.38Z" transform="translate(878 248.11)"/><path class="cls-1" d="M106.69,350.37c6.62.79,13.13,4.56,19.09-.79.29.21.49.29.54.42,1.77,4.54,1.41,5.41-3.08,7.39-5.16,2.28-10.16.74-15.14-.76-.38-.11-.73-.87-.82-1.37C107,353.76,106.91,352.24,106.69,350.37Z" transform="translate(878 248.11)"/><path class="cls-1" d="M64.43,9.45c-.92-7-4-12.74-8.09-18.28A33.5,33.5,0,0,1,61-10.13a2.67,2.67,0,0,1,2,1,26.14,26.14,0,0,1,5.43,13C68.93,8,68.75,8.2,64.43,9.45Z" transform="translate(878 248.11)"/><path class="cls-1" d="M29-99.89c1.86.07,3.63,1.69,3.59,3.28,0,1.88-1.92,4.15-3.42,4.13a4.21,4.21,0,0,1-3.57-3.94C25.74-98.22,27.44-99.95,29-99.89Z" transform="translate(878 248.11)"/><path class="cls-1" d="M10.85-114.35l1.76-2.75c4,2.71,7.89,5.3,11.67,8.08.61.45.62,1.76.8,2.7s.23,2,.43,3.82c-1.1-1.41-1.74-2.29-2.44-3.12-1.91-2.25-3.81-4.52-5.79-6.72C15.59-114.21,13.64-115.43,10.85-114.35Z" transform="translate(878 248.11)"/><path class="cls-1" d="M51.92-159.41c5.82-2.48,6.64-4.47,4.79-11.1,2.06-.38,3.19.53,3.68,2.44C61.65-163.14,57.59-158.76,51.92-159.41Z" transform="translate(878 248.11)"/><path class="cls-1" d="M53.42-169.91c1.37,1.88,2.59,3.79,1.15,6-.49.77-1.77,1-2.68,1.51a24.27,24.27,0,0,1-1.66-4C49.64-168.85,51.92-169,53.42-169.91Z" transform="translate(878 248.11)"/><path class="cls-1" d="M34.23-108.92l1.56,1.79-6.11,6.36C31.35-103.9,30.62-107.49,34.23-108.92Z" transform="translate(878 248.11)"/><path class="cls-1" d="M47.11,18.78l3-.94c.14,2.18.26,4.19.38,6.19C47,24.55,46.78,24.2,47.11,18.78Z" transform="translate(878 248.11)"/><path class="cls-1" d="M44.28,19.67v3.6l-5.79-1.73Z" transform="translate(878 248.11)"/><path d="M-277.14,197.58c-12,3.84-23.69,8-35.6,11.29-22.38,6.22-45.27,10-68.28,12.93-17.61,2.27-35.22,4.56-52.88,6.4-17.91,1.87-35.86,3.65-53.84,4.66-30,1.67-59.94,3.23-89.93,3.84-27.1.55-54.24,0-81.35-.5-15.12-.28-30.25-1.09-45.33-2.24-29.08-2.22-57.67-7-84.79-18.31-12.49-5.23-24.07-11.9-33.26-22.12a44.78,44.78,0,0,1-11-21.24c-.19-.94-.25-1.91-.38-2.86l.65-.18a9.5,9.5,0,0,1,.91,2.15c1.81,12.41,8.89,21.48,18.46,28.86,12,9.26,25.82,14.94,40.14,19.46,16.42,5.17,33.31,8.1,50.36,10.22,43.67,5.43,87.56,5.11,131.41,4.4,32.8-.53,65.6-2,98.35-3.9,26-1.52,52-3.9,78-6.73,34.11-3.72,68.13-8.41,101.37-17.29,11.37-3,22.42-7.27,33.6-11C-278.36,194.69-278.39,194.6-277.14,197.58Z" transform="translate(878 248.11)"/><path d="M-559.63,209.59a18.06,18.06,0,0,1,2.15-1.59c38.21-20.17,76.37-40.42,114.67-60.4,11-5.74,22.47-10.58,34.58-13.41,15.09-3.54,29.87-1.15,44.35,3.68a48.43,48.43,0,0,1,7.95,3.38c5.45,3,5.84,6.58,1,10.46a93.7,93.7,0,0,1-12.2,8.75c-26.24,14.9-53.23,28.2-82.24,37a222.24,222.24,0,0,1-46.27,8.44c-20.83,1.71-41.69,2.93-62.55,4.35a9.74,9.74,0,0,1-1.2-.06Zm6.14-2.13.08.47c.32,0,.64.06,1,0,20.93-1.54,41.88-2.82,62.78-4.71a207.8,207.8,0,0,0,46.81-9.54c29.58-9.79,57.1-23.88,83.64-40a18.83,18.83,0,0,0,3-2.3c3.07-2.83,2.92-5.59-.59-7.93a20.31,20.31,0,0,0-5.7-2.76c-5.3-1.46-10.67-2.76-16-3.89a73.92,73.92,0,0,0-47.86,5.61q-47.56,22.17-93.74,47.05Q-536.82,198.43-553.49,207.46Z" transform="translate(878 248.11)"/><path d="M-237.16,85.6a17.34,17.34,0,0,1-2.83.93c-7.21,1.17-14.45,2.13-21.63,3.43-32.68,5.91-65.05,13.26-97.17,21.64-43.06,11.24-85.62,24.08-127.28,39.78-24.44,9.21-48.1,20.08-70.35,33.85a6.28,6.28,0,0,1-1.81.87,1.43,1.43,0,0,1-1.26-.5,1.42,1.42,0,0,1,.32-1.29,10.9,10.9,0,0,1,1.9-1.28c21.56-13.27,44.63-23.39,68.13-32.62,44.08-17.3,89.34-30.91,135.25-42.3,27-6.7,54.21-12.7,81.41-18.62,10.77-2.35,21.78-3.62,32.68-5.33a9.52,9.52,0,0,1,2.56.33C-237.21,84.86-237.19,85.23-237.16,85.6Z" transform="translate(878 248.11)"/><path d="M-264.5,177.32c.66-.83,1.23-1.62,1.88-2.33,14.69-16.32,33.33-25.7,54.39-30.65,19.73-4.64,39.74-5.34,59.8-3.24,10.46,1.1,20.83,3,31.24,4.61a19.59,19.59,0,0,1,2,.57l0,.95a12.85,12.85,0,0,1-3,.12,250.21,250.21,0,0,0-50.59-5.49c-20.39,0-40.32,2.75-59.21,11a92.28,92.28,0,0,0-32.86,23.59C-261.76,177.43-262.6,178.57-264.5,177.32Z" transform="translate(878 248.11)"/><path d="M-793.83,169.13a7.48,7.48,0,0,1,2.37,1c12,11.66,26.81,18,42.35,23.05,29.69,9.61,60.16,13,91.26,11.39A23.22,23.22,0,0,1-652,205a5.31,5.31,0,0,1-1.23.39c-37,2.2-73.1-2.05-107.93-15.2-11.35-4.29-22-9.93-31-18.19a20.66,20.66,0,0,0-2.5-1.69Z" transform="translate(878 248.11)"/><path d="M-733.6,300.3c-10.37.34-20.67,1-30.73,3.83a14.64,14.64,0,0,1-3.26.17l-.16-1a22.22,22.22,0,0,1,2.35-1.05,109.23,109.23,0,0,1,29.15-4.34c36.28-1,72.56-1.87,108.84-2.77,13.33-.33,26.67-.67,40-.9a45.44,45.44,0,0,1,8.88.63,15,15,0,0,1,5.76,2.44,21.91,21.91,0,0,1,4.64,4.68c12,15.55,23.94,31.1,35.77,46.75,5.17,6.85,10.05,13.91,15,20.93a30.76,30.76,0,0,1,3,5.29c1.81,4.1.5,6.62-3.95,6.87-6.6.38-13.3.95-19.84.27-31.43-3.23-62.87-6.43-94.19-10.5-17.73-2.31-35.34-5.83-52.82-9.65-12.42-2.71-23.68-8.4-32.6-17.88-9.53-10.14-15.1-22.06-15.84-36.06C-733.71,305.57-733.6,303.11-733.6,300.3Zm80.72-3.33v.53c-16.82.46-33.64.88-50.46,1.41-8.33.26-16.64.8-25,1.06-2.1.07-2.91.84-2.77,2.86.12,1.86.17,3.72.23,5.58.52,17.27,8.2,30.52,22.5,40,10.1,6.73,21.34,10.77,33,13.64,25.23,6.2,51.06,8.6,76.76,11.65,17.54,2.08,35.17,3.46,52.78,4.9,9,.73,18,1,27,1.27,3.16.11,3.81-.9,2.32-3.67a68.17,68.17,0,0,0-5.84-9.24q-26.37-34.38-52.95-68.6a4.2,4.2,0,0,0-2.89-1.38Q-615.52,296.92-652.88,297Z" transform="translate(878 248.11)"/><path d="M-339.38,380.35c.57-11.09,1-22,1.72-33,1.2-17.79,2.27-35.61,8.07-52.73,5-14.71,12-28.42,19.62-41.9,1.37-2.45,2.7-4.93,4.21-7.28.46-.71,1.48-1.06,2.25-1.58l.67.69a30.15,30.15,0,0,1-1.28,2.83c-7.38,12.9-14.57,25.89-20.12,39.73a135.29,135.29,0,0,0-9.32,41.33c-1.15,16.87-2,33.76-2.92,50.64-.1,2-.61,2.81-2.69,3.09-16.93,2.24-33.82,4.7-50.75,6.9-17.44,2.27-34.88,4.47-52.36,6.43-16.12,1.8-32.27,3.48-48.44,4.79-12.69,1-25.44,1.46-38.17,2a45.26,45.26,0,0,1-7.61-.56c-.62-.07-1.16-.84-1.73-1.29.67-.34,1.36-1,2-1,3.73.18,7.45.65,11.18.79,14.58.52,29-1.07,43.48-2.68,14.6-1.63,29.22-3.2,43.81-4.95,18.47-2.21,36.92-4.58,55.38-6.87q19.85-2.44,39.7-4.87C-341.59,380.82-340.53,380.56-339.38,380.35Z" transform="translate(878 248.11)"/><path d="M-314.84,251.06c-8.25,11.7-16.44,23.37-24.69,35-5.84,8.24-12.16,16.18-17.56,24.7-6.65,10.5-15.93,16.11-28,17.65-7.16.92-14.29,2-21.44,2.91-1.13.14-2.34-.39-3.84-.68.51-1.18.77-1.87,1.1-2.52,7.14-14.26,14.59-28.37,21.34-42.81,6.11-13.06,15.67-20.74,29.86-23.94,13.2-3,26-7.54,39-11.42C-317.53,249.5-316.07,249-314.84,251.06Zm-4.24,1.32c-16,4.72-31.36,9.21-46.7,13.85a24.2,24.2,0,0,0-13.58,10.22,134,134,0,0,0-7,11.83c-6.27,12.24-12.36,24.57-18.51,36.87-.67,1.33-1.28,2.69-2.27,4.81,8.38-1.34,16.08-2.54,23.76-3.79,10.37-1.7,17.89-7.27,23.6-16.11,6.28-9.69,13.32-18.88,20-28.32C-332.95,272.11-326.17,262.44-319.08,252.38Z" transform="translate(878 248.11)"/><path d="M-342.21,331.44c-.87,8.65-2.45,16.5-5.68,24-3.3,7.67-9.14,12.12-17.14,13.75-17,3.49-34.11,6.85-51.19,10.21-4.66.92-9.36,1.66-14,2.41a9.07,9.07,0,0,1-2.4-.27,8.6,8.6,0,0,1,.44-2.31q9.38-18.11,18.87-36.12a4.21,4.21,0,0,1,2.44-1.92c7.41-1.77,14.81-3.72,22.31-5,14.49-2.42,29.06-4.38,43.58-6.61C-342.92,329.3-341.83,329.64-342.21,331.44Zm-2.72.63c-2.25.26-4.17.44-6.08.7-10.34,1.45-20.67,3-31,4.36-9,1.24-18,2.38-26.56,5.69a7,7,0,0,0-3.38,3c-5.61,10.57-11.06,21.21-16.56,31.84-.17.34-.28.72-.54,1.39,8.28-1.45,16.31-2.72,24.28-4.27q20-3.88,39.89-8.08c7.32-1.54,12.07-6.25,14.92-13S-345.83,339.78-344.93,332.07Z" transform="translate(878 248.11)"/><path d="M-761.33,345c-1.57-.47-2.44-.68-3.28-1q-34.62-12.7-69.27-25.39c-2.35-.85-3-1.82-2.47-4.4,1.62-7.46,2.94-15,4.24-22.51.37-2.17,1.18-2.42,3.06-1.61q25,10.77,50.06,21.42a10.34,10.34,0,0,1,5.79,5.71c3.61,8.42,7.35,16.78,11,25.17C-761.91,343-761.77,343.64-761.33,345Zm-3.32-2.31c-3.18-7.32-6.06-14-9-20.66-4.17-9.52-4.32-9.16-14-12.89-13.11-5.07-26-10.76-39-16.18-.83-.35-1.69-.65-2.68-1-.15.66-.24,1.05-.32,1.45-1.35,7.06-2.55,14.17-4.13,21.19-.64,2.83,1.05,3,2.79,3.66q29.71,10.93,59.4,21.91Z" transform="translate(878 248.11)"/><path d="M-846.29,273.58c2.2.36,9.4,15.4,8.73,17.83C-839.33,290.69-845.46,278.26-846.29,273.58Z" transform="translate(878 248.11)"/><path d="M163.72,33.49a35.48,35.48,0,0,1,13.22-3.81c5.89-.68,11.7-.32,17.18,2.23,8.59,4,12.2,12.2,9,21.11a29.23,29.23,0,0,1-4.28,8.31c-3.78,4.77-8,9.19-12.14,13.67-1,1.09-2.43,2.09-3.44,0q-9.83-20.37-19.56-40.8C163.66,34.05,163.72,33.86,163.72,33.49ZM185.5,73.63c7-6.79,13.39-13.66,15.53-23.29,1.78-8-1.45-13.76-9-16.86-5.83-2.38-11.9-2.6-18-1.67-2.52.39-5,1.21-7.71,1.88C172.79,47.23,179.07,60.27,185.5,73.63Z" transform="translate(878 248.11)"/><path d="M167.17,192.5a32.89,32.89,0,0,1-3.08,1.42c-1.72.6-2.41,1.53-2.4,3.53.12,14.71.07,29.41.07,44.11v3.08l-6.51,1.75c5-2.3,4.33-6.71,4.28-10.88-.15-13.25-.32-26.51-.37-39.77a2.67,2.67,0,0,1,1.58-1.94c2.11-.6,4.32-.87,6.49-1.26Z" transform="translate(878 248.11)"/><path d="M167.23,192.54l54.87-10.73c.07.34.13.67.2,1-5.1,1-10.19,2-15.28,3-10.76,2.06-21.5,4.15-32.27,6.11a70.43,70.43,0,0,1-7.57.59Z" transform="translate(878 248.11)"/><path d="M-286.75,302c.68-25.15,4.06-49.68,13.83-73,8.17-19.5,20.17-36,38.43-47.27,9.09-5.62,18.64-10.12,29.51-11.15A34.25,34.25,0,0,1-186.92,174c24.36,11.46,40.82,30.06,46.72,56.37,4.73,21.09,5.87,42.74,4.73,64.41-.93,17.59-3.79,34.77-10.41,51.18a99,99,0,0,1-37.51,46.46c-28.59,19.12-65.93,10.9-84.88-16.68A94.36,94.36,0,0,1-284,333.46C-285.33,323-285.87,312.49-286.75,302Zm149.41-18.48a307.8,307.8,0,0,0-4-48.12c-4-24.86-17.33-43.56-38.68-56.48-10-6-20.88-8-32.33-4.56a83.59,83.59,0,0,0-34.57,20.36c-13.68,13.33-22.23,29.71-27.52,47.82a233.46,233.46,0,0,0-8.52,84,111.17,111.17,0,0,0,9.93,39c14.88,31.69,55.1,48.85,89.64,24.08,16.35-11.73,28-27.1,35.47-45.65C-139.89,324.13-137.41,303.31-137.34,283.52Z" transform="translate(878 248.11)"/><path d="M22.42-171.67c4.3-.08,10.36,3.69,11.93,7.33s-.44,7-4.65,7.33a15.4,15.4,0,0,1-12.56-4.34c-1.72-1.66-3-3.64-2-6.11a6.63,6.63,0,0,1,5.69-4.09C21.38-171.62,22-171.64,22.42-171.67Zm-1.73,11c3.31,2,6.88,2.83,9.32,2.29,3.17-.7,4.48-3.07,2.74-5.55-1.24-1.77-3.09-3.13-5.07-5.07C27.87-162,27-161,20.69-160.65Zm4.43-5.46c-.66-1.24.42-3.92-2.55-4.12-2-.14-4.53,2-4.52,3.73,0,1.89,2.19,3.61,4.52,3.66C24.63-162.8,25.26-163.94,25.12-166.11Z" transform="translate(878 248.11)"/><path d="M32.86-132.63l-.72,3.37-.62.17c-.23-.6-.8-1.33-.64-1.79.79-2.29-.5-3.21-2.27-4a26.1,26.1,0,0,1-2.53-1.54l-1.52,2.88-.74-.09.55-4.06-1.76-2,.29-.43,2.43,1.32,2-3,.9.4-1.42,4L31-135c.31-.27.4-.31.43-.38.44-.9.86-1.81,1.3-2.72a21,21,0,0,0,.51,2.87,2.22,2.22,0,0,0,1.09,1.34,31.81,31.81,0,0,0,3.87.73c.1-1.29.17-2.34.25-3.4l.73-.21,1.16,3.52,4.82-1.17c-.25-1.1-.43-1.9-.62-2.71l.52-.38,1.91,2.31,4.89-1.35c-.08-.81-.16-1.59-.26-2.56l6.1,3.62-3.54.33a26.82,26.82,0,0,1,.86,3c.07.36-.32.79-.5,1.19-.32-.21-.8-.36-.92-.65-.42-1-.73-2.06-1.2-3.48l-5.07,1.5,1.21,3.49-.58.39-2.22-3.16-5.38,1.33c.09.88.17,1.75.26,2.62C38.89-131.93,35.76-131.94,32.86-132.63Z" transform="translate(878 248.11)"/><path d="M39.3-144.16a9.94,9.94,0,0,1,2.54.47c5.23,2.54,9.45,1.55,13.12-3.5-8.34-4.95-12.61-12.79-15.21-21.89,1.44-.79,2.4-.57,2.84.93,2.54,8.78,6.8,16.28,15.31,20.47C54.35-140.24,44.22-138.19,39.3-144.16Z" transform="translate(878 248.11)"/><path d="M31.84-179.9c-1.86-.81-3.72-1.6-5.56-2.42-7.89-3.51-10.6-2.56-14.61,5.86-.43-1.51-1-2.42-.89-3.24.64-4.64,4.77-7.83,9.33-6.71a79.71,79.71,0,0,1,11.12,4.15c.56.23.83,1.19,1.23,1.81Z" transform="translate(878 248.11)"/><path d="M47.09-179.24c4.38.79,9.19,3.88,12.23-2.37,1.63.21,2.52,1,1.5,2.59A6.84,6.84,0,0,1,58-176.31c-3.56,1.46-6.95.26-10.22-1.25a1.59,1.59,0,0,1-.62-.77A2.9,2.9,0,0,1,47.09-179.24Z" transform="translate(878 248.11)"/><path class="cls-1" d="M-553.49,207.46q16.68-9,33.37-18,46.22-24.83,93.74-47.05a73.92,73.92,0,0,1,47.86-5.61c5.38,1.13,10.75,2.43,16,3.89a20.31,20.31,0,0,1,5.7,2.76c3.51,2.34,3.66,5.1.59,7.93a18.83,18.83,0,0,1-3,2.3c-26.54,16.16-54.06,30.25-83.64,40a207.8,207.8,0,0,1-46.81,9.54c-20.9,1.89-41.85,3.17-62.78,4.71-.32,0-.64,0-1,0Z" transform="translate(878 248.11)"/><path class="cls-1" d="M-652.88,297q37.35,0,74.71.06a4.2,4.2,0,0,1,2.89,1.38q26.56,34.24,52.95,68.6a68.17,68.17,0,0,1,5.84,9.24c1.49,2.77.84,3.78-2.32,3.67-9-.31-18-.54-27-1.27-17.61-1.44-35.24-2.82-52.78-4.9-25.7-3.05-51.53-5.45-76.76-11.65-11.67-2.87-22.91-6.91-33-13.64-14.3-9.53-22-22.78-22.5-40-.06-1.86-.11-3.72-.23-5.58-.14-2,.67-2.79,2.77-2.86,8.33-.26,16.64-.8,25-1.06,16.82-.53,33.64-1,50.46-1.41Z" transform="translate(878 248.11)"/><path class="cls-1" d="M-319.08,252.38c-7.09,10.06-13.87,19.73-20.69,29.36-6.68,9.44-13.72,18.63-20,28.32-5.71,8.84-13.23,14.41-23.6,16.11-7.68,1.25-15.38,2.45-23.76,3.79,1-2.12,1.6-3.48,2.27-4.81,6.15-12.3,12.24-24.63,18.51-36.87a134,134,0,0,1,7-11.83,24.2,24.2,0,0,1,13.58-10.22C-350.44,261.59-335,257.1-319.08,252.38Z" transform="translate(878 248.11)"/><path class="cls-1" d="M-344.93,332.07c-.9,7.71-2.16,14.88-5,21.66s-7.6,11.46-14.92,13q-19.92,4.2-39.89,8.08c-8,1.55-16,2.82-24.28,4.27.26-.67.37-1.05.54-1.39,5.5-10.63,10.95-21.27,16.56-31.84a7,7,0,0,1,3.38-3c8.53-3.31,17.56-4.45,26.56-5.69,10.33-1.41,20.66-2.91,31-4.36C-349.1,332.51-347.18,332.33-344.93,332.07Z" transform="translate(878 248.11)"/><path class="cls-1" d="M-764.65,342.69l-6.86-2.55q-29.7-11-59.4-21.91c-1.74-.64-3.43-.83-2.79-3.66,1.58-7,2.78-14.13,4.13-21.19.08-.4.17-.79.32-1.45,1,.38,1.85.68,2.68,1,13,5.42,25.87,11.11,39,16.18,9.64,3.73,9.79,3.37,14,12.89C-770.71,328.69-767.83,335.37-764.65,342.69Z" transform="translate(878 248.11)"/><path class="cls-1" d="M185.5,73.63c-6.43-13.36-12.71-26.4-19.22-39.94C169,33,171.47,32.2,174,31.81c6.12-.93,12.19-.71,18,1.67,7.57,3.1,10.8,8.89,9,16.86C198.89,60,192.49,66.84,185.5,73.63Z" transform="translate(878 248.11)"/><path class="cls-1" d="M-137.34,283.52c-.07,19.79-2.55,40.61-10.58,60.45-7.51,18.55-19.12,33.92-35.47,45.65-34.54,24.77-74.76,7.61-89.64-24.08a111.17,111.17,0,0,1-9.93-39,233.46,233.46,0,0,1,8.52-84c5.29-18.11,13.84-34.49,27.52-47.82a83.59,83.59,0,0,1,34.57-20.36c11.45-3.47,22.37-1.47,32.33,4.56,21.35,12.92,34.67,31.62,38.68,56.48A307.8,307.8,0,0,1-137.34,283.52Z" transform="translate(878 248.11)"/><path class="cls-1" d="M20.69-160.65c6.32-.39,7.18-1.36,7-8.33,2,1.94,3.83,3.3,5.07,5.07,1.74,2.48.43,4.85-2.74,5.55C27.57-157.82,24-158.64,20.69-160.65Z" transform="translate(878 248.11)"/><path class="cls-1" d="M25.12-166.11c.14,2.17-.49,3.31-2.55,3.27-2.33,0-4.51-1.77-4.52-3.66,0-1.69,2.51-3.87,4.52-3.73C25.54-170,24.46-167.35,25.12-166.11Z" transform="translate(878 248.11)"/></svg>