<svg xmlns="http://www.w3.org/2000/svg" id="Layer_1" data-name="Layer 1" viewBox="0 0 1200 1550"><defs/><defs><style>.cls-1{fill:#fff}</style></defs><path d="M0 1545.8V1211a13.8 13.8 0 003-1.3c6-4.2 11.7-8.6 17.6-12.8 14-9.8 27.8-20 42.3-29 17.8-11 36-21.3 54.5-31.2 21.1-11.3 42.5-22.3 64.2-32.7q35.5-17 71.7-32.5a824.7 824.7 0 0173.1-26.6c9.7-3 19.4-6 29-9.2 4.2-1.4 7.9-1.2 11.2 2.1 6.6 6.8 14 13 20 20.2a358 358 0 0143.3 66.8c4.4 8.6 9.2 17 13.7 25.6.8 1.4 1.3 2.9 2 4.4 3.2 6.8 6.3 13.7 9.7 20.5.5 1 2.1 1.6 3.2 2.4a16.7 16.7 0 002-3.4c1-3.2 1.7-6.5 2.5-9.8l3.1-12.6c.8-3.3 1.2-6.7 2.1-10 3-11.3 6.3-22.6 9.4-34l14.9-55c5.7-21 11.6-42 17-63 1.2-4.6 3.5-7.2 7.8-8.8 10.3-3.7 20.5-7.7 30.8-11.7 21.6-8.4 43.2-16.9 64.7-25.5q30.7-12.3 61.3-25c6.4-2.6 12.8-5.5 19-8.3 3.5-1.5 6.5-1.8 9.4 1.1a27.8 27.8 0 003 2.4c14.1 11.2 28.4 22.3 42.5 33.6 18 14.5 35.9 29.3 54 43.8 3.7 3 4.9 6.4 4.8 10.9a646.5 646.5 0 004.2 80.2c2.1 18 4 36.2 7 54.1a758.9 758.9 0 0015.7 75.3c1.7 6.5 3.8 13 6 19.4.8 2.3 2 5.1 4 6.4 4.2 2.6 8.7 5.2 13.4 6.3a204.3 204.3 0 0043.7 4.8c21 .3 42 .3 62.9-.2 22.4-.6 44.7-2.9 66.5-8.8 6.3-1.8 12.5-4.3 18.7-6.6 2.2-.8 4.7-2 4.7-4.9s-2.8-3.6-5-4.3a58.1 58.1 0 00-8-2c-15.8-2.4-30.5-8-44.8-14.8a726.7 726.7 0 01-72-38.5 284 284 0 01-28.4-19.4 138.2 138.2 0 01-45-65.7 300.6 300.6 0 01-12-48.8c-1.7-10.6-4.7-21-4.4-32 .2-5.8-.3-11.6 0-17.4a9.2 9.2 0 00-3.7-8.7c-6.6-5.2-12.9-10.7-19.4-16q-17.8-14.4-35.8-28.7l-42.3-33.2a34.1 34.1 0 01-3-3.1c2.8-3 6.2-3.7 9.2-5l55.8-24.2 84.5-36.1c25-10.7 50.1-21.2 76-30a651.3 651.3 0 0182.9-23 400.4 400.4 0 0171-7.5c24.9-.5 49.8-.6 74.5 1.8l16.3 1.7v622.3c-14.4-1.6-28.8-3.5-43.2-4.9-31.8-3-63.6-6-95.4-8.4q-40-3-80.2-4.3c-50.8-1.7-101.6-1.4-152.4-.5-32.8.6-65.8 1.5-98.6 3.2-35.4 1.9-70.8 4.7-106.1 7.4-17.2 1.3-34.4 3-51.6 5q-44.1 5.2-88.3 11c-23 3-46 5.9-69 9.6-34 5.4-68 11.2-102 17.5-20.4 3.7-40.6 8.6-60.9 13.3q-33.9 8-66.9 19.1c-15.9 5.4-31.8 10.7-47.2 17.1-21.5 9-42.7 18.4-63.6 28.2-19.4 9.2-38.4 19.1-57.6 28.7l-17 8zm112.3-223.5l-.4 1.5c3.5 1 7 1.8 10.2 3.3a40.1 40.1 0 019 5.6c2.7 2.3 5 5.3 7.5 8.1l6.6-.4a42.3 42.3 0 00-4.6-11.8c-2-3.4-3.3-7.3-6.5-10-.5 6.8 5.4 11.3 6 17.5-4.3-3.3-8.5-6.9-13-9.8s-9.3-5.2-14.8-4zm925-212a12.6 12.6 0 011.7 2.8c.4 1.6.4 3.2.6 4.8.3 1.8.8 3.6 3.5 4.4a43.4 43.4 0 01-.7-21.2c-4.7-.2-7 2-8 6a30.4 30.4 0 00-.5 15.2c0 .2.7.4 1.5.9 1.4-4.2-.7-8.6 2-13zm-570 246.8l-1.3.4v6.6c-4 .7-5.7-4.2-9.7-3.3.2.9.2 1.4.5 1.7a7.3 7.3 0 002 2 20.6 20.6 0 019.4 9.6c5.4-1 5.5-1 3.5-5.6-1-2.3-1.8-4.7-2.7-7.1l-1.7-4.3zm644.5-39.1l-1-1.3a18.6 18.6 0 00-3.8 2.3c-3.4 3.4-7 6.7-10 10.5a126.4 126.4 0 00-8.3 14c-1 1.8-1.5 3.9 0 5.8 3.3-5.9 6-11.9 9.9-17s8.8-9.6 13.3-14.3zm-55 11.7c-1.8 2.3-.8 3.4.2 4.5l5.3 6.2c5 5.5 9.5 11.3 11.8 18.6.1.3.7.4 1.3.9 1.5-2.4.5-4.5-.4-6.5-2.7-6-7-11-11.3-16l-7-7.7zm18.1-8.6c-2.6 6 2 29.2 7 33.7.1-.9.6-1.7.4-2.3a171.9 171.9 0 01-6.3-30.6c0-.3-.7-.5-1-.8zm-14.4-369.6c.2 6 2.8 10.2 4.6 14.6s1.8 9.2 5.7 13.2c.6-5-2.6-15.5-7.4-24.9-.4-.8-1.4-1.4-3-2.9zm-2.5 136.6l-1.3-.4a35 35 0 00-6 28.9c1-4.7 1-9.7 2-14.3 1.2-4.9 3.5-9.5 5.3-14.2zm21.5-137.3a26.2 26.2 0 00-2.1 24 72.6 72.6 0 00.7-7.9c.1-2.6.2-5.1.5-7.7s2.2-5 1-8.4zm-94.9-80c.7-6.5-3-11-7.1-15.2 1.1 5.6 4.4 10.3 7.2 15.2zm78 107l1-.8c-1.7-4.6-2.4-9.7-6-13.6-1 4.7 1.6 8.5 2.7 12.7.2.7 1.5 1.2 2.3 1.7zm-581.2 376.7c-5.8 6-7.6 12.9-4.7 16.8zM148 1335.2l1.2.1c0-3.1-.4-6.4 0-9.4s2.1-6 3.5-9.8a18 18 0 00-4.7 19.1zM647.4 1110c1.5-5 1.4-6.3-.5-9.7-.8 3.6-1.3 6.7.5 9.7zm-11.9-4.6c-.3.8-.6 1.1-.5 1.4l1.9 7.7c1.8-2.3 1.8-2.3-1.4-9.1zM990.7 858h-1.3c-.3 2.4-.6 4.8 1.3 7.1zm12-1.6c-3.8 1.9-4 2.5-2.4 6.5zm-368.4 244.5l-.4-.8a3.1 3.1 0 00-.6.9l.5.6z" class="cls-1"/><path d="M0 625.5v-632h1200v283.6a1.2 1.2 0 01-.5-.2l-58.7-58.9c-1.3-1.3-2.5-2.8-4-4.6 2.9-2.6 5.3-4.9 7.8-7a95.6 95.6 0 0031.7-75 60 60 0 00-6.7-28A87.1 87.1 0 001116 61a122 122 0 00-40.7-4.5c-8.5.3-17.1-.1-25.6-.1-2.5 0-3.9-.8-4.4-3.4-.4-2-1.5-3.8-2.4-5.7a44.2 44.2 0 01-2.3-4.7 41 41 0 00-33.2-29.6 69.9 69.9 0 00-30.7.9 220.6 220.6 0 00-22.4 7.5c-3.1 1.1-5.5 1.2-7.8-1.4-2.6-2.8-5.5-5.5-8.3-8.1s-5.8-5.7-8.9-8.2c-2.3-2-3.3-1.5-4.6 1.3-.5 1-1.3 2.4-2.2 2.8-2.5 1.1-3 3.2-3.6 5.4l-8.5 33.3a15.6 15.6 0 01-4.6 7.7 188 188 0 00-7.9 7.8c-12.4 13.3-22.1 28.5-32.1 43.5-2.5 3.7-5.1 5.3-9.4 5.2a102.2 102.2 0 00-26 2.6 104.3 104.3 0 00-66 45.3 73 73 0 00-9.8 23c-1.8 7.5-1.8 15-2 22.6a54.3 54.3 0 0026 47.9c4.8 3.3 10.2 5.5 15.3 8.2l3.3 1.7a31.9 31.9 0 01-2 4l-26.4 37-37.4 52.3-26.1 36.5c-1 1.4-2.2 2.6-3.5 4.1l-2.3-3.3c-6-10.3-11.5-20.9-17.8-31-9.4-15-19.3-29.7-29-44.6-20.8-32-41.3-64.2-62.3-96.2-15.6-23.9-31.6-47.5-47.4-71.2l-8.1-11.5a12 12 0 00-10.5-5 42.8 42.8 0 01-1.6 6.2l-8.5 19c-7.8 18.5-16 37-23.3 55.7-7.8 19.9-14.8 40.2-22 60.3q-13 35.9-26.2 71.7a22.4 22.4 0 01-2.5 4l-14.5-21.9c-1.3-2-.8-4 .3-6a56.6 56.6 0 005.8-17.8 88.2 88.2 0 00-7-55.2 64.5 64.5 0 00-35.5-33.1c-14.9-6-30.6-7.7-46.4-8.2-17-.6-32.1 4.4-45 15.6a26 26 0 01-3 2 9.5 9.5 0 01-1.1-.9 4.6 4.6 0 01-1-1c-2.8-6-7.7-7.9-14-7.5a61 61 0 00-6.7.5 65.2 65.2 0 00-39.6 23.1 108 108 0 00-14.3 22.4c-8.3 17.1-15.6 34.7-14.7 54.4a3.8 3.8 0 01-2.7 4l-2.7 1a42.3 42.3 0 00-25.4 23.3 63.5 63.5 0 005.8 62.6c14 20.8 36 27.4 58.5 19.6a124 124 0 0048.5-30c2.3-2.3 4.4-3 7.7-2a76.6 76.6 0 0024.4 3.4l14.5-.6a19.3 19.3 0 013.5.5l-3.3 6c-8.6 14.3-17.4 28.6-25.8 43-11.9 20.7-24 41.3-35 62.4-16.5 31.4-32.1 63.2-48.1 94.8l-3.1 5.2-1.2-.1c-.4-1.8-1-3.5-1.3-5.3l-6.4-38.2c-2.4-14.5-4.5-29-7-43.4-2.3-13.2-4.7-26.4-7.3-39.5a34.8 34.8 0 00-6.7-15 20.7 20.7 0 00-3.2 3.5 28 28 0 00-2.2 5.3l-16 47.7c-.7 2.4-2 4.6-3.2 7.6-2.2-2-3.8-3.6-5.3-5.2-4.3-4.5-6.2-4.3-9.7 1a69.4 69.4 0 00-4 6.6c-7.6 14.9-15 30-23 44.7-11.7 21.8-24 43.4-36.2 65a31.6 31.6 0 01-2.7 3.4c-5.4-6-9.2-12.7-14-18.6a742.7 742.7 0 00-30-34.7c-5.3-5.8-9.7-12.1-15.6-16.7-4.7.8-7 3.5-8.6 7.4C12 597.6 7 610 2 622.4a19.2 19.2 0 01-2 3zm309.6-551a26 26 0 00-15 5.3 29.7 29.7 0 00-10.9 18.8 43.6 43.6 0 00-.1 10c0 1 1.4 2.7 2.1 2.7a4.5 4.5 0 003.3-2c.9-1.6 1-3.7 1.5-5.5 1-3.7 1.9-7.5 3-11.1 1.8-6 6.1-8.1 12.1-8.1 6.6 0 12.2 2.5 18 5 5 2.3 9.8-.1 11-5.4.5-1.8.6-3.5 1-5.3 1.2-5.9 4.4-8.9 10.4-9.7a23.1 23.1 0 0115 2.3c2.8 1.6 5.4 3.6 8.2 5.1s5.1.8 7-2c1.6-2.5 1.4-5-1.1-6.7-3.7-2.5-7.5-5.3-11.7-6.7-13.2-4.4-27.5-1-35 14-1.8 3.9-1.8 3.8-5.7 2.6-4.4-1.3-8.8-2.2-13.1-3.3zM138.8 88c-4 .4-8.9.6-13.6 1.5-14.2 2.9-24 14.7-22.8 28a6.9 6.9 0 000 1c.4 2.7-1 3.9-3.5 4.2l-3.3.5a23.4 23.4 0 00-15.2 8.6c-5.2 6.3-7.1 14-9.3 21.5a1.6 1.6 0 00-.1 1c.4 1 .7 2.4 1.5 2.7a3.3 3.3 0 002.9-.8 15.8 15.8 0 002.5-4.1 97.6 97.6 0 004.1-9.8c2.3-7 7.4-9.8 14.3-10.3 2.5-.1 5.1 0 7.7-.2 6.6-.4 9.7-4.7 8.4-11a53.4 53.4 0 01-1-10 10.2 10.2 0 016-9.8 26.3 26.3 0 019.1-2.6c7-.6 14-1.8 21 1.1 2.7 1.1 6.9-2.4 7.4-5.5.5-2.7-.9-4.4-4.6-5a112.1 112.1 0 00-11.5-1zM60.3 329.5l3 .3c8 .5 11.2-4 8.6-11.5a18.8 18.8 0 01-.9-6.6c.2-4.7 2.6-6.7 7.2-6.3a14.6 14.6 0 018.7 3.9c2.2 2 5 1.5 7-1s2-5.5-.2-7.3a18.5 18.5 0 00-11.7-5c-10.8-.5-19.2 7.3-20 18.5-.3 5.2-.2 5.5-5.4 6-6.9.8-12 4.4-16.1 9.6-3.9 5-6 10.7-4.7 17.1.4 1.7 1.2 3.5 3 3.3 1.3-.2 2.6-1.6 3.4-2.8.6-.8.5-2.2.8-3.3.4-2.2.7-4.4 1.3-6.6a10.3 10.3 0 019-7.7c2.5-.4 5-.5 7-.6z" class="cls-1"/><path d="M1200 1405.5v151H0v-3c2.9-1.3 5.8-2.5 8.7-4 31.7-15.9 63.2-32 95.6-46.4a835.6 835.6 0 0182-31.8c24.5-8 49.3-14.8 74.4-20.8a1257 1257 0 0190.6-18.3c39.4-6.4 79-12.4 118.6-17.8 37.8-5.1 75.8-9.5 113.8-13.8s76-7 114.2-9.3c46.8-2.8 93.7-4.8 140.7-5 53-.2 106-1.3 159 1.8 31.6 1.8 63.2 3.5 94.6 6.3 36 3 71.9 7.3 107.8 11zm-567.8 136.8c3-4.6 2.4-8.1-1-11.5a34.1 34.1 0 01-3.5-4.6c-3.7-5.2-7.5-10.4-11-15.7-1.5-2.2-2.3-4.8-3.8-8a9.3 9.3 0 00.7 9c2.9 4.5 6 8.8 9 13.1l5 7a5.9 5.9 0 01-3.7-1.4l-15-11.4q-10.6-8-21.3-15.7c-1.3-1-2.6-2.4-5.3-1.4a27.8 27.8 0 003 3.3l13.2 9.8c10.6 8 21.8 15.3 31 25.2a27.5 27.5 0 002.7 2.3zM349.7 1498c-7.8-5.7-10.3-13.4-10.2-22.5.1-9.6 5.1-16.2 13.7-21.2-1.4-.3-2-.7-2.3-.5-4.1 1.5-8 3.7-10.2 7.5a30.6 30.6 0 00-1.2 29.2c1.8 4.1 5.3 6.7 10.2 7.5zm297.8 31.6a80 80 0 0129.7-23.8c-10-.3-26.7 13.3-29.7 23.8zM355.6 1475c-2.6 1-2.9 3-3 4.9a44.4 44.4 0 003.5 21c1.4-9-1.6-17.3-.5-25.9zm16.1-2.2c-7.2 3.7-11.5 16.9-6.5 23 .6-4.5.6-8.5 1.7-12.2s3.2-7.2 4.9-10.8z" class="cls-1"/><path d="M0 625.5a19.2 19.2 0 002-3c5-12.5 10-24.9 14.8-37.3 1.5-4 4-6.6 8.6-7.4 6 4.6 10.4 11 15.5 16.7l15.4 17.4L71 629.2c4.9 5.8 8.6 12.6 14 18.6a34.2 34.2 0 002.7-3.4c12.1-21.7 24.4-43.2 36.3-65 8-14.7 15.2-29.8 22.9-44.7a65.5 65.5 0 014-6.7c3.5-5.2 5.4-5.4 9.7-.9l5.2 5.2c1.4-3 2.5-5.2 3.3-7.6l16-47.7a26.8 26.8 0 012.1-5.3 20.3 20.3 0 013.3-3.5 35.1 35.1 0 016.7 15c2.6 13.1 5 26.3 7.3 39.4l7 43.5q3 19 6.4 38.1c.3 1.8.8 3.6 1.3 5.4h1.2c1-1.7 2.1-3.3 3-5.1 16-31.6 31.7-63.4 48.2-94.8 11-21.1 23.1-41.7 35-62.4 8.3-14.5 17.2-28.7 25.8-43l3.2-6a19.5 19.5 0 00-3.5-.6l-14.5.6a76.5 76.5 0 01-24.3-3.3c-3.3-1-5.4-.3-7.7 2a124.1 124.1 0 01-48.5 30 48.2 48.2 0 01-58.5-19.6 63.5 63.5 0 01-5.8-62.7 42.4 42.4 0 0125.4-23.1l2.7-1a3.8 3.8 0 002.7-4.1c-.9-19.7 6.4-37.3 14.7-54.5a107.5 107.5 0 0114.3-22.3 65 65 0 0139.6-23.1 65.8 65.8 0 016.8-.5c6.1-.4 11.1 1.4 14 7.4a3.9 3.9 0 00.9 1 6.7 6.7 0 001 .9 25.1 25.1 0 003-2c13-11.1 28.1-16.1 45-15.6 16 .5 31.6 2.2 46.5 8.2 16 6.6 28.1 17.4 35.5 33.2a88.4 88.4 0 017 55.2 56.6 56.6 0 01-5.8 17.8c-1.1 2-1.6 4-.3 6l14.5 21.9a23.5 23.5 0 002.5-4l26.1-71.7c7.4-20.2 14.3-40.4 22.1-60.4 7.3-18.7 15.5-37.2 23.4-55.7 2.7-6.4 5.7-12.6 8.4-19a45.6 45.6 0 001.6-6.1 12 12 0 0110.5 5q4.2 5.6 8 11.4c16 23.7 32 47.4 47.6 71.2 20.9 32 41.4 64.2 62.2 96.3 9.7 14.9 19.6 29.5 29 44.6 6.3 10 11.9 20.7 17.8 31l2.3 3.3 3.5-4.1 26.2-36.6 37.3-52.3 26.4-37a34.9 34.9 0 002-4l-3.3-1.7c-5.1-2.7-10.6-5-15.3-8.2a54.4 54.4 0 01-26-47.9c.2-7.6.2-15 2-22.6a72.5 72.5 0 019.8-23 104.4 104.4 0 0166-45.3 102.1 102.1 0 0126-2.6c4.2.1 7-1.5 9.4-5.2 10-15 19.7-30.2 32-43.5a188 188 0 018-7.8 15.7 15.7 0 004.6-7.7l8.4-33.3c.6-2.2 1.2-4.3 3.6-5.4 1-.4 1.7-1.7 2.2-2.8 1.4-2.8 2.3-3.2 4.7-1.3 3 2.6 6 5.5 8.9 8.2s5.6 5.3 8.2 8.2c2.4 2.5 4.7 2.5 7.8 1.3a219 219 0 0122.4-7.5 69.9 69.9 0 0130.8-.8 41 41 0 0133.2 29.5 40.7 40.7 0 002.3 4.8 29 29 0 012.4 5.7c.5 2.6 1.8 3.4 4.3 3.4 8.6 0 17.1.3 25.6 0a122 122 0 0140.7 4.6 87 87 0 0153.6 42.3 60 60 0 016.8 28 95.6 95.6 0 01-31.7 75l-7.8 7c1.5 1.8 2.6 3.3 4 4.7l58.7 58.9a1.6 1.6 0 00.5.1v13.5a11.1 11.1 0 01-1.6-1l-33-32c-11.5-11.3-22.9-22.8-34.3-34.2-3.7-3.7-4.4-3.8-9.2-1.4l-5.7 2.7a124.1 124.1 0 01-63.9 9.2c-4.5-.4-5.1-.2-6 4a56.4 56.4 0 01-14.6 27 158.1 158.1 0 01-67.6 43.3c-17.5 6-35 4.5-52.2-1.5a86.6 86.6 0 01-26.4-15.7c-7-5.9-13.8-12.2-20.7-18.2a7 7 0 00-3.9-1.8c-6.7-.2-13.4-.3-20.2-.1-1 0-2.4 1.4-3 2.5-1.4 2.8-2.3 5.7-3.5 8.5-11.4 28.2-22.8 56.5-34.4 84.6-2.5 6-6 11.7-9.3 17.5-.7 1.4-1.5 3.3-4.2 3a15.3 15.3 0 01.3-3.3c1.3-4 2.7-8 4.2-11.9l22-56.2a14.7 14.7 0 00.6-2.8 12.2 12.2 0 00-3.5 4.2c-6.4 11.8-12.8 23.5-19 35.4-18 34.4-35.7 69-53.9 103.3-9.7 18.5-20 36.7-30 55.1-.8 1.3-1.4 2.8-3.9 3.4 3-10 7.7-18.6 11.7-27.5s9-17.3 11.8-26.6c-13 19.2-21.5 40.6-31.2 62.6h11c9 0 17.7 1.7 25.4 6.6a62.8 62.8 0 0117.9 15.3c1.6 2.4 3.7 3.4 6.6 2.7 9-2 18.1-3.4 26.8-6.2 10.3-3.3 20.1-7.9 30.2-11.7 5.4-2 11-3.6 15.2-8a8.7 8.7 0 012.1-1.2c6.9-4 14.2-3 20 2.2a21 21 0 004.9 3q8.4 4.2 17 8.2c1.5.7 3.2 1.8 4.8 1.7a52 52 0 0119.1 4.8 165.8 165.8 0 0034.9 9.7c4.5.7 5.3.4 6.1-3.9 1-4.4 3.6-7 7.6-8.6a63.6 63.6 0 017.3-2.6c7.8-2 15.6-3.7 23.4-5.8 3.9-1 7.5-2.8 11.4-4 1.5-.4 4.3-.7 4.9.1 3 4.5 7.9 8.5 5.9 15-.2.8.2 1.8.4 3.2 2-.3 3.7-.4 5.4-.8 21.7-4.7 43.4-9.6 65.2-14.1q35.1-7.3 70.7-11.1c20-2.2 40.1-3.9 60.3-4v7.8l-12 .6a534.3 534.3 0 00-66 5.7 1556 1556 0 00-68.2 11.8c-16.4 3.1-32.7 7.2-49 10.9a14.2 14.2 0 00-3.7 1.1c-.7.4-1 1.4-1.5 2.2.8.5 1.5 1.2 2.2 1.3a15 15 0 003.3-.6 39.4 39.4 0 016.7-1 5.5 5.5 0 013.6 1.8 43.6 43.6 0 0110 31 13.9 13.9 0 002 8.2c1.4 2.2 2.9 4.3 4 6.6a60.9 60.9 0 014 8.3c2 5.1.5 8.5-4.1 11.3a38.4 38.4 0 01-4.7 2.5c-13 5.6-26 11.2-39.1 16.6a24 24 0 01-9 2 115.3 115.3 0 01-15.2-1.4c-1.8-.3-3.4-1.5-5-2.4-.8-.4-1.4-1.4-2.3-1.7-2.5-.9-3.2-3-3.8-5.2l-1.6-6.3c-3 1.2-5.5 2.4-8 3.2-3 1-5.8 1.8-8.4-1.3-.8-1-2.8-1-4.3-1.2-2.6-.4-5.6 0-8-1a48.3 48.3 0 01-12.2-7.6 29.4 29.4 0 00-13.3-7.4c-2.3-.5-4.6-1.2-7-1.9-10.2-3-20.4-6-29.8-11a7.9 7.9 0 00-7-.1 45 45 0 01-16.6 2.6 33 33 0 00-9 1.3c-4.3 1.4-8.4 3.3-12.7 4.9-12 4.5-24 9.3-36.2 13.4-10.7 3.5-21.7 6.2-32.5 9.6-2 .6-3.8 2.1-5.6 3.4-2.7 2-5 4.6-8 6a77.2 77.2 0 01-41.5 8.7c-4.3-.3-4.5.1-5 4.5-1.1 11.4-2 22.8-3.7 34a297.6 297.6 0 01-17.6 66.2 129.4 129.4 0 00-8.2 62.7c.6 5.8 1.3 6.7 7 8.3 16.1 4.6 32.3 9 48.4 13.7 15 4.5 30 8.9 44.2 15.7l23.1 11a10 10 0 009.3 0c5.5-2.7 11.3-4.9 16.9-7.3l90.2-38.6A813.5 813.5 0 01999.1 779c31-8.6 62.5-15 94.6-16.5 19.8-1 39.7-1.2 59.5-1 15.6.2 31.2 1.6 46.8 2.4v9.7c-5.4-.6-10.8-1.3-16.3-1.8a642.4 642.4 0 00-74.4-1.8 401.4 401.4 0 00-71.1 7.6 651.3 651.3 0 00-83 23c-25.7 8.8-50.8 19.3-76 30l-84.4 36.1-55.8 24.2c-3 1.4-6.4 2-9.3 5a34.1 34.1 0 003.1 3.2c14 11 28.2 22 42.2 33.2q18 14.2 35.9 28.7c6.5 5.2 12.8 10.8 19.3 16a9.2 9.2 0 013.9 8.7c-.4 5.8 0 11.6 0 17.4-.4 10.9 2.6 21.3 4.3 32a300.6 300.6 0 0012 48.7 138 138 0 0045 65.8 282.9 282.9 0 0028.3 19.2 726.7 726.7 0 0072 38.6c14.4 6.7 29.1 12.3 45 14.8a58.1 58.1 0 018 2c2.2.7 5 1.3 5 4.3s-2.5 4-4.7 4.9c-6.2 2.3-12.4 4.8-18.7 6.5-21.8 6-44 8.3-66.5 8.9-21 .5-42 .5-63 .2a204.6 204.6 0 01-43.6-4.9 45.7 45.7 0 01-13.4-6.3c-2-1.2-3.3-4-4-6.4-2.3-6.3-4.3-12.8-6-19.3a759 759 0 01-15.8-75.3c-2.8-18-4.8-36-7-54.2a648 648 0 01-4-80c0-4.6-1.1-8-4.8-11-18.2-14.5-36-29.3-54-43.9-14.1-11.3-28.4-22.4-42.6-33.5a25.6 25.6 0 01-3-2.4c-2.8-3-5.9-2.7-9.2-1.1l-19 8.3-61.4 25c-21.5 8.6-43.2 17-64.8 25.5-10.2 4-20.4 8-30.7 11.7a11.4 11.4 0 00-7.8 8.8c-5.5 21-11.4 42-17 63l-15 55c-3 11.4-6.3 22.7-9.3 34-.9 3.3-1.4 6.6-2.1 10l-3 12.6-2.5 9.7a16.8 16.8 0 01-2.2 3.4c-1.1-.8-2.7-1.3-3.2-2.4-3.4-6.8-6.5-13.7-9.7-20.5l-2-4.4c-4.6-8.5-9.3-17-13.7-25.6a358 358 0 00-43.4-66.7c-6-7.3-13.3-13.5-20-20.3-3.2-3.2-7-3.5-11-2.1l-29 9.3a824.7 824.7 0 00-73.2 26.5Q217 1087 181.6 1104c-21.6 10.3-43 21.3-64.2 32.6-18.4 10-36.7 20.2-54.5 31.2-14.5 9-28.2 19.3-42.2 29-6 4.2-11.7 8.6-17.6 12.9A14 14 0 010 1211v-6.8a55.4 55.4 0 005-2.9c13.5-9.7 26.8-19.6 40.4-29.1a695.5 695.5 0 0166.4-39.5c18.6-10 37.2-20 56.2-29.2q38.5-18.5 77.7-35.7a684.1 684.1 0 0145-17.6c17.8-6.3 35.8-12 53.6-18l6.8-2.5c-2.1-3-3-3.4-6.9-4.9-16.3-6-33-6-49.4-1.4-20.7 5.7-41 12.4-61.6 18.5-3 .9-5.8 2.8-9.3 1.8a8.6 8.6 0 013.2-7.3l7.4-6.1c7.8-6.2 16.4-10.8 25.3-15 1.4-.6 3.2-.8 3.8-3.2a46.6 46.6 0 00-4.9-.8l-20.7-1c-8-.2-11.8-3.4-12.8-11.4a44.7 44.7 0 01-.4-5.8c0-5.6 0-11.3.4-17a165 165 0 0111.7-58c.5-1 .3-2.2.5-4-5.1 1.8-9.2.2-13-2.2s-7.4-5-11.1-7.6l-5.2-3.7a31.6 31.6 0 01-3.2 4.6c-5.4 5.1-10.5 5.4-16.4.7a55.9 55.9 0 01-6.8-6.1Q165.2 881.5 149 863c-3.5-4-3.3-9.2 0-13.4l20-26a42.5 42.5 0 002.4-4c-2.6-.7-4.4-1.2-6.3-1.5-13-1.8-25.8-3.9-38.8-5.2A252.1 252.1 0 0022 826.3l-22 7.3v-8.8c6.7-1.2 12.8-3 17.6-8.8 7.5-9 16-17.2 26-23.6 7.7-5 15.3-10.1 23.4-14.6 6-3.3 10.8-7.3 12-14.5a6.3 6.3 0 01.6-1.3c4.2-10 8.3-19.8 11.6-30.2 6.4-20.2 13.5-40.3 21-60.2 16-41.9 32.3-83.6 48.5-125.3 1.2-3 3-6-1-8.4-.7-.5-1-2-1.4-3l-2.2-5.2-3 5.8c-11.8 23.3-23 46.9-35.4 69.9a1732.9 1732.9 0 01-37 64.5c-20 33.5-40.6 66.6-59.1 101-3.6 6.6-7.4 13.1-11.2 19.7a36 36 0 01-2.8 3.5 3.6 3.6 0 01-.5-3.1 92.2 92.2 0 013.7-10l20-40.7 3-6.3a6 6 0 00-3 2.5L3 775.6a18 18 0 01-3.1 2.8v-9.7a27 27 0 003.3-3.4l22.8-33c6-8.5 12.2-17 18.3-25.4a15.2 15.2 0 017.6-5.7 8.8 8.8 0 004-3.7q10.3-16.7 20.3-33.5c4-6.9 4-7-1-13.5l-.9-1.2c-6.6-8.4-13.1-17-20-25.4C44 611.4 33 599.4 26.1 584.4l-1.3-2.9a28 28 0 00-2.6 3.7l-1.2 4.2-18.1 52.4a59.4 59.4 0 01-2.9 6zm1043.7-399.6c4 .4 6.8 1 9.6 1 5.8 0 11.6-.2 17.4-.6 15.7-1 31-3.6 45.6-10A85.6 85.6 0 001154 185a86.7 86.7 0 0013.5-52.5 53.8 53.8 0 00-5.7-21.4 72.3 72.3 0 00-26.1-29.1 115.4 115.4 0 00-52.8-18.7 74.2 74.2 0 00-20.2-.2 86 86 0 01-17.4.7c-6.2-.2-8.5-2-9.3-8.3a33.3 33.3 0 00-4.8-12.5 40 40 0 00-27-20.3 76.8 76.8 0 00-41.4 3.6A162.3 162.3 0 00921.5 50a125.7 125.7 0 00-26.1 25.6c-7.7 10.3-15.2 20.8-22.8 31.2a25 25 0 00-1.7 3.5l5 1.1c6.3 1.4 12.7 2.4 18.9 4.3 7.2 2.1 13.5 6 17.3 13 .9 1.5 2.4 3.2.8 4.8-1.7 1.7-3.2-.2-4.5-1.3a47.5 47.5 0 00-19.4-9.5 146 146 0 00-21-2.9c-21-1.5-41.5.4-60.8 9.8a82.7 82.7 0 00-39.7 38 67.5 67.5 0 00-6 27.1 57.6 57.6 0 009.8 38 60 60 0 0025.8 20.4c9.6 4.2 19.8 6.5 30 9.1 11.5 3 23 3 34.5 2.2a10.8 10.8 0 018 2.5c5 4 9.8 7.9 14.8 11.6 10 7.1 20 14.1 31.6 18.6a74.2 74.2 0 0053 1 154.5 154.5 0 0039.8-21.5A79.1 79.1 0 001040 236c1.1-3.7 2.6-7.2 3.7-10.2zM536.1 407.2l1 1c1.8-1 3.6-1.7 5.3-2.8a31.5 31.5 0 0112.5-5c6.5-1.1 10.5 1.7 11 8.2a46.7 46.7 0 01-1 13.8 115.8 115.8 0 01-11.5 29.1c-1.1 2-2.1 4-1.2 6.4 1.8 4.5 1.5 9.3.5 13.8-.8 3.6-.3 6.3 2.7 8.5l3.2 3c2.6 2.3 3.6 2.3 6.1-.1s4.6-5 7-7.3A51.7 51.7 0 01591 463c4-1.4 8.5-2.5 12 .4s3 7.5 2.2 11.8a53.6 53.6 0 01-7.5 17.1c-3.6 6-7.5 11.7-11.3 17.5-2.9 4.5-3 5 .3 9.4 3.4 4.9 7 9.6 10.4 14.6 2.1 3.3 4 3.7 6.3.1 7.2-10.5 14.7-20.8 22-31.1l52.4-72.5c5.5-7.6 10.8-15.3 16.2-22.9 1.6-2.3 2.3-4.4.6-7-3.6-5.3-6.8-11-10.3-16.3-11.2-17-22.7-33.8-33.7-50.8-13.6-21.2-27-42.5-40.5-63.7-1.2-1.8-2.6-3.4-3.9-5l-1.9.8c-5.4 3.6-9.2 3.3-13.8-1.1-1.9-1.8-3.4-4-5.3-5.7l-15.3-14a9.3 9.3 0 00-9-2.1 15.8 15.8 0 01-13.8-2.9 94.5 94.5 0 01-7.8-6.5c-3-2.6-5.7-5.6-8.9-8.1-3-2.3-5.2-1.3-5.7 2.4-.3 1.6-.1 3.2-.5 4.8a7.1 7.1 0 01-5.4 5.6c-3 .7-4-1.7-5.2-3.5l-9.7-15c-1.2-1.9-2-4-5-4.8a41 41 0 00-1.6 3.3L483 256.3l-16.1 45c-5 13.8-10.2 27.5-15 41.4q-8.7 25.1-17 50.4c-4.2 13-8.1 26-12.2 39.1-4.7 14.8-9.2 29.6-14 44.3-3 8.8-6.4 17.5-9.7 26.3a25.9 25.9 0 01-2.2 3.8l-1.3-.5c.9-9.2 3.7-18 5.8-27s5.2-18.1 6.8-27.4c-6.8 18-12.8 36.4-19.7 54.4s-14.6 35.8-22.3 53.5-15.5 35.2-25 52.1a9.5 9.5 0 01.3-4.5c4-14.4 10-27.9 15.8-41.6l2.8-7.3-1-.5c-1.6 2.6-3.3 5.2-4.6 7.9l-16 33.6c-12 26-24.3 52-41.6 75.1a19.1 19.1 0 00-1.4 3.6c3.2-.3 5.7-.4 8.2-.8 7.3-1 14.6-2.3 22-3.4l29.2-4c4.2-.5 4.5-1 5.5-4.9.7-3 1.3-6 2.2-8.9 6-18 17-31.3 35.7-37 2.6-.9 5.3-1.5 7.9-2.5a63.8 63.8 0 0145.8.4c3 1.1 5.2.8 7.5-1.2l23.7-20a5.6 5.6 0 002.2-5.8 64.7 64.7 0 01-1-9.2c-.3-10.7-.4-21.6-.6-32.4v-14.5c0-4.9-.9-5.2-5.2-6.6-3.2-1-6.6-2.3-9-4.4a186.3 186.3 0 01-37-43.2 61.9 61.9 0 01-7-51.5c8.5-18.4 21.8-33 38.2-44.7 2.3-1.6 3.8-3.2 3.3-6.2a6.4 6.4 0 01.5-3.8c2-3.6 5.2-.7 7.9-1.3 1.8-.3 3.7.1 4.2 2.3 1.4 5.3-3.4 11.7-7.3 10.9-3.3-.8-5.5.8-7.7 2.8a161 161 0 00-25.5 29.6 46.4 46.4 0 00-6 13 50.5 50.5 0 005.6 38.3 180 180 0 0033.8 42c.8.8 2 1.3 4 2.5a57.3 57.3 0 00-.5-6 237.4 237.4 0 01-3.8-45.8c0-8 .2-16.1.8-24.2A28.2 28.2 0 01479 422c3.6-4.7 8.4-7.2 14.3-6.2A24 24 0 01512 429c.7 1.5 1.7 2.8 2.9 4.8l3-3.5 12.4-15.3a15.8 15.8 0 001.7-3.8 19.6 19.6 0 00-3.4-1.4c-3.6-.7-5-2-5-5.3-.1-3.5 1.6-5.8 5.1-6.4a18.6 18.6 0 015.3-.2c3.2.4 4 1.8 3.4 5-.3 1.5-.8 3-1.2 4.4zm-73.3 215l3.7 4a44.7 44.7 0 019.6 13.2 59.4 59.4 0 015.8 23.7c.5 9.8.6 19.3-2.4 28.8-3.8 12-10.5 22-20.9 29.4-7.3 5.2-7.5 5.3-1.9 12.7 11.4 15 23 30 34.2 45 10.8 14.5 22.2 28.5 28.2 46a94.9 94.9 0 015.5 22.5 189.5 189.5 0 01-.9 45.8l-.2 2.4c-.3 2.3.5 3.8 2.9 4.2a74.3 74.3 0 008 1.5 136.7 136.7 0 0031.9-1.3q19-3.2 38-7a113 113 0 0041-15.2c4.4-2.8 7.9-6 10.3-10.6a65.2 65.2 0 013.7-6.8c1.7-2.5 1.5-4.7 0-7.2a52.3 52.3 0 01-3-6.5 115 115 0 01-8.5-37.6c-.8-16.8.1-33.4 5.9-49.6 5.1-14.5 10.5-29 14-44.2a326 326 0 009.2-58.6c.3-6.3 1-12.5 1-18.8a181.8 181.8 0 00-.4-22.2c-1-9.6-2.8-19-4.7-28.6-1.5-7.9-3.7-15.6-5.5-23.5-.6-2.4-2-3.8-4.2-5a109 109 0 00-50.7-12.2 36 36 0 00-4.8.8 16.5 16.5 0 002.3 1.8c8.1 3.8 12 10.5 12.8 19.1l.4 6.3c.5 10.3-2.1 20.2-3.2 30.3-.7 7-.4 14.1-.6 21.2-.1 3.5 1.5 5.9 4.4 8a13.3 13.3 0 014.5 6.5c1.3 4.1-.3 8-3.8 10.6-3.3 2.5-8.7 2.4-12.3-.2-2-1.4-3.6-3.2-5.6-4.6-7.3-5.2-15-6.4-23.1-2a26.2 26.2 0 01-5.7 2.7c-2.6.7-5.4 1.4-8 1-4.4-.5-6.5-4-4.7-8.1a28.3 28.3 0 0113.7-15.7c2.6-1.2 3.8-2.6 3.8-5.3a7.5 7.5 0 01.4-2.9c3.1-7.8 1-14.3-4-20.7-6.2-8.1-12-10.2-22-7.2-3 1-6.2 1.8-9.3 2.6a16.2 16.2 0 01-17-5.6 37.5 37.5 0 01-4.6-7.2c-1.9-3.5-2.3-3.7-5.8-1.5l-1.6 1c-18.5 12.4-35.3 27-52.4 41.3a44.7 44.7 0 00-3.4 3.4zM277.6 260.2a22.4 22.4 0 012.9-13.5l6.2-11c1.8-3 1.7-4.7-.6-7.3a10.5 10.5 0 00-9-3.6 52.8 52.8 0 00-41 21.4 133 133 0 00-22 48c-1.5 6.2-1.8 12.8-2.3 19.2-.4 4.3.2 4.6 4.4 5a53.7 53.7 0 016.7.9 25 25 0 015 1.8c2 1 2.6 2.7 1.7 4.4-.5 1-2.3 1.3-3.6 1.6-.7.1-1.5-.3-2.3-.4a55.4 55.4 0 00-21.7.7c-12.4 3.6-21.3 11-25 23.7a56.3 56.3 0 0026.6 67.4 43.4 43.4 0 0034.8.6c7.6-3 15-6.8 22.3-10.6a50.4 50.4 0 009.6-6.3c5-4.1 9.6-8.6 14.2-13a6.5 6.5 0 015.7-2c4.5.5 9 1.3 13.4 1.6 15 .9 30 .4 44.7-3.4a93.7 93.7 0 0047-27.1c8.3-9 13.8-19.3 15.1-31.7a71.3 71.3 0 011.4-8 30.4 30.4 0 011.9-4.7h1.1l3.9 6.7c3.1-1.2 3-4 3.5-6.2 3.4-16.4 3.8-32.9-1.6-49.1a62.5 62.5 0 00-40-41.6 126.3 126.3 0 00-50.6-6.2c-14.2 1-26.4 7-35.4 18.4-5.2 6.5-9.6 13.7-14.3 20.6zM418.3 333c-2.4 5.6-4 10.4-6.5 14.7a99.4 99.4 0 01-49.6 42c-5.4 2.3-11.3 3.6-17 5.4-1.7.6-4 .8-4.1 3.4-.2 3.9-2 7-4 10.3l-39.8 69c-21.4 37-39.1 75.9-59 113.7l-33.6 63c-2.6 5-5.6 9.9-8 15-5 10.2-9.6 20.7-14.5 31-1.4 3-3 5.9-5.2 10 2.7-.6 4.2-.7 5.5-1.3 13.8-6 28-10.6 42.4-15a450.8 450.8 0 0156-13c4-.7 6.9-2.2 9-6 4.7-7.8 10.2-15 14.7-22.7 11.3-19.4 20.6-39.8 30-60.1 8-17.3 15.9-34.6 26.6-50.4a59 59 0 018.5-10.3 17.5 17.5 0 005-6.9c6.8-18.4 13.5-36.9 20.4-55.3 2.5-6.6 5.1-13.2 8-19.7.9-2 2.7-4.8 4.5-5.2 4-.8 4.8-3.2 5.5-6.3.4-2 1.1-3.7 1.7-5.6l11.3-36.4q4.5-14.3 9.3-28.5c.8-2.4 1-4.6-.4-7l-13.3-23a56.9 56.9 0 00-3.4-4.8zM25.5 816a22 22 0 003.8-.2c7.7-2 15.5-4.4 23.3-6.2 9.6-2 19.3-4.3 29-5.4a264 264 0 0167.5 1.2c9 1.2 17.9 2.7 26.8 4.4a8.4 8.4 0 007.9-2.3c3.7-3.6 7.5-7 11.5-10.4 2.7-2.2 5.7-4.2 8.6-6.2 1.8-1.2 4-2.1 5.5-3.6a42.4 42.4 0 0127.8-10.9 65.1 65.1 0 0125.7 3.8c17.7 6.6 35.6 12.5 53.2 19.2 17.5 6.6 35 13.4 51.2 22.7a45 45 0 004.7 2c3.5-4 7.4-7.6 6.7-13.8-.3-3.6.3-7.4.7-11l7.9-62.4c.3-2.7 1.9-5.9 1-7.9-1.2-2.2-4.4-3.5-6.8-5-14.6-9.1-22.2-22.1-22.5-39.3V680c-.2-2-1.2-3-3.2-2.8l-2.4.3c-22.6 3.5-45.3 6.8-67.9 10.4a472.3 472.3 0 00-82 20.7 394.8 394.8 0 00-46.3 19.4c-19.3 9.7-37.1 22-54.9 34.2Q84.1 775 65.1 786.6c-10.7 6.6-21.6 12.9-31.2 21-2.9 2.3-6.1 4.5-8.4 8.5zm356.2 143a12.2 12.2 0 012.2 2.2c1.8 3 3.6 6 5.2 9.3l17.9 37c1.9 4 2.4 4.3 6.6 3l5.1-1.5c20.7-7.2 41.3-14.6 62-21.6 4.7-1.6 7.2-4.1 8.5-8.8 5.4-18.6 11-37 16.6-55.6 1.3-4.8 2.3-9.7 3.5-14.5a42.6 42.6 0 011.8-5l2.6-5.8c3.4-8 3.6-16.6 4-25.1.6-16-1.3-31.6-8.2-46.3-2.6-5.7-2.9-6-9-5.2l-37 5c-5 .7-10 1.2-14.9 2-3.4.5-3.9 1.2-3.4 4.4a59.7 59.7 0 01-1.5 24.8 62 62 0 01-26.9 37 32.5 32.5 0 01-42.2-5.5 49.8 49.8 0 01-6.5-10.7c-1.3-2.7-2.8-4-5.7-4.3-6-.5-11.6-2.7-17-5.4l-13.4-6.7c-4.2-2-4.7-2-7 1.8l-22.4 35.6c-2.5 4-5.6 5-9.8 2.8a41.2 41.2 0 01-5.2-3.6l-4.4-3.3c-4 3.1-4.1 3.7-1.5 6.6a70 70 0 0112.4 21.1 21.1 21.1 0 011.8 6.5 14.8 14.8 0 002.8 8l16.6 22.6c2.3 3 4.3 6.2 3.6 10.2-1 5-2 10.1-5.2 14.4a20 20 0 00-1.4 3.6l3.9-1.7c11.7-5.8 23.2-12 35-17.4a122.5 122.5 0 0120.6-6.7c3.4-.7 7-.3 9.9-3.1zm286-97.5c-.6.3-1 .3-1.2.5l-4.4 6.3c-2 3-1.9 3.4 1 5.4l2.5 1.6c18.1 10.4 23.6 13.5 45.1 31.1a19.2 19.2 0 001.6 1.1c6.4 4.5 13.1 8.8 19.4 13.6q20.1 15.4 39.9 31.3c8.7 7 18.1 13 25 22a11.3 11.3 0 002.2 1.8l13.9 10.5a5.9 5.9 0 012.7 4.8c0 5.2.2 10.3.4 15.5.6 15.1 1 30.3 1.8 45.4.7 11.3 1.7 22.5 3 33.7 2 17 4.2 33.9 6.8 50.8 2 12 4.6 24 7 36a514 514 0 0016 60.3c1.4 4.2 1.6 4.5 6.1 4.7 10.6.7 21.2 1.7 31.9 1.8q39.1.1 78.3-.6a335.3 335.3 0 0056.7-6c2.1-.3 4.2-1.1 6.2-1.8a4.7 4.7 0 000-1l-5.5-1.5c-6.3-2-12.7-3.6-18.8-6.1a630.9 630.9 0 01-75.1-37.8c-12.6-7.2-25-14.6-36.7-23.3a143.9 143.9 0 01-49.8-67 295.6 295.6 0 01-14-54.2c-1-6.4-1.5-12.8-2.2-19.2l-.9-9.6c-.4-5-1.8-10-1.3-14.8.8-8.2-1.1-14.6-8.2-19.2-2.5-1.6-4.8-3.3-7.1-5-4-3-8.1-5.9-12-9L743.6 921 724 905.4l-16.5-13.2Q689.3 878 671 864zm66.8-415.4c1-1.8 1.8-3 2.4-4.3 8.5-17 16.8-34.1 25.6-51a2877.6 2877.6 0 0155.3-101.4 27 27 0 016.5-8.2c2.7-2 4-4.6 5-7.4 1.2-3 .5-4-2.7-4.6-5.7-1.2-11.4-2.1-17-3.6-3.5-.9-5.8-.2-7.8 2.8-4.4 6.6-9.1 13-13.7 19.3l-28.9 40.6-20.7 29.1-39.9 55.3-48.6 68-37.2 51.8c-.9 1.2-1.6 2.6-2.3 3.8.7.7.9 1 1.2 1a27.3 27.3 0 003.8.4c10.6 0 21.3.3 31.5 3.8 2.2.7 3.5-.5 5.1-1.8 3.4-2.7 6.7-5.8 10.5-7.5a106.9 106.9 0 0119.6-6.8c4.4-1 6.5-3.2 8.3-7 5.6-12.3 11-24.7 17.3-36.7 5.8-11 12.3-21.5 18.7-32.2 1.7-2.8 3.9-5.3 8-3.4zM85 764.3l.9 1 8-5c12.4-8.4 24.5-17.1 37.2-25.1 9.3-5.8 19.1-10.7 28.7-15.9 2.9-1.5 5.7-3 7.4-6 2.7-5 5.7-9.7 8.2-14.8 4.4-9 8.4-18.4 13-27.5 7-14 14.5-28 21.9-42a13.8 13.8 0 001.5-9.3c-2.6-13.8-5.4-27.5-7.8-41.3-2.6-15.1-5.1-30.2-7.1-45.4-2.2-16-3.7-32-5.5-48a24.5 24.5 0 00-1.3-3.7l-1.3 4.2c-4 12.8-7.6 25.7-12.2 38.2-9.8 26.1-20.2 52-30.2 78l-37.6 98.4c-7.9 20.6-15.6 41.3-23.3 62a15.5 15.5 0 00-.5 2.2zm458.4-234.5c-1.3-3.4-1.1-4.7 2-6.4a27.2 27.2 0 017.8-2.5c2.2-.4 3.5 1 3 3.1a13.1 13.1 0 01-2.9 5.4c-4.6 5.3-9.7 10.3-14 15.9-5.5 7-8.6 15-7.2 24.3 1.4 9 8.4 14.7 17.3 13.6a52 52 0 008.4-1.9c11-3.2 20-.5 26.9 9 5.6 7.7 8.6 15.8 4 25.1a23.6 23.6 0 00-2 5.5c-.8 4.6-3.4 7.5-7.6 9.9-2.5 1.3-4.2 4.2-6.2 6.6a2.3 2.3 0 00-.1 2.1 3.1 3.1 0 002.5 1 29.6 29.6 0 004.9-2c2.5-1.2 4.8-2.7 7.4-3.4 10.4-2.8 19.4 0 27.4 6.9 1.4 1.3 3.1 3.8 5.2 1.8s-.3-3.8-1.6-5.3a29.1 29.1 0 01-7.4-21.8c.6-5.8 1.1-11.6 2-17.3 1.3-8.6 2.5-17.2 2.1-26-.5-10.2-4.7-15.9-14.5-18.5a55 55 0 00-12.4-1.8c-5.8-.2-11.6.3-17.4.4a70.8 70.8 0 01-9.6-.5c-4.6-.5-6.1-3.1-4.8-7.5a19.2 19.2 0 012-4.4l18-28c6.2-9.7 12.5-19.2 18.4-29a30.3 30.3 0 003.5-10.4c.7-4-1.7-6-5.5-4.6a34 34 0 00-9.5 4.6c-4.6 3.6-8.7 7.7-13 11.6-5.6 5.1-11 10.3-16.7 15.4a15.6 15.6 0 01-4.6 2.4c-1.4.6-3 .9-3.9-.8s.5-2.6 1.8-3.4 2.8-1.6 4-2.6c3.3-2.6 3.4-4 .5-7a130.5 130.5 0 00-25.5-20.6 40.4 40.4 0 00-9.2-4.2c-5.6-1.7-9.5-.2-12.2 5a101.3 101.3 0 00-7 16.4 146.5 146.5 0 00-5.9 43.4c0 18.7-.5 37.4-.8 56a16 16 0 00.6 3c1.2-.6 2-1 2.8-1.6 9-6.4 18-13 27.2-19.3a7.2 7.2 0 003-5.2 38.1 38.1 0 016.4-15.7c3.9-5.5 8-10.8 12.4-16.7zM422.7 723.6c9.6 1.8 19-2.3 28-6.2a35.6 35.6 0 0020.6-25.9c1.4-6 1.6-12.4 3-18.6 2-9.7.7-18.5-5.9-26.2a8.2 8.2 0 01-1.3-2c-4.3-10-13-15.4-22.4-19.3a55.6 55.6 0 00-31.4-2.5 71.7 71.7 0 00-31.7 15.9c-3 2.4-6.2 5.5-7.9 8.9-6.7 13.7-9 28-4.7 43.1 3.3 11.4 10.2 19.6 20.3 25.4s21 7.6 33.4 7.4zm31.8 412.6c-1.9-1.6-2.9-2.3-3.7-3.2-5.5-6-9.2-13.2-12.2-20.7l-25.2-64c-4.6-12-11-23.1-14.5-35.6a28.6 28.6 0 00-2.1-4.3c-1.2-2.5-2.6-4.9-3.6-7.4l-13.4-32.7a17 17 0 00-2-2.8l-4.1 2-4.4 2a379.1 379.1 0 00-59.9 29.1 363.6 363.6 0 01-45 22.3c-7.2 3.1-14.2 7-21.2 10.6-1.5.8-3.4 1.6-3.7 4.3l31.2-10.5c11.4-3.8 23-7.4 35-9.3 20-3.3 38.9-.5 56.3 10a118.5 118.5 0 0127 22.5 279.8 279.8 0 0130 40.3c6.8 11 12.9 22.4 19 33.8 2.2 4.3 3.4 9.2 5.3 13.8 2.5 5.8 6.7 10.7 8 17 .4 1.8 2.4 3.2 4 5.3l1-1.8c2.2-3.8 3-8 4-12.3 2.7-11.1 5.7-22.2 8.6-33.2l13.5-49.4c3.6-13.2 7.1-26.5 10.8-39.7l8.1-27.3c1-3.4 2.5-6.6 2-10.3a9.4 9.4 0 01.7-4.3c1.3-4 3-7.8 4.1-11.8l15.6-53.8c2-6.9 1.9-7-4-10.9a6 6 0 00-1.3-.4c-.4.3-.9.6-1 1-1.2 3.8-2.6 7.6-3.6 11.5-3 10.7-6 21.4-8.6 32.2-3.4 14.1-8.9 27.5-12.2 41.7-3.6 15.5-8.4 30.7-12.7 46l-10.5 37.8q-5 18.7-9.5 37.5c-1.6 6.3-4 12.6-3.8 19.3 0 1.6-1 3.1-2 5.7zm201.2-592.6a28.5 28.5 0 002.6 2.1c2.8 1.7 5.6 3.2 8.3 5 4 2.8 6.6 6.4 7 11.6.2 2.6 1.3 5.3 2.3 7.8a57.6 57.6 0 014.2 16.3 110.3 110.3 0 002.1 13.3c2 9.4 4.5 18.8 3.3 28.6a22.9 22.9 0 00.3 5.8c.3 3 .9 3.5 4 3.6a104.5 104.5 0 0011.6-.4 59.7 59.7 0 0029-9 52 52 0 0017.3-19 55.2 55.2 0 004-36.7c-1.5-8.4-6.2-15.5-10.1-22.9a20 20 0 00-4.9-5.3 53 53 0 00-27.6-11.8 91.5 91.5 0 00-37.8 3.5 102.7 102.7 0 00-11.7 4.6c-1.2.5-2.4 1.7-3.9 2.8zM691.4 903c-2.6-2.2-4.2-3.7-6-5-8.5-6.5-17-12.7-25.6-19.1-3.9-3-4-3-7.5.4a72.2 72.2 0 01-32.5 18.3c-11.7 3.1-23.5 5.7-35.4 8-17 3.3-34 6-51.4 3.9-2.6-.3-3.3 1-3.7 3.2-1.5 7.6-3 15.2-4.9 22.7-2.8 11.4-6 22.8-9 34.1a31.7 31.7 0 00-.5 4.5 27 27 0 004-.8l15.8-6c33.2-13.2 66.5-26.2 99.7-39.6 17.5-7 34.8-14.5 52.2-21.8a47.4 47.4 0 004.8-2.8zM261 877.5a25.6 25.6 0 00-3.4-3.7c-1.5-1.2-3.7-.6-3.8 1.2-.2 3.7-1 7.6.9 11.2 2.4 4.8 2.2 9-1.2 13.4a15.6 15.6 0 00-2.6 3.5c-3.6 8.8-7.9 17.4-10.6 26.5-6 20.2-8 41-7.6 62.1a24 24 0 001 6.2 6 6 0 004.6 4.5c6.3 1.1 12.7 2.6 19 2.7 14.6.3 27.6-5 39.4-13a54.4 54.4 0 0015.3-15.8c1.9-3 1.8-3.7-.4-6.5L309 967c-4.2-5-8.7-9.7-12.3-15-8.4-12-16.4-24.2-24.5-36.5-1.6-2.4-3.4-5-4-7.7-.7-3.9-2.8-6.2-6-8-3.8-2.4-4.2-5.5-1.2-8.8l3-3.3c-2-1.4-3.9-2.4-5.1-4-1.9-2.3 1.4-3.4 2.1-6.2zm175.3-58.9a13 13 0 00.4-2.4c-1.1-13 .8-25.8 2-38.6l3.4-41.4c.4-5-.8-6.1-5.4-5-11 2.6-22 2.4-33.1.7-3.3-.4-6.6-1.1-10.4-1.8l-8.6 82.2c5.4.2 10.2.6 15 .4 11.7-.6 23.2-.1 34 5.1a19.1 19.1 0 002.7.8zM483 994.3l-4.6 1.4-55.2 19.2-7.8 2.7c-2.2.7-3 2.3-2.1 4.5l1 2.2 26.4 65.5 8.1 20.7a24.4 24.4 0 002 3.3c.8-1 1.4-1.3 1.6-1.9q15.6-57.5 31-115.1c.2-.6-.1-1.3-.4-2.5zM373.8 851.1h-.2v9.6a28.6 28.6 0 004.8 16.4 27.2 27.2 0 0042.5 5.7A50.1 50.1 0 00437 842c-.3-5.9-2.1-10.7-8.4-12.6l-2.2-1.1c-4.7-2-9.3-5-14.2-5.6a125.3 125.3 0 00-23.6-.2c-5.8.4-14 9.7-14.7 15.5a11.6 11.6 0 000 1.5zm221.6-596.2c2.1-4.4.3-7-1.5-9.8l-36.4-55.3c-9-13.8-17.6-27.8-26.5-41.6-.9-1.4-1.3-3.5-4.2-3.4l-1.8 4-11.4 28.3-9.4 22.3c-1.3 3.1-1 5.5 1.7 8.1 3.1 3 5.6 6.6 8.4 10 1 1.2 2.3 2.3 4.1 4a22 22 0 012-3c4.8-4.7 10-5.4 15.7-1.6a70.5 70.5 0 017.5 6.1c2.6 2.4 5 5 7.8 7.2 3.5 2.6 7.5 4.7 12.1 3.7a13.2 13.2 0 0111.8 2.8c5.6 4.7 11 9.5 16.3 14.3l3.8 3.9zm-316.7 549c-.5.8-.8 1-.8 1.4a8.6 8.6 0 000 1.9 27.3 27.3 0 01-6.4 20.6c-3.4 4.1-3 6.1 1.8 8.4l2.2 1c4.7 2 9.4 4.1 14 6.4 3.3 1.7 3.7 3.9 1.7 6.7l-16.9 22.9c-1.6 2.1-1.5 2.8.6 4.3 6.4 4.7 12.9 9.5 19.3 14.4 3.8 2.9 5 2.6 7.4-1.6 6-10.2 12-20.2 17.8-30.4 4.2-7.4 8-15 11.7-22.7 2.2-4.4 1.1-5.9-3.3-7.6a102 102 0 01-9.9-4.9c-2.6-1.4-5-3.2-7.8-4.7l-27.3-14.3-4.1-1.9zm-50 41.5c9.5-1.3 19.8-3 27.4-11.5a73 73 0 017.2-6.5 16 16 0 000-24.8 69.1 69.1 0 00-32.5-15.2 20.7 20.7 0 00-23.6 13.2c-1.2 3.3-1.4 7-2.5 10.2-3 9-.8 17 5 24 4.6 5.7 10 10.4 19 10.6zm542.4 23.2c-1.7-1.3-2.4-2-3.2-2.4-11.1-4.7-22-10-33.4-14-14.8-5-30-9-44.9-13.3l-24.6-7.1c-1.6-.5-3.3-1.6-4.9.2.6 8.3 3.3 14 9.9 19 15.5 11.8 31.2 23.2 46.6 35.2 4.2 3.2 7.7 3.4 12.3 1.3 9.8-4.5 19.8-8.5 29.6-12.9 4-1.7 7.8-3.7 12.6-6zm103.2-311.4a12 12 0 00-3-9.7 55 55 0 00-7.4-6.8 81.2 81.2 0 00-27.6-12.2c-3.9-1-6.4 0-8.7 3.1a71 71 0 00-12.6 35 18.5 18.5 0 003 12 31 31 0 0027.7 11.6c9.5-1.9 15.9-8.7 22.8-14.6a5.8 5.8 0 001-1.6 34.6 34.6 0 004.8-16.8zm-661.8 325L209 879c-3.6-3.7-7.2-7.4-10.6-11.2-1.6-1.9-2.3-4.2-.8-6.7l7-11c2.8-4.2 2.7-4-.4-8.3-6.2-8.7-9.7-18.2-7.2-29l1.1-5.2a23.6 23.6 0 000-3.2 27.7 27.7 0 00-3.9 2.6l-7.6 8c-6 6.1-12.3 12-17.7 18.5-5.1 6.1-11.2 11.6-13.9 19.6-1.5 4.6-1.4 6.4 2.3 9.7 3.2 2.9 6.7 5.6 9.7 8.6 7.3 7.3 14.4 14.9 21.7 22.2 2.9 2.9 5.9 5.9 10.1 7.6 6-5.4 8.7-12.7 13.6-19zM758 555.5c1.4 8.5 2.9 16.2 3.7 24 1 8-1 15.9-3.5 24.4 2.4-.2 4-.2 5.4-.6l18-4c9.3-2.1 18.8-4.3 28.1-6.6a18.6 18.6 0 003.8-2l-1.9-3a25.7 25.7 0 01-4.8-15.3 66 66 0 015.7-27.3l3.2-7.8-.8-1.1a186.9 186.9 0 01-56.9 19.3zM500.6 811.9a3.7 3.7 0 00-.2-1.3c-14.7-22-31.2-42.5-47.3-63.4l-2.5-2.9a.6.6 0 00-.5 0 9 9 0 00-1 .2c-.2 1.4-.6 3.1-.7 4.8-.6 9-1 18-1.7 27-1 13-2.4 26-3.6 39a30.3 30.3 0 00.3 4.4c7 .6 53.7-5.8 57.2-7.8zM864 590.6l5 1.9 25.6 7c4.6 1.4 5.2 1 5.6-4a30 30 0 018-19.1c5-5.1 8.7-11.6 15.3-15 .5-.3.8-1 1.8-2-7.4-2-14.2-3.4-21-5.4s-13.2-4.6-20.7-7.2a53 53 0 01-19.6 43.8zm152.8-9.1a58.2 58.2 0 00-5.7-19.3c-.8-1.6-2.2-1.8-3.7-1.2a46.1 46.1 0 01-5.4 2l-20.8 4.4-17.4 4c-2.8.8-3.6 2-2.6 4.7 2.6 7.2 5.5 14.4 8.3 21.6 1 2.6 3 3.2 5.4 2.7a133 133 0 0038.6-13.4c2.3-1.2 3.1-3 3.3-5.5zm-505-126a29.7 29.7 0 014 .5 114.1 114.1 0 0111.4 3.4 55 55 0 017.2 4c4.5 2.6 4.5 2.6 7.3-2 6-9.5 10.4-20 14.2-30.5a75.8 75.8 0 002.7-9.7 30.4 30.4 0 00.6-7.2c-.2-5.8-2.4-7.4-8-5.8a25 25 0 00-6.6 3 67.4 67.4 0 00-15.7 14.2 146 146 0 00-16.5 27 11.4 11.4 0 00-.6 3zM331.6 853.7l25.5 10a30.4 30.4 0 003.6 1.3c4 1 4.7.5 5-3.4.2-1.3 0-2.6.2-3.9.6-5 .9-10.3 1.8-15.3 1.6-8.5-1.8-14.5-9.9-17.1-5.2-1.7-10.4-3.6-15.5-5.5-13.7-5-27.4-10.3-41.2-15.4a14 14 0 00-2.8-.4l-.3 1c7.3 4 14.5 8.2 21.9 12 5.8 3 12 5.6 17.9 8.4 3.9 2 4.2 2.8 2.5 6.8l-7.7 18.2a28.6 28.6 0 00-1 3.3zm-98.8 0l-.9-.8c-5.6-1.1-11.3-2.3-17-3.2a4.3 4.3 0 00-3.4 1.2c-3 3.6-5.6 7.3-8.7 11.5l2.5 1.7L217 874c2 1.6 2.3 3.5 1.7 6-1.2 4.3-2 8.7-4.8 12.4-1.2 1.6-1.2 3.5.7 4.6l17.5 9.2a3.4 3.4 0 004.7-1 2.7 2.7 0 00.3-.5c2-3.7 4.3-7.2 6.1-11 3-5.9 2.3-8-2.2-12.8-3.7-4-7.2-8.2-10.8-12.2a6.4 6.4 0 01-1-7.6zm251.7-353.4h1.6l1-5a87 87 0 019-26.4c4.3-7.7 8.4-15.5 12.8-23.3 1.4-2.5 1.2-4.6-.2-7.1-2.7-5-7.4-7.5-11.7-10.5a21.3 21.3 0 00-6.5-3c-3.5-1-6 .3-7 4a39.6 39.6 0 00-1.7 8c-1.5 16-.5 31.8.5 47.7.4 5.2 1.5 10.4 2.3 15.6zm534 93a29.2 29.2 0 00-3.4 1.1c-3.6 1.8-7 3.9-10.8 5.4a169.7 169.7 0 00-27 13.9c-3.2 2-3.5 2.4-2 5.7s2.8 6.6 4.5 9.7c1.9 3.8 3.5 4.3 7.3 2.6l10.6-4.7 24.3-10.8c4.6-2 4.7-2.7 2.4-7.4a82.1 82.1 0 01-3.2-7c-1-2.7-1.7-5.4-2.6-8.5zM269 869.3l3.4-4.5c2.7-3.8 5.5-7.6 8-11.5 2-2.8 1.8-3.7-1.4-5-4.8-2.2-9.8-4-14.7-6-2.8-1.3-5-1-7.7.7-4.5 2.8-9.3 5-14 7.4-1 .6-2.4 1.3-2.9 2.3-1.6 3-2.9 6.3-4.4 10l10 8.6c3.2-3.8 5.7-7.8 10.7-8.3s8.9 2.4 13 6.4zm673.8-248.7l14.3-8.1c5.1-2.9 5.6-4 4-9.7l-4.6-17.6c-.9-3.3-1.7-3.8-4.7-2.5-5.9 2.6-11.7 5.4-17.5 8.1l-8 3.8c7.7 7.7 11.9 16.8 16.6 26zM920 593.4c.9-3.8 4.5-5.8 8-7.8a92.5 92.5 0 018.6-4.3c2.3-1 2.5-2.8 1.9-4.8-1-2.9 0-7.3-4-8-3.2-.5-7.2-.3-9.8 1.3-6.1 3.6-11.3 8.6-14 15.4s-2.7 14 2.5 19.5c3.3 3.5 7.5 6 11.4 8.8.8.5 2 .4 3.8.7zm69.4-62l-3.6 1.5c-4 1.4-7.7 3.3-11.7 4.3-8.3 2-16.6 3.7-25 5.5-4.2 1-5 1.7-5.4 6-.7 5 .5 6.3 5.4 5.3a684 684 0 0024.9-5.5c4.8-1.2 9.5-3 14.2-4.5 4.4-1.6 5.2-3.3 3.4-7.7l-2.2-4.8zm-70-490.7l1.2 1 19.5-13.2a8.3 8.3 0 00-.6-2l-14.1-17c-1.2 7.2-2.3 13.9-3.6 20.6-.6 3.5-1.5 7-2.3 10.6zm-355 504c9.2.2 16.8-4.2 25-4.8 1 0 2.1-.9 3.5-1.6l-15.2-15.2a160.4 160.4 0 00-13.4 21.5zm383.1 30.7c3.9-.5 6.9-1.2 8.7-5.1 1-2.3 3.5-4.2 5.7-5.5 7.7-4.5 16.3-5.9 25-7.3 1.5-.2 4.5.2 4-2.1-.4-2.9-3-1.2-4.7-.8l-32.7 8.5c-7.1 1.8-7.1 1.7-6.4 8.8l.4 3.5zm-195.7 40.9c4 .3 24.8-5.6 30-8.2-.5-.2-1-.6-1.3-.5-8.3 1.8-16.6 3.5-24.8 5.5-1.3.3-2.3 1.8-4 3.2zm212.1 17c.7 0 1.4 0 2.2-.2 3.3-.4 3.8-1.3 2.8-4.5-1.1-3.3-2-3.7-6.8-2.5-3.2.8-3.8 2-2.7 5.2.9 2.2 2.7 1.8 4.5 2zM277 901c-1.3 1.3-2.6 2-2.5 2.7.3 2.7 2 4.3 5.2 5.7zm-4-10c-3.2 1.8-3.2 1.8-4.7 4.4 2.2.3 4.3.9 5.8-1.2.9-1.2.4-2.5-1-3.1zm274.2-426.4l-1-.5a19.8 19.8 0 00-2.8 3.9c-.2.5 1 1.6 1.6 2.4.6-.6 1.6-1 1.8-1.7a21 21 0 00.4-4zm-15-62.2c-2-.5-3.6-1.4-4.6 1-.2.4.7 2 1.3 2 1.9.7 3-.3 3.3-3zm-58.8-21.9c.9-1.4 1.7-2.2 1.6-2.8s-1-1.4-1.8-1.7c-.3-.2-1.5 1-1.5 1.3.2.9.9 1.7 1.7 3.2zm487.1 237.7c4.1 1 4.1 1 3.8-2.5z"/><path d="M1200 513.2a593 593 0 00-60.3 4q-35.6 3.8-70.7 11c-21.8 4.5-43.5 9.5-65.2 14.2-1.7.4-3.4.5-5.4.8-.2-1.4-.7-2.4-.4-3.2 2-6.5-2.9-10.5-6-15-.5-.8-3.3-.5-4.8 0-3.9 1-7.5 2.8-11.4 4-7.8 2-15.7 3.7-23.5 5.7a64 64 0 00-7.3 2.6c-4 1.5-6.6 4.2-7.5 8.6-1 4.3-1.6 4.7-6.2 4a165.8 165.8 0 01-34.8-9.8 51 51 0 00-19.1-4.7c-1.7 0-3.3-1-5-1.8l-16.8-8.2a21.8 21.8 0 01-4.9-3 16.4 16.4 0 00-20-2.1 8.7 8.7 0 00-2.1 1.2c-4.2 4.3-9.8 6-15.2 8-10.1 3.7-20 8.4-30.2 11.7-8.7 2.7-17.9 4.1-26.8 6.2-3 .7-5-.4-6.7-2.7a62.8 62.8 0 00-17.9-15.4c-7.6-5-16.4-6.5-25.4-6.5h-11c9.8-22 18.3-43.4 31.3-62.7-2.9 9.4-7.8 17.8-11.8 26.7s-8.7 17.4-11.7 27.4c2.5-.5 3-2 3.8-3.3 10-18.4 20.3-36.7 30.1-55.2 18.1-34.4 35.9-69 53.9-103.3 6.2-11.9 12.6-23.6 19-35.4a12.3 12.3 0 013.5-4.2 15 15 0 01-.5 2.8l-22.1 56.2-4.2 11.9a15.3 15.3 0 00-.3 3.3c2.7.3 3.5-1.6 4.2-3 3.2-5.8 6.8-11.4 9.3-17.5 11.6-28.1 23-56.4 34.4-84.6 1.2-2.8 2.1-5.7 3.5-8.4.6-1.2 2-2.6 3-2.6 6.8-.2 13.5 0 20.2.2a7 7 0 013.8 1.8c7 6 13.7 12.2 20.8 18a87 87 0 0026.4 15.9c17.2 6 34.6 7.4 52.2 1.4a158 158 0 0067.6-43.4c7-7.7 12.5-16.3 14.6-26.8.8-4.3 1.5-4.5 6-4 22 2 43.5 0 63.9-9.2l5.6-2.8c4.9-2.4 5.5-2.3 9.3 1.5l34.2 34 33 32a11 11 0 001.6 1.1z" class="cls-1"/><path d="M1200 763.9c-15.6-1-31.2-2.3-46.8-2.5-19.8-.2-39.7 0-59.5 1-32.2 1.5-63.6 8-94.6 16.5a816 816 0 00-104.2 37.2l-90.1 38.7c-5.7 2.4-11.4 4.5-17 7.1a10.2 10.2 0 01-9.2 0L755.4 851c-14.1-6.8-29.1-11.2-44.1-15.6-16.1-4.8-32.3-9.2-48.4-13.8-5.7-1.6-6.4-2.5-7-8.3-2.2-21.5 0-42.4 8.1-62.6a297.8 297.8 0 0017.6-66.2c1.8-11.3 2.6-22.8 3.8-34.1.4-4.4.7-4.8 5-4.5 14.6 1.2 28.4-2 41.5-8.6 2.9-1.5 5.2-4.1 8-6.1 1.7-1.3 3.5-2.8 5.6-3.5 10.8-3.3 21.7-6 32.4-9.6 12.2-4 24.2-8.8 36.3-13.4 4.2-1.5 8.3-3.5 12.6-4.8a33 33 0 019-1.4 45 45 0 0016.6-2.6 8 8 0 017 .2c9.4 5 19.7 8 29.9 11l7 1.9a29.4 29.4 0 0113.3 7.3 48.3 48.3 0 0012.2 7.6c2.3 1.1 5.4.7 8 1 1.5.2 3.5.3 4.3 1.2 2.5 3.2 5.5 2.3 8.4 1.4 2.6-.8 5-2 8-3.3l1.6 6.4c.6 2.2 1.3 4.3 3.8 5.2.9.3 1.5 1.2 2.3 1.7 1.6.9 3.3 2 5 2.3a113.6 113.6 0 0015.3 1.4 23.6 23.6 0 008.9-2c13-5.4 26-11 39.1-16.6a37.7 37.7 0 004.7-2.5c4.7-2.8 6-6.2 4.2-11.3a60.9 60.9 0 00-4-8.3c-1.2-2.3-2.7-4.4-4-6.6a13.9 13.9 0 01-2-8.2c.2-11.4-2.3-22.1-10-31a5.5 5.5 0 00-3.7-1.8 39.4 39.4 0 00-6.6 1 15 15 0 01-3.3.6c-.8 0-1.5-.8-2.2-1.3.4-.7.7-1.8 1.4-2.2a14.2 14.2 0 013.7-1.1c16.3-3.7 32.6-7.8 49-11 22.8-4.3 45.5-8.3 68.3-11.6a530.5 530.5 0 0166-5.7l12-.6zm-427.1 67.7c-.4 3-.4 3 2.3 4.7zm335.5-179.8l1.2.2.7-4c-2.3 1.4-2.5 2.4-1.9 3.8zM768.7 837.1l-1-.9-.7.9a9.3 9.3 0 001.1.7 5.7 5.7 0 00.6-.8z" class="cls-1"/><path d="M0 833.5l22-7.2c33.9-11.1 68.5-17 104.2-13.4 13 1.3 26 3.4 38.8 5.2 1.9.2 3.7.8 6.3 1.4a40.1 40.1 0 01-2.4 4l-20 26c-3.3 4.3-3.4 9.5 0 13.5q16.3 18.5 32.9 36.8a55.9 55.9 0 006.8 6.1c5.8 4.7 11 4.4 16.3-.8a32.5 32.5 0 003.3-4.5l5.1 3.7c3.7 2.6 7.4 5.2 11.2 7.6s7.8 4 13 2.3c-.2 1.7 0 3-.5 4a164.8 164.8 0 00-11.8 58c-.3 5.6-.3 11.2-.3 16.9a43 43 0 00.3 5.8c1 8 4.8 11.2 12.8 11.4 7 .2 13.9.6 20.8 1a46.6 46.6 0 014.8.8c-.6 2.4-2.4 2.6-3.7 3.2a123 123 0 00-25.3 15l-7.5 6.1a8.6 8.6 0 00-3.2 7.3c3.5 1 6.4-1 9.4-1.8 20.5-6.1 40.8-12.8 61.5-18.5a79.3 79.3 0 0149.5 1.4c3.9 1.5 4.7 2 6.8 5l-6.7 2.4c-17.9 6-35.9 11.7-53.6 18a686.3 686.3 0 00-45 17.6q-39.2 17.3-77.8 35.7c-19 9.1-37.6 19.1-56.2 29.1a695.8 695.8 0 00-66.5 39.5c-13.6 9.5-26.9 19.5-40.3 29.2a55.4 55.4 0 01-5 2.9zm98 145.8l6.4 6.5c.2-4.6-3-5.7-6.3-6.5zm9.5-3.1l-1.4.2a6.8 6.8 0 001.4 6l1-.1-1-6.1z" class="cls-1"/><path d="M1200 1405.5c-36-3.8-71.8-8-107.8-11.2-31.4-2.7-63-4.4-94.5-6.3-53-3-106.1-2-159.2-1.8-46.9.2-93.8 2.3-140.6 5-38.2 2.3-76.3 5.2-114.2 9.4s-76 8.6-113.8 13.8c-39.7 5.3-79.2 11.4-118.7 17.8-30.3 5-60.5 11.1-90.5 18.3-25 6-49.9 12.8-74.5 20.7a835.6 835.6 0 00-81.9 31.9c-32.4 14.4-64 30.5-95.6 46.4-2.9 1.5-5.8 2.7-8.7 4v-7.7l17-8c19.2-9.6 38.2-19.6 57.6-28.7 21-9.8 42.2-19.3 63.6-28.2 15.4-6.4 31.4-11.7 47.2-17.1q33-11.2 67-19.1c20.2-4.8 40.4-9.6 60.8-13.4 34-6.3 68-12 102-17.5 23-3.7 46-6.6 69-9.6q44.2-5.7 88.3-10.9c17.2-2 34.4-3.7 51.6-5 35.3-2.8 70.7-5.6 106.1-7.4 32.8-1.8 65.7-2.6 98.6-3.2 50.8-1 101.6-1.2 152.4.4 26.8.9 53.5 2.4 80.2 4.4 31.8 2.3 63.6 5.4 95.4 8.4 14.4 1.3 28.8 3.2 43.2 4.9z"/><path d="M0 778.4a18.8 18.8 0 003.1-2.8l27.7-39a6 6 0 013-2.6l-3 6.3-20 40.7a93.8 93.8 0 00-3.7 10 3.6 3.6 0 00.6 3.1 34.8 34.8 0 002.7-3.5c3.8-6.6 7.6-13.1 11.2-19.8 18.6-34.3 39.2-67.4 59.1-100.9 12.7-21.3 25.3-42.7 37-64.5 12.4-23 23.7-46.6 35.4-69.9l3-5.8 2.3 5.2c.4 1 .6 2.5 1.4 3 3.8 2.5 2.2 5.3 1 8.4-16.3 41.7-32.6 83.4-48.5 125.3-7.6 19.9-14.6 40-21 60.2A327 327 0 0179.6 762a6.3 6.3 0 00-.6 1.3c-1.2 7.2-5.9 11.2-12 14.5-8 4.5-15.6 9.6-23.4 14.6-10 6.4-18.5 14.6-26 23.6-4.7 5.7-10.9 7.6-17.6 8.8z" class="cls-1"/><path d="M0 647.7a58.5 58.5 0 002.9-5.9L21 589.4c.5-1.4.7-2.8 1.3-4.2a31.6 31.6 0 012.5-3.7l1.4 2.9c6.9 15 17.9 27 28.3 39.5 6.8 8.3 13.3 16.9 20 25.4l.8 1.2c5 6.5 5 6.5 1 13.4q-10 16.9-20.2 33.5a8.8 8.8 0 01-4.1 3.8 15.2 15.2 0 00-7.6 5.7c-6.1 8.4-12.3 16.9-18.3 25.4l-22.8 33a28.6 28.6 0 01-3.3 3.4z" class="cls-1"/><path d="M112.3 1322.3c5.5-1.2 10.4 1.2 14.8 4s8.7 6.5 13 9.8c-.7-6.1-6.6-10.7-6-17.4 3.1 2.7 4.5 6.6 6.5 10a42 42 0 014.5 11.7l-6.5.4c-2.6-2.8-4.8-5.8-7.6-8a40.1 40.1 0 00-8.9-5.7c-3.2-1.5-6.8-2.2-10.2-3.3z"/><path d="M1037.3 1110.3c-2.7 4.3-.5 8.7-1.9 12.9-.8-.5-1.5-.7-1.5-1a30.4 30.4 0 01.4-15.2c1.2-3.8 3.5-6.1 8-5.9a43.4 43.4 0 00.8 21.2c-2.7-.8-3.2-2.6-3.5-4.4-.3-1.6-.2-3.3-.6-4.8a12.6 12.6 0 00-1.7-2.8z"/><path d="M467.3 1357.1l1.8 4.3c.9 2.3 1.6 4.8 2.7 7.1 2 4.5 1.9 4.6-3.6 5.6a20.6 20.6 0 00-9.4-9.6 7.3 7.3 0 01-2-2c-.2-.3-.3-.9-.5-1.7 4-1 5.7 4 9.7 3.3v-6.7z"/><path d="M1111.8 1318c-4.5 4.8-9.4 9.1-13.3 14.3s-6.5 11.2-9.9 17c-1.4-2-1-4 0-5.8a126.4 126.4 0 018.4-14c2.8-3.8 6.5-7.1 10-10.5a18.6 18.6 0 013.8-2.3z"/><path d="M1056.7 1329.7l7 7.7c4.2 5 8.6 10 11.4 16 .9 2 1.8 4 .4 6.5-.7-.5-1.3-.6-1.4-1-2.3-7.2-6.8-13-11.8-18.5l-5.3-6.2c-1-1-2-2.2-.3-4.5z"/><path d="M1074.9 1321.2c.4.2 1 .4 1.1.7a171.8 171.8 0 006.3 30.6c.2.6-.3 1.4-.5 2.3-4.9-4.5-9.5-27.7-6.9-33.6z"/><path d="M1060.5 951.5c1.5 1.5 2.5 2 3 3 4.7 9.3 8 19.8 7.3 24.8-4-4-4-9-5.7-13.2s-4.4-8.5-4.6-14.6z"/><path d="M1058 1088.1c-1.8 4.7-4.1 9.3-5.3 14.2-1.1 4.6-1 9.6-2 14.3a35.2 35.2 0 016-29z"/><path d="M1079.5 950.8c1.3 3.4-.5 5.8-.9 8.4s-.4 5.1-.5 7.7a72.6 72.6 0 01-.7 7.8c-3.4-6-2.3-18.4 2.1-24z"/><path d="M984.6 870.8c-2.7-5-6-9.6-7.1-15.2 4.1 4.3 7.8 8.8 7.1 15.2z"/><path d="M1062.6 977.9c-.8-.6-2.1-1-2.3-1.8-1.2-4.2-3.7-8-2.8-12.7 3.6 3.9 4.3 9 6 13.6z"/><path d="M481.4 1354.5l-4.7 16.8c-2.9-3.9-1.1-10.8 4.7-16.8z"/><path d="M148 1335.2a18 18 0 014.7-19c-1.4 3.7-2.9 6.6-3.4 9.7s-.1 6.3-.1 9.4z"/><path d="M647.4 1110c-1.8-3-1.3-6-.5-9.7 2 3.3 2 4.6.5 9.7z"/><path d="M635.5 1105.4c3.2 6.8 3.2 6.8 1.4 9l-2-7.7.6-1.3z"/><path d="M990.7 857.9v7.1c-2-2.3-1.6-4.7-1.3-7z"/><path d="M1002.8 856.3l-2.5 6.5c-1.6-4-1.4-4.6 2.5-6.5z"/><path d="M634.3 1100.8l-.5.7-.5-.6a3.1 3.1 0 01.6-1l.4 1z"/><path d="M309.6 74.5c4.3 1 8.7 2 13 3.3 3.9 1.2 3.9 1.3 5.8-2.5 7.4-15.2 21.7-18.5 34.9-14 4.2 1.4 8 4.1 11.7 6.6 2.5 1.6 2.7 4.2 1 6.7-1.8 2.8-4.1 3.6-7 2s-5.3-3.5-8.1-5a23.3 23.3 0 00-15-2.4c-6 .8-9.2 3.8-10.4 9.7-.4 1.8-.5 3.5-1 5.3-1.2 5.3-6 7.7-11 5.5-5.8-2.6-11.4-5.2-18-5.1-6 0-10.3 2-12.1 8-1.1 3.7-2 7.5-3 11.2-.5 1.9-.6 3.9-1.5 5.5a4.5 4.5 0 01-3.3 2c-.7 0-2-1.6-2.2-2.6a44.7 44.7 0 01.2-10.1 29.8 29.8 0 0110.9-18.8c4.4-3.5 9.4-5 15-5.3z"/><path d="M138.8 88c4.4.4 8 .5 11.4 1 3.8.6 5.2 2.3 4.7 5-.6 3-4.8 6.6-7.4 5.5-6.9-3-14-1.7-21-1.2a26.8 26.8 0 00-9.2 2.6 10.3 10.3 0 00-6 9.8 53.2 53.2 0 001 10c1.3 6.3-1.8 10.7-8.3 11l-7.8.3c-6.8.5-12 3.3-14.2 10.3a95.7 95.7 0 01-4.2 9.8 15.5 15.5 0 01-2.5 4 3.2 3.2 0 01-2.8.9c-.8-.4-1.1-1.7-1.6-2.7a1.7 1.7 0 01.1-1c2.2-7.6 4.2-15.2 9.3-21.6a23.5 23.5 0 0115.2-8.6l3.4-.4c2.4-.3 3.8-1.5 3.5-4.2v-1c-1.3-13.3 8.5-25.1 22.8-28 4.8-.8 9.6-1 13.6-1.4z"/><path d="M60.3 329.5c-2 .2-4.6.2-7.1.6a10.3 10.3 0 00-8.9 7.7c-.6 2.2-1 4.4-1.3 6.6-.3 1.1-.2 2.5-.8 3.3-.9 1.2-2.1 2.6-3.4 2.8-1.8.2-2.6-1.6-3-3.3-1.3-6.4.8-12.1 4.7-17.1 4-5.2 9.2-8.8 16.1-9.6 5.1-.5 5.1-.8 5.5-6 .7-11.2 9.1-19 19.9-18.6a18.4 18.4 0 0111.7 5.1c2.1 1.9 2.1 5 .2 7.4s-4.8 2.9-7 .9a14.6 14.6 0 00-8.7-3.9c-4.6-.3-7 1.6-7.2 6.4a19 19 0 001 6.6c2.5 7.5-.8 11.9-8.8 11.4l-3-.3z"/><path d="M632.2 1542.3a23.4 23.4 0 01-2.8-2.3c-9-10-20.2-17.3-31-25.3l-13.1-9.7a24.9 24.9 0 01-3-3.3c2.7-1.1 4 .4 5.3 1.3l21.4 15.7 14.9 11.5a5.9 5.9 0 003.7 1.3l-5-7c-3-4.3-6.1-8.6-9-13a9.3 9.3 0 01-.7-9c1.5 3.2 2.3 5.8 3.7 8l11 15.7a34.1 34.1 0 003.6 4.6c3.4 3.4 4 6.9 1 11.5z"/><path d="M349.7 1498c-5-.7-8.4-3.3-10.2-7.4a30.5 30.5 0 011.2-29.2c2.3-3.8 6-6 10.2-7.5.4-.1.9.2 2.3.5-8.6 5-13.6 11.6-13.7 21.2-.1 9.1 2.4 16.8 10.2 22.5z"/><path d="M647.5 1529.7c3-10.5 19.6-24 29.7-23.8a80.3 80.3 0 00-29.7 23.8z"/><path d="M355.6 1475c-1.1 8.6 1.9 16.9.5 26a44.5 44.5 0 01-3.6-21.1c.2-1.9.5-3.8 3.1-4.9z"/><path d="M371.8 1472.8c-1.7 3.6-3.9 7-5 10.8s-1 7.8-1.6 12.2c-5-6-.8-19.3 6.6-23z"/><path d="M1043.7 225.8c-1 3-2.6 6.5-3.7 10.2-5.3 17.5-17 30-31.2 40.6a154.8 154.8 0 01-39.9 21.5 74 74 0 01-52.9-1 141.9 141.9 0 01-31.6-18.6c-5-3.7-9.9-7.7-14.8-11.6a11 11 0 00-8-2.4c-11.6.8-23 .7-34.5-2.2-10.2-2.7-20.4-5-30-9.2a60 60 0 01-25.8-20.3 57.6 57.6 0 01-9.9-38c.5-9.5 1.9-18.6 6.1-27.2a82.5 82.5 0 0139.7-38A116.6 116.6 0 01868 120a148.9 148.9 0 0121 2.8 47.5 47.5 0 0119.4 9.6c1.3 1 2.8 3 4.5 1.2 1.5-1.5 0-3.3-.8-4.8a27.7 27.7 0 00-17.4-13c-6.1-1.8-12.5-2.9-18.8-4.2l-5-1.2a25 25 0 011.7-3.4c7.6-10.5 15.1-21 22.8-31.2A125.8 125.8 0 01921.5 50 161.1 161.1 0 01963 26.3a77 77 0 0141.4-3.7 40 40 0 0127 20.4 33.8 33.8 0 014.7 12.5c.9 6.2 3.1 8.1 9.4 8.3a87.6 87.6 0 0017.3-.7c6.8-1.2 13.5-.5 20.2.2a115.3 115.3 0 0152.8 18.7 72.7 72.7 0 0126.1 29.2 54.1 54.1 0 015.7 21.3 87 87 0 01-13.4 52.5 85.2 85.2 0 01-37.8 31.3 129.8 129.8 0 01-45.6 10c-5.8.4-11.6.7-17.4.7-2.8 0-5.5-.7-9.6-1.2z" class="cls-1"/><path d="M536 407.3c.5-1.5 1-3 1.3-4.5.7-3.2-.2-4.6-3.4-5a18.6 18.6 0 00-5.2.2c-3.5.6-5.3 3-5.1 6.5 0 3.2 1.4 4.5 5 5.3a20.3 20.3 0 013.3 1.4 16.6 16.6 0 01-1.6 3.7l-12.5 15.4c-.7 1-1.6 1.9-3 3.4L512 429a24 24 0 00-18.5-13.1c-6-1-10.7 1.5-14.4 6.2a28 28 0 00-5.9 15.6c-.5 8-.7 16-.7 24.2a235.8 235.8 0 003.8 45.7q.4 3 .5 6c-2-1.2-3.3-1.6-4-2.4-13-12.7-25-26-33.8-42a50.7 50.7 0 01-5.6-38.3 45.9 45.9 0 016-13 160.3 160.3 0 0125.4-29.7c2.2-2 4.5-3.6 7.8-2.8 3.9.8 8.7-5.6 7.3-11-.6-2.1-2.5-2.5-4.3-2.2-2.6.6-6-2.3-7.9 1.3a6.4 6.4 0 00-.5 3.8c.5 3-1 4.6-3.3 6.2a113 113 0 00-38.1 44.7 62 62 0 007 51.4 186.3 186.3 0 0036.9 43.3c2.4 2.1 5.8 3.4 9 4.4 4.4 1.3 5.2 2 5.3 6.6v14.5c.1 10.8.2 21.6.5 32.4a64.7 64.7 0 001 9.2 5.6 5.6 0 01-2.2 5.9q-12 9.8-23.7 19.9c-2.3 2-4.5 2.3-7.5 1.2a63.8 63.8 0 00-45.8-.4c-2.6 1-5.2 1.6-7.9 2.4-18.7 5.8-29.6 19.2-35.6 37.1a91.2 91.2 0 00-2.3 9c-1 3.8-1.3 4.3-5.4 4.8l-29.3 4c-7.3 1-14.6 2.3-22 3.4-2.5.4-5 .5-8.2.8a19.1 19.1 0 011.5-3.6c17.2-23.1 29.4-49 41.5-75.1q7.9-16.9 16-33.6c1.4-2.7 3-5.3 4.6-7.9l1 .5c-1 2.4-1.8 5-2.8 7.3-5.7 13.7-11.8 27.2-15.7 41.6a9.5 9.5 0 00-.3 4.5c9.4-16.9 17.3-34.4 25-52s15.3-35.6 22.2-53.6 13-36.3 19.7-54.4c-1.6 9.3-4.5 18.2-6.7 27.4s-5 17.8-6 27l1.4.5a26.7 26.7 0 002.3-3.8c3.2-8.8 6.7-17.5 9.6-26.4 4.9-14.6 9.4-29.4 14-44.2 4.1-13 8-26.1 12.3-39.1q8.2-25.3 17-50.4c4.8-13.9 10-27.6 14.9-41.4l16.1-45 14.1-38.5a35.4 35.4 0 011.7-3.3c2.9.8 3.8 3 5 4.8l9.6 15c1.2 1.8 2.3 4.2 5.2 3.5a7 7 0 005.4-5.6c.4-1.5.2-3.2.5-4.8.6-3.6 2.8-4.7 5.7-2.4 3.2 2.5 6 5.5 9 8.2a91.7 91.7 0 007.7 6.4 15.8 15.8 0 0013.7 2.9 9.3 9.3 0 019 2.1q7.8 7 15.3 14c1.9 1.8 3.5 3.9 5.3 5.7 4.7 4.4 8.4 4.6 13.9 1.1l1.8-.9c1.3 1.7 2.8 3.3 4 5.1 13.5 21.2 26.8 42.5 40.5 63.6 11 17 22.5 33.8 33.7 50.8 3.6 5.4 6.8 11 10.3 16.4 1.8 2.6 1.1 4.7-.5 7l-16.2 22.8-52.4 72.5c-7.4 10.4-14.9 20.7-22 31.2-2.4 3.5-4.2 3.1-6.4-.2-3.3-5-7-9.7-10.4-14.5-3.2-4.5-3.1-5-.2-9.5 3.7-5.8 7.6-11.5 11.2-17.4a53.6 53.6 0 007.5-17.2c.9-4.3 1.3-8.7-2.2-11.7s-8-1.9-12-.5a51.7 51.7 0 00-19 12.9c-2.5 2.3-4.7 4.9-7.2 7.2s-3.4 2.5-6 .1a42.8 42.8 0 00-3.3-3c-3-2.2-3.4-4.9-2.6-8.5 1-4.5 1.2-9.2-.5-13.8-1-2.4 0-4.3 1.1-6.3 5-9.3 9.3-18.9 11.6-29.1a46.5 46.5 0 001-13.9c-.6-6.5-4.6-9.3-11.1-8.2a31.2 31.2 0 00-12.5 5c-1.6 1.1-3.5 2-5.3 2.9z" class="cls-1"/><path d="M462.8 622.1l3.4-3.5c17-14.2 33.8-28.8 52.4-41.2l1.6-1c3.5-2.2 3.9-2 5.7 1.5a39.2 39.2 0 004.8 7.3 16.2 16.2 0 0017 5.5c3-.7 6.2-1.6 9.3-2.5 9.9-3 15.7-1 22 7.2 4.9 6.3 7.1 12.9 4 20.7a8 8 0 00-.5 2.8c0 2.8-1.1 4.2-3.8 5.4-6.8 3-10.8 9-13.6 15.6-1.8 4.1.2 7.6 4.7 8.2 2.6.3 5.4-.4 8-1a25.8 25.8 0 005.6-2.7c8.2-4.5 15.9-3.2 23.2 2 2 1.4 3.6 3.2 5.5 4.6 3.6 2.5 9 2.6 12.3.2 3.5-2.7 5.1-6.5 3.9-10.7a13.2 13.2 0 00-4.6-6.5c-2.9-2.1-4.4-4.5-4.4-8 .2-7 0-14.1.7-21.2 1-10 3.6-20 3.1-30.2l-.4-6.3a21.7 21.7 0 00-12.7-19.1 17.8 17.8 0 01-2.3-1.9 36.5 36.5 0 014.7-.7 109 109 0 0150.7 12.2c2.2 1.2 3.7 2.6 4.2 5 1.9 7.8 4 15.6 5.6 23.5 1.8 9.5 3.6 19 4.6 28.6a179.8 179.8 0 01.5 22.1c0 6.3-.8 12.5-1 18.8a326 326 0 01-9.3 58.7c-3.5 15.1-8.9 29.6-14 44.2a126.6 126.6 0 00-5.8 49.6 115 115 0 008.4 37.5 52.3 52.3 0 003 6.6c1.5 2.4 1.7 4.6 0 7.1a65.4 65.4 0 00-3.7 6.8 28.6 28.6 0 01-10.2 10.6 112.5 112.5 0 01-41 15.3q-19 3.8-38 7a135.6 135.6 0 01-32 1.2 69.7 69.7 0 01-8-1.5c-2.4-.4-3.2-2-2.9-4.2l.3-2.4a189.4 189.4 0 00.9-45.8c-.7-7.7-3-15.1-5.5-22.5-6-17.4-17.5-31.5-28.2-46l-34.2-45c-5.6-7.4-5.5-7.5 1.9-12.7a55.3 55.3 0 0020.9-29.4c3-9.4 2.8-19 2.3-28.7a59.2 59.2 0 00-5.8-23.8 44.4 44.4 0 00-9.6-13.2l-3.7-4z" class="cls-1"/><path d="M277.6 260.4l2.6-3.9c4.8-6.8 9.2-14 14.4-20.6a47.5 47.5 0 0135.4-18.3c17.1-1 34.1.4 50.5 6.2a62.4 62.4 0 0140 41.6c5.4 16.2 5 32.6 1.6 49.1-.4 2.1-.3 5-3.5 6.2l-3.8-6.7h-1.2a31.5 31.5 0 00-1.8 4.6 70 70 0 00-1.3 8.1 54.3 54.3 0 01-15.2 31.7 94.2 94.2 0 01-47 27.1 144.3 144.3 0 01-44.6 3.4c-4.5-.3-9-1-13.4-1.7a6.5 6.5 0 00-5.7 2c-4.6 4.5-9.3 9-14.2 13.1a50.6 50.6 0 01-9.7 6.4c-7.3 3.7-14.6 7.5-22.2 10.5a43.4 43.4 0 01-34.8-.5 56.4 56.4 0 01-26.7-67.4c3.7-12.8 12.7-20.2 25.1-23.8 7.1-2 14.4-1.5 21.6-.7.8 0 1.7.6 2.4.4 1.3-.3 3-.6 3.6-1.6.9-1.7.2-3.5-1.7-4.4a25.2 25.2 0 00-5-1.8 54.2 54.2 0 00-6.7-.9c-4.3-.4-4.8-.7-4.5-5 .5-6.4.9-12.9 2.4-19.1a132.8 132.8 0 0122-48 52.7 52.7 0 0141-21.4 10.5 10.5 0 019 3.6c2.2 2.5 2.3 4.3.6 7.3-2.1 3.6-4.3 7.2-6.3 11a22.5 22.5 0 00-2.9 13.5z" class="cls-1"/><path d="M418.2 332.9c1.5 2 2.6 3.3 3.4 4.8l13.3 23c1.4 2.4 1.2 4.6.4 7l-9.3 28.5-11.3 36.4c-.6 1.8-1.3 3.7-1.7 5.5-.7 3.2-1.5 5.6-5.5 6.4-1.8.4-3.6 3.1-4.5 5.2-3 6.5-5.6 13-8 19.7-6.9 18.4-13.6 36.9-20.4 55.3a17.5 17.5 0 01-5 7A59.4 59.4 0 00361 542c-10.7 15.8-18.5 33.2-26.5 50.4-9.4 20.3-18.8 40.7-30 60.1-4.6 7.8-10.1 15-14.7 22.7-2.2 3.8-5 5.3-9.1 6a450.8 450.8 0 00-56 13.1c-14.4 4.4-28.6 9-42.4 15-1.3.6-2.8.7-5.5 1.3 2.2-4.2 3.8-7 5.2-10 4.9-10.4 9.6-20.8 14.5-31 2.5-5.1 5.4-10 8-15l33.6-63c19.9-37.8 37.6-76.7 59-113.7l39.9-69c1.8-3.2 3.7-6.5 3.9-10.3.1-2.6 2.4-2.8 4.1-3.4 5.7-1.8 11.6-3.2 17-5.5a99.4 99.4 0 0049.6-42c2.6-4.4 4.2-9.2 6.6-14.8z" class="cls-1"/><path d="M25.5 816.1c2.2-4 5.5-6.2 8.3-8.6 9.7-8 20.6-14.4 31.3-21q19-11.7 37.2-24.3a452.8 452.8 0 0155-34.3 396.8 396.8 0 0146.3-19.4 473.7 473.7 0 0181.9-20.6c22.6-3.7 45.3-7 67.9-10.4l2.4-.3c2-.3 3 .8 3.1 2.7v4.8c.3 17.2 8 30.2 22.6 39.3 2.4 1.5 5.6 2.8 6.7 5 1 2-.6 5.2-1 8q-4 31.1-7.8 62.3a53 53 0 00-.7 11c.7 6.3-3.2 9.8-6.7 13.9a39.6 39.6 0 01-4.7-2 350.4 350.4 0 00-51.2-22.8c-17.6-6.7-35.5-12.6-53.2-19.2a65.5 65.5 0 00-25.7-3.7c-10.3.4-19.9 3.6-27.8 10.8-1.6 1.5-3.7 2.4-5.6 3.7-2.9 2-5.8 3.9-8.6 6.2a236 236 0 00-11.4 10.3 8.4 8.4 0 01-8 2.3c-8.9-1.6-17.8-3.1-26.7-4.4a264.5 264.5 0 00-67.5-1.1c-9.8 1.1-19.4 3.3-29 5.4-7.9 1.7-15.6 4-23.4 6.1a21.8 21.8 0 01-3.7.3z" class="cls-1"/><path d="M381.7 959.2c-2.8 2.8-6.5 2.4-9.8 3.2a122 122 0 00-20.6 6.8c-11.9 5.3-23.4 11.5-35 17.3l-3.9 1.7a18.6 18.6 0 011.4-3.5c3.2-4.3 4.3-9.4 5.1-14.5.7-4-1.3-7.1-3.5-10.1l-16.6-22.6a14.7 14.7 0 01-2.8-8.1 21.7 21.7 0 00-1.8-6.5 70.4 70.4 0 00-12.5-21.1c-2.5-2.9-2.4-3.5 1.6-6.6l4.4 3.3a41.8 41.8 0 005.1 3.6c4.3 2.1 7.4 1.1 9.9-2.8l22.4-35.6c2.3-3.7 2.9-3.8 7-1.8l13.4 6.7a46 46 0 0017 5.4c2.9.2 4.4 1.7 5.7 4.3a49.5 49.5 0 006.5 10.7 32.5 32.5 0 0042.2 5.6 62.2 62.2 0 0026.9-37 60 60 0 001.4-25c-.4-3.2 0-3.9 3.5-4.4 5-.8 9.9-1.2 14.8-1.9l37-5c6.1-.8 6.4-.6 9 5.2a97.8 97.8 0 018.2 46.2c-.4 8.6-.6 17.2-4 25.2-.8 2-1.8 3.8-2.6 5.7a39.3 39.3 0 00-1.8 5c-1.2 4.9-2.1 9.8-3.5 14.5-5.5 18.6-11.2 37-16.5 55.6a11.8 11.8 0 01-8.5 8.8c-20.7 7-41.4 14.5-62 21.7l-5.1 1.6c-4.3 1.1-4.8.8-6.7-3.2l-18-37c-1.5-3.2-3.3-6.2-5-9.3a13.1 13.1 0 00-2.3-2.1z" class="cls-1"/><path d="M667.8 861.6l3.2 2.5 36.3 28 16.6 13.3 19.7 15.6 54.3 42.7 12 9 7 5c7.2 4.6 9 11 8.3 19.2-.5 4.8.9 9.8 1.4 14.8l.8 9.6c.7 6.4 1.2 12.8 2.3 19.1a295.4 295.4 0 0014 54.2 143.9 143.9 0 0049.8 67 367.1 367.1 0 0036.7 23.4 625 625 0 0075 37.7c6.2 2.5 12.6 4.1 19 6.1l5.4 1.6v1c-2 .6-4 1.4-6.2 1.8a335.3 335.3 0 01-56.7 6q-39.2.6-78.3.5c-10.7 0-21.3-1-31.9-1.7-4.5-.3-4.7-.6-6.1-4.8a513.6 513.6 0 01-16-60.2c-2.4-12-5-24-7-36-2.6-17-4.7-33.9-6.7-50.8a544 544 0 01-3-33.7c-1-15.1-1.3-30.3-1.9-45.4l-.4-15.5a5.9 5.9 0 00-2.7-4.8l-13.9-10.5a10.7 10.7 0 01-2.2-1.9c-6.9-9-16.3-15-25-22q-19.8-15.8-40-31.3c-6.2-4.7-12.8-9-19.3-13.5l-1.6-1.1c-21.5-17.6-27-20.8-45-31.2-1-.4-1.7-1-2.5-1.5-3-2-3-2.4-1-5.4l4.3-6.3c.2-.2.6-.2 1.3-.5z" class="cls-1"/><path d="M734.5 446.2c-4.1-1.9-6.3.6-8 3.4-6.4 10.7-13 21.2-18.7 32.2-6.2 12-11.7 24.4-17.4 36.7-1.7 3.8-3.9 6-8.3 7a105.4 105.4 0 00-19.5 6.8c-3.9 1.7-7.2 4.8-10.5 7.5-1.6 1.3-3 2.6-5.1 1.8a97.3 97.3 0 00-31.6-3.7 30.7 30.7 0 01-3.8-.4c-.2 0-.4-.4-1.1-1 .7-1.3 1.4-2.6 2.3-3.8q18.5-26 37.2-51.9l48.6-68 39.8-55.3 20.8-29 28.9-40.6c4.6-6.4 9.3-12.8 13.7-19.3 2-3 4.3-3.7 7.7-2.8 5.7 1.4 11.4 2.4 17 3.5 3.3.7 4 1.6 2.8 4.6-1 2.8-2.3 5.4-5 7.4a27 27 0 00-6.5 8.3 3190.5 3190.5 0 00-55.4 101.3c-8.7 16.9-17 34-25.5 51-.6 1.3-1.4 2.5-2.4 4.3z" class="cls-1"/><path d="M85 764.3a16.3 16.3 0 01.5-2.3c7.7-20.6 15.4-41.3 23.3-62q18.7-49.2 37.6-98.3c10-26 20.4-52 30.2-78 4.6-12.6 8.2-25.5 12.2-38.2l1.3-4.3a24.3 24.3 0 011.3 3.7c1.8 16 3.3 32 5.5 48 2 15.2 4.5 30.3 7.1 45.4 2.4 13.8 5.2 27.5 7.8 41.3a13.8 13.8 0 01-1.5 9.3c-7.4 14-14.8 28-22 42-4.5 9-8.5 18.5-13 27.6-2.4 5-5.4 9.8-8.1 14.7-1.7 3-4.5 4.5-7.4 6-9.6 5.3-19.4 10-28.7 16-12.7 8-24.8 16.7-37.2 25-2.6 1.8-5.4 3.4-8 5z" class="cls-1"/><path d="M543.4 529.8c-4.4 5.9-8.6 11.2-12.4 16.7a38 38 0 00-6.3 15.6 7.2 7.2 0 01-3.1 5.2c-9.1 6.3-18.1 12.9-27.2 19.3l-2.8 1.7a16 16 0 01-.6-3c.3-18.7.9-37.4.9-56.1 0-14.8 1.5-29.3 5.9-43.4a101.3 101.3 0 017-16.4c2.6-5.2 6.5-6.7 12.2-5a40.4 40.4 0 019.1 4.2 129.6 129.6 0 0125.5 20.6c3 3 2.9 4.4-.5 7-1.2 1-2.7 1.8-4 2.6s-2.7 1.7-1.8 3.4 2.5 1.4 3.9.8a15.6 15.6 0 004.7-2.4c5.6-5 11-10.3 16.6-15.4 4.3-3.9 8.4-8 13-11.5a33.8 33.8 0 019.5-4.6c3.9-1.4 6.3.5 5.6 4.5a30.7 30.7 0 01-3.5 10.5c-5.8 9.8-12.2 19.3-18.3 29l-18 28a18 18 0 00-2 4.4c-1.4 4.4.2 7 4.7 7.6a73.9 73.9 0 009.7.4c5.8 0 11.6-.6 17.4-.4A54.1 54.1 0 01601 555c9.8 2.7 14 8.3 14.5 18.6.4 8.7-.8 17.3-2.1 26-.9 5.7-1.4 11.5-2 17.2a29.1 29.1 0 007.4 21.9c1.3 1.5 3.7 3.2 1.6 5.3s-3.8-.6-5.2-1.9c-8-6.9-17-9.7-27.4-6.9-2.6.7-5 2.3-7.4 3.4a32.2 32.2 0 01-5 2 3.1 3.1 0 01-2.4-.9 2.3 2.3 0 01.1-2.2c2-2.3 3.7-5.2 6.2-6.6 4.2-2.3 6.8-5.2 7.7-9.8a22.4 22.4 0 012-5.5c4.5-9.4 1.5-17.5-4.2-25.2-6.8-9.4-15.8-12.1-26.8-9a53.6 53.6 0 01-8.4 2c-8.9 1-16-4.7-17.3-13.6a31.1 31.1 0 017.2-24.4c4.3-5.6 9.4-10.5 14-15.9a13.1 13.1 0 002.9-5.3c.5-2.2-.8-3.5-3-3.1a26.9 26.9 0 00-7.7 2.5c-3.4 1.5-3.6 3-2.3 6.3z" class="cls-1"/><path d="M422.7 723.6c-12.3.2-23.4-1.7-33.4-7.5s-17-14-20.3-25.3a58.3 58.3 0 014.7-43.1c1.7-3.5 4.8-6.5 8-9a71.8 71.8 0 0131.6-15.8c10.6-2 21.4-1.7 31.4 2.5 9.3 3.8 18 9.2 22.4 19.2a8.3 8.3 0 001.3 2c6.6 7.8 8 16.5 5.8 26.3-1.3 6.1-1.5 12.5-2.9 18.6a35.6 35.6 0 01-20.6 25.9c-9 4-18.4 8-28 6.2z" class="cls-1"/><path d="M454.5 1136.2c1-2.5 2-4.1 2-5.7-.2-6.8 2.2-13 3.8-19.4q4.5-18.8 9.5-37.4c3.4-12.7 7-25.2 10.5-37.8 4.3-15.3 9.1-30.6 12.7-46 3.3-14.2 8.8-27.7 12.2-41.7 2.6-10.8 5.7-21.6 8.6-32.3 1-3.9 2.4-7.6 3.6-11.5.1-.4.7-.6 1-1a6 6 0 011.4.5c5.8 4 5.9 4 4 10.8L508 968.6c-1.2 4-2.8 7.8-4.1 11.8a9.4 9.4 0 00-.7 4.2c.6 3.8-1 7-2 10.4-2.6 9-5.5 18.1-8 27.3-3.8 13.2-7.3 26.4-10.9 39.6l-13.4 49.4c-3 11-6 22.1-8.7 33.2-1 4.3-1.8 8.5-4 12.4-.1.4-.4.8-1 1.7-1.6-2-3.5-3.5-4-5.3-1.3-6.3-5.5-11.2-8-17-1.9-4.6-3-9.5-5.4-13.9-6-11.3-12.1-22.7-18.8-33.7a279.8 279.8 0 00-30-40.3A118.6 118.6 0 00362 1026a79.9 79.9 0 00-56.3-10.1c-12 2-23.6 5.5-35 9.4l-31.2 10.5c.3-2.8 2.2-3.6 3.7-4.4 7-3.6 14-7.5 21.2-10.6a367 367 0 0045-22.3 380 380 0 0159.9-29.2c1.5-.5 3-1.3 4.4-2l4.1-1.9a15.8 15.8 0 012 2.8l13.4 32.7c1 2.6 2.4 5 3.6 7.4a26.8 26.8 0 012 4.3c3.6 12.5 10 23.7 14.6 35.7q12.5 32 25.2 63.9c3 7.5 6.7 14.6 12.2 20.7a40 40 0 003.7 3.3z" class="cls-1"/><path d="M655.7 543.5c1.5-1.1 2.6-2.3 4-2.9a99 99 0 0111.7-4.6 91.2 91.2 0 0137.8-3.5 52.8 52.8 0 0127.6 11.8 19.6 19.6 0 014.8 5.3c4 7.4 8.6 14.6 10.1 23a55.6 55.6 0 01-4 36.6 52 52 0 01-17.2 19c-9 6.2-18.8 7.9-29 9a109.6 109.6 0 01-11.7.4c-3 0-3.6-.5-4-3.6a23.9 23.9 0 01-.2-5.8c1.2-9.8-1.4-19.2-3.3-28.6a115 115 0 01-2.1-13.3A57.1 57.1 0 00676 570c-1-2.5-2.1-5.2-2.3-7.8a15 15 0 00-7-11.5c-2.7-1.9-5.6-3.3-8.3-5a27.3 27.3 0 01-2.7-2.2z" class="cls-1"/><path d="M691.4 903a49.6 49.6 0 01-4.8 2.8c-17.4 7.3-34.7 14.8-52.2 21.8-33.2 13.3-66.5 26.4-99.8 39.5-5.2 2.1-10.5 4-15.8 6a27.5 27.5 0 01-4 .8 30.3 30.3 0 01.5-4.4c3-11.4 6.2-22.7 9.1-34.1 1.9-7.5 3.4-15 4.8-22.7.5-2.2 1.2-3.6 3.8-3.2 17.4 2.2 34.4-.7 51.4-4 11.8-2.2 23.6-4.8 35.3-8a72.1 72.1 0 0032.5-18.2c3.6-3.5 3.6-3.4 7.6-.5 8.4 6.5 17 12.7 25.5 19.1 1.9 1.4 3.5 2.9 6.1 5.1z" class="cls-1"/><path d="M261 877.5c-.7 2.8-4 4-2 6.3 1.2 1.5 3.2 2.5 5.2 4L261 891c-3 3.3-2.6 6.4 1.2 8.7 3.2 2 5.3 4.3 6 8.2.6 2.7 2.4 5.3 4 7.7 8 12.2 16 24.5 24.5 36.5 3.6 5.3 8.1 10 12.3 14.9.8 1 1.8 1.8 2.6 2.9 2.2 2.8 2.3 3.5.4 6.4a54.6 54.6 0 01-15.4 15.9 67.9 67.9 0 01-39.3 13c-6.4-.1-12.8-1.6-19-2.7a6 6 0 01-4.7-4.5 24.9 24.9 0 01-1-6.2c-.3-21 1.6-42 7.6-62.2 2.7-9 7-17.6 10.6-26.4a16.1 16.1 0 012.5-3.6c3.4-4.3 3.7-8.6 1.2-13.4-1.8-3.5-1-7.5-.9-11.2.2-1.7 2.3-2.4 3.9-1.2a25 25 0 013.4 3.8z" class="cls-1"/><path d="M436.3 818.6a18 18 0 01-2.7-.8 67.9 67.9 0 00-34-5c-4.8.2-9.6-.3-15-.4l8.6-82.3c3.8.7 7 1.4 10.4 1.9 11 1.6 22.1 1.9 33.1-.8 4.6-1.1 5.8 0 5.4 5l-3.4 41.4c-1.2 12.9-3 25.6-2 38.6a13.2 13.2 0 01-.4 2.4z" class="cls-1"/><path d="M483.1 994.3c.3 1.2.6 2 .5 2.4L452.4 1112c0 .5-.7 1-1.5 1.9a22.5 22.5 0 01-2-3.4c-2.7-6.8-5.3-13.8-8.1-20.6l-26.4-65.5-1-2.2c-.8-2.2-.1-3.8 2.1-4.6l7.8-2.6 55.2-19.2 4.6-1.4z" class="cls-1"/><path d="M373.8 851v-11.5a11.6 11.6 0 010-1.4c.7-5.9 9-15.2 14.7-15.6a125.3 125.3 0 0123.6.2c5 .6 9.5 3.6 14.3 5.6.7.3 1.4.8 2.1 1 6.3 2 8.2 6.8 8.4 12.7a50 50 0 01-16 40.8 27.2 27.2 0 01-42.5-5.7 28.7 28.7 0 01-4.8-16.4v-9.6z" class="cls-1"/><path d="M595.4 254.9l-3.7-3.8c-5.5-4.8-10.8-9.7-16.4-14.3a13.2 13.2 0 00-11.8-2.9c-4.6 1-8.6-1-12-3.7-2.9-2.1-5.3-4.8-8-7.1a70.5 70.5 0 00-7.4-6.2c-5.7-3.7-11-3-15.7 1.7a22 22 0 00-2 3c-1.8-1.7-3-2.9-4-4.1-3-3.3-5.4-7-8.5-10-2.7-2.5-3-5-1.7-8l9.4-22.4L525 149l1.8-4c3-.1 3.3 2 4.2 3.3l26.5 41.6c12 18.5 24.3 36.9 36.4 55.3 1.8 2.7 3.6 5.4 1.5 9.8z" class="cls-1"/><path d="M278.7 803.8c1.5.7 2.8 1.2 4 1.9L310 820c2.7 1.4 5.1 3.3 7.8 4.7a102 102 0 0010 4.8c4.3 1.8 5.3 3.3 3.2 7.7a405 405 0 01-11.7 22.7c-5.8 10.2-11.9 20.2-17.8 30.4-2.5 4.2-3.6 4.4-7.4 1.6-6.4-5-12.9-9.7-19.4-14.5-2-1.5-2-2.1-.5-4.3l16.9-22.8c2-2.8 1.6-5-1.7-6.7-4.6-2.3-9.3-4.4-14-6.5l-2.2-1c-4.8-2.2-5.2-4.2-1.8-8.4a27.2 27.2 0 006.3-20.6 8.5 8.5 0 010-1.9l1-1.4z" class="cls-1"/><path d="M228.7 845.4c-9-.2-14.4-4.9-19-10.6-5.8-7-8-15-5-24 1-3.3 1.3-7 2.6-10.2 3.8-10 13-15 23.5-13.3a69.1 69.1 0 0132.5 15.2c8 6.6 7.8 18 0 24.9a74.5 74.5 0 00-7.2 6.5c-7.6 8.5-17.9 10.1-27.4 11.5z" class="cls-1"/><path d="M771.1 868.6c-4.8 2.3-8.6 4.3-12.5 6-10 4.4-20 8.4-29.7 13-4.6 2-8.1 1.9-12.3-1.4-15.4-12-31.1-23.4-46.6-35.2-6.6-5-9.3-10.7-9.8-19 1.5-1.8 3.2-.7 4.8-.2l24.6 7.1c15 4.4 30.1 8.3 44.9 13.4 11.4 3.9 22.3 9.2 33.4 14 .8.3 1.5 1 3.2 2.3z" class="cls-1"/><path d="M874.3 557.2c0 6.2-2 11.6-4.7 16.8a5.8 5.8 0 01-1.1 1.6c-6.9 6-13.3 12.7-22.8 14.6a31 31 0 01-27.6-11.6 18.5 18.5 0 01-3-12 71 71 0 0112.6-35c2.2-3.2 4.8-4.2 8.6-3.1a81.2 81.2 0 0127.7 12.2 56.4 56.4 0 017.4 6.8 12 12 0 012.9 9.7z" class="cls-1"/><path d="M212.4 882.2c-4.8 6.3-7.6 13.6-13.5 18.9-4.3-1.7-7.3-4.8-10.2-7.7-7.3-7.2-14.3-14.8-21.6-22-3-3.1-6.5-5.8-9.8-8.7-3.7-3.3-3.8-5-2.2-9.7 2.7-8 8.7-13.5 13.8-19.6 5.4-6.6 11.8-12.3 17.7-18.5 2.6-2.6 5-5.4 7.7-8a28.2 28.2 0 013.9-2.6 20.7 20.7 0 010 3.2l-1 5.2a34.6 34.6 0 007 29c3.2 4.2 3.2 4.1.5 8.3l-7 11c-1.6 2.5-.8 4.8.8 6.7 3.4 3.8 7 7.5 10.5 11.2l3.4 3.3z" class="cls-1"/><path d="M758.1 555.5a186.9 186.9 0 0056.9-19.3l.8 1.1c-1 2.6-2 5.3-3.2 7.9a66.1 66.1 0 00-5.7 27.2 25.7 25.7 0 004.8 15.3l1.9 3a17.6 17.6 0 01-3.8 2l-28.2 6.7-17.9 4c-1.5.3-3 .3-5.5.5a61.7 61.7 0 003.6-24.4c-.8-7.8-2.3-15.5-3.7-24z" class="cls-1"/><path d="M500.6 812a359 359 0 01-57.2 7.7 30 30 0 01-.3-4.5l3.6-39c.7-9 1.1-18 1.7-27 .1-1.6.5-3.3.7-4.8a9 9 0 011-.2.6.6 0 01.5 0l2.5 3c16 20.8 32.6 41.4 47.3 63.4a3.6 3.6 0 01.2 1.3z" class="cls-1"/><path d="M864 590.6c14-11.4 19.6-26 19.6-43.8 7.5 2.6 14.1 5.1 20.8 7.1s13.6 3.5 20.9 5.4c-1 1.1-1.2 1.7-1.7 2-6.7 3.4-10.4 10-15.4 15-5.1 5.3-7.4 12-8 19.2-.4 5-1 5.4-5.6 4l-25.6-7-5-2z" class="cls-1"/><path d="M1016.8 581.5a6.1 6.1 0 01-3.3 5.5 133.1 133.1 0 01-38.6 13.4c-2.5.5-4.4 0-5.4-2.7l-8.3-21.6c-1-2.5-.2-3.8 2.6-4.6 5.8-1.5 11.6-2.8 17.4-4l20.8-4.5a46.1 46.1 0 005.4-2c1.5-.6 2.9-.3 3.7 1.3a58 58 0 015.7 19.2z" class="cls-1"/><path d="M511.8 455.4a12 12 0 01.6-3c4.7-9.4 9.8-18.8 16.5-27a67.7 67.7 0 0115.7-14.2 25.8 25.8 0 016.5-3c5.7-1.7 8 0 8.2 5.7a30.3 30.3 0 01-.7 7.2 75.5 75.5 0 01-2.7 9.7c-3.8 10.6-8.2 21-14.2 30.6-2.8 4.6-2.8 4.6-7.3 2a54.5 54.5 0 00-7.2-4c-3.7-1.5-7.6-2.4-11.4-3.4a31.2 31.2 0 00-4-.6z" class="cls-1"/><path d="M331.6 853.7a30.5 30.5 0 011-3.3l7.7-18.1c1.7-4 1.4-5-2.5-6.8-6-2.9-12.1-5.4-18-8.4-7.3-3.8-14.5-8-21.8-12l.4-1.1a14.1 14.1 0 012.8.5c13.7 5 27.4 10.3 41.2 15.4 5 1.9 10.3 3.7 15.5 5.4 8 2.7 11.4 8.7 9.9 17.1-1 5-1.3 10.3-1.9 15.4l-.1 3.8c-.3 3.9-1 4.4-5 3.4a30.4 30.4 0 01-3.7-1.2l-25.5-10z" class="cls-1"/><path d="M232.8 853.6l-3.5 7.4a6.3 6.3 0 001 7.6c3.7 4.1 7.2 8.3 10.9 12.3 4.5 4.7 5.1 6.9 2.2 12.8-1.8 3.8-4.1 7.3-6.2 11a3.4 3.4 0 01-4.4 1.7 3.1 3.1 0 01-.5-.3l-17.5-9.1c-2-1.1-2-3-.8-4.6 2.9-3.7 3.7-8 4.9-12.4.6-2.6.2-4.4-1.7-6l-11.8-10-2.6-1.6c3.2-4.2 5.9-8 8.8-11.5a4.3 4.3 0 013.4-1.2c5.7 1 11.3 2 17 3.2l.8.7z" class="cls-1"/><path d="M484.6 500.3c-.8-5.2-1.9-10.4-2.2-15.6-1-15.9-2.1-31.8-.6-47.8a38.3 38.3 0 011.7-8c1.1-3.6 3.6-5 7-4a21.5 21.5 0 016.5 3c4.3 3 9 5.5 11.7 10.6 1.4 2.6 1.6 4.6.2 7.1L496.2 469a86.5 86.5 0 00-9 26.4l-1 5z" class="cls-1"/><path d="M1018.5 593.3c1 3 1.6 5.8 2.6 8.5a74 74 0 003.3 7c2.3 4.7 2.1 5.3-2.4 7.4L997.7 627l-10.6 4.6c-3.8 1.7-5.4 1.2-7.4-2.5-1.6-3.2-3-6.4-4.4-9.7s-1.2-3.8 2-5.8a169.6 169.6 0 0127-13.9c3.8-1.4 7.2-3.5 10.8-5.3a29.3 29.3 0 013.4-1z" class="cls-1"/><path d="M269 869.4c-4.1-4-7.9-6.9-13-6.3s-7.4 4.5-10.6 8.3l-10.1-8.8c1.6-3.5 2.8-6.8 4.4-10 .6-1 1.9-1.6 3-2.1 4.6-2.5 9.5-4.7 14-7.5 2.6-1.6 4.8-2 7.6-.7 4.9 2 9.9 3.9 14.7 6 3.2 1.4 3.4 2.2 1.5 5-2.6 4-5.4 7.7-8.1 11.5l-3.3 4.6z" class="cls-1"/><path d="M942.9 620.6c-4.7-9.2-8.9-18.3-16.5-26l7.9-3.7c5.8-2.7 11.6-5.5 17.5-8.1 3-1.4 3.8-.8 4.7 2.4 1.5 6 3 11.8 4.7 17.7 1.5 5.6 1 6.7-4.1 9.7l-14.3 8z" class="cls-1"/><path d="M920 593.4l8.4 20.8c-1.8-.3-3-.2-3.7-.7-4-2.8-8.2-5.3-11.4-8.8-5.3-5.6-5.3-12.6-2.6-19.4s7.9-11.9 14-15.5c2.7-1.6 6.7-1.8 9.8-1.3 4.1.7 3 5.1 4 8 .7 2 .5 3.8-1.9 4.8a90.2 90.2 0 00-8.6 4.3c-3.5 2-7.1 4-8 7.8z" class="cls-1"/><path d="M989.4 531.5l2.2 4.8c1.7 4.4 1 6.1-3.4 7.7-4.7 1.6-9.4 3.3-14.2 4.4a808 808 0 01-25 5.6c-4.8 1-6-.3-5.4-5.3.6-4.3 1.3-5 5.5-6 8.4-1.8 16.7-3.4 25-5.5 4-1 7.8-2.9 11.6-4.4z" class="cls-1"/><path d="M919.5 40.7c.8-3.5 1.7-7 2.3-10.7 1.3-6.7 2.4-13.4 3.6-20.5 5 6 9.6 11.4 14.1 17a8.3 8.3 0 01.6 2l-19.5 13.1z" class="cls-1"/><path d="M564.3 544.6a160.4 160.4 0 0113.4-21.5l15.2 15.3c-1.4.6-2.4 1.5-3.6 1.5-8.1.7-15.7 5-25 4.7z" class="cls-1"/><path d="M947.5 575.4l-.4-3.5c-.7-7-.7-7 6.4-8.8l32.7-8.5c1.7-.4 4.3-2 4.8.8.4 2.3-2.6 1.9-4.2 2.1-8.6 1.4-17.2 2.8-24.9 7.3a14.6 14.6 0 00-5.7 5.5c-1.8 3.9-4.8 4.6-8.7 5.1z" class="cls-1"/><path d="M751.8 616.3c1.6-1.4 2.6-2.9 3.9-3.2 8.2-2 16.5-3.7 24.8-5.5.4 0 .8.3 1.4.5-5.3 2.6-26.1 8.5-30.1 8.2z" class="cls-1"/><path d="M963.9 633.2c-1.8 0-3.6.3-4.5-2-1-3-.5-4.3 2.7-5.1 4.7-1.2 5.7-.9 6.8 2.5 1 3.1.5 4-2.8 4.5l-2.2.1z" class="cls-1"/><path d="M277 901l2.7 8.4c-3.2-1.4-4.9-3-5.2-5.7 0-.6 1.2-1.4 2.5-2.7z" class="cls-1"/><path d="M273 891.1c1.5.6 1.9 2 1 3.1-1.4 2-3.5 1.5-5.7 1.3 1.6-2.7 1.6-2.7 4.7-4.4z" class="cls-1"/><path d="M547.2 464.6a20.5 20.5 0 01-.4 4c-.2.7-1.2 1.2-1.8 1.8-.6-.9-1.8-2-1.6-2.5a19.5 19.5 0 012.8-3.8z" class="cls-1"/><path d="M532.1 402.5c-.3 2.6-1.4 3.6-3.2 3-.6-.2-1.5-1.7-1.3-2.2 1-2.3 2.7-1.4 4.5-.8z" class="cls-1"/><path d="M473.4 380.6c-.8-1.6-1.5-2.4-1.7-3.3 0-.4 1.2-1.4 1.5-1.3.7.3 1.7 1 1.8 1.7s-.7 1.4-1.6 2.9z" class="cls-1"/><path d="M960.5 618.2l3.8-2.6c.3 3.6.3 3.6-3.8 2.6z" class="cls-1"/><path d="M772.9 831.6l2.3 4.7c-2.7-1.7-2.7-1.7-2.3-4.7z"/><path d="M1108.4 651.8c-.6-1.4-.4-2.4 2-3.7l-.8 3.9z"/><path d="M768.7 837a4.8 4.8 0 01-.6.8 7.3 7.3 0 01-1-.7l.6-1z"/><path d="M98 979.3c3.4.8 6.6 2 6.4 6.5z"/><path d="M107.5 976.2l1 6-1 .3a6.8 6.8 0 01-1.4-6.1z"/></svg>