<svg xmlns="http://www.w3.org/2000/svg" viewBox="0 0 1200 1552.9">
  <defs/>
  <defs>
    <style>
      .cls-1{fill:#fff}
    </style>
  </defs>
  <g id="Layer_2" data-name="Layer 2">
    <g id="Layer_1-2" data-name="Layer 1">
      <path d="M0 0h1200v1553H0zm45.2 774.8v719.5c.4 9 6.1 15.7 15 17.4a39 39 0 007 .5H1135c9.8-.7 16.7-7 17.7-16.4a50.5 50.5 0 00.2-5.6V59.6v-4.7a18 18 0 00-14-16.8 32.7 32.7 0 00-7-.4H62.6A17.5 17.5 0 0046 51.2a37.2 37.2 0 00-.7 8.3v715.3z" class="cls-1"/>
      <path d="M45.2 774.8V59.5a37.2 37.2 0 01.8-8.3 17.5 17.5 0 0116.6-13.5h1069.2a32.7 32.7 0 017 .4 18 18 0 0114 16.8v1435.3a50.5 50.5 0 01-.1 5.6c-1 9.3-8 15.7-17.7 16.4H67.2a39 39 0 01-7-.5 17.7 17.7 0 01-15-17.3v-6.2zm5.1-.2v713.8a55.7 55.7 0 00.4 8 12.3 12.3 0 0011.5 10.6H1135c7-.2 11.8-4.7 12.5-11.6a72.2 72.2 0 00.2-7.5V62.9v-5.6a29.3 29.3 0 00-.3-3.7c-.8-5.4-4-8.9-9-10.3a32.9 32.9 0 00-8.4-.8H67.5a43.3 43.3 0 00-4.7.1c-7.4.8-12 5.6-12.4 13-.2 2.5 0 5 0 7.5z"/>
      <path d="M50.3 774.5V63v-7.5c.5-7.4 5-12.2 12.4-13a43.3 43.3 0 014.7-.1h1062.7a32.9 32.9 0 018.3.8c5.2 1.3 8.3 4.9 9.1 10.2a29.3 29.3 0 01.3 3.8v1430.6a72.2 72.2 0 01-.2 7.5 12.4 12.4 0 01-12.5 11.6H62.2a12.3 12.3 0 01-11.5-10.6 55.7 55.7 0 01-.4-8V774.5zM686.6 1348l4-2.7 2.5-2-.6-.6-1.9 2.7-3.8 2.7-3 1.4c0 .3.2.5.4.7zm64-65.6l-2.5 2 .7.6 1.7-2.8 2.2-2.5-.7-.4zm.7 46.6l2.4-2.1-.6-.5-1.7 2.7-2.2 2.5.7.5 1.4-3.2zM455 521.4l4-1.7-.3-.6-3.7 2.3-4.7.3v.5zM739 1296l5-5.3 2.2-2.6-.8-.4-1.3 3-5 5.4-4.6 5.9-5.3 5 1 .9 4.2-6zM418 877.8c2.2-3.1 2.5-6.7 1.8-10.4l1.8-3.2-5.1.8-2.1-41a10.8 10.8 0 00-1.1 4.5c-.2 9.9-.4 19.7-.4 29.5a37.2 37.2 0 001 7.4c.7 4 2 4.3 5 1.6.4-.3 1.4-1.4 1 .5l-1.9 10.4v4.3h.5l-.6-4.4zm342.7 438.9l5.9-5.4-.7-.6-5.1 6-3.2 3.5.8.6zM302 1206.4h6v-.6l-6 .6c-.3-.4-.5-1-.9-1a43.9 43.9 0 00-22-2.6c7.9 0 15.5 1 23 3.6zm76.6-2.2l14.8 5.3a44.8 44.8 0 00-10.4-4.5 25.5 25.5 0 00-4.5-.7 21.6 21.6 0 00-3.8-2.2c-8.4-2.9-16.9-5.6-25.3-8.4a24.1 24.1 0 00-2.6-.6l-.1.6 32 10.5zm323 131.4a32 32 0 003.7-2.7l19.8-20c.8-.7 1.4-1.7 2.4-2.8l-25.5 24.8-.4.8c-2.6.7-3.9 3-5.9 4.5l.7.6 5.1-5.1zm-398.5-318.1a19 19 0 00-3 11.3c.5 7.1.6 14.3 1 21.4h1c0-6.3-.2-12.5 0-18.7.1-4.7.7-9.4 1-14l.2-4.2h-.4l.2 4.2zM820 914.6c-13.6-6.3-31.2-10.5-36-8.5.4.3.7.7 1 .8l29.9 7.8c1.6.3 3.4 0 5 0-1.1 2.3-2.6 4.6-3.4 7-1 3.4-3 5-6.3 5.2h-5.2a10 10 0 00-2.4 1c1.2 2.7 3.4 2.3 5.3 2.6 3 .4 6 .2 8.6-1.6 4.1-2.8 5.7-9.5 3.5-14.3zm190.3-96c-4.9 2.3-10.4 3.3-14.7 7a5.4 5.4 0 01-3.4 1.2c-4.9-.2-9.7-.4-14.5-1-3.6-.5-7-1.6-8.6-5.4h-.9c-.2 3-.3 3 1.4 4.5 8 6.8 17.4 6.6 27 5.3 2-.3 4-1.4 3.4-4.4.4 8.2 0 10.3-3 16.1a12.6 12.6 0 00-1.3 3.6c-.6 3.5-2.5 5-6.1 5-2.4 0-5 .1-7.5 2.8l8.6 1.4c-1.9 3.1-2.8 4-6 5q-6.7 2-13.5 3.6a36.4 36.4 0 01-5.9.4 34.3 34.3 0 00-2.1-4.6 2.9 2.9 0 00-2.2-1c-.4 0-1 1-1.2 1.7-.4 3.9 4.5 9.5 8.4 9 7.5-.7 15-2.4 21-7a34.9 34.9 0 009.4-12.5c2.8-6 5.5-12.3 4.4-19.4a13.1 13.1 0 01.1-1.8c0-2.7.8-4.8 3.5-6.1 1.4-.7 2.4-2.4 3.5-3.6 2.5-3.3 3.1-9.3 1-12.5-.4 1.1-1 2.1-.7 2.7 1.7 3.4.7 6.6-.1 10zm-282 123.2a24.9 24.9 0 012.6 1.1c4.9 2.8 9.5 6 14.6 8.4 12.3 5.7 25.6 6.5 38.9 7.5 3.6.3 5.9-1.9 7.4-4.7 1.4-2.6 2.8-4.8 5.5-6.2a5.5 5.5 0 002.3-2.8 86.5 86.5 0 003-8.9 5 5 0 00-.3-2.4l-17.3-6.7-.5 1c3 4.5 8.7 4.6 13.1 7-.8 2.3-1.5 4.3-2.4 6.3a6.8 6.8 0 01-9.4 3.7c-1.4-.7-2.7-1.7-4.3-.2.4 3.6 4.2 2.5 5.9 4.1-1.5 4-1.5 4.3-5.1 4.2a96.7 96.7 0 01-33.2-5c-7.8-3-15.2-7.3-22.7-11l-6.3-3.6-.4.7 8.7 7.7c-2.1-.7-3.8-.2-4.2 2.2a67.2 67.2 0 00-1 9.6c0 3.1 1.3 4.7 4.3 5.4a30 30 0 0013.9 0 5.9 5.9 0 004.7-4.5c-5.4 2.4-10.3 1.7-15.2 1.2-3.7-.4-4-.6-3.8-4.4.1-3.3.8-6.5 1.2-9.7zm278.2-145.2c-.7 1.4-1.8 3-.2 4.2a27.4 27.4 0 006.2 2.7c.2.1 1.2-.7 1.2-1a2.6 2.6 0 00-.9-2c-2-1.4-4.2-2.6-6.3-3.8a19.9 19.9 0 012.9-2.3c3.4-1.8 7-3.4 10.4-5.3 6.7-3.8 13.8-7.1 19.7-11.9a143 143 0 0121.5-13.4c2.7-1.4 5.3-3.2 7.7-4.7-.3-6-1.5-6.7-6.1-4.6-4.3 1.9-8.6 3.8-12.8 6-7.2 3.8-14.6 7.3-21.3 11.8a132.9 132.9 0 01-21.2 12l-18.5 8a35.1 35.1 0 00-5 2.6c-.6.3-.6 1.4-1.2 2.9 9.3-3.2 17.1-7.7 25.8-10.2-51.6 33-104.2 64.3-156.2 96l-4.3-1.8.3 4.3-19.1-4.2c-.4-1-.6-2.3-1.3-3-4.9-4-10.8-6.1-17-7-.7 0-1.5.9-2.3 1.3.6.8 1 1.9 1.8 2.3 2.4 1.5 5.3 2.2 7.4 4 4 3.2 8.7 5 13.4 6.5l10.8 3.3-1.1 2.9c.5.1.9.4 1 .3 4.3-2.3 7.5-.2 10.3 2.6a62.9 62.9 0 015 6.3c1.2 1.4 2 3.2 5 2.5.1-6.2-4.8-9.5-7.4-13l1.8-6c6.3-3.6 12.5-8.7 20.4-12.4l3.2 15.2a44 44 0 0013.9 24.5l3.8 3.4a20.4 20.4 0 015.4 18.8c-2-2.3-4-4.6-5.7-6.9l-5.2-7.4c-2.6 1-2.2 2.7-1.5 4.1 1.5 2.7 3.3 5.3 4.9 8 2 3.4 4.2 6.6 5.7 10.2 3.5 7.9 6.6 15.9 9.7 24 4.9 12.7 10.2 25.3 14.3 38.2 3.3 10.8 5 22 7.3 33 4 19.5 7.3 39.2 8.6 59a276 276 0 01-3.5 72.1c-5 25.4-10.6 50.6-21.7 74.2a205 205 0 01-24.3 42.3 296.2 296.2 0 01-30.4 31.4c-19.4 18-41 33-63.2 47.1a290.8 290.8 0 01-73.1 33.7 269 269 0 01-77.8 11.4 205.5 205.5 0 01-22-1.3c-12.3-1.3-24.1-5-35.8-9.2-8-3-15.8-5.9-24.4-6.4a4.2 4.2 0 01-1.4-.6c9.7-1.3 19.2-2.1 28.2-5.5-21.4 4.1-42.7 6-63.9-1.4-4.6-2.1-9.4-2-14.9-.1h15c1 .6 1.9 1.6 3 2l15 3.7a53.7 53.7 0 016.3 1.7c13.4 5.2 26.7 10.8 40.2 15.8a134.7 134.7 0 0035.5 8.2 259.6 259.6 0 0062.3-2.8 272 272 0 0088.5-29.8 432 432 0 0095-69.1c12.3-12 24.2-24.2 32.8-39.2 14.6-25.6 26-52.4 32.2-81.4 3.7-17.6 7.8-35.2 8.6-53.2.7-13.6.3-27.3.3-40.9a64.7 64.7 0 00-1-9.8l-9.1-57.5a219.4 219.4 0 00-15.2-52.2c-4.7-10.9-9.2-21.9-13.7-32.9a45.4 45.4 0 01-1.4-5l3.5.2h2.8c4 0 5-.8 5.5-4.8.3-1.7.1-3.5.7-5 2.8-7.2 1.7-14.3.2-21.4a141.7 141.7 0 01-3.9-34.4 48.4 48.4 0 00-1-8.8l-2.8-15.5c.5-.5.7-.8 1-.9l15.3-5.8a4.3 4.3 0 001.4-.9 28.8 28.8 0 013.2-3.1l25.7-17.3 20-13.1a9.6 9.6 0 016.2-1.6c7 .4 12.1-3.4 17-7.9-5.5.3-9.2 5.3-14.8 5 5.2-3.4 10.6-6.4 16.1-9.4a10.4 10.4 0 013-.6zM833 539.3a10.2 10.2 0 01-2.7-.2c-2.7-1-4.7 0-7.2 2.6l6.4 1.7c2.8 3.5 1.3 8.7 5 11.5 5-4.1 4.9-9.3-.4-17.6 4.7-1 4.7 5 8.4 5.7a11.8 11.8 0 00.7-9.5 38.3 38.3 0 00-3.3-7.3c-1.5-2.7-2-5 .1-7.7 2.3-3 3.9-6.5 5.7-9.7a10.2 10.2 0 001.2-7.7 11.3 11.3 0 011.6-9h2c12.2.3 22.6-3.5 31-12.7a49.6 49.6 0 0012-19.8 121.2 121.2 0 015.9-15.9c6.6-14.4 13.4-28.6 20.2-42.9l12.7-26.4 9.2 1c11.1.8 21.8-1.7 32.3-4.7 5.6-1.6 10.6-4 14.3-8.5a22.2 22.2 0 014-3.4c6.9-5 11.7-12 17.4-18.3a6.1 6.1 0 00.9-7c-1.1-2.4-3.4-2.5-5.7-2.3a11.7 11.7 0 00-3.2.3c-7.4 2.6-14.8 5-22 8a28.9 28.9 0 01-24-.7c-4-1.8-7.7-4.1-10.3-8l1.5-4.3a35.8 35.8 0 00.5-20.9c-1.2-4-.7-7.6.2-11.4 1.7-7 3.9-14 4.5-21 1.2-12.8 1.4-25.7 2.2-38.5a11.3 11.3 0 00-5-10.5c-6.1-4-12.5-8-20-8.7-5.5-.5-11-.4-16.5-1.2-14.5-2-29-4.5-43.5-6.6-11-1.7-22-3.4-33-4.2-8.7-.7-17.2-2.5-26-2.7-8-.3-13.6 2.9-15.4 10.8-.5 1.8-.7 3.7-1.2 5.5-1.4 5-2.5 10-4.5 14.7-3.4 8.1-7.5 15.9-11 23.9a60.7 60.7 0 00-3 9.3c-.6 2-.6 4.3-1.2 6.4l-5.4 17.4c-.5 1.8-1.3 3-3.4 3.3-5.4.7-10.6.7-15-3.4l-5.3-4.6-15.3-13.2a20 20 0 00-15.1-5.3c-5.4.5-7.7 2.5-7.6 8a85.6 85.6 0 001.2 12.1c1 6 4.4 10.3 9.2 13.7 7 4.8 14 9.6 20.7 14.7 2.6 2 4.7 4.8 7.2 7.2a24 24 0 003.9 3.3 2.6 2.6 0 002.5 0 4.3 4.3 0 00.7-2.8 3.6 3.6 0 00-1.2-2c-3.3-3.3-6.4-6.9-10-9.8-6.2-4.8-12.7-9.3-19-13.8a22.2 22.2 0 01-9.3-25c5.5-1.7 10.1.2 14.2 3.8 5 4.3 9.7 8.9 14.7 13.2l21.5 18.1a14.4 14.4 0 011.5 2c-3 .1-5.3.1-7.6.3a8.7 8.7 0 00-6.5 3.3c-1 1.2-1.5 2.5.7 3.5 2.6-3.6 6.4-4 10.5-4h6a7.7 7.7 0 013.7.6q10.6 6.5 21 13.2a28.6 28.6 0 013.6 3.2l-8.1 12c-3.6-1.6-3.7-1.7-6.7.1a5.7 5.7 0 01-6.5-.1c-3.5-2.3-6.2-5.1-6.6-9.7a5.9 5.9 0 00-1.4-2.9 47.1 47.1 0 00-3.5-3.6l-11.8 2.5a2.7 2.7 0 00-1.7 1.5c-1.3 3.8-3.6 7.8-3.4 11.6.2 3.6-1 6.6-1.8 9.8-.4 1.7-1.4 3.6.5 5.2l3.7-2.1.8.6-3.2 10c3.8-.5 1.2 5.7 5.5 5.2l-.9-12.6c0-1.4.6-3 .1-4.1s-2.1-1.8-3.3-2.7a51 51 0 002-5.9c.4-2 .5-4.3.8-6.5a22.3 22.3 0 01.7-3.2c1.5-5.3 4.9-7.4 11-7v3.5l4.2-1.3a11.1 11.1 0 01-1.8 10.5c-5.4 7-3.6 14.1-1 21.3.4.8 1.5 1.2 2.3 1.8l1-.5c-.6-3.9-1.3-7.8-1.7-11.7-.4-4.3 1.8-7.8 3.4-12.2 1.3 3-1 6.8 3.4 7.5 1.1 3.4 4.3 2.7 6.8 3.5l4-5a24.1 24.1 0 010 6.3c0 .7.8 1.8 1.2 1.8a3 3 0 002.2-1c1.5-2.5 2.8-5.3 4.3-7.8.6-1 1.7-2.2 2.7-2.3 2.1-.2 2.8-1.6 3.6-3.1l3.2-5.6 10.2 8a146.5 146.5 0 0045.3 24.1c12.1 3.8 24.3 7.1 36.6 10a30.2 30.2 0 0014 .3c6.4-1.6 12.7-1.2 19-1a20.2 20.2 0 013.5.7l-3 5.3c-2.6 5-5.5 9.8-8 14.8a863.6 863.6 0 00-15.4 32.2c-4.6 10-10 19.8-12.8 30.7a36.2 36.2 0 01-10 16.2c-1.4 1.6-3.1 3-4.7 4.5a29.5 29.5 0 01-25.7 7.3c-5.2-.8-10.3-2.5-15.5-3.6-8-1.7-14.6-5.4-19.4-12.2-1.4-1.9-3.4-3.4-5.5-5.4l-2.2 5.2c-8-3.7-12.8-9.9-15.4-18a44.5 44.5 0 00-2.3-5.7 5.1 5.1 0 00-3.5-3l3.3 10.4c3.1 10 9.7 16.9 18.7 21.8a20.4 20.4 0 015.3 3.6 30.1 30.1 0 0014.3 8.6c3 .8 6.1 1.4 9.2 2.1l7.6 1.9c-.3 4.4-.5 8.1-1 11.8a12.8 12.8 0 01-1.3 4.4l-6 10.7c-2 3.7-3.4 7.1.7 10.3.2.2.1.6.2.6-1 3.6-3.7 2.8-7.1 2.1 2.3 2.2 4.6 3.5 2.4 6.1-.2.2 1 1.6 1.5 2.4zM756.5 465c-2-3.6-5.3-7.1-5.8-11-.9-7.3-.2-15-.2-22.4a2.9 2.9 0 01.7-1.7l8.6-10.4a30.8 30.8 0 004.5-6.5c3-6.8 2.6-14 1.8-21.2l-1.3-.8-1 4c-1.2 5-2.4 10-3.8 15-.5 1.7-1.3 3.7-2.7 4.7a39 39 0 00-10.2 12.6l-11 2.2c-3.2.7-6.4 1.5-9.5 2.4-3 .8-6.3 1.2-9 2.7-9 5.3-19 8.8-26.3 16.7a13.4 13.4 0 01-2 1.4 102.1 102.1 0 01-17.2 10.3 151.8 151.8 0 01-18.2 7.3 29.6 29.6 0 00-4 1.5c-14 7.2-28.5 13.6-41.7 22.4-4 2.8-8.8 4.6-13.3 7a67 67 0 00-26.4-2.7c-4.5.5-9 1-13.5 1.3-10.3.8-20.6 1.4-31 2a86 86 0 00-20.6 4.4 17.3 17.3 0 00-2.3 1.1c14.7-4.1 29.9-3.8 44.8-5.1 5.9-.5 11.8-.8 17.8-1.1 4.3-.3 8.7-.7 13-.7 6.2 0 12.2.4 18.3.7a21.6 21.6 0 01-1.8 2c-6.8 5.9-13.7 11.5-20.4 17.4a83.6 83.6 0 00-21.5 31.6c-.3.5-.5 1.3-.3 1.7 1.5 2.5.8 5.2 0 7.3-1.8 4.6 0 9.7-2.5 14a2.1 2.1 0 00.3 1.8c1.4 2.1 0 3.4-1.2 5-2.2 2.7-4.5 5.6-6.5 8.5-6.7 10-13 20.4-20 30.1a68.5 68.5 0 00-11 24.7c-3.1 12.3-5.6 24.7-8.9 37a116 116 0 01-10.5 26c-2 3.6-3.8 7.3-5.5 11-5 10.8-9 22-15.6 32a52 52 0 00-4.4 9.2c-1.9 4.7-3.5 9.4-5.2 14.1l-3 7c-2.5 7.4-3 14.6 2.1 21.3a13.1 13.1 0 011.5 2.5c5.6 11.8 15.8 18.7 26.6 25a20.4 20.4 0 003 1c2 .8 4 1.2 5.6 2.3 2.8 2 5.3 4.3 8 6.5 3.7 2.9 7.1 6.1 11.1 8.6A223.7 223.7 0 00555 868a205 205 0 0144.5 21 69.5 69.5 0 0020 9c15 4.2 30 8.4 45.2 12.4 9.2 2.4 18.8 3.6 27.5 7.7l17.3 8.5 8.3 4.5s.4-.7.2-.9c-2.7-3.4-5-7.3-8.3-10a74.8 74.8 0 00-14-8.5c-7.6-3.8-15.9-5.5-24.1-7.4-14.6-3.3-29-7.4-43.6-11.1a102.7 102.7 0 01-30.3-13.4 119.8 119.8 0 00-18.3-9.6c-14.5-6.1-29.6-10.9-43.8-18-10.1-5-20.2-10-28.6-17.8a39.1 39.1 0 00-14.5-8.4 13.5 13.5 0 01-3.6-2c-2.8-2-5.3-4.5-8.2-6.3a53.6 53.6 0 01-17.7-22.2c-1-2.2-.5-5.5-.3-8.2.1-1 1.5-1.7 2.3-2.5.4 3.4.4 3.4 2.6 5.6l-2.6-5.6c-2.4-.6-1.3-2-.8-3.3l6.4-16.2c1.7-4.3 3.4-8.7 5.4-13 3-6.5 6.4-12.9 9.4-19.4 3.1-6.7 5.6-13.7 9.1-20a136.3 136.3 0 0011.8-28.7c3.5-12.3 6-25 9-37.4 1.7-7.2 4-14.1 8-20.4l6.9-10.7 16.5-26.3c.6-1 1.6-1.9 2.3-3 2.9-4 5.8-8 8.6-12.2 5-7.3 9.5-14.8 16.1-20.7A174.2 174.2 0 00594 532c1-1.1 2.5-2 1.6-4.1-4.3 1.3-6.8 4.6-9.6 7.5l-14.8 15a14.2 14.2 0 01-2.3 1.7c1-2.6 2.5-4.6 3.7-6.9a47 47 0 0114.6-16.8c4.6-3.5 8.9-7.4 13.5-11 2.6-2 6.2-2.5 7.8-5.9 6.3-3.3 12.4-7.3 19.1-9.8 7-2.6 9.5-.5 12.2 6.6 3.2 8.3 6.6 16.5 10.2 24.7a57 57 0 015 20 119.3 119.3 0 001.8 16.2 125 125 0 012.4 25.3c-.1 9-.6 18.1-.7 27.2-.2 14.8-2.3 29.4-4 44a48.2 48.2 0 01-1 5c-2.3-1.7-3.7-1.3-5 .6-2.4 3.3-4.3 7.3-7.4 9.6-3.7 3-5 6.7-6 10.7a45.3 45.3 0 01-6 13.2 97 97 0 01-29.5 29c-1.3.9-2.4 2-3.8 2.8-2.3 1.5-4.6 3.3-7.1 4.4a31.6 31.6 0 00-17.3 16.9c-1.9 4.2-1.4 6.4 1.7 9.7l3.3 3.4c13 13.6 27.8 24.9 45 32.6a54 54 0 0113 8.2c6.5 5.4 13 10.8 19 16.7a81 81 0 0030 17.9c12.8 4.6 26 8.3 39 12.1 6.6 1.9 12.8 4.5 20 3.5 6.3-.8 12.8.8 19.2.9a211 211 0 0027.7-1c8.3-1 16.8-1 25.2.9a61.1 61.1 0 0014.9 1c2.3 0 4.2-.2 6.1 1.2 3.4 2.5 7.3 2.6 11.3 2.3 2-.1 3.5-1 3.2-3.8-5 1-9.6 1.5-13.5-2.7h19.4c-1.3-3-3-3.8-5.1-3.8-3 0-6 .2-9 .4-5.1.4-10.3 1.6-15.4 1.2-7.5-.6-15-2.2-22-3.3 0-6-.2-11.5 0-17a39 39 0 01.7-7.9c3.7-16 4.6-32.2 4.4-48.5-.2-20.4 1-40.7-1.3-61 11.1-3 19.5-18.7 13.6-25.2-4.4 15.4-6.8 19.1-14.2 21.3a44.6 44.6 0 01-.7-4.6c-.3-5.2-.7-10.3-.7-15.5a457 457 0 00-2.5-48.8c-.5-4.5-1-9-1.7-13.5-.4-2.5-.7-5.2-3.2-8.3-.5 2.7-1.1 4.3-1 5.8q.2 12.2.8 24.4c.5 9.6 1.4 19 1.6 28.6.4 12.2 0 24.5 2 36.6a110.7 110.7 0 011.4 16.4c.2 17.7.5 35.4.1 53.1a184.7 184.7 0 01-2.5 29.4 134.5 134.5 0 00-2.1 32.8 7.5 7.5 0 01-.4 1.8c-5.3.6-10.3 1.5-15.5 1.7-13.3.5-26.6.7-39.9 1a14.5 14.5 0 01-4.6-.6c-14.3-4.5-28.5-9.4-43-13.5a123.6 123.6 0 01-27.4-11.8 64.7 64.7 0 01-9-6.8c-7.2-6-14.2-12.3-21.6-18.1a44.8 44.8 0 00-10.6-6.8c-18-7.4-33.2-18.6-47.4-31.6l-6.9-6.3a30.5 30.5 0 0115.1-16.5 59.5 59.5 0 0013-7.3c2.5-1.9 5-3.5 8.6-2.2 1.7.7 3.7.2 5.6.4 4.2.4 7.5-1.2 10.3-4.4a102.8 102.8 0 0111.7-11.6 35 35 0 0010.8-15 226.8 226.8 0 0015.2-64.3c1.3-16.4 2.7-32.8 2-49.2-.3-7.2-1.2-14.4-2-21.5-.5-5.3-1.6-10.5-2-15.8a66.9 66.9 0 00-6.2-25.4c-3-6.5-5.7-13.2-8.5-19.9-1-2.6-1.8-5.3-3-7.8-1.5-3.4-4-5.8-7.7-6.1-5.2-.5-10.3 0-15 2.7l-9.1 4.9c-13 6.8-23.3 16.9-34.2 26.2a25.2 25.2 0 00-4.5 5.4 122.6 122.6 0 00-13.5 24.7 27 27 0 01-2.6 4.5l-1-.4V549c4.1-5 8.2-10.3 12.6-15.4a160.8 160.8 0 0130.8-27.5c4.7-3.3 10-5.8 15-8.9a272 272 0 0152-25.7 89.3 89.3 0 0010.4-5.2l10.7-5.8 9.9-5.3.6-.3-1.5-.9c3-4.2 7.5-6 11.6-8.2s7.8-4.9 12-6.6a74.8 74.8 0 0113.4-3.9c4.4-.9 8.7-3.3 13.5-2.3l-1.4 15a28 28 0 002.5 14.1 821 821 0 0115.1 37c5.6 15 10.6 30.4 15.9 45.6 2 6 4.5 11.7 6.4 17.6a76.8 76.8 0 013.6 13.6c.9 6.2 1 12.5 1.3 18.7l.8 23.5a59.2 59.2 0 001 6.4c2.4-4.4 2.5-8.1 2.6-11.8.6-11.9 1.6-23.8.1-35.7-.5-4.8-1-9.7-2.5-14.2-6.5-20-13.2-39.8-20.2-59.6-3.3-9.4-7.6-18.5-11.4-27.8-1-2.2-1.7-4.6-2.5-7 2 3.4 3.8 6.9 6 10 4.2 6.2 8.7 12.3 13 18.4 6 8.6 10.4 18.1 15 27.6a30.4 30.4 0 0013.5 14.5c2.2 1.1 4.6 2 7.6.3a27.5 27.5 0 00-2.5-3.9 30 30 0 00-4.3-3.6 26.2 26.2 0 01-8.4-10.5c-2.7-5.7-5.3-11.4-8.3-16.9a97 97 0 00-9-13.7c-9.3-11.3-16.2-24-24-36.4a20.4 20.4 0 00-2-2.5l-1.2.5a40 40 0 00.7 5.7c.6 2.4 1.6 4.8 2.4 7.1zm-148 531.5c-2.7-.7-3.4.7-3.7 2.3l-1.6 8.3a165.6 165.6 0 00-4.7 37.2 329.7 329.7 0 004 47.7c2.3 14.9 0 28.6-8.4 41.3a125.8 125.8 0 01-17.5 21.4c-17.8 17-38.2 30-60.6 39.8-15.7 7-31.7 13.2-47.6 19.9a221.2 221.2 0 00-53.8 32.3l-20.3 16.6c-.6.5-.6 1.6-1 2.4a11.4 11.4 0 003 .4 5.3 5.3 0 002-1c6.2-4 12.6-7.6 18.6-12a308.8 308.8 0 0171.5-39c15-5.8 29.8-12 44-19.5a204 204 0 0045-32c9.2-8.6 17.4-18.1 23.4-29.3a55.8 55.8 0 002.7-6.8c1.4 24 14.4 61.5 24 67.4a27 27 0 00-1-3.8c-1.5-3.3-3-6.7-4.7-9.8-7-12.6-11-26.2-13.5-40.3a30.5 30.5 0 01-.8-5.6c.2-7.5.7-15 .8-22.5 0-4.3-.6-8.7-1-13 0-1-.7-2.4-.3-3.2 1.4-3 .4-5.8 0-8.7-1-11.4-2.4-22.8-3.1-34.2a158.2 158.2 0 013.1-42.1 52.6 52.6 0 001.4-14.2zm182-37.8l-1.1.4c-1.1 3.8 0 7.6.2 11.5.8 12.2 1.6 24.4-3.8 36a19.3 19.3 0 00-2 7.7c0 5-2.8 7.1-7 8.5a7.2 7.2 0 01-5 .2 31.5 31.5 0 00-6-1.4c-13-1.7-26-3.6-38.8-6.5-16-3.7-32.2-6.6-47.8-11.9-17.7-5.9-35.9-9.6-54-14a89 89 0 01-24.2-8.6 101.8 101.8 0 00-20-8.8c-8.3-2.6-16.7-5.3-24.2-10-3.5-2.2-6.1-4.8-7-9l-2.1-10.1a194.8 194.8 0 01-5-46.6c.3-8.4 0-16.9-.2-25.3a22.4 22.4 0 00-.5-5.2c-.2-.8-1.3-1.4-2-2.1-.6.8-1.7 1.4-1.9 2.3a41 41 0 00-.4 6c-.8 17.4-2.9 34.8.3 52 2 10.5 3.8 21 5.9 31.4a16.1 16.1 0 008.7 11.2 161.8 161.8 0 0019 9c9.6 3.5 19.4 6.7 28.4 12a66 66 0 0019.7 7.5c6.2 1.4 12.4 3 18.6 4.6l6 1.3c4.6 1 9.3 1.6 13.7 3a488.8 488.8 0 0064.2 17.4c9 1.7 17.7 3.9 26.6 5.6 8.8 1.7 17.8 1.7 26.3 4.7a8.9 8.9 0 003.2.3c3.7-.2 4.4-1.4 3-5.4 5.1-1.4 6.5-5.5 7-10.3.5-3.6 2-7 2.9-10.4 1.2-4.8 2.9-9.7 3.3-14.6 1-10-.6-20-2.7-29.8a12 12 0 00-1.3-2.6zm-504 359.3l2.5-1c7.1-2.5 14.6-4 21.2-7.4 14-7 27.6-15 41.2-22.6a54.7 54.7 0 008.2-6.2 24 24 0 007.6-10 6.3 6.3 0 012.8-2.8 75.5 75.5 0 017.2-3.5 148.6 148.6 0 0040.2-25.7l7-6.5-.6-.8c-1.5.8-3 1.5-4.4 2.4-3.5 2.4-7 4.7-10.3 7.3a141.5 141.5 0 01-26.9 16.4c-6.9 3.2-14 6.3-20.8 9.8-5.7 3-11.2 6.3-16.7 9.6-1.7 1-3.5 2.1-3.8 4.8l19.7-9.2 1 1.1-3 2c-3.6 2.6-7 5.4-10.8 7.6a1115 1115 0 01-35.2 19.7 86.2 86.2 0 01-27.4 9.5c-3.6.6-4.7 2.5-3.6 6.1a22.8 22.8 0 007.3 11.3 71 71 0 0011.5 8c6.8 3.6 13.9 6.5 20.8 9.8a63.2 63.2 0 019.3 5.4c18.9 13.5 38.4 26 60.1 34.6a222.6 222.6 0 0058.4 14.9c9.8 1 19.6 2.4 29.4 3.4 8 .9 15.9 2 23.8 2 20.4 0 40.8-.7 61.1-1.1a45.7 45.7 0 005-.7 21.3 21.3 0 00-8-1.8c-16-.3-32-.5-48-1-7.5-.2-15-.8-22.5-1.5-9.5-.9-19-2-28.4-3.2a313 313 0 01-41.6-7 254.3 254.3 0 01-80.5-38.6 9 9 0 01-2.1-2.9c-3.3-1.6-6-2.7-8.5-4.2-3-1.8-6-4-9-5.8a3.5 3.5 0 00-2.7-.6c-.6.3-.8 1.5-1.3 2.3-6.3-3.5-12-6.3-17.2-9.7a58.1 58.1 0 01-9.3-7.8 8 8 0 01-2.7-6.5zM729.4 619v7c-.3 5.6-1 11.2-1.2 16.8q-.4 18.8-.2 37.6a182.8 182.8 0 001 18.3c.8 6.3 6.4 10 12.6 8.5 7.6-1.8 12.5-7.5 12.6-15.4s-.4-15.6-.6-23.5v-5.3a4.6 4.6 0 01.8-.3 10.6 10.6 0 011.4 0c12.4 2.1 21-4.8 29.1-12.3 3-2.7 3-6 .8-9.3-7.5 11.6-17.2 19.1-32 17.5a168.7 168.7 0 01-.4-30.3 65.2 65.2 0 00-4.9-29 97.5 97.5 0 01-6.2-44.6c.7-8-1.4-15.6-3.3-23.1-1.1-4.6-4.6-6.6-9.1-6.7a56.7 56.7 0 00-23.3 4.5c-5.8 2.5-8 8-6.2 14l3.5 11.2c1.2 4.3 2.5 8.4 5.5 11.8 1.9 2.3 3.4 4.9 5.3 7.2a34.9 34.9 0 015.4 10.7c1.6 4.7 4.3 9 6.4 13.5 2.8 6.1 2.3 12.7 3 19.3-5.5-.5-10.4-1.2-15.4-1.5l-24.9-1.2c-1.2 0-2.7-.2-4 1.8l22 1 22.3 1.8zm182.3 144.4c1.4-2.2 2.5-3.7 3.2-5.3a45.7 45.7 0 002.5-6 24.8 24.8 0 001.5-6.8c.1-7.9 0-15.7-.2-23.5a12.4 12.4 0 00-.6-3.7 28.7 28.7 0 01-.8-13 165 165 0 001.2-29.6 105.4 105.4 0 00-2-13.8c-1-5.7-2.3-11.4-3.6-17-1-5-2.1-10.1-3.4-15.1-2.4-9.3-5-18.4-7.3-27.7-1-3.8-1.3-7.7-2.3-11.5L889.5 552a53.4 53.4 0 00-6.2-14.6 309 309 0 01-12.4-22.1 46.9 46.9 0 00-19.3-18c-1.3-.7-2.4-.5-3 1.5a30 30 0 002.4 2.4l7.4 5.8a29.8 29.8 0 017.9 9.2 392 392 0 0012.7 23 53 53 0 016.1 15.2c2.6 10.8 5.2 21.6 8.4 32.2a98 98 0 013.9 17.9 68 68 0 001.2 6.9c2.2 10 4.4 19.9 5 30 .4 8.5 1.3 17 1.2 25.4 0 9-.9 18.1-1.6 27.2-.6 6.3-2.3 12.7-2.1 19 .3 15.1-1.2 30-2.7 45-.2 2.9-.6 5.8.7 9.4a40.6 40.6 0 004.4-14.6c1.4-12.6 3.5-25.2 2.9-38a37.8 37.8 0 01.4-8.4c2.6-14.2 4.1-28.5 3.5-43v-8a53.5 53.5 0 014.1 19.5c-.3 10.5 0 21-1.8 31.4a44.1 44.1 0 00-.2 9l.7 14.4.3 9.9c.2 4.4.2 8.6-2.1 12.7-1.8 3.1-2.4 6.7.4 11.3zm-35.1 76.3l1.5-.4a29.4 29.4 0 00.3-5l-2.4-23.2-1.5-16.4c-.2-2.2-.2-4.4-.6-6.5a92 92 0 01-.3-30 152.2 152.2 0 00-.2-41.6 109.5 109.5 0 010-25.7c1.4-13.5.7-27-1-40.3-1.3-10.4-2.7-20.8-3-31.3-.6-17.8-.3-35.7-.5-53.5a23 23 0 00-1-6.5 67.3 67.3 0 00-18-28.2c-1.5-1.5-3.6-2.5-5.5-3.7l-.7.7a15.1 15.1 0 001 1.9c3 4 6.2 7.9 9 12a43.6 43.6 0 019 21.4c.6 8.4.8 16.8.7 25.3-.1 20.5-.6 41 2.7 61.4a157 157 0 011.6 37c-.8 10.9-1.3 21.7.3 32.7a153 153 0 01-.2 38 126.9 126.9 0 00.2 30c1.3 9.5 2.3 19.2 2.7 28.9a73.1 73.1 0 003.3 18.4c.5 1.7 1.7 3.1 2.6 4.6zm82.8-54.3l-.2 1.1a15.6 15.6 0 002 1 41.1 41.1 0 0112.5 6.3c3 2 4.5 4.5 4.6 8.1a15 15 0 01-1.8 1c-5.2 2-10.4 4.2-15.8 5.8-2 .6-4.6-.2-6.8-.8-1.3-.3-2.4-1.3-3.7-2-4.3-2.3-7.2-1.7-10.1 2.2-1 1.3-2.3 2.8-.8 4.2 1.9 1.8 3 0 4.2-1.4l.6-.7a2.7 2.7 0 014-.5l3.4 2.3c-10.4 6.2-19.3 14-31.1 17.7.3-7.5-.5-14.7-4-21.3 0 4.1.6 8.1.9 12.1.3 3.6.3 7.2.4 10.8l-9.7 5.5a6.6 6.6 0 01-1.6.2 29 29 0 01-2.6-4.3 63.2 63.2 0 01-2.6-37l.5-4a13.1 13.1 0 00-4.5 10c-.3 3.2-.2 6.6-.8 9.8-1.3 6-.1 11.8 1 17.6.4 1.8 1 3.5 3.2 4.3 1.2.3 1.9 2 2.9 3.2-4.3 1.8-6.2 2-11 1a34.6 34.6 0 000-3.7l-.8-4.2a59 59 0 011.7-36.8c3.4-7.7 4.2-16 4-24.3-.1-1.9-.2-3.7-2.9-4.7a37.5 37.5 0 00-1 5.1 67.4 67.4 0 000 7.5c.2 4.4-.2 8.4-3.4 11.9a12.1 12.1 0 00-2 3.7 55.5 55.5 0 001.5 45.5 5.5 5.5 0 01.3 2c.1 2.8.8 3.6 3.5 4l5.7.2-3.2 2.6c-11.1 8-23.7 12.7-36 18-2.3 1-5.2 1-7 2.4a25.5 25.5 0 01-21.2 5.2c-1.3-.2-2.9-.3-3.6 2.2l6.5 2.1-4.2 2.6a7.5 7.5 0 005.6-.2c6.8-2.7 14.2-4.2 20.2-8.7.8-.6 2-.7 3-1 10.2-4.5 20.6-8.6 30.5-13.5 13.5-6.7 25-16.6 38.4-23.6 8.8-4.7 16.9-10.8 25.2-16.3a11.4 11.4 0 016.5-2.3c1.6 0 4.3-.4 4.7-1.4 1.5-3.4 4.7-3 7.2-4a33 33 0 005.5-2.7c5-3.2 5.2-8.8.4-12.4a35.9 35.9 0 00-13.7-7 40.3 40.3 0 00-4.5-.4zM537.9 561.7l-4-1c-11.4-2.5-22.7-5-34-7.8-6.8-1.7-13.7-3-20.8-2.7h-5.6c-2.3-.1-4.4-.8-5.7-2.8-1.6-2.6-4.1-3.6-6.9-4.6-8.2-3.2-16.9-2.9-25.4-3.4-7.4-.5-14.8-.6-22-2.3a108.5 108.5 0 00-25.5-2.9 821 821 0 01-34.7-.8c-4-.2-8-1.6-12.1-1.7-12.4-.1-24.8-.2-37.1.4a31.4 31.4 0 01-15-2.5c-9.1-4-18.3-8.1-27.9-11-9-2.8-18.6-4.2-28-5.9-10-1.8-20.1-3.3-29.6-7.3-12.5-5.4-25.3-10-38.2-14.2a36.1 36.1 0 01-6.6-2.5c-5-2.7-10.2-2.6-15.6-2a54.8 54.8 0 00-7.4 1.2 132.2 132.2 0 01-35 3.4h-7.2c2.5.7 5 .6 7.5.7 10.1.8 20.3 1 30.4-1.2 2.9-.6 5.8-1 8.8-1.5 6.1-.8 12-.8 17.8 2.1 5.2 2.6 10.9 4 16.3 6 6.3 2.3 12.7 4.5 19 7 8 3.3 16.1 6.7 24.8 8.4l37.3 7.3a90.6 90.6 0 0113.1 3.5c6.8 2.5 13.4 5.4 20 8.2a26.5 26.5 0 013.1 2l-2.9.7a208.5 208.5 0 01-33.8 4.7c-2.5.1-5 .6-7.5.9a99.5 99.5 0 0012.7-.3c6.8-.5 13.5-1 20.1-1.8 8.7-1 17.2-3.8 26-3.1a10 10 0 001.9-.3 127.5 127.5 0 0134.7-.3 261 261 0 0040.7 2.4c10.6-.2 21 .1 31.2 3.1 8.6 2.6 17.7 2 26.6 2.1a57.5 57.5 0 0119.8 3.5c1.4.5 3.2 1.2 3.9 2.4 2.6 4.2 6.6 4.7 11 5a175.6 175.6 0 0118.2 1.4c5.2.8 10.3 2.6 15.4 4a85.9 85.9 0 0028.2 3.5zM292.3 727.2l-1.1-.6a38 38 0 00-1 5.7c-.3 11.1-.4 22.2-.8 33.3-.3 9.7-.9 19.4-1.5 29.1-.2 3.7-1.1 7.4-1.3 11.2a1300 1300 0 00-1.4 34.7c-.3 12.2-.2 24.5-.3 36.7a9.3 9.3 0 00.8 2.6 33.6 33.6 0 002.8-8.2 227 227 0 012.3-8.2l2.6-8.5 1.9-7.7-1-.2-4.7 13.4a7.4 7.4 0 01-1-4.3l1.3-51.2c0-2.2.6-4.3.8-6.5.5-5.8 1.3-11.5 1.5-17.3.7-14.4 1-28.8 1.6-43.2 0-1.7.3-3.3.6-5.3 8.8-.9 17.1-1.9 25.5-2.6 6.1-.5 12.1-1 17.6-4.1a26.4 26.4 0 008.8-7.6 35.6 35.6 0 006.4-19c.6-13 .7-26 1-39a65.8 65.8 0 00-4-24 18.2 18.2 0 00-4-6.1c-2-2.3-5-2.1-8.5.2a18.6 18.6 0 001.8.5c6 .7 7.8 2 9.3 8 1.2 4.8 2.6 9.8 2.6 14.8 0 15.1-.3 30.3-1 45.5a30.6 30.6 0 01-6 17.5 20.8 20.8 0 01-16.9 8.5 276.4 276.4 0 00-27.6 2 53.8 53.8 0 01-7.1-.1zm-14.1-597.6a69 69 0 00-28-10.9 116.5 116.5 0 00-42 1.8 77 77 0 00-46.2 28.6 41.8 41.8 0 00-8.9 29.4 87 87 0 0027 56.9 48 48 0 0027.3 13.4 75.7 75.7 0 0027.1-1 40.7 40.7 0 004-1.2l3.5-1.3a142.7 142.7 0 01-27.2 1.4 48 48 0 01-33.7-14.5 85.3 85.3 0 01-24.8-51.4 39.5 39.5 0 018.4-30 71 71 0 0127.8-21.8 105.1 105.1 0 0138.7-8.6c9-.4 18.2-.8 27 2 6.7 2 13.2 4.7 20 7.2zM686.4 648c-.7 1.4-1 1.6-1 1.9a4.9 4.9 0 00.3 1.8c2.5 6 2.5 12.2 2.8 18.5a43.2 43.2 0 002 12.4c2.6 7.3 3.7 14.8 4.6 22.5 1 7.3 1.6 14.8 4 21.6a52.4 52.4 0 012.1 29.9 108.5 108.5 0 00-1.5 13c-.5 5.4 2.2 9 6.7 11.4a24.5 24.5 0 0016.4 2.2c2.2-.4 4.6-1.2 5.1-4.7-1.8 0-3.5 0-5.1-.2-4-.4-8.2-.4-12-1.6-5-1.6-6-4.3-5.5-8l1.9-13c1.3-8 1.8-15.9-1.3-23.6a72.5 72.5 0 01-4.2-13c-1.4-7-2-14.2-3-21.3-.5-3.2-.8-6.6-2-9.6-3.3-8.2-4-16.6-4.4-25.3-.2-3.8-1.6-7.6-2.8-11.3-.4-1.2-1.8-2.1-3-3.6zM294 679.4l1.2-16.1a26.2 26.2 0 01.3-2.8c3-15.9 2.4-31.9 1.3-47.8-.4-6.9-3-13.7-5.2-20.4-1.8-5.7-6-8.7-12.5-8.3-5.5.3-7.5 1.5-9.4 6.7 1.6-.8 3.2-1.9 5-2.3 7.2-1.8 12.1-.9 14.4 6.2 1.9 5.6 3.8 11.4 4.3 17.2 1.1 13.7 1.5 27.5-.4 41.3-.9 6.8-1.2 13.7-1.7 20.5a13.8 13.8 0 00.7 5c1.1 3.3 1.7 3.7 5.2 3.3 5.1-.7 10.3-1.3 15.3-2.3a8.8 8.8 0 004.9-2.6c2.2-2.7 4.7-5.6 5.7-9 1.9-6 2.8-12.4 4-18.6l-.8-.3a46.8 46.8 0 00-2.2 5.4c-.9 3.4-1.5 6.8-2.2 10.1A15 15 0 01309 677c-4.9.9-9.8 1.6-15 2.4zm-37.3 519.8l-.7.9a10.7 10.7 0 001.4 1.1c10.4 6.3 20.8 12.8 31.4 18.7a63.3 63.3 0 0021.2 7.6 95.7 95.7 0 0037.7-1.6c13-3.2 26-5.7 39.4-4.6l19.7 1.3h3.7l.2-1.2a29.3 29.3 0 00-4.7-1.4c-5-.6-10-1.3-15-1.5a111 111 0 00-37.6 2.8 128.3 128.3 0 01-20.3 3.8c-13.6 1.7-27 .5-39.3-5.9-7.6-3.8-15-8-22.4-12l-14.7-8zM1138 501.9l-2.7.5c-9.5 1.7-19 3.8-28.6 5a45.7 45.7 0 00-23.3 10.2 15.2 15.2 0 01-4.4 2.7c-7 2.3-14 4.8-21 6.6-9.8 2.4-19.8 2.6-29.9 2.6a82 82 0 00-27.1 4.8c-5.7 1.9-10.2 5.4-15 9.6 1 .2 1 .3 1.2.2l4.1-2.2a68.7 68.7 0 0136.3-9.6c16.3.1 32.2-1.6 47.5-7.4 4.3-1.7 8.4-3.3 12-6.3a35.3 35.3 0 0116-7.6c8-1.5 16.3-2.7 24.4-4.1 3.8-.7 7.6-1.5 10.5-5zM240.8 770.6c-1.2-2.7-3.1-2.2-4.7-2.2a80.7 80.7 0 01-27.9-5.5 10.3 10.3 0 01-3.6-2.1c-6.6-6.4-11.2-13.7-11-23.5.3-10.2.1-20.3.2-30.5v-5l-1-.2c-.7 2.6-2 5.2-2.2 7.9-.8 11.9-1 23.8.6 35.6 1.3 8.8 6.5 15 12.8 20.7a7.6 7.6 0 003 1.5c2.7.8 5.7 1.3 8.5 2.3 7.6 2.9 15.4 1.8 23.2 1.7a7.8 7.8 0 002-.7zm488 222.7l.5-1c-.7-.8-1.3-2-2.3-2.4a39.8 39.8 0 00-7.7-3.2c-9.6-2.3-19.1-5-28.8-6.4-12-1.6-22-6-29.8-15-1.5-1.9-2.9-3.8-4.4-5.5a8.2 8.2 0 00-2.2-1.3c-.4 1-1.4 2-1.2 2.7a11 11 0 002.4 4.4 124.8 124.8 0 0010.5 10 34.3 34.3 0 0016.4 7.6c13.6 2.2 27.1 4.8 40.3 9a40.9 40.9 0 006.2 1zm48.7-212.7l.2 1c1.2 0 2.6.2 3.4-.3 4-2.7 7.7-5.6 7.1-11.2-.8-8.1-1.5-16.2-2.5-24.3a54.9 54.9 0 01.1-16.3c1.3-7.7 2.7-15.4 3.7-23.2.9-6.8 1.1-13.6 1.6-20.5-1.4 6.3-2.1 12.7-3 19s-1.3 12.7-3.5 19a115.5 115.5 0 01-2.2-14.5c-.4-4.6.3-9.4-.5-14.4-.6.5-1 .7-1 .9 0 6.7 0 13.4.4 20.1.3 6.1 1.7 12.2 1.2 18.2-.7 10.6.1 21 1.2 31.4l.5 4.6a6.9 6.9 0 01-2.3 6l-4.5 4.5zm2-394.7l-.6-.3a9 9 0 00-1.3 0c-4.9.1-9.4-.1-11.6-5.6-.3-.7-1-1.2-1.5-1.8A27 27 0 01758 360c.3-9-.8-18.2 1-27.2.2-1.6.6-3.9-2.7-4.5-1 4.1-2.5 8-2.7 12.2-.3 7-.4 14.1-.3 21.2a39.5 39.5 0 001.2 7.3c1.4 7.3 7 12.1 10.5 18.2a4 4 0 002.7 1.6 52.2 52.2 0 008.8.4 3.2 3.2 0 003-3.4zm219.9 142.9l-.1-1.2c-8.5 0-17 .2-25.6 0-6.2-.3-12.5-1-18.7-1.7a12.3 12.3 0 01-8.5-4.6c-1.7-2.3-4-3.1-6.9-3.2a100.8 100.8 0 00-35.6 5 83.8 83.8 0 00-16.2 7.2 15.6 15.6 0 005-.6l9-3a106.8 106.8 0 0137-5.7c2 0 4 .1 5.5 2 3.6 4.5 8.7 6.1 14 6.4 10.5.5 21 .7 31.5.8 3.2 0 6.4-1 9.6-1.4zm-81.6 228.9c-.1 1.5-.5 2.5-.2 2.9 6 6.6 10.7 14.2 17.7 19.8.2.2.6.1 1 .1l.8-1.7h13.2c6.1 0 12.2-.2 18.3-.4A34 34 0 01987 783a31.7 31.7 0 004 1.6l.8-1a28.2 28.2 0 00-3.4-4 25 25 0 00-14.3-5.4 162 162 0 00-38.2 2c-5.7-6.2-10-13.8-18.1-18.6zM248.3 721l-4.7-.3c-5.3-.1-10.7 0-16-.3-3.8-.3-4.1-.8-4.4-4.6l-.2-5.6c.2-13.4.6-26.7.6-40 0-3.8-1-7.7-1.8-11.5-.6-2.6-2.4-3.9-5-4.4a10.5 10.5 0 00-8.1 1.7 18 18 0 00-6.1 10.3c1.2-1 2-2.3 3.1-3.4a27.2 27.2 0 015.5-4.3c4-2.1 7.3-.7 8.1 3.5a73.5 73.5 0 011.2 10.7c.3 3.7.1 7.5.1 11.2 0 10.5.1 21 0 31.5-.2 4.6.7 6.7 5.2 7.3 6 .8 12.2 1 18.3 1.2a3.9 3.9 0 004.2-3zm53.8 346.9c-27.2-19.6-38.7-48-46.7-78.5a11 11 0 00-.2 3.2c3.1 21.5 10.5 41.2 23.4 58.8a66 66 0 0017 16c1.9 1.1 3.7 2.4 6.5.5zm20.8 297.8l.2-1a62.5 62.5 0 00-6.7-1.7 75 75 0 01-21.7-5.8c-16.2-7.4-32.5-14.8-47.3-25-8.7-6-16.7-13.2-25-19.8l-4.8-4a107 107 0 0021.2 20.7c18 13.3 38 22.8 58.5 31.6a78.7 78.7 0 0025.6 5zM679 617c.4 1.5.6 2.5 1 3.4 1.5 3.8 3.3 7.4 4.5 11.3a26 26 0 005.6 9 48.9 48.9 0 015.1 6.7c6.1 10.5 16.4 13.3 27.2 15.2a1.4 1.4 0 001 0l2.6-2.1c-.8-.8-1.5-2-2.4-2.3a73 73 0 00-10-2.5 21 21 0 01-15.1-10.8 7.8 7.8 0 00-1-1.6 50.9 50.9 0 01-12.7-20.4 9.3 9.3 0 00-5.8-5.9zM408.3 904.4l1.2-.5c-5.2-20-3-40.7-5.1-61a74.3 74.3 0 00-1 9.8l-.4 9.9c0 3.3-.2 6.3-.3 9.4l-1 .1c-4-7.3-4.8-16-10-22.7 2.4 9.4 5.3 18.6 8.3 27.9.2.7.5 1.7 1 2 2.7 1.2 2.4 3.4 2.4 5.6a40.7 40.7 0 002.8 15.6l2.1 3.9zm479-226.3c-1.8 2.6-2 5.6-2 8.5a2656 2656 0 00-1.2 43.7 120.4 120.4 0 001 14c.4 4.6 3.3 7.3 7.3 7.2-1.2-2.3-3.1-4.5-3.6-7a87.1 87.1 0 01-1.4-14.8V678zm-58.6 228.6c-3.2 2.1-3.2 2.1-5.9 1a11.5 11.5 0 00-2.1-1c-1-.2-2.4-.5-2.9 0-1.1 1.2 0 2.4 1 3 3.4 2.1 7 4 10.4 6a1 1 0 00.9 0c2.2-1.1 4 .4 5.7 1 3.9 1.4 7.5 3.2 11.4 4.5 3.5 1.2 6.8.6 9.2-2.5 2.6-3.4 5.1-6.9 3-11.5-.2-.2-.6-.2-1.4-.5-1.2 2.1-2.4 4.4-3.8 6.6-2.2 3.7-3.3 4.1-7.3 2.7-4.4-1.6-8.7-3.3-13.1-4.8-2.3-.7-4.4-1.4-5-4.5zM305 204.3c-3 5-6 11.2-10.2 16.6a107.5 107.5 0 01-58.8 38l-5.1 1.5c28.2 1.1 66.8-28.8 74.1-56.1zm330.6 782.5l.5-1.1a73 73 0 00-15.3-8.9c-14-6.3-28.3-12.3-42.5-18.4-.3-.1-.8.3-1.5.5 1.4 3 4.2 3.8 6.6 5l46.2 20.8c2 .8 4 1.4 6 2zm94.3-207l-.2 1.5a5.8 5.8 0 004.7 2.2c7.6.2 15.3 1 22.8.2 5.5-.5 10.8-3 16.1-4.6 1.6-.5 3-1.6 2.4-3.5-.7-2.3-2.4-1.1-3.9-.7-4.1 1.4-8.2 3.5-12.4 3.9-8.4.8-16.8.6-25.2.8l-4.3.2zm-19 26.6c-5.5 9.4-14.6 14-23.4 18.8-2.8 1.5-5.4 3.2-8.1 4.8-3 1.7-4 3.2-3 4.4 1.8 1.8 3.6.4 5.2-.5 6.6-3.7 13.4-7.3 19.8-11.4a42.4 42.4 0 008.3-7.5 7.4 7.4 0 001.2-8.6zM876 443.9l.3-1.1a30.1 30.1 0 00-4.2-1.7l-8.7-1.8c-5-.8-10.5-.7-15.2-2.4-5.4-2-11-1.8-16.5-3-1.7-.4-3.8-.6-4.6 2.6 6.8 1.6 13.4 3.6 20.2 4.5 9.5 1.2 18.9 4 28.7 3zM896.6 660c3-.8 2.5-2.3 2.4-3.7-.7-5.8-1.2-11.5-2-17.3a68.6 68.6 0 00-11.6-29.4 18.8 18.8 0 00-2.3-2.3 16.4 16.4 0 001.6 6.1c2 4.8 4.1 9.5 6 14.4 3 8.4 3.5 17.4 4.6 26.2.2 2 .8 3.9 1.3 6zm-37.3-246l-.6.8c.1 2.7 3.4 7.9 5.9 8.3 2.9.4 6.3 1.6 8-2.3 6.8-4.5 6.8-11 5.7-18l-1.9-14c-.2-1.5 0-3.3-1.8-4.3-1.4 3.5-1.3 7-.5 12.6a71.8 71.8 0 011 10.7c0 5.8-1.4 7.5-7 9.4-.2 0-.3.5-.7 1h5.3c-.3 2.2-1.8 2.1-3.2 2.4-5.3 1-6.6-4.4-10.1-6.6zM248.1 714c.3-4.8.5-9.5 1-14.3.5-5 1.5-9.9 2-14.9.6-4.8.9-9.6 1.3-14.4s1.1-9.7 1.6-14.5c.5-5 1-10 1.3-15 .2-4.6 2-9.1 1-13.8a7.3 7.3 0 00-1.2 3c-1.6 12.7-3.6 25.4-4.6 38.1-.6 8.2-1.4 16.2-2.7 24.2a61.5 61.5 0 00.3 21.6zM673 534c-1.3 9.4.4 18.4-1.2 27.3-1.6 9-3.5 17.9-5.3 27 6.7-9.5 10.2-28.3 9.4-50 0-1.4.4-3.1-2.9-4.3zm215.9 126.2l-1.2.8c2 3.2 4 6.6 6.1 9.7 1.3 1.8 1.8 3.1.7 5.1-.8 1.6-1.7 3.4.3 5.8a25 25 0 003-3.4A52.1 52.1 0 00904 658a10.1 10.1 0 000-3.7c-.2-.9-1-1.5-2.3-3.3l-4.8 19.5-8-10.3zM786 692.7c2.5-2.7 2-5 1.8-7.1a99.2 99.2 0 00-6-26.8c-3 1.8-2.1 4.7-1.8 7.1 1 7 2.3 14 3.6 20.8.3 1.9 1.4 3.6 2.4 6zm-570.6 548.7a191.7 191.7 0 00-64.5-46.7c11.8 7.4 23.3 13.7 33.9 21.4 10.7 7.8 20.4 16.8 30.6 25.3zm721-395.9c-1.1 1.4-.2 3 1.2 3.9a17.9 17.9 0 006.3 2.5c2.4.4 5 0 7.5 0 2 0 4 .3 5.6 1.9.6.6 2 .5 3.2.8 0-1.2.5-2.7 0-3.4a11.2 11.2 0 00-4.2-3.5 17.6 17.6 0 00-5.5-1l-14.2-1.2zm-637 422.9c-4.5-1.3-9.5-2.1-13.8-4.3-10.5-5.2-20.8-11-31-16.9a54.3 54.3 0 01-17.6-17.8l-1-1.6a11.2 11.2 0 00-1-1 47.6 47.6 0 0016.4 20.3 179.4 179.4 0 0033.2 18.4 30.9 30.9 0 0014.8 2.9zm-56-445l3-25.2 2-18.6a43 43 0 00-.5-6.3c-3.7 7.3-6.2 35.3-4.5 50zm274.3-117c.4-.7 1-1.2 1-1.7l-3.9-34.5c0-1-.8-1.8-1.5-3l.5 18.6-.1 13.2a8 8 0 004 7.5zm318 113l-1.4.1c0 5.7.4 11.4 0 17s-1.9 11.2-2.9 17c3-1.3 3-1.3 4.1-4.2a53 53 0 002-24.9c-.1-1.7-1.2-3.4-1.9-5zM320.5 1020l-1.6 3.2c-3.9 9-7.6 17.9-11.5 26.7-1.5 3.4-3.5 6.5-5.4 9.8-1 1.9-1.8 3.7-.2 6.6 8-15.4 15.1-30.1 18.7-46.3zM719 714.2h1.4c.1-2 .4-4 .4-6 0-6-.1-12.1-.5-18.2a39.1 39.1 0 00-2-8.1l-3.7-11.6-1.2-3.6a3.1 3.1 0 00-1.1 2.7c.9 3.8 1.4 7.7 3 11.3a28.3 28.3 0 012.6 13.1 44.4 44.4 0 000 5.2l1.1 15.2zm72-231.1c-4.2-7.3-8.7-14.2-12.2-21.6s-6.1-15.3-9.2-23.2c.9 14.2 9.3 35.2 21.4 44.8zm-581.8 841.1c-1.4-4.3-13-14.5-20.2-18.5a150.6 150.6 0 00-24.2-10.8 32 32 0 006 3.6 113.6 113.6 0 0132.7 21.4c1.4 1.5 3.3 2.5 5.7 4.3zm634.5-876.7l-.4 1.4c.8.7 1.4 1.8 2.3 2 6 2 11.8 4.3 18.2 4.2 1.7 0 3.3-.2 3.3-2.3 0-1.8-1.5-2-3-2.4l-15.1-3a27.9 27.9 0 00-5.3.1zm-7 245.1h-1.5a30.2 30.2 0 00-.7 4 162 162 0 00-.3 9.8c0 7 7.9 12 15.7 9.5l-4.5-2c-7.3-2.9-7.5-3.1-7.7-10.8 0-1.9-.1-3.8-.3-5.6-.1-1.7-.4-3.3-.7-4.9zm-189.7-62a6.5 6.5 0 00-1 .4 16.5 16.5 0 00-1.3 1.4 52.3 52.3 0 01-26.5 19.2 13.8 13.8 0 00-3.8 1.8c-.5.4-.7 1.4-1.1 2.4a48.5 48.5 0 0033.7-25.3zm106.4 332.2l-1.3-.3c-.8 2.4-1.6 5-2.6 7.3a89.7 89.7 0 01-4.5 9.8 11.8 11.8 0 01-10.8 6.3 23.1 23.1 0 00-3.8.6c4.9 1.7 9.7 2.2 13.6-1.6 6.3-6 8.8-13.7 9.4-22.1zm372-495.4l-.2-.7-3 .7c-8.8 2.8-17.6 5.4-26.3 8.5-5.3 2-10.2 4.9-15.3 7.4l.4.6zM830.7 778.8h-1.2v8.4l-.2 21.6c0 1.5-.5 3.3 2 4.8.6-12 1.9-23.4-.6-34.8zm-363.3 503.5c-4.5-1.1-8 .2-9.4 3.2-1.2 2.8-.1 6.5 2.6 8.7 4 3.3 12.2 3.6 17.4.3h-5.2a21.4 21.4 0 01-4.7 0c-2-.5-4.3-1-6-2.2-3.4-2.5-2.9-6.3.9-8.3 1.3-.7 2.8-1 4.4-1.8zm-267.8-3.1c-8.9-3.4-17.8-6.6-26.6-10.1s-17.5-7.3-26.3-11c17 8.7 34.1 17 52.9 21zm93.1-229.6c-7.5-7.5-8.8-18.3-14.6-27.1-.2.9-.4 1.4-.3 1.7l7.4 20.1a16.1 16.1 0 002.6 4 3.8 3.8 0 005 1.3zM96.4 772.2c.1 10.7 12 31.7 20 35.6a103 103 0 01-20-35.6zm76 256l.7-.8c-8.8-8.6-14-19.7-20-30.2 1.5 8.2 10.1 23.6 15.9 28.7a29 29 0 003.3 2.3zM815 532.8l-2 17.4a7.3 7.3 0 00.2 2.3c.7 3.3 2.4 3.8 5.1 1.4.2 0 0-.5.1-.9h-2.2c.5-6.6 3.7-13.1-1.2-20.2zM558.2 895.4c.4 13.4.3 27 2.8 40.3-.5-13.5-.2-27-2.8-40.4zm521.5 81.9l-.4-.5a41.3 41.3 0 00-2.6 4.4c-2.7 6.3-5.5 12.6-8 19-.8 2.1-1.6 4.1-5.2 5 4.8.8 5.4.6 6.8-2.9l9.4-25zm-690 299.9c-.8-.7-1.7-1.9-2.7-2a18 18 0 00-6.4.6c-3 1-5.6 2.8-6.8 6s.3 5.3 3.7 5a43.3 43.3 0 006.1-1.6l-.1-.7-7.2-.4a11.4 11.4 0 0113.5-7zM529 822.9a133 133 0 0037 17.3zM973 839l-.2 1.6a21.6 21.6 0 004 1c3.2.2 6.3.3 9.4.2a12 12 0 004.5-1c1.3-.7 2-1.9.9-3.2zM771.6 466.3l1.4-.3c-2-10-3-20.4-8.9-29.3zM454 1019.8a88.3 88.3 0 0012.6-32.4zm328.5 310h.1l-31.2 30.5-.2-.2zm-231.8-120.6c-6.7-.2-10.4 1.8-11.9 6.8a17.6 17.6 0 002.4 16 19.9 19.9 0 002.4 2.4 5.3 5.3 0 00-1-3.2c-2.6-4-3-8.5-2.4-13a9 9 0 016.6-8l4-1zm374.6-151.9a31.2 31.2 0 003.5 19.6c.3.5 1.5.6 2.8 1.1v-6.6l-1.5 2.8c-2.8-5.8-3.5-11.4-4.8-16.9zM962.6 832l-.7-1c-1.9 3.8-4.3 2.6-6.7 1-.6 2-.8 3.8 1 4.8 3 1.7 6 3.3 9.1 4.8.6.3 1.4 0 2 0l.4-1-7.6-4.8zm-374.3-65.1c2.7.6 5.5 1.1 8.2 1.8l22.2 6a31.6 31.6 0 003.2.6l2.8.3c-12-3.4-23.8-7.7-36.4-8.7zM471 853l-8 27.5.9.3a92.5 92.5 0 007.1-27.8zm-9.2 382.4a38 38 0 00-20.4 8.2c-1.3 1-2.6 2-1.4 4.2 6-6.8 14-9 21.7-12.4zm151-153c-2.2 3.6-2.3 8.4 0 14.7.8 2.2.6 5.3 4.4 6.3-1.1-3.7-2.3-6.8-3-10-.7-3.5-.9-7-1.4-11zM363.5 829.4l-1.3.2 1.8 13a4.4 4.4 0 00.8 2.1 2.3 2.3 0 002 .7 2 2 0 00.9-1.8l-4.2-14.2zM663.8 871c4.2 9.6 15.7 20.8 22.8 22.4a77.1 77.1 0 01-22.8-22.4zM283.3 1291l-26.4-6.5.2.9c8.4 2.8 16.9 6 26.2 5.6zm24-215.2c5.5-6.2 10.3-13 12-21.4-1.5 2.3-2.7 4.8-4 7.2s-3 4.8-4.4 7.3c-1.2 2.2-4 3.7-3.7 6.9zm119.2 191.1a21 21 0 00-12.5-.8 6 6 0 00-2.6 1c-.7.6-1.4 1.8-1.2 2.5.4 1.6 1.8 1.3 3 .8a1.8 1.8 0 00.8-.5c1.6-1.9 3.8-2 6-2.3l6.5-.7zM456 987.1l-.8-.4c-5.2 8-9.3 16.5-13.6 25l.8.4zm123.7 246.4a11.2 11.2 0 00-7.6-.8c-3 .5-4.1 2.6-3 5.5 1.2 3.5 4 5.4 7.1 6.8-1.4-2.3-3.2-4.2-4.6-6.4s-.7-3.5 1.8-4.1a60.7 60.7 0 016.3-1zm159.5 111.3l-18.1 21.8c7-6.4 13.4-13.4 18.1-21.8zM288.9 883c5.4-3.7 12-14.2 12.1-18.2zm678.9-31.8l.8-.7c-.4-.8-.5-1.9-1-2.3q-4-3-8-5.6c-.6-.3-1.7 0-2.5 0 .3 1 .2 2.3.9 2.7l9.8 5.9zm-526 14.4c-4.7 8.5-6 15.6-3.3 19.6l3.2-19.6zm465.7 154.4c4 2 6 1.4 7.4-1.3 1.4-2.6 1.1-10.3-.8-13.8 0 3.8.2 7 0 10-.1 3.6-1.1 4.5-4.8 5zm-186.2-99.4c3 7.6 11.8 18.2 16.6 20.4zm251.4-399.9c3.9.6 20.7-4 28-8zm134.6 248.6l3.6-26.4a49.7 49.7 0 00-3.6 26.4zM433.9 878.7a82.5 82.5 0 007-24.9zM541.4 1270c-9.5-.7-13.2-6.2-15.3-14-.1 9.1 6.6 15.7 15.3 14zM406 1298.6c-6.8 2.4-8.8 5.5-7.5 11.4.9 4.4 2.5 5.8 7 5.7-3.8-.8-5.4-3-5.9-6.2-.9-5.5 2.3-8.4 6.4-11zm465.4-732.3l1.7 22.1c-1.1-5.5 2.3-14-1.7-22.1zm-589 402.4l-.8.6a117.7 117.7 0 0012.1 16.2l1-.7zM848 406.2c-2.7-.2-3.2 1.3-3.3 3 0 2-.4 4.2 1.7 5.5a1.6 1.6 0 002.4-1.7c-.1-2.1-.4-4.2-.8-6.8zM183.9 828.5l-1.3.2c1.3 5 .2 10.7 3.5 15.2l1-.3zM853 804.7a59 59 0 01-5.6 4.3 76.2 76.2 0 01-7.1 3.3c6.1 1.1 10.8-1.5 12.7-7.6zm126 49.6a12.8 12.8 0 00-10.8 0c3.6 2.1 7.3 1.7 10.8 0zm-717.9 217.9c4.7 5 9.7 9.6 16.1 12.3zm227.2 172.4c-1.2-3.8 1.1-5.5 3.8-6.5a68.5 68.5 0 017.7-2c-4.5-1.1-9.5.1-11.9 3-1.3 1.8-1.8 3.6.4 5.5zM345.7 762.7c1 8.4 3 11.6 6.6 11.3l-6.6-11.3zm-83 127.8l4.1-13.3c-3 4-4.8 8.2-4.1 13.3zm513.7-268.8v-1.1l-12.2-1.4a16.7 16.7 0 0012.1 2.5zm-658.6 172l-2.8-19c.1 6.7-.6 12.7 2.8 19zm21 268.1l-11.3-11.6a31 31 0 0011.4 11.6zM773 350.3c-4.6 1.8-5.7 4.3-4.3 8.6l4.3-8.6zm-207 834c-5 1.8-6.2 4-4.4 7.8zM342.4 949l2.2-10.2c-2 3.2-3.6 6.4-2.2 10.2zm586 178.4a52 52 0 01-1.3-5.5 48 48 0 010-5.2c-1.8 5.3-1.5 7.6 1.3 10.7zM392.8 880.5l.8-.1-3.4-9-.8.3 3.4 8.8zM769.2 367l4.3 5c.5-4.3.5-4.3-4.3-5zM335 842.5h.5l-.6-10h-.6l.7 10zm518.1-431.1v1.4c1.8.9 3.6 1.3 6.2-1.4zm28.6 7.4l-1-.7-3.5 4.2c3.6.3 4.3-1.4 4.5-3.5zm-59.9 395.4l-7.4-2.1c1.7 2.7 4.1 2.6 7.4 2.1zM350.4 850l.6-.2-3.1-6.5-.6.2zm358.8 528.7l-.2-.2 4.3-4.4.1.2-4.2 4.4zm-357.6-56c-2 2-2 3.6-.4 5.7l.4-5.8zm307-5.2l.4.4 3.8-3.5-.3-.4zM470.4 795l-.6.4 2.4 4.5.5-.4zm233.4-341.2v.2h5v-.2zM929.4 892l-.4-.5-3 3.3.1.2zm35.6-94c-1.7-.6-3.3-.9-3.9 1.8zm-87.9-77.9h-.1v4.5h.1zm-85.2 599.3l-.3-.3-2.6 2.8.4.3zm-31.5-51l-.5-.4-2 3.2.5.3zM194 1199.9v-.9l-3-.4v.6zm737.8-311.4l.5.4 1.8-2.3-.4-.4zm13.2 80l-1-.4-.8 2.5.7.2zM247.5 863.8l.6-.2-1-3.2-.4.1.8 3.3zm630.4-152.6l.2-3.6h-.2zm-36.7 516.3v2.5zM231 1006.3l.5-.4-1.8-2.3-.5.4zm8.3 7.5l-.3.4 2.2 1.8.3-.4zm427 347.6l-.1-.4-2 .7.2.4zm106.5 13l-.2-.4-2.2 1 .2.5zm-532-508.8l.5.3c.4-.4.9-.8 1-1.3a5.2 5.2 0 00-.2-1.7h-.8zm247.7-353.1l-.2-.5-2.3 1 .1.4zM223.9 878l.6-.2-1-2.5-.4.2zM494 510l.3.5 1.8-1-.3-.4zM309 800.6h-.2l.1 2.2zm202.5 417v.2h1.6l.1-.2zM251.1 874.3l.7-.2-1-1.8-.3.1.6 1.9z" class="cls-1"/>
      <path d="M595 501c4.4-2.3 9.2-4.2 13.3-7 13.2-8.7 27.6-15.2 41.7-22.3a29.6 29.6 0 014-1.5 151.8 151.8 0 0018.1-7.4 102.1 102.1 0 0017.3-10.3 13.4 13.4 0 001.9-1.3c7.3-8 17.4-11.5 26.4-16.7 2.6-1.5 5.9-2 8.9-2.7 3.2-.9 6.3-1.7 9.5-2.4l11-2.3a39 39 0 0110.3-12.5c1.3-1 2.2-3 2.7-4.8 1.4-5 2.5-10 3.8-15l1-4c.8.6 1.2.7 1.3 1a40 40 0 01-1.8 21.1 30.8 30.8 0 01-4.5 6.4l-8.7 10.5a2.9 2.9 0 00-.6 1.7c0 7.5-.7 15 .2 22.4.5 3.9 3.8 7.4 5.8 11l1.4 3.4 2.5 7c3.8 9.3 8.1 18.4 11.4 27.8 7 19.7 13.7 39.6 20.2 59.6 1.5 4.5 2 9.4 2.6 14.2 1.4 12 .5 23.8-.1 35.7-.2 3.7-.3 7.4-2.6 11.8a59.2 59.2 0 01-1-6.4c-.4-7.8-.5-15.7-.9-23.5-.3-6.2-.4-12.5-1.2-18.7a76.8 76.8 0 00-3.6-13.6c-2-6-4.4-11.7-6.5-17.6-5.3-15.2-10.3-30.6-15.9-45.7a821 821 0 00-15-37 28 28 0 01-2.6-14l1.4-15c-4.8-1-9 1.4-13.5 2.3a74.8 74.8 0 00-13.4 3.9c-4.2 1.7-8 4.4-12 6.6s-8.5 4-11.5 8.2l1.4.9-.6.3-9.9 5.3c-3.5 1.9-7 4-10.6 5.8a89.3 89.3 0 01-10.5 5.2 272 272 0 00-52.1 25.7c-4.9 3.1-10.2 5.6-15 8.9a160.8 160.8 0 00-30.7 27.5c-4.4 5-8.5 10.4-12.6 15.4v15l1 .3a27 27 0 002.6-4.5c3.3-8.9 8.3-16.8 13.5-24.7a25.2 25.2 0 014.5-5.4c11-9.3 21.3-19.4 34.2-26.2 3-1.6 6.1-3.1 9-4.9 4.8-2.7 9.9-3.2 15-2.7 3.9.3 6.3 2.7 7.8 6 1.2 2.6 2 5.3 3 8 2.8 6.6 5.4 13.3 8.5 19.8a66.9 66.9 0 016.3 25.4c.3 5.3 1.4 10.5 2 15.8.8 7.2 1.7 14.3 2 21.5.5 16.5-.8 32.9-2 49.3a226.8 226.8 0 01-15.3 64.2 35 35 0 01-10.8 15 102.8 102.8 0 00-11.6 11.6c-2.9 3.2-6.1 4.8-10.3 4.4-1.9-.2-4 .3-5.6-.4-3.6-1.3-6.2.3-8.6 2.2a59.5 59.5 0 01-13 7.3 30.5 30.5 0 00-15 16.5l6.7 6.3c14.2 13 29.5 24.2 47.5 31.6a44.8 44.8 0 0110.6 6.8c7.3 5.9 14.3 12.2 21.5 18.2a64.7 64.7 0 009 6.8 123.6 123.6 0 0027.6 11.7c14.4 4.2 28.6 9 42.9 13.5a14.5 14.5 0 004.6.6c13.3-.3 26.6-.5 40-1 5-.2 10.1-1 15.4-1.6a7.5 7.5 0 00.4-1.9 134.5 134.5 0 012.2-32.7 184.7 184.7 0 002.5-29.4c.3-17.7.1-35.4-.1-53.1a110.7 110.7 0 00-1.4-16.4c-2-12.1-1.6-24.4-2-36.6-.3-9.5-1.2-19-1.6-28.6l-1-24.4c0-1.6.7-3.1 1.2-5.8 2.5 3.1 2.7 5.8 3.1 8.3.8 4.5 1.3 9 1.7 13.5a457 457 0 012.5 48.8c0 5.2.4 10.3.7 15.5a44.6 44.6 0 00.8 4.6c7.4-2.2 9.8-5.9 14.2-21.3 5.8 6.5-2.5 22.2-13.6 25.2 2.3 20.2 1 40.6 1.3 61 .2 16.3-.7 32.5-4.4 48.5a39 39 0 00-.8 8c-.2 5.4 0 10.9 0 16.9 7 1.1 14.5 2.8 22 3.3 5.2.4 10.3-.8 15.5-1.2l8.9-.4c2.2 0 3.8.9 5.1 3.8h-19.4c3.9 4.2 8.6 3.7 13.5 2.7.3 2.9-1.2 3.7-3.2 3.8-4 .3-8 .2-11.3-2.3-2-1.4-3.8-1.3-6.1-1.2a61.1 61.1 0 01-15-1c-8.3-2-16.8-1.9-25.1-1a211 211 0 01-27.7 1c-6.4 0-12.9-1.6-19.1-.8-7.4 1-13.6-1.6-20-3.5-13.1-3.8-26.2-7.5-39-12.1-11-4-21.5-9.4-30-17.9-6-6-12.7-11.3-19-16.7a54 54 0 00-13.1-8.2c-17.3-7.7-32-19-45-32.6l-3.3-3.4c-3.1-3.3-3.6-5.5-1.7-9.7a31.6 31.6 0 0117.2-17c2.5-1 4.8-2.9 7.1-4.4 1.3-.9 2.5-2 3.8-2.8a97 97 0 0029.5-29 45.3 45.3 0 006-13.2c1-4 2.3-7.8 6-10.7 3.1-2.3 5-6.3 7.3-9.6 1.4-2 2.8-2.3 5-.6a48.2 48.2 0 001.1-5c1.6-14.6 3.7-29.2 4-44 0-9 .6-18.1.7-27.2a125 125 0 00-2.4-25.2 119.3 119.3 0 01-1.9-16.4 57 57 0 00-4.9-19.9c-3.6-8.2-7-16.4-10.2-24.7-2.7-7.1-5.3-9.2-12.2-6.6-6.7 2.5-12.8 6.5-19.1 9.8-1.6 3.4-5.2 4-7.8 6-4.6 3.5-9 7.4-13.5 10.9a47 47 0 00-14.7 16.9c-1 2.2-2.6 4.2-3.6 6.8a14.2 14.2 0 002.3-1.6l14.8-15c2.8-3 5.3-6.3 9.6-7.6.9 2-.7 3-1.6 4.1a174.2 174.2 0 01-20.1 21.6c-6.7 6-11.2 13.5-16.2 20.7l-8.6 12.3c-.7 1-1.6 1.9-2.3 3l-16.5 26.2-6.8 10.7c-4 6.3-6.3 13.2-8 20.4-3 12.5-5.6 25.1-9 37.4a136.3 136.3 0 01-11.8 28.6c-3.6 6.5-6 13.4-9.2 20.1-3 6.5-6.3 13-9.4 19.4-2 4.3-3.6 8.6-5.4 13l-6.3 16.2c-.5 1.3-1.6 2.7.7 3.3-.8.8-2.2 1.6-2.3 2.5-.2 2.7-.8 6 .3 8.2a53.6 53.6 0 0017.7 22.1c2.9 2 5.4 4.3 8.2 6.4a13.5 13.5 0 003.6 2 39.1 39.1 0 0114.5 8.3c8.4 7.8 18.5 12.8 28.6 17.8 14.2 7.1 29.3 11.9 43.8 18a119.8 119.8 0 0118.3 9.6 102.7 102.7 0 0030.3 13.4c14.5 3.7 29 7.8 43.6 11.1 8.3 2 16.5 3.6 24.2 7.4a74.8 74.8 0 0114 8.5c3.3 2.7 5.6 6.6 8.2 10 .2.2-.1.8-.2 1l-8.3-4.6-17.3-8.5c-8.7-4.1-18.3-5.3-27.5-7.7-15-4-30.1-8.2-45.2-12.4a69.5 69.5 0 01-20-9 205 205 0 00-44.5-21 223.7 223.7 0 01-40.1-19.3c-4-2.5-7.5-5.7-11.1-8.6-2.7-2.2-5.2-4.5-8-6.5-1.6-1-3.7-1.5-5.5-2.2a20.4 20.4 0 01-3.1-1.1c-10.8-6.3-21-13.2-26.6-25a13.1 13.1 0 00-1.5-2.5c-5.2-6.7-4.6-14-2-21.3.8-2.4 2-4.6 2.9-7 1.7-4.7 3.3-9.4 5.2-14a52 52 0 014.4-9.3c6.6-10 10.7-21.3 15.6-32 1.7-3.7 3.5-7.4 5.5-11a116 116 0 0010.5-26c3.3-12.2 5.8-24.7 8.9-37a70.3 70.3 0 0111-24.7c7-9.7 13.3-20 20-30 2-3 4.3-5.8 6.5-8.7 1.2-1.5 2.6-2.8 1.2-4.9a2.1 2.1 0 01-.3-1.8c2.5-4.3.7-9.4 2.5-14 .8-2.1 1.4-4.8 0-7.3-.3-.4 0-1.2.3-1.7a83 83 0 0121.4-31.6l20.4-17.3a21.6 21.6 0 001.9-2.2zm23.1 232c5.5-5.3 10.2-10.2 15.3-14.5a36 36 0 009.4-12.7c4.6-9.9 7-20.4 9.7-30.8l-.3-1.4c-1.5 2.6-2.5 4.7-3.9 6.6a27.5 27.5 0 01-4.7 5.8 6.7 6.7 0 00-2.3 3.7c-1.2 4.4-2.2 9-4.3 12.9-4 7.4-8.8 14.4-15.6 19.8-3.3 2.6-6.2 5.8-10 9.5z"/>
      <path d="M832.8 539.4c-.5-.8-1.6-2.2-1.4-2.4 2.1-2.6-.1-3.9-2.5-6 3.4.6 6.1 1.4 7-2.2l-.1-.6c-4.1-3.2-2.6-6.8-.7-10.3l6-10.7a12.8 12.8 0 001.4-4.4l1-11.8-7.7-1.9-9.2-2.1a30.1 30.1 0 01-14.3-8.6 20.4 20.4 0 00-5.3-3.6 37 37 0 01-18.7-21.8l-3.3-10.5a5.1 5.1 0 013.5 3.2 44.5 44.5 0 012.3 5.6 28.2 28.2 0 0015.4 18l2.2-5.2c2 2 4 3.5 5.4 5.4a30.5 30.5 0 0019.4 12.2c5.2 1.1 10.3 2.8 15.6 3.6 9.5 1.4 18.3-.4 25.6-7.3l4.8-4.4c4.6-4.7 8.2-9.9 10-16.3 2.7-10.9 8.2-20.6 12.8-30.7 4.9-10.9 10.1-21.6 15.3-32.2 2.5-5 5.4-10 8-14.8l3-5.3a20.2 20.2 0 00-3.5-.7c-6.4-.2-12.7-.6-19 1a30.2 30.2 0 01-14-.3c-12.3-3-24.5-6.2-36.6-10a146.5 146.5 0 01-45.4-24.1l-10.1-8c-1.2 2-2.3 3.8-3.2 5.6-.8 1.5-1.5 3-3.7 3-1 .2-2 1.4-2.6 2.4-1.6 2.5-2.8 5.3-4.3 7.8a3 3 0 01-2.3 1c-.3 0-1-1.2-1-1.8a24.1 24.1 0 00-.1-6.3l-4 5c-2.5-.8-5.7-.1-6.8-3.6-4.5-.6-2.1-4.4-3.4-7.4-1.6 4.4-3.9 7.9-3.4 12.2.4 3.9 1 7.8 1.6 11.7l-1 .5c-.7-.6-1.9-1-2.2-1.8-2.7-7.2-4.5-14.3 1-21.4a11.1 11.1 0 001.8-10.5L762 330v-3.5c-6.2-.4-9.5 1.7-11 7a22.3 22.3 0 00-.8 3.2c-.3 2.2-.3 4.4-.8 6.5a51 51 0 01-2 5.9c1.2.9 2.8 1.5 3.3 2.7s-.1 2.7 0 4l.8 12.7c-4.3.5-1.6-5.7-5.5-5.2l3.2-10-.7-.6-3.8 2.1c-1.9-1.7-.8-3.5-.4-5.2.8-3.2 1.9-6.2 1.7-9.8-.2-3.8 2-7.8 3.4-11.6a2.7 2.7 0 011.7-1.5c4-1 8.2-1.8 11.8-2.5a47.1 47.1 0 013.6 3.6 5.9 5.9 0 011.3 2.9c.4 4.5 3 7.4 6.7 9.7a5.7 5.7 0 006.5.1c3-1.8 3-1.7 6.6 0l8.1-12.1a28.6 28.6 0 00-3.5-3.2q-10.5-6.7-21.1-13.2a7.7 7.7 0 00-3.6-.6h-6.1c-4-.1-7.8.3-10.4 4-2.2-1-1.7-2.3-.8-3.5a8.7 8.7 0 016.5-3.3c2.3-.2 4.7-.2 7.6-.3a14.4 14.4 0 00-1.5-2l-21.5-18.1c-5-4.3-9.8-8.9-14.7-13.2-4-3.6-8.7-5.5-14.1-3.9a22.2 22.2 0 009.1 25.1c6.5 4.5 12.9 9 19 13.8 3.7 2.9 6.8 6.5 10.1 9.8a3.6 3.6 0 011.3 2 4.3 4.3 0 01-.8 2.8 2.6 2.6 0 01-2.5 0 24 24 0 01-3.9-3.3c-2.4-2.4-4.5-5.2-7.2-7.2-6.8-5.1-13.8-9.9-20.7-14.7a20.3 20.3 0 01-9.1-13.7 85.6 85.6 0 01-1.3-12.1c0-5.5 2.2-7.6 7.6-8a20 20 0 0115.1 5.3c5.2 4.3 10.2 8.8 15.3 13.2l5.4 4.6c4.3 4 9.5 4 15 3.4 2-.2 2.8-1.5 3.3-3.3 1.8-5.9 3.7-11.6 5.4-17.5.6-2 .7-4.3 1.2-6.4a60.7 60.7 0 012.9-9.3c3.5-8 7.6-15.8 11-23.8 2-4.8 3-9.8 4.5-14.8.5-1.8.7-3.7 1.2-5.5 1.8-7.9 7.4-11 15.5-10.8 8.7.3 17.2 2 25.9 2.7 11 .8 22 2.6 33 4.2 14.5 2 29 4.6 43.6 6.7 5.4.7 10.9.7 16.3 1.2 7.6.7 14 4.6 20 8.6a11.3 11.3 0 015.3 10.5c-.8 12.8-1 25.7-2.2 38.5-.6 7-2.8 14-4.5 21-1 3.9-1.4 7.4-.2 11.5a35.8 35.8 0 01-.5 20.8l-1.5 4.4a23 23 0 0010.3 8 28.9 28.9 0 0024 .6c7.2-3 14.6-5.4 22-8a11.7 11.7 0 013.2-.3c2.3-.1 4.6-.1 5.7 2.3a6.1 6.1 0 01-.9 7c-5.7 6.3-10.5 13.3-17.4 18.4a22.2 22.2 0 00-4 3.3 27.6 27.6 0 01-14.3 8.5 92 92 0 01-32.3 4.6l-9.2-.8-12.7 26.4c-6.7 14.2-13.6 28.5-20.2 42.8a121.2 121.2 0 00-5.8 15.9c-2.3 7.7-6.6 14-12 19.8a38.8 38.8 0 01-31 12.7l-2 .1a11.3 11.3 0 00-1.7 9 10.2 10.2 0 01-1.2 7.6c-1.8 3.3-3.4 6.7-5.6 9.7-2.1 2.8-1.7 5-.2 7.8a38.3 38.3 0 013.3 7.2 11.8 11.8 0 01-.7 9.5c-3.7-.7-3.7-6.6-8.4-5.6 5.3 8.2 5.4 13.4.4 17.5-3.7-2.8-2.2-8-5-11.4l-6.4-1.7c2.6-2.6 4.5-3.6 7.2-2.6a10.6 10.6 0 002.7.3c-1 4-1 4 1.5 6.4 1-2.5-1-4.3-1.6-6.4zm99-208a38.1 38.1 0 001.5-26 9.3 9.3 0 01-.7-2.2 2.5 2.5 0 01.9-2 2.2 2.2 0 012 .5 32.7 32.7 0 012.9 4.8c.9 1.7 2 2.5 3.4 1.8-.5-2.2-1.4-4-1.4-6a51.5 51.5 0 011.3-9.7c2-9.4 4.6-18.8 4.6-28.6 0-9.3.9-18.5 1.4-27.7.1-1.8.6-3.7-1.6-5-7.6-4.3-15-9-24.3-8.8a61.3 61.3 0 01-11.7-.9c-13-2.1-26-4.4-38.8-6.7-8.4-1.5-16.6-3.1-25-4.5-9-1.6-18.2-3-27.3-4.4a14.6 14.6 0 00-2.7.2 26 26 0 01-5.4 0c-6.8-1.2-10.2 1-11.7 7.9-1 4.9-1.8 10-3.7 14.5-3.9 9.5-8.6 18.8-12.7 28.2-2 4.4-3.5 9-5.4 13.7l5.4 1.8c2-.7 3-3.1 5.5-2l-.6 4.7 11 2.8c2.8-2.6 2-7.6 6.6-8.2 1.7 3.9-1.1 6.9-1.2 10.1a30 30 0 0015.2 5.9c1.5-1.8-.9-5.3 3.3-6.3l1.5 8c8.5 2.9 16.4 7.5 25.6 9.3l1.4-4.3c.7-2.4 1.3-4.9 2.2-7.2.4-.9 1.8-2 2.6-2 1.6.1 1.6 1.7 1.3 3-.8 2.9-1.6 5.7-2.2 8.6a22.5 22.5 0 000 4c4.8-3.5 9.4-1.9 13.8-1.5 4.6.4 9.2 1.4 13.8 2.2l3.2-5 .6.3-1.3 5c2.2.8 3.2.3 3.6-1.8a31.7 31.7 0 011.7-6.3c.3-.8 1.7-1.3 2.6-1.4.3 0 1.1 1.3 1.2 2.2a15.3 15.3 0 01-.3 3.2l-.5 4.6 21 5.4a36.9 36.9 0 01-1.7-6.1 3.8 3.8 0 011.5-3c1.4-.8 2.3.3 2.9 1.5a21.1 21.1 0 011.6 4c.5 2 2.6 3.2 3.3 5.3.3 1 3 1 4.6 1.6a15.9 15.9 0 012.3 1.6l-7.3 1.4-4.2 17.5zm-81.8-12l-1 .3c0-3.7-2.5-4.2-5.1-4.7s-4.8-1.5-7.2-2.2c-3.5-1-6.9-2.6-10.4-2.7a29 29 0 01-14.8-5 37.4 37.4 0 00-4.6-2.4c-.7-.3-1.7-.8-2.1-.5-2.8 2-5 .1-7.4-.9l-14.8-6.2-3.5 2.9c-.5-.3-1-.3-1-.5l-1.3-2.5c-1-2-3.6-3.6-4.7-2.3-1.9 2.2-4 .9-5.9 1-2.9.4-5.8.2-9.6.2a38 38 0 004 3.5c9.4 6 19 12 28.4 18.2a135.7 135.7 0 0112.6 9c14 11.5 28.7 21.6 46 27.9 15 5.5 30.3 9.6 45.8 13.4a30.6 30.6 0 0011.7.5 81 81 0 0122 .3c5.4.6 10.8 1.6 16.2 2.1 9 .8 17.9-.5 26.5-3a36.5 36.5 0 0011.5-5 106.6 106.6 0 0013.2-12c3.6-3.5 6.6-7.5 9.9-11.3l-.6-.8-20.7 7.2c-3 1-6.1 2.7-9.3 3a33.4 33.4 0 01-22-4.6c-4.5-2.7-8.5-7-14.6-6.7-1.2 4.3.6 9.4-3.2 13.7.4-4.4 2-8.3.6-12.2l-4.7 2.3v-5.8c-3.8-.3-7.4-1-10.9-.8a39.5 39.5 0 01-17-2.3c-4.2-1.5-8.5-2.7-12.6-4l-2.8 5.3c-3.2-1.7-2-4.5-3.1-7.2-1.9-.4-4-.9-6.2-1.2s-2.9-3.3-5.4-3.4c-1.5 0-3-.5-4.6-.6-2.1-.2-4.3-.1-6.5-.5-3-.5-6-1.3-9-1.9l-1.7 2.4zm42.4-13.8l-3 16.7c8 1.6 14.8 5.2 22.5 6.3 1.7-6 4-11.5 2.8-17.7-7.3-1.9-14.2-5-22.3-5.4zm-38.2-3.4a17 17 0 00-1.5 10.2l24 4.9 4.4-13.7-21.8-4.7 1.2 3.3zm-5.4-.8l-25.5-9.9 2.9 14.6c7.3.3 13.7 4.3 21.3 4.5l1.3-9.3zm-48.8-3c2.6-2.5 4.5-2.2 6.6-1.1 3.4 1.9 7 3.5 10.4 5.3l4.7 2.4-2.6-14.1-16.8-5.8-2.3 13.3zm-4-2.8l1.7-14-12-4.3c-2.5 4.7-4.6 9.1-4.1 14.4zm91.4 9.6c-4-.7-4.1-.8-4.6.5a55.4 55.4 0 00-3.8 13l5.5 1.9 2.9-15.4zm52.1 4.3v7.7c0 2.6-.5 5.2-.6 7.8 0 2.3-2.2 4.4-1 7 .7-.2 1.1-.2 1.2-.4a35 35 0 004.3-20.1c-.2-2.2-1.6-2.4-3.9-2zM776 291l4.8-15.7-4-1.5c-1.8 5.5-4.2 10.3-4.6 16zM527.9 1384.3c21 7.5 42.4 5.6 63.9 1.5-9.1 3.4-18.6 4.2-28.2 5.5a4.2 4.2 0 001.3.6c8.6.5 16.5 3.5 24.4 6.4 11.7 4.2 23.5 8 35.9 9.2a205.5 205.5 0 0022 1.3 269 269 0 0077.8-11.4 290.8 290.8 0 0073-33.7 438.5 438.5 0 0063.2-47.1 300 300 0 0030.4-31.4 205.8 205.8 0 0024.3-42.3c11-23.6 16.7-48.8 21.7-74.2a276 276 0 003.5-72 437.7 437.7 0 00-8.6-59c-2.2-11-4-22.3-7.3-33-4-13-9.4-25.6-14.3-38.3-3-8-6.2-16-9.6-24-1.6-3.6-3.8-6.8-5.8-10.2-1.6-2.7-3.4-5.3-4.9-8-.7-1.4-1-3 1.5-4.1l5.2 7.4c1.8 2.4 3.8 4.6 5.8 7 1.3-7.3-.7-14.1-5.5-18.9l-3.8-3.4a44 44 0 01-13.8-24.5l-3.2-15.2c-8 3.7-14.1 8.7-20.5 12.5l-1.7 6c2.5 3.4 7.5 6.7 7.3 12.9-2.9.7-3.8-1-5-2.5a62.9 62.9 0 00-5-6.3c-2.7-2.8-6-4.9-10.2-2.6-.2.1-.5-.2-1-.3l1-3c-3.6-1-7.2-2-10.8-3.2a41 41 0 01-13.4-6.5c-2.1-1.8-5-2.6-7.4-4-.8-.4-1.2-1.5-1.7-2.3.7-.5 1.6-1.4 2.2-1.3 6.3.9 12.2 3 17 7 .8.6.9 2 1.3 3l19.1 4.2-.3-4.3 4.2 1.9c52-31.8 104.7-63 156.3-96-8.7 2.4-16.5 7-25.8 10.1.6-1.5.6-2.6 1.2-3a35.1 35.1 0 015-2.5l18.5-8a132.9 132.9 0 0021.2-12c6.7-4.5 14.1-8 21.3-11.8 4.2-2.2 8.5-4.1 12.8-6 4.6-2.1 5.8-1.3 6.1 4.6-2.4 1.5-5 3.3-7.7 4.8-7.4 4-14.8 8-21.5 13.4-6 4.7-13 8-19.7 11.8-3.4 2-7 3.5-10.5 5.3a19.9 19.9 0 00-2.9 2.3h.2a10.4 10.4 0 00-3.2.5c-5.5 3-11 6-16.2 9.4 5.7.3 9.3-4.7 14.8-5-4.8 4.5-9.9 8.3-17 8a9.6 9.6 0 00-6.1 1.5l-20 13-25.8 17.3a28.8 28.8 0 00-3 3.2 4.3 4.3 0 01-1.5.8l-15.3 6c-.2 0-.4.3-1 .8.9 5 1.9 10.2 2.7 15.4a48.4 48.4 0 011 8.9c-.2 11.6 1.4 23 4 34.4 1.5 7 2.6 14.2-.2 21.3-.6 1.5-.5 3.4-.7 5.1-.6 4-1.5 4.7-5.5 4.8h-2.8l-3.6-.2a45.4 45.4 0 001.5 5c4.5 11 9 22 13.7 33a219.4 219.4 0 0115.3 52.1c3.2 19.1 6.2 38.3 9.2 57.5a64.7 64.7 0 01.9 9.8c0 13.6.4 27.3-.3 40.9-.8 18-4.9 35.6-8.6 53.2a281 281 0 01-32.2 81.3c-8.6 15-20.5 27.3-32.7 39.2a430.3 430.3 0 01-95.1 69.2 272 272 0 01-88.5 29.8 259.6 259.6 0 01-62.3 2.8 134.7 134.7 0 01-35.5-8.3c-13.5-5-26.8-10.5-40.2-15.7a53.7 53.7 0 00-6.3-1.7c-5-1.3-10-2.4-15-3.8-1-.3-2-1.3-3-2zm386.8-445.5c.5-5.6 1.3-10.6 1.1-15.5a82.1 82.1 0 00-2.4-14.8 106.4 106.4 0 01-3-28.9 42.5 42.5 0 00-.4-8.4 56 56 0 01-.8-16.8c0-.2-.4-.4-.7-.8A312.4 312.4 0 00880 870l4.8 17.3c2.2 8 5.8 15.2 12.1 20.8a77 77 0 016.8 6.5 6.3 6.3 0 011.7 4.1c-.7 7 2.1 13.4 2.1 20zM608.4 996.4a52.6 52.6 0 01-1.4 14.2 158.2 158.2 0 00-3 42c.6 11.5 2 22.8 3.1 34.2.3 3 1.4 5.8 0 8.7-.5.9.2 2.2.3 3.2.3 4.4 1 8.7 1 13-.1 7.5-.7 15-.9 22.5a30.5 30.5 0 00.8 5.6A127 127 0 00622 1180c1.7 3.2 3.1 6.5 4.6 9.8a27 27 0 011 3.8c-9.6-5.9-22.6-43.4-24-67.4a55.8 55.8 0 01-2.7 6.9c-6 11.1-14.1 20.6-23.3 29.3a204 204 0 01-45 32 408 408 0 01-44 19.5 308.8 308.8 0 00-71.6 39c-6 4.3-12.4 8-18.6 11.9a5.3 5.3 0 01-2 1 11.4 11.4 0 01-2.9-.4c.3-.8.4-1.9 1-2.4l20.3-16.6a221.2 221.2 0 0153.8-32.3c15.8-6.7 31.8-13 47.6-19.9a207.6 207.6 0 0060.5-39.8 125.8 125.8 0 0017.6-21.4 55.6 55.6 0 008.3-41.2 329.7 329.7 0 01-4-47.8c0-12.6 2-24.9 4.7-37.2l1.6-8.3c.4-1.5 1-3 3.6-2.2z"/>
      <path d="M790.5 958.6a12 12 0 011.3 2.6c2 9.8 3.7 19.8 2.7 29.8-.4 5-2.1 9.8-3.3 14.6-1 3.5-2.4 6.9-2.8 10.4-.6 4.8-2 8.9-7.2 10.3 1.5 4 .8 5.2-2.9 5.4a8.9 8.9 0 01-3.2-.3c-8.5-3-17.5-3-26.3-4.7-8.9-1.7-17.7-4-26.6-5.6a488.8 488.8 0 01-64.2-17.3c-4.4-1.5-9.1-2.1-13.7-3.1l-6-1.3c-6.2-1.5-12.4-3.2-18.6-4.6a66 66 0 01-19.7-7.5c-9-5.3-18.8-8.5-28.4-12a161.8 161.8 0 01-19.1-9 16.1 16.1 0 01-8.7-11.2l-5.8-31.3c-3.2-17.3-1.1-34.7-.4-52a41 41 0 01.5-6.1c.1-.9 1.2-1.5 1.9-2.3.7.7 1.8 1.3 2 2.1a22.4 22.4 0 01.4 5.2c.1 8.4.5 16.9.2 25.3-.5 15.8 1.8 31.2 5 46.6l2.2 10.1c.8 4.1 3.5 6.8 7 9 7.5 4.7 15.8 7.4 24.1 10a101.8 101.8 0 0120.2 8.8 90.6 90.6 0 0024.2 8.6c18 4.4 36.3 8.1 54 14 15.6 5.2 31.8 8.2 47.8 11.9 12.8 3 25.7 4.8 38.8 6.5a31.5 31.5 0 016 1.3 7.2 7.2 0 005-.1c4.2-1.4 7-3.5 7-8.5a19.3 19.3 0 012-7.7c5.4-11.6 4.6-23.8 3.8-36-.3-3.9-1.4-7.7-.2-11.5zM286.5 1317.8a8 8 0 002.8 6.5 58.1 58.1 0 009.2 7.9c5.3 3.3 11 6.1 17.3 9.6.4-.8.7-2 1.3-2.2a3.5 3.5 0 012.6.6c3 1.8 6 4 9.1 5.7 2.5 1.5 5.2 2.7 8.4 4.3a9 9 0 002.2 2.9 254.3 254.3 0 0080.4 38.5c13.7 3.6 27.7 5.3 41.6 7 9.5 1.2 19 2.4 28.5 3.3 7.5.7 15 1.2 22.5 1.5l48 1a21.3 21.3 0 018 1.8 45.7 45.7 0 01-5 .6c-20.4.5-40.7 1.1-61.1 1.2-8 0-16-1.2-23.9-2-9.8-1-19.5-2.4-29.3-3.5a222.6 222.6 0 01-58.5-14.9c-21.7-8.6-41.2-21-60-34.6a63.2 63.2 0 00-9.4-5.3c-6.9-3.4-14-6.2-20.8-9.8a71 71 0 01-11.5-8 22.8 22.8 0 01-7.3-11.4c-1-3.6 0-5.5 3.7-6a86.2 86.2 0 0027.3-9.5c12-6.3 23.6-13 35.3-19.7 3.7-2.2 7.1-5.1 10.7-7.6l3-2-1-1.2-19.7 9.2c.4-2.6 2.1-3.8 3.9-4.8 5.5-3.3 11-6.6 16.7-9.5 6.8-3.5 13.8-6.6 20.7-10a141.5 141.5 0 0026.8-16.3c3.3-2.6 6.9-5 10.4-7.3 1.3-1 2.9-1.6 4.3-2.4l.6.8-7 6.5a148.6 148.6 0 01-40.2 25.7 75.5 75.5 0 00-7.2 3.5 6.3 6.3 0 00-2.8 2.8 23.5 23.5 0 01-7.5 10 54.7 54.7 0 01-8.3 6.2c-13.6 7.7-27.2 15.5-41.1 22.5-6.6 3.4-14.1 5-21.2 7.4l-2.5 1zM729.4 619c-7.6-.5-15-1.2-22.2-1.6-7.2-.5-14.3-.7-22-1 1.2-2.1 2.7-1.9 4-1.8 8.3.3 16.5.6 24.8 1.2 5 .3 10 1 15.5 1.4-.7-6.6-.3-13.1-3-19.2-2.1-4.6-4.9-8.9-6.4-13.5a34.9 34.9 0 00-5.5-10.7c-1.8-2.4-3.3-5-5.3-7.2-3-3.4-4.3-7.6-5.5-11.8-1-3.8-2.2-7.5-3.4-11.2-1.9-6 .3-11.5 6.2-14a56.7 56.7 0 0123.3-4.5c4.5 0 8 2 9.1 6.6 1.9 7.6 4 15.1 3.3 23.1a97.5 97.5 0 006.2 44.7 65.2 65.2 0 014.8 29 168.7 168.7 0 00.5 30.3c14.8 1.6 24.5-6 32-17.5 2.1 3.3 2.1 6.5-.8 9.2-8.3 7.5-16.9 14.5-29.2 12.4a10.6 10.6 0 00-1.4 0 4.6 4.6 0 00-.8.2v5.4c.2 7.8.7 15.6.6 23.5s-5 13.5-12.7 15.3c-6.2 1.5-11.8-2.1-12.4-8.5a182.8 182.8 0 01-1.1-18.3q-.2-18.7.2-37.5c.1-5.6.8-11.3 1.2-16.9v-7zm12.5-32c-1.3-2.4-3.3-4.6-3.7-7-1.3-7.5-2.6-15-1.3-22.5 1.4-8-.9-15.5-2.4-23.1-.7-3.8-1.6-4-5.7-4.2a51.6 51.6 0 00-18.4 3c-5.2 1.9-6.4 4.7-4.7 10l3 8.9c1.2 4 2.3 8 5.2 11.4a58.5 58.5 0 014.9 6.8c2.2 3.4 4.7 6.7 4.6 11.1 0 1 1 2.1 1.6 3.3 2.5 6.2 6.1 12.2 7.3 18.6a89.6 89.6 0 011.3 28.5c-1 8-.2 16.2-.2 24.4v30a85.9 85.9 0 001 11.3c.6 3.9 3 5.2 6.7 4.3a10 10 0 007.5-9.7c.1-6.9 0-13.8-.2-20.7l-.7-44.1c0-4 .1-8-.7-11.7-1.4-6-3.4-12-5.3-18-1.2-3.6-2.5-7 .2-10.6zM911.7 763.5c-2.8-4.5-2.2-8-.5-11.2 2.4-4.1 2.3-8.3 2.1-12.7-.1-3.3 0-6.6-.2-10l-.8-14.4a44.1 44.1 0 01.2-8.9c1.8-10.4 1.5-21 1.9-31.4.2-7-1.9-13.2-4.1-19.6v8.2c.6 14.4-1 28.7-3.5 42.9a37.8 37.8 0 00-.5 8.4c.7 12.8-1.4 25.3-2.9 38a40.6 40.6 0 01-4.4 14.6c-1.3-3.6-.9-6.5-.6-9.4 1.4-15 3-29.8 2.6-45-.1-6.3 1.6-12.7 2-19 .8-9 1.7-18.2 1.8-27.2 0-8.4-1-16.9-1.3-25.3-.6-10.3-2.8-20.2-5-30.1a68 68 0 01-1.2-7 98 98 0 00-3.8-17.8 531.5 531.5 0 01-8.5-32.2 53 53 0 00-6-15.2c-4.6-7.5-8.7-15.2-12.8-23a29.8 29.8 0 00-7.8-9.2l-7.4-5.8a30 30 0 01-2.5-2.5c.7-1.9 1.8-2.1 3-1.4 7.7 4.7 15 9.5 19.3 18 3.9 7.5 8 14.9 12.5 22a53.4 53.4 0 016.2 14.7l10.4 38.5c1 3.8 1.4 7.7 2.3 11.5 2.4 9.2 5 18.4 7.3 27.7a568.6 568.6 0 017 32 105.4 105.4 0 012 14 165 165 0 01-1.2 29.5 28.7 28.7 0 00.8 13 12.4 12.4 0 01.6 3.7c.1 7.8.3 15.6.2 23.5a24.8 24.8 0 01-1.5 6.7 45.7 45.7 0 01-2.5 6.1c-.7 1.6-1.8 3-3.2 5.3z"/>
      <path d="M876.6 839.9c-.9-1.6-2-3-2.6-4.7a73.1 73.1 0 01-3.3-18.4c-.5-9.7-1.4-19.3-2.7-29a126.9 126.9 0 01-.2-30 153 153 0 00.2-37.9c-1.6-11-1-21.8-.3-32.7a157 157 0 00-1.6-37c-3.3-20.4-2.8-41-2.7-61.4.1-8.5-.1-17-.7-25.3-.5-8.1-4.6-14.9-9-21.4-2.8-4.1-6-8-9-12a15.1 15.1 0 01-1-1.9l.7-.7c1.8 1.2 4 2.2 5.5 3.7a67 67 0 0118 28.3 23 23 0 011 6.4c.2 17.8-.1 35.7.4 53.5.3 10.5 1.8 20.9 3.1 31.3 1.7 13.4 2.4 26.8 1 40.3a109.5 109.5 0 000 25.7 152.2 152.2 0 01.2 41.7 92 92 0 00.3 29.9c.4 2.1.4 4.3.6 6.5l1.5 16.4c.8 7.7 1.7 15.5 2.4 23.3a29.4 29.4 0 01-.3 5z"/>
      <path d="M959.4 785.5a40.3 40.3 0 014.5.5c5.2 1 9.6 3.8 13.7 6.9 4.8 3.6 4.5 9.2-.4 12.4a33 33 0 01-5.5 2.6c-2.5 1.1-5.7.7-7.2 4.1-.4 1-3 1.4-4.7 1.4a11.4 11.4 0 00-6.5 2.3c-8.3 5.5-16.4 11.6-25.2 16.3-13.4 7-24.9 16.9-38.4 23.6-9.9 4.9-20.3 9-30.4 13.4-1 .4-2.3.5-3 1.1-6.1 4.5-13.5 6-20.3 8.7a7.5 7.5 0 01-5.6.2l4.2-2.6-6.5-2.1c.7-2.5 2.3-2.5 3.6-2.2a25.5 25.5 0 0021.1-5.2c1.9-1.5 4.8-1.4 7-2.4 12.4-5.3 25-10.1 36-18 1-.6 1.7-1.3 3.3-2.6-2.5-.1-4.1-.1-5.7-.3-2.7-.3-3.4-1.2-3.5-4a5.5 5.5 0 00-.3-2 55.5 55.5 0 01-1.5-45.4 12.1 12.1 0 012-3.8c3.1-3.4 3.5-7.5 3.4-11.8a67.4 67.4 0 010-7.5 37.5 37.5 0 011-5.2c2.7 1 2.8 2.9 2.8 4.7.3 8.4-.5 16.7-3.9 24.3a59 59 0 00-1.7 37l.8 4a34.6 34.6 0 010 3.7c4.8 1 6.7.9 11-1-1-1.1-1.7-2.8-2.9-3.2-2.2-.7-2.8-2.4-3.2-4.2-1.1-5.8-2.3-11.6-1-17.7.6-3.2.5-6.5.7-9.8.5-4.7 1.3-6.6 4.6-10-.2 1.7-.3 2.9-.6 4a63.2 63.2 0 002.7 37 29 29 0 002.5 4.4 6.6 6.6 0 001.7-.2l9.7-5.5c-.1-3.6-.1-7.2-.4-10.8-.3-4-.8-8-.9-12.1a42 42 0 014 21.3c11.8-3.8 20.7-11.6 31-17.7l-3.2-2.3a2.7 2.7 0 00-4.1.5l-.7.7c-1 1.3-2.2 3.1-4.1 1.3-1.5-1.4-.2-2.8.8-4.1 2.8-4 5.8-4.5 10.1-2.2 1.3.7 2.4 1.7 3.7 2 2.2.5 4.8 1.4 6.8.8 5.4-1.6 10.6-3.8 15.8-5.8a15 15 0 001.7-1c0-3.6-1.6-6-4.5-8.1a41.1 41.1 0 00-12.5-6.4 15.6 15.6 0 01-2-1zM537.9 561.7c-9.6.9-19-1.3-28.2-3.6-5.2-1.3-10.2-3.2-15.4-4a175.6 175.6 0 00-18.3-1.4c-4.3-.2-8.3-.7-11-5-.6-1.2-2.4-1.8-3.8-2.4a57.5 57.5 0 00-19.8-3.4c-9-.2-18 .4-26.6-2.1a103 103 0 00-31.2-3.2 261 261 0 01-40.7-2.4 127.5 127.5 0 00-34.7.4 10 10 0 01-1.9.2c-8.9-.7-17.3 2-26 3.2-6.6.8-13.4 1.2-20 1.7a99.5 99.5 0 01-12.8.3c2.5-.3 5-.8 7.5-.9a208.5 208.5 0 0034-4.6l2.8-.8a26.5 26.5 0 00-3-1.9c-6.7-2.8-13.3-5.7-20-8.2a90.6 90.6 0 00-13.2-3.5c-12.4-2.5-24.9-4.8-37.3-7.2-8.7-1.7-16.8-5.1-24.9-8.4-6.2-2.6-12.6-4.8-18.9-7-5.4-2-11.1-3.5-16.3-6-5.8-3-11.7-3-17.8-2.1-3 .4-6 .8-8.8 1.4-10.1 2.2-20.3 2-30.4 1.3-2.5-.2-5 0-7.5-.8h7.2a132.2 132.2 0 0035-3.4 54.8 54.8 0 017.4-1.2c5.4-.6 10.6-.7 15.6 2a36.1 36.1 0 006.6 2.5c13 4.2 25.7 8.8 38.2 14.2 9.5 4 19.6 5.5 29.6 7.3 9.4 1.8 19 3.1 28 5.9 9.6 2.9 18.8 7 28 11a31.4 31.4 0 0014.9 2.6c12.3-.7 24.7-.6 37-.5 4 0 8 1.5 12.2 1.7 11.5.5 23.1.9 34.7.9a108.5 108.5 0 0125.5 2.8c7.1 1.7 14.6 1.8 22 2.3 8.5.6 17.2.3 25.4 3.4 2.7 1 5.3 2 6.9 4.6 1.3 2 3.4 2.7 5.7 2.8h5.6c7.1-.2 14 1 20.9 2.7 11.2 2.9 22.5 5.3 33.8 7.9l4 .9zM292.3 727.2a53.8 53.8 0 007 .1 276.4 276.4 0 0127.7-2 20.8 20.8 0 0016.9-8.5 30.6 30.6 0 006-17.5c.7-15.2 1-30.4 1-45.5 0-5-1.3-10-2.5-14.8-1.5-6-3.3-7.3-9.3-8a18.6 18.6 0 01-2-.5c3.5-2.3 6.5-2.5 8.7-.2a18.2 18.2 0 014 6.2 65.8 65.8 0 014 24c-.4 13-.5 26-1.1 39a35.6 35.6 0 01-6.4 19 26.4 26.4 0 01-8.8 7.5c-5.5 3.2-11.5 3.7-17.6 4.2-8.4.7-16.7 1.7-25.5 2.6l-.6 5.3-1.5 43.1c-.3 5.8-1 11.6-1.6 17.3-.2 2.2-.8 4.4-.8 6.6q-.8 25.5-1.4 51.1a7.4 7.4 0 001.1 4.3l4.7-13.4 1 .3-1.9 7.7-2.6 8.5a227 227 0 00-2.2 8.1 33.6 33.6 0 01-2.9 8.2 9.3 9.3 0 01-.7-2.6c0-12.2 0-24.4.2-36.6.3-11.6.8-23.2 1.4-34.8.2-3.7 1-7.4 1.3-11.1.6-9.7 1.2-19.4 1.5-29.1.4-11.1.5-22.2.8-33.4a38 38 0 011-5.7zM278.2 129.6c-6.8-2.5-13.3-5.2-20-7.3-8.8-2.7-18-2.3-27-2a105.1 105.1 0 00-38.7 8.7 71 71 0 00-27.8 21.8 39.5 39.5 0 00-8.4 30 85.3 85.3 0 0024.8 51.5 48 48 0 0033.7 14.5 142.7 142.7 0 0027.2-1.5c-1.2.4-2.3 1-3.5 1.3a40.7 40.7 0 01-4 1.2 75.7 75.7 0 01-27.1 1 48 48 0 01-27.4-13.4 86.9 86.9 0 01-26.9-56.9c-.8-11 2.3-20.7 8.9-29.4a77 77 0 0146.1-28.6 116.5 116.5 0 0142-1.8c10 1.4 19.3 5.3 28 11zM686.4 648c1.3 1.5 2.7 2.4 3 3.6 1.2 3.7 2.7 7.5 2.8 11.3.4 8.7 1.2 17.1 4.4 25.3 1.2 3 1.5 6.4 2 9.6 1 7.1 1.7 14.3 3 21.4a72.5 72.5 0 004.3 12.9 43.3 43.3 0 011.3 23.6l-2 13c-.4 3.7.5 6.5 5.5 8 3.8 1.2 8 1.2 12 1.6 1.7.2 3.3.1 5.2.2-.5 3.5-3 4.3-5.1 4.7-5.7 1-11.3.6-16.4-2.2-4.5-2.5-7.3-6-6.8-11.4a108.5 108.5 0 011.6-13 52.4 52.4 0 00-2-29.9c-2.5-6.8-3.2-14.3-4-21.6-1-7.6-2-15.1-4.7-22.5a43.2 43.2 0 01-2-12.4c-.3-6.3-.3-12.5-2.8-18.4a4.9 4.9 0 01-.2-1.9c0-.3.2-.5 1-1.9zM758 468.4l-1.4-3.5c-.9-2.3-1.9-4.6-2.5-7a40 40 0 01-.7-5.8l1.2-.5a20.4 20.4 0 012.1 2.5c7.7 12.3 14.6 25.1 23.9 36.5a97 97 0 019 13.7c3 5.4 5.6 11.1 8.3 16.8a26.2 26.2 0 008.4 10.5 30 30 0 014.3 3.6 27.5 27.5 0 012.5 3.9c-3 1.7-5.4.8-7.6-.3a30.4 30.4 0 01-13.5-14.5c-4.5-9.4-8.9-19-15-27.6-4.4-6.1-8.8-12.1-13-18.3-2.2-3.2-4-6.7-6-10z"/>
      <path d="M294 679.4l15-2.3a15 15 0 0012.8-12.4c.7-3.3 1.3-6.7 2.2-10a46.8 46.8 0 012.2-5.5l.9.3c-1.3 6.2-2.2 12.6-4.1 18.6-1 3.3-3.5 6.2-5.7 9a8.8 8.8 0 01-4.9 2.6c-5 1-10.2 1.6-15.3 2.3-3.5.4-4.1 0-5.2-3.3a13.8 13.8 0 01-.7-5c.5-6.8.8-13.7 1.7-20.5 1.9-13.8 1.5-27.6.4-41.3-.5-5.8-2.4-11.6-4.3-17.3-2.3-7-7.2-7.9-14.4-6.1-1.8.4-3.4 1.5-5 2.3 1.9-5.2 3.9-6.4 9.4-6.7 6.5-.4 10.7 2.6 12.5 8.3 2.2 6.7 4.7 13.5 5.2 20.4 1 15.9 1.6 31.9-1.3 47.8a26.2 26.2 0 00-.3 2.8l-1.2 16zM728.4 942l-8.8-7.8.5-.7c2 1.2 4 2.5 6.2 3.6 7.5 3.7 14.9 8 22.7 11 10.6 4.2 22 4.8 33.2 5 3.6.1 3.6 0 5-4.2-1.6-1.6-5.4-.4-5.8-4.1 1.6-1.5 3-.4 4.3.2a6.8 6.8 0 009.5-3.7l2.3-6.3c-4.4-2.4-10-2.5-13-7l.4-1 17.3 6.8a5 5 0 01.3 2.3 86.5 86.5 0 01-3 8.9 5.5 5.5 0 01-2.3 2.8c-2.7 1.4-4.1 3.7-5.5 6.2-1.5 2.8-3.8 5-7.4 4.7-13.3-1-26.6-1.8-38.9-7.5-5-2.4-9.7-5.6-14.6-8.4a24.9 24.9 0 00-2.5-1zM1010 818.4c-1 1.2-2 2.9-3.5 3.6-2.6 1.3-3.4 3.4-3.4 6a13.1 13.1 0 00-.1 2c1 7-1.6 13.4-4.4 19.4a34.9 34.9 0 01-9.4 12.4c-6 4.7-13.5 6.4-21 7.2-3.9.4-8.8-5.2-8.4-9.1 0-.7.8-1.8 1.2-1.8a2.9 2.9 0 012.2 1 34.3 34.3 0 012 4.7 36.4 36.4 0 006-.4q6.8-1.6 13.5-3.6c3.2-1 4.1-2 6-5l-8.7-1.5c2.5-2.7 5.1-2.7 7.5-2.8 3.6 0 5.5-1.5 6.1-5a12.6 12.6 0 011.3-3.6c3-5.8 3.4-8 3-16 .6 3-1.3 4-3.4 4.3-9.6 1.3-19 1.5-27-5.4-1.6-1.4-1.6-1.4-1.4-4.4h.9c1.6 3.8 5 5 8.6 5.4 4.8.5 9.6.8 14.5 1a5.4 5.4 0 003.5-1.2c4.2-3.7 9.7-4.7 14.6-7zM256.6 1199.2l14.7 8c7.5 4 14.9 8.2 22.4 12a66.4 66.4 0 0039.3 6 128.3 128.3 0 0020.3-3.8 111 111 0 0137.7-2.9c5 .3 10 1 15 1.5a29.3 29.3 0 014.6 1.5l-.2 1.2h-3.7l-19.7-1.4c-13.4-1-26.4 1.4-39.4 4.6a95.7 95.7 0 01-37.8 1.6 63.3 63.3 0 01-21-7.6c-10.7-5.9-21-12.4-31.5-18.6a10.7 10.7 0 01-1.4-1.2l.7-1zM1137.9 502c-2.9 3.4-6.7 4.2-10.5 4.9l-24.5 4a35.3 35.3 0 00-16 7.7c-3.6 3-7.6 4.6-12 6.3a127.4 127.4 0 01-47.4 7.4 68.7 68.7 0 00-36.3 9.6L987 544l-1.2-.2c4.7-4.2 9.3-7.7 15-9.6a82 82 0 0127-4.8c10 0 20.2-.2 30-2.6 7-1.8 14-4.3 21-6.6a15.2 15.2 0 004.3-2.7 45.7 45.7 0 0123.3-10.2c9.6-1.2 19.1-3.3 28.6-5l2.8-.5zM240.8 770.6a7.8 7.8 0 01-2 .7c-7.8 0-15.7 1.1-23.3-1.7-2.8-1-5.7-1.5-8.6-2.3a7.6 7.6 0 01-2.9-1.5c-6.3-5.6-11.6-12-12.8-20.7a168.4 168.4 0 01-.6-35.6c.2-2.7 1.5-5.3 2.2-7.9l1 .2v5c0 10.2 0 20.3-.2 30.5-.2 9.7 4.4 17 11 23.5a10.3 10.3 0 003.6 2 80.7 80.7 0 0027.9 5.6c1.6 0 3.6-.5 4.7 2.2zM728.7 993.3a40.9 40.9 0 01-6.3-1 283 283 0 00-40.2-9 34.3 34.3 0 01-16.4-7.6 124.8 124.8 0 01-10.5-10 11 11 0 01-2.5-4.4c-.2-.7.8-1.8 1.2-2.7a8.2 8.2 0 012.3 1.3c1.5 1.7 2.8 3.7 4.3 5.4a45.1 45.1 0 0029.8 15.1c9.7 1.3 19.3 4.1 28.8 6.4a39.8 39.8 0 017.8 3.2c1 .5 1.5 1.6 2.3 2.4zM777.4 780.6l4.5-4.6a6.9 6.9 0 002.3-6l-.5-4.6c-1.1-10.4-2-20.8-1.2-31.3.4-6-1-12.1-1.3-18.2-.3-6.7-.3-13.4-.4-20.1 0-.2.4-.4 1.1-1 .8 5 .1 9.8.5 14.5a115.5 115.5 0 002.2 14.4c2.1-6.2 2.5-12.6 3.4-19s1.6-12.6 3.1-18.9c-.5 6.9-.8 13.7-1.6 20.5-1 7.8-2.4 15.5-3.7 23.2a54.9 54.9 0 00-.2 16.3c1.1 8 1.7 16.2 2.6 24.3.6 5.6-3.2 8.5-7.1 11.1-.8.6-2.3.3-3.4.4l-.3-1zM779.5 386a3.2 3.2 0 01-3.1 3.3 52.2 52.2 0 01-8.8-.4 4 4 0 01-2.8-1.6c-3.5-6-9-11-10.5-18.2a39.5 39.5 0 01-1.2-7.3c0-7 .1-14.1.4-21.2.1-4.2 1.6-8 2.6-12.2 3.3.6 3 2.9 2.7 4.5-1.8 9-.7 18.1-1 27.2a27 27 0 006.7 18c.5.7 1.2 1.2 1.5 1.9 2.1 5.5 6.7 5.7 11.5 5.5a9 9 0 011.4 0l.6.4zM999.4 528.8c-3.2.5-6.4 1.3-9.6 1.3-10.5 0-21-.2-31.4-.7-5.5-.3-10.5-2-14.2-6.5-1.4-1.8-3.4-1.9-5.5-2a106.8 106.8 0 00-36.9 5.8l-9 3a15.6 15.6 0 01-5 .6A83.8 83.8 0 01904 523a100.8 100.8 0 0135.6-5c2.9.2 5.2 1 7 3.3a12.3 12.3 0 008.4 4.6c6.2.7 12.5 1.4 18.7 1.6 8.5.3 17 .1 25.6.1zM917.8 757.7c8 4.8 12.4 12.4 18.1 18.6a162 162 0 0138.2-2 25 25 0 0114.3 5.5 28.2 28.2 0 013.4 4l-.7 1a31.7 31.7 0 01-4.2-1.7 34 34 0 00-18.3-4.7c-6.1.3-12.2.4-18.3.4H937l-.8 1.8-.9-.1c-7-5.6-11.8-13.3-17.7-20-.3-.3 0-1.3.1-2.8zM248.3 721a3.9 3.9 0 01-4.1 3c-6.1-.2-12.3-.4-18.3-1.2-4.6-.6-5.4-2.6-5.3-7.3.2-10.5 0-21 .1-31.4v-11.3a73.5 73.5 0 00-1.3-10.7c-.9-4.2-4.2-5.6-8.1-3.5a27.2 27.2 0 00-5.5 4.3c-1.2 1-2 2.5-3.2 3.5a18 18 0 016.2-10.4 10.5 10.5 0 018-1.6c2.6.4 4.5 1.8 5 4.3.8 3.8 2 7.7 2 11.5 0 13.4-.5 26.7-.8 40 0 1.9.2 3.7.3 5.6.2 3.8.5 4.4 4.4 4.6 5.3.3 10.6.2 16 .3l4.6.3zM302.1 1067.9c-2.8 1.9-4.6.6-6.4-.6a66 66 0 01-17-16 126.9 126.9 0 01-23.5-58.7 11 11 0 01.2-3.2c8 30.4 19.5 58.9 46.7 78.5zM323 1365.7a77.5 77.5 0 01-25.7-5 288.5 288.5 0 01-58.5-31.7 107 107 0 01-21.2-20.6l4.8 4c8.3 6.6 16.3 13.8 25 19.8 14.8 10.1 31 17.5 47.3 25a75 75 0 0021.7 5.8 62.5 62.5 0 016.7 1.6zM679 617a9.3 9.3 0 015.8 5.9 50.9 50.9 0 0012.6 20.4 7.8 7.8 0 011 1.6c3.5 5.8 8.2 9.6 15.1 10.8a73 73 0 0110 2.5c1 .3 1.7 1.5 2.5 2.3l-2.7 2a1.4 1.4 0 01-1 0c-10.8-1.8-21-4.7-27.1-15.1a48.9 48.9 0 00-5.2-6.7 26 26 0 01-5.6-9c-1.2-4-3-7.6-4.5-11.4-.4-.8-.6-1.8-1-3.3zM408.3 904.4c-.7-1.3-1.5-2.6-2-4a40.7 40.7 0 01-2.9-15.6c0-2.1.3-4.4-2.3-5.6-.5-.2-.9-1.3-1-2-3-9.2-6-18.5-8.4-27.9 5.2 6.8 6.1 15.5 10 22.8l1-.1.4-9.4c.2-3.1.1-6.6.3-10a74.3 74.3 0 011-9.7c2.2 20.3-.1 41 5.2 61zM887.4 678v51.7a87.1 87.1 0 001.4 14.9c.5 2.4 2.4 4.6 3.6 7-4 0-6.9-2.7-7.4-7.2a120.4 120.4 0 01-.9-14.1c.2-14.6.7-29.1 1.1-43.7.1-3 .3-6 2.2-8.5zM828.7 906.7c.7 3.1 2.8 3.8 5.1 4.6l13.2 4.8c4 1.4 5 1 7.2-2.7 1.4-2.2 2.6-4.4 3.8-6.6.8.3 1.2.3 1.3.5 2.3 4.6-.3 8.1-2.9 11.5-2.4 3.1-5.7 3.7-9.2 2.5-3.9-1.3-7.5-3-11.4-4.5-1.8-.6-3.5-2.1-5.7-1a1 1 0 01-.9 0c-3.5-2-7-3.9-10.4-6-1-.6-2.1-1.8-1-3 .5-.4 2-.1 2.9 0a11.5 11.5 0 012.1 1c2.7 1 2.7 1 6-1.1zM305 204.3c-7.3 27.3-45.8 57.2-74.1 56l5-1.5a107.4 107.4 0 0058.9-38c4.1-5.3 7.2-11.5 10.2-16.5zM635.6 986.8l-6-2.1a5168 5168 0 01-46.1-20.8c-2.5-1.1-5.3-2-6.7-5 .7-.2 1.2-.6 1.5-.5 14.2 6 28.5 12.1 42.6 18.4a73 73 0 0115.3 8.9l-.6 1zM730 779.8l4.2-.2c8.4-.2 16.8 0 25.2-.8 4.2-.4 8.3-2.5 12.4-3.9 1.5-.4 3.2-1.6 3.9.7.6 1.9-.8 3-2.4 3.5-5.3 1.7-10.6 4.1-16 4.6-7.6.7-15.3 0-23-.2a5.8 5.8 0 01-4.6-2.2l.2-1.5zM711 806.4a7.4 7.4 0 01-1.3 8.6 42.4 42.4 0 01-8.3 7.5c-6.4 4.1-13.2 7.7-19.8 11.5-1.6.8-3.4 2.2-5.1.4-1.1-1.2-.1-2.6 2.9-4.4 2.7-1.6 5.3-3.3 8-4.8 9-4.9 18-9.4 23.5-18.8zM595 501c-6-.3-12.2-.7-18.2-.7-4.4 0-8.8.4-13.1.7l-17.8 1c-15 1.4-30.1 1-44.8 5.2a17.3 17.3 0 012.3-1.1 86 86 0 0120.6-4.4c10.3-.6 20.6-1.2 31-2 4.5-.3 9-.8 13.5-1.3 9-1 17.7.2 26.4 2.6zM876 444c-9.8 1-19.2-1.8-28.7-3-6.8-1-13.4-3-20.2-4.5.8-3.2 2.9-3 4.6-2.7 5.4 1.3 11 1 16.5 3 4.7 1.8 10.1 1.7 15.2 2.5 3 .5 5.8 1 8.7 1.8a30.1 30.1 0 014.2 1.7zM896.6 660c-.5-2.2-1-4-1.3-6-1-8.8-1.5-17.8-4.7-26.3-1.8-4.8-3.9-9.5-5.9-14.3a16.4 16.4 0 01-1.6-6.1 18.8 18.8 0 012.3 2.3A68.6 68.6 0 01897 639c.9 5.7 1.4 11.5 2 17.2.1 1.4.5 3-2.4 3.7zM859.4 414c3.5 2.2 4.8 7.6 10.1 6.6 1.4-.3 3-.2 3.2-2.4h-5.2c.3-.5.4-1 .7-1 5.6-1.9 7-3.5 7-9.3a71.8 71.8 0 00-1-10.8c-1-5.6-1-9 .4-12.6 1.8 1 1.7 2.8 1.9 4.4l1.8 14c1.1 6.9 1.2 13.4-5.6 17.9-1.8 4-5.2 2.8-8.1 2.3-2.4-.4-5.7-5.5-5.8-8.2 0-.2.1-.3.6-.9zM248.1 714a61.5 61.5 0 01-.3-21.5c1.3-8 2-16 2.7-24.2 1-12.8 3-25.4 4.6-38.2a7.3 7.3 0 011.2-3c1 4.8-.8 9.3-1 13.9-.3 5-.8 10-1.3 15l-1.6 14.4c-.5 4.9-.7 9.7-1.3 14.5-.6 5-1.5 10-2 14.9-.5 4.6-.7 9.4-1 14.2zM673 534c3.3 1.2 2.8 3 2.9 4.4.8 21.6-2.7 40.5-9.4 50 1.8-9.2 3.7-18.1 5.3-27 1.6-9 0-18 1.2-27.4z"/>
      <path d="M888.9 660.2l8 10.3 4.8-19.5c1.2 1.8 2.1 2.4 2.3 3.3a10.1 10.1 0 010 3.7c-1 7-2.5 14-6.3 20.2a25 25 0 01-3 3.4c-1.9-2.4-1-4.2-.2-5.8 1-2 .5-3.3-.7-5-2.2-3.2-4-6.6-6-9.8zM786 692.8c-1-2.5-2-4.2-2.4-6a444 444 0 01-3.6-20.9c-.4-2.4-1.3-5.3 1.8-7a97.7 97.7 0 016 26.7c.2 2.1.7 4.4-1.8 7.1zM215.4 1241.4c-10.2-8.5-20-17.5-30.7-25.3-10.5-7.7-22-14-33.8-21.4 25.4 11 46.3 27 64.5 46.7zM936.3 845.5l14.2 1.2a17.6 17.6 0 015.5 1 11.2 11.2 0 014.1 3.5c.6.7 0 2.2 0 3.4-1-.2-2.5-.1-3.2-.8-1.6-1.6-3.5-1.8-5.6-1.8-2.5 0-5 .3-7.4-.1a17.9 17.9 0 01-6.4-2.5c-1.3-.9-2.2-2.5-1.2-3.9zM299.4 1268.4a30.9 30.9 0 01-14.8-3 179.4 179.4 0 01-33.2-18.3 47.6 47.6 0 01-16.4-20.3 11.2 11.2 0 011 1l1 1.6a54.3 54.3 0 0017.7 17.8c10 6 20.4 11.7 30.9 17 4.3 2.1 9.3 2.9 13.8 4.2zM419.8 867.5c.5-2-.5-.8-1-.5-3 2.7-4.2 2.4-5-1.6a37.2 37.2 0 01-1-7.4c0-9.8.2-19.6.4-29.5a10.8 10.8 0 011.2-4.4l2 40.9 5.2-.8-1.8 3.2zM243.4 823.4c-1.7-14.8.8-42.8 4.6-50.1a43 43 0 01.4 6.2l-2 18.7-3 25.1zM517.7 706.5a8 8 0 01-4-7.5c0-4.4.2-8.8 0-13.2 0-6-.2-12-.4-18.7.7 1.3 1.4 2.2 1.5 3.1l3.8 34.5c0 .5-.5 1-.9 1.8zM728.2 941.8c-.4 3.2-1 6.4-1.2 9.6-.2 3.8.1 4 3.8 4.4 4.9.5 9.8 1.2 15.3-1.2a5.9 5.9 0 01-4.8 4.5 30 30 0 01-14 0c-3-.7-4.2-2.2-4.1-5.3a67.2 67.2 0 01.9-9.7c.4-2.4 2-3 4.2-2.2zM835.6 819.3c.7 1.7 1.8 3.4 2 5.1.8 8.4 1 16.8-2 25-1.1 2.8-1.2 2.8-4.2 4 1-5.7 2.4-11.2 2.9-16.8s0-11.4 0-17zM320.6 1020a188 188 0 01-18.7 46.4c-1.6-3-.8-4.7.2-6.6 1.8-3.3 3.9-6.4 5.4-9.8 4-8.8 7.6-17.8 11.5-26.7l1.6-3.2zM719 714.2c-.4-5-.8-10.2-1-15.2a44.4 44.4 0 010-5.2 28.3 28.3 0 00-2.7-13.2c-1.5-3.5-2.1-7.4-3-11.2a3.1 3.1 0 011.1-2.7l1.2 3.6 3.7 11.6a39.1 39.1 0 012 8c.4 6.2.5 12.3.5 18.4 0 2-.2 4-.4 6zM791 483c-12-9.5-20.5-30.5-21.4-44.7 3 8 5.6 15.8 9.2 23.2s8 14.3 12.2 21.6zM209.2 1324.2c-2.4-1.8-4.3-2.8-5.7-4.3a114 114 0 00-32.8-21.4 32 32 0 01-5.9-3.6 150.6 150.6 0 0124.2 10.8c7.3 4 18.8 14.2 20.2 18.5zM843.7 447.5a27.9 27.9 0 015.3 0c5 .8 10.1 2 15.2 3 1.4.2 3 .5 3 2.3 0 2.1-1.7 2.4-3.4 2.4-6.4 0-12.3-2.2-18.2-4.2-.9-.3-1.5-1.3-2.2-2 0-.6.2-1 .3-1.5zM836.7 692.6a80.7 80.7 0 011 10.4c.2 7.7.4 8 7.7 10.8l4.5 2c-7.8 2.6-15.6-2.4-15.7-9.4l.3-9.9a30.2 30.2 0 01.7-4zM647 630.5a48.6 48.6 0 01-33.8 25.3c.5-1 .6-2 1.2-2.4a13.8 13.8 0 013.8-1.8c11-3.5 19.6-10.1 26.5-19.2a16.5 16.5 0 011.3-1.4 6.5 6.5 0 011-.5zM753.4 962.8c-.6 8.4-3.1 16-9.4 22.1-4 3.8-8.7 3.3-13.6 1.6a23.1 23.1 0 013.8-.6 11.8 11.8 0 0010.8-6.3 89.7 89.7 0 004.5-9.8c1-2.4 1.8-4.9 2.6-7.3zM819.9 914.6c2.2 4.8.6 11.5-3.4 14.3-2.6 1.8-5.6 2-8.6 1.6-1.9-.3-4.1.1-5.3-2.6a10 10 0 012.4-.9h5.1c3.4-.2 5.4-1.9 6.4-5.2.8-2.5 2.2-4.7 3.4-7zM819.9 914.6c-1.7 0-3.5.4-5 0l-30-7.7c-.3-.1-.6-.5-1-.8 4.9-2 22.5 2.2 36 8.5zM1125.4 467.4L1081 484l-.3-.6c5-2.5 10-5.4 15.3-7.4 8.6-3.1 17.5-5.7 26.2-8.5l3-.7zM830.7 778.8c2.4 11.4 1.2 22.8.5 34.8-2.4-1.5-2-3.3-2-4.8l.3-21.6v-8.4zM467.4 1282.3c-1.6.6-3 1-4.4 1.7-3.7 2-4.2 5.7-.9 8.3 1.7 1.2 4 1.7 6 2.2a21.4 21.4 0 004.7 0h5.2c-5.2 3.3-13.4 3-17.4-.3-2.7-2.2-3.8-6-2.6-8.8 1.4-3 5-4.2 9.4-3.2zM199.6 1279.2c-18.8-4.1-36-12.4-53-21 8.9 3.6 17.6 7.4 26.4 10.9s17.7 6.7 26.6 10zM292.7 1049.6a3.8 3.8 0 01-5-1.3 16.1 16.1 0 01-2.5-4c-2.6-6.6-5-13.4-7.4-20.1-.1-.3 0-.8.2-1.7 5.9 8.8 7.2 19.6 14.7 27zM96.4 772.1a102.9 102.9 0 0020 35.7c-8-4-19.9-24.9-20-35.6zM172.3 1028.2a29 29 0 01-3.3-2.3 69.3 69.3 0 01-15.9-28.7c6 10.5 11.1 21.6 20 30.2zM815 532.8c5 7 1.8 13.6 1.3 20.2h2.2v1c-2.8 2.3-4.5 1.8-5.2-1.5a7.3 7.3 0 01-.2-2.3l2-17.4zM558.2 895.4c2.6 13.3 2.3 26.8 2.8 40.3-2.5-13.3-2.4-26.9-2.8-40.4zM1079.7 977.3c-3.1 8.3-6.2 16.7-9.5 25-1.3 3.5-2 3.7-6.7 2.9 3.6-.8 4.3-2.9 5.2-5 2.5-6.4 5.3-12.7 8-19a41.3 41.3 0 012.5-4.4zM389.8 1277.2a11.4 11.4 0 00-13.5 6.8l7.2.4.1.7a43.3 43.3 0 01-6 1.6c-3.5.4-5-1.7-3.8-5s3.8-5 6.8-6a18 18 0 016.4-.5c1 .1 1.9 1.3 2.8 2zM529 822.9l37 17.3a133 133 0 01-37-17.3zM973 839l18.6-1.4c1.2 1.3.4 2.6-1 3.2a12 12 0 01-4.4 1c-3.1 0-6.3 0-9.4-.2a21.6 21.6 0 01-4-1l.2-1.6zM771.6 466.3l-7.4-29.6c5.8 9 6.8 19.3 8.8 29.3zM454 1019.8l12.6-32.4a88.4 88.4 0 01-12.6 32.4zM782.5 1329.7l-31.3 30.4.2.1 31.3-30.4zM550.7 1209.2l-4 1a9 9 0 00-6.5 8c-.6 4.5-.3 9 2.4 13a5.3 5.3 0 011 3.2 19.9 19.9 0 01-2.4-2.3c-3.7-5-4-10.5-2.4-16.1 1.5-5 5.2-7 12-6.8zM303.2 1017.5c-.3 4.6-1 9.3-1 14-.2 6.2 0 12.5 0 18.7h-1c-.4-7.1-.5-14.3-1-21.4a19 19 0 013-11.3zM925.3 1057.3c1.3 5.5 2 11.2 4.8 16.9l1.5-2.8v6.6c-1.3-.5-2.5-.6-2.8-1.2a31.2 31.2 0 01-3.5-19.5zM962.6 832l-2.4 3.8 7.6 5-.4.9c-.7 0-1.5.2-2 0l-9.1-4.8c-1.9-1-1.7-2.8-1-5 2.4 1.8 4.8 3 6.7-.8zM588.3 766.9c12.6 1 24.3 5.3 36.4 8.7-1-.1-1.9-.1-2.8-.3a31.6 31.6 0 01-3.2-.6l-22.2-6c-2.7-.7-5.5-1.2-8.2-1.8zM471 853a92.5 92.5 0 01-7.1 27.9l-1-.3zM461.7 1235.5c-7.6 3.3-15.8 5.6-21.7 12.4-1.2-2.1 0-3.3 1.3-4.2 6.1-4.5 12.8-7.7 20.4-8.2zM701.7 1335.8c.1-.3.2-.7.4-.9l25.5-24.8c-1 1.2-1.6 2.1-2.4 2.9l-19.8 19.9a32 32 0 01-3.8 2.8zM612.8 1082.6c.5 4 .8 7.4 1.4 10.8.7 3.3 1.8 6.4 3 10.1-3.9-1-3.7-4.1-4.4-6.3-2.3-6.3-2.2-11 0-14.6zM363.4 829.3l4.2 14.2a2 2 0 01-1 1.8 2.3 2.3 0 01-1.9-.7 4.4 4.4 0 01-.8-2.1l-1.8-13zM663.8 871a77.1 77.1 0 0022.8 22.5c-7.1-1.6-18.6-12.8-22.8-22.4zM283.3 1291c-9.3.4-17.8-2.8-26.2-5.6l-.2-1zM307.2 1075.8c-.4-3.2 2.5-4.7 3.7-7 1.3-2.4 3-4.7 4.4-7.2s2.5-4.9 4-7.2a44.8 44.8 0 01-12 21.4zM426.5 1267l-6.5.6c-2.2.2-4.4.4-6 2.3a1.8 1.8 0 01-.7.5c-1.3.4-2.7.8-3.2-.8-.1-.7.6-2 1.3-2.6a6 6 0 012.6-.9 21 21 0 0112.5.8zM456 987.1l-13.7 25-.8-.4c4.3-8.5 8.5-17 13.6-25zM579.6 1233.5a60.7 60.7 0 00-6.3 1c-2.5.7-3.1 1.9-1.8 4.1s3.2 4.2 4.6 6.4c-3.1-1.3-6-3.2-7.2-6.8-1-2.9 0-5 3-5.5a11.2 11.2 0 017.7.8zM739.1 1344.8a86.2 86.2 0 01-18.1 21.8q9-11 18.1-21.8zM378.7 1204.2l-31.9-10.5.1-.6a24.1 24.1 0 012.6.6c8.4 2.8 16.9 5.5 25.3 8.4a21.6 21.6 0 013.8 2.2zM288.9 883.1L301 865c0 4-6.7 14.5-12.1 18.2zM967.8 851.3c-3.3-2-6.6-3.8-9.8-6-.6-.3-.6-1.7-.9-2.6.8 0 1.9-.3 2.5 0q4.1 2.6 8 5.5c.5.5.6 1.6 1 2.4zM441.7 865.7l-3.2 19.6c-2.6-4-1.4-11 3.2-19.6zM907.5 1020.1l1.8-.2c3.6-.4 4.6-1.3 4.8-4.9.2-3 0-6.2 0-10 1.9 3.5 2.1 11.2.8 13.8-1.4 2.7-3.4 3.3-7.4 1.3zM721.3 920.7l16.6 20.4a49.6 49.6 0 01-16.6-20.4zM972.7 520.8l28-8c-7.4 4-24.1 8.6-28 8zM1107.3 769.4a49.7 49.7 0 013.6-26.5zM433.9 878.6l7-24.8a82.5 82.5 0 01-7 24.9zM541.4 1270c-8.7 1.7-15.4-4.9-15.3-14 2.1 7.8 5.8 13.3 15.3 14zM1006.4 796.7c2 1.2 4.3 2.4 6.3 3.8a2.6 2.6 0 01.9 2c0 .3-1 1.1-1.2 1a27.4 27.4 0 01-6.2-2.7c-1.6-1.2-.5-2.8.2-4.2zM406 1298.6c-4 2.5-7.3 5.5-6.4 11 .5 3.2 2.1 5.3 5.9 6-4.5.2-6.1-1.2-7-5.6-1.3-5.9.7-9 7.5-11.4zM871.4 566.3c4 8.1.6 16.6 1.7 22.1l-1.7-22.1zM282.4 968.7l12.2 16-.9.8a117.7 117.7 0 01-12-16.1zM848 406.2c.3 2.6.7 4.7.8 6.8a1.6 1.6 0 01-2.4 1.7c-2-1.3-1.8-3.4-1.7-5.4.1-1.8.6-3.3 3.3-3.1zM183.9 828.5l3.3 15.1-1.1.3c-3.3-4.5-2.1-10.1-3.4-15.2zM853 804.7c-2 6-6.6 8.7-12.7 7.6a76.2 76.2 0 007.1-3.3 59 59 0 005.6-4.3zM979 854.3c-3.6 1.7-7.2 2.1-10.8 0a12.8 12.8 0 0110.8 0zM261.1 1072.2l16.1 12.3a45.2 45.2 0 01-16-12.3zM488.3 1244.6c-2.2-2-1.7-3.7-.4-5.4 2.4-3 7.4-4.2 11.9-3.1a68.5 68.5 0 00-7.7 2c-2.7 1-5 2.7-3.8 6.5zM345.7 762.7l6.6 11.3c-3.5.3-5.6-2.9-6.6-11.3zM302.1 1206.4c-7.4-2.7-15-3.6-22.9-3.6 7.7-1.3 15 0 22 2.5.4.2.6.7.9 1.1zM262.7 890.5c-.7-5 1.2-9.4 4.1-13.3zM776.4 621.7a16.7 16.7 0 01-12.2-2.5l12.1 1.4zM117.8 793.7c-3.4-6.3-2.7-12.3-2.8-19l2.8 19zM138.9 1061.8a31.2 31.2 0 01-11.4-11.6zM773 350.3l-4.4 8.6c-1.4-4.3-.3-6.8 4.3-8.6zM566 1184.3l-4.4 7.8c-2-3.7-.7-6 4.4-7.8z"/>
      <path d="M378.6 1204.3a25.5 25.5 0 014.5.7 44.8 44.8 0 0110.4 4.6l-14.8-5.4zM342.4 948.9c-1.4-3.8.2-7 2.2-10.2l-2.2 10.2zM928.4 1127.3c-2.8-3.1-3-5.4-1.4-10.7a48 48 0 000 5.2 52 52 0 001.4 5.5zM1010.2 818.5c.8-3.3 1.8-6.5.1-9.9-.3-.6.4-1.6.7-2.7 2.1 3.3 1.6 9.2-1 12.5zM528 1384.3h-15c5.5-1.9 10.3-2 15 0zM392.8 880.5l-3.4-8.8.8-.3 3.4 9zM769.2 367c4.8.7 4.8.7 4.3 5zM335 842.5l-.6-10h.6l.6 10zM853.2 411.4h6.2c-2.6 2.7-4.4 2.3-6.3 1.4zM760.8 1316.8l5.1-6.1.7.6-6 5.4zM881.8 418.8c-.2 2-.9 3.8-4.5 3.5l3.6-4.1zM822 814.2c-3.4.5-5.8.6-7.5-2.1zM350.4 850l-3-6.5.5-.2 3.2 6.5zM709.2 1378.7l4.2-4.5v-.2l-4.4 4.5zM351.6 1322.6l-.4 5.7c-1.5-2-1.5-3.7.4-5.7zM658.6 1317.5l3.8-3.6.4.4-3.9 3.6a7 7 0 01-.3-.4zM419.8 867.4c.7 3.7.4 7.3-1.9 10.4l2-10.4zM734.4 1301.8l-4.3 6-.9-.8 5.3-5zM701.6 1335.7l-5.1 5.2-.6-.7c2-1.5 3.2-3.8 5.8-4.4zM470.4 795l2.3 4.5-.5.4-2.4-4.5zM703.8 453.8h5v.2h-5zM929.4 892l-3.3 3-.1-.1 3-3.3zM965 798l-3.9 1.8c.5-2.7 2.2-2.4 3.9-1.8zM465 784.8l2.6 5.6c-2.2-2.3-2.2-2.3-2.6-5.7zM877 720.1v4.5-4.5zM744 1290.6l-4.9 5.4h.1l5-5.3z"/>
      <path d="M739 1296l-4.6 5.8.1.2 4.7-5.9zM791.8 1319.4l-2.4 2.8-.4-.3c.8-1 1.7-1.8 2.6-2.7zM760.4 1268.5l-2 3.1-.5-.3 2-3.2zM194 1199.9l-3.2-.7.1-.6 3 .4zM931.7 888.5l1.9-2.3.4.4-1.8 2.3zM944.9 968.5l-1.1 2.3-.7-.2.9-2.5zM247.5 863.8l-.9-3.3.5-.1 1 3.2zM877.9 711.2v-3.6h.2l-.2 3.6zM841.2 1227.5v2.5-2.6zM231 1006.3l-1.8-2.3.5-.4 1.8 2.3zM455 521.5l3.7-2.3.3.6-4 1.7zM239.4 1013.8l2.2 1.8-.4.4-2.2-1.8zM760.7 1316.7l-2.3 4.2-.8-.7 3.2-3.4zM302 1206.4l6-.6v.6h-6zM666.4 1361.4l-2 .7v-.4l1.8-.7zM772.8 1374.5l-2.1 1-.3-.6 2.2-1zM455 521.5l-4.7.8v-.5l4.7-.3zM240.7 865.6l.6-2.7h.8a5.2 5.2 0 01.2 1.7c-.1.5-.6 1-1 1.3zM488.5 512.5l-2.4.9-.1-.5 2.3-.9zM223.9 878l-.8-2.5.4-.1 1 2.4zM751.4 1329l1.6-2.7.6.5-2.3 2zM494 510l1.8-1 .3.6-1.9.9zM751.3 1328.8l-1.4 3.2-.8-.5 2.3-2.5zM303.2 1017.5l-.2-4.2h.4l-.2 4.2zM750.5 1282.2l-1.8 2.7-.6-.6 2.5-2zM690.6 1345.3l2-2.7.5.5-2.6 2.1zM750.6 1282.3l1.4-3.1.7.4-2.2 2.6z"/>
      <path d="M686.8 1348l3.8-2.7v-.1l-4 2.7z"/>
      <path d="M686.6 1348l-2.4 2.1-.4-.7 3-1.4zM309 800.6v2.2l-.2-2.2zM511.5 1217.6h1.7v.2h-1.7zM251.1 874.3l-.6-1.9.4-.1.8 1.8zM418 877.8l.4 4.4h-.4v-4.3zM744 1290.8l1.4-3.2.8.5-2.2 2.5z"/>
      <path d="M618 733l-6.7-1c3.8-3.7 6.8-7 10.1-9.6a62.7 62.7 0 0015.5-19.8c2.2-3.9 3.1-8.5 4.4-12.8a6.7 6.7 0 012.2-3.8 27.5 27.5 0 004.8-5.7c1.3-2 2.4-4 3.8-6.6.2.7.4 1 .3 1.3-2.7 10.4-5.1 21-9.7 30.8a36 36 0 01-9.3 12.7c-5.1 4.3-9.8 9.2-15.3 14.4zM931.8 331.4l-14.3-2 4.1-17.5 7.3-1.4a15.9 15.9 0 00-2.2-1.5c-1.6-.6-4.4-.7-4.7-1.7-.7-2.1-2.8-3.2-3.2-5.3a21.1 21.1 0 00-1.7-4c-.5-1.2-1.5-2.3-2.8-1.5a3.8 3.8 0 00-1.5 3 36.9 36.9 0 001.6 6.1l-21-5.4.5-4.6a15.3 15.3 0 00.3-3.2c0-.8-.8-2.2-1.2-2.2-1 .1-2.3.7-2.5 1.4a31.7 31.7 0 00-1.7 6.3c-.4 2-1.4 2.6-3.7 1.8l1.3-5-.5-.3-3.3 5c-4.6-.7-9.2-1.8-13.8-2.2-4.4-.3-9-2-13.8 1.5a22.5 22.5 0 010-4l2.2-8.6c.3-1.3.3-2.8-1.3-3-.8 0-2.1 1.2-2.5 2-1 2.4-1.5 4.8-2.3 7.2l-1.3 4.3c-9.2-1.8-17.1-6.4-25.7-9.3l-1.5-8c-4.1 1-1.7 4.6-3.2 6.3a30 30 0 01-15.3-5.9c0-3.2 3-6.2 1.3-10-4.7.5-3.9 5.5-6.7 8.1l-11-2.8.6-4.7c-2.5-1-3.4 1.3-5.5 2l-5.3-1.7c1.8-4.8 3.3-9.4 5.3-13.8 4.2-9.4 8.8-18.6 12.8-28.2 1.8-4.5 2.6-9.6 3.6-14.5 1.6-6.9 4.9-9 11.7-7.8a26 26 0 005.5 0 14.6 14.6 0 012.7-.2l27.3 4.3 24.9 4.5 38.8 6.8a61.3 61.3 0 0011.7.9c9.3-.3 16.7 4.4 24.4 8.7 2.1 1.3 1.6 3.2 1.5 5-.5 9.3-1.4 18.5-1.4 27.7 0 9.9-2.5 19.2-4.6 28.6a51.5 51.5 0 00-1.2 9.8c0 1.8.8 3.7 1.4 6-1.5.6-2.6-.1-3.5-1.9a32.7 32.7 0 00-3-4.8 2.2 2.2 0 00-2-.4 2.5 2.5 0 00-.7 2 9.3 9.3 0 00.6 2.1 38.1 38.1 0 01-1.5 26z" class="cls-1"/>
      <path d="M850 319.4c.6-.8 1-1.5 1.8-2.4l9 2c2.1.3 4.3.2 6.5.4 1.5.1 3 .6 4.6.6 2.5 0 3 3 5.3 3.4l6.2 1.2c1.1 2.7 0 5.5 3.2 7.2l2.7-5.2c4.1 1.2 8.5 2.4 12.6 4a39.5 39.5 0 0017.1 2.2c3.5-.3 7 .5 10.9.8v5.7l4.7-2.3c1.4 4-.2 7.9-.6 12.3 3.8-4.4 2-9.5 3.2-13.8 6.1-.2 10 4 14.6 6.7a33.4 33.4 0 0022 4.7c3.2-.4 6.2-2 9.3-3l20.7-7.3.5.8c-3.2 3.8-6.3 7.9-9.8 11.4a106.6 106.6 0 01-13.3 11.9 36.5 36.5 0 01-11.4 5 73.8 73.8 0 01-26.5 3c-5.4-.4-10.8-1.5-16.3-2a81 81 0 00-22-.3 30.6 30.6 0 01-11.6-.6 431.3 431.3 0 01-45.9-13.4 158 158 0 01-45.9-27.9 135.7 135.7 0 00-12.6-9c-9.4-6.1-19-12-28.4-18.2a38 38 0 01-4-3.5c3.8 0 6.7.2 9.6-.1 2-.2 4 1.1 5.9-1.1 1-1.3 3.7.3 4.7 2.3l1.2 2.5c.1.2.6.3 1.1.5l3.5-3 14.8 6.3c2.3 1 4.5 3 7.4 1 .4-.4 1.4 0 2.1.4a37.4 37.4 0 014.5 2.4 29 29 0 0015 5c3.5.2 7 1.8 10.4 2.8 2.4.7 4.7 1.6 7.2 2.1s5 1 5.1 4.8zm-12.7 16.4l.5-.8-14.6-8.1-.5.8z" class="cls-1"/>
      <path d="M892.4 305.5c8.1.3 15 3.5 22.3 5.3 1.4 6.2-1 11.7-2.7 17.8-7.7-1.1-14.6-4.7-22.5-6.4l3-16.7zM854.2 302.2h6.3l-1.1-3.4 21.7 4.8-4.4 13.6-24-4.8a17 17 0 011.5-10.2zM848.8 301.3l-1.3 9.3c-7.6-.2-14-4.3-21.3-4.6l-2.9-14.5zM800 298.4l2.3-13.3 16.9 5.7 2.5 14.2-4.7-2.4c-3.5-1.8-7-3.4-10.4-5.3-2-1.1-4-1.4-6.6 1.1zM796 295.6l-14.4-4c-.5-5.2 1.6-9.6 4.1-14.3l12 4.4-1.6 13.9zM887.4 305.2l-3 15.3-5.4-1.8a55.4 55.4 0 013.8-13c.4-1.3.7-1.2 4.6-.5zM939.5 309.6c2.3-.6 3.7-.3 3.9 1.9a35 35 0 01-4.3 20.1c0 .2-.5.2-1.2.3-1.2-2.5 1-4.6 1-6.9l.6-7.8v-7.6zM776 290.9l-4-1.3c.5-5.6 2.9-10.4 4.6-15.9l4.1 1.5-4.8 15.7zM832.8 539.4c.7 2.1 2.7 3.8 1.6 6.4-2.6-2.4-2.6-2.5-1.5-6.4zM914.7 938.8h-7.2c0-6.7-2.8-13.1-2-20a6.3 6.3 0 00-1.8-4.2 77 77 0 00-6.7-6.5 41.9 41.9 0 01-12.2-20.8L880 870a312.4 312.4 0 0128.5-16.4c.4.4.8.6.7.8-.8 5.7 0 11.2.9 16.8a42.5 42.5 0 01.3 8.5 106.4 106.4 0 003 28.8 82.1 82.1 0 012.4 14.8c.2 5-.6 10-1 15.5zM741.9 587c-2.7 3.5-1.4 7-.2 10.7 2 5.9 4 11.8 5.4 18 .8 3.7.6 7.7.7 11.6l.7 44.2c0 6.9.3 13.8.2 20.7a10 10 0 01-7.5 9.6c-3.8 1-6.1-.4-6.7-4.3a85.9 85.9 0 01-1-11.2v-30c0-8.2-.9-16.5.2-24.5a89.6 89.6 0 00-1.3-28.4c-1.2-6.5-4.8-12.5-7.4-18.7-.4-1.1-1.5-2.2-1.5-3.3 0-4.4-2.5-7.6-4.6-11a58.5 58.5 0 00-5-6.9c-2.8-3.3-4-7.4-5.2-11.4l-2.9-9c-1.8-5.1-.5-8 4.7-9.8a51.6 51.6 0 0118.4-3c4 0 5 .4 5.7 4.1 1.5 7.6 3.8 15.1 2.4 23.2-1.4 7.4 0 15 1.3 22.4.3 2.4 2.3 4.6 3.6 7zm2.5 106.8c-.2-2.4-1.9-4.3-3.3-4-1.7.3-2.1 1.6-2 3.1a2.5 2.5 0 003.3 2.4c.9-.2 1.5-1.1 2-1.5z" class="cls-1"/>
      <path d="M837.3 335.8l-14.6-8.1.5-.8 14.6 8.1-.5.8zM744.4 693.8c-.5.4-1.1 1.3-2 1.5a2.5 2.5 0 01-3.2-2.4c-.2-1.5.2-2.8 2-3.1 1.3-.3 3 1.6 3.2 4z"/>
    </g>
  </g>
</svg>
