<svg xmlns="http://www.w3.org/2000/svg" viewBox="0 0 1200 1562.9">
  <defs/>
  <defs>
    <style>
      .cls-1{fill:#fff}
    </style>
  </defs>
  <g id="Layer_2" data-name="Layer 2">
    <g id="Layer_1-2" data-name="Layer 1">
      <path d="M0 1551.5v-334.7a18.3 18.3 0 003-1.5c6-4.2 11.7-8.6 17.6-12.8 13.6-9.5 26.9-19.5 41-28.2 18.2-11.2 37-21.6 55.7-32 31.8-17.8 64.7-33.2 97.7-48.6a946.7 946.7 0 0192.8-37c14.3-4.9 28.8-9.4 43.2-14 11.3-3.5 10-4.2 20 4.8 12.8 11.4 23 25.2 32.8 39.2a381 381 0 0127.8 47.5c3.5 7.2 7.6 14.2 11.4 21.3.9 1.5 1.5 3.2 2.3 4.8l9.9 21c.5 1 1.9 1.4 2.9 2.2.7-1.2 1.8-2.2 2.2-3.4.6-2 .2-4.3 1-6.1 2.8-6.6 3.8-13.6 5.4-20.5 2.6-11.3 5.8-22.4 8.8-33.6l16.6-61.1c5.7-21 11.6-42 17-63 1.3-4.8 3.6-7.4 8.2-9 10.6-3.9 21-8 31.6-12.2 21.4-8.3 42.9-16.6 64.2-25.2 20.6-8.3 41.1-16.8 61.7-25.3l18.2-7.8c3.1-1.4 6.1-1.8 8.8 1a27.5 27.5 0 003 2.4c14 11 28.2 22 42.1 33.3 18.3 14.7 36.4 29.7 54.8 44.4a11.7 11.7 0 014.6 10 778.7 778.7 0 004 81.1q2.7 27.4 7.1 54.6c4 24.8 9 49.5 15.5 73.8 1.8 6.8 4 13.6 6.3 20.3.7 2.2 1.9 4.9 3.7 6 4.2 2.6 8.6 5.3 13.4 6.4 14 3.4 28.3 4.5 42.6 5 18.2.4 36.4.3 54.7 0 25.3-.4 50.5-2.3 75.1-9 7.1-1.9 14-4.8 21-7.4 1.8-.7 3.4-2 3.3-4.3s-2-3.3-3.9-3.8a107.4 107.4 0 00-10.8-2.7 124.5 124.5 0 01-29.6-8.7c-12.2-5.6-24.6-11.2-36.7-17.2a549 549 0 01-67.3-38.9 141 141 0 01-35.4-34.6c-14-19.7-21.7-42-27-65.2-2.6-11.2-4.5-22.4-6.7-33.7-.6-2.8-1.7-5.7-1.7-8.5.3-10.1-2-20.2-.4-30.4.5-3-.8-5.2-3.1-7-4.4-3.6-8.5-7.5-12.8-11l-43-34.3-41.8-32.9-3.6-3.3a15.8 15.8 0 012.5-2.2l6.7-2.9 54-23.4 92.7-39.7a955.8 955.8 0 0182.5-31.6 665 665 0 0167.2-18 396.4 396.4 0 0172-8.1c29-.7 58-.5 87 2.6a49.9 49.9 0 005.3 0c.6-3 1-5.8-.4-8.9-8.6-.6-17-1.7-25.6-1.8-22.2-.4-44.4-.7-66.7-.4a358.8 358.8 0 00-54.3 5.4A567.2 567.2 0 00952 799.5c-22.4 8.1-44.5 17.1-66.5 26.3Q838 845.5 791 866.3c-6 2.6-11.3 2.9-16.8-.5l-1.7-.9a321.5 321.5 0 00-64.5-24.7c-15.3-4.2-30.6-8.8-46-13-4-1-6-3.3-6.3-7.4l-.7-12c-.4-12 0-24 3.6-35.5 2.6-8 5.4-15.8 8.1-23.7a331.8 331.8 0 0018.5-93.6c.2-2.3 1-3.8 3.5-3.4 7.8 1 15.4-.2 23-1.6a71.1 71.1 0 0024-9.4c1.4-.8 2.3-2.3 3.5-3.3 1.6-1.3 3.2-2.9 5-3.5 4.5-1.7 9.2-3 13.9-4.3 11-3.3 22-6.3 32.8-10 11.5-4 22.7-9 34.2-13.2a27.3 27.3 0 018.9-2c6.3 0 12.5-.3 18.5-2.7a7.7 7.7 0 017.3.8 33.7 33.7 0 007 3c10.7 3.6 21.5 7 32.2 10.4a21.1 21.1 0 018.3 4.8 49.7 49.7 0 007.6 5.9c4.7 2.8 9.5 5.6 15.4 4.1a3.5 3.5 0 013 1c2.6 3.7 6 2.5 9.1 1.5 2.4-.8 4.7-2 7.6-3.2l1.5 6.2c.6 2.5 1.3 4.7 4.1 5.5a2.6 2.6 0 011.5 1.1c1.4 2.5 3.8 2.8 6.2 3 4.8.4 9.6 1 14.4 1.3a10.9 10.9 0 004.2-.6c6.5-2.3 13.2-4.4 19.5-7 10-4.4 19.9-9.3 29.8-13.8 4-1.8 4.7-5.1 4.2-8.9a13.4 13.4 0 00-1.5-4.5c-2.4-4.4-5.1-8.6-7.3-13a16.6 16.6 0 01-1.7-7 47 47 0 00-9-30.3c-2.3-2.8-4.3-3.5-7.3-3l-5.2 1.1-4.1.5c.2-3.3.2-3.4 2-4a229 229 0 0112.7-3.2c17.6-3.8 35.2-7.9 53-11 21.7-4 43.5-7.6 65.3-10.6a528.9 528.9 0 0162.7-4.6c1.4 0 2.8-.3 4.7-.5l-.5-7.5h-5.4a694.8 694.8 0 00-79.4 7q-37.8 5.6-75.1 13.9l-35.3 8a62.5 62.5 0 01-6.6.8c0-1.3-.3-2-.1-2.6 1.5-3.7.1-6.8-2-9.8l-1.7-3c-2.7-3.9-3.4-4-8-2.4-3.6 1.4-7.2 2.9-11 3.9-7.7 2-15.6 3.6-23.4 5.8-6.7 1.8-13.6 3.8-14.6 12.5-.3 2-1.7 3-3.9 2.7l-3.3-.5a173.7 173.7 0 01-33.9-9.7 49 49 0 00-18.6-4.5c-1.7 0-3.3-1-4.9-1.8l-17-8.1a20.3 20.3 0 01-4.4-2.7c-7-6.2-14.4-7.2-22-1.5a57.2 57.2 0 01-16.5 8.6c-1.8.6-3.6 1.4-5.3 2.2-15.7 7-31.8 12.5-48.8 15.1-4.5.7-7-.5-10-3.8a56.8 56.8 0 00-28-18.8c-7-1.8-14-1.9-21.1-1.7a22.3 22.3 0 01-3.6-.6l6-13.6c6.6-13.8 13.2-27.6 20-41.3a31 31 0 016.6-9.3c-2.6 6.3-5.6 12.3-8.4 18.4l-15.8 34.8a9.8 9.8 0 00-.3 2.8 9 9 0 003.5-3.5c12.9-23.8 26-47.5 38.6-71.4 9.6-18.3 18.6-36.8 28.1-55.1 9.8-18.7 19.9-37.2 29.9-55.8 2.8-5.3 5.8-10.6 8.8-15.8a3.7 3.7 0 01.3 3.2l-16.9 42.6-9.4 25.4c-.4 1.3-1.2 2.7 1.1 4.1a61.7 61.7 0 004.1-5.6 115.7 115.7 0 006.3-12q13.3-31.3 26.3-62.8c4.3-10.5 8.2-21.3 12.3-32 1.8-4.3 2-4.3 6.8-4.6 6.3-.3 12.5-.8 18.8-1.2h3.5c-.5 4.1 1.8 6.7 4.4 8.9 7.4 6.1 14.7 12.6 22.5 18.2 21.1 15 44.5 19.6 69.3 12.3a154 154 0 0061.7-35.9c10.6-10 19.6-21 22.6-35.7.7-3.3 1.5-3.5 4.8-3.4 6.4.4 12.9.9 19.3.9a106.5 106.5 0 0038.7-7.2c4.5-1.8 8.9-3.9 13.3-5.9 3.8-1.7 4.8-1.5 7.7 1.3l5.5 5.4 61 60a28.7 28.7 0 003.3 2.2v-6c.5-4.7-1.3-8.1-4.7-11.5-18.2-18-36.2-36.2-54.3-54.4l-4.1-4.5a6.6 6.6 0 01.8-1.6c1.8-1.8 3.7-3.6 5.6-5.2a96.8 96.8 0 0025.2-34.5c5-11.2 6.7-23 7.4-35.2a66 66 0 00-18.7-51.1c-16-17-36.2-26-59.2-28.9-16.5-2-33.1-.5-49.7-.3a20.2 20.2 0 00-3.4.5c-1.4.3-3 .8-2.7 2.6.2 1 1.5 1.8 2.6 2.4a5.7 5.7 0 002.8.5q9-.1 17.8-.4c2.4 0 4.9-.7 7.2-.5 16.3 1.4 32.2 4 47.3 11.1 11.5 5.5 22 12 30.6 21.5a61 61 0 0116.8 43.6c-.1 4.5-.8 9-1.3 13.4a75.6 75.6 0 01-17.2 39.8 92 92 0 01-50.3 30.5 200.9 200.9 0 01-44.1 4.8c-3.5 0-7 .6-10.4-2.6l-5 13.7a71.6 71.6 0 01-20 29.8 160.5 160.5 0 01-45.1 28.3 75.8 75.8 0 01-42.1 5.4 80.3 80.3 0 01-30.9-12c-7.2-4.5-14.2-9.4-21.2-14.3-10.1-7-20.9-12-33.7-10.5a33.8 33.8 0 01-6.3 0 33.2 33.2 0 01-5.2-.8l-14.1-3.3a111.8 111.8 0 01-29.5-10.5 54.2 54.2 0 01-29.6-53c0-2 .2-3.9.3-5.8a63.1 63.1 0 0116.6-40.3 90.6 90.6 0 0143.2-27.1c14.4-4.5 29.2-5 44-4.4 4.3.2 8.7.7 13 1.1a56.5 56.5 0 0130.1 12c1.3 1 2.8 2.4 4.1.7.6-.7 0-2.6-.3-4 0-.4-.5-.8-.7-1.2a27 27 0 00-16.7-12.3c-6.3-1.9-12.9-3-19.3-4.4-1.6-.4-3.7.2-4.6-2.5 4-5.7 8-11.7 12.3-17.5 6-8 11.8-16.1 18.5-23.5A164.5 164.5 0 01953.7 36a81.8 81.8 0 0145.1-7.9 38 38 0 0126.9 14.5c3.5 4.6 6 9.8 9 14.8 1.1 2 2 4.4 4.7 5 2-4 2.2-6.4 1.3-10.4a41.8 41.8 0 00-33.7-32.7 70.8 70.8 0 00-30.7.7c-7.9 2-15.6 5-23.3 7.8-2.8 1-4.8 1-7-1.2-2.7-3-5.6-5.7-8.5-8.5s-5.8-5.6-9-8.2c-2.2-2-3.2-1.5-4.6 1.3a5.9 5.9 0 01-2 2.8c-2.3 1-3 2.8-3.5 4.9-2.8 11-5.7 21.8-8.3 32.8a19.4 19.4 0 01-5.2 9c-5.6 5.8-11.5 11.4-16.3 17.8-8.5 11.1-16.3 22.7-24.2 34.3-1.7 2.5-3.6 4-6.7 4h-4.3a103.8 103.8 0 00-36.9 6.6 102 102 0 00-52 40.4 74.9 74.9 0 00-10.4 23.7c-1.8 7.5-1.8 15-2 22.6a54.3 54.3 0 0026 48c4.8 3.3 10.4 5.6 15.6 8.4l2.7 1.6c-2.2 5.4-91.8 130.5-95.4 133.2a28.4 28.4 0 01-2-2.6c-5.8-10.4-11.4-21-17.7-31-10.6-17-21.7-33.6-32.6-50.3-19.6-30.3-39-60.7-58.8-91-16.2-24.6-32.7-49-49.2-73.5-2.1-3.2-4.4-6.3-6.8-9.3-2.5-3.3-6-4.4-9.9-4.7a49.1 49.1 0 01-1.7 6.5c-2.7 6.4-5.7 12.6-8.4 19-8.6 20.6-17.4 41-25.5 61.6-7.1 18-13.3 36.3-19.8 54.4l-26.1 71.7a23.7 23.7 0 01-2.4 4L425.2 334c-1.1-1.7-.8-3.4.2-5a56 56 0 006.2-18.6A88.6 88.6 0 00428 263c-7.1-20-20.3-34-40.3-41.5a134 134 0 00-50.9-7.5 60.3 60.3 0 00-37.6 14.4l-7 5.9-.4-4.3c-.4-3.3-2-5.8-5.3-6.8a17.6 17.6 0 00-5.2-1 61 61 0 00-48.1 22.7 101 101 0 00-15 23c-8.3 17.2-15.4 34.8-14.7 54.5a3.8 3.8 0 01-2.6 4.1l-2.7 1c-13.1 5.2-23 14-27.2 27.6a64.1 64.1 0 007.8 58.6 48 48 0 0056.4 19.8 114.7 114.7 0 0038.2-20.2c4.2-3.3 7.6-7.4 11.2-11.3a7 7 0 002-6.7c-2 1.6-3.8 2.8-5.3 4.2a121.6 121.6 0 01-47.3 27.1 40.2 40.2 0 01-38.8-7.2 58.4 58.4 0 01-18.4-26.7 59 59 0 01-1-31.5 34 34 0 0122.8-26.6 44.3 44.3 0 0119.5-2.3c2.7.3 5.4.8 8.1 1 1.5.1 3 0 3.5-1.8a3.3 3.3 0 00-1.7-4.1 24.3 24.3 0 00-5-1.9 48.5 48.5 0 00-6.6-1c-4.6-.3-4.7-.5-4.8-5.2a83.2 83.2 0 014-24.7c4.6-15.4 11-30 20.8-42.8a51.5 51.5 0 0142.2-20.7 13.3 13.3 0 015.5 1.2 56.8 56.8 0 016.4 4c-6 9.1-13 18-13.4 30a14.6 14.6 0 003-3.7c4.5-7.4 9-14.8 14.8-21.4a47.3 47.3 0 0128.3-16.4A116.2 116.2 0 01383 231a56.5 56.5 0 0124.6 17.3c14.8 18.3 18.6 39.6 16 62.4a111.3 111.3 0 01-2.8 13.7c-.2 1-1.3 1.8-2 2.7-2.8-2-1.3-6.2-5.6-6.8a35.2 35.2 0 00-1.7 4.6 54 54 0 00-1.2 7.2 55.3 55.3 0 01-16.7 34 95.6 95.6 0 01-55.2 27.5 127.2 127.2 0 01-42.8.3 7.3 7.3 0 00-2-.1c-1.4 0-3.3 0-3.3 1.8a4.7 4.7 0 001.9 3.6 27.3 27.3 0 007 3 88 88 0 0029.3 1.7h7.2l-3.4 6.1c-8.6 14.4-17.3 28.6-25.8 43.1a1307 1307 0 00-41 73.9c-14 28-28.3 56-42.5 84-.8 1.6-1.3 3.6-4 4.7-.4-2-1-3.9-1.2-5.7l-6.4-37.6-7-44c-2.3-13-4.7-26.2-7.4-39.3a39 39 0 00-6.6-15c-1.3 1.3-2.5 2.2-3.3 3.5a33.7 33.7 0 00-2.3 5.8L169 530.6c-.8 2.4-2 4.7-3.2 7.6-1.7-1.4-2.9-2.4-4-3.5s-2.1-2.4-3.4-3.5c-2.2-1.8-3.9-1.8-5.8.3a26 26 0 00-3.6 5.2c-5.2 9.8-10.4 19.6-15.4 29.5-14.2 28.4-29.7 56-45.7 83.4-.8 1.4-1.8 2.5-3.4 4.7a277 277 0 00-28.5-36.6c-10.4-11.4-19.7-23.7-30.5-34-5.1.9-7.4 3.7-8.9 7.5Q10.2 608 3.5 624.5c-1 2.5-2.3 4.8-3.5 7.2V0h1200v1562.9H0v-3.7l4-1.6c22.4-11.3 44.7-22.8 67.4-33.7 25-12.2 50.4-23.5 76.4-33.5a901 901 0 01114.5-34.7q34-7.7 68.1-14.3c17.1-3.3 34.3-6 51.5-8.6 39.9-5.9 79.7-11.8 119.6-17.2 24.4-3.4 49-5.7 73.5-8.5a2320 2320 0 01135.8-11.1c42-2.3 84-4 126-4.2 53.4-.2 106.8-1.2 160 1.8 24.9 1.4 49.7 2.4 74.4 4.6 41.4 3.7 82.7 8.2 124 12.3h4v-9l-5.5-.9c-23.7-2.5-47.4-5.2-71.2-7.3-29.3-2.7-58.7-5.1-88.1-7.1-34.3-2.3-68.6-3.4-103-3.5-56.3-.2-112.7-.1-169 2.3-45.6 1.9-91.2 4.3-136.6 8.6-22 2.2-44 4.1-65.9 6.6a4593.2 4593.2 0 00-144.6 19c-37.4 6-74.9 11.5-112 19.5-21.5 4.7-43 9.3-64.4 14.8a858.8 858.8 0 00-160 59.2c-20.9 9.8-41.3 20.3-62 30.5L0 1551.5zM309.2 80.6c-10 .5-17 5.2-21.8 13.5a32 32 0 00-4.3 19.9c.1 1.6.4 3.4 2.4 3.7 2.2.3 3.2-1.3 3.8-3 .5-1.5.5-3.2 1-4.7 1.2-4.5 2.3-9 4-13.4A8.6 8.6 0 01302 91c4.5-.4 9-.3 13.3 1.5a79 79 0 018.4 3.6c4.1 2.3 10-1.5 10.6-5.3l.8-5.3c1.3-6.4 4.7-9.4 11.1-10.2 7.3-1 13.7 1.4 19.6 5.4a28 28 0 003.6 2.4c2.5 1.2 4.8.2 6.5-2.4 1.4-2.4 1.3-4.8-1-6.4a58.1 58.1 0 00-9-5.7c-12-5.8-30.2-4.3-38.1 13.4-1.4 3.1-1.7 3-5.2 2l-13.4-3.4zM138.4 94.3c-3.7.4-8.4.6-13 1.5-14 2.6-24.3 14.3-23.1 28.1.3 4.3 0 4.4-4 5.1l-2.4.4c-8.8 1.2-15.2 6-19 13.9a133.3 133.3 0 00-5.4 14.4c-.6 2-1.7 4.4 1 5.5s3.6-1.4 4.5-3.2c2-4.2 4-8.4 5.7-12.8 2-5.2 5.8-8 11.2-8.5 3.1-.4 6.4-.5 9.6-.6 7-.3 10.3-4.7 8.8-11.5a40.2 40.2 0 01-1-8.6c0-6.4 2.9-10.5 9-12a45 45 0 0126.5-.4c3 1 7.2-1.8 8-5.2.6-2.8-.9-4.7-4.8-5.2-3.6-.6-7.1-.6-11.6-.9zm-77 241.4l2.3.1c7.6.4 10.7-4 8.2-11.4a19.2 19.2 0 01-.8-7.5c.4-4 2.5-5.6 6.6-5.4a14.4 14.4 0 019.1 3.8c2.3 2 5 1.6 7-.9s2-5.5-.1-7.3A18.7 18.7 0 0082 302c-10.8-.4-19.2 7.4-20 18.6-.3 5.3-.3 5.5-5.4 6-7.1.7-12.3 4.5-16.5 10a20.8 20.8 0 00-4.5 15.7c.3 2 .8 4 3.1 4.4 1.8.3 3.3-1.4 3.9-4.3l.7-4.7c1.4-8.4 5.2-11.8 13.6-12h4.6zm571 1212.6c.2-1.7 0-2.7.4-3.2 2.6-3 .6-5.2-1.1-7.5l-4-5.4c-3.7-5-7.5-10-11-15.3-1.6-2.4-2.6-5.3-3.9-8a6.7 6.7 0 00-.7 5 27.5 27.5 0 003.3 7c3 4.3 6.3 8.5 9.4 12.7.9 1.2 1.6 2.5 2.3 3.7a128.5 128.5 0 01-14.8-10.3c-4.9-3.7-9.7-7.4-14.7-11-4.8-3.2-9-7.6-14.7-9.7-.7 2.3.7 3.2 1.7 4l13.2 9.7c10.8 8 22.1 15.5 31.3 25.6a35.6 35.6 0 003.4 2.7zM111.8 1329c5.2 2 10.4 3.3 14.8 6s8 7.2 12.4 11.1l5.8-.4a60 60 0 00-10.7-21.4c-.8 6.7 5.2 11.1 5.8 17.4h-.8l-1.7-1.8c-6.1-6.5-13.4-11-22.3-12.4-1.2-.2-2.5-.5-3.2 1.5zm237 174.1c-7.6-5.9-9.9-13.7-9.6-22.7.3-9.4 5.5-15.7 13-20.7a14.7 14.7 0 00-11.7 7.1 30.2 30.2 0 00-1.3 29.2 11.4 11.4 0 009.6 7.1zm761.7-180.3c-2.1-.6-3.5.8-4.6 2a154.8 154.8 0 00-11.6 12.8c-2.7 3.5-4.5 7.7-6.6 11.7a5.3 5.3 0 00.4 6.2l1.4-2.8c1.6-3.3 3-6.8 4.8-10a66.6 66.6 0 0113.8-16c1.2-1 2.8-1.7 2.5-4zm-69-195l-1-20.6c-3-.6-4.7.7-6 3.3a29.2 29.2 0 00-1.6 17c0 .4.8.8 1.6 1.4 2-4.4-1-9.3 3-13.9.6 3.1 1 5.3 1.2 7.4s.5 4.4 3 5.5zm-573.8 252.4l5-1.9c-1.4-6-4.9-13.7-7-15.5v7.7l-5.1-2.5c-1.5-.8-2.5-3.2-5.1-.6 4.3 4.2 10.5 6.1 12.2 12.8zm612.4-19.3c2.3-2 1.5-4 1-5.6a91 91 0 01-5.2-25.9c0-1-.8-1.8-1.3-3-1.7 2.8-1.7 2.8-1.6 5.1a94.5 94.5 0 007 29.4zm-5.5 4.8c.3-1.1 1-2 .8-2.7-.9-2.6-1.5-5.4-3.1-7.5-5-6.6-10.4-13-15.6-19.4-.2-.2-.9-.1-2.1-.3a15.6 15.6 0 001.3 3.6 66.1 66.1 0 004.4 5.1c5.3 6 10.5 12 13 20 0 .3.6.6 1.3 1.2zm-397.4 145c-13.1 2.6-27.7 14.3-29.5 23.4a89.8 89.8 0 0129.5-23.3zm382.9-552.6c-.5 4 1.4 6.6 2.5 9.5s2 6 3.4 9c1.2 2.7.5 6.4 4.8 8.2-1-9.3-5.4-16.9-8.3-24.9-.3-.7-1.3-1-2.5-1.8zm-704.2 548.5c1.4-9.3-1.8-17.7-.4-26.7-3 3.1-3 3.1-3.3 6.2a44 44 0 003.7 20.5zm694.5-384.8c.6-4.8.6-9.8 1.8-14.5s3.4-9.3 5.6-15c-6.9 6.2-11.2 22-7.4 29.5zM364.5 1501c1.7-4 .9-8.2 2-12s3-7 4.6-10.7c-7.2 4.9-10.6 16-6.6 22.7zm715-543.7l-1.2-.2c-4.1 5.3-5.1 19-1.3 24.1.2-4.6 0-8.5.5-12.4s1.3-7.7 2-11.5zm-103.8-96l7.9 16.3c1.8-4.9-1.5-12-7.9-16.3zm81.3 107.4c-.6.9-1 1.2-.9 1.4 1.1 4 2.1 8 3.4 11.8.4 1.2 1.5 2 3.4 1-1.7-4.7-2.6-9.8-5.9-14.2zM476.3 1377l4.7-16.3c-5.4 4.4-7.4 11.2-4.7 16.3zm-323.6-55.2c-5.9 6-7.4 13.7-4 20.1.1-3.9-.2-7 .4-10.1s2.1-6 3.6-10zm495-215.6c-2.5 4.3-2.4 7.4 0 10.2zm-11.2 13.9c2.6-3.6-.3-5.7-1.3-8.4l-.9.2 2.2 8.2zm365.7-258.2c-4 2-4.3 2.8-2.7 6.9zm-12.4 8.7v-6.7c-1.8 2.3-1.5 4.5 0 6.7zm117.5-212.7l1.3.3a17.4 17.4 0 00.8-2.5c0-.3-.4-.7-1.2-2zM774.5 842l-2.6-5.2c-1 3.2.8 4.2 2.6 5.2zm-6.1.8a3.9 3.9 0 00-1.2-.7l-.7.8a8.4 8.4 0 001 .8l.9-.9z" class="cls-1"/>
      <path d="M0 631.6c1.2-2.4 2.5-4.7 3.5-7.2q6.7-16.5 13.2-33.1c1.5-3.9 3.8-6.7 9-7.5 10.7 10.2 20 22.6 30.4 33.9a277 277 0 0128.5 36.6c1.6-2.2 2.6-3.3 3.4-4.6 16-27.5 31.5-55.1 45.7-83.5 5-10 10.2-19.7 15.4-29.5a26 26 0 013.6-5.2c1.9-2.1 3.6-2.1 5.8-.3 1.3 1 2.3 2.4 3.4 3.5l4 3.5c1.2-3 2.4-5.2 3.2-7.6l15.7-47.2a33.7 33.7 0 012.3-5.8c.8-1.3 2-2.2 3.3-3.5a39 39 0 016.6 15c2.7 13 5 26.2 7.3 39.4 2.5 14.6 4.7 29.3 7.1 43.9l6.4 37.6 1.2 5.7c2.7-1 3.2-3 4-4.7l42.5-84a1307 1307 0 0141-73.9c8.4-14.4 17.2-28.7 25.8-43l3.3-6.2h-7.2c-9.8.6-19.6 1-29.3-1.6a27.3 27.3 0 01-7-3.1 4.7 4.7 0 01-1.8-3.5c0-1.9 2-1.8 3.3-2a7.3 7.3 0 012 .2c14.3 2.6 28.6 2 42.8-.3 21.2-3.4 40-12 55.2-27.5a55.3 55.3 0 0016.7-34 54 54 0 011.2-7.2 35.2 35.2 0 011.6-4.5c4.4.5 2.8 4.8 5.7 6.7.7-1 1.8-1.7 2-2.7a111.3 111.3 0 002.8-13.7c2.5-22.8-1.2-44-16-62.4A56.3 56.3 0 00383 231a116.2 116.2 0 00-60-6.2 47.3 47.3 0 00-28.1 16.4c-5.9 6.6-10.4 14-14.8 21.5a14.6 14.6 0 01-3 3.6c.2-11.9 7.3-20.8 13.3-30a56.8 56.8 0 00-6.3-4 13.3 13.3 0 00-5.6-1.2c-17.3.3-31.6 7-42.1 20.7a131.4 131.4 0 00-20.8 42.8 83.2 83.2 0 00-4 24.7c0 4.7.1 4.9 4.7 5.3a48.5 48.5 0 016.7.9 24.3 24.3 0 015 1.9 3.3 3.3 0 011.6 4c-.4 1.9-2 2-3.5 2-2.7-.4-5.4-.8-8.1-1a44.3 44.3 0 00-19.5 2.2 34 34 0 00-22.8 26.6 58.2 58.2 0 001 31.5 58.4 58.4 0 0018.4 26.7 40.2 40.2 0 0038.8 7.2 121.6 121.6 0 0047.4-27.1c1.4-1.4 3.1-2.6 5.2-4.2a7 7 0 01-2 6.7c-3.6 3.9-7 8-11.1 11.3a114.7 114.7 0 01-38.3 20.2 48 48 0 01-56.4-19.8 64.1 64.1 0 01-7.8-58.6 43.3 43.3 0 0127.2-27.6l2.7-1a3.8 3.8 0 002.6-4.1c-.7-19.7 6.4-37.2 14.8-54.4a101 101 0 0114.9-23 61 61 0 0148.1-22.7 17.6 17.6 0 015.2 1c3.2 1 4.9 3.5 5.3 6.8l.4 4.3 7-6c11-9 23.4-14 37.6-14.3a134 134 0 0150.9 7.5 65.9 65.9 0 0140.3 41.5 88.6 88.6 0 013.8 47.1 56 56 0 01-6.3 18.7c-1 1.6-1.3 3.3-.2 5l14.9 22.2a23.7 23.7 0 002.4-4l26-71.7c6.6-18.1 12.8-36.4 19.9-54.4 8-20.7 17-41 25.5-61.5 2.7-6.4 5.7-12.7 8.4-19a49.1 49.1 0 001.7-6.5c3.9.3 7.4 1.4 9.9 4.6 2.4 3 4.6 6.2 6.8 9.4 16.4 24.5 33 49 49.1 73.6 19.8 30.1 39.3 60.5 58.9 90.8 10.8 16.8 22 33.4 32.5 50.3 6.4 10.1 12 20.7 17.8 31a28.4 28.4 0 002 2.7c3.6-2.7 93.2-127.8 95.5-133.2l-2.8-1.7c-5.2-2.7-10.8-5-15.7-8.4a54.3 54.3 0 01-25.9-47.9c.2-7.6.2-15 2-22.6a74.9 74.9 0 0110.4-23.7 102 102 0 0152-40.5 103.8 103.8 0 0137-6.5h4.3c3 0 4.9-1.5 6.6-4 7.9-11.6 15.7-23.2 24.2-34.4 4.8-6.3 10.7-12 16.3-17.7a19.4 19.4 0 005.2-9c2.6-11 5.5-21.9 8.3-32.8.5-2.1 1.2-3.9 3.4-5a5.9 5.9 0 002.2-2.8c1.3-2.7 2.3-3.2 4.6-1.3 3.1 2.6 6 5.4 9 8.2s5.8 5.5 8.5 8.5c2.1 2.2 4.2 2.3 7 1.2 7.7-2.8 15.4-5.7 23.3-7.8a70.8 70.8 0 0130.7-.6 41.8 41.8 0 0133.7 32.6c.9 4 .6 6.5-1.4 10.3-2.7-.5-3.5-2.8-4.7-4.9-3-5-5.5-10.2-9-14.7A38 38 0 00998.8 28a81.8 81.8 0 00-45 7.9 164.5 164.5 0 00-52.4 38c-6.7 7.5-12.5 15.7-18.5 23.6-4.3 5.8-8.3 11.8-12.4 17.6 1 2.6 3 2 4.6 2.4 6.5 1.5 13 2.5 19.3 4.4 7 2 13 5.8 16.7 12.3.2.5.7.8.7 1.3.3 1.3 1 3.2.4 4-1.4 1.6-2.9.1-4.1-.9a56.5 56.5 0 00-30.2-11.9c-4.3-.4-8.6-.9-13-1-14.8-.6-29.6-.1-44 4.3a91 91 0 00-43.1 27.1 63.1 63.1 0 00-16.7 40.3c0 2-.2 3.8-.3 5.8a54.3 54.3 0 0029.7 53c9.1 5.2 19.2 8.1 29.4 10.5l14.1 3.3a33.2 33.2 0 005.3.8 33.8 33.8 0 006.3 0 47.6 47.6 0 0133.7 10.5c7 4.9 14 9.9 21.1 14.4a80.3 80.3 0 0031 12 75.8 75.8 0 0042-5.5 160.5 160.5 0 0045.2-28.3 71.6 71.6 0 0020-29.8c1.5-4.3 3-8.6 5-13.6 3.4 3.2 7 2.6 10.4 2.5 14.8-.4 29.6-1 44.1-4.7a91.4 91.4 0 0050.3-30.5 75.6 75.6 0 0017.2-39.8c.5-4.5 1.2-9 1.3-13.5a61 61 0 00-16.8-43.5 94.6 94.6 0 00-30.6-21.5c-15-7.1-31-9.7-47.3-11.1-2.3-.2-4.8.4-7.2.5l-17.8.4a5.7 5.7 0 01-2.8-.6c-1-.5-2.4-1.4-2.6-2.3-.4-1.8 1.3-2.4 2.7-2.7a20.2 20.2 0 013.4-.4c16.6-.3 33.2-1.7 49.7.3a94.6 94.6 0 0159.2 28.8 66 66 0 0118.7 51.2 99 99 0 01-7.4 35.2c-6 13.2-14.1 25-25.2 34.4-2 1.7-3.8 3.5-5.6 5.3a6.6 6.6 0 00-.8 1.6l4.1 4.5c18 18.2 36 36.4 54.3 54.4 3.4 3.3 5.2 6.7 4.7 11.4v6.1a28.7 28.7 0 01-3.3-2.3l-61-60-5.5-5.4c-2.9-2.8-4-3-7.7-1.2-4.4 2-8.8 4.1-13.3 5.9a106.5 106.5 0 01-38.8 7.1c-6.4 0-12.9-.5-19.3-.8-3.2-.2-4.1 0-4.8 3.3-3 14.8-12 25.8-22.6 35.7a154 154 0 01-61.7 35.9 77.3 77.3 0 01-69.3-12.3c-7.8-5.6-15-12-22.5-18.2-2.6-2.2-4.9-4.7-4.4-8.9h-3.5c-6.3.4-12.5 1-18.8 1.2-4.8.3-5 .3-6.7 4.6-4.2 10.7-8 21.5-12.4 32q-13 31.5-26.4 62.8a115.7 115.7 0 01-6.3 12 61.7 61.7 0 01-4 5.7c-2.4-1.5-1.6-3-1.1-4.2 3-8.5 6.1-17 9.4-25.4 5.5-14.2 11.3-28.4 16.9-42.6a3.7 3.7 0 00-.3-3.2l-8.9 15.8c-10 18.6-20 37.1-29.8 55.8-9.6 18.3-18.5 36.8-28.2 55.1-12.6 24-25.7 47.6-38.6 71.4a9 9 0 01-3.5 3.6 9.8 9.8 0 01.4-2.9q7.8-17.4 15.8-34.7c2.8-6.1 5.8-12.2 8.3-18.5a31 31 0 00-6.5 9.3c-6.8 13.7-13.4 27.5-20 41.3-2.1 4.4-4 8.8-6 13.7a22.3 22.3 0 003.6.5c7-.2 14.1 0 21 1.8 11.5 3 20.5 10 28.1 18.8 3 3.3 5.5 4.5 10 3.8 17-2.7 33-8.2 48.7-15.1 1.8-.8 3.5-1.7 5.4-2.3a57.2 57.2 0 0016.6-8.4c7.5-5.7 15-4.7 21.9 1.5a20.3 20.3 0 004.5 2.7l16.9 8.1c1.5.8 3.2 1.8 4.8 1.8 6.7 0 12.8 2.1 18.7 4.5a173.7 173.7 0 0033.9 9.7l3.3.5c2.1.3 3.6-.6 3.8-2.7 1.1-8.7 8-10.7 14.7-12.5 7.8-2.2 15.7-3.7 23.4-5.8 3.8-1 7.3-2.5 11-3.9 4.5-1.7 5.3-1.5 8 2.4.6 1 1 2 1.7 3 2 3 3.4 6 2 9.8-.2.6 0 1.3.1 2.6a62.5 62.5 0 006.5-.8l35.4-8q37.3-8.3 75-13.9a694.8 694.8 0 0179.4-7h5.5l.4 7.5c-1.8.2-3.2.5-4.6.5a528.9 528.9 0 00-62.7 4.6c-21.8 3-43.6 6.6-65.3 10.5-17.8 3.2-35.3 7.3-53 11.1-4.3 1-8.5 2-12.7 3.2-1.9.5-1.8.7-2 4l4.1-.5 5.2-1.1c3-.5 5 .2 7.2 3a47 47 0 019 30.4 16.6 16.6 0 001.7 6.8c2.3 4.5 5 8.7 7.3 13a13.4 13.4 0 011.6 4.6c.4 3.8-.3 7-4.2 8.9-10 4.5-19.8 9.4-29.8 13.7-6.3 2.7-13 4.8-19.5 7.1a10.9 10.9 0 01-4.3.6c-4.7-.3-9.5-.9-14.3-1.3-2.5-.2-4.8-.5-6.2-3a2.6 2.6 0 00-1.5-1.1c-2.8-.8-3.5-3-4.1-5.5l-1.6-6.2c-2.8 1.2-5 2.4-7.5 3.2-3.2 1-6.5 2.2-9.1-1.5a3.5 3.5 0 00-3-1c-6 1.4-10.7-1.3-15.4-4.1a49.7 49.7 0 01-7.6-6 21.1 21.1 0 00-8.3-4.8c-10.8-3.2-21.5-6.7-32.2-10.2a33.7 33.7 0 01-7-3.1 7.7 7.7 0 00-7.3-.8c-6 2.4-12.2 2.6-18.5 2.8a27.3 27.3 0 00-9 1.9c-11.4 4.3-22.6 9.1-34.2 13.2-10.8 3.7-21.8 6.7-32.8 10-4.6 1.4-9.3 2.6-13.8 4.3-1.9.6-3.4 2.2-5 3.5-1.2 1-2.1 2.5-3.4 3.3a71.1 71.1 0 01-24.2 9.4 71 71 0 01-23 1.5c-2.5-.3-3.3 1.2-3.4 3.5-.5 6.6-1 13.2-1.7 19.7a332 332 0 01-16.8 73.9c-2.7 7.9-5.6 15.8-8 23.7-3.7 11.6-4.2 23.5-3.7 35.5.1 4 .5 8 .7 12s2.3 6.3 6.3 7.4c15.4 4.2 30.6 8.8 46 13 22.3 6.1 44 14 64.4 24.7l1.7 1c5.6 3.2 10.8 3 16.9.4q47.1-20.7 94.5-40.5c22-9.2 44.1-18.2 66.5-26.3a567.2 567.2 0 01100.2-26.8 358.8 358.8 0 0154.3-5.4c22.3-.3 44.5 0 66.7.4 8.5.1 17 1.2 25.5 1.8 1.4 3 1 5.8.4 9a49.9 49.9 0 01-5.3 0c-29-3.2-58-3.4-87-2.7a396.4 396.4 0 00-72 8.1 665 665 0 00-67.1 18c-28 9-55.4 20-82.5 31.6q-46.4 19.7-92.8 39.7l-54 23.4-6.6 2.9a15.8 15.8 0 00-2.6 2.2c1.4 1.2 2.4 2.4 3.6 3.3 14 11 28 21.9 41.8 32.9q21.6 17 43 34.3c4.4 3.5 8.5 7.4 12.9 11 2.3 1.8 3.6 4 3 7-1.6 10.2.8 20.3.5 30.4 0 2.8 1.1 5.7 1.7 8.5 2.2 11.2 4 22.5 6.6 33.7 5.4 23.2 13 45.5 27 65.2a141 141 0 0035.5 34.6 549 549 0 0067.3 38.8c12.1 6 24.5 11.7 36.7 17.3 9.5 4.3 19.5 6.8 29.6 8.7a107.4 107.4 0 0110.8 2.7c1.9.5 3.8 1.4 3.9 3.8s-1.5 3.6-3.4 4.3c-6.9 2.6-13.8 5.5-20.9 7.4a307.5 307.5 0 01-75.1 9c-18.3.3-36.5.4-54.7-.1-14.3-.4-28.7-1.6-42.6-5a46.9 46.9 0 01-13.4-6.3c-1.8-1.2-3-3.9-3.7-6a294 294 0 01-6.3-20.4c-6.4-24.3-11.4-49-15.5-73.7q-4.5-27.2-7.1-54.6a778.7 778.7 0 01-4-81.1 11.7 11.7 0 00-4.6-10c-18.4-14.7-36.5-29.7-54.8-44.5C733 942 719 931 705 920a27.5 27.5 0 01-3-2.4c-2.8-2.8-5.8-2.4-9-1-6 2.6-12 5.3-18.1 7.8-20.6 8.5-41 17-61.7 25.3-21.3 8.5-42.8 16.8-64.2 25.2-10.5 4-21 8.3-31.6 12a11.7 11.7 0 00-8.1 9.2c-5.5 21-11.4 42-17.1 63l-16.6 61c-3 11.2-6.2 22.4-8.8 33.6-1.6 7-2.6 14-5.4 20.5-.8 1.9-.5 4.2-1 6.2-.4 1.2-1.5 2.2-2.2 3.3-1-.7-2.4-1.2-3-2.2l-9.8-21c-.8-1.6-1.4-3.2-2.3-4.8-3.8-7-7.9-14-11.4-21.2a381 381 0 00-27.8-47.5c-9.7-14-20-27.8-32.8-39.2-10-9-8.7-8.3-20-4.8-14.4 4.5-28.9 9-43.2 14a946.7 946.7 0 00-92.8 37c-33 15.3-66 30.8-97.7 48.6-18.7 10.4-37.5 20.7-55.7 32-14 8.7-27.3 18.7-41 28.2l-17.5 12.8a18.3 18.3 0 01-3.1 1.3v-6.8c5.8-4 11.7-8 17.4-12.1 17.5-13 35-25.7 53.9-36.7 33-19.3 66.4-37.5 100.8-54 31.2-15 62.3-30.2 94.8-42.4 13.4-5 26.8-10.1 40.3-14.9s27.2-9 40.8-13.5a27.7 27.7 0 003.6-1.9 53.9 53.9 0 00-5.6-3.2 76.6 76.6 0 00-39.8-4.6c-11.5 1.6-22.6 5-33.7 8.4l-44.2 13.9a38 38 0 01-4.8.8 10 10 0 013.5-7.8l7.9-6.4c7.4-6 15.8-10.4 24.4-14.4 1.5-.7 3.4-1 4.4-3.4-2.5-.4-4.5-.8-6.5-1l-20.2-.8c-7-.3-10.7-3.4-11.8-10.4a35 35 0 01-.5-5.7c0-5.7 0-11.3.3-17 1.2-20.1 3.4-40.1 11.8-58.8.4-1.1.3-2.4.6-4.2-6.7 2.2-11.4-1.1-16.3-4-2.9-1.7-5.4-4-8.1-6l-5-3.4a64.7 64.7 0 01-4.5 5.5c-4.2 4.1-9.2 3.5-13.3 1a20.6 20.6 0 01-3.8-3c-5-5-10-10-14.8-15.2a756 756 0 01-18-20.8 39.7 39.7 0 01-4.3-6.4 3 3 0 01.6-2.5c.3-.4 1.5-.3 2.2 0a6.3 6.3 0 012 1.3c6.8 6 13.7 11.8 20.2 18 5.1 4.9 9.7 10.3 14.7 15.3 2.9 2.7 6.1 5 9.5 7.7 6.1-5.9 9-13 14.3-20a21.4 21.4 0 01-3.4-2.3c-3.8-3.8-7.5-7.6-11-11.5-1.6-2-2.4-4.2-.8-6.7l7-11c2.7-4.2 2.7-4-.4-8.3a34.7 34.7 0 01-7.2-29l1-5.2c.2-.7.2-1.5.3-3.4a35.7 35.7 0 00-4.4 3l-11.5 11.6c-2.2 2.1-4.6 4.1-6.5 6.4L154 857.5c-1.4 1.7-3.1 3.3-4.8 5-.9-1.5-1.2-2.7-.8-3.5 1.6-3.3 3-6.8 5.2-9.8 4.7-6.5 9.8-12.7 14.7-19.1 1-1.3 1.8-2.8 3-4.7-3-.7-5-1.3-7.2-1.7a320.3 320.3 0 00-65.9-5.8 218.8 218.8 0 00-54.4 8.1c-11.7 3.2-23.3 7-35 10.5-3 .9-5.9 1.4-8.8 2.1V831l8.8-2.6a17.5 17.5 0 008.1-5.6c7.5-8.7 15.4-17 25.1-23.3 9-5.8 17.9-11.5 27-16.9 4.7-2.7 8.4-5.8 9.3-11.4a14.6 14.6 0 011.3-3.1c2.9-6.8 6.2-13.5 8.6-20.5 6-17.3 11-35 17.4-52.2 10.2-28 21-55.7 31.7-83.5 7.8-20.3 15.8-40.5 23.9-60.6 1-2.6 2-4.7-1-6.7-1-.7-1.4-2.5-2-3.8L156 536l-2.6 4.4c-11.8 23.5-22.8 47.3-35.4 70.3-17.3 31.2-35.8 61.8-53.8 92.7l-36.2 62c-6 10.3-11.8 20.8-17.7 31.1a34.8 34.8 0 01-2.7 3.6 3.6 3.6 0 01-.6-3.1c1.9-5 3.5-10 5.8-14.8 6.5-13.5 13.4-26.8 20.1-40.2a10.8 10.8 0 00.6-2.3 5.3 5.3 0 00-2.4 2L3.4 781a25.7 25.7 0 01-3.4 3.3v-10.6c1.2-1 2.7-1.7 3.5-3 7.6-10.8 15-21.7 22.5-32.5 6-8.6 12-17.1 18.4-25.4a18 18 0 016.6-5.3 10.5 10.5 0 005.3-4.6l6-10.4 16.3-26.9c1.5-2.3 1.3-4-.5-6-1.5-1.6-2.8-3.5-4.2-5.2-6.6-8.4-13-16.9-19.8-25-10.4-12.5-21.3-24.6-28.2-39.6-.3-.6-1.1-1-2.3-2l-2.3 6.6-19.5 56.6a12.1 12.1 0 01-1.8 2.7zm514.1-192.3c1-.5 1.6-.6 1.9-1q7.5-9 14.9-18.2c1.6-2.1 1-3.7-1.6-4.1-1.9-.3-3.8-.2-5.1-2-2-3-1-9.7 3.9-10a31.5 31.5 0 015.7 0c3 .3 3.8 1.7 3.2 4.6-.3 1.7-.9 3.3-1.3 5l.7.7a40.1 40.1 0 004.9-2.4 32.3 32.3 0 0113.2-5.5c6.6-1 10.5 1.7 11 8.3a44.9 44.9 0 01-.8 13.4 117.4 117.4 0 01-11.7 29.5c-1.2 2-2.2 4-1.2 6.3a21.2 21.2 0 01.6 13.3c-1 4.3.2 7 3.2 9.7 6 5.3 5.8 5.4 11.3-.6s11.1-11.2 18.2-15c3.9-2 7.9-3.7 12.4-3.5s6.6 1.7 7.4 6.1a19.6 19.6 0 010 6.2c-1 6.7-4.3 12.5-7.7 18.2-3.8 6.2-7.7 12.2-11.8 18.2-2 2.8-2 5.2.1 7.9 4 5.1 7.6 10.4 11.3 15.7 2.6 3.5 3.3 3.5 5.9-.1l25-35 48.5-67.4c5.9-8.1 11.6-16.3 17.4-24.4 1.5-2.2 2-4.1.5-6.6L666 363c-9.4-14.5-19.2-29-28.7-43.6-9.7-15-19.2-30.2-29-45.2a31.3 31.3 0 00-3.2-3.7c-7.1 4.8-11 4.4-16.6-1.4-1.5-1.6-2.9-3.5-4.5-5l-15.4-14a8.5 8.5 0 00-8.2-1.7c-5.7 1.5-10.8-.3-15.4-3.7a80.8 80.8 0 01-6.1-5.4c-3-2.7-5.8-5.6-9-8.2-3.3-2.7-5.5-1.6-6 2.8a30.8 30.8 0 01-.3 4.3 7 7 0 01-5.5 5.5c-2.9.6-4-1.7-5.1-3.5l-9.7-15c-1.2-1.9-2-4-5-4.7a24.3 24.3 0 00-1.4 2.8l-10.7 29-19.4 54c-5 14.2-10.3 28.2-15.2 42.3q-8.6 24.9-16.8 50c-4.3 13.2-8.3 26.6-12.5 40l-13.6 42.8c-2.8 8.6-6 17-9 25.5a43.4 43.4 0 01-3.1 5.6l-1.2-.3a27.3 27.3 0 01.4-4.4q5.6-22.8 11.4-45.5c.4-1.5 1.1-3 .4-4.6a986 986 0 00-11.2 31.4q-11.4 33.4-25.7 65.6a4117 4117 0 01-23.9 52.8c-1.6 3.5-3 7.3-6.3 10.6a11.8 11.8 0 010-2.5c1.6-5.3 3-10.6 5-15.7 4.2-11.1 8.8-22 13.3-33.1a31.8 31.8 0 001-3.7 35.8 35.8 0 00-5.7 8.6l-19.8 41.9a382.5 382.5 0 01-37.5 66.3 27 27 0 00-1.8 4c2.6-.3 4.3-.3 6-.6l53.6-7.8c4.4-.6 4.3-.8 5.5-5.3 1.6-5.6 2.8-11.3 5.3-16.5a51.8 51.8 0 0133.9-29.5c6.8-1.8 13.5-4.4 20.4-5.4a61.9 61.9 0 0132.3 4 5.8 5.8 0 006.6-1l24.5-20.5a5.4 5.4 0 002-5.1c-.7-10-1.3-20-1.6-29.9-.3-8.7 0-17.4-.1-26.1 0-5.4-.7-6.3-5.7-7.2a19 19 0 01-9.3-4.9 193.3 193.3 0 01-35.7-42.2 62.3 62.3 0 01-10-37.2c.3-5.2.9-10.8 3-15.5 8.6-18.3 22-32.7 38.4-44.4 2-1.3 3-2.7 2.7-5.1-.1-1.6-.2-3.5.6-4.7 2.3-3.3 5.7-.3 8.5-1a4 4 0 013.4 2c1.8 5-2.9 12-7 11.1-3.7-.8-6 1.1-8.5 3.3a162 162 0 00-24.7 29 47.4 47.4 0 00-6.1 13 50.7 50.7 0 005.6 38.7 181 181 0 0033.8 42c.8.8 2 1.2 4 2.3l-.8-7.6c-1-7.4-2.5-15-2.9-22.5-.6-12.3-.5-24.8-.5-37.2 0-6 .4-12 2.7-17.5 4.7-11.4 12.8-15.7 23.3-11.6 5.9 2.3 11 6 13.6 12.3a33.8 33.8 0 002.2 4zm-51.3 189.4l5 5a40.9 40.9 0 019.5 15 79.8 79.8 0 012 48.4 50.3 50.3 0 01-14.3 24.3 115 115 0 01-9.8 7.8c-3.7 2.7-3.8 3-1.4 7l2.5 3.5c13.4 17.7 27 35.4 40.2 53.2 7.8 10.4 15.6 20.8 20.4 33.2a108 108 0 017.2 25c1.8 14.3 1.2 28.7 0 43-.2 2.6-.7 5.1-1 7.7-.3 2 .4 3.5 2.6 3.9 2.9.5 5.7 1.5 8.6 1.5 8.2 0 16.5.6 24.6-.6 16.5-2.3 33-5.6 49.4-8.7a101.6 101.6 0 0036.3-14 28.5 28.5 0 0010.5-11l4-7.1a5.4 5.4 0 00.1-6 80.9 80.9 0 01-3.5-7.4 113.8 113.8 0 01-8.3-37c-1-17-.1-33.8 5.9-50a329.8 329.8 0 0023.1-102.8c.3-6.2 1-12.5 1.1-18.8a181.3 181.3 0 00-.6-22.1c-1-9.3-2.7-18.5-4.4-27.6-1.6-8-3.7-16-5.6-24a7.7 7.7 0 00-4.4-5.4 108.8 108.8 0 00-50.7-12.2 25.5 25.5 0 00-3.8.5 5 5 0 002.3 2.4 21 21 0 0111.6 16.8c.3 2.5.6 5 .7 7.6.6 10.5-2 20.5-3 30.8-.8 7.1-.6 14.4-.7 21.6-.1 3.4 1.5 5.6 4.2 7.6a13.8 13.8 0 014.7 6.4c1.3 4.2-.3 8-3.8 10.7a10.8 10.8 0 01-11.8.3c-1.8-1.2-3.2-2.7-4.9-4-7.6-6-15.7-7.8-24.6-2.8a29 29 0 01-5.7 2.7 20 20 0 01-7 1c-5-.5-7.2-4-5.3-8.6a26.7 26.7 0 0111.3-14c4.2-2.2 6.7-4.6 6.5-9.3a1.1 1.1 0 010-.5c3-7.6.9-14-3.9-20.2-6.3-8.4-12.2-10.5-22.3-7.3-2.9.9-5.8 1.7-8.8 2.4a16.1 16.1 0 01-17-5.4 60.7 60.7 0 01-5-7.6c-.6-.9-1-1.9-1.4-2.8-7.4 1.8-57.3 40.8-61.3 47.9zm52.3 281c0 2.3.1 4.2-.3 6-4 15.5-8.1 31-12.4 46.6-3.4 12.4-7.3 24.6-10.8 37l-11.5 41.9c-3.5 12.7-7.2 25.4-10.6 38.2-3.3 12.4-6.5 24.9-9.5 37.4-1.6 6.4-4.1 12.6-3.7 19.4a5 5 0 01-2.5 4.8 5.2 5.2 0 01-1.5-.5 10.8 10.8 0 01-1.7-1.7 70.6 70.6 0 01-12.4-21.1l-24.3-61.7c-2.5-6.2-5.3-12.4-7.8-18.7s-6.4-11.9-7.4-18.7a12 12 0 00-1.2-2.6l-17.7-41.3c-.5-1.1-1.2-2.1-2-3.5-3.4 1.5-6.4 3-9.5 4.2a379.7 379.7 0 00-58.1 28.3 361.2 361.2 0 01-46.2 23c-7.3 3-14.2 7-21.1 10.6-1.6.8-3.4 1.7-3.7 4.3l31-10.5c11.4-3.8 22.7-7.4 34.5-9.3a81 81 0 0146 4.5 109.8 109.8 0 0139.2 29.2 264.5 264.5 0 0128.2 38c6.8 11.1 13 22.6 19.2 34.1 2.4 4.7 3.8 9.9 5.8 14.7 2.3 5.6 6.6 10.3 7.8 16.5.4 2.1 2.3 3.7 4.2 4.8 3-4 3.7-8.4 4.8-12.8 2.7-11.4 5.7-22.8 8.8-34.1l13.4-49c3.5-13.1 7-26.4 10.7-39.6 2.6-9 5.5-18.1 8.1-27.2.8-2.7 2-5.3 2-8 0-3.5.3-6.6 2.2-9.6a18 18 0 001.6-4.6l5.4-19c4-14 8-28.2 12.2-42.2.8-2.7.2-4.1-2-5.7a11.2 11.2 0 01-3.7-4.7c-.8-1.9-.5-4.2-.6-6.2-.3-10.8-.6-21.6-.7-32.4a90 90 0 00-7.7-35.2c-3-6.8-3-6.9-10.5-6l-49.9 6.7a33 33 0 00-4.4 1.3 17.6 17.6 0 000 2.8 56 56 0 01-2.5 29.6 62 62 0 01-26.1 33.1 33.4 33.4 0 01-37.3-1.5 33.6 33.6 0 01-10.6-14.3c-1.5-3.8-4-4.9-7.5-5.6a65 65 0 01-13-3.9c-5.1-2.1-10-5-15.1-7.4l-5.2-2.2-2 2.7-22.8 35.9c-2.8 4.6-6.1 5.7-10.8 3a45 45 0 01-4.7-3.4l-4.1-3.1c-4.1 2.9-4.2 3.6-1.6 6.7a60.4 60.4 0 014.8 6.1c4 6.3 8 12.8 9.2 20.1a27.3 27.3 0 004.7 11.9l15 20.2c2.1 2.8 4.2 5.8 3.5 9.6a32.4 32.4 0 01-5.2 15 17.2 17.2 0 00-1.4 3.3 29.7 29.7 0 003-1c12-6 24-12.4 36.3-18.1 6-2.9 12.6-4.7 19.1-6.5 3.8-1 8 0 11.5-3.7 2.4 4.1 4.7 7.5 6.6 11.2a3063 3063 0 0118 37.4c2 4.3 2.5 4.6 7 3.2 6.4-2 12.6-4 18.9-6.2l50-17.7a8.4 8.4 0 005.8-6l12.9-43.6a1326 1326 0 018.9-28c.6-2.1 1.2-4.5 5-5.3zm-97.3-570.8L416 343c-2.3 5-4.2 10.2-7.1 14.7-11.7 17.8-28 30.1-47.5 38a167 167 0 01-16.1 5.1c-2.9.8-4.8 1.9-5 5.4a16 16 0 01-2.6 6.7c-8.5 15-17.3 29.8-25.8 44.8-11.5 20.3-23.2 40.5-34.1 61.1-11.8 22.3-22.7 45.2-34.3 67.6-13.2 25.4-26.8 50.7-40.2 76-2.3 4.3-4.8 8.4-7 12.7L181.6 707l-4.2 8.4.7.8c1.4-.4 3-.7 4.3-1.2 14.2-5 28.1-10.2 42.4-14.8a390.7 390.7 0 0155-13c4.5-.7 7.8-2.2 10.3-6.5 4.6-8.1 10.4-15.5 15-23.6 11.6-20.1 21.1-41.3 30.9-62.3 7.4-16.1 14.9-32.2 24.9-46.9a67.7 67.7 0 019-10.6 16.5 16.5 0 004.4-6.2l20.3-55.3c2.6-6.8 5.3-13.5 8.2-20.1 1-2.1 2.8-4.9 4.6-5.2 4-.8 4.7-3.3 5.4-6.4.4-2 1.2-3.7 1.7-5.6l11.4-36.4 9.3-28.9c.7-2.1 1-4-.2-6l-14-24.3a44.3 44.3 0 00-3.1-4zm-46 491.2a79.7 79.7 0 005-6.4 9.7 9.7 0 001.4-4.5 666.5 666.5 0 0110.1-81.5c.4-2.5-.3-4-2.3-5.2l-4.3-2.3a46 46 0 01-18.1-19c-3.8-7.1-5-14.8-5-22.8 0-5.4-.2-5.8-5.3-5-22.8 3.4-45.6 6.7-68.3 10.4a471.7 471.7 0 00-81.4 20.5 373 373 0 00-55.8 24.3c-15.8 8.7-30.5 19.2-45.4 29.3-13.5 9.2-27.2 18-41 26.5-11.4 7.2-23 14.2-32.8 23.7-1.1 1-2 2.2-3 3.3a6.6 6.6 0 004.1.2c13.1-3.2 26.2-6.8 39.4-9.5 23.6-4.7 47.5-4.3 71.3-1.9 11.8 1.2 23.5 3.5 35.3 5.5a8.5 8.5 0 008-2.3c3.7-3.5 7.5-7 11.4-10.3 2.7-2.3 5.7-4.2 8.6-6.2 1.8-1.3 4-2.2 5.6-3.7a42.3 42.3 0 0127.7-10.8 67.8 67.8 0 0127 4.2c16.3 6.2 32.8 11.7 49.1 17.7a371.2 371.2 0 0153.5 23.5c1.5.9 3.2 1.5 5.2 2.3zm294.7 36.7l-4.9 7.4c-2 3-1.9 3.4 1 5.4l2.5 1.6c8.7 5.4 17.8 10.4 26.1 16.4 6.2 4.5 13.4 7.7 18.3 14 1.7 2.2 4.5 3.7 6.9 5.3 4.7 3.3 9.8 6.2 14.3 9.7q20.3 15.6 40.3 31.6c8.6 7 18.2 13 25 22a10.8 10.8 0 002.2 1.9l13.9 10.4a6.3 6.3 0 012.7 5.3c.5 17.7.8 35.4 1.7 53.1a1021.7 1021.7 0 007.9 75.4c2 13.9 4.7 27.7 7.3 41.4 4.6 24 10.2 47.6 18 70.7 1.6 4.9 1.5 5 6.6 5.3a909 909 0 00141-1c9-.8 17.9-2.6 26.8-4a8.1 8.1 0 005.3-2.5c-2.1-.6-3.6-1.2-5.2-1.5a157.7 157.7 0 01-25.5-8.7 676 676 0 01-69.2-35.5 521 521 0 01-31.6-19.7 145 145 0 01-57.4-77.8 317.7 317.7 0 01-11.3-46c-1.2-7.8-1.6-15.7-2.4-23.5-.1-1.8-.4-3.5-.6-5.3-.7-6.2-2.6-12.2-1.5-18.6 1-6-1.3-11.1-6.4-14.8l-6.6-4.9c-5-3.6-10-7-14.7-10.8q-27.7-21.6-55.1-43.3l-18.6-14.7-16.2-13-36.3-28-4.3-3.3zM734 452.4l2.5-4.6c8.4-16.7 16.5-33.5 25-50 6.3-12.4 13-24.5 19.6-36.7a7753 7753 0 0134.4-62.6c2.6-4.7 5.5-9.3 10-12.8a9.1 9.1 0 003.5-9.4c-7.2-1.6-13.8-2.9-20.3-4.6-3.4-.9-5.4 0-7.3 2.9-4.1 6.1-8.5 12.1-12.8 18.1l-50.2 70.4-39.8 55.2-59 82.4-27 37.7c-1 1.3-1.6 2.9-2.8 5l5.7.3c10.5 0 21 .4 31 3.8 2.2.7 3.5-.4 5.1-1.7 3.5-2.8 7-6 11-7.8a97.5 97.5 0 0119-6.5c4.4-1 6.7-3.1 8.4-7a503.6 503.6 0 0126.6-53.6c3.2-5.5 6.7-11 10.2-16.4 1.6-2.3 3.6-4.1 7.2-2.1zM84.7 771.6c2.3-1.2 3.8-1.8 5-2.7q7.4-5 14.7-10.2a352.1 352.1 0 0155.7-33.7c2.8-1.3 5.3-3 6.9-5.8 2.6-4.8 5.6-9.4 8-14.3 4.5-9.3 8.6-18.8 13.2-28 7.1-14 14.5-28 22-41.9a14.9 14.9 0 001.4-10.2c-3.4-17.6-7-35.1-9.9-52.8-2.8-16.8-5-33.7-7.1-50.7-1.4-10.2-2.2-20.5-3.4-30.7a20.8 20.8 0 00-1.2-3.6l-1.1 3.8a472 472 0 01-15.4 46.7q-18.8 48.2-37.3 96.4l-23 59.5c-9.4 24.8-18.6 49.7-27.9 74.6a27.1 27.1 0 00-.6 3.6zM543.1 536c-1.6-3.8-1.3-5 2.5-7a24.4 24.4 0 016.9-2.3c2.7-.4 4 1 3.4 3.7a12.3 12.3 0 01-2.8 4.8c-4.7 5.3-9.8 10.3-14 15.9a31 31 0 00-7.2 24.8c1.4 8.3 8.3 14 16.6 13.2a54.2 54.2 0 009-2c10.7-3 19.6-.6 26.5 8.5 5.8 7.8 9 16 4.5 25.6a31.2 31.2 0 00-2.5 6.8c-.8 3.8-3 6-6.3 8-2.6 1.7-4.7 4.3-6.8 6.7a3 3 0 00-.2 3c.6.5 2 .6 3 .3a30 30 0 004.4-1.9c2.4-1 4.6-2.5 7-3.1 10.5-3 19.7-.1 27.7 7 1.4 1.2 2.7 3.2 5 2 1.4-.8 1-2.6-1.3-5.3a29.2 29.2 0 01-7.7-22.2c.6-5.6 1.1-11.2 2-16.8a138 138 0 002.1-26c-.4-10.7-4.5-16.3-15-19A52 52 0 00588 559c-6-.2-12 .3-17.9.3a64.5 64.5 0 01-9.6-.5c-3.9-.5-5.3-2.7-4.5-6.5a17.2 17.2 0 012.3-5.3l17.6-27.7c6.3-9.7 12.7-19.4 18.7-29.3a30.4 30.4 0 003.4-10.4c.7-4-1.6-6-5.5-4.7a33.2 33.2 0 00-9.4 4.7c-4.5 3.4-8.5 7.4-12.7 11.2-5.8 5.3-11.4 10.8-17.3 16a13.8 13.8 0 01-5.7 2.4c-.8.2-2-.6-2.7-1.4-.2-.3.4-1.8 1-2.3 1.7-1.3 3.6-2.2 5.2-3.5 3.1-2.5 3.4-4 .4-6.6-6.8-6.1-13.7-12.2-21-17.8a52.6 52.6 0 00-13.5-7.2c-5.7-2-10-.3-12.6 5a111 111 0 00-7 17c-4.3 13.9-5.7 28.2-5.7 42.8 0 18.6-.6 37-.8 55.6a14.4 14.4 0 00.7 3.2l2.1-1.1c9.3-6.7 18.7-13.3 27.8-20a8.3 8.3 0 002.8-4.8 46.4 46.4 0 018-18c3.4-4.8 7.3-9.4 11-14.1zM422.7 729.4a39.8 39.8 0 0021.2-3.7 23.6 23.6 0 013.2-1.2 32 32 0 0015.4-10.3c6.2-7.3 9.3-16 10.3-25.6.4-4.1.8-8.3 1.5-12.4 1.5-8.3 0-15.7-5.2-22.3a14.2 14.2 0 01-2.2-3.2c-4.3-10-13-15.5-22.3-19.4a54.7 54.7 0 00-30.9-2.7 72.8 72.8 0 00-34.4 17.7 23.5 23.5 0 00-6.2 7.8 59.3 59.3 0 00-4.4 42.3 41.5 41.5 0 0020 25.5 62.4 62.4 0 0034 7.5zM655 549.8l3.8 2.3c2.9 1.8 5.9 3.4 8.5 5.4a14 14 0 015.8 9.2 50.2 50.2 0 002.7 9.6 56 56 0 014 16.9 64.1 64.1 0 001.7 10.9c2.3 10 4.9 20 3.7 30.4a21.6 21.6 0 00.2 4.8c.4 3.8.7 4.3 4.4 4.1 6-.2 11.8-.8 17.8-1.1a51.9 51.9 0 0030-13.7 24.4 24.4 0 005.5-6.2c4-6.7 8.2-13.5 8.9-21.6.6-7.7 1.2-15.4-.8-23-2-8.2-6.3-15.5-10.3-22.8a18.2 18.2 0 00-5-5.1 55.8 55.8 0 00-31.6-11.9 102.5 102.5 0 00-25 1.9 66.7 66.7 0 00-19.6 6.4 49 49 0 00-4.7 3.5zm-141 430a42.3 42.3 0 004.7-1c17.4-6.7 35-13.3 52.3-20.2q31.6-12.4 63.2-25.3c17.5-7.1 35-14.6 52.5-22 1.3-.5 2.4-1.6 4-2.8l-5.4-4.5-25.5-19c-4.4-3.3-4.4-3.4-8.3.4a72.5 72.5 0 01-32 18q-15.7 4.2-31.6 7.2c-18.2 3.5-36.4 7-55.1 4.6-2.5-.3-3.4.9-3.8 3.2-2.7 17.7-8.1 34.8-12.8 52L514 980zm-253.2-96.1c-.6-1-1.1-2.4-2-3.1s-2.9-1.6-3.8-1.2-1.5 2.3-1.6 3.6a33.8 33.8 0 000 6.2 6 6 0 00.8 2.6c2.9 4.7 2.6 9-.7 13.3a26.5 26.5 0 00-3.2 4.8c-7 15-12.8 30.5-15 47.1a259.3 259.3 0 00-2.8 40.5 26.4 26.4 0 001 6.1 5.9 5.9 0 004.6 4.6c6 1 12 2.5 18 2.7 15.2.4 28.7-5 41-13.5a54.4 54.4 0 0014.6-15.3c2-3 2-3.6-.2-6.4l-2.6-2.8c-3.6-4.1-7.6-8-10.7-12.5-9.1-13.2-18-26.7-26.8-40-1.4-2.2-3-4.6-3.4-7-.6-4-3-6.1-6.1-8-3.7-2.2-4-5.4-1-8.7l3-3.2c-2-1.4-4-2.3-5.2-3.8-1.8-2.4 1.4-3.6 2.1-6zM436 824.4a9.3 9.3 0 00.5-2.5c-1.2-13.4 1-26.6 2-40l3.3-40c.4-5.2-.6-6-5.6-4.9a87 87 0 01-38.8-.4c-4.4-1-4.6-.8-5 3.6l-2.7 27.9c-1.5 14.9-3.3 29.8-4.9 44.6-.2 1.7 0 3.4 0 5.7 5.6 0 10.7.2 15.8 0 11.3-.4 22.5.1 33 5.3a14.2 14.2 0 002.4.7zm14.6 295.6a23.6 23.6 0 002-3.7c2.6-10.1 5.1-20.3 7.9-30.4q7.6-28.4 15.5-56.8l6.6-23.7a45.4 45.4 0 00.8-5.6l-5.4 1.7-60.7 21c-4.8 1.6-5.2 2.5-3.3 7.3l20 48.7c4.6 11.5 8.9 23.1 13.4 34.7.8 2 1.8 4 3.2 6.8zm-77-258.4c0 3.4-.1 6.8.1 10.1a21 21 0 001.6 5.6c7 18.5 28.8 25.2 43.4 12.9a49.1 49.1 0 0017.7-44.7c-.4-4.7-2.4-8.3-7.2-9.9-1.2-.4-2.2-1.2-3.4-1.7-4.6-2-9-4.9-13.9-5.4a127.7 127.7 0 00-23.5-.2c-5.8.4-14 9.6-14.8 15.5a11.6 11.6 0 000 1.4v16.4zM595 261.1c1.5-3.3 1.3-5.6-.2-8l-5.5-8.5-42.5-64.6c-5.6-8.6-11-17.4-16.5-26.1a49.7 49.7 0 00-3.3-4.1l-2.2 4.7-11.2 27.7-9.7 23.2c-1.4 3-1.3 5.5 1.5 8.1 3.2 3 5.6 6.6 8.4 10l4.2 4.4a25 25 0 012.2-3.4c3.8-4 8.3-5 13.2-2.6a37.8 37.8 0 017.5 5.2c3.2 2.7 6 5.8 9.2 8.5 4.1 3.4 8.7 5.5 14.3 4.2a11.4 11.4 0 0110 2.7c5.7 4.8 11.4 9.9 17 14.9l3.6 3.7zM278 809.5a15 15 0 00-.4 3 27.2 27.2 0 01-6.6 21.4c-3.1 3.7-2.7 5.7 1.6 7.9 1 .5 2.1.8 3.1 1.2 4.7 2.2 9.4 4.3 14 6.7 2.8 1.5 3.3 3.6 1.6 6L274 879a22.5 22.5 0 00-1.4 2.4 11.2 11.2 0 001.5 1.6l19.7 14.6c4 3 5 2.8 7.4-1.4 6-10.2 12-20.2 17.8-30.4 4.2-7.4 8-15 11.8-22.7 2.2-4.6 1.2-6-3.7-7.8a89 89 0 01-9.9-5c-2.5-1.4-4.8-3-7.4-4.4-9-4.9-18.2-9.6-27.3-14.3-1.4-.8-2.8-1.3-4.6-2.1zM203 825c-.2 6.6 3.3 11.6 7 16.2 5 6.1 11.2 10.9 19.9 9.8 6.9-.9 13.6-2.3 19.7-6a33.5 33.5 0 004.6-3.4l9.1-8.6a16 16 0 00.2-24.2 68.8 68.8 0 00-34.1-15.8 18.6 18.6 0 00-15 4 21 21 0 00-8 11c-1.4 5.6-2.3 11.4-3.5 17zm567.8 49.3a27.7 27.7 0 00-3-2.1c-14.4-6.7-29-13.3-44.3-17.8-11.4-3.4-23-6.5-34.4-9.7l-25-7.3c-1.5-.4-3-1.3-4.5.3a24 24 0 009.8 19l47.8 36c3.3 2.6 6.1 2.8 9.8 1.1l31.4-13.6c4-1.7 7.7-3.7 12.5-6zM873.6 564c.2-6.3-1-9.4-5.5-13.5a75.4 75.4 0 00-34-16.4c-3-.7-4.9.6-6.6 2.8a66 66 0 00-11.7 26.8 39 39 0 00-1 12.9c1.4 12 17.2 22 30 19.6 9.5-1.9 15.9-8.6 22.8-14.5a6 6 0 001.4-2c2.6-5 4.7-10.2 4.6-15.7zm-60.4 32.7l-2-3a25.6 25.6 0 01-5-15.3A65.9 65.9 0 01812 551l3.7-9.2c-10.4 4.4-19.5 8.8-29 12.1s-19.4 5.5-29.6 8.4c1.2 5 2.8 10 3.5 15.2a82.2 82.2 0 01.4 16.3c-.4 5.2-1.8 10.3-3 16.2 17.7-3.2 34.4-7.7 51.3-11.5a20.3 20.3 0 003.9-2zM500.9 817.6a864.4 864.4 0 00-51.5-67.7 14.8 14.8 0 00-1.3 5.1c-.6 9.3-1 18.7-1.8 28-1 13-2.4 26-3.5 39a18.2 18.2 0 00.3 3.6c6 .6 53.3-5.8 57.8-8zm423.5-252L883 553.4c-.1 17.2-5.6 32-19.8 43.3 12 4.2 23.5 7 35.6 10l.7-4.9c.6-7.4 2.9-14.2 8.2-19.6 5-5.1 8.6-11.6 15.3-15 .5-.2.7-.7 1.4-1.4zm92.3 21.7c-1.8-5.7-3.4-11.4-5.4-17-1.6-4.3-2.2-4.1-6.5-2.8-5 1.7-10.2 3-15.3 4.2l-26 5.7c-3.3.7-4 2-3 4.7 2.7 7.3 5.6 14.4 8.4 21.7 1 2.7 2.9 3.1 5.4 2.6 13.5-2.7 26.5-6.8 38.6-13.4 2.2-1.3 3.1-3 3.8-5.7zM511 460.8l.6 1.3c8.8-1.2 15.6 3.2 22.5 7.3 4.2 2.5 4.3 2.5 6.8-1.4a130.7 130.7 0 0012.3-25.6 145.6 145.6 0 005-16c.7-3 .3-6.4 0-9.6a3.3 3.3 0 00-4-3 23.2 23.2 0 00-6.6 1.6c-7.8 3.7-14 9.6-19.4 16.2-6.2 7.5-10.8 16-15.1 24.6-.8 1.5-1.4 3-2 4.6zM297.4 809l-.4.8a31 31 0 002.9 2.2 311 311 0 0035.5 18.3l3.8 2c2 1 2.3 2.5 1.4 4.5l-7.4 17.7-2 5L350 867c3.6 1.4 7.2 2.9 10.9 4 3.5 1.1 4.2.4 4.6-3.2l2.4-22a13.3 13.3 0 00-8.3-13.7c-3.5-1.3-7-2.2-10.5-3.6l-39.2-15c-4-1.7-8.3-3-12.5-4.4zm-94.7 59.2c1 .7 1.8 1 2.4 1.6l11.5 9.5c2.2 1.8 2.8 3.7 2 6.7a36.4 36.4 0 01-4.8 12.4 2.8 2.8 0 001 4.5l17 9c2.1 1 4 .7 5.3-1.6 2.1-4 4.5-7.8 6.5-11.8 2.3-4.8 1.6-7.3-2-11.2-3.5-3.8-6.8-7.8-10.4-11.4s-3.6-7.2-1.1-11.3c1-1.7 1.8-3.6 2.7-5.2-.9-.6-1.1-1-1.4-1l-16.5-3a4.9 4.9 0 00-3.8 1.6c-2.8 3.4-5.3 7.1-8.4 11.2zm281.8-361.6h1.3l1-5c1.6-9 4.2-17.8 8.7-26 4.3-7.8 8.5-15.8 13-23.6 1.5-2.7 1.4-4.8 0-7.6-2.8-5-7.5-7.5-11.8-10.4a23.4 23.4 0 00-7-3.2 4.8 4.8 0 00-6.2 3.3 31 31 0 00-2 7.9 268.5 268.5 0 002 60.7l1 4zm532.7 92.6l-3 1.2c-3.4 1.7-6.8 3.8-10.3 5.2-9.7 3.7-18.6 8.7-27.4 14-3.2 2-3.4 2.4-2 5.9l4.6 9.6c1.8 3.7 3.5 4.2 7.3 2.5l10.2-4.5 25.5-11.4c3.3-1.5 3.6-2.4 2.4-5.2l-7.3-17.3zM268 874.2c.6-.2 1.2-.3 1.5-.6 3.8-5.1 7.8-10.2 11.5-15.4 1.5-2 0-3.3-1.8-4-5-2-10-3.9-14.8-6-3-1.3-5.3-.9-8 .8-4.4 2.7-9 4.8-13.7 7.2-1 .5-2.3.9-2.7 1.7-1.8 3.4-3.2 7-4.8 10.6l10 8.6c3.2-3.5 5.6-7.7 10.5-8.3 5.1-.5 8.8 2.3 12.3 5.5zm657.8-273.8c1.7 2 3.2 3.4 4.3 5.1a453 453 0 0110 17.5c1.9 3.3 2.2 3.6 5.5 1.7l11.2-6.5c4.8-2.7 5.2-4 3.7-9.4l-4.7-17.7c-.9-3.2-1.6-3.7-4.7-2.4-4.1 1.8-8.2 3.8-12.2 5.7l-13.1 6zm-6.7 0c1-5 4.9-6.9 8.5-9 2.7-1.6 5.6-3 8.5-4.3 2.7-1.3 2.1-3.5 1.5-5.4-.9-2.7.1-7-4-7.4-3-.4-6.8-.2-9.3 1.3a31.3 31.3 0 00-15 17.6c-1.7 6.1-1.5 12.4 3 17.3 3.2 3.3 7.2 5.9 11 8.6.9.6 2.2.6 4.5 1.3l-1.8-4.8c-1.4-3.3-3.4-6.4-4-9.8-.5-2.3-.8-4.2-3-5.5zm69.7-62.8a13.3 13.3 0 00-2.7.7 76 76 0 01-21.9 7.2l-17.4 3.5c-3.3.8-5.5 8.2-3.1 10.5a3.4 3.4 0 002.1.8 14.5 14.5 0 003.4-.5c8.1-1.8 16.3-3.5 24.4-5.5 4.8-1.2 9.5-2.9 14.2-4.5 3.1-1 4.6-3 4-5-.8-2.5-2-4.7-3-7.2zM919 47.1l.8.8L940 34.2l-15.3-18.4-5.7 31.3zm-341.8 482c-5.1 7.3-9.6 13.8-13.3 21.6a24.3 24.3 0 004.2 0q11.3-2.5 22.5-5.2c.5-.1 1-.7 1.6-1.3zM947 581.5c3.4-.5 6.8-1 8.1-4.4 1.3-3.3 3.6-5.1 6.6-6.6a58 58 0 0117.8-5.8c3.1-.5 6.3-1 9.4-1.7.7-.2 1-1.3 1.6-2-.6-.3-1.2-1-1.9-1a12.6 12.6 0 00-3.3.6l-34.4 9c-4.1 1-6 1.7-4.5 7a30.8 30.8 0 01.6 4.9zm-165.7 33.2l-.2-.9-.9-.3-25 5.5c-1.8.4-3 1.5-3.1 4.3zm178 24.4h5.2c4.4-.3 5.5-2.1 3.2-5.9a4 4 0 00-3-1.7 44.2 44.2 0 00-6.7 1.5l1.3 6.1zM277 907.8c-2-.2-3.2.7-2.8 2a7.5 7.5 0 005.3 5.4l-2.5-7.4zm-3.6-11.3c-3.8 2.1-3.8 2.1-5 4.6 2.1.7 4.2.8 5.5-1.2.4-.7-.3-2-.5-3.4zM547 470.8l-.8-.9a22 22 0 00-3 3.2c-.9 1.4 0 3.4 1.3 3.3.8 0 1.7-1.1 2-2a15.6 15.6 0 00.5-3.6zm-15.2-62.4c-2-.5-3.8-1.4-4.6 1-.2.6 1 2.2 1.7 2.2 2.3.3 3-1.1 2.9-3.2zm-56.2-24.5a12.3 12.3 0 00-2.8-1.9c-.3-.1-1.5 1-1.4 1.3a5.3 5.3 0 001.7 2.3c.2.2 1.3-.8 2.5-1.7zm488.5 237.5l-5 3.2c4.5.8 4.5.8 5-3.2z"/>
      <path d="M0 838.6c3-.7 5.9-1.3 8.8-2.1 11.7-3.5 23.3-7.3 35-10.5a218.8 218.8 0 0154.4-8.1 320.3 320.3 0 0165.8 5.8c2.2.4 4.3 1 7.3 1.7-1.3 2-2 3.4-3 4.7-5 6.4-10 12.6-14.8 19.1-2.1 3-3.6 6.4-5.2 9.8-.4.8 0 2 .9 3.5l4.8-5 21.8-26.5c2-2.3 4.3-4.3 6.5-6.4 3.9-3.9 7.6-7.8 11.6-11.6a35.7 35.7 0 014.3-3c0 1.9 0 2.7-.2 3.4l-1.1 5.2a34.8 34.8 0 007.2 29c3.1 4.2 3.2 4 .4 8.3l-7 11c-1.5 2.5-.8 4.8.9 6.7 3.5 4 7.2 7.7 11 11.5a21.4 21.4 0 003.4 2.3c-5.3 6.9-8.3 14.1-14.4 20-3.3-2.7-6.6-5-9.4-7.7-5-5-9.6-10.5-14.8-15.3-6.5-6.2-13.4-12-20.1-18a6.3 6.3 0 00-2-1.4c-.7-.2-2-.3-2.2 0a3 3 0 00-.6 2.6 39.7 39.7 0 004.2 6.4l18 20.8c4.8 5.2 9.9 10.2 14.8 15.2a20.6 20.6 0 003.8 3c4.1 2.5 9.1 3.2 13.3-1a64.7 64.7 0 004.5-5.5l5 3.4c2.8 2 5.3 4.3 8.2 6 4.8 2.8 9.6 6.2 16.2 4-.2 1.8-.1 3-.6 4.1a165.3 165.3 0 00-11.8 59c-.3 5.6-.3 11.2-.3 16.9a35 35 0 00.5 5.7c1.1 7 4.7 10.1 11.8 10.4 6.7.3 13.5.5 20.2.9 2 0 4 .5 6.5.8-1 2.5-2.9 2.8-4.3 3.5-8.6 4-17 8.4-24.5 14.4l-7.9 6.4a10 10 0 00-3.4 7.8 38 38 0 004.8-.8l44.2-13.9c11-3.4 22.2-6.8 33.7-8.4 13.6-1.8 27-.6 39.8 4.7a53.9 53.9 0 015.5 3.1 27.7 27.7 0 01-3.5 2c-13.6 4.5-27.3 8.7-40.8 13.5s-27 9.8-40.4 14.9c-32.4 12.1-63.6 27.2-94.7 42.2a1433.1 1433.1 0 00-100.8 54.1 617.3 617.3 0 00-54 36.7C11.8 1202 5.9 1206 0 1210zm104 153.2c.1-4.5-1-5.7-6.5-6.8zm3-3.5l1-.1c.5-2 .8-4-1-5.6l-1.1.3z" class="cls-1"/>
      <path d="M0 1551.5l17-8.3c20.5-10.2 41-20.7 61.8-30.5 19-8.9 38-17.5 57.4-25.5a864.8 864.8 0 01102.7-33.7c21.3-5.4 43-10 64.5-14.8 37-8 74.5-13.5 111.9-19.4 22.9-3.6 45.9-6.5 68.9-9.6 25.2-3.3 50.5-6.6 75.7-9.5 22-2.5 44-4.4 66-6.5 45.3-4.4 90.9-6.8 136.4-8.7 56.4-2.4 112.8-2.5 169.2-2.3 34.3.1 68.6 1.2 102.9 3.5 29.4 2 58.8 4.4 88.1 7 23.8 2.2 47.5 5 71.2 7.5 1.7.1 3.4.5 5.5.8v9h-4c-41.3-4.1-82.7-8.6-124-12.3-24.8-2.2-49.6-3.2-74.3-4.6-53.3-3-106.7-2-160-1.8-42.1.2-84.1 1.9-126.1 4.2a2320 2320 0 00-135.8 11.1c-24.5 2.8-49 5.2-73.5 8.5-40 5.4-79.7 11.3-119.6 17.3-17.2 2.5-34.4 5.2-51.5 8.5q-34.1 6.6-68 14.3c-15.1 3.4-30 7.4-45 11.5a786.2 786.2 0 00-69.6 23.2c-26 10-51.4 21.4-76.5 33.5-22.6 10.9-44.9 22.4-67.3 33.7l-4 1.6z"/>
      <path d="M0 784.4a25.7 25.7 0 003.4-3.3l27.8-39.4a5.3 5.3 0 012.3-2 10.8 10.8 0 01-.5 2.3c-6.7 13.4-13.5 26.7-20 40.2-2.4 4.7-4 9.8-5.9 14.8a3.6 3.6 0 00.6 3.1 34.8 34.8 0 002.7-3.6c6-10.3 11.7-20.8 17.7-31l36.2-62.2c18-30.8 36.6-61.4 53.8-92.7 12.7-23 23.7-46.8 35.5-70.2.6-1.3 1.4-2.5 2.5-4.4l2.1 4.6c.6 1.3 1 3.1 2 3.8 3 2 2 4.2 1 6.7-8 20.2-16 40.4-23.8 60.7-10.8 27.7-21.6 55.5-31.8 83.4-6.3 17.2-11.4 35-17.3 52.3-2.4 7-5.8 13.6-8.7 20.4a14.6 14.6 0 00-1.3 3.1c-.9 5.6-4.6 8.7-9.3 11.4a708.6 708.6 0 00-27 17 121 121 0 00-25 23.2 17.5 17.5 0 01-8.2 5.6c-3 1-5.9 1.7-8.8 2.6z" class="cls-1"/>
      <path d="M0 653.8a12.1 12.1 0 001.8-2.7l19.5-56.6 2.3-6.6c1.2 1 2 1.4 2.3 2 6.9 15 17.8 27.1 28.2 39.6 6.8 8.2 13.2 16.6 19.8 25 1.4 1.8 2.7 3.6 4.2 5.3 1.8 2 2 3.6.5 6-5.5 8.9-10.8 17.9-16.2 26.8-2 3.5-4.2 7-6 10.4a10.5 10.5 0 01-5.3 4.6 18 18 0 00-6.7 5.3A841.8 841.8 0 0026 738.3c-7.6 10.8-15 21.7-22.5 32.5-.9 1.2-2.4 2-3.5 3z" class="cls-1"/>
      <path d="M309.2 80.6c4.5 1.2 9 2.2 13.5 3.5 3.4 1 3.8 1 5.2-2 7.9-17.8 26.1-19.3 38.1-13.5a58.1 58.1 0 019 5.7c2.2 1.6 2.4 4 1 6.4-1.7 2.6-4 3.6-6.6 2.4a28 28 0 01-3.6-2.4c-5.9-4-12.2-6.4-19.5-5.4-6.5.9-9.9 3.8-11.1 10.2l-.8 5.3c-.6 3.8-6.5 7.7-10.6 5.3a79 79 0 00-8.4-3.6A28.4 28.4 0 00302 91a8.6 8.6 0 00-7.8 5.6c-1.7 4.3-2.7 8.9-4 13.4-.4 1.5-.4 3.1-1 4.7-.5 1.7-1.5 3.3-3.7 3-2-.3-2.3-2.1-2.5-3.7a32 32 0 014.4-19.9c4.9-8.3 11.8-13 21.8-13.5zM138.4 94.3c4.5.3 8 .3 11.5.8 4 .6 5.5 2.4 4.9 5.2-.8 3.4-5 6.3-8 5.2a45 45 0 00-26.5.4c-6.2 1.5-9 5.7-9 12a40.2 40.2 0 001 8.6c1.5 6.8-1.8 11.3-8.8 11.5-3.3.2-6.5.2-9.7.6-5.3.6-9.1 3.3-11.2 8.6-1.6 4.3-3.6 8.5-5.6 12.7-.9 2-1.9 4.4-4.5 3.3s-1.6-3.6-1-5.5a133.3 133.3 0 015.5-14.4 23.7 23.7 0 0119-14l2.4-.3c4-.7 4.2-.8 3.9-5-1.2-14 9-25.6 23.2-28.2 4.5-.9 9.2-1 13-1.5zM61.5 335.7h-4.6c-8.4.2-12.2 3.6-13.6 12-.3 1.6-.3 3.2-.7 4.8-.6 2.8-2 4.5-3.8 4.2-2.4-.4-2.9-2.3-3.2-4.3-.8-6 1-11.2 4.6-15.8 4.1-5.4 9.3-9.2 16.5-10 5-.4 5-.7 5.3-6 .8-11.2 9.2-19 20-18.6a18.7 18.7 0 0111.8 5.1c2 1.9 2 5 .2 7.4s-4.9 2.9-7.1.9a14.4 14.4 0 00-9.2-3.9c-4-.2-6.2 1.4-6.5 5.4a19.2 19.2 0 00.8 7.6c2.5 7.3-.6 11.7-8.3 11.4l-2.2-.2zM632.5 1548.3a35.6 35.6 0 01-3.4-2.7c-9.2-10-20.5-17.5-31.3-25.6l-13.2-9.7c-1-.8-2.4-1.6-1.7-4 5.8 2.1 9.9 6.5 14.7 9.8 5 3.5 9.8 7.2 14.7 11a128.5 128.5 0 0014.9 10.2l-2.3-3.7c-3.1-4.3-6.4-8.4-9.4-12.8a27.5 27.5 0 01-3.4-6.9 6.7 6.7 0 01.8-5c1.3 2.7 2.2 5.6 3.8 8 3.5 5.2 7.3 10.2 11 15.2l4 5.5c1.8 2.3 3.8 4.5 1.2 7.5-.4.5-.2 1.5-.4 3.2zM111.9 1329c.6-2 2-1.7 3.3-1.5 8.9 1.5 16.1 6 22.2 12.5l1.7 1.6.9.2c-.6-6.4-6.7-10.8-5.8-17.5 4.5 6.7 9 13.3 10.7 21.4l-5.9.4c-4.3-3.9-7.8-8.2-12.3-11s-9.7-4-14.8-6zM348.8 1503.1a11.4 11.4 0 01-9.6-7.1 30.2 30.2 0 011.3-29.2 14.7 14.7 0 0111.7-7.1c-7.5 5-12.6 11.3-13 20.7-.2 9 2 16.8 9.6 22.7zM1110.5 1322.8c.4 2.2-1.2 3-2.3 4a65.8 65.8 0 00-13.8 16c-1.8 3.2-3.2 6.6-4.8 10l-1.4 2.8a5.3 5.3 0 01-.4-6.3c2-4 3.9-8.1 6.6-11.6a154.8 154.8 0 0111.6-12.9c1.1-1.3 2.5-2.6 4.5-2zM1041.6 1127.9c-2.4-1.1-2.6-3.3-3-5.6l-1-7.3c-4 4.6-1.2 9.5-3.1 13.9-.8-.7-1.5-1-1.6-1.4a29.3 29.3 0 011.6-17c1.4-2.7 3.1-4 6-3.3l1.1 20.7zM467.7 1380.2c-1.7-6.7-8-8.6-12.2-12.8 2.5-2.6 3.6-.1 5 .6l5.2 2.5v-7.7c2.1 1.8 5.6 9.6 7 15.5zM1080 1361a95.4 95.4 0 01-7-29.5c-.1-2.3-.1-2.3 1.5-5.1.6 1.2 1.3 2 1.3 3a91 91 0 005.2 25.9c.6 1.6 1.4 3.7-1 5.6zM1074.6 1365.7c-.7-.6-1.3-.8-1.4-1.2a54 54 0 00-13-20 66.1 66.1 0 01-4.3-5.1 15.6 15.6 0 01-1.3-3.6c1.2.1 1.9 0 2 .3 5.3 6.4 10.7 12.7 15.7 19.4 1.6 2 2.2 4.9 3 7.4.3.7-.4 1.7-.7 2.8zM677.2 1510.8c-11 6-21.5 12.9-29.5 23.3 1.8-9.1 16.4-20.8 29.5-23.3zM1060 958c1.1.9 2.2 1.2 2.5 1.9 2.9 8 7.3 15.5 8.3 24.8-4.3-1.7-3.6-5.5-4.8-8.1-1.3-3-2.4-6-3.4-9s-3-5.6-2.5-9.5zM355.9 1506.6a44 44 0 01-3.7-20.5c.2-3 .2-3 3.3-6.2-1.4 9 1.8 17.4.4 26.7zM1050.4 1121.8c-3.8-7.5.5-23.3 7.4-29.4-2.2 5.6-4.4 10.1-5.6 15s-1.2 9.6-1.8 14.4zM364.5 1501c-4-6.7-.6-17.8 6.6-22.6-1.6 3.6-3.4 7-4.5 10.7s-.4 7.8-2 11.9zM1079.4 957.3c-.6 3.8-1.5 7.6-2 11.5s-.3 7.8-.4 12.4c-3.9-5.1-2.9-18.8 1.3-24.1zM975.7 861.3c6.4 4.3 9.7 11.4 7.9 16.3l-7.9-16.3zM1057 968.7c3.3 4.4 4.2 9.5 6 14.3-2 1-3 .1-3.5-1-1.3-4-2.3-8-3.4-11.9 0-.2.4-.5 1-1.4zM476.3 1376.9c-2.7-5-.7-11.9 4.7-16.3l-4.7 16.3zM152.7 1321.7c-1.5 4-3 7-3.5 10s-.3 6.2-.5 10c-3.4-6.4-1.9-14 4-20zM647.7 1106.1v10.1c-2.4-2.8-2.6-5.8 0-10zM636.5 1120l-2.2-8.2 1-.2c.9 2.7 3.8 4.8 1.2 8.4zM1002.2 861.8l-2.7 6.9c-1.6-4.1-1.3-4.8 2.7-6.9zM989.9 870.5c-1.6-2.2-1.9-4.4 0-6.7zM1107.3 657.8l1-4.1c.8 1.2 1.2 1.6 1.2 2a17.4 17.4 0 01-.9 2.4zM774.5 842c-1.8-1-3.6-2-2.6-5.2l2.6 5.2zM768.4 842.8l-.8.9a8.4 8.4 0 01-1-.8l.6-.8a3.9 3.9 0 011.2.7z"/>
      <path d="M514.1 439.4a33.8 33.8 0 01-2.3-4c-2.5-6.3-7.7-10-13.6-12.3-10.5-4.1-18.6.2-23.2 11.6a45.5 45.5 0 00-2.8 17.5c0 12.5 0 24.9.6 37.3.4 7.5 1.9 15 2.9 22.5l.8 7.5c-2-1.1-3.2-1.5-4-2.3-13-12.7-25.1-26-33.9-42a50.7 50.7 0 01-5.6-38.7 47.4 47.4 0 016.1-13 162 162 0 0124.8-29c2.4-2.2 4.7-4 8.5-3.2 4 .8 8.7-6.3 7-11a4 4 0 00-3.4-2c-2.9.5-6.3-2.5-8.6.8-.8 1.2-.7 3.2-.5 4.7.2 2.4-.8 3.8-2.7 5.1a112.2 112.2 0 00-38.4 44.4 43.6 43.6 0 00-3.1 15.5c-.8 13.5 3 25.9 10 37.2a193.3 193.3 0 0035.8 42.2 19 19 0 009.3 5c5 .9 5.7 1.7 5.7 7.1 0 8.7-.2 17.4.1 26.1.3 10 .9 20 1.5 30a5.4 5.4 0 01-2 5L458.9 622a5.8 5.8 0 01-6.6 1 61.9 61.9 0 00-32.3-4c-7 1-13.6 3.6-20.5 5.4a51.8 51.8 0 00-33.8 29.5c-2.5 5.2-3.8 11-5.3 16.5-1.3 4.5-1.1 4.7-5.5 5.3l-53.6 7.8c-1.7.3-3.4.3-6 .6a27 27 0 011.8-4 381.7 381.7 0 0037.4-66.3l19.8-42a35.8 35.8 0 015.8-8.5 31.8 31.8 0 01-1 3.6c-4.5 11-9.1 22-13.4 33.2-2 5-3.3 10.4-5 15.6a11.8 11.8 0 000 2.6c3.4-3.4 4.8-7.1 6.4-10.6l23.9-52.9q14.2-32.2 25.7-65.6a986 986 0 0111.1-31.4c.8 1.6 0 3.1-.3 4.7l-11.5 45.4a27.3 27.3 0 00-.4 4.4l1.2.4a43.4 43.4 0 003.1-5.7c3.1-8.5 6.3-17 9-25.5 4.7-14.2 9.1-28.5 13.6-42.8 4.2-13.4 8.2-26.8 12.6-40q8.2-25 16.8-50l15.2-42.2 19.4-54c3.5-9.8 7-19.4 10.7-29a24.3 24.3 0 011.5-3c2.9.7 3.7 3 5 4.7l9.6 15c1.2 1.9 2.3 4.2 5.1 3.6a7 7 0 005.5-5.5 30.8 30.8 0 00.4-4.3c.5-4.4 2.7-5.5 6-2.8 3.1 2.5 6 5.4 8.9 8.2a80.8 80.8 0 006.1 5.4c4.6 3.4 9.7 5.2 15.5 3.7a8.5 8.5 0 018.1 1.8q7.8 6.8 15.4 13.8c1.7 1.6 3 3.5 4.5 5 5.6 5.8 9.5 6.2 16.6 1.4a31.3 31.3 0 013.3 3.7c9.7 15 19.2 30.2 29 45.2 9.4 14.6 19.1 29 28.6 43.6l28 43.5c1.6 2.5 1 4.5-.5 6.7-5.8 8-11.5 16.3-17.3 24.4L627.8 505l-25 35c-2.6 3.6-3.3 3.6-5.9 0-3.8-5.2-7.4-10.5-11.3-15.6-2-2.7-2-5-.2-7.9 4.1-6 8.1-12 11.9-18.2a49.2 49.2 0 007.6-18.1 19.6 19.6 0 000-6.2c-.8-4.4-2.8-6-7.3-6.2s-8.5 1.5-12.4 3.6c-7 3.7-12.8 9.1-18.2 15s-5.4 5.8-11.3.5c-3-2.7-4.3-5.4-3.2-9.6a21.2 21.2 0 00-.6-13.4c-1-2.3 0-4.3 1.1-6.3 5.1-9.4 9.4-19.1 11.8-29.5a44.9 44.9 0 00.8-13.4c-.5-6.5-4.5-9.3-11-8.3a32.3 32.3 0 00-13.3 5.5 40.1 40.1 0 01-4.8 2.4l-.8-.8 1.4-4.8c.6-3-.3-4.4-3.2-4.8a31.5 31.5 0 00-5.8.2c-4.9.2-5.8 7-3.9 9.8 1.3 2 3.3 1.8 5.2 2.1 2.6.5 3.2 2 1.5 4q-7.3 9.3-14.9 18.4c-.3.3-.9.4-1.9 1z" class="cls-1"/>
      <path d="M462.8 628.7c4-7.2 53.9-46.1 61.2-47.8l1.4 2.8a60.7 60.7 0 005 7.6 16 16 0 0017 5.3c3-.7 6-1.5 8.9-2.4 10-3.2 16-1 22.3 7.3 4.7 6.2 7 12.6 4 20.2a1.1 1.1 0 00-.2.5c.2 4.8-2.3 7.1-6.4 9.3a27 27 0 00-11.3 14c-2 4.6.3 8.2 5.2 8.6a20 20 0 007-1 29 29 0 005.7-2.7c9-5 17-3.2 24.7 2.8 1.6 1.3 3 2.8 4.8 4 3.5 2.3 8.8 2.2 11.9-.2 3.5-2.8 5-6.6 3.7-10.8a13.8 13.8 0 00-4.7-6.4c-2.6-2-4.3-4.2-4.2-7.5.2-7.3 0-14.5.7-21.7 1-10.2 3.6-20.3 3-30.7-.1-2.6-.3-5.2-.6-7.7a20.7 20.7 0 00-11.6-16.8 5 5 0 01-2.3-2.4 25.5 25.5 0 013.8-.6 108.8 108.8 0 0150.7 12.2 7.7 7.7 0 014.5 5.4c1.8 8 3.9 16 5.5 24 1.8 9.1 3.5 18.3 4.5 27.6a181.3 181.3 0 01.5 22.1c0 6.3-.8 12.5-1 18.8-1.3 27-7.1 53-14.8 78.7-2.4 8.1-5.4 16.1-8.4 24.1-6 16.2-6.8 33-5.9 50a113.8 113.8 0 008.3 37 80.9 80.9 0 003.5 7.5 5.4 5.4 0 010 5.9c-1.5 2.3-2.7 4.7-4 7.1a28.5 28.5 0 01-10.6 11 101.6 101.6 0 01-36.3 14c-16.4 3-32.9 6.3-49.4 8.7-8 1.2-16.4.6-24.6.6-2.9 0-5.7-1-8.5-1.6-2.2-.4-3-1.8-2.7-3.8.3-2.6.8-5.1 1-7.7 1.2-14.3 1.8-28.7 0-43a108 108 0 00-7.2-25c-4.8-12.4-12.6-22.8-20.4-33.2-13.2-17.9-26.8-35.5-40.2-53.2l-2.5-3.6c-2.4-4-2.3-4.2 1.4-7a115 115 0 009.8-7.7 50.3 50.3 0 0014.3-24.3 79.8 79.8 0 00-2-48.4 40.9 40.9 0 00-9.5-15l-5-4.9z" class="cls-1"/>
      <path d="M515.1 909.6c-3.8.8-4.4 3.2-5 5.2-3.1 9.4-6.1 18.7-9 28.1-4.4 14.5-8.6 29-12.9 43.6a8.4 8.4 0 01-5.7 6l-50 17.6c-6.3 2.2-12.6 4.2-18.9 6.2-4.6 1.5-5 1.2-7-3l-18-37.5c-1.9-3.7-4.2-7.1-6.7-11.2-3.4 3.7-7.7 2.7-11.4 3.7-6.5 1.8-13 3.6-19.2 6.5-12.2 5.6-24.1 12-36.2 18a29.7 29.7 0 01-3 1 17.2 17.2 0 011.3-3.3c3.4-4.4 4.4-9.6 5.3-14.9.6-3.8-1.4-6.8-3.6-9.7l-15-20.1a27.3 27.3 0 01-4.6-12 55.3 55.3 0 00-9.3-20 60.4 60.4 0 00-4.7-6c-2.6-3.2-2.5-4 1.6-6.9l4 3.2a45 45 0 004.7 3.4c4.7 2.7 8 1.7 11-3l22.6-36 2-2.6 5.3 2.2c5 2.5 10 5.3 15.1 7.4a65 65 0 0013 3.9c3.6.7 6 1.8 7.4 5.6A33.6 33.6 0 00379 899a33.4 33.4 0 0037.3 1.5 62 62 0 0026.1-33.1 56 56 0 002.6-29.5 17.6 17.6 0 010-2.9 33 33 0 014.4-1.2l49.8-6.7c7.5-1 7.5-.9 10.5 6a90 90 0 017.7 35.1l.8 32.4c0 2.1-.2 4.3.5 6.2a11.2 11.2 0 003.8 4.7c2.1 1.6 2.8 3.1 2 5.7-4.2 14-8.2 28.2-12.2 42.3l-5.5 19a18 18 0 01-1.6 4.5 17 17 0 00-2.2 9.7c0 2.6-1.1 5.3-2 8-2.6 9-5.4 18-8 27.2l-10.8 39.6-13.4 49c-3 11.3-6 22.7-8.8 34-1 4.4-1.7 8.9-4.7 12.8-2-1-3.8-2.6-4.2-4.7-1.2-6.2-5.5-10.9-7.8-16.5-2-4.9-3.4-10-5.9-14.7-6-11.5-12.3-23-19.1-34.1a264.5 264.5 0 00-28.2-38 109.8 109.8 0 00-39.2-29.3 81.5 81.5 0 00-46-4.5c-11.8 2-23.2 5.6-34.5 9.4l-31 10.5c.3-2.7 2-3.5 3.6-4.3 7-3.7 13.9-7.6 21.1-10.6a361.2 361.2 0 0046.2-23 379.7 379.7 0 0158.1-28.4c3.1-1.2 6.2-2.6 9.6-4.1l2 3.5 17.7 41.2a12 12 0 011.2 2.7c1 6.8 4.8 12.5 7.3 18.7s5.4 12.4 7.9 18.7l24.2 61.6c3 7.7 6.9 15 12.4 21.2a10.8 10.8 0 001.7 1.6 5.2 5.2 0 001.5.5 5 5 0 002.5-4.8c-.4-6.8 2.2-13 3.7-19.4 3-12.5 6.3-25 9.6-37.4 3.4-12.7 7-25.4 10.6-38.2l11.5-41.9c3.5-12.3 7.3-24.6 10.7-37 4.3-15.5 8.4-31 12.5-46.6.4-1.6.1-3.5.2-5.9zM417.8 338.9a44.3 44.3 0 013 4l14 24.3c1.2 2 1 3.9.3 6l-9.3 28.9c-3.9 12.1-7.6 24.2-11.4 36.4-.6 1.8-1.3 3.6-1.7 5.5-.7 3.1-1.5 5.6-5.4 6.4-1.9.4-3.7 3.1-4.6 5.2-3 6.6-5.6 13.4-8.2 20.1L374.1 531a16.5 16.5 0 01-4.3 6.2 67.7 67.7 0 00-9 10.7c-10 14.7-17.5 30.7-25 46.8-9.7 21-19.2 42.2-30.8 62.3-4.6 8.1-10.4 15.5-15 23.6-2.5 4.3-5.8 5.8-10.4 6.6a390.7 390.7 0 00-55 13c-14.2 4.5-28.2 9.8-42.3 14.8-1.4.5-2.9.8-4.4 1.1l-.6-.8c1.4-2.8 2.9-5.5 4.2-8.4 5-10.6 9.9-21.3 15-31.8 2-4.4 4.6-8.5 6.9-12.8 13.4-25.3 27-50.5 40.1-76 11.7-22.4 22.5-45.2 34.4-67.6 11-20.6 22.6-40.8 34-61l26-44.8a16 16 0 002.5-6.7c.1-3.6 2-4.6 5-5.5a167 167 0 0016-5c19.6-8 35.9-20.3 47.6-38 3-4.5 4.8-9.8 7.1-14.8.5-.9.8-1.9 1.7-4zM371.8 830.1c-2-.9-3.7-1.4-5.2-2.3-17-9.6-35.2-16.7-53.5-23.5-16.3-6-32.8-11.5-49-17.7a67.8 67.8 0 00-27-4.2 42.3 42.3 0 00-27.8 10.8c-1.6 1.5-3.8 2.4-5.6 3.7-2.9 2-5.9 3.9-8.6 6.2-4 3.3-7.7 6.8-11.5 10.3a8.5 8.5 0 01-7.9 2.3c-11.7-2-23.5-4.3-35.3-5.5a238.7 238.7 0 00-71.3 1.9c-13.2 2.7-26.3 6.3-39.4 9.5a6.6 6.6 0 01-4.2-.2l3-3.3c10-9.5 21.5-16.5 33-23.6 13.7-8.7 27.4-17.4 40.9-26.6 14.9-10.1 29.6-20.6 45.4-29.2a373 373 0 0155.8-24.3 471.7 471.7 0 0181.4-20.6c22.7-3.7 45.5-7 68.3-10.4 5.1-.8 5.5-.4 5.4 5 0 8 1.2 15.7 4.9 23a46 46 0 0018.2 18.8l4.2 2.4c2 1.1 2.8 2.7 2.3 5.2a666.5 666.5 0 00-10 81.5 9.7 9.7 0 01-1.4 4.4 79.7 79.7 0 01-5 6.4zM666.5 866.8l4.3 3.3 36.3 28 16.2 13 18.5 14.7 55.2 43.3c4.8 3.8 9.8 7.3 14.7 10.9l6.6 4.9c5 3.6 7.4 8.8 6.4 14.7-1 6.5.9 12.5 1.5 18.7l.7 5.2c.8 7.9 1.1 15.8 2.4 23.5a317.7 317.7 0 0011.2 46 145.3 145.3 0 0057.4 77.9c10.2 7 20.8 13.4 31.5 19.7a676 676 0 0069.2 35.4 157.7 157.7 0 0025.6 8.7l5.1 1.5a8.1 8.1 0 01-5.3 2.5c-8.9 1.4-17.8 3.2-26.7 4a909 909 0 01-141 1c-5-.4-5-.4-6.7-5.3a542.8 542.8 0 01-18-70.7c-2.5-13.7-5.2-27.5-7.3-41.3a1021.7 1021.7 0 01-7.9-75.4c-.8-17.7-1.1-35.4-1.6-53.2a6.3 6.3 0 00-2.8-5.2L798.2 982a10.8 10.8 0 01-2.2-1.9c-6.8-9-16.4-15-25-22q-20-16-40.3-31.5c-4.6-3.6-9.6-6.5-14.4-9.8-2.3-1.6-5.1-3-6.8-5.3-5-6.3-12.1-9.4-18.3-14-8.3-6-17.4-11-26.1-16.4l-2.5-1.6c-2.9-2-3-2.3-1-5.3l5-7.5zM734 452.4c-3.7-2-5.7-.2-7.3 2.2-3.5 5.4-7 10.8-10.2 16.3a503.6 503.6 0 00-26.6 53.7c-1.7 3.8-4 6-8.3 7a97.5 97.5 0 00-19.1 6.5c-4 1.8-7.5 5-11 7.7-1.6 1.3-3 2.4-5.1 1.7a98.2 98.2 0 00-31-3.7l-5.7-.3c1.2-2.2 1.9-3.8 2.8-5l27-37.7 59-82.5c13.2-18.4 26.6-36.7 39.8-55.2q25.2-35 50.2-70.3c4.3-6 8.7-12 12.8-18.2 1.9-2.8 3.9-3.7 7.3-2.8 6.5 1.7 13.1 3 20.3 4.5a9.1 9.1 0 01-3.4 9.5 38 38 0 00-10 12.7c-11.7 20.8-23 41.7-34.5 62.7-6.6 12.1-13.2 24.2-19.5 36.6-8.6 16.6-16.7 33.4-25 50l-2.6 4.6zM84.7 771.6a27.1 27.1 0 01.7-3.6c9.2-24.8 18.5-49.8 27.9-74.6 7.5-19.9 15.3-39.6 23-59.4l37.2-96.4a472 472 0 0015.4-46.8l1.1-3.8a20.8 20.8 0 011.3 3.6c1 10.2 2 20.5 3.3 30.7 2.2 17 4.4 33.9 7.2 50.7 2.9 17.7 6.5 35.2 9.8 52.8a14.9 14.9 0 01-1.5 10.2 2254 2254 0 00-21.9 42c-4.6 9.1-8.7 18.6-13.2 27.9-2.4 4.9-5.3 9.5-8 14.3a14.1 14.1 0 01-6.9 5.8 352.1 352.1 0 00-55.6 33.7Q97.1 764 89.6 769c-1.2.9-2.7 1.5-5 2.7zM543.1 536c-3.8 4.8-7.6 9.4-11 14.2a46.4 46.4 0 00-8 18 8.3 8.3 0 01-2.7 4.7c-9.2 6.8-18.6 13.4-27.8 20l-2.1 1.2a14.4 14.4 0 01-.8-3.2c.3-18.6.8-37 .8-55.6 0-14.6 1.5-29 5.8-43a111 111 0 017-16.8c2.6-5.3 6.8-7.1 12.5-5a52.6 52.6 0 0113.5 7.2c7.3 5.5 14.2 11.7 21 17.7 3 2.7 2.8 4.2-.3 6.6-1.7 1.3-3.6 2.2-5.2 3.5-.7.5-1.3 2-1 2.4.6.7 1.9 1.6 2.6 1.4a13.8 13.8 0 005.7-2.5c6-5.1 11.6-10.6 17.4-16 4.1-3.8 8.1-7.8 12.6-11.2a33.2 33.2 0 019.5-4.6c3.8-1.3 6.1.6 5.4 4.6a30.4 30.4 0 01-3.4 10.5c-6 9.9-12.4 19.5-18.6 29.3-6 9.2-11.9 18.4-17.7 27.7a17.2 17.2 0 00-2.2 5.3c-.9 3.8.5 6 4.4 6.5a64.5 64.5 0 009.7.5c6 0 11.9-.5 17.8-.4a52 52 0 0112 1.7c10.4 2.8 14.6 8.4 15 19.1.4 8.8-1 17.4-2.2 26-.8 5.6-1.3 11.2-1.9 16.8a29.2 29.2 0 007.7 22.2c2.3 2.7 2.7 4.5 1.2 5.3-2.2 1.2-3.5-.7-4.9-2-8-7.1-17.2-10-27.7-7-2.4.6-4.7 2-7 3a30 30 0 01-4.4 2c-1 .2-2.5.2-3-.4a3 3 0 01.2-2.9c2.1-2.4 4.2-5 6.8-6.7 3.2-2 5.5-4.2 6.3-8a31.2 31.2 0 012.4-6.8c4.6-9.6 1.4-17.8-4.4-25.6-6.9-9.2-15.8-11.5-26.6-8.5a54.2 54.2 0 01-8.9 2c-8.3.8-15.3-5-16.6-13.2a31 31 0 017-24.8c4.4-5.6 9.5-10.6 14.2-16a12.3 12.3 0 002.8-4.7c.6-2.8-.7-4.1-3.5-3.7a24.4 24.4 0 00-6.8 2.3c-3.9 1.9-4.2 3.2-2.6 7z" class="cls-1"/>
      <path d="M422.7 729.4a62.5 62.5 0 01-34-7.5 41.5 41.5 0 01-20-25.5 59.3 59.3 0 014.4-42.3 23.5 23.5 0 016.2-7.8 72.8 72.8 0 0134.4-17.7 54.7 54.7 0 0130.9 2.7c9.3 4 18 9.4 22.3 19.4a14.2 14.2 0 002.1 3.2c5.3 6.6 6.8 14 5.3 22.3-.8 4-1 8.3-1.5 12.4a46 46 0 01-10.3 25.6 32 32 0 01-15.5 10.3 23.6 23.6 0 00-3.1 1.2 39.8 39.8 0 01-21.2 3.7zM654.9 549.8a49 49 0 014.7-3.5 66.7 66.7 0 0119.6-6.4 102.5 102.5 0 0125-1.9 55.8 55.8 0 0131.6 11.9 18.2 18.2 0 015 5.1c4 7.3 8.3 14.6 10.4 22.8 2 7.6 1.4 15.3.7 23-.6 8.1-4.8 14.9-8.9 21.6a24.4 24.4 0 01-5.4 6.1 51.9 51.9 0 01-30 13.8c-6 .3-12 .9-17.9 1.1-3.6.2-4-.3-4.4-4a21.6 21.6 0 01-.2-4.9c1.2-10.5-1.3-20.4-3.7-30.4a64.1 64.1 0 01-1.7-11 56 56 0 00-4-16.8 50.2 50.2 0 01-2.7-9.7 14 14 0 00-5.7-9.1c-2.7-2-5.7-3.6-8.6-5.4l-3.8-2.3zM513.9 979.9l2.3-9.5c4.7-17.2 10-34.3 12.7-52 .4-2.3 1.3-3.5 3.8-3.1 18.7 2.4 37-1.2 55.2-4.6q15.9-3 31.5-7.3a72.5 72.5 0 0032-18c4-3.8 4-3.7 8.3-.4l25.6 19 5.4 4.5c-1.7 1.2-2.8 2.3-4 2.9-17.5 7.4-35 14.8-52.6 22q-31.5 12.8-63.2 25.2c-17.3 6.9-34.8 13.5-52.2 20.2a42.3 42.3 0 01-4.8 1zM260.7 883.7c-.7 2.4-4 3.6-2 6 1.3 1.5 3.3 2.4 5.3 3.8l-3.1 3.2c-3 3.3-2.7 6.5 1 8.7 3.1 1.9 5.5 4 6.1 8 .4 2.4 2 4.8 3.4 6.9 8.9 13.4 17.7 26.9 26.8 40.1 3.1 4.5 7.1 8.3 10.7 12.5l2.6 2.8c2.2 2.8 2.2 3.4.2 6.4a54.4 54.4 0 01-14.5 15.3 68.4 68.4 0 01-41 13.5c-6-.2-12.1-1.7-18.1-2.8a5.9 5.9 0 01-4.6-4.5 26.4 26.4 0 01-1-6.2c-.3-13.5 1-27 2.8-40.4 2.2-16.6 8-32 15-47.2a26.5 26.5 0 013.2-4.7c3.3-4.3 3.6-8.6.7-13.4a6 6 0 01-.8-2.6 33.8 33.8 0 010-6.2c.1-1.3.7-3.2 1.6-3.6s2.7.5 3.7 1.3 1.4 2 2 3zM435.9 824.4a14.2 14.2 0 01-2.5-.7 67.2 67.2 0 00-33-5.3c-5.1.2-10.2 0-15.7 0 0-2.2-.2-4 0-5.6l4.9-44.7c1-9.3 1.8-18.6 2.6-27.9.4-4.4.7-4.5 5-3.5a87.5 87.5 0 0038.8.4c5-1.2 6-.4 5.7 4.9l-3.3 40c-1.1 13.3-3.3 26.5-2 40a9.3 9.3 0 01-.5 2.4zM450.5 1120c-1.4-2.9-2.4-4.8-3.2-6.8-4.5-11.6-8.8-23.2-13.4-34.7-6.5-16.3-13.3-32.5-20-48.7-2-4.8-1.5-5.7 3.4-7.3l60.6-21 5.4-1.7a45.4 45.4 0 01-.8 5.6c-2.1 8-4.4 15.8-6.6 23.7l-15.5 56.8c-2.7 10.1-5.2 20.3-8 30.4a23.6 23.6 0 01-2 3.7zM373.5 861.6v-16.3a11.6 11.6 0 010-1.5c.9-5.8 9-15 14.8-15.4a127.7 127.7 0 0123.6.1c4.8.6 9.2 3.5 13.8 5.4 1.2.5 2.3 1.3 3.5 1.7 4.7 1.7 6.7 5.2 7.2 10a49.1 49.1 0 01-17.7 44.6c-14.6 12.3-36.5 5.6-43.4-12.9a21 21 0 01-1.6-5.5c-.3-3.4-.1-6.8-.1-10.2zM595 261.1l-3.6-3.7-17-14.9a11.4 11.4 0 00-10-2.6c-5.7 1.2-10.2-.8-14.3-4.3-3.2-2.6-6-5.8-9.2-8.5a37.8 37.8 0 00-7.5-5.2c-4.9-2.4-9.4-1.3-13.2 2.6a25 25 0 00-2.2 3.4l-4.2-4.4c-2.8-3.3-5.3-7-8.4-10-2.8-2.5-2.9-5-1.6-8q5-11.6 9.7-23.2l11.3-27.8c.5-1.3 1.2-2.5 2.2-4.6a49.7 49.7 0 013.3 4c5.5 8.7 10.9 17.5 16.5 26.2l42.4 64.6 5.5 8.5c1.6 2.3 1.8 4.6.3 8zM278 809.5l4.6 2 27.3 14.3c2.6 1.4 5 3.1 7.5 4.5a89 89 0 009.8 5c4.9 1.8 5.9 3.2 3.7 7.8-3.7 7.6-7.6 15.2-11.8 22.6-5.8 10.3-11.9 20.3-17.8 30.5-2.4 4.2-3.5 4.4-7.4 1.4-6.5-5-13.2-9.8-19.7-14.7a11.2 11.2 0 01-1.5-1.5 22.5 22.5 0 011.4-2.5l17.2-23.3c1.7-2.3 1.2-4.4-1.6-6-4.6-2.3-9.3-4.4-14-6.6l-3-1.3c-4.4-2.2-4.8-4.2-1.7-7.8a27.2 27.2 0 006.6-21.5 15 15 0 01.4-3zM203 825c1-5.7 2-11.4 3.4-17 1.2-4.7 4.2-8.2 8-11.2a18.6 18.6 0 0115-3.8 68.8 68.8 0 0134.1 15.8 16 16 0 01-.2 24.2l-9.1 8.6a33.5 33.5 0 01-4.6 3.4c-6 3.7-12.8 5.2-19.7 6-8.7 1.1-14.9-3.7-19.9-9.8-3.7-4.5-7.2-9.6-7-16.2zM770.9 874.3l-12.5 6-31.4 13.6c-3.7 1.6-6.5 1.4-9.8-1-15.8-12.2-31.9-24-47.8-36a24 24 0 01-9.7-19.2c1.3-1.6 3-.6 4.4-.2l25 7.2c11.5 3.3 23 6.4 34.4 9.8a330.8 330.8 0 0144.4 17.8 27.7 27.7 0 013 2zM873.6 564c0 5.5-2 10.7-4.6 15.8a6 6 0 01-1.3 2c-7 5.8-13.4 12.6-22.9 14.4-12.8 2.5-28.6-7.5-30-19.6a39 39 0 011-12.9 66 66 0 0111.8-26.7c1.7-2.3 3.6-3.6 6.5-2.8 12.5 3 24.3 7.6 34 16.3 4.5 4 5.8 7.2 5.5 13.5zM813.2 596.7a20.3 20.3 0 01-3.8 1.9c-16.9 3.7-33.6 8.3-51.2 11.5 1-6 2.5-11 2.9-16.2a82.2 82.2 0 00-.4-16.4c-.7-5.1-2.3-10.1-3.5-15.1 10.2-2.9 20.1-5 29.6-8.4s18.6-7.7 29-12.1l-3.7 9.2a65.9 65.9 0 00-5.8 27.2 25.6 25.6 0 005 15.3l1.9 3zM500.9 817.6c-4.5 2.2-51.8 8.6-57.8 8a18.2 18.2 0 01-.3-3.6l3.5-39c.7-9.3 1.2-18.7 1.8-28a14.8 14.8 0 011.3-5.1c18.1 21.9 35.5 44 51.5 67.7zM924.4 565.7l-1.3 1.4c-6.8 3.4-10.4 9.9-15.4 15a30.3 30.3 0 00-8.2 19.6c-.1 1.4-.4 2.8-.7 4.8-12-3-23.6-5.7-35.5-9.9a52.6 52.6 0 0019.7-43.3zM1016.7 587.3c-.7 2.6-1.6 4.4-3.9 5.7a133.7 133.7 0 01-38.6 13.4c-2.5.5-4.4 0-5.4-2.6l-8.3-21.7c-1-2.7-.3-4 3-4.7 8.6-2 17.3-3.7 26-5.7 5-1.2 10.2-2.5 15.2-4.2 4.3-1.3 5-1.5 6.5 2.9 2.1 5.5 3.7 11.3 5.5 16.9zM511.1 460.8l2-4.6c4.4-8.7 9-17.1 15.2-24.6a57 57 0 0119.4-16.2 23.2 23.2 0 016.5-1.7 3.3 3.3 0 014.1 3.1c.3 3.2.7 6.5 0 9.5a145.6 145.6 0 01-5 16.1A130.7 130.7 0 01541 468c-2.5 4-2.6 4-6.8 1.5-6.9-4.2-13.7-8.5-22.5-7.4z" class="cls-1"/>
      <path d="M297.4 809l12.6 4.2 39.1 15.1c3.5 1.3 7 2.3 10.5 3.5a13.3 13.3 0 018.3 13.8l-2.4 22c-.4 3.6-1.1 4.3-4.6 3.2-3.7-1.1-7.3-2.6-10.9-4l-18.8-7.4 2-5 7.5-17.7c.8-2 .5-3.5-1.4-4.5l-3.9-2a311 311 0 01-35.5-18.3 31 31 0 01-2.9-2.2zM202.7 868.2c3-4 5.6-7.8 8.5-11.2a4.9 4.9 0 013.7-1.5c5.5.8 11 2 16.5 3 .3 0 .5.3 1.4 1-.9 1.6-1.6 3.4-2.7 5.1-2.4 4.1-2.3 7.7 1.2 11.3s6.8 7.7 10.3 11.4c3.7 4 4.4 6.5 2 11.2-2 4-4.3 7.9-6.5 11.8-1.2 2.3-3.1 2.7-5.3 1.6-5.7-2.9-11.4-5.9-17-9a2.8 2.8 0 01-1-4.5c2.7-3.7 3.8-8 5-12.3.7-3 0-5-2.2-6.8l-11.5-9.5-2.4-1.6zM484.5 506.6l-.8-3.8a268.5 268.5 0 01-2.1-60.8 31 31 0 011.9-8 4.8 4.8 0 016.2-3.2 23.4 23.4 0 017 3.2c4.3 3 9 5.4 11.7 10.4 1.5 2.8 1.6 4.9 0 7.6-4.4 7.8-8.6 15.8-13 23.7-4.4 8.1-7 17-8.6 26l-1 5zM1017.2 599.2l7.3 17.3c1.2 2.8.9 3.7-2.4 5.2L996.6 633l-10.2 4.6c-3.8 1.6-5.5 1.1-7.3-2.5-1.6-3.2-3.1-6.4-4.5-9.7-1.5-3.4-1.3-3.8 2-5.7 8.7-5.4 17.6-10.4 27.3-14.1 3.6-1.4 6.9-3.5 10.3-5.2l3-1.2z" class="cls-1"/>
      <path d="M268 874.3c-3.4-3.2-7.1-6-12.3-5.4-5 .5-7.3 4.7-10.5 8.2l-10-8.6c1.6-3.6 3-7.2 4.8-10.6.4-.8 1.7-1.2 2.7-1.7 4.6-2.4 9.3-4.5 13.6-7.2 2.8-1.7 5.2-2 8.1-.8 4.9 2.1 9.8 4 14.8 6 1.8.7 3.3 2 1.8 4-3.7 5.2-7.7 10.3-11.5 15.4-.3.3-1 .4-1.5.7zM925.8 600.4l13-6 12.3-5.7c3-1.4 3.8-.8 4.7 2.4 1.5 6 3 11.8 4.7 17.7 1.5 5.5 1.1 6.7-3.7 9.4l-11.2 6.5c-3.3 1.9-3.6 1.6-5.4-1.7a453 453 0 00-10.1-17.5c-1.1-1.7-2.6-3-4.3-5z" class="cls-1"/>
      <path d="M919 600.3c2.2 1.3 2.5 3.2 3 5.5.7 3.4 2.7 6.5 4 9.8.6 1.2 1 2.5 1.8 4.8-2.2-.6-3.6-.6-4.5-1.3-3.7-2.7-7.7-5.3-10.9-8.6-4.6-4.9-4.8-11.1-3-17.3 2.4-8 8.1-13.5 15-17.6 2.4-1.5 6.2-1.6 9.3-1.3 4 .5 3.1 4.7 4 7.4.6 2 1.2 4.1-1.5 5.4-2.9 1.3-5.8 2.7-8.6 4.3-3.6 2.1-7.5 4-8.5 9zM988.8 537.6c1 2.5 2.2 4.7 3 7.1.7 2.2-.8 4-4 5.1-4.6 1.6-9.3 3.3-14.2 4.5-8 2-16.2 3.7-24.4 5.5a14.5 14.5 0 01-3.3.5 3.4 3.4 0 01-2.2-.8c-2.3-2.3-.2-9.7 3.1-10.4 5.8-1.3 11.7-2.4 17.5-3.6a76 76 0 0021.8-7.2 13.3 13.3 0 012.7-.7zM919 47.1l5.9-31.3L940 34.2 919.9 48zM577.3 529l15 15.2c-.6.5-1 1.2-1.6 1.3q-11.2 2.7-22.5 5.2a24.3 24.3 0 01-4.2 0c3.7-7.8 8.2-14.3 13.3-21.6zM946.9 581.5a30.8 30.8 0 00-.6-5c-1.5-5.2.4-6 4.5-7l34.5-8.9a12.6 12.6 0 013.2-.6c.7 0 1.3.7 1.9 1-.5.7-1 1.8-1.6 2a117 117 0 01-9.4 1.7 58 58 0 00-17.8 5.8c-3 1.5-5.3 3.3-6.6 6.6-1.4 3.4-4.7 3.9-8.1 4.4zM781.2 614.7l-29.2 8.5c0-2.7 1.3-3.8 3.1-4.2l25-5.5.9.3zM959.2 639.1L958 633a44.2 44.2 0 016.8-1.5 4 4 0 013 1.7c2.2 3.7 1.2 5.6-3.2 5.9h-5.3zM277 907.8c1 2.4 1.7 4.6 2.6 7.4a7.5 7.5 0 01-5.3-5.3c-.4-1.4.8-2.3 2.8-2zM273.5 896.5c.2 1.3 1 2.7.5 3.4-1.3 2-3.4 1.9-5.5 1.2 1.2-2.5 1.2-2.5 5-4.6zM547 470.8a15.6 15.6 0 01-.5 3.7c-.3.8-1.2 1.8-2 1.9-1.3 0-2.2-2-1.3-3.3a22 22 0 013-3.2zM531.8 408.4c0 2-.6 3.5-2.9 3.2-.7 0-1.9-1.6-1.7-2.2.8-2.4 2.7-1.5 4.6-1zM475.6 384c-1.3.8-2.3 1.8-2.5 1.6a5.3 5.3 0 01-1.7-2.3c0-.2 1.1-1.4 1.4-1.3a12.3 12.3 0 012.8 2zM964.1 621.4c-.5 4-.5 4-5 3.2z" class="cls-1"/>
      <path d="M104 991.8l-6.5-6.8c5.5 1 6.6 2.3 6.5 6.8zM106.9 988.3l-1-5.4 1.1-.3c1.8 1.5 1.4 3.6 1 5.6z"/>
    </g>
  </g>
</svg>
