<svg id="Layer_1" data-name="Layer 1" xmlns="http://www.w3.org/2000/svg" viewBox="0 0 1200 1562.9"><defs><style>.cls-1{fill:#fff;}</style></defs><path class="cls-1" d="M-942,358.15V23.31a13.91,13.91,0,0,0,3.07-1.25c5.89-4.23,11.63-8.67,17.58-12.82,14-9.78,27.73-20,42.24-29,17.79-11,36.06-21.32,54.5-31.21,21.15-11.34,42.52-22.31,64.17-32.67q35.52-17,71.75-32.53c23.88-10.16,48.39-18.73,73.14-26.6,9.67-3.07,19.37-6.08,29-9.24,4.18-1.37,7.85-1.15,11.12,2.14,6.67,6.75,14,13,20,20.22,17.08,20.51,31.24,43,43.38,66.78,4.38,8.6,9.12,17,13.66,25.54.75,1.41,1.29,2.94,2,4.4,3.2,6.85,6.34,13.74,9.7,20.52.54,1.07,2.11,1.64,3.21,2.44a16.89,16.89,0,0,0,2.06-3.46c1-3.21,1.65-6.51,2.45-9.77,1-4.21,2.1-8.41,3.07-12.63.76-3.3,1.24-6.67,2.11-9.93,3.06-11.36,6.26-22.67,9.35-34,5-18.34,9.92-36.7,14.91-55.05,5.7-21,11.58-41.94,17-63,1.2-4.62,3.5-7.18,7.85-8.76,10.31-3.73,20.52-7.72,30.73-11.71,21.6-8.46,43.22-16.91,64.76-25.53,20.48-8.2,40.9-16.58,61.31-25,6.41-2.63,12.74-5.46,19.06-8.3,3.38-1.51,6.46-1.81,9.28,1.13a28.57,28.57,0,0,0,3,2.39c14.18,11.17,28.45,22.24,42.51,33.56,18.08,14.55,35.93,29.38,54.05,43.87,3.73,3,4.87,6.44,4.84,10.91A650,650,0,0,0-131-105.09c2.13,18.09,4.1,36.21,6.94,54.18a760.06,760.06,0,0,0,15.76,75.23c1.73,6.54,3.79,13,6,19.38.82,2.35,2.1,5.15,4,6.38,4.16,2.63,8.69,5.22,13.41,6.33a205.08,205.08,0,0,0,43.68,4.85c21,.31,41.94.31,62.89-.24,22.44-.6,44.76-2.87,66.5-8.85,6.36-1.74,12.51-4.23,18.7-6.54,2.25-.84,4.77-2,4.73-4.87s-2.79-3.67-5.08-4.36a56.55,56.55,0,0,0-8-2C82.85,32,68.12,26.35,53.79,19.62A730,730,0,0,1-18.27-18.9,286.77,286.77,0,0,1-46.55-38.29c-21.67-17.23-36.18-39.59-45-65.74a301.38,301.38,0,0,1-12-48.76c-1.71-10.63-4.71-21.06-4.42-32,.16-5.79-.33-11.61.07-17.37a9.2,9.2,0,0,0-3.84-8.72c-6.55-5.19-12.84-10.71-19.35-16q-17.85-14.44-35.85-28.71c-14-11.11-28.15-22.1-42.21-33.17a37.32,37.32,0,0,1-3.1-3.15c2.83-3,6.21-3.66,9.24-5,18.62-8.08,37.21-16.21,55.85-24.21q42.19-18.1,84.45-36.07c25-10.71,50.16-21.19,76-30a651.73,651.73,0,0,1,82.89-22.93,400.2,400.2,0,0,1,71.1-7.61c24.82-.48,49.68-.59,74.45,1.81,5.45.52,10.88,1.17,16.32,1.77V208.15c-14.42-1.66-28.81-3.57-43.25-4.93-31.78-3-63.57-6-95.4-8.4-26.68-2-53.43-3.47-80.17-4.33-50.78-1.65-101.59-1.41-152.38-.48-32.89.6-65.79,1.48-98.63,3.2-35.42,1.85-70.79,4.69-106.15,7.4-17.2,1.32-34.37,3.1-51.51,5.09q-44.19,5.16-88.31,10.89c-23,3-46.07,5.92-69,9.59-34.06,5.46-68.09,11.2-102,17.49-20.43,3.78-40.68,8.61-60.92,13.35q-33.9,8-66.91,19.12c-15.86,5.39-31.77,10.73-47.23,17.13-21.43,8.86-42.63,18.35-63.62,28.2-19.39,9.11-38.38,19.07-57.57,28.61C-930.65,352.86-936.35,355.46-942,358.15Zm112.28-223.52-.34,1.53c3.42,1.08,7,1.84,10.21,3.33a39.3,39.3,0,0,1,8.9,5.58c2.77,2.34,5,5.32,7.54,8.11l6.56-.45A41.77,41.77,0,0,0-801.39,141c-2-3.42-3.36-7.3-6.53-10-.52,6.77,5.38,11.3,6.07,17.45-4.39-3.33-8.5-6.85-13-9.76S-824.16,133.44-829.72,134.63Zm925.05-212A12.12,12.12,0,0,1,97-74.55c.37,1.56.36,3.2.62,4.79.3,1.84.8,3.58,3.5,4.41a43.38,43.38,0,0,1-.76-21.17c-4.63-.26-6.88,2.07-8,5.89a30.51,30.51,0,0,0-.48,15.24c.06.29.71.45,1.54.94C94.84-68.6,92.66-73,95.33-77.37Zm-570,246.85-1.34.35v6.65c-4,.72-5.71-4.22-9.71-3.31.25.85.26,1.39.53,1.71a7.51,7.51,0,0,0,2,2,20.53,20.53,0,0,1,9.39,9.61c5.44-1,5.49-1.11,3.55-5.58-1-2.33-1.8-4.77-2.71-7.15C-473.49,172.3-474.1,170.89-474.69,169.48Zm644.5-39.13-1-1.25a18.09,18.09,0,0,0-3.87,2.28c-3.44,3.38-7.09,6.66-9.93,10.51a127.62,127.62,0,0,0-8.39,14c-1,1.79-1.45,3.86,0,5.77,3.34-5.85,6.07-11.85,9.91-17S165.34,135.09,169.81,130.35Zm-55.09,11.7c-1.75,2.32-.72,3.43.23,4.53,1.77,2.08,3.51,4.18,5.34,6.2,5,5.51,9.46,11.33,11.79,18.54.1.32.69.48,1.33.9,1.44-2.4.51-4.42-.39-6.41-2.75-6.08-7.12-11-11.35-16.06C119.53,147.22,117.24,144.83,114.72,142.05Zm18.19-8.54c-2.64,6,2,29.14,6.91,33.65.2-.9.66-1.72.46-2.33A173,173,0,0,1,134,134.28C134,134,133.31,133.77,132.91,133.51ZM118.48-236.14c.23,6.08,2.82,10.23,4.58,14.57s1.84,9.24,5.77,13.22c.61-5-2.64-15.54-7.41-24.85C121-234.06,120-234.65,118.48-236.14ZM116-99.53l-1.27-.42c-5.81,8.78-8.71,18.22-6,28.91,1-4.73.9-9.67,2-14.32C111.91-90.23,114.21-94.82,116-99.53Zm21.53-137.33c-4.41,5.52-5.5,17.86-2.13,23.94a72.39,72.39,0,0,0,.66-7.8c.15-2.57.23-5.14.58-7.68S138.82-233.44,137.55-236.86Zm-94.89-80c.66-6.42-3-10.89-7.15-15.14C36.61-326.41,39.88-321.77,42.66-316.87Zm78,107.09,1-.89c-1.77-4.62-2.46-9.7-6.1-13.56-.88,4.68,1.64,8.54,2.77,12.7C118.47-210.78,119.82-210.35,120.63-209.78ZM-460.58,166.86c-5.85,6-7.57,12.9-4.68,16.75ZM-794,147.6l1.18.07c0-3.15-.43-6.37.11-9.42s2.06-6,3.44-9.75C-794.69,132.91-796.3,142-794,147.6ZM-294.64-77.68c1.56-5.07,1.49-6.33-.45-9.67C-295.89-83.7-296.35-80.67-294.64-77.68Zm-11.84-4.56c-.33.77-.61,1.09-.55,1.33.6,2.52,1.25,5,1.92,7.68C-303.28-75.43-303.28-75.43-306.48-82.24ZM48.7-329.74l-1.33.05c-.23,2.39-.59,4.79,1.33,7.08Zm12.09-1.6c-3.88,1.86-4.09,2.5-2.48,6.46ZM-307.69-86.82c-.12-.28-.24-.55-.37-.83a3.21,3.21,0,0,0-.62.88c0,.14.33.4.52.61Z" transform="translate(942 1194.11)"/><path class="cls-1" d="M-942-562.18v-631.93H258v283.55a1.51,1.51,0,0,1-.45-.18q-29.38-29.44-58.75-58.9c-1.32-1.32-2.46-2.82-4-4.61,2.86-2.58,5.33-4.85,7.85-7.06,8.22-7.2,14.58-15.86,20-25.26,8.93-15.4,11.78-32.27,11.67-49.76a59.84,59.84,0,0,0-6.74-28c-11.65-21.92-30.48-35-53.61-42.3-13.18-4.15-26.88-4.92-40.68-4.5-8.53.26-17.08-.12-25.63-.11-2.47,0-3.8-.78-4.32-3.41-.39-2-1.57-3.79-2.44-5.66a43.87,43.87,0,0,1-2.26-4.76c-5.31-16.36-16.38-26.26-33.22-29.55a69.69,69.69,0,0,0-30.72.84,217.39,217.39,0,0,0-22.41,7.5c-3.12,1.17-5.44,1.22-7.79-1.35-2.61-2.85-5.48-5.48-8.28-8.14s-5.8-5.62-8.89-8.2c-2.34-1.94-3.28-1.49-4.63,1.29-.51,1.07-1.24,2.39-2.21,2.82-2.46,1.08-3,3.13-3.59,5.36-2.79,11.1-5.65,22.17-8.43,33.27a15.66,15.66,0,0,1-4.67,7.74c-2.69,2.55-5.35,5.14-7.88,7.84-12.38,13.26-22.1,28.51-32.12,43.5-2.47,3.7-5.12,5.26-9.43,5.17a101.92,101.92,0,0,0-25.91,2.6c-27.87,6.63-50.27,21.17-66,45.31a72.69,72.69,0,0,0-9.81,23c-1.81,7.5-1.83,15-2,22.58-.41,20.86,9.23,36.42,26,47.91,4.74,3.26,10.17,5.52,15.29,8.23l3.3,1.72a34.7,34.7,0,0,1-2.05,3.93q-13.14,18.54-26.35,37-18.67,26.16-37.38,52.29-13.06,18.28-26.18,36.54c-1,1.35-2.17,2.56-3.5,4.13-1-1.49-1.71-2.36-2.25-3.31-5.93-10.35-11.5-20.91-17.81-31-9.39-15-19.35-29.71-29-44.6-20.77-32.07-41.35-64.26-62.26-96.24-15.62-23.88-31.62-47.5-47.49-71.21q-3.9-5.82-8.1-11.44a12,12,0,0,0-10.45-5,44.64,44.64,0,0,1-1.65,6.12c-2.71,6.37-5.7,12.63-8.41,19-7.86,18.53-16,37-23.33,55.7-7.79,19.94-14.77,40.21-22.09,60.34q-13,35.88-26.1,71.74a24,24,0,0,1-2.5,4c-5.14-7.74-9.88-14.81-14.53-21.93-1.28-2-.83-4,.27-6,3.13-5.54,4.68-11.56,5.85-17.8a88.26,88.26,0,0,0-7-55.18c-7.41-15.79-19.45-26.62-35.51-33.16-14.9-6.07-30.57-7.7-46.43-8.2-17-.53-32.07,4.47-45,15.59a26.81,26.81,0,0,1-3,1.94,8.13,8.13,0,0,1-1.11-.77,4.35,4.35,0,0,1-.9-1.12c-2.83-5.93-7.79-7.78-14-7.39a62.88,62.88,0,0,0-6.74.5c-16,2.82-29.17,10.62-39.64,23.09a107.65,107.65,0,0,0-14.27,22.34c-8.33,17.18-15.6,34.73-14.73,54.43a3.8,3.8,0,0,1-2.64,4.09c-.9.36-1.84.61-2.74,1-11.39,4.51-20.73,11.67-25.37,23.17-8.76,21.71-7.67,42.91,5.74,62.69,14.08,20.77,36,27.31,58.51,19.52,18.3-6.35,34.83-16,48.55-29.94,2.3-2.33,4.41-3,7.71-2a76.47,76.47,0,0,0,24.34,3.35c4.84-.17,9.67-.44,14.5-.59a20.31,20.31,0,0,1,3.47.53c-1.26,2.31-2.2,4.16-3.26,5.94-8.6,14.38-17.43,28.62-25.78,43.13-11.9,20.66-23.95,41.25-35,62.35-16.47,31.39-32.13,63.19-48.16,94.8-.91,1.79-2,3.46-3.06,5.19l-1.18-.12c-.43-1.78-1-3.54-1.27-5.34q-3.27-19.07-6.44-38.13c-2.37-14.47-4.54-29-7-43.43-2.26-13.18-4.65-26.34-7.32-39.44a34.9,34.9,0,0,0-6.64-15,20.78,20.78,0,0,0-3.28,3.46,27.51,27.51,0,0,0-2.2,5.34c-5.31,15.9-10.55,31.81-15.89,47.7-.79,2.36-2,4.58-3.3,7.6-2.14-2.12-3.72-3.63-5.24-5.21-4.31-4.47-6.2-4.33-9.73.94a68.51,68.51,0,0,0-4,6.63c-7.64,14.89-14.93,30-22.91,44.7-11.83,21.81-24.13,43.37-36.27,65a32.56,32.56,0,0,1-2.69,3.44c-5.4-6-9.15-12.74-14.07-18.58s-9.69-11.65-14.65-17.38-10.21-11.62-15.39-17.38-9.6-12.08-15.54-16.68c-4.65.82-7.06,3.46-8.58,7.37C-930-590-935-577.63-940-565.23A18.55,18.55,0,0,1-942-562.18Zm309.57-551c-5.67.41-10.71,1.86-15,5.31a29.73,29.73,0,0,0-10.85,18.8,44.08,44.08,0,0,0-.16,10.08c.06,1,1.41,2.68,2.15,2.67a4.48,4.48,0,0,0,3.33-2c.86-1.64,1-3.68,1.45-5.54,1-3.72,1.88-7.45,3-11.13,1.79-6,6.11-8.06,12.14-8.09,6.56,0,12.2,2.53,17.94,5.1,5,2.23,9.85-.2,11.11-5.51.41-1.72.52-3.5.88-5.24,1.22-5.88,4.41-8.89,10.41-9.76a23.18,23.18,0,0,1,15,2.39c2.8,1.56,5.38,3.51,8.17,5.08s5.16.78,7-2c1.62-2.5,1.44-5.09-1.07-6.75-3.73-2.48-7.51-5.23-11.68-6.63-13.24-4.44-27.54-1.13-34.93,14-1.88,3.84-1.88,3.71-5.8,2.55C-623.71-1111.11-628.09-1112.08-632.43-1113.17Zm-170.77,13.62c-4,.43-8.83.6-13.54,1.55-14.27,2.86-24,14.66-22.87,28,0,.32,0,.65.05,1,.37,2.68-1,3.86-3.49,4.17-1.12.15-2.24.3-3.36.47a23.48,23.48,0,0,0-15.19,8.6c-5.15,6.31-7.13,14-9.31,21.56a1.63,1.63,0,0,0-.12,1c.45,1,.79,2.34,1.56,2.68a3.22,3.22,0,0,0,2.88-.82,15.54,15.54,0,0,0,2.5-4.1,93.18,93.18,0,0,0,4.14-9.79c2.29-7,7.41-9.79,14.25-10.26,2.57-.18,5.16-.1,7.73-.26,6.58-.4,9.69-4.72,8.38-11.07a53.71,53.71,0,0,1-1-10,10.27,10.27,0,0,1,6-9.77,26.57,26.57,0,0,1,9.19-2.6c7-.54,14-1.75,21,1.17,2.62,1.1,6.81-2.43,7.36-5.57.46-2.64-.91-4.35-4.64-4.92C-795.22-1099.17-798.78-1099.22-803.2-1099.55Zm-78.52,241.44c1.44.12,2.24.2,3,.25,8,.49,11.25-3.93,8.69-11.43a18.92,18.92,0,0,1-.91-6.61c.16-4.72,2.55-6.71,7.18-6.32a14.68,14.68,0,0,1,8.64,3.86c2.26,2,5.1,1.5,7.07-.94s1.9-5.49-.23-7.36A18.54,18.54,0,0,0-860-891.73c-10.77-.42-19.18,7.39-19.92,18.62-.35,5.2-.32,5.44-5.44,6-6.89.78-12.09,4.32-16.15,9.55-3.88,5-5.93,10.68-4.66,17.15.33,1.65,1.12,3.49,3,3.22,1.27-.19,2.54-1.61,3.4-2.79.61-.82.52-2.15.74-3.25.44-2.2.72-4.46,1.35-6.6a10.26,10.26,0,0,1,8.9-7.77C-886.25-857.95-883.66-858-881.72-858.11Z" transform="translate(942 1194.11)"/><path class="cls-1" d="M258,217.82v151H-942v-2.9c2.9-1.33,5.84-2.56,8.69-4,31.67-15.91,63.23-32,95.63-46.45a832.49,832.49,0,0,1,81.93-31.84c24.55-7.94,49.39-14.75,74.48-20.74,30-7.15,60.13-13.39,90.52-18.31,39.46-6.4,79-12.44,118.61-17.83,37.86-5.14,75.83-9.5,113.8-13.75s76.08-7.12,114.23-9.36c46.85-2.74,93.73-4.82,140.66-5,53-.23,106.11-1.29,159.11,1.8,31.55,1.84,63.12,3.54,94.59,6.28C186.21,209.83,222.09,214.06,258,217.82ZM-309.75,354.61c2.91-4.55,2.37-8.09-1-11.42a36.25,36.25,0,0,1-3.54-4.58c-3.73-5.23-7.54-10.4-11.08-15.76-1.43-2.18-2.22-4.78-3.69-8.05a9.3,9.3,0,0,0,.7,9c2.84,4.48,5.95,8.78,9,13.13,1.61,2.32,3.29,4.6,4.94,6.89a6,6,0,0,1-3.66-1.31c-5-3.79-9.93-7.67-14.95-11.43q-10.62-7.93-21.36-15.72c-1.29-.93-2.59-2.41-5.32-1.34a26.41,26.41,0,0,0,3,3.32c4.35,3.3,8.8,6.46,13.18,9.72,10.7,7.95,21.84,15.38,31,25.28A26.49,26.49,0,0,0-309.75,354.61Zm-282.5-44.19c-7.83-5.67-10.39-13.36-10.25-22.44.15-9.66,5.11-16.21,13.67-21.17-1.38-.37-1.88-.7-2.23-.58-4.18,1.49-8,3.69-10.26,7.57-5.63,9.48-5.47,19.37-1.18,29.21C-600.73,307.08-597.22,309.64-592.25,310.42Zm297.8,31.66c7.86-10.83,17.9-17.63,29.71-23.79C-274.87,318-291.51,331.52-294.45,342.08Zm-291.9-54.71c-2.63,1.05-2.9,2.94-3.12,4.87-.66,5.8,1.11,17.51,3.59,21.07C-584.52,304.26-587.49,296-586.35,287.37Zm16.11-2.22c-7.29,3.76-11.58,16.92-6.54,23,.55-4.45.57-8.49,1.65-12.21S-571.91,288.74-570.24,285.15Z" transform="translate(942 1194.11)"/><path d="M-942-562.18a18.55,18.55,0,0,0,2-3.05c5-12.4,10-24.8,14.81-37.25,1.52-3.91,3.93-6.55,8.58-7.37,5.94,4.6,10.4,11,15.54,16.68s10.33,11.53,15.39,17.38,9.78,11.58,14.65,17.38,8.67,12.61,14.07,18.58a32.56,32.56,0,0,0,2.69-3.44c12.14-21.64,24.44-43.2,36.27-65,8-14.72,15.27-29.81,22.91-44.7a68.51,68.51,0,0,1,4-6.63c3.53-5.27,5.42-5.41,9.73-.94,1.52,1.58,3.1,3.09,5.24,5.21,1.32-3,2.51-5.24,3.3-7.6,5.34-15.89,10.58-31.8,15.89-47.7a27.51,27.51,0,0,1,2.2-5.34,20.78,20.78,0,0,1,3.28-3.46,34.9,34.9,0,0,1,6.64,15c2.67,13.1,5.06,26.26,7.32,39.44,2.48,14.45,4.65,29,7,43.43q3.13,19.08,6.44,38.13c.31,1.8.84,3.56,1.27,5.34l1.18.12c1-1.73,2.15-3.4,3.06-5.19,16-31.61,31.69-63.41,48.16-94.8,11.07-21.1,23.12-41.69,35-62.35,8.35-14.51,17.18-28.75,25.78-43.13,1.06-1.78,2-3.63,3.26-5.94a20.31,20.31,0,0,0-3.47-.53c-4.83.15-9.66.42-14.5.59a76.47,76.47,0,0,1-24.34-3.35c-3.3-1-5.41-.31-7.71,2-13.72,13.93-30.25,23.59-48.55,29.94-22.48,7.79-44.43,1.25-58.51-19.52-13.41-19.78-14.5-41-5.74-62.69,4.64-11.5,14-18.66,25.37-23.17.9-.36,1.84-.61,2.74-1a3.8,3.8,0,0,0,2.64-4.09c-.87-19.7,6.4-37.25,14.73-54.43A107.65,107.65,0,0,1-709.39-948c10.47-12.47,23.6-20.27,39.64-23.09a62.88,62.88,0,0,1,6.74-.5c6.16-.39,11.12,1.46,14,7.39a4.35,4.35,0,0,0,.9,1.12,8.13,8.13,0,0,0,1.11.77,26.81,26.81,0,0,0,3-1.94c13-11.12,28.05-16.12,45-15.59,15.86.5,31.53,2.13,46.43,8.2,16.06,6.54,28.1,17.37,35.51,33.16a88.26,88.26,0,0,1,7,55.18c-1.17,6.24-2.72,12.26-5.85,17.8-1.1,2-1.55,4-.27,6,4.65,7.12,9.39,14.19,14.53,21.93a24,24,0,0,0,2.5-4q13.11-35.85,26.1-71.74c7.32-20.13,14.3-40.4,22.09-60.34,7.32-18.75,15.47-37.17,23.33-55.7,2.71-6.38,5.7-12.64,8.41-19a44.64,44.64,0,0,0,1.65-6.12,12,12,0,0,1,10.45,5q4.2,5.61,8.1,11.44c15.87,23.71,31.87,47.33,47.49,71.21,20.91,32,41.49,64.17,62.26,96.24,9.64,14.89,19.6,29.57,29,44.6,6.31,10.11,11.88,20.67,17.81,31,.54.95,1.22,1.82,2.25,3.31,1.33-1.57,2.52-2.78,3.5-4.13q13.13-18.25,26.18-36.54,18.7-26.13,37.38-52.29,13.2-18.5,26.35-37a34.7,34.7,0,0,0,2.05-3.93l-3.3-1.72c-5.12-2.71-10.55-5-15.29-8.23-16.74-11.49-26.38-27-26-47.91.15-7.57.17-15.08,2-22.58a72.69,72.69,0,0,1,9.81-23c15.76-24.14,38.16-38.68,66-45.31a101.92,101.92,0,0,1,25.91-2.6c4.31.09,7-1.47,9.43-5.17,10-15,19.74-30.24,32.12-43.5,2.53-2.7,5.19-5.29,7.88-7.84a15.66,15.66,0,0,0,4.67-7.74c2.78-11.1,5.64-22.17,8.43-33.27.56-2.23,1.13-4.28,3.59-5.36,1-.43,1.7-1.75,2.21-2.82,1.35-2.78,2.29-3.23,4.63-1.29,3.09,2.58,6,5.42,8.89,8.2s5.67,5.29,8.28,8.14c2.35,2.57,4.67,2.52,7.79,1.35a217.39,217.39,0,0,1,22.41-7.5,69.69,69.69,0,0,1,30.72-.84c16.84,3.29,27.91,13.19,33.22,29.55a43.87,43.87,0,0,0,2.26,4.76c.87,1.87,2,3.69,2.44,5.66.52,2.63,1.85,3.42,4.32,3.41,8.55,0,17.1.37,25.63.11,13.8-.42,27.5.35,40.68,4.5,23.13,7.3,42,20.38,53.61,42.3a59.84,59.84,0,0,1,6.74,28c.11,17.49-2.74,34.36-11.67,49.76-5.45,9.4-11.81,18.06-20,25.26-2.52,2.21-5,4.48-7.85,7.06,1.55,1.79,2.69,3.29,4,4.61q29.35,29.48,58.75,58.9a1.51,1.51,0,0,0,.45.18V-897a12.34,12.34,0,0,1-1.56-1.08c-11-10.64-22.08-21.23-33-32-11.49-11.29-22.85-22.72-34.26-34.11-3.73-3.72-4.4-3.84-9.26-1.45-1.88.92-3.75,1.88-5.65,2.74-20.41,9.23-41.87,11.2-63.9,9.16-4.49-.42-5.16-.21-6,4.07-2.1,10.49-7.6,19.15-14.6,26.86-18.62,20.5-41.51,34.49-67.61,43.36-17.53,5.95-35,4.54-52.18-1.44-9.87-3.44-18.46-9.2-26.43-15.79-7.07-5.85-13.78-12.12-20.73-18.11A6.89,6.89,0,0,0-81-916.58c-6.74-.24-13.49-.33-20.23-.17-1,0-2.44,1.45-3,2.57-1.37,2.72-2.35,5.64-3.49,8.47-11.45,28.2-22.79,56.45-34.43,84.57-2.51,6.07-6.06,11.73-9.26,17.5-.78,1.42-1.54,3.29-4.2,3a15.42,15.42,0,0,1,.3-3.31c1.31-4,2.63-7.95,4.16-11.85q11-28.11,22.1-56.2a14.12,14.12,0,0,0,.48-2.8,12.29,12.29,0,0,0-3.46,4.22c-6.36,11.77-12.8,23.49-19,35.34-18,34.4-35.75,68.93-53.86,103.27-9.76,18.53-20,36.79-30.12,55.16-.71,1.29-1.32,2.82-3.79,3.38,3-10,7.66-18.6,11.67-27.48s9-17.29,11.8-26.67c-12.93,19.27-21.51,40.65-31.21,62.68,4.34,0,7.64,0,10.94,0,9,0,17.8,1.62,25.44,6.56,6.6,4.27,13.19,8.76,17.9,15.33,1.67,2.33,3.73,3.4,6.65,2.72,9-2,18.11-3.43,26.82-6.22,10.25-3.29,20.07-7.91,30.17-11.7,5.43-2,11-3.62,15.22-7.94a9.09,9.09,0,0,1,2.06-1.26c6.89-3.95,14.18-3.1,20.08,2.16a21.72,21.72,0,0,0,4.82,3Q-78-658-69.5-654.06c1.57.74,3.25,1.78,4.87,1.77,6.81,0,13,2.3,19.13,4.72a166.35,166.35,0,0,0,34.85,9.75c4.53.74,5.26.43,6.15-3.87.93-4.48,3.53-7.11,7.52-8.68a63,63,0,0,1,7.3-2.53c7.8-2,15.68-3.71,23.45-5.8,3.88-1,7.54-2.85,11.4-4,1.54-.45,4.32-.69,4.87.11,3.07,4.47,7.87,8.42,5.91,15-.24.79.2,1.78.4,3.14,2-.28,3.74-.42,5.43-.79,21.73-4.71,43.43-9.64,65.21-14.14q35.07-7.26,70.7-11.09c20.05-2.15,40.12-3.85,60.31-3.93v7.74c-4,.21-8,.53-12.07.62a533.17,533.17,0,0,0-66,5.72c-22.8,3.32-45.51,7.39-68.14,11.72-16.45,3.14-32.73,7.21-49.07,10.89a13.63,13.63,0,0,0-3.68,1.16c-.68.38-1,1.44-1.44,2.19.73.45,1.45,1.23,2.21,1.28a15.69,15.69,0,0,0,3.3-.62,38.23,38.23,0,0,1,6.67-.93,5.4,5.4,0,0,1,3.59,1.75c7.74,8.87,10.26,19.53,10,31a13.89,13.89,0,0,0,2,8.24c1.39,2.17,2.85,4.31,4.07,6.58a59,59,0,0,1,4,8.25c1.84,5.17.45,8.56-4.22,11.34A39,39,0,0,1,84.57-565c-13,5.58-26,11.2-39.14,16.59a23.74,23.74,0,0,1-8.89,2,112.58,112.58,0,0,1-15.3-1.41c-1.75-.25-3.4-1.43-5-2.32-.82-.44-1.39-1.42-2.23-1.73-2.5-.9-3.25-2.95-3.82-5.19-.5-2-1-4-1.63-6.33-3,1.24-5.46,2.45-8,3.25-2.91.91-5.84,1.8-8.38-1.33-.77-.94-2.8-1-4.28-1.21-2.67-.39-5.68.07-8-1a48.81,48.81,0,0,1-12.24-7.58,29.32,29.32,0,0,0-13.31-7.36c-2.36-.55-4.68-1.23-7-1.91-10.22-3-20.44-6-29.89-11a7.88,7.88,0,0,0-7-.14c-5.35,2.17-10.92,2.51-16.6,2.6a32.76,32.76,0,0,0-9,1.37c-4.29,1.33-8.4,3.26-12.62,4.84-12.07,4.52-24,9.3-36.25,13.39-10.69,3.58-21.67,6.28-32.45,9.59-2,.63-3.84,2.17-5.61,3.47-2.7,2-5,4.58-8,6.06-13,6.59-26.85,9.8-41.55,8.64-4.23-.34-4.47.12-4.91,4.45-1.16,11.38-2.05,22.8-3.78,34.09A297.38,297.38,0,0,1-277.93-437c-8.14,20.23-10.36,41.12-8.14,62.64.6,5.84,1.31,6.7,7,8.31,16.12,4.6,32.29,9,48.38,13.76,15,4.41,30,8.82,44.16,15.65,7.7,3.71,15.46,7.27,23.18,10.93a10.15,10.15,0,0,0,9.26,0c5.53-2.61,11.26-4.78,16.88-7.18q45.1-19.29,90.18-38.62A814.55,814.55,0,0,1,57.1-408.73c31-8.6,62.43-15,94.61-16.55,19.8-1,39.65-1.2,59.47-1,15.61.19,31.21,1.6,46.82,2.46v9.68c-5.44-.6-10.87-1.25-16.32-1.77-24.77-2.4-49.63-2.29-74.45-1.81a400.2,400.2,0,0,0-71.1,7.61,651.73,651.73,0,0,0-82.89,22.93c-25.79,8.85-50.91,19.33-75.95,30Q-104.92-339-147.16-321c-18.64,8-37.23,16.13-55.85,24.21-3,1.32-6.41,2-9.24,5a37.32,37.32,0,0,0,3.1,3.15c14.06,11.07,28.18,22.06,42.21,33.17q18,14.25,35.85,28.71c6.51,5.25,12.8,10.77,19.35,16a9.2,9.2,0,0,1,3.84,8.72c-.4,5.76.09,11.58-.07,17.37-.29,10.92,2.71,21.35,4.42,32a301.38,301.38,0,0,0,12,48.76c8.81,26.15,23.32,48.51,45,65.74A286.77,286.77,0,0,0-18.27-18.9,730,730,0,0,0,53.79,19.62C68.12,26.35,82.85,32,98.65,34.43a56.55,56.55,0,0,1,8,2c2.29.69,5,1.31,5.08,4.36s-2.48,4-4.73,4.87c-6.19,2.31-12.34,4.8-18.7,6.54-21.74,6-44.06,8.25-66.5,8.85-20.95.55-41.93.55-62.89.24A205.08,205.08,0,0,1-84.8,56.41c-4.72-1.11-9.25-3.7-13.41-6.33-1.94-1.23-3.22-4-4-6.38-2.24-6.38-4.3-12.84-6-19.38A760.06,760.06,0,0,1-124-50.91c-2.84-18-4.81-36.09-6.94-54.18A650,650,0,0,1-135-185.22c0-4.47-1.11-7.92-4.84-10.91-18.12-14.49-36-29.32-54.05-43.87-14.06-11.32-28.33-22.39-42.51-33.56a28.57,28.57,0,0,1-3-2.39c-2.82-2.94-5.9-2.64-9.28-1.13-6.32,2.84-12.65,5.67-19.06,8.3-20.41,8.38-40.83,16.76-61.31,25-21.54,8.62-43.16,17.07-64.76,25.53-10.21,4-20.42,8-30.73,11.71-4.35,1.58-6.65,4.14-7.85,8.76-5.47,21-11.35,42-17,63-5,18.35-9.92,36.71-14.91,55.05-3.09,11.35-6.29,22.66-9.35,34-.87,3.26-1.35,6.63-2.11,9.93-1,4.22-2,8.42-3.07,12.63-.8,3.26-1.49,6.56-2.45,9.77A16.89,16.89,0,0,1-483.47-10c-1.1-.8-2.67-1.37-3.21-2.44-3.36-6.78-6.5-13.67-9.7-20.52-.68-1.46-1.22-3-2-4.4-4.54-8.52-9.28-16.94-13.66-25.54-12.14-23.78-26.3-46.27-43.38-66.78-6-7.27-13.36-13.47-20-20.22-3.27-3.29-6.94-3.51-11.12-2.14-9.64,3.16-19.34,6.17-29,9.24-24.75,7.87-49.26,16.44-73.14,26.6q-36.24,15.44-71.75,32.53c-21.65,10.36-43,21.33-64.17,32.67-18.44,9.89-36.71,20.2-54.5,31.21-14.51,9-28.24,19.22-42.24,29-5.95,4.15-11.69,8.59-17.58,12.82A13.91,13.91,0,0,1-942,23.31V16.53a56.94,56.94,0,0,0,5-2.89c13.47-9.7,26.75-19.66,40.37-29.13,21.2-14.74,43.8-27.19,66.47-39.47C-811.63-65-793-75-774-84.15q38.53-18.55,77.73-35.7c14.72-6.49,29.83-12.17,45-17.61,17.74-6.36,35.73-12.06,53.6-18.06,2.22-.75,4.4-1.58,6.75-2.42-2.09-2.95-2.93-3.47-6.84-4.9-16.33-6-33-6-49.48-1.46-20.64,5.71-41,12.41-61.52,18.53-2.94.88-5.84,2.75-9.36,1.8a8.58,8.58,0,0,1,3.2-7.3c2.4-2.14,5-4.11,7.47-6.13,7.72-6.2,16.39-10.79,25.3-15,1.31-.61,3.13-.8,3.75-3.15a45.93,45.93,0,0,0-4.87-.8c-6.91-.38-13.82-.78-20.73-1-8.08-.21-11.81-3.39-12.83-11.45a43.06,43.06,0,0,1-.35-5.79c.05-5.64,0-11.29.37-16.92,1.24-19.86,3.5-39.52,11.74-58,.46-1,.32-2.32.52-4-5.18,1.69-9.21.08-13-2.25s-7.45-5-11.15-7.59c-1.42-1-2.8-2-5.16-3.69a33.07,33.07,0,0,1-3.27,4.51c-5.36,5.18-10.48,5.43-16.34.78a56,56,0,0,1-6.8-6.16q-16.5-18.31-32.8-36.81c-3.48-4-3.34-9.14-.09-13.36,6.66-8.68,13.39-17.32,20-26a44.93,44.93,0,0,0,2.46-4.08c-2.62-.61-4.43-1.18-6.29-1.44-12.93-1.79-25.83-3.9-38.81-5.18-35.73-3.51-70.35,2.28-104.24,13.42l-22,7.22v-8.71c6.71-1.23,12.87-3.08,17.62-8.77,7.55-9,16-17.26,26-23.67,7.74-4.94,15.37-10.09,23.4-14.52,6.11-3.37,10.82-7.35,12-14.54a6,6,0,0,1,.61-1.31c4.22-9.93,8.36-19.82,11.64-30.17,6.41-20.27,13.47-40.36,21-60.23,15.9-41.87,32.28-83.56,48.51-125.3,1.19-3.07,2.88-5.91-1-8.4-.79-.51-1-2-1.43-3-.63-1.43-1.24-2.86-2.24-5.15-1.26,2.42-2.14,4.09-3,5.77-11.74,23.3-23,46.86-35.36,69.84-11.73,21.85-24.34,43.24-37,64.57-19.92,33.51-40.6,66.58-59.12,100.91-3.6,6.66-7.42,13.2-11.21,19.75a33.18,33.18,0,0,1-2.72,3.56,3.64,3.64,0,0,1-.57-3.13,95.73,95.73,0,0,1,3.75-9.94c6.57-13.64,13.31-27.2,20-40.8,1-2.07,2-4.16,3-6.25a6,6,0,0,0-3.12,2.51Q-925-431.57-938.85-412a18.33,18.33,0,0,1-3.15,2.77v-9.68a27.7,27.7,0,0,0,3.35-3.42c7.63-11,15.11-22,22.77-32.95,6-8.56,12.16-17,18.32-25.45a15.15,15.15,0,0,1,7.56-5.72,8.83,8.83,0,0,0,4.09-3.74q10.24-16.65,20.19-33.47c4.09-6.9,4-6.95-1-13.49-.3-.38-.54-.8-.84-1.18-6.66-8.48-13.14-17.1-20-25.39C-898-576.27-909-588.3-915.86-603.29l-1.32-2.85a30.13,30.13,0,0,0-2.56,3.73c-.56,1.33-.82,2.78-1.29,4.14q-9,26.25-18.09,52.46a54.3,54.3,0,0,1-2.88,5.89ZM101.74-961.8c4,.48,6.81,1.1,9.58,1.09,5.81,0,11.61-.26,17.41-.6,15.7-1,31.05-3.62,45.54-10.07,15.5-6.9,28.36-17,37.78-31.3,10.51-16,14.2-33.68,13.48-52.47a54,54,0,0,0-5.71-21.37c-5.88-12.22-14.89-21.76-26.13-29.17a115.44,115.44,0,0,0-52.8-18.68c-6.73-.68-13.36-1.34-20.2-.17a87.35,87.35,0,0,1-17.35.74c-6.25-.21-8.5-2.12-9.36-8.3a33.36,33.36,0,0,0-4.72-12.53c-6.19-10.46-14.88-17.94-27-20.34-14.06-2.8-27.89-1.2-41.41,3.62-15.22,5.43-28.49,14.22-41.34,23.74A125.53,125.53,0,0,0-46.6-1112c-7.7,10.33-15.22,20.79-22.79,31.22a25.69,25.69,0,0,0-1.68,3.46l4.95,1.12c6.29,1.39,12.68,2.42,18.83,4.25,7.26,2.15,13.56,6,17.37,13,.83,1.52,2.34,3.28.81,4.81-1.73,1.73-3.25-.19-4.55-1.23A47.51,47.51,0,0,0-53-1064.95a146.86,146.86,0,0,0-21-2.86c-21-1.52-41.46.37-60.83,9.78-17.4,8.45-31,20.61-39.65,38-4.24,8.53-5.6,17.67-6.1,27.12-.72,13.79,1.66,26.45,9.86,38,6.7,9.44,15.51,15.82,25.83,20.33,9.63,4.2,19.85,6.53,30,9.17,11.46,3,22.93,3,34.52,2.2a10.85,10.85,0,0,1,8,2.45c4.89,3.93,9.74,7.91,14.82,11.59C-47.62-902-37.59-895-26-890.55c17.56,6.67,35.17,7.37,52.93,1A154.28,154.28,0,0,0,66.8-911c14.25-10.56,26-23.14,31.24-40.65C99.14-955.31,100.64-958.82,101.74-961.8ZM-405.91-780.39l1,1c1.78-1,3.65-1.77,5.32-2.89a31.38,31.38,0,0,1,12.47-5c6.5-1.06,10.55,1.71,11.06,8.23A46.44,46.44,0,0,1-377-765.2c-2.34,10.25-6.64,19.83-11.63,29.07-1.11,2.06-2.08,4-1.14,6.37,1.77,4.53,1.52,9.27.51,13.81-.81,3.61-.32,6.28,2.66,8.5,1.15.86,2.08,2,3.17,3,2.65,2.32,3.61,2.35,6.14-.1s4.65-4.93,7.07-7.29c5.58-5.44,11.61-10.28,19.11-12.84,4-1.38,8.51-2.51,12,.48s3.06,7.46,2.22,11.72c-1.24,6.3-4.3,11.8-7.54,17.17-3.57,5.93-7.49,11.65-11.25,17.46-2.91,4.51-2.92,5,.24,9.45,3.46,4.86,7.14,9.57,10.41,14.55,2.17,3.31,4,3.67,6.37.15,7.15-10.52,14.62-20.83,22.06-31.16q26.11-36.27,52.33-72.49c5.46-7.58,10.76-15.27,16.19-22.87,1.64-2.29,2.3-4.39.55-7-3.55-5.38-6.73-11-10.28-16.38-11.19-17-22.65-33.73-33.7-50.77C-305.12-875.53-318.5-896.83-332-918c-1.17-1.82-2.62-3.46-3.89-5.12-1,.49-1.48.65-1.87.9-5.44,3.53-9.19,3.27-13.85-1.15-1.86-1.77-3.41-3.88-5.28-5.64q-7.56-7.11-15.3-14a9.23,9.23,0,0,0-9-2.17A15.81,15.81,0,0,1-395-948a95.82,95.82,0,0,1-7.76-6.51c-3-2.68-5.78-5.64-8.93-8.13-2.94-2.33-5.18-1.28-5.75,2.39-.25,1.59-.11,3.25-.48,4.8a7.08,7.08,0,0,1-5.42,5.59c-2.89.7-3.95-1.7-5.16-3.52-3.28-5-6.44-10-9.66-15.05-1.19-1.85-2.11-4-5-4.78a35.27,35.27,0,0,0-1.65,3.32c-4.72,12.84-9.45,25.68-14.09,38.54-5.42,15-10.73,30-16.13,45-5,13.79-10.12,27.51-14.93,41.35q-8.71,25.11-17,50.37c-4.25,13-8.16,26.13-12.26,39.18-4.63,14.75-9.16,29.54-14,44.21-2.94,8.87-6.36,17.57-9.65,26.32a27.07,27.07,0,0,1-2.23,3.85l-1.34-.54c.92-9.19,3.74-18,5.89-27,2.19-9.14,5.14-18.09,6.72-27.39-6.78,18.08-12.78,36.41-19.68,54.4s-14.55,35.82-22.26,53.54-15.52,35.2-24.94,52.12a9.39,9.39,0,0,1,.24-4.59c3.94-14.33,10-27.86,15.73-41.53,1-2.42,1.87-4.9,2.8-7.35l-1-.44c-1.52,2.6-3.23,5.12-4.54,7.83q-8.09,16.75-16,33.63c-12.1,26-24.3,52-41.57,75.11a18.24,18.24,0,0,0-1.45,3.62c3.18-.29,5.72-.41,8.21-.78,7.33-1.1,14.64-2.37,22-3.42,9.73-1.41,19.49-2.66,29.23-4,4.12-.57,4.49-1,5.43-4.92.7-3,1.3-6,2.28-8.89,6-18,16.94-31.31,35.67-37.09,2.61-.81,5.28-1.47,7.84-2.43,15.35-5.76,30.66-5.17,45.85.43,3,1.1,5.16.75,7.49-1.25q11.76-10.05,23.7-19.89a5.66,5.66,0,0,0,2.17-5.93,63.55,63.55,0,0,1-1-9.12c-.26-10.79-.39-21.6-.52-32.4-.06-4.84.05-9.68,0-14.51s-.92-5.28-5.29-6.67c-3.15-1-6.54-2.25-9-4.37a186.32,186.32,0,0,1-36.87-43.23c-6.62-10.82-10.32-22.62-9.77-35.38.23-5.41.51-11.3,2.71-16.07,8.46-18.38,21.73-33,38.13-44.7,2.33-1.66,3.82-3.19,3.34-6.23a6.34,6.34,0,0,1,.48-3.77c2-3.61,5.26-.74,7.91-1.28,1.8-.37,3.68.07,4.25,2.23,1.41,5.31-3.39,11.77-7.32,10.9-3.3-.72-5.52.8-7.74,2.86a160.24,160.24,0,0,0-25.46,29.63,46.16,46.16,0,0,0-6,13.07c-3.56,13.43-1,26.24,5.6,38.26,8.75,16,20.84,29.4,33.8,42,.82.81,2,1.26,4,2.5a60.14,60.14,0,0,0-.45-6.12,236.79,236.79,0,0,1-3.83-45.71c.05-8.06.22-16.12.77-24.16a28.09,28.09,0,0,1,5.89-15.6c3.66-4.69,8.41-7.23,14.33-6.22,8.17,1.39,14.71,5.46,18.56,13.17.74,1.49,1.73,2.85,2.91,4.78,1.34-1.54,2.18-2.45,3-3.42,4.16-5.11,8.36-10.2,12.42-15.38a16.32,16.32,0,0,0,1.68-3.72,20.15,20.15,0,0,0-3.38-1.41c-3.57-.78-4.91-2.11-5-5.32-.11-3.56,1.61-5.86,5.1-6.46a18.27,18.27,0,0,1,5.27-.2c3.21.4,4.08,1.8,3.4,5C-405-783.33-405.49-781.87-405.91-780.39ZM-479.17-565.5c1.54,1.66,2.54,2.91,3.7,4a44.25,44.25,0,0,1,9.55,13.27,59.51,59.51,0,0,1,5.83,23.74c.47,9.71.62,19.29-2.37,28.72-3.83,12.08-10.53,22-20.89,29.38-7.37,5.24-7.49,5.32-1.9,12.75,11.33,15.07,22.93,29.93,34.19,45.05,10.76,14.46,22.15,28.53,28.2,45.95,2.56,7.35,4.81,14.74,5.52,22.46a190,190,0,0,1-.89,45.83c-.12.8-.18,1.6-.27,2.41-.27,2.25.52,3.76,2.9,4.19a72.74,72.74,0,0,0,8.07,1.47,136.16,136.16,0,0,0,31.83-1.27q19.08-3.19,38.06-6.92c14.47-2.85,28.42-7.06,41-15.29,4.32-2.84,7.84-6.08,10.22-10.62a63.22,63.22,0,0,1,3.73-6.76c1.74-2.51,1.46-4.69,0-7.17a51.64,51.64,0,0,1-3.06-6.57,114.92,114.92,0,0,1-8.39-37.53c-.86-16.88.09-33.45,5.82-49.59,5.16-14.57,10.57-29.05,14-44.2,4.41-19.36,8.39-38.74,9.23-58.65.26-6.28,1-12.54,1.07-18.82a181.54,181.54,0,0,0-.52-22.14c-1-9.59-2.76-19.12-4.61-28.6-1.54-7.89-3.72-15.66-5.55-23.5-.56-2.43-2.07-3.82-4.2-4.94a108.87,108.87,0,0,0-50.74-12.27,34.65,34.65,0,0,0-4.74.74,17.57,17.57,0,0,0,2.33,1.84c8.07,3.84,12,10.45,12.73,19.14.18,2.09.28,4.18.38,6.27.5,10.25-2.08,20.18-3.11,30.26-.71,7-.49,14.13-.66,21.2-.08,3.51,1.47,5.89,4.39,8a13.28,13.28,0,0,1,4.56,6.48c1.26,4.19-.36,8-3.88,10.67-3.23,2.46-8.68,2.36-12.27-.19-2-1.39-3.62-3.23-5.58-4.62-7.29-5.18-15-6.47-23.12-2a26.2,26.2,0,0,1-5.66,2.7c-2.58.69-5.39,1.38-8,1-4.46-.55-6.49-4-4.71-8.14,2.86-6.6,6.87-12.54,13.67-15.65,2.62-1.19,3.84-2.61,3.79-5.37a7.66,7.66,0,0,1,.47-2.85c3.08-7.78.87-14.34-4-20.69-6.27-8.11-12.09-10.2-22-7.17-3.07,1-6.2,1.77-9.33,2.53-6.77,1.62-12.49-.37-17-5.54A38.41,38.41,0,0,1-416-609.7c-1.89-3.54-2.25-3.75-5.76-1.58-.55.34-1.08.71-1.62,1.07-18.55,12.36-35.33,27-52.39,41.22C-476.89-568.08-477.78-566.95-479.17-565.5ZM-664.33-927.3a22.41,22.41,0,0,1,2.83-13.57c2-3.7,4.13-7.28,6.25-10.89,1.77-3,1.65-4.81-.59-7.37a10.45,10.45,0,0,0-9.07-3.61c-16.82,1.08-30.82,7.75-41,21.43-10.68,14.42-17.68,30.68-21.93,48-1.52,6.21-1.85,12.73-2.36,19.14-.35,4.33.22,4.64,4.42,5a53.93,53.93,0,0,1,6.7.91,25,25,0,0,1,4.95,1.84c1.92.88,2.65,2.7,1.74,4.39-.51.92-2.33,1.24-3.62,1.55-.72.16-1.56-.31-2.36-.4-7.24-.82-14.5-1.29-21.61.74-12.44,3.56-21.38,10.93-25.08,23.75-5.54,19.19-3.06,37.06,9.36,53,4.66,6,10.18,11.22,17.31,14.37a43.47,43.47,0,0,0,34.81.57c7.6-3,14.93-6.82,22.23-10.55a51.37,51.37,0,0,0,9.68-6.33c4.92-4.14,9.55-8.63,14.19-13.1a6.46,6.46,0,0,1,5.65-2c4.47.59,8.93,1.39,13.41,1.66,15,.89,30,.4,44.66-3.36,18.23-4.66,34.16-13.22,47-27.11,8.34-9,13.83-19.33,15.15-31.69A69.55,69.55,0,0,1-530.2-869a31.57,31.57,0,0,1,1.83-4.61l1.19,0,3.81,6.65c3.18-1.19,3.08-4,3.52-6.14,3.45-16.49,3.79-32.92-1.61-49.16-6.74-20.22-19.71-34.38-40-41.56-16.4-5.79-33.39-7.28-50.53-6.2-14.26.89-26.46,7-35.43,18.34-5.18,6.54-9.56,13.71-14.3,20.59Zm140.57,72.55c-2.44,5.59-4,10.38-6.5,14.67-11.49,19.89-28.7,33.24-49.6,42-5.47,2.3-11.34,3.64-17,5.48-1.77.58-4,.77-4.14,3.36-.19,3.86-2.06,7.06-3.92,10.28q-20,34.51-39.89,69c-21.34,37-39.13,75.89-59,113.67-11.09,21.1-22.35,42.11-33.56,63.14-2.65,5-5.6,9.8-8,14.87-5,10.28-9.65,20.7-14.51,31-1.42,3-3.06,5.91-5.19,10,2.63-.58,4.18-.67,5.51-1.25,13.75-6,28-10.59,42.33-15a449.47,449.47,0,0,1,56-13.06c4.07-.69,6.9-2.19,9.12-5.95,4.59-7.75,10.15-14.94,14.67-22.73,11.26-19.38,20.57-39.76,30-60.08,8-17.26,15.86-34.59,26.53-50.43A59.57,59.57,0,0,1-572.39-656a17.51,17.51,0,0,0,5-6.91c6.76-18.46,13.51-36.92,20.38-55.33,2.48-6.64,5.13-13.22,8-19.67.93-2.08,2.73-4.86,4.55-5.23,3.94-.8,4.77-3.22,5.46-6.35.41-1.88,1.14-3.69,1.72-5.54,3.77-12.14,7.5-24.3,11.33-36.43q4.51-14.28,9.25-28.5c.79-2.41,1-4.59-.39-6.93-4.48-7.64-8.81-15.38-13.26-23.05C-521.2-851.43-522.32-852.75-523.76-854.75ZM-916.45-371.5a22.16,22.16,0,0,0,3.71-.27c7.79-2,15.5-4.43,23.36-6.16,9.59-2.11,19.24-4.26,29-5.37a264.05,264.05,0,0,1,67.52,1.11c8.93,1.28,17.84,2.78,26.72,4.39a8.41,8.41,0,0,0,7.93-2.27c3.75-3.54,7.54-7.05,11.49-10.36,2.71-2.26,5.7-4.17,8.6-6.18,1.83-1.26,4-2.18,5.59-3.66,7.89-7.21,17.46-10.44,27.8-10.84a65.29,65.29,0,0,1,25.66,3.73c17.66,6.6,35.6,12.49,53.22,19.2,17.46,6.65,34.93,13.38,51.19,22.77a41.74,41.74,0,0,0,4.69,2c3.54-4.07,7.36-7.6,6.74-13.8-.36-3.64.22-7.41.67-11.08q3.86-31.2,7.88-62.38c.34-2.68,1.88-5.86.91-7.87-1.08-2.26-4.31-3.56-6.74-5.07-14.54-9.06-22.21-22-22.49-39.25,0-1.61,0-3.23-.06-4.84-.11-1.92-1.1-3-3.14-2.74-.8.09-1.6.21-2.4.33-22.62,3.44-45.27,6.75-67.87,10.37a473.22,473.22,0,0,0-81.94,20.65,395.48,395.48,0,0,0-46.34,19.42c-19.38,9.7-37.15,21.92-54.9,34.24q-18.24,12.69-37.2,24.34c-10.7,6.6-21.59,12.89-31.27,21C-911-377.74-914.24-375.53-916.45-371.5Zm356.15,143a12.38,12.38,0,0,1,2.22,2.14c1.8,3,3.61,6.1,5.16,9.27q9,18.45,17.9,37c1.93,4,2.45,4.32,6.66,3.13,1.71-.49,3.42-1,5.09-1.55,20.68-7.24,41.31-14.62,62.06-21.67,4.63-1.57,7.11-4.12,8.46-8.81,5.34-18.58,11.06-37,16.52-55.6,1.4-4.76,2.31-9.66,3.55-14.48a39.59,39.59,0,0,1,1.81-5c.8-1.93,1.73-3.81,2.55-5.74,3.42-8.05,3.65-16.61,4-25.16.68-16-1.28-31.54-8.11-46.24-2.68-5.76-2.95-6-9.13-5.19-12.31,1.66-24.6,3.38-36.91,5-4.95.66-9.93,1.14-14.87,1.9-3.45.53-3.89,1.22-3.42,4.43a59.78,59.78,0,0,1-1.52,24.88c-4.33,15.76-13.17,28.17-26.86,37-12,7.8-30.85,7.9-42.21-5.57a49.83,49.83,0,0,1-6.52-10.67c-1.27-2.66-2.83-4.1-5.73-4.34-6-.5-11.6-2.64-17-5.35-4.46-2.24-8.9-4.54-13.38-6.74-4.15-2-4.68-1.89-7,1.83q-11.22,17.76-22.39,35.56c-2.49,4-5.64,5-9.85,2.8a41.6,41.6,0,0,1-5.14-3.59c-1.53-1.11-3-2.25-4.45-3.29-3.94,3.14-4.08,3.71-1.52,6.59a69.84,69.84,0,0,1,12.43,21.15,21.51,21.51,0,0,1,1.83,6.45,14.77,14.77,0,0,0,2.83,8.08q8.24,11.31,16.57,22.58c2.25,3,4.26,6.14,3.56,10.15-.89,5.1-1.93,10.15-5.13,14.45a18.26,18.26,0,0,0-1.4,3.55c1.89-.83,2.9-1.22,3.86-1.7,11.67-5.82,23.18-12,35-17.35a121.64,121.64,0,0,1,20.6-6.74C-566.77-226.06-563.12-225.64-560.3-228.46ZM-274.2-326c-.7.23-1.13.24-1.28.45-1.48,2.09-2.95,4.19-4.37,6.33-2,3-1.92,3.36,1,5.39.79.55,1.62,1.06,2.46,1.54,18.12,10.4,23.62,13.52,45.1,31.15.5.41,1,.77,1.57,1.14,6.47,4.49,13.14,8.73,19.39,13.51q20.16,15.44,39.94,31.33c8.65,6.94,18.12,13,25,21.93a11.36,11.36,0,0,0,2.18,1.9q6.93,5.25,13.88,10.48a5.86,5.86,0,0,1,2.75,4.82c0,5.16.18,10.31.38,15.46.57,15.14,1,30.29,1.85,45.42.66,11.25,1.7,22.5,3,33.7,2,17,4.17,33.9,6.8,50.76,1.88,12.09,4.54,24.07,7,36.06A516.62,516.62,0,0,0-91.6,45.65c1.43,4.21,1.64,4.46,6.11,4.73,10.62.65,21.24,1.73,31.87,1.77q39.16.12,78.34-.59a335.5,335.5,0,0,0,56.7-5.92c2.11-.41,4.15-1.21,6.22-1.83,0-.35,0-.7-.08-1.05-1.81-.52-3.63-1-5.43-1.57-6.29-2-12.75-3.6-18.84-6.09-26-10.62-50.77-23.8-75.11-37.77C-24.4-9.9-36.84-17.32-48.5-26A144,144,0,0,1-98.26-93a296.79,296.79,0,0,1-14-54.22c-1-6.34-1.53-12.78-2.22-19.18-.35-3.19-.55-6.4-.87-9.6-.49-4.94-1.83-10-1.36-14.8.81-8.19-1.13-14.61-8.21-19.19-2.43-1.57-4.73-3.35-7.07-5.06-4-2.94-8.11-5.8-12-8.87q-27.21-21.32-54.35-42.73-9.87-7.77-19.71-15.61c-5.53-4.4-11-8.9-16.57-13.24q-18.12-14.1-36.32-28.08Zm66.76-415.41c1-1.83,1.74-3.07,2.39-4.36,8.5-17,16.79-34.1,25.53-51,9.19-17.73,18.69-35.3,28.25-52.84,8.86-16.26,17.93-32.41,27.08-48.51a27,27,0,0,1,6.54-8.24c2.69-2,3.93-4.6,5-7.42,1.15-3,.46-3.94-2.77-4.58-5.68-1.14-11.41-2.11-17-3.55-3.48-.9-5.74-.23-7.78,2.81-4.41,6.54-9.1,12.88-13.68,19.31l-28.89,40.54c-6.92,9.7-13.8,19.44-20.75,29.12-13.26,18.43-26.59,36.81-39.83,55.27q-24.36,34-48.63,68-18.58,25.94-37.2,51.84c-.88,1.22-1.59,2.57-2.31,3.75.71.68.91,1.06,1.16,1.1a28.7,28.7,0,0,0,3.81.35c10.65.06,21.29.24,31.54,3.76,2.18.75,3.51-.48,5.1-1.78,3.35-2.73,6.65-5.81,10.51-7.55a106.44,106.44,0,0,1,19.55-6.77c4.4-1,6.57-3.22,8.29-7,5.65-12.3,11.13-24.7,17.38-36.69,5.72-11,12.32-21.53,18.64-32.2C-213.83-740.89-211.63-743.34-207.44-741.41ZM-857-423.31l.86,1c2.67-1.66,5.39-3.23,8-5,12.41-8.39,24.58-17.16,37.25-25.13,9.25-5.83,19.12-10.66,28.74-15.88,2.85-1.55,5.68-3,7.32-6,2.69-5,5.71-9.74,8.19-14.79,4.47-9.1,8.43-18.46,13-27.51,7.12-14.08,14.55-28,21.94-42a13.78,13.78,0,0,0,1.54-9.33c-2.61-13.77-5.41-27.51-7.8-41.32-2.61-15.09-5.13-30.2-7.16-45.37-2.14-16-3.66-32-5.49-48a23.14,23.14,0,0,0-1.25-3.71l-1.33,4.25c-4,12.75-7.57,25.69-12.23,38.2-9.74,26.11-20.13,52-30.14,78q-18.94,49.15-37.68,98.38c-7.86,20.62-15.54,41.31-23.28,62A15.63,15.63,0,0,0-857-423.31Zm458.41-234.5c-1.33-3.42-1.11-4.78,2.09-6.42a27.48,27.48,0,0,1,7.71-2.53c2.22-.4,3.54.94,3,3.15a12.88,12.88,0,0,1-2.85,5.32c-4.6,5.37-9.74,10.31-14.06,15.89-5.48,7.07-8.56,15.08-7.16,24.36,1.35,8.9,8.38,14.65,17.24,13.61a52,52,0,0,0,8.46-1.92c11-3.19,20-.47,26.83,8.92,5.68,7.76,8.64,15.83,4.11,25.22a22.65,22.65,0,0,0-2,5.45c-.89,4.66-3.5,7.56-7.66,9.87-2.51,1.39-4.23,4.28-6.17,6.61a2.3,2.3,0,0,0-.13,2.18,3.12,3.12,0,0,0,2.46.87,31.27,31.27,0,0,0,4.91-2c2.49-1.11,4.86-2.65,7.46-3.35,10.34-2.79,19.38,0,27.34,6.91,1.45,1.27,3.13,3.81,5.21,1.81s-.32-3.76-1.57-5.3c-5.16-6.37-8.27-13.43-7.42-21.81.59-5.77,1.13-11.55,2-17.28,1.28-8.62,2.53-17.23,2.1-26-.51-10.22-4.7-15.89-14.51-18.56a54.49,54.49,0,0,0-12.39-1.78c-5.79-.19-11.6.31-17.4.37a72.26,72.26,0,0,1-9.65-.43c-4.53-.57-6.09-3.15-4.75-7.54a18.31,18.31,0,0,1,2-4.37c5.95-9.38,12-18.72,18-28.08,6.16-9.63,12.5-19.16,18.36-29A30.35,30.35,0,0,0-343.5-714c.68-4-1.71-5.92-5.53-4.59a33.84,33.84,0,0,0-9.47,4.66c-4.58,3.51-8.69,7.65-12.95,11.57-5.57,5.11-11,10.33-16.68,15.35a15.88,15.88,0,0,1-4.67,2.45c-1.36.55-3,.86-3.85-.78s.51-2.61,1.74-3.41,2.81-1.62,4.07-2.61c3.3-2.59,3.39-4,.48-7A129.85,129.85,0,0,0-415.85-719a40,40,0,0,0-9.18-4.22c-5.64-1.7-9.56-.2-12.2,5a102,102,0,0,0-7,16.4c-4.34,14.11-5.89,28.63-5.89,43.41,0,18.7-.57,37.4-.86,56.1a16,16,0,0,0,.62,3c1.2-.7,2-1.11,2.78-1.64,9.05-6.46,18.05-13,27.16-19.36a7.22,7.22,0,0,0,3.07-5.19A38.13,38.13,0,0,1-411-641.13C-407.15-646.66-402.95-651.95-398.56-657.81ZM-519.25-464c9.53,1.75,18.94-2.29,28-6.22,11.1-4.83,17.84-14.13,20.58-25.91,1.41-6.09,1.61-12.45,2.93-18.56,2.11-9.76.8-18.56-5.82-26.3a8.33,8.33,0,0,1-1.28-2c-4.37-10.05-13.12-15.41-22.46-19.27-10-4.12-20.76-4.4-31.41-2.48-12.06,2.18-22.24,8.41-31.65,15.88-3.08,2.44-6.21,5.46-7.89,8.91-6.69,13.72-9.08,28-4.71,43.14,3.28,11.35,10.15,19.58,20.23,25.36S-531.64-463.83-519.25-464Zm31.76,412.61c-1.86-1.61-2.89-2.32-3.71-3.23-5.46-6.09-9.19-13.24-12.18-20.75q-12.72-31.89-25.16-63.9c-4.64-12-11.05-23.2-14.55-35.64a27.6,27.6,0,0,0-2.12-4.34c-1.22-2.45-2.57-4.85-3.61-7.38-4.49-10.88-8.86-21.8-13.34-32.68a15.63,15.63,0,0,0-2-2.82c-1.54.72-2.83,1.32-4.13,1.91-1.47.67-2.92,1.38-4.42,2a378.68,378.68,0,0,0-59.88,29.18c-14.37,8.69-29.57,15.7-45,22.33-7.24,3.11-14.17,6.94-21.17,10.6-1.49.77-3.41,1.55-3.74,4.32,10.76-3.63,21-7.1,31.18-10.51,11.47-3.83,23-7.4,35-9.38,20-3.3,38.89-.49,56.33,10.13a117.89,117.89,0,0,1,27.09,22.43,278.76,278.76,0,0,1,30,40.27c6.69,11,12.81,22.37,18.82,33.76,2.31,4.36,3.51,9.29,5.44,13.87,2.42,5.75,6.62,10.64,8,16.95.4,1.79,2.32,3.24,3.9,5.3.62-.95.9-1.33,1.13-1.74,2.14-3.84,2.91-8.1,3.94-12.33,2.72-11.11,5.66-22.16,8.63-33.2,4.43-16.49,9-32.95,13.46-49.42,3.6-13.22,7.11-26.46,10.81-39.65,2.57-9.14,5.42-18.2,8.12-27.3,1-3.38,2.51-6.62,1.9-10.36a9.53,9.53,0,0,1,.72-4.22c1.32-4,3-7.81,4.14-11.81q7.9-26.9,15.61-53.86c2-6.86,1.88-6.9-3.94-10.83a5.23,5.23,0,0,0-1.35-.47c-.39.37-.91.63-1,1-1.26,3.82-2.58,7.62-3.64,11.5-2.93,10.72-5.95,21.43-8.56,32.24-3.39,14.08-8.91,27.51-12.2,41.66-3.62,15.51-8.42,30.74-12.71,46.1-3.5,12.57-7.11,25.12-10.48,37.73q-5,18.67-9.57,37.45c-1.54,6.39-4,12.61-3.77,19.39C-485.44-55.58-486.55-54-487.49-51.42Zm201.2-592.68a30,30,0,0,0,2.61,2.16c2.75,1.68,5.63,3.15,8.28,5,4,2.77,6.63,6.36,7,11.53.21,2.65,1.34,5.28,2.34,7.81a57,57,0,0,1,4.16,16.32,113.63,113.63,0,0,0,2.14,13.3c1.94,9.44,4.52,18.79,3.3,28.62a23.48,23.48,0,0,0,.23,5.79c.38,3,.9,3.54,4,3.56a106.71,106.71,0,0,0,11.6-.37c10.25-1.11,20.11-2.77,29.1-9a51.91,51.91,0,0,0,17.19-19c6.2-11.81,6.23-24.14,4-36.68-1.48-8.36-6.14-15.54-10.09-22.9a19.52,19.52,0,0,0-4.82-5.33,52.82,52.82,0,0,0-27.67-11.81,91.49,91.49,0,0,0-37.79,3.52,101.16,101.16,0,0,0-11.66,4.6C-283.64-646.44-284.75-645.26-286.29-644.1Zm35.71,359.45c-2.61-2.21-4.24-3.74-6-5.07-8.51-6.38-17.1-12.66-25.59-19.07-3.91-2.95-4-3-7.55.42A72.22,72.22,0,0,1-322.22-290c-11.68,3.09-23.5,5.7-35.36,8-17,3.24-34,6.07-51.4,3.87-2.56-.32-3.28,1-3.72,3.26-1.49,7.59-3,15.19-4.85,22.68-2.87,11.41-6.09,22.73-9.09,34.1a30.42,30.42,0,0,0-.48,4.45,29.9,29.9,0,0,0,4-.81c5.3-1.95,10.58-3.91,15.83-6,33.26-13.14,66.56-26.2,99.75-39.52,17.49-7,34.81-14.5,52.18-21.81A49.23,49.23,0,0,0-250.58-284.65ZM-681-310.09a24.38,24.38,0,0,0-3.37-3.76c-1.57-1.19-3.71-.56-3.82,1.17-.24,3.74-.94,7.68.87,11.21,2.45,4.79,2.18,9.12-1.23,13.42a16.32,16.32,0,0,0-2.52,3.53c-3.65,8.77-7.89,17.38-10.6,26.44-6.06,20.22-8,41.09-7.64,62.16a24.47,24.47,0,0,0,1,6.17,5.94,5.94,0,0,0,4.62,4.53c6.33,1.09,12.7,2.58,19.08,2.7,14.51.26,27.46-5,39.34-13A54.32,54.32,0,0,0-630-211.37c1.88-2.93,1.82-3.65-.41-6.45-.8-1-1.79-1.86-2.62-2.85-4.14-4.93-8.63-9.62-12.3-14.88-8.38-12-16.39-24.32-24.46-36.57-1.58-2.4-3.38-5-3.93-7.68-.79-3.9-2.88-6.22-6.07-8.13-3.8-2.29-4.16-5.42-1.21-8.73.92-1,1.89-2,3.05-3.23-2-1.46-3.92-2.42-5.16-4C-685-306.22-681.72-307.38-681-310.09ZM-505.71-369a12.85,12.85,0,0,0,.42-2.48c-1.11-12.95.83-25.73,2-38.57,1.22-13.8,2.32-27.61,3.4-41.43.39-5-.8-6.07-5.38-5-11,2.66-22.05,2.41-33.13.79-3.29-.48-6.55-1.18-10.37-1.87-2.89,27.53-5.74,54.63-8.64,82.24,5.45.15,10.24.59,15,.35,11.72-.61,23.21-.09,34,5.14A19.56,19.56,0,0,0-505.71-369Zm46.85,175.67c-1.92.59-3.29,1-4.63,1.43l-55.2,19.2c-2.58.9-5.2,1.72-7.78,2.62-2.25.78-2.95,2.34-2.12,4.56.28.76.66,1.47,1,2.22q13.21,32.72,26.4,65.43c2.77,6.88,5.38,13.81,8.13,20.69a24.3,24.3,0,0,0,2,3.34c.78-.93,1.39-1.34,1.53-1.88q15.62-57.56,31.13-115.16C-458.27-191.43-458.61-192.1-458.86-193.35ZM-568.23-336.57h-.17c0,3.22.08,6.44,0,9.66a28.68,28.68,0,0,0,4.84,16.41c9.61,15.24,29.26,17.93,42.44,5.66,11.83-11,16.82-24.79,16.1-40.78-.26-5.89-2.14-10.72-8.42-12.65-.75-.23-1.4-.79-2.14-1.1-4.75-2-9.37-5-14.29-5.6a124.43,124.43,0,0,0-23.56-.12c-5.82.4-14,9.7-14.72,15.52a11.56,11.56,0,0,0-.06,1.44Zm221.64-596.22c2.13-4.36.33-7-1.46-9.76-12.16-18.44-24.38-36.83-36.42-55.34-9-13.79-17.66-27.74-26.53-41.59-.89-1.38-1.29-3.45-4.2-3.38-.53,1.24-1.18,2.65-1.77,4.08-3.81,9.41-7.58,18.83-11.44,28.22q-4.59,11.17-9.36,22.28c-1.37,3.18-1.05,5.59,1.65,8.15,3.13,3,5.6,6.63,8.42,9.93,1.07,1.25,2.33,2.36,4.11,4.14a22,22,0,0,1,2-3c4.77-4.8,10-5.47,15.73-1.71a68.86,68.86,0,0,1,7.42,6.16c2.66,2.35,5.07,5,7.87,7.14,3.51,2.67,7.44,4.73,12.1,3.71a13.16,13.16,0,0,1,11.79,2.84c5.55,4.65,10.91,9.51,16.33,14.32C-349.18-935.52-348.14-934.35-346.59-932.79Zm-316.72,549c-.52.85-.79,1.1-.82,1.39a8.62,8.62,0,0,0,0,1.9,27.25,27.25,0,0,1-6.35,20.62c-3.44,4.17-3,6.14,1.79,8.44.73.35,1.51.57,2.24.91,4.67,2.15,9.38,4.21,14,6.53,3.27,1.65,3.7,3.83,1.64,6.63q-8.4,11.44-16.84,22.87c-1.59,2.16-1.51,2.81.52,4.31,6.45,4.79,12.91,9.56,19.32,14.41,3.81,2.89,5,2.65,7.45-1.58,5.91-10.14,12-20.17,17.78-30.41,4.17-7.41,8-15,11.74-22.67,2.11-4.37,1.1-5.87-3.3-7.65a100.76,100.76,0,0,1-9.92-4.82c-2.67-1.44-5.12-3.28-7.8-4.7-9.09-4.84-18.22-9.57-27.35-14.32C-660.51-382.6-661.82-383.13-663.31-383.81Zm-49.94,41.56c9.5-1.35,19.77-3,27.38-11.51a73.42,73.42,0,0,1,7.14-6.49c7.86-6.81,8-18.3,0-24.86a69.17,69.17,0,0,0-32.45-15.19c-10.43-1.78-19.68,3.32-23.56,13.24-1.28,3.25-1.49,6.9-2.57,10.24-2.91,9-.79,16.89,4.93,23.95C-727.71-347.12-722.23-342.48-713.25-342.25ZM-170.88-319c-1.73-1.34-2.38-2.09-3.2-2.44-11.11-4.73-22-10-33.42-13.92-14.76-5.05-29.9-9-44.88-13.39q-12.28-3.6-24.6-7.11c-1.59-.45-3.33-1.61-4.86.19.56,8.31,3.29,14,9.83,19,15.49,11.79,31.25,23.24,46.62,35.2,4.2,3.27,7.69,3.46,12.29,1.34,9.79-4.51,19.8-8.56,29.67-12.89C-179.5-314.72-175.68-316.7-170.88-319ZM-67.73-630.47a12,12,0,0,0-2.89-9.64,55,55,0,0,0-7.44-6.79c-8.28-6.13-17.78-9.56-27.63-12.25-3.85-1.05-6.39-.08-8.67,3.13a71.23,71.23,0,0,0-12.58,35,18.52,18.52,0,0,0,3,12c5,7.68,18.64,13.38,27.64,11.57,9.5-1.9,15.89-8.65,22.78-14.61a5.39,5.39,0,0,0,1.1-1.58C-69.73-618.86-67.6-624.22-67.73-630.47Zm-661.8,325.06c-1.32-1.26-2.39-2.19-3.37-3.21-3.55-3.72-7.18-7.38-10.56-11.25-1.65-1.88-2.35-4.22-.79-6.68,2.33-3.67,4.58-7.39,7-11,2.73-4.19,2.66-4.07-.42-8.34-6.25-8.7-9.68-18.15-7.18-29,.4-1.73.79-3.46,1.1-5.2a23.28,23.28,0,0,0,0-3.15,28.8,28.8,0,0,0-3.91,2.61c-2.63,2.59-5.12,5.32-7.68,8-5.93,6.13-12.27,11.91-17.69,18.46-5.08,6.12-11.12,11.66-13.82,19.59-1.58,4.66-1.46,6.46,2.24,9.71,3.26,2.88,6.69,5.59,9.76,8.66,7.29,7.29,14.32,14.84,21.63,22.11,2.92,2.91,5.89,5.92,10.16,7.66C-737.16-291.8-734.34-299.13-729.53-305.41Zm545.68-326.77c1.35,8.57,2.85,16.25,3.69,24,.88,8.06-1,15.93-3.58,24.46,2.45-.26,4-.28,5.47-.59q9-1.93,17.92-4c9.41-2.18,18.82-4.39,28.2-6.69a18,18,0,0,0,3.76-2c-.84-1.33-1.3-2.17-1.86-2.94a25.81,25.81,0,0,1-4.88-15.35,66.24,66.24,0,0,1,5.77-27.21c1.11-2.59,2.11-5.22,3.15-7.83l-.78-1.14C-145.14-642.81-163.48-634.75-183.85-632.18ZM-441.38-375.71a3.41,3.41,0,0,0-.21-1.33c-14.71-21.94-31.21-42.55-47.32-63.44-.77-1-1.66-1.92-2.52-2.86a.66.66,0,0,0-.45-.09,10.81,10.81,0,0,0-1.05.27c-.19,1.45-.52,3.12-.63,4.8-.6,9-1,18-1.73,27-1.08,13-2.41,26-3.57,38.95a29.7,29.7,0,0,0,.26,4.46C-491.68-367.3-444.94-373.72-441.38-375.71ZM-77.94-597.06c2,.78,3.46,1.45,4.94,1.87,8.53,2.4,17.06,4.74,25.59,7.12,4.6,1.28,5.21.86,5.61-4,.6-7.27,2.87-13.91,8-19.19,5-5.12,8.68-11.62,15.35-15.06.49-.25.79-.87,1.73-2-7.34-1.86-14.19-3.35-20.88-5.37s-13.26-4.54-20.78-7.16C-58.42-623.08-63.95-608.44-77.94-597.06Zm152.73-9.08a57.83,57.83,0,0,0-5.72-19.27c-.79-1.6-2.16-1.83-3.69-1.27a47.82,47.82,0,0,1-5.4,2c-6.9,1.57-13.84,2.93-20.74,4.45-5.81,1.28-11.63,2.56-17.38,4.07-2.89.76-3.62,2.05-2.68,4.6,2.68,7.24,5.56,14.41,8.32,21.62,1,2.61,2.92,3.19,5.43,2.7a133.19,133.19,0,0,0,38.6-13.4C73.84-601.85,74.64-603.67,74.79-606.14Zm-505-126.05a29.33,29.33,0,0,1,4,.48c3.84,1,7.74,2,11.45,3.4,2.53,1,4.78,2.63,7.14,4,4.49,2.6,4.52,2.63,7.36-1.94,6-9.6,10.33-20,14.14-30.56a74.81,74.81,0,0,0,2.75-9.73,29.8,29.8,0,0,0,.62-7.18c-.21-5.8-2.47-7.42-8.13-5.74a25.69,25.69,0,0,0-6.55,3,67.6,67.6,0,0,0-15.71,14.14c-6.72,8.29-11.76,17.62-16.51,27.11A12.08,12.08,0,0,0-430.17-732.19Zm-180.2,398.28c8.79,3.46,17.15,6.76,25.51,10a33.63,33.63,0,0,0,3.67,1.23c3.88,1,4.65.48,5-3.37.1-1.28,0-2.59.14-3.86.56-5.12.89-10.29,1.82-15.34,1.55-8.48-1.81-14.48-9.9-17.13-5.2-1.7-10.36-3.53-15.49-5.43-13.74-5.11-27.45-10.3-41.18-15.42a15.27,15.27,0,0,0-2.81-.47l-.37,1.07c7.27,4,14.46,8.24,21.84,12.05,5.86,3,12,5.51,17.95,8.38,3.9,1.88,4.17,2.8,2.5,6.78-2.53,6.07-5.14,12.12-7.68,18.18A31.64,31.64,0,0,0-610.37-333.91Zm-98.78-.07c-.63-.56-.74-.73-.87-.76-5.66-1.1-11.3-2.27-17-3.18a4.28,4.28,0,0,0-3.4,1.21c-2.93,3.54-5.6,7.29-8.75,11.49,1.17.77,1.89,1.15,2.51,1.66,4,3.28,7.89,6.6,11.84,9.89,1.95,1.63,2.33,3.48,1.66,6-1.15,4.34-2,8.71-4.8,12.42-1.2,1.57-1.22,3.51.76,4.58,5.78,3.15,11.62,6.19,17.49,9.18a3.39,3.39,0,0,0,4.93-1.52c2.07-3.62,4.36-7.14,6.18-10.89,2.89-5.94,2.28-8.09-2.2-12.83-3.75-4-7.23-8.2-10.86-12.29a6.35,6.35,0,0,1-1.06-7.57Zm251.72-353.33,1.62,0c.33-1.67.68-3.33,1-5a86.82,86.82,0,0,1,9-26.39c4.29-7.74,8.41-15.58,12.74-23.3,1.42-2.54,1.22-4.59-.16-7.18-2.66-5-7.45-7.44-11.71-10.48a21.73,21.73,0,0,0-6.51-3c-3.52-1-5.93.36-7,3.93a39.11,39.11,0,0,0-1.71,8c-1.52,16-.44,31.89.56,47.81C-459.28-697.69-458.18-692.51-457.43-687.31Zm534,93a28.17,28.17,0,0,0-3.39,1.11c-3.62,1.75-7.09,3.86-10.82,5.33a168.9,168.9,0,0,0-27,13.9c-3.23,2-3.46,2.42-2.05,5.77s2.84,6.51,4.45,9.66c1.94,3.77,3.55,4.25,7.37,2.58l10.6-4.67c8.09-3.6,16.21-7.16,24.27-10.82,4.57-2.07,4.69-2.67,2.41-7.35a76.74,76.74,0,0,1-3.24-7C78.14-588.5,77.44-591.28,76.52-594.32ZM-672.94-318.26c1.28-1.74,2.34-3.14,3.36-4.57,2.7-3.79,5.47-7.54,8.05-11.42,1.92-2.86,1.71-3.71-1.43-5.09-4.85-2.13-9.86-3.91-14.73-6-2.78-1.2-5-.86-7.65.77-4.49,2.76-9.34,4.92-14,7.41-1.08.58-2.4,1.25-2.91,2.23-1.61,3.11-2.89,6.39-4.45,9.95l10.05,8.71c3.24-3.78,5.73-7.8,10.7-8.32S-677.14-322.29-672.94-318.26ZM.86-567c5.09-2.89,9.66-5.5,14.25-8.09,5.14-2.9,5.61-4.07,4.07-9.65-1.61-5.88-3.15-11.78-4.68-17.68-.85-3.25-1.67-3.8-4.73-2.43-5.85,2.61-11.64,5.39-17.46,8.1L-15.6-593C-8-585.37-3.84-576.23.86-567ZM-22-594.27c.9-3.79,4.54-5.73,8-7.73a92.55,92.55,0,0,1,8.6-4.37c2.33-1,2.55-2.82,1.9-4.78-1-2.87.08-7.3-4-8-3.16-.51-7.16-.3-9.79,1.26-6.11,3.62-11.28,8.65-14,15.49S-34-588.54-28.75-582.9c3.22,3.46,7.49,6,11.39,8.75.75.53,2,.37,3.79.66Zm69.38-61.91-3.62,1.38c-3.89,1.48-7.68,3.34-11.69,4.36-8.24,2.08-16.6,3.72-24.91,5.53-4.27.92-5,1.66-5.5,5.94-.62,5.07.57,6.36,5.42,5.34,8.33-1.74,16.66-3.52,24.92-5.57,4.81-1.2,9.53-2.86,14.23-4.48,4.42-1.53,5.13-3.27,3.39-7.69C49-652.84,48.28-654.24,47.37-656.18Zm-69.91-490.73,1.16,1,19.53-13.27a7.56,7.56,0,0,0-.61-1.94c-4.58-5.54-9.19-11-14.15-17-1.22,7.13-2.31,13.86-3.55,20.55C-20.82-1154-21.74-1150.48-22.54-1146.91ZM-377.65-643c9.25.23,16.81-4.12,25-4.7,1.11-.07,2.17-.94,3.59-1.6l-15.22-15.25A162.78,162.78,0,0,0-377.65-643ZM5.54-612.22c3.85-.49,6.85-1.23,8.69-5.14,1.07-2.25,3.47-4.19,5.72-5.52,7.65-4.5,16.3-5.84,24.9-7.24,1.58-.25,4.51.15,4.15-2.12-.46-2.88-3.11-1.21-4.75-.8-10.92,2.77-21.8,5.71-32.71,8.48-7.13,1.82-7.16,1.74-6.42,8.82C5.23-614.65,5.38-613.57,5.54-612.22Zm-195.75,40.85c4,.36,24.8-5.55,30.1-8.22-.54-.19-1-.53-1.34-.45-8.3,1.79-16.62,3.54-24.87,5.54C-187.58-574.2-188.57-572.74-190.21-571.37Zm212.12,17c.65-.05,1.45-.06,2.24-.17,3.22-.42,3.78-1.35,2.75-4.47-1.12-3.37-2.07-3.72-6.79-2.51-3.21.82-3.76,2.06-2.66,5.14C18.27-554.13,20.07-554.52,21.91-554.41ZM-665-286.63c-1.26,1.32-2.57,2.09-2.5,2.7.31,2.66,2,4.34,5.21,5.71Zm-4-9.92c-3.17,1.72-3.17,1.72-4.72,4.36,2.2.28,4.35.83,5.79-1.25C-667-294.64-667.46-295.91-668.95-296.55ZM-394.8-723l-1-.51a20.1,20.1,0,0,0-2.8,3.85c-.21.48,1,1.6,1.59,2.43.64-.57,1.64-1,1.84-1.73A20,20,0,0,0-394.8-723Zm-15.05-62.19c-1.86-.57-3.58-1.48-4.52.88-.2.51.63,1.95,1.24,2.15C-411.24-781.53-410.14-782.52-409.85-785.17Zm-58.72-21.92c.85-1.46,1.69-2.26,1.58-2.87s-1.06-1.41-1.81-1.7c-.3-.12-1.53.95-1.46,1.32C-470.09-809.43-469.42-808.62-468.57-807.09ZM18.52-569.48c4.1,1,4.1,1,3.81-2.49Z" transform="translate(942 1194.11)"/><path class="cls-1" d="M258-674.43c-20.19.08-40.26,1.78-60.31,3.93q-35.62,3.82-70.7,11.09c-21.78,4.5-43.48,9.43-65.21,14.14-1.69.37-3.43.51-5.43.79-.2-1.36-.64-2.35-.4-3.14,2-6.53-2.84-10.48-5.91-15-.55-.8-3.33-.56-4.87-.11-3.86,1.13-7.52,2.93-11.4,4-7.77,2.09-15.65,3.81-23.45,5.8A63,63,0,0,0,3-650.37c-4,1.57-6.59,4.2-7.52,8.68-.89,4.3-1.62,4.61-6.15,3.87a166.35,166.35,0,0,1-34.85-9.75c-6.12-2.42-12.32-4.76-19.13-4.72-1.62,0-3.3-1-4.87-1.77q-8.49-4-16.92-8.17a21.72,21.72,0,0,1-4.82-3c-5.9-5.26-13.19-6.11-20.08-2.16a9.09,9.09,0,0,0-2.06,1.26c-4.21,4.32-9.79,5.91-15.22,7.94-10.1,3.79-19.92,8.41-30.17,11.7-8.71,2.79-17.87,4.17-26.82,6.22-2.92.68-5-.39-6.65-2.72-4.71-6.57-11.3-11.06-17.9-15.33-7.64-4.94-16.4-6.52-25.44-6.56-3.3,0-6.6,0-10.94,0,9.7-22,18.28-43.41,31.21-62.68-2.85,9.38-7.81,17.81-11.8,26.67s-8.66,17.49-11.67,27.48c2.47-.56,3.08-2.09,3.79-3.38,10.08-18.37,20.36-36.63,30.12-55.16C-186.76-766.34-169-800.87-151-835.27c6.19-11.85,12.63-23.57,19-35.34a12.29,12.29,0,0,1,3.46-4.22A14.12,14.12,0,0,1-129-872q-11,28.11-22.1,56.2c-1.53,3.9-2.85,7.87-4.16,11.85a15.42,15.42,0,0,0-.3,3.31c2.66.32,3.42-1.55,4.2-3,3.2-5.77,6.75-11.43,9.26-17.5,11.64-28.12,23-56.37,34.43-84.57,1.14-2.83,2.12-5.75,3.49-8.47.57-1.12,2-2.54,3-2.57,6.74-.16,13.49-.07,20.23.17a6.89,6.89,0,0,1,3.78,1.81c7,6,13.66,12.26,20.73,18.11,8,6.59,16.56,12.35,26.43,15.79,17.22,6,34.65,7.39,52.18,1.44,26.1-8.87,49-22.86,67.61-43.36,7-7.71,12.5-16.37,14.6-26.86.85-4.28,1.52-4.49,6-4.07,22,2,43.49.07,63.9-9.16,1.9-.86,3.77-1.82,5.65-2.74,4.86-2.39,5.53-2.27,9.26,1.45,11.41,11.39,22.77,22.82,34.26,34.11,10.93,10.74,22,21.33,33,32A12.34,12.34,0,0,0,258-897Z" transform="translate(942 1194.11)"/><path class="cls-1" d="M258-423.79c-15.61-.86-31.21-2.27-46.82-2.46-19.82-.23-39.67,0-59.47,1-32.18,1.54-63.64,7.95-94.61,16.55a814.55,814.55,0,0,0-104.17,37.2q-45,19.38-90.18,38.62c-5.62,2.4-11.35,4.57-16.88,7.18a10.15,10.15,0,0,1-9.26,0c-7.72-3.66-15.48-7.22-23.18-10.93-14.15-6.83-29.17-11.24-44.16-15.65-16.09-4.72-32.26-9.16-48.38-13.76-5.65-1.61-6.36-2.47-7-8.31-2.22-21.52,0-42.41,8.14-62.64a297.38,297.38,0,0,0,17.59-66.21c1.73-11.29,2.62-22.71,3.78-34.09.44-4.33.68-4.79,4.91-4.45,14.7,1.16,28.52-2.05,41.55-8.64,2.92-1.48,5.26-4.1,8-6.06,1.77-1.3,3.57-2.84,5.61-3.47,10.78-3.31,21.76-6,32.45-9.59,12.21-4.09,24.18-8.87,36.25-13.39,4.22-1.58,8.33-3.51,12.62-4.84a32.76,32.76,0,0,1,9-1.37c5.68-.09,11.25-.43,16.6-2.6a7.88,7.88,0,0,1,7,.14c9.45,5,19.67,8,29.89,11,2.32.68,4.64,1.36,7,1.91a29.32,29.32,0,0,1,13.31,7.36,48.81,48.81,0,0,0,12.24,7.58c2.31,1.09,5.32.63,8,1,1.48.22,3.51.27,4.28,1.21,2.54,3.13,5.47,2.24,8.38,1.33,2.56-.8,5-2,8-3.25.61,2.38,1.13,4.36,1.63,6.33.57,2.24,1.32,4.29,3.82,5.19.84.31,1.41,1.29,2.23,1.73,1.63.89,3.28,2.07,5,2.32a112.58,112.58,0,0,0,15.3,1.41,23.74,23.74,0,0,0,8.89-2c13.1-5.39,26.12-11,39.14-16.59a39,39,0,0,0,4.68-2.51c4.67-2.78,6.06-6.17,4.22-11.34a59,59,0,0,0-4-8.25c-1.22-2.27-2.68-4.41-4.07-6.58a13.89,13.89,0,0,1-2-8.24c.3-11.43-2.22-22.09-10-31a5.4,5.4,0,0,0-3.59-1.75,38.23,38.23,0,0,0-6.67.93,15.69,15.69,0,0,1-3.3.62c-.76,0-1.48-.83-2.21-1.28.47-.75.76-1.81,1.44-2.19a13.63,13.63,0,0,1,3.68-1.16c16.34-3.68,32.62-7.75,49.07-10.89C134.46-653,157.17-657,180-660.35a533.17,533.17,0,0,1,66-5.72c4-.09,8-.41,12.07-.62ZM-169.13-356c-.39,3-.39,3,2.3,4.67ZM166.45-535.85l1.16.2c.19-1.06.39-2.12.72-3.94C166-538.29,165.85-537.2,166.45-535.85ZM-173.31-350.59l-1-.86-.66.89a8.43,8.43,0,0,0,1.1.69A4.53,4.53,0,0,0-173.31-350.59Z" transform="translate(942 1194.11)"/><path class="cls-1" d="M-942-354.11l22-7.22c33.89-11.14,68.51-16.93,104.24-13.42,13,1.28,25.88,3.39,38.81,5.18,1.86.26,3.67.83,6.29,1.44a44.93,44.93,0,0,1-2.46,4.08c-6.66,8.68-13.39,17.32-20,26-3.25,4.22-3.39,9.38.09,13.36q16.24,18.54,32.8,36.81a56,56,0,0,0,6.8,6.16c5.86,4.65,11,4.4,16.34-.78a33.07,33.07,0,0,0,3.27-4.51c2.36,1.7,3.74,2.72,5.16,3.69,3.7,2.55,7.34,5.22,11.15,7.59s7.78,3.94,13,2.25c-.2,1.72-.06,3-.52,4-8.24,18.46-10.5,38.12-11.74,58-.35,5.63-.32,11.28-.37,16.92a43.06,43.06,0,0,0,.35,5.79c1,8.06,4.75,11.24,12.83,11.45,6.91.19,13.82.59,20.73,1a45.93,45.93,0,0,1,4.87.8c-.62,2.35-2.44,2.54-3.75,3.15-8.91,4.19-17.58,8.78-25.3,15-2.51,2-5.07,4-7.47,6.13a8.58,8.58,0,0,0-3.2,7.3c3.52.95,6.42-.92,9.36-1.8,20.53-6.12,40.88-12.82,61.52-18.53,16.47-4.57,33.15-4.53,49.48,1.46,3.91,1.43,4.75,2,6.84,4.9-2.35.84-4.53,1.67-6.75,2.42-17.87,6-35.86,11.7-53.6,18.06-15.16,5.44-30.27,11.12-45,17.61q-39.13,17.23-77.73,35.7C-793-75-811.63-65-830.19-55c-22.67,12.28-45.27,24.73-66.47,39.47C-910.28-6-923.56,3.94-937,13.64a56.94,56.94,0,0,1-5,2.89Zm98.07,145.76,6.31,6.54C-837.43-206.42-840.55-207.53-843.93-208.35Zm9.39-3.13-1.4.22a6.85,6.85,0,0,0,1.46,6.1l1-.23Q-834-208.43-834.54-211.48Z" transform="translate(942 1194.11)"/><path d="M258,217.82c-35.91-3.76-71.79-8-107.75-11.13-31.47-2.74-63-4.44-94.59-6.28-53-3.09-106.07-2-159.11-1.8-46.93.2-93.81,2.28-140.66,5-38.15,2.24-76.25,5.11-114.23,9.36s-75.94,8.61-113.8,13.75c-39.61,5.39-79.15,11.43-118.61,17.83-30.39,4.92-60.55,11.16-90.52,18.31-25.09,6-49.93,12.8-74.48,20.74a832.49,832.49,0,0,0-81.93,31.84c-32.4,14.42-64,30.54-95.63,46.45-2.85,1.42-5.79,2.65-8.69,4v-7.74c5.65-2.69,11.35-5.29,17-8.07,19.19-9.54,38.18-19.5,57.57-28.61,21-9.85,42.19-19.34,63.62-28.2,15.46-6.4,31.37-11.74,47.23-17.13q33-11.19,66.91-19.12c20.24-4.74,40.49-9.57,60.92-13.35,33.92-6.29,67.95-12,102-17.49,22.92-3.67,46-6.62,69-9.59q44.12-5.7,88.31-10.89c17.14-2,34.31-3.77,51.51-5.09,35.36-2.71,70.73-5.55,106.15-7.4,32.84-1.72,65.74-2.6,98.63-3.2,50.79-.93,101.6-1.17,152.38.48,26.74.86,53.49,2.36,80.17,4.33,31.83,2.36,63.62,5.42,95.4,8.4,14.44,1.36,28.83,3.27,43.25,4.93Z" transform="translate(942 1194.11)"/><path class="cls-1" d="M-942-409.27a18.33,18.33,0,0,0,3.15-2.77q13.88-19.48,27.62-39.06a6,6,0,0,1,3.12-2.51c-1,2.09-2,4.18-3,6.25-6.67,13.6-13.41,27.16-20,40.8a95.73,95.73,0,0,0-3.75,9.94,3.64,3.64,0,0,0,.57,3.13,33.18,33.18,0,0,0,2.72-3.56c3.79-6.55,7.61-13.09,11.21-19.75,18.52-34.33,39.2-67.4,59.12-100.91,12.68-21.33,25.29-42.72,37-64.57,12.35-23,23.62-46.54,35.36-69.84.85-1.68,1.73-3.35,3-5.77,1,2.29,1.61,3.72,2.24,5.15.46,1,.64,2.5,1.43,3,3.88,2.49,2.19,5.33,1,8.4-16.23,41.74-32.61,83.43-48.51,125.3-7.55,19.87-14.61,40-21,60.23-3.28,10.35-7.42,20.24-11.64,30.17a6,6,0,0,0-.61,1.31c-1.2,7.19-5.91,11.17-12,14.54-8,4.43-15.66,9.58-23.4,14.52-10,6.41-18.48,14.63-26,23.67-4.75,5.69-10.91,7.54-17.62,8.77Z" transform="translate(942 1194.11)"/><path class="cls-1" d="M-942-539.92a54.3,54.3,0,0,0,2.88-5.89Q-930-572-921-598.27c.47-1.36.73-2.81,1.29-4.14a30.13,30.13,0,0,1,2.56-3.73l1.32,2.85c6.9,15,17.9,27,28.28,39.53,6.88,8.29,13.36,16.91,20,25.39.3.38.54.8.84,1.18,5,6.54,5.09,6.59,1,13.49q-10,16.82-20.19,33.47a8.83,8.83,0,0,1-4.09,3.74,15.15,15.15,0,0,0-7.56,5.72c-6.16,8.44-12.32,16.89-18.32,25.45-7.66,10.93-15.14,22-22.77,32.95a27.7,27.7,0,0,1-3.35,3.42Z" transform="translate(942 1194.11)"/><path d="M-829.72,134.63c5.56-1.19,10.39,1.22,14.86,4.1s8.62,6.43,13,9.76c-.69-6.15-6.59-10.68-6.07-17.45,3.17,2.7,4.55,6.58,6.53,10a41.77,41.77,0,0,1,4.54,11.69l-6.56.45c-2.54-2.79-4.77-5.77-7.54-8.11a39.3,39.3,0,0,0-8.9-5.58c-3.23-1.49-6.79-2.25-10.21-3.33Z" transform="translate(942 1194.11)"/><path d="M95.33-77.37c-2.67,4.34-.49,8.77-1.91,12.92-.83-.49-1.48-.65-1.54-.94a30.51,30.51,0,0,1,.48-15.24c1.16-3.82,3.41-6.15,8-5.89a43.38,43.38,0,0,0,.76,21.17c-2.7-.83-3.2-2.57-3.5-4.41-.26-1.59-.25-3.23-.62-4.79A12.12,12.12,0,0,0,95.33-77.37Z" transform="translate(942 1194.11)"/><path d="M-474.69,169.48c.59,1.41,1.2,2.82,1.76,4.25.91,2.38,1.69,4.82,2.71,7.15,1.94,4.47,1.89,4.62-3.55,5.58a20.53,20.53,0,0,0-9.39-9.61,7.51,7.51,0,0,1-2-2c-.27-.32-.28-.86-.53-1.71,4-.91,5.72,4,9.71,3.31v-6.65Z" transform="translate(942 1194.11)"/><path d="M169.81,130.35c-4.47,4.74-9.43,9.11-13.27,14.3s-6.57,11.18-9.91,17c-1.45-1.91-1-4,0-5.77a127.62,127.62,0,0,1,8.39-14c2.84-3.85,6.49-7.13,9.93-10.51a18.09,18.09,0,0,1,3.87-2.28Z" transform="translate(942 1194.11)"/><path d="M114.72,142.05c2.52,2.78,4.81,5.17,7,7.7,4.23,5,8.6,10,11.35,16.06.9,2,1.83,4,.39,6.41-.64-.42-1.23-.58-1.33-.9-2.33-7.21-6.8-13-11.79-18.54-1.83-2-3.57-4.12-5.34-6.2C114,145.48,113,144.37,114.72,142.05Z" transform="translate(942 1194.11)"/><path d="M132.91,133.51c.4.26,1.08.48,1.12.77a173,173,0,0,0,6.25,30.55c.2.61-.26,1.43-.46,2.33C134.93,162.65,130.27,139.47,132.91,133.51Z" transform="translate(942 1194.11)"/><path d="M118.48-236.14c1.52,1.49,2.49,2.08,2.94,2.94,4.77,9.31,8,19.81,7.41,24.85-3.93-4-4.06-9-5.77-13.22S118.71-230.06,118.48-236.14Z" transform="translate(942 1194.11)"/><path d="M116-99.53c-1.81,4.71-4.11,9.3-5.29,14.17-1.12,4.65-1.07,9.59-2,14.32-2.67-10.69.23-20.13,6-28.91Z" transform="translate(942 1194.11)"/><path d="M137.55-236.86c1.27,3.42-.53,5.85-.89,8.46s-.43,5.11-.58,7.68a72.39,72.39,0,0,1-.66,7.8C132.05-219,133.14-231.34,137.55-236.86Z" transform="translate(942 1194.11)"/><path d="M42.66-316.87c-2.78-4.9-6-9.54-7.15-15.14C39.66-327.76,43.32-323.29,42.66-316.87Z" transform="translate(942 1194.11)"/><path d="M120.63-209.78c-.81-.57-2.16-1-2.36-1.75-1.13-4.16-3.65-8-2.77-12.7,3.64,3.86,4.33,8.94,6.1,13.56Z" transform="translate(942 1194.11)"/><path d="M-460.58,166.86l-4.68,16.75C-468.15,179.76-466.43,172.91-460.58,166.86Z" transform="translate(942 1194.11)"/><path d="M-794,147.6c-2.32-5.64-.71-14.69,4.73-19.1-1.38,3.79-2.89,6.68-3.44,9.75s-.11,6.27-.11,9.42Z" transform="translate(942 1194.11)"/><path d="M-294.64-77.68c-1.71-3-1.25-6-.45-9.67C-293.15-84-293.08-82.75-294.64-77.68Z" transform="translate(942 1194.11)"/><path d="M-306.48-82.24c3.2,6.81,3.2,6.81,1.37,9-.67-2.64-1.32-5.16-1.92-7.68C-307.09-81.15-306.81-81.47-306.48-82.24Z" transform="translate(942 1194.11)"/><path d="M48.7-329.74v7.13c-1.92-2.29-1.56-4.69-1.33-7.08Z" transform="translate(942 1194.11)"/><path d="M60.79-331.34l-2.48,6.46C56.7-328.84,56.91-329.48,60.79-331.34Z" transform="translate(942 1194.11)"/><path d="M-307.69-86.82l-.47.66c-.19-.21-.56-.47-.52-.61a3.21,3.21,0,0,1,.62-.88C-307.93-87.37-307.81-87.1-307.69-86.82Z" transform="translate(942 1194.11)"/><path d="M-632.43-1113.17c4.34,1.09,8.72,2.06,13,3.33,3.92,1.16,3.92,1.29,5.8-2.55,7.39-15.13,21.69-18.44,34.93-14,4.17,1.4,8,4.15,11.68,6.63,2.51,1.66,2.69,4.25,1.07,6.75-1.81,2.81-4.18,3.6-7,2s-5.37-3.52-8.17-5.08a23.18,23.18,0,0,0-15-2.39c-6,.87-9.19,3.88-10.41,9.76-.36,1.74-.47,3.52-.88,5.24-1.26,5.31-6.11,7.74-11.11,5.51-5.74-2.57-11.38-5.14-17.94-5.1-6,0-10.35,2.08-12.14,8.09-1.1,3.68-2,7.41-3,11.13-.48,1.86-.59,3.9-1.45,5.54a4.48,4.48,0,0,1-3.33,2c-.74,0-2.09-1.68-2.15-2.67a44.08,44.08,0,0,1,.16-10.08,29.73,29.73,0,0,1,10.85-18.8C-643.14-1111.31-638.1-1112.76-632.43-1113.17Z" transform="translate(942 1194.11)"/><path d="M-803.2-1099.55c4.42.33,8,.38,11.47.91,3.73.57,5.1,2.28,4.64,4.92-.55,3.14-4.74,6.67-7.36,5.57-6.92-2.92-14-1.71-21-1.17a26.57,26.57,0,0,0-9.19,2.6,10.27,10.27,0,0,0-6,9.77,53.71,53.71,0,0,0,1,10c1.31,6.35-1.8,10.67-8.38,11.07-2.57.16-5.16.08-7.73.26-6.84.47-12,3.28-14.25,10.26a93.18,93.18,0,0,1-4.14,9.79,15.54,15.54,0,0,1-2.5,4.1,3.22,3.22,0,0,1-2.88.82c-.77-.34-1.11-1.72-1.56-2.68a1.63,1.63,0,0,1,.12-1c2.18-7.58,4.16-15.25,9.31-21.56a23.48,23.48,0,0,1,15.19-8.6c1.12-.17,2.24-.32,3.36-.47,2.45-.31,3.86-1.49,3.49-4.17-.05-.31,0-.64-.05-1-1.18-13.35,8.6-25.15,22.87-28C-812-1098.95-807.16-1099.12-803.2-1099.55Z" transform="translate(942 1194.11)"/><path d="M-881.72-858.11c-1.94.14-4.53.16-7.07.52a10.26,10.26,0,0,0-8.9,7.77c-.63,2.14-.91,4.4-1.35,6.6-.22,1.1-.13,2.43-.74,3.25-.86,1.18-2.13,2.6-3.4,2.79-1.83.27-2.62-1.57-3-3.22-1.27-6.47.78-12.18,4.66-17.15,4.06-5.23,9.26-8.77,16.15-9.55,5.12-.57,5.09-.81,5.44-6,.74-11.23,9.15-19,19.92-18.62a18.54,18.54,0,0,1,11.72,5.07c2.13,1.87,2.14,5,.23,7.36s-4.81,2.94-7.07.94a14.68,14.68,0,0,0-8.64-3.86c-4.63-.39-7,1.6-7.18,6.32a18.92,18.92,0,0,0,.91,6.61c2.56,7.5-.72,11.92-8.69,11.43C-879.48-857.91-880.28-858-881.72-858.11Z" transform="translate(942 1194.11)"/><path d="M-309.75,354.61a26.49,26.49,0,0,1-2.79-2.26c-9.13-9.9-20.27-17.33-31-25.28-4.38-3.26-8.83-6.42-13.18-9.72a26.41,26.41,0,0,1-3-3.32c2.73-1.07,4,.41,5.32,1.34q10.75,7.77,21.36,15.72c5,3.76,9.95,7.64,14.95,11.43a6,6,0,0,0,3.66,1.31c-1.65-2.29-3.33-4.57-4.94-6.89-3-4.35-6.14-8.65-9-13.13a9.3,9.3,0,0,1-.7-9c1.47,3.27,2.26,5.87,3.69,8.05,3.54,5.36,7.35,10.53,11.08,15.76a36.25,36.25,0,0,0,3.54,4.58C-307.38,346.52-306.84,350.06-309.75,354.61Z" transform="translate(942 1194.11)"/><path d="M-592.25,310.42c-5-.78-8.48-3.34-10.25-7.41-4.29-9.84-4.45-19.73,1.18-29.21,2.31-3.88,6.08-6.08,10.26-7.57.35-.12.85.21,2.23.58-8.56,5-13.52,11.51-13.67,21.17C-602.64,297.06-600.08,304.75-592.25,310.42Z" transform="translate(942 1194.11)"/><path d="M-294.45,342.08c2.94-10.56,19.58-24.05,29.71-23.79C-276.55,324.45-286.59,331.25-294.45,342.08Z" transform="translate(942 1194.11)"/><path d="M-586.35,287.37c-1.14,8.64,1.83,16.89.47,25.94-2.48-3.56-4.25-15.27-3.59-21.07C-589.25,290.31-589,288.42-586.35,287.37Z" transform="translate(942 1194.11)"/><path d="M-570.24,285.15c-1.67,3.59-3.81,7.05-4.89,10.81s-1.1,7.76-1.65,12.21C-581.82,302.07-577.53,288.91-570.24,285.15Z" transform="translate(942 1194.11)"/><path class="cls-1" d="M101.74-961.8c-1.1,3-2.6,6.49-3.7,10.13-5.29,17.51-17,30.09-31.24,40.65a154.28,154.28,0,0,1-39.86,21.46c-17.76,6.38-35.37,5.68-52.93-1C-37.59-895-47.62-902-57.55-909.14c-5.08-3.68-9.93-7.66-14.82-11.59a10.85,10.85,0,0,0-8-2.45c-11.59.85-23.06.78-34.52-2.2-10.15-2.64-20.37-5-30-9.17-10.32-4.51-19.13-10.89-25.83-20.33-8.2-11.56-10.58-24.22-9.86-38,.5-9.45,1.86-18.59,6.1-27.12,8.65-17.41,22.25-29.57,39.65-38,19.37-9.41,39.82-11.3,60.83-9.78a146.86,146.86,0,0,1,21,2.86,47.51,47.51,0,0,1,19.36,9.56c1.3,1,2.82,3,4.55,1.23,1.53-1.53,0-3.29-.81-4.81-3.81-7-10.11-10.8-17.37-13-6.15-1.83-12.54-2.86-18.83-4.25l-4.95-1.12a25.69,25.69,0,0,1,1.68-3.46c7.57-10.43,15.09-20.89,22.79-31.22a125.53,125.53,0,0,1,26.13-25.64c12.85-9.52,26.12-18.31,41.34-23.74,13.52-4.82,27.35-6.42,41.41-3.62,12.1,2.4,20.79,9.88,27,20.34A33.36,33.36,0,0,1,94-1132.1c.86,6.18,3.11,8.09,9.36,8.3a87.35,87.35,0,0,0,17.35-.74c6.84-1.17,13.47-.51,20.2.17a115.44,115.44,0,0,1,52.8,18.68c11.24,7.41,20.25,17,26.13,29.17a54,54,0,0,1,5.71,21.37c.72,18.79-3,36.47-13.48,52.47-9.42,14.35-22.28,24.4-37.78,31.3-14.49,6.45-29.84,9.12-45.54,10.07-5.8.34-11.6.58-17.41.6C108.55-960.7,105.77-961.32,101.74-961.8Z" transform="translate(942 1194.11)"/><path class="cls-1" d="M-405.91-780.39c.42-1.48.93-2.94,1.24-4.44.68-3.21-.19-4.61-3.4-5a18.27,18.27,0,0,0-5.27.2c-3.49.6-5.21,2.9-5.1,6.46.1,3.21,1.44,4.54,5,5.32a20.15,20.15,0,0,1,3.38,1.41,16.32,16.32,0,0,1-1.68,3.72c-4.06,5.18-8.26,10.27-12.42,15.38-.78,1-1.62,1.88-3,3.42-1.18-1.93-2.17-3.29-2.91-4.78-3.85-7.71-10.39-11.78-18.56-13.17-5.92-1-10.67,1.53-14.33,6.22a28.09,28.09,0,0,0-5.89,15.6c-.55,8-.72,16.1-.77,24.16a236.79,236.79,0,0,0,3.83,45.71,60.14,60.14,0,0,1,.45,6.12c-2-1.24-3.21-1.69-4-2.5-13-12.65-25.05-26-33.8-42-6.56-12-9.16-24.83-5.6-38.26a46.16,46.16,0,0,1,6-13.07,160.24,160.24,0,0,1,25.46-29.63c2.22-2.06,4.44-3.58,7.74-2.86,3.93.87,8.73-5.59,7.32-10.9-.57-2.16-2.45-2.6-4.25-2.23-2.65.54-5.93-2.33-7.91,1.28a6.34,6.34,0,0,0-.48,3.77c.48,3-1,4.57-3.34,6.23-16.4,11.73-29.67,26.32-38.13,44.7-2.2,4.77-2.48,10.66-2.71,16.07-.55,12.76,3.15,24.56,9.77,35.38a186.32,186.32,0,0,0,36.87,43.23c2.43,2.12,5.82,3.37,9,4.37,4.37,1.39,5.2,1.95,5.29,6.67s0,9.67,0,14.51c.13,10.8.26,21.61.52,32.4a63.55,63.55,0,0,0,1,9.12,5.66,5.66,0,0,1-2.17,5.93q-11.94,9.84-23.7,19.89c-2.33,2-4.48,2.35-7.49,1.25-15.19-5.6-30.5-6.19-45.85-.43-2.56,1-5.23,1.62-7.84,2.43-18.73,5.78-29.62,19.14-35.67,37.09-1,2.9-1.58,5.92-2.28,8.89-.94,3.93-1.31,4.35-5.43,4.92-9.74,1.35-19.5,2.6-29.23,4-7.34,1.05-14.65,2.32-22,3.42-2.49.37-5,.49-8.21.78a18.24,18.24,0,0,1,1.45-3.62c17.27-23.15,29.47-49.1,41.57-75.11q7.85-16.87,16-33.63c1.31-2.71,3-5.23,4.54-7.83l1,.44c-.93,2.45-1.79,4.93-2.8,7.35-5.7,13.67-11.79,27.2-15.73,41.53a9.39,9.39,0,0,0-.24,4.59c9.42-16.92,17.26-34.49,24.94-52.12s15.33-35.5,22.26-53.54,12.9-36.32,19.68-54.4c-1.58,9.3-4.53,18.25-6.72,27.39-2.15,9-5,17.79-5.89,27l1.34.54a27.07,27.07,0,0,0,2.23-3.85c3.29-8.75,6.71-17.45,9.65-26.32,4.85-14.67,9.38-29.46,14-44.21,4.1-13,8-26.18,12.26-39.18q8.26-25.26,17-50.37c4.81-13.84,10-27.56,14.93-41.35,5.4-15,10.71-30,16.13-45,4.64-12.86,9.37-25.7,14.09-38.54a35.27,35.27,0,0,1,1.65-3.32c2.89.79,3.81,2.93,5,4.78,3.22,5,6.38,10.07,9.66,15.05,1.21,1.82,2.27,4.22,5.16,3.52a7.08,7.08,0,0,0,5.42-5.59c.37-1.55.23-3.21.48-4.8.57-3.67,2.81-4.72,5.75-2.39,3.15,2.49,5.93,5.45,8.93,8.13A95.82,95.82,0,0,0-395-948a15.81,15.81,0,0,0,13.75,2.82,9.23,9.23,0,0,1,9,2.17q7.73,6.93,15.3,14c1.87,1.76,3.42,3.87,5.28,5.64,4.66,4.42,8.41,4.68,13.85,1.15.39-.25.85-.41,1.87-.9,1.27,1.66,2.72,3.3,3.89,5.12,13.54,21.19,26.92,42.49,40.6,63.58,11.05,17,22.51,33.82,33.7,50.77,3.55,5.38,6.73,11,10.28,16.38,1.75,2.66,1.09,4.76-.55,7-5.43,7.6-10.73,15.29-16.19,22.87q-26.15,36.27-52.33,72.49c-7.44,10.33-14.91,20.64-22.06,31.16-2.39,3.52-4.2,3.16-6.37-.15-3.27-5-7-9.69-10.41-14.55-3.16-4.45-3.15-4.94-.24-9.45,3.76-5.81,7.68-11.53,11.25-17.46,3.24-5.37,6.3-10.87,7.54-17.17.84-4.26,1.29-8.73-2.22-11.72s-8-1.86-12-.48c-7.5,2.56-13.53,7.4-19.11,12.84-2.42,2.36-4.64,4.93-7.07,7.29s-3.49,2.42-6.14.1c-1.09-1-2-2.12-3.17-3-3-2.22-3.47-4.89-2.66-8.5,1-4.54,1.26-9.28-.51-13.81-.94-2.4,0-4.31,1.14-6.37,5-9.24,9.29-18.82,11.63-29.07a46.44,46.44,0,0,0,.92-13.87c-.51-6.52-4.56-9.29-11.06-8.23a31.38,31.38,0,0,0-12.47,5c-1.67,1.12-3.54,1.93-5.32,2.89Z" transform="translate(942 1194.11)"/><path class="cls-1" d="M-479.17-565.5c1.39-1.45,2.28-2.58,3.36-3.49,17.06-14.26,33.84-28.86,52.39-41.22.54-.36,1.07-.73,1.62-1.07,3.51-2.17,3.87-2,5.76,1.58a38.41,38.41,0,0,0,4.72,7.25c4.48,5.17,10.2,7.16,17,5.54,3.13-.76,6.26-1.58,9.33-2.53,9.87-3,15.69-.94,22,7.17,4.9,6.35,7.11,12.91,4,20.69a7.66,7.66,0,0,0-.47,2.85c.05,2.76-1.17,4.18-3.79,5.37-6.8,3.11-10.81,9.05-13.67,15.65-1.78,4.1.25,7.59,4.71,8.14,2.59.33,5.4-.36,8-1a26.2,26.2,0,0,0,5.66-2.7c8.16-4.48,15.83-3.19,23.12,2,2,1.39,3.61,3.23,5.58,4.62,3.59,2.55,9,2.65,12.27.19,3.52-2.68,5.14-6.48,3.88-10.67a13.28,13.28,0,0,0-4.56-6.48c-2.92-2.13-4.47-4.51-4.39-8,.17-7.07-.05-14.18.66-21.2,1-10.08,3.61-20,3.11-30.26-.1-2.09-.2-4.18-.38-6.27-.76-8.69-4.66-15.3-12.73-19.14a17.57,17.57,0,0,1-2.33-1.84,34.65,34.65,0,0,1,4.74-.74,108.87,108.87,0,0,1,50.74,12.27c2.13,1.12,3.64,2.51,4.2,4.94,1.83,7.84,4,15.61,5.55,23.5,1.85,9.48,3.57,19,4.61,28.6a181.54,181.54,0,0,1,.52,22.14c-.09,6.28-.81,12.54-1.07,18.82-.84,19.91-4.82,39.29-9.23,58.65-3.45,15.15-8.86,29.63-14,44.2-5.73,16.14-6.68,32.71-5.82,49.59a114.92,114.92,0,0,0,8.39,37.53,51.64,51.64,0,0,0,3.06,6.57c1.44,2.48,1.72,4.66,0,7.17a63.22,63.22,0,0,0-3.73,6.76c-2.38,4.54-5.9,7.78-10.22,10.62-12.54,8.23-26.49,12.44-41,15.29q-19,3.74-38.06,6.92a136.16,136.16,0,0,1-31.83,1.27,72.74,72.74,0,0,1-8.07-1.47c-2.38-.43-3.17-1.94-2.9-4.19.09-.81.15-1.61.27-2.41a190,190,0,0,0,.89-45.83c-.71-7.72-3-15.11-5.52-22.46-6.05-17.42-17.44-31.49-28.2-45.95-11.26-15.12-22.86-30-34.19-45.05-5.59-7.43-5.47-7.51,1.9-12.75,10.36-7.37,17.06-17.3,20.89-29.38,3-9.43,2.84-19,2.37-28.72a59.51,59.51,0,0,0-5.83-23.74,44.25,44.25,0,0,0-9.55-13.27C-476.63-562.59-477.63-563.84-479.17-565.5Z" transform="translate(942 1194.11)"/><path class="cls-1" d="M-664.33-927.3l2.59-3.81c4.74-6.88,9.12-14,14.3-20.59,9-11.34,21.17-17.45,35.43-18.34,17.14-1.08,34.13.41,50.53,6.2,20.31,7.18,33.28,21.34,40,41.56,5.4,16.24,5.06,32.67,1.61,49.16-.44,2.13-.34,5-3.52,6.14l-3.81-6.65-1.19,0A31.57,31.57,0,0,0-530.2-869a69.55,69.55,0,0,0-1.32,8.11c-1.32,12.36-6.81,22.7-15.15,31.69-12.88,13.89-28.81,22.45-47,27.11-14.7,3.76-29.63,4.25-44.66,3.36-4.48-.27-8.94-1.07-13.41-1.66a6.46,6.46,0,0,0-5.65,2c-4.64,4.47-9.27,9-14.19,13.1a51.37,51.37,0,0,1-9.68,6.33c-7.3,3.73-14.63,7.51-22.23,10.55a43.47,43.47,0,0,1-34.81-.57c-7.13-3.15-12.65-8.38-17.31-14.37-12.42-15.95-14.9-33.82-9.36-53,3.7-12.82,12.64-20.19,25.08-23.75,7.11-2,14.37-1.56,21.61-.74.8.09,1.64.56,2.36.4,1.29-.31,3.11-.63,3.62-1.55.91-1.69.18-3.51-1.74-4.39A25,25,0,0,0-719-868.2a53.93,53.93,0,0,0-6.7-.91c-4.2-.39-4.77-.7-4.42-5,.51-6.41.84-12.93,2.36-19.14,4.25-17.35,11.25-33.61,21.93-48,10.13-13.68,24.13-20.35,41-21.43a10.45,10.45,0,0,1,9.07,3.61c2.24,2.56,2.36,4.36.59,7.37-2.12,3.61-4.3,7.19-6.25,10.89A22.41,22.41,0,0,0-664.33-927.3Z" transform="translate(942 1194.11)"/><path class="cls-1" d="M-523.76-854.75c1.44,2,2.56,3.32,3.41,4.79,4.45,7.67,8.78,15.41,13.26,23.05,1.37,2.34,1.18,4.52.39,6.93q-4.71,14.24-9.25,28.5c-3.83,12.13-7.56,24.29-11.33,36.43-.58,1.85-1.31,3.66-1.72,5.54-.69,3.13-1.52,5.55-5.46,6.35-1.82.37-3.62,3.15-4.55,5.23-2.91,6.45-5.56,13-8,19.67-6.87,18.41-13.62,36.87-20.38,55.33a17.51,17.51,0,0,1-5,6.91A59.57,59.57,0,0,0-581-645.64c-10.67,15.84-18.54,33.17-26.53,50.43-9.41,20.32-18.72,40.7-30,60.08-4.52,7.79-10.08,15-14.67,22.73-2.22,3.76-5.05,5.26-9.12,5.95a449.47,449.47,0,0,0-56,13.06c-14.33,4.37-28.58,8.93-42.33,15-1.33.58-2.88.67-5.51,1.25,2.13-4.11,3.77-7,5.19-10,4.86-10.34,9.55-20.76,14.51-31,2.45-5.07,5.4-9.9,8-14.87,11.21-21,22.47-42,33.56-63.14,19.87-37.78,37.66-76.65,59-113.67q19.9-34.53,39.89-69c1.86-3.22,3.73-6.42,3.92-10.28.13-2.59,2.37-2.78,4.14-3.36,5.66-1.84,11.53-3.18,17-5.48,20.9-8.77,38.11-22.12,49.6-42C-527.79-844.37-526.2-849.16-523.76-854.75Z" transform="translate(942 1194.11)"/><path class="cls-1" d="M-916.45-371.5c2.21-4,5.44-6.24,8.31-8.64,9.68-8.09,20.57-14.38,31.27-21q18.92-11.67,37.2-24.34c17.75-12.32,35.52-24.54,54.9-34.24a395.48,395.48,0,0,1,46.34-19.42,473.22,473.22,0,0,1,81.94-20.65c22.6-3.62,45.25-6.93,67.87-10.37.8-.12,1.6-.24,2.4-.33,2-.23,3,.82,3.14,2.74.09,1.61,0,3.23.06,4.84.28,17.22,7.95,30.19,22.49,39.25,2.43,1.51,5.66,2.81,6.74,5.07,1,2-.57,5.19-.91,7.87q-4,31.18-7.88,62.38c-.45,3.67-1,7.44-.67,11.08.62,6.2-3.2,9.73-6.74,13.8a41.74,41.74,0,0,1-4.69-2c-16.26-9.39-33.73-16.12-51.19-22.77-17.62-6.71-35.56-12.6-53.22-19.2a65.29,65.29,0,0,0-25.66-3.73c-10.34.4-19.91,3.63-27.8,10.84-1.63,1.48-3.76,2.4-5.59,3.66-2.9,2-5.89,3.92-8.6,6.18-4,3.31-7.74,6.82-11.49,10.36a8.41,8.41,0,0,1-7.93,2.27c-8.88-1.61-17.79-3.11-26.72-4.39a264.05,264.05,0,0,0-67.52-1.11c-9.74,1.11-19.39,3.26-29,5.37-7.86,1.73-15.57,4.12-23.36,6.16A22.16,22.16,0,0,1-916.45-371.5Z" transform="translate(942 1194.11)"/><path class="cls-1" d="M-560.3-228.46c-2.82,2.82-6.47,2.4-9.81,3.24a121.64,121.64,0,0,0-20.6,6.74c-11.87,5.38-23.38,11.53-35,17.35-1,.48-2,.87-3.86,1.7a18.26,18.26,0,0,1,1.4-3.55c3.2-4.3,4.24-9.35,5.13-14.45.7-4-1.31-7.11-3.56-10.15q-8.34-11.25-16.57-22.58a14.77,14.77,0,0,1-2.83-8.08,21.51,21.51,0,0,0-1.83-6.45,69.84,69.84,0,0,0-12.43-21.15c-2.56-2.88-2.42-3.45,1.52-6.59,1.42,1,2.92,2.18,4.45,3.29a41.6,41.6,0,0,0,5.14,3.59c4.21,2.15,7.36,1.15,9.85-2.8q11.19-17.79,22.39-35.56c2.35-3.72,2.88-3.86,7-1.83,4.48,2.2,8.92,4.5,13.38,6.74,5.37,2.71,10.92,4.85,17,5.35,2.9.24,4.46,1.68,5.73,4.34a49.83,49.83,0,0,0,6.52,10.67c11.36,13.47,30.17,13.37,42.21,5.57,13.69-8.86,22.53-21.27,26.86-37A59.78,59.78,0,0,0-496.74-355c-.47-3.21,0-3.9,3.42-4.43,4.94-.76,9.92-1.24,14.87-1.9,12.31-1.66,24.6-3.38,36.91-5,6.18-.83,6.45-.57,9.13,5.19,6.83,14.7,8.79,30.23,8.11,46.24-.37,8.55-.6,17.11-4,25.16-.82,1.93-1.75,3.81-2.55,5.74a39.59,39.59,0,0,0-1.81,5c-1.24,4.82-2.15,9.72-3.55,14.48-5.46,18.55-11.18,37-16.52,55.6-1.35,4.69-3.83,7.24-8.46,8.81-20.75,7.05-41.38,14.43-62.06,21.67-1.67.58-3.38,1.06-5.09,1.55-4.21,1.19-4.73.87-6.66-3.13q-8.88-18.52-17.9-37c-1.55-3.17-3.36-6.23-5.16-9.27A12.38,12.38,0,0,0-560.3-228.46Z" transform="translate(942 1194.11)"/><path class="cls-1" d="M-274.2-326l3.18,2.44q18.16,14,36.32,28.08c5.58,4.34,11,8.84,16.57,13.24q9.84,7.83,19.71,15.61,27.16,21.39,54.35,42.73c3.92,3.07,8,5.93,12,8.87,2.34,1.71,4.64,3.49,7.07,5.06,7.08,4.58,9,11,8.21,19.19-.47,4.84.87,9.86,1.36,14.8.32,3.2.52,6.41.87,9.6.69,6.4,1.17,12.84,2.22,19.18A296.79,296.79,0,0,0-98.26-93,144,144,0,0,0-48.5-26C-36.84-17.32-24.4-9.9-11.82-2.67c24.34,14,49.09,27.15,75.11,37.77,6.09,2.49,12.55,4.1,18.84,6.09,1.8.56,3.62,1.05,5.43,1.57,0,.35.06.7.08,1.05-2.07.62-4.11,1.42-6.22,1.83a335.5,335.5,0,0,1-56.7,5.92q-39.16.69-78.34.59c-10.63,0-21.25-1.12-31.87-1.77-4.47-.27-4.68-.52-6.11-4.73a516.62,516.62,0,0,1-15.92-60.28c-2.49-12-5.15-24-7-36.06-2.63-16.86-4.77-33.81-6.8-50.76-1.33-11.2-2.37-22.45-3-33.7-.88-15.13-1.28-30.28-1.85-45.42-.2-5.15-.34-10.3-.38-15.46a5.86,5.86,0,0,0-2.75-4.82q-6.94-5.24-13.88-10.48a11.36,11.36,0,0,1-2.18-1.9c-6.89-9-16.36-15-25-21.93q-19.8-15.87-39.94-31.33c-6.25-4.78-12.92-9-19.39-13.51-.53-.37-1.07-.73-1.57-1.14-21.48-17.63-27-20.75-45.1-31.15-.84-.48-1.67-1-2.46-1.54-2.88-2-2.95-2.38-1-5.39,1.42-2.14,2.89-4.24,4.37-6.33C-275.33-325.76-274.9-325.77-274.2-326Z" transform="translate(942 1194.11)"/><path class="cls-1" d="M-207.44-741.41c-4.19-1.93-6.39.52-8.1,3.39-6.32,10.67-12.92,21.21-18.64,32.2-6.25,12-11.73,24.39-17.38,36.69-1.72,3.77-3.89,6-8.29,7a106.44,106.44,0,0,0-19.55,6.77c-3.86,1.74-7.16,4.82-10.51,7.55-1.59,1.3-2.92,2.53-5.1,1.78-10.25-3.52-20.89-3.7-31.54-3.76a28.7,28.7,0,0,1-3.81-.35c-.25,0-.45-.42-1.16-1.1.72-1.18,1.43-2.53,2.31-3.75q18.57-25.93,37.2-51.84,24.33-34,48.63-68c13.24-18.46,26.57-36.84,39.83-55.27,7-9.68,13.83-19.42,20.75-29.12l28.89-40.54c4.58-6.43,9.27-12.77,13.68-19.31,2-3,4.3-3.71,7.78-2.81,5.61,1.44,11.34,2.41,17,3.55,3.23.64,3.92,1.55,2.77,4.58-1.06,2.82-2.3,5.37-5,7.42a27,27,0,0,0-6.54,8.24c-9.15,16.1-18.22,32.25-27.08,48.51-9.56,17.54-19.06,35.11-28.25,52.84-8.74,16.88-17,34-25.53,51C-205.7-744.48-206.44-743.24-207.44-741.41Z" transform="translate(942 1194.11)"/><path class="cls-1" d="M-857-423.31a15.63,15.63,0,0,1,.48-2.3c7.74-20.66,15.42-41.35,23.28-62q18.74-49.23,37.68-98.38c10-26,20.4-51.87,30.14-78,4.66-12.51,8.19-25.45,12.23-38.2l1.33-4.25a23.14,23.14,0,0,1,1.25,3.71c1.83,16,3.35,32.06,5.49,48,2,15.17,4.55,30.28,7.16,45.37,2.39,13.81,5.19,27.55,7.8,41.32a13.78,13.78,0,0,1-1.54,9.33c-7.39,14-14.82,27.88-21.94,42-4.58,9-8.54,18.41-13,27.51-2.48,5.05-5.5,9.83-8.19,14.79-1.64,3-4.47,4.49-7.32,6-9.62,5.22-19.49,10.05-28.74,15.88-12.67,8-24.84,16.74-37.25,25.13-2.6,1.76-5.32,3.33-8,5Z" transform="translate(942 1194.11)"/><path class="cls-1" d="M-398.56-657.81c-4.39,5.86-8.59,11.15-12.44,16.68a38.13,38.13,0,0,0-6.35,15.56,7.22,7.22,0,0,1-3.07,5.19c-9.11,6.38-18.11,12.9-27.16,19.36-.75.53-1.58.94-2.78,1.64a16,16,0,0,1-.62-3c.29-18.7.85-37.4.86-56.1,0-14.78,1.55-29.3,5.89-43.41a102,102,0,0,1,7-16.4c2.64-5.15,6.56-6.65,12.2-5a40,40,0,0,1,9.18,4.22,129.85,129.85,0,0,1,25.49,20.65c2.91,3,2.82,4.42-.48,7-1.26,1-2.71,1.73-4.07,2.61s-2.63,1.69-1.74,3.41,2.49,1.33,3.85.78a15.88,15.88,0,0,0,4.67-2.45c5.64-5,11.11-10.24,16.68-15.35,4.26-3.92,8.37-8.06,12.95-11.57A33.84,33.84,0,0,1-349-718.6c3.82-1.33,6.21.59,5.53,4.59a30.35,30.35,0,0,1-3.43,10.44c-5.86,9.81-12.2,19.34-18.36,29-6,9.36-12,18.7-18,28.08a18.31,18.31,0,0,0-2,4.37c-1.34,4.39.22,7,4.75,7.54a72.26,72.26,0,0,0,9.65.43c5.8-.06,11.61-.56,17.4-.37a54.49,54.49,0,0,1,12.39,1.78c9.81,2.67,14,8.34,14.51,18.56.43,8.76-.82,17.37-2.1,26-.85,5.73-1.39,11.51-2,17.28-.85,8.38,2.26,15.44,7.42,21.81,1.25,1.54,3.66,3.29,1.57,5.3s-3.76-.54-5.21-1.81c-8-6.94-17-9.7-27.34-6.91-2.6.7-5,2.24-7.46,3.35a31.27,31.27,0,0,1-4.91,2,3.12,3.12,0,0,1-2.46-.87,2.3,2.3,0,0,1,.13-2.18c1.94-2.33,3.66-5.22,6.17-6.61,4.16-2.31,6.77-5.21,7.66-9.87a22.65,22.65,0,0,1,2-5.45c4.53-9.39,1.57-17.46-4.11-25.22-6.87-9.39-15.81-12.11-26.83-8.92a52,52,0,0,1-8.46,1.92c-8.86,1-15.89-4.71-17.24-13.61-1.4-9.28,1.68-17.29,7.16-24.36,4.32-5.58,9.46-10.52,14.06-15.89a12.88,12.88,0,0,0,2.85-5.32c.5-2.21-.82-3.55-3-3.15a27.48,27.48,0,0,0-7.71,2.53C-399.67-662.59-399.89-661.23-398.56-657.81Z" transform="translate(942 1194.11)"/><path class="cls-1" d="M-519.25-464c-12.39.2-23.4-1.7-33.48-7.49s-16.95-14-20.23-25.36c-4.37-15.11-2-29.42,4.71-43.14,1.68-3.45,4.81-6.47,7.89-8.91,9.41-7.47,19.59-13.7,31.65-15.88,10.65-1.92,21.45-1.64,31.41,2.48,9.34,3.86,18.09,9.22,22.46,19.27a8.33,8.33,0,0,0,1.28,2c6.62,7.74,7.93,16.54,5.82,26.3-1.32,6.11-1.52,12.47-2.93,18.56-2.74,11.78-9.48,21.08-20.58,25.91C-500.31-466.32-509.72-462.28-519.25-464Z" transform="translate(942 1194.11)"/><path class="cls-1" d="M-487.49-51.42c.94-2.56,2.05-4.16,2-5.72-.2-6.78,2.23-13,3.77-19.39q4.54-18.78,9.57-37.45c3.37-12.61,7-25.16,10.48-37.73,4.29-15.36,9.09-30.59,12.71-46.1,3.29-14.15,8.81-27.58,12.2-41.66,2.61-10.81,5.63-21.52,8.56-32.24,1.06-3.88,2.38-7.68,3.64-11.5.12-.39.64-.65,1-1a5.23,5.23,0,0,1,1.35.47c5.82,3.93,5.9,4,3.94,10.83q-7.72,27-15.61,53.86c-1.18,4-2.82,7.85-4.14,11.81a9.53,9.53,0,0,0-.72,4.22c.61,3.74-.9,7-1.9,10.36-2.7,9.1-5.55,18.16-8.12,27.3-3.7,13.19-7.21,26.43-10.81,39.65-4.49,16.47-9,32.93-13.46,49.42-3,11-5.91,22.09-8.63,33.2-1,4.23-1.8,8.49-3.94,12.33-.23.41-.51.79-1.13,1.74-1.58-2.06-3.5-3.51-3.9-5.3-1.41-6.31-5.61-11.2-8-16.95-1.93-4.58-3.13-9.51-5.44-13.87-6-11.39-12.13-22.75-18.82-33.76a278.76,278.76,0,0,0-30-40.27A117.89,117.89,0,0,0-580-161.62c-17.44-10.62-36.31-13.43-56.33-10.13-12,2-23.51,5.55-35,9.38-10.22,3.41-20.42,6.88-31.18,10.51.33-2.77,2.25-3.55,3.74-4.32,7-3.66,13.93-7.49,21.17-10.6,15.4-6.63,30.6-13.64,45-22.33a378.68,378.68,0,0,1,59.88-29.18c1.5-.58,3-1.29,4.42-2,1.3-.59,2.59-1.19,4.13-1.91a15.63,15.63,0,0,1,2,2.82c4.48,10.88,8.85,21.8,13.34,32.68,1,2.53,2.39,4.93,3.61,7.38a27.6,27.6,0,0,1,2.12,4.34c3.5,12.44,9.91,23.68,14.55,35.64q12.42,32,25.16,63.9c3,7.51,6.72,14.66,12.18,20.75C-490.38-53.74-489.35-53-487.49-51.42Z" transform="translate(942 1194.11)"/><path class="cls-1" d="M-286.29-644.1c1.54-1.16,2.65-2.34,4-2.94a101.16,101.16,0,0,1,11.66-4.6,91.49,91.49,0,0,1,37.79-3.52,52.82,52.82,0,0,1,27.67,11.81,19.52,19.52,0,0,1,4.82,5.33c4,7.36,8.61,14.54,10.09,22.9,2.2,12.54,2.17,24.87-4,36.68a51.91,51.91,0,0,1-17.19,19c-9,6.23-18.85,7.89-29.1,9a106.71,106.71,0,0,1-11.6.37c-3.12,0-3.64-.52-4-3.56a23.48,23.48,0,0,1-.23-5.79c1.22-9.83-1.36-19.18-3.3-28.62a113.63,113.63,0,0,1-2.14-13.3A57,57,0,0,0-266-617.63c-1-2.53-2.13-5.16-2.34-7.81-.42-5.17-3-8.76-7-11.53-2.65-1.82-5.53-3.29-8.28-5A30,30,0,0,1-286.29-644.1Z" transform="translate(942 1194.11)"/><path class="cls-1" d="M-250.58-284.65a49.23,49.23,0,0,1-4.82,2.81c-17.37,7.31-34.69,14.79-52.18,21.81-33.19,13.32-66.49,26.38-99.75,39.52-5.25,2.07-10.53,4-15.83,6a29.9,29.9,0,0,1-4,.81,30.42,30.42,0,0,1,.48-4.45c3-11.37,6.22-22.69,9.09-34.1,1.88-7.49,3.36-15.09,4.85-22.68.44-2.26,1.16-3.58,3.72-3.26,17.39,2.2,34.44-.63,51.4-3.87,11.86-2.27,23.68-4.88,35.36-8a72.22,72.22,0,0,0,32.48-18.32c3.56-3.47,3.64-3.37,7.55-.42,8.49,6.41,17.08,12.69,25.59,19.07C-254.82-288.39-253.19-286.86-250.58-284.65Z" transform="translate(942 1194.11)"/><path class="cls-1" d="M-681-310.09c-.67,2.71-3.91,3.87-2,6.24,1.24,1.54,3.19,2.5,5.16,4-1.16,1.22-2.13,2.2-3.05,3.23-2.95,3.31-2.59,6.44,1.21,8.73,3.19,1.91,5.28,4.23,6.07,8.13.55,2.72,2.35,5.28,3.93,7.68,8.07,12.25,16.08,24.54,24.46,36.57,3.67,5.26,8.16,10,12.3,14.88.83,1,1.82,1.84,2.62,2.85,2.23,2.8,2.29,3.52.41,6.45a54.32,54.32,0,0,1-15.36,15.88c-11.88,8-24.83,13.23-39.34,13-6.38-.12-12.75-1.61-19.08-2.7a5.94,5.94,0,0,1-4.62-4.53,24.47,24.47,0,0,1-1-6.17c-.35-21.07,1.58-41.94,7.64-62.16,2.71-9.06,7-17.67,10.6-26.44A16.32,16.32,0,0,1-688.6-288c3.41-4.3,3.68-8.63,1.23-13.42-1.81-3.53-1.11-7.47-.87-11.21.11-1.73,2.25-2.36,3.82-1.17A24.38,24.38,0,0,1-681-310.09Z" transform="translate(942 1194.11)"/><path class="cls-1" d="M-505.71-369a19.56,19.56,0,0,1-2.72-.79c-10.82-5.23-22.31-5.75-34-5.14-4.75.24-9.54-.2-15-.35,2.9-27.61,5.75-54.71,8.64-82.24,3.82.69,7.08,1.39,10.37,1.87,11.08,1.62,22.13,1.87,33.13-.79,4.58-1.11,5.77,0,5.38,5-1.08,13.82-2.18,27.63-3.4,41.43-1.13,12.84-3.07,25.62-2,38.57A12.85,12.85,0,0,1-505.71-369Z" transform="translate(942 1194.11)"/><path class="cls-1" d="M-458.86-193.35c.25,1.25.59,1.92.45,2.45q-15.51,57.6-31.13,115.16c-.14.54-.75.95-1.53,1.88a24.3,24.3,0,0,1-2-3.34c-2.75-6.88-5.36-13.81-8.13-20.69q-13.15-32.73-26.4-65.43c-.3-.75-.68-1.46-1-2.22-.83-2.22-.13-3.78,2.12-4.56,2.58-.9,5.2-1.72,7.78-2.62l55.2-19.2C-462.15-192.39-460.78-192.76-458.86-193.35Z" transform="translate(942 1194.11)"/><path class="cls-1" d="M-568.23-336.57v-11.56a11.56,11.56,0,0,1,.06-1.44c.71-5.82,8.9-15.12,14.72-15.52a124.43,124.43,0,0,1,23.56.12c4.92.6,9.54,3.63,14.29,5.6.74.31,1.39.87,2.14,1.1,6.28,1.93,8.16,6.76,8.42,12.65.72,16-4.27,29.78-16.1,40.78-13.18,12.27-32.83,9.58-42.44-5.66a28.68,28.68,0,0,1-4.84-16.41c.1-3.22,0-6.44,0-9.66Z" transform="translate(942 1194.11)"/><path class="cls-1" d="M-346.59-932.79c-1.55-1.56-2.59-2.73-3.74-3.76-5.42-4.81-10.78-9.67-16.33-14.32a13.16,13.16,0,0,0-11.79-2.84c-4.66,1-8.59-1-12.1-3.71-2.8-2.13-5.21-4.79-7.87-7.14a68.86,68.86,0,0,0-7.42-6.16c-5.72-3.76-11-3.09-15.73,1.71a22,22,0,0,0-2,3c-1.78-1.78-3-2.89-4.11-4.14-2.82-3.3-5.29-7-8.42-9.93-2.7-2.56-3-5-1.65-8.15q4.78-11.1,9.36-22.28c3.86-9.39,7.63-18.81,11.44-28.22.59-1.43,1.24-2.84,1.77-4.08,2.91-.07,3.31,2,4.2,3.38,8.87,13.85,17.57,27.8,26.53,41.59,12,18.51,24.26,36.9,36.42,55.34C-346.26-939.83-344.46-937.15-346.59-932.79Z" transform="translate(942 1194.11)"/><path class="cls-1" d="M-663.31-383.81c1.49.68,2.8,1.21,4,1.86,9.13,4.75,18.26,9.48,27.35,14.32,2.68,1.42,5.13,3.26,7.8,4.7a100.76,100.76,0,0,0,9.92,4.82c4.4,1.78,5.41,3.28,3.3,7.65-3.7,7.66-7.57,15.26-11.74,22.67-5.75,10.24-11.87,20.27-17.78,30.41-2.47,4.23-3.64,4.47-7.45,1.58-6.41-4.85-12.87-9.62-19.32-14.41-2-1.5-2.11-2.15-.52-4.31q8.43-11.43,16.84-22.87c2.06-2.8,1.63-5-1.64-6.63-4.59-2.32-9.3-4.38-14-6.53-.73-.34-1.51-.56-2.24-.91-4.83-2.3-5.23-4.27-1.79-8.44a27.25,27.25,0,0,0,6.35-20.62,8.62,8.62,0,0,1,0-1.9C-664.1-382.71-663.83-383-663.31-383.81Z" transform="translate(942 1194.11)"/><path class="cls-1" d="M-713.25-342.25c-9-.23-14.46-4.87-19.12-10.62-5.72-7.06-7.84-15-4.93-23.95,1.08-3.34,1.29-7,2.57-10.24,3.88-9.92,13.13-15,23.56-13.24a69.17,69.17,0,0,1,32.45,15.19c8,6.56,7.85,18.05,0,24.86a73.42,73.42,0,0,0-7.14,6.49C-693.48-345.27-703.75-343.6-713.25-342.25Z" transform="translate(942 1194.11)"/><path class="cls-1" d="M-170.88-319c-4.8,2.3-8.62,4.28-12.55,6-9.87,4.33-19.88,8.38-29.67,12.89-4.6,2.12-8.09,1.93-12.29-1.34-15.37-12-31.13-23.41-46.62-35.2-6.54-5-9.27-10.71-9.83-19,1.53-1.8,3.27-.64,4.86-.19q12.32,3.5,24.6,7.11c15,4.4,30.12,8.34,44.88,13.39,11.39,3.9,22.31,9.19,33.42,13.92C-173.26-321.09-172.61-320.34-170.88-319Z" transform="translate(942 1194.11)"/><path class="cls-1" d="M-67.73-630.47c.13,6.25-2,11.61-4.67,16.8a5.39,5.39,0,0,1-1.1,1.58c-6.89,6-13.28,12.71-22.78,14.61-9,1.81-22.69-3.89-27.64-11.57a18.52,18.52,0,0,1-3-12,71.23,71.23,0,0,1,12.58-35c2.28-3.21,4.82-4.18,8.67-3.13,9.85,2.69,19.35,6.12,27.63,12.25a55,55,0,0,1,7.44,6.79A12,12,0,0,1-67.73-630.47Z" transform="translate(942 1194.11)"/><path class="cls-1" d="M-729.53-305.41c-4.81,6.28-7.63,13.61-13.56,18.87-4.27-1.74-7.24-4.75-10.16-7.66-7.31-7.27-14.34-14.82-21.63-22.11-3.07-3.07-6.5-5.78-9.76-8.66-3.7-3.25-3.82-5-2.24-9.71,2.7-7.93,8.74-13.47,13.82-19.59,5.42-6.55,11.76-12.33,17.69-18.46,2.56-2.65,5-5.38,7.68-8a28.8,28.8,0,0,1,3.91-2.61,23.28,23.28,0,0,1,0,3.15c-.31,1.74-.7,3.47-1.1,5.2-2.5,10.9.93,20.35,7.18,29,3.08,4.27,3.15,4.15.42,8.34-2.37,3.63-4.62,7.35-7,11-1.56,2.46-.86,4.8.79,6.68,3.38,3.87,7,7.53,10.56,11.25C-731.92-307.6-730.85-306.67-729.53-305.41Z" transform="translate(942 1194.11)"/><path class="cls-1" d="M-183.85-632.18c20.37-2.57,38.71-10.63,56.86-19.28l.78,1.14c-1,2.61-2,5.24-3.15,7.83a66.24,66.24,0,0,0-5.77,27.21,25.81,25.81,0,0,0,4.88,15.35c.56.77,1,1.61,1.86,2.94a18,18,0,0,1-3.76,2c-9.38,2.3-18.79,4.51-28.2,6.69q-8.94,2.08-17.92,4c-1.48.31-3,.33-5.47.59,2.56-8.53,4.46-16.4,3.58-24.46C-181-615.93-182.5-623.61-183.85-632.18Z" transform="translate(942 1194.11)"/><path class="cls-1" d="M-441.38-375.71c-3.56,2-50.3,8.41-57.22,7.75a29.7,29.7,0,0,1-.26-4.46c1.16-13,2.49-26,3.57-38.95.74-9,1.13-18,1.73-27,.11-1.68.44-3.35.63-4.8a10.81,10.81,0,0,1,1.05-.27.66.66,0,0,1,.45.09c.86.94,1.75,1.85,2.52,2.86C-472.8-419.59-456.3-399-441.59-377A3.41,3.41,0,0,1-441.38-375.71Z" transform="translate(942 1194.11)"/><path class="cls-1" d="M-77.94-597.06c14-11.38,19.52-26,19.58-43.81,7.52,2.62,14.07,5.15,20.78,7.16S-24-630.2-16.7-628.34c-.94,1.1-1.24,1.72-1.73,2-6.67,3.44-10.34,9.94-15.35,15.06-5.15,5.28-7.42,11.92-8,19.19-.4,4.91-1,5.33-5.61,4-8.53-2.38-17.06-4.72-25.59-7.12C-74.48-595.61-75.89-596.28-77.94-597.06Z" transform="translate(942 1194.11)"/><path class="cls-1" d="M74.79-606.14c-.15,2.47-1,4.29-3.26,5.55a133.19,133.19,0,0,1-38.6,13.4c-2.51.49-4.43-.09-5.43-2.7-2.76-7.21-5.64-14.38-8.32-21.62-.94-2.55-.21-3.84,2.68-4.6,5.75-1.51,11.57-2.79,17.38-4.07,6.9-1.52,13.84-2.88,20.74-4.45a47.82,47.82,0,0,0,5.4-2c1.53-.56,2.9-.33,3.69,1.27A57.83,57.83,0,0,1,74.79-606.14Z" transform="translate(942 1194.11)"/><path class="cls-1" d="M-430.17-732.19a12.08,12.08,0,0,1,.54-3c4.75-9.49,9.79-18.82,16.51-27.11a67.6,67.6,0,0,1,15.71-14.14,25.69,25.69,0,0,1,6.55-3c5.66-1.68,7.92-.06,8.13,5.74a29.8,29.8,0,0,1-.62,7.18,74.81,74.81,0,0,1-2.75,9.73c-3.81,10.59-8.16,21-14.14,30.56-2.84,4.57-2.87,4.54-7.36,1.94-2.36-1.37-4.61-3-7.14-4-3.71-1.41-7.61-2.36-11.45-3.4A29.33,29.33,0,0,0-430.17-732.19Z" transform="translate(942 1194.11)"/><path class="cls-1" d="M-610.37-333.91a31.64,31.64,0,0,1,1-3.3c2.54-6.06,5.15-12.11,7.68-18.18,1.67-4,1.4-4.9-2.5-6.78-5.95-2.87-12.09-5.35-17.95-8.38-7.38-3.81-14.57-8-21.84-12.05l.37-1.07a15.27,15.27,0,0,1,2.81.47c13.73,5.12,27.44,10.31,41.18,15.42,5.13,1.9,10.29,3.73,15.49,5.43,8.09,2.65,11.45,8.65,9.9,17.13-.93,5.05-1.26,10.22-1.82,15.34-.14,1.27,0,2.58-.14,3.86-.31,3.85-1.08,4.38-5,3.37a33.63,33.63,0,0,1-3.67-1.23C-593.22-327.15-601.58-330.45-610.37-333.91Z" transform="translate(942 1194.11)"/><path class="cls-1" d="M-709.15-334l-3.55,7.4a6.35,6.35,0,0,0,1.06,7.57c3.63,4.09,7.11,8.32,10.86,12.29,4.48,4.74,5.09,6.89,2.2,12.83-1.82,3.75-4.11,7.27-6.18,10.89a3.39,3.39,0,0,1-4.93,1.52c-5.87-3-11.71-6-17.49-9.18-2-1.07-2-3-.76-4.58,2.81-3.71,3.65-8.08,4.8-12.42.67-2.53.29-4.38-1.66-6-4-3.29-7.88-6.61-11.84-9.89-.62-.51-1.34-.89-2.51-1.66,3.15-4.2,5.82-7.95,8.75-11.49a4.28,4.28,0,0,1,3.4-1.21c5.68.91,11.32,2.08,17,3.18C-709.89-334.71-709.78-334.54-709.15-334Z" transform="translate(942 1194.11)"/><path class="cls-1" d="M-457.43-687.31c-.75-5.2-1.85-10.38-2.18-15.61-1-15.92-2.08-31.86-.56-47.81a39.11,39.11,0,0,1,1.71-8c1.12-3.57,3.53-4.94,7-3.93a21.73,21.73,0,0,1,6.51,3c4.26,3,9,5.47,11.71,10.48,1.38,2.59,1.58,4.64.16,7.18-4.33,7.72-8.45,15.56-12.74,23.3a86.82,86.82,0,0,0-9,26.39c-.32,1.67-.67,3.33-1,5Z" transform="translate(942 1194.11)"/><path class="cls-1" d="M76.52-594.32c.92,3,1.62,5.82,2.63,8.49a76.74,76.74,0,0,0,3.24,7c2.28,4.68,2.16,5.28-2.41,7.35-8.06,3.66-16.18,7.22-24.27,10.82L45.11-556c-3.82,1.67-5.43,1.19-7.37-2.58-1.61-3.15-3.08-6.39-4.45-9.66S32.11-572,35.34-574a168.9,168.9,0,0,1,27-13.9c3.73-1.47,7.2-3.58,10.82-5.33A28.17,28.17,0,0,1,76.52-594.32Z" transform="translate(942 1194.11)"/><path class="cls-1" d="M-672.94-318.26c-4.2-4-7.91-6.88-13-6.33s-7.46,4.54-10.7,8.32L-706.7-325c1.56-3.56,2.84-6.84,4.45-9.95.51-1,1.83-1.65,2.91-2.23,4.66-2.49,9.51-4.65,14-7.41,2.63-1.63,4.87-2,7.65-.77,4.87,2.09,9.88,3.87,14.73,6,3.14,1.38,3.35,2.23,1.43,5.09-2.58,3.88-5.35,7.63-8.05,11.42C-670.6-321.4-671.66-320-672.94-318.26Z" transform="translate(942 1194.11)"/><path class="cls-1" d="M.86-567c-4.7-9.2-8.85-18.34-16.46-26l7.91-3.75c5.82-2.71,11.61-5.49,17.46-8.1,3.06-1.37,3.88-.82,4.73,2.43,1.53,5.9,3.07,11.8,4.68,17.68,1.54,5.58,1.07,6.75-4.07,9.65C10.52-572.53,6-569.92.86-567Z" transform="translate(942 1194.11)"/><path class="cls-1" d="M-22-594.27l8.44,20.78c-1.81-.29-3-.13-3.79-.66-3.9-2.79-8.17-5.29-11.39-8.75-5.26-5.64-5.22-12.6-2.52-19.46s7.86-11.87,14-15.49c2.63-1.56,6.63-1.77,9.79-1.26,4.07.66,3,5.09,4,8,.65,2,.43,3.74-1.9,4.78A92.55,92.55,0,0,0-14-602C-17.47-600-21.11-598.06-22-594.27Z" transform="translate(942 1194.11)"/><path class="cls-1" d="M47.37-656.18c.91,1.94,1.66,3.34,2.24,4.81,1.74,4.42,1,6.16-3.39,7.69-4.7,1.62-9.42,3.28-14.23,4.48-8.26,2.05-16.59,3.83-24.92,5.57-4.85,1-6-.27-5.42-5.34.52-4.28,1.23-5,5.5-5.94,8.31-1.81,16.67-3.45,24.91-5.53,4-1,7.8-2.88,11.69-4.36Z" transform="translate(942 1194.11)"/><path class="cls-1" d="M-22.54-1146.91c.8-3.57,1.72-7.11,2.38-10.7,1.24-6.69,2.33-13.42,3.55-20.55,5,5.94,9.57,11.45,14.15,17a7.56,7.56,0,0,1,.61,1.94L-21.38-1146Z" transform="translate(942 1194.11)"/><path class="cls-1" d="M-377.65-643a162.78,162.78,0,0,1,13.37-21.55l15.22,15.25c-1.42.66-2.48,1.53-3.59,1.6C-360.84-647.08-368.4-642.73-377.65-643Z" transform="translate(942 1194.11)"/><path class="cls-1" d="M5.54-612.22c-.16-1.35-.31-2.43-.42-3.52-.74-7.08-.71-7,6.42-8.82,10.91-2.77,21.79-5.71,32.71-8.48,1.64-.41,4.29-2.08,4.75.8.36,2.27-2.57,1.87-4.15,2.12-8.6,1.4-17.25,2.74-24.9,7.24-2.25,1.33-4.65,3.27-5.72,5.52C12.39-613.45,9.39-612.71,5.54-612.22Z" transform="translate(942 1194.11)"/><path class="cls-1" d="M-190.21-571.37c1.64-1.37,2.63-2.83,3.89-3.13,8.25-2,16.57-3.75,24.87-5.54.36-.08.8.26,1.34.45C-165.41-576.92-186.22-571-190.21-571.37Z" transform="translate(942 1194.11)"/><path class="cls-1" d="M21.91-554.41c-1.84-.11-3.64.28-4.46-2-1.1-3.08-.55-4.32,2.66-5.14,4.72-1.21,5.67-.86,6.79,2.51,1,3.12.47,4-2.75,4.47C23.36-554.47,22.56-554.46,21.91-554.41Z" transform="translate(942 1194.11)"/><path class="cls-1" d="M-665-286.63l2.71,8.41c-3.17-1.37-4.9-3-5.21-5.71C-667.57-284.54-666.26-285.31-665-286.63Z" transform="translate(942 1194.11)"/><path class="cls-1" d="M-668.95-296.55c1.49.64,1.9,1.91,1.07,3.11-1.44,2.08-3.59,1.53-5.79,1.25C-672.12-294.83-672.12-294.83-668.95-296.55Z" transform="translate(942 1194.11)"/><path class="cls-1" d="M-394.8-723a20,20,0,0,1-.35,4c-.2.7-1.2,1.16-1.84,1.73-.57-.83-1.8-1.95-1.59-2.43a20.1,20.1,0,0,1,2.8-3.85Z" transform="translate(942 1194.11)"/><path class="cls-1" d="M-409.85-785.17c-.29,2.65-1.39,3.64-3.28,3-.61-.2-1.44-1.64-1.24-2.15C-413.43-786.65-411.71-785.74-409.85-785.17Z" transform="translate(942 1194.11)"/><path class="cls-1" d="M-468.57-807.09c-.85-1.53-1.52-2.34-1.69-3.25-.07-.37,1.16-1.44,1.46-1.32.75.29,1.68,1,1.81,1.7S-467.72-808.55-468.57-807.09Z" transform="translate(942 1194.11)"/><path class="cls-1" d="M18.52-569.48,22.33-572C22.62-568.47,22.62-568.47,18.52-569.48Z" transform="translate(942 1194.11)"/><path d="M-169.13-356l2.3,4.67C-169.52-353-169.52-353-169.13-356Z" transform="translate(942 1194.11)"/><path d="M166.45-535.85c-.6-1.35-.41-2.44,1.88-3.74-.33,1.82-.53,2.88-.72,3.94Z" transform="translate(942 1194.11)"/><path d="M-173.31-350.59a4.53,4.53,0,0,1-.54.72,8.43,8.43,0,0,1-1.1-.69l.66-.89Z" transform="translate(942 1194.11)"/><path d="M-843.93-208.35c3.38.82,6.5,1.93,6.31,6.54Z" transform="translate(942 1194.11)"/><path d="M-834.54-211.48q.56,3,1.09,6.09l-1,.23a6.85,6.85,0,0,1-1.46-6.1Z" transform="translate(942 1194.11)"/></svg>