<svg xmlns="http://www.w3.org/2000/svg" id="Layer_1" data-name="Layer 1" viewBox="0 0 1200 1550"><defs/><defs><style>.cls-1{fill:#fff}</style></defs><path d="M0 457.4V-1.5h1200v494.1a54.5 54.5 0 01-40.7 5.2c-17.1-3.7-22.7 0-27 16.6l-.8 3.8c-3.4 13.3-12 19-25.5 16.8-5.8-.9-11.4-2.6-17.3-3.3-32.4-3.7-64.8-7.3-97.2-10.7-33.5-3.4-66.8-14.3-100.8-3.3-.4.1-1-.6-2-1.1 0-3.7-.5-7.7.2-11.4 6.4-34.3 11.2-69 20-102.6 7.2-27 12.9-53.1 7.2-80.9-11.3-55.4-60.8-91-113.2-81.1-26.3 4.9-34.2 16.5-28.9 42.6a33.8 33.8 0 01.6 3.8c.8 9.5-3.5 15.3-13.1 15.7a113.7 113.7 0 01-24.4-1.2c-48-8-95.5-7.3-142.9 4.2-32 7.8-46.5 1-59.2-29-12.5-29.6-49-46.8-80.2-45.7-43.2 1.5-76 37.8-84.9 70.4-8 29.3-3 57.5 8.5 85 6.5 15.7 12.2 31.7 18.7 47.4a66 66 0 01-6 66.8 123.8 123.8 0 00-22.4 63A316.6 316.6 0 01344 671.8c-9 21.4-4.6 40.1 9.5 57.5 3 3.7 6.2 7.2 11 12.6h-26.3L0 741.6V553.4l56.8-.8 214.4-3.8c10.3-.2 20.5 0 30.7 0l.4-2.8a98.1 98.1 0 00-9.1-4.9c-48.3-19.9-96.5-39.9-144.8-59.5A230.4 230.4 0 0046.9 465c-15.4.8-31.3-5-46.9-7.6z" class="cls-1"/><path d="M0 741.6l338.2.3h26.3c-4.7-5.5-8-9-11-12.7-14-17.2-18.5-36-9.5-57.4a316.8 316.8 0 0024.6-108.2c1.2-23.2 9.8-44.3 22.4-63a66 66 0 006-66.8c-6.5-15.7-12-31.7-18.6-47.4-11.5-27.5-16.5-55.7-8.5-85 8.9-32.6 41.7-69 85-70.4 31-1 67.6 16.1 80.1 45.8 12.7 30 27.1 36.7 59.2 29 47.4-11.6 95-12.3 142.9-4.2a113.7 113.7 0 0024.3 1.1c9.7-.4 14-6.2 13.2-15.6a33.8 33.8 0 00-.6-4c-5.3-26 2.6-37.6 28.9-42.5 52.4-9.9 102 25.7 113.2 81.1 5.7 27.8 0 54-7.1 80.9-9 33.6-13.8 68.3-20.1 102.6-.7 3.7-.1 7.7-.1 11.4.9.6 1.5 1.3 1.9 1.1 34-11 67.3-.1 100.7 3.4 32.5 3.3 65 7 97.3 10.7 5.8.6 11.5 2.3 17.3 3.2 13.6 2.2 22-3.5 25.4-16.7l1-3.8c4.2-16.7 9.8-20.4 26.9-16.7 14.3 3 27.8 2.4 40.7-5.1v56.8l-242.8 3.1c-20 .3-39.9.6-59.8.6-5.5 0-8.4 1.2-8 7.6 2 26.5-3.5 51.7-11.2 77-10.4 33.9-19.1 68.3-28.8 103 3.6.6 5.1 1 6.7 1q172 0 343.9-.2v53h-182.4c-.2 4-.5 7-.5 9.8v299c1 12.4 5 16.2 17.3 16.2h90.2c25.1 0 50.2.3 75.4.5v431.4H0V1120h126.7V794.6H0zm1003.9 399.2c12.2-6 15.2-12.7 9.3-25.5a183.2 183.2 0 00-13.7-24.8 612.3 612.3 0 01-76.4-164.6c-7.8-27-18.2-53.1-34-76.7a232.4 232.4 0 00-50.1-54.7c-14.6 15-27.5 30.3-42.6 42.9-19 15.9-39.6 30-60 44-22.4 15.4-47 26.3-74.7 25.8-23.8-.5-47.6-2.5-71.2-5.1-50.3-5.5-99-17.2-145-39.1-24.5-11.8-42.1-29.2-47.5-57.1-1.3-6.6-4.2-12.8-6.5-19.5-41.3 8.8-75.2 25.2-90.3 67.4a229 229 0 01-39.6 68.3c-14.3 17.3-29 34.7-40.5 53.9-17 28.2-35 54.8-61.6 75.2-10.4 8-9.6 15.7.3 25.4 6.5-4.1 13-8.6 19.8-12.3 1.8-1 5 .5 7.5.8-1.3 2-2.2 4.4-4 5.6-5.3 4-11 7.3-18.7 12.4l41.3 22c6.2-9.5 11-17.4 16.7-24.7 1.4-1.9 5.4-1.9 8.2-2.7-1 2.6-1.5 5.5-2.9 7.9-3.4 5.8-7.8 11.1-10.4 17.3-.8 2 2 7.6 4.3 8.3a204 204 0 0033 9c13.2 2 23-2.8 17.3-20.4-8.3-26.4-2.5-39.6 20.8-54.5a78.3 78.3 0 0031.4-36.5 284.6 284.6 0 0116.7-34.4c22.7-38.5 42-78.2 46.9-123.5.2-2 1.9-4 2.8-5.9l2.9.5c.4 3.2 1.6 6.6 1.3 9.8-2.4 26-4.2 52-7.9 77.9a945 945 0 01-45.6 177 122 122 0 00-7.9 55.8c2.9 22.6 7.4 45 10.2 67.7 3.2 26.2 6.4 52.6 7.4 79 1 25-10.7 39.4-34 47.6-4 1.4-7.6 3.3-12.8 5.6 9.2 13 21.6 19.3 34 25.5 1.4.7 4.5-.7 6.1-2 8.7-7.3 17-15 25.7-22.3 2.4-2 5.5-3 8.2-4.6-.8 3.2-.6 7.3-2.5 9.3-8.4 9-17.4 17.3-26.6 26.3l42.8 20.7 21.2-46.1 5 2c-2.4 16.7-13.8 30.7-18.5 47.7l42.5 18c3.9-11.2 7-21.2 10.8-30.8.9-2 4-3.1 6.2-4.6.3 2.3 1.3 4.9.7 6.9-3 10.2-6.6 20.2-10.6 32 14 3.5 26.7 7.4 39.6 10 15.8 3.2 24.6-1.4 29.4-16.8 3.8-12.4 6.6-25.5 6.8-38.4.1-19.7-2.3-39.6-3.8-59.3a6.2 6.2 0 00-3.1-4.3c-17.1-7.4-26.8-21.8-34-37.7-40.5-89.2-52.7-180.5-19.1-275 10.3-29.1 25.2-54.4 52.3-71C604.5 898.4 723 959 731.5 1061c3.7 44.6-7 86.3-24.9 126.4-11 24.8-24 48.6-35 73.3-9 20.2-15.3 42-37.1 53 9.8 10.7 9.7 16 0 25.4-5.6 5.5-11.7 10.5-17 16.2-11.6 12.4-13 25.5-4.8 40.3 22.9 2 44.8-1.3 65.5-11.7 2.3-1.1 5.5-.5 8.2-.7l2.9 4.5a48.2 48.2 0 00-6.5 2.3c-20 10.7-41.5 14.2-65.2 15.1a209.8 209.8 0 0027.8 27.3c2.4 1.9 6.8 2 10.2 1.7q29.3-2 48.5-24.4c1.5-1.8 4.8-2 7.2-3-.5 2.6-.2 5.8-1.7 7.6a72.2 72.2 0 01-40.7 25.5l-11 2.8c17.7 13 35.5 21.7 55.2 25.8 3.3.7 8.8-1 10.9-3.5 9-11.1 16.9-23 25.4-34.5 1.3-1.7 3.7-2.6 5.6-3.9.4 2.3 1.9 5.2 1 6.9a205.7 205.7 0 01-12.3 21c-3.7 5.5-8.2 10.4-13.8 17.4 8.1-1 13.6-1.3 19-2.2 37.3-6 71.5-28.6 75-75.4 2.9-39.3 5.3-78.8 7.6-118.2 4-67.8 6.7-135.6 12-203.3 2.5-30.8 9.4-61.2 15.3-91.6 1.6-8.3 4.7-18.6 15.4-19.2 9.7-.6 14.2 8.3 18.2 15.8a166.5 166.5 0 0116.3 114.8c-3.9 19 9.2 37.5 31 42.5-1.4-8.3-2.9-15.7-3.8-23.3-.3-2 1-4.3 1.5-6.6 1.9 1.5 5 2.6 5.4 4.3 1.5 8 2 16.1 3.2 24.1.4 2.5 1.5 6.2 3.2 6.8a85.7 85.7 0 0047.8 3.3c-7.6-11-14-19.9-20-29-1.6-2.4-2.4-5.3-3.5-8 3 1 7.4 1 9 3 7.4 9.8 14 20.2 21.4 31.2zM888.5 454.9c-4.1 1.7-6.5 2.5-8.8 3.6q-164 75.8-328 151.3c-24.4 11.2-41.3 30-57.5 51.1 14.3 0 27.7-1 40.8.2 41 4 81.6 11.4 123 6.7 15.1-1.7 26.4 6.4 31.9 21 6.2 16.3 7 33.3.7 49.8-9 23.7-21.4 45.7-40.6 62.8-34 30.2-73 45.3-118.2 31.7-29.9-9-52-27.8-57.1-61.7-3.2-20.9-8-41.5-12-62.3-1.8-9-3.2-18.1-4.8-27.7-44 3.3-72.6-19.4-88.8-61.4-5.8 17.4-10 34.2-17 49.8-10.1 22.7-6 42 10.6 59.2 22.2 22.9 36.3 50 43.7 80.8a56.5 56.5 0 0024.3 35.6 224.7 224.7 0 0033.5 18c56.9 24.5 117.3 32.3 178.4 37 29 2.2 56.3-3.3 80.5-19.2a1331 1331 0 0075.4-54.4c23.1-17.8 36-41.8 42.4-70.6 9.5-42.6 20.8-85 32.7-127a240.4 240.4 0 009.1-72.4c-.6-24.7.8-49.5 2-74.2.3-8.7 2.3-17.3 3.8-27.7zM378 555.5l4-5.3c18.3-24.7 42.4-38.7 73.6-37.3 33 1.4 64.6 9.5 93 27C570.1 553 593 557 616 547.8a368.1 368.1 0 0061-30.7 656.6 656.6 0 01210.8-89.2c3.3-.7 7-5 8.3-8.6 4.2-11.3 7.2-23 10.7-34.6 8.4-28.2 7.2-56-4.7-83.1-18.2-41.1-58.4-62.7-100.2-53.8-15.6 3.3-28.4 11.7-21.3 32.8a27.1 27.1 0 011 5.8c1.4 13.7-6 23-19.9 23.5a133.7 133.7 0 01-24.4-1.3c-33-4.7-66-8.8-99.4-3.7-17.4 2.7-34.6 7-52 9.4-28.8 4-45.9-4.5-55.7-31.5-13.5-37.1-68.2-56.1-105.2-37.3-42 21.4-62 68.2-47.3 116.7 7.6 24.9 18.1 49 27.4 73.3a69 69 0 01-7.1 67 113.6 113.6 0 00-20 53zm73.8 582a391 391 0 0025.3 125.4 246.8 246.8 0 0028 53.3c11.4 16.7 22.6 17.6 39.6 7.2a96.4 96.4 0 0162.8-14.8c24 3 38.5-7.5 47.9-28.1 8-17.6 15.6-35.2 24.2-52.4 21.7-43 41.2-86.6 45.4-135.5 6.6-76-43.5-141-118.3-152.5-56.3-8.7-108.9 19.3-129.7 70.7a334 334 0 00-25.1 126.7zm63.9-471.7c-8 1.4-18 2.5-27.8 5-21 5.3-24.8 13.6-19.7 34.2 5.5 22 8.8 44.6 14 66.8a67.8 67.8 0 0011 26.5 82.7 82.7 0 0079.7 32c55-7.6 89-41.3 110-90.5a64.6 64.6 0 002.6-42.2c-4.3-16.8-13.8-23-31.2-22.8-23.4.2-47 0-70.3-1.5-22.1-1.4-44-4.8-68.3-7.5zm-358.3 377.3c18.9-15.5 33.7-31.5 45.6-50.7 14.6-23.5 30-46.8 47.5-68.1s33-43.1 42.4-68.8c9-25 23.4-45 46.4-58.5.3-.2.1-1 .2-1.8H157.4zm694-248.5c3 3.3 4.5 5 6.1 6.5a229.1 229.1 0 0161 90c9.8 26.3 17 53.5 27.5 79.5 11.3 28.2 24.9 55.6 37.5 83.3l3-1.2v-258zM384.6 909l-2.2-.3c-6.8 14-13.3 28-20.3 41.8-9.4 18.3-20.3 35.9-28.4 54.7-9 21.3-22.4 37.7-42.2 49.6-13.5 8-18 20-15.2 35l5.6 29.8c13.8 0 28.5.3 43-.2 2.7-.1 6.8-3 7.6-5.5 11.8-38.6 24.1-77 34.3-116.1 7.5-29.2 12-59.2 17.8-88.8zM903 1119c0-13-1.7-25.1.3-36.6 6-34.2-.2-66.2-14.8-97-3-6.4-8.2-11.8-12.5-17.8-15 13.2-33.4 115.4-28.4 151.4zm-684.8.2l-60.7-31.6v31.6z"/><path d="M1200 741.6l-343.9.2c-1.6 0-3.1-.4-6.7-1 9.7-34.8 18.4-69.2 28.8-103 7.7-25.3 13.1-50.6 11.2-77-.4-6.5 2.5-7.6 8-7.6 20 0 39.9-.4 59.8-.6l242.8-3z" class="cls-1"/><path d="M1200 1120.1l-75.4-.5h-90.2c-12.2 0-16.3-3.8-17.2-16.2v-299c0-2.8.2-5.7.4-9.8H1200z" class="cls-1"/><path d="M0 794.6h126.7v325.5H0z" class="cls-1"/><path d="M0 457.4c15.7 2.7 31.5 8.4 47 7.6 35.3-2 69 3.3 101.4 16.6 48.3 19.6 96.5 39.6 144.8 59.5a98.1 98.1 0 019 4.9l-.3 2.8c-10.2 0-20.5-.2-30.7 0l-214.4 3.8-56.8.9z"/><path d="M1003.9 1140.8c-7.4-11-14-21.4-21.4-31.2-1.6-2-6-2-9-3 1.1 2.7 2 5.7 3.5 8 6 9.2 12.4 18 20 29a85.5 85.5 0 01-47.8-3.3c-1.7-.6-2.8-4.3-3.2-6.8-1.2-8-1.7-16.1-3.2-24-.3-1.7-3.5-3-5.4-4.3-.5 2.2-1.8 4.5-1.5 6.6 1 7.5 2.4 15 3.7 23.2-21.7-5-34.8-23.5-30.9-42.5 8.2-40.3 3-78.5-16.3-114.8-4-7.5-8.5-16.3-18.2-15.8-10.7.6-13.8 11-15.4 19.2-5.8 30.4-12.8 60.9-15.2 91.6-5.3 67.7-8 135.5-12 203.3-2.4 39.4-4.8 78.9-7.7 118.2-3.5 46.9-37.7 69.4-74.9 75.4-5.4 1-11 1.3-19.1 2.2 5.7-7 10.1-11.8 13.8-17.3a206.3 206.3 0 0012.3-21c.8-1.7-.6-4.6-1-6.9-1.9 1.3-4.3 2.2-5.6 3.9-8.5 11.4-16.5 23.4-25.4 34.5-2 2.5-7.6 4.2-11 3.5-19.6-4-37.4-12.8-55.1-25.8l11-2.8a72.3 72.3 0 0040.7-25.5c1.5-1.8 1.2-5 1.7-7.6-2.4 1-5.7 1.2-7.2 3q-19.3 22.3-48.5 24.4c-3.4.2-7.8.2-10.2-1.8a211.6 211.6 0 01-27.8-27.2c23.7-1 45.2-4.4 65.2-15.1a45.7 45.7 0 016.5-2.4l-3-4.5c-2.6.2-5.8-.4-8 .8a119 119 0 01-65.6 11.7c-8.2-14.9-6.8-28 4.7-40.3 5.4-5.7 11.5-10.7 17-16.2 9.8-9.4 10-14.7 0-25.5 22-11 28.2-32.7 37.2-53 11-24.6 24-48.5 35-73.2 17.8-40.2 28.6-81.8 25-126.4-8.6-102-127-162.8-214.4-109.6-27.1 16.5-42 41.8-52.4 71-33.5 94.5-21.3 185.7 19.2 275 7.2 16 16.9 30.2 34 37.6a6.2 6.2 0 013 4.3c1.6 19.8 4 39.6 3.9 59.4-.2 12.8-3 26-6.8 38.3-4.8 15.4-13.6 20-29.4 16.9-13-2.6-25.7-6.5-39.6-10.2 4-11.7 7.5-21.7 10.6-31.9.6-2-.4-4.5-.7-6.9-2.1 1.5-5.3 2.6-6.1 4.6-3.9 9.7-7 19.6-10.9 30.7l-42.5-17.9c4.7-17 16-31 18.5-47.7l-5-2-21.3 46.2L349 1398c9.2-9 18.2-17.3 26.6-26.2 2-2 1.7-6.1 2.5-9.3-2.7 1.5-5.8 2.6-8.2 4.5-8.7 7.3-17 15-25.7 22.3-1.6 1.3-4.7 2.8-6.1 2-12.4-6.1-24.8-12.4-34-25.5 5.2-2.3 8.9-4.2 12.7-5.6 23.4-8.2 35-22.6 34.1-47.6-1-26.4-4.2-52.7-7.4-79-2.8-22.6-7.3-45-10.2-67.7a122 122 0 017.9-55.7 945 945 0 0045.6-177c3.7-25.9 5.5-52 7.9-78 .3-3.2-.9-6.5-1.4-9.8l-2.8-.5c-1 2-2.6 4-2.8 6-4.9 45.3-24.2 85-47 123.5a284.3 284.3 0 00-16.7 34.4 78.6 78.6 0 01-31.3 36.5c-23.4 15-29.2 28-20.8 54.5 5.5 17.6-4.2 22.4-17.4 20.3a206.8 206.8 0 01-33-8.9c-2.3-.7-5.1-6.4-4.3-8.3 2.7-6.2 7-11.5 10.4-17.4 1.4-2.3 2-5.2 3-7.8-2.9.8-6.9.8-8.3 2.7-5.6 7.3-10.4 15.2-16.7 24.7l-41.3-22c7.8-5 13.4-8.5 18.8-12.4 1.7-1.2 2.6-3.7 3.9-5.6-2.6-.3-5.7-1.7-7.5-.8-6.8 3.7-13.2 8.2-19.8 12.3-9.9-9.7-10.7-17.5-.3-25.4 26.6-20.4 44.7-47 61.6-75.2 11.5-19.2 26.3-36.5 40.6-53.9 17-20.7 30.6-43.2 39.5-68.3 15.1-42.2 49-58.6 90.3-67.4 2.3 6.7 5.3 13 6.5 19.5 5.4 28 23 45.3 47.6 57.1a443 443 0 00144.9 39.1c23.6 2.6 47.4 4.7 71.2 5.1 27.7.5 52.3-10.4 74.7-25.8 20.5-14 41-28.1 60-44 15.1-12.6 28-27.9 42.6-42.8 18.5 14.3 35.8 33 50.2 54.6a275.4 275.4 0 0134 76.7c17 58.8 43 113.4 76.4 164.6a182.7 182.7 0 0113.7 24.8c5.8 12.8 3 19.5-9.3 25.5z" class="cls-1"/><path d="M888.5 455c-1.5 10.3-3.5 19-4 27.6-1 24.7-2.4 49.5-1.8 74.2a240.4 240.4 0 01-9.1 72.5c-12 42-23.2 84.3-32.7 127-6.5 28.7-19.3 52.7-42.5 70.5a1321.1 1321.1 0 01-75.4 54.4 124.2 124.2 0 01-80.4 19.2c-61.1-4.7-121.6-12.4-178.5-37a224.7 224.7 0 01-33.5-18 56.6 56.6 0 01-24.3-35.5c-7.3-30.9-21.5-58-43.6-80.9a49.1 49.1 0 01-10.6-59.2c7-15.5 11.1-32.3 17-49.8 16.1 42 44.7 64.7 88.7 61.4 1.7 9.6 3 18.7 4.8 27.7 4 20.8 8.9 41.5 12 62.4 5.1 33.8 27.3 52.6 57.2 61.6 45.1 13.7 84.2-1.4 118.2-31.7 19.2-17 31.6-39 40.6-62.8a68.9 68.9 0 00-.7-49.8c-5.5-14.6-16.8-22.6-31.9-21-41.5 4.7-82-2.6-123-6.6-13.2-1.3-26.5-.2-40.8-.2 16.2-21.2 33-40 57.5-51.1q164.1-75.3 328-151.3c2.3-1.2 4.7-2 8.8-3.7zM731.3 600.2l-.1-.7c-8.4.9-16.9 1.5-25.2 2.7-12.6 1.8-22 8-25.8 20.8-3.9 13.4-1.3 25.8 9 35 15.4 13.8 33.8 13.9 52.3 6.9s27.4-21.6 28.3-40.8c.7-13.4-8.3-22.7-22-23.9-5.4-.4-11 0-16.5 0zm36-21l-.7-3.7c-27.1-10.6-53.7-10.2-79.3 5-1.8 1-2.6 3.7-4 5.6 2.2.3 5 1.7 6.4.8 22.5-13.6 46-15 70.4-6.6 2.1.7 4.8-.7 7.2-1.1z" class="cls-1"/><path d="M378 555.5c1.9-19.8 9.4-37.2 19.9-53a69 69 0 007.1-67c-9.3-24.4-19.8-48.4-27.4-73.3-14.6-48.5 5.4-95.3 47.3-116.7 37-18.8 91.7.2 105.2 37.3 9.8 27 27 35.4 55.7 31.4 17.4-2.4 34.6-6.6 52-9.3 33.3-5.1 66.4-1 99.4 3.7a133.7 133.7 0 0024.4 1.3c14-.6 21.3-9.8 19.9-23.5a27.1 27.1 0 00-1-5.8c-7.1-21.1 5.8-29.5 21.3-32.8 41.8-9 82 12.7 100.2 53.8 12 27 13.2 54.8 4.7 83.1-3.5 11.6-6.5 23.3-10.7 34.6-1.2 3.5-5 7.9-8.3 8.6A656.4 656.4 0 00677 517.1a368.5 368.5 0 01-61 30.7c-23 9.2-46 5.4-67.4-7.9a189.5 189.5 0 00-93-27c-31.2-1.3-55.3 12.6-73.6 37.4l-4 5.2zM439 265c-3.3.2-7.2.3-11.1.7-21.4 2.5-28.2 11-21.6 31.6C412.4 316 421 334 429 352.3c3.3 7.7 10.5 9.9 18 8.4a56.2 56.2 0 0019.1-7c14.2-9 28-19 41.5-29.3 14.3-11 14.7-17.7 2.8-31.6a66.2 66.2 0 00-13-11.7c-17.4-11.7-37.3-14.8-58.2-16.2zM828.7 358c11.9-1.3 23.6-2.2 35.1-4 16.2-2.4 20.1-7.5 20.6-24.3.7-25.7-12.8-44-31.8-58.7-16.9-13.1-29.7-10.1-38 9.4-7.6 18-13.5 36.6-19.4 55.2-3 9.7 1.2 16.6 11.4 19.2 7.2 1.8 14.8 2.2 22 3.2z" class="cls-1"/><path d="M451.9 1137.5c.1-47 9.5-87.7 25.2-126.7 20.7-51.4 73.4-79.4 129.6-70.7 74.8 11.5 125 76.4 118.3 152.5-4.2 49-23.6 92.5-45.3 135.5-8.7 17.2-16.3 34.8-24.3 52.3-9.4 20.7-23.8 31.2-48 28.2a96.3 96.3 0 00-62.6 14.8c-17.1 10.4-28.3 9.5-39.7-7.2a246.8 246.8 0 01-28-53.3 391.1 391.1 0 01-25.2-125.4z" class="cls-1"/><path d="M515.7 665.8c24.2 2.7 46.2 6 68.3 7.5 23.4 1.5 46.9 1.7 70.3 1.5 17.4-.2 27 6 31.2 22.8a64.6 64.6 0 01-2.7 42.2c-21 49.2-55 83-110 90.5a82.7 82.7 0 01-79.6-32 69 69 0 01-11-26.5c-5.2-22.1-8.5-44.8-14-66.8-5-20.5-1.3-28.9 19.7-34.2 9.8-2.5 19.8-3.6 27.8-5zM539.3 777c0-12.9-6.5-19.6-18.8-19.5-14 0-27.2 10.4-27.3 21.4 0 10.3 12.4 20 25.9 20.1 12.9.1 20.2-7.9 20.2-22zm61.2-14.9c-13.2.2-23.5 10.2-23.1 22.5.3 10.7 9.9 18.8 22.1 18.6a21.4 21.4 0 0021.3-21.5v-.5c-.2-11.2-8.8-19.2-20.3-19z" class="cls-1"/><path d="M157.4 1043V795.2h182.1c0 .8 0 1.7-.3 1.8a107.2 107.2 0 00-46.3 58.6c-9.4 25.7-25 47.6-42.4 68.8s-33 44.6-47.5 68.1a201.8 201.8 0 01-45.6 50.7z" class="cls-1"/><path d="M851.3 794.6h135.2v258.1l-3 1.2c-12.7-27.7-26.2-55-37.5-83.3-10.5-26-17.8-53.2-27.6-79.5a229.1 229.1 0 00-61-90c-1.6-1.5-3-3.2-6-6.5z" class="cls-1"/><path d="M384.6 908.9c-5.8 29.6-10.3 59.6-17.9 88.8-10 39-22.4 77.5-34.2 116.2-.8 2.4-4.9 5.3-7.5 5.4-14.6.6-29.3.3-43 .3l-5.7-29.9c-2.9-15 1.6-27 15.2-35a101.7 101.7 0 0042.2-49.6c8-18.8 19-36.4 28.4-54.6 7-13.9 13.5-28 20.3-42z" class="cls-1"/><path d="M903 1119h-55.4c-5-36 13.3-138.2 28.4-151.4 4.3 6 9.5 11.4 12.5 17.9a157.8 157.8 0 0114.8 97c-2 11.4-.3 23.5-.3 36.5z" class="cls-1"/><path d="M218.3 1119.2h-60.8v-31.6z" class="cls-1"/><path d="M731.3 600.3c5.5 0 11-.4 16.6 0 13.6 1.2 22.6 10.5 22 24-1 19.2-9.8 33.7-28.4 40.7s-36.9 7-52.3-7c-10.3-9-12.9-21.5-9-35 3.8-12.8 13.2-19 25.8-20.7 8.4-1.2 16.8-1.8 25.2-2.7zm2 6.3v-.5c-8.4 1-16.9 1.5-25.2 2.9-14.1 2.3-20.9 8.9-22.3 20.8a27.2 27.2 0 0017 29c17.5 6.6 34 4.3 48.5-8 9.4-8 14.2-24.6 10.2-33.8-5.2-11.9-16.1-10.2-26.1-10.4z"/><path d="M767.3 579.3c-2.4.4-5.1 1.8-7.1 1.1-24.5-8.3-48-7-70.5 6.7-1.4.8-4.1-.5-6.3-.9 1.3-1.9 2.1-4.6 4-5.6 25.6-15.2 52.1-15.5 79.2-5l.7 3.7z"/><path d="M439.1 265c21 1.3 40.8 4.4 58.2 16.1a66.2 66.2 0 0113 11.7c12 13.9 11.5 20.6-2.8 31.7a605 605 0 01-41.4 29.3 56.2 56.2 0 01-19.2 6.9c-7.5 1.5-14.6-.7-18-8.4-7.8-18.2-16.4-36.3-22.5-55.1-6.7-20.5 0-29.1 21.5-31.6 3.9-.4 7.8-.5 11.2-.7z"/><path d="M828.6 358c-7.3-1-14.9-1.3-22-3.2-10.2-2.6-14.5-9.5-11.4-19.1 5.9-18.6 11.8-37.3 19.4-55.3 8.2-19.5 21-22.5 38-9.4 19 14.8 32.5 33 31.7 58.7-.4 16.8-4.4 21.9-20.5 24.3-11.6 1.8-23.3 2.7-35.2 4z"/><path d="M539.3 777c0 14.1-7.3 22-20.2 22-13.5 0-26-9.8-26-20.1.2-11 13.4-21.3 27.4-21.4 12.3 0 18.8 6.7 18.8 19.5z"/><path d="M600.5 762.1c11.6-.1 20 8 20.3 19.1a21.4 21.4 0 01-20.8 22h-.5c-12.2.2-21.8-7.9-22.1-18.6-.4-12.3 9.9-22.3 23-22.5z"/><path d="M733.4 606.6h2c10 .2 20.9-1.4 26.1 10.5 4 9.2-.8 25.8-10.2 33.7a45.7 45.7 0 01-48.5 8 27.3 27.3 0 01-17-29c1.5-11.9 8.2-18.4 22.3-20.8 8.4-1.4 16.8-2 25.2-2.9zm-8.9 48c6.9-2.7 14.3-4.4 20.5-8.2 11.2-6.9 11.8-17.8 2.5-27-10.2-10.1-25.2-12.1-40-5.6-7.5 3.2-10.9 9-11.2 16.8-.5 12.8 11.7 22.8 28.2 24z" class="cls-1"/><path d="M724.5 654.6c-16.5-1.2-28.7-11.2-28.2-24 .3-7.9 3.8-13.6 11.3-16.9 14.7-6.4 29.7-4.5 40 5.7 9.2 9.2 8.6 20.1-2.6 27-6.2 3.8-13.6 5.5-20.5 8.2z"/></svg>