<svg xmlns="http://www.w3.org/2000/svg" viewBox="0 0 1200.9 1562.9"><defs><style>.cls-1{fill:#fff;}</style></defs><g id="Layer_2" data-name="Layer 2"><g id="Layer_1-2" data-name="Layer 1"><path class="cls-1" d="M.6,1552.3V1217.5a13.93,13.93,0,0,0,3.5-1.6c11-7.9,21.8-16.1,32.9-23.8,11.5-8,23.1-16,35.1-23.2,15.3-9.2,31-17.8,46.8-26.3,16.5-8.9,33-17.5,49.8-25.7,18.4-9,36.9-17.6,55.5-26.2q33.6-15.45,68.6-27.6c19.8-6.9,39.7-13.4,59.7-19.8,10.7-3.4,9.2-4.2,19.2,4.7,13.1,11.6,23.5,25.6,33.4,40a389.23,389.23,0,0,1,27.6,47.1c3.6,7.2,7.7,14.1,11.5,21.2.8,1.6,1.5,3.2,2.2,4.8,3.2,6.9,6.3,13.7,9.7,20.5.5,1.1,2.1,1.6,3.2,2.4.7-1.2,1.7-2.2,2-3.5.6-2,.3-4.3,1.1-6.2,2.6-6.3,3.7-13,5.2-19.5,2.7-11.8,6-23.4,9.2-35.1,5.4-20.1,10.9-40.1,16.3-60.2,5.8-21.1,11.7-42.3,17.2-63.5,1.1-4.3,3.2-6.9,7.4-8.6,32-12.4,64.1-24.7,95.9-37.4,26.3-10.5,52.5-21.4,78.6-32.5,5-2.1,8.4-1.9,12.6,1.5,14.2,11.6,28.9,22.7,43.2,34.3,18.5,14.8,36.7,30,55.2,44.8a11.16,11.16,0,0,1,4.4,9.6,663.06,663.06,0,0,0,4.2,82.1c2.1,18.1,4.2,36.2,7,54.2a728.13,728.13,0,0,0,15.4,73.3c1.9,7.3,4.4,14.5,6.8,21.7a9.81,9.81,0,0,0,3.5,5.1c4.3,2.5,8.7,5.2,13.5,6.3,14.3,3.3,29,4.5,43.7,4.9,15,.4,30,.4,45,.3,25.7-.3,51.3-1.8,76.4-7.4a138.3,138.3,0,0,0,27.5-9c1.9-.9,3.9-2.1,3.8-4.5-.1-2.6-2.2-3.4-4.2-4a66.71,66.71,0,0,0-9.8-2.4c-15.3-2.4-29.6-7.9-43.5-14.5a777,777,0,0,1-72.1-38.4c-11.2-6.8-22-13.9-32-22.5-17.8-15.2-30.4-34-39-55.7a217,217,0,0,1-12-41.8c-2.4-14.4-7.1-28.5-6.8-43.3,0-.8-.2-1.6-.2-2.4-.1-6-.4-11.9,0-17.8a9,9,0,0,0-3.9-8.7c-6.4-5.1-12.6-10.5-19-15.7q-18.3-14.7-36.6-29.3c-13.8-10.9-27.6-21.7-41.4-32.6-1.2-.9-2.2-2.1-3.4-3.2,2.6-3.3,6.1-3.9,9.2-5.2q27.9-12.15,55.8-24.2,45-19.35,90.2-38.6c26.1-11.2,52.4-21.9,79.3-30.7a642,642,0,0,1,73.8-19.8,408.78,408.78,0,0,1,70.6-7.6c25.5-.5,51-.6,76.4,1.9,5,.5,9.9,1.1,14.9,1.7v622.3c-14.4-1.7-28.8-3.6-43.2-4.9q-42.15-4-84.3-7.5-70.35-5.85-141.1-6.2c-71.9-.3-143.8.3-215.7,4.4-40.9,2.4-81.8,5.2-122.5,9.6-36.2,3.9-72.4,8.4-108.5,13-25.1,3.2-50.2,6.7-75.2,10.7-32.2,5.1-64.3,10.5-96.3,16.4-20,3.7-39.8,8.3-59.5,13-22.9,5.4-45.6,11.8-67.8,19.4-16,5.5-32.1,10.8-47.7,17.3-21.4,8.8-42.6,18.3-63.6,28.2-19.2,9-38.1,18.9-57.1,28.4C12.2,1546.8,6.4,1549.5.6,1552.3Zm634.5-441.8c-.1-1.3-.2-2.7-.4-4.8-.6,1.2-.9,1.5-.8,1.7.4,1,.8,2,1.2,3.1.8,3.4,1.5,6.9,2.3,10.4.5-.1,1.1-.3,1.6-.4A14.84,14.84,0,0,0,635.1,1110.5ZM145.4,1347.2c0-1.1.3-2,0-2.6q-4.35-9.3-9-18.6c-.2-.5-.9-.7-2.1-1.5-.1,7.2,5.5,11.7,6.2,17.9-2.2-1.6-4-3.5-6-5.2-5.5-4.6-11.7-7.9-18.9-8.9-1.3-.2-2.6-.3-2.8,2.2,1.4.4,2.9.7,4.4,1.1,7.2,1.8,13.6,5.1,18.2,11.1,2.1,2.8,3.8,5.7,8.1,4.3C143.8,1346.8,144.5,1347.1,145.4,1347.2Zm898.5-218c-2.1-7.8-2.4-14.7-.9-21.5-4.6-.3-6.9,2.1-8,5.9a31.28,31.28,0,0,0-.5,15.2c.1.3.7.4,1.3.8,2-3.9-1-8.7,2.3-12.5C1041.5,1120.4,1038.3,1126.1,1043.9,1129.2Zm68.6,195.3-1.1-1.4c-1.3.8-2.8,1.3-3.8,2.3a172.79,172.79,0,0,0-12.2,13.5c-2.6,3.4-4.4,7.4-6.2,11.3-.8,1.7-1.5,3.8.5,5.7,1.9-4,3.5-7.8,5.5-11.4,3.6-6.5,8.7-11.8,14.2-16.8A31.4,31.4,0,0,0,1112.5,1324.5Zm-644.7,39.1a5.64,5.64,0,0,0-1.2.4v6.5c-4,1.1-5.7-3.9-10.5-3,1.5,1.6,2.4,3,3.6,3.7a21,21,0,0,1,9,9.4c5.5-.9,5.5-1.1,3.6-5.6-1.1-2.5-1.9-5.1-2.8-7.7C469,1366,468.4,1364.8,467.8,1363.6Zm589.8-27.2c-.5.3-1,.5-1.5.8a11.32,11.32,0,0,0,1.3,3.2c1.7,2.2,3.5,4.2,5.3,6.2,4.9,5.5,9.6,11.2,11.8,18.5.1.4.8.7,1.2,1.1.3-.1.6-.2,1-.3-.2-1.6.1-3.4-.5-4.8C1071.8,1351.4,1064.5,1344.1,1057.6,1336.4Zm24.5,24.9c1.5-1.8.6-3.7.2-5.5s-1.3-3.3-1.7-5c-1.2-6.5-2.2-13-3.3-19.4-.2-1.5.1-3.2-2-3.7C1073.1,1334.4,1077.4,1355.5,1082.1,1361.3Zm-11-376.3c.1-9.1-4.4-16.7-7.5-24.8-.2-.6-1.4-.9-2.1-1.3l-.9.6C1063.9,968.1,1066.9,976.8,1071.1,985Zm-20.3,138h1a12.59,12.59,0,0,0,.4-2.7,39,39,0,0,1,5.5-22.6,8.8,8.8,0,0,0,.5-3.3c-.3,0-.7-.1-1-.1C1051.7,1103,1048.6,1112.4,1050.8,1123Zm29.3-165.9c-4.5,6.2-5.5,18.7-1.8,25,.5-8.2,0-15.6,2.4-22.6C1080.9,959,1080.5,958.4,1080.1,957.1Zm-95.2-78.9a4.63,4.63,0,0,0,.6-5.5c-2-4.2-4-8.4-7.6-11.4l-.9.6C979.5,867,982,872.2,984.9,878.2ZM481.8,1361.5c-5.4,4.7-7.3,11.6-4.6,16.6C478.8,1372.5,480.3,1367.2,481.8,1361.5ZM1058.1,970c-.5,4.8,1.5,8.8,3,13,.2.6,1.6.8,3.4,1.6C1062.5,978.8,1061.6,973.9,1058.1,970ZM149.4,1342.8c.2-4.1-.1-7.2.5-10.2.6-3.2,2.1-6.1,3.6-10C147.6,1328.5,146.1,1335.7,149.4,1342.8Zm498.5-235.4a12.1,12.1,0,0,0,.1,10.2C649.3,1113.5,649.4,1110.4,647.9,1107.4ZM990.2,871.5a6.6,6.6,0,0,0,1.4-.1c-.4-2.3,1-4.9-1.4-7.8Zm9.6-3.3c.4.1.9.3,1.3.4.7-2.1,1.4-4.1,2.5-7.1C999.8,863.5,999.5,865.7,999.8,868.2Z"/><path class="cls-1" d="M.6,631.9V0h1200V283.5c-.2-.1-.3-.1-.4-.2-19.7-19.7-39.4-39.5-59.1-59.2-1.2-1.2-2.2-2.6-3.7-4.3,2.8-2.6,5.3-4.8,7.8-7a96.38,96.38,0,0,0,20-25.3c7.6-13.2,10.6-27.5,11.6-42.5,1.3-20.2-4.8-37.6-18.6-52.2-16-17-36.2-25.9-59.2-29-13.8-1.8-27.7-.5-41.6-.5-3.7,0-7.4.3-11.1.6-1.6.1-3.5.5-3.4,2.6s1.8,2.4,3.5,2.7a7.84,7.84,0,0,0,1.4.2c6.1-.1,12.2-.1,18.3-.3,2.1-.1,4.2-.8,6.2-.5,9,1.1,18.1,1.6,26.8,3.7,16.3,3.9,31.5,10.6,44.4,21.6,11.7,9.8,19.9,21.8,23.2,37,2,9,1.3,17.9.2,26.9a77.49,77.49,0,0,1-18,41c-13.1,15.7-30.1,24.9-49.7,29.8-13.7,3.4-27.7,4.4-41.7,4.7-4.3.1-8.6.9-13-2.1-1,2.7-2,4.9-2.7,7.2-4.5,14.7-12,27.2-23.7,37.4-13.3,11.6-28.2,20.3-44.3,27.2a75,75,0,0,1-40.8,5.2,79,79,0,0,1-31.4-11.9c-7.4-4.6-14.4-9.8-21.6-14.7-13.9-9.4-16.9-10.4-33.7-10.3a56.13,56.13,0,0,1-5.8-.1,61.66,61.66,0,0,1-6.2-.9c-4.3-.9-8.5-2-12.7-3-12.3-3-24.4-6.5-34.9-13.6-14.4-9.7-23.2-23.1-24.6-40.7-.4-5-.1-10,0-15,.3-15.6,6.7-28.8,16.6-40.3,11.8-13.7,26.9-22.4,44.1-27.5,14.1-4.2,28.6-4.8,43.1-4.1,6.1.3,12.2,1,18.3,1.9A53.65,53.65,0,0,1,908,138.1c1.7,1.2,3.1,3.5,6.3,1.6a32.55,32.55,0,0,0-1.5-4.4,25.66,25.66,0,0,0-11.9-10.9c-7.6-3.7-15.8-5.4-24.2-6.4a34.14,34.14,0,0,1-5.2-1.4c.9-1.6,1.3-2.6,1.9-3.5,6.1-8.7,12.2-17.4,18.5-26,3.4-4.5,7-8.9,10.8-13a170.76,170.76,0,0,1,52.1-37.8c14.9-7.1,30.5-10.1,47-7.7a39.63,39.63,0,0,1,21.5,10.2c5.7,5.2,9.4,11.8,12.7,18.7,1,2.1,1.9,4.4,4.6,5,2.1-3.7,2.5-6.3,1.4-10.7-4.6-17.6-15.7-28.5-33.5-32.2a69.17,69.17,0,0,0-30.7.6,236.15,236.15,0,0,0-22.9,7.6c-3.1,1.2-5.4,1.2-7.8-1.4-2.6-2.8-5.5-5.5-8.3-8.1-2.9-2.8-5.8-5.6-8.9-8.2-2.3-1.9-3.3-1.5-4.6,1.3a5.78,5.78,0,0,1-2.2,2.8c-2.2,1-2.9,2.8-3.4,4.9-2.8,11.1-5.7,22.2-8.4,33.3a16.74,16.74,0,0,1-4.8,8.2c-2.6,2.4-5.1,4.9-7.6,7.5-12.5,13.4-22.3,28.7-32.4,43.9-2.5,3.7-5.1,5.3-9.4,5.2a102.66,102.66,0,0,0-25.9,2.6c-27.9,6.6-50.3,21.2-66,45.3a72.35,72.35,0,0,0-9.8,23c-1.8,7.5-1.8,15-2,22.6-.4,20.7,9.1,36.1,25.6,47.6,4.8,3.4,10.4,5.7,15.7,8.5,1,.5,1.9,1,3.3,1.8-.9,1.6-1.5,3-2.4,4.3q-15.45,21.6-30.9,43.3-16.5,23.25-33.1,46.5c-8.3,11.7-16.7,23.3-25.1,34.9-1.2,1.6-2.5,3.1-4.1,4.9-1.1-1.6-1.7-2.4-2.3-3.4-5.8-10.1-11.1-20.4-17.3-30.2-10.8-17.2-22.1-34.1-33.1-51.2-19.6-30.3-39.1-60.7-58.9-90.9-16-24.4-32.4-48.5-48.6-72.8-2.2-3.3-4.6-6.6-7-9.8s-6-4.6-10.1-4.6a44.54,44.54,0,0,1-1.7,6.1c-2.7,6.4-5.7,12.6-8.4,19-7.9,18.5-16,37-23.3,55.7-7.8,19.9-14.8,40.2-22.1,60.3q-13.05,35.85-26.1,71.8c-.5,1.4-.9,3.2-2.9,3.4-4.8-7.3-9.7-14.5-14.5-21.7-1.1-1.7-.7-3.4.2-5,3.4-5.8,5-12.1,6.2-18.7a88.37,88.37,0,0,0-6.4-53.4c-7.4-16.6-19.7-28-36.5-34.7-15.1-6.1-30.9-7.7-46.9-8.1A63.15,63.15,0,0,0,296.1,232a27.67,27.67,0,0,1-2.9,2.1,18.87,18.87,0,0,1-.6-2.1c-1-6.7-3.4-9.1-10-9.3a56.61,56.61,0,0,0-9.2.3c-20.8,3.3-35.9,15-47,32.4a152.94,152.94,0,0,0-17.7,38c-2.7,9-5.2,18-4.7,27.5.3,5.1.2,5.1-4.7,6.9-12.7,4.8-22,13.2-27.2,25.9-2.4,5.7-3.2,11.8-3.8,17.9-1.9,20,4.1,37.3,18.5,51.3s31.4,16.4,49.8,10.8c12.2-3.7,23.4-9.9,33.9-17.2a57.72,57.72,0,0,0,14.3-13.6c1.4-1.9,2.9-3.7,2.5-7.3-2.2,1.7-3.8,2.9-5.3,4.2a121.36,121.36,0,0,1-47.9,27.3c-13.7,4.1-26.9,2-38.3-7.3a58.13,58.13,0,0,1-18.6-27.1c-3.5-10.3-2.9-20.7-.9-31.1,2.7-13.4,10.7-22.5,23.7-27,8-2.7,16.2-2.4,24.4-1.4a20,20,0,0,0,2.4.4c1.5.1,3.1,0,3.5-1.8s0-3.3-1.7-4.1a22.58,22.58,0,0,0-4.9-1.9c-2.5-.5-5.1-.7-7.7-1-3.1-.4-3.8-.8-3.7-3.8a95.46,95.46,0,0,1,.8-12A127.66,127.66,0,0,1,225,272.4c4.2-8.7,8.9-17.2,15.6-24.3,10.4-11,23.3-16.4,38.3-16.7a18.27,18.27,0,0,1,6.4,1.6,35.78,35.78,0,0,1,5.8,3.5c-2.9,4.8-6,9.4-8.8,14.3s-4.9,9.8-4.3,15.6a21.24,21.24,0,0,0,2.9-3.8c4.7-6.9,9.1-14.1,14.4-20.6,9.3-11.6,21.8-17.5,36.5-18.2a133.77,133.77,0,0,1,42.7,4.2c23.8,6.5,39.5,21.3,47.1,44.9,3.7,11.7,4,23.5,3.2,35.4-.3,5.3-1.9,10.4-2.9,15.7-.3,1.6-.8,3.1-2.9,3-2.1-1.8-.7-5.9-4.9-6.5a31.6,31.6,0,0,0-1.6,4.3c-.7,3.3-1.1,6.7-1.6,10a50,50,0,0,1-8.5,21.9c-11.9,16.8-28.2,27.6-47.7,33.6-19,5.8-38.3,6.8-57.9,4a9.52,9.52,0,0,0-2.9-.1c-1,.3-2.5.9-2.6,1.5a3.75,3.75,0,0,0,1.1,3.3c2.1,1.4,4.4,2.9,6.9,3.3a117.46,117.46,0,0,0,16.7,2.2c5.5.3,10.9-.3,16.4-.5a35.78,35.78,0,0,1,4,.4c-1.2,2.3-2.1,4-3.1,5.7-8.7,14.5-17.6,28.9-26,43.5-11.9,20.7-24,41.2-35,62.3-16.5,31.4-32.1,63.2-48.2,94.8a54.83,54.83,0,0,1-3.1,5.2c-.4,0-.8-.1-1.2-.1-.4-1.8-1-3.5-1.3-5.3-2.2-12.7-4.4-25.4-6.4-38.1-2.4-14.5-4.6-29-7-43.4-2.3-13.2-4.6-26.3-7.3-39.4a33.69,33.69,0,0,0-6.7-14.9c-1.2,1.3-2.5,2.2-3.2,3.5a37.2,37.2,0,0,0-2.4,5.8c-5.3,15.7-10.5,31.5-15.7,47.2-.8,2.4-2,4.6-3.3,7.6-2.6-2.6-4.6-4.6-6.7-6.6-2.8-2.6-4.5-2.5-6.8.4a46.43,46.43,0,0,0-5.2,8.1c-7.9,15.3-15.4,30.8-23.6,46-11.6,21.4-23.7,42.5-35.6,63.7a45.73,45.73,0,0,1-3,4c-4.9-6.5-9.3-12.8-14-18.8S61.9,623.9,57,618.2c-5.1-5.9-10.2-11.6-15.4-17.4S32,588.7,26.2,584.2c-4.9.6-7.2,3.4-8.7,7.3-5,12.6-9.9,25-14.9,37.4A19.57,19.57,0,0,1,.6,631.9ZM309.1,81.6c-6.6-.2-12.6,2.6-17.5,8.1a29.39,29.39,0,0,0-7,14.1,45.07,45.07,0,0,0-.4,11,4.19,4.19,0,0,0,2.4,3.1c1.8.6,3-1,3.5-2.5a48.16,48.16,0,0,0,1.1-5.2c1.2-4.3,2.2-8.7,3.8-12.9,1.3-3.6,4.1-5.6,8.1-6,4.4-.4,8.7-.3,12.9,1.3a70,70,0,0,1,8.9,3.8c3.6,2.1,9.4-.9,10.4-5,.4-1.7.6-3.5.9-5.2,1.2-6.9,4.7-10,11.6-10.8,7.3-.8,13.6,1.6,19.4,5.8a22,22,0,0,0,3.2,2.1c2.6,1.2,4.8.3,6.5-2.4,1.5-2.4,1.3-4.7-.8-6.5a33.6,33.6,0,0,0-4.3-3.1c-13.6-9.3-35.2-7.7-43,11.3-.9,2.3-2.5,2.7-4.6,1.8A40.6,40.6,0,0,0,309.1,81.6Zm-169.7,13c-3.9.4-8.6.6-13.2,1.4-14.2,2.7-24.4,14.3-23.3,28.2.3,4.2,0,4.3-4,5.1a25.35,25.35,0,0,1-2.9.4,23.62,23.62,0,0,0-18.3,13.5,126.71,126.71,0,0,0-5.6,14.9c-.7,1.9-1.6,4.5,1,5.5s3.6-1.5,4.5-3.4c1.9-4.1,3.9-8.1,5.5-12.4,2.1-5.7,6.2-8.5,12-9,3.2-.3,6.4-.3,9.6-.5,6.5-.4,9.6-4.8,8.3-11.2a38.68,38.68,0,0,1-1-9.6c.1-5.8,3.1-9.9,8.7-11.4,8.9-2.3,18-3.5,27-.3,2.8,1,6.8-1.9,7.7-5.1.7-2.8-.8-4.7-4.6-5.3C147.3,94.9,143.7,94.9,139.4,94.6ZM61.1,336c1.1.1,2.1.2,3.1.2,7.6.5,10.9-4.1,8.5-11.3a21.69,21.69,0,0,1-.9-8c.3-3.7,2.5-5.2,6.3-5.1a14.4,14.4,0,0,1,8.8,3.4c1.1.8,2.6,1.9,3.7,1.7a5.83,5.83,0,0,0,5-4.6c.6-2.3-.1-3.9-2-5.4-5.9-4.9-12.6-6-19.5-3.1a17.74,17.74,0,0,0-11.4,16.1c-.3,6.8-1.6,6.6-6.9,7.4-.3,0-.6.1-1,.1-10.1,1.9-19,12.5-18.9,22.8a12.57,12.57,0,0,0,.8,4.7,3.26,3.26,0,0,0,2.3,2,4.24,4.24,0,0,0,3.1-1.7c.8-1.1.9-2.7,1.2-4.1.4-2,.6-4.1,1.2-6.2,1.3-5.1,4.7-7.9,9.9-8.5C56.8,336.1,59.1,336.1,61.1,336Z"/><path class="cls-1" d="M1200.6,1411.9v151H.6V1560c1.3-.5,2.8-.8,4-1.4,27-13.4,53.8-27,81-40.1a814.16,814.16,0,0,1,75.2-31.8,862,862,0,0,1,87.4-26.5c36.9-9.1,74.2-16.9,111.8-22.7,37-5.7,73.9-11.6,111-16.6,35.1-4.8,70.4-8.7,105.6-12.8,40-4.6,80.2-7.7,120.5-10.1,47-2.8,94-4.9,141.1-5.1,53.2-.3,106.4-1,159.6,1.7,36.4,1.8,72.8,4.1,109,7.7C1138.1,1405.2,1169.3,1408.7,1200.6,1411.9Zm-616.2,95.3-1.2,1.2a25.47,25.47,0,0,0,2.6,3c4.5,3.4,9.1,6.6,13.6,10,10.5,7.9,21.6,15.2,30.6,25a15.81,15.81,0,0,0,2.9,2.2c2.6-4,2.9-7.4-.5-10.7a35.64,35.64,0,0,1-4.1-5.3c-5.4-7-11.1-13.8-14-22.3,0-.1-.5-.1-.8-.1-.8,3.7-1,4.9,1.1,8.1,3.5,5.4,7.3,10.6,11,15.8.9,1.3,1.8,2.6,2.6,4-.3.2-.5.4-.8.6-7-5.3-13.9-10.8-21.1-15.9C598.9,1517.5,592.2,1511.5,584.4,1507.2Zm-234.3-2.5c-3.4-4.5-8.3-7.9-9.3-14.1-.9-5.8-1.2-11.6.8-17.2s6.8-8.9,12.1-12.7a17,17,0,0,0-2.3-.4c-4.6,1.8-8.6,4.3-10.9,8.9-4.7,9.1-4.5,18.4-.5,27.5A12.91,12.91,0,0,0,350.1,1504.7Zm298.5,30.1c4-3.9,8.1-8.5,12.8-12.2s10.3-6.7,15.9-10.3C667.5,1512.3,650.8,1525.9,648.6,1534.8Zm-292.5-28c2.2-8.3-1.1-16.6-.2-25.1-1.1.9-2.2,1.9-2.4,3C352.3,1492.3,353.9,1499.5,356.1,1506.8Zm8.7-5.2c.4,0,.7.1,1.1.1.5-3.9.5-7.9,1.6-11.6s3.3-7.4,4.9-10.8C365.1,1483,361.4,1493.8,364.8,1501.6Z"/><path d="M.6,631.9a16.46,16.46,0,0,0,2-3.1c5-12.4,9.9-24.8,14.8-37.2,1.5-3.9,3.8-6.7,8.7-7.3,5.8,4.5,10.3,10.8,15.4,16.6s10.3,11.5,15.4,17.4c5,5.7,9.9,11.5,14.6,17.4s9.1,12.2,14,18.8a29.2,29.2,0,0,0,3-4c11.9-21.2,24-42.4,35.6-63.7,8.2-15.1,15.7-30.7,23.6-46a62,62,0,0,1,5.2-8.1c2.3-3,4.1-3,6.8-.4,2.1,1.9,4,4,6.7,6.6,1.3-3,2.5-5.2,3.3-7.6,5.3-15.7,10.5-31.5,15.7-47.2a29.53,29.53,0,0,1,2.4-5.8,24.81,24.81,0,0,1,3.2-3.5,34.85,34.85,0,0,1,6.7,14.9c2.7,13.1,5,26.3,7.3,39.4,2.5,14.5,4.6,29,7,43.4,2.1,12.7,4.3,25.4,6.4,38.1a51.14,51.14,0,0,0,1.3,5.3c.4,0,.8.1,1.2.1,1-1.7,2.2-3.4,3.1-5.2,16-31.6,31.7-63.4,48.2-94.8,11.1-21.1,23.1-41.7,35-62.3,8.4-14.7,17.4-29,26-43.5,1-1.6,1.8-3.4,3.1-5.7a35.78,35.78,0,0,0-4-.4c-5.5.2-11,.7-16.4.5a117.46,117.46,0,0,1-16.7-2.2,20.89,20.89,0,0,1-6.9-3.3,3.75,3.75,0,0,1-1.1-3.3c.1-.6,1.6-1.3,2.6-1.5a9.52,9.52,0,0,1,2.9.1c19.6,2.8,38.9,1.8,57.9-4,19.5-6,35.8-16.7,47.7-33.6a51.22,51.22,0,0,0,8.5-21.9c.5-3.3.9-6.7,1.6-10a31.6,31.6,0,0,1,1.6-4.3c4.2.7,2.8,4.7,4.9,6.5,2.1.1,2.6-1.4,2.9-3,1.1-5.2,2.6-10.4,2.9-15.7.7-11.9.5-23.8-3.2-35.4-7.6-23.7-23.2-38.5-47.1-44.9a136.68,136.68,0,0,0-42.7-4.2c-14.7.8-27.2,6.7-36.5,18.2-5.2,6.5-9.6,13.7-14.4,20.6a25.51,25.51,0,0,1-2.9,3.8c-.6-5.8,1.5-10.9,4.3-15.6,2.8-4.9,5.8-9.5,8.8-14.3-2-1.2-3.8-2.7-5.8-3.5a14.77,14.77,0,0,0-6.4-1.6c-15,.3-28,5.7-38.3,16.7-6.7,7.1-11.3,15.6-15.6,24.3-5.6,11.7-9.9,23.8-11.9,36.6a96.73,96.73,0,0,0-.8,12c-.1,3,.6,3.5,3.7,3.8,2.6.3,5.1.5,7.7,1a22.58,22.58,0,0,1,4.9,1.9c1.7.8,2.1,2.4,1.7,4.1s-2,1.9-3.5,1.8a20,20,0,0,1-2.4-.4c-8.2-1-16.4-1.3-24.4,1.4-13,4.5-21,13.6-23.7,27-2.1,10.3-2.7,20.8.9,31.1a58.86,58.86,0,0,0,18.6,27.1c11.4,9.3,24.7,11.4,38.3,7.3a121.36,121.36,0,0,0,47.9-27.3c1.5-1.4,3.2-2.5,5.3-4.2.4,3.5-1.1,5.4-2.5,7.3a61.61,61.61,0,0,1-14.3,13.6c-10.5,7.4-21.7,13.5-33.9,17.2-18.4,5.6-35.5,3.1-49.8-10.8-14.4-14.1-20.4-31.3-18.5-51.3.6-6.1,1.4-12.2,3.8-17.9,5.2-12.7,14.5-21.1,27.2-25.9,4.8-1.8,4.9-1.8,4.7-6.9-.5-9.5,2-18.5,4.7-27.5a149.45,149.45,0,0,1,17.7-38c11.1-17.4,26.2-29.1,47-32.4a40.31,40.31,0,0,1,9.2-.3c6.6.3,9,2.6,10,9.3a14.29,14.29,0,0,0,.6,2.1,24.26,24.26,0,0,0,2.9-2.1,63.15,63.15,0,0,1,46.6-17.7c16,.4,31.9,2,46.9,8.1,16.8,6.8,29.1,18.1,36.5,34.7a88.37,88.37,0,0,1,6.4,53.4c-1.2,6.6-2.8,12.9-6.2,18.7a4.37,4.37,0,0,0-.2,5c4.8,7.2,9.6,14.4,14.5,21.7,2-.2,2.4-1.9,2.9-3.4q13.05-35.85,26.1-71.8c7.3-20.1,14.3-40.4,22.1-60.3,7.3-18.7,15.5-37.2,23.3-55.7,2.7-6.4,5.7-12.6,8.4-19a54.29,54.29,0,0,0,1.7-6.1,12.15,12.15,0,0,1,10.1,4.6c2.5,3.2,4.8,6.5,7,9.8,16.2,24.2,32.6,48.4,48.6,72.8,19.8,30.2,39.3,60.6,58.9,90.9,11,17,22.3,33.9,33.1,51.2,6.2,9.8,11.5,20.1,17.3,30.2a34.15,34.15,0,0,0,2.3,3.4c1.5-1.9,2.9-3.3,4.1-4.9,8.4-11.6,16.8-23.3,25.1-34.9q16.5-23.25,33.1-46.5,15.45-21.6,30.9-43.3c.9-1.3,1.5-2.7,2.4-4.3a30.8,30.8,0,0,1-3.3-1.8c-5.2-2.8-10.8-5.1-15.7-8.5-16.5-11.5-26-26.9-25.6-47.6.2-7.6.2-15.1,2-22.6a73.33,73.33,0,0,1,9.8-23c15.8-24.1,38.1-38.7,66-45.3a103.12,103.12,0,0,1,25.9-2.6c4.3.1,7-1.5,9.4-5.2,10.1-15.1,19.9-30.5,32.4-43.9,2.4-2.6,5-5.1,7.6-7.5a16.74,16.74,0,0,0,4.8-8.2l8.4-33.3c.5-2.1,1.2-3.9,3.4-4.9a5.67,5.67,0,0,0,2.2-2.8c1.4-2.8,2.3-3.2,4.6-1.3,3.1,2.6,6,5.4,8.9,8.2s5.7,5.3,8.3,8.1c2.4,2.6,4.7,2.5,7.8,1.4,7.5-2.8,15.1-5.7,22.9-7.6a67.74,67.74,0,0,1,30.7-.6c17.8,3.7,28.9,14.7,33.5,32.2,1.2,4.4.7,7-1.4,10.7-2.7-.6-3.6-2.9-4.6-5-3.3-6.9-6.9-13.5-12.7-18.7a39.3,39.3,0,0,0-21.5-10.2c-16.5-2.4-32.1.7-47,7.7a169.12,169.12,0,0,0-52.1,37.8,148.84,148.84,0,0,0-10.8,13c-6.3,8.5-12.4,17.3-18.5,26a32.85,32.85,0,0,0-1.9,3.5,51.87,51.87,0,0,0,5.2,1.4c8.4,1,16.5,2.7,24.2,6.4,5,2.4,9.3,5.9,11.9,10.9a28.41,28.41,0,0,1,1.5,4.4c-3.1,1.9-4.6-.4-6.3-1.6a53.65,53.65,0,0,0-23.8-10.1c-6.1-.9-12.2-1.6-18.3-1.9-14.5-.7-29-.1-43.1,4.1-17.2,5.2-32.3,13.9-44.1,27.5-9.9,11.5-16.2,24.7-16.6,40.3-.1,5-.4,10,0,15,1.5,17.6,10.2,31,24.6,40.7,10.6,7.1,22.7,10.6,34.9,13.6,4.2,1,8.5,2.1,12.7,3a61.66,61.66,0,0,0,6.2.9,56.13,56.13,0,0,0,5.8.1c16.8-.1,19.8.9,33.7,10.3,7.2,4.9,14.3,10,21.6,14.7a79,79,0,0,0,31.4,11.9,75.12,75.12,0,0,0,40.8-5.2c16.1-6.9,31-15.6,44.3-27.2,11.7-10.2,19.3-22.7,23.7-37.4.7-2.3,1.6-4.4,2.7-7.2,4.3,3,8.7,2.2,13,2.1,14.1-.3,28-1.2,41.7-4.7,19.6-4.9,36.7-14.1,49.7-29.8a79,79,0,0,0,18-41c1.2-9,1.8-17.9-.2-26.9-3.3-15.2-11.6-27.1-23.2-37-13-10.9-28.1-17.6-44.4-21.6-8.7-2.1-17.8-2.7-26.8-3.7-2-.2-4.2.5-6.2.5-6.1.2-12.2.2-18.3.3a5.9,5.9,0,0,1-1.4-.2c-1.6-.3-3.4-.7-3.5-2.7s1.8-2.5,3.4-2.6a103.2,103.2,0,0,1,11.1-.6c13.9.1,27.7-1.3,41.6.5,22.9,3,43.1,12,59.2,29q20.55,21.9,18.6,52.2c-1,15-4,29.4-11.6,42.5-5.4,9.4-11.8,18.1-20,25.3-2.5,2.2-5,4.5-7.8,7,1.4,1.7,2.5,3.1,3.7,4.3q29.55,29.7,59.1,59.2c.1.1.3.1.4.2v13.5c-3.6-3.4-7.4-6.7-10.9-10.2l-57.9-57c-3.7-3.7-4.5-3.8-9.3-1.5-1.9.9-3.7,1.9-5.6,2.8-20.4,9.2-41.9,11.2-63.9,9.2-4.5-.4-5.2-.2-6,4-2.1,10.5-7.6,19.1-14.6,26.9-14,15.8-31.2,27.3-50.1,36.4-9.6,4.6-19.5,8.7-30.2,10-18.6,2.3-36.3-.9-52.5-10.7-9.1-5.5-17.3-12.3-25.2-19.5-3.7-3.3-7.9-6.1-8.3-11.5-8.3.4-16.2.8-24,1.2a3.87,3.87,0,0,0-3.7,2.6c-1.1,2.9-2.3,5.7-3.4,8.5-10.8,26.7-21.5,53.5-32.4,80.2a226.46,226.46,0,0,1-10.2,20.3c-1,1.9-1.9,4.5-5.4,5.1a20.69,20.69,0,0,1,.5-4c1.2-3.8,2.5-7.7,4-11.4,6.8-17.4,13.8-34.7,20.6-52.1.9-2.3,1.5-4.7,2.3-7-.3-.1-.6-.3-.9-.4-.9,1.3-1.8,2.5-2.6,3.9-3.1,5.8-6.2,11.7-9.3,17.5-9.9,18.4-20,36.8-29.7,55.4-10.8,20.7-21.1,41.7-32,62.3-10.3,19.5-21.1,38.8-31.7,58.2-.9,1.6-2.1,3-3.1,4.5a3.61,3.61,0,0,1-.4-3.1c1.3-3.3,2.5-6.6,4-9.8,6-12.7,12-25.3,18-38a30.47,30.47,0,0,0,1.2-4.4c-7.6,9.3-29.9,55.6-30.8,63.4l3.2.3c6.7.5,13.6.3,20.2,1.8,12.1,2.7,21.3,10.3,29.2,19.5,2.4,2.7,4.6,4.1,8.3,3.2,5.6-1.3,11.4-2.2,17.1-3.5,11.6-2.5,22.3-7.5,33.1-12,8-3.3,16.1-5.9,23.2-11.4,6.2-4.8,14-3.2,19.9,2a21.53,21.53,0,0,0,4.8,3c5.6,2.8,11.2,5.5,16.9,8.2,1.6.7,3.3,1.7,4.9,1.7,6.8,0,13,2.3,19.1,4.7a162.94,162.94,0,0,0,34.9,9.7c4.5.7,5.2.4,6.1-3.9a10.75,10.75,0,0,1,7.1-8.4,54.13,54.13,0,0,1,7.7-2.7c7.8-2,15.7-3.7,23.5-5.8,3.7-1,7.2-2.7,10.9-3.8,1.6-.5,4.3-1,4.9-.2,2.4,2.8,4.1,6.1,6.1,9.2,1.1,1.7.8,3.3.4,5.1-.3,1.1,0,2.4,0,4.1,2.3-.3,4-.5,5.7-.8,21.9-4.7,43.7-10,65.7-14.1q32.7-6.15,65.9-10.5a516.8,516.8,0,0,1,64.6-4.5v7.7c-4.2.2-8.4.6-12.5.6a542.81,542.81,0,0,0-65,5.6c-29.6,4-58.9,9.2-88,15.9-9.7,2.2-19.5,4.5-29.2,6.7a14,14,0,0,0-4.1,1.3c-.7.4-1,1.4-1.5,2.2a6.36,6.36,0,0,0,2.2,1.3,12.76,12.76,0,0,0,3.3-.6,30.83,30.83,0,0,1,6.7-.9,5.55,5.55,0,0,1,3.6,1.7c7.7,8.9,10.3,19.5,10,31a13,13,0,0,0,2.1,8.2,64.14,64.14,0,0,1,3.8,6.2,69.65,69.65,0,0,1,4.2,8.7c1.9,5.2.5,8.6-4.2,11.3a55.37,55.37,0,0,1-6.4,3.3c-10.5,4.6-20.9,9.3-31.5,13.6-6.5,2.6-13,5.9-20.4,3.1a6.45,6.45,0,0,0-2.4,0c-5.1,0-10.4.7-14-4.2a.76.76,0,0,0-.4-.2c-2.6-.8-3.3-2.9-3.8-5.1-.5-2-1-3.9-1.6-6.3-3,1.3-5.5,2.4-8,3.3-2.3.8-5.2,1.9-6.9-.1-2.3-2.7-4.7-2.6-7.7-2.3a11.66,11.66,0,0,1-6.1-1.1c-4.3-2.2-8.7-4.4-12.2-7.6a29.83,29.83,0,0,0-13.3-7.4c-2.4-.5-4.7-1.2-7-1.9-10.2-3-20.4-6-29.9-11a7.13,7.13,0,0,0-6.5-.3c-5.8,2.4-11.9,2.7-18,2.7a25.09,25.09,0,0,0-8.1,1.4c-4.1,1.3-8.1,3.2-12.2,4.7-12.7,4.7-25.3,9.7-38.1,14-10.2,3.4-20.8,6-31.1,9.1-2,.6-3.8,2.2-5.6,3.5-2.6,1.9-4.7,4.4-7.5,5.8-13.2,6.7-27.1,10-42,8.8-4.2-.3-4.5.1-4.9,4.5-1.2,11.4-2.1,22.8-3.8,34.1-3.5,22.7-9,44.9-17.6,66.2-8.1,20.2-10.4,41.1-8.1,62.6.6,5.9,1.3,6.7,7,8.3,16.1,4.6,32.3,9,48.4,13.8,15.2,4.5,30.3,8.9,44.6,15.8,7.5,3.6,15.2,7.1,22.7,10.7a10.17,10.17,0,0,0,9.3,0c13.1-5.8,26.3-11.3,39.5-16.9,23.1-9.9,46.1-20,69.3-29.6,15.5-6.5,31-12.7,46.8-18.5,22.2-8.2,44.7-15.6,67.8-21,15.4-3.6,30.8-7.1,46.4-9.6,24.1-3.9,48.4-5.2,72.8-5.1,23.2.1,46.4.3,69.6,2.7v9.7c-5-.6-9.9-1.2-14.9-1.7-25.4-2.5-50.9-2.4-76.4-1.9a408.78,408.78,0,0,0-70.6,7.6A627.4,627.4,0,0,0,965.2,804c-27,8.9-53.2,19.5-79.3,30.7q-45.15,19.35-90.2,38.6-27.9,12-55.8,24.2c-3,1.3-6.5,1.8-9.2,5.2,1.2,1.1,2.2,2.3,3.4,3.2,13.8,10.9,27.6,21.7,41.4,32.6q18.45,14.55,36.6,29.3c6.4,5.1,12.5,10.6,19,15.7a9.35,9.35,0,0,1,3.9,8.7c-.4,5.9,0,11.9,0,17.8,0,.8.2,1.6.2,2.4-.3,14.8,4.4,28.9,6.8,43.3a210.13,210.13,0,0,0,12,41.8c8.5,21.7,21.1,40.5,39,55.7a245.52,245.52,0,0,0,32,22.5,777,777,0,0,0,72.1,38.4c13.9,6.5,28.1,12.1,43.5,14.5a82.38,82.38,0,0,1,9.8,2.4c2,.6,4.2,1.4,4.2,4s-1.9,3.6-3.8,4.5a140.45,140.45,0,0,1-27.5,9c-25.2,5.6-50.8,7.1-76.4,7.4q-22.5.3-45-.3c-14.7-.4-29.4-1.6-43.7-4.9-4.7-1.1-9.2-3.8-13.5-6.3-1.6-.9-2.8-3.2-3.5-5.1-2.5-7.2-4.9-14.3-6.8-21.7a734,734,0,0,1-15.4-73.3c-2.8-18-4.9-36.1-7-54.2a682,682,0,0,1-4.2-82.1,11.42,11.42,0,0,0-4.4-9.6c-18.5-14.8-36.7-30-55.2-44.8-14.3-11.5-29-22.6-43.2-34.3-4.2-3.4-7.7-3.6-12.6-1.5-26.1,11.1-52.3,22-78.6,32.5-32.2,12.7-64.2,25-96.2,37.4-4.2,1.6-6.3,4.2-7.4,8.6-5.6,21.2-11.5,42.3-17.2,63.5-5.5,20.1-10.9,40.1-16.3,60.2-3.1,11.7-6.4,23.3-9.2,35.1-1.5,6.6-2.6,13.2-5.2,19.5-.8,1.9-.5,4.2-1.1,6.2-.3,1.3-1.3,2.3-2,3.5-1.1-.8-2.7-1.3-3.2-2.4-3.4-6.8-6.5-13.7-9.7-20.5-.7-1.6-1.4-3.3-2.2-4.8-3.8-7.1-7.9-14-11.5-21.2a369.49,369.49,0,0,0-27.6-47.1c-9.9-14.4-20.3-28.4-33.4-40-10-8.8-8.5-8.1-19.2-4.7-20,6.4-39.9,12.9-59.7,19.8q-34.95,12.15-68.6,27.6c-18.6,8.6-37.2,17.1-55.5,26.2-16.8,8.2-33.3,16.9-49.8,25.7-15.7,8.5-31.4,17.1-46.8,26.3-12,7.2-23.6,15.2-35.1,23.2-11.1,7.7-21.9,15.9-32.9,23.8a28.37,28.37,0,0,1-3.5,1.6V1211a28.17,28.17,0,0,0,3.8-2.1c5.4-3.8,10.7-7.7,16-11.6,15.5-11.5,31.1-23,47.8-32.8,19.3-11.3,38.9-22.2,58.6-32.8,37.6-20.2,76-38.9,115.4-55.4,21.4-9,43.2-17,64.9-25,12.4-4.6,25.1-8.3,37.7-12.4,2.2-.7,4.4-1.6,6.7-2.4-.8-3.1-3.2-3.5-5-4.2a77.6,77.6,0,0,0-39.9-4.5c-11.5,1.6-22.6,5-33.7,8.5-14.6,4.5-29.2,9.2-43.8,13.7-1.4.4-3,.6-4.7.9a9,9,0,0,1,3.2-7.8c2.4-2.1,5-4.1,7.5-6.1,7.6-6.1,16.1-10.6,24.9-14.8,1.4-.7,3.4-.9,4.2-3.3-1.7-.3-3.1-.7-4.5-.8-7.2-.4-14.5-.8-21.7-1.1s-11-3.3-12.2-10.5a30.72,30.72,0,0,1-.5-5.3c0-5.3,0-10.6.2-16,1-20.5,3.3-40.8,11.7-59.9a21.61,21.61,0,0,0,.8-4.5c-5.2,1.7-9.1.2-12.7-2-3.9-2.5-7.7-5.2-11.6-7.8-1.4-1-2.8-2-4.3-3l-5.2,4.9c-4.4,4.3-10.2,3.3-13.7.9a22.46,22.46,0,0,1-4.1-3.4c-9.2-9.9-18.4-19.9-27.5-29.9-2.7-3-5.2-6.2-7.6-9.4-1.2-1.5-2.3-3.2-.7-5.8a24.89,24.89,0,0,1,4,2c8.7,6,15.9,13.5,23.2,21.1,5.9,6.1,12.1,12,18.4,17.8,2.4,2.2,3.6,2.1,5.2-.2,3.9-5.4,7.6-11.1,11.5-16.9-1.4-1.3-2.4-2.2-3.4-3.2-3.6-3.7-7.2-7.4-10.6-11.2-1.7-1.9-2.4-4.2-.8-6.7,2.2-3.5,4.4-7.1,6.7-10.6,3-4.6,2.9-4.5-.1-8.7-6.3-8.7-9.7-18.2-7.2-29.1.4-1.7.8-3.5,1.1-5.2.1-.7,0-1.5,0-3.3-1.9,1.3-3.3,2-4.3,3.1-3.9,3.8-7.7,7.7-11.6,11.6a79.34,79.34,0,0,0-5.8,5.8c-7.5,9-14.9,18.2-22.5,27.1-1.4,1.7-2.5,4.2-5.9,4.4.2-1.5.1-2.8.6-3.9a69,69,0,0,1,4.8-8.9c4.8-6.5,9.8-12.7,14.7-19.1,1-1.3,1.8-2.8,3.1-4.8-2.8-.6-4.8-1.2-6.9-1.5-12.9-1.8-25.8-3.9-38.8-5.1-35.6-3.5-70,2.4-103.8,13.4-7.3,2.4-14.7,4.8-22,7.2v-8.7c6.7-1.3,12.9-3.1,17.6-8.8,7.1-8.6,15-16.4,24.4-22.6,8.2-5.4,16.4-10.8,25-15.6,6.1-3.4,10.8-7.4,12-14.5a5.17,5.17,0,0,1,.6-1.3c4.2-9.9,8.4-19.8,11.6-30.2,6.4-20.3,13.5-40.4,21-60.2,15.9-41.9,32.3-83.5,48.5-125.3,1.2-3.1,2.8-5.9-1-8.4-.8-.5-1-2-1.4-3-.6-1.4-1.2-2.9-2.2-5-1.2,2.2-2.1,3.7-2.9,5.2-11.7,23.3-22.7,47-35.3,69.9-17.1,31-35.5,61.3-53.4,91.9-12.2,20.9-24.4,41.7-36.5,62.6-5.9,10.2-11.6,20.5-17.4,30.7a37.92,37.92,0,0,1-3,4,3.48,3.48,0,0,1-.6-3.1c1.9-5,3.5-10.1,5.8-14.8,5.8-12,11.9-23.9,17.9-35.9,1-2.1,2-4.1,3-6.2a5.94,5.94,0,0,1-.8-.4c-.8,1-1.6,1.9-2.3,2.9-9.2,13-18.4,26.1-27.6,39.1A20.64,20.64,0,0,1,0,785.5v-9.7a26.51,26.51,0,0,0,3.3-3.4c7.6-11,15.1-22,22.8-33,6-8.6,12.2-17,18.3-25.4a15.13,15.13,0,0,1,7.6-5.7c1.6-.5,3.1-2.2,4.1-3.7,2.5-3.7,4.7-7.7,7-11.6l15.6-26.1c1.1-1.8,1.5-3.4,0-5.3-7.5-9.5-14.7-19.1-22.4-28.4-11-13.3-22.8-25.8-30.2-41.7-.3-.7-1.3-1.1-1.9-1.6-.6.4-1,.5-1.1.7-.7,1.9-1.4,3.9-2.1,5.9q-9.45,27.6-19,55.2a14.86,14.86,0,0,1-2,3.1C.6,646.8.6,639.4.6,631.9ZM536.7,413.7l1,1c1.6-.9,3.4-1.6,4.9-2.6a33.13,33.13,0,0,1,12.4-5.2c6.9-1.3,11.2,1.6,11.6,8.6a46.41,46.41,0,0,1-1,13.4c-2.4,10.3-6.7,19.8-11.6,29.1-1.1,2.1-2.1,4-1.2,6.4,1.8,4.5,1.5,9.3.5,13.8-.8,3.6-.3,6.3,2.7,8.5,1.1.9,2.1,2,3.2,3,2.7,2.3,3.6,2.4,6.1-.1s4.7-4.9,7.1-7.3c5.7-5.6,11.8-10.6,19.6-13,9.4-2.9,15.9-.5,13.9,11.9-1.1,6.3-4.1,11.9-7.4,17.2-3.8,6.3-7.9,12.5-12.1,18.7-1.8,2.6-2,4.9,0,7.5,4.1,5.4,7.9,11,11.9,16.5,2.1,2.9,3.1,2.8,5.4-.3,4.4-6.1,8.8-12.3,13.2-18.5,15.4-21.5,30.9-42.9,46.3-64.4,9.6-13.3,18.8-26.9,28.8-40,4.3-5.7,4.4-9.8.3-15.7-8.8-12.6-16.6-25.7-25-38.5-9.1-13.9-18.4-27.6-27.4-41.6-10.2-15.7-20.1-31.5-30.2-47.3a40.1,40.1,0,0,0-3.2-3.8c-.9.5-1.4.7-1.8.9-5.2,3.4-9,3.2-13.5-1-2.1-2-3.8-4.4-5.9-6.3-5.1-4.7-10.2-9.3-15.4-13.9a8.54,8.54,0,0,0-8.1-1.9c-5.8,1.6-10.9-.2-15.4-3.6-2.3-1.7-4.4-3.8-6.5-5.7-3-2.7-5.8-5.6-8.9-8.1-2.9-2.3-5.1-1.2-5.7,2.6-.2,1.4-.1,2.9-.4,4.3-.6,3-3.1,5.6-5.6,6-2.9.5-3.9-1.9-5.1-3.7-3.3-5-6.4-10.1-9.7-15.1-1.2-1.8-2-4.1-5-4.5-.5,1-1.1,1.9-1.5,2.8-5.1,13.9-10.3,27.8-15.3,41.7-9.3,25.8-18.5,51.5-27.7,77.3-5.2,14.7-10.4,29.5-15.3,44.3-5.6,17.1-10.8,34.4-16.2,51.6-4.6,14.6-9.1,29.2-13.9,43.7-3,9-6.4,17.9-9.8,26.8-.5,1.4-.9,3.1-3.5,3.5a34.27,34.27,0,0,1,.6-5c3.7-15,7.5-30,11.3-45,.4-1.5.7-3.1,1-4.6-4.5,10.3-8.2,20.8-11.7,31.2-8,23.4-17.1,46.3-27.1,68.8q-11.1,24.9-22.5,49.8c-1.6,3.5-2.9,7.4-6.2,9.9,3.8-18.7,12.5-35.6,18.7-53.5a33.22,33.22,0,0,0-5,7.4q-10,20.85-19.8,41.9c-10.8,23.1-22.2,45.8-37.4,66.4a33.62,33.62,0,0,0-2,3.9c2,0,3.2.1,4.4,0,3.5-.5,7-1.1,10.5-1.6l44.5-6.3c4.4-.6,4.5-1,5.7-5.3,1.6-5.7,2.9-11.7,5.5-17,7.1-14.5,18-25,34.1-29.3,6.7-1.8,13.3-4.4,20-5.3a62.69,62.69,0,0,1,32.3,4,5.75,5.75,0,0,0,6.7-1c8.1-6.9,16.3-13.7,24.5-20.5,1.9-1.5,2.3-3.3,1.9-5.6a56,56,0,0,1-1-8.1c-.3-11.3-.4-22.6-.5-33.9-.1-4.8.1-9.7,0-14.5-.1-4.4-.8-5.3-5.2-6.1a20.43,20.43,0,0,1-9.8-5,195.89,195.89,0,0,1-35.9-42.2c-6.8-10.9-10.6-22.9-10.1-35.8.2-5.6.6-11.6,2.9-16.5,8.5-18.4,21.8-32.9,38.3-44.6,2.3-1.6,3.3-3.2,3-5.9a5.93,5.93,0,0,1,.7-4.2c2.4-3.2,5.7-.3,8.6-.9,1-.2,2.8,1.1,3.2,2.1,2,4.7-2.6,11.3-7.6,10.8-2.9-.3-4.9.8-6.9,2.6a158.69,158.69,0,0,0-26.4,30.8,43.19,43.19,0,0,0-5.5,12.2c-3.6,13.5-1,26.3,5.6,38.3,8.7,16,20.9,29.4,33.8,42.1.8.8,2,1.3,4,2.6-.2-2.8-.1-4.5-.4-6.1a209.06,209.06,0,0,1-3.7-37c0-10.5,0-21,.5-31.4a29.26,29.26,0,0,1,6-17c3.7-4.7,8.4-7.2,14.3-6.3,8.2,1.4,14.7,5.5,18.6,13.1.8,1.5,1.7,2.9,2.7,4.6,1.2-1.1,2-1.6,2.6-2.3,4.5-5.5,8.9-11,13.3-16.6.7-.9,1.6-2.5,1.2-3.3s-2-1.3-3.2-1.5c-3.6-.8-4.9-2-5.1-5.3-.1-3.6,1.6-5.9,5-6.5a18.22,18.22,0,0,1,5.7-.1c2.7.4,3.5,1.6,3.1,4.4C537.7,410.4,537.1,412.1,536.7,413.7Zm72.4,139.8c0,.3-.1.6-.1.9a32.07,32.07,0,0,0,3.1,1.9,20.73,20.73,0,0,1,10.8,15.8c.4,2.9.6,5.8.8,8.7.6,10.2-2,20.2-3.1,30.3-.7,7-.5,14.1-.7,21.2-.1,3.7,1.6,6.3,4.7,8.3,5.7,3.8,5.9,10.5,2.3,15.3-3.3,4.3-10.4,4.7-15.2.9-1.3-1-2.3-2.2-3.6-3.2-7.6-5.7-15.5-7.4-24.3-2.6a32.9,32.9,0,0,1-10.3,3.8c-6.8,1-10.3-3.8-7.1-9.9s7.1-12,14.1-14.6a3.81,3.81,0,0,0,2.5-3.2c.5-2.9,1.1-5.7,1.7-8.5a15.12,15.12,0,0,0-1.6-11.2c-1.2-1.9-2.4-3.8-3.7-5.6-5.9-8-12-10-21.5-7.1-3.1.9-6.2,1.8-9.3,2.6-6.8,1.7-12.5-.2-17-5.4a44.21,44.21,0,0,1-5-7.7c-1.7-3.1-2.2-3.4-5.1-1.6a82.51,82.51,0,0,0-8.4,5.7c-15.6,12.4-31.2,25-46.7,37.5-.9.8-1.6,1.9-2.7,3.1,1.4,1.5,2.5,2.8,3.8,4.1a51.34,51.34,0,0,1,11.9,19.1c2.5,6.8,3.1,13.8,3.5,20.9.4,8.6.1,17-2.5,25.4-3.9,12.3-10.7,22.3-21.2,29.7-7.1,5-7.3,5.1-2,12,11.4,15.2,23.1,30.2,34.5,45.5,10.7,14.5,22.5,28.4,28.1,46,2.2,6.9,4.5,13.9,5.5,21,2,13.8,1.2,27.7.2,41.5-.2,2.9-.8,5.8-1.1,8.6-.2,2.1.6,3.4,2.8,3.8a76.74,76.74,0,0,0,8.1,1.5,138.57,138.57,0,0,0,32.8-1.4c12.2-2.1,24.5-4.3,36.6-6.7,15-2.9,29.4-7.3,42.3-15.9a26.14,26.14,0,0,0,8.7-8.8c1.3-2.2,2.3-4.6,3.8-6.7,2.3-3.3,2.5-6.4.2-9.8a25.33,25.33,0,0,1-2.4-5.3,121.31,121.31,0,0,1-8.1-33.2c-1.8-20.6,0-40.5,7.4-59.9,11.9-31.4,19.4-63.8,21.3-97.4.3-6.1.5-12.3,1.2-18.3.9-7.6.3-15.1-.6-22.6-1.1-9.1-2.7-18.2-4.5-27.2-1.6-8.1-3.7-16-5.5-24a8.16,8.16,0,0,0-4.7-5.7A108.8,108.8,0,0,0,613.5,553,19.71,19.71,0,0,0,609.1,553.5ZM312.7,994.8a41.92,41.92,0,0,0,4.3-1.9c13.2-7.4,26.6-14.4,40.8-19.8,5.6-2.1,11.1-4.5,17.2-4.5,2,0,3.8-.2,5.3-1.6,1.8-1.7,3.2-.9,4.2,1.1,4.4,8.4,8.9,16.8,13.1,25.3,3.5,7.1,6.7,14.3,10.1,21.4,1.5,3.2,2.3,3.6,5.7,2.7,1.9-.5,3.7-1,5.6-1.7,21.3-7.4,42.6-15,63.9-22.3,3.8-1.3,5.5-3.9,6.6-7.6,6.1-20.7,12.4-41.4,18.6-62.1q1.5-4.8,3.3-9.6c.7-1.7,1.4-3.6,3.7-3.6,1.7,2.2.9,4.2.4,6.2-4.1,15.6-8.2,31.2-12.5,46.7-3.4,12.2-7.1,24.4-10.6,36.6-3.9,13.8-7.6,27.7-11.4,41.5-3.5,12.7-7.2,25.4-10.7,38.2s-6.7,25.5-9.8,38.4c-1.5,6.2-3.9,12.3-3.5,18.9a4.91,4.91,0,0,1-3,4.9,33.29,33.29,0,0,1-2.8-2.5c-5.5-6.1-9.2-13.2-12.2-20.7-11.5-28.4-22.8-56.8-34.3-85.3-1.2-3-2.7-5.8-3.9-8.7-1.3-3.1-2.2-6.4-3.5-9.5-1.4-3.3-3.1-6.4-4.5-9.6-4.3-10.3-8.4-20.6-12.6-30.9-1.1-2.6-1.8-2.9-4.5-1.8-4.4,1.9-8.9,3.7-13.3,5.8-12.1,5.6-24.4,11-36.3,17.1-10.2,5.2-19.8,11.6-29.9,16.7-11.9,6-24.3,11.2-36.3,16.9-6,2.8-11.7,6.1-17.5,9.2-1,.6-2.3,1.2-1.8,3,1.7-.4,3.3-.7,4.8-1.2,8.5-2.9,17-5.9,25.6-8.8,11.6-3.9,23.3-7.5,35.5-9.5,16-2.5,31.5-1.4,46.4,5.3,14.6,6.6,26.9,16.4,37.5,28.4a307.39,307.39,0,0,1,29.1,39.1c7,11,13.8,22.2,19,34.2,1.9,4.4,3.3,9,5.2,13.5,2.4,5.8,6.6,10.6,8,16.9.4,1.7,2.4,3.1,3.7,4.7,3.7-4.1,4-8.6,5.1-12.9,2.8-11.4,5.8-22.8,8.9-34.1,4.3-16.2,8.8-32.3,13.2-48.5,3.6-13.4,7.2-26.8,11-40.1,2.6-9.3,5.5-18.5,8.2-27.8.7-2.5,1.8-5,1.8-7.5a17.35,17.35,0,0,1,2.2-9.7,21.06,21.06,0,0,0,1.7-5c3.9-13.3,7.8-26.6,11.6-39.9,2.1-7.1,4-14.3,6.1-21.4.5-1.7.5-3.4-1.2-4.3-5.2-2.6-5.2-7.2-5.3-12-.2-10.8-.6-21.6-.7-32.4a90.23,90.23,0,0,0-8.4-36.5c-2.3-5.1-2.9-5.4-8.5-4.6-9.4,1.2-18.9,2.6-28.3,3.8-7.7,1-15.4,1.9-23,3-4.3.6-4.7,1.2-4.1,5.2a56.7,56.7,0,0,1-2.8,28.6c-4.9,13.7-13.3,25-25.8,32.8-10.9,6.9-27.1,7.2-37.7-1.5a36,36,0,0,1-10.8-14.6c-1.2-2.9-3-4.1-6-4.7a92.23,92.23,0,0,1-14.7-4.4c-5.4-2.2-10.4-5.1-15.6-7.7-4-1.9-4.4-1.8-6.7,1.7-7.5,11.8-15,23.7-22.4,35.5-2.7,4.2-5.8,5.3-10.2,2.9a51.11,51.11,0,0,1-4.8-3.3c-1.7-1.2-3.3-2.4-4.8-3.5-3.8,3.4-3.9,3.8-1.2,6.8a69.78,69.78,0,0,1,12.2,20.7c.8,2.1,1.8,4.3,1.9,6.4a15.54,15.54,0,0,0,3.2,8.9c5.4,7.4,10.8,14.8,16.3,22.2,2.1,2.9,4.1,5.9,3.4,9.7-.9,5.1-1.9,10.2-5,14.5A24.54,24.54,0,0,1,312.7,994.8ZM419.6,339.9l-1.2.3a20,20,0,0,1-1,2.1c-2.7,5.6-4.7,11.8-8.2,16.9-13.5,19.5-31.9,32.5-54.4,39.7-3.2,1-6.5,1.9-9.7,2.8a4.47,4.47,0,0,0-3.6,3.9,26.19,26.19,0,0,1-2.9,8.1c-8.3,14.6-16.7,29-25.2,43.5-15.8,26.8-30.8,54-44.7,81.8-20.8,41.7-41.7,83.3-64.4,123.9-2.3,4.1-4.7,8.1-6.8,12.3-6.2,12.7-12.2,25.5-18.3,38.3a18,18,0,0,0-.9,3.3,30,30,0,0,0,4.7-1.1c11.2-4.1,22.2-8.7,33.6-12.1,14.8-4.5,29.8-8.2,44.8-12,7.5-1.9,15.2-3,22.7-4.7,1.6-.3,3.6-1.1,4.4-2.4,6.1-9.1,12.3-18.1,17.8-27.6,11.5-20,21-41,30.6-61.9,7.4-15.9,14.8-31.9,24.7-46.5a70.21,70.21,0,0,1,8.9-10.7,15.84,15.84,0,0,0,4.6-6.6c6.8-18.5,13.5-36.9,20.4-55.3,2.5-6.6,5.1-13.2,8-19.7,1-2.2,2.9-4.9,4.9-5.5,3.3-.9,4.3-2.8,5-5.6.5-2.2,1.3-4.3,1.9-6.5,3.7-12,7.4-24,11.2-36,3.1-9.7,6.2-19.3,9.4-28.9a8.21,8.21,0,0,0-.9-7.3c-2.3-3.9-4.4-7.9-6.6-11.8C425.6,349.7,422.6,344.8,419.6,339.9Zm-47,490.9c2.6-3.7,6.4-6.2,6.6-11.4,1-25.7,5.2-51,8.7-76.4.4-2.6,1.6-5.8.7-7.8s-4.2-3.2-6.5-4.6c-14.4-8.9-22.1-21.7-22.5-38.7,0-1.8,0-3.5-.1-5.3s-1.1-3-3.1-2.8a28.86,28.86,0,0,0-2.9.4c-22.6,3.5-45.3,6.8-67.9,10.4a472.47,472.47,0,0,0-81.9,20.7,400.64,400.64,0,0,0-45.9,19.2c-19.4,9.7-37.1,21.9-54.9,34.2-12.3,8.5-24.9,16.7-37.6,24.6C54.7,799.8,44,806,34.5,814c-2.9,2.4-6.1,4.6-8.3,8.6a16.87,16.87,0,0,0,3.2,0c2.8-.7,5.6-1.6,8.4-2.4,16.3-4.5,32.8-8.4,49.7-9.9a275.79,275.79,0,0,1,56,.9c10.9,1.3,21.7,3.2,32.5,5.1,3.5.6,6.2,0,8.8-2.5,3.6-3.5,7.3-6.8,11.1-10a104.05,104.05,0,0,1,8.6-6.2c1.8-1.3,4-2.2,5.6-3.7,7.9-7.2,17.5-10.4,27.8-10.9a65.9,65.9,0,0,1,26.6,4.1c16.6,6.3,33.4,11.9,50,18.1,18.1,6.7,36.1,13.8,53.1,23.3C369,829.3,370.7,829.9,372.6,830.8Zm657.6,407.1c0-.3-.1-.6-.1-.9-1.2-.4-2.3-1-3.5-1.3-13.8-3-26.8-8.4-39.3-14.7-20.4-10.3-40.7-21-60.7-32-9.6-5.3-18.8-11.4-27.8-17.6-26-17.9-44.3-41.9-55-71.7a291.15,291.15,0,0,1-13.5-52.9c-1.2-7.6-1.5-15.4-2.3-23-.2-1.8-.5-3.5-.7-5.3-.6-5.1-2-10.3-1.5-15.3.8-8.2-1.1-14.6-8.2-19.2-2.3-1.5-4.5-3.2-6.7-4.8-4.3-3.1-8.6-6.2-12.8-9.5-18.2-14.2-36.3-28.5-54.4-42.7-6.5-5.1-12.9-10.2-19.3-15.3-5.5-4.4-11-8.9-16.6-13.2-12-9.3-24-18.5-36-27.8-1.3-1-2.7-2-4.4-3.3-1.8,2.8-3.3,5.1-4.8,7.3-2,3-1.9,3.4,1,5.4a20.68,20.68,0,0,0,2.5,1.5c8.6,5.4,17.5,10.3,25.8,16.2,6.3,4.6,13.6,7.9,18.7,14.3,1.7,2.2,4.5,3.6,6.9,5.3,5,3.5,10.3,6.6,15.1,10.4q19.95,15.3,39.6,31c8.6,6.9,18.2,12.9,25,21.9a13.77,13.77,0,0,0,2.6,2.2c4.4,3.3,8.7,6.6,13.1,9.9,1.7,1.3,3.1,2.7,3.1,5.1.1,6.8.2,13.5.4,20.3.5,13.5.8,27.1,1.8,40.6,1.2,16.2,2.9,32.4,4.7,48.6,1.4,12,3,24,5.1,35.9,2.1,12.4,4.7,24.7,7.3,37a536.94,536.94,0,0,0,15.8,59.8c1,2.9,2.5,4.1,5.5,4.3,10.3.5,20.6,1.7,30.9,1.7q39.9.15,79.8-.5a337.65,337.65,0,0,0,56.7-5.9A36.23,36.23,0,0,0,1030.2,1237.9Zm-295-785.3c.9-1.7,1.7-3,2.5-4.4,8.5-17,16.8-34.1,25.5-50.9,9.1-17.6,18.5-35,28-52.4,8.9-16.4,18.1-32.7,27.3-48.9a26.25,26.25,0,0,1,6.6-8.2c2.7-2.1,3.9-4.6,5-7.4,1.1-3,.4-3.9-2.9-4.5-5.7-1.1-11.4-2.1-17-3.5-3.5-.9-5.7-.1-7.8,2.9-11.1,15.8-22.4,31.5-33.6,47.2-9.9,13.9-19.7,27.9-29.7,41.7-13.2,18.4-26.6,36.8-39.8,55.2-16.1,22.5-32.2,45.1-48.3,67.6-12.4,17.3-24.8,34.5-37.2,51.8-1,1.4-1.8,2.8-3.3,5.1a47.92,47.92,0,0,0,5.5.5c10.7.1,21.3.3,31.5,3.7,2.2.7,3.5-.4,5.1-1.7a89,89,0,0,1,10-7.4,54.91,54.91,0,0,1,20-7c4.5-.7,6.6-3.1,8.4-6.9,5.6-12.3,11.1-24.7,17.4-36.7,5.8-11.1,12.5-21.8,18.9-32.6C729,453,731.2,450.6,735.2,452.6ZM191.7,488.8h-1.3c-.3,1-.7,2.1-1,3.1a499.4,499.4,0,0,1-17.3,51.8c-6.8,17.2-13.6,34.5-20.3,51.7q-15.75,40.8-31.3,81.7c-7.2,18.8-14.1,37.7-21.2,56.6-4.3,11.5-8.7,22.9-13,34.3a27.4,27.4,0,0,0-.8,4.4c3.6-2.2,6.3-3.8,8.9-5.6,11.3-7.7,22.3-15.9,33.9-23.1,10.5-6.6,21.6-12.1,32.5-18.1,2.7-1.5,5.4-2.9,6.9-5.8,2.7-4.9,5.7-9.7,8.2-14.8,4.5-9.2,8.6-18.7,13.2-27.9q10.5-20.7,21.5-41.1a16.14,16.14,0,0,0,1.6-11.2c-3.2-16.8-6.4-33.6-9.5-50.4-4.4-24.1-7.1-48.5-9.7-72.8C192.6,497.3,192.2,493.1,191.7,488.8Zm352.4,47.6c-1.4-3.3-1.2-4.7,1.7-6.2a32.37,32.37,0,0,1,8.1-2.8c2.2-.4,3.5.9,3,3.1a12.58,12.58,0,0,1-2.9,5.3c-4.6,5.4-9.7,10.3-14.1,15.9-5.5,7.1-8.6,15.1-7.2,24.3,1.4,8.9,8.4,14.7,17.2,13.6a49.7,49.7,0,0,0,8.5-1.9c10.8-3.1,19.7-.7,26.5,8.5,5.9,7.8,9,16,4.4,25.6a27,27,0,0,0-2,5.4c-.9,4.6-3.5,7.6-7.7,9.9-2.5,1.4-4.2,4.3-6.1,6.6a2.18,2.18,0,0,0-.1,2.2,2.75,2.75,0,0,0,2.5.8,29,29,0,0,0,5.7-2.5c5.4-3,11-4.5,17.2-3.7a30.35,30.35,0,0,1,17.2,8.1c1.3,1.2,2.9,3.4,4.9,1.5s-.1-3.5-1.3-5a1.38,1.38,0,0,1-.3-.4c-5-6.2-8.2-13.1-7.5-21.3.5-5.8,1.2-11.5,1.9-17.3.7-5.6,1.9-11.2,2.1-16.8a85,85,0,0,0-1-15.9c-.8-5.1-4.1-8.5-8.8-10.7a38.7,38.7,0,0,0-16.4-3.5c-6,0-11.9.4-17.9.4a75.36,75.36,0,0,1-10.6-.6c-3.4-.5-4.8-2.5-4.1-5.9a18,18,0,0,1,2.3-5.8c5.8-9.3,11.7-18.5,17.6-27.7,6.3-9.8,12.7-19.4,18.7-29.3a28.41,28.41,0,0,0,3.4-9.5c.9-5.2-1.5-7.1-6.3-5.3a33,33,0,0,0-8.6,4.3c-4.4,3.4-8.5,7.4-12.6,11.2-5.8,5.3-11.5,10.8-17.4,16-1.5,1.3-3.7,1.9-5.7,2.4-.7.2-2-.7-2.6-1.5-.3-.4.5-1.8,1.1-2.3,1.5-1.2,3.3-2,4.8-3.2,3.3-2.6,3.4-3.9.5-7a127,127,0,0,0-25.9-20.9,35,35,0,0,0-8.8-4c-5.6-1.7-9.6-.2-12.2,5a104.21,104.21,0,0,0-7.1,16.9c-4.4,14.1-5.8,28.7-5.8,43.4,0,18.5-.6,37.1-.8,55.6a15.56,15.56,0,0,0,.7,3c1.2-.7,2-1.1,2.8-1.6,9-6.5,18-13,27.1-19.4a7.51,7.51,0,0,0,3.1-5.2,39.15,39.15,0,0,1,6.9-16.4C535.8,546.9,539.9,541.9,544.1,536.4ZM423.5,730.1c9.4,1.7,18.8-2.3,27.9-6.3,10.9-4.7,17.8-13.9,20.4-25.5,1.8-8,2.6-16.2,3.8-24.3a24.47,24.47,0,0,0-4.6-18.3,43,43,0,0,1-3.5-5.2c-4.5-9.8-13.1-15.1-22.3-18.8-10.1-4.1-21.1-4.4-31.9-2.3-12.9,2.5-23.5,9.4-33.4,17.6a22.59,22.59,0,0,0-5.9,7.5c-6.4,13.9-8.8,28.1-4.3,43.2,3.3,11,10,19,19.7,24.6C399.7,728.4,410.9,730.3,423.5,730.1ZM656.4,550.5c1.6.9,2.6,1.6,3.7,2.2,2.9,1.8,5.8,3.5,8.5,5.5a14,14,0,0,1,5.5,8.8,62.12,62.12,0,0,0,2.9,10.2,58.56,58.56,0,0,1,3.8,15.9,92.31,92.31,0,0,0,2.1,12.8c2,9.4,4.6,18.8,3.4,28.6a33.46,33.46,0,0,0,.2,6.3c.1,2.4,1.5,3.4,3.8,3.3,4-.2,8.1-.2,12.1-.4,12.5-.7,24-4.4,33.8-12.5,2.8-2.4,5.7-4.9,7.7-7.9,4.4-6.8,8.6-13.7,9.2-22.1.6-7.9,1.2-15.7-.9-23.5-2.2-8-6.3-15.1-10.3-22.3a17.27,17.27,0,0,0-3.9-4.2A52.53,52.53,0,0,0,709.5,539a94.6,94.6,0,0,0-41.9,4.9C663.7,545.2,659.5,546.3,656.4,550.5ZM692,909.4c-2.2-1.9-3.5-3.1-4.9-4.2-9.3-7-18.5-14-27.8-20.9-2.6-1.9-3.2-1.8-6.1,1.1a72.47,72.47,0,0,1-33.3,18.8c-11.9,3-23.8,5.7-35.9,8-16.6,3.2-33.4,5.8-50.4,3.7-2.6-.3-3.3,1.1-3.7,3.3-.9,5.1-1.7,10.2-3,15.2-3.5,13.7-7.2,27.4-10.9,41.1-.4,1.5-1.4,3,.4,4.6a11.71,11.71,0,0,0,2.6-.4c5.4-2,10.9-4,16.3-6.2q50-19.65,99.7-39.5c17.5-7,34.8-14.5,52.2-21.8A33.64,33.64,0,0,0,692,909.4ZM261.6,884.2a33.34,33.34,0,0,0-3.6-4c-1.6-1.2-3.7-.4-3.7,1.4,0,3.7-1,7.6,1,11.2a11,11,0,0,1-1.1,13,14,14,0,0,0-2.5,3.5c-3.7,8.8-8,17.3-10.7,26.4-6.1,20.4-8.1,41.4-7.7,62.6a21.88,21.88,0,0,0,.9,5.7,6.32,6.32,0,0,0,4.9,4.9c5.9,1.1,11.7,2.5,17.6,2.7,12.2.3,23.5-3.1,34.2-9.1,8.6-4.8,15.9-10.9,21.4-19.2,2.3-3.5,2.3-4.4-.5-7.6-.6-.7-1.4-1.4-2-2.1-3.5-4-7.4-7.7-10.4-12.1-9.3-13.5-18.4-27.3-27.4-41-1.3-2-2.8-4.2-3.1-6.5-.6-4.1-3-6.2-6.1-8.1-3.6-2.2-4-5.3-1.2-8.4,1-1.1,2.1-2.2,3.2-3.3C258.4,889.3,258.4,889.3,261.6,884.2Zm175.2-59.3c.2-.8.6-1.4.5-2-.8-11.5.4-22.8,1.6-34.2,1.5-14.9,2.5-29.9,3.7-44.8a19.33,19.33,0,0,0,.1-3.4c-.2-2.7-1-3.4-3.7-3.1a20.48,20.48,0,0,0-2.4.5c-12.7,2.8-25.3,2.3-37.9-.4-5.1-1.1-5.2-1.1-5.6,3.9-.8,9.1-1.6,18.3-2.6,27.4-1.6,14.7-3.3,29.5-4.9,44.2-.2,1.8,0,3.7,0,6.1,5.7,0,11,.2,16.2,0,11.1-.4,21.9.2,32.1,5.1A17.65,17.65,0,0,0,436.8,824.9Zm14,295c.4,0,.9-.1,1.3-.1.4-1,1-1.9,1.3-2.9,1.4-5.3,2.7-10.6,4.1-15.9q6.45-24.3,13-48.5c4.2-15.5,8.7-31,13-46.5a45.06,45.06,0,0,0,.7-5.1c-2,.5-3.2.7-4.4,1.1q-31.05,10.65-62.1,21.5c-4.5,1.6-4.9,2.5-3,7.1,6.1,14.9,12.4,29.7,18.4,44.7,5.2,12.9,10,25.8,15,38.7C449,1115.9,450,1117.9,450.8,1119.9ZM374.4,857.6h-.2a84.88,84.88,0,0,0,.1,10.1,44,44,0,0,0,2.1,10.8c6.9,17.8,28.1,24.4,42.5,12.8,14.6-11.6,20.3-27.4,18.2-45.8-.5-4.3-2.4-7.6-6.8-9.1-1.2-.4-2.3-1.2-3.5-1.7-4.9-2-9.7-5-14.8-5.7-7.4-1-15.1-.6-22.6-.1-6.1.4-14.4,9.7-15.1,15.7a6.53,6.53,0,0,0,0,1.4C374.4,849.9,374.4,853.8,374.4,857.6ZM528.1,149.9c-1.2,2.5-1.9,3.9-2.4,5.3-3.7,8.9-7.3,17.9-11,26.9-3.2,7.9-6.5,15.8-9.9,23.6-1.3,3.1-1.3,5.6,1.5,8.2,3.1,3,5.6,6.6,8.4,9.9,1.1,1.3,2.3,2.4,4.3,4.5,1-1.5,1.4-2.7,2.2-3.5,3.8-4,8.3-4.9,13.2-2.6a38.64,38.64,0,0,1,7.5,5.2c3.3,2.8,6.2,6.1,9.6,8.8,3.6,2.9,7.6,5.1,12.5,4.1a13.44,13.44,0,0,1,12.2,3.1c5.8,4.9,11.3,10.1,16.9,15.1.9.8,1.8,1.5,3.1,2.5a7.67,7.67,0,0,0-.6-7.8c-1.6-2.4-3.1-4.9-4.7-7.3q-29.7-45.9-59.5-91.6A48.62,48.62,0,0,0,528.1,149.9ZM273.6,881.8c.4.7.5,1.2.9,1.4,6.9,5.2,13.9,10.4,20.8,15.6,3.2,2.4,4.5,2,6.7-1.8,6-10.3,12.2-20.5,18-30.8,4.2-7.6,8.1-15.3,11.9-23.1,1.7-3.6.7-5.3-2.9-6.7a55.79,55.79,0,0,1-6.7-2.8c-4.9-2.7-9.7-5.6-14.6-8.3-8.2-4.5-16.5-8.8-24.7-13.2-1.2-.6-2.5-1.1-4-1.7-.3,1-.8,1.6-.7,2.1a28.44,28.44,0,0,1-7.4,23.1c-2,2.3-1.5,4.4,1,6.1a21.16,21.16,0,0,0,2.1,1.1c4.7,2.1,9.4,4.3,14,6.4a12.64,12.64,0,0,1,2.6,1.3c2.6,1.7,2.9,3.6,1.1,6.1-1,1.4-2.1,2.8-3.2,4.2-4.5,6.1-8.9,12.2-13.4,18.3A18.21,18.21,0,0,1,273.6,881.8Zm-70-56.4c-.1,6.8,3.5,12,7.3,16.7,6.3,7.8,14.4,11.8,24.8,8.8,3.7-1.1,7.5-1.9,11-3.5a38.07,38.07,0,0,0,8.1-5.1c3.4-2.7,6.3-5.9,9.6-8.8,7.2-6.5,7.5-17.7.2-23.9-10.2-8.6-21.8-14.3-35.1-16a16,16,0,0,0-9.4,1.2c-5.9,2.9-10.6,6.9-12.5,13.3C205.8,813.7,204.9,819.6,203.6,825.4Zm568.1,49.7c-1.8-1.3-2.4-2.1-3.2-2.4-11-4.7-21.7-10.2-33-13.8-23.5-7.5-47.2-14-70.9-20.9a20.92,20.92,0,0,0-3.4-.4c-.4.7-.7,1-.6,1.3,1.2,7.3,3.7,13.9,9.9,18.6,15.8,11.7,31.6,23.4,47.1,35.4,3.9,3,7.2,3.2,11.5,1.2,10-4.5,20.1-8.7,30.1-13.1C763.1,879.4,766.9,877.4,771.7,875.1ZM874.9,563.6c.7-5-1.7-9.1-5.7-12.6-9.8-8.7-21.5-13.3-34-16.3-3-.7-4.9.7-6.5,2.9-6.2,8.1-9.7,17.4-11.7,27.2a37.16,37.16,0,0,0-.9,12.4c1.5,12.1,17.2,22,30.2,19.5,9.5-1.8,15.9-8.6,22.9-14.5a4.57,4.57,0,0,0,1.1-1.6C872.8,575.4,875,570.1,874.9,563.6ZM816.2,544a4.67,4.67,0,0,1-.5-1c-9.2,3.9-18.3,8.3-27.8,11.6s-19.4,5.5-29,8.1c1.2,7.8,2.7,15.5,3.6,23.3.9,8-1.1,15.9-3.5,24.2a24.85,24.85,0,0,0,4.5-.3c15.7-3.6,31.4-7.2,47.1-10.9,1.3-.3,2.3-1.3,3.7-2a40.38,40.38,0,0,1-2.7-4.2c-1.3-2.9-3.2-5.8-3.6-8.9-.9-7.4-.8-14.8,1.7-22C811.7,556,814,550,816.2,544ZM501.6,818.8a18.62,18.62,0,0,0-.8-2.3c-16.1-21.5-32.2-43.1-48.3-64.6a8.78,8.78,0,0,0-1.5-1.2c-.1-.1-.3,0-.5,0s-.3.1-.9.3c-.2,1.5-.4,3.2-.6,4.9-1.4,16-2.7,32.1-4,48.1-.5,6.1-1,12.2-1.3,18.3-.2,3.9.4,4.4,4.4,4.1h.5l48.4-6.3A32.49,32.49,0,0,0,501.6,818.8Zm382.7-265c-.2,17.3-5.7,32-19.6,43.3,2,.8,3.2,1.4,4.6,1.8l19.5,5.4c2.6.7,5.2,1.6,7.9,2.2s3.5,0,3.9-2.7a12.1,12.1,0,0,0,.1-1.9c.6-7.1,2.8-13.6,7.8-18.8s8.9-11.8,15.7-15.4c.5-.2.7-.9,1.2-1.5C911.8,562,898.5,558,884.3,553.8ZM1018,587.5c-1.8-5.6-3.5-11.3-5.5-16.9-1.5-4-2.1-3.9-6.2-2.6a156.91,156.91,0,0,1-15.3,4.2c-8.6,2-17.3,3.6-25.9,5.6-3.6.8-4.3,2.1-3.1,5.1,2.6,6.9,5.2,13.9,8,20.7,1.4,3.4,2.4,3.9,6,3.2,13.3-2.6,26.2-6.7,38.1-13.3C1016.5,592.2,1017.4,590.3,1018,587.5ZM512.5,461.8c3.4.5,6.7.5,9.6,1.7a126.53,126.53,0,0,1,13.3,6.6c4,2.1,4.1,2.2,6.4-1.5a146.66,146.66,0,0,0,16.3-36.9,39.64,39.64,0,0,0,1.3-13.3c-.1-3.7-1.9-4.7-5.5-4.2a11.68,11.68,0,0,0-4.6,1.3,80.87,80.87,0,0,0-10.4,6.8c-12.2,9.9-19.4,23.4-26.2,37.1A8.6,8.6,0,0,0,512.5,461.8Zm-213.7,348c-.3.4-.5.9-.8,1.3,7.4,4.1,14.7,8.5,22.3,12.4,6,3.1,12.3,5.6,18.4,8.6,3.7,1.8,3.9,2.7,2.4,6.5-2.5,6.1-5.2,12.1-7.7,18.2a20,20,0,0,0-.9,3.7c2.1.8,3.7,1.4,5.4,2,7.7,3,15.3,6.1,23,8.8,4.5,1.6,5.2.9,5.7-3.9.6-6.4,1.1-12.8,2.1-19.2,1.2-7.4-2.1-13.4-9.1-16-12.4-4.6-24.7-9.4-37.1-14C314.5,815.3,306.6,812.6,298.8,809.8ZM233.6,860a10.81,10.81,0,0,0-2.1-1.1q-7.8-1.5-15.6-2.7a4.66,4.66,0,0,0-3.5.9,58.77,58.77,0,0,0-8.5,11.6c1.5,1.2,2.6,2.1,3.7,3.1,3.3,2.8,6.6,5.6,10,8.4,2.1,1.7,2.6,3.6,1.9,6.4-1.1,4.2-2,8.3-4.6,12-1.8,2.6-1.3,3.8,1.5,5.4,4.8,2.7,9.6,5.2,14.4,7.8a20.36,20.36,0,0,0,2.2.9c2.1.9,3.7.3,4.9-1.7,2.1-3.8,4.5-7.5,6.3-11.4,2.6-5.3,1.9-7.6-2.2-12-3.5-3.7-6.7-7.8-10.3-11.5-3.2-3.3-3.1-6.8-1-10.5C231.7,863.8,232.6,862,233.6,860ZM485.2,506.8c.5,0,1,.1,1.5.1.4-1.6.8-3.3,1.1-4.9a87,87,0,0,1,8.7-25.9c4.3-7.9,8.5-15.9,13-23.7,1.5-2.7,1.4-4.8-.1-7.6-2.6-4.9-7.3-7.2-11.3-10.2a21.74,21.74,0,0,0-6.9-3.2c-3.3-1-5.7.3-6.8,3.6a35,35,0,0,0-1.8,8.4c-1.5,15.8-.5,31.5.5,47.3C483.3,496.1,484.4,501.5,485.2,506.8Zm533.3,92.9c-1.8.9-3.7,1.7-5.5,2.6-4.9,2.3-9.7,5.2-14.9,6.9-7.8,2.6-13.9,8.1-21.2,11.5a2.86,2.86,0,0,0-1.5,4.1c1.8,4,3.5,8,5.5,11.8,1.6,2.9,3.2,3.1,6.5,1.7,3.5-1.5,7.1-3.1,10.6-4.7,8.4-3.7,16.8-7.4,25.2-11.2,3.5-1.6,3.8-2.5,2.6-5.5C1023.5,611.4,1021.1,606,1018.5,599.7ZM268.8,874.9c.8-.4,1.2-.4,1.4-.6,3.9-5.1,7.8-10.1,11.6-15.3,1.4-1.9.2-3.3-1.7-4.1-5.5-2.2-11-4.6-16.6-6.5-1.4-.5-3.5,0-4.9.6-5.3,2.6-10.5,5.4-15.8,8.1a5.43,5.43,0,0,0-2.2,1.7c-1.6,3.3-3,6.7-4.6,10.3,3.4,2.9,6.6,5.7,10.1,8.7,3.2-3.9,5.8-7.9,10.8-8.3C261.7,869.1,265.3,871.7,268.8,874.9ZM926.9,601c7,7.3,11.3,15.1,14.9,23.3,1.1,2.5,2,2.7,4.5,1.2,3.9-2.2,7.7-4.6,11.6-6.8,4.8-2.8,5.3-4,3.8-9.4-1.6-5.9-3.2-11.8-4.7-17.7-.9-3.4-1.7-3.9-5.1-2.4-3.8,1.7-7.6,3.5-11.4,5.3C936.3,596.7,932,598.7,926.9,601Zm-5.7-.4a10.54,10.54,0,0,1-1.1-.7c1.4-1.7,2.6-3.7,4.3-4.9a90.94,90.94,0,0,1,9.5-5.6c6.1-3.2,6.2-3.1,4.4-10-.2-.6-.3-1.2-.5-1.9-.5-2-1.8-2.8-3.9-2.9a17.18,17.18,0,0,0-13.2,4.7c-5.3,4.9-10,10.1-11,17.6-1.5,11.4,6.3,19.1,17.4,23.6.2.1.6-.2,1.5-.6-.5-1.3-1-2.7-1.5-4.1-1.4-3.2-2.8-6.5-4.1-9.7C922.4,604.3,921.8,602.5,921.2,600.6ZM990,538.2a9.05,9.05,0,0,0-2.6.6c-7.1,3.9-14.9,5.9-22.8,7.4-5.2,1-10.4,2.2-15.6,3-2.9.4-4.2,2-4.6,4.6a28.5,28.5,0,0,0-.3,2.9c0,3.5,1,4.4,4.3,4a35.5,35.5,0,0,0,4.7-.9c11.6-3,23.3-6,34.9-9.2,5.3-1.5,6.2-3.7,3.9-8.5C991.3,540.9,990.7,539.6,990,538.2ZM926.1,16c-2,10.8-3.9,21.1-5.9,32.4a202.2,202.2,0,0,0,21-14.1C936,28.1,931.3,22.3,926.1,16Zm-348,514a143.54,143.54,0,0,0-13,20.9c4,.9,7-.5,10-1.2a74.66,74.66,0,0,0,9.3-2.4c2.8-1,6.5.3,8-1.8C587.6,540.3,583.1,535.4,578.1,530Zm370,51.8c3.5-.3,6.8-.8,8.2-4.2s4-5.2,7-6.9c7.4-3.9,15.5-5.2,23.6-6.7,1.7-.3,5.3.6,4.5-2.6-.5-2.3-3.3-.7-5.1-.3-10.8,2.8-21.5,5.6-32.2,8.4-7.1,1.8-7.2,1.7-6.4,8.8C947.8,579.4,948,580.5,948.1,581.8Zm-165,33.1c-1.1-.6-1.4-.9-1.6-.8-8.5,1.8-16.9,3.6-25.4,5.5-1.6.4-2.9,1.3-2.7,4C763.3,621,772.8,618,783.1,614.9Zm177.5,24.5a51.88,51.88,0,0,0,6.9-.1,3.19,3.19,0,0,0,2.3-1.9,4.34,4.34,0,0,0-5.2-5.3c-1.1.2-2.2.4-3.3.7a2.24,2.24,0,0,0-1.8,2.8C959.8,636.8,960.2,637.8,960.6,639.4ZM277.9,908.6c-1.8-.4-2.8.3-2.9,1.8-.1,1.7,2.2,3.8,5.2,4.8C279.4,912.9,278.6,910.7,277.9,908.6Zm-9.8-7.3c2.8,1.3,4.9,1.3,6.4-.3,1.1-1.2.7-2.6-1.3-3.6C271.8,898.4,270.3,899.6,268.1,901.3ZM548,470.7c-2.5.6-3.8,1.7-4,3.5-.1.8.9,1.7,1.5,2.6.7-.5,1.7-.9,2-1.6A30,30,0,0,0,548,470.7Zm-15.2-61.4c-1.7-1.1-3.3-1.7-4.5.4-.3.5.4,2,1,2.2C531.5,412.7,532.5,411.5,532.8,409.3Zm-58.6-22.5c.7-1.2,1.5-2,1.4-2.6s-1.1-1.2-1.8-1.8c-.5.6-1.4,1.3-1.4,1.9S473.3,385.6,474.2,386.8ZM965.6,622.2c-2.3.7-3.8,1.1-4.4,3.3C963.8,626.2,965.4,625.8,965.6,622.2Z"/><path class="cls-1" d="M1200.6,519.7a516.8,516.8,0,0,0-64.6,4.5q-33,4.35-65.9,10.5c-22,4.2-43.8,9.4-65.7,14.1-1.7.4-3.4.5-5.7.8a27.72,27.72,0,0,1,0-4.1c.4-1.8.8-3.4-.4-5.1-2-3.1-3.7-6.4-6.1-9.2-.7-.8-3.3-.2-4.9.2-3.7,1.1-7.2,2.8-10.9,3.8-7.8,2.1-15.7,3.8-23.5,5.8a70.25,70.25,0,0,0-7.7,2.7,10.75,10.75,0,0,0-7.1,8.4c-.9,4.3-1.6,4.6-6.1,3.9a169,169,0,0,1-34.9-9.7c-6.1-2.4-12.3-4.7-19.1-4.7-1.6,0-3.3-1-4.9-1.7-5.7-2.7-11.3-5.4-16.9-8.2a21.53,21.53,0,0,1-4.8-3c-5.9-5.3-13.7-6.8-19.9-2-7.1,5.5-15.3,8-23.2,11.4-10.9,4.5-21.6,9.4-33.1,12-5.7,1.2-11.4,2.1-17.1,3.5-3.7.9-5.9-.5-8.3-3.2-7.9-9.2-17.1-16.8-29.2-19.5-6.5-1.4-13.4-1.2-20.2-1.8l-3.2-.3c.9-7.8,23.3-54.1,30.8-63.4a30.47,30.47,0,0,1-1.2,4.4c-6,12.7-12.1,25.3-18,38-1.5,3.2-2.8,6.5-4,9.8a3.61,3.61,0,0,0,.4,3.1c1-1.5,2.2-2.9,3.1-4.5,10.6-19.4,21.4-38.6,31.7-58.2,10.9-20.7,21.2-41.6,32-62.3,9.7-18.6,19.8-36.9,29.7-55.4,3.1-5.8,6.2-11.7,9.3-17.5a33,33,0,0,1,2.6-3.9c.3.1.6.3.9.4-.8,2.3-1.4,4.7-2.3,7-6.9,17.4-13.8,34.7-20.6,52.1-1.5,3.7-2.7,7.6-4,11.4a19.68,19.68,0,0,0-.5,4c3.5-.7,4.4-3.2,5.4-5.1a226.46,226.46,0,0,0,10.2-20.3c11-26.7,21.6-53.4,32.4-80.2,1.1-2.8,2.3-5.7,3.4-8.5a3.78,3.78,0,0,1,3.7-2.6c7.9-.4,15.7-.8,24-1.2.4,5.4,4.6,8.2,8.3,11.5,7.9,7.1,16.1,13.9,25.2,19.5,16.2,9.8,33.9,13,52.5,10.7,10.6-1.3,20.5-5.4,30.2-10,18.9-9.1,36.1-20.6,50.1-36.4,6.9-7.8,12.5-16.4,14.6-26.9.9-4.2,1.6-4.5,6-4,22,2.1,43.5.1,63.9-9.2,1.9-.9,3.8-1.8,5.6-2.8,4.8-2.4,5.5-2.2,9.3,1.5l57.9,57c3.6,3.5,7.3,6.8,10.9,10.2Q1200.55,408.45,1200.6,519.7Z"/><path class="cls-1" d="M1200.6,770.3c-23.1-2.5-46.3-2.6-69.6-2.7-24.4-.1-48.7,1.2-72.8,5.1-15.6,2.5-31,6-46.4,9.6-23.1,5.4-45.6,12.9-67.8,21q-23.55,8.7-46.8,18.5c-23.2,9.7-46.2,19.7-69.3,29.6-13.2,5.6-26.4,11.2-39.5,16.9a10.82,10.82,0,0,1-9.3,0c-7.6-3.6-15.2-7.1-22.7-10.7-14.3-6.9-29.5-11.4-44.6-15.8-16.1-4.7-32.3-9.2-48.4-13.8-5.7-1.6-6.4-2.5-7-8.3-2.2-21.5,0-42.4,8.1-62.6,8.6-21.3,14.1-43.5,17.6-66.2,1.7-11.3,2.6-22.7,3.8-34.1.4-4.3.7-4.8,4.9-4.5,14.9,1.2,28.8-2.1,42-8.8,2.8-1.4,5-4,7.5-5.8a23.75,23.75,0,0,1,5.6-3.5c10.3-3.2,20.9-5.7,31.1-9.1,12.8-4.3,25.4-9.3,38.1-14,4.1-1.5,8-3.4,12.2-4.7a32,32,0,0,1,8.1-1.4c6.2,0,12.2-.4,18-2.7a7.12,7.12,0,0,1,6.5.3c9.5,5,19.7,8,29.9,11,2.3.7,4.6,1.3,7,1.9a29.83,29.83,0,0,1,13.3,7.4c3.5,3.2,8,5.4,12.2,7.6a11.66,11.66,0,0,0,6.1,1.1c3-.3,5.4-.3,7.7,2.3,1.7,1.9,4.6.9,6.9.1,2.5-.9,5-2,8-3.3.6,2.4,1.1,4.4,1.6,6.3.6,2.2,1.3,4.4,3.8,5.1.2,0,.4.1.4.2,3.6,4.9,8.9,4.2,14,4.2a6.45,6.45,0,0,1,2.4,0c7.4,2.8,14-.5,20.4-3.1,10.6-4.3,21-9,31.5-13.6,2.2-1,4.3-2.1,6.4-3.3,4.7-2.8,6.1-6.2,4.2-11.3a77.14,77.14,0,0,0-4.2-8.7c-1.1-2.1-2.5-4.1-3.8-6.2a14.58,14.58,0,0,1-2.1-8.2c.3-11.4-2.3-22.1-10-31a5.55,5.55,0,0,0-3.6-1.7,38.5,38.5,0,0,0-6.7.9,12.76,12.76,0,0,1-3.3.6c-.8,0-1.5-.8-2.2-1.3.5-.8.8-1.8,1.5-2.2a19.56,19.56,0,0,1,4.1-1.3c9.7-2.3,19.5-4.5,29.2-6.7,29.1-6.6,58.5-11.9,88-15.9,21.6-2.9,43.2-5.2,65-5.6,4.2-.1,8.4-.4,12.5-.6C1200.6,608.4,1200.6,689.4,1200.6,770.3ZM774.6,843a6.07,6.07,0,0,0,1-.7c-.7-1.3-1.5-2.7-2.2-4-.4.2-.7.4-1.1.6C773.1,840.3,773.9,841.7,774.6,843Zm336.3-187.5c-.5-.1-1-.3-1.5-.4-.2,1.1-.4,2.1-.6,3.2l1.2.3C1110.3,657.5,1110.6,656.5,1110.9,655.5ZM768.3,844.3a5.9,5.9,0,0,1,.8-.4,3.88,3.88,0,0,0-.6-1.1c-.1-.1-.6.3-1,.4A5.94,5.94,0,0,1,768.3,844.3Z"/><path class="cls-1" d="M.6,840c7.3-2.4,14.7-4.8,22-7.2,33.7-11.1,68.2-16.9,103.8-13.4,13,1.3,25.9,3.3,38.8,5.1,2,.3,4,.9,6.9,1.5-1.3,2-2.1,3.5-3.1,4.8-4.9,6.4-10,12.6-14.7,19.1a47.61,47.61,0,0,0-4.8,8.9c-.5,1-.4,2.4-.6,3.9,3.4-.2,4.4-2.7,5.9-4.4,7.6-9,15-18.1,22.5-27.1,1.7-2.1,3.9-3.8,5.8-5.8,3.9-3.9,7.7-7.8,11.6-11.6a41.2,41.2,0,0,1,4.3-3.1c0,1.7.1,2.5,0,3.3-.3,1.7-.7,3.5-1.1,5.2-2.5,10.9.9,20.4,7.2,29.1,3.1,4.3,3.1,4.1.1,8.7-2.3,3.5-4.4,7.1-6.7,10.6-1.6,2.5-.9,4.8.8,6.7,3.4,3.9,7,7.5,10.6,11.2,1,1,2,2,3.4,3.2-3.9,5.8-7.6,11.5-11.5,16.9-1.7,2.3-2.8,2.4-5.2.2-6.3-5.8-12.5-11.6-18.4-17.8-7.3-7.6-14.5-15.1-23.2-21.1a37.28,37.28,0,0,0-4-2c-1.6,2.7-.5,4.3.7,5.8,2.5,3.2,4.9,6.4,7.6,9.4,9.1,10,18.3,20,27.5,29.9a22.46,22.46,0,0,0,4.1,3.4c3.5,2.4,9.4,3.5,13.7-.9,1.6-1.6,3.2-3.1,5.2-4.9,1.5,1.1,2.9,2.1,4.3,3,3.8,2.6,7.6,5.3,11.6,7.8,3.6,2.3,7.5,3.7,12.7,2a21.61,21.61,0,0,1-.8,4.5c-8.4,19.1-10.6,39.4-11.7,59.9-.3,5.3-.2,10.6-.2,16a31.68,31.68,0,0,0,.5,5.3c1.2,7.2,4.8,10.3,12.2,10.5,7.2.3,14.5.7,21.7,1.1,1.4.1,2.8.5,4.5.8-.8,2.4-2.8,2.6-4.2,3.3-8.8,4.1-17.3,8.7-24.9,14.8-2.5,2-5.1,4-7.5,6.1a9,9,0,0,0-3.2,7.8,30.19,30.19,0,0,0,4.7-.9c14.6-4.6,29.2-9.2,43.8-13.7,11.1-3.4,22.2-6.8,33.7-8.5,13.7-1.9,27-.7,39.9,4.5,1.8.7,4.2,1,5,4.2-2.3.8-4.4,1.7-6.7,2.4-12.6,4.1-25.3,7.8-37.7,12.4-21.8,8-43.5,16.1-64.9,25-39.4,16.5-77.8,35.2-115.4,55.4-19.7,10.6-39.3,21.5-58.6,32.8-16.7,9.7-32.3,21.2-47.8,32.8-5.3,3.9-10.7,7.8-16,11.6-1.2.8-2.5,1.4-3.8,2.1Q.4,1025.35.6,840ZM104.8,992.8c-.4-5.1-1.9-6.5-6.5-6.8C100.4,988.1,102.4,990.1,104.8,992.8Zm2.7-3.8c.5-.1,1-.1,1.4-.2,0-2.1.6-4.4-2.5-5.9C106.7,984.9,107.1,987,107.5,989Z"/><path d="M1200.6,1411.9c-31.3-3.3-62.5-6.7-93.8-9.8-36.3-3.6-72.6-5.9-109-7.7-53.2-2.7-106.4-1.9-159.6-1.7-47.1.2-94.1,2.3-141.1,5.1-40.2,2.4-80.4,5.5-120.5,10.1-35.2,4.1-70.5,8-105.6,12.8-37.1,5.1-74,10.9-111,16.6-37.6,5.8-74.9,13.6-111.8,22.7a862,862,0,0,0-87.4,26.5c-25.6,9.3-50.6,20-75.2,31.8-27.1,13-54,26.7-81,40.1a31.74,31.74,0,0,1-4,1.4v-7.7c5.8-2.8,11.6-5.4,17.4-8.3,19-9.5,37.9-19.4,57.1-28.4q31.5-14.85,63.6-28.2c15.6-6.4,31.7-11.8,47.7-17.3,22.3-7.6,44.9-13.9,67.8-19.4,19.8-4.7,39.6-9.3,59.5-13,32-5.9,64.1-11.3,96.3-16.4,25-4,50.1-7.5,75.2-10.7,36.1-4.6,72.3-9.1,108.5-13,40.7-4.4,81.6-7.3,122.5-9.6,71.8-4.1,143.8-4.7,215.7-4.4q70.65.3,141.1,6.2,42.15,3.6,84.3,7.5c14.4,1.4,28.8,3.3,43.2,4.9C1200.6,1405.5,1200.6,1408.7,1200.6,1411.9Z"/><path class="cls-1" d="M.6,784.8A14,14,0,0,0,3.7,782q13.8-19.5,27.6-39.1c.7-1,1.5-1.9,2.3-2.9a5.94,5.94,0,0,1,.8.4c-1,2.1-2,4.2-3,6.2-6,12-12.1,23.9-17.9,35.9-2.3,4.8-3.9,9.9-5.8,14.8a3.48,3.48,0,0,0,.6,3.1c1-1.3,2.1-2.6,3-4,5.8-10.2,11.5-20.5,17.4-30.7,12.1-20.9,24.4-41.7,36.5-62.6,17.9-30.6,36.2-60.9,53.4-91.9,12.6-22.8,23.6-46.5,35.3-69.9.8-1.5,1.7-3,2.9-5.2.9,2.2,1.5,3.6,2.2,5,.5,1,.6,2.5,1.4,3,3.8,2.5,2.2,5.3,1,8.4-16.2,41.7-32.6,83.4-48.5,125.3q-11.4,29.85-21,60.2c-3.3,10.3-7.4,20.2-11.6,30.2a7.54,7.54,0,0,0-.6,1.3c-1.2,7.2-5.9,11.1-12,14.5-8.6,4.8-16.8,10.2-25,15.6-9.4,6.1-17.3,14-24.4,22.6C13.6,827.9,7.4,829.7.7,831,.6,815.8.6,800.3.6,784.8Z"/><path class="cls-1" d="M.6,654.2a14.86,14.86,0,0,0,2-3.1q9.6-27.6,19-55.2c.7-2,1.4-3.9,2.1-5.9.1-.2.5-.4,1.1-.7.6.5,1.6.9,1.9,1.6,7.4,15.8,19.3,28.4,30.2,41.7,7.7,9.3,14.9,19,22.4,28.4,1.5,1.8,1.1,3.4,0,5.3C74,675,68.9,683.7,63.7,692.4c-2.3,3.9-4.5,7.8-7,11.6-1,1.5-2.5,3.2-4.1,3.7a15.56,15.56,0,0,0-7.6,5.7c-6.2,8.4-12.3,16.9-18.3,25.4-7.7,10.9-15.1,22-22.8,33C3,773,1.7,774,.6,775.2Z"/><path d="M145.4,1347.2c-.9-.1-1.5-.5-2-.3-4.3,1.5-6-1.5-8.1-4.3-4.6-6-11-9.2-18.2-11.1-1.5-.4-3-.7-4.4-1.1.2-2.5,1.5-2.4,2.8-2.2,7.2,1,13.4,4.3,18.9,8.9,2,1.7,3.8,3.6,6,5.2-.7-6.2-6.3-10.7-6.2-17.9,1.2.8,1.9,1,2.1,1.5l9,18.6A7.71,7.71,0,0,1,145.4,1347.2Z"/><path d="M1043.9,1129.2c-5.6-3-2.4-8.8-5.7-12.2-3.3,3.8-.3,8.6-2.3,12.5-.6-.3-1.3-.5-1.3-.8a29,29,0,0,1,.5-15.2c1.2-3.8,3.4-6.2,8-5.9C1041.5,1114.5,1041.8,1121.4,1043.9,1129.2Z"/><path d="M1112.5,1324.5c-1,1.1-2,2.3-3.1,3.3-5.5,5-10.6,10.3-14.2,16.8-2,3.6-3.6,7.4-5.5,11.4-2-1.8-1.4-3.9-.5-5.7,1.9-3.9,3.7-7.9,6.2-11.3a172.79,172.79,0,0,1,12.2-13.5,16,16,0,0,1,3.8-2.3A12.67,12.67,0,0,0,1112.5,1324.5Z"/><path d="M467.8,1363.6c.6,1.2,1.2,2.5,1.7,3.7,1,2.5,1.8,5.2,2.8,7.7,1.9,4.5,1.9,4.7-3.6,5.6a20.47,20.47,0,0,0-9-9.4c-1.2-.7-2.1-2.1-3.6-3.7,4.8-.9,6.5,4.1,10.5,3V1364A5.64,5.64,0,0,1,467.8,1363.6Z"/><path d="M1057.6,1336.4c6.9,7.7,14.2,15,18.5,24.7.6,1.4.4,3.2.5,4.8-.3.1-.6.2-1,.3-.4-.4-1.1-.7-1.2-1.1-2.2-7.3-6.9-13-11.8-18.5-1.8-2-3.7-4.1-5.3-6.2a11.32,11.32,0,0,1-1.3-3.2A8,8,0,0,0,1057.6,1336.4Z"/><path d="M1082.1,1361.3c-4.7-5.8-9-26.9-6.8-33.7,2.1.5,1.8,2.3,2,3.7,1.1,6.5,2.1,13,3.3,19.4a49.13,49.13,0,0,0,1.7,5C1082.8,1357.6,1083.6,1359.5,1082.1,1361.3Z"/><path d="M1071.1,985c-4.2-8.3-7.3-16.9-10.5-25.5l.9-.6c.7.4,1.8.7,2.1,1.3C1066.7,968.3,1071.2,976,1071.1,985Z"/><path d="M1050.8,1123c-2.3-10.6.9-20,6.4-28.8.3,0,.7.1,1,.1-.2,1.1,0,2.4-.5,3.3a39,39,0,0,0-5.5,22.6,25.12,25.12,0,0,1-.4,2.7A3.08,3.08,0,0,1,1050.8,1123Z"/><path d="M1080.1,957.1c.3,1.3.8,2,.6,2.5-2.4,7-1.9,14.4-2.4,22.6C1074.7,975.8,1075.7,963.2,1080.1,957.1Z"/><path d="M984.9,878.2c-2.9-6-5.4-11.2-7.9-16.4l.9-.6c3.6,3.1,5.6,7.3,7.6,11.4A5,5,0,0,1,984.9,878.2Z"/><path d="M481.8,1361.5c-1.6,5.7-3,11-4.6,16.6C474.5,1373.1,476.4,1366.2,481.8,1361.5Z"/><path d="M1058.1,970c3.5,3.9,4.4,8.8,6.4,14.5-1.8-.8-3.2-1-3.4-1.6C1059.6,978.8,1057.6,974.8,1058.1,970Z"/><path d="M149.4,1342.8c-3.3-7.1-1.8-14.3,4-20.2-1.4,3.9-2.9,6.9-3.6,10C149.3,1335.5,149.5,1338.7,149.4,1342.8Z"/><path d="M647.9,1107.4c1.5,3.1,1.4,6.1.1,10.2A12.47,12.47,0,0,1,647.9,1107.4Z"/><path d="M635.1,1110.5a14.6,14.6,0,0,1,3.9,9.9c-.5.1-1.1.3-1.6.4-.8-3.5-1.5-7-2.3-10.4Z"/><path d="M990.2,871.5v-7.8c2.4,2.9.9,5.5,1.4,7.8A3.3,3.3,0,0,0,990.2,871.5Z"/><path d="M999.8,868.2c-.3-2.5,0-4.8,3.8-6.7-1.1,3-1.8,5.1-2.5,7.1A9.29,9.29,0,0,1,999.8,868.2Z"/><path d="M635.1,1110.4a28.49,28.49,0,0,1-1.2-3.1c-.1-.2.2-.5.8-1.7.2,2.2.3,3.6.4,4.8Z"/><path d="M309.1,81.6a37,37,0,0,1,14.9,3c2.2.9,3.7.5,4.6-1.8,7.8-19,29.3-20.6,43-11.3a47.31,47.31,0,0,1,4.3,3.1c2.1,1.8,2.3,4.1.8,6.5-1.7,2.7-3.9,3.6-6.5,2.4a22,22,0,0,1-3.2-2.1c-5.8-4.1-12.1-6.6-19.4-5.8-6.9.8-10.4,3.9-11.6,10.8-.3,1.7-.5,3.5-.9,5.2-1,4-6.8,7.1-10.4,5a70,70,0,0,0-8.9-3.8c-4.1-1.7-8.5-1.7-12.9-1.3a8.85,8.85,0,0,0-8.1,6c-1.5,4.2-2.6,8.6-3.8,12.9-.5,1.7-.6,3.5-1.1,5.2s-1.7,3.2-3.5,2.5A4.43,4.43,0,0,1,284,115a44.71,44.71,0,0,1,.4-11,29.84,29.84,0,0,1,7-14.1C296.4,84.1,302.5,81.3,309.1,81.6Z"/><path d="M139.4,94.6c4.3.3,7.9.3,11.4.9,3.9.6,5.4,2.6,4.6,5.3-.9,3.2-4.9,6.1-7.7,5.1-9.1-3.1-18.1-2-27,.3-5.6,1.5-8.6,5.5-8.7,11.4a52.15,52.15,0,0,0,1,9.6c1.3,6.3-1.8,10.7-8.3,11.2-3.2.2-6.4.2-9.6.5-5.8.6-9.9,3.4-12,9-1.6,4.2-3.6,8.3-5.5,12.4-.9,1.8-1.8,4.4-4.5,3.4s-1.7-3.6-1-5.5c1.8-5,3.3-10.1,5.6-14.9A23.62,23.62,0,0,1,96,129.8c1-.1,1.9-.3,2.9-.4,3.9-.7,4.3-.9,4-5.1-1.1-13.9,9.1-25.5,23.3-28.2C130.8,95.2,135.5,95,139.4,94.6Z"/><path d="M61.1,336c-2.1.1-4.3.1-6.6.4-5.2.6-8.6,3.5-9.9,8.5-.5,2-.7,4.1-1.2,6.2a13.07,13.07,0,0,1-1.2,4.1,4.24,4.24,0,0,1-3.1,1.7,3.26,3.26,0,0,1-2.3-2,12.57,12.57,0,0,1-.8-4.7c0-10.2,8.8-20.9,18.9-22.8a3.08,3.08,0,0,1,1-.1c5.3-.8,6.6-.6,6.9-7.4a17.59,17.59,0,0,1,11.4-16.1c6.9-2.8,13.5-1.8,19.5,3.1,1.9,1.5,2.6,3.1,2,5.4a5.83,5.83,0,0,1-5,4.6c-1.1.2-2.6-.9-3.7-1.7a14.4,14.4,0,0,0-8.8-3.4c-3.8-.1-6,1.4-6.3,5.1a19.77,19.77,0,0,0,.9,8c2.4,7.2-.9,11.7-8.5,11.3C63.2,336.2,62.3,336.1,61.1,336Z"/><path d="M584.4,1507.2c7.8,4.4,14.5,10.3,21.8,15.5s14.1,10.6,21.1,15.9c.3-.2.5-.4.8-.6-.9-1.3-1.7-2.7-2.6-4-3.7-5.3-7.5-10.4-11-15.8-2.1-3.3-2-4.4-1.1-8.1.3,0,.8,0,.8.1,2.9,8.6,8.6,15.3,14,22.3,1.4,1.8,2.5,3.8,4.1,5.3,3.4,3.3,3.1,6.7.5,10.7-1-.8-2.1-1.4-2.9-2.2-9-9.8-20-17.1-30.6-25-4.5-3.4-9.1-6.6-13.6-10a25.47,25.47,0,0,1-2.6-3A6.89,6.89,0,0,0,584.4,1507.2Z"/><path d="M350.1,1504.7a13.11,13.11,0,0,1-10.2-7.9c-4-9.2-4.2-18.4.5-27.5,2.4-4.6,6.3-7.1,10.9-8.9a7.27,7.27,0,0,1,2.3.4c-5.2,3.8-10.1,7.1-12.1,12.7s-1.7,11.4-.8,17.2C341.8,1496.8,346.7,1500.1,350.1,1504.7Z"/><path d="M648.6,1534.8c2.2-8.9,18.9-22.5,28.7-22.5-5.6,3.6-11.1,6.5-15.9,10.3S652.6,1530.9,648.6,1534.8Z"/><path d="M356.1,1506.8c-2.2-7.2-3.8-14.5-2.6-22.1a5.67,5.67,0,0,1,2.4-3C355,1490.2,358.3,1498.5,356.1,1506.8Z"/><path d="M364.8,1501.6c-3.4-7.9.3-18.6,7.5-22.4-1.6,3.4-3.7,7-4.9,10.8s-1.1,7.8-1.6,11.6A1.7,1.7,0,0,1,364.8,1501.6Z"/><path class="cls-1" d="M536.7,413.7c.4-1.6,1-3.3,1.3-5,.5-2.8-.3-4-3.1-4.4a18.12,18.12,0,0,0-5.7.1c-3.5.6-5.2,2.9-5,6.5.1,3.2,1.4,4.5,5.1,5.3,1.2.3,2.8.7,3.2,1.5s-.5,2.4-1.2,3.3c-4.4,5.6-8.8,11.1-13.3,16.6-.6.7-1.4,1.2-2.6,2.3-1-1.7-2-3.1-2.7-4.6-3.9-7.7-10.4-11.8-18.6-13.1-5.9-1-10.7,1.6-14.3,6.3a28.82,28.82,0,0,0-6,17c-.4,10.5-.4,21-.5,31.4a209.06,209.06,0,0,0,3.7,37c.3,1.6.2,3.3.4,6.1-2-1.3-3.2-1.7-4-2.6-12.9-12.7-25.1-26-33.8-42.1-6.5-12-9.1-24.8-5.6-38.3a42,42,0,0,1,5.5-12.2A158.2,158.2,0,0,1,465.9,394a8.69,8.69,0,0,1,6.9-2.6c5,.4,9.6-6.2,7.6-10.8-.4-1-2.3-2.3-3.2-2.1-2.9.5-6.2-2.3-8.6.9-.8,1-.8,2.8-.7,4.2.3,2.8-.8,4.3-3,5.9-16.5,11.7-29.8,26.2-38.3,44.6-2.3,4.9-2.6,10.9-2.9,16.5-.6,12.9,3.3,24.9,10.1,35.8a190.82,190.82,0,0,0,35.9,42.2,20,20,0,0,0,9.8,5c4.4.8,5.1,1.8,5.2,6.1.1,4.8,0,9.7,0,14.5.1,11.3.3,22.6.5,33.9a54.33,54.33,0,0,0,1,8.1,5.3,5.3,0,0,1-1.9,5.6c-8.2,6.8-16.4,13.6-24.5,20.5a5.75,5.75,0,0,1-6.7,1,62.69,62.69,0,0,0-32.3-4c-6.8.9-13.4,3.5-20,5.3-16.2,4.4-27.1,14.9-34.2,29.4-2.6,5.3-3.9,11.2-5.5,17-1.2,4.3-1.3,4.6-5.7,5.3l-44.5,6.3c-3.5.5-7,1.2-10.5,1.6a31.71,31.71,0,0,1-4.4,0,33.62,33.62,0,0,1,2-3.9c15.2-20.6,26.6-43.4,37.4-66.4q9.9-21,19.8-41.9a33.22,33.22,0,0,1,5-7.4c-6.1,17.9-14.9,34.8-18.7,53.5,3.3-2.6,4.6-6.4,6.2-9.9q11.4-24.9,22.5-49.8c10.1-22.5,19.2-45.4,27.1-68.8,3.6-10.5,7.2-20.9,11.7-31.2-.3,1.5-.6,3.1-1,4.6-3.8,15-7.6,30-11.3,45a34.27,34.27,0,0,0-.6,5c2.6-.4,3-2.1,3.5-3.5,3.3-8.9,6.8-17.8,9.8-26.8,4.8-14.5,9.3-29.2,13.9-43.7,5.4-17.2,10.6-34.5,16.2-51.6,4.9-14.8,10-29.6,15.3-44.3,9.1-25.8,18.4-51.6,27.7-77.3,5-13.9,10.2-27.8,15.3-41.7a24.87,24.87,0,0,1,1.5-2.8c2.9.5,3.8,2.7,5,4.5,3.2,5,6.4,10.1,9.7,15.1,1.2,1.8,2.2,4.1,5.1,3.7,2.5-.4,5-3,5.6-6,.3-1.4.2-2.9.4-4.3.5-3.7,2.7-4.8,5.7-2.6,3.2,2.5,6,5.4,8.9,8.1,2.1,1.9,4.2,4,6.5,5.7,4.6,3.4,9.6,5.2,15.4,3.6a8.54,8.54,0,0,1,8.1,1.9c5.2,4.6,10.3,9.2,15.4,13.9,2.1,2,3.8,4.4,5.9,6.3,4.5,4.2,8.3,4.4,13.5,1a7.23,7.23,0,0,1,1.8-.9,29.24,29.24,0,0,1,3.2,3.8c10.1,15.8,20,31.6,30.2,47.3,9,13.9,18.4,27.7,27.4,41.6,8.4,12.8,16.2,26,25,38.5,4.1,5.9,4,10-.3,15.7-10,13-19.2,26.6-28.8,40-15.4,21.5-30.9,42.9-46.3,64.4-4.4,6.2-8.8,12.3-13.2,18.5-2.3,3.1-3.3,3.2-5.4.3-4-5.5-7.8-11.1-11.9-16.5-2-2.6-1.8-4.9,0-7.5,4.1-6.1,8.2-12.3,12.1-18.7,3.2-5.4,6.3-10.9,7.4-17.2,2.1-12.4-4.5-14.8-13.9-11.9-7.7,2.4-13.9,7.4-19.6,13-2.4,2.4-4.6,4.9-7.1,7.3s-3.4,2.4-6.1.1c-1.1-1-2-2.1-3.2-3-2.9-2.2-3.5-4.9-2.7-8.5,1-4.5,1.3-9.3-.5-13.8-1-2.4.1-4.3,1.2-6.4,5-9.2,9.3-18.8,11.6-29.1a46.41,46.41,0,0,0,1-13.4c-.5-7-4.7-9.9-11.6-8.6a31.58,31.58,0,0,0-12.4,5.2c-1.5,1-3.3,1.7-4.9,2.6A3.22,3.22,0,0,0,536.7,413.7Z"/><path class="cls-1" d="M609.1,553.5a25.72,25.72,0,0,1,4-.5,108.8,108.8,0,0,1,50.3,12.1c2.5,1.3,4.1,2.9,4.7,5.7,1.8,8,3.9,16,5.5,24,1.8,9,3.3,18.1,4.5,27.2.9,7.5,1.5,15,.6,22.6-.7,6.1-.8,12.2-1.2,18.3a322.49,322.49,0,0,1-21.3,97.4c-7.4,19.4-9.2,39.3-7.4,59.9a121.31,121.31,0,0,0,8.1,33.2,25.33,25.33,0,0,0,2.4,5.3c2.4,3.4,2.2,6.5-.2,9.8-1.5,2.1-2.5,4.5-3.8,6.7a27.09,27.09,0,0,1-8.7,8.8c-12.9,8.6-27.3,13-42.3,15.9-12.2,2.4-24.4,4.6-36.6,6.7a138.57,138.57,0,0,1-32.8,1.4,76.74,76.74,0,0,1-8.1-1.5,3.18,3.18,0,0,1-2.8-3.8c.3-2.9.9-5.7,1.1-8.6,1-13.8,1.8-27.7-.2-41.5-1-7.1-3.3-14.1-5.5-21-5.6-17.6-17.4-31.5-28.1-46-11.3-15.3-23-30.3-34.5-45.5-5.2-6.9-5.1-7,2-12,10.5-7.4,17.3-17.5,21.2-29.7,2.6-8.3,2.9-16.8,2.5-25.4-.4-7.1-1-14.1-3.5-20.9A51.34,51.34,0,0,0,467.1,633c-1.2-1.2-2.4-2.5-3.8-4.1a21.43,21.43,0,0,1,2.7-3.1c15.5-12.5,31.1-25.1,46.7-37.5a82.51,82.51,0,0,1,8.4-5.7c2.9-1.8,3.4-1.4,5.1,1.6a44.21,44.21,0,0,0,5,7.7c4.5,5.1,10.3,7.1,17,5.4,3.1-.8,6.2-1.6,9.3-2.6,9.6-2.9,15.7-1,21.5,7.1,1.3,1.8,2.5,3.7,3.7,5.6,2.2,3.5,2.4,7.3,1.6,11.2-.6,2.8-1.2,5.7-1.7,8.5a3.81,3.81,0,0,1-2.5,3.2c-7,2.6-10.9,8.5-14.1,14.6s.3,10.9,7.1,9.9a32,32,0,0,0,10.3-3.8c8.8-4.8,16.7-3.1,24.3,2.6,1.3,1,2.4,2.2,3.6,3.2,4.9,3.9,11.9,3.5,15.2-.9,3.6-4.7,3.4-11.5-2.3-15.3-3.2-2.1-4.8-4.6-4.7-8.3.2-7.1,0-14.2.7-21.2,1.1-10.1,3.6-20,3.1-30.3-.2-2.9-.4-5.8-.8-8.7-.9-7-4.7-12.2-10.8-15.8-1-.6-2.1-1.3-3.1-1.9A.87.87,0,0,0,609.1,553.5Z"/><path class="cls-1" d="M312.7,994.8a23.21,23.21,0,0,1,1.8-3.8c3.2-4.3,4.2-9.4,5-14.5.6-3.8-1.3-6.8-3.4-9.7-5.5-7.4-10.9-14.8-16.3-22.2a15.54,15.54,0,0,1-3.2-8.9,20.54,20.54,0,0,0-1.9-6.4,69.78,69.78,0,0,0-12.2-20.7c-2.7-3-2.6-3.4,1.2-6.8,1.5,1.1,3.2,2.3,4.8,3.5a51.11,51.11,0,0,0,4.8,3.3c4.4,2.3,7.5,1.3,10.2-2.9,7.4-11.9,14.9-23.7,22.4-35.5,2.2-3.5,2.7-3.6,6.7-1.7,5.2,2.5,10.3,5.5,15.6,7.7a92.23,92.23,0,0,0,14.7,4.4c3,.7,4.8,1.8,6,4.7a34.74,34.74,0,0,0,10.8,14.6c10.7,8.6,26.8,8.4,37.7,1.5,12.5-7.8,20.9-19.1,25.8-32.8A56.7,56.7,0,0,0,446,840c-.6-4-.2-4.7,4.1-5.2,7.7-1.1,15.4-2,23-3,9.4-1.3,18.9-2.6,28.3-3.8,5.7-.8,6.2-.5,8.5,4.6a90.23,90.23,0,0,1,8.4,36.5c.1,10.8.5,21.6.7,32.4.1,4.8.2,9.4,5.3,12,1.7.8,1.7,2.5,1.2,4.3-2.1,7.1-4,14.3-6.1,21.4-3.8,13.3-7.7,26.6-11.6,39.9a21.06,21.06,0,0,1-1.7,5,17.16,17.16,0,0,0-2.2,9.7c.1,2.5-1,5-1.8,7.5-2.7,9.3-5.6,18.5-8.2,27.8-3.8,13.3-7.3,26.7-11,40.1-4.4,16.2-8.9,32.3-13.2,48.5-3,11.4-6,22.7-8.9,34.1-1.1,4.3-1.5,8.9-5.1,12.9-1.4-1.6-3.4-3-3.7-4.7-1.4-6.3-5.6-11.2-8-16.9-1.8-4.4-3.3-9.1-5.2-13.5-5.2-12-12-23.2-19-34.2a300.46,300.46,0,0,0-29.1-39.1c-10.6-12-22.9-21.8-37.5-28.4-14.9-6.7-30.4-7.8-46.4-5.3-12.2,1.9-23.8,5.6-35.5,9.5-8.5,2.9-17,5.9-25.6,8.8-1.5.5-3.1.8-4.8,1.2-.6-1.9.7-2.5,1.8-3,5.8-3.1,11.6-6.4,17.5-9.2,12.1-5.7,24.4-10.9,36.3-16.9,10.2-5.2,19.8-11.5,29.9-16.7,11.9-6.1,24.1-11.5,36.3-17.1,4.4-2,8.9-3.9,13.3-5.8,2.6-1.1,3.4-.9,4.5,1.8l12.6,30.9c1.4,3.3,3.1,6.4,4.5,9.6s2.2,6.3,3.5,9.5c1.2,3,2.7,5.8,3.9,8.7,11.4,28.4,22.8,56.9,34.3,85.3,3,7.5,6.7,14.7,12.2,20.7a35.25,35.25,0,0,0,2.8,2.5,4.83,4.83,0,0,0,3-4.9c-.4-6.6,2-12.7,3.5-18.9,3.1-12.8,6.4-25.6,9.8-38.4s7.1-25.4,10.7-38.2c3.8-13.8,7.5-27.7,11.4-41.5,3.4-12.2,7.2-24.3,10.6-36.6,4.3-15.5,8.4-31.1,12.5-46.7.5-2,1.3-4-.4-6.2-2.3,0-3.1,1.9-3.7,3.6-1.2,3.2-2.4,6.4-3.3,9.6-6.2,20.7-12.5,41.4-18.6,62.1-1.1,3.7-2.8,6.2-6.6,7.6-21.3,7.3-42.6,14.9-63.9,22.3-1.8.6-3.7,1.2-5.6,1.7-3.4.9-4.1.5-5.7-2.7-3.4-7.1-6.6-14.4-10.1-21.4-4.2-8.5-8.7-16.9-13.1-25.3-1-1.9-2.5-2.7-4.2-1.1s-3.3,1.6-5.3,1.6c-6.1,0-11.6,2.4-17.2,4.5-14.2,5.4-27.6,12.4-40.8,19.8A13.23,13.23,0,0,0,312.7,994.8Z"/><path class="cls-1" d="M419.6,339.9c3,4.9,6,9.8,8.9,14.8,2.3,3.9,4.3,7.9,6.6,11.8a8.21,8.21,0,0,1,.9,7.3c-3.2,9.6-6.4,19.3-9.4,28.9-3.8,12-7.5,24-11.2,36-.7,2.2-1.4,4.3-1.9,6.5-.6,2.8-1.7,4.7-5,5.6-2,.6-3.9,3.3-4.9,5.5-2.9,6.4-5.5,13-8,19.7-6.9,18.4-13.6,36.9-20.4,55.3a18.76,18.76,0,0,1-4.6,6.6,70.21,70.21,0,0,0-8.9,10.7c-9.9,14.6-17.3,30.5-24.7,46.5-9.7,20.9-19.1,42-30.6,61.9-5.5,9.5-11.7,18.5-17.8,27.6-.8,1.2-2.8,2-4.4,2.4-7.6,1.7-15.2,2.8-22.7,4.7-15,3.8-30,7.5-44.8,12-11.4,3.5-22.4,8.1-33.6,12.1a48.17,48.17,0,0,1-4.7,1.1,33.18,33.18,0,0,1,.9-3.3c6.1-12.8,12.1-25.6,18.3-38.3,2-4.2,4.5-8.2,6.8-12.3,22.7-40.7,43.6-82.3,64.4-123.9,13.9-27.8,29-55,44.7-81.8q12.75-21.6,25.2-43.5a26.19,26.19,0,0,0,2.9-8.1,4.47,4.47,0,0,1,3.6-3.9c3.3-.9,6.5-1.8,9.7-2.8,22.5-7.2,40.9-20.2,54.4-39.7,3.5-5.1,5.5-11.2,8.2-16.9a20,20,0,0,1,1-2.1A3.58,3.58,0,0,1,419.6,339.9Z"/><path class="cls-1" d="M372.6,830.8c-2-.9-3.6-1.5-5.2-2.3-16.9-9.5-34.9-16.6-53.1-23.3-16.6-6.2-33.4-11.8-50-18.1a67.4,67.4,0,0,0-26.6-4.1c-10.3.4-19.9,3.7-27.8,10.9-1.6,1.5-3.8,2.4-5.6,3.7a104.05,104.05,0,0,0-8.6,6.2c-3.8,3.2-7.5,6.6-11.1,10-2.6,2.5-5.3,3.1-8.8,2.5-10.8-1.9-21.6-3.9-32.5-5.1a283.2,283.2,0,0,0-56-.9c-17,1.4-33.4,5.4-49.7,9.9l-8.4,2.4a16.77,16.77,0,0,1-3.2,0c2.2-3.9,5.4-6.2,8.3-8.6,9.5-8,20.3-14.2,30.8-20.7,12.7-7.9,25.3-16,37.6-24.6,17.8-12.3,35.5-24.5,54.9-34.2a400.64,400.64,0,0,1,45.9-19.2,472.47,472.47,0,0,1,81.9-20.7c22.6-3.6,45.2-6.9,67.9-10.4,1-.1,1.9-.3,2.9-.4,2-.2,3,.9,3.1,2.8s0,3.5.1,5.3c.4,17,8.1,29.8,22.5,38.7,2.3,1.4,5.5,2.5,6.5,4.6s-.3,5.2-.7,7.8c-3.5,25.4-7.7,50.7-8.7,76.4C379,824.5,375.2,827,372.6,830.8Z"/><path class="cls-1" d="M1030.2,1237.9c-2.1.6-4.1,1.4-6.2,1.8a337.65,337.65,0,0,1-56.7,5.9q-39.9.6-79.8.5c-10.3,0-20.6-1.2-30.9-1.7-3-.1-4.6-1.4-5.5-4.3a536.94,536.94,0,0,1-15.8-59.8c-2.6-12.3-5.2-24.6-7.3-37-2-11.9-3.7-23.9-5.1-35.9-1.8-16.2-3.5-32.4-4.7-48.6-1-13.5-1.3-27-1.8-40.6-.3-6.8-.4-13.5-.4-20.3,0-2.4-1.4-3.8-3.1-5.1-4.4-3.3-8.8-6.6-13.1-9.9a13.77,13.77,0,0,1-2.6-2.2c-6.8-9-16.4-15-25-21.9q-19.65-15.75-39.6-31c-4.8-3.7-10.1-6.9-15.1-10.4-2.4-1.7-5.1-3.1-6.9-5.3-5.1-6.4-12.4-9.7-18.7-14.3-8.2-5.9-17.1-10.8-25.8-16.2-.8-.5-1.7-1-2.5-1.5-2.9-2-2.9-2.4-1-5.4,1.5-2.3,3-4.5,4.8-7.3,1.7,1.3,3.1,2.3,4.4,3.3q18,13.8,36,27.8c5.6,4.3,11,8.8,16.6,13.2,6.4,5.1,12.9,10.2,19.3,15.3,18.1,14.2,36.2,28.5,54.4,42.7,4.2,3.3,8.5,6.3,12.8,9.5,2.2,1.6,4.4,3.3,6.7,4.8,7.1,4.6,9,11,8.2,19.2-.5,5,.9,10.2,1.5,15.3.2,1.8.5,3.5.7,5.3.8,7.7,1.1,15.4,2.3,23a293.26,293.26,0,0,0,13.5,52.9c10.7,29.8,29,53.8,55,71.7,9,6.2,18.2,12.3,27.8,17.6,20,11,40.3,21.7,60.7,32,12.5,6.3,25.5,11.7,39.3,14.7a24.81,24.81,0,0,1,3.5,1.3A3.08,3.08,0,0,1,1030.2,1237.9Z"/><path class="cls-1" d="M735.2,452.6c-4-2-6.2.3-7.9,3.2-6.4,10.8-13.1,21.5-18.9,32.6-6.3,12-11.7,24.4-17.4,36.7-1.7,3.8-3.9,6.1-8.4,6.9a55.57,55.57,0,0,0-20,7,80.74,80.74,0,0,0-10,7.4c-1.6,1.3-3,2.4-5.1,1.7-10.2-3.5-20.9-3.6-31.5-3.7-1.5,0-3-.3-5.5-.5a58.33,58.33,0,0,1,3.3-5.1c12.4-17.3,24.8-34.5,37.2-51.8,16.1-22.5,32.2-45.1,48.3-67.6,13.2-18.4,26.6-36.8,39.8-55.2,9.9-13.9,19.7-27.8,29.7-41.7,11.2-15.7,22.5-31.4,33.6-47.2,2.1-3,4.3-3.8,7.8-2.9,5.6,1.4,11.3,2.4,17,3.5,3.3.6,4,1.5,2.9,4.5a14.66,14.66,0,0,1-5,7.4c-2.7,2.1-4.8,5.2-6.6,8.2-9.2,16.2-18.4,32.5-27.3,48.9-9.5,17.4-18.9,34.8-28,52.4-8.7,16.9-17,34-25.5,50.9C736.9,449.6,736.1,451,735.2,452.6Z"/><path class="cls-1" d="M191.7,488.8c.4,4.3.9,8.5,1.3,12.8,2.6,24.4,5.4,48.7,9.7,72.8,3,16.8,6.2,33.6,9.5,50.4a15.69,15.69,0,0,1-1.6,11.2q-10.95,20.4-21.5,41.1c-4.6,9.2-8.7,18.7-13.2,27.9-2.5,5-5.5,9.8-8.2,14.8-1.6,2.9-4.2,4.3-6.9,5.8-10.9,6-22,11.5-32.5,18.1-11.6,7.2-22.6,15.4-33.9,23.1-2.6,1.8-5.3,3.3-8.9,5.6a27.4,27.4,0,0,1,.8-4.4c4.3-11.4,8.7-22.9,13-34.3,7.1-18.9,14-37.8,21.2-56.6q15.6-41,31.3-81.7,10-25.95,20.3-51.7a469.63,469.63,0,0,0,17.3-51.8c.3-1.1.7-2.1,1-3.1Z"/><path class="cls-1" d="M544.1,536.4c-4.2,5.5-8.3,10.5-12,15.8a41.91,41.91,0,0,0-6.9,16.4,7.37,7.37,0,0,1-3.1,5.2c-9.1,6.4-18.1,12.9-27.1,19.4-.7.5-1.6.9-2.8,1.6a14.06,14.06,0,0,1-.7-3c.3-18.5.8-37.1.8-55.6,0-14.8,1.4-29.3,5.8-43.4a118.58,118.58,0,0,1,7.1-16.9c2.6-5.1,6.6-6.7,12.2-5a36.7,36.7,0,0,1,8.8,4,130.42,130.42,0,0,1,25.9,20.9c2.9,3,2.9,4.4-.5,7-1.5,1.2-3.3,2-4.8,3.2-.6.5-1.4,2-1.1,2.3.5.8,1.8,1.7,2.6,1.5,2-.5,4.2-1.1,5.7-2.4,5.9-5.2,11.6-10.7,17.4-16,4.2-3.8,8.2-7.8,12.6-11.2a33,33,0,0,1,8.6-4.3c4.8-1.8,7.3.2,6.3,5.3a26.38,26.38,0,0,1-3.4,9.5c-6,9.9-12.4,19.6-18.7,29.3-5.9,9.2-11.8,18.4-17.6,27.7a17.19,17.19,0,0,0-2.3,5.8c-.6,3.4.7,5.4,4.1,5.9a75.36,75.36,0,0,0,10.6.6c6,0,11.9-.4,17.9-.4a38.7,38.7,0,0,1,16.4,3.5c4.7,2.2,8.1,5.6,8.8,10.7a84.43,84.43,0,0,1,1,15.9c-.2,5.6-1.4,11.2-2.1,16.8-.7,5.8-1.3,11.5-1.9,17.3-.8,8.2,2.4,15.1,7.5,21.3a1.38,1.38,0,0,1,.3.4c1.2,1.5,3.2,3.1,1.3,5s-3.5-.3-4.9-1.5a29.73,29.73,0,0,0-17.2-8.1c-6.2-.8-11.8.7-17.2,3.7a31.84,31.84,0,0,1-5.7,2.5,3.42,3.42,0,0,1-2.5-.8,2.18,2.18,0,0,1,.1-2.2c1.9-2.3,3.6-5.3,6.1-6.6,4.2-2.3,6.8-5.2,7.7-9.9a20.63,20.63,0,0,1,2-5.4c4.6-9.6,1.4-17.8-4.4-25.6-6.9-9.2-15.7-11.6-26.5-8.5a49.7,49.7,0,0,1-8.5,1.9c-8.9,1-15.9-4.7-17.2-13.6-1.4-9.3,1.7-17.3,7.2-24.3,4.3-5.6,9.5-10.5,14.1-15.9a13.78,13.78,0,0,0,2.9-5.3c.5-2.2-.8-3.6-3-3.1a28.83,28.83,0,0,0-8.1,2.8C542.8,531.7,542.7,533,544.1,536.4Z"/><path class="cls-1" d="M423.5,730.1c-12.7.2-23.9-1.7-34-7.7-9.7-5.7-16.4-13.7-19.7-24.6-4.5-15.1-2.1-29.4,4.3-43.2a22.59,22.59,0,0,1,5.9-7.5c9.9-8.2,20.5-15.1,33.4-17.6,10.8-2.1,21.7-1.8,31.9,2.3,9.2,3.8,17.8,9,22.3,18.8a29.61,29.61,0,0,0,3.5,5.2,24,24,0,0,1,4.6,18.3c-1.2,8.1-2,16.3-3.8,24.3-2.7,11.6-9.5,20.8-20.4,25.5C442.4,727.8,432.9,731.8,423.5,730.1Z"/><path class="cls-1" d="M656.4,550.5c3.1-4.2,7.3-5.3,11.1-6.6a92.13,92.13,0,0,1,41.9-4.9,52.53,52.53,0,0,1,28.5,12.2,15.51,15.51,0,0,1,3.9,4.2c3.9,7.2,8.1,14.3,10.3,22.3,2.1,7.8,1.6,15.7.9,23.5-.7,8.3-4.9,15.3-9.2,22.1a38.42,38.42,0,0,1-7.7,7.9c-9.8,8.1-21.2,11.8-33.8,12.5-4,.2-8.1.2-12.1.4-2.4.1-3.7-.9-3.8-3.3a33.2,33.2,0,0,1-.2-6.3c1.2-9.8-1.4-19.2-3.4-28.6a110.15,110.15,0,0,1-2.1-12.8,58.56,58.56,0,0,0-3.8-15.9A70.08,70.08,0,0,1,674,567a14,14,0,0,0-5.5-8.8c-2.7-2-5.7-3.7-8.5-5.5C659,552.1,657.9,551.4,656.4,550.5Z"/><path class="cls-1" d="M692,909.4a40.38,40.38,0,0,1-4.7,2.8c-17.4,7.3-34.7,14.8-52.2,21.8Q585.3,954,535.4,973.5c-5.4,2.1-10.8,4.2-16.3,6.2a12.66,12.66,0,0,1-2.6.4c-1.8-1.6-.8-3.1-.4-4.6,3.6-13.7,7.4-27.4,10.9-41.1,1.3-5,2.1-10.1,3-15.2.4-2.2,1.1-3.7,3.7-3.3,17.1,2.1,33.8-.5,50.4-3.7,12-2.3,24-4.9,35.9-8a72.47,72.47,0,0,0,33.3-18.8c2.9-2.9,3.5-3,6.1-1.1,9.3,6.9,18.6,13.9,27.8,20.9C688.5,906.3,689.8,907.5,692,909.4Z"/><path class="cls-1" d="M261.6,884.2c-3.2,5.2-3.2,5.2,3,10.2-1.1,1.1-2.2,2.1-3.2,3.3-2.7,3.1-2.3,6.3,1.2,8.4,3.2,1.9,5.6,4,6.1,8.1.3,2.3,1.8,4.5,3.1,6.5,9.1,13.7,18.1,27.5,27.4,41,3,4.3,6.9,8.1,10.4,12.1.6.7,1.4,1.4,2,2.1,2.8,3.2,2.8,4.2.5,7.6a60.75,60.75,0,0,1-21.4,19.2c-10.6,5.9-22,9.4-34.2,9.1-5.9-.2-11.8-1.6-17.6-2.7a6.32,6.32,0,0,1-4.9-4.9,22.57,22.57,0,0,1-.9-5.7c-.4-21.2,1.6-42.3,7.7-62.6,2.7-9.1,7-17.6,10.7-26.4.5-1.3,1.7-2.4,2.5-3.5,3.2-4.1,3.6-8.6,1.1-13-2-3.6-.9-7.5-1-11.2,0-1.8,2.1-2.6,3.7-1.4C259.5,881.3,260.5,882.9,261.6,884.2Z"/><path class="cls-1" d="M436.8,824.9a19.07,19.07,0,0,1-2.8-.7c-10.2-4.9-21.1-5.5-32.1-5.1-5.3.2-10.5,0-16.2,0,0-2.4-.2-4.3,0-6.1,1.6-14.7,3.3-29.5,4.9-44.2,1-9.1,1.8-18.3,2.6-27.4.4-5,.5-4.9,5.6-3.9,12.6,2.6,25.2,3.2,37.9.4a20.48,20.48,0,0,1,2.4-.5c2.7-.3,3.5.4,3.7,3.1a19.33,19.33,0,0,1-.1,3.4c-1.2,14.9-2.2,29.9-3.7,44.8-1.1,11.4-2.4,22.8-1.6,34.2C437.3,823.4,437,824.1,436.8,824.9Z"/><path class="cls-1" d="M450.8,1119.9c-.9-2-1.8-4-2.6-6-5-12.9-9.9-25.9-15-38.7-6-14.9-12.2-29.8-18.4-44.7-1.9-4.6-1.5-5.5,3-7.1,20.7-7.2,41.4-14.3,62.1-21.5,1.2-.4,2.4-.6,4.4-1.1a42,42,0,0,1-.7,5.1c-4.3,15.5-8.7,31-13,46.5q-6.6,24.15-13,48.5c-1.4,5.3-2.7,10.6-4.1,15.9-.3,1-.9,1.9-1.3,2.9A6.75,6.75,0,0,1,450.8,1119.9Z"/><path class="cls-1" d="M374.4,857.6v-13c.7-6,9-15.3,15.1-15.7,7.5-.5,15.2-.9,22.6.1,5.1.7,9.9,3.7,14.8,5.7,1.2.5,2.3,1.3,3.5,1.7,4.4,1.5,6.3,4.9,6.8,9.1,2,18.5-3.7,34.2-18.2,45.8s-35.6,5-42.5-12.8a39,39,0,0,1-2.1-10.8c-.3-3.3-.1-6.8-.1-10.1Z"/><path class="cls-1" d="M528.1,149.9c1.6,2.2,2.5,3.3,3.3,4.4q29.85,45.75,59.5,91.6c1.6,2.4,3.1,4.9,4.7,7.3a7.64,7.64,0,0,1,.6,7.8c-1.2-1-2.2-1.7-3.1-2.5-5.6-5-11.2-10.2-16.9-15.1a13.8,13.8,0,0,0-12.2-3.1c-4.8,1-8.9-1.2-12.5-4.1-3.4-2.7-6.3-6-9.6-8.8a34.72,34.72,0,0,0-7.5-5.2c-4.9-2.4-9.4-1.4-13.2,2.6a21.82,21.82,0,0,0-2.2,3.5c-2-2.1-3.2-3.2-4.3-4.5-2.8-3.3-5.3-7-8.4-9.9-2.8-2.6-2.8-5.1-1.5-8.2,3.3-7.9,6.6-15.7,9.9-23.6,3.7-8.9,7.3-17.9,11-26.9C526.3,153.8,527,152.4,528.1,149.9Z"/><path class="cls-1" d="M273.6,881.8c.6-.9,1.1-1.8,1.7-2.7,4.4-6.1,8.9-12.2,13.4-18.3,1-1.4,2.1-2.8,3.2-4.2,1.8-2.5,1.5-4.4-1.1-6.1a21,21,0,0,0-2.6-1.3c-4.7-2.1-9.4-4.3-14-6.4a13.9,13.9,0,0,1-2.1-1.1c-2.5-1.7-3-3.8-1-6.1a28.55,28.55,0,0,0,7.4-23.1c-.1-.5.4-1.1.7-2.1,1.5.6,2.8,1.1,4,1.7,8.3,4.4,16.5,8.7,24.7,13.2,4.9,2.7,9.7,5.6,14.6,8.3a67.22,67.22,0,0,0,6.7,2.8c3.6,1.5,4.6,3.2,2.9,6.7-3.8,7.8-7.7,15.6-11.9,23.1-5.8,10.4-12,20.6-18,30.8-2.2,3.8-3.5,4.2-6.7,1.8-7-5.2-13.9-10.4-20.8-15.6C274.1,883,274,882.4,273.6,881.8Z"/><path class="cls-1" d="M203.6,825.4c1.3-5.8,2.2-11.7,3.9-17.4,1.9-6.4,6.6-10.4,12.5-13.3a16.13,16.13,0,0,1,9.4-1.2c13.3,1.8,25,7.5,35.1,16,7.3,6.2,7,17.4-.2,23.9-3.2,2.9-6.2,6.1-9.6,8.8a34.48,34.48,0,0,1-8.1,5.1,100.61,100.61,0,0,1-11,3.5c-10.3,3-18.5-1-24.8-8.8C207.1,837.4,203.5,832.2,203.6,825.4Z"/><path class="cls-1" d="M771.7,875.1c-4.8,2.3-8.6,4.3-12.5,6-10,4.4-20.2,8.5-30.1,13.1-4.3,1.9-7.5,1.8-11.5-1.2-15.5-12-31.3-23.7-47.1-35.4-6.3-4.7-8.8-11.3-9.9-18.6,0-.3.3-.6.6-1.3a13.69,13.69,0,0,1,3.4.4c23.7,6.9,47.4,13.4,70.9,20.9,11.3,3.6,22,9.1,33,13.8C769.3,873,770,873.8,771.7,875.1Z"/><path class="cls-1" d="M874.9,563.6c.1,6.5-2.1,11.9-4.8,17a4.57,4.57,0,0,1-1.1,1.6c-6.9,5.9-13.3,12.7-22.9,14.5-12.9,2.5-28.6-7.4-30.2-19.5a40,40,0,0,1,.9-12.4c2.1-9.8,5.5-19.2,11.7-27.2,1.7-2.2,3.5-3.6,6.5-2.9,12.5,2.9,24.3,7.6,34,16.3C873.2,554.4,875.6,558.6,874.9,563.6Z"/><path class="cls-1" d="M816.2,544c-2.2,6-4.4,12-6.5,18.1-2.5,7.2-2.6,14.6-1.7,22,.4,3.1,2.2,6,3.6,8.9a35.06,35.06,0,0,0,2.7,4.2,13.46,13.46,0,0,1-3.7,2c-15.7,3.7-31.4,7.3-47.1,10.9a25.62,25.62,0,0,1-4.5.3c2.5-8.3,4.4-16.2,3.5-24.2-.9-7.8-2.3-15.4-3.6-23.3,9.6-2.6,19.5-4.8,29-8.1s18.5-7.7,27.8-11.6A3.78,3.78,0,0,1,816.2,544Z"/><path class="cls-1" d="M501.6,818.8a29.15,29.15,0,0,1-4.6,1.3l-48.4,6.3h-.5c-4.1.3-4.7-.2-4.4-4.1.4-6.1.8-12.2,1.3-18.3,1.3-16,2.7-32.1,4-48.1.1-1.7.4-3.4.6-4.9a7.78,7.78,0,0,1,.9-.3c.2,0,.4-.1.5,0a8.78,8.78,0,0,1,1.5,1.2q24.15,32.25,48.3,64.6A18.62,18.62,0,0,1,501.6,818.8Z"/><path class="cls-1" d="M884.3,553.8c14.2,4.3,27.5,8.3,41.2,12.3-.5.6-.7,1.3-1.2,1.5-6.8,3.6-10.6,10.1-15.7,15.4s-7.2,11.7-7.8,18.8c-.1.6,0,1.3-.1,1.9-.4,2.7-1.3,3.3-3.9,2.7s-5.3-1.5-7.9-2.2l-19.5-5.4c-1.3-.4-2.6-1-4.6-1.8C878.6,585.7,884.1,571.1,884.3,553.8Z"/><path class="cls-1" d="M1018,587.5c-.6,2.8-1.5,4.7-4,6.1a132.83,132.83,0,0,1-38.1,13.3c-3.6.7-4.6.2-6-3.2-2.8-6.9-5.4-13.8-8-20.7-1.1-3-.4-4.3,3.1-5.1,8.6-2,17.3-3.6,25.9-5.6q7.8-1.8,15.3-4.2c4.1-1.3,4.7-1.4,6.2,2.6C1014.5,576.1,1016.2,581.8,1018,587.5Z"/><path class="cls-1" d="M512.5,461.8a8.6,8.6,0,0,1,.2-2.4c6.8-13.7,14-27.2,26.2-37.1a88.44,88.44,0,0,1,10.4-6.8,11.68,11.68,0,0,1,4.6-1.3c3.7-.5,5.4.5,5.5,4.2a45.57,45.57,0,0,1-1.3,13.3,150.33,150.33,0,0,1-16.3,36.9c-2.3,3.7-2.5,3.6-6.4,1.5a117.43,117.43,0,0,0-13.3-6.6C519.2,462.3,515.9,462.3,512.5,461.8Z"/><path class="cls-1" d="M298.8,809.8c7.9,2.8,15.8,5.5,23.6,8.4,12.4,4.6,24.7,9.4,37.1,14,7,2.6,10.2,8.6,9.1,16-1,6.4-1.5,12.8-2.1,19.2-.4,4.8-1.1,5.6-5.7,3.9-7.7-2.8-15.4-5.9-23-8.8-1.6-.6-3.3-1.2-5.4-2a22.21,22.21,0,0,1,.9-3.7c2.5-6.1,5.1-12.1,7.7-18.2,1.6-3.7,1.3-4.6-2.4-6.5-6.1-3-12.4-5.5-18.4-8.6-7.5-3.9-14.8-8.2-22.3-12.4C298.2,810.7,298.5,810.2,298.8,809.8Z"/><path class="cls-1" d="M233.6,860c-1,2-2,3.8-3,5.6-2,3.7-2.2,7.2,1,10.5,3.6,3.7,6.8,7.7,10.3,11.5,4.1,4.4,4.8,6.7,2.2,12-1.9,3.9-4.2,7.6-6.3,11.4-1.1,2-2.7,2.6-4.9,1.7a20.36,20.36,0,0,1-2.2-.9c-4.8-2.6-9.7-5.1-14.4-7.8-2.9-1.6-3.3-2.8-1.5-5.4,2.5-3.7,3.4-7.8,4.6-12,.8-2.8.2-4.7-1.9-6.4-3.3-2.8-6.6-5.6-10-8.4-1.1-.9-2.2-1.8-3.7-3.1a61.86,61.86,0,0,1,8.5-11.6,4.27,4.27,0,0,1,3.5-.9q7.8,1.2,15.6,2.7A11.2,11.2,0,0,1,233.6,860Z"/><path class="cls-1" d="M485.2,506.8c-.8-5.4-1.9-10.7-2.2-16.1-1-15.7-2.1-31.5-.5-47.3a40.6,40.6,0,0,1,1.8-8.4c1.1-3.3,3.5-4.6,6.8-3.6a21.74,21.74,0,0,1,6.9,3.2c4.1,3,8.7,5.3,11.3,10.2,1.5,2.8,1.6,4.9.1,7.6-4.4,7.8-8.6,15.8-13,23.7-4.5,8.1-7,16.9-8.7,25.9-.3,1.7-.7,3.3-1.1,4.9A7.08,7.08,0,0,1,485.2,506.8Z"/><path class="cls-1" d="M1018.5,599.7c2.7,6.3,5,11.7,7.3,17.2,1.3,3,.9,3.9-2.6,5.5-8.4,3.8-16.8,7.5-25.2,11.2-3.5,1.6-7,3.2-10.6,4.7-3.2,1.4-4.9,1.2-6.5-1.7-2.1-3.8-3.7-7.8-5.5-11.8a2.86,2.86,0,0,1,1.5-4.1c7.3-3.4,13.4-8.9,21.2-11.5,5.1-1.7,9.9-4.6,14.9-6.9C1014.8,601.4,1016.7,600.5,1018.5,599.7Z"/><path class="cls-1" d="M268.8,874.9c-3.5-3.2-7.1-5.9-12-5.4s-7.5,4.4-10.8,8.3c-3.5-3-6.7-5.8-10.1-8.7,1.6-3.6,3-7,4.6-10.3a4.7,4.7,0,0,1,2.2-1.7c5.2-2.8,10.4-5.6,15.8-8.1a7,7,0,0,1,4.9-.6c5.6,1.9,11.1,4.3,16.6,6.5,1.9.8,3.2,2.1,1.7,4.1-3.8,5.2-7.7,10.2-11.6,15.3C270,874.5,269.6,874.6,268.8,874.9Z"/><path class="cls-1" d="M926.9,601c5.1-2.4,9.4-4.4,13.7-6.4,3.8-1.8,7.5-3.6,11.4-5.3,3.4-1.5,4.2-1.1,5.1,2.4,1.5,5.9,3.1,11.8,4.7,17.7,1.5,5.4,1,6.6-3.8,9.4-3.9,2.2-7.7,4.6-11.6,6.8-2.5,1.5-3.4,1.3-4.5-1.2C938.3,616.1,933.9,608.3,926.9,601Z"/><path class="cls-1" d="M921.2,600.6c.6,1.8,1.1,3.7,1.9,5.5,1.3,3.3,2.8,6.5,4.1,9.7.6,1.4,1,2.8,1.5,4.1-1,.4-1.3.7-1.5.6-11.1-4.4-18.9-12.1-17.4-23.6,1-7.5,5.7-12.7,11-17.6a16.69,16.69,0,0,1,13.2-4.7c2.1.1,3.3.9,3.9,2.9.2.6.3,1.2.5,1.9,1.7,6.8,1.7,6.8-4.4,10a81.67,81.67,0,0,0-9.5,5.6c-1.7,1.2-2.9,3.2-4.3,4.9A8.65,8.65,0,0,0,921.2,600.6Z"/><path class="cls-1" d="M990,538.2c.7,1.4,1.3,2.6,1.9,3.9,2.3,4.8,1.5,7-3.9,8.5-11.6,3.2-23.3,6.2-34.9,9.2a38.9,38.9,0,0,1-4.7.9c-3.3.4-4.3-.5-4.3-4a28.5,28.5,0,0,1,.3-2.9c.4-2.7,1.7-4.2,4.6-4.6,5.2-.8,10.4-2,15.6-3,7.9-1.6,15.7-3.6,22.8-7.4A9.05,9.05,0,0,1,990,538.2Z"/><path class="cls-1" d="M926.1,16c5.2,6.2,9.9,12,15.1,18.3a187.49,187.49,0,0,1-21,14.1C922.3,37.1,924.1,26.8,926.1,16Z"/><path class="cls-1" d="M578.1,530c5,5.4,9.5,10.3,14.3,15.5-1.4,2.1-5.1.8-8,1.8s-6.2,1.6-9.3,2.4-6,2.1-10,1.2A143.54,143.54,0,0,1,578.1,530Z"/><path class="cls-1" d="M948.1,581.8c-.2-1.3-.3-2.4-.4-3.5-.7-7.1-.7-7,6.4-8.8,10.8-2.7,21.5-5.6,32.2-8.4,1.7-.4,4.5-2,5.1.3.8,3.2-2.8,2.3-4.5,2.6-8.1,1.5-16.2,2.8-23.6,6.7-3.1,1.6-5.7,3.4-7,6.9S951.7,581.5,948.1,581.8Z"/><path class="cls-1" d="M783.1,614.9c-10.3,3.1-19.9,6.1-29.7,8.7-.2-2.7,1.1-3.6,2.7-4,8.4-1.9,16.9-3.7,25.4-5.5C781.7,614,782,614.3,783.1,614.9Z"/><path class="cls-1" d="M960.6,639.4a36.22,36.22,0,0,1-1-3.7,2.17,2.17,0,0,1,1.8-2.8c1.1-.3,2.2-.5,3.3-.7a4.43,4.43,0,0,1,5.2,5.3,3.19,3.19,0,0,1-2.3,1.9C965.4,639.6,963.2,639.4,960.6,639.4Z"/><path class="cls-1" d="M277.9,908.6c.7,2.1,1.5,4.3,2.3,6.6-3-1-5.3-3.1-5.2-4.8C275.1,908.9,276.1,908.2,277.9,908.6Z"/><path class="cls-1" d="M268.1,901.3c2.1-1.7,3.7-2.9,5.1-4,2,1,2.4,2.5,1.3,3.6C273,902.6,271,902.6,268.1,901.3Z"/><path class="cls-1" d="M548,470.7a22.41,22.41,0,0,1-.6,4.6c-.2.7-1.3,1.1-2,1.6-.5-.9-1.5-1.8-1.5-2.6C544.2,472.5,545.6,471.3,548,470.7Z"/><path class="cls-1" d="M532.8,409.3c-.3,2.2-1.3,3.4-3.5,2.6a2.55,2.55,0,0,1-1-2.2C529.5,407.6,531.1,408.2,532.8,409.3Z"/><path class="cls-1" d="M474.2,386.8c-.9-1.1-1.8-1.8-1.8-2.5s.9-1.3,1.4-1.9c.6.6,1.6,1.1,1.8,1.8C475.7,384.7,474.9,385.5,474.2,386.8Z"/><path class="cls-1" d="M965.6,622.2c-.2,3.6-1.8,4-4.4,3.3C961.8,623.4,963.4,622.9,965.6,622.2Z"/><path d="M774.6,843c-.7-1.4-1.5-2.7-2.2-4.1.4-.2.7-.4,1.1-.6.7,1.3,1.5,2.7,2.2,4C775.3,842.6,774.9,842.8,774.6,843Z"/><path d="M1110.9,655.5c-.3,1-.6,2-1,3l-1.2-.3c.2-1.1.4-2.1.6-3.2C1109.9,655.2,1110.4,655.3,1110.9,655.5Z"/><path d="M768.3,844.3c-.2-.3-.5-.7-.7-1,.3-.2.8-.5,1-.4a3.88,3.88,0,0,1,.6,1.1C768.9,844,768.7,844.2,768.3,844.3Z"/><path d="M104.8,992.8c-2.5-2.6-4.4-4.6-6.5-6.8C103,986.3,104.4,987.7,104.8,992.8Z"/><path d="M107.5,989c-.4-2-.7-4.1-1.1-6.1,3.1,1.4,2.5,3.7,2.5,5.9C108.4,988.9,108,988.9,107.5,989Z"/></g></g></svg>