<svg xmlns="http://www.w3.org/2000/svg" id="Layer_1" data-name="Layer 1" viewBox="0 0 1200 1550"><defs/><defs><style>.cls-1{fill:#fff}</style></defs><path d="M19.7 1551.8H0V-1.8h1200v1553.6H185.7l-3-2.2c-3.4-2.1-7.2-3.9-10.3-6.5a255 255 0 01-19.7-18.5 332 332 0 01-26.1-31.7c-15.3-21.1-24.3-44-23.1-70.4.3-8.2.9-16.3 1-24.5a47 47 0 014.7-19 142.3 142.3 0 0012.5-57.9c.3-17.4-.8-34.8-1-52.2-.2-23.6 0-47.1 0-70.7 0-4.1-.8-8.2-1-12.3q-.2-14.4-.1-28.9a4.7 4.7 0 012-3.4c2.6-1.6 8.4-.3 10.6 2 8.5 8.3 11.3 19.2 13.7 30.2a35.4 35.4 0 01.4 9.7c-.2 4.1-2.7 7.2-5.4 10.1a38.4 38.4 0 00-10.8 29.7c.5 6.9 5.1 9.5 11.1 6.6a42.8 42.8 0 0020-18.4c5-9.2 4-16.9-3.4-24.4a24 24 0 01-6.9-12.7c-2-10.1-5-19.9-10.4-28.8-.7-1-.8-2.5-1.4-4.8l14.2 1.2c5.1.6 9.4 2.9 12.2 7.3 3 4.7 6 9.3 8.5 14.2 6 11.5 11.4 23.2 19.8 33.1 1.8 2.1 3.1 4.6 5.2 7.9-5.7-.2-8.2 2.2-10.5 6-8.3 13.8-7.5 28.8-6.4 43.7.1 2.3 1.9 5 3.7 6.7 5.5 5.2 22.4 3.8 26.1-4.8 4.8-11 6.5-22.5 1.2-33.9-2.2-4.8-5.5-9.1-7.5-14-2.6-6.3-6.4-11.8-10.3-17.4-4.4-6.3-8.2-13.1-12.2-19.8-.7-1.3-.7-2.9-1.3-5.2 2.3.7 3.6 1 4.8 1.6a137 137 0 0112.9 5.8c6.2 3.4 12.3 7.3 18.2 11.3 1.8 1.1 3 3.3 4.3 5 3.7 5.3 3.2 11.2 2.8 17.3a76.9 76.9 0 00-.2 14c.8 7.4 4.8 12.7 12.3 14.3a52.7 52.7 0 0012.2 1c7.3-.1 10.4-3.5 10.5-10.7 0-11.3-3.2-21.8-9-31.5-8.8-15.1-22.4-23-39.3-25.2a35.6 35.6 0 01-15.6-5 18.2 18.2 0 00-12.9-3c-3.7.6-5.4-1.2-7.2-4.2a84.7 84.7 0 00-9.1-13 17.9 17.9 0 00-8.2-5 64.8 64.8 0 00-14-2c-5.8-.3-11.8 0-17.7-.1-6.7 0-7-.4-7.1-6.9-.1-8.4.1-16.8-.2-25.2-.2-4-1.4-8-2.3-12-1.3-6.4-3.6-12.7-4-19.1-1-12.7-.9-25.4-1.5-38-.6-11.5-2-22.9-2.5-34.3s-.8-23-.6-34.4c.2-11.2 1.4-22.4 1.9-33.7.3-6 0-12.2 0-19.2 7.7 1 12-5.9 18.3-8.5 1.8 1.2 3.3 3 5.2 3.5 5.4 1.7 6.1 6 6.2 10.6v21c.2 9.1 3.4 17.2 8.9 24.4 3.6 4.7 7.5 6 13 3.7a22.3 22.3 0 007.3-5.4c4.1-4.5 5.6-10.1 7.2-16 2-7.6.7-14.1-2.8-20.7-1.3-2.3-2.7-4.6-3.8-7-3.6-7.6-10.6-10.5-17.9-12.8a7.1 7.1 0 00-4.8 0c-6 3-9.1-1.2-13.7-5.2 4-1.5 6.9-2.7 10-3.6a61 61 0 016.6-1.3c13.8-2.5 26.9-1.3 38.3 7.9a12.6 12.6 0 002 1.4c7.3 3.7 10.6 10.5 13.2 17.7 4 11 4.1 22.4 4.4 34 .3 8.4-1 16-5.8 23.2a39.7 39.7 0 00-6.8 22.7 19 19 0 006.7 15.2 9.5 9.5 0 009.7 1.9 19.6 19.6 0 0013.3-16.8c.9-8.4-1-15.8-7.1-22-1.3-1.2-2.3-2.9-3.5-4.2a7.8 7.8 0 01-2-6.1c.2-7.8.4-15.6 0-23.4a85.1 85.1 0 00-9.4-38.4l-2-4.1a43.2 43.2 0 0127.5 22.3l13.3 25.6c1 1.7 1.6 4 4.5 3.1 1.9-2.4 0-4.3-1-6.1-3.3-6.4-6.5-12.8-10-19.1-2.8-5.2-6-10.1-9-15.2a21.5 21.5 0 01-1.2-3.7c5.3 2.3 9.4 4.2 13.8 5.9a37.4 37.4 0 0115.4 12.7 8.1 8.1 0 011 9.3c-3.5 7.2-2.7 14 1 21.1 5.4 11 13.2 17.4 26 16.6 6.3-.4 10.6-3.6 11.3-9.8 1.2-10.9-1-21-8.7-29-2.6-2.7-6-4.4-8.6-7s-5.4-3.3-8.7-4a13.1 13.1 0 01-7-3 75.2 75.2 0 00-31.3-17.7c-7-2.3-14.3-3.5-21.3-5.5-10-2.8-20-6.2-30-8.8a63.6 63.6 0 00-51.4 7c-2.8 1.7-5.3 3.8-8 5.7a13.5 13.5 0 01-10.8 2.3c-2.3-5.8-5.5-11.6-6.6-17.7-1.6-8.6-1.7-17.4-2.4-26.2-.5-5.5-.9-11-1.9-16.5-.8-4.8-4.2-6.9-9.5-6.8-4.1.1-5 1-6.5 6.6-.5 1.6-.8 3.2-1.1 4.8a33 33 0 01-7 14.1c-5.6 7.2-11.4 14.1-16.2 21.7a55.1 55.1 0 00-7.4 17.4 66.3 66.3 0 01-15.4 30.9c-1.8 2-3.4 4.1-5 6.2-7.9 10.3-15.7 20.5-18.4 33.6-2.1 10.3-1.1 19.7 8.2 26.3 7.7 5.4 16.7 5.8 23.7-.5 5-4.5 9.6-9.7 11.7-16.3 2.8-9 5.7-18 7.4-27.3 2.1-12 2.4-24-10.5-31.3a4.7 4.7 0 01-1.8-4c2-8 4.1-15.8 6.8-23.6 4-11.6 13.8-19.6 19.7-30 0-.2.4 0 .6 0a.6.6 0 01.5.2 9.6 9.6 0 01.4 2.4c-.3 16.6 1.2 33.2-1.8 49.7a53.5 53.5 0 00-.5 8c-.4 16.2-.7 32.4-1.3 48.5a170.4 170.4 0 01-2 21.4 232.8 232.8 0 00-.7 80c.4 2.4.5 4.8.7 7a27 27 0 00-16 6 91.3 91.3 0 00-19.7 22.5 514.2 514.2 0 00-17.9 32.2c-4.6 9.3-10 18.6-10.7 29.3-.9 12.6-1 25.3-1.2 38 0 1 1.1 2.2 1.7 3.3 3.3-1.1 2.7-3.4 2.8-5.4 0-7-.2-14 0-20.9a130.6 130.6 0 011.6-17 44 44 0 017.2-17.7c13.4 11.1 27.2 21.2 28.4 39.6-3 2.3-6.9 3.6-8 6.2-3 6.4-6.2 13.2-7 20.1-1 9 0 18.4.7 27.6.4 4.6 2.3 9 3.8 13.5a9.1 9.1 0 007 6.4c4.7 1 9.3.9 13.8-1.5a42.5 42.5 0 0016.4-16.2c6.4-10.6 5-20.8-4.1-29.2a52.4 52.4 0 01-19-33.2 29.9 29.9 0 00-1.2-4.7c-2.8-10-10-16.7-17.3-23.4l-11.9-10.4 8.5-16.5c7-13.5 15.1-26.3 26.4-36.8a23 23 0 0113-6.4c2.9-.4 4.7.4 5.2 3.5.8 4.7 1.6 9.3 2.8 13.9l12.1 45.7a91.5 91.5 0 013.3 24.9c-.2 10 .4 20.1-.2 30.1a209.3 209.3 0 01-3.8 29.2 204.5 204.5 0 00-5.3 42v36.8c0 8.2 0 16.5-.3 24.6-.5 15.2-1.3 30.3-2.2 45.4a91.6 91.6 0 01-1.8 14.6 257 257 0 01-5.8 22c-6.5 20.5-12.6 41.2-20 61.3-7.3 19.4-15.8 38.3-32 52.3a6.2 6.2 0 00-1.1 1.5zM985 1031.4l1.6-.3 3.6 5.5c2.8 4 5.3 8.3 8.4 12a15.3 15.3 0 007 4.6c5.4 1.6 8.2-.6 8.6-6.3.2-3.6.2-7.3.2-11 0-12-1-24 .4-35.7 2-16.1 1.2-32.3 1.7-48.4.2-5.1 1-10.2 1.2-15.3.1-3 1.5-5 3.3-7 6-7 11.9-14 17.6-21.3 19.5-25 30.5-54.1 39.7-84 6.2-20 11.1-40.3 17-60.4a155 155 0 006.1-43.5c.1-50.2.2-100.5 0-150.7a228.5 228.5 0 00-2.7-30.6c-2.5-17.6-6.3-35-12.6-51.8-1-2.7-1.2-5 1.6-7 3.2-2.4 2.8-5.7 1.3-8.9a32.8 32.8 0 00-3.3-5.2A327.3 327.3 0 001054 428a122 122 0 00-22.3-18.2 223.9 223.9 0 00-57-23.7c-14.4-4.2-29.2-7-43.9-9.6a206.3 206.3 0 00-29.2-3.1c-9.7-.4-19.2-.5-28.5-3.5a10.6 10.6 0 00-6.5.4c-4.8 1.7-9.3 4-14 6a8 8 0 01-8.7-.9l-21-16c-2.6-1.8-2.9-3.8-1.6-6.8a39.9 39.9 0 002-8.3c1.8-9 3.6-18.1 5-27.2 1.1-7.3 2.3-14.6 2.5-22 .4-15 0-29.8.1-44.8a163.2 163.2 0 00-2.1-29.4c-2.9-16-3.6-32.6-8.8-48.2-.9-2.7-1-5.7-1.5-8.5-.8-5.3-1.3-10.6-2.4-15.8a169.5 169.5 0 01-4-34.8 33.2 33.2 0 00-2-11.4c-3-7.8-5.8-15.8-10-23a120.6 120.6 0 00-15.8-21.8c-11.7-12.6-27.3-19.4-43-25.6a20.7 20.7 0 00-4.1-1l-34.5-5.4a22.2 22.2 0 00-2.5-.3L656 22.5a82.4 82.4 0 01-10.4-.8c-19.9-3.7-40-3.5-60-2.9-5 .2-10.1 1.4-15.2 2-5.7.7-11.3 1.8-17 1.9-19.6.2-39.3 0-59 .2a154.3 154.3 0 00-16 .9l-28 3.3-9.6 1.8-11.3 2.7c-8 2-16.8 2.1-23.1 8.7a7.8 7.8 0 01-2.7 1.4c-8 3.2-15.8 7-24 9.5-23 7.3-44.5 17.5-63.7 32.5-7.2 5.7-14.5 11.3-21.6 17.2-11.6 9.4-23 19-32.3 31-6.8 8.5-14 16.5-21 24.9l-23.5 28.4c-7.4 9.3-14.4 19-22.2 28a163.2 163.2 0 00-26 37.7 232.4 232.4 0 00-15.8 41.9c-2 7.7-2 15.5-1.1 23.2.9 9.4 7.5 15 16.8 15.5 4.6.3 8.8-1 13-2.8 8.4-3.6 17.2-6.5 25.7-10a153.2 153.2 0 0015.3-7.6c3-1.6 5.6-4.1 8.5-6 14.1-8.4 28.2-16.8 42.4-25a186 186 0 0042.8-33.7 75.6 75.6 0 0135-21.8c6.7-1.9 13.4-3.9 20.2-5.5 15.6-3.6 31.5-5.4 47.5-2.8 7 1 13.9 3.3 20.6 5.5 3.4 1 6.4 3.3 7 7.2.6 4.6 1 9.4-1.4 13.8-1.7 3-3.7 6-5.2 9a31.3 31.3 0 01-17.9 15.3c-10 4-20.4 7.2-30.7 10.7-6.4 2.2-13 3.7-19.2 6.4a421.9 421.9 0 00-68.3 35c-9.7 6.4-19.7 12.6-28.7 20-13 10.8-25.4 22.5-38 34a142.2 142.2 0 00-27.6 32 39.3 39.3 0 00-6.5 24.5c1 9.8 5 18.9 13.8 23.4a41.8 41.8 0 0040.8.1c10.9-6 22-11.8 32.7-18.2 26-15.7 54.6-25.2 82.4-36.6 8.1-3.3 16.6-6 24.3-10 8.8-4.8 17-10.7 25.3-16.4a79.2 79.2 0 0124.2-11.7c12.4-3.4 25-6.5 37.1-10.7a100 100 0 0132-5.4c18.4-.2 36.2 3.7 53.7 8.9 10.2 3 20.3 6.3 30.4 9.6 2 .6 4.3.8 5.8 3.5a40 40 0 01-5.3.8 78.8 78.8 0 00-25.9 4.8c-10.6 3.9-21 8-31.5 12.1a31.7 31.7 0 00-6.8 4.1 312 312 0 00-55 48.9c-4.7 5.5-8.9 11.3-13.7 16.6-9.5 10.4-19.4 20.5-29.1 30.8-6.8 7.1-13.8 14-20.1 21.5-11.3 13.4-19.2 29-27.8 44.2-4.6 8.2-9.2 16.4-14.4 24.2-9 13.5-16 27.6-19.4 43.6-.8 4.2-1.8 8.4-3 12.5-5 16-10.3 32-15 48.1-2 6.8-4.2 14-4.4 21-.4 17 0 34 .7 51 .5 10.8 2.3 21.6 3.4 32.4a571.4 571.4 0 008.9 60.8 76.7 76.7 0 0020.7 40.3 243.5 243.5 0 0021.4 18.3 11 11 0 014.7 8.5c1.4 16.5-1.7 32.2-5.7 48A56.7 56.7 0 01372 988a48.8 48.8 0 00-13 20.6c-1 3-2.9 6.6.5 9 3.2 2.2 6.2 0 9-2l10.4-7.7-1.5 6.6-3.3 19.4c-.3 2-.1 4.2 2 5.3 2.5 1.3 4.3-.3 5.9-2a21.3 21.3 0 003-3.8l12.7-21.7c1.5-2.6 2.5-5.5 6.2-6.6l2 5.4c1.7 4.6 3.3 9.3 5.1 13.8.8 2.2 2.2 4.1 4.9 4.1s3.9-2 4.8-4.2c1.2-3 2.5-6 3.5-9.1 4.1-12 6.9-24.5 13.4-35.6 4.4-7.4 8.4-15 12.3-22.7 4.1-8 8.5-15.9 9.1-25.2.2-3.4 1.1-3.6 6-2-.7 1.7-1.2 3.4-2 5-4.4 9.5-8.7 19-13.3 28.4-9 18.7-13.3 38.7-15.2 59.2-1.3 14.7-1.7 29.4-2.5 44.1-.2 3.6-.7 7-3.4 9.7-5 4.8-7.8 11-11 17-4 7.6-8.4 15-12 22.8-5 10.5-10.3 21-14.1 32-4 11.3-6.5 23.2-9.5 35-1.2 4.7-1.6 9.7-2.8 14.4-4.3 15.5-2.9 31.4-4.1 47-.5 5.5-1 10.5-3.5 15.3a75.4 75.4 0 00-4 8.3c-7.2 20-19.7 37.3-30.4 55.4a33 33 0 01-15.9 13.8c-8.3 3.5-16.2 7.8-24.3 11.7-4.3 2-8.4 4.4-12.8 6a273.1 273.1 0 00-41.8 19.3 73.4 73.4 0 00-12.2 9.2 7 7 0 00-1.6 8.5c1.3 3 4 4 7 4a47.4 47.4 0 007.3-.8c6.4-1.2 12.8-2.7 19.2-4 6-1.2 11.8-2.6 18.1-1.8a23.6 23.6 0 01-4.8 3.5c-5.5 3.5-11.2 6.7-16.4 10.6-9.1 6.8-16.6 15.3-23.4 24.3a40.8 40.8 0 00-5.8 10.7c-2.8 8 2.4 13.6 10.7 11.6a80 80 0 0022.3-8.3c4.8-2.8 9.7-5.4 14.6-8 14.1-7.4 29.5-12.4 41.8-23 1.2-1.1 3.1-1.5 5.4-2.4a18.7 18.7 0 01-.7 3.2c-6.6 13.6-13.3 27.2-19.8 40.9a74 74 0 00-4.2 10.9 6 6 0 002.3 6.6 6.7 6.7 0 007.5.6 18.6 18.6 0 003.6-2.3c3.8-3.2 8-6 11.2-9.6 12.4-13.9 24.6-28 36.9-42l4.3-4.9 1 4.2 5.7 23.3a33.6 33.6 0 0012.6 19c5 4 10.3 3.3 13.6-2a24.1 24.1 0 003.5-9c1.4-10.4 2.6-20.8 3.3-31.2.7-10 1-20 4-29.7 2.8-8.8 5.6-17.6 8.2-26.5a30 30 0 019.2-15c1.7-1.4 3.2-3.1 4.8-4.7a66.6 66.6 0 0016-26.5l17-48.8c.8-2.6 1.5-5.8.7-8.3-1-3.4.3-5.3 2.2-7.6 6.5-8.1 13.5-16 19.2-24.7 13-19.7 25.4-39.7 38-59.6a47.9 47.9 0 007.4-19.4c1-7 4-12.7 7.8-18.5 6-9.5 12.4-19 16.8-29.2a483.2 483.2 0 0016.5-45.6c3.2-10.2 4.8-20.8 7.2-31.2 1.4-6.3 2.4-12.8 7.8-17.6 1.7-1.4 2.4-4.2 3.1-6.5 2-6.1 2-5.8 8-5.5 18.4 1.2 36.8 2.7 55-1.3.4 0 .8.3 1.8.7a39.9 39.9 0 01.5 5.6 63.8 63.8 0 004.5 26.5c2.8 7.2 5.8 14.4 9.2 21.4 7.5 15.3 15.6 30.2 22.9 45.6a155 155 0 0030.3 46 8 8 0 011.8 4.8c.5 7.4.2 14.8 1 22 1.2 10.8 2.3 21.7 6.7 31.8l20.9 50a149.9 149.9 0 0035.8 53.8 52 52 0 0114.2 22 36.4 36.4 0 011.3 22.3 55.6 55.6 0 01-19.1 27.3c-21 17-42.6 33.3-63.7 50.3-7 5.6-13.4 12-19.8 18.4-3.5 3.5-3.7 6.8-1.5 9.9 2 2.6 5.1 3.3 9.5 1.7l8-3.1c7-3 13.8-6.2 20.8-9.1 13.2-5.5 27-9.4 39.7-16.4a31.1 31.1 0 0114.5-4.4 11.2 11.2 0 01-.5 2.3c-7 15.4-14.3 30.8-21.4 46.2-1.7 3.8-1.2 7.1 1 9 2.5 2.2 6 2 9.6-.5a69.1 69.1 0 008.7-7c13.5-13.5 29.9-23.4 45.1-34.9.8-.6 2-.7 3.4-1.1l.6 4.7c1 15.6 6.3 30 14.3 43.3 3.2 5.3 6 6.7 9.7 5.7s5.5-3.8 5.5-9.9c.1-9.2-.2-18.4-.3-27.6l.3-5.3 3.4 3.1 19.5 17.8a16 16 0 004.1 2.7c6.1 2.8 11.4-.8 11-7.5a26.8 26.8 0 00-1.3-6.6c-5.3-16-5.4-32.7-5.7-49.2-.3-16.8-2.7-33-8.4-48.8a529 529 0 01-11-34 29.5 29.5 0 01.2-20.4c1-2.3.8-5.3.7-8-.6-12.2-1.5-24.5-2-36.7-.7-15.2-5-29.5-8.9-44-3.8-14.6-8.7-29-13-43.5a107.2 107.2 0 00-16.7-33.4c-3.9-5.3-7-11-10.8-16.4-4-5.8-4.3-11.6-2-18 3.2-9.6 6.4-19 9-28.8 2.5-9.3 4.6-18.6 5-28.4.7-19.3-3.2-37.8-8.7-56.2l-3.6-11.7a91 91 0 00-16.3-34.1c-6.3-7.3-12.3-14.9-18.4-22.3-2-2.5-4.5-4.7-4.9-8l44.6-21.3a17.6 17.6 0 011.8 1.4 171.1 171.1 0 0037.6 28.5l15.5 8.8a153 153 0 0044.3 19.3c3.2.7 4.8 2.4 5.4 5.7 2.8 15.6 4 31.4 2.5 47.1-1.5 16.5-3.2 33-7.8 49.2a23.4 23.4 0 00-.3 5c3.3 1.2 5-.2 6.5-2l14.7-17.4c1-1.3 2.3-2.4 4.2-4.4.5 2.3 1 3.4 1 4.5-.6 13 3.1 25.6 4.5 38.4.1 1.7 1.5 4.3 2.9 4.7s4.3-.8 5-2.2c2.6-4.1 5-8.5 6.3-13 1.9-7 2.7-14.2 4-21.2l1.6-9z" class="cls-1"/><path d="M178.3 1551.8H24.6c2.6-2.3 5-4.9 7.7-6.9a25.5 25.5 0 008.5-10.3c2.8-5.9 6-11.6 8.8-17.5 3-6.3 5.7-12.7 8.1-19.2 2.1-5.6 3.6-11.4 5.7-17 7.3-19.1 12.7-38.9 18-58.7a87.3 87.3 0 003.8-28.4 41.2 41.2 0 01.1-4.3c.7-16.6 1.6-33.2 2-49.8.3-15.3 0-30.7 0-46a178.7 178.7 0 015.5-41.4l1.7-8.4c3-14.6 1.5-29.4 2.2-44.1 1-18.4-3.3-35.8-7.8-53.3-3.5-13-7.2-26-10-39.2-2.6-11.6-5.2-23.3-6-35.1a215 215 0 011.5-48.5 515 515 0 005.2-79.6c0-3.7.2-7.3.4-11 .5-8.1 1.3-16.3 1.5-24.5.3-8-.4-16 .2-24S84 869 85.6 861a4.5 4.5 0 013.2-2.8c1.1 0 2.6 1.4 3.5 2.6.6 1 .7 2.4.8 3.6.4 6.5 1 13 1.3 19.6a72 72 0 007 32.7 30.4 30.4 0 012.5 7.5c3.2 13 2.2 26.1 1.3 39.2-1.5 19-2.9 38 0 57a173.5 173.5 0 011.7 19.5c.5 14.4.3 28.7 1.3 43 .5 7.7 2.9 15.2 4.4 22.8.8 4.2 2.1 8.4 2.2 12.6.6 25.8.9 51.6 1.2 77.4L117 1315c.2 22-3.2 43.2-12.7 63.3-.7 1.5-1 3.1-1.7 4.6-3 7.2-2.8 14.9-3.2 22.4-.7 11-1.4 22.2-.3 33.1 2.2 21 10.6 40 23.4 56.7 7.3 9.6 14.3 19.5 22.6 28.2 9.4 9.8 18 20.8 31 26.5.9.3 1.4 1.3 2 2z" class="cls-1"/><path d="M178.3 1551.8c-.7-.7-1.2-1.7-2-2-13-5.7-21.7-16.7-31-26.5-8.3-8.7-15.4-18.6-22.7-28.2a111.5 111.5 0 01-23.3-56.7c-1.1-11-.4-22 .2-33.1.4-7.5.2-15.2 3.3-22.4.6-1.5 1-3.1 1.7-4.6 9.4-20 12.8-41.4 12.7-63.3q-.5-59.7-1.2-119.3c-.3-25.8-.6-51.6-1.1-77.4-.1-4.2-1.5-8.4-2.3-12.6-1.5-7.6-3.9-15.1-4.4-22.8-1-14.3-.7-28.6-1.3-43a173.5 173.5 0 00-1.6-19.6c-3-19-1.5-38-.1-57 1-13 2-26.2-1.2-39a30.4 30.4 0 00-2.6-7.6 70.8 70.8 0 01-7-32.8c-.3-6.5-.8-13-1.3-19.6-.1-1.2-.1-2.6-.8-3.5-.8-1.2-2.3-2.7-3.5-2.7a4.5 4.5 0 00-3.2 3c-1.5 7.7-3.2 15.6-3.8 23.5s0 16-.2 24c-.3 8.2-1 16.3-1.5 24.5-.2 3.7-.5 7.4-.5 11 0 26.7-1 53.2-5.1 79.6a215 215 0 00-1.6 48.5c.8 11.7 3.4 23.5 6 35 3 13.2 6.6 26.2 10 39.3 4.6 17.5 8.8 34.9 7.9 53.2-.8 14.8.7 29.6-2.2 44.2l-1.8 8.4a178.7 178.7 0 00-5.4 41.3c0 15.4.3 30.8 0 46.1-.4 16.6-1.3 33.2-2 49.7a41.2 41.2 0 00-.2 4.3c.6 9.8-1.2 19.1-3.8 28.5a597.7 597.7 0 01-18 58.7c-2 5.6-3.5 11.4-5.6 17-2.5 6.4-5.2 12.8-8.1 19.2-2.8 6-6 11.6-8.8 17.5a25.5 25.5 0 01-8.5 10.3c-2.8 2-5.2 4.6-7.8 7h-5a6.2 6.2 0 011-1.6c16.3-14 24.9-33 32-52.3 7.6-20.1 13.6-40.8 20-61.3a257 257 0 005.9-22 91.6 91.6 0 001.8-14.6c.9-15 1.7-30.2 2.2-45.3.4-8.2.2-16.4.3-24.6v-37c0-14.2 2.4-28 5.3-41.9a209.3 209.3 0 003.8-29.2c.6-10 0-20 .2-30.1a91.5 91.5 0 00-3.3-24.9c-4-15.2-8.1-30.4-12-45.7-1.3-4.6-2-9.2-2.9-13.9-.5-3-2.3-4-5.2-3.5a23 23 0 00-13 6.4 131.9 131.9 0 00-26.4 36.8l-8.5 16.5 11.9 10.4c7.3 6.7 14.5 13.4 17.3 23.4a29.9 29.9 0 011.3 4.7c1.4 13.9 9 24.1 18.9 33.2 9 8.4 10.5 18.6 4.1 29.2a42.5 42.5 0 01-16.4 16.2c-4.5 2.4-9 2.4-13.8 1.5a9.1 9.1 0 01-7-6.4c-1.5-4.4-3.4-9-3.8-13.5-.8-9.2-1.6-18.5-.6-27.6a66 66 0 016.8-20.1c1.3-2.6 5-3.9 8.1-6.2-1.2-18.4-15-28.4-28.4-39.6a44 44 0 00-7.2 17.6 130.6 130.6 0 00-1.5 17.1c-.3 7 0 14-.1 21 0 1.9.5 4.2-2.8 5.3-.6-1.1-1.7-2.2-1.6-3.3.2-12.7.2-25.4 1.1-38 .7-10.7 6-20 10.7-29.3 5.5-11 11.7-21.6 18-32.2 5-8.7 12-16 19.7-22.6 4-3.4 9-5.1 15.9-5.8-.2-2.3-.3-4.7-.7-7-4.8-26.8-3.9-53.4.6-80.1a170.4 170.4 0 002-21.4c.7-16.1 1-32.3 1.4-48.5a53.5 53.5 0 01.5-8c3-16.5 1.5-33.1 1.8-49.7a9.6 9.6 0 00-.4-2.4l-.5-.3a.7.7 0 00-.6 0c-5.9 10.5-15.7 18.5-19.7 30.1-2.7 7.8-4.8 15.7-6.8 23.6a4.7 4.7 0 001.8 4c13 7.3 12.6 19.3 10.5 31.3-1.6 9.3-4.6 18.3-7.4 27.3-2 6.6-6.7 11.8-11.7 16.3-7 6.3-16 5.9-23.7.5-9.3-6.6-10.3-16-8.2-26.3 2.7-13.1 10.5-23.3 18.3-33.6l5-6.2a66.3 66.3 0 0015.4-31 55.1 55.1 0 017.5-17.3c4.8-7.6 10.6-14.5 16-21.7 3.4-4.2 6.2-8.7 7.2-14.1l1-4.8c1.5-5.5 2.5-6.5 6.6-6.6 5.2 0 8.6 2 9.5 6.8 1 5.5 1.3 11 1.8 16.5.8 8.8.8 17.7 2.4 26.3 1.2 6 4.4 11.8 6.6 17.6a13.5 13.5 0 0010.9-2.3c2.7-1.9 5.2-4 8-5.7a64.2 64.2 0 0151.5-7c10 2.7 20 6 30 8.9 7 2 14.3 3.2 21.3 5.5a75.2 75.2 0 0131.3 17.6 13.1 13.1 0 007 3.1c3.3.6 6.2 1.5 8.7 4s6 4.3 8.6 6.9c7.8 8 10 18.1 8.7 29-.7 6.3-5 9.4-11.3 9.8-12.8.9-20.5-5.6-26-16.6-3.7-7.1-4.4-13.9-1-21.1a8.1 8.1 0 00-1-9.2 37.4 37.4 0 00-15.4-12.8c-4.3-1.6-8.5-3.6-13.8-5.8a21.5 21.5 0 001.1 3.6c3 5.1 6.3 10 9.2 15.2 3.5 6.3 6.7 12.7 10 19.1 1 1.9 2.8 3.7 1 6.2-3 .8-3.6-1.5-4.5-3.2l-13.4-25.6a43.2 43.2 0 00-27.5-22.3l2 4c6.8 12 8.8 25.1 9.5 38.5.4 7.8.1 15.6-.1 23.4a7.8 7.8 0 002 6c1.3 1.4 2.2 3 3.5 4.3 6.2 6.2 8 13.5 7.2 22a19.6 19.6 0 01-13.3 16.8 9.5 9.5 0 01-9.8-1.9 19 19 0 01-6.6-15.2 39.7 39.7 0 016.7-22.7c4.9-7.2 6.1-14.8 5.9-23.2-.3-11.5-.5-23-4.5-34-2.6-7.2-5.8-14-13.1-17.7a12.6 12.6 0 01-2-1.4c-11.5-9.2-24.6-10.4-38.4-8a59.6 59.6 0 00-6.6 1.3l-10 3.6c4.6 4 7.6 8.2 13.7 5.2a7.1 7.1 0 014.8 0c7.3 2.3 14.3 5.2 17.8 12.8 1.2 2.5 2.6 4.7 3.9 7a26.6 26.6 0 012.8 20.7c-1.6 5.9-3.1 11.5-7.2 16a22.3 22.3 0 01-7.3 5.4c-5.5 2.3-9.3 1-13-3.7A39.8 39.8 0 01140 952l-.1-21c-.1-4.6-.8-9-6.3-10.6-1.8-.6-3.3-2.3-5.1-3.5-6.4 2.7-10.6 9.4-18.3 8.6 0 7 .2 13 0 19.1-.5 11.3-1.7 22.5-2 33.7-.1 11.5.2 23 .7 34.4s1.9 22.8 2.5 34.3c.6 12.7.5 25.4 1.4 38 .5 6.4 2.8 12.7 4.1 19.1.9 4 2 8 2.3 12 .3 8.4 0 16.8.2 25.2 0 6.5.4 6.8 7 6.9 6 0 12-.2 17.9.1a64.8 64.8 0 0113.9 2 17.9 17.9 0 018.2 5 84.7 84.7 0 019.1 13c1.8 3 3.5 4.9 7.2 4.3a18.2 18.2 0 0113 3 37 37 0 0015.5 5 50.8 50.8 0 0139.4 25c5.7 9.8 9 20.3 8.9 31.6 0 7.2-3.3 10.6-10.5 10.8a52.7 52.7 0 01-12.2-1c-7.5-1.7-11.5-7-12.3-14.4a76.9 76.9 0 01.2-14c.4-6 .9-12-2.8-17.2-1.3-1.8-2.5-4-4.3-5.1-6-4-12-7.8-18.2-11.3a137 137 0 00-12.9-5.8c-1.2-.6-2.5-.9-4.8-1.6.5 2.3.6 4 1.3 5.2 4 6.7 7.8 13.5 12.2 19.9 3.9 5.5 7.7 11 10.3 17.3 2 5 5.3 9.3 7.5 14 5.3 11.5 3.6 22.9-1.2 34-3.7 8.5-20.6 10-26.1 4.8a11.6 11.6 0 01-3.8-6.8c-1-15-1.8-29.9 6.5-43.6 2.3-3.9 4.8-6.3 10.5-6-2.1-3.3-3.4-5.8-5.2-8-8.4-9.8-13.9-21.6-19.8-33-2.6-5-5.6-9.6-8.5-14.2-2.8-4.5-7-6.8-12.2-7.3-4.5-.5-8.9-.8-14.2-1.2.6 2.3.7 3.7 1.4 4.8a86.3 86.3 0 0110.4 28.7 24 24 0 006.9 12.7c7.4 7.5 8.3 15.3 3.4 24.4a42.8 42.8 0 01-20 18.5c-6 2.8-10.6.2-11.1-6.6a38.4 38.4 0 0110.8-29.8c2.6-2.9 5.1-6 5.4-10a35.4 35.4 0 00-.4-9.7c-2.4-11-5.2-22-13.7-30.3-2.2-2.2-8-3.6-10.7-2a4.7 4.7 0 00-2 3.5l.2 28.9c.1 4 .8 8.1.9 12.2v70.7c.2 17.5 1.3 34.9 1 52.3-.3 20-4 39.4-12.5 57.8a47 47 0 00-4.6 19c-.2 8.2-.7 16.4-1 24.6a109.2 109.2 0 0023 70.3 332 332 0 0026.2 31.8 255 255 0 0019.7 18.4c3 2.7 6.9 4.4 10.3 6.6 1 .6 2 1.4 2.9 2.2zM58 961.3h-.8a36.2 36.2 0 000-5.6c-.7-4.9-2.7-9-7.4-11.3-3.9-2-5.5-1.8-8.3 1.8-5.8 7.4-11.4 15-17.3 22.3a55 55 0 00-9.8 23.6 21.1 21.1 0 00.8 10.8c3.2 9.5 17.3 16.4 26.5 5.2a40 40 0 0010-19.4c.6-4 2.2-7.8 3.1-11.8 1.2-5.2 2.1-10.4 3.2-15.6zm-9.7 252.3c-1.2 1-2.8 1.8-3.4 3-4.7 8.4-9.5 16.9-8.2 27.1.3 2.4-.3 5 0 7.4a175.5 175.5 0 003.8 20.4c1.6 6 3.8 7.2 10 6.5a17.8 17.8 0 006.9-2.3 36 36 0 0013-13.6c5-8.9 4.1-16.2-3.3-23.2-5.1-4.9-10.6-9.6-13.6-16.3a103.2 103.2 0 00-5.2-9zm103.3-289.4c-4.3 0-6.7 2.1-6.8 6.5q-.2 12 .2 24c.1 6.1 2.6 11.6 5.9 16.6 4.1 6.6 9.3 6.8 14.4 1 4-4.4 5.2-10 6.7-15.5a19.3 19.3 0 00-1.2-13.7c-1.8-3.7-3.8-7.3-5.8-10.9-3-5.4-8.2-7.1-13.4-8zm64 262l-.5 1.7c2 1.7 4.1 3.3 6 5.1 5.2 5.2 9 11.2 8.6 19-.3 4.6-1 9.3-1.1 14-.3 12.3 4.7 18.2 19 17.7a9.9 9.9 0 001.2-.1c4.4-.6 5.8-2 5.8-6.4a57.5 57.5 0 00-1.1-11.5A49.4 49.4 0 00227 1190c-3.5-1.8-7.6-2.5-11.4-3.8zm-29.5 65.1v11.8c0 2.8 1 5.2 3.5 6.8 5.6 3.3 16.7.3 19-5.9 3.4-9.1 4.5-18.7.2-28-2-4.3-5-8.3-7.6-12.4-2.2-3.4-4-3.6-6.6-.8a23.3 23.3 0 00-2.9 4c-4.8 7.8-6 16.4-5.6 24.5zM262 945c-.7 3-.6 6-1.8 8.2-4.5 8.5-1.3 15.6 3.2 22.8s11.2 9.7 19.3 9c4-.3 6-2 6.4-6a29.4 29.4 0 00-27.2-34zM151 1200.4l-8.4 10.2a27.3 27.3 0 00-2.2 3 35.9 35.9 0 00-6 20.2c.2 3.5 1.9 5 4.6 3.8 8.8-4 15.8-10 19.2-19.5 3-8.2 1-13-7.2-17.7zm58-209.3a38.5 38.5 0 00-8.9 20 28.7 28.7 0 00.4 8.5c2 8.8 8.8 10.8 15.4 4.7a14.3 14.3 0 004.5-9c1.5-10.6-4-17.4-11.3-24.2z"/><path d="M985 1031.4l-1.6 8.8c-1.3 7-2.1 14.3-4 21.1-1.3 4.7-3.7 9-6.2 13.2-.8 1.4-3.7 2.6-5.1 2.2s-2.7-3-2.9-4.8c-1.4-12.8-5-25.3-4.5-38.4a25 25 0 00-1-4.4c-1.8 1.9-3.1 3-4.2 4.4-5 5.7-9.8 11.5-14.7 17.3-1.5 1.8-3.2 3.2-6.5 2a23.4 23.4 0 01.4-5 271 271 0 007.8-49.1c1.5-15.8.3-31.5-2.6-47.2-.6-3.3-2.2-5-5.3-5.7a153 153 0 01-44.4-19.2l-15.4-8.9a171.7 171.7 0 01-37.6-28.5 18 18 0 00-1.8-1.4l-44.6 21.4c.4 3.3 3 5.5 5 8 6 7.4 12 15 18.3 22.2a91 91 0 0116.3 34.1l3.6 11.8c5.5 18.3 9.4 36.8 8.7 56.2-.4 9.7-2.5 19-5 28.4-2.7 9.6-5.8 19.2-9 28.7-2.3 6.5-2 12.3 2 18 3.7 5.4 6.9 11.2 10.8 16.5a107.2 107.2 0 0116.6 33.4c4.4 14.5 9.2 28.9 13.1 43.5 3.8 14.4 8.2 28.8 8.8 44 .6 12.2 1.5 24.5 2 36.7.2 2.7.4 5.6-.6 8-3 6.8-2 13.7-.1 20.4 3.2 11.4 6.8 22.8 10.8 34 5.7 15.8 8.2 32 8.5 48.7.3 16.6.3 33.3 5.7 49.3a26.8 26.8 0 011.3 6.6c.4 6.7-5 10.3-11 7.5a16 16 0 01-4.1-2.7l-19.5-17.8-3.4-3.2-.3 5.4c.1 9.2.4 18.4.3 27.6 0 6.1-2 9-5.5 9.9s-6.5-.4-9.7-5.8a96 96 0 01-14.3-43.3c0-1.4-.3-2.8-.6-4.7-1.3.5-2.6.6-3.4 1.2-15.2 11.4-31.6 21.3-45.1 34.9a69.1 69.1 0 01-8.6 7c-3.6 2.5-7.2 2.6-9.6.5-2.3-2-2.8-5.3-1-9 7-15.5 14.2-30.9 21.4-46.3a11.2 11.2 0 00.4-2.2 31.2 31.2 0 00-14.5 4.3c-12.6 7-26.5 10.9-39.7 16.4l-20.8 9c-2.6 1.2-5.3 2.3-8 3.2-4.4 1.6-7.6 1-9.5-1.7-2.2-3-2-6.4 1.6-9.9 6.3-6.3 12.7-12.8 19.7-18.4 21-17 42.6-33.3 63.6-50.3a55.9 55.9 0 0019.1-27.3c2.4-7.6 1-15-1.3-22.3a52 52 0 00-14.2-22 149.9 149.9 0 01-35.8-53.8 4700 4700 0 00-20.9-50c-4.3-10.1-5.4-21-6.6-31.7-.8-7.3-.6-14.7-1-22.1a8 8 0 00-1.8-4.9 154 154 0 01-30.3-46c-7.3-15.3-15.4-30.2-22.9-45.5-3.4-7-6.4-14.2-9.2-21.4a63.8 63.8 0 01-4.5-26.5 39.9 39.9 0 00-.5-5.6c-1-.4-1.4-.7-1.8-.6-18.2 4-36.6 2.4-55 1.3-6-.4-6-.7-8 5.4-.7 2.3-1.4 5.1-3.1 6.6-5.4 4.7-6.4 11.2-7.8 17.5-2.4 10.4-4 21-7.2 31.2a481 481 0 01-16.5 45.6c-4.5 10.3-10.8 19.8-16.9 29.3a45.2 45.2 0 00-7.7 18.4 47.9 47.9 0 01-7.4 19.4c-12.6 20-25 40-38 59.7-5.8 8.6-12.7 16.5-19.3 24.6-1.9 2.4-3.2 4.2-2.1 7.7.7 2.4 0 5.7-.8 8.3-5.5 16.3-11.3 32.5-16.9 48.7a66.9 66.9 0 01-16 26.6c-1.7 1.6-3.2 3.3-4.9 4.7a30 30 0 00-9.2 15l-8.1 26.4c-3 9.7-3.3 19.8-4 29.8-.7 10.4-2 20.8-3.4 31a24.1 24.1 0 01-3.5 9.2c-3.3 5.3-8.5 6-13.6 2a33.6 33.6 0 01-12.6-19.2l-5.6-23.3-1-4.1-4.4 4.8c-12.2 14-24.4 28.1-36.9 42-3.2 3.6-7.4 6.5-11.1 9.6a18.6 18.6 0 01-3.7 2.3 6.7 6.7 0 01-7.5-.6 6 6 0 01-2.2-6.6 74 74 0 014.1-10.9c6.5-13.7 13.2-27.3 19.8-40.9a18.7 18.7 0 00.7-3.2c-2.3 1-4.1 1.3-5.4 2.4-12.3 10.7-27.7 15.6-41.8 23-4.9 2.6-9.8 5.2-14.5 8-7 4.1-14.6 6.5-22.4 8.3-8.3 2-13.5-3.6-10.7-11.6a40.8 40.8 0 015.8-10.7c6.8-9 14.3-17.5 23.4-24.3 5.2-3.9 11-7.1 16.5-10.6a23.6 23.6 0 004.8-3.5c-6.3-.7-12.2.6-18.1 1.8-6.5 1.3-12.9 2.8-19.3 4a47.4 47.4 0 01-7.3.8c-3.1 0-5.7-1-7-4a7 7 0 011.6-8.5 73.4 73.4 0 0112.2-9.2 273.1 273.1 0 0141.8-19.3c4.4-1.6 8.5-3.9 12.8-6 8-4 16-8.2 24.3-11.7a33 33 0 0016-13.7c10.7-18.2 23.1-35.4 30.5-55.4a75.4 75.4 0 013.9-8.4c2.4-4.8 3-9.8 3.4-15.2 1.3-15.7 0-31.6 4.1-47 1.3-4.7 1.7-9.7 2.9-14.5 3-11.7 5.5-23.6 9.4-35 3.9-11 9.1-21.5 14.1-32 3.7-7.8 8-15.2 12-22.8 3.2-6 6-12.1 11-17 2.8-2.6 3.3-6 3.5-9.6.8-14.7 1.2-29.5 2.5-44.2 1.9-20.5 6.2-40.5 15.2-59.2 4.6-9.4 9-18.9 13.3-28.3.8-1.7 1.3-3.4 2-5-5-1.7-5.8-1.5-6 2-.6 9.3-5 17.2-9 25.2-4 7.6-8 15.2-12.4 22.6-6.5 11.2-9.3 23.6-13.4 35.6-1 3.1-2.3 6.2-3.6 9.2-.9 2.1-2 4.1-4.8 4.1s-4-1.9-4.8-4l-5.1-13.8-2-5.5c-3.7 1.1-4.8 4-6.2 6.6l-12.6 21.8a21.3 21.3 0 01-3.1 3.8c-1.6 1.7-3.4 3.3-5.9 2-2.2-1.1-2.4-3.3-2-5.4 1-6.4 2.1-12.9 3.3-19.3l1.5-6.6-10.5 7.7c-2.7 2-5.7 4.2-9 2-3.3-2.4-1.5-6-.4-9 2.8-7.8 6.7-15 13-20.6 8.8-8 14.2-17.8 17.1-29.2 4-15.8 7-31.6 5.7-48a11 11 0 00-4.9-8.7 243.1 243.1 0 01-21.4-18.2 76.7 76.7 0 01-20.8-40.4 571.4 571.4 0 01-8.9-60.8c-1-10.8-2.8-21.5-3.3-32.3-.8-17-1.1-34-.7-51a83 83 0 014.3-21c4.8-16.1 10.1-32 15-48.1 1.3-4.1 2.3-8.4 3.1-12.6 3.3-15.9 10.4-30 19.4-43.5 5.2-7.8 9.8-16 14.4-24.3 8.5-15.1 16.5-30.7 27.8-44.1 6.4-7.5 13.4-14.4 20.1-21.5 9.8-10.3 19.6-20.4 29.2-30.8 4.8-5.3 9-11.1 13.6-16.6a311 311 0 0155-48.9 31.7 31.7 0 016.9-4c10.4-4.2 21-8.3 31.5-12.2A78.6 78.6 0 01601 367a40 40 0 005.2-.8c-1.4-2.7-3.8-3-5.7-3.5-10.1-3.3-20.3-6.6-30.5-9.6-17.5-5.2-35.3-9-53.7-8.9a100 100 0 00-31.9 5.4c-12.2 4.2-24.7 7.3-37.2 10.7A79.2 79.2 0 00423 372c-8.2 5.7-16.4 11.6-25.2 16.4-7.7 4-16.2 6.7-24.4 10-27.8 11.4-56.3 21-82.4 36.6-10.7 6.4-21.8 12.2-32.7 18.3a41.8 41.8 0 01-40.7-.2c-8.9-4.5-12.8-13.5-14-23.4-1-8.9 2.2-17 6.6-24.5a143.5 143.5 0 0127.7-32c12.5-11.5 24.8-23.2 38-34 9-7.4 19-13.6 28.7-20 21.4-14.1 44.7-25 68.2-35 6.2-2.6 12.9-4.2 19.3-6.3 10.2-3.5 20.6-6.8 30.7-10.8 7.5-3 14-7.5 17.8-15.2 1.5-3.1 3.5-6 5.2-9 2.4-4.5 2-9.2 1.4-13.9-.5-3.8-3.6-6.1-7-7.2-6.7-2.2-13.6-4.4-20.6-5.5-16-2.6-31.9-.8-47.5 2.9-6.8 1.6-13.5 3.5-20.2 5.4a75.3 75.3 0 00-35 21.8 186 186 0 01-42.7 33.8c-14.2 8.2-28.3 16.6-42.4 25-3 1.8-5.5 4.3-8.5 6a153.2 153.2 0 01-15.3 7.5c-8.5 3.5-17.2 6.4-25.7 10-4.2 1.8-8.4 3-13 2.8-9.3-.4-15.9-6.1-16.8-15.5-.8-7.8-.8-15.5 1.1-23.2 3.7-14.6 9.4-28.3 15.9-42a165.7 165.7 0 0126-37.7c7.8-9 14.7-18.6 22.2-27.9 7.7-9.5 15.5-19 23.4-28.4 7-8.4 14.2-16.5 21-25a205.6 205.6 0 0132.3-31c7.2-5.8 14.4-11.5 21.7-17.1 19-15 40.6-25.2 63.7-32.5 8.1-2.6 16-6.3 23.9-9.5a7.7 7.7 0 002.6-1.4c6.4-6.6 15.1-6.8 23.2-8.8a344.5 344.5 0 0121-4.4c9.2-1.2 18.6-2.4 28-3.4 5.2-.5 10.5-.8 15.9-.8 19.6-.2 39.3 0 59-.2 5.7-.1 11.3-1.2 17-2 5-.5 10-1.7 15.1-2 20.1-.6 40.2-.7 60 3a82.4 82.4 0 0010.4.8l44.2 2.4a22.2 22.2 0 012.4.3l34.5 5.5a20.7 20.7 0 014.2 1c15.6 6.2 31.2 13 42.9 25.6A120.3 120.3 0 01799.8 79c4.2 7.2 7 15.2 10 23a33.2 33.2 0 012 11.5 170 170 0 004.2 34.8c1 5.2 1.6 10.5 2.4 15.8.4 2.8.6 5.7 1.5 8.4 5.2 15.7 5.9 32.2 8.7 48.3a163.2 163.2 0 012.2 29.4c-.1 15 .3 30-.1 44.9-.2 7.3-1.4 14.6-2.5 21.9-1.5 9-3.2 18.1-5 27.2a39.9 39.9 0 01-2 8.3c-1.3 3-1 5 1.6 6.9 7 5.2 14 10.6 21 16a8 8 0 008.7.9c4.6-2.2 9.2-4.4 14-6.2a10.6 10.6 0 016.4-.3c9.4 3 19 3 28.6 3.4a206.4 206.4 0 0129.2 3.1c14.7 2.7 29.5 5.4 43.8 9.6a222.9 222.9 0 0157.1 23.7 122 122 0 0122.3 18.2 327.3 327.3 0 0131.8 38.2 32.8 32.8 0 013.3 5.2c1.5 3.2 1.9 6.6-1.3 9-2.8 2-2.7 4.3-1.6 7a241.9 241.9 0 0112.6 51.8 228.5 228.5 0 012.6 30.6c.3 50.2.2 100.4.1 150.6a154.8 154.8 0 01-6 43.7c-6 20-10.9 40.3-17 60.3-9.3 29.9-20.2 59-39.8 84a641 641 0 01-17.6 21.3c-1.8 2-3.2 4-3.3 7-.2 5-1 10.1-1.2 15.2-.5 16.2.3 32.3-1.7 48.5-1.5 11.7-.4 23.8-.4 35.7 0 3.7 0 7.4-.2 11-.4 5.7-3.2 8-8.6 6.3a15.3 15.3 0 01-7-4.5c-3.1-3.8-5.6-8-8.4-12.1l-3.6-5.5zM644 732.8c2.4-11 2.3-22.3 2.6-33.6a204.7 204.7 0 012.8-26.8c1.3-7.8 2-15.4.8-23.2-2-12.3-7.4-23-16.7-31.4a14.6 14.6 0 00-14.2-3.6L607 617c-1.8 8.5-2.4 17.4-5.5 25.1-3.2 7.6-7.9 15.1-16.2 19-2.4-3.3-.1-4.5 1.4-6.1a45 45 0 0012.8-21.3 109 109 0 00-.8-40.9c-.4-2-1.7-3.7-2.6-5.5-2-3.5-5.1-4.6-9-4a33 33 0 00-19.7 10.3 620 620 0 00-14.3 16.8c-1.4 1.7-2.5 3.1-5 2-1.8-.6-3 .4-3 2.6a20.9 20.9 0 002 .2c9.7 0 15.7 5.6 15.6 15a71.7 71.7 0 01-1.6 14c-1.3 6-3.3 11.8-4.6 17.8-3.1 14.4-6.7 28.4-16.7 39.8-3.4 3.8-6.9 7.6-10.2 11.5-1.4 1.6-2.6 3.4-3.7 4.9l11.2 12.3a33.5 33.5 0 002.3-2.9 81.2 81.2 0 0122.5-22.4c9-6.3 18.3-5 23.6 4.7 5.8 10.6 11 21.7 7 34.5-.9 2.7.2 4.3 2.7 5.3 1 .3 1.8 1 2.7 1.3 8.2 3.3 13.1 9 13.6 18 0 1 .5 2 .6 3 .5 8.4 1.4 16.8 1.2 25.1a25.5 25.5 0 001.2 10 62.6 62.6 0 012.6 32.7 18.7 18.7 0 01-1.8 5.2 2 2 0 01-3.8-1.2c.2-2 1-4 1.3-6 1.7-13.6 1-26.7-8.4-37.8a20 20 0 00-29-2.6c-4.3 3.6-8.4 7.7-12.7 11.5-3 2.7-5 5.8-5.3 10a17.6 17.6 0 01-1.4 4.2h-1.3c-.5-1.2-1.5-2.3-1.5-3.5-.3-3.5-.3-7-.3-10.4 0-7.4-.4-14.7-3.4-21.7-1.7-3.8-2.8-7.9-8.2-7.3a10.3 10.3 0 01-.2-2.2c.8-5.7-.4-7.8-5.8-8.1a78.2 78.2 0 00-14.7.6c-7.8 1-14.5 4.1-18.6 11.5-.7 1.2-2.1 2-3.3 3-.8-1-1.2-1.2-1.3-1.5a4.1 4.1 0 010-2.4c3.1-5.3 6.1-10.8 12.7-12.6l17.2-4.8c5-1.3 5.4-2 5.7-7.1a78 78 0 00-2.9-26 10.5 10.5 0 00-9-7c-1.4-.2-3.4.3-4-.4-3.6-3.7-7.3-1.8-10.9-.5a70.6 70.6 0 00-7.8 3.5c-5.3 2.6-5.8 2.3-8.2-3a159 159 0 00-6.6-12.5A13.3 13.3 0 00473 704c-6.3-.7-12.6-1.4-19-1.6-8.2-.3-11 1.8-14.3 9.6-.7 1.7-1.2 3.9-2.5 4.8-3.4 2.4-3.5 5.7-3.7 9.2-.4 7.8-1 15.5-1.3 23.3-.1 1 .4 2.2.9 4.8 4.2-4.7 7.7-8.3 10.8-12.2a53.5 53.5 0 0119-15.3c4.4-2 9.4-3.3 13.6-.6 6.7 4.3 12 10.1 12.3 18.8.2 7.4.6 14.7 3.1 21.8.6 1.7 1.3 3.6-1.3 5-.5-.4-1.5-.6-1.8-1.2-1-2.5-2.3-5-2.7-7.5-1-5.8-1.5-11.7-2-17.7-1-13.4-12.3-19.2-23.5-12a62.8 62.8 0 00-14 12.8c-3.9 4.5-7 9.7-12.9 12.1a3.8 3.8 0 00-1.7 2.8c-.2 11.4-1.4 23 2.6 34.1 1.1 3.3 1.9 6.7 3 10a28.9 28.9 0 001.7 3.5c1.5-1.6 2.7-2.7 3.7-4 3.8-4.5 7.3-9.4 11.4-13.6 10.1-10.2 22.5-9.3 35-6.2 1.7.5 3 2.6 4.2 4.2 2.8 3.7 5.3 7.7 8.2 11.4a20.3 20.3 0 014.7 12.4c0 1.3-1 2.6-1.5 4l-1.6-.2c-.6-1.9-1-3.7-1.8-5.5a49.7 49.7 0 00-3.5-7.7c-2.4-3.8-5.2-7.4-7.8-11-1-1.2-2-3-3.3-3.3-12-2.7-23.4-2.8-31.9 8-4.5 5.8-9.2 11.4-14 17.2 1.4 7.3 12 25.3 17.3 28.9 5.1-8.7 10.5-17 20.9-20.6 9.9-3.3 19.5-4.2 28.3.7 3-2.2 5.4-4.7 8.3-5.7 13.5-4.8 24.2-.6 35 9.7a14.3 14.3 0 014 6.9c1.7 7.7 3 15.6 4.4 23.4l1 5c4-3.6 7.4-6.8 11-9.7 5.2-4 10.7-5 16.6-1.6a59.5 59.5 0 008.7 4.6c5.7 2 9.8 5.9 13 10.8l3.6 5.2 2.5-3.9c6.2-10.3 13-12.2 23.7-6.6l5.5 2.9c2.4-3.4 2.5-6.7 2.6-10 .6-14.3-.6-28.6-1.8-42.8-1-10.6-8.3-15.3-17.7-16a47 47 0 01-7.3-1c-.9-.2-1.5-1.5-2.5-2.6 4.6-2.7 9-1.5 13-1 7.2 1.2 17.5 6 18.5 17q.6 7.3 1.5 14.6c.1 1.7.6 3.3 1.2 6.2a41 41 0 002.9-4.2c2.5-5.4 6.9-9 11.3-12.7 9.4-7.7 30.1-3.3 32.3 10.8.7 4.4 1.3 8.9 2.1 13.3.4 2 1 4.1 1.8 7 2.2-2 3.6-3.1 4.8-4.4 4.6-4.5 9.5-5.4 15.7-3.3 8.6 3 15 8.4 20.6 15 1.7 1.8 2.9 4.4 5.7 4.8a7 7 0 00.9-1.3 9.3 9.3 0 00.2-1.9c.8-18-1.4-35.4-9.2-52-5.2-11.2-12.7-18-25.7-18.5-12.3-.3-14 .5-16.4 12.6-.4 1.8-.6 3.7-.9 5.5a11.6 11.6 0 01-.7 3.6c-.7 1.3-2 3.2-3 3.2-2.3.1-2.5-2.2-2.5-4s.3-3.7.4-5.6c.1-5.3.6-10.6.2-16-.5-6.4-4-10.5-9-10.7-8.2-.3-16.3-.4-24.4 1.8-7.2 2-13 4.7-14.6 12.9-.4 2-1.2 4.4-4.7 4.3-.1-1.3-.7-2.5-.4-3.5 4-12 3.5-24.6 3.2-37a31.7 31.7 0 00-2.7-10.5 8 8 0 00-7.8-5c-7.2 0-14.4-.2-21.5 0-3.2.2-6.5.8-8 4.7-.4.9-2.1 1.2-3.2 1.8-.6-1.2-2-2.7-1.6-3.5.6-1.8 1.8-4 3.4-4.7a30 30 0 019.9-2.8c5.3-.5 10.6 0 16-.3a24.3 24.3 0 0116.7 4.7 52 52 0 013.6 23.4 88.6 88.6 0 000 9.2 18 18 0 001 3.7 6 6 0 001.6.4 19 19 0 003.6-.8 75.2 75.2 0 0128.4-3.7c6.5.1 11 2.8 13.4 8.9l2.3 5.3c4.2-1 7.6-2.2 11.2-2.6 2.5-.3 5.3.4 8 .3 13 0 21.6 6.8 27 18a91 91 0 0110.2 33.2c.6 9 .4 18 .6 27-4 5.6 0 9.6 2.7 13.8l11.9 18.6c.2.4 1 .4 2 .7l2.2-7c2.1-7.4 3.9-14.8 6.3-22 6.7-20.1 4.7-40.4.4-60.6a29.3 29.3 0 00-9.8-16c-6.1-5.3-12.9-4.2-17.2 2.6l-2.3 3.4c-3.2-1.6-2.1-4-2.1-6 0-10 .8-20.1-.3-30-1.5-14.3-11.9-23-25-22.2a24.2 24.2 0 00-8.6 2.7c-2.7 1.3-5.1 3.3-7.8 5-1.5.8-3 1.1-4.1-1.5 2.8-4.7 7.8-7.1 12.5-9a24.3 24.3 0 0123 .8 30.7 30.7 0 0111.5 13.2c3.8 8 4.4 16.5 4.3 25.2 0 2.8.3 5.6.5 9.1 5.9-1.5 11.4-2.6 15.9 1.2 4 3.3 7.4 7 12 11.5-4.6-11.3-8.7-21.5-13-31.6-6.1-14.5-12.7-28.9-18.6-43.5-2.7-6.6-4.2-13.7-6.5-20.5-2-6-4.5-7.6-10.9-7.8-5.2-.1-9.4 2.3-13.8 4.4-4.3 2-6.8.3-6-4.1 1.4-7.6 2.6-15.5 5.5-22.6a26.1 26.1 0 00-1-23c-2.9-5.5-7-9-13.9-7.7a40.5 40.5 0 01-6.1.3 69.7 69.7 0 01-7.4 0 2.7 2.7 0 01-2-1.8c0-.7 1-1.7 1.7-2.1a5 5 0 012.3-.5l14.8-.8a13 13 0 0110 4c8.2 8 10.8 21.6 6.2 32.4a61 61 0 00-3.2 9.2c-.8 3.3-1.1 6.7-1.6 10l21.8-3a30.6 30.6 0 000-4l-3.8-28.5a113.2 113.2 0 01-1.4-15.3c.1-15.8 1.1-31.5 1-47.3-.1-20.6 4.1-40.2 10.4-59.7 4.3-13.2 7.5-26.8 11-40.3 1.6-6 .9-7.1-5.5-8.1a35.9 35.9 0 01-17.4-8.4 16.6 16.6 0 00-1.9-1.2 5.1 5.1 0 00-1.4.4c-1.4 1.2-2.7 2.5-4.2 3.6a18.4 18.4 0 01-4.7 2.8c-.8.3-2-.5-3.2-.8.5-1 .6-2.5 1.4-3a46.3 46.3 0 0020-40 13.8 13.8 0 00-3.4-8.3 23 23 0 00-34.5 1.3c-1.9 2.4-4 4.7-5.8 7.1-1 1.1-2.1 2.3-2.3 3.6-.6 5.1-1 10.3-1.4 15.8l3.6-.4c8.2-1.8 10.3-.8 12.8 7 4.1 13 2.8 25.9-1.2 38.7-.4 1.2-2.3 3-3.2 2.8-2.7-.6-1.5-2.8-1.1-4.5l.9-3c2.6-10.5 3.4-21 .5-31.6-1.6-5.6-2.8-5.9-8.4-4.7a54.9 54.9 0 00-19.7 9.8c-8 5.5-15.6 11.3-23.5 16.8-.8.6-2.1.3-3.2.4 0-1.1-.5-2.6.1-3.3a24.3 24.3 0 014.4-4.2c9-7.2 17.8-14.4 27-21.3 6.3-4.8 9-10.4 6.6-18.2a8.9 8.9 0 01-.2-3c.4-6.4-2.4-11.5-6.5-16-4.8-5.3-11-4.5-17.2-4-5.2.4-5.7 4.6-7.3 8-5.8 12.4-11.3 25-20.7 35.3-6.4 7-13.3 13.4-20 20-.4.4-.5 1.1-.3.8l11 19.2a49.6 49.6 0 016.3-3.6c14.1-5.7 22.8-3 27.1 10a71.2 71.2 0 013 13.7c1 8.6 1.8 17.2 2.3 25.7.5 7.7 0 15.2-3.4 22.3-1 2.1-1.9 4.6-6 3.9a29.2 29.2 0 011.4-5.1 33 33 0 003.3-16.7c-.6-10.7-1.2-21.3-2.5-31.9a51.1 51.1 0 00-4.6-14.5c-1-2.1-3.6-4.5-5.8-4.8-4-.4-8.5-.4-12 1.3a48.3 48.3 0 00-17.1 14.5l-9.2 12.3c-3.6 5.1-7.5 10-10 17 3 0 5.2-.2 7.4 0 6.7.5 13.6.6 20 2a25.8 25.8 0 0119.3 22.4c.8 6.1 1.5 12.2-.5 18.3-.2.6.2 1.4.4 2.6l6.7-2.4c9.4-2.8 19 1 22.6 9.8a70 70 0 015.5 18.8c2.1 19.1 2.2 38.1-5.8 56.2a32 32 0 00-1.3 5.5l5.6.6c6.6.3 11.4 3.6 13.6 9.7a89.1 89.1 0 013.3 13.7c.6 3 .3 6.1.9 9.1 1.3 7.5-.2 14.7-1.4 22-.3 1.8-.8 3.7-4 3.7-.2-1.5-.9-3.1-.5-4.5 2.4-9.8 1.5-19.6.2-29.3a46.7 46.7 0 00-3.5-14.2c-3.5-7.2-16-7.6-20.7-1.2a81 81 0 01-5.6 6c-.4-2.6-1-3.8-.6-4.6a26.2 26.2 0 012.5-4.3 94.8 94.8 0 008.8-82c-4-12.3-15.6-14.9-25.3-6.2-2.9 2.6-5.5 5.5-8.4 8.1-1.8 1.8-3.8 5-6.5 2.4-2.3-2.1.3-4.5 1.7-6.4a39.5 39.5 0 008-29.4c-1.4-10.2-7.5-18.5-17.6-20.2-7.2-1.3-14.6-1-22-1.2-4.2-.1-7.3 2-9.6 5.6-1.3 1.9-3.1 3.4-5 5.4-1.3-4-1.4-4-.6-5.3 6.5-11.3 12.3-23 21-33.1 1.5-1.8 3.4-4 3.7-6.2.4-3.6 2.3-5.5 5-7.3s4-4 3.6-7.2A21 21 0 00617 483c-1.3-1.3-3.4-2.6-5.2-2.6-9 0-18-1.3-26.7 2.2-1.3.5-3.7.3-4.4-.6s-.5-3.3.3-4.4c6-8.4 11.8-17.3 19-24.8 6.6-7 10-14.2 8.2-23.7-.3-1.8-.5-3.7-.9-5.5-2-8-5-15.6-10.7-21.8-4.7-5.1-5.6-5-11.2-1.4l-3.2 2c-15.6 9.7-31 20-44.8 32.3-2.5 2.2-5.3 4.3-6.9 8.3l4.7-.3c10.9-.4 21.7-1.3 32.5-.9 7.6.3 12.4 5.5 13.6 12.9 1 5.9 1 11.9-1.7 17.5l-14.5 29.8-5.8 10.9c5 1.6 9.3 2.8 13.5 4.4 3.7 1.4 6.5 4.2 6.6 8.1 0 10.3.1 20.5-.8 30.7-.9 9.7-7 17.3-12.2 25.2-2 3-3.5 6.2-5.3 9.3a7.8 7.8 0 004.5-2.1 41.6 41.6 0 0121-9.7c5.5-1 10 .7 13.1 5.7a27.8 27.8 0 014.5 13.2l1.8 15.9 8.7-2.9c10.4-3.8 18.8-.6 25.8 7.5a58.2 58.2 0 0114.4 47.3 348.7 348.7 0 00-4 50.2 70.2 70.2 0 01-1.2 11c-.5 3.3-2.2 5.7-5.7 6.3zm444-86.5c0-25.4.2-50.8 0-76.2a235.1 235.1 0 00-10-64.8c-1.8-6.3-3.5-12.6-5.8-18.8-2.6-7-5.5-14-8.8-20.8-1.7-3.7-4-7-4.6-11.3a11 11 0 00-3.2-5.7c-7.7-7.6-15.2-15.5-23.5-22.4-12.3-10.3-27-16-42-21.3-4.8-1.7-9.7-3.3-14.5-4.8-2.8-1-5.5-1.9-8.2-2.5-11-2.5-22-5-33-7.1a199.3 199.3 0 00-37.1-4.6c-6.2 0-12.3-.8-18.4-1-7.4-.2-14.8-.7-20.5 5.7-1.4 1.6-3.8 2.3-6 3-4.3 1.7-8.9 3-13.3 4.7-13 4.8-25.1 11-33.9 22.4l-15.8 20.4a87.1 87.1 0 00-16.4 38.6 477.2 477.2 0 01-14.2 54c-4.4 14.3-8.6 28.3-7.6 43.4l-.2 3.7-1.4 56.5a44.5 44.5 0 00.8 6.7l3.1 22.5c1.1 6.9 2.1 13.8 3.8 20.6a262 262 0 0019.5 52.9c6 12.1 10.2 25 16.3 37.1 9.9 19.5 16.6 40 23.4 60.7a67.3 67.3 0 0015.8 27.9c14 14 27.9 28.3 45.3 38.4 8.5 5 16.9 10 25.5 14.7 7.3 4 14.5 7.9 22.2 10.6a206.8 206.8 0 0048 10.4c5 .5 9.8 0 14.3-2.4a93.5 93.5 0 0026.9-20.2c4.8-5.5 9.3-11.3 13.7-17.2 9-12 16.9-24.7 22.6-38.7a366.7 366.7 0 0016.7-48.1c4.4-17.5 10-34.6 14.9-52 1.8-6.5 3.7-13 4.5-19.7a251.8 251.8 0 001.1-26.4c.2-23 0-46 0-68.9zM494.4 218.4l.7 5.6 3 15.7c2.9 15.1 6.1 30.1 8.6 45.3 1.8 11 2.8 22.3 4 33.5.4 2.4.2 5 .5 7.4.4 4.3 1 5 5.3 4.8 13-.6 25.2 2.8 37.7 4.8a109.5 109.5 0 0113.8 3.2c13.5 4 27 8.4 40.5 12.4 9.4 2.8 19 5.3 28.5 7.6 4.4 1 9 2.7 13.6-.2 1.5-1 4.5-.3 6.4.5a139.1 139.1 0 0058.2 10.4c8-.3 16 0 24 0a143.6 143.6 0 0029.3-2.2c9.9-1.9 19.8-3.4 29.7-5.2 3-.6 6.1-1.1 7.3-4.7 1.6-4.6 3.6-9.2 4.6-14 2.6-12.4 4.8-24.9 7-37.4a49 49 0 00.8-8.5V242a69 69 0 00-.6-9.2c-1.8-13-3.7-26-5.8-38.8-1.1-6.5-3.2-12.7-4.4-19.1-1.6-8.5-2.4-17-4-25.5a163.2 163.2 0 01-3.8-32.9 36.4 36.4 0 00-1.9-10.2c-2.7-9.5-7.3-18-12.3-26.6a73.1 73.1 0 00-29.4-27.2 79.4 79.4 0 00-37.9-11 31.4 31.4 0 01-7.3-1c-14.2-3.5-28.7-3.6-43.2-4.6-7.6-.6-15.3.2-22.7-1-18.5-3.1-37-3.5-55.7-2.9-5.9.2-11.7 1.4-17.6 2s-11.8 1.7-17.7 1.7c-19.4.3-38.9 0-58.4.2-6.5.1-13 1-19.5 1.7l-22 2.5a62.8 62.8 0 00-6.6.8l-21.5 5-6 1.6a6.9 6.9 0 00-5.3 5.4c-.7 3.4-1.2 6.7 0 10.3a137.7 137.7 0 0021.4 37.8 20.8 20.8 0 002.8 2.7c8-4.2 15.4-8.4 23-11.9 5.5-2.5 11.5-4 17.2-6.4 8.7-3.6 17.1-7.7 25.9-11.2a178 178 0 0169.5-13 37.7 37.7 0 0135.2 28.4c2.5 10.8 2.7 21.8 3 33a97.9 97.9 0 01-11.9 48.4 52.4 52.4 0 01-19.8 21.3 143.2 143.2 0 01-44 17l-40.8 8.2a15.8 15.8 0 00-1.4 1zM399 58.6c-6.3 2.2-12 4.2-18 6a176.2 176.2 0 00-62.7 34c-5 4.3-10.4 8-15.4 12.3-8 6.7-16.3 13.2-23.4 20.8-11.6 12.6-22.4 26-33.5 39.2l-16.7 20.4-28.9 36c-4.9 6.2-10.3 12.3-14 19.2a181.8 181.8 0 00-20 48.8 78.3 78.3 0 00-1.6 16.3c0 6 4 8.2 9.7 6 1-.4 1.8-1 2.7-1.4 9-3.4 18-6.7 27-10.3a94.4 94.4 0 0011.4-5.6c2.5-1.4 4.5-3.5 7-5 14.4-8.7 28.7-17.4 43.3-25.7a173.8 173.8 0 0041.5-32.4A81.8 81.8 0 01335 217a171.4 171.4 0 0186.4-14 70.5 70.5 0 0126.4 7.7c5.8 3.1 10.7 7.3 12 14 1.8 10.1 1.3 20-5 28.9a49.3 49.3 0 00-3.1 5.2 35.4 35.4 0 01-16.8 16.6c-10 4.6-20.2 8.8-30.7 12.4-13.3 4.6-27.1 7.9-39.8 14.2-8.8 4.4-17.7 8.7-26.4 13.2-22 11.1-43 24-61.3 40.5a1367 1367 0 00-42 39.5c-5.4 5.3-9.6 11.8-13.8 18a23 23 0 00-3.9 15.2c.6 5.8 2.7 11.1 8.2 13.6a29 29 0 0027.8-.8c10-6 19.7-12.4 30.5-17a21.3 21.3 0 002.7-1.4 233.6 233.6 0 0137.2-18.8q25.5-9.9 50.9-20c5.9-2.2 12-4.2 17.5-7.3 8-4.6 15.5-9.9 23.1-15.1a81.1 81.1 0 0134.6-15 51.5 51.5 0 007.7-2c12.3-4 24.6-7.9 37-11.6 2.8-.9 4.1-2 3.9-5.1-.5-6.4-.3-12.8-1.2-19q-3.2-22.2-7.3-44.3c-2.9-15.5-6.5-30.9-9.2-46.4-1.8-11-3.3-21.8-7-32.4a141 141 0 00-25-47.4 609.7 609.7 0 01-26.5-34 119 119 0 01-17.3-30.3c-1.9-4.9-3.5-9.9-5.5-15.4zm379.3 857.5a27.4 27.4 0 00-3.8 2c-6.7 4.7-13.4 9.3-20 14.2a533 533 0 01-80.7 51.4c-2.6 1.3-4.2 2.8-4.1 6 0 10.5.2 21 4.5 30.8 2.8 6.4 5.5 12.8 8.6 19 7.8 15.8 16 31.4 23.6 47.2 7.6 15.6 15.7 30.7 29.7 41.6 2.8 2.2 3.4 5 3 8.2-1.6 10.3-.5 20.5 1 30.7 1.1 7.2 2.3 14.6 5 21.4 6.8 17.7 14.4 35 21.6 52.3 7.6 18 17.7 34.1 32.2 47.5a65.4 65.4 0 0116.2 24.4 48.7 48.7 0 012.4 33.6 69.9 69.9 0 01-22.4 32.5c-15 12.4-30.4 24.2-45.7 36.4-1.9 1.5-3.6 3.3-5.5 5 7.8-1.8 15.4-3.5 21.8-7.2 9-5 18.6-7.6 27.8-11.6 4.5-2 9-3.8 13.6-5.6 3.2-1.4 6.4-1.6 9.1 1.1 2.5 2.5 2.5 5.6 1.2 8.6a45.4 45.4 0 01-4 6.9c-5.6 8.5-12 16.6-15.8 26.3a14.4 14.4 0 00-.4 3.2l1.7-.1c10.2-7.3 20.4-14.4 30.5-21.9 2.2-1.6 3.7-4.3 5.5-6.5s3.1-4.8 5-6.9c4-4.2 9.9-3 12 2.3a19 19 0 011.2 6.6c.1 7.1 0 14.3.2 21.5 0 2-.4 4.3 2.4 6.5v-17.4a46.1 46.1 0 01.3-6.7c.4-3 1.8-5.6 5-6.5 3.3-1 6 .3 8.1 2.9 1.7 2 3 4.4 4.5 6.6 3 4.6 6 9.2 9.3 13.7 1.5 2 3.6 3.5 6 6a17.1 17.1 0 00.8-3.3c-.7-13.7-1.3-27.4-2.3-41.1-.8-11-1.4-22-5.3-32.6a522.6 522.6 0 01-12.2-37.4c-3.6-12.9-6-26-1.8-39.3a8.7 8.7 0 00.3-3c-.5-10.5-.8-21-1.6-31.3a129.7 129.7 0 00-2.5-16.4 666.8 666.8 0 00-19.4-69.2 95 95 0 00-13.1-26.3c-5.7-8-10.7-16.5-15.7-25-3.6-5.9-3.7-12-1.4-18.7a592 592 0 0013.6-47.2 73.8 73.8 0 000-33c-3-13.8-7-27.4-10.6-41a84.3 84.3 0 00-17.4-34.2c-7.5-8.7-14.5-17.7-22-27zm-284 4.9a14.5 14.5 0 00-2.4 1c-1 .6-1.9 1.4-2.8 2.2a77.8 77.8 0 00-19 25.5c-4.7 10-9.1 20.1-13.5 30.3a80 80 0 00-3.6 11.7 222.7 222.7 0 00-6.6 59.7 99 99 0 01-3.5 27.3 17.3 17.3 0 01-5 8.3 44.9 44.9 0 00-7.5 9.5c-4.8 8.6-9.4 17.3-13.7 26.1-4.5 9.2-9.3 18.4-12.5 28-4.1 12.7-7 25.7-10.3 38.6-4.7 19-5.7 38.5-5.8 58a31 31 0 01-2.5 13.2c-3.8 8.4-7.4 16.8-11.4 25.1a223 223 0 01-8.3 15.8q-7.4 12.8-15.1 25.3a49.4 49.4 0 01-25.5 23 99.6 99.6 0 00-16.7 7.7 148.4 148.4 0 01-28 12.7 90 90 0 00-9.1 4l.4 1.4 5.7-.3c7-.7 14-1.2 20.8-2.2 10.1-1.6 20.1-3.5 30.2-5.3a42.1 42.1 0 016-1 6.4 6.4 0 016.6 4.5 6.6 6.6 0 01-2.6 7.6 15.8 15.8 0 01-3.2 1.8c-14.6 6.4-29 13.3-43.9 19a98.7 98.7 0 00-40.3 29.4c-.8 1-1.1 2.2-2.3 4.6l7.4-3.5 36.8-18.3a36.2 36.2 0 007-4c13.1-10.7 28.6-17.5 43.3-25.5 4-2.2 7.2-1.8 9.5.7s2.6 5.4 0 9.5c-3.2 5-7 9.7-10.1 14.7a861 861 0 00-13.9 22.4 19.9 19.9 0 00-1.4 4.3 4.5 4.5 0 003-1.6c8.4-10.2 17-20.4 25.3-30.8 3.4-4.3 6.1-9.2 9-14 1.9-3 4-5.2 7.9-4.7 3.2.4 5.1 3.2 5.7 7.8a28.2 28.2 0 01.1 3.6 142 142 0 006.7 42.4c.6 2 1 4.3 4.2 5.5a65.9 65.9 0 001.6-8c.6-7.3.9-14.7 1.3-22 .6-9.5 1-19 3.9-28 3.3-10.6 6.5-21.1 10-31.7a33.1 33.1 0 018.5-14l6.5-6.5c6.2-6.2 11-13.2 13.5-21.7 1.3-4.3 2.6-8.6 4.1-12.9 3.4-9.9 7-19.7 10.2-29.6.6-1.8 1.1-4.6.2-5.7-4.1-5-2.3-9.2 1-13.3 3.9-4.8 8.1-9.2 12-14 20-24.7 35.8-52.4 52.5-79.4a29.9 29.9 0 004.2-11.5 59.1 59.1 0 0110.5-25.2c5.8-8.9 11.6-18 15.8-27.7 5.9-13.7 10.4-28 15.4-42.1a127.2 127.2 0 003.5-13l8.1-34.7 3.4-12c-4-.6-7.6-1.4-11.2-1.8a45.9 45.9 0 01-31.3-14.9c-3.5-4-7.4-7.7-10.6-12-7.6-10.4-14.8-21-22.3-31.6-2-2.8-4-5.2-5.9-7.7zm-49.2-69a47.5 47.5 0 00-6.4 18.9c-1.3 10.3-2.7 20.7-4.3 31 0 .9-1.5 1.5-2.3 2.3-.7-.9-2-1.8-2-2.6a62.1 62.1 0 01.7-9.2c.5-3.6 1.4-7.2 1.9-10.8 1.3-10 1.7-20.1 6.7-29.1 2.7-4.8 2.4-8.7-.7-13-10.7-14.8-14.6-32.3-19.2-49.6a20.6 20.6 0 01-.7-5.4l1-43v-8.2c-4.7 1-5.4 4.1-6.3 7l-15.2 48a199.2 199.2 0 01-15.2 36.8 42 42 0 01-5.5 7.4c-.5.6-2 .4-3.1.5a11.7 11.7 0 01-.2-2.8 6 6 0 011.2-2.1 140.8 140.8 0 0017.3-37.9c5.5-16.7 10.6-33.5 15.9-50.4 1.4-4.6 3.6-8.6 7.6-11.5a8.3 8.3 0 003.6-6.8c1-19.2 2.4-38.4 3-57.6a199.4 199.4 0 016-41.9c6.4-25.6 13.8-51 20.8-76.5 1.3-5 2.2-10 4-14.8 8.2-22.6 18.8-44 34.3-62.8a56 56 0 003.1-4.7l-.8-1.2c-3.1.9-6.4 1.4-9.2 2.7a12.4 12.4 0 00-5.4 4.7 27.4 27.4 0 00-3.9 10.2c-1.3 13.3-9.8 21.6-19.6 29.1-1 .8-2.6.9-4 1.2l-1-1.4a62 62 0 014-4.8c3.6-3.6 7.6-7 11-10.8a17 17 0 003.2-16.2l-4.6 4.2c-5 5-10 10.4-15.2 15.3-16 14.8-28 32.5-38.3 51.5a631 631 0 01-21.8 37 118 118 0 00-15.1 34.7c-3.8 15-8.5 29.6-12.8 44.3-2.7 8.8-6 17.5-8 26.4-4 16.6-2.8 33.5-1.8 50.2.7 11 3 22 3.8 33a470 470 0 0010 71.7 63.7 63.7 0 0014.2 27.5c7.7 9.2 17.7 15.7 27 23a94.7 94.7 0 0064.5 19.2 41.8 41.8 0 0019-5.5 448.1 448.1 0 00-41.2-57.3zm18-305.3l1.3.9 8.3-4.6c4.1-2.5 8.4-4.6 13.3-4.2 4 .3 8 1.1 12 1.8 13.6 2.2 31 21.7 28 40.5-1.1 6.4-2.9 12.8-4.4 19.1-.3 1.6-1 3.6-3 2.9-.8-.3-1.5-2.4-1.4-3.5a101.4 101.4 0 012.8-13.3c4.7-15.3-1.5-26.9-12.9-36.3-9.5-7.9-22.3-8.3-33.2-2.2-3.8 2.1-7.3 5.2-12 4.5-5.6 14.4-16 54-15.3 59 6.1-1.5 12.4-2.6 18.4-4.5 10-3.2 20.2-3 30.4-2.7a9.8 9.8 0 018.7 4.9 34.8 34.8 0 013.6 7.7c3.9 12.8 7.4 25.6 8.8 39 .2 2 2 5-1.5 5.4-3 .3-2.6-3-3-5.1-1.7-7.8-3-15.7-4.7-23.5-1.4-6-3.3-11.8-5.3-17.7-1.3-4-4.1-6.2-8.7-6.2-9.7-.2-19.2.2-28.6 3-6.6 2-13.5 3.4-20.2 5-3.9 8.6-8.8 36.9-7.1 42.5a19 19 0 002.6-1.3c21.6-15 22.7-13.5 46.4-13.5h.6c7.8.2 11 2.9 12.8 10.5 1.1 4.8 2.1 9.6 3.6 14.3a98.4 98.4 0 013.7 32.2 8.3 8.3 0 01-.5 3.6c-.8 1.5-2.2 3.8-3.1 3.7-2.7-.2-1.6-2.6-1.4-4.4a85.5 85.5 0 00-2.2-30.5l-4.8-18.4c-1.2-4.7-2.8-6.2-7.7-6.3-5.3-.2-10.6 0-16 0a30.8 30.8 0 00-16.9 4.8c-3.3 2-6.8 3.9-9.8 6.3-4.7 4-10 7.9-9.8 15.3.2 8.6 0 17.2-.1 25.8 0 .7.6 1.3 1 2.2 3.5-2.8 6.7-5.2 9.8-7.8 8.3-7 24-8 32.8-1.8 7.6 5.4 12.3 13 15.4 21.6l2.5 6.2c7.3-3.2 14-5.7 21.4-5.2 1.5 0 3.4-1.4 4.6-2.6a120.4 120.4 0 008.5-8.8 72 72 0 0018.1-32.3c2.1-9.9 5-19.5 7.2-29.3a61 61 0 001.6-12.7c.1-7.5-4.4-11.2-11.8-10.2-3 .4-6 1.3-9 1.5-1.5.1-3.5-.4-4.3-1.4-1.3-1.8.2-3.4 1.7-4.6.8-.6 1.7-1.2 2.4-1.9a67.4 67.4 0 0014.3-16l18-30a37.1 37.1 0 005.7-16.7c.6-7.7.2-15.5.2-23.3a7 7 0 00-5-7 74.2 74.2 0 00-10-2.4c-7-1.2-8-2.9-4.8-8.9l18.5-36A28.5 28.5 0 00577 459c-.4-8.8-4-12.9-13-13-12.6-.2-25.3.1-37.7 3.5a20 20 0 00-10.8 6.5l-18.9 22.7c-14 16.7-23 36.1-30.5 56.4-1.3 3.6-1.8 7.7-2.8 11.6zm99 382.4h1.7c1.2-4.4 2.2-9 3.6-13.4a88.2 88.2 0 014.3-11.5 11.4 11.4 0 0111.3-7c3 0 6.2-.3 9.2 0 7.5 1 15.4 2 20 9.1a38.7 38.7 0 015.3 13c2.2 11.7 4.4 23.4 3.8 35.4-.2 6.3-.1 12.7 0 19a35.7 35.7 0 00.6 4.6c8 .3 15.7.8 23.4-.3 4.1-.6 8-1.8 10.8-5.3a5.3 5.3 0 016.7-1.5 8.3 8.3 0 008.1-.6c7.5-4.3 15-8.3 22.3-12.8a539.8 539.8 0 0051-34.1c3.8-3 5.4-6 3.9-10.5-2.7-8.4-5.2-16.8-8-25.1a70.6 70.6 0 00-4.9-10c-2.2-4.2-5.6-6.9-10.8-6.7-4.3.2-8.6.1-12.9 0-3.4 0-5.9 1.4-7.2 4.6l-2.4 6.3c-.7 2.3.3 6.2-3.6 5.9-3.4-.3-2.3-3.8-2.6-6-.7-6-2.7-11.5-8.7-13.8-9.6-3.6-18.9-3.1-27.2 3.6l-8.3 6.6c3 13.8 3.6 28.5 3.7 43.2 0 .5.5 1 1.4 2.3 1.3-2 2.4-3.5 3.6-5 1.7-2.4 3.3-4.8 5.2-7 3-3.6 7.3-4.6 11.7-3.8 9.2 1.7 15.7 7 19 15.7 2.1 6 3.5 12.2 5.3 18.3.4 1.7.6 3.3-2.3 4.3a21.7 21.7 0 01-2.5-4.3A120.5 120.5 0 01693 930c-1-4.7-3-9-6.7-12-7.3-6-15.3-7.9-21.5 2.4-6 9.7-12 19.1-10.7 31.2.2 1.7-.2 3.4-2.5 3.5-2.8-1.2-2-3.7-2-5.8q.2-17.5.7-35a149.3 149.3 0 00-3.4-34.8 22.8 22.8 0 00-2.8-7.4c-3.6-5.8-9-9.3-15.8-8.7-6.5.5-8.6 6.2-10.4 11.6a15.5 15.5 0 00-.5 1.8c-1 5-1.8 10-3 15-.3 1.1-1.5 2-2.3 3.1-1-1-2.6-2.1-2.8-3.3-.3-2.8.1-5.7.1-8.6 0-9.3-3.6-16.7-11.8-21.5-3.7-2.2-7.7-3.8-11.5-5.9-4.5-2.4-8.5-1.7-12.5 1.3a36 36 0 00-12.3 15.7c-.7 1.7-1.2 4-2.6 4.8-5 3.2-5.6 8.7-7.8 13.5-1.2 2.8-1.2 5.1.7 7.4 5.4 6.9 7.4 15 8.9 23.3.4 2.6 1 5 1.6 7.6zM446.5 114.6l3 4.7c3.2 4 6.6 7.9 9.6 12 5.4 7.7 11.5 15.1 15.7 23.4a197 197 0 0116 44.5c1 4.4 1.9 4.8 6.4 3.8 6-1.2 12-2.5 18.1-3.4 19.6-2.8 38.6-7.3 56-17.2a51.3 51.3 0 009-6.5 63 63 0 0015.5-28.2 43.3 43.3 0 002.3-11.3c.8-14.5 1.7-29.1-1.8-43.4a23.4 23.4 0 00-22-18.3c-7.7-.3-15.5.5-23.2 1.1-2.6.2-5.2 1.5-9 2.7 14.1 4.1 16.5 6.3 21.2 19a133.4 133.4 0 015.5 17.5 77.1 77.1 0 011.9 17c0 8.7-3.4 16-11 20.8-3.3 2-6.6 4.3-10.2 5.6a90.4 90.4 0 01-56 2.5 40.5 40.5 0 01-11.2-5c-7-4.6-11-11.5-10-19.8a44.1 44.1 0 017.8-21c5.9-8.4 13.8-14.5 22.1-20.1L518 84a187.1 187.1 0 00-21.5 7.7c-8.1 3.3-16.2 6.7-24.4 9.9a138.1 138.1 0 00-25.5 12.8zm114.9 853.9c-2.2-2.8-2.3-2.8-2.2-7.1a213 213 0 00-3-37.3 68 68 0 00-20.6-38.2c-3.5-3.6-6.7-4.4-11-1.7a35.7 35.7 0 00-9 8c-4.4 5.4-8 11.4-12.2 17.7l2.8 4.7c2.2 3.2 4.6 6.3 6.6 9.6 8.4 13.1 17.3 25.9 28 37.3 5.8 6.1 12.2 10.9 20.8 12 3.9.5 7.7 1.1 11.6 1.5 12 1.2 24 2.5 36 3.5 2.4.2 4.7-.3 7.5-.6 0-11.3.7-22-.2-32.6s-3.3-21-5.6-31.3c-1-4.8-4.5-8.2-9.3-9.8a48 48 0 00-18.2-2.4c-3.4.1-6 1.6-7.4 4.6-1.6 3.7-2.8 7.6-4.3 11.5-2.9 7.6-2.2 16.3-7.4 23.2-.7 1-.3 2.8-.3 4.2v18.4c-.1 2 .2 4.2-2.6 4.8zm222.3-585.6l-.5-1.3a23.1 23.1 0 00-2.9-.2c-5.5.4-11 1.3-16.5 1.3q-34.1.3-68.2.2a69.4 69.4 0 01-12.8-1.6c-6.6-1.2-13-3.5-19.7-4.1a142.2 142.2 0 01-23.6-4.1c-2.9-.8-6-1.7-9.7 0a16.7 16.7 0 002 1.4c5.4 2.6 11 4.7 16 7.7 7 4.1 11.9 10.2 13 18.5.7 5.4 1.7 6.2 7.9 5.3 8.8-1.3 15.8 1.4 20.6 9 2 3.2 3.8 6.5 6 10.5a84.5 84.5 0 016-6.8c2.6-2.4 5.2-5.8 8.5-6.6a47.2 47.2 0 0116.9-1.6c12.2 1.3 19.8 11 20 23.2 0 8.8-3.6 16.3-7.5 23.8-2.4 4.5-2 6.2 2.1 9.3a31.6 31.6 0 0014 5.6c4.9.8 5 .9 6.6-4 3.5-10.3 7-20.5 13-29.8a5.8 5.8 0 00.7-4c-3-12.5-9-17.4-22.2-18.6-1.8-.2-3.9 0-4.3-2.8 3.7-3 8.2-2 12.2-1.2 9.7 2 14.5 9.7 17.9 18.4 1-.5 1.8-.6 2.1-1a90.8 90.8 0 007-8.5 86.8 86.8 0 0141.1-33 51.5 51.5 0 005-2.7c-5.8-4.1-10.6-7.8-15.7-11.1-1.5-1-3.5-.7-4.5 1.9 1.7 1.4 3.5 2.7 5 4.2a1.9 1.9 0 01-1.8 3.1 10.2 10.2 0 01-3.3-1.4 16.2 16.2 0 00-15.9-.9 93.1 93.1 0 00-9.3 4.6l-23.2 14c-.8.4-2.2.2-3.3.2.2-1.2 0-3 .7-3.7a64 64 0 018-5.7c4.1-2.6 8.4-5 12.6-7.5zm158.2 658c3.8-1.5 5.3-4.5 7.3-7 3.3-4 6.2-8.6 9.5-12.7.9-1.1 2.8-2.3 3.9-2s2 2.2 2.5 3.6a13.8 13.8 0 01.3 4.9c-1 12.8 1.6 25.3 3.5 37.8a15.6 15.6 0 001.5 3.5 18.4 18.4 0 004.4-8.2c1.5-7 2.7-14 4-21.1a44.2 44.2 0 00-.3-21.9 2 2 0 01-.2-1.2c.4-1 .8-2.6 1.6-3a3.4 3.4 0 013 1 76.4 76.4 0 014.1 6.9c4 6.9 8 13.8 12.3 20.6a20.7 20.7 0 004.8 5.4c2.5 2 4.8.9 5.2-2.2a34.9 34.9 0 00.2-5v-30c0-4.6.4-9 .7-13.5.4-6.8 1.3-13.5 1.5-20.2.3-11.9.2-23.8.2-35.7 0-.5-.4-1-.9-1.9l-16.5 9.5c-5.2 3-10.9 5-17 4.4l-25-2.7-7-.8c.6 15.8 2 30.8 1.4 45.9s-3.2 30-5 45.6zM510.8 825.9a11.1 11.1 0 000 2 82.5 82.5 0 01-1.4 46l-5.2 17a32.7 32.7 0 01-2.4 5.6 2.3 2.3 0 01-2 .8 2.5 2.5 0 01-1.3-1.8 7.3 7.3 0 01.3-3c1.8-5.9 3.3-11.8 5.5-17.6a94.3 94.3 0 004.1-37.6 22 22 0 00-1.5-5.9 9.5 9.5 0 00-9.2-6.9c-13.3-.5-24.7 3-31.8 15.4l-5 8.8 40.4 56.4 5.6-8.4c4-6.2 7.7-12.5 14.6-16.2 7.2-4 12.3-3.3 18.1 2.5 2 2 4 3.8 6 5.5l1.6-1 2.7-7.6a58.5 58.5 0 002.6-38.4c-2-8.2-6.1-13.7-13.6-17.7a24 24 0 00-28 2.1zm-110.4 85.3c-.3 3.2-.8 6-.7 8.8.4 14.6-3.3 28.4-6.8 42.3a59.1 59.1 0 01-16.8 28.1c-3.9 3.8-6.9 8.6-9.9 13.2-1.5 2.2-2 5-3.2 8.5 5.4-1.4 8.3-4.3 11-7.2 4.6-5 8.9-10.2 13.4-15.3 1.3-1.4 2.7-2.6 4.3-4 2.3 4 2.4 4 1.1 6.5-2 4-4.5 8-6.1 12-2.6 6.5-4.7 13.2-6.7 19.8-.6 2-1 4.3 1.1 6.6 2-2.6 3.8-4.8 5.4-7.2 1.4-2.2 2.4-4.6 3.7-7 2.5-4.4 5-8.9 7.7-13.2 1.5-2.5 3.7-4.5 7-3.9s3.6 3.6 4.5 6.2l4.2 12.8c.5 1.1 1.6 2 3 3.8l3.6-9.4c3.6-10.7 5.9-21.8 11.5-31.7 4.8-8.6 9.6-17.2 13.9-26a181 181 0 007.7-19.4c.8-2.1.5-4.7.6-6.8-9.6-2-18.8-3.3-27.4-6.2s-17-7.2-26.1-11.4zm353.8 4l13.3-8.2c2-1.3 2.3-3 1.7-5.3a69 69 0 00-12.1-26 44.6 44.6 0 01-5.2-7.6c-4.1-7.7-10.4-13.6-16.2-20-4-4.3-9-6.9-14.5-8.8-4-1.4-7.3-.6-10.1 2.3-2.3 2.3-4.2 5-6.5 7.3-1.1 1-3 2.6-4 2.2-1.3-.5-2.4-2.4-3.1-3.9-.6-1.2-.3-2.8-.5-4.2-.8-6.1-1.2-12.3-2.4-18.3-2.3-10.6-15.8-15.7-24.7-9.5a30.2 30.2 0 00-12.1 15 124.1 124.1 0 00-3.8 14.3 432 432 0 00-4 21.7c-.2 2.2 0 4.6.2 8 6-4.8 10-9.8 16.6-11.3a47.3 47.3 0 0118.2-.5c6.8 1.2 10.3 6.7 15 11.2 3.2-6.2 8.5-7.2 14.3-7 4.3.3 8.6.4 12.9.4a11 11 0 0110.1 5.8 135.7 135.7 0 018.4 17c3.2 8 5.5 16.2 8.5 25.4zM596 393.2c.5 1.2.6 2 1 2.3 9.7 8.7 13.7 20 16 32.4 2 11.2-1.2 20-9.4 27.6-4.9 4.7-8.6 10.5-12.7 15.8-.8 1-.9 2.4-1.3 3.8a34 34 0 0030-8.4 132.3 132.3 0 0036-52.8c2.9-7.8 1.6-15.3-3.5-22-3.5-4.6-8.6-6.8-13.3-9.6-7-4.1-14-4-21.3-1.2-1.7.7-3.5 1.2-5.2 2a68.7 68.7 0 00-16.3 10.2zm-37.6 412a16.6 16.6 0 002.9-1.5c3.8-3.4 7.5-6.9 11.4-10.2 8-6.8 21-7.5 29.7-1.7l5.3 3.5a14.5 14.5 0 001-3 91.5 91.5 0 00-3.1-28 11 11 0 00-3.6-5.3c-5.6-4.3-12-7.6-19.2-6.8a44.9 44.9 0 00-31.5 17.1c-2.4 3.1-2.8 6-.8 9.6 4 7.2 6.7 14.9 6.9 23.3a12.4 12.4 0 001 3zm27.9-58.5a25.1 25.1 0 001.4-19.8 97.8 97.8 0 00-5.7-13.5c-4.2-8.1-10.3-9.4-17.7-4.1-7 5-13.9 10.1-18.6 17.7-1.7 2.7-4.4 4.7-6.4 7.2a6.6 6.6 0 00-1.4 3.8v26.9l7.5 4.2c5-6.6 10.7-12.1 18-15.7a66 66 0 0122.9-6.7zm208.3 145.6c.4-4.1.3-7 1-9.7 2.3-10.6 5-21.1 7.4-31.7a27.2 27.2 0 00-1.3-16.3c-.9-2-1.5-4.2-2.3-6.3l-11-30a11.2 11.2 0 00-3.6-5.4c1.3 8.8 2.9 16.9 3.5 25 1 13 1.5 26.1-2.5 39-4.3 13.7-8 27.5-11.8 41.3-.3.8.2 1.8.5 3.4zM580.4 386.9l-.6-1.6c-7.6 2.4-15.2 4.4-22.6 7.1a55.4 55.4 0 00-13.1 6.6 328.8 328.8 0 00-44 37.2c-5.7 5.8-10.8 12.2-16 18.5-.8 1-1 2.3-1.4 3.3H495c13-12.6 25.5-26.5 39.8-38.4s30.3-22 45.5-32.8zM486 140a82.5 82.5 0 018.4-2.5c12.3-2 24.7-3.6 37-6 7.6-1.4 15-4 22.5-6.1 2-.6 3.4-1.8 3-4-1-5.1-1.6-10.4-5.4-15.3l-11.3 3.9c2 5 1.3 8.4-3.4 10.7s-9.4 4.9-14 7.5a16.5 16.5 0 01-11.8 2c-3.8-.8-4.7-2-5-5.8v-2.7c-4.8.4-9 .7-13.2 1.2a4.5 4.5 0 00-3 1.7 23 23 0 00-3.8 15.4zm70.1-6.9c-19.7 8-40.6 7.7-60.4 13.5a12 12 0 005.5 2.6c4.8.6 9.7.9 14.6 1.3a67 67 0 0026.6-3.6c4-1.3 7.5-4 11-6.3 2.2-1.4 3.5-3.4 2.7-7.5zm251 722.5a219.7 219.7 0 00-8.4 34.5 61.6 61.6 0 0025.1-13.3l-16.6-21.2zm-258.6-758c-.5-3.6-2.8-5-5.5-5a37.6 37.6 0 00-10.9 1 85 85 0 00-29.7 17.7c-.2.1 0 .7 0 1.2l43.8-13.3c.8-.2 1.5-1 2.3-1.7zm-15 18c-5.1-.8-16.6 4.3-20.2 9 4.7 1.3 14-2.9 20.3-9zm-79.8 581.5l22.7 2a21.3 21.3 0 00-22.7-2z"/><path d="M58 961.3L55 977c-1 4-2.6 7.8-3.2 11.8a40.5 40.5 0 01-10 19.4c-9.2 11.2-23.3 4.3-26.5-5.2a21.1 21.1 0 01-.8-10.8 55 55 0 019.8-23.6c6-7.3 11.5-14.9 17.3-22.3 2.8-3.6 4.4-3.8 8.3-1.8 4.7 2.4 6.7 6.4 7.4 11.3a36.2 36.2 0 010 5.5z" class="cls-1"/><path d="M48.4 1213.6c2 3.4 3.9 6 5.2 9 3 6.7 8.4 11.4 13.6 16.3 7.4 7 8.3 14.3 3.3 23.2a36 36 0 01-13 13.6 17.8 17.8 0 01-6.9 2.3c-6.2.7-8.3-.4-10-6.5-1.8-6.7-2.7-13.6-3.7-20.4-.4-2.4.2-5-.1-7.4-1.3-10.3 3.5-18.7 8.2-27.1.6-1.3 2.2-2 3.4-3z" class="cls-1"/><path d="M151.7 924.2c5.2.9 10.4 2.6 13.4 8 2 3.5 4 7.1 5.8 10.8a19.3 19.3 0 011.2 13.7c-1.5 5.6-2.7 11.1-6.7 15.6-5.1 5.8-10.3 5.5-14.4-1-3.3-5-5.8-10.5-6-16.6q-.3-12-.1-24c.1-4.4 2.5-6.6 6.8-6.5z" class="cls-1"/><path d="M215.7 1186.3c3.8 1.2 7.9 2 11.4 3.8a49.4 49.4 0 0126.4 35.6 57.6 57.6 0 011.2 11.6c0 4.4-1.4 5.7-5.8 6.3a9.9 9.9 0 01-1.2.1c-14.4.6-19.4-5.4-19-17.7.1-4.7.7-9.4 1-14 .5-7.8-3.3-13.7-8.5-19-2-1.8-4-3.3-6-5z" class="cls-1"/><path d="M186.2 1251.3c-.5-8.1.8-16.7 5.6-24.5a23.3 23.3 0 012.8-4c2.7-2.8 4.5-2.6 6.6.8 2.6 4 5.6 8 7.6 12.5a35.5 35.5 0 01-.1 28c-2.3 6-13.4 9.1-19 5.8-2.6-1.6-3.4-4-3.5-6.8v-11.8z" class="cls-1"/><path d="M261.8 945a29.3 29.3 0 0127.2 33.8c-.5 4-2.4 5.8-6.4 6-8.1.7-14.8-1.6-19.3-9s-7.7-14.3-3.2-22.8c1.1-2.2 1.1-5 1.7-8z" class="cls-1"/><path d="M151 1200.4c8.2 4.7 10.3 9.5 7.3 17.7a34.2 34.2 0 01-19.2 19.5c-2.7 1.2-4.4-.3-4.5-3.8-.3-7.4 2.2-14 6-20.2a27.3 27.3 0 012.2-3l8.3-10.2z" class="cls-1"/><path d="M209.2 991.1c7.2 6.8 12.9 13.6 11.3 24.1a14.3 14.3 0 01-4.5 9c-6.7 6.1-13.4 4.1-15.4-4.7a28.7 28.7 0 01-.4-8.5c.6-6.3 4.3-14.4 9-19.9z" class="cls-1"/><path d="M1088 646.3c0 23 .2 46 0 69a250 250 0 01-1 26.3c-.8 6.7-2.7 13.2-4.6 19.7-4.9 17.4-10.4 34.6-14.9 52a367.9 367.9 0 01-16.7 48.2c-5.7 13.9-13.5 26.6-22.5 38.6-4.4 5.9-9 11.7-13.8 17.3a94 94 0 01-26.9 20.1 24 24 0 01-14.3 2.4 206.7 206.7 0 01-48-10.4c-7.7-2.7-15-6.7-22.2-10.6-8.6-4.6-17-9.8-25.5-14.7-17.4-10-31.3-24.3-45.3-38.5-8-8-12.3-17.3-15.8-27.8-6.8-20.6-13.5-41.2-23.4-60.7-6.1-12-10.4-25-16.3-37.1a262 262 0 01-19.6-53c-1.6-6.7-2.6-13.6-3.7-20.5-1.2-7.5-2.1-15-3.2-22.5a44.5 44.5 0 01-.8-6.7l1.4-56.5c0-1.3.3-2.5.3-3.7-1-15 3.2-29.2 7.6-43.3a485.3 485.3 0 0014.2-54c2.5-14 7.5-27.3 16.4-38.8q8-10.1 15.8-20.3a72.3 72.3 0 0134-22.4c4.3-1.7 9-3 13.3-4.6 2-.8 4.5-1.6 6-3.1 5.6-6.4 13-6 20.4-5.7 6.1.1 12.3 1 18.4 1 12.5 0 24.8 2.2 37 4.5 11.1 2.1 22 4.7 33 7.2 2.9.6 5.6 1.5 8.3 2.4 4.8 1.6 9.7 3.2 14.5 5a131 131 0 0142 21.2c8.3 6.9 15.8 14.8 23.5 22.4a11 11 0 013.2 5.7c.6 4.3 2.9 7.6 4.7 11.2 3.2 6.8 6.1 13.8 8.8 21 2.2 6 4 12.4 5.8 18.7a235.1 235.1 0 0110 64.8c.2 25.4 0 50.8 0 76.2zm-167.4-85c-4.1.3-7.8-.2-10.6 1-12 5.2-21 13.7-24 26.9-3.3 14.6-6.1 29.2-9.1 43.9a93.3 93.3 0 01-7.5 22.6c-5.3 11-10.7 21.8-15 33a363.4 363.4 0 00-17 58.4 177.3 177.3 0 00-2.5 17.6 5.6 5.6 0 004.6 6.4 6.2 6.2 0 007-3.6 29 29 0 002-6.4l4.1-20.5a309.3 309.3 0 0120.4-62.3c3.4-7.7 7.5-15 10.9-22.7 6.4-14.7 7.3-30.6 10.8-46 1.4-6.4 2.5-12.9 4.7-19a26.7 26.7 0 017-10.5c4.7-4.3 10.3-7.6 15.8-11.4.5 1.2 1 2.5 1.3 3.8 3.3 10 6.2 20 10 29.7 4.8 12.5 9.5 24.9 12.1 38 1.5 7.5 3.6 14.8 5.2 22.1 3.2 14.4 7 28.8 9.3 43.3 3 18.8 4.7 37.8 6.6 56.8 1.2 11.2 2 22.4 2.2 33.7.3 28 .1 56.1 0 84.2 0 4.3-.8 8.6-1.4 12.8-.5 4.9-1.6 9.7-1.7 14.6 0 4 2.5 6.5 5.8 6.8s6.2-1.7 6.8-5.7c1.5-10 3.5-19.9 3.7-29.8.5-24.4.2-48.8.1-73.2 0-7.6-.5-15.1-.8-22.7 0-1.6.2-3 .4-5.4a41.6 41.6 0 015.6 2.2 76.3 76.3 0 0132.7 37.1 39.9 39.9 0 002.6 5.5c1.5 2.4 3.8 3 6.5 2.5a5.2 5.2 0 004.2-4.7 11.8 11.8 0 00-.5-6c-2.6-5.8-5-11.8-8.5-17-10.6-16-24-29-44.4-33.6-.9-10-1.5-20.4-2.7-30.8a517.4 517.4 0 00-4.5-31.6c-1.8-10.3-4.2-20.4-6.4-30.7s-5.6-20.1-7-30.4c4.2.8 7.6 1.1 10.9 2 3.7 1 7.7 2 10.8 4 9.3 6.2 19.3 11.7 27 20.1a20.7 20.7 0 004 3c7.3 5 14.6 9.9 22 14.6a36.7 36.7 0 0111.4 11.8c1.3 2 2.5 4.2 3.9 6.2 2.7 3.7 5.8 4.8 8.9 3.3s4.2-5.2 2.3-9.2a52.2 52.2 0 00-19.3-23.2c-8.4-5.4-17.2-10.5-24.8-17a223.6 223.6 0 00-29.8-21.5c-9-5.5-18.6-8.9-28.4-.8-2.7-8-5-15.9-7.8-23.6s-6-15.2-8.7-23c-2.6-7.5-4.8-15.2-7-22.9-2.3-7.9-4.2-15.8-6.5-23.7l-7-23.5c-2.3-7.7-6-14.9-7.4-22.5 4.5.7 8.3 1.5 12 1.6 9.4.2 18.8 0 28.3.1 13 .1 24.6 3 33.3 13.9a199.4 199.4 0 0015.9 17 67.7 67.7 0 0048.4 19.1 24.5 24.5 0 007.2-1.1 5 5 0 003.7-5.2 5.2 5.2 0 00-3.4-5.3 28.1 28.1 0 00-6-1.2c-5.8-.9-11.8-1.2-17.6-2.6a42 42 0 01-12.9-5.3 104.2 104.2 0 01-24.7-22.9 44 44 0 00-33.2-18.6c-13.5-.5-27-.6-40.5-1-5.3 0-9.9 1-11.3 7.9L891.8 439c8.5 2.1 16.1-.6 23.8-2.4 5.4-1.3 10.5-3.6 16-4.7 8.3-1.8 17-2.8 25.3-4.3a48.9 48.9 0 009.5-2.4 5.5 5.5 0 003.5-6.5 5.8 5.8 0 00-5.5-5 21.6 21.6 0 00-5 .2l-7.8 1.2A173.5 173.5 0 00915 423a48.4 48.4 0 01-16.2 3.2c-5.8 0-10 1-12.2 8.6-1.9-2.5-2.7-4.3-4-5.5-7.5-6.7-15-13.3-22.7-19.7a14 14 0 00-7.2-3c-5.2-.5-8.1 4.5-5.6 9.1.7 1.2 1.6 2.4 2.5 3.6l-3 3.4a43 43 0 00-12 21.8 94.9 94.9 0 01-14 32.4 52.2 52.2 0 00-4.3 8.2c-1.7 4.2-.5 7.6 2.7 9s6.6 0 8.8-3.5c2.3-3.6 4.4-7.3 6.5-11 4.8-8.5 10.3-16.5 11.7-26.3a53.7 53.7 0 0113.7-26.5 61.4 61.4 0 0122.2 24.3 359 359 0 0115.5 36.7c7.2 20.7 13.5 41.7 20 62.6 1.2 3.7 2.1 7.4 3 10.9zm-41-85.3a14.6 14.6 0 00-3.5 1.8 31.8 31.8 0 00-5.7 5.5L853 508c-16.6 23.6-31 48.7-48.8 71.5a30.9 30.9 0 00-5.2 10.3 34.6 34.6 0 00-1 11.5c.2 3.9 2.7 5.9 5.8 6a5.7 5.7 0 006-5.5 2.7 2.7 0 000-.3c.6-8.5 5-15 10-21.3 12.5-15.3 22.1-32.5 33.3-48.7 10-14.6 20.5-29 30.8-43.5a17.6 17.6 0 002.6-4.2c1.4-4.1-1.5-7.9-6.9-7.7zM895 812.8a18.9 18.9 0 004.3-2.6c8-8 15.1-16.6 20.2-26.8 6.7-13.4 11-27.8 19-40.5l9.5-15a33.6 33.6 0 002.4-3.6 6 6 0 00-1.2-7.4 5.6 5.6 0 00-7.3-.5 19 19 0 00-5 4.4 177 177 0 00-21.3 38.7c-6 14.2-11.9 28.3-23.5 39a15.5 15.5 0 00-3.9 6.2c-1.3 4.2 1.6 8.1 6.8 8.1z" class="cls-1"/><path d="M494.3 218.4c.9-.6 1.2-1 1.5-1l40.9-8.3a143.2 143.2 0 0044-17 52.4 52.4 0 0019.8-21.3 97.9 97.9 0 0011.8-48.4c-.3-11-.5-22-3-33A37.7 37.7 0 00574 61.3a178.1 178.1 0 00-69.5 13c-8.8 3.5-17.3 7.6-26 11.2-5.6 2.3-11.6 3.8-17.2 6.4-7.6 3.5-14.8 7.7-22.9 11.9a20.8 20.8 0 01-2.8-2.7c-9-11.6-16.5-24-21.4-37.8a18 18 0 010-10.3 6.9 6.9 0 015.3-5.4l6-1.5c7.1-1.7 14.3-3.5 21.5-5a62.8 62.8 0 016.7-1l22-2.4c6.5-.6 13-1.6 19.5-1.7 19.4-.2 39 0 58.4-.2 5.9 0 11.7-1 17.6-1.7s11.7-1.8 17.6-2c18.7-.6 37.3-.2 55.8 2.9 7.4 1.2 15 .5 22.6 1 14.5 1 29 1.1 43.3 4.5a31.4 31.4 0 007.2 1c13.8 0 26.2 4.8 38 11.1A73 73 0 01785 79.7c5 8.5 9.6 17.1 12.4 26.6a36.6 36.6 0 011.8 10.2c-.1 11.2 1.6 22 3.8 33 1.6 8.3 2.4 17 4 25.4 1.1 6.4 3.3 12.6 4.3 19 2.2 13 4 26 5.9 39a69 69 0 01.5 9.1l.1 55.4a49 49 0 01-.8 8.5c-2.2 12.5-4.4 25-7 37.5-1 4.7-3 9.3-4.6 14-1.2 3.5-4.3 4-7.3 4.6-10 1.8-19.8 3.3-29.7 5.3a144 144 0 01-29.5 2.1c-8 0-16-.3-24 0a139.1 139.1 0 01-58.2-10.4c-1.9-.8-4.9-1.4-6.4-.5-4.7 2.8-9.2 1.2-13.6.2-9.6-2.3-19-4.9-28.5-7.6-13.5-4-27-8.4-40.5-12.4a109.5 109.5 0 00-13.7-3.2c-12.5-2-24.9-5.4-37.7-4.8-4.5.2-5-.6-5.4-4.9-.3-2.4-.1-4.9-.4-7.3-1.3-11.2-2.3-22.4-4-33.5-2.6-15.2-5.8-30.2-8.7-45.3l-3-15.7-.6-5.6z" class="cls-1"/><path d="M399.1 58.6l5.4 15.5c4 11.2 10.4 21 17.4 30.4 8.5 11.5 17.1 23 26.4 33.9 12 14 19.3 30.3 25.1 47.4 3.6 10.6 5.2 21.5 7 32.4 2.7 15.6 6.3 31 9.2 46.5q4 22 7.3 44.2c1 6.2.7 12.7 1.2 19 .2 3-1.2 4.3-4 5.1-12.3 3.7-24.6 7.7-36.9 11.5a51.5 51.5 0 01-7.7 2c-13 1.9-24 7.8-34.6 15.1-7.6 5.2-15.1 10.5-23.1 15.1-5.5 3.1-11.6 5-17.5 7.4l-50.9 20a233.6 233.6 0 00-37.2 18.7 21.3 21.3 0 01-2.7 1.5c-10.8 4.5-20.6 11-30.6 17a29 29 0 01-27.8.7c-5.4-2.4-7.6-7.8-8.2-13.6a23 23 0 014-15.1c4.2-6.3 8.4-12.8 13.7-18 13.7-13.5 27.8-26.6 42.1-39.5a277 277 0 0161.3-40.6l26.4-13.1c12.7-6.3 26.5-9.7 39.9-14.2 10.4-3.6 20.6-7.8 30.7-12.4 7.4-3.4 13-9.2 16.7-16.6a49.3 49.3 0 013.2-5.2 36.5 36.5 0 004.9-29c-1.2-6.7-6.2-10.8-12-14a70.5 70.5 0 00-26.4-7.7c-30-3.2-58.8 2.3-86.4 14a81.8 81.8 0 00-27.5 20.2 173.6 173.6 0 01-41.5 32.4c-14.6 8.3-29 17-43.3 25.7-2.5 1.5-4.5 3.6-7 5a94.4 94.4 0 01-11.5 5.7c-8.9 3.6-18 6.8-26.9 10.3-1 .3-1.8 1-2.7 1.3-5.7 2.3-9.7.1-9.7-5.9a77.8 77.8 0 011.6-16.4 181.8 181.8 0 0120-48.7c3.7-7 9.1-13 14-19.3l28.9-36c5.5-6.8 11-13.7 16.7-20.4 11.1-13.2 21.9-26.6 33.5-39.2 7-7.7 15.5-14 23.4-20.9 5-4.2 10.4-8 15.4-12.2a176.2 176.2 0 0162.8-34c5.9-1.8 11.6-3.8 18-6z" class="cls-1"/><path d="M778.4 916.1c7.5 9.3 14.5 18.3 22 27a84 84 0 0117.4 34.1c3.5 13.7 7.5 27.3 10.5 41a73.8 73.8 0 010 33 592 592 0 01-13.6 47.2c-2.3 6.9-2.2 12.9 1.4 18.8 5 8.4 10 17 15.7 25a95.3 95.3 0 0113.2 26.2 666.8 666.8 0 0119.4 69.2 129.7 129.7 0 012.5 16.4c.8 10.4 1.1 20.8 1.6 31.3a8.7 8.7 0 01-.3 3c-4.3 13.3-1.8 26.4 1.8 39.2 3.5 12.7 7.7 25.1 12.2 37.4 3.9 10.6 4.5 21.6 5.3 32.7 1 13.6 1.6 27.3 2.3 41a17.1 17.1 0 01-.7 3.3c-2.5-2.4-4.6-4-6.1-6-3.3-4.4-6.2-9-9.3-13.7-1.5-2.2-2.8-4.5-4.5-6.6-2-2.5-4.8-3.8-8.2-2.8-3.1 1-4.5 3.5-5 6.4a46.1 46.1 0 00-.2 6.8v17.4c-2.8-2.2-2.4-4.5-2.4-6.5-.2-7.2 0-14.4-.2-21.6a19 19 0 00-1.1-6.6c-2.2-5.3-8-6.4-12-2.2-2 2-3.4 4.6-5.1 6.9s-3.3 4.9-5.5 6.5c-10 7.5-20.3 14.6-30.5 21.8-.3.2-.8.1-1.7.2a14.4 14.4 0 01.4-3.3c3.8-9.6 10.2-17.7 15.8-26.2a45.4 45.4 0 004-7c1.3-3 1.3-6-1.2-8.5-2.7-2.7-5.9-2.5-9.1-1.2-4.6 1.9-9.1 3.7-13.6 5.7-9.2 4-18.9 6.6-27.8 11.6-6.4 3.6-14 5.3-21.8 7.1l5.5-5c15.3-12 30.7-23.9 45.7-36.3a69.9 69.9 0 0022.4-32.5c3.7-11.5 1.9-22.8-2.4-33.7a65.4 65.4 0 00-16.2-24.3 133.5 133.5 0 01-32.1-47.4c-7.3-17.4-14.9-34.7-21.8-52.3-2.6-6.7-3.8-14.2-4.9-21.4a102.7 102.7 0 01-1-30.6c.4-3.3-.2-6.1-3-8.2-14-11-22.1-26-29.7-41.7-7.6-15.8-15.8-31.4-23.6-47.2-3.1-6.2-5.8-12.6-8.6-19a75.8 75.8 0 01-4.5-30.8c0-3.3 1.5-4.8 4.1-6 28.7-14.4 55.1-32.3 80.7-51.5 6.6-4.9 13.3-9.5 20-14.2a27.7 27.7 0 013.8-1.9z" class="cls-1"/><path d="M644 732.9c3.5-.7 5.2-3 5.7-6.4a70.2 70.2 0 001.3-11c-.1-16.8 1.7-33.5 4-50.1a58.2 58.2 0 00-14.5-47.4c-7-8-15.3-11.3-25.8-7.5l-8.6 3c-.7-5.5-1.4-10.7-1.9-16a27.8 27.8 0 00-4.5-13.2c-3.2-4.9-7.5-6.6-13.1-5.7a41.6 41.6 0 00-21 9.7 7.8 7.8 0 01-4.5 2.2c1.8-3.2 3.4-6.4 5.4-9.4 5.2-7.9 11.3-15.5 12.1-25.2 1-10.1.9-20.4.8-30.6 0-4-2.9-6.8-6.6-8.2-4.1-1.6-8.4-2.8-13.4-4.4 2-3.8 4-7.3 5.7-10.9l14.6-29.8a28.7 28.7 0 001.7-17.5c-1.2-7.4-6-12.5-13.6-12.8-10.8-.4-21.7.4-32.5.8l-4.7.3c1.6-4 4.3-6 6.9-8.3a334.9 334.9 0 0144.7-32.3c1-.7 2.2-1.2 3.2-2 5.7-3.6 6.6-3.7 11.3 1.4a48.3 48.3 0 0110.6 21.9c.5 1.8.6 3.6 1 5.4 1.8 9.6-1.6 16.7-8.3 23.7-7.1 7.5-12.8 16.4-19 24.9-.8 1-1 3.5-.2 4.4s3 1 4.3.5c8.8-3.4 17.9-2.1 26.8-2.1 1.8 0 3.9 1.3 5.2 2.6 3.3 3.3 4.6 7.7 5.4 12.2.5 3.2-1.1 5.5-3.7 7.2s-4.5 3.7-5 7.3c-.2 2.2-2 4.4-3.6 6.2-8.7 10-14.6 21.8-21 33.1-.8 1.3-.7 1.4.6 5.3 1.8-2 3.7-3.5 5-5.4 2.3-3.6 5.4-5.7 9.6-5.6 7.3.1 14.8-.1 22 1.2 10 1.7 16.2 10 17.6 20.2 1.5 11-1.6 20.6-8 29.4-1.4 2-4 4.3-1.7 6.4 2.7 2.5 4.7-.6 6.5-2.4 2.9-2.7 5.5-5.5 8.4-8.1 9.7-8.7 21.3-6 25.3 6.1a94.8 94.8 0 01-8.8 82.1 26.2 26.2 0 00-2.5 4.2c-.3 1 .2 2.1.6 4.7a81 81 0 005.6-6c4.8-6.4 17.2-6 20.7 1.2a46.6 46.6 0 013.7 14.1 79.3 79.3 0 01-.3 29.4c-.3 1.3.3 3 .5 4.4 3.2 0 3.7-1.9 4-3.6 1.2-7.3 2.7-14.5 1.4-22-.6-3-.3-6.2-.9-9.2a89.1 89.1 0 00-3.3-13.6c-2.2-6.2-7-9.4-13.6-9.8-1.6 0-3.2-.3-5.6-.5a32 32 0 011.3-5.5c8-18.1 8-37.1 5.8-56.2-.7-6.4-3-12.8-5.5-18.8-3.7-8.8-13.2-12.7-22.6-9.8-2.1.6-4.2 1.4-6.7 2.3-.1-1.1-.6-2-.3-2.6 2-6 1.2-12.2.4-18.3a25.8 25.8 0 00-19.2-22.3c-6.5-1.5-13.4-1.5-20-2.1-2.2-.2-4.4 0-7.6 0 2.6-6.9 6.6-11.8 10.1-17L621 509a48.3 48.3 0 0117.1-14.6c3.4-1.7 8-1.7 12-1.2 2.1.2 4.8 2.6 5.8 4.7a51.1 51.1 0 014.6 14.5c1.3 10.6 1.8 21.3 2.5 31.9a33 33 0 01-3.4 16.7 29.6 29.6 0 00-1.5 5.1c4.1.8 5-1.8 6-4 3.4-7 4-14.5 3.5-22.2a418 418 0 00-2.3-25.7 71.2 71.2 0 00-3-13.7c-4.4-13-13-15.7-27.2-10a50.3 50.3 0 00-6.3 3.6l-11-19.3c-.1.4 0-.3.4-.7 6.6-6.6 13.6-13 20-20 9.3-10.2 15-23 20.7-35.4 1.6-3.4 2-7.5 7.3-7.9 6.2-.5 12.3-1.3 17.1 4 4.1 4.5 7 9.7 6.5 16a8.9 8.9 0 00.2 3c2.3 7.7-.3 13.4-6.6 18.2-9.2 6.8-18 14.1-27 21.3a24.3 24.3 0 00-4.4 4.2c-.6.7-.1 2.2-.1 3.3 1-.1 2.4.1 3.2-.4 7.9-5.5 15.6-11.3 23.5-16.8 6-4.1 12.2-8.2 19.6-9.8 5.6-1.1 7-.9 8.5 4.8a62 62 0 01-.6 31.6l-.9 3c-.3 1.6-1.5 4 1.2 4.4.8.2 2.8-1.6 3.2-2.8 4-12.8 5.3-25.7 1.1-38.7-2.5-7.8-4.6-8.9-12.7-7l-3.6.5c.4-5.6.7-10.8 1.4-16 .1-1.2 1.3-2.4 2.2-3.5l5.9-7a23 23 0 0134.5-1.4 13.8 13.8 0 013.3 8.3 46.4 46.4 0 01-20 40c-.8.5-1 2-1.4 3 1.1.3 2.4 1.1 3.3.8a18.4 18.4 0 004.6-2.7c1.5-1.1 2.8-2.5 4.2-3.7a5.1 5.1 0 011.4-.4 16.6 16.6 0 011.9 1.2 35.9 35.9 0 0017.5 8.4c6.3 1 7 2 5.4 8.1-3.5 13.5-6.7 27.1-11 40.4-6.3 19.4-10.5 39-10.4 59.6.1 15.8-.8 31.6-1 47.3a114 114 0 001.4 15.3l3.8 28.7a30.6 30.6 0 010 3.8l-21.8 3.1c.5-3.4.8-6.8 1.6-10a61 61 0 013.3-9.3 30 30 0 00-6.3-32.4 13 13 0 00-10-4l-14.7.9a5 5 0 00-2.4.4c-.7.5-1.7 1.5-1.6 2.2a2.7 2.7 0 002 1.8 69.7 69.7 0 007.4 0 40.5 40.5 0 006.1-.4c6.8-1.2 11 2.2 13.8 7.8a26.1 26.1 0 011.1 23c-2.9 7.1-4.1 15-5.6 22.6-.8 4.4 1.8 6 6 4 4.5-2 8.7-4.5 14-4.3 6.3.2 8.8 1.7 10.8 7.8 2.2 6.8 3.8 13.9 6.5 20.5 5.9 14.6 12.5 29 18.6 43.4 4.3 10.1 8.4 20.4 13 31.6-4.6-4.4-8-8.2-12-11.4-4.5-3.8-10-2.7-15.9-1.2-.2-3.6-.5-6.3-.5-9.1.1-8.7-.5-17.2-4.3-25.2a30.7 30.7 0 00-11.6-13.3 24.3 24.3 0 00-23-.8c-4.6 2-9.7 4.3-12.4 9 1 2.7 2.6 2.3 4.1 1.5 2.7-1.6 5-3.7 7.8-5a24.2 24.2 0 018.6-2.7c13.1-.7 23.4 8 25 22.2 1 10 .3 20 .2 30 0 2.2-1 4.5 2.1 6l2.3-3.4c4.4-6.8 11.1-7.9 17.2-2.6a29.3 29.3 0 019.8 16c4.3 20.3 6.3 40.5-.4 60.7-2.4 7.2-4.1 14.6-6.3 21.9l-2.2 7.1c-1-.3-1.8-.4-2-.8l-11.9-18.5c-2.6-4.2-6.6-8.2-2.7-13.8-.2-9 0-18-.6-27a89.7 89.7 0 00-10.2-33.3c-5.3-11.1-14-18-27-18-2.7 0-5.4-.6-8-.3-3.6.5-7 1.6-11.2 2.6-.6-1.3-1.5-3.2-2.3-5.3-2.4-6-7-8.7-13.4-8.8-9.6-.2-19.2.2-28.4 3.6a19 19 0 01-3.6.8 6 6 0 01-1.6-.4 17.6 17.6 0 01-1-3.7 88.6 88.6 0 010-9.2 52 52 0 00-3.5-23.4zm76.8-146.2l3.3-4.3c5.5-7.9 11.2-15.8 11.3-26 0-9.4.2-18.8 0-28.2a40.2 40.2 0 00-11.1-27.2c-6.1-6.5-10-5.6-15.6-1.4-6.3 4.7-11.7 10.8-17.3 16.4-.6.6-.3 2.1-.5 3.2 1.1 0 2.7.5 3.3 0 3.9-3.4 7.6-7 11.3-10.4a63.1 63.1 0 016-5.3c4.5-3.3 6.2-3 9.9 1a35.8 35.8 0 019.3 24.2c.1 8.2-.2 16.3 0 24.5a30.5 30.5 0 01-4.6 17.5c-2.3 3.7-4.9 7-7.3 10.6l-7.1 10.8 18.6 2.2c.6 0 1.4-.5 2.4-.9-.4-1-.4-2.1-1-2.4l-11-4.3zm-28 19.2c4.2-2.9 5-7.1 5-11.4-.4-12.9-.7-25.8-1.9-38.6-.4-4.5-2.5-9-4.7-13.2-2.7-5.3-8-7.4-13.6-8.4-3.6-.6-4.7.4-5.9 4 .3.2.6.7 1 .7a12.2 12.2 0 002.4.1c6.4 0 11.1 2.7 13.6 8.6a36.3 36.3 0 013 11.2c.8 10.6 1.2 21.3 1.4 31.9.1 3.2-.7 6.5-1.2 9.7-.4 1.7-1.6 3.4 1 5.4z" class="cls-1"/><path d="M494.4 921c2 2.5 4 5 5.8 7.6 7.5 10.5 14.7 21.2 22.4 31.6 3 4.3 7 8 10.5 12a45.9 45.9 0 0031.3 15c3.6.3 7.2 1 11.3 1.7-1.3 4.6-2.5 8.3-3.4 12l-8.2 34.7a127.2 127.2 0 01-3.5 13c-5 14.1-9.5 28.4-15.4 42.1a184 184 0 01-15.8 27.7 59.1 59.1 0 00-10.5 25.2 29.9 29.9 0 01-4.2 11.5c-16.6 27-32.4 54.7-52.5 79.4-3.8 4.8-8.1 9.2-12 14-3.3 4-5.1 8.3-1 13.3 1 1.1.4 4-.2 5.7-3.2 10-6.8 19.7-10.2 29.6-1.4 4.3-2.8 8.6-4 13a50.4 50.4 0 01-13.6 21.6c-2.2 2.2-4.2 4.4-6.5 6.5a33.1 33.1 0 00-8.5 14l-10 31.7c-2.8 9-3.3 18.5-3.9 28-.4 7.3-.7 14.7-1.3 22a65.9 65.9 0 01-1.6 8c-3.2-1.2-3.6-3.5-4.2-5.5a142 142 0 01-6.7-42.4 28.2 28.2 0 00-.1-3.6c-.6-4.6-2.5-7.4-5.7-7.8-3.8-.5-6 1.8-7.9 4.8-2.9 4.7-5.5 9.6-9 13.9-8.2 10.4-16.8 20.6-25.3 30.8a4.5 4.5 0 01-3 1.6 19.9 19.9 0 011.4-4.3 934 934 0 0113.9-22.4c3.2-5 7-9.7 10.1-14.7 2.7-4 2.5-7 0-9.5s-5.5-3-9.5-.7c-14.7 8-30.1 14.9-43.3 25.6a36.2 36.2 0 01-7 3.9l-36.8 18.3-7.4 3.5c1.2-2.4 1.6-3.7 2.4-4.6 11-13 24-23 40.3-29.3 14.8-5.7 29.3-12.7 43.9-19.1a15.8 15.8 0 003.2-1.8 6.6 6.6 0 002.6-7.6 6.4 6.4 0 00-6.6-4.5 42.1 42.1 0 00-6 1c-10.1 1.8-20.1 3.7-30.2 5.3-7 1-13.9 1.5-20.8 2.2l-5.8.3-.4-1.4c3-1.3 6-2.9 9.2-4a148.4 148.4 0 0028-12.7 99.6 99.6 0 0116.6-7.7 49.4 49.4 0 0025.6-23q7.7-12.5 15-25.3 4.6-7.7 8.4-15.7c4-8.4 7.6-16.8 11.4-25.2a31 31 0 002.5-13.1c0-19.5 1-39 5.8-58 3.2-13 6.1-26 10.3-38.6 3.2-9.6 8-18.8 12.5-28 4.3-8.9 8.9-17.6 13.7-26.1a44.9 44.9 0 017.5-9.6 17.3 17.3 0 005-8.2 99 99 0 003.5-27.3 222.7 222.7 0 016.5-59.7 80 80 0 013.7-11.7c4.4-10.2 8.8-20.3 13.6-30.3a77.8 77.8 0 0118.9-25.5l2.8-2.3a13.7 13.7 0 012.4-.9z" class="cls-1"/><path d="M644.2 732.7a24.3 24.3 0 00-16.8-4.7c-5.3.3-10.7-.2-16 .3a30 30 0 00-9.9 2.8c-1.5.8-2.8 3-3.4 4.7-.3.9 1 2.4 1.6 3.6 1.1-.7 2.9-1 3.2-2 1.5-3.8 4.8-4.4 8-4.5 7.2-.3 14.4-.2 21.5-.1a8 8 0 017.9 5 32 32 0 012.7 10.5c.4 12.4 1 25-3.1 37-.3 1 .2 2.3.4 3.6 3.4 0 4.3-2.4 4.7-4.4 1.6-8.1 7.4-10.8 14.6-12.8a77.2 77.2 0 0124.4-1.8c5 .2 8.5 4.2 9 10.7.3 5.3-.1 10.6-.3 16 0 1.8-.4 3.7-.4 5.5s.2 4.2 2.6 4c1 0 2.2-2 3-3.2a11.6 11.6 0 00.6-3.6l.8-5.5c2.5-12.1 4.2-13 16.5-12.6 13 .4 20.5 7.3 25.7 18.4 7.7 16.7 10 34 9.2 52.1a9.3 9.3 0 01-.3 1.8 7 7 0 01-.8 1.4c-2.8-.4-4-3-5.7-4.9-5.7-6.5-12-12-20.6-14.9-6.2-2.1-11.2-1.2-15.7 3.3-1.2 1.3-2.6 2.4-4.8 4.5-.8-3-1.4-5-1.8-7l-2.1-13.4c-2.2-14-22.9-18.5-32.3-10.8a38.2 38.2 0 00-11.4 12.7 41 41 0 01-2.8 4.2l-1.3-6.2-1.4-14.6c-1-11-11.3-15.8-18.5-16.9-4-.6-8.4-1.8-13 1 1 1 1.6 2.3 2.5 2.5a47 47 0 007.2 1c9.5.7 16.9 5.5 17.7 16 1.2 14.3 2.4 28.6 1.9 43-.1 3.1-.3 6.5-2.6 9.9l-5.5-3c-10.7-5.7-17.5-3.8-23.7 6.5l-2.5 4c-1.5-2.1-2.6-3.6-3.6-5.3-3.2-5-7.3-8.7-13-10.8a59.5 59.5 0 01-8.7-4.6c-5.9-3.4-11.4-2.5-16.5 1.6-3.7 2.9-7 6.1-11.2 9.8l-.9-5c-1.4-7.9-2.7-15.8-4.5-23.5a14.4 14.4 0 00-3.8-6.9c-10.9-10.3-21.6-14.5-35-9.7-3 1-5.3 3.6-8.3 5.7-8.9-5-18.5-4-28.4-.6-10.3 3.5-15.8 11.8-20.8 20.5a72.6 72.6 0 01-17.4-28.9c4.8-5.8 9.5-11.4 14-17.2 8.5-10.8 20-10.7 32-8 1.2.3 2.2 2.1 3.2 3.4 2.7 3.6 5.4 7.1 7.8 10.9a49.7 49.7 0 013.6 7.7c.7 1.8 1.2 3.7 1.8 5.5l1.5.1c.5-1.3 1.5-2.6 1.5-3.9 0-4.7-1.8-8.7-4.7-12.4s-5.3-7.7-8.1-11.4c-1.2-1.6-2.6-3.7-4.2-4.1-12.6-3.2-25-4-35 6.1-4.2 4.2-7.6 9.1-11.5 13.7l-3.6 3.9a28.9 28.9 0 01-1.8-3.5c-1-3.3-1.8-6.7-3-10-4-11.1-2.7-22.7-2.5-34a3.8 3.8 0 011.7-3c5.9-2.4 9-7.6 12.8-12a62.8 62.8 0 0114-12.8c11.3-7.2 22.5-1.4 23.6 12 .4 6 1 11.8 2 17.7.4 2.5 1.7 5 2.7 7.4.3.6 1.3.9 1.8 1.2 2.6-1.3 2-3.2 1.3-5-2.5-7-2.9-14.4-3.1-21.8-.3-8.6-5.6-14.4-12.3-18.7-4.2-2.8-9.2-1.4-13.6.6a53.5 53.5 0 00-19 15.2c-3.1 4-6.6 7.5-10.8 12.2-.5-2.5-1-3.7-1-4.8l1.4-23.2c.2-3.5.3-6.9 3.7-9.2 1.3-1 1.7-3.2 2.5-4.9 3.2-7.7 6-9.8 14.3-9.6 6.4.2 12.7 1 19 1.7a13.3 13.3 0 0110.4 6.8c2.3 4 4.6 8.2 6.6 12.4 2.4 5.2 2.9 5.5 8.2 3a70.6 70.6 0 017.8-3.5c3.6-1.2 7.3-3.2 10.9.5.6.8 2.6.3 4 .3a10.5 10.5 0 019 7.1 78 78 0 013 26.1c-.4 5.2-.8 5.8-5.8 7.2l-17.2 4.7c-6.5 1.8-9.6 7.3-12.6 12.6a4.1 4.1 0 000 2.4c0 .3.5.6 1.2 1.5 1.2-1 2.7-1.8 3.3-3 4.1-7.3 10.9-10.4 18.6-11.5a78.2 78.2 0 0114.7-.6c5.4.3 6.6 2.4 5.8 8.1a10.3 10.3 0 00.3 2.2c5.3-.6 6.5 3.5 8.1 7.3 3 7 3.5 14.3 3.4 21.7 0 3.5 0 7 .3 10.4 0 1.2 1 2.3 1.5 3.5h1.4a17.6 17.6 0 001.3-4.1 14 14 0 015.3-10c4.3-3.8 8.4-7.9 12.8-11.5a20 20 0 0129 2.6c9.4 11.1 10 24.2 8.3 37.7-.3 2-1 4-1.2 6a2 2 0 003.7 1.2 18.7 18.7 0 001.8-5.2 62.7 62.7 0 00-2.7-32.7 25.5 25.5 0 01-1.2-10c.3-8.3-.6-16.7-1.1-25.1 0-1-.6-2-.6-3-.5-9-5.4-14.7-13.6-18-1-.4-1.8-1-2.8-1.3-2.4-1-3.5-2.6-2.7-5.3 4.1-12.8-1.1-23.9-7-34.5-5.3-9.6-14.5-11-23.5-4.6a81.2 81.2 0 00-22.5 22.3 33.5 33.5 0 01-2.3 3L525.8 718c1-1.5 2.3-3.3 3.6-4.9l10.2-11.5c10-11.3 13.7-25.4 16.7-39.7 1.3-6 3.4-11.8 4.7-17.8a71.7 71.7 0 001.6-14c.1-9.4-6-15-15.5-15a20.9 20.9 0 01-2.1-.3c0-2.1 1.2-3.2 3-2.5 2.6 1 3.6-.3 5-2a620 620 0 0114.3-16.8 33 33 0 0119.8-10.3c3.7-.6 6.9.5 8.8 4 1 1.8 2.3 3.6 2.6 5.5a109 109 0 011 41 45 45 0 01-13 21.2c-1.4 1.6-3.7 2.9-1.3 6.1a34 34 0 0016.1-19c3.2-7.7 3.8-16.6 5.6-25 3.8-1 8.1-1.8 12.4-3a14.6 14.6 0 0114.2 3.7 52.9 52.9 0 0116.6 31.4c1.3 7.8.6 15.5-.7 23.2a205 205 0 00-2.8 27c-.4 11.3-.2 22.5-2.6 33.6zm-60.7-31.1c2.6-1 2-3.3 2.1-5.3v-19.6c0-2.3.4-4 2.6-5s4.2-2.7 6.4-3.6a36.8 36.8 0 0128.6 1.9c8.2 3.5 11.8 10.3 14.5 18a12.5 12.5 0 001.3 3.5c.6.8 1.8 1.1 3.1 2 .4-1.6 1-2.7.8-3.5-1.7-8-4.7-15.6-11.4-20.5a41.8 41.8 0 00-22.9-8.1 38.4 38.4 0 00-23.2 6c-.7-.6-1.4-1-1.5-1.4-3-8.4-10.3-12.5-17.1-17-1-.6-3.7-.6-4.3 0-1.3 1.7.3 3 1.7 3.9l8.6 6a18 18 0 017.5 12.9c.4 3.2.8 6.5.9 9.8v14c.1 2.3-.3 4.8 2.3 6z" class="cls-1"/><path d="M445.2 852c5 3.7 39.6 51.8 41.2 57.2a41.8 41.8 0 01-19 5.5 94.7 94.7 0 01-64.5-19.3c-9.4-7.2-19.4-13.8-27.1-23-6.8-8-12-17-14.2-27.5a470 470 0 01-10-71.7c-.7-11-3-22-3.7-33-1-16.8-2.2-33.6 1.7-50.2 2-9 5.4-17.6 8-26.4 4.4-14.7 9-29.4 12.8-44.3a118 118 0 0115.2-34.7 654 654 0 0021.7-37c10.4-19 22.4-36.7 38.4-51.5 5.2-5 10-10.2 15.2-15.3l4.5-4.2a17 17 0 01-3.2 16.2c-3.4 3.8-7.3 7.1-10.9 10.8l-4 4.7 1 1.5c1.3-.4 3-.4 4-1.2 9.8-7.5 18.2-15.8 19.6-29.1.3-3.5 2-7 3.8-10.2a12.4 12.4 0 015.4-4.7c2.9-1.3 6.1-1.9 9.2-2.7l.9 1.2a56 56 0 01-3.2 4.7 212.6 212.6 0 00-34.3 62.8c-1.8 4.8-2.6 9.9-4 14.8-7 25.5-14.3 50.8-20.7 76.5a199.9 199.9 0 00-6 42c-.6 19.1-2 38.3-3 57.6a8.3 8.3 0 01-3.5 6.7c-4 3-6.3 7-7.7 11.6-5.2 16.8-10.3 33.6-15.9 50.3a140.8 140.8 0 01-17.2 37.9 6 6 0 00-1.3 2 11.7 11.7 0 00.2 3c1.1-.2 2.6 0 3.2-.6a42 42 0 005.4-7.4 199.3 199.3 0 0015.3-36.8l15.1-48c1-2.8 1.7-5.9 6.3-7v8.2l-.9 43a20.6 20.6 0 00.7 5.5c4.5 17.2 8.5 34.7 19.2 49.5 3 4.3 3.3 8.2.7 13-5 9-5.5 19.2-6.7 29.1-.5 3.7-1.4 7.2-2 10.8a62.1 62.1 0 00-.6 9.2c0 .9 1.3 1.7 2 2.6.8-.7 2.2-1.4 2.3-2.3 1.5-10.3 3-20.6 4.2-31a47.6 47.6 0 016.4-18.8zm-15.8-240.6c-1.4-3.7-3.7-3-5.6-2.6-7.7 1.7-12.7 6.3-14.1 14.3-.9 4.6-1.4 9.3-2.2 14a56.5 56.5 0 01-12.6 29.6c-8.7 9.7-18.3 18.7-27.5 28a63.2 63.2 0 00-6.5 8c-.6 1-.2 2.5-.3 4.6 1.8-1 2.8-1.2 3.4-1.8l17.8-18.7c3-3.1 5.7-6.4 9-9.2a58.6 58.6 0 0019.6-32c1.5-6.5 2.6-13.1 3.6-19.8s4-11 10.8-12.5a30.2 30.2 0 004.6-1.9z" class="cls-1"/><path d="M463.3 546.7c1-4 1.5-8 2.9-11.7a189.2 189.2 0 0130.5-56.4l19-22.6a20 20 0 0110.6-6.6c12.5-3.3 25.2-3.6 37.8-3.5 8.9.2 12.5 4.3 13 13a28.5 28.5 0 01-3.2 14.9l-18.6 36c-3.1 6-2.2 7.7 4.7 8.8a74.2 74.2 0 0110.1 2.4 7 7 0 015 7c0 7.8.4 15.7-.2 23.4a37.1 37.1 0 01-5.6 16.8c-6.1 9.9-12 20-18 30A67.4 67.4 0 01537 614l-2.5 1.9c-1.5 1.2-3 2.8-1.7 4.6.8 1 2.8 1.5 4.2 1.4 3-.3 6-1.1 9.1-1.6 7.4-1 12 2.8 11.8 10.3a61 61 0 01-1.6 12.7c-2.2 9.8-5 19.4-7.2 29.2a72 72 0 01-18 32.3c-2.7 3.1-5.6 6.1-8.6 8.9-1.2 1.2-3.1 2.6-4.6 2.5a45 45 0 00-21.4 5.2c-1-2.2-1.8-4.1-2.5-6.1a43.6 43.6 0 00-15.4-21.6c-8.8-6.3-24.5-5.2-32.7 1.8-3.1 2.6-6.4 5-9.9 7.8-.4-.9-1-1.6-1-2.2 0-8.6.3-17.2.2-25.8-.2-7.5 5-11.3 9.8-15.3a81 81 0 019.7-6.4 30.8 30.8 0 0117-4.7h16c4.8 0 6.4 1.6 7.6 6.3l4.8 18.4a85.6 85.6 0 012.2 30.4c-.2 1.8-1.3 4.2 1.4 4.4 1 .1 2.3-2.2 3.1-3.7a8.3 8.3 0 00.6-3.6c0-10.9-.3-21.7-3.7-32.2-1.6-4.7-2.6-9.5-3.7-14.3-1.8-7.6-5-10.3-12.8-10.5h-.6c-23.6 0-24.8-1.5-46.3 13.5a19 19 0 01-2.7 1.4c-1.6-5.7 3.2-34 7.1-42.5 6.8-1.7 13.6-3 20.2-5a91.6 91.6 0 0128.6-3.1c4.6 0 7.4 2.1 8.8 6.2 1.9 5.9 3.8 11.7 5.2 17.7 1.8 7.8 3 15.7 4.7 23.5.4 2 0 5.4 3 5.1 3.5-.4 1.7-3.5 1.5-5.5-1.4-13.3-5-26.1-8.8-38.9a34.8 34.8 0 00-3.5-7.7 9.8 9.8 0 00-8.7-5c-10.3-.1-20.5-.4-30.5 2.8-6 1.9-12.2 3-18.4 4.5-.6-5 9.7-44.5 15.3-59 4.7.7 8.2-2.3 12-4.5 11-6.1 23.7-5.7 33.2 2.2 11.4 9.4 17.6 21 13 36.3a101 101 0 00-2.8 13.3c-.2 1 .5 3.2 1.3 3.5 2 .7 2.7-1.3 3-2.9 1.6-6.4 3.3-12.7 4.4-19.2 3.1-18.7-14.3-38.2-28-40.4-4-.7-8-1.6-12-1.8-5-.4-9.2 1.6-13.3 4.2l-8.3 4.6zM530 539c3.8-.8 3.6-2.9 3.4-4.6-1.2-9-1.7-18-4-26.7a45.2 45.2 0 00-17.2-26 13.6 13.6 0 00-12.1-2.6c-1 .3-1.6 1.7-2.8 3.1 1.9.6 2.9 1 3.8 1 5.2-.2 9 2.2 12.4 5.7A46.4 46.4 0 01526 513c1.2 6.4 1.6 13 2.5 19.4l1.5 6.6z" class="cls-1"/><path d="M562.1 929.1c-.5-2.5-1.2-5-1.6-7.6a50 50 0 00-9-23.3c-1.7-2.3-1.8-4.7-.6-7.4 2.2-4.8 2.8-10.3 7.8-13.5 1.4-.8 2-3 2.6-4.8a36 36 0 0112.3-15.7c4-3 8-3.7 12.6-1.3 3.7 2 7.7 3.7 11.4 5.9a23.3 23.3 0 0111.8 21.5c0 2.9-.4 5.8 0 8.6.1 1.2 1.7 2.2 2.7 3.3.8-1 2-2 2.3-3.2 1.2-5 2-10 3-15a15.5 15.5 0 01.5-1.7c1.8-5.4 3.9-11.1 10.4-11.7 6.8-.5 12.2 3 15.8 8.8a22.8 22.8 0 012.8 7.4 150.2 150.2 0 013.5 34.7q-.5 17.5-.7 35c0 2-.8 4.6 2 5.8 2.2-.2 2.7-1.9 2.5-3.5-1.4-12.1 4.7-21.5 10.6-31.3 6.3-10.2 14.3-8.4 21.6-2.4 3.7 3 5.7 7.3 6.7 12.1a120.5 120.5 0 003.6 12.4 21.7 21.7 0 002.5 4.2c3-1 2.7-2.5 2.3-4.2-1.8-6.1-3.2-12.3-5.4-18.3-3.2-8.7-9.7-14-18.9-15.6-4.4-.8-8.6.2-11.7 3.8-1.9 2.2-3.5 4.5-5.2 6.8l-3.6 5c-.8-1.2-1.4-1.7-1.4-2.2 0-14.7-.7-29.4-3.7-43.2l8.3-6.6c8.4-6.7 17.7-7.2 27.2-3.6 6 2.3 8 7.8 8.8 13.8.3 2.2-.9 5.8 2.5 6 3.9.3 3-3.6 3.7-6 .6-2 1.5-4.1 2.4-6.2 1.3-3.3 3.7-4.7 7.2-4.6h12.9c5.1-.2 8.5 2.4 10.8 6.7a70.6 70.6 0 014.8 10c2.9 8.2 5.3 16.7 8 25 1.5 4.6 0 7.6-3.8 10.6a550.3 550.3 0 01-51 34c-7.4 4.6-15 8.7-22.4 13a8.3 8.3 0 01-8.2.5 5.3 5.3 0 00-6.7 1.6c-2.8 3.4-6.6 4.6-10.7 5.2-7.7 1-15.4.6-23.4.4a35.8 35.8 0 01-.7-4.6c0-6.4-.1-12.8.2-19 .5-12-1.6-23.8-4-35.4a38.6 38.6 0 00-5.2-13c-4.6-7-12.4-8-20-9-3-.4-6.2 0-9.2 0a11.4 11.4 0 00-11.4 7 88.2 88.2 0 00-4.2 11.4c-1.4 4.5-2.5 9-3.7 13.5z" class="cls-1"/><path d="M446.6 114.5a138.8 138.8 0 0125.5-12.9c8.2-3.1 16.3-6.6 24.4-10A185.2 185.2 0 01518 84l-15.7 10.8a83.2 83.2 0 00-22.1 20.1 44.1 44.1 0 00-7.9 21.1 20.5 20.5 0 0010.1 19.7 40.5 40.5 0 0011.2 5c18.9 5.4 37.6 4.2 56-2.4 3.6-1.3 6.9-3.6 10.2-5.7 7.7-4.7 11-12 11-20.7a77.1 77.1 0 00-1.8-17 134.4 134.4 0 00-5.6-17.6c-4.7-12.7-7-14.9-21.2-19 3.8-1.2 6.4-2.5 9-2.7 7.7-.6 15.5-1.4 23.3-1.1 10.7.4 19.3 7.8 21.9 18.3 3.5 14.3 2.6 28.9 1.8 43.5a43.5 43.5 0 01-2.3 11.4 63 63 0 01-15.6 28.1 51.3 51.3 0 01-8.9 6.5 156 156 0 01-56 17.3c-6 .8-12 2.1-18 3.3-4.6 1-5.5.7-6.6-3.8a197 197 0 00-15.9-44.5c-4.2-8.3-10.3-15.7-15.7-23.3-3-4.2-6.4-8-9.5-12.1-1.1-1.4-2-3-3.1-4.7z" class="cls-1"/><path d="M561.5 968.4c2.8-.6 2.5-2.8 2.6-4.8V945c0-1.4-.4-3.2.3-4.2 5.1-6.9 4.5-15.6 7.4-23.2 1.4-3.8 2.7-7.7 4.3-11.4 1.4-3 4-4.5 7.4-4.7a48 48 0 0118.1 2.4c4.9 1.7 8.4 5 9.4 9.8 2.3 10.4 4.6 20.8 5.5 31.4s.2 21.2.2 32.5c-2.7.3-5 .9-7.4.7-12-1-24-2.3-36-3.5-4-.4-7.7-1.1-11.6-1.6-8.6-1-15-5.8-20.8-12a249.5 249.5 0 01-28-37.3c-2-3.3-4.4-6.4-6.6-9.6l-2.9-4.7c4.3-6.3 8-12.2 12.2-17.6a35.7 35.7 0 019-8c4.4-2.7 7.5-2 11 1.7a68 68 0 0120.7 38.2 211 211 0 013 37.3c-.1 4.3 0 4.3 2.2 7z" class="cls-1"/><path d="M783.8 382.8l-12.6 7.5a64 64 0 00-8 5.7c-.7.6-.4 2.4-.6 3.7 1.1 0 2.4.2 3.3-.3l23.1-14a93.1 93.1 0 019.4-4.5 16.2 16.2 0 0115.9.8 10.2 10.2 0 003.3 1.5 1.9 1.9 0 001.8-3.1c-1.6-1.5-3.3-2.8-5-4.2 1-2.7 3-3 4.5-2 5 3.4 10 7 15.7 11.2a51.5 51.5 0 01-5 2.8 86.8 86.8 0 00-41.1 32.9 90.8 90.8 0 01-7 8.5c-.3.4-1 .5-2.2 1-3.3-8.8-8.1-16.4-17.9-18.4-4-.9-8.4-1.8-12.2 1.2.5 2.8 2.6 2.6 4.3 2.7 13.2 1.2 19.2 6.2 22.3 18.7a5.8 5.8 0 01-.8 4c-5.9 9.3-9.5 19.6-13 29.8-1.6 4.8-1.7 4.7-6.5 4a31.8 31.8 0 01-14.1-5.6c-4.2-3-4.5-4.7-2.1-9.2 4-7.5 7.5-15 7.4-23.8 0-12.3-7.7-21.9-20-23.2a47.2 47.2 0 00-16.9 1.5c-3.2.9-5.8 4.2-8.5 6.6a84.5 84.5 0 00-6 6.8c-2.2-4-4-7.3-6-10.5-4.8-7.7-11.8-10.3-20.6-9-6.2.9-7.1 0-7.8-5.4a25 25 0 00-13-18.5c-5.1-3-10.7-5-16-7.6a16.7 16.7 0 01-2-1.4c3.6-1.8 6.8-.9 9.7 0a142.2 142.2 0 0023.5 4c6.7.7 13.2 3 19.8 4.2a69.4 69.4 0 0012.7 1.5q34.1.2 68.2 0c5.6 0 11-1 16.5-1.4a23.1 23.1 0 013 .1zm-44.3 31c3-2.5 2-4.2 1.2-5.9a27.6 27.6 0 00-24.7-16.3 108 108 0 00-41 6c-2.2.8-5.7 1.1-4.4 4.4 1.1 2.8 4 .8 6 0 11.8-4.2 24.1-5.8 36.7-6 10.4 0 18 4.3 23.1 13.4a47.7 47.7 0 003.1 4.5z" class="cls-1"/><path d="M942 1040.8c1.8-15.7 4.5-30.6 5.1-45.6s-.8-30-1.4-45.9l7 .8c8.3 1 16.7 2 25 2.7 6.1.6 11.8-1.3 17-4.3l16.5-9.5c.4.9 1 1.4 1 1.9 0 11.9 0 23.7-.4 35.6-.1 6.8-1 13.5-1.4 20.2-.3 4.5-.6 9-.6 13.5l-.1 30.1a34.9 34.9 0 01-.2 5c-.4 3-2.7 4.2-5.2 2.2a20.7 20.7 0 01-4.8-5.5c-4.2-6.8-8.2-13.7-12.3-20.6a76.4 76.4 0 00-4.1-6.8 3.4 3.4 0 00-3-1c-.8.3-1.2 1.9-1.6 3a2 2 0 00.2 1.2c2.4 7.2 1.4 14.6.2 21.8-1.2 7.1-2.4 14.2-3.9 21.2a18.4 18.4 0 01-4.4 8.2 15.6 15.6 0 01-1.5-3.6c-1.9-12.5-4.5-25-3.5-37.8a13.8 13.8 0 00-.3-4.8c-.4-1.4-1.4-3.4-2.5-3.7s-3 1-3.9 2c-3.3 4.2-6.2 8.7-9.6 12.8-2 2.4-3.5 5.4-7.3 6.9z" class="cls-1"/><path d="M510.8 826a24 24 0 0128-2.2c7.5 4 11.6 9.6 13.6 17.7 3.3 13.2 2.9 26-2.5 38.5l-2.8 7.4c-.1.3-.6.5-1.6 1.1-1.9-1.7-4-3.5-6-5.5-5.8-5.8-10.9-6.5-18.2-2.5-6.8 3.7-10.5 10-14.5 16.2l-5.6 8.4-40.4-56.4 5-8.8c7.1-12.3 18.5-16 31.8-15.4a9.5 9.5 0 019.2 7 22 22 0 011.5 5.9c.5 12.7.5 25.3-4 37.5-2.2 5.8-3.8 11.7-5.6 17.6a7.3 7.3 0 00-.3 3 2.5 2.5 0 001.3 1.8 2.3 2.3 0 002-.8 32.7 32.7 0 002.5-5.6c1.8-5.6 3.4-11.3 5.1-17a82.5 82.5 0 001.5-46 11.3 11.3 0 010-2z" class="cls-1"/><path d="M400.4 911.1c9.2 4.2 17.3 8.6 26 11.4s17.8 4.1 27.4 6.2c-.1 2.1.2 4.7-.6 6.8a181 181 0 01-7.7 19.4c-4.3 8.8-9.1 17.4-14 26-5.5 10-7.8 21-11.4 31.7l-3.6 9.4c-1.4-1.8-2.5-2.7-3-3.8l-4.2-12.8c-.9-2.6-1.3-5.5-4.5-6.1s-5.5 1.4-7 3.8c-2.8 4.3-5.2 8.8-7.7 13.3-1.3 2.3-2.3 4.8-3.7 7-1.6 2.3-3.4 4.5-5.4 7.1-2.1-2.3-1.7-4.7-1.1-6.6 2-6.6 4.2-13.3 6.7-19.7 1.6-4.2 4.2-8 6.1-12 1.3-2.6 1.2-2.6-1.1-6.6l-4.3 4c-4.5 5-8.8 10.3-13.4 15.3a21 21 0 01-11 7.2c1.3-3.4 1.8-6.3 3.2-8.5 3-4.6 6-9.3 10-13.1 8-8 13.9-17.1 16.7-28.1 3.5-14 7.2-27.8 6.8-42.3 0-2.9.5-5.7.8-9z" class="cls-1"/><path d="M754.2 915.2c-3-9.2-5.3-17.4-8.4-25.4a135.7 135.7 0 00-8.4-17 11 11 0 00-10.2-5.8l-12.9-.3c-5.8-.3-11 .7-14.3 7-4.7-4.6-8.2-10-15-11.3a47.4 47.4 0 00-18.2.5c-6.6 1.4-10.7 6.5-16.6 11.3 0-3.4-.4-5.7-.1-8a432 432 0 014-21.8 125 125 0 013.7-14 30.2 30.2 0 0112-15.2c9-6.2 22.5-1 24.8 9.6 1.2 6 1.6 12.2 2.4 18.3.2 1.4-.1 3 .5 4.2.7 1.5 1.8 3.4 3.1 4 1 .3 2.9-1.2 4-2.3 2.3-2.3 4.2-5 6.5-7.3 2.8-3 6-3.7 10-2.3 5.5 2 10.6 4.5 14.6 8.8 5.8 6.3 12.1 12.2 16.2 20a44.6 44.6 0 005.2 7.6 68.4 68.4 0 0112.1 26c.6 2.3.4 4-1.7 5.3-4.2 2.4-8.3 5-13.3 8.1z" class="cls-1"/><path d="M596 393.3a68.7 68.7 0 0116.3-10.3l5.2-1.9c7.2-2.8 14.2-3 21.2 1.1 4.8 2.8 9.8 5 13.3 9.7a21.8 21.8 0 013.5 22 132.3 132.3 0 01-36 52.8 33.9 33.9 0 01-30 8.4c.5-1.4.6-2.9 1.3-3.9 4.1-5.3 7.8-11.1 12.7-15.7a28.3 28.3 0 009.4-27.6 53.9 53.9 0 00-16-32.4c-.3-.3-.4-1-.9-2.2z" class="cls-1"/><path d="M558.4 805.3a12.8 12.8 0 01-1-3.1 49.8 49.8 0 00-6.9-23.4c-2-3.6-1.6-6.5.8-9.5a44.8 44.8 0 0131.5-17.1c7.2-.9 13.6 2.4 19.2 6.7a11 11 0 013.6 5.5 91.2 91.2 0 013.1 28 14.5 14.5 0 01-1 3l-5.2-3.6c-8.7-5.7-21.7-5-29.7 1.7-4 3.3-7.6 6.9-11.5 10.3a16.9 16.9 0 01-2.9 1.5z" class="cls-1"/><path d="M586.3 746.7a65.7 65.7 0 00-23 6.7c-7.3 3.6-13 9.1-18 15.7l-7.5-4.2v-27a6.6 6.6 0 011.4-3.7c2-2.5 4.8-4.5 6.5-7.2a66.2 66.2 0 0118.6-17.7c7.4-5.3 13.4-4 17.7 4a96.8 96.8 0 015.7 13.6 25.2 25.2 0 01-1.4 19.8z" class="cls-1"/><path d="M794.6 892.3l-20.1 9.3c-.3-1.6-.8-2.6-.5-3.4 3.8-13.8 7.5-27.7 11.8-41.3 4-12.9 3.5-26 2.5-39-.6-8.2-2.3-16.2-3.5-25a11.2 11.2 0 013.6 5.4l11 30 2.2 6.3A27.2 27.2 0 01803 851l-7.4 31.7c-.7 2.7-.6 5.5-1 9.7z" class="cls-1"/><path d="M580.4 386.9c-15.2 10.8-31.2 20.7-45.6 32.7s-26.7 25.7-39.7 38.4h-12.4c.4-1 .6-2.4 1.3-3.3 5.3-6.3 10.3-12.7 16-18.5a328.8 328.8 0 0144-37.2 55.4 55.4 0 0113.2-6.6c7.4-2.6 15-4.7 22.6-7z" class="cls-1"/><path d="M486 140c-.8-5.8 1-10.7 3.7-15.3a4.5 4.5 0 013-1.7c4.2-.5 8.5-.8 13.2-1.2l.1 2.7c.3 3.9 1.2 5 5 5.8a16.5 16.5 0 0011.8-2c4.6-2.6 9.2-5.3 14-7.5s5.4-5.8 3.4-10.7l11.3-4c3.7 5 4.4 10.3 5.3 15.4.4 2.2-1 3.4-3 4-7.4 2-14.8 4.7-22.4 6.2-12.3 2.3-24.7 3.9-37 5.9a70.2 70.2 0 00-8.4 2.5z" class="cls-1"/><path d="M556.1 133.2c.8 4-.6 6.1-2.6 7.5-3.6 2.3-7.2 5-11.1 6.3a67 67 0 01-26.6 3.6c-4.9-.4-9.7-.7-14.6-1.3a12 12 0 01-5.5-2.6c19.8-5.8 40.7-5.5 60.4-13.5z" class="cls-1"/><path d="M807.2 855.7l16.7 21.2c-7.5 5.9-15 11-25.2 13.3 2.2-12 4.6-23.2 8.5-34.5z" class="cls-1"/><path d="M548.5 97.6c-.8.6-1.5 1.5-2.3 1.8l-43.8 13.2c0-.5-.2-1 0-1.2a85 85 0 0129.7-17.8 37.6 37.6 0 0110.8-1c2.8 0 5.1 1.5 5.6 5z" class="cls-1"/><path d="M533.6 115.7c-6.3 6.1-15.6 10.3-20.3 9 3.6-4.7 15-9.8 20.3-9z" class="cls-1"/><path d="M453.7 697.2c6.4-3.9 17-3 22.7 2z" class="cls-1"/><path d="M920.6 561.3l-3-11c-6.7-20.8-13-41.8-20.2-62.5A359 359 0 00882 451c-4.8-10-12.6-17.9-22.2-24.2-6.5 8-12.2 16-13.7 26.4-1.3 9.8-6.9 18-11.6 26.3l-6.5 11.1c-2.2 3.5-5.8 4.8-8.9 3.5s-4.3-4.8-2.6-9a52.2 52.2 0 014.2-8.2 94.6 94.6 0 0014-32.5 43.7 43.7 0 0112-21.8c1-1 2-2 3-3.3-.9-1.3-1.8-2.4-2.4-3.6-2.6-4.6.4-9.7 5.6-9.2a14 14 0 017.2 3c7.7 6.4 15.2 13.1 22.6 19.8 1.3 1.2 2.2 3 4 5.5 2.3-7.6 6.5-8.7 12.2-8.7A48.4 48.4 0 00915 423c11.9-4.2 24.1-6.2 36.5-7.9l8-1.1a21.6 21.6 0 014.8-.2 5.8 5.8 0 015.5 5 5.5 5.5 0 01-3.5 6.4 48.9 48.9 0 01-9.4 2.5c-8.5 1.5-17 2.5-25.4 4.3-5.4 1-10.6 3.4-16 4.6-7.6 1.9-15.3 4.6-23.8 2.5l21.4 51.7c1.4-6.9 6-8 11.3-7.8 13.5.3 27 .4 40.5 1a44 44 0 0133.2 18.5 104.2 104.2 0 0024.8 22.9 42.2 42.2 0 0012.9 5.4c5.7 1.4 11.7 1.7 17.6 2.5a28.1 28.1 0 016 1.3 5.2 5.2 0 013.4 5.3 5 5 0 01-3.7 5.2 24.5 24.5 0 01-7.2 1.1c-18.5-.3-35-6-48.5-19.1a199.4 199.4 0 01-15.9-17c-8.6-10.8-20.3-13.8-33.3-13.9-9.4 0-18.8.1-28.2-.1-3.8 0-7.6-1-12-1.6 1.3 7.6 5 14.8 7.3 22.4l7.1 23.6c2.3 7.9 4.2 15.8 6.5 23.7 2.2 7.7 4.4 15.4 7 23 2.6 7.7 5.9 15.2 8.6 23s5.2 15.4 7.8 23.5c9.8-8 19.5-4.7 28.5.7a224 224 0 0129.8 21.6c7.6 6.5 16.4 11.6 24.8 17 9 5.7 15 13.8 19.3 23.3 1.9 4 .6 7.6-2.3 9s-6.3.5-9-3.2l-3.8-6.2a36.7 36.7 0 00-11.4-11.8c-7.5-4.7-14.8-9.7-22.1-14.6a20.7 20.7 0 01-4-3c-7.7-8.4-17.6-13.9-27-20-3-2.1-7-3-10.8-4-3.2-1-6.7-1.4-10.8-2 1.4 10.2 4.8 20.2 7 30.4s4.6 20.4 6.4 30.6a512 512 0 014.5 31.7c1.1 10.2 1.8 20.6 2.6 30.6 20.4 4.7 33.7 17.6 44.4 33.7 3.4 5.2 5.9 11.2 8.5 17a11.8 11.8 0 01.4 6 5.1 5.1 0 01-4.2 4.7c-2.6.5-5-.1-6.4-2.5a39.9 39.9 0 01-2.6-5.5 76.3 76.3 0 00-32.7-37.2 41.6 41.6 0 00-5.6-2.2c-.2 2.4-.4 3.9-.4 5.4.2 7.6.8 15.2.8 22.7.1 24.4.4 48.8-.1 73.2-.2 10-2.2 20-3.7 29.8-.6 4-3.5 6-6.8 5.7s-5.9-2.7-5.8-6.7c.1-5 1.1-9.8 1.7-14.6.5-4.3 1.4-8.6 1.4-12.8.1-28.1.3-56.2 0-84.3-.1-11.2-1-22.5-2.2-33.7-2-19-3.7-38-6.6-56.8-2.3-14.5-6.1-28.8-9.3-43.2-1.7-7.4-3.7-14.7-5.2-22.1a235.8 235.8 0 00-12-38c-3.8-9.8-6.8-19.8-10-29.7l-1.4-3.9c-5.5 3.9-11.2 7.1-15.9 11.4a26.7 26.7 0 00-7 10.6c-2.1 6.1-3.2 12.6-4.6 19-3.6 15.3-4.5 31.3-10.8 45.9-3.4 7.7-7.5 15-11 22.7a309.4 309.4 0 00-20.4 62.4l-4 20.4a29 29 0 01-2 6.5 6.2 6.2 0 01-7.1 3.6 5.6 5.6 0 01-4.5-6.4 177.3 177.3 0 012.5-17.7 363.4 363.4 0 0117-58.3c4.2-11.3 9.6-22.2 14.9-33a93.3 93.3 0 007.5-22.7c3-14.6 5.8-29.3 9-43.9 3-13.2 12-21.7 24-26.9 3-1.3 6.7-.7 10.8-1z"/><path d="M879.6 476c5.3-.2 8.3 3.6 6.9 7.8a17.6 17.6 0 01-2.6 4.1c-10.2 14.5-20.7 29-30.8 43.6-11.2 16.1-20.8 33.3-33.3 48.6-5 6.3-9.4 12.8-10 21.3a5.7 5.7 0 01-5.7 5.8h-.3c-3.1 0-5.5-2-5.8-6a34.8 34.8 0 011-11.4 30.8 30.8 0 015.2-10.4c18-22.7 32.3-47.9 48.9-71.5 5.7-8.2 11.5-16.4 17.4-24.5a31.8 31.8 0 015.6-5.6 14.2 14.2 0 013.5-1.8z"/><path d="M895.1 812.8c-5.2 0-8.2-3.9-6.7-8.1a15.5 15.5 0 013.9-6.1c11.6-10.8 17.6-24.9 23.5-39.1a178 178 0 0121.3-38.7 19 19 0 015-4.4 5.6 5.6 0 017.3.5c2.2 2.1 2.4 4.8 1.2 7.4a33.6 33.6 0 01-2.4 3.6l-9.5 15c-8 12.7-12.4 27.1-19 40.5a103.2 103.2 0 01-20.3 26.8 18.9 18.9 0 01-4.3 2.6z"/><path d="M720.8 586.7l11 4.3c.5.3.5 1.4.9 2.4-1 .4-1.8 1-2.4.9l-18.6-2.1 7.1-10.9c2.4-3.5 5-7 7.3-10.5a30.5 30.5 0 004.7-17.5c-.3-8.2 0-16.4-.1-24.6a35.8 35.8 0 00-9.3-24c-3.7-4-5.4-4.4-10-1.1a63.1 63.1 0 00-5.9 5.2c-3.7 3.5-7.4 7-11.3 10.4-.6.5-2.2 0-3.3 0 .2-1-.1-2.5.5-3.1 5.6-5.7 11-11.8 17.3-16.5 5.6-4.2 9.5-5.1 15.6 1.4a40.2 40.2 0 0111 27.2c.3 9.4.2 18.8 0 28.3 0 10.2-5.7 18-11.2 26l-3.3 4.2z"/><path d="M692.9 606c-2.6-2-1.4-3.8-1-5.6.5-3.2 1.3-6.4 1.2-9.6-.2-10.7-.6-21.3-1.4-32a36.3 36.3 0 00-3-11.1c-2.5-5.9-7.2-8.7-13.6-8.6a12.2 12.2 0 01-2.5-.1c-.3 0-.6-.5-.9-.7 1.2-3.6 2.3-4.6 6-4 5.5 1 10.8 3 13.5 8.4 2.2 4 4.3 8.6 4.7 13.1 1.1 12.9 1.5 25.8 1.9 38.7.1 4.3-.8 8.5-5 11.4z"/><path d="M583.5 701.6c-2.6-1.2-2.2-3.7-2.3-5.9v-14.1c-.1-3.3-.5-6.5-.9-9.8a18 18 0 00-7.5-12.9l-8.5-6c-1.5-1-3.1-2.2-1.8-3.8.6-.7 3.2-.7 4.3 0 6.8 4.4 14.1 8.5 17 17 .3.4 1 .7 1.6 1.3a38.4 38.4 0 0123.3-6 41.8 41.8 0 0122.8 8.1c6.7 5 9.7 12.5 11.4 20.5.1.9-.4 1.9-.8 3.4-1.3-.7-2.5-1-3.1-1.9a12.7 12.7 0 01-1.3-3.4c-2.7-7.7-6.2-14.5-14.4-18a37 37 0 00-28.6-2c-2.3.9-4.2 2.6-6.5 3.6s-2.6 2.7-2.6 5v19.7c0 1.9.5 4.1-2.1 5.2z"/><path d="M429.4 611.4a30.5 30.5 0 01-4.6 1.9c-6.7 1.5-9.8 6-10.8 12.5s-2 13.3-3.6 19.9a58.6 58.6 0 01-19.6 31.9c-3.3 2.8-6 6.1-9 9.2L364 705.5c-.6.6-1.7.9-3.4 1.8 0-2.1-.3-3.6.3-4.5a63.2 63.2 0 016.5-8c9.1-9.5 18.8-18.4 27.5-28a56.5 56.5 0 0012.6-29.7c.8-4.6 1.3-9.3 2.1-14 1.5-8 6.5-12.6 14.2-14.3 2-.4 4.2-1 5.6 2.6z"/><path d="M530 539c-.5-2.3-1.1-4.4-1.4-6.5-1-6.5-1.4-13-2.6-19.5a46.4 46.4 0 00-12.5-24.1c-3.3-3.5-7.2-6-12.4-5.7-1 0-1.9-.5-3.8-1 1.2-1.4 1.8-2.8 2.8-3 4.4-1.3 8.4-.2 12.1 2.4 9 6.6 14.6 15.7 17.3 26.1 2.2 8.7 2.7 17.8 3.9 26.7.2 1.7.4 3.8-3.4 4.6z"/><path d="M739.5 413.9a47.5 47.5 0 01-3.1-4.5c-5.1-9-12.8-13.3-23.2-13.3-12.6 0-24.8 1.7-36.7 6-2 .7-4.8 2.8-6 0-1.3-3.3 2.3-3.6 4.5-4.4a108 108 0 0141-6c11.3.4 19.6 6.1 24.7 16.3.8 1.6 1.8 3.3-1.2 5.9z"/></svg>