<svg xmlns="http://www.w3.org/2000/svg" viewBox="0 0 1200.2 1553.3"><defs><style>.cls-1{fill:#fff;}</style></defs><g id="Layer_2" data-name="Layer 2"><g id="Layer_1-2" data-name="Layer 1"><path class="cls-1" d="M.1,743.1V554.9c18.6-.3,37.2-.5,55.8-.9q107.7-1.95,215.5-3.8c10.2-.2,20.5,0,30.7,0l.3-2.7a81.25,81.25,0,0,0-8.2-4.5q-75.15-30.9-150.3-61.5C113.1,469,81.3,464.9,48,466.4c-15.8.7-31.9-4.8-47.9-7.6V0h1200V494.1c-11.8,7-24.5,8.4-37.8,5.8-21.6-4.2-25.3-1.8-30.7,19.8-3.3,13.1-11.9,18.9-25.4,16.8-5.8-.9-11.5-2.6-17.3-3.3-32.1-3.6-64.2-7.2-96.3-10.6-33.8-3.5-67.4-14.5-101.7-3.5-.4.1-1-.6-1.9-1.1,0-3.3-.5-7,.1-10.4,6.3-34.6,11.1-69.6,20-103.6,7.1-26.9,12.8-53.1,7.1-80.9-11.4-55.6-60.5-90.8-113.3-81.2-21.3,3.9-37.2,15.2-28.8,42.7a13.52,13.52,0,0,1,.5,2.9c1.3,10.5-3.3,16.4-14,16.7a153.65,153.65,0,0,1-24.4-1.4c-34.1-4.9-68.2-8-102.5-2.9-17.7,2.7-35.2,6.9-53,9.4-19.7,2.8-33.2-5.2-42.1-23.1-1.6-3.2-3.3-6.4-4.7-9.7-5.2-12.5-13.9-22.1-25.3-29.2-57.8-36-119.9-3.9-138.4,54.4-9.1,28.6-3.8,56.8,7.3,84.1,6.4,15.7,12.1,31.7,18.8,47.3,10.6,24.8,9.1,47.6-6.4,70.4-12.5,18.5-20.4,39.4-21.5,62.3-1.9,36.5-9.5,71.8-23.9,105.4-10.1,23.6-5.1,43.9,11.5,62.3,2.4,2.6,4.7,5.4,8.3,9.7H342Q171.3,743.35.1,743.1Z"/><path d="M.1,743.1q171,.15,342.1.2h22.3c-3.6-4.3-5.9-7-8.3-9.7-16.6-18.4-21.6-38.7-11.5-62.3,14.4-33.6,22.1-68.9,23.9-105.4,1.2-22.8,9-43.8,21.5-62.3,15.5-22.9,17-45.7,6.4-70.4-6.7-15.6-12.4-31.6-18.8-47.3-11.1-27.3-16.4-55.5-7.3-84.1,18.5-58.3,80.6-90.4,138.4-54.4,11.3,7.1,20,16.6,25.3,29.2,1.4,3.3,3.1,6.5,4.7,9.7,8.9,17.9,22.5,25.8,42.1,23.1,17.7-2.5,35.2-6.8,53-9.4,34.3-5.1,68.4-2,102.5,2.9a132.73,132.73,0,0,0,24.4,1.4c10.7-.3,15.2-6.2,14-16.7a13.52,13.52,0,0,0-.5-2.9c-8.4-27.4,7.6-38.8,28.8-42.7,52.8-9.6,101.8,25.6,113.3,81.2,5.7,27.8,0,53.9-7.1,80.9-8.9,34-13.7,69-20.1,103.6-.6,3.4-.1,7.1-.1,10.4.9.6,1.5,1.3,1.9,1.1,34.3-11.1,67.9,0,101.7,3.5,32.1,3.3,64.2,6.9,96.3,10.6,5.8.7,11.5,2.4,17.3,3.3,13.6,2.1,22.2-3.6,25.4-16.8,5.4-21.6,9.1-24,30.7-19.8,13.3,2.6,26,1.2,37.8-5.8v56.9q-121.35,1.5-242.8,3.1c-19.9.3-39.8.6-59.7.7-5.6,0-8.4,1-8,7.6,1.7,26.1-3.3,51.1-11,76-10.5,34.2-19.4,68.9-29.1,104.1,4,.5,5.9,1,7.7,1q171.45,0,342.9-.2v52.9H1017.3v301.9c0,2.3-.1,4.6.1,6.9.9,12.4,5,16.3,17.2,16.3,15,0,30.1-.1,45.1,0q60.3.15,120.5.5v431.4H.2V1121.9H126.9V796.4H.2C.1,778.4.1,760.8.1,743.1Zm657.4,700.6c17.5,12.9,34.8,21.3,54,26.1,5.8,1.5,10.2.8,13.7-4.1,8.1-11.4,16.1-22.8,24.4-34,1.2-1.7,3.8-2.4,5.8-3.5.4,2.1,1.2,4.2,1,6.2-.2,1.8-1.4,3.6-2.5,5.3-7.1,10.7-14.3,21.4-21.8,32.6a26.32,26.32,0,0,0,4.7.4c42.1-3.3,84.8-24.1,88.1-83,3.5-63.9,6.4-127.8,10.7-191.7q6-88.35,14.7-176.6c1.6-16,6.6-32,12.1-47.2,5.2-14.2,15.8-15.1,24.9-2.8a105.2,105.2,0,0,1,12.5,23.1c13.3,32.3,16.1,65.5,9,99.8-3.9,18.7,10.8,38.9,30.9,41.7-1.2-7.8-2.5-15-3.5-22.3-.3-2.2.5-4.6.7-6.9,2.1,1.5,5.7,2.7,6.1,4.5,1.5,7.6,1.8,15.4,3.1,23.1.4,2.7,1.7,6.8,3.6,7.5,14.3,5,29,6.7,44.7,3.6-.8-2.5-1-4.2-1.8-5.4-5.7-8.7-11.6-17.2-17.2-25.9-1.1-1.7-.9-4.3-1.3-6.5,2.1.3,4.5,0,6.2,1a17,17,0,0,1,5.4,5.6c6,9.2,11.8,18.6,17.7,28,12-5,15.9-12.3,10.4-24.3a257.26,257.26,0,0,0-18.1-32.4c-29.7-46.1-52.5-95.3-69.4-147.6a567,567,0,0,0-30.1-75.2c-13.5-27.5-34.8-49.3-58.7-68.1-7.1,9.1-12.8,18.5-20.5,25.8a482.7,482.7,0,0,1-103.4,75.4c-19,10.4-40.3,15.2-61.5,13.2-40.2-3.8-80.8-7.5-120.2-15.9-30.6-6.5-60.3-18.9-89.4-30.8-23.6-9.6-38.8-28.1-44.1-53.9-1.4-6.9-4.3-13.5-6.6-20.6-41,8.8-74.9,24.7-90.1,66.5-9.1,25.1-22.7,47.5-39.2,68.6-17.6,22.6-33.9,46.2-50.8,69.4-9.4,12.9-18,26.4-28.3,38.5-7.1,8.4-16.6,14.7-24.7,22.3-9.4,8.8-8.5,17.2,2,24.8,21.5-15.4,21.6-15.4,27.4-8.7-3.7,2.2-7.3,4.1-10.8,6.5s-7,5.2-12.3,9.3q23.1,12.3,40.5,21.6c6.6-9.7,11.8-17.7,17.6-25.3,1.3-1.6,5-1.4,7.6-2-.7,2.4-1,5.1-2.3,7.3-3.6,6.1-8.1,11.7-11.1,18-.9,1.8,1.6,7.3,3.5,7.9,11.4,3.7,23,7.6,34.9,9.2,15.5,2.1,20.2-4.4,16.1-19.5-7.5-28-2.9-39.9,21.8-56a81.51,81.51,0,0,0,30.1-35.1c8.4-18.4,17.2-36.8,27.4-54.1,18.4-31.1,30.6-64.1,35.6-99.8.5-3.5,1.9-6.9,2.8-10.4,1.1,0,2.2,0,3.3.1.6,3.4,2,6.8,1.7,10.1-2.3,26-4,52.1-7.8,77.9-8.9,60.2-25.2,118.7-45.4,176-6.4,18-10.5,36.6-8.1,55.7,2.9,23,7.4,45.7,10.2,68.7,3.2,26.2,6.4,52.5,7.4,78.9,1,25-10.7,39.5-34.1,47.7-3.9,1.4-7.5,3.2-12.8,5.5,9.4,13,21.6,19.6,34.2,25.5,1.4.7,4.6-.7,6.1-2,9.1-7.8,17.8-16,26.9-23.9,1.8-1.6,4.7-1.9,7-2.9-.3,2.3-.1,4.9-.9,7a20,20,0,0,1-4.6,6.3c-7.7,7.3-15.7,14.4-24,22,14.6,7.1,28.8,14,43.2,20.9,7.5-16.3,14.3-31.1,21.7-47.3,2.5,3,4.2,4.2,4,4.8-5.7,15.1-11.6,30-17.9,46,14.1,5.9,28,11.8,42.5,17.9,3.8-11.1,7-21,10.8-30.7.8-2,4-3.1,6.1-4.6.3,2.3,1.4,4.8.8,6.8-3.1,10.2-6.7,20.2-10.6,31.9,13.9,3.6,26.6,7.5,39.6,10.1,15.8,3.2,25.1-1.1,29.2-16.8a230.61,230.61,0,0,0,7.2-51c.5-15.5-2.4-31.1-4.1-46.6a6.37,6.37,0,0,0-3-4.4c-17.5-7.5-27.2-22.2-34.5-38.5-40.1-89.3-52.2-180.6-18.4-275,10-27.8,24-52.2,49.4-68.5,86.7-55.6,207.2,3.9,216.8,106.9,4.2,45-6.8,86.9-24.6,127.4-11.6,26.3-25.2,51.6-36.8,77.9-8.3,18.9-15.3,38.2-35.3,48.4,10,11.3,9.7,16.2-.8,26.1-5.4,5.2-11.2,10-16.3,15.5-11.6,12.4-13,25-5,40.3,22.9,2.1,44.8-1.1,65.5-11.6,2.3-1.2,5.5-.6,8.3-.9.2,1.2.4,2.4.7,3.6-20.1,14.6-43.9,16.7-69.1,18.4a273.5,273.5,0,0,0,27.5,27.4c1.9,1.7,5.5,2.2,8.2,2,17.5-1.1,32.9-7.2,45.8-19.6,3.4-3.2,7.9-5.3,11.8-7.8-2.3,4.5-3.8,9.7-7.1,13.3C692.2,1434.6,676.5,1440.6,657.5,1443.7Zm-199.4-761c-44.7,3.4-72.8-19.9-89.1-61.1-5.6,17.1-9.4,33.5-16.3,48.4-11.2,24.3-6,44.1,11.8,62.4C385.6,754,398.9,780,405.8,809c4.4,18.3,14.2,32.5,30.2,41.5a343.1,343.1,0,0,0,45.2,21c52.2,19.7,106.9,26.1,162,30.3,28,2.1,54.6-2.7,77.8-18,28-18.5,55.1-38.5,81.5-59.2,21.6-16.9,32.4-40.6,38.5-67.4q14.1-62,31.7-123.1a244.64,244.64,0,0,0,9.7-81.1c-1-20.8.5-41.7,1.5-62.5.6-10.9,2.7-21.8,4.3-34-4.1,1.7-7.1,2.9-10,4.2Q753.1,519.05,628,577.3c-27.8,12.9-55.9,25.2-83.8,38.1-21.6,10-35,28.6-49.1,45.6,14.9.7,29.2.6,43.4,2,39.9,4.1,79.6,10.7,120,6.3,15.2-1.6,26,6.7,31.5,21.5,5.7,15.1,6.9,31.1,1.5,46.1-14.1,39.5-37.6,71.8-76.7,89.9-32.9,15.1-66.7,19.2-99.8.9-21.8-12-37.1-28.9-40.6-55.3-2.8-21.2-8.3-42.1-12.3-63.2C460.6,700.7,459.5,692.1,458.1,682.7ZM378.6,557c.5-.8,1-1.6,1.6-2.4,24.2-35,57.5-46,98.4-38,26.8,5.2,52.4,13,75.8,27.8,15.9,10.1,33.7,11.6,51.9,7.9,25.2-5,46.8-18.1,67.9-31.7,66.2-42.6,136.9-74.4,214-91.2,3.1-.7,6.7-4.7,7.9-7.9,3.7-10.4,6-21.3,9.6-31.8,8.4-24.3,8.5-48.7,1.5-73.2-13.5-47.7-56.4-75.8-102.7-67.6-22.1,3.9-27.8,12.3-23.6,34.5l.6,3.9c1.7,14.2-5.7,23.6-20.1,24.2a166,166,0,0,1-23.4-1.2c-16.2-1.7-32.4-4.2-48.6-5.6-32.6-2.7-64.4,3.2-96,10-33.1,7.1-51.5-1.3-64-32.4-13.9-34.7-66.2-53.7-102.7-35.9C383.6,267.4,363,315.2,378,364c7.6,24.6,17.8,48.3,27.1,72.3s7.6,46.2-7,68C387.4,520,379.9,537.4,378.6,557ZM452,1138.1c.6,35.7,8.6,73.6,20,110.9,7.5,24.4,15.7,48.5,32.5,68.5,13.4,16,23.2,17.8,40.8,7.2,19.7-11.9,41-16.4,63.8-14.8,23.9,1.7,34.9-4.1,45.3-25.7,15.6-32.3,31.2-64.6,45.8-97.4,13.2-29.6,22.5-60.4,25.1-93.1,6.1-77.3-44.4-141.7-119.7-152.4-56.1-8-108.1,20.2-128.5,71.2C461.5,1051.6,452.1,1092.3,452,1138.1Zm63.8-470.8c-7.7,1.3-17.8,2.4-27.5,4.8-21.6,5.6-25.2,13.8-19.8,34.9,5.5,21.4,8.7,43.4,13.7,64.9,2.2,9.3,4.7,19.5,10.3,26.8,19.5,25.5,46.4,36.9,78.2,33.2,55.6-6.5,90.2-40.1,111.7-89.5,6.3-14.3,6.9-29,2.8-44-4.4-16.4-13.8-22.3-30.7-22.2-23.4.2-46.9,0-70.3-1.5C562.3,673.3,540.3,670,515.8,667.3ZM157.2,1044.7c18.6-15.1,33.3-30.6,45-49.5,14.3-23,28.6-46.2,46-66.8,20.1-23.8,36.8-49,47.6-78.1,7.8-21,20.9-37.5,39.9-49.3,1.5-1,2.9-2.1,5.8-4.2H157.2ZM850.6,796.5c43.3,36.8,65,83.1,81.3,133.3,11.1,34,26,66.8,39.6,99.9,3.6,8.7,9.1,16.7,13.7,25.1.5-.2,1-.5,1.6-.7V796.5ZM384.2,910.1c-.8-.1-1.7-.3-2.5-.4-2.3,5.7-4.2,11.5-6.9,16.9-13.8,27-28.8,53.4-41.3,81-9.3,20.4-22,36.5-41.1,48.1-14.9,9-19.2,21.6-15.2,38.5,2,8.4,3.1,17,4.8,26.8,14,0,29.2.2,44.5-.3,2.2-.1,5.7-3.3,6.4-5.6,13.3-45.3,26.9-90.5,38.9-136.2C377.5,956.4,380.1,933,384.2,910.1Zm518.9,210.4c0-13.3-1.7-25.4.3-36.9,6-33.9-.3-65.5-14.5-96-3.1-6.7-8.5-12.3-12.8-18.5l-4.8.9c-20,47.8-19.8,99.2-25.2,150.4C866.7,1120.5,885.4,1120.5,903.1,1120.5Zm-745.4-31.4v31.2h60C197.4,1109.7,177.9,1099.6,157.7,1089.1Z"/><path class="cls-1" d="M1200.1,743.1q-171.45.15-342.9.2c-1.9,0-3.8-.5-7.7-1,9.8-35.1,18.6-69.8,29.1-104.1,7.6-24.9,12.7-49.9,11-76-.4-6.5,2.4-7.6,8-7.6,19.9,0,39.8-.4,59.7-.7q121.35-1.5,242.8-3.1Z"/><path class="cls-1" d="M1200.1,1121.6q-60.3-.3-120.5-.5c-15-.1-30.1,0-45.1,0-12.2,0-16.3-3.8-17.2-16.3-.2-2.3-.1-4.6-.1-6.9V796h182.9Z"/><path class="cls-1" d="M.1,796.1H126.8v325.5H.1Z"/><path d="M.1,458.8c16,2.7,32.1,8.3,47.9,7.6,33.3-1.5,65.1,2.6,95.8,15.1q75.3,30.6,150.3,61.5a81.25,81.25,0,0,1,8.2,4.5l-.3,2.7c-10.2,0-20.5-.1-30.7,0Q163.6,552,55.8,554L0,554.9C.1,522.9.1,490.8.1,458.8Z"/><path class="cls-1" d="M657.5,1443.7c19-3.1,34.7-9.1,46.6-22,3.3-3.6,4.8-8.8,7.1-13.3-4,2.6-8.5,4.6-11.8,7.8-12.9,12.4-28.3,18.5-45.8,19.6-2.7.2-6.3-.3-8.2-2a273.5,273.5,0,0,1-27.5-27.4c25.2-1.7,49-3.7,69.1-18.4-.2-1.2-.4-2.4-.7-3.6-2.8.3-6-.3-8.3.9-20.7,10.5-42.6,13.8-65.5,11.6-8-15.3-6.6-27.9,5-40.3,5.1-5.5,10.9-10.4,16.3-15.5,10.5-9.9,10.8-14.9.8-26.1,19.9-10.2,26.9-29.6,35.3-48.4,11.6-26.2,25.2-51.6,36.8-77.9,17.8-40.5,28.8-82.4,24.6-127.4-9.6-103-130-162.5-216.8-106.9-25.5,16.3-39.5,40.7-49.4,68.5-33.8,94.4-21.7,185.7,18.4,275,7.3,16.2,17,31,34.5,38.5a6.37,6.37,0,0,1,3,4.4c1.6,15.5,4.6,31.1,4.1,46.6a230.61,230.61,0,0,1-7.2,51c-4.2,15.7-13.4,20-29.2,16.8-13-2.6-25.7-6.5-39.6-10.1,4-11.7,7.5-21.8,10.6-31.9.6-2-.5-4.5-.8-6.8-2.1,1.5-5.3,2.6-6.1,4.6-3.8,9.7-7,19.6-10.8,30.7-14.5-6.1-28.4-12-42.5-17.9,6.3-16,12.2-31,17.9-46,.2-.6-1.5-1.9-4-4.8-7.4,16.1-14.2,31-21.7,47.3-14.3-7-28.5-13.8-43.2-20.9,8.4-7.6,16.3-14.7,24-22a20,20,0,0,0,4.6-6.3c.9-2.1.7-4.6.9-7-2.4.9-5.2,1.3-7,2.9-9.1,7.8-17.8,16-26.9,23.9-1.6,1.3-4.7,2.7-6.1,2-12.6-6-24.8-12.5-34.2-25.5,5.3-2.3,9-4.2,12.8-5.5,23.4-8.3,35.1-22.7,34.1-47.7-1-26.4-4.2-52.7-7.4-78.9-2.8-23-7.4-45.7-10.2-68.7-2.4-19.1,1.8-37.7,8.1-55.7,20.2-57.4,36.5-115.8,45.4-176,3.8-25.8,5.4-51.9,7.8-77.9.3-3.3-1.1-6.7-1.7-10.1-1.1,0-2.2,0-3.3-.1-1,3.5-2.3,6.9-2.8,10.4C381.7,893,369.4,925.9,351,957c-10.3,17.4-19,35.7-27.4,54.1a80.39,80.39,0,0,1-30.1,35.1c-24.7,16-29.3,28-21.8,56,4,15.1-.7,21.6-16.1,19.5-11.8-1.6-23.4-5.5-34.9-9.2-1.9-.6-4.4-6.1-3.5-7.9,3-6.3,7.5-11.9,11.1-18,1.3-2.1,1.6-4.8,2.3-7.3-2.6.6-6.3.3-7.6,2-5.8,7.5-11,15.6-17.6,25.3q-17.4-9.3-40.5-21.6c5.3-4,8.7-6.8,12.3-9.3,3.4-2.3,7.1-4.3,10.8-6.5-5.9-6.7-5.9-6.6-27.4,8.7-10.5-7.5-11.3-16-2-24.8,8.1-7.6,17.6-13.9,24.7-22.3,10.3-12.1,18.9-25.6,28.3-38.5,16.8-23.2,33.1-46.9,50.8-69.4,16.4-21.1,30.1-43.5,39.2-68.6,15.1-41.7,49-57.7,90.1-66.5,2.3,7.1,5.2,13.7,6.6,20.6,5.3,25.8,20.5,44.2,44.1,53.9,29.2,11.9,58.8,24.3,89.4,30.8,39.4,8.4,80,12.1,120.2,15.9,21.3,2,42.5-2.8,61.5-13.2a484.26,484.26,0,0,0,103.4-75.4c7.7-7.3,13.4-16.7,20.5-25.8,23.9,18.8,45.1,40.6,58.7,68.1a561.56,561.56,0,0,1,30.1,75.2,629.92,629.92,0,0,0,69.4,147.6,257.26,257.26,0,0,1,18.1,32.4c5.5,12,1.6,19.3-10.4,24.3-5.9-9.4-11.7-18.7-17.7-28a19.24,19.24,0,0,0-5.4-5.6c-1.6-1-4.1-.7-6.2-1,.4,2.2.2,4.8,1.3,6.5,5.6,8.7,11.5,17.2,17.2,25.9.8,1.2,1,2.9,1.8,5.4-15.8,3.1-30.4,1.4-44.7-3.6-1.9-.7-3.2-4.8-3.6-7.5-1.3-7.7-1.6-15.5-3.1-23.1-.4-1.8-4-3-6.1-4.5-.3,2.3-1,4.6-.7,6.9.9,7.3,2.2,14.5,3.5,22.3-20.1-2.7-34.8-22.9-30.9-41.7,7.1-34.3,4.3-67.5-9-99.8a109.55,109.55,0,0,0-12.5-23.1c-9.1-12.3-19.7-11.4-24.9,2.8-5.6,15.2-10.6,31.2-12.1,47.2q-8.7,88.2-14.7,176.6c-4.3,63.8-7.2,127.8-10.7,191.7-3.2,58.8-46,79.7-88.1,83a40.67,40.67,0,0,1-4.7-.4c7.5-11.2,14.7-21.8,21.8-32.6,1.1-1.6,2.3-3.4,2.5-5.3s-.6-4.1-1-6.2c-2,1.1-4.5,1.8-5.8,3.5-8.3,11.2-16.3,22.7-24.4,34-3.5,4.9-7.9,5.6-13.7,4.1C692.3,1465,675,1456.6,657.5,1443.7Z"/><path class="cls-1" d="M458.1,682.7c1.5,9.3,2.6,17.9,4.2,26.4,4.1,21.1,9.5,42,12.3,63.2,3.5,26.4,18.8,43.3,40.6,55.3,33.2,18.3,66.9,14.3,99.8-.9,39.2-18,62.6-50.4,76.7-89.9,5.4-15.1,4.1-31-1.5-46.1-5.5-14.8-16.3-23.1-31.5-21.5-40.5,4.4-80.1-2.2-120-6.3-14.2-1.5-28.5-1.4-43.4-2,14-17,27.4-35.7,49.1-45.6,27.9-12.8,56-25.1,83.8-38.1Q753.45,519,878.4,460.6c2.9-1.3,5.9-2.5,10-4.2-1.6,12.2-3.7,23.1-4.3,34-1.1,20.8-2.5,41.7-1.5,62.5a247,247,0,0,1-9.7,81.1c-11.7,40.7-22.4,81.8-31.7,123.1-6.1,26.8-16.8,50.5-38.5,67.4-26.5,20.7-53.5,40.7-81.5,59.2-23.2,15.3-49.8,20.2-77.8,18-55.1-4.2-109.9-10.7-162-30.3a330.72,330.72,0,0,1-45.2-21c-16-9-25.8-23.1-30.2-41.5-7-29.1-20.3-55.1-41.3-76.6-17.8-18.2-23-38.1-11.8-62.4,6.9-15,10.7-31.3,16.3-48.4C385.3,662.8,413.4,686.1,458.1,682.7Zm274.2-81.1a1.27,1.27,0,0,0-.1-.6c-9.1,1-18.2,1.6-27.2,2.9-13.2,2-22.3,9.2-25.3,22.5s.3,25.5,11,34.5c20.8,17.6,59.8,10.8,73.1-12.9,6.2-11.1,9.6-23.4,2.8-35.5-6.7-11.9-18.8-11.3-30.3-11.2C734.9,601.4,733.6,601.6,732.3,601.6Zm34.9-20.7c-.2-1.3-.3-2.5-.5-3.8-27.5-10.8-54.4-10.2-80.3,5.5-1.5.9-1.9,3.5-2.8,5.3,2.2.2,4.9,1.5,6.4.6,22.2-13.5,45.4-14.8,69.7-6.8C761.9,582.4,764.7,581.2,767.2,580.9Z"/><path class="cls-1" d="M378.6,557c1.3-19.6,8.8-37.1,19.3-52.7,14.6-21.8,16.2-44.1,7-68s-19.5-47.7-27.1-72.3c-15-48.9,5.6-96.7,48.7-117.6,36.6-17.8,88.8,1.2,102.7,35.9,12.5,31.2,30.9,39.5,64,32.4,31.7-6.8,63.4-12.7,96-10,16.3,1.4,32.4,3.9,48.6,5.6a166.79,166.79,0,0,0,23.4,1.2c14.4-.6,21.9-10,20.1-24.2-.2-1.3-.3-2.6-.6-3.9-4.2-22.2,1.5-30.6,23.6-34.5,46.3-8.2,89.2,19.9,102.7,67.6,7,24.5,6.9,48.9-1.5,73.2-3.6,10.5-5.9,21.4-9.6,31.8-1.2,3.2-4.8,7.2-7.9,7.9-77.2,16.8-147.8,48.6-214,91.2-21.1,13.6-42.7,26.7-67.9,31.7-18.2,3.7-36.1,2.1-51.9-7.9-23.3-14.8-49-22.6-75.8-27.8-40.8-7.9-74.2,3-98.4,38C379.6,555.4,379.1,556.2,378.6,557Zm60.5-290.7c-4.2.3-9.1.4-13.9,1.1-17.9,2.5-24.7,11.1-19.3,28.3,5.8,18.6,13.7,36.5,21.3,54.5,5,11.7,10.9,14.3,23.5,11.1,5.3-1.3,10.9-3,15.4-6q22.2-15,43.7-31.2c11.6-8.7,12-12.7,4.2-25.2a49.56,49.56,0,0,0-6.1-7.6C489.2,272.2,464.8,268.4,439.1,266.3Zm389.1,93.3c0-.3.1-.7.1-1a114.16,114.16,0,0,0,11.7-.1c8.1-.8,16.2-1.7,24.3-3,15.4-2.5,19.4-7.2,20.1-22.9,1.3-26.9-12.8-45.8-32.9-61-15.7-11.9-28.3-9.1-36,8.9-7.9,18.5-14.1,37.8-20.3,57-3,9.2,1.3,16,10.9,18.6C813.2,358,820.8,358.5,828.2,359.6Z"/><path class="cls-1" d="M452,1138.1c.1-45.8,9.5-86.4,25.1-125.5,20.4-51,72.4-79.2,128.5-71.2,75.3,10.7,125.8,75.1,119.7,152.4-2.6,32.6-11.9,63.5-25.1,93.1-14.6,32.7-30.2,65.1-45.8,97.4-10.4,21.6-21.4,27.4-45.3,25.7-22.8-1.6-44,2.9-63.8,14.8-17.6,10.5-27.4,8.7-40.8-7.2-16.8-20-25-44.1-32.5-68.5C460.5,1211.7,452.5,1173.8,452,1138.1Z"/><path class="cls-1" d="M515.8,667.3c24.5,2.7,46.5,6.1,68.5,7.5,23.4,1.5,46.9,1.7,70.3,1.5,16.9-.2,26.3,5.8,30.7,22.2,4,15,3.4,29.7-2.8,44-21.6,49.4-56.2,83-111.7,89.5-31.8,3.7-58.7-7.7-78.2-33.2-5.6-7.3-8.1-17.5-10.3-26.8-5.1-21.5-8.3-43.5-13.7-64.9-5.4-21.2-1.8-29.4,19.8-34.9C498,669.6,508.1,668.6,515.8,667.3Zm4.7,91.7c-14,0-27.5,10.8-27.2,21.7.3,10.4,13,19.9,26.5,19.8,12.3-.1,19.6-8.2,19.6-21.9C539.5,765.6,533.1,758.9,520.5,759Zm80.5,4.6c-13.2.1-23.7,9.9-23.6,22.1.1,10.8,9.5,18.9,21.7,19A21.62,21.62,0,0,0,621,783.2C621,772,612.4,763.5,601,763.6Z"/><path class="cls-1" d="M157.2,1044.7V796.8H341.5c-2.9,2.1-4.3,3.2-5.8,4.2-19,11.8-32.1,28.3-39.9,49.3-10.8,29.1-27.5,54.3-47.6,78.1-17.3,20.6-31.7,43.9-46,66.8C190.5,1014.1,175.8,1029.6,157.2,1044.7Z"/><path class="cls-1" d="M850.6,796.5H986.8v257.6c-.5.2-1,.5-1.6.7-4.6-8.3-10-16.3-13.7-25.1-13.7-33.1-28.5-65.9-39.6-99.9C915.6,879.6,893.9,833.3,850.6,796.5Z"/><path class="cls-1" d="M384.2,910.1c-4.1,23-6.7,46.3-12.6,68.9-12,45.7-25.6,90.9-38.9,136.2-.7,2.4-4.1,5.6-6.4,5.6-15.2.5-30.5.3-44.5.3-1.7-9.8-2.8-18.4-4.8-26.8-4-16.9.2-29.5,15.2-38.5,19.2-11.6,31.8-27.7,41.1-48.1,12.6-27.5,27.6-54,41.3-81,2.8-5.4,4.7-11.3,6.9-16.9A11.76,11.76,0,0,1,384.2,910.1Z"/><path class="cls-1" d="M903.1,1120.5h-57c5.4-51.2,5.2-102.5,25.2-150.4l4.8-.9c4.3,6.1,9.7,11.8,12.8,18.5,14.1,30.5,20.5,62.1,14.5,96C901.4,1095,903.1,1107.1,903.1,1120.5Z"/><path class="cls-1" d="M157.7,1089.1c20.2,10.5,39.7,20.6,60,31.2h-60Z"/><path d="M732.3,601.6l3.9-.3c11.6-.2,23.6-.8,30.3,11.2s3.4,24.4-2.8,35.5c-13.3,23.7-52.3,30.5-73.1,12.9-10.7-9-13.9-21.1-11-34.5s12.2-20.5,25.3-22.5c9-1.4,18.1-2,27.2-2.9C732.2,601.2,732.2,601.4,732.3,601.6Zm.7,6.5v.4c-3.9,0-7.8-.2-11.7.1a108.83,108.83,0,0,0-12.6,1.7c-14.5,2.5-21.6,9.3-22.8,21.5-1.3,12.6,5.3,24.4,17.4,28.8,17.6,6.4,34.1,3.9,48.5-8.5,9.1-7.8,13.7-24.8,9.5-33.9-5.4-11.8-16.4-9.8-26.3-10A13.4,13.4,0,0,0,733,608.1Z"/><path d="M767.2,580.9c-2.5.3-5.3,1.5-7.4.8-24.3-8-47.5-6.7-69.7,6.8-1.5.9-4.2-.3-6.4-.6.9-1.8,1.4-4.4,2.8-5.3,25.9-15.7,52.8-16.4,80.3-5.5C766.9,578.4,767,579.6,767.2,580.9Z"/><path d="M439.1,266.3c25.7,2.1,50.1,5.9,68.8,25.1A44.21,44.21,0,0,1,514,299c7.8,12.5,7.4,16.5-4.2,25.2q-21.45,16.2-43.7,31.2c-4.5,3-10,4.7-15.4,6-12.7,3.1-18.6.6-23.5-11.1-7.6-18-15.5-35.9-21.3-54.5-5.4-17.1,1.4-25.8,19.3-28.3C430,266.7,434.9,266.6,439.1,266.3Z"/><path d="M828.2,359.6c-7.4-1.1-14.9-1.5-22.1-3.4-9.6-2.5-13.8-9.4-10.9-18.6,6.2-19.2,12.3-38.5,20.3-57,7.7-18,20.4-20.8,36-8.9,20,15.2,34.1,34.1,32.9,61-.7,15.6-4.7,20.4-20.1,22.9-8,1.3-16.1,2.2-24.3,3a114.16,114.16,0,0,1-11.7.1A2.22,2.22,0,0,0,828.2,359.6Z"/><path d="M520.5,759c12.6,0,19,6.6,18.9,19.7,0,13.6-7.3,21.7-19.6,21.9-13.5.1-26.2-9.4-26.5-19.8C493,769.8,506.5,759,520.5,759Z"/><path d="M601,763.6c11.4-.1,20,8.4,20,19.6a21.49,21.49,0,0,1-21.9,21.5c-12.3-.1-21.6-8.2-21.7-19C577.3,773.5,587.8,763.7,601,763.6Z"/><path class="cls-1" d="M733,608.1h2c10,.2,20.9-1.8,26.3,10,4.2,9.1-.4,26.1-9.5,33.9-14.4,12.3-30.9,14.8-48.5,8.5-12.1-4.4-18.7-16.2-17.4-28.8,1.2-12.2,8.3-19,22.8-21.5,4.2-.7,8.4-1.4,12.6-1.7,3.9-.3,7.8-.1,11.7-.1Zm-10,48.5c8-3,15.8-4.5,21.6-8.6,4.4-3.2,8.5-9.5,9-14.9,1.1-10.4-13.1-20.8-27.4-21.6-15.6-.9-28.8,6.6-29.3,18.1-.2,5.6,1.7,13.1,5.5,16.6C707.8,651.1,715.8,653.2,723,656.6Z"/><path d="M723,656.6c-7.1-3.4-15.2-5.4-20.6-10.4-3.8-3.5-5.8-11-5.5-16.6.5-11.5,13.7-19,29.3-18.1,14.3.8,28.4,11.2,27.4,21.6-.6,5.3-4.6,11.7-9,14.9C738.7,652.1,731,653.5,723,656.6Z"/></g></g></svg>