<svg id="Layer_1" data-name="Layer 1" xmlns="http://www.w3.org/2000/svg" viewBox="0 0 1200 1550"><defs><style>.cls-1{fill:#fff;}</style></defs><path class="cls-1" d="M0,1545.79V1211a13.85,13.85,0,0,0,3.07-1.25c5.89-4.23,11.63-8.67,17.58-12.82,14-9.78,27.73-20,42.24-29,17.79-11,36.06-21.32,54.5-31.21,21.15-11.34,42.52-22.31,64.17-32.67q35.52-17,71.75-32.53c23.88-10.16,48.39-18.73,73.14-26.6,9.67-3.07,19.37-6.08,29-9.24,4.18-1.37,7.85-1.15,11.12,2.14,6.67,6.75,14,13,20,20.22,17.08,20.51,31.24,43,43.38,66.78,4.38,8.6,9.12,17,13.66,25.54.75,1.41,1.29,2.94,2,4.4,3.2,6.85,6.34,13.74,9.7,20.52.54,1.07,2.11,1.64,3.21,2.44a16.74,16.74,0,0,0,2.06-3.46c1-3.21,1.65-6.51,2.45-9.77,1-4.21,2.1-8.41,3.07-12.63.76-3.3,1.24-6.67,2.11-9.93,3.06-11.36,6.26-22.67,9.35-34,5-18.34,9.92-36.7,14.91-55.05,5.7-21,11.58-41.94,17-63,1.2-4.62,3.5-7.18,7.85-8.76,10.31-3.73,20.52-7.72,30.73-11.71,21.6-8.46,43.22-16.91,64.76-25.53q30.72-12.3,61.31-25c6.41-2.63,12.74-5.45,19.06-8.29,3.38-1.52,6.46-1.81,9.28,1.13a27.83,27.83,0,0,0,3,2.39c14.18,11.17,28.45,22.24,42.51,33.56C766,962.17,783.89,977,802,991.49c3.73,3,4.87,6.44,4.84,10.91a646.48,646.48,0,0,0,4.14,80.15c2.13,18.09,4.1,36.21,6.94,54.18A758.86,758.86,0,0,0,833.69,1212c1.73,6.54,3.79,13,6,19.38.82,2.35,2.1,5.15,4,6.38,4.16,2.63,8.69,5.22,13.41,6.33a204.3,204.3,0,0,0,43.68,4.85c21,.31,41.94.31,62.89-.24,22.44-.6,44.76-2.87,66.5-8.85,6.36-1.74,12.51-4.23,18.7-6.54,2.25-.84,4.77-2,4.73-4.87s-2.79-3.67-5.08-4.36a58.12,58.12,0,0,0-8-2c-15.68-2.4-30.41-8-44.74-14.78a726.74,726.74,0,0,1-72.06-38.52,284,284,0,0,1-28.28-19.39c-21.67-17.23-36.18-39.59-45-65.74a300.57,300.57,0,0,1-12-48.76c-1.71-10.63-4.71-21.06-4.42-32,.16-5.78-.33-11.61.07-17.36a9.23,9.23,0,0,0-3.84-8.73c-6.55-5.19-12.84-10.71-19.35-16q-17.85-14.43-35.85-28.71c-14-11.1-28.15-22.1-42.21-33.17a34.15,34.15,0,0,1-3.1-3.15c2.83-3,6.21-3.66,9.24-5,18.62-8.08,37.21-16.21,55.85-24.21q42.18-18.09,84.45-36.07c25-10.71,50.16-21.19,76-30a651.27,651.27,0,0,1,82.89-22.93,400.42,400.42,0,0,1,71.1-7.6c24.82-.49,49.68-.59,74.45,1.81,5.45.51,10.88,1.17,16.32,1.76v622.3c-14.42-1.66-28.81-3.57-43.25-4.93-31.78-3-63.58-6-95.4-8.4q-40-3-80.17-4.33c-50.78-1.64-101.59-1.41-152.39-.48-32.88.61-65.79,1.48-98.62,3.2-35.42,1.86-70.79,4.69-106.16,7.4-17.2,1.32-34.37,3.1-51.51,5.09q-44.19,5.16-88.31,10.89c-23,3-46.07,5.92-69,9.59-34.06,5.46-68.09,11.2-102,17.49-20.43,3.78-40.68,8.61-60.92,13.35q-33.91,8-66.91,19.12c-15.86,5.39-31.77,10.73-47.23,17.13-21.43,8.86-42.63,18.35-63.62,28.2-19.39,9.11-38.38,19.07-57.57,28.62C11.33,1540.5,5.64,1543.1,0,1545.79Zm112.28-223.52-.34,1.53c3.42,1.08,7,1.84,10.21,3.33a40.1,40.1,0,0,1,8.9,5.58c2.77,2.34,5,5.32,7.54,8.11l6.56-.45a42.3,42.3,0,0,0-4.54-11.73c-2-3.42-3.36-7.3-6.54-10-.52,6.77,5.38,11.3,6.07,17.45-4.39-3.33-8.5-6.85-13-9.76s-9.3-5.25-14.86-4.06Zm925.05-212a12.55,12.55,0,0,1,1.67,2.82c.37,1.56.36,3.2.62,4.79.3,1.84.8,3.58,3.5,4.41a43.36,43.36,0,0,1-.76-21.17c-4.63-.26-6.88,2.07-8,5.89a30.4,30.4,0,0,0-.48,15.24c.06.29.71.45,1.54.94,1.42-4.15-.76-8.55,1.91-12.92Zm-570,246.85-1.34.35v6.65c-4,.72-5.71-4.22-9.71-3.31.25.85.26,1.39.53,1.71a7.32,7.32,0,0,0,2,2,20.63,20.63,0,0,1,9.39,9.61c5.44-1,5.49-1.11,3.55-5.58-1-2.33-1.8-4.77-2.71-7.15-.53-1.46-1.14-2.87-1.73-4.28Zm644.5-39.13-1-1.25A18.57,18.57,0,0,0,1107,1319c-3.44,3.38-7.09,6.66-9.93,10.51a126.42,126.42,0,0,0-8.39,14c-1,1.79-1.45,3.86,0,5.77,3.34-5.85,6.07-11.85,9.91-17s8.79-9.57,13.26-14.31Zm-55.09,11.7c-1.75,2.32-.72,3.43.23,4.53,1.77,2.08,3.51,4.18,5.34,6.2,5,5.51,9.46,11.33,11.79,18.54.1.32.69.48,1.33.9,1.44-2.4.51-4.42-.39-6.41-2.75-6.08-7.12-11-11.35-16.06-2.16-2.53-4.45-4.92-7-7.7Zm18.19-8.54c-2.64,6,2,29.14,6.91,33.65.2-.9.66-1.72.46-2.33a171.9,171.9,0,0,1-6.3-30.55c0-.28-.69-.51-1.09-.77ZM1060.47,951.5c.23,6.08,2.82,10.23,4.58,14.57s1.84,9.24,5.77,13.22c.61-5-2.64-15.54-7.41-24.85C1063,953.58,1062,953,1060.47,951.5ZM1058,1088.11l-1.27-.42c-5.81,8.78-8.71,18.22-6,28.91,1-4.73.9-9.67,2-14.32C1053.9,1097.41,1056.2,1092.82,1058,1088.11Zm21.53-137.33c-4.41,5.52-5.5,17.86-2.13,23.94a72.6,72.6,0,0,0,.66-7.8c.15-2.57.23-5.14.58-7.68s2.18-5,.91-8.46Zm-94.89-80c.66-6.43-3-10.9-7.15-15.15,1.12,5.59,4.39,10.24,7.17,15.13Zm78,107.09,1-.89c-1.77-4.62-2.46-9.7-6.1-13.56-.88,4.67,1.64,8.53,2.77,12.69.16.74,1.51,1.17,2.32,1.74ZM481.41,1354.5c-5.85,6-7.57,12.9-4.68,16.75ZM148,1335.24l1.18.08c0-3.15-.43-6.37.1-9.42s2.06-6,3.44-9.75C147.3,1320.55,145.69,1329.64,148,1335.24ZM647.35,1110c1.55-5.07,1.48-6.33-.46-9.67C646.1,1103.94,645.64,1107,647.35,1110Zm-11.84-4.56c-.33.77-.61,1.09-.55,1.33.6,2.52,1.25,5,1.92,7.68C638.71,1112.21,638.71,1112.21,635.51,1105.4ZM990.69,857.9l-1.33.05c-.23,2.4-.59,4.79,1.33,7.08Zm12.09-1.6c-3.88,1.86-4.09,2.5-2.48,6.46ZM634.3,1100.82c-.12-.28-.24-.55-.37-.83a3.13,3.13,0,0,0-.62.88c0,.14.33.4.52.61Z"/><path class="cls-1" d="M0,625.46V-6.46H1200V277.08a1.18,1.18,0,0,1-.45-.18q-29.38-29.43-58.75-58.9c-1.33-1.32-2.47-2.82-4-4.61,2.86-2.58,5.33-4.84,7.85-7.06,8.22-7.2,14.58-15.85,20-25.26,8.93-15.4,11.78-32.26,11.67-49.75a59.91,59.91,0,0,0-6.74-28c-11.65-21.93-30.48-35-53.61-42.31-13.19-4.15-26.89-4.92-40.69-4.5-8.53.26-17.08-.12-25.63-.11-2.47,0-3.8-.78-4.32-3.41-.39-2-1.57-3.79-2.44-5.66a44.16,44.16,0,0,1-2.26-4.76c-5.31-16.36-16.38-26.26-33.22-29.55a69.87,69.87,0,0,0-30.72.84,220.63,220.63,0,0,0-22.41,7.5c-3.12,1.17-5.44,1.22-7.79-1.35-2.61-2.85-5.48-5.48-8.28-8.14s-5.8-5.62-8.89-8.2C927,1.73,926,2.18,924.68,5c-.51,1.07-1.24,2.39-2.21,2.82-2.46,1.08-3,3.13-3.59,5.36-2.79,11.1-5.65,22.17-8.43,33.27a15.55,15.55,0,0,1-4.67,7.74c-2.69,2.55-5.35,5.14-7.88,7.84-12.38,13.26-22.1,28.51-32.12,43.5-2.47,3.7-5.12,5.26-9.43,5.17a102.19,102.19,0,0,0-25.91,2.6c-27.87,6.63-50.27,21.17-66,45.31a73,73,0,0,0-9.81,23c-1.81,7.5-1.83,15-2,22.58-.41,20.86,9.23,36.42,26,47.91,4.75,3.26,10.17,5.52,15.29,8.23l3.3,1.72a31.85,31.85,0,0,1-2.05,3.93q-13.14,18.54-26.35,37-18.66,26.16-37.38,52.29-13.05,18.28-26.18,36.54c-1,1.35-2.17,2.56-3.5,4.13-1-1.49-1.71-2.36-2.25-3.31-5.93-10.35-11.5-20.91-17.81-31-9.39-15-19.35-29.71-29-44.6-20.77-32.07-41.35-64.26-62.26-96.24-15.62-23.88-31.62-47.5-47.49-71.21q-3.9-5.82-8.1-11.44a12,12,0,0,0-10.45-5,42.83,42.83,0,0,1-1.65,6.12c-2.71,6.37-5.7,12.63-8.41,19-7.86,18.53-16,37-23.33,55.7-7.79,19.94-14.77,40.21-22.09,60.34q-13,35.89-26.1,71.74a22.35,22.35,0,0,1-2.5,4c-5.14-7.74-9.88-14.81-14.53-21.93-1.28-2-.83-4,.27-6,3.13-5.53,4.68-11.56,5.85-17.8a88.19,88.19,0,0,0-7-55.17c-7.41-15.79-19.45-26.62-35.51-33.16-14.9-6.07-30.57-7.7-46.43-8.2-17-.54-32.07,4.46-45,15.59a26.06,26.06,0,0,1-3,1.94,9.53,9.53,0,0,1-1.11-.77,4.62,4.62,0,0,1-.9-1.12c-2.83-5.93-7.79-7.78-14-7.39a60.94,60.94,0,0,0-6.74.5,65.16,65.16,0,0,0-39.64,23.09,108,108,0,0,0-14.27,22.34c-8.33,17.18-15.6,34.73-14.73,54.43a3.79,3.79,0,0,1-2.64,4.09c-.9.36-1.84.61-2.74,1-11.39,4.51-20.73,11.67-25.37,23.17-8.76,21.71-7.67,42.91,5.74,62.69,14.08,20.77,36,27.31,58.51,19.52,18.3-6.35,34.83-16,48.55-29.94,2.3-2.33,4.41-3,7.71-2a76.58,76.58,0,0,0,24.34,3.35c4.84-.17,9.67-.44,14.5-.59a19.27,19.27,0,0,1,3.47.53c-1.26,2.31-2.2,4.16-3.26,5.94-8.6,14.38-17.43,28.62-25.78,43.13-11.9,20.66-23.95,41.25-35,62.35-16.47,31.39-32.13,63.19-48.16,94.8-.91,1.79-2,3.46-3.06,5.19l-1.18-.12c-.43-1.78-1-3.54-1.27-5.34Q214.67,585,211.5,566c-2.37-14.47-4.54-29-7-43.43-2.26-13.18-4.65-26.35-7.32-39.44a34.8,34.8,0,0,0-6.64-15,20.68,20.68,0,0,0-3.28,3.46,28,28,0,0,0-2.2,5.34c-5.31,15.9-10.55,31.81-15.89,47.7-.79,2.36-2,4.58-3.3,7.6-2.14-2.12-3.72-3.63-5.24-5.21-4.31-4.47-6.2-4.33-9.73.94a69.41,69.41,0,0,0-4,6.63c-7.64,14.89-14.93,30-22.91,44.7-11.83,21.81-24.13,43.37-36.27,65A31.56,31.56,0,0,1,85,647.72c-5.4-6-9.15-12.74-14.07-18.58s-9.69-11.65-14.65-17.38S46.1,600.14,40.92,594.38s-9.6-12.08-15.54-16.68c-4.65.82-7.06,3.46-8.58,7.37C12,597.64,7,610,2,622.42A19.22,19.22,0,0,1,0,625.46Zm309.57-551c-5.67.41-10.71,1.86-15,5.31a29.67,29.67,0,0,0-10.85,18.8,43.57,43.57,0,0,0-.16,10.08c.06,1,1.41,2.68,2.15,2.67a4.53,4.53,0,0,0,3.33-2c.86-1.64,1-3.68,1.45-5.54,1-3.72,1.88-7.45,3-11.13,1.79-6,6.11-8.06,12.14-8.09,6.56,0,12.2,2.53,17.94,5.1,5,2.23,9.85-.2,11.11-5.51.41-1.72.52-3.5.88-5.24C336.77,73,340,70,346,69.16a23.12,23.12,0,0,1,15,2.39c2.8,1.56,5.38,3.51,8.17,5.08s5.16.78,7-2c1.62-2.5,1.44-5.09-1.07-6.75-3.73-2.48-7.51-5.23-11.68-6.63-13.24-4.44-27.54-1.13-34.93,14-1.88,3.84-1.88,3.71-5.8,2.55-4.38-1.26-8.76-2.23-13.09-3.33ZM138.79,88.09c-4,.43-8.84.6-13.54,1.55-14.27,2.86-24,14.66-22.87,28a6.9,6.9,0,0,0,.05,1c.37,2.68-1,3.86-3.49,4.17-1.12.15-2.24.3-3.36.47a23.39,23.39,0,0,0-15.19,8.6c-5.15,6.31-7.13,14-9.31,21.56a1.56,1.56,0,0,0-.12,1c.45,1,.79,2.34,1.56,2.68a3.25,3.25,0,0,0,2.88-.82,15.82,15.82,0,0,0,2.5-4.1A97.62,97.62,0,0,0,82,142.41c2.29-7,7.41-9.79,14.25-10.26,2.57-.18,5.16-.1,7.73-.26,6.58-.4,9.69-4.72,8.38-11.07a53.4,53.4,0,0,1-1-10,10.24,10.24,0,0,1,6-9.77,26.32,26.32,0,0,1,9.19-2.6c7-.54,14-1.75,21,1.17,2.62,1.1,6.81-2.43,7.36-5.57.46-2.64-.91-4.35-4.64-4.92a112.1,112.1,0,0,0-11.52-1ZM60.26,329.53c1.44.12,2.24.2,3,.25,8,.49,11.25-3.93,8.69-11.43a18.81,18.81,0,0,1-.9-6.61c.15-4.72,2.55-6.71,7.18-6.32a14.64,14.64,0,0,1,8.64,3.86c2.26,2,5.09,1.5,7.07-.94s1.9-5.49-.23-7.36A18.48,18.48,0,0,0,82,295.92c-10.78-.42-19.18,7.39-19.92,18.62-.35,5.2-.32,5.44-5.44,6-6.89.78-12.09,4.32-16.15,9.54-3.88,5-5.93,10.68-4.66,17.16.33,1.65,1.12,3.49,3,3.21,1.27-.19,2.54-1.6,3.4-2.78.61-.82.52-2.16.74-3.25.44-2.21.72-4.47,1.35-6.6a10.25,10.25,0,0,1,8.9-7.77c2.53-.36,5.12-.41,7.06-.51Z"/><path class="cls-1" d="M1200,1405.46v151H0v-2.89c2.9-1.33,5.84-2.56,8.69-4,31.67-15.92,63.22-32,95.63-46.46a835.56,835.56,0,0,1,81.93-31.84c24.55-7.94,49.39-14.75,74.47-20.73,30-7.15,60.14-13.39,90.53-18.31,39.46-6.4,79-12.44,118.61-17.83,37.85-5.14,75.83-9.5,113.79-13.75s76.09-7.12,114.24-9.36c46.85-2.75,93.73-4.83,140.66-5,53-.23,106.11-1.29,159.11,1.8,31.55,1.84,63.11,3.53,94.59,6.28C1128.2,1397.47,1164.08,1401.7,1200,1405.46ZM632.24,1542.25c2.91-4.55,2.37-8.09-1-11.42a34.11,34.11,0,0,1-3.54-4.58c-3.74-5.23-7.55-10.4-11.08-15.76-1.43-2.18-2.22-4.78-3.69-8a9.27,9.27,0,0,0,.7,9c2.84,4.48,6,8.78,9,13.13,1.61,2.32,3.29,4.6,4.94,6.89a5.87,5.87,0,0,1-3.66-1.31c-5-3.79-9.93-7.67-14.95-11.42q-10.62-7.93-21.36-15.72c-1.3-.93-2.59-2.41-5.33-1.34a27.76,27.76,0,0,0,3,3.32c4.35,3.3,8.8,6.46,13.18,9.72,10.7,8,21.84,15.38,31,25.28A27.54,27.54,0,0,0,632.24,1542.25Zm-282.5-44.19c-7.84-5.67-10.39-13.36-10.25-22.44.15-9.66,5.11-16.21,13.66-21.17-1.38-.37-1.88-.7-2.22-.58-4.18,1.49-8,3.69-10.26,7.57-5.63,9.48-5.47,19.37-1.18,29.21,1.77,4.07,5.28,6.64,10.25,7.42Zm297.8,31.66c7.85-10.83,17.89-17.63,29.7-23.79C667.12,1505.64,650.48,1519.16,647.54,1529.72ZM355.64,1475c-2.63,1-2.9,2.94-3.12,4.87-.66,5.8,1.11,17.51,3.59,21.07C357.46,1491.9,354.5,1483.64,355.64,1475Zm16.11-2.22c-7.29,3.76-11.58,16.92-6.54,23,.55-4.45.57-8.49,1.65-12.21S370.08,1476.38,371.75,1472.79Z"/><path d="M0,625.46a19.22,19.22,0,0,0,2-3C7,610,12,597.62,16.8,585.17c1.52-3.91,3.93-6.55,8.58-7.37,5.94,4.59,10.4,11,15.54,16.68S51.25,606,56.31,611.86,66.09,623.44,71,629.24,79.63,641.85,85,647.82a34.22,34.22,0,0,0,2.69-3.44c12.14-21.64,24.44-43.2,36.27-65,8-14.72,15.27-29.81,22.91-44.7a65.52,65.52,0,0,1,4-6.63c3.53-5.28,5.42-5.41,9.73-.94,1.52,1.58,3.1,3.09,5.24,5.21,1.32-3,2.51-5.24,3.3-7.6,5.34-15.89,10.58-31.8,15.89-47.7a26.8,26.8,0,0,1,2.2-5.34,20.32,20.32,0,0,1,3.28-3.47,35.14,35.14,0,0,1,6.64,15c2.67,13.1,5.06,26.27,7.32,39.44,2.48,14.46,4.65,29,7,43.43q3.12,19.08,6.44,38.13c.31,1.8.84,3.56,1.27,5.35l1.18.12c1-1.73,2.15-3.41,3.06-5.19,16-31.61,31.69-63.41,48.16-94.8,11.07-21.1,23.12-41.69,35-62.35,8.35-14.51,17.18-28.75,25.78-43.13,1.06-1.78,2-3.63,3.26-5.94a19.54,19.54,0,0,0-3.47-.53c-4.83.15-9.66.41-14.5.59A76.5,76.5,0,0,1,293.34,395c-3.3-1-5.41-.31-7.71,2-13.72,13.93-30.25,23.59-48.55,29.94-22.48,7.79-44.43,1.25-58.51-19.52-13.41-19.78-14.5-41-5.74-62.69,4.64-11.5,14-18.66,25.37-23.17.9-.36,1.84-.61,2.74-1a3.81,3.81,0,0,0,2.64-4.09c-.87-19.7,6.4-37.25,14.73-54.43a107.52,107.52,0,0,1,14.29-22.38c10.46-12.46,23.59-20.27,39.64-23.09a65.79,65.79,0,0,1,6.74-.5c6.15-.39,11.12,1.46,14,7.39a3.9,3.9,0,0,0,.9,1.12,6.65,6.65,0,0,0,1.11.77,25.15,25.15,0,0,0,3-1.94c13-11.12,28.05-16.12,45-15.59,15.86.5,31.53,2.13,46.43,8.2,16.06,6.54,28.09,17.37,35.51,33.16a88.37,88.37,0,0,1,7,55.18c-1.17,6.24-2.72,12.26-5.85,17.8-1.1,2-1.55,4-.27,6,4.65,7.12,9.39,14.19,14.53,21.93a23.54,23.54,0,0,0,2.5-4q13.11-35.85,26.1-71.74c7.32-20.13,14.3-40.4,22.09-60.34,7.32-18.75,15.47-37.17,23.33-55.7,2.71-6.38,5.7-12.64,8.41-19a45.64,45.64,0,0,0,1.65-6.12,12,12,0,0,1,10.45,5q4.2,5.61,8.1,11.44c15.87,23.71,31.87,47.33,47.49,71.21,20.91,32,41.49,64.17,62.26,96.24,9.64,14.89,19.6,29.57,29,44.6,6.31,10.11,11.88,20.67,17.81,31,.54.95,1.22,1.82,2.25,3.31,1.33-1.57,2.52-2.78,3.5-4.13q13.13-18.24,26.18-36.54L768.84,303q13.2-18.5,26.35-37a34.85,34.85,0,0,0,2-3.93l-3.3-1.72c-5.12-2.71-10.55-5-15.29-8.23-16.74-11.49-26.38-27-26-47.91.15-7.57.17-15.08,2-22.58a72.52,72.52,0,0,1,9.81-23c15.76-24.14,38.16-38.68,66-45.31a102.14,102.14,0,0,1,25.91-2.6c4.31.09,7-1.47,9.43-5.17,10-15,19.74-30.24,32.12-43.5,2.53-2.7,5.19-5.29,7.88-7.84a15.69,15.69,0,0,0,4.67-7.74c2.78-11.1,5.64-22.17,8.43-33.27.56-2.23,1.13-4.28,3.59-5.36,1-.43,1.7-1.75,2.21-2.81,1.35-2.79,2.29-3.23,4.63-1.3,3.09,2.58,6,5.43,8.89,8.2s5.67,5.29,8.28,8.14c2.35,2.57,4.67,2.52,7.79,1.35a219,219,0,0,1,22.41-7.5,69.86,69.86,0,0,1,30.72-.84c16.84,3.29,27.91,13.19,33.22,29.55a40.66,40.66,0,0,0,2.26,4.76,29,29,0,0,1,2.44,5.67c.52,2.63,1.85,3.42,4.32,3.41,8.55,0,17.1.37,25.63.11,13.8-.42,27.5.35,40.68,4.5,23.13,7.3,42,20.38,53.61,42.3a59.91,59.91,0,0,1,6.74,28c.11,17.49-2.74,34.36-11.67,49.76-5.45,9.4-11.81,18.06-20,25.26-2.52,2.21-5,4.48-7.85,7.06,1.55,1.79,2.69,3.29,4,4.61q29.34,29.47,58.75,58.9a1.63,1.63,0,0,0,.45.18v13.48a11.12,11.12,0,0,1-1.56-1.08c-11-10.64-22.08-21.23-33-32-11.49-11.29-22.85-22.71-34.26-34.11-3.73-3.71-4.4-3.84-9.26-1.45-1.88.92-3.75,1.88-5.65,2.74-20.41,9.23-41.87,11.2-63.9,9.16-4.49-.42-5.16-.21-6,4.07-2.1,10.49-7.6,19.15-14.6,26.86-18.62,20.5-41.51,34.49-67.61,43.36-17.53,5.95-35,4.54-52.18-1.44-9.87-3.44-18.46-9.2-26.43-15.79-7.07-5.85-13.78-12.12-20.73-18.11a7,7,0,0,0-3.83-1.79c-6.74-.24-13.49-.33-20.23-.17-1,0-2.44,1.46-3,2.57-1.37,2.72-2.35,5.65-3.49,8.47-11.45,28.2-22.79,56.45-34.43,84.57-2.51,6.07-6.06,11.73-9.26,17.5-.78,1.42-1.54,3.29-4.2,3a15.33,15.33,0,0,1,.3-3.31c1.31-4,2.63-7.95,4.16-11.84q11-28.11,22.1-56.21a14.67,14.67,0,0,0,.48-2.79,12.16,12.16,0,0,0-3.46,4.21c-6.36,11.77-12.8,23.49-19,35.34-18,34.41-35.75,68.93-53.86,103.28-9.76,18.53-20,36.78-30.12,55.15-.71,1.29-1.32,2.82-3.79,3.38,3-10,7.66-18.59,11.67-27.47s9-17.29,11.8-26.67c-12.93,19.27-21.51,40.65-31.21,62.68h10.94c9,0,17.8,1.62,25.44,6.56,6.6,4.27,13.19,8.76,17.9,15.33,1.67,2.33,3.73,3.4,6.65,2.72,9-2,18.11-3.43,26.82-6.22,10.25-3.29,20.07-7.91,30.17-11.7,5.43-2,11-3.62,15.22-7.94a8.69,8.69,0,0,1,2.06-1.26c6.89-4,14.18-3.1,20.08,2.15a21,21,0,0,0,4.82,3q8.43,4.26,16.94,8.19c1.57.74,3.25,1.79,4.87,1.78,6.81,0,13,2.29,19.13,4.71a165.84,165.84,0,0,0,34.85,9.75c4.53.74,5.26.43,6.15-3.87.93-4.47,3.53-7.1,7.52-8.68a63.57,63.57,0,0,1,7.3-2.53c7.8-2,15.68-3.71,23.45-5.8,3.88-1,7.54-2.84,11.4-4,1.54-.45,4.32-.69,4.87.11,3.07,4.47,7.87,8.42,5.91,15-.24.79.2,1.78.4,3.14,2-.28,3.74-.42,5.43-.79,21.73-4.71,43.43-9.64,65.21-14.14q35.07-7.26,70.7-11.09c20-2.15,40.12-3.85,60.31-3.93V521c-4,.21-8,.53-12.07.62a534.32,534.32,0,0,0-66,5.72c-22.8,3.32-45.51,7.39-68.14,11.72-16.45,3.14-32.73,7.21-49.07,10.89a14.21,14.21,0,0,0-3.68,1.16c-.68.38-1,1.44-1.44,2.19.73.45,1.45,1.23,2.21,1.28a15,15,0,0,0,3.3-.62,39.38,39.38,0,0,1,6.67-.93,5.45,5.45,0,0,1,3.59,1.75c7.74,8.87,10.26,19.53,10,31a13.87,13.87,0,0,0,2,8.24c1.39,2.17,2.85,4.31,4.07,6.58a60.89,60.89,0,0,1,4,8.25c1.83,5.17.45,8.56-4.22,11.34a38.36,38.36,0,0,1-4.65,2.47c-13,5.59-26,11.21-39.14,16.6a23.93,23.93,0,0,1-8.89,2,115.25,115.25,0,0,1-15.3-1.41c-1.75-.25-3.4-1.43-5-2.32-.82-.44-1.39-1.42-2.23-1.73-2.5-.9-3.25-2.95-3.82-5.19-.5-2-1-4-1.63-6.33-3,1.24-5.46,2.45-8,3.25-2.91.91-5.84,1.8-8.38-1.33-.77-.94-2.8-1-4.28-1.22-2.67-.39-5.68.08-8-1a48.34,48.34,0,0,1-12.24-7.58A29.41,29.41,0,0,0,896.34,609c-2.36-.54-4.68-1.22-7-1.9-10.22-3-20.44-6-29.89-11a7.87,7.87,0,0,0-7-.14c-5.35,2.16-10.92,2.51-16.6,2.59a33,33,0,0,0-9,1.37c-4.29,1.33-8.4,3.26-12.62,4.85-12.07,4.52-24,9.29-36.25,13.39-10.69,3.58-21.67,6.28-32.45,9.59-2,.63-3.84,2.17-5.61,3.47-2.7,2-5,4.58-8,6.06-13,6.59-26.85,9.8-41.55,8.64-4.23-.34-4.47.12-4.91,4.45-1.16,11.38-2.05,22.8-3.78,34.09a297.57,297.57,0,0,1-17.62,66.16c-8.14,20.24-10.36,41.12-8.14,62.65.6,5.83,1.31,6.7,7,8.31,16.12,4.6,32.29,9,48.38,13.76,15,4.41,30,8.82,44.16,15.65,7.7,3.7,15.46,7.26,23.18,10.92a10.09,10.09,0,0,0,9.26,0c5.53-2.6,11.25-4.78,16.88-7.17L895,816.14a813.49,813.49,0,0,1,104.13-37.23c31-8.6,62.43-15,94.61-16.55,19.8-1,39.65-1.2,59.47-1,15.61.19,31.21,1.6,46.82,2.46v9.68c-5.44-.6-10.87-1.25-16.32-1.77-24.77-2.4-49.63-2.29-74.45-1.81a401.36,401.36,0,0,0-71.1,7.61,651.27,651.27,0,0,0-82.89,22.93c-25.79,8.85-50.91,19.33-76,30q-42.21,18.18-84.45,36.18c-18.64,8-37.23,16.13-55.85,24.21-3,1.32-6.41,2-9.24,5a34.15,34.15,0,0,0,3.1,3.15c14.06,11.07,28.18,22.06,42.21,33.17q18,14.25,35.85,28.71c6.51,5.25,12.8,10.77,19.35,16a9.22,9.22,0,0,1,3.84,8.72c-.4,5.76.09,11.58-.07,17.37-.29,10.92,2.71,21.35,4.42,32a300.57,300.57,0,0,0,12,48.76c8.81,26.15,23.32,48.51,45,65.74a282.86,282.86,0,0,0,28.28,19.27,726.74,726.74,0,0,0,72.06,38.52c14.33,6.73,29.06,12.38,44.86,14.81a58.12,58.12,0,0,1,8,2c2.29.69,5,1.31,5.08,4.36s-2.48,4-4.73,4.87c-6.19,2.31-12.34,4.8-18.7,6.54-21.74,6-44.06,8.25-66.5,8.85-20.95.55-41.93.55-62.89.24a204.61,204.61,0,0,1-43.71-4.88c-4.72-1.11-9.25-3.7-13.41-6.33-1.94-1.23-3.22-4-4-6.38-2.24-6.38-4.3-12.84-6-19.38A759,759,0,0,1,818,1136.73c-2.84-18-4.81-36.09-6.94-54.18a648,648,0,0,1-4.06-80.13c0-4.47-1.11-7.92-4.84-10.91-18.12-14.49-36-29.32-54-43.87-14.06-11.32-28.33-22.39-42.51-33.56a25.57,25.57,0,0,1-3-2.39c-2.82-2.94-5.9-2.64-9.28-1.13-6.32,2.84-12.65,5.67-19.06,8.3q-30.62,12.57-61.31,25c-21.54,8.62-43.16,17.07-64.76,25.53-10.21,4-20.42,8-30.73,11.71-4.35,1.58-6.65,4.14-7.85,8.76-5.48,21-11.36,42-17,63-5,18.35-9.93,36.71-14.92,55.05-3.08,11.35-6.29,22.66-9.35,34-.87,3.26-1.35,6.63-2.1,9.93-1,4.22-2,8.42-3.08,12.63-.79,3.26-1.48,6.56-2.45,9.77a16.82,16.82,0,0,1-2.18,3.4c-1.1-.8-2.67-1.37-3.21-2.44-3.36-6.78-6.5-13.67-9.7-20.52-.68-1.46-1.22-3-2-4.4-4.54-8.52-9.28-16.94-13.66-25.54-12.14-23.78-26.3-46.27-43.38-66.78-6-7.27-13.36-13.47-20-20.22-3.27-3.28-6.94-3.5-11.12-2.14-9.64,3.16-19.34,6.17-29,9.25-24.75,7.86-49.26,16.44-73.14,26.59q-36.26,15.45-71.75,32.53c-21.66,10.36-43,21.34-64.17,32.67-18.44,9.89-36.71,20.2-54.5,31.21-14.51,9-28.24,19.22-42.24,29C14.7,1201,9,1205.44,3.07,1209.67A14,14,0,0,1,0,1211v-6.78a55.38,55.38,0,0,0,5-2.89c13.46-9.7,26.75-19.66,40.37-29.13,21.2-14.74,43.79-27.19,66.46-39.47,18.54-10,37.17-20,56.17-29.19q38.52-18.54,77.72-35.7c14.72-6.49,29.84-12.17,45-17.61,17.74-6.36,35.73-12.06,53.6-18.06,2.22-.75,4.4-1.58,6.75-2.42-2.09-3-2.93-3.47-6.84-4.9-16.33-6-33-6-49.48-1.46-20.64,5.71-41,12.41-61.52,18.53-2.94.88-5.84,2.75-9.36,1.8a8.61,8.61,0,0,1,3.2-7.3c2.4-2.14,5-4.11,7.47-6.13,7.72-6.2,16.39-10.79,25.3-15,1.31-.61,3.13-.8,3.75-3.15a46.63,46.63,0,0,0-4.87-.8c-6.91-.38-13.82-.78-20.73-1-8.08-.21-11.81-3.39-12.83-11.45a44.67,44.67,0,0,1-.35-5.79c0-5.64,0-11.29.37-16.92,1.24-19.86,3.5-39.52,11.74-58,.46-1,.32-2.32.52-4-5.18,1.69-9.21.08-13-2.25s-7.45-5-11.15-7.59c-1.42-1-2.8-2-5.16-3.69a31.61,31.61,0,0,1-3.27,4.51c-5.36,5.18-10.48,5.43-16.34.78a55.86,55.86,0,0,1-6.8-6.16q-16.5-18.3-32.8-36.81c-3.48-4-3.34-9.14-.09-13.35,6.66-8.68,13.39-17.33,20-26a42.46,42.46,0,0,0,2.46-4.08c-2.62-.61-4.43-1.18-6.29-1.44-12.93-1.79-25.83-3.9-38.81-5.18-35.73-3.51-70.35,2.28-104.24,13.42l-22,7.22V824.8c6.71-1.23,12.87-3.08,17.62-8.77,7.55-9,16-17.26,26-23.67,7.74-4.94,15.37-10.09,23.4-14.52,6.11-3.37,10.83-7.35,12-14.54a6.25,6.25,0,0,1,.61-1.31c4.22-9.93,8.36-19.82,11.64-30.17,6.41-20.27,13.47-40.36,21-60.23,15.91-41.87,32.29-83.56,48.52-125.3,1.19-3.07,2.88-5.91-1-8.4-.79-.51-1-2-1.43-3-.63-1.43-1.24-2.86-2.24-5.15-1.26,2.41-2.14,4.09-3,5.77-11.74,23.3-23,46.86-35.36,69.84-11.73,21.85-24.34,43.24-37,64.57C60.78,703.43,40.1,736.5,21.58,770.83c-3.6,6.66-7.42,13.2-11.21,19.75a36,36,0,0,1-2.72,3.56A3.62,3.62,0,0,1,7.08,791a92.18,92.18,0,0,1,3.75-9.94c6.57-13.64,13.31-27.2,20-40.8,1-2.07,2-4.16,3-6.25a6,6,0,0,0-3.12,2.51Q17,756.08,3.14,775.64A18,18,0,0,1,0,778.41v-9.68a27,27,0,0,0,3.34-3.42c7.63-11,15.11-22,22.78-32.95,6-8.56,12.15-17,18.32-25.45A15.17,15.17,0,0,1,52,701.19a8.83,8.83,0,0,0,4.09-3.74Q66.31,680.8,76.27,664c4.09-6.9,4-7-1-13.49-.3-.38-.54-.8-.84-1.18-6.66-8.48-13.14-17.1-20-25.39C44,611.37,33,599.35,26.13,584.36l-1.32-2.85a28,28,0,0,0-2.56,3.73c-.56,1.33-.82,2.78-1.29,4.14q-9,26.25-18.09,52.46A59.36,59.36,0,0,1,0,647.73ZM1043.73,225.85c4,.47,6.81,1.09,9.58,1.09,5.81,0,11.61-.26,17.41-.6,15.7-1,31-3.62,45.54-10.07,15.5-6.9,28.36-17,37.78-31.3,10.5-16,14.2-33.68,13.47-52.47a53.77,53.77,0,0,0-5.71-21.37c-5.88-12.22-14.89-21.76-26.13-29.17a115.38,115.38,0,0,0-52.8-18.69c-6.73-.68-13.36-1.33-20.2-.17a86,86,0,0,1-17.35.74c-6.25-.21-8.5-2.12-9.36-8.3A33.3,33.3,0,0,0,1031.24,43c-6.19-10.46-14.88-17.94-27-20.34-14.06-2.8-27.89-1.2-41.41,3.62C947.61,31.72,934.34,40.51,921.49,50a125.73,125.73,0,0,0-26.1,25.61c-7.7,10.33-15.22,20.8-22.79,31.22a25.09,25.09,0,0,0-1.68,3.46l5,1.12c6.29,1.39,12.68,2.42,18.83,4.25,7.26,2.15,13.56,6,17.37,13,.83,1.52,2.34,3.28.81,4.81-1.73,1.73-3.25-.18-4.55-1.23A47.52,47.52,0,0,0,889,122.7a146,146,0,0,0-21-2.86c-21-1.52-41.46.37-60.83,9.78-17.4,8.45-31,20.61-39.65,38-4.25,8.53-5.61,17.67-6.11,27.12-.72,13.79,1.67,26.45,9.86,38,6.7,9.44,15.51,15.82,25.84,20.33,9.63,4.2,19.84,6.53,30,9.17,11.46,3,22.93,3,34.52,2.2a10.82,10.82,0,0,1,8,2.45c4.89,3.93,9.74,7.91,14.82,11.59,9.93,7.16,20,14.16,31.55,18.62,17.56,6.66,35.17,7.36,52.93,1a154.5,154.5,0,0,0,39.87-21.46c14.25-10.56,26-23.14,31.24-40.65C1041.13,232.33,1042.63,228.82,1043.73,225.85ZM536.08,407.25l1,1c1.78-1,3.65-1.77,5.32-2.89a31.49,31.49,0,0,1,12.47-5c6.5-1.06,10.55,1.71,11.06,8.23a46.69,46.69,0,0,1-.94,13.85c-2.34,10.25-6.64,19.83-11.63,29.07-1.11,2.06-2.08,4-1.15,6.37,1.77,4.54,1.52,9.27.52,13.81-.81,3.61-.33,6.29,2.66,8.5,1.15.86,2.07,2,3.17,3,2.65,2.32,3.61,2.35,6.14-.09s4.65-4.93,7.07-7.29c5.58-5.44,11.61-10.29,19.11-12.85,4-1.38,8.51-2.51,12,.48s3.06,7.46,2.22,11.72c-1.24,6.3-4.3,11.8-7.54,17.17-3.57,5.93-7.49,11.65-11.25,17.46-2.91,4.51-2.92,5,.24,9.45,3.46,4.86,7.14,9.57,10.41,14.55,2.17,3.31,4,3.67,6.37.15,7.15-10.52,14.62-20.83,22.06-31.15q26.1-36.29,52.32-72.49c5.46-7.59,10.76-15.28,16.19-22.87,1.64-2.29,2.31-4.39.56-7-3.56-5.38-6.73-11-10.29-16.38-11.19-17-22.65-33.73-33.7-50.78-13.6-21.16-27-42.46-40.48-63.63-1.17-1.82-2.62-3.46-3.89-5.12-1,.49-1.49.66-1.87.91-5.44,3.53-9.19,3.27-13.85-1.16-1.86-1.77-3.42-3.88-5.28-5.64q-7.58-7.11-15.3-14a9.25,9.25,0,0,0-9-2.17A15.77,15.77,0,0,1,547,239.64a94.45,94.45,0,0,1-7.76-6.51c-3-2.68-5.78-5.64-8.93-8.13-2.94-2.33-5.18-1.28-5.75,2.39-.25,1.6-.11,3.25-.48,4.8a7.1,7.1,0,0,1-5.43,5.6c-2.89.7-3.95-1.71-5.16-3.53-3.28-5-6.44-10-9.66-15-1.19-1.84-2.11-4-5-4.78-.6,1.08-1.15,2.19-1.65,3.32-4.72,12.85-9.45,25.68-14.09,38.54-5.42,15-10.73,30-16.13,45-5,13.79-10.12,27.51-14.93,41.35q-8.7,25.11-17,50.37c-4.25,13-8.15,26.13-12.26,39.18-4.63,14.75-9.15,29.54-14,44.21-2.94,8.87-6.36,17.57-9.65,26.32a25.87,25.87,0,0,1-2.23,3.85l-1.34-.54c.92-9.19,3.74-18,5.89-27s5.14-18.09,6.72-27.39c-6.78,18.08-12.78,36.41-19.68,54.4s-14.55,35.82-22.26,53.54-15.52,35.2-24.94,52.12a9.52,9.52,0,0,1,.24-4.59c3.94-14.33,10-27.86,15.73-41.53,1-2.42,1.87-4.9,2.8-7.35l-1-.44c-1.52,2.6-3.23,5.12-4.54,7.83q-8.08,16.75-16,33.63c-12.1,26-24.3,52-41.57,75.11a19.14,19.14,0,0,0-1.45,3.62c3.18-.29,5.72-.41,8.21-.78,7.33-1.1,14.64-2.37,22-3.42,9.73-1.41,19.49-2.66,29.23-4,4.12-.57,4.49-1,5.43-4.92.7-3,1.3-6,2.28-8.89,6-18,16.94-31.31,35.67-37.09,2.61-.81,5.28-1.47,7.84-2.43,15.35-5.76,30.66-5.17,45.85.43,3,1.1,5.16.75,7.49-1.25q11.76-10.05,23.7-19.89a5.64,5.64,0,0,0,2.17-5.93,64.73,64.73,0,0,1-1-9.12c-.26-10.79-.39-21.6-.52-32.4-.06-4.84.05-9.68,0-14.51s-.92-5.28-5.29-6.67c-3.15-1-6.54-2.25-9-4.37a186.35,186.35,0,0,1-36.87-43.23c-6.62-10.82-10.32-22.62-9.77-35.38.23-5.41.51-11.3,2.71-16.07,8.46-18.38,21.73-33,38.13-44.7,2.33-1.66,3.82-3.19,3.34-6.23a6.43,6.43,0,0,1,.48-3.77c2-3.61,5.26-.74,7.91-1.28,1.8-.37,3.68.07,4.25,2.23,1.41,5.31-3.39,11.77-7.32,10.9-3.3-.72-5.52.8-7.74,2.86A161.05,161.05,0,0,0,439.2,417.7a46.41,46.41,0,0,0-6,13.07c-3.56,13.43-1,26.24,5.6,38.26,8.75,16,20.84,29.4,33.8,42,.82.81,2,1.26,4,2.5a57.25,57.25,0,0,0-.45-6.12,237.39,237.39,0,0,1-3.83-45.71c.05-8.06.22-16.12.77-24.16a28.18,28.18,0,0,1,5.89-15.6c3.66-4.69,8.41-7.23,14.33-6.22,8.17,1.39,14.71,5.46,18.56,13.17.74,1.49,1.73,2.85,2.91,4.78,1.34-1.54,2.18-2.45,3-3.42,4.16-5.11,8.36-10.2,12.42-15.38a15.78,15.78,0,0,0,1.68-3.72,19.57,19.57,0,0,0-3.38-1.4c-3.57-.79-4.91-2.11-5-5.32-.11-3.56,1.61-5.86,5.1-6.47a18.63,18.63,0,0,1,5.27-.2c3.21.41,4.08,1.8,3.4,5C537,404.31,536.5,405.77,536.08,407.25ZM462.82,622.14c1.54,1.66,2.54,2.91,3.7,4a44.7,44.7,0,0,1,9.55,13.28,59.37,59.37,0,0,1,5.82,23.73c.47,9.72.62,19.3-2.37,28.73-3.82,12.07-10.53,22-20.89,29.38-7.37,5.23-7.49,5.32-1.9,12.75,11.33,15.07,22.93,29.92,34.19,45,10.76,14.46,22.15,28.53,28.2,46,2.56,7.35,4.81,14.73,5.52,22.45a189.53,189.53,0,0,1-.89,45.84c-.12.8-.18,1.6-.27,2.41-.27,2.25.52,3.76,2.9,4.19a74.25,74.25,0,0,0,8.07,1.47,136.73,136.73,0,0,0,31.83-1.27q19.08-3.2,38.06-6.92c14.47-2.85,28.42-7.06,41-15.29,4.32-2.84,7.84-6.08,10.22-10.62a65.22,65.22,0,0,1,3.73-6.76c1.74-2.52,1.46-4.69,0-7.18a52.29,52.29,0,0,1-3.06-6.57,115,115,0,0,1-8.39-37.53c-.86-16.88.09-33.45,5.82-49.59,5.16-14.57,10.57-29,14-44.2,4.41-19.36,8.39-38.74,9.23-58.65.26-6.28,1-12.54,1.07-18.82a181.81,181.81,0,0,0-.51-22.14c-1-9.59-2.77-19.12-4.61-28.6-1.54-7.89-3.72-15.66-5.55-23.5-.56-2.43-2.07-3.82-4.2-4.94a109,109,0,0,0-50.74-12.27,36,36,0,0,0-4.74.74,16.54,16.54,0,0,0,2.33,1.84c8.07,3.84,12,10.45,12.73,19.14.18,2.09.28,4.18.38,6.27.5,10.25-2.08,20.18-3.11,30.26-.71,7-.49,14.13-.66,21.21-.08,3.51,1.47,5.89,4.39,8a13.3,13.3,0,0,1,4.56,6.47c1.26,4.19-.36,8-3.88,10.67-3.23,2.46-8.68,2.36-12.27-.19-2-1.39-3.62-3.23-5.58-4.62-7.29-5.18-15-6.46-23.12-2a26.24,26.24,0,0,1-5.66,2.7c-2.58.69-5.39,1.38-8,1-4.46-.55-6.49-4-4.71-8.14,2.86-6.6,6.87-12.54,13.67-15.65,2.62-1.19,3.84-2.61,3.79-5.37a7.52,7.52,0,0,1,.47-2.85c3.08-7.78.87-14.34-4-20.69-6.27-8.11-12.09-10.2-22-7.17-3.07,1-6.2,1.78-9.33,2.54-6.77,1.62-12.49-.37-17-5.54a37.54,37.54,0,0,1-4.62-7.2c-1.89-3.54-2.25-3.75-5.76-1.58-.55.34-1.08.71-1.62,1.07-18.55,12.36-35.34,27-52.4,41.22A44.66,44.66,0,0,0,462.82,622.14ZM277.65,260.35a22.45,22.45,0,0,1,2.84-13.58c2-3.7,4.13-7.28,6.25-10.89,1.77-3,1.65-4.81-.6-7.37a10.49,10.49,0,0,0-9.07-3.61c-16.82,1.09-30.82,7.75-41,21.43-10.68,14.42-17.68,30.68-21.93,48-1.52,6.22-1.84,12.73-2.35,19.15-.35,4.33.21,4.64,4.41,5a53.66,53.66,0,0,1,6.7.9,25.09,25.09,0,0,1,5,1.85c1.91.88,2.65,2.7,1.74,4.39-.52.92-2.34,1.24-3.62,1.55-.72.15-1.56-.31-2.36-.41-7.24-.82-14.5-1.28-21.61.74-12.44,3.56-21.38,10.93-25.08,23.75-5.54,19.19-3.06,37.06,9.36,53,4.65,6,10.17,11.22,17.31,14.37a43.4,43.4,0,0,0,34.8.57c7.6-3,14.93-6.82,22.23-10.55a50.41,50.41,0,0,0,9.68-6.33c4.92-4.14,9.55-8.63,14.19-13.1a6.48,6.48,0,0,1,5.65-2c4.47.6,8.93,1.4,13.41,1.66,15,.89,30,.4,44.66-3.36,18.23-4.65,34.16-13.21,47-27.11,8.34-9,13.83-19.33,15.15-31.69a71.34,71.34,0,0,1,1.42-8.07,30.39,30.39,0,0,1,1.83-4.6h1.19l3.81,6.65c3.18-1.19,3.08-4,3.52-6.14,3.45-16.49,3.79-32.92-1.61-49.16-6.74-20.22-19.71-34.38-40-41.56-16.4-5.79-33.39-7.28-50.53-6.2-14.26.89-26.46,7-35.43,18.34-5.18,6.54-9.56,13.71-14.3,20.59Zm140.58,72.54c-2.44,5.6-4,10.38-6.5,14.67-11.49,19.89-28.71,33.24-49.6,42-5.47,2.3-11.34,3.64-17,5.48-1.77.58-4,.77-4.14,3.36-.19,3.86-2.06,7.06-3.92,10.28q-20,34.51-39.89,69c-21.35,37-39.13,75.89-59,113.67-11.1,21.1-22.35,42.11-33.56,63.14-2.66,5-5.6,9.8-8,14.87-5,10.28-9.66,20.7-14.51,31-1.42,3-3.06,5.91-5.19,10,2.63-.58,4.18-.67,5.51-1.25,13.75-6,28-10.59,42.33-15a450.83,450.83,0,0,1,56-13.06c4.07-.69,6.9-2.19,9.12-5.95,4.59-7.75,10.15-14.94,14.67-22.73,11.26-19.38,20.57-39.76,30-60.08,8-17.26,15.85-34.59,26.53-50.43a59.05,59.05,0,0,1,8.52-10.22,17.53,17.53,0,0,0,5-6.9c6.76-18.47,13.51-36.92,20.38-55.34,2.47-6.64,5.13-13.21,8-19.66.92-2.09,2.72-4.86,4.54-5.23,3.94-.8,4.78-3.22,5.47-6.35.4-1.88,1.14-3.69,1.71-5.54,3.78-12.14,7.5-24.3,11.34-36.43q4.5-14.28,9.25-28.5c.79-2.41,1-4.59-.4-6.93-4.48-7.64-8.81-15.38-13.26-23.05A56.9,56.9,0,0,0,418.23,332.89ZM25.54,816.14a22,22,0,0,0,3.71-.26c7.79-2,15.5-4.43,23.36-6.17,9.59-2.1,19.24-4.26,29-5.36a264,264,0,0,1,67.52,1.1c8.93,1.28,17.84,2.78,26.72,4.4a8.4,8.4,0,0,0,7.92-2.27c3.75-3.54,7.54-7.05,11.49-10.36,2.72-2.26,5.7-4.17,8.6-6.18,1.83-1.26,4-2.18,5.59-3.66,7.9-7.21,17.47-10.44,27.8-10.84a65.1,65.1,0,0,1,25.66,3.73c17.66,6.6,35.6,12.49,53.22,19.2,17.46,6.65,34.93,13.38,51.19,22.77a44.93,44.93,0,0,0,4.69,2c3.54-4.07,7.36-7.6,6.74-13.8-.36-3.64.22-7.41.67-11.08q3.87-31.2,7.88-62.38c.34-2.68,1.88-5.86.91-7.87-1.08-2.26-4.31-3.56-6.74-5.07C366.93,715,359.26,702,359,684.79c0-1.61,0-3.23-.06-4.84-.11-1.92-1.1-3-3.14-2.74-.8.09-1.6.21-2.4.33-22.62,3.44-45.27,6.75-67.87,10.37a472.31,472.31,0,0,0-81.94,20.65A394.76,394.76,0,0,0,157.23,728c-19.38,9.7-37.15,21.92-54.9,34.24q-18.24,12.69-37.2,24.34c-10.7,6.6-21.59,12.89-31.27,21C31,809.9,27.75,812.11,25.54,816.14Zm356.14,143a12.17,12.17,0,0,1,2.22,2.14c1.8,3,3.61,6.1,5.16,9.27q9,18.45,17.9,37c1.93,4,2.45,4.33,6.66,3.13,1.71-.49,3.42-1,5.09-1.55,20.68-7.24,41.31-14.62,62.06-21.67,4.63-1.57,7.11-4.11,8.46-8.81,5.34-18.58,11.06-37,16.52-55.6,1.4-4.76,2.31-9.66,3.55-14.48a42.63,42.63,0,0,1,1.81-5c.8-1.93,1.73-3.81,2.55-5.74,3.42-8,3.65-16.6,4-25.16.68-16-1.28-31.54-8.11-46.24-2.68-5.76-2.95-6-9.13-5.19-12.31,1.66-24.6,3.38-36.91,5-4.95.66-9.93,1.15-14.87,1.9-3.45.53-3.89,1.22-3.42,4.43a59.71,59.71,0,0,1-1.52,24.88c-4.33,15.76-13.17,28.17-26.86,37-12,7.8-30.85,7.9-42.21-5.57a49.77,49.77,0,0,1-6.52-10.67c-1.27-2.66-2.83-4.1-5.73-4.34-6-.5-11.6-2.64-17-5.35-4.46-2.24-8.9-4.54-13.38-6.74-4.15-2-4.68-1.89-7,1.83q-11.22,17.76-22.39,35.56c-2.49,4-5.64,5-9.85,2.8a41.17,41.17,0,0,1-5.14-3.59c-1.53-1.11-3-2.25-4.45-3.29-3.94,3.14-4.08,3.71-1.52,6.59a70,70,0,0,1,12.43,21.15,21.15,21.15,0,0,1,1.83,6.45,14.78,14.78,0,0,0,2.83,8.08q8.25,11.31,16.57,22.58c2.25,3,4.26,6.14,3.56,10.15-.89,5.1-1.93,10.15-5.13,14.45a20,20,0,0,0-1.4,3.55c1.89-.83,2.9-1.22,3.86-1.7,11.67-5.82,23.18-12,35-17.35a122.51,122.51,0,0,1,20.6-6.74c3.41-.72,7.07-.3,9.89-3.12Zm286.11-97.5c-.71.24-1.14.24-1.28.46-1.49,2.08-3,4.19-4.37,6.32-2,3-1.93,3.36,1,5.4.79.54,1.62,1.06,2.46,1.54,18.11,10.4,23.61,13.52,45.1,31.15a19.19,19.19,0,0,0,1.57,1.14c6.47,4.49,13.14,8.73,19.39,13.51q20.16,15.44,39.94,31.33c8.65,6.94,18.12,13,25,21.93a11.31,11.31,0,0,0,2.18,1.9q6.93,5.25,13.88,10.48a5.87,5.87,0,0,1,2.75,4.82c0,5.16.18,10.31.38,15.46.57,15.14,1,30.29,1.85,45.42.66,11.25,1.7,22.5,3,33.7,2,17,4.17,33.9,6.8,50.76,1.88,12.09,4.54,24.07,7,36.06a514.09,514.09,0,0,0,15.95,60.27c1.43,4.21,1.64,4.46,6.11,4.73,10.62.65,21.24,1.73,31.87,1.77q39.15.12,78.34-.59a335.29,335.29,0,0,0,56.7-5.92c2.11-.41,4.15-1.21,6.22-1.83a4.65,4.65,0,0,0-.08-1c-1.81-.52-3.63-1-5.43-1.57-6.29-2-12.75-3.6-18.84-6.09-26-10.62-50.77-23.8-75.11-37.77-12.58-7.23-25-14.65-36.68-23.33a143.88,143.88,0,0,1-49.76-67,295.64,295.64,0,0,1-14-54.22c-1-6.34-1.53-12.78-2.22-19.18-.35-3.19-.55-6.39-.87-9.6-.49-4.94-1.83-10-1.36-14.8.81-8.19-1.13-14.61-8.21-19.19-2.43-1.57-4.73-3.35-7.07-5.06-4-2.94-8.11-5.8-12-8.87Q770.79,942.41,743.65,921q-9.87-7.75-19.71-15.6c-5.53-4.4-11-8.9-16.57-13.24Q689.25,878,671.05,864.07Zm66.76-415.41c1-1.83,1.74-3.07,2.39-4.36,8.5-17,16.79-34.1,25.53-51,9.19-17.73,18.69-35.3,28.25-52.84,8.86-16.26,17.93-32.41,27.08-48.51a27.07,27.07,0,0,1,6.54-8.24c2.69-2,3.93-4.6,5-7.42,1.15-3,.46-3.94-2.77-4.58-5.68-1.14-11.41-2.11-17-3.55-3.48-.9-5.74-.23-7.78,2.81-4.41,6.54-9.1,12.88-13.68,19.31l-28.89,40.54c-6.92,9.7-13.8,19.44-20.75,29.12-13.26,18.43-26.59,36.81-39.83,55.27q-24.36,34-48.63,68-18.59,26-37.21,51.84c-.88,1.22-1.59,2.57-2.31,3.75.71.68.91,1.06,1.16,1.1a27.26,27.26,0,0,0,3.81.35c10.65.06,21.3.24,31.55,3.76,2.17.75,3.51-.48,5.1-1.78,3.35-2.73,6.65-5.81,10.51-7.55a106.9,106.9,0,0,1,19.55-6.77c4.4-1,6.57-3.22,8.29-7,5.64-12.3,11.13-24.7,17.38-36.69,5.72-11,12.31-21.53,18.64-32.2,1.68-2.84,3.88-5.29,8.07-3.35ZM85,764.33l.86,1c2.66-1.66,5.39-3.23,8-5,12.4-8.39,24.58-17.16,37.25-25.13,9.25-5.82,19.11-10.66,28.73-15.88,2.85-1.55,5.68-3,7.32-6,2.7-5,5.72-9.74,8.2-14.79,4.46-9.1,8.42-18.46,13-27.51,7.11-14.08,14.54-28,21.94-42a13.77,13.77,0,0,0,1.53-9.33c-2.61-13.77-5.4-27.51-7.8-41.32-2.6-15.09-5.13-30.2-7.15-45.37-2.14-16-3.66-32-5.49-48a24.52,24.52,0,0,0-1.25-3.71l-1.33,4.25c-4,12.75-7.57,25.69-12.23,38.2-9.74,26.11-20.13,52-30.14,78q-18.94,49.15-37.68,98.38c-7.86,20.62-15.54,41.31-23.29,62A15.54,15.54,0,0,0,85,764.33ZM543.4,529.83c-1.33-3.41-1.11-4.78,2.09-6.41a27.18,27.18,0,0,1,7.71-2.54c2.22-.4,3.54.94,3,3.16a13.1,13.1,0,0,1-2.85,5.32c-4.61,5.37-9.74,10.31-14.06,15.89-5.49,7.07-8.56,15.08-7.17,24.36,1.36,8.9,8.39,14.65,17.24,13.6a52,52,0,0,0,8.46-1.91c11-3.19,20-.47,26.83,8.91,5.68,7.77,8.64,15.84,4.11,25.22a23.61,23.61,0,0,0-2,5.45c-.89,4.66-3.5,7.56-7.66,9.87-2.51,1.39-4.23,4.29-6.17,6.61a2.34,2.34,0,0,0-.13,2.18,3.1,3.1,0,0,0,2.46.87,29.56,29.56,0,0,0,4.91-2c2.49-1.11,4.86-2.65,7.46-3.35C598,632.27,607,635.06,615,642c1.45,1.27,3.13,3.81,5.21,1.81s-.32-3.76-1.57-5.3c-5.16-6.37-8.27-13.43-7.42-21.81.59-5.77,1.13-11.55,2-17.28,1.28-8.62,2.53-17.23,2.1-26-.51-10.22-4.7-15.89-14.51-18.56a55.05,55.05,0,0,0-12.39-1.78c-5.79-.19-11.6.31-17.4.37a70.77,70.77,0,0,1-9.65-.43c-4.53-.57-6.09-3.15-4.75-7.54a19.18,19.18,0,0,1,2-4.37c5.95-9.38,12-18.72,18-28.08,6.16-9.63,12.5-19.16,18.36-29a30.26,30.26,0,0,0,3.54-10.36c.68-4-1.71-5.91-5.53-4.59a34,34,0,0,0-9.47,4.66c-4.58,3.51-8.69,7.65-13,11.57-5.58,5.11-11,10.33-16.68,15.35a15.63,15.63,0,0,1-4.68,2.45c-1.35.55-3,.86-3.85-.78s.52-2.61,1.74-3.41,2.81-1.62,4.07-2.61c3.3-2.59,3.4-4,.48-7a130.47,130.47,0,0,0-25.48-20.64,40.36,40.36,0,0,0-9.18-4.21c-5.64-1.7-9.56-.2-12.2,5a101.35,101.35,0,0,0-7,16.4c-4.34,14.11-5.9,28.63-5.9,43.41,0,18.7-.57,37.4-.85,56.09a16,16,0,0,0,.61,3c1.21-.7,2-1.1,2.78-1.64,9.05-6.46,18.05-13,27.17-19.36a7.21,7.21,0,0,0,3.07-5.19A38.15,38.15,0,0,1,531,546.51c3.85-5.52,8-10.82,12.44-16.68ZM422.74,723.64c9.53,1.75,18.94-2.29,28-6.22,11.1-4.82,17.84-14.13,20.58-25.91,1.41-6.09,1.6-12.45,2.92-18.56,2.11-9.76.8-18.56-5.82-26.3a8.21,8.21,0,0,1-1.28-2c-4.37-10-13.12-15.4-22.46-19.27-10-4.12-20.75-4.4-31.41-2.48-12.06,2.18-22.23,8.41-31.65,15.89-3.08,2.44-6.21,5.46-7.89,8.9-6.69,13.72-9.08,28-4.71,43.14,3.28,11.35,10.15,19.58,20.23,25.36S410.35,723.82,422.74,723.64Zm31.76,412.61c-1.86-1.61-2.89-2.32-3.71-3.23-5.46-6.09-9.19-13.24-12.18-20.75q-12.72-31.89-25.16-63.9c-4.64-12-11.05-23.2-14.55-35.64a28.55,28.55,0,0,0-2.12-4.34c-1.22-2.45-2.57-4.85-3.61-7.38-4.49-10.88-8.86-21.8-13.34-32.68a16.93,16.93,0,0,0-2-2.82c-1.54.72-2.83,1.32-4.13,1.91-1.47.67-2.92,1.38-4.42,2A379.12,379.12,0,0,0,309.4,998.6c-14.37,8.69-29.57,15.7-45,22.33-7.24,3.11-14.17,6.94-21.17,10.6-1.49.77-3.41,1.55-3.74,4.32,10.76-3.63,21-7.1,31.18-10.51,11.47-3.83,23-7.4,35-9.38,20-3.3,38.89-.49,56.33,10.13a118.45,118.45,0,0,1,27.09,22.43,279.81,279.81,0,0,1,30,40.27c6.69,11,12.81,22.37,18.82,33.76,2.31,4.36,3.51,9.29,5.44,13.87,2.42,5.75,6.62,10.64,8,16.95.4,1.79,2.32,3.24,3.9,5.3.62-1,.9-1.33,1.13-1.74,2.14-3.84,2.91-8.1,3.94-12.33,2.72-11.11,5.66-22.16,8.63-33.2,4.43-16.49,9-33,13.46-49.42,3.6-13.22,7.11-26.46,10.81-39.65,2.57-9.14,5.42-18.2,8.12-27.3,1-3.38,2.51-6.62,1.9-10.36a9.41,9.41,0,0,1,.72-4.22c1.32-4,3-7.81,4.14-11.81q7.89-26.89,15.61-53.86c2-6.86,1.88-6.9-3.94-10.83a6,6,0,0,0-1.35-.47c-.39.37-.91.63-1,1-1.26,3.82-2.58,7.62-3.64,11.5-2.93,10.72-5.95,21.43-8.56,32.24-3.39,14.08-8.91,27.51-12.2,41.66-3.62,15.51-8.42,30.74-12.71,46.1-3.5,12.57-7.11,25.12-10.48,37.73q-5,18.68-9.57,37.45c-1.54,6.39-4,12.61-3.77,19.39.06,1.51-1.05,3.09-2,5.67ZM655.7,543.57a28.49,28.49,0,0,0,2.61,2.16c2.75,1.68,5.63,3.15,8.28,5,4,2.77,6.63,6.36,7,11.53.21,2.66,1.34,5.29,2.34,7.81a57.64,57.64,0,0,1,4.16,16.32,110.28,110.28,0,0,0,2.14,13.3c1.94,9.44,4.52,18.79,3.3,28.62a22.9,22.9,0,0,0,.23,5.79c.38,3,.9,3.54,4,3.56a104.47,104.47,0,0,0,11.6-.37c10.25-1.11,20.11-2.77,29.1-9a51.91,51.91,0,0,0,17.19-19c6.2-11.81,6.23-24.14,4-36.68-1.48-8.36-6.14-15.54-10.09-22.9a19.92,19.92,0,0,0-4.82-5.33,53,53,0,0,0-27.67-11.81,91.53,91.53,0,0,0-37.79,3.52,102.66,102.66,0,0,0-11.66,4.6c-1.27.51-2.38,1.69-3.92,2.86ZM691.41,903c-2.61-2.2-4.24-3.73-6-5.07-8.51-6.38-17.1-12.66-25.59-19.07-3.91-3-4-3-7.55.42a72.19,72.19,0,0,1-32.5,18.34c-11.68,3.09-23.5,5.71-35.37,8-17,3.24-34,6.07-51.39,3.87-2.56-.32-3.28,1-3.72,3.26-1.49,7.59-3,15.19-4.86,22.68-2.86,11.41-6.08,22.73-9.08,34.1a31.71,31.71,0,0,0-.49,4.45,27,27,0,0,0,4-.81c5.3-2,10.58-3.91,15.83-6,33.26-13.14,66.56-26.2,99.75-39.52,17.49-7,34.81-14.5,52.18-21.81a47.39,47.39,0,0,0,4.79-2.87ZM261,877.55a25.58,25.58,0,0,0-3.37-3.76c-1.57-1.19-3.72-.56-3.82,1.17-.24,3.74-.94,7.68.87,11.21,2.45,4.79,2.18,9.12-1.23,13.43a15.61,15.61,0,0,0-2.52,3.52c-3.66,8.77-7.9,17.39-10.6,26.45-6.06,20.22-8,41.08-7.64,62.16a24,24,0,0,0,1,6.17,6,6,0,0,0,4.62,4.53c6.33,1.08,12.7,2.58,19.08,2.69,14.51.26,27.46-5,39.34-13A54.41,54.41,0,0,0,312,976.27c1.88-2.92,1.82-3.65-.41-6.45-.8-1-1.79-1.86-2.62-2.85-4.14-4.93-8.63-9.62-12.3-14.88-8.38-12-16.39-24.32-24.46-36.57-1.58-2.4-3.38-5-3.93-7.67-.79-3.9-2.88-6.23-6.07-8.14-3.8-2.29-4.16-5.42-1.21-8.73.91-1,1.89-2,3.05-3.23-2-1.46-3.92-2.42-5.16-4C257,881.42,260.27,880.26,261,877.55Zm175.29-58.91a13,13,0,0,0,.42-2.48c-1.11-12.95.83-25.73,2-38.57,1.22-13.8,2.32-27.61,3.4-41.43.39-5-.8-6.07-5.38-5-11,2.66-22.05,2.41-33.13.79-3.29-.48-6.55-1.18-10.37-1.87-2.89,27.53-5.74,54.63-8.64,82.24,5.45.15,10.24.59,15,.35,11.72-.6,23.21-.09,34,5.15A19.13,19.13,0,0,0,436.28,818.64Zm46.85,175.67c-1.92.59-3.29,1-4.63,1.43l-55.2,19.2c-2.59.9-5.2,1.72-7.79,2.62-2.25.78-2.95,2.34-2.12,4.56.29.76.66,1.47,1,2.22q13.22,32.73,26.4,65.43c2.77,6.88,5.38,13.81,8.13,20.69a24.39,24.39,0,0,0,2,3.34c.78-.93,1.4-1.34,1.53-1.88q15.63-57.56,31.13-115.16c.14-.55-.2-1.22-.45-2.47ZM373.76,851.07h-.17c0,3.22.08,6.44,0,9.66a28.59,28.59,0,0,0,4.84,16.41c9.61,15.24,29.26,17.93,42.44,5.66C432.7,871.8,437.69,858,437,842c-.26-5.89-2.14-10.72-8.42-12.64-.75-.24-1.4-.8-2.14-1.11-4.75-2-9.37-5-14.29-5.6a125.3,125.3,0,0,0-23.56-.12c-5.82.4-14,9.71-14.72,15.52a11.56,11.56,0,0,0-.06,1.44ZM595.4,254.86c2.13-4.36.33-7-1.46-9.76-12.16-18.45-24.38-36.84-36.42-55.35C548.52,176,539.86,162,531,148.17c-.89-1.38-1.29-3.45-4.2-3.38-.53,1.23-1.18,2.65-1.77,4.07-3.81,9.41-7.58,18.83-11.44,28.22q-4.59,11.17-9.36,22.28c-1.37,3.18-1.05,5.59,1.65,8.15,3.13,3,5.6,6.63,8.42,9.93,1.07,1.25,2.33,2.36,4.11,4.14a22,22,0,0,1,2-3c4.77-4.79,10-5.46,15.73-1.71a70.47,70.47,0,0,1,7.42,6.16c2.66,2.35,5.07,5,7.87,7.14,3.51,2.67,7.44,4.73,12.1,3.71a13.2,13.2,0,0,1,11.79,2.85c5.55,4.65,10.91,9.51,16.33,14.32,1.17,1.07,2.21,2.25,3.76,3.81Zm-316.72,549c-.52.85-.79,1.1-.82,1.39a8.62,8.62,0,0,0,0,1.9,27.27,27.27,0,0,1-6.35,20.62c-3.44,4.17-3,6.14,1.79,8.44.73.35,1.51.57,2.24.91,4.67,2.15,9.38,4.21,14,6.53,3.27,1.65,3.7,3.83,1.64,6.63q-8.4,11.43-16.84,22.87c-1.59,2.16-1.51,2.81.52,4.31,6.45,4.79,12.91,9.56,19.32,14.41,3.81,2.89,5,2.65,7.45-1.58,5.91-10.14,12-20.17,17.78-30.41,4.17-7.41,8-15,11.74-22.67,2.11-4.37,1.1-5.87-3.3-7.65a102,102,0,0,1-9.92-4.82c-2.67-1.44-5.12-3.28-7.8-4.7-9.09-4.84-18.22-9.58-27.35-14.33-1.3-.67-2.61-1.2-4.1-1.88Zm-49.94,41.56c9.5-1.35,19.77-3,27.38-11.52a73.09,73.09,0,0,1,7.14-6.48c7.86-6.81,8-18.3,0-24.86a69.11,69.11,0,0,0-32.45-15.19c-10.43-1.78-19.68,3.32-23.56,13.24-1.28,3.25-1.49,6.9-2.57,10.24-2.91,9-.79,16.89,4.93,23.95,4.66,5.72,10.15,10.36,19.13,10.59Zm542.37,23.22c-1.73-1.34-2.38-2.09-3.2-2.44-11.11-4.73-22-10-33.42-13.92-14.76-5-29.9-9-44.88-13.39q-12.29-3.6-24.6-7.11c-1.59-.45-3.33-1.61-4.86.19.56,8.31,3.29,14,9.83,19,15.48,11.79,31.25,23.24,46.62,35.2,4.19,3.27,7.69,3.46,12.28,1.34,9.79-4.51,19.8-8.56,29.67-12.89C762.49,872.92,766.31,870.94,771.11,868.64ZM874.26,557.18a12,12,0,0,0-2.89-9.64,55,55,0,0,0-7.44-6.79c-8.28-6.13-17.78-9.56-27.63-12.25-3.85-1-6.39-.08-8.67,3.13a71.08,71.08,0,0,0-12.58,35,18.47,18.47,0,0,0,3,12c5,7.68,18.64,13.38,27.64,11.57,9.5-1.9,15.89-8.65,22.78-14.61a5.75,5.75,0,0,0,1.1-1.58C872.26,568.79,874.39,563.43,874.26,557.18ZM212.46,882.24c-1.32-1.26-2.39-2.19-3.37-3.21-3.55-3.72-7.18-7.38-10.56-11.25-1.65-1.88-2.35-4.22-.79-6.68,2.33-3.67,4.58-7.39,7-11,2.73-4.19,2.66-4.07-.42-8.34-6.25-8.7-9.68-18.15-7.18-29,.4-1.73.79-3.46,1.1-5.2a23.65,23.65,0,0,0,0-3.15,27.72,27.72,0,0,0-3.91,2.61c-2.63,2.59-5.12,5.32-7.68,8-5.93,6.13-12.27,11.91-17.69,18.46-5.08,6.12-11.12,11.66-13.82,19.59-1.58,4.66-1.46,6.45,2.24,9.7,3.26,2.88,6.69,5.59,9.76,8.66,7.29,7.3,14.32,14.84,21.63,22.12,2.92,2.91,5.89,5.92,10.16,7.66,5.9-5.36,8.71-12.7,13.52-19ZM758.14,555.47c1.35,8.57,2.85,16.25,3.69,24,.88,8.06-1,15.93-3.58,24.46,2.45-.26,4-.28,5.47-.59q9-1.94,17.92-4c9.41-2.18,18.82-4.39,28.2-6.69a18.58,18.58,0,0,0,3.76-2c-.84-1.33-1.3-2.17-1.86-2.94a25.73,25.73,0,0,1-4.88-15.35,66.06,66.06,0,0,1,5.77-27.21c1.11-2.59,2.11-5.22,3.15-7.83l-.78-1.14c-18.15,8.65-36.49,16.71-56.86,19.28ZM500.61,811.93a3.69,3.69,0,0,0-.21-1.32c-14.71-21.94-31.21-42.55-47.32-63.44-.77-1-1.66-1.93-2.52-2.86a.61.61,0,0,0-.45-.09,9,9,0,0,0-1.05.27c-.19,1.45-.52,3.12-.63,4.8-.6,9-1,18-1.73,27-1.08,13-2.41,26-3.58,39a30.26,30.26,0,0,0,.27,4.46C450.31,820.35,497.05,813.92,500.61,811.93ZM864.05,590.58c2,.79,3.46,1.46,4.94,1.87,8.53,2.41,17.06,4.74,25.59,7.12,4.6,1.29,5.21.86,5.61-4,.6-7.27,2.87-13.9,8-19.19,5-5.12,8.68-11.62,15.35-15.06.49-.25.79-.87,1.73-2-7.34-1.86-14.19-3.34-20.88-5.37s-13.26-4.53-20.78-7.15C883.57,564.56,878,579.2,864.05,590.58Zm152.73-9.08a58.18,58.18,0,0,0-5.72-19.27c-.79-1.6-2.16-1.83-3.69-1.27a46.1,46.1,0,0,1-5.4,2c-6.9,1.57-13.84,2.93-20.74,4.45-5.81,1.28-11.63,2.56-17.38,4.07-2.89.76-3.62,2-2.68,4.6,2.68,7.24,5.56,14.41,8.32,21.62,1,2.61,2.92,3.19,5.43,2.7a132.94,132.94,0,0,0,38.59-13.4C1015.83,585.8,1016.63,584,1016.78,581.5Zm-505-126a29.71,29.71,0,0,1,4,.48,114.13,114.13,0,0,1,11.46,3.4,55.08,55.08,0,0,1,7.14,4c4.49,2.6,4.52,2.63,7.36-1.94,6-9.59,10.32-20,14.14-30.56a75.81,75.81,0,0,0,2.75-9.72,30.41,30.41,0,0,0,.62-7.18c-.21-5.8-2.47-7.42-8.13-5.74a25.08,25.08,0,0,0-6.55,3,67.4,67.4,0,0,0-15.71,14.14c-6.72,8.29-11.76,17.62-16.51,27.11a11.45,11.45,0,0,0-.52,3ZM331.57,853.73c8.79,3.46,17.16,6.76,25.51,10a30.4,30.4,0,0,0,3.67,1.23c3.88,1,4.65.49,5-3.36.1-1.28,0-2.59.14-3.86.56-5.12.9-10.29,1.82-15.34,1.55-8.48-1.81-14.48-9.9-17.13-5.2-1.7-10.36-3.53-15.49-5.43-13.74-5.11-27.45-10.3-41.18-15.42a14,14,0,0,0-2.81-.47L298,805c7.28,4,14.47,8.24,21.85,12.05,5.86,3,12,5.51,17.95,8.38,3.9,1.88,4.17,2.79,2.5,6.78-2.53,6.07-5.14,12.12-7.68,18.17a28.61,28.61,0,0,0-1,3.33Zm-98.78-.07c-.63-.56-.74-.73-.87-.76-5.66-1.1-11.3-2.27-17-3.18a4.33,4.33,0,0,0-3.4,1.21c-2.93,3.54-5.6,7.29-8.75,11.49,1.17.77,1.89,1.15,2.51,1.66,4,3.28,7.89,6.6,11.84,9.89,1.95,1.63,2.33,3.48,1.66,6-1.15,4.34-2,8.71-4.8,12.42-1.2,1.57-1.22,3.51.76,4.58,5.78,3.15,11.62,6.19,17.49,9.18a3.38,3.38,0,0,0,4.68-1,2.73,2.73,0,0,0,.25-.48c2.07-3.62,4.36-7.14,6.18-10.89,2.89-5.94,2.28-8.09-2.2-12.83-3.75-4-7.23-8.2-10.86-12.29a6.36,6.36,0,0,1-1.06-7.57ZM484.51,500.33h1.62c.33-1.66.68-3.33,1-5a87,87,0,0,1,9-26.39c4.29-7.74,8.41-15.58,12.74-23.3,1.42-2.53,1.22-4.59-.16-7.18-2.66-5-7.45-7.44-11.71-10.47a21.31,21.31,0,0,0-6.51-3c-3.52-1-5.93.36-7,3.93a39.59,39.59,0,0,0-1.71,8c-1.52,16-.44,31.89.56,47.81.37,5.22,1.47,10.4,2.22,15.6Zm534,93a29.18,29.18,0,0,0-3.39,1.11c-3.62,1.75-7.09,3.86-10.82,5.33a169.7,169.7,0,0,0-27,13.91c-3.23,2-3.46,2.42-2,5.77s2.84,6.51,4.45,9.66c1.94,3.77,3.55,4.25,7.37,2.58l10.6-4.67c8.09-3.6,16.21-7.16,24.27-10.82,4.57-2.07,4.69-2.67,2.41-7.35-1.19-2.28-2.27-4.62-3.24-7-1-2.71-1.68-5.49-2.6-8.53Zm-749.46,276c1.28-1.74,2.34-3.14,3.35-4.57,2.71-3.79,5.47-7.54,8.05-11.42,1.92-2.86,1.72-3.71-1.43-5.09-4.84-2.13-9.85-3.91-14.72-6-2.79-1.2-5-.86-7.66.77-4.49,2.76-9.34,4.92-14,7.41-1.08.58-2.4,1.25-2.9,2.23-1.61,3.11-2.89,6.39-4.45,9.95l10,8.71c3.24-3.78,5.73-7.8,10.71-8.32S264.85,865.35,269.05,869.38Zm673.8-248.74c5.09-2.89,9.66-5.5,14.25-8.09,5.14-2.9,5.61-4.07,4.07-9.65-1.61-5.88-3.15-11.78-4.68-17.68-.85-3.25-1.67-3.8-4.73-2.43-5.85,2.61-11.64,5.39-17.46,8.1l-7.91,3.75C934,602.27,938.15,611.42,942.85,620.64ZM920,593.37c.9-3.79,4.54-5.73,8-7.73a92.51,92.51,0,0,1,8.6-4.37c2.33-1,2.55-2.82,1.9-4.78-1-2.87.08-7.3-4-8-3.16-.51-7.16-.3-9.79,1.26-6.11,3.62-11.28,8.65-14,15.49s-2.71,13.87,2.54,19.5c3.22,3.46,7.49,6,11.39,8.75.75.53,2,.37,3.79.66Zm69.38-61.91-3.62,1.39c-3.89,1.47-7.68,3.34-11.69,4.35-8.24,2.09-16.6,3.72-24.91,5.54-4.27.91-5,1.65-5.5,5.94-.62,5.07.57,6.36,5.42,5.34,8.33-1.74,16.66-3.52,24.92-5.57,4.81-1.2,9.53-2.86,14.23-4.48,4.42-1.53,5.13-3.27,3.39-7.69-.62-1.48-1.34-2.88-2.25-4.82ZM919.46,40.73l1.16,1,19.53-13.27a8.26,8.26,0,0,0-.61-1.94c-4.58-5.54-9.19-11-14.15-17-1.22,7.13-2.31,13.86-3.55,20.56-.67,3.56-1.59,7.09-2.39,10.65ZM564.34,544.64c9.25.23,16.81-4.12,25-4.7,1.11-.07,2.17-.94,3.59-1.59L577.71,523.1A160.4,160.4,0,0,0,564.34,544.64Zm383.19,30.79c3.85-.49,6.85-1.23,8.69-5.14,1.07-2.25,3.47-4.19,5.72-5.53,7.65-4.5,16.3-5.84,24.9-7.24,1.58-.25,4.51.16,4.15-2.12-.46-2.88-3.11-1.21-4.75-.79-10.92,2.77-21.8,5.71-32.71,8.47-7.13,1.82-7.16,1.74-6.42,8.82C947.22,573,947.37,574.07,947.53,575.43ZM751.78,616.27c4,.36,24.8-5.54,30.1-8.21-.54-.19-1-.54-1.34-.45-8.3,1.78-16.62,3.53-24.87,5.53C754.41,613.44,753.42,614.9,751.78,616.27Zm212.12,17c.65,0,1.45-.06,2.24-.16,3.22-.42,3.78-1.35,2.75-4.47-1.12-3.37-2.07-3.72-6.79-2.51-3.21.82-3.76,2.06-2.66,5.14.82,2.24,2.62,1.85,4.46,2ZM277,901c-1.26,1.32-2.57,2.09-2.5,2.7.31,2.67,2,4.34,5.21,5.71Zm-4-9.92c-3.17,1.72-3.17,1.72-4.72,4.36,2.2.28,4.35.83,5.79-1.25.93-1.2.46-2.47-1-3.1Zm274.2-426.45-1-.51a19.83,19.83,0,0,0-2.8,3.85c-.21.48,1,1.6,1.59,2.43.64-.57,1.64-1,1.84-1.73A21,21,0,0,0,547.19,464.64Zm-15.05-62.19c-1.86-.57-3.58-1.47-4.52.88-.2.52.63,2,1.24,2.16,1.89.62,3-.37,3.28-3Zm-58.72-21.91c.85-1.47,1.69-2.27,1.58-2.87s-1.06-1.41-1.81-1.71c-.3-.11-1.53,1-1.46,1.33.17.92.84,1.73,1.69,3.26ZM960.51,618.17c4.1,1,4.1,1,3.81-2.49Z"/><path class="cls-1" d="M1200,513.21c-20.19.09-40.26,1.79-60.31,3.93q-35.62,3.83-70.7,11.1c-21.78,4.5-43.48,9.43-65.21,14.14-1.69.37-3.43.51-5.43.79-.2-1.36-.64-2.35-.4-3.15,2-6.53-2.84-10.47-5.91-15-.55-.79-3.33-.56-4.87-.1-3.86,1.13-7.52,2.93-11.4,4-7.77,2.09-15.65,3.81-23.45,5.79a64,64,0,0,0-7.32,2.56c-4,1.58-6.59,4.21-7.52,8.68-.89,4.3-1.62,4.61-6.15,3.87a165.84,165.84,0,0,1-34.85-9.75c-6.12-2.42-12.32-4.76-19.13-4.71-1.62,0-3.3-1-4.87-1.78q-8.49-4-16.92-8.16a21.75,21.75,0,0,1-4.82-3c-5.9-5.27-13.19-6.11-20.08-2.16a8.69,8.69,0,0,0-2.06,1.26c-4.21,4.32-9.79,5.91-15.22,7.94-10.1,3.79-19.92,8.41-30.17,11.7-8.71,2.79-17.87,4.17-26.82,6.22-2.92.68-5-.39-6.65-2.72-4.71-6.57-11.3-11.06-17.9-15.33-7.64-4.94-16.4-6.52-25.44-6.56H695.45c9.7-22,18.28-43.41,31.21-62.68-2.85,9.38-7.81,17.81-11.8,26.67s-8.66,17.49-11.67,27.48c2.47-.56,3.08-2.1,3.79-3.38,10.08-18.37,20.36-36.63,30.12-55.16C755.23,421.3,773,386.77,791,352.37c6.19-11.85,12.63-23.57,19-35.34a12.28,12.28,0,0,1,3.46-4.22,14.92,14.92,0,0,1-.46,2.83q-11,28.11-22.1,56.21c-1.53,3.9-2.85,7.86-4.16,11.84a15.33,15.33,0,0,0-.3,3.31c2.66.32,3.42-1.55,4.19-3,3.2-5.77,6.76-11.43,9.26-17.5,11.64-28.12,23-56.37,34.43-84.57,1.14-2.83,2.12-5.75,3.49-8.47.57-1.11,2-2.53,3-2.57,6.74-.15,13.49-.07,20.23.17a6.91,6.91,0,0,1,3.78,1.81c7,6,13.66,12.26,20.73,18.11,8,6.59,16.56,12.35,26.43,15.79,17.22,6,34.65,7.39,52.18,1.44,26.1-8.87,49-22.86,67.61-43.36,7-7.71,12.5-16.37,14.6-26.86.85-4.28,1.52-4.49,6-4.07,22,2,43.49.07,63.9-9.16,1.9-.86,3.77-1.82,5.65-2.74,4.86-2.39,5.53-2.27,9.26,1.46,11.41,11.39,22.77,22.82,34.26,34.1,10.93,10.74,22,21.34,33,32a11,11,0,0,0,1.56,1.06Z"/><path class="cls-1" d="M1200,763.85c-15.61-.86-31.21-2.27-46.82-2.46-19.82-.23-39.67,0-59.47,1-32.18,1.54-63.64,8-94.61,16.55a816,816,0,0,0-104.17,37.2q-45,19.4-90.18,38.62c-5.62,2.4-11.35,4.57-16.88,7.18a10.15,10.15,0,0,1-9.26,0c-7.72-3.66-15.48-7.22-23.18-10.93-14.15-6.83-29.17-11.24-44.16-15.65-16.09-4.72-32.27-9.16-48.38-13.76-5.65-1.61-6.36-2.47-7-8.31-2.23-21.52,0-42.41,8.14-62.64a297.83,297.83,0,0,0,17.59-66.2c1.73-11.3,2.62-22.71,3.78-34.09.44-4.34.68-4.79,4.91-4.46,14.7,1.16,28.52-2,41.55-8.64,2.92-1.47,5.26-4.09,8-6.06,1.77-1.3,3.57-2.84,5.61-3.46,10.78-3.31,21.76-6,32.45-9.6,12.21-4.09,24.18-8.87,36.25-13.39,4.22-1.58,8.33-3.51,12.62-4.84a33,33,0,0,1,9-1.37c5.68-.09,11.25-.43,16.6-2.6a7.94,7.94,0,0,1,7,.14c9.45,5,19.67,8,29.89,11,2.32.68,4.64,1.36,7,1.91a29.41,29.41,0,0,1,13.31,7.36,48.34,48.34,0,0,0,12.24,7.58c2.31,1.09,5.32.63,8,1,1.48.22,3.51.27,4.28,1.21,2.54,3.13,5.47,2.24,8.38,1.34,2.56-.8,5-2,8-3.25.61,2.38,1.13,4.35,1.63,6.33.57,2.24,1.32,4.29,3.82,5.19.84.31,1.41,1.29,2.23,1.73,1.63.89,3.28,2.07,5,2.32a113.59,113.59,0,0,0,15.3,1.4,23.55,23.55,0,0,0,8.89-2c13.1-5.39,26.12-11,39.14-16.59a37.66,37.66,0,0,0,4.68-2.51c4.67-2.78,6.06-6.17,4.22-11.34a60.89,60.89,0,0,0-4-8.25c-1.22-2.27-2.68-4.41-4.07-6.58a13.87,13.87,0,0,1-2-8.24c.3-11.43-2.22-22.09-10-31a5.45,5.45,0,0,0-3.59-1.75,39.38,39.38,0,0,0-6.67.93,15,15,0,0,1-3.3.62c-.76,0-1.48-.83-2.21-1.28.47-.75.76-1.81,1.44-2.19a14.21,14.21,0,0,1,3.68-1.16c16.34-3.68,32.62-7.75,49.07-10.89,22.71-4.33,45.42-8.33,68.25-11.67a530.47,530.47,0,0,1,66-5.72c4-.09,8-.41,12.07-.62ZM772.86,831.64c-.39,3-.39,3,2.3,4.68ZM1108.44,651.8l1.16.2c.19-1.06.39-2.12.72-3.94C1108,649.36,1107.84,650.44,1108.44,651.8ZM768.68,837.05l-1-.85-.66.89a9.31,9.31,0,0,0,1.1.69A5.65,5.65,0,0,0,768.68,837.05Z"/><path class="cls-1" d="M0,833.54l22-7.22c33.89-11.15,68.51-16.93,104.24-13.43,13,1.28,25.88,3.4,38.81,5.18,1.85.26,3.66.83,6.28,1.44a40.14,40.14,0,0,1-2.46,4.08c-6.66,8.68-13.39,17.32-20,26-3.25,4.22-3.39,9.38.09,13.36q16.25,18.54,32.8,36.81a55.86,55.86,0,0,0,6.8,6.16c5.86,4.65,11,4.4,16.34-.78a32.47,32.47,0,0,0,3.28-4.51c2.35,1.7,3.73,2.72,5.15,3.69,3.7,2.55,7.35,5.22,11.16,7.59s7.78,3.94,13,2.25c-.21,1.72-.06,3-.53,4-8.24,18.46-10.5,38.12-11.74,58-.34,5.63-.32,11.28-.36,16.92a43,43,0,0,0,.34,5.79c1,8.06,4.75,11.24,12.83,11.45,6.91.19,13.83.59,20.73,1a46.63,46.63,0,0,1,4.87.8c-.62,2.35-2.44,2.54-3.75,3.15-8.91,4.19-17.58,8.78-25.3,15-2.51,2-5.07,4-7.46,6.13a8.59,8.59,0,0,0-3.21,7.3c3.53,1,6.42-.92,9.36-1.8,20.54-6.12,40.88-12.82,61.53-18.53,16.46-4.57,33.15-4.53,49.47,1.46,3.91,1.43,4.75,2,6.85,4.9-2.35.84-4.54,1.67-6.75,2.42-17.87,6-35.86,11.7-53.6,18.06-15.16,5.44-30.27,11.12-45,17.61q-39.13,17.23-77.73,35.7c-19,9.12-37.67,19.12-56.23,29.12-22.67,12.28-45.28,24.73-66.48,39.47-13.62,9.53-26.89,19.47-40.33,29.17a55.38,55.38,0,0,1-5,2.89ZM98.06,979.29l6.31,6.54c.19-4.61-2.93-5.72-6.31-6.54Zm9.39-3.13-1.4.22a6.85,6.85,0,0,0,1.46,6.11l1-.23Q108,979.22,107.45,976.16Z"/><path d="M1200,1405.46c-35.91-3.75-71.79-8-107.75-11.13-31.47-2.74-63-4.44-94.59-6.28-53-3.09-106.07-2-159.11-1.8-46.93.2-93.81,2.28-140.66,5-38.15,2.24-76.25,5.11-114.23,9.36s-75.94,8.61-113.8,13.75c-39.61,5.39-79.16,11.43-118.61,17.83-30.39,4.92-60.55,11.16-90.53,18.32-25.09,6-49.92,12.79-74.47,20.73a835.56,835.56,0,0,0-81.93,31.84c-32.41,14.43-64,30.54-95.63,46.46-2.85,1.42-5.79,2.64-8.69,4v-7.74c5.65-2.69,11.34-5.29,17-8.07,19.19-9.55,38.18-19.5,57.57-28.61,21-9.85,42.19-19.34,63.62-28.2,15.46-6.4,31.37-11.74,47.22-17.13q33-11.19,66.91-19.12c20.24-4.74,40.49-9.57,60.92-13.35,33.92-6.29,67.95-12,102-17.5,22.92-3.67,46-6.61,69-9.58q44.13-5.7,88.31-10.89c17.14-2,34.31-3.78,51.51-5.09,35.36-2.72,70.73-5.55,106.15-7.4,32.84-1.72,65.74-2.6,98.63-3.2,50.79-.93,101.6-1.17,152.38.48,26.74.86,53.49,2.36,80.17,4.33,31.83,2.36,63.62,5.42,95.4,8.4,14.44,1.36,28.83,3.27,43.25,4.92Z"/><path class="cls-1" d="M0,778.38a18.84,18.84,0,0,0,3.15-2.77Q17,756.13,30.76,736.55A6,6,0,0,1,33.88,734l-3,6.25c-6.67,13.6-13.41,27.16-20,40.79A93.8,93.8,0,0,0,7.13,791a3.6,3.6,0,0,0,.57,3.13,34.75,34.75,0,0,0,2.72-3.55c3.78-6.55,7.6-13.09,11.21-19.75,18.52-34.34,39.2-67.4,59.12-100.91,12.68-21.33,25.29-42.72,37-64.57,12.35-23,23.62-46.54,35.36-69.85.84-1.67,1.72-3.34,3-5.77,1,2.29,1.6,3.72,2.24,5.15.46,1,.64,2.5,1.42,3,3.88,2.49,2.19,5.34,1,8.41-16.22,41.74-32.6,83.43-48.51,125.3-7.55,19.87-14.61,40-21,60.23C88,742.19,83.85,752.08,79.62,762a6.25,6.25,0,0,0-.61,1.31c-1.2,7.19-5.9,11.17-12,14.54-8,4.43-15.65,9.58-23.4,14.52-10,6.41-18.48,14.63-26,23.67C12.86,821.74,6.7,823.59,0,824.82Z"/><path class="cls-1" d="M0,647.73a58.46,58.46,0,0,0,2.88-5.9Q12,615.64,21,589.37c.46-1.36.72-2.81,1.28-4.14a31.58,31.58,0,0,1,2.56-3.73l1.32,2.85c6.91,15,17.91,27,28.29,39.53,6.88,8.29,13.36,16.91,20,25.39.3.38.54.8.84,1.18,5,6.54,5.09,6.6,1,13.49q-10,16.83-20.19,33.47A8.83,8.83,0,0,1,52,701.15a15.17,15.17,0,0,0-7.56,5.72c-6.16,8.44-12.32,16.89-18.32,25.45-7.66,10.93-15.14,22-22.77,32.95A28.57,28.57,0,0,1,0,768.7Z"/><path d="M112.27,1322.27c5.56-1.19,10.39,1.22,14.86,4.11s8.62,6.42,13,9.75c-.69-6.14-6.59-10.68-6.07-17.45,3.17,2.7,4.55,6.58,6.53,10a42,42,0,0,1,4.54,11.7l-6.56.44c-2.54-2.78-4.77-5.77-7.54-8.11a40.1,40.1,0,0,0-8.9-5.58c-3.23-1.49-6.79-2.25-10.21-3.33Z"/><path d="M1037.32,1110.27c-2.67,4.34-.49,8.77-1.91,12.92-.83-.49-1.48-.65-1.54-.94a30.4,30.4,0,0,1,.48-15.24c1.16-3.82,3.41-6.15,8-5.89a43.36,43.36,0,0,0,.76,21.17c-2.7-.83-3.2-2.57-3.5-4.41-.26-1.59-.25-3.23-.62-4.79A12.55,12.55,0,0,0,1037.32,1110.27Z"/><path d="M467.3,1357.12c.59,1.41,1.2,2.82,1.76,4.25.91,2.38,1.69,4.82,2.71,7.15,1.94,4.47,1.89,4.62-3.55,5.58a20.63,20.63,0,0,0-9.39-9.61,7.32,7.32,0,0,1-2-2c-.27-.32-.28-.86-.53-1.71,4-.91,5.72,4,9.71,3.31v-6.65Z"/><path d="M1111.8,1318c-4.47,4.75-9.43,9.11-13.27,14.3s-6.57,11.19-9.91,17c-1.45-1.91-1-4,0-5.77a126.42,126.42,0,0,1,8.39-14c2.84-3.85,6.49-7.13,9.92-10.51a18.6,18.6,0,0,1,3.87-2.27Z"/><path d="M1056.71,1329.69c2.52,2.78,4.81,5.17,7,7.7,4.23,5,8.6,10,11.35,16.06.9,2,1.83,4,.39,6.41-.64-.42-1.23-.58-1.33-.9-2.33-7.21-6.8-13-11.79-18.54-1.83-2-3.57-4.12-5.34-6.2C1056,1333.12,1055,1332,1056.71,1329.69Z"/><path d="M1074.9,1321.15c.4.26,1.08.48,1.12.77a171.79,171.79,0,0,0,6.25,30.55c.2.61-.26,1.43-.46,2.33C1076.92,1350.29,1072.26,1327.11,1074.9,1321.15Z"/><path d="M1060.47,951.5c1.52,1.49,2.49,2.08,2.94,2.94,4.77,9.31,8,19.81,7.41,24.85-3.93-4-4.06-9-5.77-13.22S1060.7,957.58,1060.47,951.5Z"/><path d="M1058,1088.11c-1.81,4.71-4.11,9.3-5.29,14.17-1.12,4.65-1.07,9.59-2,14.32-2.67-10.69.23-20.13,6-28.91Z"/><path d="M1079.54,950.78c1.27,3.42-.53,5.85-.89,8.46s-.43,5.11-.58,7.68a72.6,72.6,0,0,1-.66,7.8C1074,968.64,1075.13,956.3,1079.54,950.78Z"/><path d="M984.65,870.77c-2.78-4.89-6-9.54-7.15-15.14C981.65,859.88,985.31,864.35,984.65,870.77Z"/><path d="M1062.62,977.86c-.81-.57-2.16-1-2.36-1.75-1.13-4.16-3.65-8-2.77-12.7,3.64,3.86,4.33,8.94,6.1,13.56Z"/><path d="M481.41,1354.5l-4.68,16.75C473.84,1367.4,475.56,1360.55,481.41,1354.5Z"/><path d="M148,1335.24c-2.32-5.64-.72-14.69,4.72-19.1-1.38,3.79-2.89,6.68-3.44,9.75s-.1,6.27-.1,9.42Z"/><path d="M647.35,1110c-1.71-3-1.25-6-.46-9.67C648.84,1103.64,648.91,1104.89,647.35,1110Z"/><path d="M635.51,1105.4c3.2,6.81,3.2,6.81,1.37,9-.68-2.64-1.33-5.16-1.93-7.68C634.9,1106.49,635.18,1106.17,635.51,1105.4Z"/><path d="M990.69,857.9V865c-1.92-2.3-1.56-4.69-1.33-7.08Z"/><path d="M1002.78,856.3l-2.48,6.46C998.69,858.8,998.9,858.16,1002.78,856.3Z"/><path d="M634.3,1100.82l-.47.66c-.19-.21-.56-.47-.52-.61a3.13,3.13,0,0,1,.62-.88C634.06,1100.27,634.18,1100.54,634.3,1100.82Z"/><path d="M309.56,74.47c4.34,1.09,8.71,2.07,13,3.33,3.92,1.16,3.92,1.29,5.8-2.55,7.39-15.13,21.69-18.44,34.93-14,4.16,1.4,8,4.15,11.67,6.63,2.52,1.66,2.69,4.25,1.08,6.75-1.81,2.81-4.18,3.6-7,2s-5.37-3.52-8.17-5.08a23.25,23.25,0,0,0-15-2.39c-6,.87-9.19,3.88-10.41,9.76-.36,1.74-.47,3.52-.88,5.24-1.26,5.31-6.11,7.74-11.11,5.51-5.74-2.57-11.38-5.14-17.94-5.1-6,0-10.35,2.08-12.14,8.09-1.1,3.68-2,7.41-3,11.13-.48,1.86-.59,3.9-1.45,5.54a4.47,4.47,0,0,1-3.33,2c-.74,0-2.1-1.68-2.16-2.67a44.72,44.72,0,0,1,.16-10.08,29.78,29.78,0,0,1,10.85-18.8C298.85,76.33,303.89,74.88,309.56,74.47Z"/><path d="M138.79,88.09c4.41.33,8,.38,11.46.91,3.73.57,5.1,2.29,4.64,4.93-.54,3.14-4.74,6.67-7.35,5.56-6.92-2.92-14-1.7-21-1.17a26.76,26.76,0,0,0-9.19,2.6,10.26,10.26,0,0,0-6,9.77,53.23,53.23,0,0,0,1,10c1.3,6.35-1.8,10.67-8.39,11.07-2.57.16-5.15.08-7.72.26-6.85.47-12,3.28-14.25,10.26a95.69,95.69,0,0,1-4.14,9.79,15.49,15.49,0,0,1-2.5,4.1,3.2,3.2,0,0,1-2.89.82c-.77-.34-1.1-1.72-1.56-2.68a1.73,1.73,0,0,1,.12-1c2.18-7.58,4.16-15.25,9.31-21.56a23.52,23.52,0,0,1,15.19-8.6c1.12-.17,2.24-.32,3.36-.47,2.45-.31,3.86-1.49,3.49-4.17-.05-.31,0-.64-.05-1-1.18-13.35,8.6-25.15,22.87-28C130,88.7,134.83,88.52,138.79,88.09Z"/><path d="M60.27,329.54c-1.94.14-4.53.15-7.07.52a10.25,10.25,0,0,0-8.9,7.77c-.63,2.14-.91,4.4-1.35,6.6-.22,1.09-.13,2.43-.74,3.25-.86,1.18-2.13,2.59-3.4,2.78-1.83.28-2.62-1.57-3-3.21-1.27-6.47.78-12.18,4.65-17.15,4.06-5.23,9.27-8.78,16.16-9.55,5.12-.57,5.09-.81,5.44-6,.74-11.23,9.15-19,19.92-18.62A18.44,18.44,0,0,1,93.69,301c2.13,1.87,2.14,5,.23,7.36s-4.81,2.94-7.07.94a14.58,14.58,0,0,0-8.64-3.86c-4.63-.39-7,1.6-7.18,6.32a19.05,19.05,0,0,0,.91,6.61c2.56,7.5-.72,11.92-8.69,11.43C62.51,329.74,61.7,329.64,60.27,329.54Z"/><path d="M632.24,1542.25a23.35,23.35,0,0,1-2.79-2.26c-9.13-9.9-20.27-17.33-31-25.28-4.38-3.26-8.83-6.42-13.18-9.72a24.85,24.85,0,0,1-3-3.32c2.73-1.07,4,.41,5.32,1.34q10.74,7.77,21.36,15.72c5,3.76,9.95,7.64,14.95,11.43a5.87,5.87,0,0,0,3.66,1.31c-1.65-2.29-3.33-4.57-4.94-6.89-3-4.35-6.14-8.65-9-13.13a9.27,9.27,0,0,1-.7-9c1.47,3.27,2.26,5.87,3.69,8,3.54,5.36,7.35,10.53,11.08,15.76a34.11,34.11,0,0,0,3.54,4.58C634.61,1534.16,635.15,1537.7,632.24,1542.25Z"/><path d="M349.74,1498.07c-5-.78-8.48-3.34-10.25-7.42-4.29-9.83-4.45-19.73,1.18-29.2,2.31-3.88,6.08-6.08,10.26-7.57.34-.12.84.2,2.22.57-8.55,5-13.52,11.51-13.66,21.17C339.35,1484.7,341.9,1492.39,349.74,1498.07Z"/><path d="M647.54,1529.72c2.94-10.56,19.57-24,29.7-23.79C665.44,1512.1,655.4,1518.89,647.54,1529.72Z"/><path d="M355.64,1475c-1.14,8.64,1.83,16.89.47,25.94-2.48-3.56-4.25-15.27-3.6-21.07C352.74,1478,353,1476.07,355.64,1475Z"/><path d="M371.75,1472.79c-1.67,3.59-3.81,7-4.89,10.81s-1.1,7.76-1.66,12.21C360.17,1489.71,364.45,1476.55,371.75,1472.79Z"/><path class="cls-1" d="M1043.73,225.85c-1.1,3-2.6,6.48-3.7,10.13-5.29,17.51-17,30.09-31.24,40.65a154.75,154.75,0,0,1-39.86,21.46c-17.76,6.38-35.37,5.68-52.93-1-11.6-4.45-21.63-11.45-31.56-18.59-5.08-3.68-9.93-7.65-14.82-11.59a10.91,10.91,0,0,0-8-2.45c-11.59.85-23.06.78-34.52-2.2-10.15-2.64-20.37-5-30-9.17-10.32-4.51-19.13-10.89-25.83-20.33-8.2-11.56-10.58-24.22-9.86-38,.5-9.45,1.86-18.59,6.1-27.12,8.65-17.41,22.25-29.57,39.65-38,19.37-9.41,39.82-11.3,60.83-9.78a148.87,148.87,0,0,1,21,2.86,47.47,47.47,0,0,1,19.36,9.57c1.3,1,2.82,3,4.55,1.22,1.53-1.53,0-3.29-.81-4.81-3.81-7-10.11-10.8-17.37-13-6.15-1.83-12.54-2.86-18.83-4.25l-4.95-1.12a25.09,25.09,0,0,1,1.68-3.46c7.57-10.43,15.09-20.89,22.79-31.22A125.77,125.77,0,0,1,921.54,50c12.85-9.52,26.12-18.31,41.34-23.74,13.52-4.81,27.35-6.42,41.41-3.62,12.1,2.41,20.79,9.89,27,20.34a33.75,33.75,0,0,1,4.7,12.56c.86,6.18,3.11,8.08,9.36,8.3a87.58,87.58,0,0,0,17.35-.74c6.84-1.17,13.47-.51,20.2.17A115.33,115.33,0,0,1,1135.7,82c11.24,7.41,20.25,17,26.13,29.17a54.1,54.1,0,0,1,5.71,21.37c.72,18.79-3,36.47-13.48,52.47-9.42,14.35-22.28,24.4-37.78,31.3-14.49,6.45-29.84,9.12-45.54,10.07-5.8.34-11.6.58-17.41.6C1050.54,226.94,1047.76,226.32,1043.73,225.85Z"/><path class="cls-1" d="M536.08,407.25c.42-1.48.93-2.94,1.24-4.44.67-3.21-.2-4.61-3.4-5a18.61,18.61,0,0,0-5.27.2c-3.49.6-5.21,2.91-5.1,6.47.1,3.21,1.44,4.53,5,5.32a20.25,20.25,0,0,1,3.38,1.4,16.63,16.63,0,0,1-1.68,3.72c-4.06,5.18-8.26,10.27-12.42,15.38-.78,1-1.62,1.88-3,3.42-1.18-1.93-2.18-3.29-2.91-4.78-3.85-7.71-10.4-11.78-18.56-13.17-5.93-1-10.68,1.53-14.33,6.22a28,28,0,0,0-5.89,15.6c-.55,8-.72,16.1-.77,24.16a235.81,235.81,0,0,0,3.83,45.71q.38,3.06.45,6.12c-2-1.24-3.21-1.69-4-2.5-13-12.65-25-26-33.8-42-6.56-12-9.16-24.83-5.6-38.26a45.85,45.85,0,0,1,6-13.07,160.29,160.29,0,0,1,25.46-29.63c2.22-2.06,4.44-3.58,7.74-2.86,3.93.87,8.73-5.59,7.32-10.9-.57-2.16-2.45-2.6-4.25-2.23-2.65.54-5.93-2.33-7.91,1.28a6.36,6.36,0,0,0-.49,3.77c.49,3-1,4.57-3.33,6.23-16.4,11.73-29.68,26.32-38.14,44.7-2.2,4.77-2.47,10.66-2.71,16.07-.55,12.76,3.16,24.56,9.77,35.38a186.35,186.35,0,0,0,36.87,43.23c2.43,2.12,5.82,3.37,9,4.37,4.37,1.39,5.2,2,5.29,6.67s0,9.67,0,14.51c.13,10.8.26,21.61.52,32.4a64.73,64.73,0,0,0,1,9.12,5.64,5.64,0,0,1-2.17,5.93q-11.94,9.84-23.7,19.89c-2.33,2-4.48,2.35-7.49,1.25-15.19-5.6-30.5-6.19-45.85-.43-2.56,1-5.23,1.62-7.84,2.43-18.73,5.78-29.62,19.14-35.67,37.09a91.22,91.22,0,0,0-2.28,8.89c-.94,3.93-1.31,4.35-5.43,4.92-9.74,1.35-19.5,2.6-29.23,4-7.34,1-14.65,2.32-22,3.42-2.49.37-5,.49-8.21.78a19.14,19.14,0,0,1,1.45-3.62c17.27-23.15,29.47-49.1,41.57-75.11q7.86-16.86,16-33.63c1.31-2.71,3-5.23,4.54-7.83l1,.44c-.93,2.45-1.79,4.93-2.8,7.35-5.7,13.67-11.79,27.2-15.73,41.53a9.52,9.52,0,0,0-.24,4.59c9.42-16.92,17.26-34.49,24.94-52.12s15.33-35.5,22.26-53.54,12.91-36.32,19.68-54.4c-1.58,9.3-4.53,18.25-6.71,27.39s-5,17.79-5.9,27l1.35.54a26.72,26.72,0,0,0,2.22-3.85c3.29-8.75,6.72-17.45,9.66-26.32,4.84-14.67,9.38-29.46,14-44.21,4.09-13,8-26.18,12.26-39.18q8.25-25.26,17-50.37c4.81-13.84,10-27.56,14.93-41.35,5.4-15,10.71-30,16.13-45,4.64-12.86,9.37-25.7,14.09-38.54a35.35,35.35,0,0,1,1.65-3.32c2.89.79,3.81,2.93,5,4.78,3.22,5,6.38,10.07,9.66,15.05,1.21,1.82,2.27,4.22,5.16,3.52a7.08,7.08,0,0,0,5.42-5.59c.37-1.55.23-3.21.48-4.8.57-3.67,2.81-4.71,5.75-2.39,3.15,2.49,5.93,5.45,8.93,8.13a91.67,91.67,0,0,0,7.72,6.46,15.78,15.78,0,0,0,13.75,2.82,9.25,9.25,0,0,1,9,2.17q7.72,6.94,15.3,14c1.86,1.76,3.42,3.87,5.28,5.64,4.66,4.42,8.41,4.68,13.85,1.16.39-.25.85-.41,1.87-.91,1.26,1.66,2.72,3.3,3.89,5.12,13.54,21.19,26.92,42.49,40.6,63.59,11.05,17,22.51,33.82,33.7,50.77,3.55,5.38,6.73,11,10.28,16.38,1.75,2.66,1.09,4.76-.55,7-5.43,7.6-10.73,15.29-16.19,22.87q-26.16,36.27-52.33,72.49c-7.44,10.33-14.91,20.64-22.06,31.15-2.39,3.53-4.2,3.16-6.37-.15-3.27-5-7-9.69-10.41-14.55-3.16-4.45-3.15-4.94-.24-9.45,3.76-5.81,7.68-11.53,11.25-17.46,3.24-5.37,6.3-10.87,7.54-17.17.84-4.26,1.29-8.73-2.22-11.72s-8-1.85-12-.47c-7.5,2.56-13.53,7.4-19.11,12.84-2.42,2.36-4.64,4.93-7.07,7.29s-3.49,2.41-6.14.09a42.77,42.77,0,0,0-3.18-3c-3-2.21-3.47-4.89-2.66-8.5,1-4.53,1.27-9.28-.51-13.81-.94-2.4,0-4.31,1.14-6.37,5-9.23,9.3-18.82,11.64-29.07a46.48,46.48,0,0,0,.92-13.87c-.51-6.52-4.56-9.28-11.06-8.22a31.19,31.19,0,0,0-12.47,5c-1.67,1.12-3.54,1.93-5.32,2.89Z"/><path class="cls-1" d="M462.82,622.14c1.39-1.45,2.28-2.58,3.35-3.49,17.06-14.26,33.84-28.85,52.39-41.21.54-.36,1.07-.73,1.62-1.07,3.51-2.17,3.87-2,5.76,1.58a39.22,39.22,0,0,0,4.72,7.25c4.48,5.17,10.2,7.16,17,5.54,3.13-.76,6.26-1.59,9.33-2.54,9.87-3,15.69-.94,22,7.17,4.9,6.35,7.11,12.91,4,20.69a7.93,7.93,0,0,0-.47,2.85c.05,2.76-1.17,4.18-3.79,5.37-6.8,3.11-10.81,9.05-13.67,15.65-1.78,4.1.25,7.59,4.71,8.14,2.59.33,5.4-.36,8-1a25.8,25.8,0,0,0,5.66-2.7c8.16-4.48,15.83-3.19,23.12,2,2,1.39,3.61,3.23,5.58,4.62,3.59,2.55,9,2.65,12.27.19,3.52-2.68,5.14-6.48,3.88-10.67a13.17,13.17,0,0,0-4.56-6.47c-2.92-2.14-4.47-4.52-4.39-8,.17-7.08-.05-14.18.66-21.21,1-10.08,3.61-20,3.11-30.26-.1-2.09-.2-4.18-.38-6.27-.76-8.69-4.66-15.3-12.73-19.14a17.77,17.77,0,0,1-2.33-1.84,36.47,36.47,0,0,1,4.74-.74,109,109,0,0,1,50.74,12.27c2.13,1.12,3.64,2.51,4.2,4.94,1.83,7.84,4,15.61,5.55,23.5,1.85,9.48,3.57,19,4.61,28.6A179.83,179.83,0,0,1,678,638c-.09,6.28-.81,12.54-1.07,18.82-.84,19.91-4.82,39.29-9.23,58.65-3.45,15.15-8.86,29.63-14,44.2-5.73,16.14-6.68,32.71-5.82,49.59a115,115,0,0,0,8.39,37.53,52.29,52.29,0,0,0,3.06,6.57c1.44,2.48,1.72,4.66,0,7.17a65.41,65.41,0,0,0-3.73,6.76c-2.38,4.54-5.9,7.78-10.22,10.62-12.54,8.23-26.49,12.44-41,15.29q-19,3.75-38.06,6.92a135.64,135.64,0,0,1-31.83,1.27,69.72,69.72,0,0,1-8.07-1.47c-2.38-.43-3.17-1.94-2.9-4.19.09-.81.15-1.61.27-2.41a189.44,189.44,0,0,0,.89-45.83c-.71-7.72-3-15.1-5.52-22.45-6-17.43-17.44-31.49-28.2-46-11.26-15.12-22.86-30-34.19-45-5.59-7.43-5.47-7.52,1.9-12.75,10.36-7.37,17.06-17.3,20.89-29.39,3-9.42,2.84-19,2.37-28.72a59.21,59.21,0,0,0-5.83-23.73,44.35,44.35,0,0,0-9.55-13.28C465.36,625.05,464.36,623.8,462.82,622.14Z"/><path class="cls-1" d="M277.65,260.35l2.6-3.81c4.74-6.89,9.12-14,14.3-20.6,9-11.34,21.16-17.45,35.43-18.34,17.14-1.08,34.13.41,50.53,6.2,20.31,7.18,33.28,21.34,40,41.56,5.4,16.24,5.06,32.67,1.61,49.16-.44,2.13-.35,5-3.52,6.14L414.79,314H413.6a31.49,31.49,0,0,0-1.81,4.63,69.92,69.92,0,0,0-1.33,8.11c-1.32,12.36-6.81,22.7-15.15,31.69-12.88,13.89-28.81,22.45-47,27.11-14.7,3.76-29.63,4.25-44.66,3.36-4.47-.27-8.94-1.07-13.4-1.66a6.46,6.46,0,0,0-5.65,2c-4.65,4.47-9.28,9-14.2,13.1a50.65,50.65,0,0,1-9.67,6.33c-7.3,3.73-14.63,7.51-22.23,10.55a43.42,43.42,0,0,1-34.81-.57c-7.13-3.15-12.65-8.38-17.31-14.37-12.42-16-14.9-33.82-9.36-53,3.7-12.82,12.64-20.19,25.08-23.75,7.11-2,14.37-1.56,21.61-.74.8.09,1.64.56,2.36.4,1.29-.31,3.11-.63,3.62-1.55.91-1.69.18-3.51-1.74-4.39a25.22,25.22,0,0,0-5-1.82,54.17,54.17,0,0,0-6.7-.9c-4.21-.4-4.78-.71-4.42-5,.51-6.41.84-12.93,2.36-19.15,4.25-17.34,11.25-33.6,21.92-48,10.14-13.68,24.14-20.34,41-21.43a10.52,10.52,0,0,1,9.08,3.61c2.23,2.56,2.35,4.36.59,7.37-2.12,3.61-4.3,7.19-6.25,10.89A22.5,22.5,0,0,0,277.65,260.35Z"/><path class="cls-1" d="M418.23,332.89c1.44,2,2.56,3.32,3.4,4.79,4.45,7.67,8.78,15.41,13.26,23.05,1.37,2.34,1.18,4.52.4,6.93q-4.71,14.25-9.25,28.5c-3.84,12.13-7.56,24.29-11.34,36.43-.58,1.85-1.31,3.66-1.71,5.54-.69,3.13-1.53,5.55-5.47,6.35-1.82.37-3.62,3.15-4.54,5.23-2.91,6.45-5.56,13-8,19.67-6.87,18.41-13.62,36.87-20.38,55.33a17.49,17.49,0,0,1-5,6.91A59.38,59.38,0,0,0,361,542c-10.67,15.85-18.54,33.17-26.54,50.43-9.4,20.32-18.71,40.7-30,60.08-4.52,7.79-10.08,15-14.66,22.73-2.22,3.76-5.05,5.26-9.12,6a450.83,450.83,0,0,0-56,13.06c-14.34,4.37-28.59,8.93-42.34,15-1.33.58-2.88.67-5.51,1.25,2.13-4.11,3.78-7,5.19-10,4.86-10.34,9.55-20.76,14.51-31,2.46-5.07,5.41-9.9,8-14.87,11.22-21,22.47-42,33.56-63.14,19.87-37.78,37.66-76.65,59-113.67q19.91-34.53,39.9-69c1.85-3.21,3.72-6.42,3.91-10.28.13-2.59,2.37-2.78,4.15-3.36,5.65-1.84,11.53-3.18,17-5.48,20.9-8.77,38.1-22.12,49.59-42C414.2,343.27,415.79,338.49,418.23,332.89Z"/><path class="cls-1" d="M25.54,816.14c2.21-4,5.44-6.24,8.31-8.64,9.67-8.09,20.57-14.38,31.27-21q18.91-11.67,37.2-24.34c17.75-12.32,35.52-24.54,54.9-34.24a396.75,396.75,0,0,1,46.34-19.42,473.67,473.67,0,0,1,81.94-20.65c22.6-3.62,45.25-6.93,67.87-10.37.8-.12,1.6-.24,2.4-.33,2-.23,3,.83,3.14,2.74.09,1.61,0,3.23.06,4.84.28,17.22,7.95,30.19,22.49,39.25,2.43,1.51,5.66,2.81,6.74,5.07,1,2-.57,5.19-.91,7.87q-4,31.19-7.88,62.38a53.06,53.06,0,0,0-.67,11.08c.62,6.2-3.2,9.73-6.74,13.8a39.56,39.56,0,0,1-4.69-2c-16.26-9.39-33.73-16.12-51.19-22.77-17.62-6.71-35.56-12.6-53.22-19.2a65.52,65.52,0,0,0-25.66-3.73c-10.34.4-19.91,3.63-27.8,10.84-1.63,1.48-3.76,2.4-5.59,3.66-2.9,2-5.89,3.92-8.6,6.18-4,3.31-7.74,6.82-11.49,10.36a8.4,8.4,0,0,1-7.93,2.27c-8.88-1.61-17.79-3.11-26.72-4.39a264.49,264.49,0,0,0-67.52-1.11c-9.74,1.11-19.39,3.26-29,5.37-7.86,1.73-15.57,4.12-23.36,6.16A21.81,21.81,0,0,1,25.54,816.14Z"/><path class="cls-1" d="M381.69,959.18c-2.82,2.82-6.47,2.4-9.81,3.24a121.92,121.92,0,0,0-20.6,6.74c-11.87,5.38-23.38,11.53-35,17.35-1,.48-2,.87-3.86,1.7a18.58,18.58,0,0,1,1.4-3.55c3.2-4.3,4.24-9.35,5.13-14.45.7-4-1.31-7.11-3.56-10.14Q307,948.8,298.82,937.49A14.68,14.68,0,0,1,296,929.4a21.73,21.73,0,0,0-1.83-6.45,70.37,70.37,0,0,0-12.43-21.15c-2.56-2.88-2.42-3.45,1.52-6.59,1.42,1,2.92,2.18,4.45,3.3a41.82,41.82,0,0,0,5.14,3.59c4.21,2.14,7.36,1.14,9.85-2.8q11.19-17.81,22.39-35.56c2.35-3.72,2.88-3.86,7-1.83,4.48,2.2,8.92,4.5,13.38,6.74,5.37,2.71,10.92,4.85,17,5.35,2.9.24,4.46,1.68,5.73,4.34A49.46,49.46,0,0,0,374.71,889c11.36,13.47,30.17,13.37,42.21,5.57,13.69-8.86,22.53-21.27,26.86-37a60,60,0,0,0,1.47-24.94c-.47-3.21,0-3.9,3.42-4.43,4.94-.76,9.92-1.23,14.87-1.89,12.31-1.67,24.6-3.39,36.91-5,6.18-.83,6.45-.58,9.13,5.19,6.83,14.7,8.79,30.23,8.11,46.23-.37,8.55-.6,17.12-4,25.16-.82,1.93-1.75,3.81-2.55,5.74a39.3,39.3,0,0,0-1.81,5c-1.24,4.82-2.15,9.72-3.55,14.48-5.46,18.56-11.18,37-16.52,55.61-1.35,4.69-3.83,7.24-8.46,8.81-20.75,7.05-41.38,14.42-62.06,21.67-1.67.58-3.38,1-5.09,1.55-4.21,1.19-4.73.86-6.66-3.14q-8.88-18.51-17.9-37c-1.55-3.16-3.36-6.22-5.16-9.27A13.14,13.14,0,0,0,381.69,959.18Z"/><path class="cls-1" d="M667.79,861.64l3.17,2.44q18.16,14,36.33,28.08c5.58,4.34,11,8.84,16.57,13.24q9.84,7.83,19.71,15.61,27.15,21.39,54.35,42.73c3.92,3.07,8,5.93,12,8.87,2.34,1.71,4.64,3.49,7.07,5.06,7.08,4.58,9,11,8.21,19.19-.47,4.84.87,9.86,1.36,14.8.32,3.2.52,6.41.87,9.6.69,6.4,1.17,12.84,2.22,19.18a295.44,295.44,0,0,0,14.08,54.2,143.88,143.88,0,0,0,49.76,67c11.66,8.68,24.1,16.1,36.68,23.33,24.34,14,49.09,27.15,75.11,37.77,6.09,2.49,12.55,4.1,18.84,6.09,1.8.56,3.62,1.05,5.43,1.57,0,.35.06.7.08,1-2.07.62-4.11,1.42-6.22,1.83a335.29,335.29,0,0,1-56.7,5.92q-39.16.69-78.34.59c-10.63,0-21.25-1.12-31.87-1.77-4.47-.27-4.68-.52-6.11-4.73A513.61,513.61,0,0,1,834.47,1173c-2.49-12-5.15-24-7-36.06-2.63-16.86-4.77-33.81-6.8-50.76-1.33-11.2-2.37-22.45-3-33.7-.88-15.13-1.28-30.28-1.85-45.42-.2-5.14-.34-10.3-.38-15.46a5.9,5.9,0,0,0-2.75-4.82q-6.95-5.24-13.88-10.48a10.67,10.67,0,0,1-2.18-1.9c-6.89-9-16.36-15-25-21.93q-19.8-15.87-39.94-31.33c-6.25-4.77-12.92-9-19.39-13.51-.53-.37-1.07-.73-1.57-1.14-21.48-17.63-27-20.75-45.1-31.15-.84-.48-1.67-1-2.46-1.54-2.88-2-2.95-2.38-1-5.39,1.42-2.14,2.89-4.24,4.37-6.33C666.66,861.88,667.09,861.88,667.79,861.64Z"/><path class="cls-1" d="M734.55,446.24c-4.19-1.93-6.39.52-8.1,3.39-6.33,10.67-12.92,21.21-18.64,32.2-6.25,12-11.73,24.39-17.38,36.69-1.72,3.77-3.89,6-8.29,7a105.41,105.41,0,0,0-19.55,6.77c-3.86,1.74-7.16,4.82-10.51,7.55-1.59,1.3-2.93,2.53-5.1,1.78-10.25-3.52-20.9-3.7-31.55-3.76a30.66,30.66,0,0,1-3.81-.35c-.24,0-.45-.42-1.16-1.1.72-1.18,1.43-2.53,2.31-3.75q18.57-25.93,37.21-51.84,24.33-34,48.63-68c13.24-18.46,26.57-36.84,39.83-55.27,7-9.68,13.83-19.42,20.75-29.12l28.89-40.54c4.58-6.43,9.27-12.77,13.68-19.31,2-3,4.3-3.71,7.78-2.81,5.61,1.44,11.34,2.41,17,3.55,3.23.64,3.92,1.55,2.77,4.58-1.06,2.82-2.31,5.37-5,7.42a27,27,0,0,0-6.55,8.24c-9.14,16.1-18.22,32.25-27.08,48.51-9.56,17.54-19.06,35.11-28.25,52.84-8.74,16.88-17,34-25.53,51C736.29,443.17,735.55,444.4,734.55,446.24Z"/><path class="cls-1" d="M85,764.33a16.32,16.32,0,0,1,.47-2.29c7.74-20.66,15.42-41.36,23.29-62q18.73-49.24,37.68-98.39c10-26,20.4-51.86,30.14-78,4.66-12.51,8.19-25.45,12.23-38.2l1.33-4.25a24.27,24.27,0,0,1,1.25,3.72c1.83,16,3.35,32.06,5.49,48,2,15.16,4.55,30.28,7.15,45.37,2.4,13.81,5.19,27.54,7.8,41.32a13.79,13.79,0,0,1-1.53,9.33c-7.4,14-14.83,27.88-21.94,42-4.59,9-8.54,18.41-13,27.51-2.48,5-5.5,9.83-8.2,14.79-1.64,3-4.46,4.49-7.32,6-9.62,5.22-19.48,10-28.73,15.88-12.67,8-24.85,16.74-37.25,25.13-2.6,1.76-5.33,3.33-8,5Z"/><path class="cls-1" d="M543.43,529.83C539,535.69,534.84,541,531,546.51a38.08,38.08,0,0,0-6.35,15.56,7.21,7.21,0,0,1-3.07,5.19c-9.11,6.38-18.12,12.91-27.17,19.36-.75.53-1.57.94-2.78,1.64a16,16,0,0,1-.61-3c.29-18.7.85-37.4.85-56.09,0-14.79,1.55-29.3,5.9-43.41a101.35,101.35,0,0,1,7-16.4c2.64-5.16,6.56-6.66,12.2-5a40.36,40.36,0,0,1,9.18,4.21,129.55,129.55,0,0,1,25.48,20.66c2.92,3,2.83,4.41-.48,7-1.26,1-2.71,1.72-4.07,2.6s-2.63,1.69-1.74,3.41,2.49,1.33,3.85.78a15.63,15.63,0,0,0,4.68-2.45c5.64-5,11.1-10.24,16.68-15.34,4.26-3.92,8.36-8.06,13-11.58a33.83,33.83,0,0,1,9.5-4.6c3.82-1.34,6.21.59,5.53,4.59a30.7,30.7,0,0,1-3.43,10.44c-5.86,9.81-12.2,19.34-18.36,29q-9,14-18,28.08a18,18,0,0,0-2,4.37c-1.34,4.39.22,7,4.75,7.54a73.9,73.9,0,0,0,9.64.43c5.8-.06,11.61-.56,17.4-.37a54.1,54.1,0,0,1,12.4,1.78c9.81,2.67,14,8.34,14.51,18.56.43,8.76-.82,17.37-2.1,26-.85,5.73-1.4,11.51-2,17.28-.85,8.38,2.26,15.44,7.42,21.81,1.25,1.54,3.66,3.29,1.57,5.3s-3.76-.54-5.21-1.81c-8-6.94-17-9.7-27.34-6.91-2.6.7-5,2.24-7.46,3.35a32.19,32.19,0,0,1-4.91,2,3.14,3.14,0,0,1-2.46-.87,2.28,2.28,0,0,1,.13-2.18c1.94-2.33,3.66-5.22,6.17-6.61,4.16-2.31,6.77-5.21,7.66-9.87a22.42,22.42,0,0,1,2-5.45c4.53-9.39,1.57-17.46-4.11-25.22-6.87-9.39-15.81-12.11-26.83-8.92a53.63,53.63,0,0,1-8.46,1.92c-8.86,1-15.89-4.71-17.24-13.61-1.4-9.28,1.68-17.29,7.16-24.36,4.32-5.58,9.46-10.52,14.06-15.89a13.1,13.1,0,0,0,2.85-5.32c.5-2.21-.82-3.55-3-3.15a26.85,26.85,0,0,0-7.71,2.53C542.32,525.05,542.1,526.42,543.43,529.83Z"/><path class="cls-1" d="M422.74,723.64c-12.39.21-23.41-1.7-33.48-7.49s-16.95-14-20.23-25.35c-4.37-15.11-2-29.42,4.71-43.15,1.68-3.45,4.81-6.46,7.89-8.9,9.41-7.47,19.59-13.7,31.65-15.88,10.65-1.92,21.45-1.64,31.41,2.48,9.34,3.85,18.09,9.21,22.46,19.27a8.29,8.29,0,0,0,1.28,2c6.62,7.74,7.93,16.53,5.82,26.3-1.32,6.1-1.52,12.47-2.93,18.56-2.74,11.78-9.48,21.07-20.58,25.91C441.68,721.32,432.27,725.36,422.74,723.64Z"/><path class="cls-1" d="M454.5,1136.22c.94-2.56,2.05-4.16,2-5.72-.2-6.78,2.23-13,3.77-19.39q4.53-18.78,9.57-37.45c3.37-12.61,7-25.16,10.48-37.73,4.29-15.36,9.09-30.58,12.71-46.1,3.29-14.15,8.81-27.58,12.2-41.66,2.61-10.81,5.63-21.52,8.56-32.24,1.06-3.88,2.38-7.67,3.64-11.5.12-.39.64-.64,1-1a6,6,0,0,1,1.35.47c5.82,3.93,5.9,4,3.94,10.83q-7.72,27-15.61,53.86c-1.18,4-2.82,7.85-4.14,11.81a9.41,9.41,0,0,0-.72,4.22c.61,3.74-.9,7-1.9,10.36-2.7,9.1-5.55,18.16-8.12,27.3-3.7,13.19-7.21,26.43-10.81,39.65q-6.74,24.71-13.46,49.42c-3,11-5.91,22.09-8.63,33.2-1,4.23-1.8,8.49-3.94,12.33-.23.41-.51.79-1.13,1.74-1.58-2.06-3.5-3.51-3.9-5.3-1.41-6.31-5.61-11.2-8-17-1.93-4.58-3.13-9.51-5.44-13.87-6-11.39-12.13-22.75-18.82-33.76a279.81,279.81,0,0,0-30-40.27A118.59,118.59,0,0,0,362,1026c-17.44-10.62-36.31-13.42-56.34-10.13-12,2-23.51,5.55-35,9.38-10.21,3.41-20.41,6.88-31.17,10.51.33-2.77,2.25-3.55,3.73-4.32,7-3.66,13.93-7.49,21.17-10.6,15.41-6.63,30.6-13.64,45-22.33a380,380,0,0,1,59.88-29.18c1.5-.58,3-1.29,4.42-2s2.59-1.19,4.13-1.91a15.84,15.84,0,0,1,2,2.82c4.48,10.88,8.85,21.8,13.34,32.68,1,2.53,2.4,4.93,3.61,7.38a26.79,26.79,0,0,1,2.12,4.34c3.5,12.44,9.91,23.68,14.55,35.64q12.42,32,25.16,63.9c3,7.51,6.72,14.66,12.18,20.75A40,40,0,0,0,454.5,1136.22Z"/><path class="cls-1" d="M655.7,543.55c1.54-1.16,2.65-2.35,4-2.94a99.06,99.06,0,0,1,11.66-4.6,91.19,91.19,0,0,1,37.79-3.52,52.81,52.81,0,0,1,27.67,11.81,19.63,19.63,0,0,1,4.82,5.33c4,7.36,8.61,14.54,10.09,22.9,2.2,12.54,2.17,24.87-4,36.68a52.06,52.06,0,0,1-17.19,19c-9,6.23-18.85,7.89-29.1,9a109.56,109.56,0,0,1-11.6.37c-3.12,0-3.64-.52-4-3.56a23.9,23.9,0,0,1-.23-5.79c1.22-9.83-1.36-19.18-3.3-28.62a115.08,115.08,0,0,1-2.14-13.3A57.11,57.11,0,0,0,676,570c-1-2.53-2.13-5.15-2.34-7.81-.42-5.16-3-8.76-7-11.53-2.65-1.82-5.53-3.29-8.28-5A27.29,27.29,0,0,1,655.7,543.55Z"/><path class="cls-1" d="M691.41,903a49.57,49.57,0,0,1-4.82,2.81c-17.38,7.31-34.69,14.8-52.19,21.81-33.19,13.32-66.48,26.38-99.75,39.52-5.25,2.08-10.53,4-15.82,6a27.53,27.53,0,0,1-4,.81,30.27,30.27,0,0,1,.48-4.45c3-11.37,6.22-22.69,9.09-34.1,1.88-7.49,3.36-15.09,4.85-22.68.44-2.26,1.16-3.57,3.72-3.26,17.39,2.2,34.44-.63,51.4-3.87,11.86-2.26,23.68-4.88,35.36-8a72.14,72.14,0,0,0,32.48-18.32c3.56-3.47,3.64-3.37,7.55-.42,8.48,6.41,17.07,12.69,25.59,19.07C687.17,899.25,688.8,900.79,691.41,903Z"/><path class="cls-1" d="M261,877.55c-.67,2.71-3.91,3.87-2,6.24,1.24,1.54,3.19,2.5,5.15,4C263,889,262,890,261.1,891c-3,3.31-2.6,6.44,1.21,8.74,3.19,1.91,5.28,4.23,6.07,8.13.55,2.72,2.35,5.28,3.93,7.68,8.07,12.25,16.08,24.54,24.46,36.57,3.67,5.26,8.16,10,12.3,14.88.83,1,1.82,1.84,2.62,2.85,2.23,2.8,2.29,3.52.41,6.45a54.57,54.57,0,0,1-15.36,15.88c-11.88,8-24.84,13.23-39.35,13-6.38-.12-12.75-1.61-19.08-2.7a6,6,0,0,1-4.62-4.53,24.85,24.85,0,0,1-1-6.17c-.34-21.07,1.58-41.94,7.64-62.16,2.72-9.06,7-17.67,10.6-26.44a16.15,16.15,0,0,1,2.46-3.56c3.41-4.29,3.68-8.63,1.23-13.42-1.81-3.53-1.11-7.47-.87-11.21.11-1.73,2.25-2.36,3.82-1.17A25,25,0,0,1,261,877.55Z"/><path class="cls-1" d="M436.28,818.64a18,18,0,0,1-2.72-.79c-10.82-5.23-22.31-5.75-34-5.14-4.75.24-9.54-.2-15-.35,2.9-27.61,5.75-54.71,8.64-82.24,3.82.69,7.08,1.39,10.37,1.87,11.08,1.62,22.13,1.87,33.13-.79,4.58-1.11,5.77,0,5.38,5-1.08,13.82-2.18,27.63-3.4,41.43-1.13,12.84-3.07,25.62-2,38.57A13.22,13.22,0,0,1,436.28,818.64Z"/><path class="cls-1" d="M483.13,994.29c.25,1.25.59,1.92.45,2.45q-15.51,57.6-31.13,115.16c-.14.54-.75.95-1.53,1.88a22.53,22.53,0,0,1-2-3.34c-2.75-6.88-5.36-13.81-8.13-20.69q-13.16-32.73-26.4-65.43c-.3-.75-.68-1.46-1-2.22-.83-2.22-.13-3.78,2.12-4.56,2.58-.9,5.2-1.72,7.78-2.62l55.2-19.2C479.84,995.25,481.21,994.88,483.13,994.29Z"/><path class="cls-1" d="M373.76,851.07V839.51a11.56,11.56,0,0,1,.06-1.44c.71-5.82,8.9-15.12,14.72-15.52a125.3,125.3,0,0,1,23.56.12c4.91.6,9.53,3.63,14.28,5.6.74.31,1.39.87,2.14,1.11,6.28,1.92,8.16,6.76,8.43,12.64.72,16-4.27,29.78-16.1,40.78-13.18,12.27-32.84,9.58-42.45-5.66a28.74,28.74,0,0,1-4.84-16.41c.1-3.22,0-6.44,0-9.66Z"/><path class="cls-1" d="M595.4,254.86c-1.55-1.56-2.59-2.73-3.74-3.76-5.42-4.81-10.78-9.67-16.33-14.33a13.22,13.22,0,0,0-11.79-2.84c-4.66,1-8.59-1-12.1-3.71-2.8-2.13-5.21-4.79-7.87-7.14a70.47,70.47,0,0,0-7.42-6.16c-5.72-3.76-11-3.09-15.73,1.71a22,22,0,0,0-2,3c-1.78-1.78-3-2.89-4.11-4.14-2.82-3.3-5.29-7-8.42-9.93-2.71-2.56-3-5-1.65-8.15q4.77-11.1,9.36-22.28c3.85-9.39,7.63-18.81,11.44-28.22.58-1.43,1.23-2.84,1.76-4.08,2.91-.07,3.31,2,4.21,3.38,8.87,13.85,17.57,27.8,26.53,41.59,12,18.51,24.26,36.9,36.41,55.34C595.73,247.81,597.53,250.49,595.4,254.86Z"/><path class="cls-1" d="M278.68,803.83c1.49.68,2.8,1.21,4,1.86,9.13,4.75,18.26,9.48,27.34,14.32,2.68,1.42,5.13,3.26,7.8,4.7a102,102,0,0,0,9.92,4.83c4.4,1.78,5.41,3.28,3.3,7.64-3.7,7.67-7.57,15.27-11.74,22.68-5.75,10.24-11.87,20.26-17.78,30.41-2.47,4.23-3.64,4.47-7.45,1.58-6.41-4.86-12.87-9.62-19.32-14.42-2-1.5-2.11-2.14-.52-4.31q8.43-11.42,16.84-22.86c2.06-2.8,1.63-5-1.64-6.64-4.59-2.32-9.3-4.38-14-6.52-.73-.34-1.51-.56-2.24-.92-4.83-2.29-5.23-4.26-1.79-8.44a27.17,27.17,0,0,0,6.35-20.62,8.53,8.53,0,0,1,0-1.89C277.89,804.93,278.15,804.64,278.68,803.83Z"/><path class="cls-1" d="M228.74,845.39c-9-.23-14.47-4.87-19.12-10.62-5.72-7.06-7.85-15-4.93-23.95,1.08-3.34,1.29-7,2.57-10.24,3.88-9.92,13.13-15,23.56-13.23a69.11,69.11,0,0,1,32.45,15.19c8,6.56,7.85,18,0,24.85a74.49,74.49,0,0,0-7.14,6.49C248.51,842.38,238.24,844,228.74,845.39Z"/><path class="cls-1" d="M771.11,868.64c-4.8,2.3-8.62,4.28-12.55,6-9.87,4.33-19.88,8.38-29.67,12.9-4.6,2.11-8.09,1.92-12.29-1.34-15.37-12-31.13-23.41-46.62-35.21-6.55-5-9.27-10.7-9.83-19,1.53-1.79,3.27-.64,4.86-.19q12.32,3.51,24.6,7.11c15,4.4,30.12,8.34,44.88,13.39,11.39,3.9,22.31,9.19,33.42,13.93C768.73,866.55,769.38,867.3,771.11,868.64Z"/><path class="cls-1" d="M874.26,557.18c.13,6.25-2,11.61-4.67,16.8a5.75,5.75,0,0,1-1.1,1.58c-6.89,6-13.28,12.71-22.78,14.61-9,1.81-22.69-3.9-27.64-11.57a18.47,18.47,0,0,1-3-12,71.08,71.08,0,0,1,12.58-35c2.28-3.22,4.82-4.18,8.67-3.14,9.85,2.69,19.35,6.12,27.63,12.25a56.35,56.35,0,0,1,7.44,6.79A12,12,0,0,1,874.26,557.18Z"/><path class="cls-1" d="M212.45,882.23c-4.81,6.28-7.63,13.61-13.56,18.87-4.27-1.74-7.24-4.75-10.15-7.66-7.31-7.27-14.35-14.82-21.63-22.11-3.07-3.07-6.5-5.78-9.76-8.66-3.71-3.25-3.83-5-2.24-9.71,2.7-7.92,8.74-13.47,13.82-19.58,5.42-6.55,11.76-12.33,17.69-18.46,2.56-2.65,5-5.38,7.68-8a28.21,28.21,0,0,1,3.9-2.61,20.7,20.7,0,0,1,0,3.15c-.31,1.74-.7,3.47-1.09,5.2-2.5,10.9.93,20.35,7.18,29,3.08,4.27,3.15,4.15.41,8.34-2.37,3.63-4.62,7.35-7,11-1.56,2.46-.85,4.8.79,6.68,3.38,3.87,7,7.53,10.56,11.25C210.07,880,211.14,881,212.45,882.23Z"/><path class="cls-1" d="M758.14,555.46c20.37-2.57,38.71-10.63,56.86-19.28l.78,1.14c-1,2.61-2,5.24-3.15,7.83a66.14,66.14,0,0,0-5.77,27.22,25.68,25.68,0,0,0,4.88,15.34c.56.78,1,1.61,1.86,2.94a17.63,17.63,0,0,1-3.76,2q-14.07,3.45-28.2,6.7-8.94,2.07-17.92,4c-1.48.3-3,.33-5.47.59,2.56-8.54,4.46-16.4,3.58-24.46C761,571.71,759.49,564,758.14,555.46Z"/><path class="cls-1" d="M500.61,811.93c-3.56,2-50.3,8.42-57.22,7.75a30,30,0,0,1-.27-4.45c1.17-13,2.49-26,3.58-39,.73-9,1.13-18,1.73-27,.11-1.67.44-3.35.63-4.79a9,9,0,0,1,1.05-.27.61.61,0,0,1,.45.09c.86.94,1.75,1.85,2.52,2.85,16.11,20.9,32.61,41.49,47.32,63.49A3.6,3.6,0,0,1,500.61,811.93Z"/><path class="cls-1" d="M864.05,590.58c14-11.38,19.52-26,19.58-43.81,7.52,2.62,14.07,5.16,20.78,7.16s13.58,3.51,20.88,5.37c-.94,1.1-1.24,1.72-1.73,2-6.67,3.44-10.34,9.94-15.35,15.06-5.15,5.28-7.42,11.92-8,19.19-.4,4.91-1,5.33-5.61,4-8.53-2.38-17.06-4.72-25.59-7.12C867.51,592,866.1,591.36,864.05,590.58Z"/><path class="cls-1" d="M1016.78,581.5a6.13,6.13,0,0,1-3.26,5.55,133.1,133.1,0,0,1-38.6,13.4c-2.51.49-4.43-.09-5.43-2.7-2.76-7.21-5.64-14.38-8.32-21.62-.94-2.55-.21-3.84,2.68-4.59,5.75-1.52,11.57-2.79,17.38-4.08,6.9-1.52,13.84-2.88,20.74-4.45a46.1,46.1,0,0,0,5.4-2c1.53-.56,2.9-.33,3.69,1.28A58,58,0,0,1,1016.78,581.5Z"/><path class="cls-1" d="M511.82,455.45a11.91,11.91,0,0,1,.54-3c4.75-9.49,9.79-18.82,16.51-27.1a67.66,67.66,0,0,1,15.71-14.15,25.84,25.84,0,0,1,6.54-3c5.67-1.68,7.93-.06,8.14,5.74a30.32,30.32,0,0,1-.62,7.18,75.5,75.5,0,0,1-2.75,9.73c-3.81,10.59-8.16,21-14.15,30.56-2.84,4.57-2.86,4.54-7.35,1.94a54.54,54.54,0,0,0-7.15-4c-3.7-1.41-7.6-2.36-11.45-3.4A31.21,31.21,0,0,0,511.82,455.45Z"/><path class="cls-1" d="M331.62,853.73a30.46,30.46,0,0,1,1-3.3c2.53-6,5.15-12.1,7.68-18.17,1.66-4,1.4-4.9-2.5-6.78-5.95-2.87-12.1-5.36-17.95-8.38-7.39-3.81-14.58-8-21.85-12.05l.37-1.07a14.1,14.1,0,0,1,2.81.47c13.73,5.12,27.44,10.31,41.18,15.42,5.13,1.9,10.29,3.73,15.49,5.43,8.09,2.65,11.45,8.65,9.9,17.13-.93,5.05-1.26,10.22-1.82,15.34-.14,1.27,0,2.58-.14,3.85-.31,3.86-1.08,4.39-5,3.37a30.4,30.4,0,0,1-3.67-1.23C348.77,860.49,340.4,857.19,331.62,853.73Z"/><path class="cls-1" d="M232.83,853.64l-3.54,7.4a6.33,6.33,0,0,0,1.06,7.57c3.63,4.09,7.1,8.32,10.85,12.29,4.48,4.74,5.1,6.9,2.2,12.83-1.82,3.75-4.1,7.27-6.17,10.89a3.4,3.4,0,0,1-4.46,1.78,3.1,3.1,0,0,1-.47-.26c-5.87-3-11.72-6-17.49-9.18-2-1.07-2-3-.76-4.57,2.81-3.71,3.65-8.08,4.8-12.43.66-2.53.28-4.38-1.66-6-4-3.29-7.88-6.6-11.84-9.89-.62-.51-1.35-.89-2.52-1.66,3.16-4.2,5.82-7.95,8.75-11.49a4.34,4.34,0,0,1,3.41-1.21c5.68.91,11.32,2.08,17,3.18C232.1,852.93,232.2,853.1,232.83,853.64Z"/><path class="cls-1" d="M484.56,500.33c-.75-5.2-1.85-10.38-2.18-15.6-1-15.92-2.08-31.86-.56-47.81a38.27,38.27,0,0,1,1.71-8c1.12-3.57,3.53-4.94,7-3.93a21.53,21.53,0,0,1,6.51,3c4.26,3,9,5.46,11.71,10.47,1.38,2.6,1.58,4.65.16,7.18-4.33,7.72-8.45,15.56-12.74,23.3a86.47,86.47,0,0,0-9,26.39c-.32,1.67-.67,3.34-1,5Z"/><path class="cls-1" d="M1018.51,593.32c.92,3,1.62,5.82,2.63,8.49a74,74,0,0,0,3.24,7c2.28,4.68,2.16,5.29-2.41,7.35-8.06,3.66-16.18,7.22-24.27,10.82l-10.6,4.66c-3.82,1.67-5.43,1.19-7.37-2.58-1.61-3.15-3.08-6.39-4.45-9.66s-1.18-3.76,2.05-5.76a169.62,169.62,0,0,1,27-13.9c3.73-1.47,7.2-3.58,10.82-5.33A29.28,29.28,0,0,1,1018.51,593.32Z"/><path class="cls-1" d="M269.05,869.38c-4.2-4-7.91-6.88-13-6.33s-7.47,4.55-10.7,8.33l-10.06-8.74c1.56-3.56,2.84-6.84,4.45-9.95.51-1,1.83-1.65,2.9-2.23,4.66-2.49,9.51-4.65,14-7.41,2.63-1.63,4.87-2,7.66-.77,4.87,2.09,9.88,3.87,14.72,6,3.15,1.38,3.35,2.23,1.43,5.09-2.58,3.88-5.34,7.63-8.05,11.42C271.39,866.24,270.33,867.64,269.05,869.38Z"/><path class="cls-1" d="M942.85,620.64c-4.7-9.2-8.85-18.34-16.46-26l7.91-3.75c5.82-2.71,11.61-5.49,17.46-8.09,3.06-1.37,3.88-.82,4.73,2.43,1.53,5.9,3.07,11.79,4.68,17.67,1.54,5.59,1.07,6.75-4.07,9.66C952.51,615.11,948,617.73,942.85,620.64Z"/><path class="cls-1" d="M920,593.37l8.44,20.78c-1.81-.28-3-.13-3.79-.65-3.9-2.79-8.17-5.29-11.39-8.75-5.26-5.64-5.22-12.6-2.52-19.46s7.86-11.87,14-15.49c2.63-1.56,6.63-1.78,9.79-1.26,4.07.65,3,5.09,4,8,.65,2,.43,3.73-1.9,4.78a90.22,90.22,0,0,0-8.63,4.32C924.52,587.64,920.88,589.58,920,593.37Z"/><path class="cls-1" d="M989.36,531.46c.91,1.94,1.66,3.35,2.24,4.81,1.74,4.42,1,6.16-3.39,7.69-4.7,1.62-9.42,3.29-14.23,4.48-8.26,2-16.59,3.83-24.92,5.57-4.85,1-6-.27-5.42-5.34.52-4.28,1.23-5,5.5-5.94,8.31-1.81,16.67-3.45,24.91-5.53,4-1,7.8-2.88,11.69-4.36Z"/><path class="cls-1" d="M919.45,40.73c.8-3.56,1.72-7.11,2.38-10.69,1.24-6.69,2.33-13.43,3.55-20.56,5,5.94,9.57,11.45,14.15,17a8.26,8.26,0,0,1,.61,1.94L920.61,41.64Z"/><path class="cls-1" d="M564.34,544.64a160.4,160.4,0,0,1,13.37-21.54l15.22,15.25c-1.42.65-2.48,1.53-3.59,1.59C581.15,540.56,573.59,544.92,564.34,544.64Z"/><path class="cls-1" d="M947.53,575.43c-.16-1.35-.31-2.43-.42-3.53-.74-7.08-.71-7,6.42-8.82,10.91-2.77,21.79-5.71,32.71-8.47,1.64-.41,4.29-2.09,4.75.79.36,2.28-2.57,1.87-4.15,2.12-8.6,1.41-17.25,2.74-24.9,7.24-2.25,1.34-4.65,3.28-5.72,5.53C954.38,574.19,951.38,574.93,947.53,575.43Z"/><path class="cls-1" d="M751.78,616.27c1.64-1.37,2.63-2.83,3.89-3.13,8.25-2,16.57-3.75,24.87-5.53.36-.09.8.26,1.34.45C776.58,610.73,755.77,616.64,751.78,616.27Z"/><path class="cls-1" d="M963.9,633.24c-1.84-.11-3.64.28-4.46-2-1.1-3.09-.55-4.32,2.66-5.14,4.72-1.22,5.67-.86,6.79,2.51,1,3.12.47,4-2.75,4.46C965.35,633.18,964.55,633.18,963.9,633.24Z"/><path class="cls-1" d="M277,901l2.71,8.41c-3.17-1.37-4.9-3-5.21-5.71C274.42,903.1,275.73,902.33,277,901Z"/><path class="cls-1" d="M273,891.1c1.48.64,1.9,1.91,1.07,3.1-1.44,2.08-3.6,1.53-5.79,1.25C269.87,892.82,269.87,892.82,273,891.1Z"/><path class="cls-1" d="M547.19,464.64a20.52,20.52,0,0,1-.35,4c-.2.71-1.2,1.16-1.84,1.73-.57-.83-1.8-1.95-1.59-2.43a19.47,19.47,0,0,1,2.8-3.84Z"/><path class="cls-1" d="M532.14,402.48c-.29,2.65-1.4,3.64-3.28,3-.61-.21-1.44-1.65-1.24-2.16C528.56,401,530.28,401.9,532.14,402.48Z"/><path class="cls-1" d="M473.42,380.55c-.85-1.53-1.52-2.34-1.69-3.25-.08-.37,1.16-1.44,1.45-1.32.75.29,1.68,1,1.81,1.7S474.27,379.1,473.42,380.55Z"/><path class="cls-1" d="M960.51,618.17l3.81-2.53C964.61,619.18,964.61,619.18,960.51,618.17Z"/><path d="M772.86,831.64l2.3,4.68C772.47,834.64,772.47,834.64,772.86,831.64Z"/><path d="M1108.44,651.8c-.6-1.35-.41-2.44,1.88-3.74-.33,1.82-.53,2.88-.72,3.94Z"/><path d="M768.68,837.05a4.83,4.83,0,0,1-.54.72,7.28,7.28,0,0,1-1.1-.69l.66-.89Z"/><path d="M98.06,979.29c3.38.82,6.5,1.93,6.31,6.54Z"/><path d="M107.45,976.16q.55,3,1.09,6.09l-1,.23a6.82,6.82,0,0,1-1.46-6.1Z"/></svg>