<svg xmlns="http://www.w3.org/2000/svg" viewBox="0 0 1200 1552.9">
  <defs/>
  <defs>
    <style>
      .cls-1{fill:#fff}
    </style>
  </defs>
  <g id="Layer_2" data-name="Layer 2">
    <g id="Layer_1-2" data-name="Layer 1">
      <path d="M0 544.6V0h969.6c-1 .6-1.8 1.2-2.8 1.6a196.7 196.7 0 00-111.7 166.2 193 193 0 0011.3 78.6l2 5.4-12.6 3.3-16.4-28-4.3 15.2-11.7 2-9-12.6-1 3.6c-1.5 8.1-3.2 16.3-4.5 24.5-.5 2.7-1.8 3.4-4.3 3.9a38.5 38.5 0 01-16.8-.8 42.4 42.4 0 01-31.7-32l-5.8-23.7c-.3-1.2-.8-2.4-1.6-4.6l-3 8q-11.9 30.8-44.3 37c-7.5 1.4-14.9 3.1-23.4 5l4.6 1.4c7 1.7 14 3.5 21 5a20.4 20.4 0 0114.6 10.7c2.3 4.2 5 8.2 7.8 12.5l8.4-5.8a22 22 0 0126.7 1.7 89 89 0 015.6 5A21.2 21.2 0 01773 296l2.7 22.4.8 3.5 2.3-3.2c3.1-4.7 6.1-9.5 9.4-14.1a21.4 21.4 0 0132.7-3.8 94.7 94.7 0 018.7 9.2c3.8 4.4 7.3 9 11 13.5l4.5-1c2-5.7 3.7-11.4 5.9-17a86.3 86.3 0 015.6-11.8 20.9 20.9 0 0121.5-10.3 14.1 14.1 0 0110.4 6.4c4.1 6.3 9 12 13.5 18l2.7 3.6c-3.6.7-6.8-.4-10.7.7l22 11.7c6.7 3.7 12.1 8.6 14 16.7 1 4.5 2.7 8.8 4.2 13.5l12.8-4.2a7.6 7.6 0 016.7.8c5 2.8 10.2 5.3 15.4 8a9 9 0 013 2c4.5 5.8 7.9 12.1 7 19.8-.6 4.5-1.3 9-1.7 13.5-.4 4.4-1.8 8.7-1.2 13.8l4.3-3.7c4-3.5 7.8-7.2 11.9-10.7a22.8 22.8 0 0134.1 4.3 87.8 87.8 0 016.6 11.4c2.8 5.9 5.4 12 8 17.8l4.6.3c3.4-5.2 6.7-10.5 10.4-15.6a114 114 0 018.5-10.6 22.7 22.7 0 0134.3.9c4 4.6 7.7 9.6 11.5 14.3a38.7 38.7 0 003 3c.3-9 .6-17.2.7-25.4a23.9 23.9 0 014.4-14 73.7 73.7 0 016.5-7.5c7.9-8 19-9.7 29-4.4l8.9 5c2.5-5 5.1-9.5 7.3-14.4a20.9 20.9 0 0114-12c5-1.5 9.8-3.3 14.7-5V336c-7.5-1.7-15-1.3-22.7-3.5l3.5-3.3 16.3-15.6a10 10 0 003.3-7.9v-53.6l-.3-4-1-.3a161.2 161.2 0 01-22.8 35.7 154.8 154.8 0 01-31.5 28.7c-5.6-5.9-8-13.4-12.4-20.9l-1 5.8c-1.2 7.4-2.5 14.8-3.5 22.2a6 6 0 01-3.8 5.3 163 163 0 01-38 13c-5.4 1.2-10.8 1.8-16.3 2.6l-3.7-12-2.2 3.3c-2.3 3-2.6 8.1-6.6 9.1-3.7 1-7.8.1-11.7 0l-.6-.2c-2.3-4.3-3-9.5-6-14.2l-6.5 13.4a20.3 20.3 0 01-2.7 0 202.8 202.8 0 01-41-11.5c-6.5-2.4-8.6-6.5-8.9-12.6l-.2-7.5.2-24v-4c-4.7 4.7-8.3 9.7-12.4 14.4a47.5 47.5 0 01-15.5 11.4 161 161 0 01-44-54.7c5.1-7.6 15.4-10 23.3-7.9l9.2 2.4c1-4.8 2.3-9 3-13.3a21.3 21.3 0 0111.5-16.7c2-1 4-2.5 6-3.8l7.9-5 2.9 6.5 5.4-2c4.9-1.5 9.7-1.4 13.7 2.1 5.1 4.6 8.5 10 7.3 17.4-.7 4-.7 8-1.1 13.2 3.7-3.5 6.4-6.3 9.3-8.9 6.5-5.7 15-4.8 20.2 2a57.3 57.3 0 014.4 7.2c1.4 2.6 2.5 5.4 4 8 1.2 2.1 2.4 2.1 3.9.1.6-.9 1-1.9 1.7-2.8 2.6-3.9 5-8 8-11.6a13.1 13.1 0 0119.9-.5c1.9 1.9 3.5 4 5.3 6l3.5 3.6c0-4.7.2-8.5 0-12.2-.4-6 1.8-11 6-15.2 4.7-4.7 10.7-5.9 16.8-3.1l5.2 2.6 4.3-9.1a11.2 11.2 0 016.7-6.3l11.3-4.4a34 34 0 003.2-1.7c-4.8-.4-8.7-.8-12.6-1A35 35 0 011087 178l-2.1-3.8a11.6 11.6 0 00-1.5 4.8c-.9 5.7-1.2 11.6-2.8 17a25.2 25.2 0 01-28.5 17.8l-5.9-17.8-4.5 7.9h-7.4l-3.9-8.6-7.5 17.3a25.6 25.6 0 01-27-21.1c-1-5.7-.7-11.6-1-17.3 0-1.4-.2-2.7-.4-5l-3.7 5.5a32.8 32.8 0 01-19.6 13.7 73.7 73.7 0 01-12.5 1.4c-3.5.2-7 0-10.5 0a9 9 0 003.5 2.8c3.4 1.6 6.8 3.2 10.1 5 2 1 4.2 2.2 4 5.2l-16 2.2a58.5 58.5 0 01-19.7-.4 55.5 55.5 0 01-32.1-19l-5.8-6.6-.9.3 3 32c-13.5-54 6.7-132.5 78.9-173 35.7-20.1 74-25.7 114-16.6 51.2 11.8 87.8 42.6 111.7 90.2a25.7 25.7 0 00.5-3V52a8.1 8.1 0 00-2.5-5.8 199 199 0 00-59.2-44l-3.5-2.2h65.8v1553H0V663.1c.6 1.3 1.6 2.5 1.9 4l11.6 65.6 17.5 98L50 939.5l2 9.8 103-17.8 60 351.9 49.1-8.3 6 34.6 32.8-5.4c.4 6.7 4.4 12.3 3 19.1l-51.6 8.7-51.4 8.8c-17 3-34 5.6-51.2 9 4.5 26.4 8.6 52.2 13.3 78 6.5 35.8 12.7 74.2 12 77.2l-43-43.7c-8 30.7-15.7 60.5-23.3 90.5a11 11 0 002 .5h937.6a12.8 12.8 0 001.9-.2.8.8 0 00.4-.2 1.2 1.2 0 00.2-.4c-2.7-8.3-25.1-57.5-27.5-60-5.4 4-10.7 8.2-16.2 11.9-11.4 7.6-22.8 15-34.3 22.3a25.2 25.2 0 01-9.2 3.7c-3-10.3-3.9-20.5-4.7-30.8l-2.6-31.4-14.6 9.6-14.4 9.7c-4.6 3-9 6.2-14.6 9.4l10.7-80.9-.9-.5-46 38.3v-8.6-517.8a193.5 193.5 0 00-3.4-36.5c-10-52.5-36-95.8-77-129.9A314.9 314.9 0 00696 704a319.1 319.1 0 00-82.7-15.9c-12.6-.7-25.3-.2-38-.3l-3.7-.2-.8-3-28-132.8a8.5 8.5 0 00-4.3-6.2c-12.5-7.5-24.8-15.3-37.3-22.8a9.3 9.3 0 01-4.6-6.5 2987 2987 0 00-7.6-33.5l-1-3.3-4.6 1.7c-8.6 3.8-17.2 7.4-25.7 11.4-3 1.3-5 1.5-7.5-1-3.4-3-7.4-5.6-11.2-8.4-1.4-1.1-3-2.1-4.5-3.1l16.3-66.4-.8-.6-75.6 50c-6-5.1-11.9-10-17.6-15.1a6.4 6.4 0 00-6.8-1.6c-6.6 1.9-13.2 3.6-19.9 5.4-17.6 4.8-35.5 8.9-52.9 14.5-66.8 21.4-133.5 43.3-200.3 65-5.7 1.8-11.5 4-17.5 5-13.8 2.5-27.8 4.5-41.7 6.5-5.9.8-11.8 1.3-17.7 2zm623.4-152l-1-.3-8.3 14a72 72 0 01-63.1 36.8l-35.3 1.1a30 30 0 00-3.5.7l4.7 2.2c11.7 5 23.3 10.1 35 15a22 22 0 0112.7 13c2 5.2 4.3 10.4 6.4 15.6l2.8 6.2 13.4-6.1c9.6-4.2 19-3.6 27.1 2.8 10.7 8.4 18.2 18.9 16.7 33.7-.9 9-1.2 18.2-1.7 27.2v7.3l3.9-3.8 18-19.2a27.3 27.3 0 0141.8 2.6c6 8 10.3 16.7 15.3 25.3l4.5 8c1.7-.5 3-1.3 4.3-1.3s2.5.9 3.9 1.4c3.4-6.3 6.6-12.4 10.1-18.3 3-5.1 6.3-10.1 9.7-15a27 27 0 0142.4-2.2c6 6.7 12.1 13.2 18.2 19.7l2.7 2.4.5-1.2-1.9-35.7a26 26 0 013.8-16.2 76.6 76.6 0 019.6-12.1 25 25 0 0124.5-7.2c4.8 1.2 9.3 3.5 13.9 5.4l5.5 2.4c3.1-7.5 6.1-14.3 8.8-21.3a22.9 22.9 0 0113.4-13.6c11.7-4.9 23.3-10 34.9-15l3.5-1.8a12.7 12.7 0 00-5-1c-13.7-.6-27.4-.7-41-1.8a66.3 66.3 0 01-47.1-25c-5.2-6.4-9.2-13.8-13.7-20.8l-2.6-4a14 14 0 00-1.4 5.4c-1 12.8-1.7 25.6-2.9 38.4a53.3 53.3 0 01-30.5 44.8 48 48 0 01-27 5.3c-5.3-13.7-10-27.5-15.8-41.8l-10.2 21.9-4.8-1.2-1.6 2.4-2-2.6-4.7 1.3-10.2-22-15.7 42a50.3 50.3 0 01-30.8-7.3 55.3 55.3 0 01-27.3-47c-.8-13.3-2-26.4-2.9-39.5z" class="cls-1"/>
      <path d="M0 607.7v-44.2a24.4 24.4 0 012.7-.8l47.4-6.9c6.1-1 12.5-1.5 18.4-3.4 49.3-15.7 98.4-32 147.7-47.8 29-9.3 57.7-19.6 87.2-27.4q21.1-5.5 42.1-11.3c2.7-.7 4.7-.4 6.8 1.6 3 3 6.4 5.6 9.6 8.3l11.1 9.4 48.7-32 .9.6-20.2 82.3 73.2-32c2 8.2 3.8 16 5.4 23.8a8.2 8.2 0 004.1 5.7l37.3 22.9a9 9 0 014.6 6.5c7.9 37.9 16 75.7 24 113.5l2.5 13A324.1 324.1 0 00398.3 751c3.7 3 7 6 10.3 8.8s6.8 5.5 10 8.5 7 5 9.6 8.8c-14.6 4.8-43.4 12-47.1 11.6l-7.8-14-7.8 4.3 6.8 13-30 7.9-9-52.7-9 1.7 9 53.4-25.2 6.6-3.8-21-8.8 1.6 3.5 21.9-33.8 9-16.2-42-8.4 3.5 15.6 41-43.2 11.6-13.3-30-8.2 3.8L204 837l-32.7 9-9-51.9-8.9 1.5 9 52.9-35 9.8-11.9-22-7.9 4.3 10.7 20.3-14.2 4.3 2.5 8.6 16.2-4.5 11.2 20.8 7.9-4.3c-3.2-6.7-7-12.6-9.8-19.2l31.8-9 7.3 42.7 8.9-1.7-7.3-43.5 34.9-9.6 13 29.4 4.4-1.8 3.8-2c-4-9.5-8-18.6-12.2-28.1l42.8-11.7 13.3 34.6 8.5-3.2-12.8-33.7c11-2.8 21.4-6.2 32.2-8.3l3.7 21.1 8.8-1.6-3.5-22.2 25.1-6.6 4.4 24.5 8.8-1.6L344 809l32.8-8.7 15 28 8-4.3L386 798l51.7-13.7 3.5 20.8h-22l-2.7 49.8-35-3.7c-11.6-1.3-22.7-3-34.7-3.7l12.7 30.3c-49.1 8.7-97.8 16.7-146.4 25.2L66.7 928.8a22.7 22.7 0 01-.7-2.4L52.6 851l-14.5-81.8-15.6-88c-1.4-8-2.3-16.1-4.7-23.8-4.7-15.6-10.4-30.9-15.7-46.3a18.5 18.5 0 00-2.1-3.4zm357-34c-3.6 3-7.2 5.4-10.3 8.4a64.6 64.6 0 00-15 23 80.7 80.7 0 00-5.3 49.7 66 66 0 0079.1 49 85.4 85.4 0 0045.3-28.7c5.3-6.1 9.3-13 11.3-20.9a29 29 0 00-7.3-28.7l-9.3-9.3c-2-2-3.9-4.2-6.5-7l31 13.5 3.5-8.4c-39.6-17-78.6-34.6-118.2-51.5l-3.6 8zM64.8 697.4l1.7 5.2A66.2 66.2 0 00194.8 670c-3-13.5-9.6-25-18.2-35.6-6.7-8-14.3-15-23.7-19.6-6-3-12.3-4.8-19-4.1-2.8.2-5.5 1-8.9 1.7l18.6-26.4-7.5-5.2-86.7 122.3 7.5 5.1zm392.8-25.5l-.7.4-1.5 2.9a72.3 72.3 0 01-22.9 28.2 69.9 69.9 0 01-42 14.3c-14.6 0-27.6-5-38.8-14.3-4.2-3.5-8-7.5-12-11.4-.9.5-1.8 1.1-2.6 1.8-.2.1-.2.5-.4 1.4 17.8 20.2 39.4 31.1 67.2 25.5a75.8 75.8 0 0056.5-45.7 10.9 10.9 0 00.4-2zM196.3 716l-1.4 3.1-1 2.6c-10.8 23.4-28.7 37.3-54.7 39.1a70.9 70.9 0 01-51.4-16.7c-3-2.5-5.7-5.2-8.9-8.1l-3 2.6a22.3 22.3 0 001.4 1.9c21.2 21.4 46.4 29.7 75.8 22.5 23.9-5.8 38.5-22.2 47-44.7.1-.2 0-.6-.1-1.1z" class="cls-1"/>
      <path d="M0 607.7a18.5 18.5 0 012.1 3.4c5.3 15.4 11 30.7 15.7 46.3 2.4 7.7 3.3 15.9 4.7 23.9l15.6 87.9L52.6 851 66 926.4a22.7 22.7 0 00.8 2.4L213 903c48.6-8.5 97.3-16.5 146.4-25.2l-12.7-30.4c12.1.8 23.4 2.4 34.8 3.7l35 3.8 2.8-49.8h21.9l-3.5-20.8-51.8 13.7 13.8 26-8 4.4-15-28L344 809l4.1 25.3-8.8 1.7-4.4-24.5-25.2 6.6 3.6 22.2-8.8 1.7-3.7-21.1c-10.8 2-21.1 5.4-32.2 8.2l12.8 33.8-8.5 3.1-13.3-34.5-42.8 11.6 12.2 28.1-3.8 2-4.4 1.9-13-29.5-34.9 9.6 7.3 43.5-8.9 1.7-7.3-42.6-31.8 9c2.8 6.6 6.6 12.4 9.8 19.1l-7.9 4.3-11.2-20.7-16.2 4.4-2.5-8.5 14.2-4.4-10.7-20.2 8-4.3 11.9 22 34.8-9.8-8.9-52.9 9-1.5 8.9 51.9 32.7-9-12.5-28.7 8.2-3.8 13.3 30 43.2-11.7-15.6-41 8.4-3.4 16.2 42 33.8-9-3.5-21.9 8.8-1.5 3.8 21 25.2-6.8-9-53.3 9-1.7 9 52.7 30-7.9-6.8-13 7.8-4.3 7.8 14.1c3.6.3 32.5-6.8 47-11.7-2.6-3.7-6.4-5.9-9.5-8.8s-6.7-5.7-10-8.5l-10.3-8.8c46.4-34.3 98-54.3 155.2-61.6l-2.6-13-24-113.4a9 9 0 00-4.5-6.5c-12.5-7.6-24.8-15.4-37.3-22.9a8.2 8.2 0 01-4.1-5.8l-5.4-23.8-73.2 31.9 20.1-82.3-.8-.7-48.7 32.1-11-9.4c-3.3-2.7-6.6-5.3-9.6-8.3-2.1-2-4.1-2.3-6.8-1.6q-21 5.8-42.1 11.3c-29.6 7.8-58.3 18.1-87.3 27.4-49.3 15.8-98.4 32-147.7 47.8-5.9 2-12.2 2.5-18.4 3.4l-47.3 7a24.4 24.4 0 00-2.8.7v-18.9c6-.6 11.8-1.1 17.7-2 14-2 27.9-4 41.7-6.4 6-1 11.8-3.2 17.6-5 66.7-21.7 133.4-43.6 200.2-65 17.4-5.6 35.3-9.8 53-14.6 6.6-1.8 13.2-3.4 19.8-5.4a6.4 6.4 0 016.8 1.6c5.7 5.2 11.6 10 17.6 15.2l75.6-50 .8.6-16.2 66.3c1.4 1 3 2 4.4 3.2 3.8 2.8 7.8 5.3 11.3 8.5 2.5 2.3 4.5 2.2 7.4.9 8.5-4 17.2-7.6 25.8-11.4l4.5-1.7 1 3.3c2.6 11.2 5.2 22.3 7.6 33.5a9.3 9.3 0 004.7 6.5c12.5 7.5 24.8 15.3 37.2 22.8a8.5 8.5 0 014.3 6.2l28 132.8.8 3 3.7.3c12.7 0 25.4-.5 38 .3a319.1 319.1 0 0182.7 15.8c37.5 12.5 71.8 31 102.3 56.3 41 34.1 66.9 77.4 77 130a193.5 193.5 0 013.3 36.4V1453l46-38.3 1 .5c-3.6 26.6-7 53.3-10.8 80.9 5.5-3.1 10-6.4 14.6-9.4l14.4-9.7 14.6-9.6 2.6 31.4c.9 10.3 1.8 20.5 4.7 30.8a25.2 25.2 0 009.2-3.7c11.5-7.4 23-14.7 34.3-22.3 5.6-3.7 10.8-8 16.2-12 2.4 2.6 24.8 51.8 27.4 60a1.2 1.2 0 01-.1.5.8.8 0 01-.4.2 12.8 12.8 0 01-1.9.2H112.8a11 11 0 01-2-.5c7.6-30 15.4-59.8 23.3-90.5l43 43.7c.7-3-5.5-41.4-12-77.3-4.7-25.7-8.8-51.5-13.3-78 17.2-3.4 34.2-5.9 51.2-8.9l51.3-8.8 51.7-8.7c1.3-6.8-2.7-12.4-3-19.1l-32.8 5.4-6-34.6-49.2 8.2-59.8-351.9-103 17.9-2-9.9Q40.5 885.2 31 830.8l-17.4-98-11.7-65.7c-.3-1.4-1.3-2.6-1.9-4zm869.3 936.2v-5l.2-83.2V926.6a186.7 186.7 0 00-3.6-37 206.7 206.7 0 00-73.5-122.3c-57.5-47-124-69.9-198.1-70.9a308 308 0 00-64 6 312 312 0 00-112.6 46.2l-4.5 3.2 38.3 32.5c12.6 10.7 25.3 21.2 37.5 32.4-10.4 0-20.5-.9-30.6-1s-20.2-1.8-30.4-1c-1.6 17-1.5 33.7-3.2 50.4L361 858l8.4 20.3a6.2 6.2 0 01-.5 1.2c-12.6 15.3-25.2 30.7-38 46a10.7 10.7 0 01-4.6 2.8c-3.6 1.2-7.2 2-11.1 3.2v195.4a10 10 0 002.4 6.8c5.7 6.9 11.1 14 17 20.7 2 2.5 2.3 4.7 1.6 7.7l-20 81.2a31.5 31.5 0 00-1 7.4v293.5H613c3.7 0 5.8-1 7.7-4.4l48-83.5 3.3-5.4.9.2 8.6 51 57.7-49.1v52.4c0 5.5-.2 11 .2 17.3l73.5-47 14 68.3zm-563.5-294c.5-2.9.8-5.4 1.4-7.8l19-77.5a8.3 8.3 0 00-2-8.4c-5.2-6.2-10.1-12.7-15.4-19a10.3 10.3 0 01-2.5-7.2v-38.6-161.3c0-2 .2-4 .3-5.8 4.7-1.3 9-2.5 13.2-3.5a12.2 12.2 0 007.3-4.7c3.4-4.4 7.1-8.7 10.7-13l2.6-3.7-167 28.4c-.4 4 55 330.5 56.9 335zm-39.3 98.5c-10.3 1.7-20.3 3-30.2 5.3 3.3 19.3 6.4 38 9.7 56.6a29.8 29.8 0 002.9 9.3c11 19.6 22 39 33.2 58.4a33.1 33.1 0 002 2.9c3.3-3.6 4.6-7.1 3-11.5a28 28 0 01-.8-4.6l-13.5-80-6.3-36.4zM225.3 1484l.8-2.4 16.1-58.7a17 17 0 000-7c-2.3-14.2-4.8-28.3-7.2-42.5l-3.3-19-31 5.3c.3 2.5.5 4.5.9 6.5l10 58.2 8.7 52.3c.6 3 1.4 5.7 5 7.3zm45.7-136.4l20.4 120.2c3.7-4.4 6.2-9.1 9.3-13.4a28.9 28.9 0 005.7-20.6c-.6-6.2.2-12.6-.7-18.7-2.6-17.8-5.8-35.5-8.8-53.2l-3.2-18zm-98.4 16.7a12.6 12.6 0 000 1.8l13.6 79.6a8.6 8.6 0 002.5 4.3c8.2 8 16.5 15.8 24.9 23.6a8 8 0 001.8.9l-19.3-113.6c-.6-.2-.8-.4-1-.3zm112.2-75l15.2-2.6-3-17-15.1 2.5 3 17.2zm178.4-483l-13.8-11.6-.7.6 2 11zM1134.2 0c1.2.7 2.3 1.5 3.5 2a199 199 0 0159.3 44.2 8.1 8.1 0 012.5 5.8v56.9a25.7 25.7 0 01-.5 3c-24-47.5-60.6-78.3-111.9-90a155.4 155.4 0 00-114 16.5c-72.1 40.5-92.3 119-78.8 172.9l-2.9-32 .9-.2 5.8 6.5a55.5 55.5 0 0032 19 58.5 58.5 0 0019.7.5l16-2.3c.2-3-2-4.1-4-5.2-3.2-1.8-6.7-3.3-10-5a9 9 0 01-3.5-2.7c3.5 0 7 .2 10.5 0a73.7 73.7 0 0012.5-1.4c8.2-2 14.7-6.8 19.5-13.8l3.8-5.4.3 5c.4 5.7.1 11.6 1 17.2a25.6 25.6 0 0027 21.1l7.6-17.3 3.9 8.6h7.3l4.6-7.8 5.9 17.7c12 2.5 24.8-5.2 28.5-17.7 1.6-5.4 1.9-11.3 2.7-17a11.6 11.6 0 011.5-4.9l2.2 3.8a35 35 0 0030.2 18.6c3.9.2 7.7.7 12.5 1a34 34 0 01-3.1 1.8l-11.4 4.4a11.2 11.2 0 00-6.6 6.2l-4.4 9.1c-1.9-1-3.5-1.8-5.2-2.5-6-2.8-12.1-1.6-16.8 3.1-4.2 4.2-6.4 9-6 15.2.3 3.7 0 7.4 0 12.2l-3.5-3.6c-1.8-2-3.4-4.2-5.3-6a13.1 13.1 0 00-19.9.5c-3 3.5-5.3 7.7-8 11.6-.6.9-1 1.9-1.7 2.8-1.5 2-2.7 2-3.9-.2-1.5-2.6-2.6-5.3-4-8a57.3 57.3 0 00-4.4-7.1 13.3 13.3 0 00-20.2-2c-2.9 2.5-5.6 5.3-9.3 8.9.4-5.2.5-9.3 1.2-13.3 1.2-7.4-2.2-12.8-7.3-17.3-4-3.6-8.9-3.7-13.8-2.1l-5.4 2-2.9-6.6-8 5c-2 1.4-3.8 2.8-5.8 3.9a21.3 21.3 0 00-11.6 16.7c-.7 4.3-1.9 8.5-3 13.3l-9.1-2.4c-8-2.2-18.2.2-23.3 7.8a161 161 0 0044 54.7 47.5 47.5 0 0015.4-11.4c4.1-4.7 7.8-9.7 12.4-14.4v4l-.1 24c0 2.5 0 5 .2 7.5.2 6.1 2.4 10.2 8.8 12.7a202.8 202.8 0 0041 11.4 20.3 20.3 0 002.7 0l6.6-13.4c3 4.8 3.6 10 5.9 14.2l.7.3c3.9 0 8 .9 11.6 0 4-1 4.3-6.2 6.6-9.2l2.2-3.3 3.8 12c5.5-.8 10.9-1.4 16.2-2.5a163 163 0 0038-13.1 6 6 0 003.9-5.3c1-7.4 2.3-14.8 3.4-22.2l1-5.8c4.4 7.5 6.8 15 12.4 20.9a154.8 154.8 0 0031.6-28.6 161.2 161.2 0 0022.8-35.8l1 .3.2 4v53.7a10 10 0 01-3.2 7.8l-16.3 15.6-3.5 3.3c7.6 2.2 15.2 1.8 22.7 3.5v5.3c-5 1.7-9.7 3.5-14.7 5a20.9 20.9 0 00-14 12c-2.2 4.9-4.9 9.5-7.4 14.4l-9-5c-10-5.3-21-3.6-28.8 4.4a73.7 73.7 0 00-6.5 7.4 23.9 23.9 0 00-4.4 14.1c-.1 8.2-.5 16.3-.8 25.3a38.7 38.7 0 01-3-2.9c-3.8-4.7-7.5-9.6-11.4-14.3a22.7 22.7 0 00-34.4-.9 114 114 0 00-8.5 10.6c-3.6 5.1-7 10.4-10.4 15.6l-4.5-.2c-2.7-6-5.2-12-8.1-18a87.8 87.8 0 00-6.5-11.3 22.8 22.8 0 00-34.2-4.3l-11.8 10.7-4.4 3.7c-.6-5 .8-9.4 1.2-13.7l1.7-13.6c1-7.7-2.4-14-6.9-19.8a9 9 0 00-3.1-2c-5.1-2.7-10.3-5.2-15.4-8a7.6 7.6 0 00-6.7-.8l-12.8 4.2c-1.4-4.6-3.2-9-4.2-13.5-1.8-8.1-7.2-13-14-16.6-7-3.9-14-7.6-22-11.7 4-1.2 7.2 0 10.7-.8a203 203 0 00-2.6-3.5c-4.6-6-9.4-11.8-13.6-18a14.1 14.1 0 00-10.3-6.5 20.9 20.9 0 00-21.6 10.3 86.3 86.3 0 00-5.6 11.9c-2.1 5.5-3.9 11.2-5.9 17l-4.5 1c-3.7-4.6-7.2-9.2-11-13.6a94.7 94.7 0 00-8.7-9.2 21.4 21.4 0 00-32.7 3.8c-3.2 4.6-6.2 9.4-9.3 14.1-.6 1-1.3 1.8-2.4 3.2l-.7-3.5c-1-7.4-1.8-15-2.7-22.4a21.2 21.2 0 00-6.5-12.7 89 89 0 00-5.6-5 22 22 0 00-26.6-1.7c-2.7 1.7-5.4 3.6-8.4 5.7-2.8-4.3-5.5-8.3-7.9-12.5a20.4 20.4 0 00-14.6-10.7c-7-1.5-14-3.3-21-5l-4.6-1.4c8.5-1.8 16-3.6 23.4-5q32.5-6.2 44.3-37l3-8c.8 2.2 1.3 3.4 1.6 4.6 2 7.9 3.8 15.8 5.9 23.7a42.4 42.4 0 0031.7 32 38.5 38.5 0 0016.7.8c2.6-.5 3.8-1.2 4.3-4 1.4-8.1 3-16.2 4.6-24.4l1-3.6 9 12.7 11.7-2 4.2-15.3 16.4 28 12.6-3.3c-.8-2.2-1.3-3.8-2-5.4a193 193 0 01-11.2-78.5A196.5 196.5 0 01966.8 1.6c1-.4 1.9-1 2.8-1.6zM981.8 396.6l7-6.2c13.5-12 32.6-9.7 42.3 5.5 4 6.4 7 13.6 10.5 20.4l2.5 5c3.2-4.8 5.8-9 8.8-13a100.2 100.2 0 019.5-11.6c6.7-6.6 14.8-9 24.2-7.3 7.2 1.4 13 5.3 17.5 11 1.4 1.9 2.6 4.1 5.2 5.7l.3-3.2c.1-4.2 0-8.5.4-12.7.7-7.9 5-14 10.3-19.6 10.8-11.3 23.7-13.6 37.4-6.2l3.6 1.8 6-11.8a22.4 22.4 0 0113-11.5l6.2-2.2a21.3 21.3 0 002.6-1.4c-5-.8-9.4-1.3-13.6-2.3a70.2 70.2 0 01-12.4-4.2 66.3 66.3 0 01-11.6-7 68.3 68.3 0 01-9.7-8.9c-2.9-3.1-5.3-6.7-8.2-10.6-.9 5.4-1.7 10-2.3 14.6-1.1 7.6-3.3 14.7-7.6 21a49.6 49.6 0 01-48.2 23c-4.6-.3-4.7-.4-6-5l-4.2-14.9-1.7-5.1-5.7 9.3c-5-4.3-10.6-4-16.3-1.7l-3.7-9.6a8 8 0 00-1 1.2l-6.4 13.5c-4.2 9-4.7 9.2-14.6 7.4a50.1 50.1 0 01-41.8-49v-14.2a26.1 26.1 0 00-.3-3.2 13 13 0 00-1.5 1.1 64.2 64.2 0 01-53.6 22.2l-5 .3c2.7 1.5 4.2 2.5 5.9 3.3a24.3 24.3 0 0114.2 17c.9 3.4 2.2 6.8 3.3 10.4l6.4-2c9.6-3 18.7-1.6 26 5 10.5 9 16.5 20.1 13.8 34.5-.6 3.3-1 6.7-1.5 11.2zm-83.6-107.5l-2.5-11.3c-1.5-6-1.7-11.8.8-17.5a66.3 66.3 0 016-11.1 26.4 26.4 0 0128.1-10.5l5.5 1.1c.8-3.4 1.8-6.4 2.2-9.5 1.2-8.2 5.6-14 12.8-18l4.3-3.1a11.4 11.4 0 00-1.8-.2 60.6 60.6 0 01-54.3-15.4 11.3 11.3 0 00-2.1-1.2l1.3 14.6a47.4 47.4 0 01-33.5 50.5c-3.8 1.1-7.9 1.6-11.8 2.3L841 239l-3 10c-5.8-3-10.8-1.4-15.3 2.3l-6-8.2-4.6 23.3a43 43 0 01-24.4 1 47 47 0 01-36.2-36.1l-3.4-14.1a63.8 63.8 0 01-48 35.7 15.4 15.4 0 004.8 1.9 22.9 22.9 0 0117 12.1c1.6 3 3.5 5.8 5.4 8.8l5.1-3.3c8.4-5 17.2-5.7 26-1.4a36.7 36.7 0 0115.7 14.5c1.8 3.2 2.7 7 3.6 10.6.7 2.8.7 5.9 1.1 8.8l1 4 4.4-6.4c9.7-14.2 27.7-16.5 40.3-4.8 5.4 5.1 10 11.2 15 16.8.7 1 1.5 1.7 2.6 2.8l2.6-7.2c2.2-5.6 4.2-11.5 7-16.8 8.3-15.8 25.9-19.5 40.2-8.8zm219.2-89.2c-5.3-1.6-11.3-3-17-5.4-6-2.5-10.3-7.2-14.7-13.5l-1.4 10.3a29 29 0 01-21.5 24.7c-4 1-8.2 2-12.3.1-2-4.1-2.4-8.9-5-13l-2.6 3.8-10.1-.3-2.4-4.7-5.9 13.3c-6.3.4-9.7 0-14.2-2.2a28.5 28.5 0 01-17.4-25.3l-.5-10.6c-5 5.7-9.7 9.6-15.6 12.2s-12.1 2.8-18.5 3.5c4.5 2.4 8.9 4.6 10.8 9.4h4l.4.6-3.2 2.8 1.8 4.4 4.3-1.2c3.3-1.2 6.7-.9 10 0 6.2 1.5 14.2 11.9 13.4 19.2-.3 2.9-.3 5.7-.5 9.4l4.4-4a15.8 15.8 0 0123.6 2 72.9 72.9 0 015.1 8.4c1.2 2.1 2.2 4.3 3.5 7 1.4-2 2.3-3.6 3.2-5a96.1 96.1 0 016.2-8.8c7.1-8.3 17.5-8.2 25-.2l3.7 3.7v-5.8c-.7-6.6 2-11.8 6.4-16.5a16.4 16.4 0 0118.9-4l3.8 1.4c2-3.6 3.3-7.3 5.7-10s6-4 8.6-5.7zM623.4 392.6c1 13.1 2.1 26.2 2.9 39.4a55.3 55.3 0 0027.3 47 50.3 50.3 0 0030.7 7.4l15.7-42 10.3 22 4.6-1.3 2 2.6 1.7-2.5 4.9 1.2 10.1-22c5.9 14.5 10.5 28.2 15.9 41.9a48 48 0 0027-5.3 53.3 53.3 0 0030.5-44.8c1.2-12.8 1.9-25.6 2.9-38.4a14 14 0 011.4-5.4l2.5 4c4.5 7 8.5 14.4 13.7 20.8a66.3 66.3 0 0047.2 25c13.6 1.1 27.2 1.3 40.8 1.8a12.7 12.7 0 015.1 1c-1.1.6-2.3 1.3-3.5 1.8-11.6 5-23.2 10.2-34.9 15a22.9 22.9 0 00-13.4 13.6c-2.6 7-5.6 13.9-8.7 21.3l-5.6-2.4c-4.6-1.8-9.1-4.2-13.9-5.4a25 25 0 00-24.5 7.2 76.6 76.6 0 00-9.6 12.2 26 26 0 00-3.7 16.2l1.8 35.6-.4 1.2c-1-.8-2-1.6-2.7-2.4-6.1-6.5-12.4-13-18.3-19.6-10.8-12.3-31.9-13-42.4 2-3.4 5-6.6 10-9.6 15-3.5 6-6.7 12-10.2 18.4-1.4-.5-2.6-1.4-3.9-1.4s-2.6.8-4.2 1.4l-4.6-8.1c-5-8.6-9.3-17.4-15.3-25.3a27.3 27.3 0 00-41.8-2.6l-18 19.2-3.9 3.8v-7.3c.5-9 .8-18.1 1.7-27.2 1.5-14.8-6-25.3-16.7-33.8-8-6.3-17.5-7-27-2.8l-13.5 6.2c-1-2.3-2-4.3-2.7-6.3-2.2-5.2-4.5-10.3-6.4-15.6a22 22 0 00-12.8-13c-11.7-4.8-23.3-10-35-15l-4.6-2.2a30 30 0 013.4-.6l35.3-1.2a72 72 0 0063-36.7l8.4-14zm77.7 76a28.9 28.9 0 00-1.5 2.7l-7.5 20.2c-.9 2.7-2.3 4.3-5.3 4-5-.3-10 0-15-.7a62.4 62.4 0 01-49.5-38.6A78 78 0 01617 429l-.8-9.4a83.6 83.6 0 01-63 32.5 24.1 24.1 0 004.5 2.6 28.8 28.8 0 0114.7 15.2l4.1 10 2.1 4.7c2-1 3.6-1.7 5.2-2.3a36 36 0 0140 7.2c3.2 2.7 5.6 6.3 8.2 9.6a37.5 37.5 0 018 27.3c-.3 3.4-.4 6.7-.5 10.1a18.2 18.2 0 005.2-4.2 36 36 0 0155 2.8c5.7 7.3 10 15.5 14.5 23.5l2.8 4.5c3-5.4 5.4-10.3 8.3-15a122.5 122.5 0 0110.6-14.9 35.8 35.8 0 0153.3-.7c1.4 1.5 2.5 3.5 4.5 4.2V522a35.4 35.4 0 016.8-21c2-2.9 4.1-5.6 6.3-8.2a36.8 36.8 0 0143-10.5l5.5 2.3c2-4.8 4-9.3 5.8-14a29 29 0 0116-16.3c1.2-.5 2.3-1.2 3.5-1.8a84.9 84.9 0 01-63-32.6c-.5 5.3-1 9.6-1.2 14a64.3 64.3 0 01-69 61.8c-3-.2-4.8-1-5.8-4.1-1.8-5.7-4-11.2-6.2-16.8l-2.6-6.5-4.8 9.7a62.2 62.2 0 01-6.8-2.5 9.1 9.1 0 00-8.9 0 60.3 60.3 0 01-6.6 2.5l-4.6-9.5z"/>
      <path d="M357 573.8l-5.2-2.9 3.6-8c39.6 16.9 78.6 34.4 118.2 51.5l-3.5 8.3-31.1-13.4 6.5 7 9.3 9.3a29 29 0 017.2 28.7c-1.9 7.9-6 14.8-11.2 20.9a85.4 85.4 0 01-45.3 28.6 66 66 0 01-79.1-49 81 81 0 015.3-49.6 64.6 64.6 0 0115-23c3-3 6.6-5.6 10.3-8.4zm77 43.5c14.2 33.8-6.4 61.6-29.3 67.4a45.9 45.9 0 01-56.4-36.6c-2.3-13 .2-25.3 8.1-36a45.4 45.4 0 0142.8-18.4c-.8-.9-1-1.3-1.4-1.5L375 581.5c-3-1.4-6-1.2-9.2-.4a27.8 27.8 0 00-13.7 8.6c-7.5 8-12 17.5-15 27.8a64 64 0 001.5 45 56.9 56.9 0 0061.9 33 74.6 74.6 0 0039.5-22 49.4 49.4 0 0012.8-20c2.4-7.3 1.7-14.3-3.5-20.2-5-5.5-10.3-10.6-15.4-15.9zM393 654a13 13 0 0013.2-13 13.2 13.2 0 10-26.3 0 13 13 0 0013.1 13zM64.8 697.3l-7.9 11-7.5-5.2 86.7-122.3 7.5 5.2-18.6 26.3c3.4-.7 6.1-1.4 8.8-1.7 6.8-.7 13 1.1 19 4.1 9.5 4.7 17 11.6 23.7 19.7a83.8 83.8 0 0118.3 35.5 66.2 66.2 0 01-128.3 32.6l-1.7-5.2zm65 43.7c4-.5 8.1-.8 12.1-1.6a57 57 0 0043.8-68.5 79.5 79.5 0 00-24.8-39.7 48.6 48.6 0 00-15.4-9.8c-9.7-3.7-16.3-2.2-23.3 5.4a481.4 481.4 0 00-35.7 43.6c-3.9 5.3-7.1 11-10.6 16.6-2.2 3.6-2.2 7.2-1.1 11.3a57.7 57.7 0 0055 42.7z"/>
      <path d="M457.6 671.8l3.2 1.2a10.9 10.9 0 01-.4 2 75.8 75.8 0 01-56.4 45.6c-27.8 5.6-49.4-5.3-67.2-25.5.2-.8.1-1.3.3-1.4l2.6-1.8c4 4 7.8 8 12 11.4a59.5 59.5 0 0038.9 14.3 69.9 69.9 0 0042-14.3 72.3 72.3 0 0022.8-28.2l1.5-2.9.7-.4zM196.3 716l3.6 1.2c.1.5.3.9.2 1.1-8.5 22.5-23.1 38.8-47 44.7-29.4 7.2-54.7-1-75.8-22.5a22.3 22.3 0 01-1.4-1.9l3-2.6c3.1 2.9 5.9 5.6 8.9 8.1 15 12.2 32.1 18 51.4 16.7 26-1.8 43.8-15.7 54.6-39l1-2.7c.4-.9.9-1.6 1.5-3.1z"/>
      <path d="M869.3 1543.9h-42.5l-14-68.3-73.5 47c-.3-6.3-.1-11.8-.2-17.4v-52.4l-57.7 49.2-8.6-51-.9-.3-3.2 5.5c-16 27.8-32.2 55.6-48 83.5-2 3.3-4 4.4-7.8 4.4q-146-.1-292 0h-5.6v-5.2-288.3a31.5 31.5 0 011-7.4q9.8-40.6 20-81.2c.7-3 .4-5.2-1.7-7.7-5.8-6.8-11.2-13.9-17-20.8a10 10 0 01-2.4-6.8V931.3c4-1 7.6-2 11.1-3.1a10.7 10.7 0 004.7-2.8l38-46a6.2 6.2 0 00.5-1.3L361 858l63.7 7.2c1.7-16.8 1.6-33.5 3.2-50.5 10.1-.7 20.2.8 30.3 1s20.3 1 30.7 1.1c-12.2-11.3-25-21.8-37.5-32.5l-38.3-32.5 4.5-3.2a312 312 0 01112.7-46.1 308 308 0 0163.9-6c74 1 140.6 23.8 198 70.8 39 31.8 63.6 72.9 73.6 122.4a186.7 186.7 0 013.6 36.9v529l-.2 83.3zm-484.2-588l20.5 2c1 36.2 1 72.3-.1 108.6l-20 2.2-2.6 12.7c25.8-1.2 51.1-1 76.8-.1l-2.4-12.6-19.8-2.3v-45l7.6-.8c2.5-.3 4.3.5 6 2.5 9 9.8 18 19.7 27.5 29 10 10 20.7 19.7 31.2 29.3 4 3.7 8.6 6 14.5 4.1 3.6-1 7.5-1.2 12-2-22.4-22.4-39.3-48-56.2-73.8l4-3c7.9-5.9 14.5-13 18.7-22 6-12.7 2-25.6-10.2-32.8a45.6 45.6 0 00-10.7-4.5c-10.3-3-21-3.8-31.6-3.8-21-.1-42 0-63 0l-4 .3 1.8 12zM708.9 1081h81.5l-3-12.4-23.4-2.4a1104 1104 0 010-108.3c6-.6 14.8 1 19.6 3.7a21.1 21.1 0 0111 15 31.3 31.3 0 01-.4 13.5c-2.6 11-10 17.3-20.1 21-2.8 1-5.7 1.8-8.8 2.7l-1.7 13.3c2.7-.3 4.6-.5 6.6-.9a86.3 86.3 0 0037.5-15c9.1-6.7 15.7-15.2 18.4-26.4 3.6-15-1.5-26.6-15.1-33.8a57.4 57.4 0 00-11.8-4.5 132.4 132.4 0 00-32.6-3.6c-18-.3-36 0-54 0a27.3 27.3 0 00-3.4.4l2 12 10.3 1.1 9.5 1c1.7 9.7 1.3 104.2-.5 108.9l-9.6 1.3-9.6 1.2-2.4 12.2zm-77.7-14.6c-1.7-7.8-1.6-103.1.1-108.7l19.1-2.6 3.2-12.8a628.3 628.3 0 01-78.2 0l3.3 12.8 19 2.4c2 12.8 1.7 102.4-.3 109l-19.2 2.2-2.3 12.5c26.2-1 51.7-1 77.7.1l-3.2-12.6z" class="cls-1"/>
      <path d="M305.8 1249.8l-75.5 13c-1.8-4.5-57.3-331-56.9-335l167-28.4c-1 1.5-1.7 2.6-2.6 3.6l-10.7 13.1a12.2 12.2 0 01-7.2 4.7c-4.3 1-8.5 2.2-13.3 3.5l-.2 5.8V1130a10.3 10.3 0 002.5 7.3c5.2 6.2 10.1 12.8 15.4 18.9a8.3 8.3 0 012 8.4l-19 77.6c-.7 2.3-1 4.8-1.5 7.6zM266.5 1348.4l6.3 36.3 13.5 80a28 28 0 00.8 4.6c1.5 4.4.3 8-3 11.5a33.1 33.1 0 01-2-2.9c-11.1-19.4-22.3-38.8-33.2-58.4a29.8 29.8 0 01-2.9-9.2l-9.7-56.6c10-2.3 19.8-3.7 30.2-5.3zM225.3 1483.9c-3.6-1.6-4.4-4.3-5-7.4l-8.8-52.2-10-58.3-.9-6.5 31-5.3 3.4 19c2.4 14.2 4.9 28.3 7.2 42.5a17 17 0 010 7l-16.1 58.8-.8 2.4zM271 1347.5l22.7-3.8 3.2 18c3 17.7 6.2 35.4 8.8 53.2 1 6.2.1 12.5.7 18.8a28.9 28.9 0 01-5.7 20.6c-3.1 4.2-5.6 9-9.2 13.4L271 1347.5zM172.7 1364.2l22.5-3.7 1 .3 19.2 113.6a8 8 0 01-1.8-.9c-8.3-7.8-16.7-15.6-24.9-23.6a8.6 8.6 0 01-2.5-4.3q-6.9-39.8-13.5-79.6a12.6 12.6 0 010-1.8zM284.8 1289.3l-3-17.2 15.2-2.6 3 17.1zM463.3 806.2h-12.6l-2-11 .7-.6zM981.8 396.6c.6-4.5.9-7.9 1.5-11.2 2.7-14.4-3.3-25.6-13.6-34.6-7.4-6.5-16.5-8-26-5l-6.4 2.1c-1.2-3.6-2.5-7-3.4-10.4a24.3 24.3 0 00-14.2-17l-5.8-3.3c2.4-.2 3.7-.4 5-.3 21.3 1 39.2-6.2 53.6-22.2a13 13 0 011.4-1 26.1 26.1 0 01.4 3.2v14A50.1 50.1 0 001016 360c10 1.7 10.4 1.5 14.6-7.4l6.4-13.6a8 8 0 011-1l3.7 9.5c5.7-2.3 11.2-2.7 16.3 1.6l5.7-9.3 1.7 5.2 4.2 15c1.3 4.5 1.4 4.6 6 5a49.5 49.5 0 0048.2-23 49.7 49.7 0 007.6-21c.6-4.7 1.4-9.3 2.3-14.7 3 3.9 5.4 7.5 8.2 10.6a68.3 68.3 0 009.7 9 66.3 66.3 0 0011.6 6.9 70.2 70.2 0 0012.4 4.1c4.3 1 8.6 1.5 13.6 2.3a21.3 21.3 0 01-2.6 1.5l-6.2 2.2a22.4 22.4 0 00-13 11.4l-6 11.9-3.6-1.8c-13.7-7.4-26.6-5.2-37.4 6.2a32.9 32.9 0 00-10.3 19.6c-.4 4.2-.3 8.4-.4 12.7l-.3 3.2c-2.6-1.6-3.8-3.8-5.2-5.7a28.8 28.8 0 00-17.5-11c-9.3-1.8-17.5.7-24.1 7.3a100.2 100.2 0 00-9.6 11.5c-3 4-5.6 8.3-8.8 13.1l-2.5-5c-3.4-6.9-6.4-14-10.5-20.4-9.7-15.2-28.8-17.5-42.3-5.5zM898.2 289.1l-6.3-4.6c-14.3-10.6-31.9-7-40.2 8.8-2.8 5.4-4.8 11.2-7 16.8-1 2.2-1.6 4.5-2.6 7.2l-2.7-2.7c-5-5.7-9.5-11.8-15-16.9-12.5-11.7-30.5-9.4-40.2 4.8l-4.4 6.4-1-4c-.4-3-.4-6-1-8.8-1-3.6-1.9-7.4-3.7-10.6a36.7 36.7 0 00-15.7-14.5 25.8 25.8 0 00-26 1.4l-5 3.3c-2-3-3.9-5.8-5.5-8.8a22.9 22.9 0 00-17-12.2 15.4 15.4 0 01-4.8-1.8 63.8 63.8 0 0048-35.7c1.3 5.4 2.3 9.7 3.5 14a47 47 0 0036.1 36.2 43 43 0 0024.4-1l4.6-23.3 6 8.2c4.6-3.7 9.6-5.4 15.2-2.4l3.1-10 12.3 20.9c3.9-.8 7.9-1.2 11.7-2.3a47.4 47.4 0 0033.5-50.5l-1.3-14.5a11.3 11.3 0 012 1.1 60.8 60.8 0 0054.4 15.4 11.4 11.4 0 011.8.2c-1.8 1.3-3 2.3-4.3 3-7.1 4-11.6 10-12.8 18.2-.4 3-1.4 6-2.2 9.5l-5.5-1.2a26.4 26.4 0 00-28 10.5 66.3 66.3 0 00-6 11.2 26.5 26.5 0 00-1 17.5c1 3.4 1.6 7 2.6 11.2zM1117.4 200c-2.5 1.6-6.2 3-8.6 5.7s-3.8 6.3-5.8 10l-3.7-1.5a16.4 16.4 0 00-19 4c-4.3 4.7-7 10-6.4 16.6.2 1.6 0 3.3 0 5.8l-3.7-3.7c-7.4-8-17.8-8.1-25 .1a96.1 96.1 0 00-6.1 8.9l-3.2 5c-1.3-2.7-2.3-5-3.5-7a72.9 72.9 0 00-5.1-8.4c-6-7.8-16.3-8.6-23.6-2.1l-4.5 4.1c.2-3.7.3-6.6.6-9.4.8-7.4-7.2-17.8-13.3-19.3a17 17 0 00-10.2 0l-4.2 1.3-1.9-4.5 3.3-2.8c-.2-.2-.3-.6-.5-.6h-3.9c-2-4.8-6.4-7-10.8-9.4 6.3-.6 12.6-.8 18.5-3.5s10.6-6.5 15.5-12.1c.2 4.2.3 7.4.6 10.6a28.5 28.5 0 0017.4 25.3c4.5 2.1 7.9 2.6 14.2 2.2l5.8-13.4 2.5 4.7 10 .3 2.6-3.8c2.6 4.2 3 9 5.1 13.1 4 2 8.3.9 12.3-.1a29 29 0 0021.5-24.7l1.4-10.3c4.3 6.3 8.7 11 14.7 13.5 5.7 2.3 11.7 3.7 17 5.3zM701 468.5l4.7 9.5a60.3 60.3 0 006.6-2.4 9.1 9.1 0 019-.1 62.2 62.2 0 006.7 2.5l4.8-9.7 2.6 6.5c2.1 5.5 4.4 11 6.2 16.7 1 3.1 2.7 4 5.8 4.1a64.3 64.3 0 0069-61.8c.1-4.3.7-8.6 1.1-14a85 85 0 0063.1 32.7c-1.2.6-2.3 1.3-3.5 1.8a29 29 0 00-16 16.3l-5.8 14-5.5-2.3a36.8 36.8 0 00-43 10.4c-2.2 2.7-4.3 5.4-6.3 8.2a35.4 35.4 0 00-6.8 21.1v14.8c-2-.7-3-2.7-4.5-4.2a35.8 35.8 0 00-53.3.7 122.5 122.5 0 00-10.6 15c-2.9 4.5-5.3 9.5-8.2 15l-2.9-4.6c-4.5-8-8.7-16.2-14.6-23.5a36 36 0 00-54.9-2.8 18.2 18.2 0 01-5.2 4.2c.2-3.4.2-6.7.5-10.1a37.5 37.5 0 00-8-27.3c-2.6-3.3-5-6.9-8.1-9.7a36 36 0 00-40.1-7.1l-5.1 2.2-2.2-4.6-4-10a28.8 28.8 0 00-14.8-15.2 24.1 24.1 0 01-4.4-2.5 83.5 83.5 0 0063-32.6l.7 9.4a78 78 0 005.3 27 62.4 62.4 0 0049.5 38.7c5 .8 10 .5 15 .8 3 .2 4.4-1.4 5.4-4 2.4-6.8 5-13.6 7.5-20.3a28.9 28.9 0 011.4-2.8zM433.9 617.3c5 5.3 10.4 10.4 15.3 15.9 5.3 5.9 6 12.9 3.6 20.3-2.5 7.8-7.1 14.3-12.8 20a74.4 74.4 0 01-39.6 22 57 57 0 01-61.9-33 63.7 63.7 0 01-1.5-45c3-10.4 7.5-20 15-28a28 28 0 0113.7-8.5c3.2-.8 6.3-1 9.2.4 7.7 3.5 15.3 7.2 22.9 10.9.3.1.5.6 1.4 1.4a45.4 45.4 0 00-42.8 18.3c-8 10.8-10.5 23-8.2 36.1a45.9 45.9 0 0056.5 36.6c22.8-5.8 43.5-33.6 29.2-67.4z" class="cls-1"/>
      <path d="M393 654a13 13 0 01-13.1-13 13.2 13.2 0 1126.3 0 13 13 0 01-13.2 13zm4.4-13.2a4.4 4.4 0 00-4.6-4.2 4.6 4.6 0 00-4.2 4.2 4.7 4.7 0 004.4 4.4 4.6 4.6 0 004.4-4.5zM129.8 741a57.7 57.7 0 01-55-42.7c-1.2-4-1.2-7.7 1-11.2 3.5-5.6 6.8-11.3 10.6-16.7a481.4 481.4 0 0135.8-43.6c7-7.6 13.6-9 23.3-5.3a48.6 48.6 0 0115.4 9.7 79 79 0 0124.7 39.7 57 57 0 01-43.7 68.6c-4 .7-8 1-12.1 1.5zm-13.1-57.5a13.3 13.3 0 1026.6 0 13.3 13.3 0 10-26.6 0z" class="cls-1"/>
      <path d="M385.1 955.9l-1.7-12c1.5-.2 2.7-.4 4-.4h63c10.6 0 21.3 1 31.6 3.8a45.6 45.6 0 0110.8 4.5c12.1 7.2 16 20.1 10.1 32.9-4.2 9-10.8 16-18.7 22-1.3.8-2.5 1.8-4 3 16.9 25.9 33.8 51.4 56.2 73.8-4.5.7-8.4 1-12 2-5.9 1.8-10.5-.4-14.5-4.1-10.5-9.6-21-19.2-31.2-29.3-9.4-9.4-18.4-19.3-27.4-29-1.8-2-3.6-2.9-6-2.5s-5 .5-7.7.8v45l19.8 2.3 2.5 12.6c-25.8-1-51-1.1-76.8 0l2.5-12.7 20-2.2c1.1-36.2 1-72.3.1-108.6zm29.9-3.4v118.6h13.3V952.5zm22.5 53.8c8.6.4 19.4-2.8 25.7-7.6a24.8 24.8 0 008.4-11.1c3.7-10 .9-18.2-8.2-23.8a40.8 40.8 0 00-15.9-5.3c-3.1-.4-6.3-1.7-10-.3zm17.3 7.2a665.2 665.2 0 0055.4 56c-7-10.5-14.6-20.5-21.7-30.9s-14-21-20.8-31.5zm11-59.4c8.2 5 14.7 11.3 16.1 21.4a34.7 34.7 0 01-8.3 26.4c7.6-3 16.6-12 20.5-20.1 4.7-9.6 2-18-7.4-23a48 48 0 00-21-4.7zM709 1081l2.3-12.2 9.5-1.2 9.7-1.3c1.7-4.7 2.1-99.1.4-108.9l-9.5-1-10.3-1-2-12a27.3 27.3 0 013.5-.5c18 0 36-.3 54 0 11 .1 21.9.7 32.6 3.6A57.4 57.4 0 01811 951c13.6 7.2 18.7 18.9 15.1 33.8a45.8 45.8 0 01-18.3 26.4 86.1 86.1 0 01-37.6 15l-6.6 1 1.7-13.4c3.2-.9 6-1.6 8.8-2.6 10-3.8 17.6-10.2 20.1-21.1a31.3 31.3 0 00.5-13.6 21.1 21.1 0 00-11.1-14.9A40.2 40.2 0 00764 958c-1.8 7-1.9 96.6 0 108.3l23.3 2.5 3 12.3zm31.4-129c1.2 40 .8 79.6.1 119H754V952zm49.6 2.2a32.3 32.3 0 0114.2 25 43.2 43.2 0 01-7.9 28.1c10.7-5.9 18.8-13.8 21.1-26.3 2-9.8-1-16.2-9.5-21.4a41 41 0 00-17.9-5.4zM631.2 1066.5l19.2 2.2 3.2 12.7c-26-1.1-51.5-1-77.7-.1l2.3-12.6 19.2-2.2c2-6.6 2.4-96.1.4-109l-19.1-2.3-3.3-12.8a628.3 628.3 0 0078.2-.1l-3.2 12.9-19 2.5c-1.8 5.6-1.9 101-.2 108.8zm-23.5 4.6h13.6V953h-13.5zM397.4 640.7a4.6 4.6 0 01-4.4 4.5 4.7 4.7 0 01-4.4-4.5 4.6 4.6 0 014.2-4.2 4.4 4.4 0 014.6 4.2zM116.7 683.4a13.3 13.3 0 1126.6.1 13.3 13.3 0 11-26.6 0zm17.5 0a4.6 4.6 0 00-4.3-4.1 4.3 4.3 0 00-4 4.3 4 4 0 004.2 4.1 4.2 4.2 0 004.1-4.2z"/>
      <path d="M415 952.5h13.3v118.6H415zM437.5 1006.3v-48.1c3.7-1.4 6.8-.1 10 .3a40.8 40.8 0 0115.8 5.3c9.2 5.6 12 13.7 8.2 23.8a24.8 24.8 0 01-8.3 11c-6.3 5-17.1 8.1-25.7 7.7zM454.8 1013.5l12.8-6.4c7 10.5 13.7 21.2 20.8 31.5s14.8 20.4 21.8 30.9a665.2 665.2 0 01-55.4-56z" class="cls-1"/>
      <path d="M465.8 954c7.4.4 14.4 1.5 21 4.9 9.4 5 12 13.3 7.3 22.9a46 46 0 01-20.4 20 34.7 34.7 0 008.3-26.3c-1.4-10-8-16.3-16.2-21.4zM740.4 952H754v119.1h-13.5c.7-39.5 1-79 0-119zM790 954.2a41 41 0 0118 5.4c8.4 5.2 11.3 11.6 9.5 21.4-2.4 12.5-10.5 20.4-21.2 26.3a43.2 43.2 0 007.9-28.2 32.3 32.3 0 00-14.2-24.9zM607.8 1071V953h13.5v118.1zM134.2 683.5a4.2 4.2 0 01-4.1 4.2 4 4 0 01-4.2-4 4.3 4.3 0 014-4.4 4.6 4.6 0 014.3 4.2z" class="cls-1"/>
    </g>
  </g>
</svg>
