<svg xmlns="http://www.w3.org/2000/svg" id="Layer_1" x="0" y="0" version="1.1" viewBox="0 0 1200 1550" xml:space="preserve"><defs/><style>.st0{fill:#fff}</style><path d="M0 0v1550h1200V0H0zm3.7 962.3a51 51 0 0116.9-9.7l7.1-2.7c-1-2.3-1.9-4.1-2.6-6.1A285.5 285.5 0 0111.4 889c-1.5-13.7 2.2-25.5 13.9-33.5 16.2-11.2 32.4-22.5 49.1-32.8 43.9-27.2 89.3-51.8 135.7-74.6a133.1 133.1 0 0152.9-13.5c30.5-1.3 61-2.5 91.5-1.4 5.4.2 10.9.5 16.3.9 4.1.3 8 .1 11.4-2.5 22.9-17 48.5-29.3 73.7-42.3 35.3-18.2 71.3-34.8 108-49.8a167.5 167.5 0 0151.9-13.7c13.5-1 27-1.5 40.5-1.3 38 .5 76 1.4 114 2.4 18.8.5 37.5 1.4 56.3 2.2l10.8.6a45.8 45.8 0 01-.2-17.7 33.5 33.5 0 0114.9-21.4c5.4-3.6 11.2-6.7 16.8-10.2 4.2-2.6 8.2-5.5 12-8.6a39.3 39.3 0 0013-23.1c.1-1-.1-1.9-.5-2.8-1.2-2-2.6-3.8-3.9-5.7a22.6 22.6 0 00-9.3-8.3c-7.6-3.6-11.6-10.4-14.2-18.2l1.7-1.1a36 36 0 01-3.2-23.2c.3-2 .5-3.6-1.5-5.3-1.2-1-2-2.2-2.6-3.4H949c.5 3.4-.7 6.9-3.5 9.3-1.1.8-2.4 1.5-3.7 2 .3 4.2 1.2 8.6 1 12.9-.4 6.8-1.1 13.5-2.2 20.2-1 5.1-.6 10.4 1 15.3.8 2.1 1.4 4.2 1.8 6.4 1.2 8.4-3 14.6-11.3 16.8a34 34 0 01-16.5.1c-.5 2.3-.8 4.7-1 7-.1 2 1.8 3.2 3.5 1.6.6-.6 1.3-1.1 2.2-1.3 1.2-.3 2.8-.8 3.5-.2.8.9 1.1 2.2.9 3.4-.6 2.4.5 3.3 2.5 4.1l21.7 8.3a33.5 33.5 0 0121.7 22.9l13.7 48.2a5.4 5.4 0 003.4 4.2l68.5 31.6a95.3 95.3 0 0037.1 8.5c19.4.7 38.6 3.1 57.6 7.1 10.5 2 20.7 5.8 30 11.1a35.5 35.5 0 0118.4 31.1c.9 25.7.4 51.4-1.5 77-1.2 17.2-2.2 34.5-4.4 51.6-1.4 9.6-3.9 19-7.5 28-4.6 11.7-10.6 23-16.2 34.3a49.7 49.7 0 01-6.2 9 23.2 23.2 0 01-18.8 9.8c-9.2 0-18.5-.2-27.8-.5-4.2-.2-6.3-3.5-8.3-6.7l-4-7.1a12 12 0 01-1.8-2.6l-5.2-16.4c-.3 4.7-.8 9.3-1 14-.1 2.3-.9 3.2-3.1 3.7l-89.8 22.9-2 .6.6 9.3 3.6 46.8c.1 1.6.5 3.2.8 4.8a15.9 15.9 0 0012.3 13.5c7.3 1.9 14.7 3.5 22.1 5.2 6.6 1.5 13.3 2.9 19.8 4.7 2.7.7 5.2 2 7.3 3.8 3 2.6 2.6 5.8-1.1 7.2a51.1 51.1 0 01-12.8 3.2c-12.5 1.1-25.1 1.7-37.6 2.7-5.6.4-11.1 1.4-16.7 1.7-3.6.2-7.1-.1-10.6-.7a8 8 0 01-6.8-7.6c-.3-4.7-.1-9.3.5-13.9a56 56 0 00-2-23.4L968 980.4l-.8-2.3-17.2 4.3-46.9 11.9c-1.8.5-2.7 1.1-3 3.3l-5.3 39.9c-1.1 7.6.8 15.3 5.2 21.5 6.8 10 13.5 20.1 20 30.2 2.1 3.4 4 6.9 5.7 10.5.6 1.4 1.1 2.9 1.3 4.4 1.2 5.6-1.6 9.3-7.3 9.3-3.1 0-6.1-.6-8.9-1.7a58 58 0 01-28-22.3c-3.9-6.2-7.7-12.4-13.4-17.2-3.8-3.2-4.2-7.3-1.8-11.8 1.3-2.6 3.2-4.8 4.4-7.5 1-2.3 2.1-5 1.9-7.5-1.2-13.3-2.8-26.7-4.3-40l-.4-2.3-16.1 4-98.4 25.2c-3.3.8-3.3.8-2.9-2.5 4-29 6-58.2 4-87.5-.7-9.6-2.2-19.1-3.4-28.6 0-.4-.2-.7-.6-.9V987c-.2 28.5-9.1 54.5-23.1 79.1a68.4 68.4 0 01-42.9 32.1 213.1 213.1 0 01-63.6 6.9c-8.3-.2-16.7-.6-25-.6-5.9 0-11.7.3-17.6.4h-7.4c-5.1-.1-9.1-2.3-11.1-6.8-2.1-4.8-3.5-9.8-5.2-14.8l-.7-3c-9.9 2-19.7 4.3-29.5 6-29.7 5.2-59.4 10.3-89.2 15a288 288 0 01-74.2.9 1375.9 1375.9 0 01-152.2-25.2 407.1 407.1 0 01-71.5-21.9c-7.3-3-14.2-7.1-20.3-12.1a26.9 26.9 0 00-13.6-5.3 140.5 140.5 0 01-43.6-17.3c-18.5-10.3-36-22-50.8-37.2A95 95 0 013 975c-3.8-5-3.5-8.8.7-12.7z" class="st0"/><path d="M1104.5 946.7a12 12 0 01-1.8-2.6l-5.2-16.4c-.4 4.7-.9 9.4-1 14-.1 2.3-.9 3.2-3.1 3.7l-89.9 22.9-2 .6.6 9.3 3.6 46.8c.1 1.6.5 3.2.8 4.8a15.7 15.7 0 0012.3 13.5c7.3 1.9 14.7 3.4 22.1 5.2 6.6 1.5 13.3 2.9 19.8 4.7 2.7.7 5.2 2 7.3 3.8 3 2.6 2.6 5.8-1.1 7.2a51.1 51.1 0 01-12.8 3.2c-12.5 1.2-25.1 1.7-37.6 2.7-5.6.4-11.1 1.4-16.7 1.7-3.6.2-7.1-.1-10.6-.7a8 8 0 01-6.8-7.6c-.3-4.7-.1-9.3.5-13.9a56 56 0 00-2-23.4l-13.1-45.8-.8-2.3-17.1 4.3-46.9 11.9c-1.9.5-2.8 1.1-3 3.3l-5.3 39.9c-1.1 7.6.8 15.3 5.2 21.6 6.8 10 13.4 20.1 20 30.2 2.1 3.4 4 6.9 5.7 10.5.6 1.4 1 2.8 1.3 4.3 1.2 5.6-1.6 9.4-7.3 9.3-3.1 0-6.1-.6-8.9-1.7a58 58 0 01-28-22.3c-3.9-6.2-7.7-12.3-13.4-17.2-3.8-3.2-4.2-7.3-1.8-11.8 1.3-2.6 3.2-4.8 4.4-7.4 1-2.3 2.1-5 1.9-7.5-1.2-13.4-2.8-26.7-4.3-40l-.4-2.3-16.1 4.1-98.4 25.2c-3.3.8-3.3.8-2.9-2.5 4-29 6.1-58.2 4-87.5-.7-9.6-2.2-19.1-3.4-28.6 0-.4-.2-.7-.6-.9v74.1c-.2 28.5-9.1 54.5-23.1 79.1a68.4 68.4 0 01-42.9 32.1 213.1 213.1 0 01-63.6 6.9c-8.3-.2-16.7-.6-25-.6-5.9 0-11.7.3-17.6.4h-7.4c-5-.1-9.1-2.3-11.1-6.8-2.1-4.8-3.5-9.9-5.2-14.8l-.7-3c-9.9 2-19.7 4.3-29.5 6-29.7 5.1-59.4 10.3-89.2 15a288 288 0 01-74.2.9 1395.8 1395.8 0 01-152.2-25.2 407.1 407.1 0 01-71.5-21.9c-7.3-3-14.2-7.1-20.2-12.2a26.9 26.9 0 00-13.6-5.3 140.5 140.5 0 01-43.6-17.3c-18.5-10.3-36-22-50.8-37.2A95 95 0 013 975c-3.5-4.5-3.2-8.3 1-12.2a50 50 0 0116.9-9.7l7.1-2.7c-1-2-1.8-4-2.6-6.1a286.3 286.3 0 01-13.7-54.7c-1.5-13.7 2.2-25.5 13.9-33.5 16.2-11.2 32.4-22.5 49.2-32.8 43.9-27.2 89.3-51.8 135.7-74.6a131.4 131.4 0 0152.9-13.4c30.5-1.3 61-2.5 91.5-1.4 5.4.2 10.9.5 16.3.9 4.1.3 8 .1 11.4-2.5 22.9-17 48.5-29.3 73.7-42.3 35.2-18.2 71.3-34.7 108-49.8a170.5 170.5 0 0151.9-13.8c13.5-1 27-1.5 40.5-1.3 38 .5 76 1.5 114 2.4 18.8.5 37.5 1.5 56.3 2.2l10.8.6a45.8 45.8 0 01-.2-17.7 33.4 33.4 0 0114.8-21.4c5.4-3.6 11.2-6.7 16.8-10.2 4.2-2.6 8.1-5.5 11.9-8.6 7.1-6 11.3-13.9 13-23.1.1-1-.1-1.9-.5-2.8-1.2-2-2.6-3.8-3.9-5.7a22.6 22.6 0 00-9.3-8.3c-7.6-3.6-11.6-10.5-14.2-18.2l1.7-1.1a36 36 0 01-3.2-23.2c.3-2.1.4-3.6-1.5-5.3-4.2-3.6-4.5-9-1.4-13.9a30 30 0 0116.7-12.5c7.8-2.1 15.6-3.9 23.6-5.2 5.1-.9 6.1-1.7 6.8-6.8.5-3.7 2.8-6.9 6.1-8.6 5.3-2.8 11-3.2 17-2.5l-1.7 1c-5.2 2.9-6 6.7-1.4 10.4 4.4 3.4 6.8 8.7 6.6 14.2 0 3.6 2.1 6.2 4.5 8.6 2.2 2.1 4.6 4 6.6 6.3a10.6 10.6 0 01-.9 14.8l-.1.1c-1.1.8-2.4 1.5-3.7 2 .4 4.2 1.2 8.6 1 12.9a195 195 0 01-2.3 20.2c-1 5.1-.6 10.4 1 15.3.8 2.1 1.4 4.2 1.8 6.4 1.2 8.4-3 14.6-11.3 16.8a34 34 0 01-16.5.1c-.3 2.4-.8 4.7-1 7-.1 2 1.8 3.2 3.5 1.6.6-.6 1.3-1 2.2-1.3 1.2-.3 2.8-.8 3.5-.2.8.9 1.1 2.2.9 3.4-.6 2.4.5 3.3 2.5 4.1l21.7 8.3a33.5 33.5 0 0121.7 22.9l13.8 48.3a5.4 5.4 0 003.4 4.2l68.5 31.6a95.4 95.4 0 0037.2 8.5c19.4.7 38.6 3.1 57.6 7.1 10.5 2 20.7 5.8 30 11.1a35.5 35.5 0 0118.4 31.1c.9 25.7.4 51.4-1.5 77-1.2 17.2-2.2 34.5-4.4 51.6-1.4 9.6-3.9 19-7.5 28-4.6 11.7-10.6 23-16.2 34.3a49.7 49.7 0 01-6.2 9 23 23 0 01-18.8 9.8c-9.2 0-18.5-.2-27.8-.5-4.2-.2-6.3-3.5-8.3-6.7 2.5 2.4 5.1 4.4 8.8 4.7 5.8.4 11.7 1 17.5 1.2s11.4-.3 16.8-2.5c3.8-1.6 7.1-4.4 8.4-7-7.4 4.3-14.3 3.2-17.8.7 8 3.1 14.6.3 19.9-5.6 3.2-3.6 6-7.6 8.2-11.9 6.7-13.2 9.7-27.5 11.3-42.1 1.7-15.6 1.5-31.2.9-46.9-.3-7.9-.3-15.8-2.9-23.4a51.6 51.6 0 00-10.7-19.8c-6.2-6.5-12.9-7-19.9-1.4a51 51 0 00-7.8 7.6 104.8 104.8 0 00-19.3 39.5 142 142 0 00-1.7 64.2c2.7 14.8 7.7 28.5 20 38.5-1.3-.7-2.6-1.4-3.8-2.3a51.8 51.8 0 01-15.8-25.4c-7.7-24.7-8.2-51-1.6-76a95.9 95.9 0 0125-44.9c7.7-7.5 15.2-8.2 24.1-2.2a34.4 34.4 0 0113 17.5c3 8 3.6 16.4 3.9 24.8a309 309 0 01-2.2 58.5c-.8 5.4-1.9 10.7-2.8 16 1.5-3.1 2.9-6.3 4.1-9.6 3.1-8.5 6.3-17.1 6.5-26.3.2-6.7-.2-13.4-.7-20.1a235.1 235.1 0 00-8.1-49.2 60 60 0 00-10.8-22.3c-6.2-7.5-14-9.2-22.8-5.2a41 41 0 00-14.8 12.3 98.5 98.5 0 00-14.4 28.8 415 415 0 00-18.3 77.8c-.9 6.5-2.1 13-1.9 19.5a60 60 0 005.4 24.7zm-531.9-309l.1.5 1.2.1c18.1.3 36.2.5 54.3 1 25 .7 50 1.3 74.9 2.5 22.5 1.1 45 2.9 67.4 4.4 4.3.2 8.6.6 12.9 1.3 6.2 1.2 8.7 4.7 7.8 11a65 65 0 01-3.2 13 366.9 366.9 0 01-26.7 56.3 476.5 476.5 0 01-16.7 27.4 27.6 27.6 0 01-26.7 13.1c-21.9-1.5-43.8-2.4-65.7-3.8-18.7-1.2-37.3-2.5-56-3.9-15.9-1.2-31.9-2.4-47.8-3.8a3352.6 3352.6 0 01-98-9.3l-45.8-5.3a85.3 85.3 0 01-25.9-6.2c-.6-.2-1.3-.3-1.9-.2-3.3 0-6.6.2-9.9 0-3.9-.2-7.8-1.1-11.7-1.2-33.2-.9-66.5-.6-99.6 2.4a116.5 116.5 0 00-44.1 11.7c-24.1 12.5-48.3 25-72.1 38-36.2 19.8-72 40.5-105.6 64.6-4.5 3.2-8.6 7.2-12.8 10.8a8.2 8.2 0 00-2.6 8.1c1 5.5 2.1 11 3.3 16.4 1.4 6 4.8 11.1 8.4 15.8a79.4 79.4 0 0038.2 24.7c5.6 2 11.5 3 17.3 4.2 10.9 2.2 21.8 4.7 32.8 6.2a870 870 0 0075.6 6.9 978 978 0 00108.3-.9c24.9-1.6 49.8-3.7 74.7-6.5 26.3-2.9 52.7-6.1 78.8-10.4 32.7-5.4 65.2-11.7 97.7-18.2 13.7-2.7 27.5-5.1 40.8-9.9a6.5 6.5 0 003.7-3.2c3.8-6.3 7.5-12.8 11.9-18.7 17.2-23.5 39.6-38.5 69.3-40.7 21.2-1.6 39.4 5 53.2 21.7a92.4 92.4 0 0116 30c5.8 17.3 8.5 35.2 9.7 53.2a447.7 447.7 0 01-4 89.6l114.7-29.3-1-15-1.7.3-27 6.6-72.2 17.7c-1.6.4-2.8.5-3.1-1.9l103.8-25.5v-12.6l-1.7.4-83.3 21.5c-4.5 1.2-4.6 1.1-4.6-3.5V859.9c0-2.7-.3-5.4-.5-8.3l-33.9 8.2-.2-.9c11.2-3.3 22.7-5.4 34-8.6a235.6 235.6 0 00-17-62.4c2.4-.2 2.4-.2 3.1 1.5a259.3 259.3 0 0114.1 45.4c1 4.9 1.7 9.8 2.6 15l86.4-21.2c-3.3-20.5-6-40.7-1.7-61.2l-1.5.2c-16.8 2.8-33.6 5.9-50.5 8.4-12.2 1.8-24.4 3.1-36.7 4.6-4.1.6-8.3.9-12.4.9-5.7-.1-7.7-2.8-6.2-8.3 1.4-5 3-9.9 4.9-14.7a608 608 0 0137.2-73.9c2.7-4.7 5.7-9.3 8.8-13.7a46.2 46.2 0 0127.3-19.2l8.5-1.7c-.4-1.5-.7-2.8-1.2-4-1.5-4.2-3.1-8.4-4.5-12.7a2.6 2.6 0 00-2.8-2.2c-22.2-1.1-44.3-2.5-66.5-3.5-48.4-2.1-96.9-2.7-145.3-1.1a120 120 0 00-34.2 5l-17.2 6.2zM16.8 869l-.7 1.4-.8 2.7c-1.9 8-1.2 16.1.3 24 3.2 17.2 7.9 34.1 14.1 50.5.7 1.8.5 2.7-1.5 3.3-2.4.8-4.8 1.7-7.1 2.7-5.3 2.3-10.5 5-14.5 9.2-3.8 4-4 7.3-.6 11.5a96 96 0 008.1 8.8 232 232 0 0058.9 40.7c12.1 6.1 24.6 11 38.2 13 3.1.5 6 1.9 8.4 3.9a77.2 77.2 0 0020.3 12.5c18 7.2 36.6 13.1 55.5 17.6a1175.1 1175.1 0 00177.7 29.8 231 231 0 0051.9-1c26.9-3.6 53.7-7.4 80.5-11.6 15.1-2.4 30-6 45-9 3.6-.7 5.4-2.8 5.7-6.4.5-5.6 1.4-11.1 1.9-16.7 2.6-25.6 5.9-51.1 11.3-76.3a344 344 0 0125-77.1l.4-1.2-12.8 3c-23 4.9-46 10-69 14.5A1652 1652 0 01321.3 944a1207 1207 0 01-153.9.5c-20.2-.9-40.3-3.3-60.2-7.1-16-3-32-6-47.2-12.4a87 87 0 01-22.5-13.4 51 51 0 01-19.4-33.2l-1.3-9.4zm363.7-133.8c4.7 1.3 8.9 2.9 13.2 3.5a3244.4 3244.4 0 00140.7 14.9 7279.8 7279.8 0 0099.7 7.7c15.3 1.1 30.7 2.1 46.1 2.9l42.3 1.8c5.2.3 10.2-1.9 13.5-5.9 4.5-5 8.6-10.3 12.4-15.8a391 391 0 0035.9-69.9 117 117 0 004.8-16.3c1.2-5.4-.8-7.8-6.4-8.4-7.2-.8-14.4-1.6-21.6-2-30.3-1.6-60.6-3.4-90.9-4.5-33.9-1.2-67.8-1.8-101.7-2.6-1.3 0-2.7.2-3.9.7a1326.3 1326.3 0 00-130 61.1c-18.4 9.7-37.1 19.2-54.1 32.8zm797.1 7.6l.2.5-2.6 1.4c-9.5 3.8-18.8 8.4-28.7 11.1-51.2 14.3-102.5 28-153.8 42l-11.6 3v1.1c3 14.7 6 29.3 8.8 44 3 15.9 7.5 31.6 5.6 48.2.4-.6.6-1.2.8-1.8 7.9-31.8 19.4-62.6 23.7-95.3.1-.8 1.1-1.6 1.7-2.3l.7.4c0 1.1-.1 2.2-.3 3.2-1.5 8.3-2.7 16.6-4.8 24.7-6.9 26.2-14.2 52.2-21.3 78.4-.5 1.8-.6 3.7-.4 5.5l1.7 16 1.3 12.7 29-7 .2.8-29.2 7.5 1.2 13.8 2.5-.5 33.6-8.3 44.3-10.9c1.5-.4 3.1-.9 3.2 1.8l-2.2.7-37.8 9.3c-13.7 3.3-27.4 6.7-41 10.2-.8.2-2.1 1-2.1 1.5.1 4.2.5 8.4.8 12.7l1.3-.3c17.1-4.2 34.3-8.4 51.4-12.8l37.4-9.8a3 3 0 002.6-3.2c0-2.9.2-5.8.5-8.6 1.8-13.9 3.4-27.9 5.4-41.7 2.6-17.5 5.7-34.9 10.7-51.8a139 139 0 0119.8-42.8 40.8 40.8 0 0118.3-15.3c9.5-3.6 17.9-1.6 24.3 6.2 2.5 3.1 4.6 6.5 6.4 10.1 4.1 8.5 7.1 17.5 8.7 26.8 1.9 10.7 3.3 21.5 4.9 32.3l.2-3.6c1-15.4 2.1-30.7 2.8-46.1a403 403 0 00-.2-57.1 32.8 32.8 0 00-17.4-27.6c-7.5-4.2-15.5-7.5-23.7-9.8-21.7-6.1-43.9-8-66.3-8.6a74 74 0 01-28.7-5.9l-71.4-33-2.7-1.2c.5 4.3 1.2 8.3 1.5 12.3a4 4 0 002.3 3.5c8.1 4.8 16.2 9.6 24.2 14.6 2.2 1.4 4.2 2.9 6 4.7 3.8 3.7 3.8 6.8 0 10.5-1.7 1.6-3.5 3-5.3 4.3-13 9.3-27.3 16.2-41.9 22.5-2.3 1-3.6 1.9-2.8 4.8.6 2.3.5 4.7.9 7.1l7.6 40.3 2.4 11.7 2.1-.4 149.2-40.3c15-4 30-8.2 43.8-15.5l2.2-.7zm-301.4-12.6l-.7 1.8c-2.5 9.7-5.3 19.3-7.3 29.1-3 14.4-4.1 28.9-2.2 43.6l12.4 95.8a76.6 76.6 0 01-1.9 32.3 139 139 0 00-5.5 44.9c.7 16.6 2.1 33.2 3.2 49.9 0 1.5.9 2.9 2.3 3.4 2.1 1 3.9 2.8 6.1 3.7 2.3.8 4.6 1.4 7 1.6 2.1.2 3-.9 3.2-3.2.8-9.4 1.3-18.8 2.8-28.1 3.7-23.4 7.8-46.8 11.8-70.1 3.7-21.4 7.3-42.9 8.3-64.7 1.4-30.1 2.4-60.1 3.6-90.2 0-1.4.2-2.9.6-4.3.5-2.2 1.8-4.1 4.2-4.1s2.5 2.4 3 4.1l23 83.7c3.1 11.2 5.9 22.5 9 33.7 2.7 9.8 2 19.7 1.3 29.7-.5 8.2-.5 16.3 1.6 24.3l20.2 75.2c.7 2.7.8 6.2 2.5 7.7s5.4 1.4 8.3 2c3.8.7 6.9-.7 9.5-3.2.5-.5.7-1.3.7-2a4614.4 4614.4 0 00-7.8-98.1c-1.2-12.7-2.7-25.3-1.9-38.2.3-4.1.1-8.2-.6-12.2a3336 3336 0 00-11.7-63.1c-4.8-25.2-11.4-50.2-14.1-75.8-.4-4-1.3-6.8-5.4-8.1-1.7-.5-3-2.2-4.4-3.4l-.8-1.4.4-.5 9.4 6.1-1.1-13.1c-29.1 10.2-57.3 5.1-85.4-3.4l-3.4 13.8 2.3.7c4.8 1.3 9.1-.1 13.2-2.2 1.1-.6 2.2-1.1 2.8.6a18.8 18.8 0 01-18.5 1.7zm-95.6 261.5h1.1l84.5-21.7c1.5-.4 1.8-1.2 1.8-2.5a125 125 0 015.3-30.3 76.7 76.7 0 002.9-33c-2.4-16.6-4.3-33.3-6.4-50l-3.2-24.5-86.1 21.2.1 140.8zM749 949.4c-.1-9.2.1-18.4-.1-27.5-.2-7.6-.4-15.2-1.2-22.7a78.3 78.3 0 00-21.3-44.2 50.2 50.2 0 00-27.2-15.7 76.9 76.9 0 00-72.1 20.5 145.7 145.7 0 00-32.1 47.4 402.5 402.5 0 00-30.2 116.7l-5.5 45.3c-.4 3.2-1.8 6.4-1.5 9.4.5 6.3 2.4 12.4 5.7 17.8 2.2 3.6 5.2 6 9.6 6.3 2.3.1 4.6.5 6.9.5 19.8.1 39.6.3 59.4.2 14.6-.3 29.2-2.2 43.3-5.9a66 66 0 0044.7-34.6 330 330 0 0010.4-21.6 126.5 126.5 0 0011.4-48l-.2-43.9zm18.5-169.1l.1.4c19.1-2.5 38.3-4.8 57.3-7.5 12.5-1.8 24.9-4.2 37.4-6.4 1.3-.2 2.6-.2 3.1-2.3 2.9-12.5 5.8-25 9-37.4 2-7.8 4.2-15.4 3.2-23.5 0-1.2-.7-2.4-1.7-3a46.7 46.7 0 01-18-20.6c-4.2-8.7-8.1-17.6-12-26.4-.9-2-2-2.3-3.9-2a42.6 42.6 0 00-31.5 19.9 538 538 0 00-48.6 94.2c-1 2.6-1.7 5.4-2 8.1-.6 4.2 1.4 6.2 5.5 6.4l2.1.1zm136.1-191.5c-5.1 1.5-9.6 3.2-14.2 4.1s-5.5-.8-4.6-5.3c1.2-5.8 1.9-11.7 2.8-17.5-7.8 9.1-18.6 13.4-28.6 19a87.8 87.8 0 00-6 3.8c-12.1 8.7-15.8 20.9-13.4 34.8 1.5 8.4 4.6 16.6 7.8 24.5a473 473 0 0015 32.3 29 29 0 0010 11.7 74 74 0 016.5 4.4 25 25 0 0025.4 4.3c11.2-3.8 22.4-7.9 33.6-11.8 1.7-.6 2-1.5 1.8-3.1-.6-4.8-2.3-9.4-5-13.5-2.7-4.3-1.6-3.8-6.4-2.9-10.5 2.1-21 4.3-31.4 6.6-2.1.5-3.2-.1-4.1-2-6-13.1-12.3-26.1-18.1-39.3-2.6-5.9-4.2-12.3-6.3-18.4l.9-.4c.5.9 1 1.8 1.3 2.7l1.9 6.9c4.9 15.9 12.5 30.6 19.6 45.5 1.2 2.6 2.6 3.2 5.2 2.4 9-2.5 18-4.8 27.4-5.6 4.1-.3 4-.6 3.6-4.7l-.3-3.3c-1.7-12-5.9-23.2-10.2-34.3-4.4-11.4-9-22.7-11.3-34.8-.2-2.6-.4-5.2-2.9-6.1zm27.6 117.7l1.5.2a126 126 0 0042.7-5.5c5.7-1.5 8.7-5.2 9.3-11a80 80 0 00-2.2-30.8c-4.9-17.9-10.2-35.8-15.4-53.6-2-7.3-7.2-13.2-14.2-16.1-9.5-4.1-19.2-7.6-29.3-11.6l.7 6.1c.3 1.9 1 4 1.2 6 .2 2.6-1.4 4-4 3.6-1.4-.3-2.8-.7-4.1-1.3-2.2-1-4.3-2.3-6.5-3.4l-2.6 2.1c1.3 9.2 4.1 17.9 7.3 26.5 6.4 17.4 14.4 34.3 15.5 53.4 6.2-.9 11.1-3.2 14-9 2.3-4.5 5.3-8.3 11.5-5.9a147 147 0 00-5.5-45.7c2.3-.6 2.7.7 3.2 2.2 3.7 13.2 5.4 26.9 5 40.6-.2 3.2.8 6.3 2.6 8.9 5.6 7.9 4.5 15.5-2.7 22a31 31 0 01-6.6 4.8c-6 3-12.1 5.7-18.2 8.4-3.4 1.5-4 2.1-3.8 5.8l.6 3.3zm-11 109.9c-.3 48.2-5.3 96.3-15 143.5l53.5-13.8v-1.4a81.5 81.5 0 01-.6-25.6c.8-8.9.7-17.8-1.7-26.6l-21.1-77.9-.7-1.9-14.4 3.7zM885.7 521l-1 .6c-1.2-.6-2.2-1.4-3.2-2.3a9.8 9.8 0 00-9-3.8c-2.9.2-3.4 1.2-2 3.8 2.4 4.5 5.7 8.3 10.3 10.6s7.8 5.7 10.5 10c3.5 5.3 7.3 10.4 11.4 15.3 6.2 7.2 14.5 9.3 23.7 8.5s15.1-7.2 14.2-15.5c-.3-2.5-.8-5-1.7-7.4a30.6 30.6 0 01-1.2-15.3l.8-4.5c-2.1 2.6-4.8 2.9-7.7 2.8a5.6 5.6 0 01-5.3-4.4c-.9-3.2-.3-5.4 2.1-6.9 3.9-2.5 7.9-3.8 12.2-.2.9-6.9.4-13.8-1.3-20.5a6 6 0 00-.9-1.5 25.3 25.3 0 01-3.1-4.2 9.3 9.3 0 00-5.8-5 30 30 0 00-16.8-.6c-4.7 1.2-9.2 3-13.8 4.3l-15.1 4.3 2.7 31.9zm42.2-85.8l-5.9.7c-5.8 1-10.2 5.1-10.8 10.3-.5 4.6-1.8 6.1-6.4 6.8-3.5.6-7.1.9-10.6 1.6a61.3 61.3 0 00-19.6 6.1 22.6 22.6 0 00-10.7 11.5c-1.8 5-.5 9.9 3.7 12.3 2.1 1.2 4.5 1.8 7 1.9 8.8.2 17.5-1.5 25.6-4.7a46.2 46.2 0 0124.9-3.8c5.3.9 10 2.8 12.8 7.8.6.9 1.3 1.7 2.1 2.5 1.3 1.6 2.4 1.1 3.6-.1a9.5 9.5 0 00.9-12.4 26.5 26.5 0 00-6.2-6.3c-4.9-3.2-7.1-7.2-6.1-13.1.6-3.4-1.1-6.1-3.7-8.2l-2.9-2.1c-4.6-3.5-4.2-7.3.9-10 .3-.1.6-.2 1.4-.8zm-51 609.4l-4.8 10.3c-.7 1.5-1.8 2.9-2.6 4.4-2.2 4.6-1.2 8.4 2.6 11.8 2.5 2.4 4.8 5 6.9 7.7 1.8 2.3 3.1 4.9 4.6 7.3a56.4 56.4 0 0029.2 23.2 25 25 0 006.6 1.4c3.1.2 4.8-1.4 4.4-4.5-.4-3-1.2-6-2.3-8.8-3.2-8.3-8.7-15.3-13.8-22.5-5.9-8.3-12.3-16.4-15.4-26.7a19.2 19.2 0 01-15.4-3.6zm108.8-4.3l-.5 5.7-.7 5.8c-.3 2.9-.4 5.7-.3 8.6.3 5.2 2.8 8.4 7.9 9.5 3 .6 6 .8 9.1.6 5.9-.5 11.8-1.7 17.7-2.2 12.2-1 24.4-1.8 36.6-2.3 5.3-.2 8.5-2.7 10.7-7.1-2-2.4-4.7-4-7.8-4.5-8.2-1.8-16.4-3.5-24.6-5.5-9.5-2.4-19.8-3-26.9-11-6.1 4.3-8.4 4.6-21.2 2.4zm-16.4-303.5c9.8-4.8 19.1-9 28.1-14 6.2-3.4 12.2-7.4 17.8-11.8 6.2-4.9 6-7.4 0-12.8a111.6 111.6 0 00-27.3-17.5l-1.2 11.9c-.5 5.4-3.5 8.7-8.7 10l-11.2 2.9 2.5 31.3zm-68.9 256.4l66-16.9-3.8-13.5-58 14.3c-.7.2-1.8.9-1.9 1.6-.9 4.6-1.5 9.3-2.3 14.5zm58.7-45.7h-.7l-51.5 13.3c-.6.2-1.4.7-1.5 1.1l-2 12.8 58.6-14.5-2.9-12.7zm-31.3-239.7c-2.5-.7-4.7-.9-6.5-1.8-4.1-2.1-9-2.1-13.1 0-1.6.6-3.2 1.1-4.9 1.4a24.2 24.2 0 01-18.1-1.4l-5-2.7c0 3.2-.1 6.1.1 9 .2.7.7 1.3 1.4 1.6a195 195 0 0042.8 8.8c1.3.1 2.1-.3 2.2-1.7.2-4.3.6-8.7 1.1-13.2zm.8 14.8c.9.1 1.9.2 2.8.1 6.7-.7 13.3-1.2 20-2.2 4.1-.8 8.1-1.9 12-3.3.7-.2 1.7-1.2 1.7-1.9-.1-3-.4-6-.7-9.3-11.6 2.3-23 3.5-34.6 2.1l-1.2 14.5zm20.2-33.7c3.1-2 5.8-3.5 8.3-5.5a16 16 0 002.7-22.7c-2.7-3.6-6.7-3.9-9.8-.7l-2.3 3-5.5 7.8c4 5.3 6.3 11.6 6.6 18.1zm-66.7-171.3l.8-.2-2.5-28.4-12.9-1.3c-1.6 7.6-2 15.4 1.5 23 .3.8 1.1 1.8 1.8 1.8 4.4.3 8 2.4 11.3 5.1zm41.4 256l-1.3.4-1.6 41 13.8-3.5-.4-1.8-5.7-22.2c-.9-3.6-1.7-7.3-2.7-10.8-.4-1.1-1.4-2-2.1-3.1zM913 563.1a33 33 0 01-16.6-13.1l-4.6 13.2a62 62 0 007.5 5.1c4.5 2.4 7.1 5.6 6.4 10.9l.5.4 1.3-3.8c.7-2.1.9-4.4 3.8-4.8.3 0 .7-.7.7-1.1l1-6.8zm-9.8 18l-3.5-4.6c-1.7-2-3.2-4.2-5.1-6-2.3-2.4-4-2-5.3 1.1-.5 1.5-.9 3.1-1.1 4.7l-2 12.5c-.5 3-.1 3.8 2.8 3 4.1-1.2 8-2.7 12-4.2a2 2 0 001.1-1.4l1.1-5.1zm9 6.1l-.5.6c2.6 1.3 5.1 2.7 7.7 3.7 1.2.4 2.6.3 3.8-.2.5-.3.5-2.1.2-3.2-.8-4.2-1.7-8.3-.7-12.6.2-.9.1-2.6-.2-2.7-1-.3-2.5-.4-3.2.2-3.2 2.6-6.2 5.6-9.3 8.4l.9.3 1.3 5.5zm-20.1 450c-6.8 2.7-11.9-.8-17.5-4.7l1.2 8.9c.1.4.3.8.7 1 3.8 2.7 7.9 4.5 12.8 4 2.1-.2 3.2-1 2.9-3.4l-.1-5.8zm92.5-5c.2 1.9.3 3.4.6 4.9.1.5.4 1.3.8 1.4 5 1.5 10 3 15.1.8 4.5-2 4.8-2.8 3.1-7.4l-.5-.4c-5.9 5.2-12.4 1.4-19.1.7zm-42.2-341c4.3-1.2 4.5-1.5 3.9-5.6-.6-4.7-2.5-9.2-5.4-13-.5-.6-1.2-1-2-1-1.6.3-3.1.8-4.6 1.3a38.3 38.3 0 018.1 18.3zM907 581.9c-1.6-.1-3.3 1.7-3.4 3.5.1 2 1.6 3.6 3.6 4 1.5 0 3.4-2.2 3.4-4.1.1-1.7-1.7-3.3-3.6-3.4zm-18.2-14.5c2.8-1.1 4.7.1 6.4 2l5.8 6.7 2.4 3.1-.4-3.8c-.2-1-.2-2.2-.8-2.7-3.8-2.8-7.7-5.4-11.7-8.1l-1.7 2.8zm41.1-45c5.7.7 9.7-3.7 8.5-8.7-.5-1.9-1.6-2.8-3.7-2.4 1.9 6.6 1 8.6-4.8 11.1zm1.5-10.5c-1.5.9-3.8 1.1-3.2 3.5a20 20 0 001.7 4c.9-.5 2.2-.7 2.7-1.5 1.4-2.2.2-4.1-1.2-6zm-19.2 61c-3.6 1.4-2.9 5-4.5 8.2l6.1-6.4-1.6-1.8zm12.9 127.7c-.3 5.4-.1 5.8 3.4 5.2l-.4-6.2-3 1zm-2.8.9l-5.8 1.9 5.8 1.7v-3.6z"/><path d="M1104.5 946.7c-3.6-8-5.6-16.6-5.8-25.4-.2-6.5 1-13 1.9-19.5a414 414 0 0118.3-77.7 98.5 98.5 0 0114.4-28.8c3.9-5.2 8.9-9.4 14.7-12.3 8.8-4.1 16.6-2.3 22.8 5.2a62.4 62.4 0 0110.8 22.3 234 234 0 018.1 49.2c.5 6.7.8 13.4.7 20.1-.2 9.2-3.4 17.8-6.5 26.3-1.2 3.3-2.6 6.5-4.1 9.6a309.3 309.3 0 005-74.5c-.3-8.4-.8-16.8-3.9-24.8-2.7-7-6.5-13.3-13-17.5-9-5.9-16.5-5.3-24.1 2.2a95.9 95.9 0 00-25 44.9c-6.7 25-6.2 51.3 1.5 76a53 53 0 0015.8 25.4c1.2.9 2.5 1.7 3.8 2.3l2.1 1.2c3.5 2.5 10.4 3.6 17.8-.7a17.1 17.1 0 01-8.4 7c-5.4 2.3-11 2.8-16.8 2.5l-17.5-1.2c-3.6-.2-6.3-2.3-8.8-4.7-1.1-2.3-2.5-4.7-3.8-7.1z" class="st0"/><path d="M572.6 637.7l17.4-6a120 120 0 0134.2-5c48.5-1.6 96.9-1 145.4 1.1 22.2 1 44.3 2.3 66.5 3.5 1.4-.1 2.6.8 2.8 2.2 1.3 4.3 3 8.5 4.5 12.7l1.2 4-8.5 1.7a45.9 45.9 0 00-27.3 19.2c-3.2 4.4-6.1 9-8.8 13.7-13.7 24-27 48.2-37.3 73.8-1.9 4.8-3.6 9.7-4.9 14.7-1.5 5.5.5 8.2 6.2 8.3 4.2 0 8.3-.3 12.4-.9 12.2-1.4 24.5-2.7 36.7-4.6 16.9-2.6 33.7-5.6 50.5-8.4l1.5-.2c-4.3 20.5-1.6 40.7 1.7 61.2l-86.4 21.2c-.9-5.2-1.6-10.1-2.6-15a268 268 0 00-14.1-45.4c-.7-1.7-.7-1.7-3.1-1.5a235.6 235.6 0 0117 62.4c-11.3 3.2-22.8 5.2-34 8.6l.2.9 33.9-8.1.5 8.3v129.3c0 4.5.1 4.6 4.6 3.5l83.5-21.5 1.7-.4v12.6l-103.8 25.5c.3 2.4 1.5 2.3 3.1 1.9a9483 9483 0 0172.2-17.7l27-6.6 1.7-.3 1 15-114.7 29.4 1.7-13.7c2.6-25.2 4.1-50.5 2.3-75.9-1.2-18.1-3.9-36-9.7-53.2a90.5 90.5 0 00-16-30 59.4 59.4 0 00-53.2-21.7c-29.7 2.2-52 17.3-69.3 40.7-4.4 5.9-8 12.4-11.9 18.7a6.3 6.3 0 01-3.7 3.1c-13.2 4.8-27.1 7.2-40.8 9.9a2988 2988 0 01-97.6 18.2 1683.7 1683.7 0 01-153.5 16.9 978.3 978.3 0 01-108.3.9 870 870 0 01-75.6-6.9c-11-1.5-21.9-4-32.8-6.2-5.8-1.2-11.7-2.2-17.3-4.2a79.4 79.4 0 01-38.2-24.7 41.1 41.1 0 01-8.5-15.8c-1.2-5.4-2.3-10.9-3.3-16.4-.8-3 .2-6.1 2.6-8.1 4.2-3.6 8.3-7.6 12.8-10.8 33.7-24 69.4-44.7 105.6-64.6a3087 3087 0 0172.1-38 120.3 120.3 0 0144.1-11.7c33.2-3 66.4-3.3 99.6-2.4 3.9.1 7.8.9 11.7 1.2 3.3.2 6.6 0 9.9 0a4 4 0 011.9.2c8.2 3.8 17 5.1 25.9 6.2 15.3 1.8 30.5 3.7 45.8 5.3 14.4 1.6 28.9 3.1 43.4 4.4a10057.5 10057.5 0 00102.4 8.7c18.7 1.4 37.3 2.7 56 3.9 21.9 1.3 43.8 2.3 65.7 3.8 11.7.8 20.5-3.7 26.7-13.1 5.9-8.9 11.3-18.1 16.7-27.4a376 376 0 0026.6-56.3c1.5-4.2 2.6-8.6 3.3-13 1-6.3-1.5-9.8-7.8-11-4.3-.7-8.6-1.1-12.9-1.3-22.5-1.5-44.9-3.3-67.4-4.4-25-1.2-50-1.8-74.9-2.5-18.1-.5-36.2-.7-54.3-1l-1.2-.1-.5-.8zm28.3 241.7c-1.2-3-1.2-2.9-3.4-2.2-11.2 3.7-22.2 8-33.6 11a669.3 669.3 0 01-101.4 17.3 1557 1557 0 01-78 6.7c-32.8 1.9-65.5 3.4-98.4 3.9-43.9.7-87.7 1-131.4-4.4-17-2.1-33.9-5-50.4-10.2A126.5 126.5 0 0164.2 882a44.1 44.1 0 01-18.5-28.9c-.2-.8-.5-1.5-.9-2.2l-.7.2.4 2.9a45 45 0 0011 21.2 90 90 0 0033.3 22.1 271.6 271.6 0 0084.8 18.3c15.1 1.2 30.2 2 45.3 2.2 27.1.5 54.2 1 81.4.5 30-.6 60-2.2 89.9-3.8 18-1 35.9-2.8 53.8-4.7 17.7-1.8 35.3-4.1 52.9-6.4 23-3 45.9-6.7 68.3-12.9 12-3.2 23.6-7.3 35.7-11.1zm-282.5 12l.3.6 1.2.1c20.9-1.4 41.7-2.6 62.5-4.4 15.7-1.2 31.2-4 46.3-8.4 29-8.8 56-22.1 82.2-37 4.3-2.6 8.4-5.5 12.2-8.8 4.8-3.9 4.4-7.5-1-10.5a81 81 0 00-52.4-7.1 148.5 148.5 0 00-34.6 13.4 17951 17951 0 00-114.7 60.4l-2 1.7zm322.4-124l-.1-1.1c-.8-.2-1.7-.3-2.6-.3-10.9 1.7-21.9 3-32.7 5.3a2819 2819 0 00-81.4 18.6c-45.9 11.4-91.2 25-135.2 42.3a425.8 425.8 0 00-70 33.9c-.3.4-.4.8-.3 1.3.3.4.8.6 1.3.5a1285.1 1285.1 0 01199.5-74.5 1286 1286 0 0197.2-21.6c7.2-1.3 14.4-2.3 21.6-3.4l2.7-1zm-27.3 91.7c1.9 1.2 2.7.1 3.6-.9a93.1 93.1 0 0132.9-23.6 148.3 148.3 0 0159.2-11c17 .1 34 1.9 50.6 5.5 1 .1 2 0 3-.1v-1l-2-.6c-10.4-1.6-20.8-3.5-31.2-4.6a179.4 179.4 0 00-59.8 3.2 102 102 0 00-54.4 30.7c-.7.7-1.2 1.5-1.9 2.4zm-529.3-8.2l-.9 1.1 2.5 1.7a95.2 95.2 0 0031 18.2 257.3 257.3 0 00107.9 15.2l1.3-.3c-1.9-.4-3.9-.5-5.8-.4a252.1 252.1 0 01-91.3-11.4c-15.5-5-30.4-11.4-42.3-23-.8-.5-1.6-.8-2.4-1.1z" class="st0"/><path d="M16.8 869l1.3 9.5a51.4 51.4 0 0019.4 33.3 84.9 84.9 0 0022.4 13.4c15.2 6.4 31.2 9.4 47.2 12.4 19.9 3.8 40 6.1 60.2 7.1a1212.3 1212.3 0 00153.9-.5c25.7-1.7 51.3-4.5 76.9-7.3 38.5-4.3 76.7-10.5 114.8-17.9 23.1-4.5 46-9.6 69-14.5l12.8-3-.4 1.2a342.3 342.3 0 00-25 77.1 701.7 701.7 0 00-11.3 76.3c-.6 5.6-1.4 11.1-1.9 16.7-.3 3.7-2.2 5.7-5.7 6.4-15 3-29.9 6.6-45 9-26.8 4.3-53.6 8-80.5 11.6a237 237 0 01-51.9.9 1159.4 1159.4 0 01-177.6-29.8 397.6 397.6 0 01-55.5-17.6c-7.4-3-14.3-7.2-20.3-12.5-2.4-2-5.3-3.4-8.4-3.9-13.6-2-26.1-6.8-38.2-13a230.3 230.3 0 01-58.9-40.7 138 138 0 01-8.1-8.9c-3.4-4.2-3.2-7.6.6-11.5 4.1-4.3 9.2-6.9 14.5-9.2 2.3-1 4.7-2 7.1-2.7 2-.6 2.2-1.5 1.5-3.3a295.7 295.7 0 01-14.1-50.5 57.1 57.1 0 01.5-26.7l.7-1.4zm127.6 113.1v7.7c.7 14 6.3 25.9 15.8 36.1a61.7 61.7 0 0032.6 17.9 680 680 0 0052.8 9.7c31.3 4.1 62.8 7.3 94.2 10.5 6.5.7 13.2.1 19.8-.3 4.5-.2 5.8-2.8 4-6.9-.8-1.9-1.8-3.6-3-5.3-4.9-7-9.8-14.1-15-20.9-11.8-15.7-23.8-31.2-35.8-46.8a22.8 22.8 0 00-4.6-4.7c-1.7-1.2-3.7-2-5.8-2.4a44 44 0 00-8.9-.6l-40 .9c-36.3.9-72.6 1.7-108.8 2.8-9.9.1-19.7 1.6-29.2 4.3l-2.3 1 .2 1c1.1.1 2.2 0 3.3-.2 10-2.8 20.3-3.5 30.7-3.8zm394.2 80l-3.3.6-39.7 4.9c-18.5 2.3-36.9 4.7-55.4 6.9-14.6 1.8-29.2 3.3-43.8 5-14.5 1.6-28.9 3.2-43.5 2.7-3.7-.1-7.5-.6-11.2-.8-.7 0-1.4.6-2 1 .6.4 1.1 1.2 1.7 1.3 2.5.4 5.1.6 7.6.6 12.7-.6 25.5-1 38.2-2 16.2-1.3 32.3-3 48.4-4.8 17.5-2 34.9-4.1 52.4-6.4 16.9-2.2 33.8-4.7 50.8-6.9 2.1-.3 2.6-1.1 2.7-3.1.9-16.9 1.8-33.8 2.9-50.6.9-14.2 4.1-28.1 9.3-41.4a314.4 314.4 0 0120.1-39.7l1.3-2.8-.7-.7c-.8.5-1.8.9-2.2 1.6-1.5 2.3-2.8 4.8-4.2 7.3a249.6 249.6 0 00-19.6 41.9c-5.8 17.1-6.9 34.9-8.1 52.7-.7 10.7-1.1 21.7-1.7 32.7zm24.6-129.3c-1.2-2-2.7-1.6-4.2-1.1-13 3.9-25.8 8.5-39 11.4a40.8 40.8 0 00-29.9 23.9c-6.8 14.4-14.2 28.5-21.3 42.8l-1.1 2.5c1.5.3 2.7.8 3.8.7l21.4-2.9a36.7 36.7 0 0028-17.7c5.4-8.5 11.7-16.5 17.6-24.7l24.7-34.9zm-27.4 80.4c.4-1.8-.7-2.1-2.8-1.8-14.5 2.2-29.1 4.2-43.6 6.6-7.5 1.2-14.9 3.2-22.3 5-1 .3-1.9 1-2.4 1.9l-18.9 36.1c-.3.7-.4 1.5-.4 2.3l2.4.3c4.7-.8 9.4-1.5 14-2.4L513 1051c8-1.6 13.8-6.1 17.1-13.8s4.8-15.3 5.7-24zm-419.1 13.6l-.8-2.6-11-25.2a10.5 10.5 0 00-5.8-5.7 10725 10725 0 01-50-21.4c-1.9-.8-2.7-.6-3.1 1.6-1.3 7.5-2.6 15-4.2 22.5-.6 2.6.1 3.5 2.5 4.4l69.3 25.4c.6.3 1.5.5 3.1 1zm-85-71.4c.8 4.7 7 17.1 8.7 17.8.7-2.4-6.5-17.5-8.7-17.8z" class="st0"/><path d="M380.5 735.2c17-13.6 35.7-23.1 54.1-32.8C477 680 520 659 564.5 641.1c1.2-.5 2.6-.7 3.9-.7 33.9.8 67.8 1.4 101.7 2.6 30.3 1.1 60.6 2.9 90.9 4.5 7.2.4 14.4 1.2 21.6 2 5.5.6 7.6 3 6.4 8.4-1.2 5.6-2.8 11-4.8 16.3a391 391 0 01-35.9 69.9c-3.8 5.5-8 10.8-12.4 15.8a16 16 0 01-13.5 6c-14.1-.6-28.2-1-42.3-1.8a4936 4936 0 01-99.3-6.8l-46.5-3.8c-17.8-1.5-35.5-3.2-53.3-4.9a3417.8 3417.8 0 01-87.4-10c-4.2-.5-8.4-2.1-13.1-3.4z" class="st0"/><path d="M1177.6 742.8l-1.8.5a200.2 200.2 0 01-43.8 15.5l-149.2 40.3-2.1.4-2.4-11.7-7.6-40.3c-.4-2.3-.3-4.8-.9-7.1-.8-2.8.5-3.8 2.8-4.8a216.8 216.8 0 0041.9-22.5c1.9-1.3 3.7-2.7 5.3-4.3 3.8-3.7 3.8-6.8 0-10.5a30.4 30.4 0 00-6-4.7c-8-5-16.1-9.8-24.2-14.6a4 4 0 01-2.3-3.5l-1.5-12.3 2.7 1.2 71.4 33a70.6 70.6 0 0028.7 5.9c22.4.6 44.6 2.5 66.3 8.6 8.2 2.4 16.2 5.7 23.7 9.8a32.8 32.8 0 0117.4 27.6 403 403 0 01.2 57.1c-.7 15.4-1.9 30.7-2.8 46.1-.2 1.2-.2 2.4-.2 3.6-1.6-10.8-3-21.6-4.9-32.3-1.6-9.3-4.6-18.3-8.7-26.8-1.7-3.6-3.9-7-6.4-10.1-6.4-7.8-14.8-9.8-24.3-6.2-7.9 3-13.5 8.7-18.3 15.3a138 138 0 00-19.8 42.8 384 384 0 00-10.7 51.8c-2 13.9-3.7 27.8-5.5 41.7-.3 2.9-.5 5.8-.5 8.7a3 3 0 01-2.6 3.2l-37.4 9.8-51.4 12.8-1.3.3c-.3-4.3-.7-8.5-.8-12.7 0-.5 1.3-1.3 2.1-1.5l41-10.2 37.8-9.3 2.2-.7c-.1-2.7-1.7-2.1-3.2-1.8l-44.2 10.9-33.6 8.3-2.5.5-1.2-13.8 29.2-7.5-.2-.8-29 7-1.3-12.7-1.7-16a17 17 0 01.4-5.5c7.1-26.1 14.4-52.2 21.3-78.4 2.1-8.1 3.3-16.5 4.8-24.7l.3-3.2-.7-.4c-.6.8-1.6 1.5-1.7 2.3-4.3 32.7-15.8 63.5-23.7 95.3l-.8 1.8c1.9-16.5-2.6-32.3-5.6-48.2-2.8-14.7-5.9-29.3-8.8-44v-1.1l11.6-3c51.3-13.9 102.6-27.7 153.8-42 9.8-2.7 19.1-7.3 28.7-11.1l2.6-1.4-.6-.4zm-132.4 131.5c-2.2.4-4.4.7-6.5 1.3-.8.3-1.4 1.1-1.6 1.9 0 13.3.2 26.5.4 39.8 0 4.2.7 8.6-4.3 10.9l6.5-1.8v-3.1l-.1-44.1c0-2 .7-2.9 2.4-3.5 1.2-.4 2.2-.9 3.2-1.4l7.5-.6 32.3-6.1 15.3-3-.2-1-54.9 10.7zm-3.5-159v.7l19.6 40.8c1 2.1 2.4 1.1 3.4 0 4.1-4.5 8.4-8.9 12.1-13.7 1.9-2.5 3.3-5.3 4.3-8.3 3.2-8.9-.4-17.1-9-21.1a31.7 31.7 0 00-17.2-2.2c-4.6.3-9.1 1.6-13.2 3.8z" class="st0"/><path d="M876.2 730.2c6.7 2.9 12.8 2 18.6-1.7-.7-1.7-1.7-1.2-2.8-.6-4.2 2.1-8.5 3.6-13.2 2.2l-2.3-.7 3.4-13.8c28.1 8.5 56.3 13.6 85.4 3.4l1.1 13.1-9.4-6.1-.4.5c.2.5.4 1 .8 1.4 1.4 1.2 2.8 2.8 4.4 3.4 4.2 1.3 5 4.1 5.4 8.1 2.7 25.7 9.3 50.6 14.2 75.8 4 21 7.9 42 11.7 63.1.7 4 .9 8.1.6 12.2-.8 12.8.7 25.5 1.9 38.2a3519 3519 0 013.9 45.7l3.9 52.4c.1.7-.2 1.5-.7 2-2.7 2.5-5.8 3.9-9.5 3.2-2.8-.5-6.4-.3-8.3-2s-1.8-5-2.5-7.7a16495 16495 0 00-20.3-75.2c-2.2-8-2.1-16.1-1.6-24.3.6-9.9 1.4-19.8-1.3-29.6-3.1-11.2-5.9-22.5-9-33.7l-23-83.7c-.5-1.7-.5-4.1-3-4.1s-3.7 1.9-4.2 4.1c-.3 1.4-.5 2.8-.6 4.3-1.2 30.1-2.2 60.2-3.6 90.2-1 21.8-4.6 43.2-8.3 64.7-4 23.3-8.1 46.7-11.8 70.1-1.5 9.3-2 18.8-2.8 28.1-.2 2.3-1.1 3.4-3.2 3.2-2.4-.2-4.7-.7-7-1.6-2.2-.9-4-2.6-6.1-3.7a3.7 3.7 0 01-2.3-3.4c-1.1-16.7-2.5-33.2-3.2-49.9-.7-15.2 1.2-30.3 5.5-44.9a78.4 78.4 0 001.9-32.3l-12.4-95.8c-1.9-14.7-.8-29.2 2.2-43.6 2-9.8 4.9-19.4 7.3-29.1a6 6 0 01.6-1.9z" class="st0"/><path d="M780.6 991.7V850.9l86.1-21.1 3.2 24.5c2.1 16.7 4 33.4 6.4 50 1.6 11.3.3 22.2-2.9 33-3 9.8-4.8 20-5.3 30.2 0 1.3-.3 2.1-1.8 2.5l-84.5 21.7h-1.2z" class="st0"/><path d="M749 949.4v43.9c-.2 16.8-4.8 32.7-11.4 48-3.1 7.3-6.7 14.5-10.4 21.6a65.8 65.8 0 01-44.7 34.6 181.4 181.4 0 01-43.3 5.9c-19.8.1-39.6-.1-59.4-.2-2.3 0-4.6-.4-6.9-.5-4.4-.2-7.4-2.7-9.6-6.3a41.5 41.5 0 01-5.7-17.8c-.2-3.1 1.1-6.3 1.5-9.5l5.5-45.3c5-40.2 13.4-79.5 30.2-116.7 7.9-17.6 17.9-34 32.1-47.4a77 77 0 0172.1-20.5c10.5 2.2 20 7.7 27.2 15.7a78.3 78.3 0 0121.3 44.2c.9 7.5 1.1 15.1 1.2 22.7.4 9.3.2 18.4.3 27.6zm-157.8 34.4c.9 10.5 1.4 21 2.7 31.5a93.6 93.6 0 0015.8 42.3 61.3 61.3 0 0084.9 16.7 99 99 0 0037.5-46.5c6.6-16.4 9.5-33.6 10.4-51.2 1.1-21.7 0-43.3-4.7-64.4a80.1 80.1 0 00-46.7-56.4c-5.6-2.8-11.8-4-18.1-3.5a68 68 0 00-29.5 11.1 98.1 98.1 0 00-38.4 47.3 200.7 200.7 0 00-13.9 73.1z" class="st0"/><path d="M767.5 780.3h-2c-4.2-.2-6.1-2.2-5.5-6.4a32 32 0 012-8.1c13-32.9 29.3-64.5 48.6-94.2a42.6 42.6 0 0131.5-19.9c1.9-.2 3 0 3.9 2 3.9 8.9 7.8 17.7 12 26.4a47.3 47.3 0 0018 20.6c1.1.6 1.7 1.8 1.7 3 1 8.2-1.3 15.8-3.3 23.5-3.2 12.4-6.1 24.9-9 37.4-.5 2-1.7 2-3.1 2.3-12.5 2.2-24.9 4.6-37.4 6.4-19.1 2.7-38.2 5-57.3 7.5l-.1-.5z" class="st0"/><path d="M903.6 588.8c2.5.9 2.8 3.6 3.3 6.3 2.3 12.1 6.9 23.4 11.3 34.8a159 159 0 0110.2 34.3l.3 3.3c.4 4.2.4 4.4-3.6 4.7-9.4.8-18.4 3.1-27.4 5.6-2.7.7-4 .2-5.2-2.4-7.2-14.9-14.8-29.7-19.6-45.6l-1.9-6.9c-.4-.9-.8-1.9-1.3-2.7l-.9.4c2.1 6.2 3.7 12.5 6.3 18.4 5.8 13.2 12.1 26.2 18.1 39.3.8 1.8 2 2.4 4.1 2 10.5-2.3 20.9-4.6 31.4-6.7 4.8-.9 3.7-1.4 6.4 2.9 2.7 4.1 4.4 8.7 5 13.5.2 1.6-.1 2.5-1.8 3.1-11.2 3.9-22.4 8-33.6 11.8a25.5 25.5 0 01-25.4-4.3 67.5 67.5 0 00-6.5-4.4 29 29 0 01-10-11.7 473 473 0 01-15-32.3c-3.3-7.9-6.4-16.2-7.8-24.5-2.4-13.9 1.3-26.2 13.4-34.8 1.9-1.4 3.9-2.7 6-3.8 9.9-5.6 20.7-10 28.5-19.1-.9 5.8-1.6 11.8-2.8 17.5-.9 4.5.1 6.2 4.6 5.3s8.8-2.5 13.9-4z" class="st0"/><path d="M1142.3 950.9l-2.1-1.2c-12.2-9.9-17.2-23.7-20-38.5a142 142 0 011.7-64.2c3.9-14.4 9.6-28 19.3-39.5a63 63 0 017.8-7.7c7-5.7 13.7-5.2 19.9 1.4a53 53 0 0110.7 19.8c2.6 7.6 2.6 15.6 2.9 23.4.6 15.6.8 31.3-.9 46.9a120.8 120.8 0 01-11.3 42.1 53.7 53.7 0 01-8.2 11.9c-5.2 5.8-11.8 8.7-19.8 5.6z" class="st0"/><path d="M931.2 706.5l-.5-3.4c-.2-3.7.4-4.3 3.8-5.8 6.1-2.7 12.2-5.4 18.2-8.4a31 31 0 006.6-4.8c7.2-6.5 8.3-14.2 2.7-22a13.5 13.5 0 01-2.6-8.9c.4-13.7-1.3-27.4-5-40.6-.4-1.5-.8-2.8-3.2-2.2a144 144 0 015.5 45.7c-6.2-2.5-9.2 1.3-11.5 5.9-2.9 5.8-7.9 8-14 9-1.2-19.1-9.2-36.1-15.6-53.5-3.2-8.6-6-17.3-7.3-26.5l2.7-2.1c2.1 1.1 4.2 2.4 6.5 3.4a19 19 0 004 1.4c2.6.4 4.2-1 4-3.6-.2-2-.8-4-1.2-6s-.4-3.8-.7-6.1c10.1 4 19.8 7.5 29.3 11.6 7 2.9 12.2 8.9 14.2 16.1 5.2 17.8 10.4 35.7 15.4 53.6a80 80 0 012.2 30.8c-.7 5.8-3.6 9.5-9.3 11-14 3.8-28.1 6.7-42.7 5.5-.4.1-.8 0-1.5-.1z" class="st0"/><path d="M920.1 816.4l14.4-3.6.7 1.9 21.1 77.9a74.5 74.5 0 011.7 26.6c-.8 8.6-1.3 17.1.6 25.6v1.4L905.1 960a730 730 0 0015-143.6z" class="st0"/><path d="M885.7 521l-2.6-32 15.1-4.3c4.6-1.4 9.2-3.2 13.8-4.3a30 30 0 0116.8.6c2.5.8 4.6 2.6 5.8 5 .9 1.5 2 2.9 3.1 4.2.4.4.7.9.9 1.5a56.6 56.6 0 011.3 20.5c-4.3-3.6-8.3-2.3-12.2.2-2.4 1.5-3 3.7-2.1 6.9a5.6 5.6 0 005.3 4.4c2.9.1 5.6-.2 7.7-2.8l-.8 4.5a29 29 0 001.2 15.4c.8 2.4 1.4 4.9 1.7 7.4.8 8.4-5 14.7-14.2 15.6s-17.4-1.4-23.6-8.6c-4.1-4.8-7.9-10-11.4-15.3a28 28 0 00-10.5-10 24 24 0 01-10.3-10.6c-1.4-2.6-.9-3.6 2-3.8 3.5-.4 6.9 1 9 3.8.9.9 2 1.7 3.2 2.3l.8-.6zm14.7-10.9l-1.6.1a6.9 6.9 0 00-5.7 4.1c-1 2.5.3 4.5 2 6.1 3.3 3.3 8 4.9 12.6 4.3 4.2-.4 6.2-3.7 4.7-7.3s-7.7-7.4-12-7.3zm10.5 39c2.9.7 6 .7 7.7 3.7l-.3-2.6 5.4-1.3 2.2 3.2.6-.4-1.2-3.5 5.1-1.5 1.2 3.5c.1.3.6.4.9.7.2-.4.6-.8.5-1.2l-.9-3 3.5-.3-6.1-3.6.3 2.6-4.9 1.3-1.9-2.3-.5.4.6 2.7-4.8 1.2-1.2-3.5-.7.2-.2 3.4-3.9-.7c-.5-.3-.9-.8-1.1-1.3a25 25 0 01-.5-2.9l-1.3 2.7-.4.4-4.2-2.4 1.4-4-.9-.4-2 3-2.4-1.3-.3.4 1.8 2-.5 4.1.7.1 1.5-2.9c.8.6 1.7 1.1 2.5 1.5 1.8.8 3.1 1.7 2.3 4-.2.5.4 1.2.6 1.8l.6-.2.8-3.6zm6.4-11.6c4.9 6 15 3.9 18.6-3.5-8.5-4.2-12.8-11.7-15.3-20.5-.4-1.5-1.4-1.7-2.8-.9a35 35 0 0015.2 21.9c-3.7 5-7.9 6-13.1 3.5l-2.6-.5zm-7.5-35.7l.6-.6c-.4-.6-.7-1.6-1.2-1.8a74 74 0 00-11.1-4.1c-4.6-1.1-8.7 2.1-9.3 6.7-.1.8.5 1.7.9 3.2 4-8.4 6.7-9.4 14.6-5.9 1.8 1 3.7 1.8 5.5 2.5zm15.3.7l.1.9c.1.3.3.6.6.8 3.3 1.5 6.7 2.7 10.2 1.2a6.1 6.1 0 002.8-2.7c1-1.6.1-2.4-1.5-2.6-3 6.3-7.8 3.2-12.2 2.4z" class="st0"/><path d="M927.9 435.2l-1.4.9c-5.2 2.8-5.5 6.5-.9 10l2.9 2.1c2.6 2.1 4.3 4.8 3.7 8.2-1 5.9 1.2 9.9 6.1 13.1 2.4 1.7 4.5 3.9 6.2 6.3 3 3.9 2.4 8.8-.9 12.4-1.2 1.2-2.3 1.7-3.6.1l-2.1-2.5c-2.9-5-7.5-6.9-12.8-7.8-8.7-1.5-16.9.6-24.9 3.8a65.8 65.8 0 01-25.6 4.8 16 16 0 01-7-1.9c-4.2-2.4-5.5-7.3-3.7-12.3 2-5.3 5.9-8.9 10.7-11.5a61.3 61.3 0 0119.6-6.1l10.6-1.6c4.6-.8 5.8-2.2 6.4-6.8.6-5.2 5-9.4 10.8-10.3 1.8-.5 3.6-.6 5.9-.9z" class="st0"/><path d="M876.9 1044.6c4.4 2.9 9.5 5 15.5 3.6 3.1 10.3 9.5 18.4 15.4 26.7 5.1 7.2 10.5 14.2 13.8 22.5a38 38 0 012.3 8.8c.4 3.1-1.3 4.7-4.4 4.5-2.3-.2-4.5-.6-6.7-1.4a56.8 56.8 0 01-29.2-23.2c-1.5-2.4-2.9-5-4.6-7.3a56.5 56.5 0 00-6.9-7.7c-3.8-3.5-4.8-7.2-2.6-11.8.7-1.5 1.8-2.9 2.6-4.4l4.8-10.3z" class="st0"/><path d="M985.7 1040.3c12.8 2.2 15.1 2 21.3-2.4 7.1 8 17.4 8.7 26.9 11 8.2 2 16.4 3.8 24.6 5.5a13 13 0 017.8 4.5c-2.2 4.3-5.4 6.9-10.7 7.1-12.2.5-24.4 1.4-36.6 2.3-5.9.5-11.8 1.7-17.7 2.2-3 .2-6.1 0-9.1-.6-5.1-1.1-7.7-4.3-7.9-9.5-.1-2.9 0-5.8.3-8.6.1-1.9.5-3.9.7-5.8l.4-5.7z" class="st0"/><path d="M969.3 736.8l-2.4-31.2 11.2-2.9c5.2-1.3 8.2-4.6 8.7-10l1.2-11.9 4.2 2.2c8.1 4.4 16.2 9 23.1 15.3 5.9 5.4 6.2 7.9 0 12.8a130 130 0 01-17.8 11.7c-9.1 4.9-18.4 9.1-28.2 14z" class="st0"/><path d="M900.4 993.2c.8-5.2 1.4-9.9 2.2-14.5.1-.7 1.2-1.4 1.9-1.6l58-14.3 3.8 13.5-65.9 16.9z" class="st0"/><path d="M959.1 947.5l2.9 12.8-58.7 14.4 2-12.8c.1-.5.9-1 1.5-1.1l51.5-13.3c.3-.1.5 0 .8 0z" class="st0"/><path d="M927.8 707.8l-1.2 13.3c-.1 1.5-.9 1.8-2.2 1.7a190.6 190.6 0 01-42.8-8.9c-.7-.3-1.2-.9-1.4-1.6l-.1-9 5 2.7c5.8 3 11.9 3.1 18.1 1.5 1.7-.3 3.3-.8 4.9-1.4 4.1-2.1 9-2.1 13.1 0 1.9.8 4.1 1.1 6.6 1.7z" class="st0"/><path d="M928.6 722.6l1.1-14.5c11.6 1.4 23 .2 34.6-2.1.3 3.3.7 6.3.7 9.3 0 .6-1 1.7-1.7 1.9a81.9 81.9 0 01-12 3.3c-6.6 1-13.3 1.5-20 2.2l-2.7-.1z" class="st0"/><path d="M948.8 688.9a31.7 31.7 0 00-6.6-17.9l5.5-7.8a34 34 0 012.3-3c3.1-3.2 7.1-2.9 9.8.7a16 16 0 01-2.8 22.7c-2.4 1.8-5.1 3.3-8.2 5.3z" class="st0"/><path d="M882.1 517.6a19.5 19.5 0 00-11.4-5.1c-.6 0-1.4-1.1-1.8-1.8a35.7 35.7 0 01-1.5-23l12.9 1.3 2.5 28.4-.7.2z" class="st0"/><path d="M923.5 773.7c.7 1 1.7 1.9 2.1 3.1l2.7 10.8 5.7 22.2.4 1.8-13.8 3.5 1.6-41 1.3-.4z" class="st0"/><path d="M913 563.1a119 119 0 01-1 6.7c-.1.4-.4 1.1-.7 1.1-2.8.4-3.1 2.8-3.8 4.8l-1.3 3.8-.5-.4c.6-5.3-1.9-8.5-6.4-10.9a98.7 98.7 0 01-7.5-5.1l4.6-13.2a33 33 0 0016.6 13.2z" class="st0"/><path d="M903.2 581.1l-1.1 5c-.2.6-.6 1.1-1.1 1.4-4 1.5-7.9 3-12 4.2-2.9.8-3.4 0-2.8-3 .8-4.1 1.3-8.3 2-12.5.2-1.6.6-3.1 1.1-4.7 1.3-3.1 3-3.5 5.3-1.1 1.8 1.9 3.4 4 5.1 6l3.5 4.7z" class="st0"/><path d="M912.3 587.2l-1.4-5.5-.9-.3c3.1-2.8 6.1-5.7 9.3-8.4.7-.6 2.2-.5 3.2-.2.3.1.4 1.8.2 2.7-1 4.3-.1 8.4.7 12.5.2 1 .3 2.9-.2 3.2-1.2.6-2.5.7-3.8.2-2.7-1-5.2-2.5-7.7-3.7l.6-.5z" class="st0"/><path d="M892.2 1037.2v5.7c.3 2.4-.8 3.2-2.9 3.4-4.8.6-8.9-1.3-12.8-4-.3-.2-.6-.6-.7-1l-1.2-8.9c5.7 3.9 10.8 7.5 17.6 4.8z" class="st0"/><path d="M984.7 1032.2c6.6.8 13.1 4.6 19.1-.8l.5.4c1.8 4.6 1.4 5.4-3.1 7.4-5.2 2.3-10.2.7-15.1-.8-.4-.1-.7-.9-.8-1.4-.3-1.4-.4-3-.6-4.8z" class="st0"/><path d="M942.4 691.2c-.9-7-4-12.7-8.1-18.3 1.5-.5 3.1-1 4.7-1.3.8 0 1.5.4 2 1 3 3.8 4.8 8.3 5.4 13 .5 4.2.4 4.4-4 5.6z" class="st0"/><path d="M907 581.9c1.9.1 3.6 1.7 3.6 3.3 0 1.9-1.9 4.2-3.4 4.1-2-.3-3.5-1.9-3.6-3.9.1-1.8 1.8-3.6 3.4-3.5z" class="st0"/><path d="M888.8 567.4l1.8-2.8c4 2.7 7.9 5.3 11.7 8.1.6.5.6 1.8.8 2.7s.2 2 .4 3.8l-2.4-3.1-5.8-6.7c-1.7-1.8-3.7-3.1-6.5-2z" class="st0"/><path d="M929.9 522.4c5.8-2.5 6.6-4.5 4.8-11.1 2.1-.4 3.2.5 3.7 2.4 1.3 4.9-2.8 9.3-8.5 8.7z" class="st0"/><path d="M931.4 511.9c1.4 1.9 2.6 3.8 1.2 6-.5.8-1.8 1-2.7 1.5-.7-1.3-1.2-2.6-1.7-4-.6-2.5 1.7-2.6 3.2-3.5z" class="st0"/><path d="M912.2 572.9l1.6 1.8-6.1 6.4c1.6-3.2.9-6.8 4.5-8.2z" class="st0"/><path d="M925.1 700.6l3-.9.4 6.2c-3.5.4-3.7.1-3.4-5.3z" class="st0"/><path d="M922.3 701.5v3.6l-5.8-1.7 5.8-1.9z" class="st0"/><path d="M600.9 879.4c-12 3.8-23.7 8-35.6 11.3-22.4 6.2-45.3 10-68.3 12.9-17.6 2.3-35.2 4.6-52.9 6.4-17.9 1.9-35.9 3.7-53.8 4.7-30 1.7-59.9 3.2-89.9 3.8-27.1.5-54.2 0-81.4-.5-15.1-.3-30.2-1.1-45.3-2.2a271 271 0 01-84.8-18.3 90 90 0 01-33.3-22.1c-5.5-6-9.3-13.3-11-21.2l-.4-2.9.7-.2c.4.7.7 1.4.9 2.2a44.1 44.1 0 0018.5 28.9c12 9.3 25.8 14.9 40.1 19.5a278 278 0 0050.4 10.2c43.7 5.4 87.6 5.1 131.4 4.4 32.8-.5 65.6-2 98.4-3.9 26-1.5 52-3.9 78-6.7 34.1-3.7 68.1-8.4 101.4-17.3 11.4-3 22.4-7.3 33.6-11 2-.9 2-1 3.3 2z"/><path d="M318.4 891.4l2.1-1.6c38.2-20.2 76.4-40.4 114.7-60.4 11-5.8 22.5-10.6 34.6-13.4a80.6 80.6 0 0152.3 7.1c5.5 3 5.8 6.6 1 10.5a97 97 0 01-12.2 8.8 404.8 404.8 0 01-82.2 37 220.7 220.7 0 01-46.3 8.4c-20.8 1.7-41.7 2.9-62.5 4.3l-1.2-.1-.3-.6zm6.1-2.2l.1.5h1c20.9-1.5 41.9-2.8 62.8-4.7 15.9-1.4 31.6-4.6 46.8-9.5a409 409 0 0083.6-40 17 17 0 003-2.3c3.1-2.8 2.9-5.6-.6-7.9a23.2 23.2 0 00-5.7-2.8c-5.3-1.5-10.7-2.8-16-3.9a74.7 74.7 0 00-47.9 5.6c-31.7 14.8-63 30.5-93.7 47.1l-33.4 17.9z"/><path d="M640.8 767.4c-.9.4-1.9.7-2.8.9-7.2 1.2-14.5 2.1-21.6 3.4-32.7 5.9-65 13.3-97.2 21.6a1259.1 1259.1 0 00-127.3 39.8 410.3 410.3 0 00-72.2 34.7c-.5.1-.9-.1-1.3-.5-.1-.5 0-.9.3-1.3l1.9-1.3a421.4 421.4 0 0168.1-32.6c44.1-17.3 89.3-30.9 135.2-42.3a2819 2819 0 0181.4-18.6c10.8-2.3 21.8-3.6 32.7-5.3.9 0 1.7.1 2.6.3.2.4.2.8.2 1.2z"/><path d="M613.5 859.1l1.9-2.3a102.6 102.6 0 0154.4-30.7c19.7-4.6 39.7-5.3 59.8-3.2 10.5 1.1 20.8 3 31.2 4.6l2 .6v.9c-1 .1-2 .2-3 .1a252.9 252.9 0 00-50.6-5.5c-20.4 0-40.3 2.8-59.2 11a91.9 91.9 0 00-32.9 23.6c-.9 1-1.7 2.2-3.6.9z"/><path d="M84.2 850.9c.8.2 1.6.5 2.4 1 12 11.7 26.8 18 42.3 23 29.7 9.6 60.2 13 91.3 11.4 2-.1 3.9 0 5.9.4l-1.2.4c-37 2.2-73.1-2-107.9-15.2a94.2 94.2 0 01-31-18.2l-2.5-1.7.7-1.1z"/><path d="M144.4 982.1c-10.4.3-20.7 1-30.7 3.8-1.1.2-2.2.2-3.3.2l-.2-1c.8-.4 1.5-.8 2.4-1.1 9.5-2.8 19.3-4.2 29.2-4.3l108.8-2.8 40-.9c3-.1 5.9.1 8.9.6 2.1.4 4 1.2 5.8 2.4 1.8 1.3 3.3 2.9 4.6 4.7l35.8 46.8c5.2 6.8 10 13.9 15 20.9 1.2 1.7 2.2 3.4 3 5.3 1.8 4.1.5 6.6-4 6.9-6.6.4-13.3 1-19.8.3-31.4-3.2-62.9-6.4-94.2-10.5a597 597 0 01-52.8-9.7 61.7 61.7 0 01-32.6-17.9 55.8 55.8 0 01-15.8-36.1c-.2-2.3-.1-4.8-.1-7.6zm80.7-3.3v.5l-50.5 1.4-25 1.1c-2.1.1-2.9.8-2.8 2.9l.2 5.6a47.3 47.3 0 0022.5 40 101.5 101.5 0 0033 13.6c25.2 6.2 51.1 8.6 76.8 11.7 17.5 2.1 35.2 3.5 52.8 4.9 9 .7 18 1 27 1.3 3.2.1 3.8-.9 2.3-3.7a79.2 79.2 0 00-5.8-9.2c-17.6-22.9-35.2-45.8-53-68.6a4.4 4.4 0 00-2.9-1.4c-24.8-.2-49.7-.2-74.6-.1z"/><path d="M538.6 1062.1c.6-11.1 1-22 1.7-33 1.2-17.8 2.3-35.6 8.1-52.7 5-14.7 12-28.4 19.6-41.9 1.4-2.4 2.7-4.9 4.2-7.3.5-.7 1.5-1 2.2-1.6l.7.7a24 24 0 01-1.3 2.8 314.4 314.4 0 00-20.1 39.7 133.2 133.2 0 00-9.3 41.3c-1.2 16.9-2 33.8-2.9 50.7-.1 2-.6 2.8-2.7 3.1-16.9 2.2-33.8 4.7-50.8 6.9a2270.3 2270.3 0 01-100.8 11.2c-12.7 1-25.4 1.4-38.2 2-2.5 0-5.1-.2-7.6-.6-.6-.1-1.2-.8-1.7-1.3.7-.3 1.4-1 2-1 3.7.2 7.5.7 11.2.8 14.6.5 29-1.1 43.5-2.7l43.8-4.9c18.5-2.2 36.9-4.6 55.4-6.9l39.7-4.9c1.1.1 2.2-.1 3.3-.4z"/><path d="M563.2 932.8l-24.7 35c-5.8 8.2-12.2 16.2-17.6 24.7a36.7 36.7 0 01-28 17.6l-21.4 2.9c-1.1.1-2.3-.4-3.8-.7l1.1-2.5c7.1-14.3 14.6-28.4 21.3-42.8a40.6 40.6 0 0129.9-23.9c13.2-3 26-7.5 39-11.4 1.5-.4 2.9-.9 4.2 1.1zm-4.3 1.4L512.2 948a24.8 24.8 0 00-13.6 10.2c-2.5 3.8-4.9 7.8-7 11.8-6.3 12.2-12.4 24.6-18.5 36.9l-2.3 4.8 23.8-3.8a33.6 33.6 0 0023.6-16.1c6.3-9.7 13.3-18.9 20-28.3l20.7-29.3z"/><path d="M535.8 1013.2a81 81 0 01-5.7 24A22.5 22.5 0 01513 1051c-17 3.5-34.1 6.9-51.2 10.2l-14 2.4-2.4-.3c0-.8.2-1.6.4-2.3 6.3-12.1 12.5-24.1 18.9-36.1.5-.9 1.4-1.6 2.4-1.9 7.4-1.8 14.8-3.7 22.3-5 14.5-2.4 29.1-4.4 43.6-6.6 2.1-.3 3.2 0 2.8 1.8zm-2.7.7l-6.1.7-31 4.4c-9 1.2-18 2.4-26.6 5.7a7 7 0 00-3.4 3l-16.6 31.8-.5 1.4c8.3-1.4 16.3-2.7 24.3-4.3a2819 2819 0 0039.9-8.1c7.3-1.5 12.1-6.2 14.9-13s4.2-13.9 5.1-21.6z"/><path d="M116.7 1026.8l-3.3-1-69.3-25.4c-2.3-.8-3-1.8-2.5-4.4 1.6-7.5 2.9-15 4.2-22.5.4-2.2 1.2-2.4 3.1-1.6l50 21.4c2.6 1 4.7 3.1 5.8 5.7l11 25.2 1 2.6zm-3.4-2.3l-9-20.7c-4.2-9.5-4.3-9.2-14-12.9-13.1-5.1-26-10.8-39-16.2l-2.7-1-.3 1.5c-1.3 7.1-2.5 14.2-4.1 21.2-.6 2.8 1 3 2.8 3.7l59.4 22 6.9 2.4z"/><path d="M31.7 955.4c2.2.4 9.4 15.4 8.7 17.8a51.7 51.7 0 01-8.7-17.8z"/><path d="M1041.7 715.3c4.1-2.1 8.6-3.4 13.2-3.8 5.9-.7 11.7-.3 17.2 2.2 8.6 4 12.2 12.2 9 21.1-1 3-2.4 5.8-4.3 8.3-3.8 4.8-8 9.2-12.1 13.7-1 1.1-2.4 2.1-3.4 0l-19.6-40.8v-.7zm21.8 40.1c7-6.8 13.4-13.7 15.5-23.3 1.8-8-1.4-13.8-9-16.9a33.5 33.5 0 00-18-1.7c-2.5.4-5 1.2-7.7 1.9l19.2 40z"/><path d="M1045.2 874.3l-3.1 1.4c-1.7.6-2.4 1.5-2.4 3.5l.1 44.1v3.1l-6.5 1.8c5-2.3 4.3-6.7 4.3-10.9l-.4-39.8c.2-.9.8-1.6 1.6-1.9 2-.6 4.3-.9 6.4-1.3z"/><path d="M1045.2 874.3l54.9-10.7.2 1-15.3 3c-10.8 2.1-21.5 4.2-32.3 6.1l-7.5.6z"/><path d="M591.2 983.8c.7-25.1 4.1-49.7 13.8-73a98.1 98.1 0 0138.4-47.3 69.4 69.4 0 0129.5-11.2c6.2-.5 12.5.7 18.1 3.4a79.9 79.9 0 0146.7 56.4c4.7 21.1 5.9 42.7 4.7 64.4-.9 17.6-3.8 34.8-10.4 51.2a99 99 0 01-37.5 46.5 61.3 61.3 0 01-84.9-16.7 93.4 93.4 0 01-15.7-42.3c-1.2-10.4-1.8-20.9-2.7-31.4zm149.5-18.5c-.1-16.1-1.4-32.2-4-48.1a78 78 0 00-38.7-56.5c-10-6-20.9-8-32.3-4.6a84 84 0 00-34.6 20.4 106.6 106.6 0 00-27.5 47.8 233.5 233.5 0 00-8.5 84c.9 13.5 4.3 26.7 9.9 39 14.9 31.7 55.1 48.8 89.6 24.1a102 102 0 0035.5-45.7c8-19.8 10.5-40.6 10.6-60.4z"/><path d="M900.4 510.1c4.3-.1 10.4 3.7 11.9 7.3s-.4 7-4.7 7.3a16 16 0 01-12.6-4.3c-1.7-1.7-3-3.6-2-6.1 1-2.3 3.2-3.9 5.7-4.1l1.7-.1zm-1.7 11a14 14 0 009.3 2.3c3.2-.7 4.5-3.1 2.7-5.5-1.2-1.8-3.1-3.1-5.1-5.1.3 7-.6 8-6.9 8.3zm4.4-5.5c-.7-1.2.4-3.9-2.5-4.1-2-.1-4.5 2-4.5 3.7 0 1.9 2.2 3.6 4.5 3.7 2 .1 2.7-1.1 2.5-3.3z"/><path d="M910.9 549.2l-.7 3.4-.6.2c-.2-.6-.8-1.3-.6-1.8.8-2.3-.5-3.2-2.3-4l-2.5-1.5-1.5 2.9-.7-.1.5-4.1-1.8-2 .3-.4 2.4 1.3 2-3 .9.4-1.4 4 4.2 2.4.4-.4 1.3-2.7.5 2.9a2 2 0 001.1 1.3c1.3.3 2.6.6 3.9.7l.2-3.4.7-.2 1.2 3.5 4.8-1.2-.6-2.7.5-.4 1.9 2.3 4.9-1.3-.3-2.6 6.1 3.6-3.5.3.9 3c.1.4-.3.8-.5 1.2-.3-.2-.8-.4-.9-.7l-1.2-3.5-5.1 1.5 1.2 3.5-.6.4-2.2-3.2-5.4 1.3.3 2.6c-1.8-2.8-4.9-2.9-7.8-3.5z"/><path d="M917.3 537.6c.9.1 1.7.2 2.5.5 5.2 2.5 9.5 1.5 13.1-3.5a35 35 0 01-15.2-21.9c1.4-.8 2.4-.6 2.8.9 2.5 8.8 6.8 16.3 15.3 20.5-3.5 7.4-13.6 9.5-18.5 3.5z"/><path d="M909.8 501.9l-5.6-2.4c-7.9-3.5-10.6-2.6-14.6 5.9-.4-1.5-1-2.4-.9-3.2.6-4.6 4.8-7.8 9.3-6.7 3.8 1.1 7.5 2.5 11.1 4.1.6.2.8 1.2 1.2 1.8l-.5.5z"/><path d="M925.1 502.5c4.4.8 9.2 3.9 12.2-2.4 1.6.2 2.5 1 1.5 2.6a6.6 6.6 0 01-2.8 2.7c-3.6 1.5-7 .3-10.2-1.2-.3-.2-.5-.5-.6-.8l-.1-.9z"/><path d="M324.5 889.2l33.4-18c30.8-16.6 62.1-32.2 93.7-47.1a74 74 0 0147.9-5.6c5.4 1.1 10.8 2.4 16 3.9 2 .6 4 1.5 5.7 2.8 3.5 2.3 3.7 5.1.6 7.9a17 17 0 01-3 2.3 406.4 406.4 0 01-83.6 40c-15.2 5-30.9 8.2-46.8 9.5-20.9 1.9-41.9 3.2-62.8 4.7h-1l-.1-.4z" class="st0"/><path d="M225.1 978.8l74.7.1c1.1.1 2.1.6 2.9 1.4l53 68.6c2.2 2.9 4.1 6 5.8 9.2 1.5 2.8.8 3.8-2.3 3.7-9-.3-18-.6-27-1.3-17.6-1.4-35.2-2.8-52.8-4.9-25.7-3-51.5-5.4-76.8-11.7a103.8 103.8 0 01-33-13.6 47.4 47.4 0 01-22.5-40l-.2-5.6c-.1-1.9.7-2.8 2.8-2.9l25-1.1 50.5-1.4-.1-.5z" class="st0"/><path d="M558.9 934.2l-20.7 29.3c-6.7 9.4-13.7 18.6-20 28.3a33.6 33.6 0 01-23.6 16.1l-23.8 3.8 2.3-4.8c6.1-12.3 12.2-24.6 18.5-36.9 2.1-4.1 4.5-8 7-11.8a24 24 0 0113.6-10.2l46.7-13.8z" class="st0"/><path d="M533.1 1013.9c-.9 7.7-2.2 14.9-5 21.7s-7.6 11.4-14.9 13a2819 2819 0 01-39.9 8.1c-8 1.6-16 2.8-24.3 4.3l.5-1.4c5.5-10.6 11-21.3 16.6-31.8.8-1.3 2-2.4 3.4-3 8.5-3.3 17.6-4.5 26.6-5.7a3300.6 3300.6 0 0037-5.2z" class="st0"/><path d="M113.3 1024.5l-6.9-2.5-59.4-21.9c-1.7-.7-3.4-.8-2.8-3.7 1.6-7 2.8-14.1 4.1-21.2l.3-1.5 2.7 1c13 5.4 25.9 11.1 39 16.2 9.6 3.7 9.8 3.4 14 12.9l9 20.7z" class="st0"/><path d="M1063.5 755.4l-19.2-39.9c2.7-.7 5.2-1.5 7.7-1.9 6.1-.9 12.2-.7 18 1.7 7.6 3.1 10.8 8.9 9 16.9-2.1 9.6-8.5 16.4-15.5 23.2z" class="st0"/><path d="M740.7 965.3c-.1 19.8-2.5 40.6-10.6 60.5a101.8 101.8 0 01-35.5 45.7c-34.5 24.8-74.8 7.6-89.6-24.1a110 110 0 01-9.9-39c-2.3-28.3.6-56.8 8.5-84a106.6 106.6 0 0127.5-47.8 84 84 0 0134.6-20.4 38.3 38.3 0 0132.3 4.6 78.2 78.2 0 0138.7 56.5c2.6 15.8 3.9 31.9 4 48z" class="st0"/><path d="M898.7 521.1c6.3-.4 7.2-1.4 7-8.3 2 1.9 3.8 3.3 5.1 5.1 1.7 2.5.4 4.8-2.7 5.5-2.5.6-6.1-.3-9.4-2.3z" class="st0"/><path d="M903.1 515.7c.1 2.2-.5 3.3-2.5 3.3-2.3 0-4.5-1.8-4.5-3.7 0-1.7 2.5-3.9 4.5-3.7 2.9.2 1.9 2.8 2.5 4.1z" class="st0"/></svg>