<svg xmlns="http://www.w3.org/2000/svg" viewBox="0 0 1200 1552">
  <defs/>
  <defs>
    <style>
      .cls-1{fill:#fff}
    </style>
  </defs>
  <g id="Layer_2" data-name="Layer 2">
    <g id="Layer_1-2" data-name="Layer 1">
      <path d="M0 437.4V0h1199.6v1552H379.3c2-16.7 4-33.4 6.2-50.1 1.7-12.4 3.8-24.7 5.8-37a66.9 66.9 0 011.8-6.9l-1.3-.4-6 14.9c-2.8-21.1-5.2-43.3-9-65.4-6.1-36.2-13.9-72.1-19.4-108.4-3-19.6-3-39.7-4.3-59.5-.5-9-3-11.1-11-7.2-6.4 3-11.8 8.6-18.4 11.4a60 60 0 01-19.5 4.2c-1.8.1-4.8-7.1-5.6-6.8-9.8 3.8-12.4-7.3-19.2-8.7-4.6-1-11.7-2.2-14 .2a72.1 72.1 0 00-15 23c-13.6 37-25.7 74.6-39 111.6a239 239 0 01-53 88c-16.8 17.2-36.6 31.8-50.3 51.9-10 14.6-18.8 30-28.2 45.2H0v-239.7l6.2-21.6 3.6 7.3 15.9 2.8-3.3 2.5c1.3 7.3.7 15.7 4.2 21.7 4.7 7.8 13.8 8.1 22.5 5.4 4-1.3 8-3.5 12.2-3.7 3.6-.3 8.6.4 10.9 2.8 10.8 10.8 20.3 22.8 31.2 33.5 14.2 13.8 23.6 28.7 21 50-.7 6.3 2.8 14.4 6.9 20 7 9.2 16.9 7.2 20.3-3.8 2.1-6.7 1.9-14 2.7-21.2 6.3-1.6 14-2.5 20.6-5.7 8-4 8.8-10.4 1.6-15.6a53.5 53.5 0 00-22.8-10.3c-9.1-1.2-15-5.3-20.6-11.7-12-13.7-23.6-28-36.8-40.5-9.2-8.6-8-15.4-1.1-24l5.9 11 6-9 5.2 18.2 3.2-.6 3-20-6 11.3-3.8-21.5-7.1 13.7-7.1-9.9-6 12c-1.7-6.8-1.2-13.4-1-20 .4-10.3-5.6-19.7-13-21-9.7-1.8-17.6 4-20.7 15.7-1.6 6-2.3 12.2-3.7 20l-37.7-6c-2-4.3-3.5-7.9-5.6-12.8l-6.8 13v-117.8l5.5 24 3-.7c-1-4-2.4-8-2.6-12.1-2-40.8-9.8-81.5 6-122 6.4-16.3 11-33 20.9-47.9 2-3 2.3-8 1.7-11.7-4-24.8-9-49.5-12.7-74.3-2.8-19-3-38.4-6.8-57.2a91 91 0 01.7-48c5.4-16.4 13.5-31.9 20.4-47.8l-.3.4 8.4-6.4C39.4 784.1 33 795 30.3 806.6c-3.9 16.4-6.7 33.4-7 50.2-.6 28.4-1 57.4 18.9 81.5 1.4 1.7 1.7 5 1.6 7.5-.2 11.6-.9 23.2-1.2 34.9-.2 6.4 0 12.8 0 19.2l3.2 1.9c29.6-50.3 75-85.5 116.3-124.5-11.3 13.3-24 25.3-36 38-19.1 20-40.5 38.2-54.1 63.1-8.6 15.8-16.8 32-27.4 46.2-24.6 33-33.4 70.3-32.2 110.5a377.7 377.7 0 003.7 40.7c1.6 11.3 4.5 22.5 6.8 33.7-.6-20.5-3.8-40.4-6-60.4-4.4-39 1.3-76.2 21.4-110.4 13-22 26.8-43.5 40.4-65 4.7-7.5 10-14.6 15-21.8-4.5 11.7-11 22.2-16 33.2-10.2 22.4-20 44.7-37.2 63.1a38.2 38.2 0 00-9.6 20.4c-2.8 24.7-5.8 49.6-5.1 74.3.5 20 6.2 39.8 9.7 59.7.9 4.6 2.4 9 3.7 13.5l2.5-.7c-2-10.6-3-21.5-5.8-31.9-7.8-28-8.5-56.4-6.5-85 1.3-18.7 3.3-37.6 16.7-52.2a152.4 152.4 0 0028.2-46.6c10.7-26 24.8-50 43.2-71.2 8.4-9.8 19.6-17 28.2-26.6 11-12.4 20.8-25.9 31.2-38.9l-3.5-3c-21.9 20.7-44.4 41-65.6 62.5s-41 44.5-62.1 67.7c.5-9.2.7-18.3 1.4-27.3 1-12.7 2.1-24.9-7.6-35.6-4-4.4-6-11.2-7.3-17.2-10-50.8-10-100.3 22.2-144.7.8-.6 1.9-1 2.3-1.8q17.9-33.2 35.5-66.7c.6-1.1-.5-3-.6-4L42 766c-8-18.5-5.2-35.5 0-52.3 2.6-8 7-15.5 7.9-23.5 1.3-13 .4-26.1.4-41 9 9.7 19.3 18.4 26.5 29.2 5.2 7.7 7 12.9 14 2.2 1.5-2.3 5.7-3.1 8.9-4 21.4-6 43.2-8 65-2.3 17 4.5 33.8 10.3 51.5 15.8-2.7 29.9-6 58.9-7.7 88a45 45 0 01-19.8 36.9 13.6 13.6 0 00-4.6 8.3c-1.6 9.8-2.7 19.8-3.3 29.7-.2 2.4 1.7 6.4 3.5 7s5.4-1.5 7.2-3.3c2.8-2.7 4.6-6.3 6.8-9.4l7.2 13.4 8.2-5 11.5 14c1.5-6 3.8-10 3.2-13.5-2.2-11.9-2-22.4 6.2-32.8 3.4-4.2 4-13.2 2.2-18.7-11.4-34.9.2-69 .8-103.4 13.2 0 30 10.4 30.3 19 1 35.1 2 70.4 2 105.6 0 25.5-2.3 51-2.2 76.5 0 14.2-.7 28.2 4.6 42.7 5.2 13.9 3.2 30.2 5 45.4 2.6 20.8 4.5 41.7 18.4 59 7.4 9.3 13.3 12.2 24 7.2 9.4-4.2 17.6-10.7 27.7-17.1l2.6 1.7c11.4 8 20.8 9 30.4-1.2a88 88 0 0016.5-28.7c5.1-13.2 8.2-27.3 12.1-41 1.4-5 2.6-10.1 3.9-15.2l-3-.8-16.6 56.6a101 101 0 01-7 17.5c-4.7 8.8-12.1 14.8-22.4 13.6a21.7 21.7 0 01-19.7-18.6c-3.4-17.9-7.7-35.9-8.6-54-2.4-44.8-3-89.7-4.5-134.5-.3-8.3-1.8-16.5-3.3-24.6-.5-2.2-3.2-5-5.1-5.3-1.7-.2-4.4 2.5-5.5 4.5a27.7 27.7 0 00-3.5 10.3 472 472 0 00-2.3 34.8c-1 49 .8 97.8 8 146.3.9 5.5 3.5 10.7 6.2 18.6l8.4-11.2-1.4-1.2-6.8 3.6c-1-4.4-2.3-8-2.6-11.5-2.5-26.1-6-52.3-6.8-78.5-1-32.8.5-65.7 1.2-98.5.1-4.1 2.3-8.2 3.5-12.2l3 .4c.5 2.4 1.4 4.8 1.5 7.3 1.3 33.2 2.8 66.5 3.6 99.8.8 35.5 1.5 71 10.6 105.8 3 11.4.4 18.6-9.7 24.2-4.8 2.6-10.3 5-15.7 5.6-4 .4-10.4-1-12.4-3.8a83.8 83.8 0 01-14.1-27c-4-17.3-5.8-35.2-7.7-53-2.6-23.1-6-46.3-6.4-69.5-1-46.8-.2-93.6-.2-140.4V626c0-5.9.4-10.2 7.7-12.6 4.9-1.6 8.4-7.3 12.6-11.1l-1.6-1.6-16.6 13c0-12.2-2-21.3 9.7-26.9 5-2.4 8.1-9.2 12.1-14l-2-1.7-15.4 15.5c-1.2-16.5 0-31.3.8-46.1.2-2.2-1-5.8-2.6-6.5s-5.5.4-6.8 2a62.9 62.9 0 00-8.3 13.3c-19.7 43.5-23.4 90.6-29.5 136.9-4.4 34.2-5.3 69-7.2 103.5a25 25 0 004.1 13.7c2.7 4.2 4.6 6.6.5 11.6a89.4 89.4 0 00-13.4 22c-1.8 4.3-.3 10-.3 15.1-7.2-4.4-8.1-8.5-3.2-20 3.7-8.8 8.3-17.1-2-28.3-3.7 12.4-6.7 23.2-10.1 33.9-.7 2.2-2.8 4.1-4.2 6.2l-2.3-1.4 1.6-21.1-2.4-.4-5.3 33.3-4.6-.8c2.4-11.4 4.7-22.8 7.2-34.1.2-1 1.7-2 2.8-2.6a32.8 32.8 0 0017.3-29 2028 2028 0 019.8-119.2c3.8-33.2 9.5-66.3 16.1-99.1 2.8-13.4 10.3-25.8 15.4-38.7 9.8-24.5 23-46.6 44.3-62.8 14.5-11 21-24.5 16.3-42.7-.2-.6-.5-1.5-.2-2 1.4-2.4 3-4.7 4.5-7.1 2.6 2.6 3 3.9 3 5.1-.3 27 12.4 44.4 36.5 56.4 13.6 6.8 25 18 36.9 28 2.4 2 2.7 6.7 3.7 9.5 2.4 2.4 5.5 4.3 6.8 7 12.7 27.8 27.5 54.9 37 83.7 15.4 47.2 33.9 92.9 56.9 136.8 1.3 2.5 1.2 6.1 3 7.8 8 7.4 16.5 14 24.7 21.2s11 23.6 5.7 33c-.6 1.1-2.6 1.5-4.2 2.2-4.8-29.1-4.8-29.1-8.6-30.5v32.2l-2.6.3c-.5-3.8-1.8-7.7-1.2-11.4 2.3-16-1.2-23.2-15-30a22.7 22.7 0 01-8.5-6.8c-6.8-9.7-14.4-19.3-19.1-30-21.2-47.8-41.2-96-62.3-143.7-7.4-16.7-16.8-32.5-26-48.2-2-3.5-7.8-7.8-10.5-7-3.9 1.1-6.7 6.4-9.6 10.3a11.8 11.8 0 00-1.6 5.6l-3.6 37-2 1.2-13.3-18.5c.2 9.5 4.5 16.4 11.5 22 2.1 1.6 4.8 4 5 6.3.7 6.8.3 13.7.3 20.8-12.1 1.3-15-8.3-20.6-15-.5 10.9 4.2 15.7 19.7 21.6v33.4l-14.1-12.7-2.3 2.5 16.1 16c1.5 27.9 1.8 56.6 4.7 85a786.7 786.7 0 013.5 120.3c-2 41.2-2.2 82.4-3 123.6 0 4.9 1.8 9.8 2.7 14.8l4.8 1.2c14.2-25.8 26.4-52.7 41-78.9 3.6 20.2 11.4 39.7 4.7 63.2l-8.8-9.7-2.1 2 8.6 9.2c3-3 8.6-6.2 8.4-9a899.5 899.5 0 00-6.4-56.1c-.2-2-3.3-5-5.1-5s-4.3 2.7-5.4 4.8c-2.3 4.3-4 9-6.3 14.5l-5.3-13.9-3.7-1-24.2 41.9c0-10.5-.3-18.4 0-26.3 1.8-40.3 4-80.6 5.4-121a285.9 285.9 0 00-1.7-43.6c-1-8.3-.4-12.7 8.3-15.9a41.2 41.2 0 0029-34c2.8-1.3 7.1-2.4 7.2-3.6a15 15 0 00-3.2-8.7c-3.5-4.8-7.7-9.3-11.8-14a68.8 68.8 0 0144.4-9.2c3.3.4 7.4 3.7 9 6.7 11.7 24.2 19 50.9 39.7 70.1-6.6 5.2-12 11.6-18.6 14-12.1 4.1-25.3 5.3-37.6 8.8-5.4 1.5-10 5.6-15 8.6l.4 2.6c11.3 2.2 22.5 5.7 33.9 6.3a351.2 351.2 0 0049-1c11.5-1 11.7 4 7.8 13.8l16-5.4c-1.4 5.2-1.6 9-3.3 12-2.3 4-6.2 7-8.4 11-1.2 2-1.5 6.2-.2 7.8 1.1 1.5 5.1 1.5 7.7 1.1 3.1-.5 6-2.2 9.3-3.4 14.5 20.1 28 40.3 43.1 59.3a299.8 299.8 0 0032.7 33.3c12.7 11.6 27 21.6 39.2 33.7a62 62 0 0115.1 25 440.3 440.3 0 0113 57.2c4.5 28.5 15.1 52.9 39 70.4 4.7 3.5 8.8 7.8 14 12.4l-5.5 1.7c3 3.8 1.1 12 10.1 10.6a13 13 0 019.4 3c28.3 25.8 58 50.4 77.9 84.4a20.5 20.5 0 000-8.4c-2.3-10.3-6-20.4-7.1-30.8-5.6-51.3-24.4-97-57.2-136.8-3.5-4.2-8.6-7-12.7-11-6.7-6.2-15-11.7-19.3-19.3-9.8-17.3-17.2-36-26.4-53.6-7.3-13.7-13.5-29.1-24.4-39.4-16-15.1-35-27.6-54-38.9-24.7-14.5-42.2-35-57.2-58.6-4-6.2-8.3-12 2-16.6 1.5-.7 3.1-4.5 2.5-5.5-1.2-1.8-4-3.7-6-3.5-4.6.5-9 2.2-13.4 3.6-5.7 1.8-8.7-.2-9.4-7.4 8.4-1.5 16.6-4.6 24.6-4.2 25.4 1.4 50.8 3.2 76 6.4 22.7 2.8 45 8 67.6 11.1 10 1.4 20.3.3 30.5.4 7.6 0 15.4-1.4 22.6 0 18.7 4 37.3 6.8 56.4 4 2.8-.3 6.8.7 8.7 2.6a72.5 72.5 0 0121.4 52.7q-.4 58.4 1.7 116.8c1.4 37.8 7.9 75.5.2 113.3-.3 1.3-.5 3.6 0 3.8 8.4 4.2 1 8.6.1 12.7a23.4 23.4 0 01-2 4.6l2.3 1.1 7-13.8c1 6 1.4 11.2 2.6 16.3 2.9 12.2 6.2 24.2 9.3 36.3l3.7 6.6 3-1-2.7-46.7c-1.1 10.5-.4 21-.4 31.5 0 2.9-1.8 5.8-2.8 8.8l-2.4-9.7a477 477 0 01-11.5-101.5c-.8-32.9-3.5-65.7-4.3-98.6-.8-30.2-.2-60.4-.2-90.7.7 2.3 1.5 4.7 2.1 7.1 8.2 32.9 6.7 66.5 7.3 100 .6 29-.8 58.3-1.2 87.4-.2 12.9 0 25.7 0 38.5h3c.3-4.8.8-9.6.8-14.4 0-30.9-.5-61.7 0-92.5.7-46 1-91.7-9.8-136.8-4.2-17.3-8-34-21.5-47.2-5.5-5.4-9.4-12.5-13.4-19.2-5.3-9-10-18.2-15-27.3l.4.3-25.5-32.8-22.7-25.5c-1.8-2.7-3.1-5.8-5.3-8-11-11.5-22-22.8-27.1-38.4-3.4-10.3-7.3-20.3-11-30.5 7.2 8.2 11.6 17.4 17 26 10.3 16.5 20 33.7 32.2 48.8 18.4 23 42.7 40.4 55.4 69 10 22.7 26.8 42.5 40.3 63.8a35 35 0 014.4 11.9c2.1 11.3 2.6 23.1 6 34.1 4.5 15.2 11.7 29.6 16.4 44.7 6.6 21.3 12.9 42.8 6.7 65.5-6.2 22.4-13.8 44.5-17.4 67.3-2.9 18-.6 36.9-.6 57.5l5-14.7a261 261 0 0010.2 74.8l3.4.1 5.3-9.9-7.6 5.6c-.8-4.3-1.5-7.5-2-10.8l-9.5-59.7a64 64 0 01-2.2-40.9c3.9-17 8.7-34 12.7-51.1 3-13.1 8.2-26.5 7.8-39.6-1-29.8-11.1-57.7-22.7-85a84.9 84.9 0 01-5.8-21.8c-1.9-13.8-2.6-27.6-14.1-38-4-3.8-6.6-9.4-9.8-14l2.8-2.6c3 3.5 5.4 7.5 8.8 10.5 6.4 5.6 17 3 17.8-5.2 2-21.3 2.2-42.6 3.2-64 4.2 11.2 9.7 22 12.4 33.5 2.2 9.6 4.6 17.8 15 21a102.4 102.4 0 001 72c7 17.4 7 34 7 51.5 0 4-.4 8 .4 12a39 39 0 004.6 12c5 8 2.5 15.2-8 18-.5-3.9-1.3-7.6-1.4-11.4-.1-8.6.7-17.3 0-25.8-2.2-26.8-2.3-54.2-16.5-78.2-5.8-9.8-5.3-18.3-.6-28 3-6.4 4-13.8 5.8-20.7A170.3 170.3 0 00884 844c-1 3.2-1 7.6.4 10.4a162.6 162.6 0 0119 70.6c.3 8.2 2.1 16.4 2.6 24.7.3 4.7-.6 9.4-1 14.2a5.7 5.7 0 01-2.4-4.7c-2.6-33.1-12.5-64.3-23.9-95.2-2.6-7.3-1.9-17.2.9-24.6a97 97 0 007.6-42.1 15.5 15.5 0 00-2.5 5.8c-3.4 12.6-7.4 25.1-10.1 37.9a46.7 46.7 0 00-.5 21.2c5.5 19.8 13.1 39 18.5 58.7 3.7 13.4 7.6 27.5 7 41-1.3 25.4-5.6 50.6-8.8 76-.8 6.5-3.4 13.2-2.6 19.5 3.8 28.3-2 57.8 10.9 85.1 3.2 6.9 3.1 15.3 4.6 23l3.4-.8c-1-3.9-2.1-7.7-3-11.6-3.5-16-9-32-10-48.3-1.8-28-6-56.3 4.4-83.8 1.4-3.6 1.4-7.8 1.8-11.8l3.3-34.8c3.9 8.1 9.6 6.8 15.5 4.1 1.3 7.6.8 7.3-5.1 21.2-13.1 30.9-22.2 62.5-15 96.7 1.8 8.1 1.8 16.7 2.7 25l3.7.1c-7.8-42.6-8.8-84.4 15-122.8-.5 9.2-.6 19-4 27.2-9.3 22.7-15.2 45.5-8.2 69.8 2.4 8.3 6.6 16.2 10.3 24.1 1.6 3.5 4.9 6.4 6 10 1.2 3.7.6 8 .8 12 2.6-2 3.5-4.3 3.3-6.5-.6-6.6-2.2-13.1-2.3-19.7-1.5-81.8-6.6-163.5-.7-245.3 1.6-23.4 8-28.4 32-26.9 15 1 30.2.6 45.2 1.5 12.4.8 25.2 1.1 37 4.5 12 3.5 23.2 6.4 35.9 4.2 5.8-1 13 1.1 18.6 3.7 7.7 3.6 15 5.3 22 3-8.5-3.2-17.3-7-26.5-9.7-4.2-1.3-9-.5-13.6-1-11-1-22-1.9-33-3.3-12.3-1.7-24.6-5-37-5.5-21.3-1-42.8-.3-66.1-.3 12.9-10.8 23.7-21.2 35.7-29.8 27-19.5 37-47.5 42-78.5a80.8 80.8 0 00.5-9.1c-3.7 1.4-6 3.1-6.7 5.4a75 75 0 01-20.7 34.4c-6.7 5.7-11.9 13-18 19.4a92.3 92.3 0 01-11 10c-5 4-10.3 9.5-16.1 10.6a194.6 194.6 0 01-40.4 2.9c-3.8-.1-8.4-6.4-10.9-10.8s-3-10.2-4-15.3c-4-20.1-9.5-40-11.8-60.3-3.3-28.3-4.3-57-6.4-85.4-1-13.3-1.5-26.2 5-38.8a153.4 153.4 0 0012.8-33.2c5.8-23 14.3-43.9 32.3-60.5 7-6.3 11.7-15.3 16.4-23.6 10-18 19.3-36.4 28.8-54.6 1.3-2.4 2.3-5 3.5-7.5l-2.9-1.9c-4.3 5.8-9 11.4-13 17.5-13 20.5-26.7 40.4-47.4 54.3-12.3 8.2-20 20-25 33.9a243.5 243.5 0 01-12.7 29c-2.1 4.3-6.3 7.4-9.5 11.1l-3-1.3c-7.7-42-16.4-83.7-22.7-125.9-6.4-42.4-10.5-85.3-15.7-129.1l46.9-3.6c2.3-.2 4.6-.6 6.9-1 15.6-2.3 31.3-4.5 47-7.3 6.1-1.2 12-4 18-6 7-3.3 16.3 1.1 22-6.5-11.5-2.2-22.9-4.6-33.8-3.2-41.4 5.5-79-7.7-116.9-21.1a23.4 23.4 0 01-4.4-2.3c-9.3-5.8-19-6.8-29.5-3.8a51.2 51.2 0 01-44.4-6.8 45.7 45.7 0 00-45.6-3.3c-12.8 6-27.7 7.8-40.4 1a80.1 80.1 0 00-48.9-9.9 91.3 91.3 0 01-58.1-13.3c-10-5.9-20.5-11.1-30-17.7-12.4-8.6-26.2-15.6-33.7-30.2-1.8-3.5-8-6.5-12.3-6.7-21-.7-33.8-13.3-44.7-29.1-1.5-2.2-3.3-4.2-4.7-6.5-4.8-7.3-11.6-8.5-20-8.3-7.2.3-15.4-.2-21.8-3.3-12.7-6.1-24.5-14.1-36.4-21.7-8-5-15.2-11-25.7-11.6-5.4-.3-10.6-4.9-15.7-7.8-5.4-3.1-10.3-7-15.9-9.8-8.3-4-17-7.2-25.5-11a33.6 33.6 0 00-38.3 9.2c-5.6 6.5-12 12.4-18.2 18.3-15.9 15-32 29.8-47.9 44.7-5 4.8-10.2 7.2-17.8 5a33.8 33.8 0 00-18.1 0 161.6 161.6 0 00-28.4 11.4c-4.4 2.2-7.5 6.8-11.2 10.4-2.6 1.9-5.6 5.7-7.8 5.3-14.8-2.5-17.4 9.3-22.5 18.2-.6 1 .5 3 .9 4.4 2.3-2.4 2.3-5.3 3.7-7 3.8-4.8 9.7-13.5 12.2-12.7 8.8 2.9 10.7-2.7 14-7.7 15.1-7 30.1-14 45.5-20.5 2.8-1.2 7.2-.1 10.4 1 9.7 3.5 16.4-.5 23-7 10-10.2 20.4-19.8 30.7-29.6 11.2-10.7 22.6-21.2 33.8-32 7.9-7.8 17.5-14.4 28-10.3 17.1 6.8 33 16.3 49.5 24.6 4.7 2.4 9.4 5.8 14.4 6.4 18 2.3 30 15.5 44.8 23.7 11.3 6.3 21.4 16 35.2 13.7 12.9-2 20.2 2.8 27.1 13 10.8 16 23.3 29.6 45.4 29.6 5 0 10.2 6.1 14.6 10.2 4.6 4.2 7.6 10.2 12.5 13.8 11 8 22.7 15 34.2 22.2 25.2 16 51.6 26.2 82.7 22.6a66.8 66.8 0 0133.3 6.8 60 60 0 0050.8.7c14-6 28.8-4.8 40 3 16.4 11.5 32.3 11 50.1 7.4 6.4-1.3 13.9-.4 20.1 1.8 18.4 6.1 36.2 14.5 54.7 20 22.8 6.7 46.3 8 70 5 7-.9 14.3.4 24.1.8l-8.9 6.7-118 15.5-1.5-13.4H817l-2.4 14.6c-13.6-.4-26.4-.9-39.3-1-2.2 0-4.4 1.3-6.6 2.1-20 7.4-40.2 12.4-61.8 6.1-4-1.2-9 0-13.5.8-22.4 4.5-44.5 9.5-67.8 7.4-10.5-1-21.5.9-32.1 2.2-8.5 1.2-16.8 3.9-25.3 5.2-18.9 3-37.9 5.7-56.8 8.3a81 81 0 01-9.9.8l-38.4.6c-23.7.7-47.2 8.2-71.1 2.2a25.3 25.3 0 00-4.6-.3l-.4 3.8c10.5.8 21 2.8 31.5 2.3 20.9-1.1 41.7-3.9 62.5-5.4 9.4-.7 19 1 28.4-.2 19.7-2.3 39.3-5.4 58.8-9 24.9-4.5 49.3-9.6 75.4-7.4 16.6 1.4 33.8-5 50.8-7.6 3.9-.6 8.2-1.7 11.6-.6 19.8 6.4 39 2.6 57.5-3.6 16.8-5.7 34-.2 50.6-4 .4-.1 1 .8 2.5 2.1V379c0 23.2.6 46.5 0 69.7-.8 28.5 2.6 56 13.9 82.6 3.3 7.7 3.4 16.7 5.5 28-6-3.2-9-4.5-11.7-6.2-31.8-19.8-64.5-38.5-95.2-60-43.8-30.5-86-63.2-129.1-94.8-5-3.7-10.7-6.5-16-9.8l.1.2-7.7-5 4.4-19.2-2.8-1.9c-4 4-9 7.3-12 11.9a105.6 105.6 0 01-32.5 34.3c-25.1 15.5-49.7 32-74.4 48.2-18.9 12.4-37.5 25-56.6 37.2-2.5 1.7-7.7 2.3-10.1.9-14-8.3-27-18.2-41-26-21.4-12-25-29.3-26-49.3a7.4 7.4 0 013-5.6c9.9-6 12.8-16.3 17.7-25.7 7-13.1 14-27 24.2-37.3a113 113 0 0035-84.8c-.2-18.5 3.3-37.1 5.8-55.6 1.3-10.3 3.8-20.3 5.8-30.4l-2.1-1-23.5 22V174l-21.8 27.2-3.3-1.5-6-32-15.7 20-1.6-23.4-15.8 24.6-3.5-1.3-4-26.8-13.9 21.1-2.3-.4-3.5-22.4-13 30c-5.6-10.6-10.4-20-15.7-29.2-1.3-2.3-4.2-3.6-6.3-5.4-1.7 2.6-4.4 5-5 7.8-3.6 17-6.7 33.9-10.1 50.8a15.8 15.8 0 01-2.2 5.3c-22.4 35.3-33.1 71.9-11.2 113-10.2.4-21.2 3.7-30.2 1-23.1-7.2-46-12-70.2-9.2-3.5.4-7.1-.9-10.7-1.6l-18-4.2c-5.3-1.3-10.9-2.2-15.7-4.6-8-4-15.3-7.8-25.3-5.8-12.3 2.5-24.6 1.4-33.5-9.8-.9-1.2-2.7-1.6-5.5-3.2 6.9 11.5 12.5 16 22.5 16.6 8.2.5 17.4-3 24.5-.4 15 5.5 29.6 11.6 45.8 12.7 6.2.4 12.2 2.4 18.3 3 19 2.1 38.8 1.7 57 6.7a64.9 64.9 0 0033.7 2.1c8.3-2 16-1 21.3 6.3q17.6 24 34.9 48.3c5.2 7.2 8.5 16.5 15.2 21.8 7.5 6 10.9 12.5 9.8 21s-1.7 18.4-6.6 24.2c-13.4 15.8-29 29.8-44.9 45.8-22.7-16.3-47-33-70.4-50.9-23.7-18.2-47.8-36.2-69.2-57-20.7-20-38-43.5-57-65.4l-2.5 1.4c.9 3.7 1 7.8 2.8 11 3.9 6.5 2.2 11.3-2.4 16.7-11.5 13.8-23.1 27.4-33.7 42-7.9 10.9-21 18.5-22.3 34 0 1.3-2.7 2.4-4.1 3.5zm261-332c-10.4 8.6-22.5 2.7-33.9 2.5 12 5.2 23.8 9.3 33.7-2.6 14.2-4.2 19.8 11.7 33.6 15.3-5.6-4.7-9.6-7.2-12.4-10.6-6-7.1-12.9-8.3-21-4.5zm810.8 583.8c-2.4-2.2-4.6-4.8-7.4-6.6-3.8-2.5-9.2-3.4-12-6.6-5.2-6-11.3-7.3-18.6-7.3-5 0-9.9-.9-14.8-.9h-43.1c19.5 1.4 39 2.2 58.5 3.4a28.4 28.4 0 0111.3 2.7c9 4.6 17.6 10 26.3 15.1-1 6.6-1.6 13.2-3.1 19.6-2.4 10.6-1 19.4 7.9 26.9a56 56 0 0119.2 31.8c1 5 4.8 10 8.2 14.3 4.5 5.7 5.1 10.4-1 15.3-1.6 1.2-2.7 3-5.3 6 15.5-7.1 16.8-12.5 8.3-24.1-3-4-6-8.4-6.9-13a50.8 50.8 0 00-18.9-30.7c-8-6.4-10.6-14-8.5-23.7 1-4.8 2.7-9.6 3-14.6.1-2.4-2-5-3.2-7.5zm42.1 599.2l-5.5 6.2-7.6-7-4.4 10.1-2.9.3-10.8-57c-.6 11.6-.3 22.8-.7 34s-1.3 22.3-2 34.1c8.2-6.8 3-17.4 6-26.9l9.3 25 2-.3 4.3-14 8 11.2 4.2-15.9c2.6 5 5.5 9.8 8 14.8 5 10 8.6 10.5 16.7 3.3 2.4-2.1 6.1-2.8 10-4.4-9.4-9.6-12 7-21.2 5.7l-6.1-16.7c-2.2-5.6-3.7-6.1-7.3-2.5zm-946-163.7l8.9-12 5 38.5 6.5-16 6.3 14.6 8.2-12.9 3 12.6 6.3-9.3-2.9.1-3.8-14.3-9 16.6-2.1-.4-1.2-18.1-9.4 14.4c-5-20-4.7-37.3.5-54.5 1-3.4.1-7.4.1-11.2l-3.9-.5c-1.5 4.7-4.9 9.8-4.2 14.2 2.3 14-2.7 26-8.9 37.8l-18.1 20.5-4.8-13.2-11 14.8v-22.9l-2.8-1.2-14 16.9 2 1.7 10.8-13.7 2 21.5 2.9.2 8.3-9.7 5.6 12.6zm889.9 167.5l-5.4 9-6.6-10.6-4.5 10c-17.4-21.8-22.3-47.2-25.5-73.7-2.5 23.8 8.3 49-12.5 70.1l-4.3-14-6.8 7.5-4.3-27.8-3.3.5-1.7 23.2-2.8.4-18.6-60.3c-1.7 14.5 14 59.6 21.6 65.8l4-10.3 3.3 20.2h2.6l4.3-9.7 5 9.3c12.2-7 13.4-19.9 18.2-30.7l22.6 41.8 2.2-1 .5-11.7 10.1 5.6 1.6-13.9c1.7 2 3.5 4 5 6.1l6.4 10.4 1.1-1.3-8.4-22.5zm80.2-312c4.9 25.7 2.7 50.2-9.6 74.1a87.2 87.2 0 00-8.4 37.3c-.6 31.9.1 63.8 2 95.6 1.7 28 7.9 55.2 20.9 80.4 1.7 3.3 4.7 5.8 7.1 8.7l2.1-1.7c-23.4-34.3-25.7-74-28.7-113.3 2 6.5 2.6 13.3 4.4 19.8 5.4 20.5 10.5 41 17 61.2 4 12 16.2 20.3 16.6 34.4.1 2.2 3 4.4 4 6-1.2-7.9-2.9-15.8-3.7-23.8-1.4-14.6-2.9-29.1-3.4-43.7-.9-21.2-2.8-42.6-.9-63.6 2.9-31.6 10.2-62.6 7.5-94.9-2.4-29.8-1-59.8-1.6-89.8-.3-11.6-1.3-23.2-2.5-34.7-1.4-14.8-4.8-29.6-4.7-44.4.2-33.4 5.4-66.7-10-98.8-7-15-.8-31.8 3-47 7.4-29 16.4-57.6 24.6-85.8 0 19.1.5 39-.1 58.9-1.1 37.5-.7 75.3-5 112.4a410.9 410.9 0 00-.7 99.3c1.6 13.1 4.9 26.3 4.9 39.4 0 23-3 45.8-3 68.8q.3 101.2 2.2 202.5c.3 14 3 28.4 6.4 42.2 2.8 11 8.9 13 21.6 8.7-3.4-19.6-7.2-39.6-10.1-59.8-1-6.2 0-13 1.1-19.3 2.1-11.9 5-23.6 7.5-35.3l-2.4-.5-7.4 37.6c-2-15.8-2.3-31-2-46.2.8-36.6 2.2-73.1 2.7-109.6.4-23 .7-46-.5-68.9-1.9-34.8-6.4-69.5-7.3-104.3-1-35.8.7-71.8 2-107.6 1.7-49.9 3.3-99.6-2-149.3-1.4-12.2-3.4-25-1.2-36.7 6.9-37.9 8.6-75.5 3.2-113.8-1.4-9.6.3-21.4 4.9-29.9a72.2 72.2 0 007.2-37.3c0-5.7.3-11.4-.1-17-.4-4.6-.7-9.6-2.8-13.4-10.8-19.8-22.1-39.3-33.4-58.9-.7-1.3-2.4-2-5.4-4.4 12.5 39 34.8 73.7 21 115.5a66 66 0 01-12.6-17c-7.3-14.5-13.8-29.4-21.1-44-10.4-20.3-21.2-40.4-32-60.5-4.1-8-10-15.2-13-23.5-10.1-28.1-30-50-47.7-73a352.7 352.7 0 00-51.3-51.5c-16.6-14-35.6-25.4-53.6-37.8-1-.8-2.8-.4-4.2-.5a168 168 0 0029.8 33.8c29.8 24.1 48.8 56.8 70.7 87 15 20.6 26.8 43.4 40.1 65.1 13 21.2 31.1 40 35.3 65.2 5.4 32.7 8.9 65.7 12 98.7 2.4 24.5 2.7 49 4.2 73.6.8 15 2.2 29.8 3 44.8.7 12.3-3 22.8-14.8 30.7-4-5.5-8.2-10.6-11.5-16.2-9.5-16.3-18.7-32.9-27.9-49.4-10.5-19.2-22.2-37.9-31-57.8-9.4-21.6-20-41.8-38-57.5-4.3-3.6-7.5-8.4-11.3-12.6-3.5-3.7-7.3-7.2-11-10.9l-2.3 2.2c1.9 3.4 3.5 6.9 5.8 10 12.5 17.5 25.6 34.7 37.6 52.6a128.5 128.5 0 0113.5 27.4c6 16.5 10.5 33.4 16.3 50 4.3 12.2 9.7 24 15.9 39.1-15-4.6-27.3-7.4-38.7-12.3s-23.3-8.8-34.4-2.7c-11.9 6.6-20.5 3.5-29.5-4.1-8.2-7-17.2-8.2-26.8-3.2-7.6 4-16.1 7.2-22.3 12.9-16.3 15-31.6 31.1-47 46.5 10.4-3 17.6-11.6 25.6-19.3 11.9-11.4 24-22.7 37-32.9 11.5-9 23.9-9 35 1.5 7.9 7.4 16 8.3 25.5 3.2 11.8-6.3 23.6-4.7 35.2 1.4 4.3 2.2 9.2 3.6 13.9 5 7.2 2.2 16.2 2.1 21.3 6.6a85.4 85.4 0 0124.5 42.8c4.6 16.9 11.5 33.1 16.8 49.8 7.2 22.5 12.6 45.3 10.7 69.4a512 512 0 00-.8 57.6c.6 16.5 4.1 33 4.6 49.5.5 21.2-1.5 42.5-.9 63.7 1.2 41.4-4 82.2-9.2 123.1-2.7 21.7-5.6 43.5-6.4 65.4-1.4 36.4-1 73-1.8 109.5-.1 8.9-1.6 17.8-2.2 26.7-.2 3.8.4 7.7.6 11.6l2.2-.1 2-17.5h2l7 20.6a19 19 0 00-.2-12c-2-5.2-6.7-9.7-7.3-14.8-1-11.2-.3-22.6-.3-34l3-.5 12.9 65.7a17.1 17.1 0 001.1-9.4c-3.1-17.2-6.2-34.5-10-51.7-1.4-6.2-6.7-12-6.9-18-.6-23-1.2-46 .7-68.7 4.2-48 11.3-95.6 14.8-143.6 2.6-37 1.6-74.4 2.3-111.6 0-2.6.4-5.3.6-8l2.9-.1c5.4 16.9 8.5 34.3 8.1 52.2-.6 28.2-2.4 56.3-10.9 83.6-1.4 4.5-.1 9.9-.1 14.8l.8-.2 6.7-35.5zM652 1371.5l11.5 1.5c17.6 3.4 35 3.1 51.9-3.5 2.6-1 6.1-5 6-7.3-1-14.2-3.2-28.4-4.8-42.5-1.5-12.2-3-24.3-4.1-36.5-1-10 .4-20.4-2.4-29.6-7.3-24.7-15.4-49.5-44.6-57.6-4.5-1.2-9-2.3-13.4-3.6-31-9-74.6 15.6-79.3 52.7a130.8 130.8 0 005.6 61.7 52.8 52.8 0 0064.9 33.4c8.8-2.7 12.5.8 11 10.1-1 6.8-1.5 13.7-2.3 21.2zm319 65.4c3.2-8 7.2-14.8 8.3-22 .8-5-.7-12.4-4-15.8-5.3-5.1-12.9-2.1-16.6 3.3a250.7 250.7 0 00-18.8 33.3c-2.9 6-5.5 10-12.2 12.7-33.2 13.3-66 27.7-99.2 41.2-4.4 1.8-10 1.1-15 .9-10.5-.5-21.1-2.2-31.6-2-8.6.4-18.3 10.9-17.2 18 1.4 9 9.5 10.2 16.7 11.4 7.4 1.2 14.9 1.8 22.3 2.6 2 22.5 4.3 26 18.7 29.3 8.3 1.9 27.8-3.2 30.8-8 3.7-6 .3-21.6-7.3-30l2.2 9.6c4.3 20.6 2.7 22.8-18.3 24.5-13.1 1.1-21.4-6.4-21.4-19.6V1516c-14.3-.6-28.3 1.2-39.5-9.1 2.8-10.4 9-15.8 19.5-14.9 9.2.8 18.4 2.3 27.6 3.2 3.5.4 7.4.8 10.5-.5 22.4-9 44.7-18.6 67-28 11.6-4.9 22.8-11.2 35-14 7.7-1.9 11.5-5 13.6-11.8 1.2-3.8 2.2-7.8 4-11.2 4.3-8 8-16.2 13.7-23 2.6-3 9.1-3 13.8-4.3.5 4.6 2.2 9.5 1.3 13.8-1 5-4.3 9.6-6.5 14.5l-3.6 9c5.8 1 10.4 1.6 14.8 2.7 7.7 1.9 15.7 3.2 22.7 6.6 3.5 1.7 8 8.4 7 10.9-1.8 4.7-6.7 10.2-11.4 11.3-6 1.5-14.6 1.3-19.2-2-12.8-9.7-23.7-6.8-36.4-.4-10.6 5.3-22.7 7.4-33.7 11.8-15.7 6.2-31 13.1-46.5 20-4.7 2-9.1 4.8-13.7 7.3l1.4 2.4c3.7-1.6 7.5-3.5 11.3-5 30.7-12.1 61.6-24 92.2-36.6 6.1-2.5 10.5-1.7 16.6.5a104.6 104.6 0 0030.6 5.6c8.4.3 12.2-7 13.7-14.7s-3.1-12-9.1-14.9a83.9 83.9 0 00-16-5.3c-5.6-1.4-11.5-1.9-18.1-3zM869.4 915.1l-3.8.5c1.5 14.9 3.1 29.8 4.4 44.7.6 6.5 1.3 13.2.8 19.7-1.1 13.9-3.2 27.7-4.3 41.5-.3 4 1.4 8.3 2.5 14.2 17-20.7 16.1-98.7.4-120.6zm323.5 54.5c0-26.5 1.8-53-.4-79.4-2.7-31.3-1-62.2 2.2-93.3 2.5-24.5 2.7-49.3 4-73.9-9 82.1-14.8 164.3-5.8 246.6zm-771.7 214.5l1.3.2-6.5-101c-3.2 21.5-7.3 45.5-10 69.6-1.1 10.2.8 20.7 1.4 31.1l3.3-.2 2.4-55.7h1.4l6.7 56zm742.3-466.4c-1 2.3-2.4 4.5-2.9 7-2.4 12.1-5.7 24.3-6.7 36.6a230.3 230.3 0 00.7 40.3c.4 4.1 5.9 7.7 9 11.6l3.8-1.9c1.6-31.1 4.6-62.2-3.9-93.6zm34.6-32c-.7-8.4-1.2-14.7-2-20.9-2-16.7-6.1-33.4-5.8-50 .4-23.6 4.6-47 6.3-70.5a183 183 0 00-4.4-65c-.5 3.5-.2 7.1-.1 10.8.4 21.8 3.1 44 .7 65.4-5 43.1-9 85.8 5.4 130.1zM432 1218.5l2.2-.2 13.4 34.5 3-.8v-14.3h1.1l6.7 19 5-8-3 .8-9.8-23-4.4 15.6-13.3-39.7-1.9.6-2.5 49.6-8.5-3.6-1.2 2.3 8.4 5c1.6-3 4.3-6 4.5-9.1.7-9.6.3-19.1.3-28.7zm623.1-572.7l.7-3.2c-18.2-5.2-37.4-8.3-54.4-16-16-7.4-29.9-5.2-44.8.5-3 1.1-6.8.9-10.1.4-7.8-1-34.4 11.2-38.4 18.2-.3.5.5 1.7.1.6L939 631c1.6-.8 5-1.6 5.5-.9 4.8 6.2 9 1 13.1-.5 11-3.8 21.6-8.9 33.7-4.5 8 2.8 16.3 5 24.4 7.7 13.1 4.2 26.3 8.6 39.5 13zm-524.2 528.4l-10.7-61.4-1.4.1 1.4 26.5-.8.1-11.3-55-4.9 1.4c11.6 28 9.8 60 27.7 88.3zm-126.3 261.3c1.1 14.9 1.2 28.5 3.4 41.8 2 12.8 1.4 26.6 10.6 37.5-9.8-33.6-11-68-11-102.6l-9 30.9zm-349.8-285l-1.2-.4c0-11 .2-21.8-.1-32.7-.2-7.8-1.2-15.5-1.9-23.3l-3.2.2-9.2 51 2.3.6 6.8-13.4zm40.2 4h2.8l6.4-42.6c4.4 16 1.2 30.9 11.7 42-9.2-21.6-5.9-44.6-9.3-67l-10 57.7-1.8-.1-1.9-5.8-1.4.4 3.5 15.4zm577.3-874.1l.4 2.4c6.7-2.2 13.3-5 20.2-6.5 7.8-1.6 16.2-5 23.1 3.3 1.4 1.7 6.2 1.1 9.2.6 10.8-1.7 21.5-5.4 32.2-5.5 17.3 0 34.6 2.2 51.9 3.4-2.7-2.1-5.8-4.2-8.9-4-24 .6-48.2-5.3-72 2.5-3.2 1-8 1.9-10.4.3-16.9-11.8-30.8-.1-45.7 3.5zm-342 808.6c7.5 23 11 46.4 6.7 70.7h3.2l2.1-33.3c4.5 8.4 7.5 14.7 11 20.6s7.7 11.3 11 16.2zm310.9 49l-1.6-.2-2.4 21-1.7-.3-5.5-30.8-15 51.5 2 .5 12.5-37.3 6 28 3.1-.4 2.6-32zm22 38.8l-20.7-83.5h-1v23.6l2.5-6c4.2 29.6 14 61.2 19.1 65.9zm-535.8 79c-.7 27 12.7 71.8 21.9 75.9v-17.3h-1l-1.3 9.7-2.8.4zm348 262.6l2-.7-24.2-57-1 2.3-4.1-5c10.8 17 7.6 34.8 2.6 52.7l3 .2 4.9-29.6zm-96.2-369.9l5.3 7-4.6-34-2.2.3-2.6 27.7-8.6-17-2.2 1 13 30 1.9-.7zm-151.5-9.8l4.7 6.2 1-.6-18.2-49-3.3 1.1c1.4 18.7 21 35.1 6.6 55.8l2.6.5 6.6-14zm.1 163.8l-.6-2c-9 1.5-18 4-27.2 4-6.8.1-12 1-16.3 6.6-5 6.3-9.5 4.3-13-1.7-2.2-3.6-4-7.5-5.9-11.3l-3.7 2.3c4 5.8 7.7 12 12.3 17.3 1 1.3 6.8.8 8-.8 6.3-8.3 15.1-8.8 24.5-9.6 7.3-.6 14.6-3.2 21.9-4.9zM691.7 1145c2.4 12.2 2.8 12.7 6.8 10.5l-5-24.1h-1.9l-6.4 25.4-2.7-.3-3.2-17.4-3.3.8 5.3 22.6 4.4.1 6-17.6zm153.5 11c-11.7-6.3-4.6-18.4-11-25.9-1.4 3.4-2.2 5.8-3.3 8.1-1.5 3.5-3.2 6.9-4.9 10.3l-9.7-6.6c1 3.8 3.4 9.3 6.2 9.6 3.7.3 7.8-3.5 11-5l6 12.4zm-353 320.5l-3.3-.2c-.6 6.5-2.2 13-1.5 19.3.8 6.8 3.8 13.4 5.9 20l15.3-16.5c.2-.2-.4-1.1-.5-1.3l-12.6 15.3-3.3-1.2zm167.6-362c1.6 31 9.7 54.5 20.7 59.4-15-17.7-13.5-39.9-20.7-59.3zM946 1153v-66.5c-7.3 22-4.5 43.8 0 66.5zm63.1 7h-3.2V1125c-3.7.8-5.6 2-5.5 3 1.8 14 3.8 28 5.8 42l3.4-.1 2.6-12.9-1-.2zm-57.3 83.3c2.5 19.8 6.2 39.2 13.6 57.6l2.5-.8zm-443.4 4.9c-17.7-9.1-11.6-29.4-20-44.4-3.5 19.4 10 47 20 44.4zm407.2 22.8c4.2 9 7.7 16.2 11 23.5l3.4-.8 2.4-13.7-1.1-.1-3.5 10-10.9-24.5-3.4 1v13.4l1 .2 1-9zm-358.5-117.7l2 .3 10.3-67.8-2.5-.3-9.8 67.8zm459.6-12.7l3.2 22.4c2.2 14 15.5 19 27 10.3-19 3.7-23 .5-24.8-19.4a56.9 56.9 0 00-1.8-10.7c-.3-1.2-2.4-1.8-3.6-2.6zm-866.2 143.7c-5.1 14.7-.7 30.4 10.3 38.6l3.3-8.4c-8.6 3.2-9.2 2-13.6-30.2zm932-112.7l2.7-.4-6.6-53.9-3.3.5 7.2 53.8zm-641.6-15.8l-.7.1-1.9 9.2-3.2-.1-7.4-35c0 14.6 0 29.2 12 41l1.2-15.2zm124.6-16.3l-2.5.7c2.3 7.8 3.8 16 7.5 23 1.4 2.6 9 4.6 12 3.2 5.5-2.4 9-7.8 3-14.7a15.7 15.7 0 01-.7 3.5c-1.8 3.6-3.8 7-5.7 10.6-2.8-2.6-6.8-4.6-8.2-7.7-2.5-5.9-3.6-12.4-5.4-18.6zm-137 362.6l-5-10.6-2 1 6.4 15.4 7.8-15.4 7 8.4 1.1-1.3-6.6-19.3-8.7 21.8zM63 1146.5l-4.1-19.3c-6 5.6-3 18.4 6.6 27l3-11.8zm846.4-439.1c14.3-17 33-11.2 50.7-10.7-30.9-6.4-36.6-6.3-50.7 10.7zM537 1238c-8.3 5.5-9.6-.5-11.7-5.4-1.8-4.4-3.9-8.7-5.8-13l-3.1.8-2 9 4.3-3.9c9.8 22 9.8 22 18.3 12.5zM501.2 225.6l-1.4 2.5 47.2 19 .7-1.6zM529.1 1517c-3.2-2.8-6.4-4.4-7.4-7-1.4-3.9-.8-8.5-2-12.6-1-3.1-3.4-5.9-5.6-9.5 2 9.3 3.1 16.6 5 23.7.7 2.6 2.3 5.8 4.5 7 1.5.7 4.7-1.4 5.5-1.6zm63.6-11l-33.8 7.5c5.2 4.7 12.6 3.5 33.8-7.6zm118.7-373.4c-3.2 3-6.3 5.1-6 5.8 2.5 5.6 5.5 11 9.3 18.1l7.9-12.2-2.6-2.3-4.6 8.7-2-1.3-2-16.9zm-467.1 4.4l-10.7 16.1 3 2 15.1-16.2zM126.5 177.5c-27.8-2.2-33 .6-31.6 16.3 3-20.3 17.7-17.3 31.6-16.4zM913 1153v-21l-2.5.2c.8 8-5 16.6 3.4 24.3l13-10-1.1-1.8zM231.4 165.4l-.5-1.8-37 11.6.6 2.5zm39.1 973.7l1.7-.6-2.2-9.6-2.4-.5-12.4 19.6 2.7 1.8 10-16.2zM935.4 1269l-2 1 8.6 27.2 3.4-1.2zM538 1132.3h-1.3l1.4 26.5 4.5-.5-4.6-26zm523 32.6l-1.8-13.4-2.1.3 3.2 24.8h2.2l4-16.8zm-608.4-5.7l-9-20.5c-2.8 10.7 1.7 19.2 9 20.5zm-139.6-7.7l6.6-9.5-1.1-.9-5.7 4.7 1.2-13.9-7 9.5zm133.3-944.1L477 213c-9.7-7-19.8-9.8-30.8-5.8z" class="cls-1"/>
      <path d="M869.8 1174.9c-3-12.1-6.4-24.2-9.3-36.3-1.2-5.1-1.6-10.4-2.5-16.4l-7 13.8-2.2-1.1a23.4 23.4 0 002-4.6c.9-4.2 8.3-8.5-.1-12.7-.5-.3-.3-2.6 0-3.8 7.7-37.8 1.2-75.6-.2-113.4q-2-58.3-1.7-116.7c.1-21-7.4-38-21.4-52.7-1.9-2-6-3-8.7-2.5-19.1 2.7-37.7-.1-56.4-4-7.2-1.5-15-.2-22.6-.2-10.2 0-20.5 1-30.5-.3-22.6-3.2-45-8.4-67.6-11.2-25.2-3.1-50.6-5-76-6.3-8-.4-16.1 2.6-24.6 4.2.7 7.2 3.7 9.1 9.4 7.4 4.4-1.4 8.8-3.1 13.4-3.6 2-.3 4.8 1.7 6 3.5.6 1-1 4.8-2.5 5.5-10.3 4.6-6 10.4-2 16.6 15 23.5 32.5 44 57.2 58.6 19 11.3 38 23.7 54 38.9 10.9 10.2 17.1 25.7 24.4 39.4 9.2 17.6 16.6 36.3 26.4 53.5 4.4 7.7 12.6 13.2 19.3 19.4 4 3.8 9.3 6.7 12.8 11a254.5 254.5 0 0157.1 136.8c1.1 10.4 4.8 20.5 7 30.8a20.5 20.5 0 010 8.4c-20-34-49.5-58.7-77.8-84.4a13 13 0 00-9.4-3c-9 1.3-7-6.9-10.1-10.6l5.4-1.7c-5.1-4.6-9.2-9-14-12.5-23.7-17.5-34.4-41.9-39-70.3a440.3 440.3 0 00-12.9-57.2 62 62 0 00-15.1-25c-12.1-12.2-26.5-22.1-39.2-33.8a299.8 299.8 0 01-32.7-33.3c-15-18.9-28.6-39.1-43.1-59.3-3.2 1.3-6.2 3-9.3 3.5-2.6.4-6.6.4-7.7-1-1.3-1.8-1-5.9.2-8 2.3-4 6.1-7 8.4-11 1.7-3 2-6.7 3.3-11.9l-16 5.4c3.9-9.8 3.8-14.8-7.8-13.8a351.2 351.2 0 01-49 1c-11.4-.7-22.6-4.1-33.9-6.3l-.4-2.7c5-2.9 9.6-7 15-8.6 12.3-3.4 25.5-4.6 37.6-8.8 6.7-2.3 12-8.8 18.6-14-20.7-19.1-28-45.8-39.8-70-1.5-3-5.6-6.3-8.9-6.7a69 69 0 00-44.4 9.1c4 4.8 8.3 9.2 11.8 14.1a15 15 0 013.2 8.6c0 1.3-4.4 2.4-7.2 3.7a41 41 0 01-29 34c-8.7 3.1-9.3 7.6-8.3 15.8a285.9 285.9 0 011.6 43.8c-1.4 40.3-3.6 80.6-5.4 120.9-.3 8 0 15.9 0 26.3l24.2-41.8 3.6 1 5.3 13.9c2.4-5.6 4-10.3 6.3-14.6 1.1-2 3.6-4.8 5.4-4.7s4.9 3 5.2 5c2.5 18.6 5 37.3 6.3 56 .2 2.9-5.4 6-8.4 9l-8.6-9.2 2.1-2 8.8 9.7c6.7-23.5-1-43-4.8-63.1-14.5 26.1-26.7 53-41 78.8l-4.6-1.2c-1-5-2.7-9.9-2.6-14.8.6-41.2.8-82.4 2.9-123.6a786.7 786.7 0 00-3.5-120.3c-3-28.4-3.3-57.1-4.7-85l-16.2-16 2.3-2.5 14.1 12.7v-33.4c-15.5-5.8-20.1-10.7-19.7-21.5 5.7 6.7 8.5 16.3 20.6 15 0-7.1.4-14-.2-20.9-.2-2.2-3-4.6-5-6.3a27.4 27.4 0 01-11.6-22l13.3 18.7 2-1.2c1.2-12.3 2.3-24.7 3.6-37 .2-2 .5-4.2 1.6-5.7 3-3.8 5.7-9.1 9.6-10.3 2.7-.8 8.5 3.6 10.5 7 9.2 15.8 18.6 31.6 26 48.2 21.1 47.7 41 96 62.2 143.7 4.8 10.7 12.4 20.3 19.2 30.1a23 23 0 008.5 6.7c13.8 6.9 17.4 14.1 15 30.1-.5 3.6.7 7.6 1.2 11.3l2.6-.3v-32.2c3.8 1.4 3.8 1.4 8.6 30.6 1.6-.8 3.6-1.1 4.2-2.2 5.3-9.5 2.4-25.9-5.7-33s-16.6-13.9-24.6-21.2c-1.9-1.7-1.8-5.3-3.1-7.8-23-44-41.4-89.6-56.9-136.8-9.4-28.8-24.3-56-37-83.7-1.2-2.7-4.4-4.6-6.8-7-1-2.8-1.2-7.6-3.7-9.6-11.9-9.9-23.3-21.1-36.9-27.9-24-12-36.7-29.5-36.5-56.4 0-1.2-.4-2.5-3-5.1l-4.5 7.1c-.2.5 0 1.3.2 2 4.8 18.2-1.7 31.7-16.3 42.7-21.3 16.2-34.5 38.3-44.2 62.8-5.2 12.9-12.7 25.3-15.4 38.7-6.7 32.8-12.3 65.9-16.2 99.1a2028 2028 0 00-9.8 119.2 33 33 0 01-17.3 29c-1 .6-2.5 1.5-2.8 2.6-2.5 11.3-4.8 22.7-7.1 34l4.6 1 5.3-33.4 2.4.4-1.7 21.1 2.4 1.3c1.4-2 3.4-3.9 4.1-6.2 3.4-10.6 6.5-21.4 10.1-33.8 10.4 11.2 5.8 19.5 2 28.3-4.9 11.5-4 15.5 3.3 20 0-5.1-1.5-10.8.3-15.2a89.4 89.4 0 0113.3-22c4.2-5 2.3-7.3-.4-11.5a25 25 0 01-4.2-13.7c2-34.6 2.8-69.3 7.3-103.5 6-46.3 9.8-93.4 29.4-136.9a62.9 62.9 0 018.4-13.4c1.2-1.6 5-2.7 6.7-1.9s2.8 4.2 2.7 6.5c-.8 14.8-2 29.5-.9 46.1l15.5-15.6 2 1.8c-4 4.8-7.1 11.5-12.2 14-11.7 5.5-9.6 14.7-9.6 26.9l16.5-13 1.7 1.5c-4.2 3.9-7.8 9.5-12.7 11.2-7.2 2.3-7.7 6.7-7.7 12.6v133.5c0 46.8-.7 93.6.2 140.4.5 23.2 3.8 46.3 6.4 69.5 2 17.7 3.6 35.6 7.7 53a84.7 84.7 0 0014.2 27c2 2.8 8.2 4.2 12.3 3.8 5.4-.6 11-3 15.8-5.7 10-5.5 12.6-12.7 9.6-24.1-9-34.7-9.8-70.3-10.6-105.8-.8-33.3-2.3-66.6-3.6-99.9-.1-2.4-1-4.8-1.5-7.2l-3-.4c-1.2 4-3.4 8-3.5 12.2-.7 32.8-2 65.7-1.2 98.5.7 26.2 4.3 52.4 6.8 78.5.4 3.6 1.6 7 2.7 11.4l6.7-3.5 1.4 1.1-8.4 11.2c-2.7-7.9-5.3-13-6.1-18.5a866.4 866.4 0 01-8.1-146.3 472 472 0 012.3-34.8 27.7 27.7 0 013.5-10.3c1-2 3.8-4.7 5.5-4.5 2 .2 4.7 3.1 5 5.2 1.7 8.2 3.1 16.4 3.4 24.6 1.6 44.9 2.2 89.8 4.5 134.6 1 18.1 5.3 36 8.6 54 2 10.6 9.2 17.3 19.7 18.5 10.3 1.3 17.7-4.7 22.4-13.6a101 101 0 007-17.4c5.7-18.8 11.1-37.7 16.6-56.6l3 .8c-1.3 5-2.4 10.2-3.9 15.2-3.8 13.7-7 27.7-12 41-4 10.2-9.1 21-16.6 28.7-9.6 10.1-19 9.1-30.4 1.2l-2.5-1.7c-10.1 6.4-18.4 12.9-27.7 17.1-10.7 5-16.7 2.1-24-7.1-14-17.4-16-38.4-18.4-59.1-1.9-15.2.1-31.6-5-45.4-5.4-14.5-4.7-28.5-4.7-42.7 0-25.5 2.3-51 2.3-76.5 0-35.2-1-70.5-2.1-105.7-.2-8.5-17-19-30.2-19-.6 34.5-12.3 68.6-.8 103.4 1.8 5.6 1.2 14.6-2.2 18.8-8.4 10.4-8.4 20.9-6.3 32.8.6 3.4-1.6 7.4-3.2 13.4l-11.4-14-8.3 5.1c-2-4-4.2-8-7.1-13.4-2.2 3-4.1 6.7-6.8 9.4-1.9 1.8-5.3 3.9-7.3 3.3s-3.7-4.6-3.5-7c.6-10 1.7-19.9 3.3-29.7.5-3 2.2-6.7 4.6-8.3a45 45 0 0019.8-37c1.7-29 5-58 7.7-88-17.6-5.4-34.4-11.2-51.5-15.7a122.2 122.2 0 00-65 2.3c-3.1.9-7.3 1.7-8.9 4-7 10.7-8.8 5.5-14-2.3-7.1-10.7-17.4-19.4-26.5-29.2 0 15 1 28.2-.4 41.1-.8 8-5.3 15.6-7.8 23.5-5.2 16.6-8 33.6 0 52.1l49.6-73.2c.1 1 1.2 3 .6 4.2q-17.6 33.4-35.5 66.7c-.5.7-1.6 1.1-2.3 1.7l-.8-.6L67.8 739c-7.4 12-23 18.3-24 34.2l.3-.4-8.4 6.4c.1-3 .6-6.2.3-9.2-.6-6.5-2.2-13-2.4-19.7-.7-18.2 3.4-35.5 10.8-52.1a51 51 0 001.6-33c-6.3 25.3-12.7 50.6-15.8 76.4-2.4 20-11.9 35.4-24 50.2 5-14.8 20.3-25.2 19.5-44.4L6 775.4 2.2 774c36.5-38.4 29-86.3 32.7-132.1v40.7l4.1.4c1.3-11.7 6.3-24.7 2.9-34.9-5-15-21.6-18.8-35.7-23.6 17.3-1.8 29.3 8.8 41.2 19.1 12.2 10.5 24.2 21.3 37.9 33.5.4-13.4 1.7-26.1 1-38.8-2.3-38.5-5.9-76.9-8.2-115.3-2.1-33.6-3.1-67.1-5-100.6-.6-13.7-2.3-27.3-3.8-43.8-2 4.5-2.9 6.1-3.5 7.9L45 448.7l-32 96.2L0 583.3v-10l5.8-17.7 59.4-176.1c1.5-4.5 2.2-9.2 3.3-13.8l-3-1.5L4 451.4.6 449l67.2-93.1A843.8 843.8 0 0021.9 413C14.4 423 7.3 433.3 0 443.4v-6c1.4-1.1 4-2.2 4.2-3.5 1.2-15.5 14.3-23.1 22.2-34 10.6-14.6 22.2-28.3 33.8-42 4.5-5.4 6.2-10.2 2.3-16.7-1.8-3.1-2-7.3-2.8-11l2.5-1.4c19 22 36.3 45.4 57 65.4 21.4 20.8 45.5 38.8 69.2 57 23.4 18 47.7 34.6 70.4 50.9 16-16 31.5-30 44.9-45.8 5-5.8 5.6-15.9 6.7-24.2s-2.4-15-9.9-21c-6.6-5.3-10-14.6-15.2-21.8Q268 365 250.3 341c-5.3-7.2-13-8.3-21.2-6.3-11.5 2.8-22 1-33.7-2.1-18.3-5-38-4.6-57-6.7-6.2-.7-12.2-2.6-18.3-3-16.2-1-30.8-7.2-45.8-12.7-7.2-2.6-16.4 1-24.6.4-10-.6-15.6-5.1-22.5-16.6 2.9 1.6 4.7 2 5.6 3.1 8.8 11.3 21.2 12.4 33.5 9.9 9.9-2 17.2 1.9 25.2 5.8 4.9 2.4 10.5 3.3 15.8 4.6 6 1.5 12 2.9 18 4.1 3.5.8 7.2 2.1 10.6 1.7 24.2-2.8 47.1 2 70.2 9 9 2.9 20-.4 30.2-1-21.9-41-11.2-77.5 11.3-112.8a15.8 15.8 0 002.1-5.3c3.4-17 6.5-33.9 10.2-50.8.6-2.8 3.2-5.2 4.9-7.8 2.2 1.8 5 3.1 6.4 5.4 5.2 9.1 10 18.6 15.6 29.2l13-30 3.5 22.4 2.3.4 13.9-21.2 4 26.8 3.6 1.4 15.7-24.6 1.7 23.4 15.6-20 6 32 3.4 1.5L391 174v27.4l23.6-22 2 1c-2 10.2-4.4 20.2-5.7 30.4-2.5 18.5-6 37.2-5.9 55.7a113 113 0 01-34.9 84.8C360 361.6 353 375.4 346 388.5c-5 9.4-7.8 19.7-17.7 25.7a7.4 7.4 0 00-3 5.6c1 20 4.6 37.4 26 49.3 14.1 7.8 27.1 17.7 41 26 2.4 1.4 7.5.8 10.1-.8 19-12.2 37.7-24.9 56.6-37.3 24.7-16.2 49.2-32.7 74.4-48.1 14.2-8.7 23.6-21 32.4-34.4 3-4.6 8-8 12-11.9l3 1.9-4.4 19.2 7.7 5-4.6 4.3 35.9 27.6c11.7 9.1 23.2 18.7 35 27.8 12 9.4 24 19 36.7 27.4 11.9 8 24.7 14.5 37.1 21.6-30.6-24.1-62.1-46.6-93-70-16.2-12.2-31.5-25.9-47.2-38.9 5.3 3.2 11 6 16 9.8 43 31.6 85.4 64.2 129.2 94.8 30.6 21.4 63.3 40.1 95 60 2.8 1.7 5.7 3 11.9 6.1-2.2-11.2-2.3-20.3-5.6-28a194 194 0 01-13.9-82.6c.6-23.2 0-46.4 0-69.7v-71.7c-1.5-1.4-2.1-2.2-2.5-2.2-16.6 3.9-33.7-1.6-50.6 4-18.5 6.3-37.7 10-57.4 3.7-3.5-1.1-7.8 0-11.7.5-17 2.7-34.2 9.1-50.8 7.7-26-2.3-50.5 2.8-75.4 7.4-19.5 3.6-39.1 6.6-58.8 9-9.3 1.1-19-.5-28.4.2-20.8 1.5-41.6 4.3-62.4 5.3-10.5.6-21-1.4-31.6-2.2l.4-3.9a25.3 25.3 0 014.6.3c24 6 47.4-1.5 71-2.1 12.9-.4 25.7-.4 38.5-.7a81 81 0 009.9-.7c19-2.7 38-5.3 56.8-8.3 8.5-1.4 16.8-4.1 25.3-5.2 10.6-1.4 21.6-3.2 32.1-2.3 23.3 2.2 45.4-2.9 67.8-7.3 4.4-1 9.4-2 13.5-.9 21.6 6.3 41.8 1.3 61.8-6 2.2-.9 4.4-2.2 6.6-2.2 12.9.2 25.7.7 39.3 1l2.4-14.6h1.7l1.6 13.5 117.9-15.5-.2-.2c-6 2-11.9 4.8-18 6-15.6 2.9-31.4 5-47 7.4-2.3.3-4.6.7-7 .9l-46.8 3.6c5.2 43.8 9.3 86.7 15.7 129.2 6.3 42.1 15 84 22.7 125.9l3 1.2c3.2-3.6 7.4-6.8 9.5-11a243.5 243.5 0 0012.8-29.1c5-14 12.6-25.7 25-34 20.6-13.8 34.3-33.7 47.4-54.2 3.9-6 8.6-11.7 13-17.5l2.8 2c-1.2 2.5-2.2 5-3.5 7.4-9.5 18.3-18.8 36.6-28.8 54.6-4.7 8.4-9.5 17.3-16.3 23.7C904.4 518 896 539 890 562a153.4 153.4 0 01-12.7 33.1c-6.6 12.7-6 25.6-5 38.9 2.1 28.4 3 57 6.4 85.3 2.3 20.3 7.7 40.2 11.8 60.3 1 5.2 1.6 10.8 4 15.3s7 10.7 10.9 10.9a194.6 194.6 0 0040.4-3c5.8-1 11-6.6 16.2-10.5a92.3 92.3 0 0011-10c6-6.4 11.2-13.7 17.9-19.4a75.3 75.3 0 0020.7-34.5c.8-2.2 3-4 6.7-5.4a80.8 80.8 0 01-.5 9.1c-5 31-15 59-42 78.5-12 8.6-22.8 19-35.7 29.9 23.3 0 44.8-.7 66.2.2 12.3.6 24.6 3.9 37 5.5 11 1.5 22 2.4 33 3.4 4.5.4 9.3-.4 13.5 1 9.1 2.7 18 6.4 26.5 9.6-7 2.3-14.3.7-22-3a34 34 0 00-18.6-3.7c-12.7 2.3-24-.7-36-4.1-11.7-3.4-24.5-3.7-36.9-4.5-15-1-30.2-.6-45.2-1.5-24-1.5-30.4 3.5-32 26.9-5.9 81.7-.8 163.5.7 245.2.1 6.6 1.7 13.2 2.3 19.8.2 2.2-.7 4.5-3.3 6.6-.2-4.1.4-8.4-.8-12.2-1-3.6-4.3-6.4-6-10-3.7-7.9-8-15.7-10.3-24-7-24.3-1.1-47.1 8.2-69.8 3.4-8.3 3.5-18 4-27.3-23.8 38.5-22.9 80.3-15 122.9h-3.7c-.9-8.5-.9-17-2.6-25.2-7.3-34.2 1.8-65.8 14.9-96.7 5.9-13.8 6.4-13.6 5-21.1-5.8 2.7-11.5 4-15.4-4.2l-3.3 35c-.4 4-.4 8-1.8 11.7-10.4 27.5-6.2 55.8-4.4 83.8 1 16.2 6.5 32.2 10 48.3.9 3.9 2 7.7 3 11.6l-3.4.8c-1.5-7.7-1.4-16.1-4.6-23-12.9-27.3-7-56.8-10.9-85.1-.8-6.3 1.8-13 2.6-19.6 3.2-25.3 7.5-50.5 8.7-76 .7-13.5-3.2-27.6-6.9-41-5.4-19.7-13-39-18.5-58.6a46 46 0 01.5-21.3c2.7-12.7 6.7-25.2 10.1-37.8a15.5 15.5 0 012.5-5.9 97 97 0 01-7.6 42.1 38.5 38.5 0 00-.9 24.6c11.4 31 21.3 62.2 24 95.2a5.7 5.7 0 002.3 4.7c.4-4.7 1.3-9.5 1-14.1-.5-8.3-2.3-16.5-2.6-24.8-.8-25-7.4-48.4-19-70.5a14.7 14.7 0 01-.5-10.4 170.3 170.3 0 0112.7-31.4c-1.9 6.9-2.8 14.3-5.8 20.6-4.7 9.8-5.2 18.3.6 28 14.2 24.1 14.3 51.5 16.5 78.2.7 8.6-.1 17.3 0 25.9.1 3.7.9 7.5 1.4 11.4 10.5-2.9 13-10 8-18a39 39 0 01-4.6-12.1c-.8-3.9-.4-8-.4-12 0-17.4.1-34-7-51.4a102.4 102.4 0 01-1-72c-10.4-3.3-12.8-11.4-15-21-2.7-11.5-8.2-22.4-12.4-33.5.3-3.3 1.1-6.6 1-9.8q-1.7-28.3-3.7-56.6c-1.6-21.6-3.5-43.1-5.2-64.7l-3.4.2c0 18.5-1.4 37 .3 55.4 2.5 25.3 7.3 50.3 11 75.5-.9 21.3-1.2 42.7-3.1 64-.8 8.1-11.5 10.8-17.9 5.1-3.3-3-5.8-7-8.7-10.4l-2.8 2.4c3.2 4.7 5.7 10.3 9.8 14 11.4 10.5 12.2 24.3 14 38.2a84.9 84.9 0 005.8 21.8c11.7 27.3 21.8 55.2 22.7 85 .5 13-4.6 26.4-7.7 39.5-4 17.1-8.8 34-12.8 51.2a64 64 0 002.3 40.9l.2-.2-5 14.8c0-20.7-2.3-39.5.6-57.5 3.6-22.8 11.2-45 17.4-67.4 6.2-22.7 0-44.2-6.7-65.5-4.7-15.1-12-29.5-16.4-44.7-3.3-11-3.8-22.7-6-34.1a35 35 0 00-4.4-12c-13.6-21.3-30.3-41-40.3-63.8-12.7-28.6-37-46-55.4-69-12.1-15.2-21.8-32.4-32.2-48.9-5.4-8.6-9.8-17.8-16.9-26 3.7 10.2 7.6 20.3 11 30.5 5 15.6 16 27 27 38.4 2.2 2.3 3.6 5.4 5.3 8 3.1 13.4 14 20.3 24.1 31.2l-1.4-5.6 25.5 32.8-7.6-7a145.2 145.2 0 0031.8 63.7c8.2 9.5 14.2 21 20.4 30.3-2-13.1-6.2-27.4-18-37.6-15.5-13.3-19-32.7-27-49.8 5 9.2 9.7 18.4 15 27.3 4 6.8 8 13.9 13.4 19.3 13.4 13 17.3 29.9 21.5 47.1 10.7 45.2 10.5 91 9.8 136.8-.4 30.9.1 61.7 0 92.6 0 4.8-.5 9.6-.9 14.5l-2.9-.1V1068c.4-29.1 1.8-58.3 1.2-87.5-.6-33.4.9-67-7.3-100l-2-7c0 30.3-.7 60.5 0 90.7 1 32.8 3.6 65.7 4.4 98.6a477 477 0 0011.6 101.5l2.3 9.6zM557 403.6l16.8-13.3c-18.8 3.2-31.2 16.5-45.3 27.3l-17.2 11.7c-12.8 7.6-26 14.6-38.3 22.7-25 16.6-49.7 33.7-75 51l4.5 5.7 56.3-38.2 28.5-19.2c-1.2 1.6-2 3.5-3.5 4.6-19.3 13.5-38.7 26.8-58 40.2l-21.1 15 33.6 69.4c21.5-30.1 42.9-60 64.1-90.1 21-29.6 41.7-59.2 62.3-88.5l-7.8 1.5zm329.9 121C896 513.5 908 504 912 487.5c-13.5 10.2-24.2 20.3-25 37l-5.2 9.5c25.3-16.9 51.8-51 52.7-68.2-8.6 11.3-18.6 19-24 32-4.5 10.4-15.6 18-23.6 26.8zm-482.3 195c-.8 1.5-2.2 2.9-2.4 4.4-2.2 16.2-10.8 25.7-27.4 28.2-2.5.3-4.3 5-6.5 7.8 25.8-3.8 38.8-19.7 36.3-40.3l8.7 2.9-15-16.9-8 21.7-2.3-.7 5.4-20.8c-21.5 11.4-27.8 23.7-22.5 42.8 11.3-2 22.7-3.7 26.2-18h-4.6l-1-2 13.1-9zm557.2 83.8c1-1.3 1.8-3.6 2.8-3.7 11.5-.6 13-10.2 15.5-18.9l-26.6 23.9 8.6-1.7a123.7 123.7 0 00-39 29.4c-.8.7-2.6.4-5.4.8l2.5-19.1 1.7.1v15l20-20.7c-6 .5-13.5 1-21 1.8-1.4 0-3.5.8-4 2a60.2 60.2 0 00-3.5 46.4 124.7 124.7 0 0157.5-54.6l-2-2.6zm-130-158.9c-1.7-.3-3.6-.4-5.2-1-34.5-14.8-69.9-20.8-108-11l28.7 49.5c11-4.5 20.8-11.5 30.9-12 22-1.3 35.5-17.6 53.4-25.7 8 .9 11.2-1.6 9.6-10.6-3.6-19.7-6.3-39.6-9-59.5-.6-4-.1-8.2-.1-15.4-4.7 3.6-7.8 5.2-9.7 7.6a35.9 35.9 0 00-7.1 32c4.5 15.6 11 30.7 16.6 46.1zM525.2 756.7c-3.3 6 1.2 9.4 5.2 12 10.5 6.7 12.3 16.3 10.8 27.5-.5 3.8-.5 7.6-.7 10.8 12.8-1.4 24.6-4.2 36.3-3.7 15.1.6 30 3.9 45.1 5.9 29.5 4 59 8.1 88.4 11.8 8.5 1 17.1 1.1 25.7 1.3 10.4.1 21.1-1.4 31.3.2 18.1 2.8 36 7 52 2.3-8-19-15.7-37.8-23.8-56.4a52.2 52.2 0 00-8-13.7c-16.8-19.1-33.9-38-51.6-57.7-3 3.6-8 7-9.3 11.7-4 12.9-14.1 15.2-25.1 17-2.6.5-5.4.7-7.8 1.8-10.4 4.7-22.3 7.8-30.7 15-10.3 9-20.5 14.5-34 12.6a107.8 107.8 0 00-49 3.9 21 21 0 01-14.3-1.2 43.2 43.2 0 00-40.9-.7c2.8-2.1 5.4-5.9 8.3-6 8.7-.5 18-1.4 26 1.2a52.6 52.6 0 0028.8 2c13.3-2.8 27.5-2.7 41.2-2a37 37 0 0028.9-10.1c5.7-5.3 12.5-10.1 19.6-13 9.8-3.8 20.4-5.5 30.6-8.4 3.4-1 7.7-2 9.6-4.4 5.9-7.8 10.7-16.4 15.5-23.9l-25-58.8c-15.7 7.3-34.6 9-40.5 29.8-.4 1.4-5.5 3.2-7.1 2.3-10.3-5.3-20-11.4-30.2-17-31.9-18-73.1-13.7-96 12.8-10.3 12-19.2 25.4-29.5 39l-24.3-8.3-1.6 2.5 24 47.7 15-10.4 4.6 5-17.2 7.3c7.8 7.5 10 16.6 19.7 12.3zm-309.3-72.9c1-10.6 3.6-23 2.5-34.8-.5-5.6-9.4-9.8-12.8-15.6-22-38.3-45-76-64.7-115.4-21.8-44-40.3-89.5-60.4-134.3-2-4.6-4.5-9-6.8-13.5q9.7 153.3 17 305.2c18.5-6.6 39.8-11 61.3-7s42.3 10 64 15.4zm354-272.5c-33 92.5-67.3 183.5-64.9 283.3 3.1-3.2 5-7 6.9-10.6 21-40.2 68.9-62.8 113-42.7 12.4 5.7 24.6 12 36.5 18-17.4-40.6-36.2-80.2-51.3-121s-26.5-83.2-40.2-127zm-319-192.8c-17.1 31.6-28.7 62.2-17.2 97 1.4 4.5 4.4 9.5 8.2 12.1 23.2 16.2 36.9 39.5 49.8 63.7A75.5 75.5 0 00306 410c2.6 2.5 8.2 2.6 12.4 2.5 14-.4 18-11.6 22.1-22.2a122 122 0 0130.5-46c28-26.3 32.9-59.8 28.2-94.7-25.5-4-50.4-7.2-75.1-12-24.2-4.5-50.2-1.7-73.4-19.1zm325.6 186c15.6 89.1 50.4 170.5 88.1 249.6 44.8-35.2 93.8-35.3 145.5-22.3a1572 1572 0 01-233.6-227.2zm-502-41.1c9.5 21.5 19.5 42.7 28.4 64.4 27.6 67.1 61 131.2 99 193 4.7 7.5 10.8 14.2 16.2 21.3l3-.7c.7-44.3 14.6-84.8 34.5-124a968 968 0 01-181.2-154zm471.8 474c.7 2 .9 3.3 1.6 4.3 13.3 18.6 25.9 37.8 40.1 55.7a205 205 0 0054.3 47.6c22.2 13.6 39.4 32.2 43.4 60.2 2.8 20.7 6.4 41.4 11.3 61.6a79.6 79.6 0 0014 32.2c9.9 11.8 23.4 20.5 35.4 30.5a241 241 0 0152 56c3.7 6 8.7 11.2 13.2 16.8a138 138 0 00-3.6-31c-10.9-48.7-29.7-92.7-72.3-122.7a28 28 0 01-8.3-9.9c-10.1-19.7-19.9-39.7-29.7-59.7-7.1-14.5-12.4-30.3-26.6-40-9.6-6.6-19.6-12.6-28.7-19.6-20-15.4-40.7-30-58.9-47.3-11.5-11-18.8-26.3-28.4-40.3zm16-421l-1.3-1.7a37.9 37.9 0 01-2.4 4.3C542 442 525.3 464.6 509 487.6c-19.8 27.8-38.8 56.2-59.3 83.6-7.4 9.8-10.3 17.5-5.1 29.8 11 26.5 20 54 30 81 1 2.5 2.8 6 5 6.6 6.4 2 13.2 2.7 20.4 4a461 461 0 0119.9-140.7c13.4-45.4 28.1-90.3 42.2-135.5zm16.1-18.7A1481.2 1481.2 0 00822 636.8c-4.1-14-8.9-26.6-11.4-39.7-2.8-14.5 2.6-27.4 13.3-39.2-43.4-24.5-87.3-46.7-128.2-73.4-40.7-26.6-78.4-57.8-117.4-87zm-208.8 305l-1-.4a42.5 42.5 0 011.7-5.3c13-27.5 25.8-55 39.4-82.3 3.5-6.9 4.8-12.2.9-19.3-8.1-14.9-15.1-30.3-23.1-45.2-2.9-5.4-7.1-10-10.8-15.3-8.9 6.1-11 14.1-11 22.5q-.3 69.8 0 139.6c0 7.2 1.6 14.3 2.4 21.5l1.8-.1 4.2-13 1 .2-1.2 9.6a102.6 102.6 0 0177.7-26.7l-33.1-77.7-3.1.2zm381-15c1.5 2.4 2.3 4.3 3.7 5.7 16 17.3 32.2 34.4 48 52 11.2 12.6 21.3 26.3 32.9 38.6 4 4.3 11.1 5.7 16.9 8.4.5-6 1.8-12.2 1.5-18.2-1.2-18.9-3-37.8-4.5-56.6l-5.5-73.4c-13.6 7.2-24.1 13.3-35.1 18.4-9.2 4.2-18.7 8.1-28.5 10.3a53 53 0 00-29.5 14.6zm-378.6-468l-4-2.3-11-39.7c-2.4 2.9-4.6 5.6-7 8.1-5.2 5.6-10.3 11.3-15.9 16.4-6 5.4-10.2 3.1-12-4.3-1.9-7.8-3.6-15.7-5.8-25.4-4.3 6.1-7.2 10.9-10.6 15.2-10.8 13.6-18 13-25.6-1.7-4.3-8.2-9-16.3-13.5-24.4-4.8 13.6-7.4 26.5-10 39.4-3.4 15.7-1.8 18.7 13.2 23.9a24.4 24.4 0 003.8 1c14.7 2.4 29.4 5 44 7.2 25.2 3.7 50.5 7.1 75.7 10.6 5.4.7 9.2-.6 8.7-5-4.4-2.3-8.7-3.1-9.8-5.5-1-2.1.7-6.6 2.6-8.6 1.2-1.3 5.1 0 8.6.3l7.8-35.2zm441.8 995.7l1.6-1c-2-3.2-3.7-6.6-6-9.5-4.5-5.8-10-10.8-13.9-17-21-33.4-53.4-55-81.6-81.2a49.8 49.8 0 01-15.1-21.1c-6.4-24-12.1-48.4-15.2-73a82.7 82.7 0 00-42-63.2 240.3 240.3 0 01-71.1-68.7c-9.6-13.3-19-26.7-28.5-40l-2.6 1.5c2.2 4.1 4 8.5 6.7 12.2 12.4 17.3 24.4 35 37.9 51.3 9.3 11.2 20.6 20.6 31.5 30.4 12.6 11.2 26.5 21.2 38.2 33.3a65.3 65.3 0 0115.3 26c5.9 19.6 9.8 39.9 13.7 60 4.1 21.6 10.6 41.8 27.4 57.3 25.5 23.7 51 47.5 76 71.8 9.9 9.6 18.5 20.5 27.7 30.9zM276 540.3l-2.6-1.3c-3.2 6.3-6.9 12.5-9.6 19-14.3 34.1-16.7 70.9-22.8 106.8-.5 2.7 0 6.4 1.6 8.4 7.7 9.5 15.8 18.5 23.7 27.6l9.7-160.5zm548.4-133.9h-4c0 22.8-.9 45.7.3 68.5.7 13.4 3.7 27 7.4 39.9 3.8 13.2 11.6 25.2 10.6 39.9-.3 3.7 1.1 8 3.1 11.3a43 43 0 013.3 36.6c-2.9 8.8-2 16.2-1.2 24.6C847.6 667 851 707 854.1 747c1.1 13.2 2.4 26.5 2.5 39.7 0 4.2-3.7 8.3-6.3 13.7.6.2 4.2 2.8 6.2 2s3.7-5.2 3.9-8a161.2 161.2 0 00.3-22c-1.2-22.8-3-45.6-4-68.5-.8-14.9-.6-29.8-.8-44.7-.2-21.2-1.8-42.5-.3-63.6 1.2-16.6-1-31.4-8.5-46.2-6.2-12.3-12.6-25-16.2-38.3a192 192 0 01-6.2-42.2c-1-20.8-.2-41.6-.2-62.5zm37 270c0 20.2-.3 44.3 0 68.5.4 17.2 1.9 34.4 2.1 51.7 0 3.2-3.4 9-5.5 9-4 .3-9-1.8-12-4.6-8.8-8-16.7-16.7-25-25.2l-2.6 2.4c13.2 15 26 30.3 39.9 44.6 5.2 5.4 12.7 1 13.7-7.2.6-5 .9-10 1-15 .5-15.4 2.5-31.2.7-46.4-3.1-27.3-8.5-54.2-12.4-77.8zM916.2 951h1.6c1-23.2 3.4-46.4 3-69.5a55.6 55.6 0 0125.4-50.8c4.3-3 8.2-6.7 12.2-10.2l12-10.6c-29.1 7.8-41 33.9-58.8 55.3-9.6-20-2.4-37.4-.5-55a14.6 14.6 0 00-5.3 7.3 117.2 117.2 0 004.3 70.3 92.5 92.5 0 015.9 24.8c1 12.7.2 25.6.2 38.4zM428.5 799.2c25.4 13.4 48.6 5 73.9 4.1L492 775.2c-18.2 18.7-41.3 16.7-63.6 24zm392.7-439l-2.3.3.7 10.6c2.8 31 7.3 62 7.9 93 .5 28.9 9.3 54.6 20.7 80.2a47.6 47.6 0 003.6 5.9l2.6-1c-5.4-20.8-11.8-41.3-15.8-62.3-4-20.8-5.3-42.1-8.1-63.1-3-21.3-6.2-42.4-9.3-63.6zm-563 151.1l1.4-3.3-125.3-92.2a169.1 169.1 0 0019.9 19.2c30.7 25.8 59.8 53.5 95.2 73.2 2.7 1.4 5.9 2 8.8 3.1zM394 933.9c-16.9 14.8-29 50.4-21.8 67.1 2.5-4.4 4.6-8 6.4-11.6 4.8-10.2 8.4-21.2 14.5-30.4 6-9 5.8-16.5.9-25zm527.6 96.8c-16.4 24.4-15.2 74.6.9 85-.5-7.8 1.9-17.3-1.8-21.7-7.5-9-4-17.1-2.9-26 1.6-12.5 2.6-24.9 3.8-37.3zM856 657.8l3.2 1c9.3-34.5-3.2-71.7 14.7-105-10.5 6.4-20 13-14 27 .7 1.6-.2 3.9-.3 5.9l-3.6 71.1zm41.6-127.7l-4.3-2c-21 22.6-25.5 51-26.3 80.7 3.6-6.6 5.3-13.8 7.5-21 3.1-10.2 6.1-20.7 10.1-30.6 3.7-9.3 8.6-18.1 13-27.1zM536.5 817.2l-15.4 28 2.3 2.7 44.4-29.1c-13-.6-23.9 10.5-31.3-1.6zm475.7-76.2l-18.5 29.5c-5.4 8.4-11.1 16.5-16.7 24.8 22.3-10.2 30.7-24.5 35.2-54.3zm-770.6-64.3l-3.7 1c.6 6-1.1 14.8 2.1 17.3 7.7 6 17.6 8.9 29.4 14.3zm596.8-70.9l3.3-.4c5-22.2 4-29-7.4-40.2l4.1 40.6zM373 202.8l13.6 3 1.5-19H386c-4 4.7-7.8 9.5-13 16zm120.6 571.4l14 19.2c3-18 1-21-14-19.2zM128.6 414l.3-.3L95 378.1l-.4.4zm432.2-26.6c13.6-.8 13.9-9 13-18zm-221.3-194l-.9-2.5h-14.1l4.2 11.5zM216 819.3c-11.3 5.7-11.5 14.1-9.6 24z"/>
      <path d="M331.4 1552H127.8c-14.3-17.8-14.3-17.8-4.4-29.1l5.3-4.2 10.6 8.6 2-1.6c-8.9-5.3-12.3-11.6-5.2-20l-.3.4c2.7.1 5.6-.3 8 .6s4.5 3 6.7 4.6c-2.5-6.3-11.6-8.7-6.4-17.6l-.3.3 9-9.6 9.7 8.3 2.4-2.5-10.4-9.7 43.1-58.6 11.9 10.3 34.4 43 2.7-2.4-36.7-41-9.6-13.7c4.4-5.9 9-11.6 13-17.6 3.5-5.2 7.4-9 14.2-8.8 1.5-1.5 3.3-2.9 4.4-4.7 11.5-17.7 22.7-35.5 34.4-53 2.1-3.1 6-5 9-7.5l-1.3 6.5 2.5-.4c.4 2.4 1.8 5.3 1 7.2-2.2 5.1-5.4 9.9-8.2 14.8l1 .4 12.5-14.5 14.8 22-.3-.5 28.2 41 5.9 5.4 7.8 11.4 2.6 18.3c2.1-2.3 6.9-5.5 9-10 3-6.3 4-13.5 5.6-20.4.4-1.7-.7-3.7-1.1-5.5l-10-16-.1-4.3 1.8-2.9 13.4-23.4c10.2 44.4 22.4 88.4 20.4 134.4-.3 6.4-2.6 12.7-4 19.1l-2.4-.4-3.2-34.6-4-.6-4.1 10.8.3-.5-6.5 13c-.9-.7-1.6-2-2.5-2-10.9-1.6-10.8-1.5-5-11.4 3-5.1 5.8-10.4 8.7-15.6l-1.9-1-11 18.1-2.5-2.6-2.7 2.4c-5.6-.9-5.3-3.7-3-7.7 3.2-5.1 5.9-10.5 8.8-15.8l-2.3-1.2-22.3 40.4 2.3 1.4 8.4-15.6 6 8.3 1.8-10.1c.2 3.1 1.5 6.8.4 9.3-3.7 8.5-8.4 16.5-12.4 24.9-2.7 5.6-4.8 11.5-7.1 17.3l1.8.7 20.7-42.7c2 2.6 2.8 4.6 4 4.9 11.3 2.3 6.4 8 3.4 14-6.6 13-12.8 26.1-19.1 39.2zM0 583.3l13-38.4 32-96.2 20.8-62.2c.6-1.8 1.5-3.4 3.5-7.9 1.5 16.5 3.1 30.1 3.9 43.8C75 455.9 76 489.4 78 523c2.3 38.5 5.9 76.9 8.2 115.3.8 12.7-.6 25.5-1 38.8-13.7-12.1-25.7-23-37.9-33.4-12-10.3-23.9-21-41.2-19.2 14 4.9 30.7 8.6 35.7 23.7 3.4 10.1-1.6 23.1-3 34.9l-4-.4v-40.8c-3.7 45.9 3.8 93.7-32.7 132.1l3.8 1.4 19.7-28c.8 19.2-14.4 29.6-19.4 44.4 12-14.8 21.5-30.2 24-50.3 3-25.7 9.4-51 15.7-76.4a51 51 0 01-1.6 33c-7.4 16.7-11.5 34-10.9 52.2.3 6.6 1.9 13.1 2.5 19.7.3 3-.2 6.1-.3 9.2l.4-.4c-3.1 3.3-7.7 6-9.2 10-6.3 17-14 33.9-16.8 51.5-2.2 13.9 1.8 28.8 3.7 43.1 5.5 40.7 10.5 81.4 17.3 121.8 1.9 11.5-5 16-8 22-1.8-14-3.3-28.4-5.3-42.6-1.7-11.5-4.5-22.6-5.8-34-2.3-18.4-3.4-37-5.8-55.3a195.3 195.3 0 01-.2-63.4c1.6-8.4 3.9-16.7 5.9-25l12.3-25L21 780c-1.8 2.8-3.5 5.5-5.5 8.1-5 7-10.3 13.9-15.5 20.8z" class="cls-1"/>
      <path d="M227.4 1391.7c-6.7-.3-10.7 3.6-14.1 8.8-4 6-8.6 11.7-13 17.7l9.5 13.7-.3.4-11.9-10.4-43.1 58.6 10.3 9.7-2.3 2.5-9.8-8.3-9 9.6c1-2.3 1.6-5 3.1-7 4.8-6 2.2-9.2-4.3-12.6l-12.5 13.8c5 2.2 6 11.8 14.1 5.5-5.3 9 3.9 11.3 6.4 17.6-2.2-1.5-4.2-3.7-6.6-4.5s-5.4-.5-8.2-.6c3.4-8.4-2.5-12-8.3-17l-9.3 11 9.8 12.2 8.2-6.6c-7.1 8.4-3.7 14.7 5.1 19.9l-2 1.6-10.5-8.6-5.3 4.2c5.2-9.4-1-14.1-7.7-19.8-12.9 15.4-26 29.8-31.9 49h-4c9.4-15.1 18.2-30.6 28.2-45.2 13.7-20.1 33.5-34.7 50.3-51.9 24.6-25.1 41-55.3 53-88 13.3-37 25.4-74.6 39-111.6 3-8.5 8.9-16.4 15-23 2.3-2.4 9.4-1.2 14-.2 6.8 1.4 9.4 12.5 19.2 8.7.8-.3 3.8 6.9 5.6 6.8a60 60 0 0019.5-4.2c6.6-2.8 12-8.3 18.4-11.4 8-4 10.5-1.8 11 7.2 1.2 19.8 1.2 39.9 4.2 59.4 5.6 36.4 13.4 72.3 19.5 108.5 3.8 22 6.2 44.3 9 65.4l6-14.9 1.3.4a66.9 66.9 0 00-1.8 6.9c-2 12.3-4.1 24.6-5.8 37-2.3 16.7-4.2 33.4-6.3 50h-4l8-44-2.5-.5-4.6 8.7h-3.3l-4.5-37.8-5.2 6 4.2-10.7 3.9.6 3.2 34.5 2.4.5c1.4-6.4 3.8-12.7 4-19.1 2-46-10.2-90-20.3-134.5L347 1379c1.2-3.7 3.1-7.3 3.4-11 .4-4.4-.6-8.9-1-13.3 3.9 2.7 7.4 4.6 7.5-2.7 0-6 .8-12.2.1-18.2-2.3-21.4-5.5-42.7-7.5-64.1-1-11.6-.2-23.4-.2-35l-3.8-1.6-14.2 11-24.1 14.4 1.6-5.4c-3.4-1-6.7-1.6-9.6-3-5.8-2.7-6 .6-5.9 4.8.8 4 1 8.3 2.5 12 2.4 5.8 3.7 10.3-4.6 11.5h-5.9c-7-4.1-11.5-1.7-15.7 5-5.1 8.1 0 13.1 4.3 18.7l1.7 6.1-4.4 10.1-8 .6c4.8-7.3 2.5-13.7-2.7-20.1l-21 29.4c.6-3 .3-6.6 1.9-9 6-9.6 12.8-18.5 18.9-28 4.3-6.9 8-14.2 12-21.4 6.5-1 7.4-4 3.7-9.2a39.9 39.9 0 01-3-6.1l.4-10.2-4.9-12.7c-4.6 7-8.4 11.2-10.5 16a480.9 480.9 0 00-12.7 35c-1 3 .2 6.5.4 9.7-7.5 18.1-15 36.2-22.3 54.4-.8 2 0 4.8.2 7.2l-28.8 57.5 1.7.7 15.1-17.7 16-11.5-.2 8.8zm-77.8 86l3.3.2 43.4-61.7c-2.9.4-3.8.2-4 .6-14.3 17.3-28.6 34.5-42.5 52-1.5 2-.2 6-.2 9zm136-221.8l6.7-9L275 1234l-1.7 1.6z"/>
      <path d="M0 443.4C7.3 433.3 14.4 423 22 413a850.8 850.8 0 0145.8-57.2l-67.2 93 3.6 2.6 61.3-87.2 3 1.5c-1 4.6-1.8 9.3-3.3 13.8l-59.4 176L0 573.4z" class="cls-1"/>
      <path d="M0 1294.3l6.8-13.1 5.6 12.8 37.8 6c1.4-7.9 2-14.1 3.6-20 3.2-11.8 11-17.6 20.7-15.8 7.5 1.4 13.5 10.8 13.2 21-.3 6.6-.8 13.2 1 20l5.9-12 7 10 7.2-13.7 3.8 21.5 6-11.3-3 20-3.2.5-5.3-18.2-6 9-5.9-11c-6.7 8.6-8 15.4 1.2 24.1 13.2 12.5 24.8 26.8 36.8 40.5a31.1 31.1 0 0020.6 11.7c8 1 16.1 5.5 22.8 10.3 7.2 5.2 6.4 11.6-1.6 15.5-6.5 3.3-14.3 4.1-20.7 5.8-.8 7.1-.5 14.5-2.6 21.2-3.5 11-13.4 13-20.3 3.7-4.1-5.5-7.7-13.6-6.9-20 2.6-21.2-6.8-36.1-21-50-10.9-10.7-20.5-22.7-31.2-33.5-2.4-2.3-7.3-3-10.9-2.8-4.2.3-8.2 2.5-12.3 3.8-8.6 2.7-17.7 2.3-22.4-5.5-3.5-6-3-14.3-4.2-21.6l3.2-2.5-15.9-2.7-3.7-7.2-6.1 21.5zm54.3 10.2c-3.6-.8-7.4-2-11.3-2.6-8.5-1.2-15.8 3.6-16.6 10.5-1 7.8 3.7 14.2 12.9 14.3 7.6 0 15.2-3.4 23-4.3 4-.5 9.7-.2 12 2.2 13.7 14.5 26.2 30 40 44.4a47.6 47.6 0 0114 38.7 48 48 0 004.1 20c1.2 3 6.1 5.7 9.4 5.7 2.2 0 6.1-4.4 6.6-7.2 1-6.9.3-14 .3-23.1 6.9-4.4 21.8 4.1 28.2-9.7-6.4-10.6-17.3-12.1-28.2-13.9-4-.6-9-1.6-11.5-4.3-18.6-20.2-36.8-41-55.1-61.5-3.4-3.8-4.4-7-2-12.3a33.2 33.2 0 003-19.2c-1-5.2-6-11.4-10.7-13.5-7-3-12 3-13.8 9.5-2 8.2-2.8 16.8-4.3 26.3zM11.9 806.9c-2 8.3-4.2 16.6-5.9 25-4.1 21.1-2.6 42.2.2 63.4 2.3 18.4 3.5 37 5.8 55.3 1.3 11.4 4.1 22.6 5.8 34 2 14.2 3.6 28.6 5.3 42.6 3-6 9.9-10.5 8-22-6.8-40.4-11.8-81.2-17.3-121.8-1.9-14.3-5.9-29.3-3.7-43.1 2.7-17.6 10.5-34.6 16.9-51.5 1.4-4 6-6.7 9-10-6.8 15.9-15 31.4-20.4 47.8a91.1 91.1 0 00-.6 48c3.9 18.7 4 38.2 6.8 57.1 3.7 24.9 8.7 49.5 12.7 74.3.6 3.8.3 8.8-1.7 11.8-10 14.8-14.5 31.5-20.9 47.8-15.8 40.6-8 81.2-6 122 .2 4 1.6 8 2.5 12.1l-2.9.7-5.5-24v-87.8c3.6-12 6.4-24.2 11.1-35.7a94.8 94.8 0 007-49.6c-2-14.9-6-29.6-9.4-44.3-.1-.9-2-1.4-3.1-2.1.7-1.1 2-2.1 2.1-3.2.6-23.3-.2-46.5-7.7-68.8v-42l2.1-6 10-30z"/>
      <path d="M363 1484.3l5.3-6 4.5 37.7h3.3l4.6-8.6 2.5.6-8 44h-35.9c-2.5-8 1.5-14.3 5-20.7 3-5.6 6.3-11 8.6-16.8 3.9-10 7-20.4 10.5-30.7zM83.8 1552c6-19.1 19-33.5 32-49 6.5 5.7 12.8 10.5 7.6 19.8-9.9 11.3-9.9 11.3 4.3 29.2zM5.6 956.9c1 .7 3 1.2 3.2 2.1 3.3 14.7 7.3 29.4 9.4 44.3 2.3 17-.5 33.5-7 49.6-4.8 11.5-7.6 23.8-11.2 35.7v-32c9-27.2 13-54.9 7.5-83.4-1-5.5-1-11.1-1.4-16.6z" class="cls-1"/>
      <path d="M0 884.9c7.5 22.3 8.3 45.5 7.7 68.8 0 1-1.4 2.1-2.1 3.2l.5-.3c-8.1 6.4-2.3 14-1.2 20.9 3.5 22.2 2.8 43.9-4.9 65.2z" class="cls-1"/>
      <path d="M363.4 1483.9c-3.5 10.2-6.6 20.6-10.5 30.6-2.3 5.9-5.7 11.2-8.7 16.8-3.4 6.5-7.4 12.8-4.9 20.7h-8c6.4-13.1 12.5-26.3 19.1-39.3 3-6 8-11.7-3.4-14-1.2-.2-2-2.3-4-4.8l-20.6 42.7-1.9-.7c2.4-5.8 4.4-11.7 7.1-17.3 4-8.4 8.7-16.4 12.4-25 1.1-2.5-.2-6.1-.4-9.2l.3.2 2.7-2.3 2.5 2.6 11-18.2 2 1c-3 5.2-5.7 10.5-8.7 15.7-5.9 9.8-6 9.8 5 11.3.8.1 1.6 1.3 2.4 2zM0 1042.7c7.7-21.3 8.3-43 4.9-65.2C3.8 970.7-2 963 6 956.6c.5 5.5.4 11.2 1.5 16.6 5.4 28.6 1.5 56.2-7.6 83.4zM0 809l15.6-20.7c2-2.6 3.6-5.4 5.4-8.1l3.2 1.7-12.3 25 .2.1-.8-5.9L0 815z"/>
      <path d="M0 815l11.3-13.8.8 5.9-10 30L0 843z" class="cls-1"/>
      <path d="M1138 980.2l-6.7 35.6-.8.3c0-5-1.2-10.3.2-14.9 8.5-27.3 10.2-55.4 10.8-83.6.4-17.8-2.7-35.3-8-52.2l-3 .2c-.2 2.6-.5 5.3-.5 8-.7 37.1.3 74.5-2.4 111.5-3.5 48-10.5 95.7-14.7 143.7-2 22.7-1.3 45.7-.7 68.6.1 6 5.5 11.8 6.9 18 3.8 17.2 6.9 34.5 10 51.8a17.1 17.1 0 01-1.2 9.3l-12.8-65.6-3 .4c0 11.3-.8 22.8.3 34 .5 5.1 5.3 9.6 7.3 14.7a19 19 0 01.2 12.1l-7-20.6h-2l-2 17.5-2.2.1c-.3-3.8-.9-7.7-.6-11.6.5-9 2-17.8 2.2-26.7.7-36.5.3-73 1.7-109.5.8-21.9 3.7-43.6 6.4-65.4 5.2-40.9 10.5-81.7 9.2-123-.6-21.3 1.5-42.6 1-63.7-.5-16.6-4-33-4.6-49.6a512 512 0 01.8-57.6c1.8-24.1-3.5-46.8-10.7-69.3-5.3-16.7-12.2-33-16.8-49.9a85.7 85.7 0 00-24.5-42.8c-5.1-4.5-14.2-4.4-21.4-6.6-4.7-1.4-9.5-2.8-13.8-5-11.7-6-23.4-7.6-35.3-1.3-9.4 5-17.6 4.1-25.4-3.2-11.2-10.6-23.6-10.6-35.1-1.5a511 511 0 00-37 32.8c-8 7.7-15.1 16.3-25.5 19.3 15.4-15.4 30.6-31.5 47-46.5 6.2-5.7 14.7-8.9 22.3-12.9 9.5-5 18.6-3.8 26.8 3.2 9 7.6 17.6 10.7 29.5 4 11-6 22.9-2 34.4 2.8s23.7 7.7 38.6 12.3c-6-15-11.5-26.9-15.8-39.2-5.8-16.5-10.3-33.4-16.3-49.9a128.5 128.5 0 00-13.5-27.4c-12-18-25.1-35-37.7-52.6-2.2-3.1-3.8-6.7-5.7-10l2.3-2.2c3.6 3.6 7.4 7.2 11 11 3.8 4 7 9 11.2 12.5 18 15.7 28.6 35.9 38 57.5 8.8 20 20.5 38.6 31 57.8 9.2 16.5 18.5 33 28 49.4 3.2 5.6 7.5 10.7 11.5 16.2a32 32 0 0014.8-30.7c-.9-15-2.2-29.9-3-44.8-1.5-24.5-1.9-49.1-4.2-73.6-3.1-33-6.6-66-12-98.7-4.2-25.2-22.4-44-35.3-65.2-13.4-21.8-25.2-44.6-40.2-65.1-22-30.2-41-62.9-70.7-87a169.5 169.5 0 01-29.9-33.9c1.5.2 3.3-.2 4.3.5 18 12.5 37 23.8 53.6 37.9a352.7 352.7 0 0151.3 51.5c17.7 22.9 37.6 44.8 47.8 73 3 8.3 8.7 15.5 13 23.4 10.7 20.2 21.5 40.3 31.8 60.6 7.4 14.5 14 29.4 21.2 44a66 66 0 0012.5 17c14-41.9-8.4-76.6-21-115.6 3 2.4 4.8 3.2 5.5 4.5 11.3 19.5 22.6 39 33.4 58.8 2 3.8 2.4 8.9 2.7 13.4.5 5.6 0 11.3.2 17a72 72 0 01-7.3 37.4 51.5 51.5 0 00-4.8 29.9c5.4 38.2 3.6 75.9-3.2 113.7-2.2 11.8-.2 24.6 1.1 36.7 5.4 49.8 3.7 99.5 2 149.3-1.3 35.9-2.8 71.8-1.9 107.7.9 34.8 5.4 69.5 7.2 104.3 1.3 22.9 1 45.9.6 68.8-.6 36.5-1.9 73-2.7 109.6-.3 15.2 0 30.4 2 46.2l7.4-37.5 2.4.4c-2.5 11.8-5.4 23.5-7.5 35.3a63 63 0 00-1.2 19.4c3 20.1 6.8 40.1 10.2 59.8-12.8 4.2-18.8 2.2-21.6-8.8-3.5-13.7-6.1-28-6.4-42.2q-2-101.2-2.3-202.5c0-23 3-45.8 3-68.7 0-13.2-3.2-26.3-4.8-39.5-4.2-33.1-3.2-65.9.7-99.2 4.3-37.2 3.9-75 5-112.5.6-19.8 0-39.7 0-58.9-8.1 28.3-17.1 56.8-24.5 85.8-3.8 15.2-10 32-3 47 15.3 32.2 10.2 65.5 10 98.8-.2 14.8 3.2 29.6 4.7 44.4 1.1 11.6 2.2 23.2 2.5 34.8.6 30-.9 60 1.6 89.7 2.7 32.4-4.6 63.3-7.5 95-2 21 0 42.3.8 63.5a710 710 0 003.5 43.7c.8 8 2.5 16 3.7 23.8-1-1.5-4-3.7-4-6-.4-14-12.6-22.3-16.5-34.4-6.6-20-11.8-40.6-17.2-61.1-1.7-6.6-2.3-13.4-4.3-19.9 3 39.4 5.2 79 28.7 113.4l-2.1 1.6c-2.4-2.8-5.5-5.4-7.1-8.7a199.6 199.6 0 01-20.9-80.4c-1.9-31.7-2.6-63.7-2-95.5a87.4 87.4 0 018.4-37.3c12.3-24 14.5-48.5 9.6-74.2zm-101.8-767.9c-.6.9-1.9 2-1.7 2.4 9.1 16.2 18.3 32.3 27.6 48.3l2.6-1.5c-8.9-15.7-10.7-35.3-27-47l5.3.9.8-1.6-21.4-19.5-.4.3zM1140 497.2c1.4 4 2.3 8.2 4.3 11.8 8 14.2 20.1 26.6 19.8 44.6l1.6.5c0-6.4-.7-12.8.1-19 1.4-10.1-3.3-16.8-10.4-23-5.4-4.6-10.4-9.8-15.6-14.8-3.3-33.5-8-67-9-100.5-.3-11-3.7-18.1-8.4-26.2.4 12.7 2 25.2 3.5 37.6l10.4 87.6-3.6-1.3 5.3 124.7c2.8-9.4 6.8-17.7 7.5-26.2.7-9-2-18.3-3-27.5-1-8.5-1.7-16.9-2.6-25.3l2.8-.2 6.7 53.4 5.2-9.9a292 292 0 01-7.7 29.6c-5.5 18.3-10.2 37-16.9 54.9-4.6 12.3-10.4 12.6-19.3 3.4a46 46 0 00-3.7-3.2c2.7 8.8 7.1 16.3 10.7 24.1 3 6.4 6.2 7 9.7 1.2 6-9.6 12.8-19 16.4-29.4 5.4-15.2 8.2-31.4 12.2-47 1.3-5 3-9.9 4.5-14.8-6.4 25.3-11.8 51-19.6 75.7-3.2 10-9.2 20.6-21.6 25.3l3.5 10.8 30.5-48.8 2.3 1.4c-10 15.8-19.6 32-30.3 47.2-3 4.3-3.1 9 .3 8.5 13.2-1.9 11.7 7.8 11.5 14.3-.7 18.7-2.8 37.3-4.4 56l-2.7-.2c1-22.3 8.7-44.7-.5-67.1a14.1 14.1 0 00-3.6 9.2 3709 3709 0 00-1.5 57.7c-.3 20.8-2.2 42.6 6.8 61.5 11.3 23.9 13.6 48.3 12.8 73.7v10c8-28.7 3.2-56.8-2.7-84.7-3.8-17.9-7.8-35.4-5.6-54 2.5-21.6 9.6-42.8 6.5-65-.6-3.7 1.4-7.8 2.6-11.6 2.3-7.2 5.2-14.3 7.1-21.6 4.4-16.9 8.3-33.9 12.3-50.8l1.4.3-11.2 54.9c1.4-1.6 2.5-2.3 3-3.4 1.7-3.6 3-7.4 4.5-11 15.9-37.7 2-76 4-116.8l-5.7 29c.7-11.5 1.7-23 1.9-34.5.3-16.7-1.7-32.5-13.2-46.5-6-7.3-8.6-17.5-12.8-26.4zm-85.7 28.5a21 21 0 013 3.7q22 47.1 43.7 94.3c2.5 5.4 3.8 11.5 7 16.5 2.1 3.4 7 7.8 10 7.3 4.3-.6 8.6-4.7 11.7-8.3 2.3-2.6 2.7-6.9 3.9-10.4a6 6 0 00-3.9 2.5c-8 10.1-13 9.7-19.5-1.8a42 42 0 01-2.1-4.5c-7.9-18.8-15.2-38-23.8-56.4-6.6-14.1-14.8-27.5-22.5-41-2.8-5-6-9.7-9.2-14.5l-1.6 1 3.6 12-5.8-4.1 12.9 34.2 2-.7-9.4-29.8zm96.3 370.8c3.6-36.9 10-74-11.3-110.2 0 14.2-1.2 27 .3 39.6 2.8 23.6 7.3 47 11 70.6 0 9.2 1 18.5 0 27.6-1.5 16.5-5.6 32.9-5.7 49.3-.2 32.5-4.2 63.1-17.4 93.9-8.1 19-5.2 42.9-7.2 64.5l4 .6 29.1-137.4 3.6.5c.2 4.5.7 9 .7 13.5.1 10-.3 20 .1 29.9 1 24.2.4 48.2-4 72.3-4.1 22.6-5.3 45.9-6.7 69-.4 6.6 3 13.3 3.8 17l9-80.5c1.3-12.5 3-25 2.8-37.6a2403 2403 0 00-2.8-95.7c-1.5-27.4-4.3-54.7-6.7-82.1-.1-1.7-1.7-3.2-2.6-4.8zm36.7 387.2c-1.1-4-3.1-8-3.3-12-.7-19.3-1.6-38.6-1.3-57.8.8-50.9 2.6-101.7 3-152.6.4-30.2-.5-60.4-2-90.6-1.2-29.6-5.4-59-5.4-88.5-.1-46.9 1.5-93.7 3.6-140.5 1.6-37 .6-73.6-2-110.4-1.4-20.1-2-40.6.7-60.5 3.6-26.5 6.4-52.6 1.3-79-3-15.3-4.2-31.3 2.5-45 7.4-15 8.2-30 8.9-46 .8-19-9.8-32-19-46.3a62.1 62.1 0 003.8 16.2c7.2 18 6.9 36.2 3.9 54.9-1.2 7.7-5.3 8.2-11.2 6-2-.7-3.6-2.2-6.6-4 1.4 6.1 2.2 11 3.6 15.7 7.7 24.6 12.3 49.5 8.4 75.6-2 13.4-4 27-3.9 40.6.4 26.2 3 52.4 3.4 78.6.7 35.2.8 70.4.1 105.6-.5 27.9-1.3 55.9-4.2 83.5a403 403 0 00-2 87.5c2.5 21.7 5.2 43.5 5.7 65.4.5 19.2-3 38.4-3 57.7q1 102.2 3.7 204.5c.3 12.5 3.7 24.9 6 37.2.3 1.6 3.2 2.7 5 4l3 7 3.3-2.8c1-18.8 3.4-37.8-6-55.1zM1056 228.5l-2.2 1.3c9.4 21.7 16.9 44.3 32 63.3 7 8.7 12.7 18.6 17.9 28.6 7.1 13.8 12.3 28.6 19.8 42.2a211.7 211.7 0 0122.4 68.5c2 11.7 3.7 23.8 8.2 34.6 9.5 23.4 16.2 47 14 72.6 0 1.3.6 2.7.9 4 2.4-5.3 2.7-10.4 3.5-15.5 6.4-40.5-4.2-78.5-18-115.6-7.2-19.5-17-38.1-25.6-57-3.7-8.2-6.6-16.8-11.3-24.4-6.3-10.4-15-19.3-20.7-30-4.8-9.1-6-20.2-10.4-29.6-4.2-9-10.7-16.9-16.2-25.3l-2 1.1 3.3 9-1.4.4zm99.6 782.4l-2.5-.1c-2.4 11.2-4.9 22.3-7.2 33.5-6.1 29.1-12.6 58.2-18 87.5-1.8 9.6-2.3 20-.5 29.4 4.5 23 10.2 46 16.3 68.6 2.3 8.4 7 16.1 10.6 24.2l3-1.3v-24.9c-3.3 0-7 .7-7.4 0-1.4-3.5-1.9-7.4-2.6-11l2.1-.4 3 6.2c1.2-4.7 1.2-9.1-.5-12.8-4-8.8-5.5-18.1-12.6-26.2-5.7-6.6-8-19-6.9-28.2 3.4-26.2 9.3-52 14.4-78 .4-1.7 2.4-3 3.6-4.6l1.9.8-3 32.6 4 .3c.8-15.7 1.9-31.3 2.3-47 .3-16.2 0-32.4 0-48.6zm-13.9-396.5c-3.3 9.3-5.8 19-10.3 27.7-2.1 4.2-8 8.9-12.2 8.9-4.7 0-11.8-4-13.7-8.1-7.7-16.2-13.4-33.3-20.6-49.6-4.9-11-11-21.5-16.6-32.2l-2.5 1.1c1 3 1.8 6.2 3 9.1 10.8 27.8 21.3 55.6 32.9 83 3 6.9 9.3 12.5 15 17.9 1 1 7.5-.5 8.6-2.4 9.6-17.1 16.5-35.3 16.4-55.4zm-7.2-211.4h-.7c1.9 23.3 4 46.5 5.6 69.8 1.2 18 7.6 32.5 24.7 41L1134.4 403zm5 770.4l8.5-84.9c-7.5 27.8-18.2 55.2-8.5 85zm-89.8-926l-3.2 2.2 40.2 60.6 2.2-1.3c-8.8-23.2-26.9-40.6-39.3-61.5zm48 344.2l-3.1 1.7c7.6 13.1 15 26.3 23 39.2.7 1.2 5.7 1.5 6.5.5 3.7-4.9 6.6-10.3 9.8-15.5l-2.3-1.4c-12.7 9.3-15.9 8.4-24.1-6.5-3.4-6-6.6-12-9.8-18zM1035.9 229c-7.1-24.2-20.2-41.7-37-49zm-28.5 213.9L1044 496c-7.8-20.6-18.3-39.4-36.6-53.2zm-36.7-296.2l-3 3.4 46 35.4 2.2-2.8zm140.4 203l3.1-1.6-20.6-40-3.7 1.9 21.2 39.8zM54.4 765.4C22 809.8 22 859.3 32.2 910.1a37 37 0 007.3 17.2c9.7 10.7 8.6 23 7.6 35.6-.7 9-1 18.1-1.4 27.3 21.2-23.2 41-46.1 62.1-67.7s43.7-41.8 65.6-62.6l3.5 3.1c-10.4 13-20.1 26.5-31.3 38.9-8.6 9.6-19.8 16.8-28.2 26.6a261.5 261.5 0 00-43.2 71.2 152 152 0 01-28.1 46.6c-13.5 14.5-15.5 33.5-16.8 52.1-2 28.7-1.3 57.1 6.5 85.1 2.9 10.4 4 21.3 5.8 32l-2.5.6c-1.2-4.5-2.8-9-3.6-13.5-3.6-19.9-9.3-39.7-9.8-59.7-.7-24.7 2.4-49.6 5.1-74.3a38.2 38.2 0 019.6-20.4c17.2-18.4 27-40.7 37.2-63 5-11.2 11.5-21.6 16.1-33.3-5 7.2-10.4 14.3-15 21.8-13.7 21.5-27.5 43-40.4 65-20.2 34.2-25.9 71.5-21.5 110.4 2.3 20 5.5 39.9 6 60.4-2.3-11.2-5.2-22.4-6.7-33.7a377.7 377.7 0 01-3.8-40.7c-1.1-40.2 7.6-77.4 32.3-110.5 10.6-14.3 18.8-30.4 27.3-46.2 13.7-24.9 35-43 54.2-63.2 12-12.6 24.7-24.6 36-37.9-41.4 39-86.7 74.2-116.3 124.5l-3.3-1.9v-19.2c.4-11.7 1-23.3 1.2-35 .1-2.4-.1-5.7-1.6-7.4-19.8-24.1-19.5-53-19-81.5.4-16.8 3.3-33.8 7.2-50.2C33 795 39.3 784 44 772.8l-.4.4 9.9-8.4z"/>
      <path d="M71.6 151.6c3.7-3.6 6.9-8.2 11.3-10.5a161.6 161.6 0 0128.3-11.4 33.8 33.8 0 0118.1 0c7.6 2.3 12.8-.1 17.9-4.9L195 80c6.2-5.8 12.6-11.7 18.2-18.2a33.6 33.6 0 0138.2-9.2c8.5 3.8 17.3 7 25.6 11 5.5 2.7 10.5 6.6 15.8 9.8 5.2 3 10.4 7.5 15.7 7.8 10.5.5 17.7 6.5 25.7 11.6 12 7.5 23.8 15.6 36.4 21.7a48.2 48.2 0 0022 3.3c8.3-.2 15 1 19.8 8.3 1.5 2.3 3.2 4.3 4.7 6.5 11 15.8 23.7 28.4 44.7 29 4.3.2 10.5 3.3 12.3 6.8 7.5 14.6 21.3 21.7 33.8 30.2 9.5 6.6 20 11.8 30 17.7 18 10.5 37 15.8 58 13.4 17.3-2 33.3 1.3 49 9.7 12.7 7 27.6 5 40.4-.9a45.7 45.7 0 0145.6 3.3 51.2 51.2 0 0044.4 6.8c10.5-3 20.2-2 29.5 3.8a23.4 23.4 0 004.4 2.3c37.8 13.4 75.5 26.7 117 21.1 10.8-1.4 22.2 1 33.7 3.2-5.6 7.7-15 3.3-22 6.5l.2.2 8.9-6.7c-9.9-.4-17.1-1.7-24.2-.8-23.7 2.9-47.2 1.7-70-5-18.5-5.6-36.2-14-54.6-20a40.2 40.2 0 00-20.1-1.9c-17.8 3.7-33.8 4.2-50.1-7.3A41 41 0 00688 241a60 60 0 01-50.8-.6 66.8 66.8 0 00-33.3-6.9c-31 3.6-57.5-6.6-82.7-22.6-11.5-7.2-23.2-14.2-34.2-22.2-4.9-3.5-8-9.6-12.5-13.8-4.4-4-9.7-10.2-14.5-10.2-22.1 0-34.7-13.7-45.4-29.5-7-10.2-14.3-15-27.1-13-13.8 2.2-24-7.5-35.3-13.8-14.7-8.1-26.8-21.3-44.8-23.6-5-.6-9.6-4-14.3-6.4-16.5-8.3-32.5-17.9-49.5-24.6-10.6-4.2-20.2 2.5-28.1 10.2-11.2 10.8-22.6 21.4-33.8 32.1-10.3 9.8-20.7 19.4-30.7 29.5-6.5 6.6-13.3 10.6-23 7.1-3.3-1.2-7.6-2.3-10.4-1C102.2 138 87.2 145 72 152zM652.1 1371.5c.8-7.5 1.3-14.4 2.4-21.2 1.4-9.3-2.3-12.8-11.1-10a52.8 52.8 0 01-64.9-33.5 130.8 130.8 0 01-5.6-61.7c4.7-37.1 48.2-61.7 79.2-52.7l13.5 3.6c29.2 8 37.3 32.9 44.6 57.5 2.8 9.3 1.4 19.8 2.4 29.7 1.1 12.2 2.6 24.3 4 36.5 1.7 14.1 3.8 28.3 4.9 42.5.1 2.3-3.4 6.2-6 7.3a91 91 0 01-52 3.5c-3.1-.6-6.4-.9-11.4-1.5zm48.3-131.3c-6.6-22.5-17.1-33.5-38.6-40.1-5.7-1.8-11.5-3.2-17.3-4.6-16.3-4-45.8 7.4-55 21.4-20 30-18.3 61.4-4.4 92.8a42.1 42.1 0 0035 26.6c11.7 1.1 23.7-.8 37.2-1.4 0 5.4-.4 12.1.1 18.8.4 4.5.7 12 3 12.8 7.8 3 16.5 3.6 24.9 5.2-13-10.2-16.3-18.5-13-34.9l42.4-2.5-8-47-7.5 2.1c-13.3 3.5-19.4-1.8-17.4-15.2.7-4.6 2.7-9.1 2.5-13.6-.7-12 6.4-17 16.1-20.4zm8.6 31.3c-1.1-6.2-1.5-12.7-3.6-18.5-1.1-3-5.4-7.1-8-7s-6.7 4.4-7.7 7.6c-2 6.6-2.9 13.6-3.6 20.5-1.2 10.7 4 14.5 14.3 11.3 7.4-2.2 9-7.2 8.6-14zm-5.1 93.7c-3.7-25.6-4.3-26.5-17.2-24.1 2.2 22.4 5.4 27 17.2 24zm4.4-.3c5.9-4.5 6.8-17.2 2.4-23.9-1-1.6-4.7-1.5-8.4-2.5l6 26.4zm-19.4-.3c-2.4-8-4-14.6-6.4-21-.6-1.5-3.3-2.2-5-3.3-.9 1.6-2.5 3.3-2.3 4.8 1 8.2 2 16.6 13.7 19.5zM971 1436.9c6.7 1 12.6 1.6 18.2 3a83.9 83.9 0 0116 5.3c6 2.8 10.5 7.2 9 14.8s-5.2 15-13.7 14.7a104.6 104.6 0 01-30.6-5.6c-6-2.1-10.4-3-16.5-.4-30.6 12.5-61.5 24.4-92.2 36.6-3.9 1.5-7.6 3.4-11.4 5l-1.3-2.4c4.6-2.5 9-5.3 13.7-7.4 15.4-6.8 30.8-13.7 46.4-20 11.1-4.3 23.2-6.4 33.7-11.7 12.8-6.4 23.7-9.3 36.5.3 4.5 3.4 13.2 3.6 19.2 2.1 4.6-1.2 9.6-6.6 11.4-11.3 1-2.5-3.5-9.3-7-11-7-3.3-15-4.7-22.7-6.6-4.4-1-9-1.7-14.9-2.7 1.6-3.8 2.5-6.4 3.7-9 2.2-4.8 5.5-9.4 6.5-14.4.8-4.4-.8-9.2-1.3-13.9-4.7 1.4-11.2 1.3-13.8 4.4-5.6 6.8-9.5 15-13.7 23-1.8 3.4-2.9 7.3-4 11.1-2.2 6.9-5.9 10-13.7 11.8-12 2.9-23.4 9.2-35 14-22.3 9.4-44.5 19-67 28-3 1.3-7 1-10.4.6-9.2-.9-18.4-2.4-27.6-3.2-10.6-1-16.8 4.5-19.6 14.8 11.2 10.4 25.3 8.6 39.5 9.1v10.3c.1 13.2 8.3 20.8 21.5 19.7 21-1.8 22.6-4 18.3-24.5l-2.2-9.6c7.5 8.3 11 24 7.3 30-3 4.8-22.5 9.8-30.8 8-14.4-3.3-16.7-6.9-18.8-29.3-7.3-.9-14.9-1.4-22.3-2.6-7.1-1.3-15.2-2.5-16.6-11.4-1.2-7.2 8.6-17.7 17.1-18 10.5-.3 21.1 1.5 31.7 2 5 .2 10.6.8 15-1 33.1-13.5 66-27.8 99.2-41.2 6.6-2.6 9.3-6.6 12.1-12.6a250.7 250.7 0 0118.9-33.3c3.7-5.5 11.2-8.5 16.5-3.3 3.4 3.3 4.8 10.7 4 15.8-1 7.2-5 14-8.2 22zM1057.5 1292l-1.6 13.8-10.1-5.6-.6 11.7-2.2 1-22.6-41.8c-4.7 10.8-6 23.6-18 30.7l-5.2-9.3-4.2 9.7h-2.6L987 1282l-3.9 10.3c-7.7-6.2-23.3-51.3-21.6-65.8l18.6 60.3 2.8-.4 1.7-23.2 3.3-.5 4.3 27.8 6.8-7.6 4.3 14.1c20.8-21 10-46.3 12.5-70 3.2 26.4 8.1 51.9 25.5 73.6l4.5-10 6.6 10.7 5.4-9zM869.4 915.1c15.7 21.9 16.6 99.9-.4 120.6-1.1-6-2.8-10.1-2.5-14.1 1.1-14 3.2-27.7 4.3-41.6.6-6.5-.1-13.2-.7-19.7-1.4-15-3-29.8-4.5-44.7zm0 112.1c9.7-24 13.3-78-.4-99 8.4 33 3.5 66 .5 99zM1193 969.6c-9-82.3-3.4-164.5 5.6-246.6-1.2 24.6-1.4 49.4-3.9 73.9-3.2 31.1-5 62-2.2 93.3 2.2 26.3.4 53 .4 79.4zM421.2 1184.1l-6.7-56h-1.4l-2.4 55.7-3.3.2c-.6-10.4-2.5-20.9-1.4-31 2.7-24.2 6.8-48.2 10-69.7l6.5 101zM1163.5 717.7c8.5 31.4 5.5 62.5 3.9 93.6l-3.8 1.9c-3.1-3.9-8.6-7.5-9-11.6a230.3 230.3 0 01-.6-40.4c1-12.3 4.2-24.4 6.7-36.6.4-2.4 1.8-4.6 2.8-7zm2.5 50.6l2.4-.4-3.3-41.2c-3.8 12.1-7.8 24-8.9 36-1.1 12.3.3 25 1.3 37.3.2 2.8 3.5 5.3 5.4 7.9l2.6-1.6v-24.7c-7.1.4-7.3-.9-2.6-22.7zM167.3 1124.3c6.2-11.9 11.2-23.7 9-37.9-.8-4.4 2.6-9.4 4.2-14.2l3.8.6c0 3.7 1 7.7-.1 11.2a99.5 99.5 0 00-.5 54.5l9.4-14.4 1.2 18.1 2.1.3 9-16.5 3.9 14.3 2.8-.1-6.2 9.3-3-12.6-8.2 13-6.3-14.7-6.6 16-5-38.6-8.8 12.2zM1198.2 685.6c-14.3-44.3-10.4-87-5.4-130 2.5-21.6-.2-43.7-.6-65.6-.1-3.6-.4-7.2 0-10.8 6.2 21.4 6 43.3 4.4 65.1-1.7 23.5-5.8 47-6.2 70.4-.3 16.7 3.8 33.4 5.8 50 .8 6.3 1.2 12.5 2 21zM1113.7 1288.2l-4.1 16-8-11.2-4.3 13.8-2 .4-9.3-25c-3 9.5 2.2 20-6.1 26.9.7-11.8 1.7-23 2-34s.1-22.5.8-34l10.8 57 2.9-.4 4.4-10 7.5 7 5.6-6.3zM432 1218.5c0 9.6.4 19.1-.2 28.6-.2 3.1-3 6.1-4.6 9.1l-8.4-5 1.2-2.3 8.5 3.7 2.5-49.6 1.8-.5 13.3 39.7 4.4-15.6c4 9.3 7 16.1 9.8 23l3-.9-5 8.1-6.7-19h-1.1v14.2l-3 .8-13.4-34.5zM1055 645.8l-39.4-13c-8.2-2.6-16.4-4.8-24.4-7.7-12.1-4.3-22.8.7-33.7 4.5-4.2 1.5-8.3 6.7-13.1.6-.6-.7-3.9 0-5.6.9-10.3 5-20.5 10-30.6 15.1.3 1.1-.4 0-.1-.6 4-7 30.6-19.2 38.3-18.1 3.4.5 7.2.7 10.2-.4 15-5.8 28.7-8 44.8-.6 17 7.8 36.2 11 54.4 16zM530.9 1174.2c-17.9-28.3-16-60.3-27.7-88.3l4.9-1.3 11.3 55 .8-.1-1.4-26.6 1.4-.1 10.7 61.4zM1071.8 689.3c1 2.5 3.3 5.1 3 7.6-.2 4.9-2 9.7-3 14.6-2 9.6.5 17.3 8.6 23.6a50.8 50.8 0 0118.9 30.7c.9 4.7 4 9 6.8 13 8.6 11.6 7.3 17-8.2 24 2.5-3 3.7-4.7 5.2-6 6.2-4.7 5.6-9.5 1-15.2a37.8 37.8 0 01-8.2-14.3 56 56 0 00-19.1-31.8c-8.8-7.5-10.3-16.3-8-26.9 1.5-6.4 2.2-13 3.2-19.5zM404.6 1435.5l-6 7.6 8.9-31c0 34.7 1.3 69 11 102.7-9-10.9-8.5-24.7-10.6-37.5-2-13.3-2.2-26.9-3.3-41.8zM54.8 1150.5l-6.5-18-6.8 13.5-2.3-.6 9.2-51 3.2-.2c.7 7.8 1.7 15.5 1.9 23.3.3 10.9 0 21.8 0 32.6zM95 1154.5l-3.4-15.5 1.4-.4 1.9 5.8h1.8l10-57.6c3.4 22.4 0 45.5 9.2 67-10.5-11.1-7.3-26-11.7-42l-6.4 42.6zM672.3 280.4c15-3.6 28.8-15.3 45.7-3.5 2.4 1.6 7.2.7 10.4-.3 23.8-7.8 48-1.9 72-2.6 3 0 6.2 2 9 4.1-17.4-1.3-34.7-3.5-52-3.4-10.7 0-21.4 3.8-32.1 5.5-3 .5-7.8 1-9.2-.6-7-8.3-15.3-4.9-23.2-3.3-6.9 1.5-13.5 4.3-20.2 6.5zM330.3 1089l34 74.2c-3.4-5-7.5-10.4-11-16.2s-6.6-12.2-11-20.6l-2.2 33.4-3.2-.1c4.5-24.3 1-47.7-6.6-70.7z"/>
      <path d="M168 1124.8l-19.8 27-5.5-12.6-8.4 9.7-2.9-.2-2-21.4-10.8 13.6-2-1.7 14-17 2.8 1.3v23l11-15 4.8 13.3 18.2-20.5zM641.2 1138l-2.6 32-3 .4c-2-8.6-3.8-17.3-6-28l-12.7 37.4-2-.5 15.1-51.5 5.5 30.8 1.7.1 2.4-20.9zM663.1 1176.8c-5.2-4.7-14.9-36.3-19-65.8l-2.6 5.9v-23.5l1-.1 20.6 83.5zM127.4 1255.7l16.8 68.7 2.8-.3 1.3-9.7h1v17.2c-9.2-4-22.6-48.9-21.9-75.9zM475.5 1518.4l-17-37.2-4.8 29.7-3-.2c5-18 8.2-35.7-2.6-52.7l4 5 1.1-2.3 24.3 57zM379.2 1148.5v14.3l-1.9.7-13-30 2.2-1 8.6 17 2.6-27.7 2.2-.2 4.6 34zM227.7 1138.6l-6.6 14-2.6-.4c14.3-20.7-5.2-37.1-6.6-55.8l3.3-1.1 18.1 49-.9.6zM227.8 1302.4c-7.3 1.7-14.6 4.2-22 4.9-9.3.8-18.1 1.2-24.5 9.6-1.2 1.5-6.9 2-8 .8-4.5-5.4-8.2-11.5-12.2-17.4l3.7-2.2c1.9 3.8 3.6 7.6 5.8 11.3 3.5 6 8 8 13 1.6 4.4-5.6 9.6-6.4 16.4-6.5 9 0 18.1-2.5 27.2-4zM691.7 1145l-6 17.6h-4.4l-5.3-22.7 3.3-.8 3.1 17.4 2.7.3 6.5-25.4h2l4.8 24c-4 2.2-4.4 1.8-6.7-10.4zM1072 689c-8.7-5-17.3-10.4-26.3-15.1a28.4 28.4 0 00-11.3-2.7c-19.5-1.1-39-2-58.5-3.4h43c5 0 10 1 15 1 7.2 0 13.3 1.2 18.5 7.2 2.8 3.3 8.2 4.2 12 6.6 2.8 1.8 5 4.4 7.4 6.6zM878.6 1108.2l9.5 59.7c.5 3.3 1.2 6.5 2 10.8l7.5-5.6-5.2 10-3.4-.2a261 261 0 01-10.2-74.8zM845.2 1156l-5.8 2.9-6-12.4c-3 1.5-7.2 5.3-11 5-2.7-.3-5-5.8-6.1-9.7l9.7 6.7 4.9-10.3 3.2-8.1c6.5 7.5-.6 19.6 11.1 25.9zM492.2 1476.5v35.4l3.3 1.2 12.6-15.3c.1.2.7 1 .5 1.3l-15.3 16.6c-2-6.7-5.1-13.3-5.9-20.1-.7-6.3 1-12.8 1.5-19.3zM659.8 1114.6c7.2 19.4 5.8 41.6 20.7 59.3-11-4.9-19.1-28.4-20.7-59.3zM946 1153c-4.4-22.7-7.2-44.4 0-66.5zM1009 1160l2-3.3 1.1.2-2.6 12.8-3.4.3c-2-14-4-28-5.8-42.1 0-1 1.8-2.2 5.5-3v35.2zM951.7 1243.3l16.1 56.8-2.5.7a229.2 229.2 0 01-13.6-57.5zM1113.9 1288.4c3.6-3.6 5-3.1 7.2 2.5l6.2 16.7c9.3 1.2 11.8-15.3 21-5.7-3.7 1.6-7.4 2.2-9.8 4.4-8.2 7.2-11.7 6.6-16.8-3.3-2.5-5-5.3-9.9-8-14.8zM508.4 1248.2c-10 2.7-23.5-25-20-44.4 8.4 15 2.3 35.3 20 44.4zM915.6 1271l-1.2 9-1-.2v-13.4l3.5-1 10.9 24.5 3.4-10 1.2.2-2.4 13.6-3.4.8a4307 4307 0 00-11-23.5zM557.1 1153.3l9.8-67.8 2.5.3-10.3 67.8zM1016.7 1140.6c1.2.8 3.3 1.5 3.6 2.6a56.9 56.9 0 011.8 10.7c1.7 19.9 5.8 23 24.9 19.4-11.6 8.7-25 3.7-27-10.3l-3.3-22.4zM150.5 1284.3c4.4 32.1 5 33.4 13.6 30.2l-3.3 8.4c-11-8.2-15.4-23.9-10.3-38.6zM1082.5 1171.6l-7.2-53.8 3.3-.5 6.6 53.9zM441 1155.8l-1.4 15.3c-11.9-11.8-12-26.4-12-41l7.5 35h3.2l1.8-9.1zM565.5 1139.5c1.8 6.2 2.9 12.7 5.5 18.5 1.4 3.2 5.4 5.2 8.2 7.8l5.7-10.6a15.7 15.7 0 00.7-3.5c5.9 6.9 2.4 12.3-3 14.7-3.1 1.4-10.7-.6-12-3.2-3.8-7-5.2-15.2-7.6-23zM428.5 1502.1l8.7-21.8 6.6 19.3-1.1 1.3-7-8.4-7.8 15.4-6.3-15.4 1.9-1zM63 1146.5l5.5-4-3 11.7c-9.6-8.6-12.7-21.4-6.6-27zM909.5 707.4c14-17 19.8-17.1 50.7-10.7-17.7-.6-36.4-6.4-50.7 10.7zM537 1238c-8.4 9.6-8.4 9.6-18.2-12.4l-4.4 3.8c1-3.8 1.5-6.4 2-9l3.2-.8c2 4.4 4 8.7 5.8 13 2.1 5 3.4 11 11.7 5.5zM72.1 152c-3.2 5-5.1 10.6-14 7.7-2.4-.8-8.3 8-12.1 12.8-1.5 1.7-1.5 4.6-3.8 7-.3-1.5-1.4-3.5-.9-4.5 5.1-8.9 7.8-20.7 22.6-18.1 2.2.4 5.1-3.5 7.7-5.3zM501.2 225.6l46.5 19.9-.7 1.7-47.2-19zM870.7 1174c1-3 2.9-5.9 2.8-8.8 0-10.5-.7-21 .4-31.5l2.7 46.7-3 1-3.7-6.5z"/>
      <path d="M779.5 736.6l1.4 5.7c-10.2-11-21-17.9-24.1-31.2z" class="cls-1"/>
      <path d="M529 1517c-.7.3-3.9 2.4-5.5 1.5-2.1-1-3.8-4.3-4.4-6.9-1.9-7.1-3-14.4-5-23.7 2.2 3.6 4.6 6.4 5.5 9.5 1.2 4 .6 8.7 2 12.7 1 2.4 4.3 4 7.5 6.9zM592.7 1506c-21.2 11-28.6 12.2-33.8 7.4zM711.4 1132.5l2 16.9 2 1.3 4.6-8.7 2.5 2.2-7.8 12.2c-3.8-7-6.9-12.5-9.3-18.2-.3-.5 2.8-2.7 6-5.7zM244.3 1137l7.4 1.9-15 16.2-3-2zM126.6 177.4c-13.9-.9-28.6-4-31.6 16.4-1.3-15.7 3.8-18.5 31.6-16.4zM913 1153l12.7-8.3 1.2 1.8-13.1 10c-8.4-7.8-2.6-16.4-3.4-24.4l2.5-.1zM231.4 165.4l-37 12.3-.6-2.5 37.1-11.6zM270.5 1139.1l-2.6-5.5-10 16.2-2.7-1.8 12.4-19.6 2.4.5 2.1 9.6zM935.4 1269l10 26.9-3.4 1.2-8.7-27.2zM538 1132.3l4.6 26-4.5.5-1.4-26.5zM1061 1164.9l5.4-5.1-3.9 16.8h-2.3l-3.1-24.8 2.1-.3 1.8 13.4zM452.6 1159.2c-7.3-1.3-11.8-9.8-9-20.5l9 20.5zM313 1151.5l-6-10 7-9.6-1.2 14 5.7-4.8 1.1 1zM260.8 105.3c-10 12-21.7 7.9-33.7 2.6 11.4.2 23.5 6.1 33.9-2.4z"/>
      <path d="M261 105.5c8.1-3.8 15-2.6 21 4.5 2.9 3.4 6.8 6 12.4 10.7-13.8-3.7-19.4-19.6-33.6-15.4zM1057.8 1292.2l3.7-7.5 8.4 22.4-1 1.4c-2.2-3.5-4.2-7-6.5-10.5-1.4-2.1-3.3-4-5-6zM446.3 207.3c11-4 21.1-1.2 30.8 5.7z"/>
      <path d="M525.1 756.7c-9.7 4.3-11.9-4.8-19.6-12.3l17.1-7.3-4.6-5-15 10.4-24-47.7 1.6-2.6 24.3 8.4c10.3-13.6 19.2-27 29.6-39 22.7-26.6 64-30.8 95.9-13 10 5.7 19.9 11.9 30.1 17.2 1.7.9 6.8-1 7.2-2.4 6-20.7 24.8-22.5 40.5-29.7l25 58.8c-4.8 7.5-9.7 16-15.5 23.9-1.9 2.5-6.2 3.4-9.6 4.4-10.2 2.9-20.8 4.6-30.6 8.4-7.1 2.9-13.9 7.7-19.6 13a37 37 0 01-28.9 10 163 163 0 00-41.3 2 52.8 52.8 0 01-28.7-2c-8-2.5-17.4-1.7-26-1.2-2.9.2-5.5 4-8.3 6z" class="cls-1"/>
      <path d="M524.8 757a43.2 43.2 0 0140.8.7A21 21 0 00580 759c16.1-5.2 32.3-6.1 49-3.8 13.4 1.9 23.6-3.7 34-12.6 8.4-7.2 20.3-10.4 30.7-15 2.4-1.2 5.1-1.4 7.8-1.8 11-1.8 21-4.2 25-17 1.5-4.7 6.3-8.2 9.3-11.8 17.8 19.8 34.9 38.6 51.6 57.8a52.2 52.2 0 018 13.6c8.2 18.7 15.9 37.5 23.8 56.4-16 4.8-33.8.6-52-2.3-10.1-1.6-20.8 0-31.3-.2-8.5-.1-17.1-.2-25.6-1.2-29.5-3.7-59-7.9-88.4-11.9-15-2-30-5.2-45.1-5.8-11.7-.5-23.5 2.2-36.3 3.6.2-3.1.1-7 .7-10.7 1.5-11.3-.3-20.9-10.9-27.6-3.9-2.5-8.4-5.8-5.1-12zM746 738c-20.5-3.9-40.3-3.2-58.5 8 18.6-8.8 38.5-9.2 58.5-8zm-120.6 35.5c16.8 3.5 29.7-9.7 45-15.8zM215.8 683.8c-21.6-5.3-42.5-11.6-64-15.5s-42.7.5-61.2 7q-7.2-152-17-305.1c2.3 4.5 4.8 8.8 6.8 13.4 20 44.8 38.6 90.4 60.4 134.3 19.6 39.5 42.7 77.2 64.7 115.4 3.4 5.8 12.3 10 12.8 15.6 1.1 12-1.5 24.3-2.5 34.9zM569.8 411.3c13.7 43.7 25.1 86 40.2 127s33.9 80.4 51.2 121c-11.9-6-24-12.3-36.5-18-44-20.2-91.8 2.5-113 42.7-1.9 3.6-3.7 7.4-6.8 10.6-2.4-99.8 31.9-190.8 65-283.3zM250.7 218.5c23.2 17.4 49.2 14.6 73.4 19.2 24.7 4.7 49.6 7.9 75 11.9 4.8 35-.1 68.4-28 94.8a122 122 0 00-30.6 46c-4 10.5-8 21.7-22.1 22.1-4.2.1-9.8 0-12.4-2.4a75.5 75.5 0 01-14.4-18.8c-13-24.1-26.6-47.5-49.8-63.6a25 25 0 01-8.3-12.2c-11.4-34.8.2-65.4 17.2-97zm96.7 116.7l28-22.5c-3.4-7-12.7-11.2-22.7-10.8-10.4.4-23 9.4-23.5 16.6-.4 7.7 6 13.5 18.2 16.7zm-50.5-19.1c-7.1-20.1-26.4-22.1-41.4-19.8-1.8.3-4.7 6.5-3.9 7.8 4.6 7.4 9.5 14.8 15.8 20.6 4.1 4 9.9 4.7 17 3.7 8.6-1.2 8.9 1 9.8-6.5l-7.7 1.2zm-43.2-33.9c34.4-1.9 49.2 19.3 57 51.6 4.9-26-24.5-63.8-57-51.6zm113.3 4.6c-31.4-8.7-51.4 24.4-43.6 50.6.3-29.5 10.2-50.4 43.6-50.6zM329.6 377l-8.6-7.5c-2.7 3.2-7 6-7.6 9.6-.4 2.4 4.5 5.6 7.1 8.4zm-33.5-7.8c3.6 2.9 8 4.7 8.7 7.3.6 3-2.1 6.9-3.6 11 8-.1 8.7-5.4 8-11.2-1-7.6-5.8-9.1-13.1-7.1z" class="cls-1"/>
      <path d="M576.4 404.6A1572 1572 0 00810 631.8c-51.7-13-100.7-13-145.5 22.3-37.7-79.1-72.5-160.5-88.1-249.5zM74.3 363.4c54 58.3 113.7 110 181.1 154-20 39.2-33.8 79.7-34.5 124l-3 .7c-5.3-7.1-11.5-13.8-16.1-21.4-38-61.7-71.5-125.7-99-192.9-9-21.7-19-43-28.5-64.4zM546.1 837.3l8.8-5.5c9.7 14 17 29.3 28.5 40.2 18.1 17.4 38.9 32 58.9 47.3 9.1 7 19.1 13.1 28.7 19.7 14.2 9.7 19.5 25.5 26.6 40 9.8 20 19.5 40 29.6 59.8a28 28 0 008.3 9.8c42.7 30 61.5 74 72.4 122.7a138 138 0 013.6 31c-4.5-5.6-9.5-10.7-13.3-16.7a238.2 238.2 0 00-52-56c-12-10-25.4-18.8-35.3-30.6a80.4 80.4 0 01-14-32.1c-5-20.3-8.5-41-11.4-61.7-3.9-28-21.1-46.6-43.3-60.2a205 205 0 01-54.4-47.7c-14.2-17.9-26.8-37-40.1-55.7-.7-1-.9-2.3-1.6-4.3zM562.1 416.4C548 461.6 533.3 506.5 520 552A461.1 461.1 0 00500 692.6c-7.2-1.3-14-2-20.4-4-2.2-.6-4.1-4-5-6.6-10-27-19-54.5-30-81-5.2-12.3-2.3-20 5-29.8 20.6-27.3 39.6-55.7 59.4-83.5 16.4-23 33-45.8 49.5-68.7a37.9 37.9 0 002.4-4.4z" class="cls-1"/>
      <path d="M578.3 397.6c39 29.2 76.7 60.4 117.4 87 41 26.7 84.9 48.9 128.2 73.4-10.6 11.8-16 24.7-13.3 39.2 2.5 13 7.3 25.7 11.4 39.7a1480 1480 0 01-243.7-239.3zM369.5 702.6l45.7-91.7 3.1-.1 33.1 77.7c-30-1.8-55.3 6.8-77.7 26.6l1.3-9.6-1-.3-4.2 13.1-1.8.1c-.9-7.1-2.4-14.3-2.5-21.5q-.3-69.8 0-139.6c0-8.4 2.2-16.4 11-22.4 3.8 5.1 8 9.8 10.8 15.2 8 15 15 30.4 23.2 45.2 3.8 7 2.5 12.5-1 19.3-13.5 27.2-26.3 54.9-39.4 82.4a42.5 42.5 0 00-1.7 5.2zM750.4 687.5a54.3 54.3 0 0129.4-14.7c9.8-2.2 19.3-6.2 28.5-10.4 11-5 21.5-11.2 35.1-18.3l5.5 73.3c1.5 19 3.3 37.8 4.5 56.6.4 6-1 12.2-1.5 18.2-5.7-2.7-12.9-4-17-8.3-11.5-12.3-21.6-26-32.8-38.6-15.7-17.6-32-34.7-48-52-1.3-1.4-2.2-3.3-3.7-5.8zM556.8 403.4l7.8-1.5c-20.6 29.3-41.3 59-62.2 88.5l-64.1 90.1-33.7-69.4 21.1-15c19.4-13.4 38.8-26.7 58-40.2 1.5-1 2.4-3 3.5-4.6l-.4.3 47.5-32.5 22.5-15.7zM372 219.7l39.2-30-7.8 35.2c-3.5-.3-7.4-1.6-8.5-.3-2 2-3.6 6.5-2.6 8.6 1 2.4 5.3 3.3 9.8 5.6.4 4.3-3.4 5.6-8.7 4.9-25.3-3.5-50.5-6.9-75.7-10.6-14.7-2.1-29.4-4.8-44-7.2a24.4 24.4 0 01-3.9-1c-15-5.2-16.6-8.2-13.3-23.9 2.8-12.8 5.3-25.8 10.1-39.3 4.5 8 9.2 16.1 13.5 24.3 7.7 14.7 14.8 15.3 25.6 1.7 3.5-4.3 6.4-9 10.6-15.2l5.8 25.4c1.8 7.4 6 9.7 12 4.3 5.7-5 10.7-10.8 16-16.4 2.3-2.5 4.4-5.2 7-8.1l11 39.7zm-8.6 8.8l-8-11c-9.1 7.5-6.3 13.3.7 19.8zm-47.2-6.2l-6.5-13L301 220l7.3 9.7zm-50-22c-8.4 5.2-8.4 5.2-1.9 15.7 9.4-4.4 9.7-6.3 2-15.6zm65.7 31.4l8.3-6.3-6.3-10.8c-9.3 7.8-9.4 8.2-2 17.1zm-43.3-27.5c-10 8-10 8.9-1.5 17.4 9.1-5.2 5.4-11.1 1.5-17.4zm91.4 35.2c5-6 8.4-11.8-1.1-17-7.4 6.2-7.1 11.7 1.2 17z" class="cls-1"/>
      <path d="M831.6 644.2c-18 8.2-31.5 24.5-53.4 25.7-10.2.6-20 7.6-31 12l-28.6-49.6c38.1-9.7 73.5-3.7 108 11.1 1.6.7 3.5.7 5.3 1zM813.7 1215.4c-9.2-10.4-17.8-21.3-27.7-31-25-24.2-50.5-48-76-71.7-16.8-15.6-23.2-35.7-27.4-57.3a631.3 631.3 0 00-13.6-60 65.3 65.3 0 00-15.4-26c-11.7-12.1-25.6-22-38.2-33.3-10.9-9.8-22.2-19.2-31.5-30.4-13.5-16.3-25.5-34-38-51.3-2.6-3.7-4.4-8.1-6.6-12.2l2.6-1.5 28.5 40a240.3 240.3 0 0071 68.7 82.7 82.7 0 0142 63.2c3.2 24.6 9 49 15.3 73 2 7.9 8.9 15.3 15.2 21.1 28.1 26.1 60.6 47.8 81.5 81.2 3.9 6.2 9.5 11.2 14 17 2.3 2.9 4 6.3 5.9 9.4zM276.1 540.3l-9.7 160.5c-7.9-9-16-18-23.7-27.6-1.6-2-2.1-5.7-1.6-8.4 6.1-35.9 8.5-72.6 22.8-106.8 2.7-6.5 6.4-12.6 9.6-19zM824.5 406.4c0 20.9-.8 41.8.2 62.6.7 14.1 2.4 28.5 6.1 42.1 3.7 13.3 10 26 16.3 38.3a85.2 85.2 0 018.5 46.2c-1.5 21 0 42.4.3 63.6.2 15 0 29.8.7 44.7 1 22.9 2.9 45.7 4 68.6a161.2 161.2 0 01-.2 21.8c-.2 3-1.8 7-4 8s-5.5-1.7-6.1-1.9c2.6-5.3 6.3-9.5 6.3-13.7 0-13.2-1.4-26.5-2.5-39.7-3.2-40-6.5-80-10-119.8-.8-8.4-1.8-15.8 1-24.5A43 43 0 00842 566c-2-3.2-3.4-7.6-3.1-11.3 1-14.7-6.8-26.7-10.6-40-3.8-13-6.8-26.4-7.5-39.8-1.1-22.8-.3-45.7-.3-68.5z" class="cls-1"/>
      <path d="M861.4 676.4c3.9 23.6 9.3 50.5 12.4 77.7 1.7 15.3-.3 31-.7 46.6-.1 5-.5 10-1 14.8-1 8.3-8.6 12.7-13.8 7.3-13.8-14.4-26.6-29.7-39.8-44.6l2.6-2.4c8.3 8.5 16.2 17.3 25 25.2 3 2.8 8 4.9 12 4.6 2 0 5.5-5.9 5.5-9-.3-17.3-1.8-34.5-2-51.7-.5-24.2-.2-48.4-.2-68.5zM831.9 644.5c-5.7-15.4-12.1-30.5-16.7-46.2a35.8 35.8 0 017.2-32c1.8-2.4 5-4 9.6-7.6 0 7.2-.5 11.4.1 15.4 2.8 20 5.5 39.8 9 59.6 1.6 8.9-1.6 11.4-9.6 10.5zM916.2 951c0-12.8.7-25.7-.2-38.5a92.5 92.5 0 00-5.9-24.7 117.2 117.2 0 01-4.3-70.3c.7-2.6 2.6-5 5.3-7.2-1.8 17.6-9 35 .5 55 17.9-21.5 29.7-47.6 58.8-55.4l-12 10.6c-4 3.4-7.8 7.2-12.2 10.2a55.6 55.6 0 00-25.5 50.8c.5 23.2-1.8 46.4-2.9 69.5zM428.5 799.2c22.3-7.3 45.4-5.3 63.6-24l10.3 28.2c-25.3.8-48.5 9.2-73.9-4.2zM821.2 360.2c3 21.2 6.4 42.3 9.2 63.6 2.9 21 4.3 42.3 8.2 63 4 21 10.4 41.6 15.8 62.4l-2.6 1a47.6 47.6 0 01-3.7-6c-11.4-25.5-20-51.3-20.6-80-.6-31-5.2-62-8-93l-.6-10.7z" class="cls-1"/>
      <path d="M961.8 803.4l7.1-1.9 2 2.6c-25 12-44.3 30-57.5 54.6a60.2 60.2 0 013.6-46.5c.5-1 2.5-1.8 4-2l21-1.7-20 20.7v-15l-1.7-.1-2.6 19.1c2.9-.4 4.7-.1 5.4-.9a123.7 123.7 0 0139-29.3zM258.2 511.3c-3-1-6-1.7-8.8-3.2-35.4-19.6-64.5-47.4-95.2-73.1a169.1 169.1 0 01-19.9-19.1L259.6 508zM404.7 719.6l-13.1 9 1 2h4.5c-3.5 14.4-15 16-26.2 18-5.3-19 1-31.3 22.5-42.7l-5.4 20.7 2.4.7 8-21.6 15 16.8-8.8-2.9zM487.3 451.3l-28.5 19.2-56.3 38.2-4.5-5.8c25.3-17.2 50-34.3 75-50.9 12.3-8.1 25.5-15.1 38.3-22.7l-7.8 7.3-16.6 15zM584 388.5c15.7 13 31 26.7 47.2 39 31 23.2 62.5 45.8 93.1 69.9-12.4-7.2-25.3-13.7-37.2-21.6-12.7-8.5-24.6-18-36.6-27.4-11.8-9.1-23.3-18.6-35-27.8s-23.6-18.1-35.9-27.6l4.6-4.3zM394 934c5 8.5 5.1 16-.8 25-6.1 9.2-9.7 20.2-14.5 30.4-1.8 3.7-4 7.2-6.4 11.6-7.3-16.7 5-52.3 21.8-67zM877 756.6c-3.8-25.2-8.6-50.2-11-75.5-1.8-18.3-.3-37-.3-55.4l3.3-.2c1.8 21.6 3.6 43.1 5.2 64.7q2.1 28.3 3.7 56.6c.2 3.2-.6 6.5-1 9.8zM921.7 1030.7c-1.2 12.4-2.2 24.9-3.8 37.2-1.1 9-4.6 17 3 26.1 3.6 4.4 1.2 13.9 1.7 21.7-16.1-10.4-17.4-60.5-1-85zM856 657.8l3.6-71.1c.1-2 1-4.3.3-6-6-14 3.5-20.5 14-27-17.9 33.4-5.4 70.6-14.7 105zM804.6 769.1c8 17.1 11.4 36.5 27 49.8a58.5 58.5 0 0118 37.5c-6.2-9.3-12.3-20.7-20.4-30.2a145.2 145.2 0 01-31.9-63.7l7.6 7z" class="cls-1"/>
      <path d="M897.6 530.1c-4.4 9-9.3 17.8-13 27-4 10-7 20.4-10.1 30.7-2.2 7.1-3.9 14.3-7.5 21 .8-29.7 5.3-58.1 26.3-80.7zM536.5 817.2c7.4 12 18.3 1 31.3 1.6l-44.4 29-2.3-2.5zM886.8 524.6c8-8.8 19.2-16.4 23.6-26.8 5.5-13 15.5-20.7 24-32-.8 17.3-27.3 51.4-52.6 68.2l5.1-9.4zM1012.2 741c-4.5 29.8-13 44.1-35.2 54.3 5.6-8.3 11.3-16.4 16.7-24.8 6.7-10.4 13.1-21 18.5-29.5zM241.6 676.7l27.8 32.6C257.6 704 247.7 701 240 695c-3.2-2.5-1.5-11.3-2-17.2zM404.6 719.7c2.5 20.6-10.5 36.5-36.3 40.3 2.2-2.7 4-7.5 6.5-7.8 16.6-2.5 25.2-12 27.4-28.2.2-1.5 1.6-2.9 2.4-4.4zM838.4 605.8l-4.1-40.6c11.4 11.3 12.3 18 7.4 40.2z" class="cls-1"/>
      <path d="M486.9 451.6l16.6-15 7.8-7.3 17.2-11.8 9.6-4.2 18.9-9.7-.2-.2-22.5 15.7-47.4 32.5z"/>
      <path d="M887 524.6c.8-16.8 11.5-27 25-37.2-4 16.7-15.9 26-25.2 37.2h.1zM557 403.6l-19 9.7c-3 1.5-6.3 2.8-9.4 4.3 14-10.8 26.4-24.1 45.2-27.3zM53.6 764.8l-9.8 8.4c1-16 16.6-22.3 24-34.2zM962 803l-8.5 1.7 26.7-23.9c-2.7 8.8-4 18.3-15.6 19-1 0-1.9 2.3-2.9 3.6zM373 202.7l13-16 2.2.2-1.6 18.9zM493.6 774.2c15-1.8 17 1.2 14 19.2l-14-19.2zM128.6 414l-34-35.5.4-.4 34 35.6zM560.8 387.5l13-18.2c.9 9 .6 17.3-13 18.2zM339.5 193.4l-10.8 9-4.2-11.5h14.1l.9 2.5zM216.1 819.3l-9.6 24c-1.9-9.9-1.7-18.3 9.6-24z" class="cls-1"/>
      <path d="M271.2 1318.4l4.4-10.1c10.8-3.4 18.4-18 15.6-29.9 8.3-1.1 7-5.7 4.6-11.4-1.6-3.7-1.7-8-2.5-12l10.3 7 3.2 10.4 14.3-13.3-4.3 7.8 1.4 1 5.7-4.8-4.1 10.5-10.6 19.3c-9.2-.2-11 6-11.9 13.3l-12 17-9.9 3.4c-3 2.4-7 4.4-9 7.5-11.7 17.5-23 35.3-34.4 53-1.2 1.8-3 3.1-4.5 4.7l.2-8.8c3.3-5.6 6.2-11.5 9.9-16.8 11-16.1 22.4-32 33.6-47.8z"/>
      <path d="M345.1 1382l.2 4.2-9.8 12.3c-2.7-3.7-5.6-7.3-8.1-11.2-9.4-13.9-18.6-28-27.9-41.9-5.9-10.1 1.7-17 6-24.6l.4-.6 15.5 24.2c8 12.5 15.8 25 23.7 37.6z" class="cls-1"/>
      <path d="M345.1 1382l-23.7-37.6-15.5-24.2-.5-2 5.5-6.7 8.6-.6 30 43.9c.3 4.4 1.3 8.8 1 13.2-.4 3.7-2.3 7.4-3.5 11zM299.5 1345.4l27.9 42c2.5 3.7 5.4 7.3 8.1 11l1.5 4.7-5.6 5.3-6-5.4-28.2-41 .4.4c-1.3-2.6-2.9-5-3.6-7.8-1.2-4.1-1.8-8.4-2.7-12.6l3-.9zM337 1403.1l-1.5-4.7 9.8-12.2 9.9 16-6 16.5-6.1-5.3z" class="cls-1"/>
      <path d="M275.4 1326.5l9.9-3.3 6.4-1.5-.1 10.2-8.8 8.7-12.6 14.4-.9-.3c2.8-5 6-9.7 8.2-14.9.8-1.9-.6-4.7-1-7.2l-2.6.5 1.5-6.6z"/>
      <path d="M282.8 1340.6l8.7-8.7c2-1 4.3-1.7 6-3.2 2.8-2.4 5.3-5.2 8-7.9-4.3 7.6-11.9 14.5-6 24.6l-5.2-4.3-3 .9c.8 4.2 1.4 8.5 2.6 12.6.8 2.7 2.4 5.2 3.6 7.8zM339.6 1484.3l-1.8 10.2-6-8.4-8.4 15.6-2.3-1.3 22.3-40.4 2.3 1.2c-2.9 5.3-5.6 10.7-8.7 15.8-2.4 4-2.6 6.8 3 7.6zM343.1 1413.4l6 5.3 6-16.6c.5 2 1.6 4 1.2 5.6-1.5 6.9-2.6 14-5.6 20.4-2 4.5-6.8 7.8-9 10l-2.5-18.3 8.6 6.7zM209.9 1431.8l36.7 41-2.7 2.4-34.4-43z"/>
      <path d="M343.1 1413.4l4.7 13-8.6-6.6-7.8-11.4 5.6-5.3z" class="cls-1"/>
      <path d="M297.3 1362l28.2 41z"/>
      <path d="M349.4 1354.8l-30-44 .3-9.8 6.2 1.8V1289l10.3 7.6c-5.9-9.4-5.9-9.4-2.5-17 6.2-5.5 3.7-10.7-.4-16-3-3.7-6-4.8-9.4-.5l-5.7 4.9-1.4-1 4.3-7.9 10.2-15 14.2-11 3.8 1.6c0 11.6-.9 23.4.2 35 2 21.4 5.2 42.7 7.5 64.1.6 6 0 12.1-.1 18.2-.1 7.3-3.7 5.5-7.5 2.8zM239.5 1328.3l21-29.5c5.3 6.4 7.5 12.8 2.7 20.1l-29.7 43.5-21.8 32-15.1 17.7-1.7-.7 28.8-57.5zM239.5 1328.3l-15.9 25.7c0-2.4-1-5.2-.2-7.2 7.3-18.2 14.8-36.3 22.3-54.4l-.3.1c3.6-5.4 7-11 10.9-16.2 3.5-4.8 7.5-9.3 11.2-13.9l4.8 7.5c-4 7.1-7.6 14.5-12 21.3-6 9.5-13 18.5-19 28-1.4 2.4-1.2 6-1.8 9zM211.7 1394.5l21.8-32 29.7-43.5 8-.6c-11.2 16-22.6 31.7-33.6 47.8-3.7 5.3-6.6 11.2-9.9 16.8z" class="cls-1"/>
      <path d="M245.7 1292.3c-.2-3.2-1.3-6.7-.4-9.6 3.9-11.8 8-23.5 12.8-35 2-4.9 5.8-9 10.4-16l5 12.7-28.1 48.1zM149.6 1477.8c0-3-1.3-7 .2-8.9 13.9-17.6 28.2-34.8 42.4-52 .3-.4 1.2-.3 4.1-.7L153 1478zM273.9 1302.1c-4.4-5.5-9.4-10.5-4.3-18.7 4.1-6.6 8.6-9 15.7-5l-11.4 23.7zM331.3 1244.2l-10.2 15-14.3 13.2-3.2-10.4 3.5-3.5z" class="cls-1"/>
      <path d="M273.9 1302.1l11.4-23.7h6c2.7 12-5 26.5-15.7 29.9l-1.7-6.2zM136.2 1505.7l-8.2 6.6-9.9-12 9.4-11.2c5.8 5 11.7 8.7 8.3 17zM144.2 1493.7c-8.2 6.2-9.1-3.4-14.1-5.5l12.5-13.8c6.4 3.4 9 6.6 4.3 12.6-1.6 2-2.1 4.7-3.1 7z" class="cls-1"/>
      <path d="M245.4 1292.5l28-48.1c0 3.4-.2 6.7-.3 10.1-7.1-1-5.6 4-5.6 8-3.7 4.5-7.7 9-11.2 13.8-3.9 5.3-7.3 10.8-11 16.2z"/>
      <path d="M285.6 1255.9l-12.2-20.3 1.7-1.6 17.2 12.9zM307.1 1258.5l-3.5 3.5-10.3-7c-.2-4.2.1-7.5 5.9-4.8 2.9 1.4 6.2 2 9.6 3l-1.7 5.3zM267.6 1262.4c0-3.9-1.6-8.9 5.4-7.9a39.9 39.9 0 003 6.1c3.7 5.2 2.8 8.3-3.7 9.3zM54.3 1304.5c1.5-9.5 2.3-18.1 4.4-26.3 1.7-6.6 6.8-12.5 13.7-9.5 4.8 2 9.7 8.3 10.8 13.5a34 34 0 01-3 19.2c-2.4 5.4-1.5 8.5 2 12.3 18.3 20.5 36.4 41.3 55 61.5 2.6 2.7 7.6 3.7 11.6 4.3 10.9 1.8 21.8 3.3 28.2 14-6.5 13.7-21.4 5.2-28.3 9.6 0 9.2.7 16.2-.3 23-.4 3-4.3 7.4-6.5 7.3-3.3 0-8.2-2.8-9.4-5.6a48 48 0 01-4.2-20.1c1-15.3-3.1-27.6-14-38.7-13.8-14.3-26.2-30-40-44.4-2.2-2.4-8-2.7-12-2.2-7.7.9-15.3 4.3-23 4.3-9.1-.1-13.7-6.5-12.8-14.3.7-6.9 8.1-11.7 16.6-10.5 3.8.6 7.6 1.8 11.2 2.6zM1187 1283.5c-1.7-1.4-4.6-2.4-5-4-2.3-12.4-5.6-24.8-6-37.3q-2.5-102.3-3.6-204.5c-.2-19.3 3.4-38.5 3-57.7-.5-21.8-3.3-43.6-5.7-65.4a403 403 0 012-87.5c2.8-27.6 3.6-55.6 4.2-83.5.6-35.2.5-70.4-.1-105.6-.5-26.2-3-52.4-3.4-78.6-.2-13.6 1.9-27.2 3.9-40.6 3.9-26-.8-51-8.4-75.6-1.5-4.7-2.3-9.6-3.7-15.8 3 1.9 4.7 3.4 6.7 4.1 5.8 2.2 9.9 1.7 11.1-6 3-18.7 3.4-37-3.8-54.9a62.1 62.1 0 01-3.9-16.2c9.2 14.3 19.8 27.3 19 46.4-.6 16-1.4 30.9-8.9 46-6.7 13.6-5.4 29.6-2.5 45 5.1 26.3 2.4 52.5-1.3 79-2.7 19.8-2 40.3-.6 60.4 2.5 36.8 3.6 73.5 2 110.4-2.1 46.8-3.8 93.6-3.7 140.5 0 29.5 4.2 59 5.5 88.5a1725 1725 0 012 90.6c-.5 50.9-2.3 101.7-3 152.6-.4 19.2.5 38.5 1.3 57.8.1 4 2.1 8 3.3 12z" class="cls-1"/>
      <path d="M1160 602.8l5.7-29c-2 40.9 11.9 79.2-4 116.8-1.6 3.7-2.9 7.4-4.5 11-.5 1.1-1.6 1.9-3 3.4l11.2-54.9-1.4-.2c-4 16.9-8 33.9-12.3 50.7-2 7.4-4.9 14.4-7.1 21.7-1.2 3.8-3.2 7.9-2.7 11.5 3.1 22.3-4 43.4-6.4 65-2.2 18.6 1.7 36.2 5.5 54 6 28 10.8 56 2.8 84.7v-10c.7-25.4-1.6-49.8-12.9-73.6-9-19-7-40.7-6.7-61.5.3-19.3.8-38.5 1.4-57.8a14.1 14.1 0 013.6-9.2c9.3 22.5 1.6 44.8.6 67.1l2.7.2c1.5-18.6 3.6-37.3 4.3-56 .3-6.5 1.8-16.1-11.4-14.3-3.5.5-3.3-4.2-.3-8.5 10.7-15.2 20.2-31.3 30.2-47.1l-2.3-1.5-30.4 48.9-3.6-10.9c12.5-4.6 18.4-15.2 21.6-25.3 7.9-24.7 13.2-50.3 19.6-75.6zM1055.9 228.5l14.2 28.2 1.5-.4-3.3-9 2-1c5.4 8.3 11.9 16.2 16.2 25.2 4.4 9.4 5.5 20.5 10.3 29.6 5.7 10.7 14.4 19.7 20.8 30 4.6 7.6 7.5 16.2 11.2 24.3 8.6 19 18.4 37.6 25.6 57 13.8 37.3 24.4 75.2 18 115.7-.8 5-1.1 10.2-3.5 15.5-.3-1.3-1-2.7-.8-4 2.1-25.5-4.6-49.1-14.1-72.5-4.4-11-6.2-23-8.2-34.7-4-24-10.5-47-22.4-68.5-7.5-13.6-12.7-28.4-19.8-42.2-5.1-10-10.9-19.9-17.8-28.6-15.2-19-22.7-41.6-32-63.3z" class="cls-1"/>
      <path d="M1150.5 896.5c1 1.6 2.5 3 2.6 4.7 2.4 27.4 5.2 54.8 6.7 82.2a2403 2403 0 012.9 95.7c.1 12.5-1.6 25-3 37.6-2.8 27.6-6 55.1-9 80.4-.8-3.6-4-10.4-3.6-17 1.4-23 2.5-46.3 6.6-69 4.4-24 5-48 4-72.3-.4-10 0-19.9 0-29.9-.1-4.5-.6-9-.8-13.5l-3.5-.4-29.2 137.3-4-.5c2-21.7-1-45.5 7.3-64.5a235.3 235.3 0 0017.3-94c.1-16.4 4.3-32.8 5.8-49.2.8-9.2 0-18.4 0-27.6zM1135.9 495.5c4.1 8.9 6.7 19 12.7 26.4 11.5 13.9 13.5 29.7 13.2 46.4-.2 11.5-1.2 23-1.8 34.5l.3-.4c-1.5 4.9-3.2 9.7-4.5 14.7-4 15.7-6.8 31.8-12.1 47-3.7 10.5-10.5 19.9-16.4 29.4-3.5 5.8-6.8 5.2-9.7-1.1-3.6-7.8-8-15.3-10.8-24.1a46 46 0 013.8 3.1c8.9 9.3 14.6 9 19.3-3.4 6.6-17.9 11.3-36.5 16.9-54.8a292 292 0 007.7-29.6l-5.2 9.9-6.8-53.5-2.7.2c.8 8.4 1.6 16.9 2.6 25.3 1 9.2 3.6 18.5 3 27.5-.7 8.6-4.7 16.9-7.5 26.2l-5.4-124.6 3.7 1.3zm4.9 26.5c6.5 17.8 13 35.7 18.8 51.2 2.2-18-10.6-33.8-18.8-51.2z" class="cls-1"/>
      <path d="M1155.5 1010.9c0 16.2.3 32.4 0 48.6-.5 15.6-1.6 31.3-2.4 47l-4-.3 3-32.6-1.9-.8c-1.2 1.5-3.2 2.9-3.5 4.6-5.1 26-11 51.8-14.4 78-1.2 9.1 1 21.6 6.8 28.1 7.2 8.1 8.7 17.5 12.6 26.2 1.7 3.7 1.7 8.2.5 12.8l-3-6.1-2.1.3c.8 3.7 1.2 7.6 2.6 11 .3.8 4.1 0 7.3 0v25l-2.9 1.2c-3.6-8-8.3-15.7-10.5-24.1a981.3 981.3 0 01-16.3-68.6 81.3 81.3 0 01.4-29.5c5.4-29.2 12-58.3 18-87.5l7.3-33.5zM1141.6 614.4c0 20.1-6.8 38.3-16.5 55.4-1 2-7.4 3.5-8.6 2.4-5.6-5.4-12-11-15-18-11.6-27.3-22-55.2-32.9-82.9l-3-9 2.5-1.2c5.6 10.7 11.8 21.1 16.6 32.2 7.3 16.3 13 33.4 20.6 49.6 2 4.1 9 8 13.8 8 4.2 0 10-4.6 12.2-8.8 4.5-8.7 7-18.4 10.3-27.7z" class="cls-1"/>
      <path d="M1054.5 526l-3.7-12 1.7-1c3 4.9 6.4 9.6 9.2 14.5 7.7 13.6 16 27 22.5 41 8.6 18.5 15.9 37.6 23.7 56.4a42 42 0 002.2 4.6c6.5 11.5 11.5 11.9 19.5 1.7a6 6 0 013.9-2.4c-1.3 3.5-1.6 7.7-3.9 10.3-3.2 3.7-7.5 7.8-11.8 8.4-3 .4-7.8-4-10-7.4-3.1-5-4.4-11-6.9-16.4q-21.8-47.2-43.8-94.3a21 21 0 00-3-3.8zM1134.4 403l29.6 111c-17-8.6-23.5-23.1-24.7-41.1-1.5-23.3-3.7-46.5-5.6-69.8zM1150.5 896.5c-3.8-23.5-8.2-47-11-70.6-1.5-12.5-.3-25.4-.3-39.6 21.4 36.2 15 73.4 11.3 110.2zM1136.2 495.9l-10.4-87.6c-1.5-12.5-3.2-25-3.5-37.7 4.6 8.1 8 15.3 8.4 26.2 1 33.6 5.7 67 9 100.5l.2-.1-4-1.7zM1139.4 1173.5c-9.7-29.8 1-57.2 8.5-85l-8.5 85z" class="cls-1"/>
      <path d="M1139.7 497.4c5.2 5 10.2 10.1 15.6 14.8 7.1 6.1 11.8 12.8 10.4 23-.8 6.1-.2 12.5-.2 19-.6-.3-1.5-.4-1.5-.6.3-18-11.7-30.4-19.8-44.6-2-3.6-2.9-7.8-4.3-11.8zM1187.2 1283.7v-51.2c9.5 17.3 7 36.3 6.1 55.1l-3.3 2.7-3-6.8zM1049.5 247.4c12.4 21 30.5 38.3 39.2 61.4l-2.1 1.4-40.2-60.6zM1097.6 591.6l9.7 18c8.2 15 11.5 15.8 24.1 6.5l2.3 1.4c-3.2 5.2-6 10.7-9.8 15.5-.7 1-5.8.7-6.5-.5-8-12.9-15.4-26-23-39.2zM1036 228.9l-37-49c16.7 7.3 29.8 24.8 37 49zM1037.7 214.5c16.3 11.7 18.1 31.3 27 47l-2.7 1.6-27.5-48.4c-.2-.3 1.1-1.5 1.7-2.4zM1007.4 442.8c18.3 13.8 28.8 32.6 36.5 53.2zM970.7 146.6l45.3 36-2.2 2.8-46-35.4 2.9-3.4zM1111.1 349.6l-21.2-39.7 3.7-2 20.6 40.2z" class="cls-1"/>
      <path d="M1037.7 214.5l-1.5-2.2-14.2-17.7.4-.3 21.4 19.5-.8 1.6zM1054.2 525.7l9.3 29.7-2 .7-12.8-34.2 5.8 4zM700.4 1240.2c-9.7 3.3-16.8 8.4-16 20.4.2 4.5-1.9 9-2.5 13.6-2 13.4 4.1 18.7 17.4 15.2l7.4-2 8.1 46.9-42.5 2.5c-3.3 16.4.1 24.7 13 34.9-8.3-1.5-17-2.2-24.8-5.2-2.3-.9-2.7-8.3-3-12.8-.5-6.7-.1-13.4-.1-18.8-13.5.6-25.5 2.5-37.3 1.4a42.1 42.1 0 01-35-26.6c-13.9-31.4-15.5-62.8 4.4-92.8 9.2-14 38.7-25.4 55-21.4 5.9 1.4 11.7 2.8 17.4 4.6 21.4 6.6 31.9 17.6 38.5 40zm-56 59.9c16 .8 24.1-10.3 19.2-21.6-4.4-10.1-9.4-19-22.7-20.7-7.5-1-13.8-2.4-18.6 4-4.7 6.4-7 13.3-3.3 21.4 5.7 12.8 16.5 16.2 25.4 16.9zm38.7-8.2c-7.3 8.4-6.8 14.2-2 18.5 1.7 1.4 7-1.1 10.5-1.8l-8.5-16.7z" class="cls-1"/>
      <path d="M709 1271.5c.4 6.8-1.2 11.7-8.5 14-10.3 3.1-15.6-.6-14.4-11.4.8-6.9 1.5-14 3.6-20.5 1-3.2 5-7.4 7.7-7.5s7 3.9 8 7c2.1 5.7 2.5 12.2 3.6 18.4zM703.9 1365.2c-11.7 2.9-15-1.7-17.1-24.1 12.8-2.4 13.4-1.5 17 24zM708.3 1364.9l-6-26.4c3.6 1 7.3.9 8.4 2.5 4.4 6.7 3.5 19.4-2.4 23.9zM688.9 1364.6c-11.8-2.9-12.6-11.3-13.7-19.4-.2-1.5 1.5-3.2 2.3-4.9 1.7 1.1 4.4 1.8 5 3.3 2.3 6.4 4 13 6.4 21zM869.5 1027.2c3-33 7.9-66-.4-99 13.6 21 10 75 .4 99zM1166 768.4l-3.1-9.5c-4.7 21.8-4.6 23.1 2.5 22.7v24.7l-2.5 1.5c-1.9-2.6-5.2-5-5.5-7.8-1-12.4-2.3-25-1.2-37.3 1.1-12 5-23.9 8.9-36l3.2 41.2z" class="cls-1"/>
      <path d="M746 738c-20-1.2-39.8-.8-58.5 8 18.2-11.2 38-11.9 58.5-8zM625.4 773.5l45-15.8c-15.3 6-28.2 19.3-45 15.8zM347.4 335.2c-12.2-3.2-18.6-9-18.1-16.7.3-7.2 13-16.2 23.4-16.6 10-.4 19.3 3.8 22.7 10.8zm1.1-4.8c5.6-6.5 10.2-10.5 12.6-15.5.7-1.6-3.6-7.6-6.7-8.6-4.9-1.8-12.6 6.7-12 12.9.3 2.9 2.9 5.5 6.1 11.2zM296.9 316l-10.4 7.1 7.7-1.2c-1 7.5-1.3 5.3-9.9 6.5-7 1-12.8.2-17-3.7a102.5 102.5 0 01-15.7-20.5c-.9-1.4 2-7.6 3.9-7.9 15-2.3 34.3-.3 41.4 19.8zm-3.6.9c-10.8-16.5-20.3-19.9-38-15.9 1.2 10.2 7 18.2 16 20.6 6 1.5 13.5-2.7 22-4.7z"/>
      <path d="M253.7 282.2c32.5-12.2 61.9 25.5 57 51.6-7.8-32.3-22.6-53.5-57-51.6zM367 286.8c-33.4.2-43.3 21-43.6 50.6-7.9-26.2 12.2-59.3 43.6-50.6zM329.6 377l-9 10.5c-2.6-2.8-7.6-6-7.2-8.4.6-3.5 5-6.4 7.6-9.6zM296.1 369.2c7.3-2 12-.5 13 7.1.8 5.8.1 11-8 11.2 1.6-4.2 4.3-8 3.7-11-.6-2.7-5-4.5-8.7-7.3zM363.4 228.5l-7.3 8.8c-7-6.5-9.9-12.3-.6-19.9zM316.2 222.3l-8 7.4-7.2-9.7 8.8-10.8zM266.2 200.4c7.8 9.3 7.6 11.2-1.9 15.6-6.5-10.5-6.5-10.5 2-15.6zM331.9 231.7c-7.4-8.9-7.3-9.3 2-17l6.3 10.7zM288.6 204.2c4 6.3 7.6 12.2-1.4 17.4-8.6-8.5-8.5-9.4 1.4-17.4zM380 239.3c-8.2-5.2-8.5-10.7-1.1-16.9 9.5 5.2 6.2 10.9 1.2 17zM333.7 1279.6c-3.4 7.6-3.4 7.6 2.5 17l-10.3-7.6v13.8l-6.2-1.8-.2 9.9-8.6.6c.6-4.5 6.3-10.3-3-12.4l1.3-6.3 10.6-19.2 9.2 9.5z"/>
      <path d="M333.7 1279.6l-4.6 3.5-9.4-9.5 4.2-10.6c3.4-4.3 6.4-3.2 9.4.6 4.1 5.2 6.6 10.5.4 16zM309.2 1292.8l-1.3 6.3-8.3 11.1-2.3-4c.9-7.3 2.7-13.6 11.9-13.4z" class="cls-1"/>
      <path d="M297.3 1306.1l2.2 4.1-.1 1.9-7.7 9.6-6.4 1.5zM291.7 1321.7l7.7-9.6 6 6.1.4 2-.4.6c-2.6 2.7-5 5.5-8 8-1.6 1.4-3.9 2.1-5.9 3.1l.2-10.2z" class="cls-1"/>
      <path d="M305.4 1318.2l-6-6.1.2-1.9 8.4-11.1c9.3 2 3.5 7.9 3 12.4z" class="cls-1"/>
      <path d="M1140.8 522c8.2 17.4 21 33.3 18.8 51.3l-18.8-51.3zM644.4 1300c-9-.6-19.7-4-25.4-16.8-3.6-8-1.4-15 3.3-21.3 4.8-6.5 11-5.1 18.6-4.1 13.3 1.8 18.3 10.6 22.7 20.7 4.9 11.3-3.3 22.4-19.2 21.6zm4-2.4c9.2-.9 14.7-7.8 11.8-16.1-1.6-4.4-3.1-10.2-6.5-12a66.5 66.5 0 00-23.3-7.8c-2.5-.3-8.7 7.1-8.3 10.3.9 6.6 3.8 14 8.4 18.5 4.2 4.2 11.8 4.9 17.9 7.1zM683.1 1291.9l8.5 16.7c-3.6.7-8.8 3.2-10.5 1.8-4.8-4.3-5.3-10.1 2-18.5z"/>
      <path d="M348.5 330.4c-3.2-5.7-5.8-8.3-6.1-11.2-.6-6.2 7.1-14.7 12-13 3 1.1 7.4 7 6.7 8.7-2.4 5-7 9-12.6 15.5zM293.3 316.9c-8.5 2-16 6.2-22 4.6-9-2.4-14.8-10.3-16-20.5 17.7-4 27.2-.6 38 15.9zM648.4 1297.6c-6.1-2.2-13.7-3-18-7-4.5-4.5-7.4-12-8.3-18.5-.4-3.2 5.8-10.6 8.3-10.3a66.5 66.5 0 0123.3 7.7c3.4 1.8 5 7.7 6.5 12 3 8.3-2.6 15.2-11.8 16.1z" class="cls-1"/>
    </g>
  </g>
</svg>
