<svg xmlns="http://www.w3.org/2000/svg" viewBox="0 0 1200 1074.4">
  <defs/>
  <defs>
    <style>
      .cls-1{fill:#fff}
    </style>
  </defs>
  <g id="Layer_2" data-name="Layer 2">
    <g id="Layer_1-2" data-name="Layer 1">
      <path d="M1200 1074.4H0V0h1200zM993.5 518.6a845.6 845.6 0 0199.7-13l-1 8h1.2c3.3-7.3 0-14.4-1.8-21.7a42.6 42.6 0 015.8 9.3c1.5 3.3 2.6 6.8 3.8 10.2l1-.3-.8-7 .8-.2 4.2 5v-4.3l18.5-1a9.2 9.2 0 002.6-1.2l-.2-1.2-22.5 1c-3.9-3-.7-6.2-2-9.3l-3.6 7c-6.5-11-8.4-12.8-13.3-12.6 1.3 2.5 2.7 4.9 3.8 7.4s2.6 5.2 2.3 8.3c-11.8 1.2-23.3 2.2-34.7 3.5-11.6 1.4-23.1 3-34.7 4.7-11.2 1.7-22.4 3.7-34.2 5.7l4.2-14.9c-2.8-.6-4 1.1-4.7 2.8a33.7 33.7 0 00-2.9 8.4c-.5 4-2.3 5.9-6.3 6a5.3 5.3 0 00-1.5.4 5.3 5.3 0 01-6.4-2c-1.2-1.4-2.5-3.1-5.3-3.8l3.6 7.3c-11.3 3-22 5.7-32.4 8.7a12.6 12.6 0 01-9.5-.5 112.9 112.9 0 00-34-9.8 72.8 72.8 0 00-52.2 12.4 94.7 94.7 0 00-28.9 34l-2.6 4.8a238.2 238.2 0 01-4.4-23.5c-2.5-15.8-5.2-31.6-7.2-47.5a69.2 69.2 0 015.6-38.3 33 33 0 019.6-12.8l6.5 2.6c11 4.3 22.2 8.3 34.1 9.5 7.4.7 15 .6 22.5.6 8.3 0 15.4 2.6 22.3 7.3 36.2 24.8 75.6 33 118.4 22a173.3 173.3 0 0067.5-36.5 44 44 0 017.3-5 220.9 220.9 0 0034.4-22.7 126.3 126.3 0 0032.3-36.7 63.9 63.9 0 008-45.3c-5.7-26.8-20.8-45.6-47.8-53.6a93.3 93.3 0 00-27.8-4c-15.2.1-30.3.6-45.5 1.4a73 73 0 01-33-5.4A574.8 574.8 0 00898 246.3c-19.4-3.8-39-6-58.7-4.4a8.7 8.7 0 01-4.8-1.5c-4-2.5-7.8-5.3-11.8-7.7a347.3 347.3 0 00-90.6-37 507.1 507.1 0 00-141.4-15.9c-17.9.4-35.8 2.1-53.8.1-1.8-.2-4-.2-5.4-1.2a38.1 38.1 0 00-15.1-5.5c-1.3-.2-3-.8-3.5-1.8-3.2-5.5-6.1-11.1-9.6-17.4h96.3l.3-1.4c-13.4-12.9-28.3-22.5-48.4-20.7a42.1 42.1 0 00-24.7-16.4 61.2 61.2 0 00-24.4-1c-6.8 1.1-13.5 2.8-20.4 4.2-2.6-3-5.1-6-7.9-9-7.1-7.5-15-14-24.7-18-8-3.4-16.1-4.2-24.4-1a41.7 41.7 0 00-16 12.2 14.8 14.8 0 01-5.2 4c-8 3.3-16.3 6.2-24.4 9.5-2 .8-3.5.8-5.2-.6a46.2 46.2 0 00-38.3-7.5 112 112 0 00-38.9 16 10.1 10.1 0 01-9.7 1 82.4 82.4 0 00-32.8-5c-14.1 1-25 6.8-30.6 20.6a10.6 10.6 0 01-1 1.6l-1.8.1a56.1 56.1 0 00-38.7 11.4c-1.9 1.5-3.8 1.4-6 1.3-18-1-36.2-1.1-54.2 1.6A96.6 96.6 0 0089 167.3c-7.1 4-13.2 9.2-17.1 16.5s-6.4 15.2-4.3 23.6a526.8 526.8 0 0116.2 104.7c.8 14.9 5 28.3 16.7 38.7 5.7 5 9.9 11.3 13.3 18 2.4 4.8 4.6 9.8 6.7 14.7 3 7 7.8 12.5 14.7 15.6a69.8 69.8 0 0015.5 4.6c13.7 2.5 27.4.8 41-1.5 26-4.5 51-12.6 75.6-22.3a7.4 7.4 0 017.6.8c32.2 21 67.1 35.4 104.4 44.3l19.5 4.5a14.5 14.5 0 01.7 1.8 426.1 426.1 0 016 51.4 55 55 0 01-5.7 30.9c-3.5 6.2-6.9 12.5-10.5 18.7a11 11 0 01-3.2 3.2c-6.3 4.3-12.8 8.5-19 13a55.5 55.5 0 00-8.4 7c-4.8 5.3-4.2 11.3 1.7 15.3a46.9 46.9 0 009.8 4.6c2.8 1 5.7 1.6 8.8 2.4l-15.4 33.8h-.7l-5-1.8c-22.5-9-45.8-15.4-70.1-17.2a98 98 0 00-47.7 6.9 55 55 0 00-35 54.4 76 76 0 0014.5 40.3l2.8 4L165 713a28.6 28.6 0 013.2-12.5c2-4 4.3-7.6 6.4-11.5a60.8 60.8 0 00-17.6 24.8c-5.8-10.1-6-10.2-10.2-9.5 1.5 3.7 3.2 7.5 4.6 11.3.6 1.7-.4 2.6-2.5 2.4l-1.9-7.1c-1.2 3-2.2 5-2.9 7.1a5.2 5.2 0 01-3.4 3.5l-25 9.2a3 3 0 01-1.3 0l.4-3.7-1-.2-3.6 6.6c-3.5-5.7-6-11.7-13.5-13.4 2.3 5.6 6 10 6.4 16-30 13-58.5 28-84.8 47.7L20 786c13.6-8.5 26.9-17.1 40.5-25a366 366 0 0143.9-21.5l-1 9c2.7-2.8 2.7-5.4 2.6-8a40.8 40.8 0 00-1.2-7c-.6-2.4-1.5-4.6-2.2-7l1-.3c1.3 2 2.7 4 3.8 6.1s1.8 4.6 2.9 6.7c1 2 .4 4.7 3.4 6.4l-1.2-8c2.7.9 2.4 4.3 5.6 4.4l-3-6c.4-.6.6-1 .9-1 8-3.1 15.9-6.3 23.9-9 1.2-.5 3 .3 4.4.5l1.6-7.3c2.8 3.2 4.2 6.7 8 9.3.8-6.8-.5-12.8-2-18.7l1-.2 3.6 13c2.2-6 3.3-12 7.9-17.7-.7 4.2-1.3 7.4-1.7 10.7s-1.2 6.7 1.6 10.9v-8.7c3.9-1.1 7.5-2.4 11.1-3.3l46.6-11.7c2-.5 3.6-.7 5.4.8 4.7 4 9.5 7.6 14.4 11.3a135.8 135.8 0 0130 30.3c3.7 5.3 6.7 11 8 17.5 1.5 7-.2 13.4-6 17.8a45.6 45.6 0 01-12.3 6.6c-5.3 2-11 2.8-16.6 4.2-6.2 1.7-12.5 3.3-18.5 5.5-4.2 1.6-8.8 3.7-9.1 9s4 7.8 8 10a41.3 41.3 0 009.4 4.4A297 297 0 00261 826c12.6 2.1 25.3 3 38 .5 4.1-.8 8.1-2.2 12.5-3.4l-10 50a24.3 24.3 0 01-2 4.8c-2.7 6-5.8 12-7.9 18.1A31.4 31.4 0 00290 909a62.1 62.1 0 0014 33.2 104.1 104.1 0 0022.5 20.2l5.1 3.5c.2 6-.5 11.4-2.9 16.6-.7 1.7-.5 3 1.6 3.3 2.7-3.8 4.1-6.4 4.2-11.7.2-8.5 0-17-.4-25.5-.3-5.3-1.5-10.5-2.2-15.7l.9-.5c1.3 2 3 3.8 3.8 6a59.7 59.7 0 013.3 11c2.2 12.2 2.4 24.5 1.5 37L340 1003a14 14 0 001.8-2.2 217.6 217.6 0 0017-54.6c.8-4.7 1-9.4 2-14 1.4-6 5-10.4 11.7-13.4a98.3 98.3 0 00-7.8 42.5 286 286 0 002.6 44.5c1.6-1.6 2.7-2.2 2.8-3a27.6 27.6 0 00-.4-5.1c-.4-4.4-1-8.8-.3-13.7l24 8a33.4 33.4 0 01-.6 4l-5.1 15.9c-.9 2.3-.3 3.2 2.5 3 7.4-19 11.8-38.5 7.3-59.7a12.6 12.6 0 012 1.7c7.7 12.1 14 25 16.8 39.1 1 5.3 1.3 10.7 1.8 16.1.2 1.8.4 3.2 3 2.3l2.4-35.6h1.2v6c0 4.4-.2 8.8.1 13.1.3 3.7.6 7.6 3.8 10.7 5-5.2 8.2-11 11.3-17.2.4.5.8.7.8 1a67.4 67.4 0 013.2 32.4c-.4 2 0 3 2.8 3 3.7-8 7.9-16 11.3-24.3s6-17 9-26a133.7 133.7 0 016 25.6c1.4 10 1.3 19.8-4.6 28.6a10.1 10.1 0 001.2 1.4c.2.2.6.2 1.2.4 6.3-6.7 6-15.4 6.6-24.3 24.4 2.8 48.4 6 72.6 5.8l72.7-.4v2.8c-.4 5-.9 10-1 15.1 0 1 1 1.8 1.5 2.8.6-.9 1.6-1.6 1.9-2.6a25.8 25.8 0 00.3-4.7c1-15.5 2.6-30.9 6.3-46a32.9 32.9 0 011.7-3.9c1.2 21.9 7.4 41.3 15.4 60.4a70.7 70.7 0 004.6-12.6 91.6 91.6 0 002.3-12.9c.4-4.3.2-8.6.3-13a15.2 15.2 0 013 5.9 116.4 116.4 0 014.4 36.2v6.2c0 2 1.2 2 3 1.8 1.4-12.8-.1-25.3-1.9-38.1l21-1.6c-1.3 7.4-2.8 14-.3 20.6 2.3-.3 2.8-1 2.6-2.9-.3-3.7-.6-7.6 0-11.4 1.7-10.2 5.9-19.6 10.3-29a10.8 10.8 0 011.5-1.8 167.9 167.9 0 0013.9 47.5 22.3 22.3 0 003-6.7 83 83 0 001.8-24 464.8 464.8 0 00-8.7-64.6l-2.3-12.5c4 2.7 5.1 3.8 7.5 8.5 4 8 6.3 16.6 8.1 25.3a394 394 0 017.5 59.6 10.2 10.2 0 00.3 3 2.4 2.4 0 001.7 1.5c.6 0 1.4-1 1.7-1.6a10.3 10.3 0 00.2-2.6c.5-4.3.8-8.7 1.7-13a133.8 133.8 0 0128.8-57.9 16.1 16.1 0 012.4-1.7 196.6 196.6 0 00-5.3 57.2c4.6.5 2-3.4 4-5l31.6-8.6c-1 8-4.2 14.7-6.3 22l2.7 1.2c5.6-12.5 8.5-25.3 10-38.7a5.6 5.6 0 011.6 2.1c2.7 6.5 4.9 13 5.2 20.2 0 1.7 0 3.7 3.1 2.6l.2-4c0-11.5-.4-23 0-34.5.5-9.9 2-19.7 3-29.5a7.2 7.2 0 013.3-5.7c0 7.7-.3 14.3 0 20.8a1095 1095 0 003.2 38 20 20 0 003.6 10.8c2-.7 2.3-1.7 1.8-3.6-1.1-4.2-1.8-8.5-2.7-12.8a4 4 0 011.5-4.5 93.8 93.8 0 0030.5-48.9c5.2-18.7 5-37.5 1.1-56.4-2.6-12.7-6.4-25-13.3-36a50.8 50.8 0 01-7.1-17.3l-4-21.6c-.4-2.3-.4-4.7-.7-7.8l76.5 6 3.2 5.2c1.1-4-.9-6.9-2.3-9.9-1.5-3.2-3.3-6.2-5-9.3l.6-.5 12.3 7.7c.6-8.8-1-17.2 1.6-25.3.7 8.7.8 17.6 5.2 26.1 4-8 4.9-16.1 7.1-24a64.7 64.7 0 01.3 20.4c-.8 4.8-2 9.5-2.9 14.3 0 .3.6.7 1.1 1.4l2.5-3.8 61.9 6.9c-.3 4.8-.7 9-.8 13.1v15.7c0 1 .8 1.9 1.2 2.8l1-.2c-.2-18.2 0-36.4 6.8-53.6.3 7 .4 14 1 20.8a70.4 70.4 0 005.2 20.9 204.4 204.4 0 008.5-30.7c2-10 3.3-20.2 5-30.6 3 12 4.4 24 5.4 36.2.5 6.2.7 12.5 1.2 18.8 0 1.1-.4 3 2.2 2.6v-11.4l70.5 9.3c-2.3 6.4-4.5 12-6.3 17.8a56.7 56.7 0 00-2.6 20.7c0 1.4-.3 3.2 2.5 3.7a66.2 66.2 0 015.3-31.8 102.7 102.7 0 0013.7 34.7c6.4-25.6 3.8-49.2-4.4-72.6a17 17 0 013.5 5.1c1.6 4 3.4 8.1 4.2 12.4 2.4 12.3 4.4 24.6 6.5 37 .3 1.9 0 4 2.5 6.5a42.5 42.5 0 017.6-19.2 85.6 85.6 0 0113.3-15c-.1 6.3-.7 12-.2 17.7 1 9.4 2.7 13.5 6 15.9-2.1-8.7-5-16.8-3.8-25.7l7.2.8 20.2 3c2.2.4 3.4 0 2.7-2.9l-14.8-2.4c-5-.8-10-1-14.7-2.5.9-6.1 4.6-10 7.8-14.5a5 5 0 00-3.1 1l-11.4 10c-1 .9-2.3 2.3-3.3 2.2-6-.7-12-1.7-17.6-2.5-1.8-6.4-3.1-12.2-5-17.7a55 55 0 00-5.5-10.7 6.1 6.1 0 00-7.3-2.8 101 101 0 018.8 30l-82.7-11-.8-6.5c-.8-7.2-1.2-14.6-2.6-21.7a239.4 239.4 0 00-6.2-24.8c-.8-2.8-3-5.4-5.1-7.7-1.3-1.5-3.5-2.3-5.4.2 5.2 2.2 6.9 6.6 7.7 11.7 1.5 9.5-.1 18.8-1.7 28-1 6.1-2.6 12.1-4 18.4l-7-.8c-.2-4-.7-7.7-.6-11.3.2-3.8 1-7.6 1.3-11.4.3-3.5 3-6.5 2-11.3-4.7 4.9-7 10-8.9 15.4-1.8 5.5-3.2 11.3-4.8 17.3l-61.2-6.7a10.3 10.3 0 01-.2-2l.6-4A88.5 88.5 0 00932 744a17.4 17.4 0 00-1.8-3.1l-1 .4c.4 3.2 1 6.4 1.2 9.7a70 70 0 010 9.3 81.5 81.5 0 01-1.3 9.9c-.5 3-1.4 6-2.2 9-3.8-9.4-2.9-19-3.1-28.7-4.1 1.1-4.7 4-5 6.7-.7 6.5-1 13.1-1.4 19.7l-.3 4.4a83.3 83.3 0 00-7.7-4.4 30.3 30.3 0 00-8.3-2.8c-4-.5-5.3 1.2-6 6a9.6 9.6 0 001.4-.7c3.6-2.6 4.8-2.7 7.4.5 2.1 2.6 3.7 5.7 6 9.3l-76.1-5.8-1-7c-.4-5.2-.5-10.5-1.4-15.7a17.8 17.8 0 012.4-11.9c8.5-15.6 16-31.7 20.5-49a73.7 73.7 0 00-1-42.7l-1.6-5.5a29.7 29.7 0 012.4-23.8 107.1 107.1 0 0122.2-28.2c9.2-8.4 15.5-7.9 23.4 1.7 4.3 5.3 8.2 10.8 12.2 16.4a250.3 250.3 0 0045.3 46.1 61.9 61.9 0 0043.7 14.3 145 145 0 0023.8-3 286 286 0 0069.6-26.4 104 104 0 0012.3-8 24.4 24.4 0 005.5-5.5c3.5-4.8 2.4-9.5-3-12a37.4 37.4 0 00-11.1-2.7 118.7 118.7 0 00-31.8 1.6c-12.5 2-25 4.4-37.9 4.3a48 48 0 01-39.5-18.8 148.3 148.3 0 01-11.3-16.4c-11.6-20-25-38.6-41-55.2a23.7 23.7 0 01-2.2-3c12-3.4 23.3-6.9 35.5-9v5.8c0 1.7-.7 3.4-.8 5.2 0 1.4-1.7 3 0 4.8 2.4-5.3 3-9.2 2.8-18.9 2.5 3.7 4.7 6.4 6.3 9.3a88.5 88.5 0 013.9 9.3h.7l3.1-21.2c-.3 9.5-.8 18.8 3 28.2l6.2-16.1h1l1.7 14.4 1.2-.2c1-8.9-1.8-17-5.3-26zM919.5 74l-31.1-5.5c-5.5-1-11.1-1.2-16.4-2.8a42.6 42.6 0 00-20.1-1.2 77.8 77.8 0 00-28.1 12.3 183 183 0 00-35.4 30.7 14.3 14.3 0 01-7.9 4.6 188.7 188.7 0 00-36.9 11.3 60.8 60.8 0 00-13 7.7c-6.4 5.1-6.4 11.6-.1 16.8 7 5.7 14.6 9.6 24.2 9.5l166.3-.1c4 0 6.5 1.1 8.9 4.6a91.6 91.6 0 0067 41.7c39 4.5 70.3-10 93-42.2 2-3 4-4.1 7.5-4.1 16 .2 32 0 48.1 0l5.7-.2a12.4 12.4 0 00.3-2.5c-.6-5.7-4.5-8.5-9.4-10a60.2 60.2 0 00-21.8-1.8l-6.6.3c3.7-10.6.3-18.1-8.1-23.1 4.4-58.7-33.7-93.9-68.4-103.8A96.3 96.3 0 00919.6 74zm-54.8 913.9c5.8 2 9.2 6.3 12 11.1 4.7 8.3 7 17.5 8.4 26.8.7 4.3 1 8.6 1.6 13 .2 1.9 1 3 3.3 1.8 2.2-28 15.2-51.5 31.3-73.7a200 200 0 00-11.5 40.9 151.5 151.5 0 00-.8 43c3.4.3 3.3-1.5 3-3.4-1.2-10-1-20.1 0-30.2a144 144 0 0130.8-77l2.6-3.2c1.5-2 .4-2.8-1.7-3.5-24.3 26.3-45 54.8-54.9 90.6-1.7-6.2-3-11.7-4.9-17.2-2.2-6.6-5.4-12.9-10.5-17.8s-11.5-7.3-19.8-6.3c9.3 6.9 13.4 16 16.5 25.7 4.2 13 5.8 26.5 5.8 40.1 0 .4-.4.8-1 2-2.5-3.7-5-6.8-7-10.3a65.3 65.3 0 01-5-10.8 64.6 64.6 0 01-2.8-11.7c-.5-3.7-.4-7.6-.6-11.4a107.1 107.1 0 00-13 32.1 68 68 0 00-1.1 10.9 9 9 0 002.6 7c2-2 1.8-1.9 1.6-3.7-.3-3-1-6.3-.3-9.2 1.4-6.6 3.5-13 5.4-19.6a17 17 0 011.4-2.8c2.9 7 5.3 14 8.7 20.6 4.5 8.8 10 14.5 15 16.4-.4-24.6-1.7-48.6-15-70.2zM349.5 487.7c-7.6-14.9-20.6-21.2-37.4-20.4a25.3 25.3 0 01-1.4-2.5 22.9 22.9 0 00-19.6-14.3 51 51 0 00-24.1 3.4c-3.4 1.2-5.8.7-8.6-1.1a77.6 77.6 0 00-27.2-11.8 30.7 30.7 0 00-34 14.6c-2.8 4.5-4.5 9.8-6.7 14.7l-1.3 3.8a56 56 0 00-4.8-3.6c-6.4-3.9-12.6-8.3-19.4-11.3a37.8 37.8 0 00-45.2 9.5 61.8 61.8 0 00-12 18.3 6 6 0 01-5 3.8c-12.4 2.7-18.2 12.2-15 25.2h266.9a32 32 0 004.7-.1c1-.1 2.2-.6 2.6-1.3 1.8-4 4.1-7.8 5-11.9 1.2-5.4-1.4-9.5-6.5-11.7-3.3-1.5-7-2.1-11-3.3zm720.5 37.4c-3.8 15.3-4.3 37.3-.8 43.5 0-3.8-.2-7.5-.4-11.3a85 85 0 011.6-26.4c1-4.2 2.7-8 7.9-8.6.2 0 .4-.7.7-1.1-9-.7-15 4-16.5 12.3-1.1 6.4-2.5 12.6-3.9 19a11.5 11.5 0 01-1.4 2.6c-.6-2.1-.4-4-.7-6a121.3 121.3 0 00-2.3-13.8c-.8-3.2-2.6-6.1-7-6.7 1.7 10.2 3.8 20.3 1.2 30.4 5.2-8.5 2-17.5 2-26.4 6.4 10.7 3.8 22.5 4 34.5a13 13 0 001.3-1.6c4-9.8 7.6-19.8 8.5-30.5.2-4 1.4-7.5 5.8-10zM180.5 767.7l1 .3c3.4-6.1 4.3-13 5.6-19.9h1.2l3.7 12.7c.7-3 .6-5.7.8-8.5l1.8-28c0-.9.8-1.6 1.8-3.4.2 7.3.1 13.4.8 19.4s0 12.4 3.8 17.8c-3.2-13.2-1.8-26.8-3.4-41.2-1.6 1.4-2.9 2-3.4 3a13.2 13.2 0 00-1.6 5l-1.5 18.6-.7 4.2c-2.7-3.2-3-7.2-7.6-9.5a21.9 21.9 0 011.5 15.2l-3.8 14.3z" class="cls-1"/>
      <path d="M993.5 518.6c3.5 9 6.3 17.1 5.4 26l-1.2.2-1.8-14.4h-1l-6.1 16c-3.9-9.3-3.4-18.7-3-28.1l-3.1 21-.8.2a88.5 88.5 0 00-3.8-9.3c-1.6-3-3.8-5.6-6.4-9.3.2 9.6-.4 13.6-2.7 18.9-1.7-1.8 0-3.4 0-4.9 0-1.7.6-3.4.8-5.1s0-3.4 0-5.8c-12.2 2-23.6 5.6-35.5 9a23.7 23.7 0 002 3 281.4 281.4 0 0141.2 55.2 148.3 148.3 0 0011.2 16.3 48 48 0 0039.6 18.9c12.8 0 25.3-2.2 37.9-4.4a118.7 118.7 0 0131.7-1.5 37.4 37.4 0 0111 2.7c5.6 2.4 6.6 7.1 3.1 12a24.4 24.4 0 01-5.5 5.5 104 104 0 01-12.3 8 286 286 0 01-69.6 26.4 145 145 0 01-23.8 3 61.9 61.9 0 01-43.7-14.3 250.3 250.3 0 01-45.3-46.2c-4-5.5-7.8-11-12.2-16.3-7.8-9.6-14.1-10-23.4-1.8a107.1 107.1 0 00-22.1 28.3 29.7 29.7 0 00-2.5 23.8l1.7 5.5a73.7 73.7 0 011 42.7c-4.5 17.3-12 33.4-20.6 49a17.8 17.8 0 00-2.3 12c.8 5 1 10.3 1.4 15.5.2 2.3.6 4.5 1 7l76.1 6c-2.3-3.8-4-6.8-6-9.4-2.7-3.2-3.9-3.1-7.4-.5a9.6 9.6 0 01-1.4.7c.6-4.8 2-6.5 6-6a30.3 30.3 0 018.3 2.7 83.3 83.3 0 017.6 4.5l.3-4.4c.5-6.6.7-13.2 1.4-19.8.3-2.6 1-5.5 5-6.6.3 9.8-.6 19.3 3.1 28.7.8-3 1.7-6 2.3-9a81.5 81.5 0 001.3-9.9 70 70 0 000-9.4c-.3-3.2-.8-6.4-1.3-9.6l1-.4a17.4 17.4 0 011.9 3 88.5 88.5 0 013.8 41.8l-.6 4.2a10.3 10.3 0 00.2 1.9l61.2 6.7c1.7-6 3-11.8 4.9-17.3a37 37 0 018.9-15.4c.8 4.8-1.8 7.8-2 11.3-.4 3.8-1.2 7.6-1.3 11.4-.2 3.6.3 7.3.5 11.3l7 .8c1.4-6.3 3-12.3 4-18.4a85.6 85.6 0 001.7-28c-.8-5.1-2.5-9.5-7.7-11.8 2-2.4 4-1.6 5.4-.1 2 2.3 4.3 4.9 5.1 7.7a239.4 239.4 0 016.2 24.7c1.4 7.2 1.8 14.6 2.6 21.8l.8 6.4 82.7 11c-1-10.6-4.6-20-8.8-30a6.1 6.1 0 017.3 2.9 55 55 0 015.4 10.6c2 5.6 3.3 11.4 5.2 17.8 5.6.8 11.5 1.8 17.5 2.4 1 .2 2.4-1.2 3.4-2.1 3.8-3.3 7.5-6.8 11.3-10a5 5 0 013.2-1c-3.3 4.4-7 8.4-7.8 14.5 4.7 1.4 9.7 1.7 14.6 2.4s10 1.7 14.9 2.5c.7 2.9-.6 3.3-2.8 3q-10-1.6-20.1-3l-7.2-1c-1.4 9 1.6 17 3.7 25.8-3.3-2.4-5-6.5-6-15.9-.5-5.6.1-11.4.2-17.7A85.6 85.6 0 001136 830a42.5 42.5 0 00-7.7 19.2c-2.5-2.5-2.2-4.6-2.5-6.5-2.1-12.4-4.1-24.8-6.5-37-.8-4.3-2.6-8.3-4.2-12.4a17 17 0 00-3.5-5.1c8.2 23.4 10.8 47 4.4 72.6a102.7 102.7 0 01-13.7-34.7 66.2 66.2 0 00-5.3 31.8c-2.8-.5-2.5-2.3-2.5-3.7a56.7 56.7 0 012.6-20.7c1.8-5.8 4-11.4 6.3-17.8l-70.4-9.3v11.4c-2.6.4-2.1-1.5-2.2-2.7-.5-6.2-.7-12.5-1.2-18.7-1-12.2-2.4-24.2-5.5-36.2-1.6 10.3-3 20.5-4.9 30.6a204.4 204.4 0 01-8.6 30.6 70.4 70.4 0 01-5.1-20.8c-.6-6.9-.7-13.8-1-20.8-6.9 17.2-7 35.4-6.8 53.6l-1 .2c-.5-1-1.2-1.9-1.2-2.8V815c0-4.1.4-8.3.7-13.1l-61.8-6.8-2.5 3.8c-.5-.7-1.1-1-1-1.4.9-4.8 2-9.5 2.8-14.3a64.7 64.7 0 00-.3-20.4c-2.2 7.8-3.2 16-7.1 24-4.4-8.5-4.5-17.4-5.2-26.1-2.6 8.1-1 16.5-1.6 25.3l-12.3-7.8-.6.6c1.7 3 3.5 6 5 9.2 1.4 3 3.4 6 2.2 10l-3.1-5.2-76.5-6c.3 3 .3 5.4.7 7.7 1.2 7.2 2.5 14.4 4 21.6a50.8 50.8 0 007.1 17.2c7 11 10.7 23.4 13.3 36.1 4 18.9 4.2 37.8-1.1 56.4a93.7 93.7 0 01-30.4 49 4 4 0 00-1.6 4.4c1 4.3 1.6 8.6 2.7 12.8.5 2 .2 2.9-1.8 3.6-2.5-3.2-3.2-7-3.6-10.7a1099 1099 0 01-3.1-38c-.4-6.6 0-13.2 0-20.9a7.2 7.2 0 00-3.3 5.7c-1.1 9.8-2.6 19.7-3 29.6-.6 11.4-.1 23 0 34.5l-.3 4c-3 1-3-1-3.1-2.7-.3-7.1-2.5-13.7-5.2-20.2a5.6 5.6 0 00-1.5-2.1 125.3 125.3 0 01-10 38.7l-2.8-1.3c2.2-7.2 5.4-14 6.3-21.8L766 999c-1.9 1.6.6 5.4-4 4.9a196.6 196.6 0 015.4-57.2 16.1 16.1 0 00-2.5 1.8 133.8 133.8 0 00-28.8 57.9c-.8 4.2-1.1 8.6-1.7 13a10.3 10.3 0 01-.2 2.5c-.3.7-1 1.6-1.6 1.6a2.4 2.4 0 01-1.8-1.4 10.2 10.2 0 01-.3-3.1 394 394 0 00-7.4-59.6 102 102 0 00-8.2-25.3 16.7 16.7 0 00-7.5-8.5l2.3 12.5c4.2 21.4 7.6 42.8 8.7 64.7.4 8 .2 16-1.7 23.9a22.3 22.3 0 01-3 6.7 167.9 167.9 0 01-14-47.5 10.8 10.8 0 00-1.5 1.8c-4.4 9.4-8.6 18.8-10.3 29-.6 3.8-.2 7.7 0 11.4.2 1.9-.3 2.6-2.6 2.8-2.5-6.5-1-13.1.3-20.5l-21 1.6c1.8 12.7 3.3 25.3 2 38.1-1.9.3-3 .2-3.1-1.8s0-4.1 0-6.2a116.4 116.4 0 00-4.4-36.2 15.2 15.2 0 00-3-5.8c0 4.3.1 8.6-.3 13a91.6 91.6 0 01-2.3 12.8 70.7 70.7 0 01-4.6 12.6c-8-19.1-14.2-38.5-15.4-60.4a32.9 32.9 0 00-1.7 4 263.6 263.6 0 00-6.2 46 25.8 25.8 0 01-.4 4.6c-.3 1-1.2 1.7-1.9 2.6-.5-1-1.6-1.9-1.5-2.8.2-5 .6-10 1-15.1v-2.8l-72.7.4c-24.2.1-48.2-3-72.6-5.8-.6 8.9-.3 17.6-6.6 24.3-.6-.2-1-.2-1.2-.4a10.1 10.1 0 01-1.1-1.4c5.8-8.8 5.9-18.5 4.5-28.6a133.7 133.7 0 00-6-25.5c-3 9-5.7 17.6-9 25.9s-7.5 16.4-11.3 24.4c-2.7-.2-3.2-1.1-2.8-3.1a67.4 67.4 0 00-3.2-32.4c0-.3-.4-.6-.8-1-3.1 6.1-6.4 12-11.3 17.2-3.2-3.1-3.5-7-3.8-10.7-.3-4.3 0-8.7-.1-13v-6l-1.2-.1-2.5 35.6c-2.5 1-2.7-.5-2.9-2.3-.5-5.4-.8-10.8-1.8-16-2.8-14.3-9.1-27-16.9-39.2a12.6 12.6 0 00-1.9-1.7c4.5 21.2.1 40.6-7.3 59.7-2.8.2-3.4-.7-2.5-3 1.8-5.3 3.4-10.6 5-16a33.4 33.4 0 00.8-4l-24-8c-.9 5-.2 9.4.2 13.8a27.6 27.6 0 01.4 5.2c0 .7-1.2 1.3-2.8 2.9a286 286 0 01-2.6-44.5 98.4 98.4 0 017.8-42.5c-6.6 3-10.3 7.3-11.7 13.4-1 4.5-1.2 9.3-2 14-2.8 19-9.3 37-17 54.6a14 14 0 01-1.8 2.2l1.4-16.9c1-12.4.8-24.7-1.5-37a59.7 59.7 0 00-3.3-11c-.8-2.1-2.5-4-3.8-5.9l-1 .5c.8 5.2 2 10.4 2.3 15.7.5 8.5.6 17 .4 25.5 0 5.3-1.5 8-4.2 11.7-2-.4-2.3-1.6-1.6-3.3a37 37 0 003-16.6l-5.2-3.5A104.1 104.1 0 01304 942a62.1 62.1 0 01-14-33.2 31.4 31.4 0 011.6-12.8c2.1-6.2 5.3-12.1 8-18.1a24.3 24.3 0 002-4.8l10-50c-4.4 1.1-8.4 2.6-12.6 3.4a106.7 106.7 0 01-38-.5 297 297 0 01-26.4-6.2 41.3 41.3 0 01-9.5-4.3c-3.9-2.2-8.2-4.6-7.9-10s4.9-7.5 9-9c6-2.2 12.4-3.8 18.6-5.5 5.5-1.5 11.3-2.3 16.7-4.2a45.6 45.6 0 0012.3-6.8c5.7-4.4 7.4-10.7 6-17.8a48.2 48.2 0 00-8-17.4 135.8 135.8 0 00-30-30.4c-5-3.7-9.8-7.4-14.5-11.3-1.8-1.5-3.4-1.2-5.3-.8L175.5 714c-3.7 1-7.3 2.2-11.2 3.4v8.6c-2.8-4.2-1.8-7.6-1.5-10.9s1-6.5 1.6-10.7c-4.5 5.7-5.7 11.7-7.9 17.7l-3.5-13-1 .2c1.4 6 2.7 11.9 2 18.8-3.9-2.6-5.3-6.2-8-9.4l-1.7 7.3c-1.4-.2-3.1-1-4.4-.5-8 2.8-16 6-24 9-.2 0-.3.5-.7 1l3 6c-3.2 0-3-3.5-5.7-4.3l1.2 8c-3-1.8-2.4-4.6-3.4-6.4-1-2.2-1.7-4.6-2.8-6.7s-2.5-4.1-3.8-6.2l-1 .4c.7 2.3 1.6 4.5 2.1 6.8a40.8 40.8 0 011.2 7.2c.1 2.5.2 5.2-2.6 8l1-9.1a366 366 0 00-44 21.6c-13.6 8-26.9 16.6-40.5 25l-1.4-2.1a413.1 413.1 0 0184.7-47.8c-.4-5.9-4-10.3-6.4-16 7.5 1.8 10 7.8 13.5 13.5l3.7-6.6.9.2-.4 3.6a3 3 0 001.3.1l25-9.2a5.2 5.2 0 003.4-3.5l3-7.2 1.8 7.2c2.1.2 3-.7 2.5-2.4l-4.6-11.3c4.2-.7 4.3-.6 10.2 9.5a60.8 60.8 0 0117.6-24.8c-2.1 3.9-4.5 7.6-6.4 11.5a28.6 28.6 0 00-3.2 12.5l57.3-14.7-2.7-4a76 76 0 01-14.5-40.4 55 55 0 0135-54.4 98 98 0 0147.6-7c24.4 1.9 47.6 8.3 70.3 17.3l4.8 1.9h.8l15.3-33.9c-3-.8-6-1.3-8.7-2.4a46.9 46.9 0 01-9.9-4.6c-5.8-4-6.4-10-1.6-15.2a55.5 55.5 0 018.3-7.1c6.3-4.5 12.7-8.6 19-13a11 11 0 003.3-3.2c3.6-6.2 7-12.5 10.5-18.7a55 55 0 005.7-30.9 426.1 426.1 0 00-6-51.4 14.5 14.5 0 00-.7-1.8l-19.6-4.5A331.2 331.2 0 01275 380.8a7.4 7.4 0 00-7.7-.8 378.6 378.6 0 01-75.5 22.3c-13.6 2.3-27.3 4-41 1.5a69.8 69.8 0 01-15.5-4.6 28 28 0 01-14.7-15.6c-2.2-5-4.3-9.9-6.8-14.7-3.4-6.7-7.6-13-13.2-18a51.7 51.7 0 01-16.7-38.7 526.8 526.8 0 00-16.2-104.7c-2.2-8.4.3-16.2 4.3-23.5s10-12.5 17-16.5a96.6 96.6 0 0133.3-10.4c18-2.7 36.1-2.6 54.3-1.6 2.1.2 4 .2 5.8-1.3a56 56 0 0138.8-11.4h1.7a10.6 10.6 0 001-1.7c5.6-13.8 16.6-19.7 30.7-20.6a82.4 82.4 0 0132.8 5.1 10.1 10.1 0 009.7-1c12-7.5 24.8-13.6 38.9-16.1a46.2 46.2 0 0138.3 7.5c1.7 1.4 3.2 1.4 5.2.6 8-3.3 16.3-6.2 24.4-9.5a14.8 14.8 0 005.2-4c4.5-5.1 9.4-9.7 16-12.2a31.4 31.4 0 0124.4 1c9.7 4 17.6 10.5 24.7 18l8 9c6.8-1.4 13.5-3 20.3-4.1a61.2 61.2 0 0124.4.9 42.1 42.1 0 0124.6 16.3c20.2-1.8 35 7.8 48.5 20.8l-.3 1.3h-96.3c3.4 6.3 6.3 12 9.6 17.4.5 1 2.2 1.6 3.4 1.8a38.1 38.1 0 0115.1 5.5c1.5 1 3.6 1 5.5 1.2 17.9 2 35.8.3 53.8 0 47.8-1 95 3.5 141.3 15.7a348.7 348.7 0 0190.6 37.1c4 2.4 7.9 5.2 11.9 7.7a8.7 8.7 0 004.7 1.5c19.8-1.6 39.3.6 58.7 4.4a574.8 574.8 0 01114.3 36.5 73 73 0 0033 5.4 1301 1301 0 0145.5-1.5 93.3 93.3 0 0127.9 4.1c26.9 8 42 26.8 47.7 53.6 3.5 16-.1 31.1-8 45.3-8 14.6-19.4 26.3-32.2 36.7a220.9 220.9 0 01-34.5 22.7 44 44 0 00-7.3 5c-20 16.7-42 30-67.5 36.5-42.8 11-82.2 2.8-118.3-22-7-4.7-14.1-7.3-22.4-7.3-7.5 0-15 .1-22.4-.6-12-1.2-23.1-5.2-34.2-9.5l-6.5-2.6a33 33 0 00-9.5 12.8 69.2 69.2 0 00-5.6 38.3c2 16 4.7 31.7 7.1 47.5a238.2 238.2 0 004.5 23.5l2.6-4.9a94.7 94.7 0 0128.9-33.8 72.7 72.7 0 0152.1-12.5 112.9 112.9 0 0134 9.8 12.6 12.6 0 009.5.5c10.5-3 21.1-5.7 32.4-8.7l-3.5-7.3c2.8.7 4 2.4 5.2 3.9a5.3 5.3 0 006.5 1.9 5.3 5.3 0 011.5-.4c4-.1 5.7-2 6.3-6a33.7 33.7 0 012.9-8.4c.7-1.7 1.9-3.3 4.6-2.8l-4 14.9c11.8-2 23-4 34.2-5.7 11.5-1.8 23.1-3.4 34.7-4.7 11.4-1.4 22.8-2.4 34.7-3.5.3-3.2-1.2-5.8-2.3-8.4s-2.5-4.9-3.8-7.4c4.9-.2 6.8 1.6 13.3 12.7l3.6-7c1.2 3-2 6.2 2 9.3l22.4-1 .3 1.2a9.2 9.2 0 01-2.7 1.1l-18.5 1v4.3l-4.1-5-.8.2.8 7-1 .3c-1.3-3.4-2.3-6.9-3.8-10.2a42.6 42.6 0 00-5.8-9.2c1.8 7.3 5.1 14.3 1.7 21.7h-1.1l1-8.1a845.6 845.6 0 00-100 13zM82.6 211.3C83 195 95 186 109.8 190.7a40 40 0 0122 15.3 567 567 0 0117 26.3c16.4 27.1 33.3 54 53.8 78.3a325 325 0 00138.3 98c43.5 16 88.6 23 134.7 23.4a985.4 985.4 0 00108.1-5 622.8 622.8 0 0069.7-10.4c19.8-4.2 39.4-9 59.2-13.2a117.7 117.7 0 0141-1.8c15.8 2.2 30.8 7.2 45.6 13a934.6 934.6 0 0185.2 41c7 3.5 13.6 7.7 20.2 12 34.2 21.6 71 29 110.5 18.8 25.3-6.4 47-19.7 67-36.3a65.9 65.9 0 016.9-4.7c9.8-6.3 20-12 29.4-18.8a125 125 0 0033.9-35.3 63.4 63.4 0 00-39.6-97.3c-14.1-3.2-28.4-3.3-42.7-2.6q-17.3.9-34.5 1.5a50.2 50.2 0 01-21.8-4.5 605 605 0 00-113-36.8c-17-3.6-34.3-6-51.9-5.6-4.3.1-9 1.5-13 .4s-7.2-4.6-10.8-6.9c-24-15.2-50-26-77-34.5A490.3 490.3 0 00591 184.4c-19.3.4-38.6 1-58 .2-38-1.6-76-2.6-114-3.3-33.3-.7-66.6-.7-99.8 2.7a16.4 16.4 0 01-5.6-.6A848.1 848.1 0 00223 165c-29-4.2-58.1-7.1-87.5-4.9a131.1 131.1 0 00-32.7 6.3 51.9 51.9 0 00-20 11c-9.2 9-13.5 19.3-10 32.6a473.5 473.5 0 0113 71.9c1.2 11.6 1.9 23.2 3 34.9 1 10 3.5 19.6 11.1 26.9a101 101 0 0124.6 37.8 24.6 24.6 0 0013.8 14.2 51.9 51.9 0 008.9 3c13.7 3 27.4 1.8 41-.4a375.7 375.7 0 0073.8-21l4-1.9-2.7-2.3a358.1 358.1 0 01-80.5-80c-14.3-19.4-26.8-40-39.4-60.5a479.9 479.9 0 00-16.3-24.9c-5-7.1-12.5-11-20.8-13-8.7-2.2-14.5 1-17.8 9.3-1 2.4-1.6 5-2.4 7.4zm474.5 522.3a17.6 17.6 0 000 4c1.5 5.8 3 11.7 4.7 17.5 1.8 6 3.4 12 3 18.5a15.3 15.3 0 01-23.1 12.1 12 12 0 01-3.9-4.7 16.9 16.9 0 01-1.2-5.6c-1-7.6-2.3-15-5.3-22.3a39.5 39.5 0 01-2.2-8.5c-.6-3.4-.7-6.9-1-10l-33.6-6-2.9 9.7c-2 7.2-3.9 14.4-6.3 21.5a45.1 45.1 0 01-5.6 10.5 11.4 11.4 0 01-12.3 5.1 178 178 0 01-17.2-4.5c-3.5-1-4.7-3.7-3.9-7.4a52.4 52.4 0 012.7-7.4c2-5 4.8-9.8 6-15 2-8.8 5.5-16.8 11.4-23.7.2-.2 0-.7.1-1.2a226 226 0 00-53.5-28.1c-4 7.4-6.6 14.9-6.8 23-.1 3 0 6-.3 9-.7 8.6-4.4 12.8-12.9 14.6a30.9 30.9 0 01-6.2.6c-5.3 0-8.7-2-10.2-7.1a42.2 42.2 0 01-1.6-12.8 88.1 88.1 0 016.2-28.5l1.5-4.4c-9-.9-9-.9-11.9 7-.8 2.6-1.6 5-2.7 7.4a60.3 60.3 0 01-4.8 9.3c-3 4.3-6.5 5.2-10.9 3.5s-6.2-5.1-5.4-10.2a82.4 82.4 0 012-8.3c-3 1-4.4 2.7-4.9 5.6a235.1 235.1 0 00-4.2 70.1c2.2 17.2 6 34 13.8 49.6a75.6 75.6 0 0060.8 44.7c.3 0 .6.3 1.2.6a7.7 7.7 0 010 1.8 11 11 0 01-.9 2 77.5 77.5 0 01-40.4-15.8 89.1 89.1 0 01-26.8-35.5 164.7 164.7 0 01-12.8-53.1c-.2-2.7.2-5.5-1.4-9.1l-2.9 10c-9.2 34.7-16 69.9-23 105a51.8 51.8 0 01-5.2 15.8 94.3 94.3 0 00-6.5 15.3 22.9 22.9 0 00-1.2 9.2 57.5 57.5 0 0010.3 28.1 92 92 0 0023.3 22.4 33.6 33.6 0 004 2 28345 28345 0 00-4.7-33.3 12.7 12.7 0 0110.5 6.8 32.6 32.6 0 014 9.5c1.4 7.2 2.4 14.4 3.1 21.7.3 3 1 5 4.7 5.2.6-1.6 1.2-3.2 1.6-4.9a151.5 151.5 0 005.3-28.7c.8-9.5 5.6-16.4 14.1-20.5a74.3 74.3 0 0112.4-4.1c1.7-.5 3.7-.1 5.5-.1 1 3.4-1.3 3.7-3.2 3.7-5.5 0-8.6 3.3-10.7 7.7a46.2 46.2 0 00-3.3 8.8 167.6 167.6 0 00-3.2 44.2c0 2.5 1.5 3.3 3.4 4l19.3 6.5a24.8 24.8 0 003.7.6 75.3 75.3 0 00.3-26.8 47.5 47.5 0 00-7.6-19.3c-1.2-1.7-1.6-3.2 1.4-4a147.6 147.6 0 0130 53.5c1.2-7 1.8-12.9 3-18.6a46.8 46.8 0 013-9.4c1-2 2.6-3.7 5.6-2.8-1 12-3 24-2.2 36.2l4.7 1.1a26.4 26.4 0 005-12c.3-1.5-.4-3.8 2-3.6.9.1 2 2 2.4 3.4 1 2.6 1.6 5.3 2.3 8 2 7.3 2 7.3 9.5 8.3a6.5 6.5 0 001.5-.3 87.5 87.5 0 007.9-29.8 23.4 23.4 0 00-1.6-8c-1.2-3.6-2.9-7-4.3-10.4 4.4 3.4 8.3 7 9.2 12.7a25.6 25.6 0 001.4 4.5c3.6 10.2 6.7 20.5 8.2 31.3a24.9 24.9 0 001 3.4c48.6 8 97.3 7 146.1 5.2l1.2-7.7a131 131 0 017.3-31.5 40.4 40.4 0 015.4-9.4c3.1-4 5.4-4.3 10.8-2a5.3 5.3 0 01-1.4 1c-6.7 1.8-8.8 7-9.4 13a98.5 98.5 0 004.5 35.2h10.5c.8-8.6-1.5-16.1-4.6-23.3 1.9-2.5 3.1-1.3 4.4.2a52.5 52.5 0 019 15.8l2.3 6.8 23.6-2c4.8-13 10.1-25 17.7-36-3.5 11.5-1.3 22.5 1.8 33.9l8.5-1c-.7-7.5-1-14.6-2-21.6-3-19-6.5-37.8-9.7-56.7a22.2 22.2 0 010-3.4 13 13 0 0111.2 6.6 84.7 84.7 0 017.2 15c5.4 15.6 7.6 31.8 9.6 48.1l1.2 9.7c1-.6 1.4-.8 1.5-1 .4-1 .8-2 1-3a122 122 0 0119-38.7c6.9-9.2 14.5-18 22.1-26.5 3.6-4.1 8.9-5.8 14-7.8a29.6 29.6 0 01-5.9 5.4 36.9 36.9 0 00-14.7 23.2c-3 12.5-4 25.1-4.5 37.8a40.1 40.1 0 00.3 4.5 220.3 220.3 0 0032-8.9c1.8-.6 2-2.2 2-3.8.6-6.8 1-13.6-2.2-20-1-2.1 0-2.8 2.4-3.2l10.4 19 .4-6.3c.5-9.9.8-19.9 1.7-29.7a74 74 0 013.6-15.7c1.3-4 3.1-4.6 7.6-4.2 0 16.2.5 32.5 2.1 50.2 3.4-3.4 6-5.7 8.2-8.3a98.4 98.4 0 0016.1-26.1c7.8-18.7 9.6-38.1 6.8-58a112 112 0 00-14.6-43.8c-3.2-5.3-5.9-10.7-7-16.7-2.2-12.7-4.3-25.4-6.1-38.2-1-7-1.5-14.1-2.2-21.7l-3.2 1.7c-12.7 7.6-20.6 5.3-26.4-8.4a146.5 146.5 0 01-6.5-20.4c-3-12-6-24-5.8-36.5a293.4 293.4 0 014.7-45.2 670.7 670.7 0 0115.2-65.6 15.2 15.2 0 00.7-6.1L794.5 509c-2-12.5-2.3-25 .7-37.4a49 49 0 0132-37c.7-.3 1.3-.7 2.3-1a8 8 0 00-1.5-1.4c-18.5-8.6-37.1-16.9-56.8-22.3a106 106 0 00-44.5-4 385 385 0 00-35.3 7A709 709 0 01571 432.9c-27.4 2-55 2.9-82.5 3.7a413.1 413.1 0 01-78.1-5.4c-2-.3-4-.4-6.2-.6.5 3.4 1 6.2 1.3 9 2.6 17.4 5 34.8 4.7 52.5a45 45 0 01-4.2 19.2c-2.2 4.6-4.6 9-6.8 13.5l-1.5 3.7c17.2-8 34.1-8 51.4-4.3 18 3.7 34.9 10.8 51.6 18.2a24.7 24.7 0 015.7 3.7c5.5 4.6 6 10.4.8 15.3-3.3 3.1-7.6 5.3-11.5 7.9-1.8 1.1-3.7 2-5.4 3.2a39.8 39.8 0 01-21.6 8.3 67.1 67.1 0 01-31.3-4.8 31.6 31.6 0 00-22.8-.2 350 350 0 01-14.5 4.6c-2 .6-4.1.8-6.2 1.2v1.3c3.1.4 6.2 1 9.2 1.2 6.5.4 13 .3 19.3.8a265 265 0 0120.7 2.3c11.5 1.8 23 4 34.4 6 2.6.5 4.2-.6 5.6-2.7 3.4-5 7-10 10.6-14.9a8 8 0 011.4-1.1l3 2.6c-4.9 6.9-9.6 13.4-14 20a255.5 255.5 0 00-20.7 34.5c-2.3 5-3.4 9.7-.8 15 1.3 2.5 1.8 5.3 2.9 7.9a24.6 24.6 0 0011 12.9 63.9 63.9 0 0012.3 5.3c11.3 3.4 23 4 34.7 3.7 8-.2 16-1.4 23.2-5.4 8-4.4 12.7-10.8 12.3-20.2S554 634 545.4 630c-4.8-2.2-7-5.7-6.5-10.7.3-3.3 1.3-6.7 2-10.3l3.7 1.3c.2.6.4.8.3.9l-.8 3.5c-1.7 7.2-1.2 8.5 5.2 12 15.4 8.4 22.2 34.8 1 47.4a52.6 52.6 0 01-12.1 4.8c-8 2.3-16.2 2.5-24.4 2a99.1 99.1 0 01-33.3-6.2 35.6 35.6 0 01-21-22.5c-2.6-7.7-5.1-15.2.4-23.3l-6.8-1.1c-8-1.7-13.7-6.3-15.8-14.3-1-4.1-1.1-8.6-1.3-12.9a80.6 80.6 0 01.8-9.4c-10.2-1.4-20-2.7-30-2.5-8.8.2-17.7 0-22.8-10a421.2 421.2 0 00-37.8 108c3.8-2 7.3-2.7 9-6.3 4.1-9.2 8.6-18.3 12.5-27.6a50 50 0 003.8-21.4 49.1 49.1 0 01.6-11c1.5-7.8 6.3-10.4 13.8-8 2 .7 3.2 1.7 3.4 4 .5 5 1.5 10 1.6 15 .3 12.3-1.2 24-9.5 34a26.1 26.1 0 00-5.8 12.2c5.3.2 10.4 1.3 13.9-4 .4-.6 1.4-.8 2.2-1.3a36.9 36.9 0 0013.6-13.4 20.6 20.6 0 002.7-7.2c1-6.4 8.6-14.9 15.1-15.6a97.5 97.5 0 0117.2-.2c6.4.4 8.6 3.3 7.6 9.8a38.8 38.8 0 01-12.1 23.7 17.5 17.5 0 01-7.2 4c-6 1.4-9.5 5.3-12.7 10.1a7.3 7.3 0 001.5 1c16.4 6 31.5 14.7 46.1 24.3 2.2 1.4 4.4 2.6 6.7 3.8 3.7-3.4 5-7.4 5.8-11.8 1.2-7.4 5.2-10.6 12.6-10.3 2.4.2 4.9.7 7.3 1 4.2.6 7.1 3.2 8 7.2a54 54 0 011 11.4c0 3.3-.9 6.3-4 8.5-1.6 1-2.5 3-4 5.1 11.1 3.3 21.8 5.4 32.8 5.6 1.7-4.2 3.7-7.7 4.7-11.6a82.3 82.3 0 001.8-12.3c.3-2.5.2-5 .3-7.4.4-12.8 5.7-17.6 18.3-16.8 4.4.3 7.2 2 8 6.2a37.4 37.4 0 01.5 13c-1.2 7-3.5 14-5.1 21.2a53.5 53.5 0 00-.7 6.9 205.4 205.4 0 0047.7-11.3c-2.2-4.9-3.8-9.5-6-13.8-5.5-10.6-4.1-21.3-.2-31.8a18.5 18.5 0 0113.9-11.7c5.7-1.3 10 1.2 11.4 7a33 33 0 01.6 6.8 39 39 0 0013.7 30.6c14.5-7 30.3-6.8 45.3-7.7 3.2-12.2 6.2-23.8 9.5-35.3a38.9 38.9 0 014.8-10.3c2.5-3.8 6.4-5.2 11-3.9 2.8.9 5.7 1.7 8.5 2.7 5.8 2 8 5.8 6.5 11.7a38.2 38.2 0 01-2.2 5.8c-2 4.7-4.3 9.2-6 14s-3.2 9.9-2.5 15.6l7.3.6 40.7 3.1c7.5.6 13 4.5 17 10.7a59.8 59.8 0 015 10.3 85.7 85.7 0 015.2 26c.2 4.8 0 9.7 0 14.7H785c-.5-6.9-.8-13.4-1.5-20-1-9-2.8-18-7.3-26-3.6-6.6-8.8-11-16.9-11.4-12-.7-24-2-36-2.8-3.2-.3-6.5 0-10.3 0 .7 5.1 1.4 9.7 1.8 14.3.7 8.7 1.6 17.4 1.5 26.1s-5 13.7-13.7 15l-3.1.4c-7.2.5-11.4-2.8-12-10a61.6 61.6 0 01.3-11c.5-5.6 1.5-11.3 1.9-17a22.2 22.2 0 00-1.1-8.2c-1.2-3.4-3-6.6-4.5-10-14-.7-35.7 1.4-43.8 7.3 3.6 10 4.6 20.5 4.7 31.1 0 6.5.1 12.5 4.3 18.2 3.5 5 1.6 9-4 11.8-2.8 1.4-5.8 2.5-8.5 4-7.3 4.2-12.4 3.6-18-2.6a31 31 0 01-8-17.3c-.5-5-.6-10-.8-15a59 59 0 00-3.7-17c-8.4 2.3-16.3 4.7-24.2 6.6-8 1.9-16.3 3.2-25 4.8zM789 696c-.3 15.2 5.2 35.4 12.6 55.3a22 22 0 004 6c1.8 2.3 4.4 3.6 7.4 2.8 6.2-1.6 11.9-4.5 15.1-10.3a252.2 252.2 0 0018.8-40.8c6.3-18 8-36 1-54.1l-.5-2c-3.1-9.3-2-18.3 2.6-26.8a108 108 0 0123.7-30.3c11-9.7 19.6-9 29.2 2.2 4 4.8 7.7 9.9 11.3 15a244.3 244.3 0 0044.9 46.5c14.7 12.3 32 16 51 13.6 15.5-2 30.2-6.5 44.8-12a244.5 244.5 0 0042.6-19.7 56.2 56.2 0 0010.2-8c2.9-3 2.2-5.6-1.7-6.7a62.8 62.8 0 00-13.3-2.2c-10-.6-19.8.8-29.6 2.6-11.7 2-23.4 3.8-35.3 3.7a52 52 0 01-42-19.8 165.6 165.6 0 01-13-19 269.7 269.7 0 00-40.9-54 24.3 24.3 0 00-6.8-4.7 108.8 108.8 0 00-28.3-8.8 68.6 68.6 0 00-59.4 16.2 91.8 91.8 0 00-27.7 43.5q-4.8 16.2-8.8 32.8c-5.6 24-10.3 48-11.9 79zM362 616.6c-1.8-.9-3.3-1.7-4.9-2.3-6.5-2.4-13-5-19.6-7-22.8-7.1-45.9-12-70-10a70.4 70.4 0 00-39.4 15A47 47 0 00210 654a68.2 68.2 0 0030.6 53.9 139 139 0 0133.4 32c4.3 5.8 7.9 12 9.7 19 3.1 11.9-.7 21.3-11.1 27.7a64 64 0 01-20 7.2c-6.2 1.4-12.3 2.7-18.4 4.4a41.6 41.6 0 00-8.6 3.5c-5 2.7-5.1 5.1-.3 8.3a41.6 41.6 0 008.8 4.6 145.6 145.6 0 0056.5 8.3 45.5 45.5 0 0018.2-4.4 9.4 9.4 0 005.4-7c4.8-20.7 10.2-41.2 15-61.9a28.6 28.6 0 00.5-10.3 68.9 68.9 0 00-12.3-28c-8.8-13.3-19.4-25-30.7-36.2a236 236 0 01-12.3-12.9c-2.8-3.2-3.3-6-1.7-7.4 2.4-2.2 5-1 7.4 0a81 81 0 0123 15.3 12.3 12.3 0 012.6 3.2 26.9 26.9 0 009.6 10.1c6.5 4.4 13.2 8.5 19.9 12.6a37.2 37.2 0 004 1.9 458.8 458.8 0 0122.8-81.4zm32.2-460c-1.3-4.7-2.2-8.6-3.6-12.4a79 79 0 00-5-11.4 42.8 42.8 0 00-48-22.4c-12.2 2.2-23.4 7-34 13-3.6 2-6.9 5.3-10.5 5.7-3.8.4-8-2.1-12-3.2a75.2 75.2 0 00-31-2.6 28.9 28.9 0 00-24 18.5c-.4 1.2-1 2.2-1.5 3.5-14.2-1-27.7.8-40.1 10.2l2.8.5c9.9 1.1 19.8 2 29.6 3.3a848 848 0 0196.3 19.3 26 26 0 007.7.5c12.5-.7 25-1.9 37.5-2.1 54.6-1 109.2.2 163.7 2.5h3.8a12.5 12.5 0 00-9-3.7c-4 0-5.7-2-7.2-5.4a79.1 79.1 0 00-13.5-20.4 54.6 54.6 0 00-63-16.4 123 123 0 00-34.7 19.9l-4.3 3.1zm87.1-35c-2.5-2.8-4.6-5.6-7-8.1a74.9 74.9 0 00-26-19.7c-6.4-2.7-13-3.7-19.9-1.7-7.3 2.1-13 6.6-17.5 12.6a15 15 0 01-7.5 5.1c-7 2.5-14 5.2-21 8a21.8 21.8 0 00-3 1.5c3.5 5.5 7.1 10.4 9.9 15.8s4.4 11 6.8 17l6.3-4.6c10.2-7.4 21-13.6 33.1-17.3a60.4 60.4 0 0128.5-2 57 57 0 0133.5 19.8c2.6 3 5.2 3.8 9 3.8h87.6l.2-1.3c-12.5-10.5-26-18.5-43.7-15.8a17.7 17.7 0 01-1.3-1.5 38.9 38.9 0 00-26-16 63.3 63.3 0 00-25.4.5c-5.5 1.2-10.9 2.6-16.6 4zM361.4 559.4l.6 1c2-.4 4-.7 5.9-1.3a90.9 90.9 0 009.8-3.6c8.8-4 17.3-4 26 .8 5.4 3 11.2 5.5 16.9 8 9.4 4.2 18.7 8.5 28.8 10.7 11 2.3 21.9 2.8 32.1-2.5a195.4 195.4 0 0019.2-11.5c7.5-5 7.2-9.5-.8-13.8a136.8 136.8 0 00-12.9-5.8c-16-6.6-32-12.5-49.4-14.6a59.2 59.2 0 00-38 6c-11.8 7-22.9 15.1-34.3 22.8a30.6 30.6 0 00-3.9 3.8zm279 181.4h.4c-.5-6-.8-11.9-1.6-17.7-1-6.8-2.3-13.6-7.2-18.7a43.3 43.3 0 01-11.6-30.5 23.5 23.5 0 00-.4-5.2c-1-4-3.2-5.2-7-4s-7 3.2-8.8 6.9a32.8 32.8 0 00-1.3 29.1 116 116 0 0111.7 38.3c.4 4 .2 8 .5 12 .7 7 3 13.6 8.3 18.7 2.4 2.3 5.2 3.7 8.5 2.2 4.2-1.8 8.1-4 12.2-6 2.3-1.2 2.8-3 1.5-5.2a11.3 11.3 0 00-1.5-2.7c-3.7-3.6-4.2-8.2-3.7-13a41.6 41.6 0 000-4.2zM432.3 639.9v.3H426c-6 .5-12.5 6.7-13.6 12.6a23.5 23.5 0 01-2.3 6.8 39.2 39.2 0 01-15.3 16 16 16 0 00-7 7.5 80.4 80.4 0 00-8.2 36.4c.3 10.5 4.3 13.4 14.4 10.4 3.8-1.2 6.5-3.5 7-7.6a65 65 0 00.8-9.3c-.2-14 5.2-25.8 13.6-36.5a19.9 19.9 0 019.7-6.8 30 30 0 0018.6-25.4c0-2.6-1-4-3.6-4.1l-7.8-.3zm259.4 103.8c.3 1.7.4 3.8 1 5.8a4.6 4.6 0 003.7 3.8c8.4 1.7 15-3.1 15.8-11.6a27.5 27.5 0 000-5.2q-1.1-12.3-2.4-24.4c-.7-6.6-1.8-13-1-19.8a80 80 0 018.6-26 26.3 26.3 0 002.3-5.3c1-4 0-5.7-4-7.1a101 101 0 00-5-1.6c-6.2-2-8.3-1-11.2 4.9a14.3 14.3 0 00-1 2.4c-3 11-6.1 22.1-8.8 33.2a18 18 0 001.6 14.2c3.2 5 3.5 10.4 2.8 16.1l-2.4 20.6zm-241.2 22.6l14.5 4.2c6.2 1.6 9.6.5 12.7-5.2a75.6 75.6 0 005.6-13.4c2.4-7.5 4.2-15 6.4-22.6a27 27 0 017.2-13.1c2.7-2.5 3.5-5.3 3.6-8.7.3-9.2-1.5-11.3-10.7-12.2-6.5-.6-8.6 1-9.5 7.4a22.9 22.9 0 01-4.7 10.9c-2.3 3-5 5.8-7.2 9-2.5 3.9-5.5 7.9-6.7 12.2a139 139 0 01-9.6 25.9 33 33 0 00-1.6 5.6zm82-27.8l3.6 14.6c1.4 5.2 3 10.4 4.1 15.6.8 3 .7 6.3 1.6 9.3.5 1.6 1.8 3.6 3.3 4.2 7.8 3.3 15-1.5 15.4-10a15.6 15.6 0 00-.3-4l-4-15.7c-.9-3-2.1-6-2.7-9a72 72 0 013.4-35.5 58.4 58.4 0 002.4-12.7c.5-8.1-1-9.5-9-9.3-5 0-7.3 1.7-8.5 6.6a53 53 0 00-.9 9.9c-.3 8.6-1.3 16.9-5.3 24.8-1.7 3.3-2 7.3-3 11.2zM385 617.4c-5.7-2-7.5-1.2-8.3 4a69.5 69.5 0 00-.7 11.4 50 50 0 01-3.2 19.5c-3.2 8-6.6 15.7-10.1 23.5-2.8 6-6.2 11.7-9 17.7a30.6 30.6 0 00-2.1 7.5c-.4 2 .7 3.5 2.7 4.4a3.8 3.8 0 005-1.4 36 36 0 003.8-6.8c2.3-5.7 4.2-11.5 6.3-17.2a81.6 81.6 0 0110.7-20.8 30.4 30.4 0 004.8-10.9 75 75 0 000-31zm-23.2-51.6c2.5 3 6 4.1 9.5 5.1 6.8 2 13.8 3.7 20.7 5.4a10.2 10.2 0 004.1.2c8-1.5 15.4-4.4 24-7.3-6.7-3.3-12.6-5.8-18.2-8.9a23.9 23.9 0 00-22.5-.7c-5.5 2.4-11.4 4-17.6 6.2zm513.4-109.3c-.7-.8-1-1.2-1.4-1.4l-34-17.2a6 6 0 00-3-.8 39.3 39.3 0 00-19.7 8c18.9 8 37.4 13.5 58 11.4zm-537 247c-7.7-4.8-15-9-22.1-13.8-3.4-2.3-6.5-2.6-10.9-1.6 12 14.2 23 28.6 29.2 45.9zm128.6-107.3c-2.2 2.8-4.2 5.6-6.5 8.2a13.6 13.6 0 01-9.4 5c-3.3.2-6.6-.6-10-1 .7 8.6 6.5 15.4 18 15.4a5 5 0 004.9-2.8c4-6.8 8.1-13.4 12.2-20 .5-.8.8-1.8 1.4-3zm638.6 220c-2 14 3.7 25.4 9.5 37a86 86 0 001.3-35.6zM308 683.4c-4.8-5.2-8.6-10-13.2-14.2a42 42 0 00-15.9-9 24.1 24.1 0 003.8 5c5.3 5.3 10.7 10.4 15.8 16 2.4 2.5 5 3.5 9.5 2.2zM1124.9 819l3 19.6 11.5-17.5zM441 598.3c-1 2.9.1 4 1.8 5 6.7 4 14.2.9 18-8.3-2.8.1-5.9-.7-7.6.4-3.8 2.6-7.6 4-12.2 2.9zm547.8-58.4c3.3-6.6 5.6-13.3 3.7-20.7-2.5-.2-4.2.2-4.5 2.8-.6 6-.9 12 .8 18zM648 1028.1l1.2-.2c1.4-4.8 3.2-9.5 2.4-15.1l-8.3.7zm59.9-19.9a84.6 84.6 0 005 15.4l1.4-.2.8-16.1zm267.5-485.8l6.3 9.9 1.5-11.5zm-528 482l1.2 9.7 1 .2 3.9-8.5zm561.5-201c-.7 3.5.3 6 2 9.8l2.4-8.7zM345.5 974.3v6.5c1-2.2 3.7-4.2 0-6.5zM442.2 592l-.4 1.6 4.4.8.3-1.2zM919.6 74a96.3 96.3 0 01117.6-57.8c34.7 10 72.8 45 68.4 103.8 8.5 5 11.8 12.5 8.1 23.2l6.6-.4a60.2 60.2 0 0121.8 2c4.9 1.4 8.9 4 9.4 9.8a12.4 12.4 0 01-.3 2.5c-2 0-3.8.3-5.6.3h-48.1c-3.6 0-5.6 1-7.6 4-22.7 32.3-53.9 46.7-93 42.2-28.4-3.3-50.9-17.9-67-41.7-2.4-3.5-4.8-4.6-8.9-4.6-55.4.1-110.9 0-166.3.2-9.5 0-17.2-3.9-24.2-9.6-6.3-5.2-6.3-11.7.2-16.8a60.8 60.8 0 0113-7.7c11.7-5.4 24.3-8.4 36.8-11.3a14.3 14.3 0 007.9-4.6 183 183 0 0135.4-30.8 77.8 77.8 0 0128-12.2 42.6 42.6 0 0120.2 1.2c5.3 1.5 11 1.9 16.4 2.8a5388 5388 0 0131.2 5.5zm58.8 37.2c-3-9.3-10.3-15.1-18.7-19.7a125 125 0 00-14.7-6.9c-17.8-7-36.4-10.6-55.2-13.5-7.3-1.2-14.8-1.7-22-3.9-4.4-1.3-9.4-1-14-.5a60 60 0 00-23.7 9c-14.4 8.4-27 19.2-38.1 31.5-4 4.4-8.4 6.6-14 8a355.7 355.7 0 00-33.4 10.4 47.6 47.6 0 00-13.3 8c-4.3 3.6-4.3 7.7-.3 11.4 6.2 5.8 13.4 10 22.3 10h395.3a5.2 5.2 0 00-2.6-5.7c-2-1.2-4-2.4-6.2-2.7-6-.7-12.1-1.1-18.2-1.3-3.7-.2-7.5.2-11.7.4l1.3-3.4c3.5-8.9 1.6-15.1-6.6-20a51.7 51.7 0 00-11.4-5c-13-3.9-26.3-5.2-39.8-5.4-4.5 0-9 .4-13-2.7-1.1-.9-2.9-1.1-4.4-1.5a62.8 62.8 0 00-22.8-1.3c-11.4 1.3-22.7 3-34.8 4.8zm1.6-2.7a4.6 4.6 0 001.3.3l2.5-.5a171 171 0 0140.4-4.6c6.3.2 12.6.8 18.2 3.8a17.8 17.8 0 008.5 2c13.5.2 26.8 1.1 39.9 4.6 4 1 7.8 2.5 11.7 3.8a92.3 92.3 0 00-71-100.7A92.2 92.2 0 00922.6 75l4.9 1.5a155.6 155.6 0 0129.3 10.8c9.8 4.9 18.6 11 23.2 21.3zm109.8 49.2l-4.4-.3-154.2.2-.4.4-.5.9c19.4 28 45.8 43.5 80.5 43.1 33.7-.4 59.4-15.9 79-44.3z"/>
      <path d="M864.7 987.9c13.4 21.6 14.7 45.6 15 70.2-4.8-2-10.4-7.7-15-16.5-3.3-6.6-5.7-13.7-8.6-20.6a17 17 0 00-1.4 2.8c-2 6.5-4 13-5.4 19.6-.7 3 0 6.2.3 9.3.1 1.7.3 1.7-1.7 3.7a9 9 0 01-2.5-7.1 68 68 0 011.1-10.9 107.1 107.1 0 0113-32c.2 3.8 0 7.6.6 11.3a64.6 64.6 0 002.8 11.7 65.3 65.3 0 005 10.9c2 3.4 4.4 6.5 7 10.1.5-1 1-1.4 1-1.8 0-13.7-1.6-27.2-5.8-40.2a47.6 47.6 0 00-16.6-25.7c8.4-1 14.6 1.3 19.9 6.3s8.2 11.2 10.5 17.9c1.8 5.4 3.2 11 4.9 17 9.8-35.7 30.6-64.1 54.9-90.5 2 .8 3.2 1.6 1.7 3.5l-2.7 3.2a144.2 144.2 0 00-30.6 77c-1 10.1-1.4 20.2 0 30.3.2 1.8.2 3.6-3 3.2-2-14.3-1.4-28.6.7-43 2-14 6.5-27.5 11.5-40.8-16.1 22.3-29.1 45.8-31.3 73.8-2.4 1.1-3.1 0-3.3-1.9l-1.6-13a78.8 78.8 0 00-8.5-26.7c-2.7-4.9-6.1-9.2-11.9-11.1zM349.5 487.7c4 1.2 7.7 1.8 11 3.3 5.2 2.2 7.7 6.3 6.5 11.7-.9 4.1-3.1 8-5 11.9-.3.7-1.7 1.2-2.6 1.3a32 32 0 01-4.7.1h-267c-3-13 2.7-22.5 15-25.2a6 6 0 005-3.9 61.8 61.8 0 0112-18.2 37.8 37.8 0 0145.3-9.5c6.8 3 13 7.4 19.3 11.3a56 56 0 014.8 3.6l1.4-3.8c2.1-5 3.8-10.2 6.5-14.7a30.7 30.7 0 0134.1-14.6c10 2 18.8 6.3 27.2 11.8 2.8 1.8 5.3 2.3 8.6 1a50.5 50.5 0 0124.1-3.3c9.2 1.1 16 5.7 19.6 14.3a25.3 25.3 0 001.4 2.5c17-.8 30 5.6 37.5 20.4zm-158.8-9.2l-6.3-5a73.9 73.9 0 00-24-13.6 35.2 35.2 0 00-36.4 8 62.4 62.4 0 00-14.1 20c-.8 1.5-1.5 3-2 4.4-14.5 2.3-20.9 10-18 21.2l4.5.2 260.9.2c3.7 0 5.9-1.2 7.1-4.5l1.2-2.4c3.1-7.7.6-13-7.3-15.2-2.7-.7-5.5-1-8.3-1.6-7.6-16.2-21-21.7-37.9-20.5l-1-2.3c-3.4-9.6-10.3-14-20.2-14.6a53.4 53.4 0 00-22.5 3.7 7.8 7.8 0 01-8-1c-9-6-18.7-11-29.6-12.5s-20.5 1.7-27.4 10.6a52 52 0 00-6.4 11.2c-1.8 4.2-2.7 8.6-4.3 13.7zM1070 525c-4.4 2.5-5.5 6-5.9 10-.8 10.7-4.4 20.7-8.5 30.5a13 13 0 01-1.2 1.7c-.2-12 2.3-23.9-4-34.6 0 9 3.2 18-2 26.5 2.6-10.2.5-20.2-1.3-30.4 4.4.5 6.2 3.4 7 6.6a121.3 121.3 0 012.4 13.8c.3 2 0 3.8.6 6a11.5 11.5 0 001.4-2.7c1.4-6.2 2.8-12.5 4-18.8 1.4-8.3 7.5-13 16.5-12.4-.3.4-.5 1-.8 1.1-5.1.6-6.8 4.4-7.8 8.6a85 85 0 00-1.7 26.5c.3 3.7.5 7.5.5 11.2-3.5-6.2-3-28.2.8-43.5zM180.6 767.7l3.7-14.3a21.9 21.9 0 00-1.5-15.2c4.5 2.2 4.8 6.3 7.6 9.5l.6-4.2 1.6-18.7a13.2 13.2 0 011.5-4.9c.6-1 1.9-1.6 3.5-3 1.6 14.4.2 28 3.4 41.2-3.8-5.4-3.3-11.8-3.9-17.8s-.5-12.1-.8-19.4c-1 1.8-1.7 2.5-1.8 3.3l-1.8 28c-.1 2.8 0 5.6-.7 8.6l-3.7-12.7H187c-1.3 6.8-2.2 13.8-5.5 19.8z"/>
      <path d="M82.6 211.3h3.6c.8-2.5 1.4-5 2.4-7.4 3.3-8.4 9-11.5 17.8-9.3 8.3 2 15.8 5.9 20.8 13 5.7 8.2 11.2 16.4 16.4 24.9 12.5 20.5 25 41 39.3 60.4 22.8 30.8 49.2 58 80.5 80.1l2.7 2.3-4 1.9c-24 9.1-48.4 16.9-73.7 21a107.6 107.6 0 01-41 .4 51.9 51.9 0 01-9-3 24.6 24.6 0 01-13.8-14.2 100.5 100.5 0 00-24.5-37.8c-7.7-7.3-10.2-16.9-11.2-27-1.1-11.6-1.8-23.2-3-34.8a473.5 473.5 0 00-13-72c-3.5-13.2.8-23.5 10-32.4a51.9 51.9 0 0120-11.2 131.1 131.1 0 0132.7-6.2c29.4-2.2 58.5.7 87.5 4.9a848.1 848.1 0 0190.6 18.5 16.4 16.4 0 005.6.5c33.2-3.3 66.6-3.3 99.8-2.7 38 .8 76 1.7 114 3.3 19.4.8 38.7.3 58-.2A490.3 490.3 0 01748 205c27 8.4 53 19.3 77 34.5 3.6 2.3 7 5.8 10.9 7s8.6-.4 13-.5a225 225 0 0151.8 5.5c39 8.2 76.5 21.2 113 36.8a50.2 50.2 0 0021.8 4.5q17.3-.6 34.5-1.4c14.3-.7 28.6-.6 42.6 2.6a63.4 63.4 0 0139.7 97.3 124.6 124.6 0 01-33.8 35.2c-9.5 6.8-19.7 12.6-29.5 18.9a65.9 65.9 0 00-6.9 4.7 170.1 170.1 0 01-67 36.3c-39.6 10.1-76.3 2.7-110.5-19-6.6-4.1-13.3-8.3-20.2-12a941 941 0 00-85.2-40.8c-14.8-5.9-29.8-10.9-45.6-13a117.7 117.7 0 00-41 1.8c-19.8 4.2-39.4 9-59.1 13.2a622.8 622.8 0 01-69.7 10.4 985.4 985.4 0 01-108.1 5c-46.2-.5-91.3-7.4-134.8-23.4a325 325 0 01-138.2-98 612.2 612.2 0 01-54-78.3c-5.4-9-11.1-17.7-17-26.3a40 40 0 00-21.8-15.3c-14.9-4.7-27 4.3-27.3 20.6z" class="cls-1"/>
      <path d="M557.1 733.6c8.7-1.6 17-3 25.1-4.8 8-1.9 15.8-4.3 24.2-6.7a59 59 0 013.7 17c.3 5 .3 10.1 1 15.1a31 31 0 007.8 17.3c5.6 6.2 10.8 6.8 18 2.7 2.7-1.6 5.7-2.7 8.5-4.1 5.6-2.8 7.5-6.8 4-11.8-4.1-5.7-4.3-11.7-4.3-18.2 0-10.6-1-21.2-4.7-31.1 8.1-5.9 29.8-8 43.8-7.3 1.5 3.4 3.4 6.6 4.5 10a22.2 22.2 0 011 8.1c-.3 5.8-1.3 11.5-1.8 17.2a61.6 61.6 0 00-.3 11c.7 7 4.8 10.4 12 9.8l3.1-.3c8.6-1.3 13.7-6.3 13.7-15s-.8-17.4-1.5-26c-.3-4.7-1.1-9.3-1.8-14.4 3.8 0 7.1-.2 10.4 0 12 .9 24 2 36 2.8 8 .5 13.2 4.7 16.9 11.4 4.4 8 6.3 16.9 7.2 26 .7 6.5 1 13.1 1.5 20h3.7c0-5 .2-9.9 0-14.7a85.7 85.7 0 00-5.1-26 59.8 59.8 0 00-5.1-10.3c-4-6.2-9.5-10.1-17-10.7l-40.7-3.1-7.2-.6c-.7-5.8.7-10.8 2.4-15.7s4-9.2 6-13.9a38.2 38.2 0 002.2-5.8c1.5-6-.7-9.7-6.5-11.7-2.8-1-5.6-1.8-8.5-2.7-4.6-1.3-8.5 0-11 3.9a38.9 38.9 0 00-4.8 10.3c-3.3 11.5-6.3 23.2-9.5 35.3-15 1-30.8.6-45.3 7.7a39 39 0 01-13.7-30.6 33 33 0 00-.6-6.8c-1.4-5.7-5.7-8.3-11.4-7a18.5 18.5 0 00-13.9 11.7c-4 10.5-5.3 21.2.1 31.8 2.3 4.3 4 9 6 13.8a205.4 205.4 0 01-47.6 11.3 53.5 53.5 0 01.7-7c1.6-7 4-14 5.1-21.2a37.4 37.4 0 00-.6-12.9c-.8-4.2-3.5-5.9-7.9-6.2-12.6-.8-17.9 4-18.3 16.9 0 2.4 0 4.9-.3 7.3a82.3 82.3 0 01-1.8 12.4c-1 3.8-3 7.3-4.7 11.5-11-.2-21.7-2.3-32.9-5.6 1.6-2 2.5-4 4-5.1 3.2-2.1 4.1-5.2 4.1-8.5a54 54 0 00-1-11.4c-.9-4-3.8-6.5-8-7.1-2.4-.4-4.9-.9-7.3-1-7.4-.4-11.4 2.8-12.6 10.2-.7 4.4-2.1 8.4-5.8 11.9-2.3-1.3-4.5-2.5-6.7-4a228.9 228.9 0 00-46.1-24.2 7.3 7.3 0 01-1.5-1c3.2-4.8 6.7-8.7 12.7-10.1a17.5 17.5 0 007.2-4 39 39 0 0012.1-23.7c1-6.5-1.2-9.3-7.6-9.8a97.5 97.5 0 00-17.2.2c-6.5.7-14.1 9.2-15.1 15.6a20.6 20.6 0 01-2.7 7.2 36.9 36.9 0 01-13.6 13.4c-.8.5-1.8.7-2.2 1.4-3.5 5.2-8.6 4-13.9 4a26.1 26.1 0 015.7-12.3c8.4-10 10-21.7 9.6-34 0-5-1.1-10-1.6-15-.2-2.3-1.4-3.3-3.4-4-7.5-2.4-12.3.2-13.8 8a49.1 49.1 0 00-.7 11 50 50 0 01-3.7 21.4c-4 9.3-8.4 18.4-12.6 27.6-1.6 3.6-5.2 4.3-9 6.4a421.2 421.2 0 0138-108.1c5 10 13.9 10.2 22.6 10 10-.1 19.8 1.1 30 2.5a80.6 80.6 0 00-.7 9.4c.2 4.4.3 8.8 1.3 13 2 8 7.7 12.5 15.8 14.2l6.8 1.2c-5.6 8-3 15.5-.4 23.2a35.8 35.8 0 0021 22.6 99.1 99.1 0 0033.3 6.1c8.2.4 16.4.3 24.4-2a52.6 52.6 0 0012-4.9c21.2-12.6 14.4-39-1-47.4-6.4-3.5-7-4.8-5.2-12l.8-3.5-.3-.9-3.7-1.3c-.7 3.7-1.7 7-2 10.4-.4 5 1.7 8.4 6.5 10.6 8.7 4 13 11.3 13.5 20.8s-4.3 15.8-12.3 20.2c-7.2 4-15.1 5.2-23.2 5.4-11.7.4-23.4-.3-34.7-3.6a63.9 63.9 0 01-12.4-5.4 24.6 24.6 0 01-11-13c-1-2.5-1.5-5.3-2.8-7.8-2.6-5.2-1.5-10 .9-15 5.7-12.2 13-23.4 20.6-34.5l14-20-3-2.5a8 8 0 00-1.4 1.1c-3.6 5-7.2 9.8-10.6 14.9-1.5 2.1-3 3.2-5.6 2.7-11.5-2-23-4.2-34.5-6a265 265 0 00-20.6-2.3c-6.4-.5-12.9-.4-19.3-.8-3-.2-6.1-.8-9.2-1.2v-1.3c2-.4 4.1-.6 6.2-1.2l14.4-4.6c7.7-2.6 15.1-3 23 .2a67.1 67.1 0 0031.2 4.7 39.8 39.8 0 0021.6-8.3c1.6-1.3 3.6-2.1 5.3-3.3 4-2.6 8.2-4.7 11.6-7.9 5.2-4.9 4.7-10.7-.8-15.3a24.7 24.7 0 00-5.7-3.7A261.2 261.2 0 00449 524a78.5 78.5 0 00-51.4 4.3l1.4-3.7 6.9-13.5A45 45 0 00410 492a320 320 0 00-4.7-52.5l-1.3-9c2.2.2 4.2.3 6.2.7a413.1 413.1 0 0078 5.3c27.6-.8 55.2-1.7 82.6-3.7a711 711 0 00120.5-20c11.6-2.8 23.5-5 35.3-7 15-2.2 29.9 0 44.5 4a365.1 365.1 0 0156.8 22.4 8 8 0 011.5 1.4l-2.3 1a49 49 0 00-32 37 93.9 93.9 0 00-.7 37.4l10.8 69.2a15.2 15.2 0 01-.7 6.1 670.7 670.7 0 00-15.2 65.8 293.4 293.4 0 00-4.8 45.2c-.2 12.5 2.8 24.5 5.9 36.5a146.5 146.5 0 006.4 20.3c5.8 13.8 13.7 16 26.5 8.5l3-1.7c.8 7.5 1.3 14.6 2.3 21.7 1.8 12.7 4 25.4 6.1 38.1 1 6 3.7 11.4 7 16.7a112 112 0 0114.6 43.9 108 108 0 01-6.8 57.9 98.4 98.4 0 01-16.1 26.1c-2.2 2.6-4.8 5-8.1 8.3a556 556 0 01-2.1-50.2c-4.6-.3-6.3.3-7.6 4.2a74 74 0 00-3.7 15.7c-1 9.8-1.2 19.8-1.7 29.7l-.4 6.3-10.4-19c-2.4.4-3.5 1-2.4 3.2a37.1 37.1 0 012.3 20c-.2 1.6-.3 3.2-2.1 3.8a220.3 220.3 0 01-32 8.9 40.1 40.1 0 01-.3-4.5c.5-12.7 1.4-25.3 4.4-37.8a36.9 36.9 0 0114.8-23.2 29.6 29.6 0 005.8-5.4c-5 2-10.3 3.7-14 7.8a403.4 403.4 0 00-22 26.5 122 122 0 00-19 38.7l-1 3c0 .2-.5.3-1.5 1l-1.3-9.7c-1.9-16.3-4.2-32.5-9.5-48a84.7 84.7 0 00-7.3-15 13 13 0 00-11.1-6.7 22.2 22.2 0 000 3.4c3.3 19 6.7 37.8 9.7 56.7 1.1 7 1.4 14.1 2 21.7l-8.5 1c-3-11.5-5.3-22.5-1.8-34-7.5 11-12.9 23-17.7 36l-23.6 2-2.4-6.8a52.5 52.5 0 00-8.9-15.8c-1.2-1.5-2.4-2.6-4.3-.1a46.6 46.6 0 014.6 23.2h-10.5c-3-11.4-5.8-23-4.6-35.2.6-6 2.8-11.2 9.5-13a5.3 5.3 0 001.3-1c-5.3-2.3-7.6-2.1-10.8 2a40.4 40.4 0 00-5.4 9.4 131 131 0 00-7.3 31.5l-1 7.7c-49 1.9-97.6 2.8-146.3-5.2a24.9 24.9 0 01-1-3.4c-1.4-10.7-4.5-21-8-31.3a25.6 25.6 0 01-1.6-4.4c-.8-5.8-4.8-9.4-9.2-12.8 1.5 3.5 3.1 6.9 4.3 10.4a23.4 23.4 0 011.7 8c-.4 10.7-4.1 20.4-8 29.9a6.5 6.5 0 01-1.5.2c-7.5-1-7.5-1-9.4-8.3-.7-2.7-1.3-5.4-2.3-8-.5-1.3-1.5-3.3-2.5-3.3-2.3-.3-1.6 2-1.9 3.5a26.4 26.4 0 01-5 12l-4.7-1.1c-.8-12.2 1.2-24.1 2.2-36.2-3-.8-4.7.8-5.6 2.8a46.8 46.8 0 00-3 9.4c-1.2 5.7-1.9 11.5-3 18.6a147.6 147.6 0 00-30-53.5c-3 .9-2.6 2.3-1.4 4a47.5 47.5 0 017.6 19.3 75.3 75.3 0 01-.4 26.8 24.8 24.8 0 01-3.6-.6l-19.3-6.5c-2-.7-3.4-1.5-3.4-4-.3-14.8-.4-29.6 3.2-44.1a46.2 46.2 0 013.3-8.8c2-4.5 5.1-7.9 10.7-7.8 2 0 4-.3 3.1-3.7-1.7 0-3.7-.4-5.5.1a74.3 74.3 0 00-12.3 4.2c-8.5 4-13.4 11-14.1 20.4a151.5 151.5 0 01-5.3 28.8c-.4 1.6-1 3.2-1.6 4.8-3.7-.2-4.4-2.1-4.7-5.2-.7-7.2-1.7-14.5-3.1-21.6a32.6 32.6 0 00-4-9.6 12.7 12.7 0 00-10.5-6.8c1.5 10.9 3 21.6 4.8 33.3a33.6 33.6 0 01-4.1-2 92 92 0 01-23.3-22.3 57.5 57.5 0 01-10.4-28.1 22.9 22.9 0 011.3-9.3 94.3 94.3 0 016.4-15.3 51.8 51.8 0 005.4-15.7c6.8-35.2 13.7-70.4 22.9-105.1l2.8-10c1.7 3.7 1.3 6.4 1.5 9.1 1.6 18.4 5.3 36.2 12.8 53a89.1 89.1 0 0026.7 35.6 77.5 77.5 0 0040.5 15.9 11 11 0 00.9-2 7.7 7.7 0 000-1.8c-.6-.4-.9-.7-1.2-.7a75.6 75.6 0 01-60.9-44.6 153.4 153.4 0 01-13.7-49.6c-3-23.7 0-47 4.2-70.2.5-2.9 2-4.5 5-5.6a82.4 82.4 0 00-2.1 8.4c-.8 5 1.2 8.4 5.4 10s8 1 10.9-3.4a60.3 60.3 0 004.8-9.2c1-2.4 1.9-5 2.7-7.4 2.8-8 2.8-8 12-7-.6 1.5-1 3-1.6 4.3a88.1 88.1 0 00-6.2 28.6 42.2 42.2 0 001.6 12.8c1.5 5.2 5 7.2 10.3 7.2a30.9 30.9 0 006.2-.7c8.5-1.8 12.2-6 12.9-14.6.2-3 .2-6 .2-9a51 51 0 017-23 226 226 0 0153.4 28.1c0 .5 0 1-.2 1.2a56 56 0 00-11.3 23.8c-1.2 5.1-4 10-6 15a52.4 52.4 0 00-2.7 7.3c-.9 3.8.3 6.3 3.9 7.4a178 178 0 0017.1 4.6 11.4 11.4 0 0012.3-5.1 45.1 45.1 0 005.7-10.6c2.4-7 4.2-14.3 6.3-21.5l2.9-9.6 33.5 5.9c.3 3.2.5 6.6 1 10a39.5 39.5 0 002.3 8.6 82 82 0 015.2 22.3 16.9 16.9 0 001.3 5.5 12 12 0 003.9 4.7c9.6 6 22.5-.8 23-12.1.4-6.4-1.2-12.4-3-18.5l-4.6-17.6a17.6 17.6 0 010-3.9zm129.4-148l10.7 2.8a45.9 45.9 0 0017.6 1.6c6.5-1 9.4-5.2 8-11.5a26 26 0 00-2.5-6.3 54.3 54.3 0 00-17-19.5 95 95 0 00-23.7-11.9c-26.2-8.9-53-11.6-80.4-9.1a67 67 0 00-25.1 6.6 22.2 22.2 0 01-7.4 2.1c-8 1-16 1.5-23.9 2.7-6.8 1-13.6 2.9-19.6 6.7-8.2 5.2-9.7 12.8-3.8 20.4 2.6 3.2 6.2 5.5 9.3 8.4 1.2 1.1 2.6 2.4 3 3.8 2.8 9.1 9 14.7 17.5 18.3 2.8 1.2 5.8 2.1 9 3.3-.7 9.6 4.7 15.7 12 20.5a77.5 77.5 0 0027.3 11.4c16.6 3.4 29.2-3 36.2-18.4 2-4.4 3-9.2 4.5-13.9l1-4h6c9.5.1 19 .2 28-2.3 6.1-1.6 11.5-4.2 13.3-11.6zm62 233.9l-3.8 2.6a185.1 185.1 0 01-32.4 19 322.2 322.2 0 01-121 27.2c-6.2.3-12.5.4-19 .5v4.5h6c31.5-.5 62.6-4.2 93-12.5 25.9-7 50.4-17.1 72.5-32.6 2.3-1.5 4.4-3.2 6.6-4.8a17.9 17.9 0 00-.7-1.9l-1.2-2z" class="cls-1"/>
      <path d="M789 696c1.5-31 6.1-55 12-79q3.9-16.4 8.6-32.7a91.8 91.8 0 0127.8-43.5 68.6 68.6 0 0159.4-16.2 108.8 108.8 0 0128.3 8.8 24.3 24.3 0 016.8 4.6 272 272 0 0141 54 165.6 165.6 0 0012.8 19 51.8 51.8 0 0042 19.9c12 0 23.6-1.7 35.3-3.7 9.8-1.8 19.7-3.2 29.6-2.6a62.8 62.8 0 0113.4 2.2c3.9 1.1 4.5 3.7 1.6 6.7a56.2 56.2 0 01-10.1 8c-13.4 8.3-28 14.2-42.7 19.7-14.5 5.5-29.3 10-44.8 12a63.6 63.6 0 01-51-13.6 244.3 244.3 0 01-44.9-46.5c-3.6-5.1-7.2-10.3-11.3-15-9.5-11.2-18.1-11.9-29.1-2.2a108 108 0 00-23.8 30.3 32.6 32.6 0 00-2.5 26.8c.2.6.2 1.3.5 2a76 76 0 01-1 54.1 252.2 252.2 0 01-18.9 40.7c-3.3 5.7-8.9 8.7-15.1 10.3-3 .7-5.6-.5-7.5-2.8a22 22 0 01-4-6.1c-7.3-19.9-12.8-40.1-12.5-55.2zM362 616.6a458.8 458.8 0 00-22.7 81.5 37.2 37.2 0 01-4.1-2c-6.7-4-13.4-8.1-19.9-12.5a26.9 26.9 0 01-9.6-10.1 12.3 12.3 0 00-2.6-3.3 81 81 0 00-23-15.2c-2.4-1-5-2.2-7.4 0-1.6 1.3-1 4.1 1.7 7.4 4 4.4 8 8.7 12.3 12.9 11.3 11.1 22 22.8 30.7 36.2 5.7 8.6 11 17.5 12.3 28a28.6 28.6 0 01-.4 10.3c-5 20.6-10.3 41.2-15.1 61.8a9.4 9.4 0 01-5.4 7 45.5 45.5 0 01-18.2 4.4 145.6 145.6 0 01-56.5-8.3 41.6 41.6 0 01-8.8-4.6c-4.8-3.2-4.7-5.6.3-8.3a41.6 41.6 0 018.6-3.5c6-1.7 12.2-3 18.3-4.4a64 64 0 0020-7.2c10.6-6.4 14.3-15.8 11.2-27.7-1.8-7-5.4-13.2-9.7-19a139 139 0 00-33.4-32c-19-13-29-31.2-30.6-54a47.2 47.2 0 0118-41.9 70.5 70.5 0 0139.6-14.8c24-2.1 47.1 2.8 69.9 10 6.6 2 13 4.6 19.6 7 1.6.6 3.1 1.4 4.9 2.3zM394.2 156.6l4.3-3.2a123 123 0 0134.8-19.9 54.6 54.6 0 0162.9 16.5 79.1 79.1 0 0113.4 20.4c1.5 3.4 3.3 5.3 7.2 5.5a12.5 12.5 0 019 3.7H522a2625 2625 0 00-163.6-2.6c-12.5.2-25 1.4-37.6 2a26 26 0 01-7.7-.3 848 848 0 00-96.2-19.3c-9.8-1.4-19.7-2.3-29.6-3.4-.6 0-1.3-.2-2.8-.5a56.3 56.3 0 0140-10.1l1.6-3.5a28.8 28.8 0 0124-18.6c10.6-1.7 20.9 0 31 2.7 4 1 8.1 3.5 12 3.1 3.6-.4 6.9-3.7 10.4-5.7 10.7-6 21.8-10.7 34-13 20.7-3.8 37.8 4 48 22.4a79 79 0 015 11.5c1.5 3.7 2.3 7.6 3.7 12.3z" class="cls-1"/>
      <path d="M481.3 121.7c5.7-1.4 11.1-2.8 16.5-4a63.3 63.3 0 0125.4-.5 38.8 38.8 0 0126 16 17.7 17.7 0 001.4 1.5c17.6-2.7 31.1 5.3 43.7 15.8l-.3 1.2h-5l-82.5.1c-3.8 0-6.4-.9-9-3.8a57 57 0 00-33.6-19.8 60.4 60.4 0 00-28.3 2c-12.2 3.8-23 10-33.2 17.4l-6.3 4.6c-2.4-6-4.1-11.8-6.8-17s-6.4-10.3-9.9-15.8a21.8 21.8 0 013-1.6l21-8a15 15 0 007.6-5c4.5-6 10.1-10.5 17.5-12.7a29 29 0 0119.8 1.7 74.5 74.5 0 0126 19.7c2.4 2.6 4.5 5.3 7 8.2zM361.4 559.3a30.6 30.6 0 014-3.8c11.3-7.7 22.4-15.8 34.3-22.8a59.3 59.3 0 0138-6c17.2 2.1 33.4 8 49.3 14.6a136.8 136.8 0 0112.9 5.8c8 4.3 8.3 8.8.8 13.8a195.4 195.4 0 01-19.2 11.5 46.2 46.2 0 01-32 2.5c-10.2-2.2-19.5-6.5-29-10.7-5.6-2.5-11.4-5-16.9-8a27.2 27.2 0 00-26-.8 90.9 90.9 0 01-9.7 3.6c-2 .6-4 .9-6 1.3zM640.4 740.7a41.6 41.6 0 010 4.1c-.4 4.9 0 9.4 3.7 13a11.3 11.3 0 011.6 2.8c1.2 2.2.8 4-1.6 5.1-4 2-8 4.2-12.1 6-3.3 1.5-6.2 0-8.6-2.2-5.3-5.1-7.6-11.6-8.2-18.7-.4-4-.2-8-.5-12a116 116 0 00-11.8-38.3 32.8 32.8 0 011.3-29.1c1.8-3.7 5-5.7 8.9-6.9s6 .1 7 4a23.5 23.5 0 01.4 5.2 43.3 43.3 0 0011.5 30.5c4.9 5.2 6.3 12 7.2 18.7.8 5.9 1.1 11.8 1.6 17.7zM432.3 639.9l7.8.4c2.6.2 3.6 1.5 3.6 4a30 30 0 01-18.7 25.4 19.9 19.9 0 00-9.6 6.9 57.5 57.5 0 00-13.6 36.5 65 65 0 01-.7 9.3c-.6 4-3.3 6.4-7.1 7.5-10.1 3-14.1.2-14.4-10.4-.4-12.8 3-24.8 8.2-36.3a16 16 0 017-7.5 39.2 39.2 0 0015.3-16 23.5 23.5 0 002.3-6.8c1.1-6 7.5-12.2 13.6-12.6 2-.2 4.2 0 6.3 0zM691.7 743.7l2.5-20.6c.8-5.7.4-11-2.8-16a18 18 0 01-1.6-14.3c2.7-11.1 5.9-22.1 8.9-33.2a14.3 14.3 0 011-2.4c2.8-6 4.9-6.9 11.1-5l5 1.6c4 1.4 5 3.2 4 7.2a26.3 26.3 0 01-2.2 5.2 80 80 0 00-8.7 26.1c-.8 6.7.3 13.2 1 19.8l2.5 24.4a27.5 27.5 0 010 5.2c-.9 8.5-7.4 13.3-15.8 11.5a4.6 4.6 0 01-3.8-3.7c-.7-2-.8-4.1-1.1-5.8zM450.5 766.3a33 33 0 011.6-5.6 139 139 0 009.6-25.9c1.2-4.4 4.2-8.3 6.8-12.2 2-3.2 4.8-6 7.1-9a22.9 22.9 0 004.7-11c1-6.4 3-8 9.5-7.3 9.2.8 11 3 10.7 12.1 0 3.4-.9 6.2-3.6 8.7a27 27 0 00-7.2 13.2c-2.2 7.5-4 15.1-6.4 22.6a75.6 75.6 0 01-5.6 13.4c-3 5.6-6.5 6.8-12.7 5.1l-14.5-4.1zM532.5 738.5c1-4 1.4-7.9 3-11.2 4-8 5-16.2 5.4-24.8a53 53 0 01.9-9.9c1.1-5 3.4-6.5 8.5-6.6 7.9-.2 9.5 1.2 9 9.3a58.4 58.4 0 01-2.4 12.8 71.6 71.6 0 00-3.5 35.4c.7 3 1.9 6 2.7 9l4 15.6a15.6 15.6 0 01.3 4.2c-.3 8.5-7.5 13.2-15.4 10-1.4-.7-2.7-2.7-3.2-4.3-.9-3-.9-6.2-1.6-9.3-1.2-5.2-2.8-10.4-4.1-15.6l-3.6-14.6zM384.9 617.4a76 76 0 010 31 30.4 30.4 0 01-4.9 10.8 81.6 81.6 0 00-10.7 20.9c-2 5.7-4 11.5-6.3 17.1a36 36 0 01-3.8 6.8 3.8 3.8 0 01-5 1.5c-2-1-3-2.4-2.7-4.5a30.6 30.6 0 012.1-7.5c2.8-6 6.2-11.7 9-17.7 3.5-7.7 7-15.5 10-23.5A50 50 0 00376 633a69.5 69.5 0 01.7-11.5c.8-5.2 2.6-6 8.3-4z" class="cls-1"/>
      <path d="M361.7 565.8c6.2-2.2 12-3.8 17.6-6.2 7.7-3.4 15-3.4 22.5.7 5.6 3 11.5 5.6 18.3 8.9-8.7 2.8-16.2 5.8-24 7.3a10.2 10.2 0 01-4.2-.2c-7-1.7-13.9-3.4-20.7-5.4-3.5-1-7-2.1-9.5-5.1zM875 456.5c-20.6 2-39.1-3.3-58-11.4a39.3 39.3 0 0119.8-8 6 6 0 013 .8l34 17.1 1.3 1.5zM338.1 703.5l-3.7 30.4a153.8 153.8 0 00-29.2-45.9c4.3-1 7.5-.6 10.8 1.6 7 4.8 14.4 9.1 22.1 13.9zM466.7 596.2l10.6 1.7-1.4 3c-4 6.7-8.3 13.3-12.2 20a5 5 0 01-5 2.9c-11.4 0-17.2-6.8-17.9-15.4 3.4.4 6.7 1.1 10 1a13.6 13.6 0 009.4-5c2.3-2.6 4.3-5.4 6.5-8.2zM1105.3 816.1l10.8 1.5a86 86 0 01-1.3 35.5c-5.8-11.5-11.6-23-9.5-37zM308.1 683.5c-4.6 1.3-7 .3-9.5-2.4-5-5.4-10.5-10.6-15.7-16a24.1 24.1 0 01-3.9-5 42 42 0 0115.9 9.2c4.6 4.1 8.4 9 13.2 14.2zM1124.9 818.9l14.5 2-11.5 17.6-3-19.6z" class="cls-1"/>
      <path d="M441 598.3c4.6 1.1 8.4-.3 12.2-2.9 1.8-1.1 4.9-.3 7.6-.4-3.8 9.1-11.3 12.3-18 8.3-1.7-1-2.9-2.1-1.8-5zM988.8 540c-1.7-6-1.4-12-.8-18 .2-2.6 2-3 4.4-2.8 2 7.4-.3 14.1-3.6 20.7zM648 1028l-4.7-14.6 8.3-.6c.8 5.6-1 10.3-2.4 15.1zM707.9 1008.2l7.2-1-.8 16.2-1.5.2a84.6 84.6 0 01-5-15.4zM975.4 522.4l7.8-1.6-1.5 11.5zM447.4 1004.4l6 1.3-3.9 8.5-1-.1-1-9.7zM1008.9 803.4l4.4 1-2.3 8.8c-1.8-3.8-2.8-6.4-2.1-9.8zM345.5 974.2c3.7 2.3 1 4.3 0 6.5zM442.2 592l4.3 1.1-.3 1.2-4.4-.8zM978.4 111.2c12-1.7 23.4-3.5 34.8-4.9a62.8 62.8 0 0122.8 1.3c1.6.4 3.3.7 4.5 1.6 4 3 8.4 2.6 13 2.6 13.4.2 26.8 1.5 39.7 5.4a51.7 51.7 0 0111.4 5c8.2 5 10 11.2 6.7 20l-1.3 3.5c4.2-.2 8-.6 11.6-.5 6.1.2 12.2.6 18.2 1.3 2.2.3 4.3 1.6 6.2 2.7a5.2 5.2 0 012.7 5.7H753.3c-9 0-16-4.2-22.3-10-4-3.6-4-7.8.3-11.3a47.6 47.6 0 0113.3-8c11-4 22-7.5 33.3-10.4 5.7-1.5 10-3.7 14-8a163.6 163.6 0 0138.2-31.6c7.4-4.3 15.1-8 23.7-9 4.6-.5 9.6-.8 14 .5 7.2 2.2 14.6 2.7 22 4A265 265 0 01945 84.5a125 125 0 0114.6 6.8c8.5 4.7 15.8 10.5 18.8 19.8z" class="cls-1"/>
      <path d="M980 108.5C975.4 98 966.6 92 956.8 87a155.6 155.6 0 00-29.4-10.7l-4.8-1.5a92.2 92.2 0 01108.9-57.7 92.2 92.2 0 0171 100.6c-4-1.2-7.8-2.7-11.7-3.7-13-3.5-26.5-4.5-39.9-4.6a17.8 17.8 0 01-8.5-2c-5.6-3-12-3.7-18.2-3.9a170 170 0 00-40.4 4.6l-2.6.5a4.6 4.6 0 01-1.2-.2zM1089.8 157.7c-19.6 28.4-45.3 44-79 44.3-34.7.4-61-15.2-80.5-43.1l.5-1c.1-.2.3-.3.4-.3l154.2-.2 4.4.3zM190.7 478.5c1.6-5 2.5-9.6 4.3-13.7a52 52 0 016.5-11.3c6.9-8.9 16.2-12.1 27.3-10.5s20.5 6.5 29.5 12.6a7.8 7.8 0 008.1.9 53.4 53.4 0 0122.5-3.8c10 .6 16.9 5.1 20.2 14.6l1 2.4c16.8-1.3 30.3 4.3 38 20.5 2.8.5 5.5.9 8.2 1.6 8 2.2 10.4 7.5 7.3 15.2l-1.1 2.3c-1.3 3.3-3.5 4.5-7.2 4.5q-130.5-.2-260.9 0l-4.5-.3c-2.9-11.3 3.5-19 18-21.3l2-4.4a62.4 62.4 0 0114.1-20 35.2 35.2 0 0136.4-7.9 74 74 0 0124 13.5z" class="cls-1"/>
      <path d="M686.5 585.6c-1.8 7.5-7.1 10-13.3 11.7-9.2 2.5-18.6 2.4-28 2.3h-6l-1 4c-1.5 4.7-2.5 9.5-4.5 13.9-7 15.4-19.6 21.8-36.2 18.4a77.5 77.5 0 01-27.4-11.4c-7.3-4.8-12.7-10.9-12-20.5-3.1-1.2-6.1-2.1-9-3.3a28.2 28.2 0 01-17.4-18.3c-.4-1.4-1.9-2.7-3.1-3.8-3-2.8-6.7-5.2-9.2-8.4-6-7.6-4.4-15.2 3.8-20.4 6-3.8 12.7-5.7 19.6-6.7 8-1.2 16-1.7 23.9-2.7a22.2 22.2 0 007.3-2 67 67 0 0125.1-6.7c27.4-2.5 54.3.2 80.4 9.1a95 95 0 0123.8 11.9 54.3 54.3 0 0117 19.5 26 26 0 012.4 6.3c1.5 6.3-1.5 10.6-8 11.5-6 .8-11.8-.1-17.6-1.6l-10.6-2.8zm22.2.2c9.8.2 11.8-2.8 8.1-10.4a48 48 0 00-11.2-15 74.2 74.2 0 00-22.4-13.3 165.6 165.6 0 00-56.5-11.4 275.2 275.2 0 00-30.2 1c-7.3.5-14.6 2.1-20.9 6a14.3 14.3 0 01-7.8 2.2 116.9 116.9 0 00-31.5 4.3 47 47 0 00-12.2 5.6c-4.3 2.9-5 7.2-1.9 11.4a31.2 31.2 0 007.7 7.6 69.7 69.7 0 0043.6 12c4-.2 7.9-1.3 11-4.2a18.8 18.8 0 0110.6-5.1 164 164 0 0119.8-2c16.4-.3 32.7 1.4 49 3.4 12.3 1.6 24.8 3 37 6.6a53.7 53.7 0 007.8 1.3zM538 584l-.6.8a51 51 0 003.7 5.2c3.5 3.9 8 6 12.9 7.8a16.8 16.8 0 0012.5 0 221 221 0 0122.6-6.6c12-3 23.9-.7 35.7 1.6 13.3 2.4 26.6 3.5 40 1.4a66 66 0 0012.5-3.4c2.2-.8 4.4-2.4 3.5-5.6-.7-.2-1.3-.4-2-.4-14-1.7-28-3.7-42-4.8a309.6 309.6 0 00-32.5-.3c-5.8.2-12 .9-16.6 5.1a22.7 22.7 0 01-12.7 5.5 70.3 70.3 0 01-32.3-4.7zm28 30.7a10.4 10.4 0 001.2 1.6 32.3 32.3 0 003.4 3.2 71.5 71.5 0 0029.7 12.3c8.6 1.5 16.7 0 23-6.9a42 42 0 0010.6-25c0-.2-.3-.5-.7-1.2l-21.8-3.5-1.2 3.8a23.7 23.7 0 01-22.2 18.2c-7.3.6-14.5.3-22-2.6zm40.3-19.7c-3.9-.9-10.3-1.2-12 .2s-2.5 3.9-3.7 5.8c-3 4.8-7.2 6-12 3.4a43.3 43.3 0 01-3.9-2.8c-1.7-1.2-5.6-.8-7 .8-1.5 1.4-1.3 5 .6 6.6a11.6 11.6 0 004.4 2.6 34.4 34.4 0 0021-.3c7.8-2.8 11.7-8.4 12.6-16.3zm-18.6 1l-9 2.6c5.2 3.6 6 3.4 9-2.6zM748.5 819.5l1.3 2a17.9 17.9 0 01.7 2l-6.6 4.8a231.5 231.5 0 01-72.5 32.6c-30.4 8.3-61.5 12-93 12.5h-6v-4.5c6.5-.2 12.7-.2 19-.5 41.9-2 82.6-9.6 121-27.2a185.1 185.1 0 0032.3-19l3.8-2.7z"/>
      <path d="M708.7 585.8a53.7 53.7 0 01-8-1.2c-12-3.5-24.5-5-37-6.6-16.2-2-32.5-3.7-49-3.4a164 164 0 00-19.7 2 18.8 18.8 0 00-10.6 5c-3 3-7 4-11 4.3a69.6 69.6 0 01-43.5-12 31.2 31.2 0 01-7.8-7.6c-3-4.2-2.4-8.5 1.9-11.4a47 47 0 0112.2-5.6 116.9 116.9 0 0131.6-4.3 14.3 14.3 0 007.8-2.1c6.3-4 13.6-5.6 20.9-6.2a275.2 275.2 0 0130.2-1 165.6 165.6 0 0156.5 11.5 74 74 0 0122.4 13.2 48 48 0 0111.2 15c3.7 7.6 1.8 10.6-8 10.4z" class="cls-1"/>
      <path d="M538 584l4.7 1.6c10.5 3.6 21 6.2 32.3 4.8a22.7 22.7 0 0012.7-5.6c4.7-4.2 10.8-4.9 16.7-5a309.6 309.6 0 0132.4.2c14 1 28 3.1 42 4.8.7 0 1.3.3 2 .4.9 3.2-1.3 4.8-3.5 5.6a66 66 0 01-12.5 3.5c-13.4 2-26.7 1-40-1.5-11.8-2.2-23.7-4.6-35.7-1.5a221 221 0 00-22.5 6.5 16.8 16.8 0 01-12.6 0c-4.8-1.8-9.3-4-12.8-7.8a51 51 0 01-3.8-5.2z" class="cls-1"/>
      <path d="M566 614.6a48 48 0 0022 2.6c11.4-1 19.2-7.4 22.3-18.2l1.1-3.8 21.9 3.4c.3.7.7 1 .7 1.3-1 9.4-4.2 18-10.6 25-6.3 6.8-14.4 8.4-23 6.9a71.5 71.5 0 01-29.7-12.4 32.3 32.3 0 01-3.5-3.1 10.4 10.4 0 01-1.2-1.7z" class="cls-1"/>
      <path d="M606.3 595c-.9 8-4.8 13.6-12.5 16.3a34.4 34.4 0 01-21 .3 11.6 11.6 0 01-4.4-2.6c-1.9-1.6-2-5.2-.7-6.6 1.5-1.6 5.3-2 7.1-.8a43.3 43.3 0 003.8 2.8c4.9 2.6 9.2 1.4 12-3.3 1.3-2 2.1-4.4 3.8-5.9s8-1.1 12-.2z" class="cls-1"/>
      <path d="M587.7 596c-3 6-3.8 6.3-9 2.6z" class="cls-1"/>
    </g>
  </g>
</svg>
