<svg xmlns="http://www.w3.org/2000/svg" viewBox="0 0 1200 1552.9"><defs><style>.cls-1{fill:#fff;}</style></defs><g id="Layer_2" data-name="Layer 2"><g id="Layer_1-2" data-name="Layer 1"><path class="cls-1" d="M1200,1552.9H0V0H1200ZM45.3,774.8v714.8c0,1.9-.1,3.8,0,5.6.6,10.1,7.9,17.1,18.1,17.3H1135.8c9.9-.3,17.1-7.2,17.8-17.1.1-1.4,0-2.8,0-4.2V58.8c0-1.4.1-2.8,0-4.2-.6-8.1-5.6-14.6-13.2-16.5a34.65,34.65,0,0,0-7.9-.6H62.5A17.4,17.4,0,0,0,46,51.1a39.18,39.18,0,0,0-.7,8.4Z"/><path d="M45.3,774.8V59.5a39.18,39.18,0,0,1,.7-8.4A17.2,17.2,0,0,1,62.5,37.5c1.9-.1,3.8,0,5.6,0H1132.5a34.65,34.65,0,0,1,7.9.6c7.5,1.9,12.6,8.4,13.2,16.5.1,1.4,0,2.8,0,4.2V1491.2c0,1.4.1,2.8,0,4.2-.7,9.9-7.9,16.8-17.8,17.1H63.4c-10.1-.2-17.5-7.3-18.1-17.3-.1-1.9,0-3.8,0-5.6Zm1103.5.3V60.7a62.71,62.71,0,0,0-.3-7.5,12.69,12.69,0,0,0-11.8-10.9c-1.4-.1-2.8-.1-4.2-.1H63.3c-7.1.3-12,4.9-12.8,12-.2,2-.2,4.1-.2,6.1q0,715.05-.1,1430.1c0,11.5,5.2,17.4,17.2,17.4q532.5-.3,1064.9-.1a29.46,29.46,0,0,0,4.2-.1,12.7,12.7,0,0,0,11.9-10.8,47.15,47.15,0,0,0,.4-7.5Z"/><path class="cls-1" d="M1148.8,775.1v714.3a47.15,47.15,0,0,1-.4,7.5,12.61,12.61,0,0,1-11.9,10.8c-1.4.1-2.8.1-4.2.1q-532.5,0-1064.9.1c-12,0-17.2-5.9-17.2-17.4q.15-715.05.1-1430.1a41.47,41.47,0,0,1,.2-6.1c.8-7.1,5.7-11.7,12.8-12H1132.5a29.46,29.46,0,0,1,4.2.1,12.51,12.51,0,0,1,11.8,10.9,47.06,47.06,0,0,1,.3,7.5V775.1ZM750.9,1330.5c.8-.6,1.5-1.2,2.3-1.9l-.5-.5c-.6.8-1.1,1.6-1.7,2.5s-1.4,1.7-2.1,2.5c.2.1.5.3.7.4C750,1332.6,750.5,1331.6,750.9,1330.5ZM497.5,509.6c1.5-.7,3-1.3,4.5-2,3.3-.8,6.6-2.1,10-2.4,12.4-1.2,24.9-2.2,37.4-3.2,4.5-.4,9.1-.5,13.6-.9,8.3-.9,16.5-1.3,24.8.1a24.59,24.59,0,0,0,4.7,0,33.75,33.75,0,0,0-10.9-2.8,82.8,82.8,0,0,0-12.2,0c-15.4,1.1-30.9,2.2-46.3,3.7-6.3.6-12.5,2.5-18.8,3.9-.8.2-1.5,1.1-2.2,1.6a4.16,4.16,0,0,0-4.6,2c-2,.3-3.9.7-5.8,1-3,1.2-5.9,2.4-8.9,3.6l.3.6c2.8-1.4,5.7-2.9,8.5-4.3A55.83,55.83,0,0,0,497.5,509.6Zm255.6,770.7c-1,1.2-2,2.4-2.9,3.7-.8.7-1.5,1.4-2.3,2.1.2.2.4.3.6.5l1.5-2.7c1-1.2,2-2.4,2.9-3.7.7-.8,1.3-1.7,2-2.5a2.51,2.51,0,0,1-.7-.4C753.9,1278.3,753.5,1279.3,753.1,1280.3Zm-281-483.8v3.8h.8c-.3-1.3-.6-2.6-.8-3.8-.8-.9-1.7-1.8-2.5-2.7-.1.2-.3.3-.4.5C470.1,795,471.1,795.7,472.1,796.5ZM347.9,844.7c-.1-1.1-.3-2.3-.4-3.4-.2,0-.4.1-.6.1a25.78,25.78,0,0,1,1,3.3c.7,1.3,1.3,2.6,2,3.9a4.35,4.35,0,0,1,.7-.4C349.7,847,348.8,845.9,347.9,844.7ZM739,1298.2a7.64,7.64,0,0,0-4.7,5.6c-2.4,2.2-4.9,4.4-7.3,6.6a6.47,6.47,0,0,0,.9.8c2.1-2.5,4.2-5,6.3-7.6,1.6-1.9,3.1-3.8,4.7-5.6,1-1.2,2.1-2.3,3.1-3.5l-.9-.6C740.4,1295.4,739.7,1296.8,739,1298.2Zm21.4,20.2c1.4-1.3,2.8-2.5,4.1-3.8-.3-.2-.5-.5-.8-.7-1.1,1.5-2.2,3-3.3,4.6l-2.4,2.4c.2.2.5.3.7.5C759.3,1320.4,759.9,1319.4,760.4,1318.4ZM247.1,862.6c-.1-1.5-.2-3-.4-4.5-.2,0-.4.1-.6.1.4,1.5.7,2.9,1,4.4,1.1,3,2.1,6.1,3.1,9.1a3.55,3.55,0,0,0,.9-.4C249.8,868.5,248.5,865.6,247.1,862.6Zm480.3,498.2c3.8-2.5,10.6-11,11.9-15.4-3.9,5.2-7.9,10.3-11.8,15.5-2.7,2.6-5.3,5.3-8,7.9a3.92,3.92,0,0,0,1,.8C722.8,1366.7,725.1,1363.7,727.4,1360.8ZM303.5,1018.1c-1.9,3.2-3.3,6.5-3,10.4.4,7.7.7,15.5,1,23.2.9-6.3.8-12.5.9-18.7.1-5,.7-9.9,1.1-14.9v-4.2h-.3Zm812.4-547.9c-5.7,1.7-11.3,3.6-17.1,5.1-6.6,1.6-11.8,5.8-17.6,8.8a13.57,13.57,0,0,0,3.6-.9c6.9-2.6,13.7-5.2,20.5-8,3.6-1.4,7-3.3,10.6-5,4.3,1,7.5-1.6,10.7-4C1123,467.6,1119.4,468.9,1115.9,470.2ZM820,915.6c-2.4-1.4-4.7-3.2-7.2-4-6.9-2.1-13.8-3.8-20.8-5.6a28.44,28.44,0,0,0-5.1-.6,10.27,10.27,0,0,0-2.7,1c11.2,3,21.7,5.9,32.3,8.7a23.08,23.08,0,0,0,3.7.3c-.8,1.6-2,3.2-2.5,5-1.5,6-3.9,7-9.8,6.9-1.4,0-2.9.1-4.3.2l-.3,1.2a8.27,8.27,0,0,0,2.9,1.6,20.86,20.86,0,0,0,5.6.4c6.8-.3,11.9-8.2,9.5-14.6C821.1,915.9,820.4,915.8,820,915.6ZM156.4,1198c-2.9-1.6-5.8-3.3-8.7-4.9-.1.3-.3.6-.4.9,3.1,1.3,6.1,2.6,9.2,3.9a66.16,66.16,0,0,0,6.3,4.5c19.1,10,35.2,23.8,50.8,38.3.5.4,1,.8,1.6,1.2a4.35,4.35,0,0,0,.6-.7c-1.8-1.9-3.4-4-5.3-5.7-8.7-7.4-17.4-14.9-26.5-21.8A129.53,129.53,0,0,0,156.4,1198ZM728.8,942.4a15.1,15.1,0,0,1,3,1c4.6,2.6,9,5.8,13.8,8,12.6,5.7,26.2,7.1,39.8,7.7a6.35,6.35,0,0,0,5.6-2.9c2.3-3.2,4-7.1,7.9-8.9.7-.3,1.1-1.5,1.4-2.4,1-2.6,1.9-5.3,2.7-8a9.56,9.56,0,0,0-.1-3c-3.4-1.2-6.2-2.2-9-3.1s-5.1-3.3-9-3c3.4,5,8.9,5.1,13.3,7.6l-2.1,5.7c-.2.4-.3.9-.5,1.3a7.16,7.16,0,0,1-9.1,3c-1.4-.6-2.6-1.9-4.4-.3.4,3.7,4.1,2.6,6,4.1-1.4,4.2-1.5,4.5-5.3,4.4q-7.95-.3-15.9-1.2c-8.4-.9-16.7-2.7-24.3-6.7-6.6-3.5-13.2-7.2-19.8-10.8a9.38,9.38,0,0,0-1.5-.6c-.1.2-.2.3-.3.5,2.7,2.5,5.4,5.1,8,7.6-2.2-1-3.8-.3-4.2,2a51.48,51.48,0,0,0-.9,8.8c-.1,4.1,1.3,5.9,5.3,6.3a61.16,61.16,0,0,0,12.1-.1,5.34,5.34,0,0,0,5-3.9c-6.4,1-12.5,1.6-18.5-.5A25.45,25.45,0,0,1,728.8,942.4ZM904.2,651.9c.2.4.7.8.7,1.2a175.22,175.22,0,0,1-.9,40.3c-1.6,10.7-2.9,21.4-2.5,32.3.2,5.9-.7,11.9-1.1,17.8-.5,6.2-1,12.5-1.4,18.7-.1,1.4-.6,3.1,1.3,4.5a49.34,49.34,0,0,0,3.9-14.2c1.5-12.6,3.3-25.2,2.8-37.9a44.53,44.53,0,0,1,.7-8.9c2.3-13.8,3.8-27.6,3.3-41.6-.1-2.9,0-5.8,0-8.7,1.9,4.4,3.8,8.8,3.9,13.4.3,9.8-.3,19.7-.7,29.6-.2,5.8-.9,11.5-1,17.3-.1,4,.5,8.1.7,12.1.1,2.8-.2,5.6,0,8.5.3,6.1,1,12.1-2.4,17.8-1.5,2.5-1.7,5.9,1.1,9.3a50.3,50.3,0,0,0,3-4.9,45.42,45.42,0,0,0,2.4-6.1,27.21,27.21,0,0,0,1.6-6.7c.1-7.8-.1-15.7-.3-23.5a11.8,11.8,0,0,0-.5-3.7c-1.5-4.4-1.4-9-.8-13.5a162.59,162.59,0,0,0,1.1-29.6A86.86,86.86,0,0,0,917,662c-1-5.5-2.3-11-3.4-16.5-1.2-5.3-2.3-10.7-3.6-16-2.3-9.1-4.9-18.1-7.2-27.2-1-3.8-1.3-7.7-2.3-11.5-3.4-12.9-7-25.7-10.4-38.5a55.08,55.08,0,0,0-6.1-14.6,211.58,211.58,0,0,1-12-21.3c-4.2-8.7-11.6-13.7-19.3-18.6-1.1-.7-2.4-.9-3.4.9a17.94,17.94,0,0,0,2.3,2.5c2.2,1.8,4.4,3.5,6.6,5.2a31.78,31.78,0,0,1,9.7,11.8c3.7,7.6,8,14.9,12.4,22.1a44.45,44.45,0,0,1,5.1,12.1c2.7,10.9,5.5,21.9,8.4,32.8.9,3.6,2.5,7.1,3.2,10.8,2.2,11.4,4.4,22.8,6.1,34.2,1,7.2,1,14.6,1.4,22-.9.6-2.3,1.1-2.7,2a26.1,26.1,0,0,0-1.2,5c-.9,3.5-1.7,7.1-2.6,10.6-.4.1-.7.1-1.1.2-2.4-3.1-4.7-6.2-7.1-9.3,0,3.9,2,6.7,4.1,9.3,1.9,2.3,2.7,4.4,1.1,7.1a3.76,3.76,0,0,0,.6,4.8,29.64,29.64,0,0,0,3-3.5c3.6-6.3,5.3-13.2,6.2-20.3A42,42,0,0,0,904.2,651.9ZM758.1,467.1c-2.4-4.5-6.1-8.8-6.9-13.6-1.1-7.2-.2-14.7-.1-22a3.49,3.49,0,0,1,.6-1.7c2.5-3.2,4.7-6.7,7.7-9.4a22.72,22.72,0,0,0,6.6-10.6c1.8-5.9,1.1-11.8.8-17.7,0-.3-.6-.6-1.3-1.2-.4,1.5-.7,2.6-1,3.7-1.2,4.9-2.2,9.8-3.6,14.6a10.87,10.87,0,0,1-2.8,5.3,42,42,0,0,0-10.3,12.6c-4.1.8-7.8,1.5-11.5,2.4-4.9,1.1-9.9,1.8-14.6,3.6-5.1,2-9.8,4.9-14.6,7.6-4.1,2.3-8.5,4.4-11.8,7.5-9.2,8.6-20.2,14.3-31.6,18.9-7.8,3.2-15.9,5.7-23.3,10-1.6.9-3.5,1.5-5.1,2.3-5,2.6-10,5.2-14.9,7.9-7.2,4.1-14.4,8.3-21.5,12.5a28.82,28.82,0,0,0-4.7,3c-6.8,5.6-13.5,11.3-20.1,17a73,73,0,0,0-18,23.3c-2.2,4.4-5.3,8.8-4,14.4.4,1.7-.6,3.7-.8,5.5-.3,2.6-.5,5.2-.8,7.9-.1.6.2,1.5-.2,1.8-2.2,2.1-1,4.3-.3,6.3-3,4.1-6,7.9-8.7,11.9-6.6,9.9-12.8,20.1-19.8,29.7-5.6,7.7-8.9,16.1-11.1,25.1-3,12.2-5.3,24.5-8.9,36.5-2.6,8.8-6.7,17.2-10.3,25.7-1.7,4-4,7.8-5.8,11.8-4.9,10.7-8.9,21.8-15.5,31.6a45.39,45.39,0,0,0-4.2,8.9c-2.2,5.5-4.2,11.1-6.4,16.7-.8,2.2-1.9,4.3-2.5,6.6-1.9,6.7-2.1,13.3,2.5,19.2,1.4,1.8,2.2,4.1,3.5,6.1,7.2,10.9,16.8,18.8,29.4,22.8a9.41,9.41,0,0,1,3.3,1.7c2.9,2.2,5.6,4.5,8.4,6.7,3.8,3,7.4,6.4,11.5,8.9a220.06,220.06,0,0,0,39.7,19.2c15.6,5.8,31,11.8,45,21.2a70,70,0,0,0,20.1,9c14.3,4,28.7,8,43.1,11.9,8.3,2.3,16.8,3.8,24.9,6.6,6.9,2.4,13.4,6,20,9.3,3.4,1.7,7.5,2.1,9.8,6.5a14.44,14.44,0,0,0,.4-2.1c-2.8-3.8-4.8-8.2-8.9-10.7s-8.4-5.4-12.9-7.6c-7.5-3.7-15.6-5.5-23.7-7.4-14.8-3.4-29.4-7.6-44.2-11.3a103.06,103.06,0,0,1-30.4-13.3,127.56,127.56,0,0,0-18.3-9.6c-14.4-6.2-29.4-10.8-43.5-17.8-10.4-5.2-20.7-10.4-29.5-18.2a35.71,35.71,0,0,0-10.2-6.6c-4.4-1.8-8.1-4.5-11.9-7.2a61.6,61.6,0,0,1-20.1-22,15.77,15.77,0,0,1-1.7-12.1,93,93,0,0,1,3-8.9c1.5-4,3-7.9,4.6-11.8,2-4.8,3.9-9.6,6-14.2,2.8-6.1,5.9-12.1,8.8-18.2,3.2-7,5.9-14.2,9.5-21a142.94,142.94,0,0,0,11.7-28.7c3.4-12.2,6-24.6,8.9-37,1.7-7,4-13.9,7.8-20.1,2.5-4.1,5.2-8.2,7.8-12.3,5.3-8.3,10.5-16.7,15.8-25,.7-1.1,1.6-1.9,2.3-3,3-4.2,5.9-8.5,8.8-12.7,4.9-7.1,9.4-14.5,15.9-20.3a178,178,0,0,0,20.5-22,16.92,16.92,0,0,0,1.7-2.9,6,6,0,0,0-.8-.8,26.57,26.57,0,0,0-4.5,2.9c-2.2,2-4.1,4.3-6.2,6.4-5,4.9-10.1,9.8-15.1,14.7-.1.1-.4-.2-.8-.4,2.5-4.2,4.9-8.4,7.6-12.4a23.52,23.52,0,0,1,4.5-5.4c9.7-7.8,19.3-15.8,29.4-23.2,4.5-3.3,9.8-5.5,14.9-8a16.56,16.56,0,0,1,5.4-1.4c5.7-.6,6.9.4,9,5.9,3.3,8.5,6.6,16.9,10.2,25.2a58.1,58.1,0,0,1,5.3,21.3,106.19,106.19,0,0,0,1.7,14.9,129.73,129.73,0,0,1,2.5,28.5c-.2,9.2-.3,18.5-1,27.7-1,14.1-2.5,28.1-3.8,42.1a27.92,27.92,0,0,1-1,3.9c-3.3-1.4-3.3-1.4-4.9.7-2.4,3.2-4.3,7.2-7.3,9.6-3.7,2.9-5,6.7-6.1,10.7a44.85,44.85,0,0,1-5.9,13.2,98.62,98.62,0,0,1-29.5,29.1c-1.2.8-2.3,1.7-3.4,2.5-2.5,1.6-4.8,3.6-7.5,4.7a31.75,31.75,0,0,0-17.1,16.5c-2.1,4.5-1.6,6.8,1.9,10.5.9.9,1.7,1.8,2.6,2.7,12.9,13.5,27.5,24.8,44.5,32.5a60.18,60.18,0,0,1,14.3,8.9c6.1,5.2,12.4,10.2,18,15.8,9,9.1,20,14.6,31.7,18.8,11.9,4.3,24.2,7.7,36.4,11.3,7.3,2.1,14.3,5.1,22.4,4.1,5-.7,10.3.6,15.5.6,10.2,0,20.3.4,30.5-.8,8.3-1,16.8-1.2,25.3.8,4.8,1.1,9.9,1,14.9,1,2.4,0,4.5,0,6.6,1.5,3.2,2.3,7,2.5,10.8,2.2,2-.2,3.5-1,3.2-3.8-4.8.7-9.6,1.6-14.3-2.4,3.9-.2,7-.4,10.1-.5s6.3,0,9.8,0c-1.1-3-3-3.6-5.1-3.5-3.8.1-7.5.2-11.3.5-4.2.3-8.5,1.5-12.6,1.1-7.7-.7-15.4-2.3-22.5-3.5,0-4.5-.2-8.4.1-12.3.4-5.6,1.1-11.2,1.8-16.8.5-3.6,1.4-7.1,1.7-10.7,1.1-14.1,2.1-28.1,1.7-42.3-.4-15.2-.4-30.4-.7-45.6,0-2.4-.4-4.9-.6-7.2,10.7-1.9,18.8-16.6,13.7-25.2-1.7,9.4-4.4,17.9-14,22.3a15.91,15.91,0,0,1-.8-3.6c-.4-4.8-.9-9.7-.9-14.6a437.78,437.78,0,0,0-2.5-51.2c-.5-4.5-1-9-1.7-13.5a67.68,67.68,0,0,0-2-7.4H799a26,26,0,0,0-.9,4.7c.2,8,.4,16,.8,24,.5,9.7,1.3,19.4,1.6,29.1.4,12.1,0,24.1,2,36.1a119.16,119.16,0,0,1,1.5,16.8c.2,17.7.5,35.5.1,53.2a199,199,0,0,1-2.9,31.8,129.77,129.77,0,0,0-1.9,28.5c.1,1.2,0,2.4,0,3.8-5.9.6-11.5,1.5-17.1,1.7-9.5.5-19.1.4-28.7.9a53.54,53.54,0,0,1-22-3.2c-12.3-4.5-25.1-8.1-37.8-11.5-9.3-2.6-17.8-6.8-26.1-11.6-3-1.7-5.5-4.1-8.2-6.3-7.1-6-14-12.1-21.2-18-4.5-3.7-9.6-6.3-14.9-8.9a151.35,151.35,0,0,1-22.8-13.1c-8.2-5.8-15.6-12.6-23.3-19-1.5-1.3-2.9-2.7-4.3-4,3.1-7.9,8.8-14.4,15.2-16.9a42.93,42.93,0,0,0,12.2-6.8c2.7-2.2,5.6-3.8,9.4-2.4,1.4.5,3.1.1,4.7.3,4.6.6,8.1-1.3,11.1-4.7a87.16,87.16,0,0,1,10.9-11c5.7-4.5,9.2-10.1,11.7-16.7a226.82,226.82,0,0,0,14.8-63.9c1.3-16.1,2.5-32.2,1.9-48.4-.3-7-1.1-14-1.8-21-.7-6.5-1.6-13.1-2.3-19.6a68.86,68.86,0,0,0-5.5-20.8c-3.7-8.4-7.1-17-10.7-25.6a33.22,33.22,0,0,0-2.3-5.1,8.64,8.64,0,0,0-6.9-4.4c-5.4-.3-10.6.1-15.4,3-2.3,1.4-4.7,2.6-7.1,3.8-13.5,6.7-24.1,17.3-35.5,26.9a22.64,22.64,0,0,0-2.5,2.8,115.14,115.14,0,0,0-15.4,26.8c-.8,1.9-1.2,4.1-4,5.3V548.4c4-4.9,7.9-9.9,12.1-14.8a158.88,158.88,0,0,1,31.4-28.2c4.2-2.9,8.9-5.2,13.4-7.9,9.5-5.7,18.7-12.1,29.2-16.1,2.2-.8,4.2-2.2,6.3-3.2,3.4-1.6,6.9-3,10.3-4.5,8-3.5,16-7,24-10.6,1.3-.6,2.3-1.6,3.5-2.3,2.9-1.8,5.9-3.6,8.8-5.4.6-.4,1.5-.7,1.7-1.3,1-3.5,4.1-5,6.9-6.6,5.1-3,10.4-5.8,15.6-8.6a24.89,24.89,0,0,1,5.6-2.4c5.8-1.5,11.5-2.8,17.4-4.1a39.53,39.53,0,0,1,5-.3c-.5,5.4-.8,10.3-1.3,15.1a28.63,28.63,0,0,0,2.7,14.6c5.2,11.9,10.2,23.9,14.7,36.1,5.7,15.3,10.7,30.8,16,46.2,2.1,6.1,4.6,12,6.6,18.1a70,70,0,0,1,3.4,12.7c.8,6.4,1.1,12.8,1.3,19.2.3,7.7.4,15.4.7,23,.1,2,.6,3.9.9,5.9h.9a41.5,41.5,0,0,0,1.1-4.8,223.31,223.31,0,0,0,.5-45.5,55.24,55.24,0,0,0-2.5-11.4c-5.4-16.3-11.2-32.6-16.6-49-4.5-13.6-9.3-27-15.8-39.7-.8-1.6-1-3.6-1.5-5.4l15.9,24.9c3.3,5.1,7.1,10,10.1,15.3,3.3,5.7,5.9,11.8,8.8,17.7a28.8,28.8,0,0,0,13.3,13.4c2.1,1,4.3,1.9,6.7.2-.6-3.4-3.3-5-5.5-6.8-3.4-2.6-6.5-5.4-8.4-9.3-2.8-5.6-5.3-11.4-8.4-16.8a137.25,137.25,0,0,0-10.6-16.6c-8.7-11.2-15.7-23.4-23-35.4-.6-.9-1.4-1.7-2.4-3.1-1.5,3.3-.6,5.6.2,7.9C756,461.9,757.1,464.5,758.1,467.1ZM945.9,330.4l1.3-3.9a35.5,35.5,0,0,0,.6-20.9c-1.2-4.2-.7-7.9.3-11.9,1.7-6.8,3.8-13.7,4.4-20.6,1.2-12.8,1.3-25.7,2.2-38.5a11.43,11.43,0,0,0-5.3-10.8c-7.5-5-15.5-9-24.8-9-12.3,0-24.3-2.9-36.4-4.4-11.2-1.4-22.3-3.8-33.5-5-14.9-1.7-29.7-3.7-44.6-4.7-7.9-.5-13.2,3.1-15,10.9a37.35,37.35,0,0,0-.9,4.6c-.6,5.7-2.6,11-4.9,16.1-2.8,6.1-5.7,12.2-8.5,18.3-2.5,5.5-5.9,10.8-5.3,17.3a4.07,4.07,0,0,1-.5,1.8c-2,6.4-4.1,12.8-6,19.3-.5,1.6-1.2,2.9-3.1,3.1-5.5.4-11,.8-15.5-3.5-1.4-1.3-2.9-2.4-4.3-3.6-5.2-4.5-10.4-9.1-15.6-13.6-4.4-3.8-9.3-6.2-15.4-5.7-5.5.4-7.7,2.3-7.7,7.8a84.72,84.72,0,0,0,1,11.2c.9,6.5,4.4,11.2,9.7,14.9,7,4.8,13.9,9.6,20.7,14.7,2.6,1.9,4.5,4.7,6.9,7a28.62,28.62,0,0,0,4.3,3.5c.5.3,1.8-.1,2.5-.6.4-.3.5-1.4.4-2.1a3.51,3.51,0,0,0-1.2-2c-3.4-3.4-6.6-7.2-10.4-10.2-6.4-5-13.1-9.7-19.8-14.3a22.17,22.17,0,0,1-8.1-24.6,8.45,8.45,0,0,1,1.7-.5c5.2-.9,9.1,1.6,12.8,4.7,8.4,7.4,16.6,14.8,24.9,22.2,4,3.5,8.1,6.8,12.6,10.6-2.9.3-5.4.5-7.8.7-2.6.3-4.9,1.1-6.5,3.3-.8,1.1-.9,2.2.6,3.5,3-4.3,7.5-4.1,11.9-4.1a29.46,29.46,0,0,0,4.2-.1,9.09,9.09,0,0,1,6.2,1.6c5.7,3.6,11.5,7,17.2,10.7a61.7,61.7,0,0,1,5.7,4.7c-3,4.4-5.7,8.4-8.6,12.7-2.2-2.8-4.1-2.1-6.1-.7-2.5,1.8-4.7,1.4-7.2-.3-3.3-2.3-5.5-5-6.1-9.1a7.27,7.27,0,0,0-8.8-6.2c-2.3.5-4.6.9-6.8,1.6-1.1.4-2.5,1.1-2.9,2.1-1.4,3.6-3.5,7.5-3.3,11.1.2,3.8-.9,6.9-1.8,10.3-.4,1.6-1.1,3.2.4,5,1.4-.9,2.5-1.7,4-2.8.9,4.3-2,7.2-2.5,11.2,3.6-.1,1.2,5.4,5.3,5.3,0-.6.1-1,.1-1.4-.3-4.3-1.8-8.5-.7-12.9.7-2.8-.8-4.3-3.1-4.5,1-5.4,1.7-10.4,2.9-15.4,1.3-5.9,4.7-8.2,11.3-8.1.1,1.2.2,2.5.3,3.8,1.4-.6,2.5-1,3.8-1.6a10.18,10.18,0,0,1-1.5,10.5c-5.3,6.9-3.8,13.8-1.4,21,.3,1,1.4,1.7,2.9,3.4,1.1-5.3-1.2-9-1.2-13,0-4.4,1.9-7.9,4-11.7.1,1.8.3,3.6.4,5.6,1,.4,2.5.6,2.8,1.3,1.2,3.8,4.4,2.5,6.7,3.3,1.4-1.8,2.6-3.3,3.8-4.9a10.37,10.37,0,0,0,1,.4,21.2,21.2,0,0,0-.6,4.3c0,1.1.3,2.8,1,3.2,1.5.8,2-.7,2.6-1.9,1.2-2.4,2.5-4.7,3.9-7,.5-.9,1.5-2.1,2.3-2.1,2.7,0,3.3-2,4.3-3.7s1.9-3.2,3-5c4.3,3.3,8.2,6.5,12.2,9.5a144.35,144.35,0,0,0,44,22.9c11.6,3.7,23.5,6.8,35.3,9.8a33.26,33.26,0,0,0,19-.6,16.91,16.91,0,0,1,5.5-.6c3.1.1,6.3.4,9.4.6a28.3,28.3,0,0,1,3.3.7c-1.1,2.1-2.1,3.7-3,5.3-2.6,4.8-5.4,9.5-7.8,14.4-5.3,10.8-10.6,21.7-15.6,32.6-4.5,10-9.9,19.6-12.7,30.3-1.7,6.8-5.5,12.2-10.4,17l-4.8,4.5c-7.3,6.5-16,8.4-25.4,6.9-4.9-.8-9.7-2.4-14.6-3.4-8.3-1.7-15.3-5.4-20.3-12.5-1.3-1.9-3.2-3.3-5.3-5.3-1,2.2-1.7,3.7-2.4,5.2-8.5-3.9-13.2-10.6-15.8-19.1a32.59,32.59,0,0,0-2-4.8c-.8-1.4-1.8-2.7-3.4-3,1.1,3.3,2.3,6.4,3.1,9.5,2.9,10.4,9.7,17.7,19,22.7a16.58,16.58,0,0,1,4.9,3.4,30.53,30.53,0,0,0,16.1,9.2c4.4,1.1,8.9,1.9,13.3,3a10.17,10.17,0,0,1,2,.9c-.3,4.2-.5,7.7-.9,11.3a13.06,13.06,0,0,1-1.2,4.4c-1.8,3.5-3.9,6.8-5.8,10.2-2.2,3.8-3.7,7.7.4,11.3.2.1.1.6.1.9-1.2,2.4-3.3,2.8-6.2,1.7,2.3,3,2.3,3,1.1,8.2-2.7-.8-5.3-.6-7.7,2.6,2.4.6,4.3,1.1,6.6,1.7.5,1.8,1.1,3.9,1.7,6s.7,4.4,3,5.3c2.5-2.6,2.9-3.3,3.1-5.7a12.79,12.79,0,0,0-4.5-11.7c5.3-1.1,5.4,4.7,9.2,5.4a44.76,44.76,0,0,0,1.1-5c.4-6.1-3.8-10.8-5.4-16.1,2.4-4.2,4.7-8.3,7-12.4a11.7,11.7,0,0,0,1.5-8.6,10.73,10.73,0,0,1,1.5-8.5,14.08,14.08,0,0,1,2-.1c12.2.2,22.6-3.6,31.2-12.7,5.6-6,9.9-12.4,12.2-20.3a124,124,0,0,1,5.7-15.4c6.7-14.5,13.6-28.9,20.4-43.4,4.1-8.6,8.3-17.2,12.5-26,3.4.3,6.8.7,10.2.9,9,.5,17.8-1.1,26.5-3.4,7.5-2,14.8-4.1,20-10.5a9.62,9.62,0,0,1,2.2-1.8c7.3-5.2,12.3-12.4,18.3-18.9a5.37,5.37,0,0,0,1-1.6c2.1-4.3-.1-7.9-4.9-8a11.79,11.79,0,0,0-4.2.4c-7.3,2.5-14.6,4.8-21.6,7.8-8.4,3.5-16.5,3.3-24.5-.7C952.1,336.7,948,335.1,945.9,330.4Zm-69,542.2c.8,2.3,1.5,4,2,5.8q.9,3.9,1.5,7.8c2,10.9,6.8,20.1,15.3,27.3,1.2,1,2.3,2.1,3.4,3.2,4.1,4.2,6,11.7,4.6,18.2-2.1-2.5-3.9-5-6.1-7.3-2-2.2-2.4-5.8-5.8-7-1.5,1.8-.9,3.5-.1,4.9,1.3,2.3,2.9,4.5,4.2,6.8,2.1,3.6,4.6,7.1,6.2,11,3.3,7.6,6.3,15.4,9.3,23.1,5.1,13.5,10.5,26.9,15,40.5,2.7,8.3,3.9,17.1,5.7,25.7a468.6,468.6,0,0,1,9.5,62.3,283.85,283.85,0,0,1-4.3,79.1c-5.4,26.7-12.5,52.7-24.5,77.3a188.61,188.61,0,0,1-36.3,51.7c-24.5,24.6-52.2,45.1-81.6,63.3a291,291,0,0,1-73.6,32.8,262.3,262.3,0,0,1-75.2,10.1c-6.4-.1-12.9-.3-19.3-.9-12.7-1.3-24.9-5-36.8-9.3-8-2.9-15.8-6-24.5-6.5-.7,0-1.4-.6-3-1.3,4.2-.3,7.3-.5,10.4-.9s6.2-.8,9.3-1.4c2.8-.5,5.6-1.3,8.4-2-20.3,3.6-40.4,4.7-60.6-.8,4.4,1.5,8.9,2.6,13.5,3.7,3,.7,6.2,1.1,9.1,2.2,13.7,5.3,27.3,11,41.1,16.1,11.8,4.3,24,7.4,36.6,8.1a276.2,276.2,0,0,0,121.5-20c22.1-8.8,42.4-20.9,62.2-34,26.8-17.8,51.5-37.9,73.4-61.5a165.47,165.47,0,0,0,23.3-32.4c18.9-33.7,29-70.2,34.9-108.2a250.69,250.69,0,0,0,2.6-45c-.2-8.3,0-16.7-1.2-24.9-2.7-19.2-5.9-38.4-9.1-57.6A227.93,227.93,0,0,0,921,976c-4.3-9.6-8.1-19.4-12.1-29.1a48.44,48.44,0,0,1-1.4-4.9h5.9c4.8,0,5.4-.6,6-5.2.2-1.6.1-3.2.7-4.6,2.6-6.8,1.7-13.7.3-20.4-2.5-11.8-4.5-23.7-4-35.9.1-2.9-.7-5.9-1.2-8.8-.8-5.1-1.7-10.1-2.7-15.4,5.2-2.1,10.2-4,15.1-6a8.81,8.81,0,0,0,2.4-1.1c1.6-1.2,2.9-2.7,4.6-3.9,8.2-5.6,16.3-11.1,24.6-16.5,6.7-4.4,13.4-8.7,20.1-13.1a10.2,10.2,0,0,1,6.2-1.7c6.9.4,12.1-3.2,17.7-8.2-6.2.7-9.9,5.7-15.5,5.4,5.9-3.4,11.2-8,18.8-10.1-1,3.1,0,4.7,2.1,5.7,1.9.9,3.7,2.6,6.1-.3-2.5-1.9-4.8-3.8-7.7-6.1,4.3-2.2,8.1-4,11.7-6.1,7.5-4.3,15.1-8.3,22.2-13.3a124.62,124.62,0,0,1,14.5-9.5c4.8-2.6,9.5-5.3,14.1-7.9-1-6.2-1.9-6.7-7-4.4-4.4,2-8.9,3.9-13.2,6.2-7.4,4-14.7,8.3-22,12.5-4.2,2.4-8.1,5.4-12.5,7.4-8.3,4-16.9,7.6-25.3,11.3a48.13,48.13,0,0,0-5.1,2.5c-.6.4-.7,1.5-1.5,3.4,9.6-4.1,18.1-7.8,26.6-11.4a10.3,10.3,0,0,1-3.5,3.4c-10.1,6.3-20.3,12.5-30.4,18.7q-40.35,24.6-80.8,49.2c-6,3.7-12.4,6.8-18.3,10.5-6.8,4.2-13.3,8.8-20,13.1-3.8,2.4-3.9,2.2-7.9.6v4.1c-4.2-.9-8-1.8-11.8-2.7-3.5-.8-7.7-.3-9-5-4.7-3.6-10.2-5.4-15.9-6.5-.8-.2-2,1-3,1.5.7.7,1.2,1.7,2.1,2.2,2.7,1.6,5.5,3,8.2,4.4a71.39,71.39,0,0,0,8.2,4.3c4.8,1.8,9.8,3.3,14.7,4.9-.3,1-.6,2-1.2,3.9,4.5-2.9,7.8-1.6,10.7,1.1a73.29,73.29,0,0,1,5.7,6.8c1.1,1.4,1.9,3.3,4.3,2.9.8-4.4.5-4.9-6.8-13.2.6-2,1.2-3.8,1.8-5.9C863.2,881.3,869.8,877.1,876.9,872.6ZM609,996.5c-3.3-.3-3.5,1.7-3.9,3.5-1.2,6.1-2.6,12.3-3.6,18.5a174.45,174.45,0,0,0-2.2,19.1,268.1,268.1,0,0,0,3.6,54.4c2.5,15.2.1,29.2-8.6,42.1a120.65,120.65,0,0,1-17.4,21,207.13,207.13,0,0,1-47.5,33.5c-14.8,7.7-30.3,13.7-45.7,19.9a350.83,350.83,0,0,0-42.5,20.1c-17.1,9.7-31.1,23.3-46.5,35-.6.5-.7,1.5-1,2.3a14.68,14.68,0,0,0,2.9.5c.6,0,1.1-.5,1.6-.9,5.8-3.7,11.7-7.3,17.5-11.1,7.5-4.9,14.7-10.1,22.2-15,16.9-11.1,35.4-18.9,54-26.4,13.9-5.6,27.8-11.3,41.1-18.3a206.37,206.37,0,0,0,44.7-31.8c9.1-8.5,17.2-17.9,23.1-28.9a53.16,53.16,0,0,0,3.1-8.4c.8,23.1,13.5,60.8,23.9,68.5-.4-1.5-.6-2.8-1-3.9-1.5-3.3-2.8-6.6-4.6-9.8-7.4-13.3-11.5-27.8-14-42.7a18.34,18.34,0,0,1-.2-4.7c.3-9.2,1.1-18.5.8-27.7-.1-5-.8-10.1-1-15.2-.5-9.8-2.5-19.6-2.9-29.5a334.49,334.49,0,0,1,.3-34.7c.4-7.9,2.3-15.8,3.5-23.7C608.8,1000.6,608.8,998.6,609,996.5Zm182.2-37.4c-.4.1-.8.1-1.2.2a19.93,19.93,0,0,0-.5,3.4c.1,2.7.5,5.3.7,8,.7,11.3,1.6,22.5-2.7,33.4a84.76,84.76,0,0,0-3.4,12.2c-.9,4.1-6.2,8.1-10.3,7.4-6-1-12-2.2-18-3a274.65,274.65,0,0,1-31.3-6.1c-15.3-3.9-30.9-6.8-46-11.5-18.4-5.7-37.3-9.8-56-14.2a80.36,80.36,0,0,1-21.4-8.2,95.66,95.66,0,0,0-18.9-8.2c-8.2-2.7-16.4-5.2-23.9-9.7-4.7-2.8-7.7-6.3-8.6-11.6-1.5-8.8-2.9-17.6-4.8-26.4-2-9.3-1.6-18.7-1.7-28.1-.1-8.6-.2-17.3-.3-25.9a21.54,21.54,0,0,0-.5-5.1c-.2-.7-1.1-1.3-1.7-2-.7.7-1.9,1.4-2,2.2a54.92,54.92,0,0,0-.5,7c-.7,17.2-2.7,34.4.4,51.6,1.9,10.3,3.8,20.7,5.8,30.9a16.12,16.12,0,0,0,8.6,11.2,159.39,159.39,0,0,0,18.7,8.8c10,3.7,20,7.1,29.4,12.4a66,66,0,0,0,16.1,6.4c10.6,2.8,21.4,4.9,32,7.4,3.4.8,6.7,1.5,10,2.6a481.09,481.09,0,0,0,61.2,16.6c5.8,1.2,11.5,2.9,17.3,4.2,12.7,2.8,25.9,2.9,38.4,6.7a4,4,0,0,0,1.8.3c1.5-.3,3.4-.3,4.3-1.3.7-.7.1-2.7.1-4.3,4.5-1.4,5.9-4.9,6.6-9.3a69.78,69.78,0,0,1,2.8-10.9,57.51,57.51,0,0,0,3.7-19.3c0-8.7-1.4-17.2-3-25.6A16.37,16.37,0,0,0,791.2,959.1ZM568.4,1406.9c0-.3.1-.6.1-.9a20.32,20.32,0,0,0-4.3-.7c-9.9-.4-19.7-.8-29.6-1.1-10.7-.3-21.4.2-32-.6-16.6-1.3-33-3.4-49.5-5.3a224.93,224.93,0,0,1-36.4-7c-27-7.6-51.6-20.2-74.6-36-1.8-1.2-4.6-1.7-4.6-4.8,0-.3-1-.6-1.5-.9-2.6-1.3-5.4-2.4-7.9-3.8-2.7-1.5-5.2-3.5-7.9-5-2.3-1.3-2.4-1.2-4.8,1.2-5.5-3-11.3-5.9-16.7-9.3a62.12,62.12,0,0,1-9.5-8.3,8,8,0,0,1-2.5-6.1c1.3-.4,2.4-.7,3.6-1.1,7.7-2.7,15.7-4.8,22.9-8.4,12.3-6.1,24.3-13.1,36.2-20A80.28,80.28,0,0,0,360,1281c3.2-2.6,6-5.6,7.2-9.7.6-1.9,2-2.7,3.6-3.4l14.4-6.9c14.2-6.7,26.4-16.2,37.8-26.9.5-.5.9-1,1.4-1.6a9.64,9.64,0,0,0-4.8,1.8c-3.5,2.4-7.1,4.7-10.4,7.3a141.47,141.47,0,0,1-26,15.9c-5.2,2.5-10.6,4.8-15.7,7.5-7.2,3.7-14.4,7.7-21.5,11.7-2,1.1-3.6,2.8-5.5,4.2a4.05,4.05,0,0,1,.5.9c7.2-2.3,13.5-6.6,20.8-8.9a47.84,47.84,0,0,1-12.2,9.8c-12.9,7.4-25.8,14.8-39,21.8a80.43,80.43,0,0,1-25.3,8.5c-3.5.5-4.5,2.3-3.5,5.7A25,25,0,0,0,291,1332a118,118,0,0,0,14.4,8.8c5.7,2.9,11.7,5.2,17.6,7.9a51.91,51.91,0,0,1,6.5,3.7c12,7.8,23.5,16.2,35.9,23.3a209.61,209.61,0,0,0,72.8,25.6c11.6,1.8,23.3,3,35,4.4,16,1.9,32.1,3.5,48.3,2.9,11.6-.5,23.2-.6,34.8-1C560.3,1407.6,564.3,1407.2,568.4,1406.9Zm186.1-748a7.19,7.19,0,0,1-.4-1.9c-.1-9.1-.7-18.2-.2-27.3a68.78,68.78,0,0,0-4.6-29.5c-5.9-14.7-7.7-30-6.4-45.6.6-8-1.5-15.5-3.4-23.1-1.1-4.3-4.4-6.3-8.8-6.4a58.63,58.63,0,0,0-23,4.2c-6.3,2.5-8.6,8.2-6.5,14.6,1.1,3.4,2.2,6.9,3.2,10.3,1.3,4.4,2.5,8.7,5.6,12.3,1.9,2.2,3.4,4.9,5.3,7.2,2.6,3.2,4,6.9,5.4,10.7,1.7,4.5,4.2,8.7,6.2,13.1,2.9,6.3,2.5,13,3.3,19.8-1.3-.1-2.1,0-2.8-.1a241,241,0,0,0-38-2.5,13.43,13.43,0,0,0-2.7.7c0,.2.1.4.1.7,14.3.9,28.6,1.8,43.2,2.8,0,2.8.1,5.2,0,7.7-.3,4.8-1,9.7-1.1,14.5-.3,13.2-.4,26.3-.3,39.5a167.68,167.68,0,0,0,1.2,18.7c.7,5.9,6.2,9.5,12,8.3a15.64,15.64,0,0,0,13-15.2c.2-7.5-.3-15-.5-22.6v-6.9c12.2.4,13.2.4,20.4-4a67.42,67.42,0,0,0,10.1-7.7c3.4-3.1,3.8-6.6,1.5-9.6C778.7,652.8,769.2,660.6,754.5,658.9Zm90.2-131.5-.6.9c1.6,2.3,3.1,4.7,4.9,6.8,10.2,11.5,16,24.6,15.5,40.2-.2,5.2-.2,10.4-.3,15.5-.4,19.4-.6,38.9,2.5,58.2a185.81,185.81,0,0,1,1.3,44.1,95.17,95.17,0,0,0,.3,22c1.7,11.9,1.3,23.8,1,35.7-.2,7.7-1.4,15.3-1.4,23,.1,8.4,1.1,16.9,1.8,25.3.5,6.2,1.5,12.5,1.7,18.7a67.47,67.47,0,0,0,3.6,18.4c.5,1.6,1,3.3,3.7,3.7.1-2,.5-3.8.4-5.6-.8-7.8-1.7-15.6-2.5-23.3-.5-5.3-.9-10.6-1.4-15.9-.2-2.5-.3-5-.7-7.5a94.16,94.16,0,0,1-.1-29.5c2.1-13.5,1.6-27-.1-40.3a131,131,0,0,1-.6-23.4c.4-7.7,1.1-15.3,1-23-.1-7.2-1.2-14.3-1.8-21.5-1-10.9-3.1-21.7-3-32.7.2-17.1-.1-34.2-.2-51.3a17.09,17.09,0,0,0-.5-4.6c-3.4-11.9-10.1-21.8-19-30.3A30.52,30.52,0,0,0,844.7,527.4ZM831,879.5c1.9.1,2.8.4,3.6.2,5.6-2,11.5-3.4,16.7-6.2,9-4.8,18.7-8,27.9-12.3a167.35,167.35,0,0,0,23.5-12.8c6.1-4.1,12-8.6,18.5-12.1,11.1-5.9,21.4-13.1,31.9-19.8,2.6-1.6,5-3,8.1-3.2,1.7-.1,4.1-.9,4.7-2.1.8-1.6,1.9-1.7,3.2-2.2,3.1-1.1,6.3-2,9.1-3.7,4.7-2.9,4.9-8.7.4-12.1-4.1-3.1-8.6-5.8-13.7-7-1.5-.4-3.1-.8-4.5,0,4.9,2.8,9.6,5.5,14.4,8.2,3.1,1.7,4.2,4.4,4.3,8-2,.9-3.9,2-5.9,2.7-3.8,1.4-7.6,2.7-11.5,4a17.7,17.7,0,0,1-2.3.1c-3.3.4-5.6-1.6-8.2-3-4.6-2.5-8.2-1.6-10.8,2.9-.7,1.3-1.5,2.8.2,3.6.7.4,2.3-.3,3.1-1,3.7-3.3,4.7-3.2,8.1.9-10,6-19,13.7-30.7,17.4.5-7.6-.5-14.6-3.7-21.1a22.57,22.57,0,0,0,.1,4.5c.3,3.4.8,6.9.9,10.3.1,2.8.9,6.2-.4,8.1-1.5,2.2-4.9,3-7.5,4.5a5.58,5.58,0,0,0-.8.5c-1.6,1-2.8.2-3.7-1a9.75,9.75,0,0,1-1.4-2.9c-4.7-12.1-5.3-24.4-2.6-37a31.06,31.06,0,0,0,.4-3.2c-3.2,2.7-4.1,6.1-4.3,9.7-.3,3.3-.2,6.6-.8,9.8-1.1,6,.1,11.9,1.3,17.7.3,1.6.9,3.1,3.1,3.7,1.1.3,1.8,2.1,2.8,3.3-4.5,1.8-5.9,2-11.1,1,0-1.3.1-2.7,0-4.1a27,27,0,0,0-.8-4.1c-2.6-12.3-3.4-24.4,1.8-36.4,3.3-7.7,4.3-16,4-24.3-.1-1.9-.1-3.7-2.9-4.8-.3,2.3-.8,4.2-.9,6.1-.2,3.8,0,7.5-.2,11.3a9.13,9.13,0,0,1-1.4,4.3,43.25,43.25,0,0,0-7.6,27.6c.5,8.4.9,16.9,5.5,24.4a3.23,3.23,0,0,1,.3,1.7c.2,3.2.7,3.8,3.7,4.1,1.6.2,3.1.2,5.8.4-13.6,10-27.9,15.9-42.4,21.5-2.9,1.1-6,2.1-8.4,3.9a15.81,15.81,0,0,1-11.5,3.1,48.52,48.52,0,0,0-6.6-.2,8.57,8.57,0,0,0-2.6,1c1.4,3,4.4,1.7,6.3,3.3A35.06,35.06,0,0,0,831,879.5ZM246.7,540.2a.9.9,0,0,0,.1.5c3.6-.2,7.2-.5,10.7-.7,7.3-.5,14.7-.9,22-1.7,9-1,17.7-4.1,27-3.2.5,0,.9-.2,1.4-.2a149,149,0,0,1,38.9-.1c7.3.8,14.6,1.4,22,1.8,5.2.3,10.4.2,15.5.1,10.2-.2,20.4-.2,30.2,3.3a5.66,5.66,0,0,0,1.8.3c8.9.6,17.8,1.4,26.7,1.8a57.61,57.61,0,0,1,18.4,3.4c1.6.6,3.4,1.4,4.2,2.7,2.4,3.6,5.7,4.4,9.7,4.5,6.6.3,13.2.5,19.6,1.7,8.3,1.5,16.4,4.1,24.7,6a70.85,70.85,0,0,0,20,2,37.45,37.45,0,0,0-4.5-1.2c-8.6-1.8-17.3-3.3-25.7-5.6-11.4-3.1-22.7-6.1-34.7-5.3-.5,0-.9-.1-1.4-.1a6,6,0,0,1-5.2-2.7c-1.6-2.5-4.2-3.6-6.9-4.6-7.7-2.7-15.6-3.3-23.6-3.3-9.1,0-18.2-.4-27-3a52.57,52.57,0,0,0-16.7-2.2c-6.6.1-13.2-.1-19.8.1a139.77,139.77,0,0,1-25.8-1.6,60.39,60.39,0,0,0-8.4-1.1c-11.9,0-23.9-.3-35.7.5a32.83,32.83,0,0,1-15.8-3,264.89,264.89,0,0,0-28-10.8,187.35,187.35,0,0,0-25.8-5.3,162.38,162.38,0,0,1-45.3-13.6c-3.8-1.8-8-2.8-11.9-4.3-6.9-2.5-13.9-5-20.8-7.4-2.2-.7-4.6-1.5-6.8-1.3-6.7.6-13.3,1.7-20,2.5-6.2.8-12.4,1.8-18.6,2.1-7.7.4-15.4.1-23,.1v1c8.6,0,17.1.1,25.7,0,4.5-.1,9.1-.4,13.6-.9,6.1-.7,12.1-1.7,18.2-2.5a21.39,21.39,0,0,1,11.4,1.9c5.7,2.5,11.7,4.4,17.6,6.6,6.5,2.4,12.9,4.8,19.4,7.1,7.7,2.7,15.2,6,23.1,7.9,12.9,3.1,26.1,5.2,39.2,7.8a91.07,91.07,0,0,1,12.7,3.3c6.9,2.5,13.7,5.5,20.5,8.4a16.56,16.56,0,0,1,2.5,1.6,16.57,16.57,0,0,1-2.1,1c-9,1.4-18,2.8-27,4C257.4,539.4,252.1,539.7,246.7,540.2Zm91.1,89.9c.1.1.1.4.2.4a4.92,4.92,0,0,0,1.7.6c5.2-.2,7.9,2.8,8.8,7.4,1.2,5.7,2.7,11.4,2.8,17.1.2,13.2-.2,26.3-.6,39.5-.3,7.6-1.6,15-6.2,21.4-4.3,6-10.3,8.8-17.6,9.2-8.4.5-16.8,1.1-25.3,1.5-3.2.2-6.3.2-10.3.4a27.92,27.92,0,0,0-.9,4.4c-.3,10.8-.4,21.6-.8,32.4-.4,10.3-.9,20.7-1.6,31-.4,5.9-1.1,11.8-1.5,17.8-.4,7-.8,14.1-.9,21.1-.3,14.3-.4,28.5-.5,42.8a8.39,8.39,0,0,0,.7,2.6,6.6,6.6,0,0,1,1.4.1c.8-11.4,6.6-21.5,7.9-32.8-2.6,4.1-2.9,9.2-6,13.1a16,16,0,0,1-.5-4.8c.4-15.5.8-31,1.3-46.5.1-3.6.6-7.2,1-10.8.5-4.7,1.2-9.3,1.4-14,.6-15,1-30.1,1.5-45.1.1-1.8.3-3.7.4-5.5a15,15,0,0,1,2.2-.6l23.8-2.7c5.9-.6,11.8-1,17.2-4a24.76,24.76,0,0,0,9.1-7.9c5.1-7.4,6.5-15.8,6.9-24.6.3-9.4.5-18.8.7-28.2.2-9.9-.6-19.7-4.1-29.1a17.45,17.45,0,0,0-3.4-5.5C344.2,628.4,341.6,628.3,337.8,630.1ZM275.3,128c-5.9-3.9-12.3-7-19.2-8.2-25.1-4.6-49.3-2.5-72.1,9.9a68.55,68.55,0,0,0-22,19.5,42,42,0,0,0-8.7,29c1,17.3,7.6,32.6,17.6,46.4a68.82,68.82,0,0,0,12.9,13.5c16.5,13,35.1,13.4,54.5,8.4a22.08,22.08,0,0,0,2.4-1c-7.8.4-15.9,1-24,1.1-14,.2-26.1-5-35.9-15-13.9-14.1-21.9-31.2-24.4-50.8a39.63,39.63,0,0,1,8.7-30.8,68.82,68.82,0,0,1,21.2-18.3c20.8-11.2,43.1-13.5,66.2-11C260.5,121.8,267.9,124.8,275.3,128ZM687,648.1a9.41,9.41,0,0,0-.9,1.9,8.52,8.52,0,0,0,.3,2.3c2.1,5.2,2.3,10.6,2.6,16.1a64.29,64.29,0,0,0,2.4,15.2,111.26,111.26,0,0,1,4.1,19.7c1,8.1,1,16.4,4.2,24,4,9.5,4.2,19.1,2.2,29-.9,4.6-1.2,9.3-1.7,14a9.58,9.58,0,0,0,4.1,9c6.2,4.7,13.1,5.6,20.5,3.5,1.7-.5,3.5-1.3,3.4-4.3a54.15,54.15,0,0,1-5.7,0c-3.9-.4-7.8-.6-11.5-1.7-4.1-1.2-5.5-3.5-5.2-7.8s1-8.4,1.7-12.5c1.4-8.3,1.9-16.4-1.2-24.5a97.53,97.53,0,0,1-4.7-15.7c-1.2-5.8-1.6-11.8-2.5-17.7-.5-3.6-.8-7.3-2.1-10.6-3.2-8-4-16.3-4.3-24.8-.2-3.8-1.5-7.6-2.7-11.3C689.6,650.6,688.3,649.7,687,648.1ZM269.9,590.2c2.1-.8,3.2-1.3,4.3-1.6,8.6-2.4,13.2-.4,15.4,6.7,1.7,5.5,3.5,11.2,4,16.9a190.17,190.17,0,0,1-.4,41.3c-.9,6.7-1.3,13.4-1.7,20.1a14.69,14.69,0,0,0,.8,5.5c1,3,1.7,3.4,4.9,3,3.9-.5,7.7-1.5,11.6-1.7,7.8-.4,12.1-5,14.2-11.7,1.9-6.1,2.8-12.6,4.2-18.9l-1-.3a36.56,36.56,0,0,0-1.8,4.6c-.8,3.2-1.5,6.4-2.2,9.6-1.7,8.2-5.7,12.2-13.9,13.5-4.7.8-9.5,1.4-14.3,2.2.4-4.4.7-8.5,1.1-12.5.7-7.2,1.9-14.3,2.1-21.5.4-9.1,0-18.2.1-27.3.1-7.8-2.1-15.2-4.1-22.6a23.3,23.3,0,0,0-3-6.4C285.5,582,274.9,582,269.9,590.2ZM966.1,864.3c-.9-2-1.5-3.6-2.3-5a1.6,1.6,0,0,0-3.1.6c-.6,3.9,4.3,9.6,8.1,9.2,7.6-.7,15.1-2.5,21.1-7.1,4-3.1,7.2-7.8,9.4-12.5,2.8-6,5.5-12.3,4.3-19.4a12.75,12.75,0,0,1,.1-1.9c0-2.7,1.1-4.5,3.5-6.1a13.06,13.06,0,0,0,5.5-15.1c-.1-.2-.5-.4-.7-.6-1.7,1-1,2.3-.6,3.6,1.5,5.7,0,8.5-5.4,10.7-2.3,1-5.1,1.4-6.8,3-3.6,3.2-7.4,3.6-11.8,3-1.7-.2-3.5-.1-5.2-.3-5-.7-10.3-.7-13-6.7-.9,3.3-1.1,3.6.3,4.6,2.5,1.8,5,4.2,7.9,4.8a85.36,85.36,0,0,0,16.7,1.8c2.8.1,6-.7,6.8-4.6-.8,5.6.6,11.5-3.6,16.2a4.79,4.79,0,0,0-.9,2.6c-.6,4-2.9,5.5-6.8,5.6a8.55,8.55,0,0,0-6.9,2.6c3.2.6,5.9,1.1,9.5,1.7C984.3,862.3,975.2,863.1,966.1,864.3Zm-555.5,359a1.85,1.85,0,0,0,.2-.7,9.23,9.23,0,0,0-2.5-1.5,41.56,41.56,0,0,0-6.9-1.2c-9.5-.5-19.1-.9-28.7-1a62.56,62.56,0,0,0-12.1,1.5c-7.2,1.4-14.4,3.4-21.6,4.6-16.3,2.7-32.2,1.9-47.2-6-6.4-3.4-12.7-6.8-19-10.3-4.4-2.4-8.8-4.9-13.2-7.3a21.36,21.36,0,0,0-2.7-.9,2.44,2.44,0,0,0,1.1,1.7c10.2,6.1,20.3,12.5,30.8,18.2a71,71,0,0,0,33.3,8.8c12.5,0,24.6-2.3,36.7-5.2,4-.9,8-2,12-2.1,8.6-.2,17.2.1,25.8.4C401.4,1222.4,406,1222.9,410.6,1223.3Zm577.1-679c1.2-.7,2.5-1.3,3.7-2a69.73,69.73,0,0,1,37.7-10c16.1.1,31.9-1.6,47-7.4,4.1-1.6,8.1-3.2,11.6-6a35.44,35.44,0,0,1,15-7.5c5.7-1.2,11.4-2.1,17.1-3.2,5.2-1,10.4-2,15.6-3.1,1.3-.3,2.5-1.3,3.8-2a10.37,10.37,0,0,1-.4-1c-1.2.2-2.4.5-3.6.7-9.4,1.7-18.7,3.6-28.2,4.9a44.35,44.35,0,0,0-21.4,9c-1.7,1.3-3.5,2.9-5.5,3.6-7.2,2.5-14.5,5-21.9,6.9-9.3,2.3-18.9,2.3-28.5,2.4a87.25,87.25,0,0,0-26.3,4.3A31.83,31.83,0,0,0,987.7,544.3Zm-794,158.1-.9-.3c-.7,2.5-1.8,5-1.9,7.5-.8,11.7-1.5,23.6.6,35.2s7.9,21,20.7,23.9a7.37,7.37,0,0,1,1.4.4c7.9,3.3,16.3,2.7,24.6,2.5.9,0,1.7-.7,2.6-1a5.17,5.17,0,0,0-3.4-1.9,52.89,52.89,0,0,0-8-.5c-7.9.3-14.8-3.6-22.3-5.4a5,5,0,0,1-1.9-1.3c-6.4-6.3-11.5-13.2-11.4-22.8.1-7.1-.1-14.1-.1-21.2ZM729.1,993.6c.2-.5.5-1,.7-1.5a21.6,21.6,0,0,0-4-2.7,49.38,49.38,0,0,0-8.4-3c-10.2-2.3-20.5-4.5-30.8-6.6-6-1.2-12.1-2.3-16.9-6.5-4.7-4-9.9-7.7-13.1-13.3a2.66,2.66,0,0,0-2.2-1,2.53,2.53,0,0,0-1.1,2.2,12,12,0,0,0,2.3,4.5c3.6,3.7,7.3,7.4,11.2,10.7a31.44,31.44,0,0,0,15.2,7.1,297.12,297.12,0,0,1,40.4,8.8A52.77,52.77,0,0,0,729.1,993.6Zm53.7-298a10.87,10.87,0,0,0-1.8.1c.3,6.8.5,13.7.9,20.5.4,5.9,1.7,11.9,1.3,17.8-.9,10.9.1,21.6,1.3,32.3.1,1.2.2,2.5.3,3.7a6.91,6.91,0,0,1-2.4,6.3c-1.6,1.4-3,2.9-4.6,4.4l.3.9c1.1,0,2.5.4,3.2-.1,4-2.6,7.8-5.4,7.4-11a45.33,45.33,0,0,0-.3-5.2c-2.2-16-4.7-32,.1-48a12.61,12.61,0,0,0,.4-2.8c1.1-9.4,2.4-18.8,2.2-28.3-2.2,12.4-2.8,25.1-5.9,37.4C782.4,714.5,783,705,782.8,695.6Zm-2.4-310c-3.3-.2-5.9-.2-8.5-.6a5.32,5.32,0,0,1-3.1-1.7,62.4,62.4,0,0,1-5.3-7.1c-2.8-4.2-5-8.9-5-13.9.1-9.7-1.1-19.4.8-29,.3-1.7.7-3.8-2.4-5.2-.2.5-.5,1-.7,1.6a115.47,115.47,0,0,0-2.1,12.9c-.4,5.4-.2,10.9-.4,16.4a32.42,32.42,0,0,0,8.2,22.8,33,33,0,0,1,2.6,3.9c2.7,4.4,11.3,5.6,14.9,2C779.8,387.4,779.9,386.7,780.4,385.6ZM999.3,528.8c0-.2-.1-.4-.1-.6-1.7,0-3.4.1-5.2,0-12.2-.6-24.4-1.1-36.6-1.9a14.24,14.24,0,0,1-10.6-5.3,7.73,7.73,0,0,0-6.2-2.8,101.48,101.48,0,0,0-52.3,12.3,12.13,12.13,0,0,0,4.3-.4c3.2-.9,6.3-2,9.4-3a105.43,105.43,0,0,1,37.4-5.9c2.1.1,4.1,0,5.5,1.9,3.3,4.1,7.8,5.6,12.7,6.3a154.21,154.21,0,0,0,38.4.3C997.2,529.4,998.2,529,999.3,528.8ZM936.2,776.2c-.1-.1-.6-.8-1.2-1.5-3.9-4.5-7.8-9-11.8-13.4-1.1-1.2-2.4-3-5.3-2.2.5,1.3.7,2.6,1.5,3.3,6,5.7,9.9,13.3,16.8,18.3.2.1.6,0,.9,0,.3-.7.6-1.4.7-1.6,5,0,9.7.1,14.3,0q7.95-.15,15.9-.6a36.25,36.25,0,0,1,19.8,4.9,29,29,0,0,0,4.1,1.6c.2-.4.5-.7.7-1.1a31.94,31.94,0,0,0-4-4.2,28.48,28.48,0,0,0-14.9-5.2,115,115,0,0,0-11.7-.3C953.6,774.7,945.2,775.5,936.2,776.2Zm-633.9,292c-13.3-9.4-23.1-21.4-30.6-35.3s-12.2-28.5-16.2-43.5a9.13,9.13,0,0,0,0,3.3c3.2,22.1,10.8,42.4,24.5,60.3a65.11,65.11,0,0,0,15.9,14.6C297.6,1068.8,299.4,1070,302.3,1068.2Zm-54-345.6a7.77,7.77,0,0,1-.2-1.6c-4-.1-8-.1-12-.3-3.1-.1-6.3-.3-9.4-.5-2.2-.1-3.4-1.2-3.4-3.6.1-2.2-.2-4.4-.2-6.6.2-13.3.6-26.6.7-39.9a43.39,43.39,0,0,0-1.7-10.6c-1-3.9-2.7-5.1-6.7-5.3a9.31,9.31,0,0,0-8.3,3.6,83.74,83.74,0,0,0-5.3,7.9,14.25,14.25,0,0,0,4.4-3,31.5,31.5,0,0,1,5.6-4.2c4-2,7.1-.6,8,3.9a69.27,69.27,0,0,1,1.2,10.2c.2,3.9.1,7.8.1,11.7,0,10.3.1,20.7-.1,31-.1,5.2.7,7,6,7.7a167.06,167.06,0,0,0,17.3.9C245.6,724,247,723.1,248.3,722.6ZM679.6,618.1c.3.8.6,1.7.9,2.5,1.5,3.6,2.9,7.2,4.4,10.8a43.65,43.65,0,0,0,3.9,7.4c2.7,3.8,5.8,7.3,8.5,11.2,6.2,8.9,15.9,10.9,25.6,12.7a1.38,1.38,0,0,0,.9,0c.9-.7,1.7-1.4,2.6-2.2-.7-.7-1.3-1.8-2.2-2.1a86,86,0,0,0-10-2.5c-7.2-1.2-12.1-5.3-15.7-11.4a19.24,19.24,0,0,0-3.7-4.8,25.19,25.19,0,0,1-7.7-12.5C686.1,623.3,684.1,619.7,679.6,618.1ZM219,1310.1c.1,1,0,1.3.2,1.5a17.41,17.41,0,0,0,1.2,1.4c9.2,9.4,19.1,18.3,30.6,24.7q20.4,11.25,41.3,21.4c9.9,4.9,20.6,6.5,31.6,6.8C283.8,1357.4,249.7,1337.4,219,1310.1ZM392.5,849.5l-.9.3c3,9.4,6,18.7,9,28.1.2.6.5,1.4.9,1.6,2.8,1.3,2.3,3.8,2.4,6.1a40,40,0,0,0,3.1,16c.5,1.2.8,2.6,3.2,2.9-3.2-10.4-3.7-20.7-3.9-31s-.6-20.6-.9-30.9c-1.9,9.9-1.7,20-2.5,30C398,865.4,397.3,856.5,392.5,849.5ZM818,906.8c.2,1,.1,2,.6,2.3,3.9,2.4,7.9,4.7,11.9,7.1,3.9-1.1,6.9,1.4,10.2,2.5,2.7.9,5.2,2.2,7.9,3a7.41,7.41,0,0,0,8.7-2.9c2.4-3.3,4.8-6.7,2.6-11.1-.1-.2-.5-.2-1.3-.4-1,1.9-2.1,3.9-3.2,5.9-2.4,4.2-3.8,4.7-8.4,3-4.1-1.5-8.1-3.2-12.3-4.5-2.5-.8-4.5-1.9-5.6-4.6C825.2,911.5,822.2,905.8,818,906.8Zm70.4-228.3c-.3,0-.7-.1-1-.1a37.83,37.83,0,0,0-1,4.6c-1.1,20.3-2.6,40.7-.7,61a9.41,9.41,0,0,0,4.4,7.4c.7.5,1.8.3,3,.5-1.5-2.9-3.3-5.1-3.7-7.6a92.72,92.72,0,0,1-1.3-15.8c-.1-7.7.3-15.3.3-23C888.5,696.5,888.4,687.5,888.4,678.5ZM304.2,206.6c-2.8,4.4-5.7,9.8-9.4,14.5-15.2,19.4-35.4,31.4-59,37.8l-4.2,1.2C258.4,261.2,298.8,230.8,304.2,206.6ZM577.7,958.8c3.3,4.7,52.2,27,58.7,27.4-17-12.2-37.3-17.7-55.8-27A8.85,8.85,0,0,0,577.7,958.8ZM711.8,806.5c-9.3,10.9-9.3,10.8-22.8,18.4-3.1,1.8-6.2,3.6-9.3,5.5-1.5.9-4,1.7-2.8,4s3.4.7,4.9-.2c7-3.9,14-7.7,20.7-12a38.45,38.45,0,0,0,7.8-7.3C712.3,812.8,712.9,810,711.8,806.5Zm18.6-25.4c1.2,2.6,3.9,2.7,6.2,2.9,12.4,1,24.7,1,36.3-4.4a7.83,7.83,0,0,0,2.4-1.3,4.27,4.27,0,0,0,.6-2.9c0-.3-1.7-.8-2.4-.6-2.7.7-5.3,1.9-8,2.6-3.7,1-7.5,2.4-11.3,2.5-6.7.3-13.4-.1-20.1-.3C732.8,779.6,731.3,779.2,730.4,781.1ZM876.7,444a4.25,4.25,0,0,0,.2-1.1,31.4,31.4,0,0,0-5.8-2.2c-3.3-.8-6.8-1.3-10.2-1.8-5.7-1-11.4-1.4-17-3.3-4.2-1.4-8.9-1.2-13.4-1.6-.6-.1-1.5.1-1.7.5a2.67,2.67,0,0,0-.1,2.3c.3.5,1.3.6,2.1.8,6.1,1.4,12.5,1.1,18.3,3.8a2.77,2.77,0,0,0,.9.1c6,.9,12.1,1.8,18.1,2.5C870.9,444.2,873.9,444,876.7,444Zm7.5,163.1-1.1.8c1.4,3.1,2.7,6.3,4.1,9.4,3.2,7,5.9,14.2,7,21.8.7,5.1,1.2,10.2,1.9,15.4.2,1.9.1,4.1,2,5.3,2.2-.6,1.7-2.2,1.6-3.5-.3-3.3-.7-6.5-1-9.8-1.1-11.2-3.7-21.9-9.4-31.7C887.7,612.2,885.9,609.7,884.2,607.1ZM873.6,418.3c-3.1,3.1-6.3,3.2-8.8.6-1.6-1.6-2.7-3.8-5-4.7-.3,4,3.4,8.8,6.9,9.2,2.9.3,4.9-.8,7.3-2.9,5.3-4.5,5.9-10,5.3-16.1-.5-5.3-1.5-10.5-2.3-15.8-.2-1.5-.1-3-2.2-4.4a19.88,19.88,0,0,0-.6,4.4c.1,2.8.5,5.6.7,8.4.3,3.6,1,7.2,1,10.8,0,5.9-1.5,7.6-7,9.4-.2.1-.2.5-.4,1C870,418.3,871.5,418.3,873.6,418.3ZM257.1,626.9h-.9a23.69,23.69,0,0,0-.9,3.6c-1.6,12.7-3.6,25.4-4.6,38.2-.6,8.1-1.5,16.2-2.7,24.2a73.77,73.77,0,0,0,0,21.5Q252.65,670.6,257.1,626.9Zm417.2-92.2c-2.2,8.8-.3,17.9-1.8,26.7s-3.5,17.8-5.4,27.1C675.2,575.5,679.9,542.1,674.3,534.7ZM782.4,658.9c-2.5,1.8-2.2,4-1.9,5.9,1.2,7.8,2.7,15.7,4.1,23.5.3,1.6.6,3.4,3,3.9.3-1.1,1-2.2.8-3.1-1.5-9.5-3.1-19-4.7-28.5C783.6,659.9,783,659.5,782.4,658.9ZM234.5,1225.8a47.78,47.78,0,0,0,16.7,21.5,173.78,173.78,0,0,0,34,18.8,27.26,27.26,0,0,0,16.4,2.1c-5.6.4-10.9-1.1-15.9-3.4a216.87,216.87,0,0,1-32-17.7,59,59,0,0,1-15.5-15.6C237,1229.6,235.8,1227.7,234.5,1225.8ZM414.3,823.7c-.2,1.8-.6,3.6-.7,5.5-.2,8.1-.6,16.3-.5,24.4,0,4,.7,8.1,1.1,12.1.2,1.6.7,3.5,2.6,3.3,1.6-.2,3-1.3,4.5-2.1.2-.1.2-.9.1-1.4a1.91,1.91,0,0,0-.3-.8c-1.2.2-2.3.3-4,.5C415.2,851.2,416,837.4,414.3,823.7Zm99.3-156.9c.2,5.5.6,11.3.7,17,.1,5.2-.1,10.3-.1,15.5,0,3,1,5.6,4.1,7.2C519.5,701.4,515.9,671.5,513.6,666.8Zm-265.9,108a166.61,166.61,0,0,0-4.2,48.2C244.2,806.9,249.1,791.2,247.7,774.8Zm689.5,70.7c.2,4.1,1.9,6,5.9,6.3,2.8.2,5.6.1,8.4.1a8.76,8.76,0,0,1,6.5,2.2c.6.6,1.9.5,2.8.8.1-1.2.5-2.5.1-3.4a6.56,6.56,0,0,0-2.8-2.9,23.15,23.15,0,0,0-6.3-1.5c-4.3-.3-8.7.4-12.8-1.8A11,11,0,0,0,937.2,845.5Zm-105,8c2.9,0,3.3-2.3,4-4.1,3.1-8,2.9-16.3,2-24.6a7.07,7.07,0,0,0-3.1-5.6c0,6.2.4,11.8-.1,17.3C834.5,842.2,833.2,847.8,832.2,853.5ZM320.6,1020.6c-3.1,7-6.1,14-9.2,20.9-2.9,6.5-4.9,13.5-9.4,19.3a4.61,4.61,0,0,0-.3,5.3C307.5,1058.4,319.4,1030.6,320.6,1020.6ZM719.5,714.4c.4,0,.8.1,1.2.1a19.92,19.92,0,0,0,.4-4.2c-.1-7.2-.1-14.4-.5-21.6-.1-2.3-1.2-4.5-1.9-6.7-1.2-3.9-2.5-7.7-3.7-11.6-.4-1.2-.8-2.3-1.2-3.5a4.87,4.87,0,0,0-1.1.4,32.78,32.78,0,0,0,3.5,14.7,20.58,20.58,0,0,1,2.2,10q-.15,3.3,0,6.6C718.8,703.9,719.2,709.1,719.5,714.4ZM162.4,1294.5c3,1.6,6,3.3,9.1,4.8,11.5,5.7,22.9,11.6,32,21,1.4,1.5,3.3,2.5,5,3.8.2-.3.4-.7.6-1C196.9,1308.3,179.9,1300.9,162.4,1294.5ZM770.3,437.2c0,13,9.2,36.9,21.4,45.5C781.7,469.1,775,453.9,770.3,437.2Zm73.3,11.7a18.33,18.33,0,0,0,3.5,2.4,95.8,95.8,0,0,0,10.8,3.1,27.25,27.25,0,0,0,7,.6,3.52,3.52,0,0,0,2.7-1.8c.6-1.4-.7-2.2-2-2.5-.3-.1-.6-.1-.9-.2-4.9-1-9.7-2-14.6-2.9C848.2,447.1,846.2,446.6,843.6,448.9ZM837.5,693h-1.4a16.66,16.66,0,0,0-.8,3c-.2,3.6-.2,7.2-.4,10.8a7.31,7.31,0,0,0,4.4,7.6,43.3,43.3,0,0,0,7.9,2.7c.8.2,1.8-.3,2.7-.5a31.87,31.87,0,0,0-7.2-3.9c-3-1.3-4.9-3.3-4.4-6.9a15.27,15.27,0,0,0,0-3.7C838.1,699,837.8,696,837.5,693ZM613.8,655.2c7.5-1.3,14.2-3.6,19.9-8.2,6.8-5.5,12.8-12.6,13.4-16.5-1.4,1.6-2.5,2.9-3.6,4.1-6.4,7.8-14.2,13.6-23.8,16.7a23.46,23.46,0,0,0-4.3,1.9C614.8,653.6,614.4,654.5,613.8,655.2ZM731,986.9c6.3,2.4,10.9,1.5,14.8-2.9,5-5.7,7.4-12.6,8-20.1,0-.3-.4-.6-.9-1.3-.7,1.9-1.2,3.3-1.8,4.8-1.8,4.2-3.3,8.4-5.4,12.4a12.12,12.12,0,0,1-10.7,6.6C733.9,986.4,732.7,986.7,731,986.9ZM293,1050c-7.6-7.4-8.8-18.2-14.7-26.3a94.59,94.59,0,0,0,7.1,20.8,26.67,26.67,0,0,0,2.2,3.6A4.28,4.28,0,0,0,293,1050ZM831.2,813.8c2.4-9.7,1.9-30.4-1-35.2v33.5C830.2,812.5,830.6,812.8,831.2,813.8ZM205.4,1280.6c-6-1.7-12.4-3.3-18.6-5.4s-11.9-4.7-17.9-7.2-11.7-4.8-17.6-7.3C166.7,1269,193.4,1280.3,205.4,1280.6Zm-31.6-252.1c-9.8-9.7-15.1-21.2-21.3-32.1a77.4,77.4,0,0,0,14.8,27.9A9.74,9.74,0,0,0,173.8,1028.5ZM96.5,772.6c.2,10.4,10.8,29.5,19.6,35.3C108.1,797,100.1,786,96.5,772.6ZM815.6,534.1c-.6,5.6-1.2,11.3-1.8,16.9a6.75,6.75,0,0,0,.2,1.4q1.05,5,5.1,1.5c.1-.1,0-.5.1-.8a20.62,20.62,0,0,0-2.1.2C817.2,546.8,820.6,540.2,815.6,534.1ZM389.9,1278.5c-.3-.9-.3-1.2-.5-1.4-2.9-2.8-6.1-1.7-9.1-.5-3.3,1.3-6.1,3.4-6.4,7.4-.2,2.1.9,3.5,3,3.3a31.55,31.55,0,0,0,6.1-1.3c0-.3-.1-.6-.1-.8-2-.2-4-.3-6.1-.5A9.56,9.56,0,0,1,389.9,1278.5Zm77.2,4.5c0-.3.1-.5.1-.8a16.05,16.05,0,0,0-3.1,0c-2.7.6-5.2,1.6-5.8,4.7s.1,5.7,2.6,7.5a10.89,10.89,0,0,0,4.1,2.2c4.5,1,8.9.3,13.4-.6-.3-.5-.3-.7-.4-.7l-8.9-.3a9.66,9.66,0,0,1-6.9-2.5c-2.9-2.7-2.4-6.2,1.1-8.1C464.4,1283.9,465.8,1283.5,467.1,1283Zm93.6-346.8,1.1-.3c-1-13.6-.5-27.3-2.8-40.8-.3,0-.7.1-1,.1C558.9,908.9,559.8,922.5,560.7,936.2Zm504.7,69.2c4.1.5,4.3.5,5.7-3.1,2.6-6.7,5.1-13.4,7.7-20.1.5-1.2.9-2.5,1.3-3.7a4.44,4.44,0,0,0-2,2.1c-2.9,6.7-5.8,13.4-8.7,20.2C1068.6,1002.8,1068.1,1004.9,1065.4,1005.4ZM973.8,839.3V841c5.8,1.2,11.6,1.9,17.5,0a1.86,1.86,0,0,0,1-3C986.2,838.4,980,838.8,973.8,839.3ZM551.9,1209.9c-5.1-.8-8.9.2-11.6,4.3-4.1,6.2-1.8,16.8,5,21.3-.9-1.4-1.5-2.5-2.1-3.5-2.7-4-3.2-8.5-2.6-13.1a9.67,9.67,0,0,1,7.6-8.5A25.58,25.58,0,0,1,551.9,1209.9ZM531.4,824.2c6.8,5.5,29.2,15.8,35.3,16.4C554.7,835,543,829.6,531.4,824.2ZM772.1,466.3c.3,0,.7-.1,1-.1.1-8.9-4.5-25.2-8.3-29.1,1.3,4.8,2.7,9.5,3.9,14.3C769.9,456.4,771,461.4,772.1,466.3Zm154.3,590.8c-1.9,5.7.5,17.5,3.9,20.7.3.3,1.1.1,2.1.2.1-2.2.2-4.1.3-6.6-.7,1.1-1.2,1.8-1.9,2.9C927.9,1069,927.4,1063.3,926.4,1057.1Zm29.7-224.8c-1,2.3-.5,3.9,1.4,5.1s3.6,2.6,5.5,3.4c1.5.6,3.2,2,5.8.5-3-1.9-5.4-3.5-8-5.1.8-1.4,1.5-2.6,2.2-3.8C960.7,834.9,958.4,834,956.1,832.3ZM466.9,988c-4,10.2-7.9,20.4-11.9,30.6C460.7,1009,465,998.9,466.9,988Zm4.5-134.6c-2.7,9.2-5.4,18.5-8.1,27.7C467.9,872.5,470.3,863.3,471.4,853.4Zm-187,438.5c-10-2.6-18.9-4.9-27.8-7.2C265.1,1288.7,273.8,1291.7,284.4,1291.9Zm332.5-188c1.2-2.6-1.1-4.4-1.3-6.5-.3-2.5-1-4.9-1.5-7.4-.5-2.1.4-4.5-1.3-6.8C610.5,1089.8,612.6,1099.8,616.9,1103.9Zm46.6-233.8a49.66,49.66,0,0,0,22.2,23.3C677,886.9,669.3,879.5,663.5,870.1ZM439.9,1247.9c2.6-1.9,4.7-3.6,7-5a67.59,67.59,0,0,1,7.1-3.6c2.3-1,4.7-1.9,7-2.9a36,36,0,0,0-19,7.4C440.8,1244.9,439.4,1245.9,439.9,1247.9ZM593.1,767c10,3.5,19.8,6.8,30.3,7.6C613.2,772.1,603.1,769.5,593.1,767Zm-15,467.1c0-.3-.1-.7-.1-1-1.5,0-3.1-.1-4.6,0-3.9.3-5.4,3-3.6,6.5,1.5,3,4.1,4.9,7.8,6.4-2.2-2.6-4.1-4.4-5.5-6.6-1.6-2.6-.9-4,2.1-4.7ZM363.7,829.6a3.55,3.55,0,0,1-1,.2,74.7,74.7,0,0,0,1.9,14.1c.1.3.2.7.4.8.6.4,1.4,1,1.9.8a1.92,1.92,0,0,0,.9-1.8c-.7-2.9-1.6-5.7-2.4-8.6C364.8,833.3,364.2,831.5,363.7,829.6ZM307.4,1076c5.6-6.1,10.4-12.7,12-21.1-1.4,2.4-2.6,4.9-3.9,7.4-1.3,2.3-2.8,4.5-4.2,6.8S307.4,1073,307.4,1076Zm119,191.5a19.63,19.63,0,0,0-13.3-.4,8,8,0,0,0-2.7,2.2c-.2.2.4,1.5.6,1.5a10,10,0,0,0,3.4-.5,61.31,61.31,0,0,1,6-2.2A29.78,29.78,0,0,1,426.4,1267.5ZM1112,741.7c-3.5,9.3-5.1,18-3.8,27.4C1109.4,760.1,1110.6,751.3,1112,741.7ZM456.8,986.1a126.55,126.55,0,0,0-13.6,24.3c4.4-7.2,8.4-14.5,12.4-21.9C456.1,987.7,456.4,986.9,456.8,986.1ZM288.9,883.7c4.9-3.4,11.5-13.3,12.1-18C296.9,871.7,292.9,877.7,288.9,883.7Zm153.6-29.9c-.3-.1-.6-.2-1-.3-2.4,8.5-4.8,16.9-7.2,25.4l1,.3C437.7,870.8,440.1,862.3,442.5,853.8ZM973.2,521c4.4.3,20.1-4.1,27.5-7.8C991.3,515.9,982.3,518.4,973.2,521ZM957,843.8c3.4,3.8,8,4.9,11.7,7.5-.2-4.4-4.4-4.9-6.7-7.1C960.9,843.1,959.5,841.7,957,843.8ZM439,885.6c.5-3.6.8-6.7,1.3-9.8s1.2-5.9,1.8-8.8C437.1,876.6,436.4,881.3,439,885.6Zm477.3,120.7c-.5,0-.9-.1-1.4-.1,0,2.9.1,5.9,0,8.8-.2,3.9-1.1,4.8-4.9,5.4-.5.1-1.1.2-2,.3,4.4,2.1,7.7.6,8.2-3.8A93.72,93.72,0,0,0,916.3,1006.3ZM725.1,1314.6v-.1L706.3,1333l.2.2Q715.8,1323.75,725.1,1314.6ZM293.7,986a10.63,10.63,0,0,0,1.1-.9c-4.4-5.7-8.7-11.5-13.1-17.2-.3.2-.5.4-.8.6C285.1,974.3,289.4,980.2,293.7,986ZM872.1,566.6c.6,8,1.2,16,1.7,21.9C872.7,582.6,876.1,574.4,872.1,566.6ZM540.2,1270.9c-2.6-1.1-5-1.6-6.8-2.9a18.78,18.78,0,0,1-4.5-5.2c-1.1-1.8-1.6-4-2.4-6C526.5,1265.2,532.7,1271.8,540.2,1270.9Zm-134,45.5c-7.6-1.9-8.6-7.9-2.6-16.1-4.5,2.3-5.9,5.3-4.7,10.6C399.9,1315.1,401.4,1316.3,406.2,1316.4ZM853.5,805a50,50,0,0,1-5.8,4.5c-2,1.2-4.3,1.9-6.9,3.1C847.2,813.5,850.9,811.4,853.5,805ZM184.1,828.9a6.47,6.47,0,0,0-1.3.4c1.5,4.8.2,10.2,3.3,14.5l1.1-.3C186.1,838.7,185.1,833.8,184.1,828.9ZM849.6,414.2c-1.2-2.7.5-5.9-2.1-8.4-2.9,2-2.3,4.7-1.7,7.2C846.2,414.5,847.3,415.5,849.6,414.2Zm-124.1,512a38.22,38.22,0,0,0,13.1,15.1C734.2,936.3,729.8,931.3,725.5,926.2ZM140.9,1063,128,1050.7C131.2,1056.2,135.2,1060.8,140.9,1063ZM352.5,774.3c-2-3.6-4.2-7.4-6.5-11.4C346.8,770.9,348.7,773.9,352.5,774.3Zm628.2,80.4c-5.2-2.2-8.9-2-11.8.3C972.7,856.3,976.2,856.2,980.7,854.7ZM499.3,1236.2c-8.9-.1-12.9,3.2-10.9,9.5C488.2,1237.4,494.6,1238.4,499.3,1236.2ZM267,877.8c-2.9,3.8-4.8,8.1-4.1,13C264.2,886.5,265.6,882.1,267,877.8ZM115.2,776.3c-.4,9.6.2,13.7,2.4,16.1C116.8,787.2,116,781.6,115.2,776.3ZM773,351c-4.2,1.6-5,3.6-3.9,7.8C770.5,356.1,771.8,353.6,773,351ZM276.5,1084.2c-3.9-2.9-7.7-5.9-11.6-8.8A25.94,25.94,0,0,0,276.5,1084.2ZM765.1,619.3c5.4,2.9,8.7,3.2,11.6,1.5C772.7,620.3,768.9,619.8,765.1,619.3ZM566.3,1184.8c-4.9,1.8-6.1,3.9-4.4,7.7C563.3,1190.1,564.8,1187.6,566.3,1184.8ZM342.7,949.3l2.1-10.2C342.8,942.2,341.3,945.5,342.7,949.3Zm30.2,253.3c.1-.3.1-.5.2-.8-4.6-1.5-9.3-3.1-13.9-4.6a1.85,1.85,0,0,0-.2.7C363.6,1199.5,368.3,1201.1,372.9,1202.6Zm554.2-86.7c0,3.6-.1,6.6.1,9.7.1,1.4,1,2.1,2.7,1C926.1,1123.9,928.6,1119.7,927.1,1115.9ZM280,1202.5a2.77,2.77,0,0,1-.1.9c5,.3,9.9.6,14.9.8a1.7,1.7,0,0,1,.1-.7C289.9,1203.2,284.9,1202.8,280,1202.5Zm-41.4-189v.2c-2.4-2.3-4.8-4.6-7.1-7l.1-.1C233.8,1008.9,236.2,1011.2,238.6,1013.5Zm431.8,294c.1,0,.1,0,.2-.1-2,2.2-4,4.4-5.9,6.7l-.2-.2C666.4,1311.8,668.4,1309.6,670.4,1307.5ZM379.4,1204l-.6.6,10.2,3.6a1.45,1.45,0,0,0,.2-.7C385.9,1206.4,382.6,1205.2,379.4,1204ZM352,1322.9c-2.3,2.5-1.9,4.5-.3,6.8C351.8,1327.4,351.9,1325.4,352,1322.9Zm422.1-951c.3-4.4.3-4.4-4.1-4.8C771.4,368.7,772.5,370,774.1,371.9Zm79.6,40.3c3.8,1.6,4.1,1.6,5.4-.9C857.1,410.6,855.3,410.2,853.7,412.2ZM815.4,812.4c2.7,2.5,2.7,2.5,6.3,1.8C819.5,813.6,817.5,813,815.4,812.4ZM335.8,846h.7c-.3-2.6-.7-5.3-1-7.9a.9.9,0,0,0-.5.1C335.2,840.8,335.5,843.4,335.8,846Zm53.9,23.3c-.2.1-.5.2-.7.3.9,2.4,1.7,4.8,2.6,7.2a1.85,1.85,0,0,1,.7-.2C391.4,874.1,390.5,871.7,389.7,869.3ZM877.8,422.4c4.2-.7,4.2-.7,4.1-4.4C880.6,419.4,879.5,420.5,877.8,422.4ZM702.4,454.1v.1h7.9v-.1ZM524.2,1384.2c0-.1-.1-.2-.1-.3H517v.3ZM348.3,1193.6c-.2.2-.4.5-.6.7,1.8.6,3.7,1.2,5.5,1.8.1-.2.1-.4.2-.6C351.7,1194.9,350,1194.3,348.3,1193.6ZM961.4,800.3c2.1-1.1,3.4-1.7,5.4-2.7C964.3,797.4,962.7,797.4,961.4,800.3ZM842,1226.4h0v4.2h0Zm-331.5-8.1h0c1.7.1,3.3.1,5,.1v-.1ZM930.6,890.9c.2.1.3.3.5.4l2.7-3.3c-.2-.1-.3-.3-.5-.4Zm-52-183.5a.76.76,0,0,0-.1.4v3.4h.1ZM242.7,862.3c-1.5,1.4-2.4,2.3-.9,4.4C242.2,864.9,242.4,863.9,242.7,862.3Zm59.4,343.6v.3h3.6v-.2C304.5,1206,303.3,1206,302.1,1205.9Zm400,130.7c-.1-.2-.3-.3-.4-.5-.8.7-1.6,1.3-2.4,2,.1.2.3.3.4.5C700.5,1338,701.3,1337.3,702.1,1336.6ZM877.7,721.1h-.1v3.1h.1ZM191.1,1199.2c.1.2.1.4.2.6h2.6v-.4A26.35,26.35,0,0,1,191.1,1199.2Zm69.4-127.3-.3.3c.3.3.7.5,1,.8a1.38,1.38,0,0,0,.3-.4A3,3,0,0,1,260.5,1071.9Zm485.4,218c-.2-.2-.4-.3-.6-.5-.4.5-.8,1.1-1.2,1.6.2.1.3.3.5.4A17.38,17.38,0,0,1,745.9,1289.9Zm198-319.5c.3.1.5.2.8.3.2-.7.4-1.3.6-2a6.37,6.37,0,0,0-.7-.2C944.4,969.2,944.1,969.8,943.9,970.4Zm-146.6,344-.2-.2c-.2.2-.5.3-.6.5a4.88,4.88,0,0,0-.3.7A11,11,0,0,0,797.3,1314.4Zm-143.9,8.8c.1.1.2.2.2.3a10.63,10.63,0,0,0,1.1-.9c-.1-.1-.1-.2-.2-.3A7.29,7.29,0,0,0,653.4,1323.2Zm134.2,1.5.3.3a11,11,0,0,1,1-1.1l-.3-.3C788.3,1323.9,788,1324.3,787.6,1324.7ZM419.6,875h-.4v2.2h.3C419.5,876.5,419.6,875.8,419.6,875ZM225,880.6c.2-.1.3-.2.5-.2a14.17,14.17,0,0,1-.8-1.8c-.2.1-.3.1-.5.2A14.17,14.17,0,0,1,225,880.6Zm470.6,461.6-.4-.4c-.4.5-.9.9-1.3,1.4a1.38,1.38,0,0,0,.4.3A8,8,0,0,1,695.6,1342.2Zm-8.6,6.6c-.1-.1-.2-.3-.3-.4l-1.4,1.1c.1.1.2.3.3.4A13.44,13.44,0,0,0,687,1348.8ZM309.2,801h-.1c0,.6.1,1.1.1,2.6Z"/><path d="M758.4,467.8a33.21,33.21,0,0,0,1.5,5.4c6.5,12.7,11.3,26.2,15.8,39.7,5.4,16.4,11.2,32.6,16.6,49a50.59,50.59,0,0,1,2.5,11.4,230.55,230.55,0,0,1-.5,45.5,41.5,41.5,0,0,1-1.1,4.8h-.9c-.3-2-.8-3.9-.9-5.9-.3-7.7-.4-15.4-.7-23-.3-6.4-.5-12.9-1.3-19.2a72.29,72.29,0,0,0-3.4-12.7c-2-6.1-4.5-12-6.6-18.1-5.4-15.4-10.4-30.9-16-46.2-4.5-12.2-9.6-24.2-14.7-36.1a28.63,28.63,0,0,1-2.7-14.6c.5-4.8.8-9.6,1.3-15.1a26.36,26.36,0,0,0-5,.3c-5.8,1.3-11.6,2.6-17.4,4.1a24.89,24.89,0,0,0-5.6,2.4c-5.3,2.8-10.5,5.6-15.6,8.6-2.8,1.6-5.8,3.1-6.9,6.6-.2.6-1.1.9-1.7,1.3-2.9,1.8-5.9,3.6-8.8,5.4-1.2.7-2.3,1.7-3.5,2.3-8,3.6-16,7.1-24,10.6-3.4,1.5-6.9,3-10.3,4.5-2.1,1-4.1,2.3-6.3,3.2-10.5,4-19.7,10.4-29.2,16.1-4.4,2.7-9.1,4.9-13.4,7.9a165,165,0,0,0-31.4,28.2c-4.1,4.9-8.1,10-12.1,14.8v15.4c2.7-1.1,3.2-3.3,4-5.3a115.14,115.14,0,0,1,15.4-26.8,16.68,16.68,0,0,1,2.5-2.8c11.3-9.6,22-20.1,35.5-26.9,2.4-1.2,4.8-2.4,7.1-3.8,4.8-2.9,10-3.3,15.4-3a8.64,8.64,0,0,1,6.9,4.4,33.22,33.22,0,0,1,2.3,5.1c3.6,8.5,7,17.1,10.7,25.6a68.86,68.86,0,0,1,5.5,20.8c.7,6.5,1.6,13.1,2.3,19.6.7,7,1.6,14,1.8,21,.6,16.2-.7,32.3-1.9,48.4a226.82,226.82,0,0,1-14.8,63.9c-2.5,6.6-6,12.2-11.7,16.7a87.16,87.16,0,0,0-10.9,11c-3,3.4-6.5,5.3-11.1,4.7-1.6-.2-3.3.2-4.7-.3-3.8-1.4-6.7.2-9.4,2.4a44.32,44.32,0,0,1-12.2,6.8c-6.4,2.4-12.1,9-15.2,16.9,1.4,1.3,2.8,2.7,4.3,4,7.7,6.4,15.1,13.2,23.3,19A170.69,170.69,0,0,0,624,798.9c5.3,2.6,10.4,5.2,14.9,8.9,7.1,5.9,14.1,12,21.2,18a55.8,55.8,0,0,0,8.2,6.3c8.3,4.7,16.8,9,26.1,11.6,12.7,3.5,25.4,7,37.8,11.5a55.26,55.26,0,0,0,22,3.2c9.5-.5,19.1-.4,28.7-.9,5.6-.3,11.2-1.1,17.1-1.7V852a129.77,129.77,0,0,1,1.9-28.5,211.21,211.21,0,0,0,2.9-31.8c.4-17.7.1-35.4-.1-53.2a117.85,117.85,0,0,0-1.5-16.8c-1.9-12-1.5-24.1-2-36.1-.3-9.7-1.2-19.4-1.6-29.1-.4-8-.6-16-.8-24a27.71,27.71,0,0,1,.9-4.7H801a67.68,67.68,0,0,1,2,7.4c.7,4.5,1.2,9,1.7,13.5a437.78,437.78,0,0,1,2.5,51.2c0,4.8.5,9.7.9,14.6.1,1.1.5,2.1.8,3.6,9.6-4.4,12.2-12.9,14-22.3,5.2,8.6-2.9,23.3-13.7,25.2.2,2.4.6,4.8.6,7.2.3,15.2.3,30.4.7,45.6.4,14.1-.6,28.2-1.7,42.3-.3,3.6-1.3,7.1-1.7,10.7-.7,5.6-1.4,11.2-1.8,16.8-.3,3.9-.1,7.8-.1,12.3,7.1,1.1,14.7,2.7,22.5,3.5,4.1.4,8.4-.8,12.6-1.1,3.7-.3,7.5-.4,11.3-.5,2.1-.1,4,.5,5.1,3.5-3.5,0-6.7-.1-9.8,0s-6.2.3-10.1.5c4.7,4,9.4,3.1,14.3,2.4.3,2.8-1.2,3.6-3.2,3.8-3.8.4-7.6.2-10.8-2.2-2.1-1.5-4.2-1.5-6.6-1.5-5,0-10.1.1-14.9-1-8.4-1.9-16.9-1.8-25.3-.8-10.2,1.3-20.3.8-30.5.8-5.2,0-10.4-1.3-15.5-.6-8.1,1-15.1-1.9-22.4-4.1-12.2-3.6-24.4-7-36.4-11.3-11.7-4.2-22.7-9.8-31.7-18.8-5.6-5.7-11.9-10.6-18-15.8a60.18,60.18,0,0,0-14.3-8.9c-17-7.8-31.6-19-44.5-32.5-.9-.9-1.7-1.8-2.6-2.7-3.6-3.7-4-6.1-1.9-10.5a31.75,31.75,0,0,1,17.1-16.5c2.7-1.1,5.1-3.1,7.5-4.7,1.2-.8,2.2-1.7,3.4-2.5A98.62,98.62,0,0,0,630,705.3a43.47,43.47,0,0,0,5.9-13.2c1.1-4,2.4-7.8,6.1-10.7,3.1-2.4,4.9-6.4,7.3-9.6,1.6-2.1,1.6-2.1,4.9-.7a18.64,18.64,0,0,0,1-3.9c1.3-14,2.8-28.1,3.8-42.1.7-9.2.8-18.5,1-27.7a129.73,129.73,0,0,0-2.5-28.5,93.14,93.14,0,0,1-1.7-14.9,60.16,60.16,0,0,0-5.3-21.3c-3.7-8.3-7-16.8-10.2-25.2-2.1-5.4-3.3-6.5-9-5.9a16.56,16.56,0,0,0-5.4,1.4c-5.1,2.5-10.4,4.7-14.9,8-10,7.4-19.7,15.3-29.4,23.2a21.23,21.23,0,0,0-4.5,5.4c-2.6,4.1-5,8.3-7.6,12.4.3.2.7.5.8.4,5.1-4.9,10.1-9.8,15.1-14.7,2.1-2.1,4-4.4,6.2-6.4a34.61,34.61,0,0,1,4.5-2.9,6,6,0,0,0,.8.8,27.55,27.55,0,0,1-1.7,2.9,164,164,0,0,1-20.5,22c-6.5,5.8-11,13.2-15.9,20.3-2.9,4.2-5.9,8.5-8.8,12.7a34,34,0,0,0-2.3,3c-5.3,8.3-10.6,16.7-15.8,25-2.6,4.1-5.3,8.2-7.8,12.3a68.29,68.29,0,0,0-7.8,20.1c-2.9,12.3-5.5,24.8-8.9,37a142.94,142.94,0,0,1-11.7,28.7c-3.6,6.7-6.3,14-9.5,21-2.8,6.1-6,12.1-8.8,18.2-2.2,4.7-4.1,9.5-6,14.2-1.6,3.9-3.2,7.8-4.6,11.8a93,93,0,0,0-3,8.9,15.77,15.77,0,0,0,1.7,12.1c4.9,9.1,11.7,16.1,20.1,22,3.9,2.7,7.5,5.4,11.9,7.2a35.71,35.71,0,0,1,10.2,6.6c8.8,7.8,19.1,13.1,29.5,18.2,14.1,7,29.1,11.6,43.5,17.8a127.56,127.56,0,0,1,18.3,9.6,103.06,103.06,0,0,0,30.4,13.3c14.7,3.7,29.4,7.9,44.2,11.3,8.1,1.9,16.2,3.7,23.7,7.4,4.5,2.2,8.7,5,12.9,7.6s6.2,7,8.9,10.7c.2.2-.1.8-.4,2.1-2.3-4.4-6.4-4.8-9.8-6.5-6.6-3.3-13.1-6.9-20-9.3-8.1-2.8-16.6-4.4-24.9-6.6-14.4-3.9-28.7-7.9-43.1-11.9a70,70,0,0,1-20.1-9c-14-9.3-29.3-15.4-45-21.2a216.88,216.88,0,0,1-39.7-19.2c-4.1-2.5-7.7-5.9-11.5-8.9-2.8-2.2-5.6-4.6-8.4-6.7a14.76,14.76,0,0,0-3.3-1.7c-12.6-4-22.2-11.9-29.4-22.8-1.3-2-2.1-4.3-3.5-6.1-4.6-6-4.4-12.5-2.5-19.2.6-2.2,1.7-4.4,2.5-6.6,2.1-5.6,4.1-11.2,6.4-16.7a48.26,48.26,0,0,1,4.2-8.9c6.6-9.9,10.6-21,15.5-31.6,1.8-4,4.1-7.8,5.8-11.8,3.6-8.5,7.7-16.9,10.3-25.7,3.6-12,5.8-24.4,8.9-36.5,2.2-9,5.5-17.5,11.1-25.1,7-9.6,13.2-19.8,19.8-29.7,2.7-4,5.7-7.8,8.7-11.9-.7-2-1.9-4.2.3-6.3.3-.3.1-1.2.2-1.8.3-2.6.5-5.2.8-7.9.2-1.9,1.2-3.9.8-5.5-1.4-5.6,1.8-9.9,4-14.4a73,73,0,0,1,18-23.3c6.7-5.7,13.4-11.4,20.1-17a28.82,28.82,0,0,1,4.7-3c7.2-4.2,14.3-8.5,21.5-12.5,4.9-2.8,9.9-5.3,14.9-7.9,1.7-.9,3.5-1.4,5.1-2.3,7.4-4.3,15.4-6.8,23.3-10,11.4-4.6,22.4-10.2,31.6-18.9,3.4-3.1,7.8-5.2,11.8-7.5,4.8-2.7,9.5-5.6,14.6-7.6,4.6-1.8,9.7-2.5,14.6-3.6,3.6-.8,7.3-1.5,11.5-2.4a42,42,0,0,1,10.3-12.6,10.87,10.87,0,0,0,2.8-5.3c1.4-4.8,2.4-9.7,3.6-14.6.3-1.1.6-2.3,1-3.7.7.6,1.3.9,1.3,1.2.3,5.9.9,11.9-.8,17.7a22,22,0,0,1-6.6,10.6c-3,2.7-5.2,6.2-7.7,9.4a2.72,2.72,0,0,0-.6,1.7c-.1,7.4-1,14.8.1,22,.8,4.8,4.5,9.1,6.9,13.6C758.3,467.3,758.4,467.5,758.4,467.8ZM652.6,674.2c-.2.2-.5.4-.6.7-2.7,4.4-4.5,9.3-9.2,12.2-.6.4-.6,1.7-.9,2.5-1.5,4.4-2.4,9.2-4.5,13.3-4,7.5-8.8,14.4-15.6,19.8-3.4,2.7-6.3,5.9-9.7,9,4.9,2.1,8.3,1.5,11.5-2.5a87.1,87.1,0,0,1,10.9-11,34.24,34.24,0,0,0,7.5-9.5C647.4,697.9,650.2,686.2,652.6,674.2Z"/><path d="M945.9,330.4c2.1,4.7,6.1,6.4,9.9,8.2,8,4,16.1,4.2,24.5.7,7.1-3,14.4-5.3,21.6-7.8a14.63,14.63,0,0,1,4.2-.4c4.8.1,7,3.7,4.9,8a8.64,8.64,0,0,1-1,1.6c-5.9,6.4-11,13.7-18.3,18.9a9.62,9.62,0,0,0-2.2,1.8c-5.1,6.5-12.4,8.6-20,10.5-8.7,2.3-17.4,3.9-26.5,3.4-3.4-.2-6.8-.6-10.2-.9-4.2,8.8-8.4,17.4-12.5,26-6.9,14.4-13.8,28.8-20.4,43.4a124,124,0,0,0-5.7,15.4c-2.3,7.9-6.7,14.3-12.2,20.3-8.5,9.2-19,12.9-31.2,12.7-.6,0-1.2.1-2,.1a10.73,10.73,0,0,0-1.5,8.5,11.7,11.7,0,0,1-1.5,8.6c-2.3,4.1-4.6,8.2-7,12.4,1.6,5.4,5.8,10,5.4,16.1a32.21,32.21,0,0,1-1.1,5c-3.8-.7-3.9-6.5-9.2-5.4a12.87,12.87,0,0,1,4.5,11.7c-.3,2.4-.6,3.1-3.1,5.7-2.4-1-2.4-3.4-3-5.3-.7-2.1-1.2-4.2-1.7-6-2.3-.6-4.2-1-6.6-1.7,2.4-3.2,5-3.4,7.7-2.6,1.2-5.2,1.2-5.2-1.1-8.2,2.8,1,4.9.7,6.2-1.7,0-.3.1-.7-.1-.9-4.1-3.6-2.6-7.5-.4-11.3,1.9-3.4,4-6.8,5.8-10.2a13.06,13.06,0,0,0,1.2-4.4c.4-3.5.6-7.1.9-11.3a6.34,6.34,0,0,0-2-.9c-4.4-1-8.9-1.9-13.3-3a30.53,30.53,0,0,1-16.1-9.2,21.4,21.4,0,0,0-4.9-3.4c-9.4-5.1-16.1-12.3-19-22.7-.9-3.1-2-6.2-3.1-9.5,1.7.2,2.7,1.6,3.4,3a25.54,25.54,0,0,1,2,4.8c2.6,8.5,7.3,15.1,15.8,19.1.7-1.5,1.4-3.1,2.4-5.2a66.05,66.05,0,0,1,5.3,5.3c5,7.1,12,10.7,20.3,12.5,4.9,1,9.7,2.6,14.6,3.4,9.4,1.5,18.1-.4,25.4-6.9,1.6-1.5,3.3-2.9,4.8-4.5,4.9-4.8,8.7-10.3,10.4-17,2.8-10.7,8.2-20.3,12.7-30.3,5-11,10.3-21.8,15.6-32.6,2.4-4.9,5.2-9.6,7.8-14.4.9-1.6,1.8-3.3,3-5.3-1.4-.3-2.4-.6-3.3-.7-3.1-.3-6.2-.6-9.4-.6a16.91,16.91,0,0,0-5.5.6,33.26,33.26,0,0,1-19,.6c-11.8-3-23.7-6.2-35.3-9.8a144.35,144.35,0,0,1-44-22.9c-4-3-7.9-6.1-12.2-9.5-1.1,1.9-2.1,3.4-3,5-1,1.8-1.5,3.8-4.3,3.7-.8,0-1.7,1.3-2.3,2.1-1.4,2.3-2.7,4.6-3.9,7-.6,1.1-1.1,2.7-2.6,1.9-.7-.4-1-2.1-1-3.2a31.76,31.76,0,0,1,.6-4.3,10.37,10.37,0,0,0-1-.4c-1.2,1.5-2.4,3.1-3.8,4.9-2.3-.8-5.5.5-6.7-3.3-.2-.7-1.8-.9-2.8-1.3-.1-2-.3-3.8-.4-5.6-2.1,3.7-4,7.3-4,11.7,0,3.9,2.4,7.7,1.2,13-1.5-1.7-2.5-2.4-2.9-3.4-2.4-7.1-4-14.1,1.4-21a10.18,10.18,0,0,0,1.5-10.5c-1.3.5-2.3,1-3.8,1.6-.1-1.4-.2-2.6-.3-3.8-6.6-.1-9.9,2.2-11.3,8.1-1.1,5-1.9,10.1-2.9,15.4,2.3.2,3.9,1.7,3.1,4.5-1.1,4.4.4,8.6.7,12.9,0,.4-.1.9-.1,1.4-4.1.1-1.7-5.4-5.3-5.3.4-3.9,3.4-6.8,2.5-11.2-1.5,1-2.7,1.8-4,2.8-1.6-1.7-.8-3.4-.4-5,.9-3.4,2-6.5,1.8-10.3s1.9-7.5,3.3-11.1a5.38,5.38,0,0,1,2.9-2.1c2.2-.7,4.5-1.1,6.8-1.6a7.17,7.17,0,0,1,8.8,6.2c.6,4,2.8,6.8,6.1,9.1,2.5,1.7,4.7,2.1,7.2.3,1.9-1.4,3.9-2.1,6.1.7,3-4.4,5.6-8.3,8.6-12.7a50.79,50.79,0,0,0-5.7-4.7c-5.7-3.7-11.5-7.1-17.2-10.7a8.6,8.6,0,0,0-6.2-1.6,29.46,29.46,0,0,1-4.2.1c-4.4-.1-8.8-.2-11.9,4.1-1.5-1.3-1.4-2.4-.6-3.5a8.34,8.34,0,0,1,6.5-3.3c2.4-.2,4.9-.4,7.8-.7-4.5-3.8-8.6-7.1-12.6-10.6-8.4-7.4-16.6-14.8-24.9-22.2-3.6-3.2-7.6-5.6-12.8-4.7-.6.1-1.2.4-1.7.5a22.17,22.17,0,0,0,8.1,24.6c6.7,4.7,13.4,9.3,19.8,14.3,3.8,3,7,6.7,10.4,10.2a5.1,5.1,0,0,1,1.2,2c.1.7,0,1.8-.4,2.1a3,3,0,0,1-2.5.6,20.6,20.6,0,0,1-4.3-3.5c-2.3-2.3-4.3-5-6.9-7-6.8-5.1-13.7-9.9-20.7-14.7-5.3-3.7-8.8-8.4-9.7-14.9a84.72,84.72,0,0,1-1-11.2c0-5.6,2.3-7.4,7.7-7.8,6.1-.5,11,2,15.4,5.7,5.2,4.5,10.4,9.1,15.6,13.6,1.4,1.2,2.9,2.3,4.3,3.6,4.5,4.3,10,3.9,15.5,3.5,1.9-.1,2.6-1.4,3.1-3.1,2-6.4,4-12.9,6-19.3a4.07,4.07,0,0,0,.5-1.8c-.7-6.5,2.7-11.8,5.3-17.3,2.8-6.1,5.8-12.2,8.5-18.3,2.3-5.1,4.4-10.4,4.9-16.1.2-1.6.6-3.1.9-4.6,1.8-7.8,7.1-11.4,15-10.9,14.9,1,29.8,3,44.6,4.7,11.2,1.3,22.3,3.6,33.5,5,12.1,1.6,24.1,4.5,36.4,4.4,9.3,0,17.4,4,24.8,9a11.53,11.53,0,0,1,5.3,10.8c-.8,12.8-1,25.7-2.2,38.5-.6,7-2.7,13.8-4.4,20.6a22.84,22.84,0,0,0-.3,11.9,35.5,35.5,0,0,1-.6,20.9A12.66,12.66,0,0,1,945.9,330.4ZM788.6,269.3c-.1,5.4-.1,5.8,2.3,6.5,3,.8,6,1.3,8.8,1.9,2.3-2.8,1.9-7.1,6.2-8.2,1.9,3.9-1.4,7.1-1.1,10.9a89,89,0,0,0,15,6.1c1.2-5.6,1.2-5.6,3.3-7.2.5,2.8,1,5.3,1.5,7.9,8.5,3.1,16.5,7.5,25.8,9.5.6-1.7,1-3.2,1.5-4.7.8-2.5,1.5-5.1,2.5-7.6.3-.7,1.4-1,2.1-1.5.5.8,1.5,1.8,1.3,2.5-.4,2.8-1.3,5.5-1.9,8.2a36.44,36.44,0,0,0-.5,3.8c3.4-.3,6.3-.9,9.2-.7,4.8.4,9.6,1.3,14.4,1.9,1.5.2,3,.5,4.3.7,1.2-1.9,2.2-3.4,3.2-4.9.2.1.3.2.5.3-.4,1.6-.8,3.2-1.2,5,1.2.1,2.1.1,3.1.2.7-2.7,1.1-5.4,2-7.8.3-.9,1.7-1.4,2.6-2.1.5,1,1.3,2.1,1.3,3.1-.1,2.3-.6,4.6-.9,6.9,7.1,1.9,13.8,3.6,20.7,5.4a13.18,13.18,0,0,0,0-2,25,25,0,0,1-1.2-4.5,3,3,0,0,1,1.6-2.4c.6-.2,2,.6,2.5,1.3a33.58,33.58,0,0,1,2,4.3c.9,1.8,1.6,3.9,3,5.2,1.1,1.1,3.2,1.1,4.7,1.8.5.2.8.7,1.7,1.5-2.8.6-5.1,1.1-6.6,1.4-1.5,6.1-2.8,11.7-4.3,17.5,4.6.6,9.4,1.3,14.5,2,3.9-8.9,3.9-17.5,1.4-26.4-.4-1.3-1.2-2.6.6-4,3.9,1.3,5.3,5.1,5.5,8.2.4,6.5.9,13.2-1.5,19.6a18.32,18.32,0,0,0-.3,4c1.3-1.3,2.2-1.7,2.5-2.4a64,64,0,0,0,3.1-10.3c.8-4.1,1.3-8.7-1-12.3a11.39,11.39,0,0,1-1.7-7.4,45.67,45.67,0,0,1,1.2-7.4c2.1-9.3,4.6-18.5,4.7-28.2,0-9.4,1-18.8,1.4-28.1.1-1.8.7-3.8-1.4-5.1-7.6-4.5-15.1-9-24.3-9.1-12.5-.1-24.6-2.9-36.7-5-11.7-2-23.4-4.5-35.1-6.5-10.5-1.8-21-3.3-31.6-5-.6-.1-1.4-.3-1.8,0-2.1,1.5-4.1.8-6.3.4-6.7-1.2-9.9,1.1-11.4,7.7-1.1,5-2,10.2-3.8,15-2.9,7.4-6.4,14.6-9.8,21.8-3.1,6.5-6.6,12.7-7.5,19.7C782.3,273.6,785.2,271.3,788.6,269.3Zm61.9,50.2c-1.1-3.3-3.2-4.1-5.8-4.7-4.1-1-8.1-2.5-12.1-3.8-1.6-.5-3.4-1.3-5-1.2-5.8.5-10.6-1.9-15.4-4.8a40.18,40.18,0,0,0-4.6-2.4c-.8-.3-2-.7-2.5-.4-2.3,1.8-4.1.3-6.1-.6-5.3-2.3-10.6-4.5-15.7-6.7-1.6,1.2-2.6,2-4,3.1-.7-1.1-1.3-2-1.8-2.9-1.5-3.2-2.9-3.6-6.1-1.9a5.09,5.09,0,0,1-2.5.3H758a9.51,9.51,0,0,0,3.2,3.8l29.4,18.6c3.2,2,6.3,4.1,9.3,6.4,3.6,2.8,7,5.8,10.5,8.6,14.6,11.7,31.1,19.9,48.9,25.4,10.3,3.2,20.9,5.6,31.2,8.6,5.9,1.7,11.7,1.7,17.7,1.1a37.84,37.84,0,0,1,7.5-.5c6.7.6,13.4,1.4,20.1,2.2,3.3.4,6.5.8,9.8,1.1,8.6.6,16.9-1.1,25.1-3.1,4.1-1,8.2-2.2,11.5-5.1,4.1-3.6,8.2-7.3,12.2-11a74.29,74.29,0,0,0,5.3-5.9c1.8-2,3.5-4.1,5.2-6.2a8.79,8.79,0,0,1-.6-1c-7.2,2.6-14.5,4.8-21.4,7.8a32.88,32.88,0,0,1-18.8,2.4c-6.7-1.2-12.4-4.6-17.7-8.4-2.8-2-5.7-2.1-8.7-3.1-.9,5.1.5,10.4-3.7,15.2,1.2-5,2.5-9.1,1.2-13.4-1.6.8-2.9,1.3-4.7,2.2v-5.5c-3.7-.4-7.3-1.4-10.8-1a37.25,37.25,0,0,1-17.5-2.3c-4.1-1.5-8.3-2.6-12.3-3.9-1.1,2-2,3.5-2.9,5.1a3.75,3.75,0,0,1-1.1-.1c-.6-2.1-1.3-4.2-2.1-7-1.8-.3-4-.7-6.2-1.1a2.26,2.26,0,0,1-1.3-.6c-1.6-2.9-4.7-3.5-7.3-3.4-4.8.3-9.3-.8-13.9-1.9C853.3,317,851.5,316.6,850.5,319.5Zm61.8,9.4c3.3-8.3,4-12.4,3-18.2-7.2-1.8-14.2-5-22.3-5.3-1,5.6-2,11-2.9,16.6C897.9,324.4,905,326.6,912.3,328.9Zm-52.1-30.1c.3,1.4.5,2.1.8,3.2-2.2.1-4.3.3-7,.5-.4,3-.8,6.2-1.3,9.8,8.6,1.7,16.6,3.4,24.8,5,1.5-4.6,2.8-8.8,4.4-13.8C874.5,301.8,867.5,300.3,860.2,298.8Zm-10.7,2.4c-8.4-3.2-16.5-6.3-25.6-9.8,1.1,5.5,2,10,2.9,14.6,7.5.4,13.9,4.4,21.4,4.7C848.7,307.3,849.1,304.2,849.5,301.2Zm-29.6-10.4c-5.7-1.9-11-3.8-16.9-5.8-.7,4.4-2.6,8.2-1.6,13.2,1.9-2.7,3.8-1.9,5.7-1,5,2.5,10,5,15.3,7.6C821.5,299.8,820.6,295.1,819.9,290.8Zm-23.2,4.7c.6-4.9,1.2-9.3,1.7-13.9-3.9-1.5-7.8-2.9-12-4.5-2.7,4.7-4.7,9.2-4.2,14.6C787.2,293,791.8,294.2,796.7,295.5Zm91.4,9.7c-2.2-1-4-1.8-4.8.6-1.4,4.1-2.6,8.2-4,12.7,2.3.8,3.9,1.4,6,2.1C886.2,315.1,887.1,310.3,888.1,305.2Zm-116-15.6c2.3.6,3.6.9,4.5,1.2,1.6-5.4,3.2-10.4,4.8-15.7-1.4-.5-2.6-.9-4.3-1.5C775.4,279,773.8,284,772.1,289.6Zm61.7,251.2a5.64,5.64,0,0,0-1.2.4c.5,1.7,1.1,3.5,1.6,5.2C836,544,835.1,542.3,833.8,540.8Z"/><path d="M876.9,872.6c-7.1,4.5-13.7,8.6-19.9,12.6-.7,2.1-1.2,3.9-1.8,5.9,7.3,8.3,7.5,8.8,6.8,13.2-2.4.5-3.2-1.5-4.3-2.9-1.9-2.3-3.6-4.7-5.7-6.8-2.8-2.8-6.2-4.1-10.7-1.1.6-1.9.9-2.8,1.2-3.9-4.9-1.6-9.9-3-14.7-4.9-2.9-1.1-5.5-2.9-8.2-4.3s-5.5-2.9-8.2-4.4a14.69,14.69,0,0,1-2.1-2.2c1-.5,2.1-1.7,3-1.5,5.7,1.2,11.2,2.9,15.9,6.5,1.3,4.7,5.5,4.2,9,5,3.8.9,7.6,1.7,11.8,2.7v-4.1c4,1.6,4.1,1.8,7.9-.6,6.7-4.3,13.2-8.9,20-13.1,6-3.7,12.3-6.8,18.3-10.5,27-16.3,53.9-32.8,80.8-49.2,10.2-6.2,20.3-12.5,30.4-18.7a8.74,8.74,0,0,0,3.5-3.4c-8.5,3.6-16.9,7.3-26.6,11.4.8-1.8.9-3,1.5-3.4a40.23,40.23,0,0,1,5.1-2.5c8.4-3.8,17-7.3,25.3-11.3,4.4-2.1,8.3-5,12.5-7.4,7.3-4.2,14.6-8.5,22-12.5,4.3-2.3,8.8-4.2,13.2-6.2,5.1-2.3,6-1.8,7,4.4-4.6,2.6-9.3,5.3-14.1,7.9-5.1,2.7-9.8,6.2-14.5,9.5-7,5-14.7,9-22.2,13.3-3.6,2.1-7.4,3.8-11.7,6.1,2.9,2.3,5.3,4.1,7.7,6.1-2.4,3-4.3,1.2-6.1.3-2.1-1-3.1-2.6-2.1-5.7-7.6,2.1-12.9,6.6-18.8,10.1,5.6.3,9.2-4.7,15.5-5.4-5.6,5-10.7,8.6-17.7,8.2a9.74,9.74,0,0,0-6.2,1.7c-6.7,4.4-13.4,8.7-20.1,13.1L935,841.1c-1.6,1.1-3,2.6-4.6,3.9a10.44,10.44,0,0,1-2.4,1.1c-4.9,2-9.8,3.9-15.1,6,.9,5.3,1.8,10.4,2.7,15.4.5,2.9,1.3,5.9,1.2,8.8-.4,12.2,1.5,24,4,35.9,1.4,6.8,2.4,13.6-.3,20.4-.6,1.4-.5,3.1-.7,4.6-.6,4.6-1.2,5.2-6,5.2h-5.9a37,37,0,0,0,1.4,4.9c4,9.7,7.8,19.5,12.1,29.1a229.2,229.2,0,0,1,16.9,56.6c3.1,19.2,6.4,38.3,9.1,57.6,1.1,8.2.9,16.6,1.2,24.9a250.69,250.69,0,0,1-2.6,45c-5.9,37.9-16,74.4-34.9,108.2a168.5,168.5,0,0,1-23.3,32.4c-21.9,23.6-46.7,43.7-73.4,61.5-19.8,13.1-40.1,25.2-62.2,34a276.2,276.2,0,0,1-121.5,20c-12.6-.7-24.8-3.8-36.6-8.1-13.8-5-27.4-10.8-41.1-16.1-2.9-1.1-6-1.5-9.1-2.2-4.5-1.1-9-2.2-13.5-3.7,20.2,5.5,40.3,4.3,60.6.8-2.8.7-5.6,1.4-8.4,2-3.1.6-6.2,1-9.3,1.4s-6.2.5-10.4.9a17.43,17.43,0,0,0,3,1.3c8.6.5,16.5,3.7,24.5,6.5,12,4.3,24.1,8,36.8,9.3a176.91,176.91,0,0,0,19.3.9,261.36,261.36,0,0,0,75.2-10.1,284.14,284.14,0,0,0,73.6-32.8c29.4-18.3,57.1-38.7,81.6-63.3a188.61,188.61,0,0,0,36.3-51.7c12-24.6,19.1-50.6,24.5-77.3,5.3-26.2,6.3-52.7,4.3-79.1-1.6-20.9-5.2-41.7-9.5-62.3-1.8-8.6-3-17.4-5.7-25.7-4.5-13.7-9.9-27.1-15-40.5-3-7.8-6-15.5-9.3-23.1a119.07,119.07,0,0,0-6.2-11c-1.4-2.3-2.9-4.5-4.2-6.8-.9-1.5-1.5-3.1.1-4.9,3.4,1.2,3.8,4.8,5.8,7s4,4.8,6.1,7.3c1.4-6.5-.5-13.9-4.6-18.2-1.1-1.1-2.2-2.2-3.4-3.2-8.6-7.2-13.4-16.4-15.3-27.3-.5-2.6-.9-5.3-1.5-7.8C878.4,876.6,877.7,874.9,876.9,872.6Zm3.6-2.5c1.6,5.4,3.2,9.9,4.3,14.6,2.3,10.3,6.9,19,15.1,25.7,3.6,2.9,6.6,5.7,6,11.6-.5,5.5,1.6,11.3,2.6,17.4,2.3-.1,4.6-.2,7-.4.4-5.6,1.3-10.8.9-15.9-.4-6.1-1.8-12.1-3.1-18a89.48,89.48,0,0,1-2.2-20,88.32,88.32,0,0,0-.4-13.6c-.7-5.6-1.6-11.1-.9-16.8,0-.2-.3-.5-.8-1.2C899.5,859.1,889.8,864.7,880.5,870.1Z"/><path d="M609,996.5c-.1,2.1-.2,4-.4,6-1.2,7.9-3,15.8-3.5,23.7a335,335,0,0,0-.3,34.7c.4,9.8,2.5,19.6,2.9,29.5.2,5.1.9,10.1,1,15.2.3,9.2-.5,18.5-.8,27.7a37,37,0,0,0,.2,4.7c2.5,14.9,6.6,29.3,14,42.7,1.7,3.1,3.1,6.5,4.6,9.8a24.31,24.31,0,0,1,1,3.9c-10.4-7.7-23.2-45.4-23.9-68.5-.7,1.9-1.5,5.4-3.1,8.4-5.9,11-14,20.4-23.1,28.9a204,204,0,0,1-44.7,31.8c-13.3,7-27.2,12.7-41.1,18.3-18.6,7.5-37.1,15.3-54,26.4-7.5,4.9-14.8,10.1-22.2,15-5.8,3.8-11.6,7.4-17.5,11.1-.5.3-1.1.9-1.6.9a14.68,14.68,0,0,1-2.9-.5c.3-.8.4-1.9,1-2.3,15.5-11.7,29.5-25.3,46.5-35a350.83,350.83,0,0,1,42.5-20.1c15.4-6.2,30.9-12.2,45.7-19.9a207.13,207.13,0,0,0,47.5-33.5,130.33,130.33,0,0,0,17.4-21c8.7-12.9,11.1-26.9,8.6-42.1a267.63,267.63,0,0,1-3.6-54.4,174.45,174.45,0,0,1,2.2-19.1c1-6.2,2.4-12.3,3.6-18.5C605.4,998.3,605.7,996.3,609,996.5Z"/><path d="M791.2,959.1a8,8,0,0,1,1.1,2.3c1.5,8.5,3,16.9,3,25.6a58,58,0,0,1-3.7,19.3,58.15,58.15,0,0,0-2.8,10.9c-.7,4.4-2.1,7.9-6.6,9.3,0,1.6.6,3.5-.1,4.3-.9.9-2.8,1-4.3,1.3a3.61,3.61,0,0,1-1.8-.3c-12.5-3.8-25.7-3.9-38.4-6.7-5.8-1.3-11.5-3-17.3-4.2a481.09,481.09,0,0,1-61.2-16.6c-3.3-1.1-6.6-1.8-10-2.6-10.7-2.5-21.5-4.6-32-7.4a70.25,70.25,0,0,1-16.1-6.4c-9.3-5.4-19.4-8.7-29.4-12.4a167.35,167.35,0,0,1-18.7-8.8,16.33,16.33,0,0,1-8.6-11.2c-2.1-10.3-3.9-20.6-5.8-30.9-3.2-17.2-1.1-34.4-.4-51.6a54.92,54.92,0,0,1,.5-7c.1-.8,1.3-1.5,2-2.2.6.6,1.5,1.2,1.7,2a22.06,22.06,0,0,1,.5,5.1c.1,8.6.2,17.3.3,25.9.1,9.4-.3,18.8,1.7,28.1,1.9,8.7,3.2,17.6,4.8,26.4.9,5.3,3.9,8.9,8.6,11.6,7.5,4.4,15.7,7,23.9,9.7a99.11,99.11,0,0,1,18.9,8.2,81.69,81.69,0,0,0,21.4,8.2c18.7,4.5,37.5,8.5,56,14.2,15.1,4.7,30.7,7.7,46,11.5a279,279,0,0,0,31.3,6.1c6,.8,12,2,18,3,4.1.7,9.4-3.3,10.3-7.4a84.76,84.76,0,0,1,3.4-12.2c4.2-10.9,3.4-22.2,2.7-33.4-.2-2.7-.6-5.3-.7-8a13.32,13.32,0,0,1,.5-3.4A11.15,11.15,0,0,1,791.2,959.1Z"/><path d="M568.4,1406.9c-4.1.3-8.1.7-12.2.8-11.6.4-23.2.5-34.8,1-16.2.6-32.3-1-48.3-2.9-11.7-1.4-23.4-2.6-35-4.4a209.61,209.61,0,0,1-72.8-25.6c-12.3-7.1-23.9-15.5-35.9-23.3a41.84,41.84,0,0,0-6.5-3.7c-5.8-2.7-11.9-5-17.6-7.9a118,118,0,0,1-14.4-8.8,23.65,23.65,0,0,1-9.2-13.3c-1-3.4.1-5.2,3.5-5.7a80.43,80.43,0,0,0,25.3-8.5c13.2-6.9,26.1-14.3,39-21.8a47.84,47.84,0,0,0,12.2-9.8c-7.2,2.4-13.6,6.7-20.8,8.9a4.05,4.05,0,0,1-.5-.9,44.43,44.43,0,0,1,5.5-4.2c7.1-4,14.2-7.9,21.5-11.7,5.1-2.7,10.5-5,15.7-7.5a138.21,138.21,0,0,0,26-15.9c3.3-2.6,6.9-4.9,10.4-7.3a10.69,10.69,0,0,1,4.8-1.8c-.5.5-.9,1.1-1.4,1.6-11.4,10.7-23.5,20.2-37.8,26.9l-14.4,6.9c-1.6.7-3,1.5-3.6,3.4-1.2,4.1-4.1,7.1-7.2,9.7a80.28,80.28,0,0,1-10.6,7.8c-12,6.9-23.9,13.8-36.2,20-7.2,3.6-15.2,5.6-22.9,8.4-1.1.4-2.3.7-3.6,1.1a8,8,0,0,0,2.5,6.1,62.12,62.12,0,0,0,9.5,8.3c5.4,3.5,11.2,6.3,16.7,9.3,2.4-2.4,2.5-2.5,4.8-1.2,2.7,1.6,5.2,3.5,7.9,5s5.3,2.6,7.9,3.8c.5.3,1.5.6,1.5.9,0,3.1,2.8,3.6,4.6,4.8,23.1,15.8,47.6,28.4,74.6,36a251.39,251.39,0,0,0,36.4,7c16.5,1.9,33,4,49.5,5.3,10.6.8,21.3.4,32,.6,9.9.2,19.7.7,29.6,1.1,1.4.1,2.9.5,4.3.7C568.5,1406.3,568.4,1406.6,568.4,1406.9Z"/><path d="M754.5,658.9c14.7,1.7,24.2-6.1,31.8-17.2,2.3,3.1,1.9,6.6-1.5,9.6a69.05,69.05,0,0,1-10.1,7.7c-7.2,4.4-8.2,4.4-20.4,4v6.9c.2,7.5.6,15,.5,22.6-.2,7.8-5.5,13.6-13,15.2-5.8,1.2-11.3-2.4-12-8.3a167.68,167.68,0,0,1-1.2-18.7c-.1-13.2.1-26.3.3-39.5.1-4.8.8-9.7,1.1-14.5.2-2.4,0-4.9,0-7.7-14.6-.9-28.9-1.9-43.2-2.8,0-.2-.1-.4-.1-.7a9,9,0,0,1,2.7-.7c12.7-.3,25.4.9,38,2.5a21,21,0,0,0,2.8.1c-.8-6.8-.3-13.6-3.3-19.8-2.1-4.4-4.6-8.6-6.2-13.1-1.4-3.8-2.8-7.5-5.4-10.7-1.9-2.3-3.3-4.9-5.3-7.2-3.1-3.6-4.4-7.9-5.6-12.3-1-3.5-2-6.9-3.2-10.3-2.1-6.4.2-12.1,6.5-14.6a58,58,0,0,1,23-4.2c4.4.1,7.7,2,8.8,6.4,2,7.6,4,15.1,3.4,23.1-1.2,15.7.5,30.9,6.4,45.6a68.55,68.55,0,0,1,4.6,29.5c-.5,9.1.1,18.2.2,27.3A7.42,7.42,0,0,0,754.5,658.9Zm-12.1-71.8c-1.3-2.5-3.3-4.8-3.6-7.2-.9-7.1-2-14.4-1.2-21.5.8-8.1-.8-15.6-2.2-23.2-.8-4.4-2.1-5.1-6.5-5a54.53,54.53,0,0,0-17.9,3.3c-5.1,1.8-6.4,4.7-4.6,9.9,1,3,1.9,6,2.9,8.9,1.3,4,2.4,8.1,5.3,11.4a57.15,57.15,0,0,1,4.9,6.9c2.2,3.4,4.7,6.7,4.6,11.1a4.19,4.19,0,0,0,.8,2.1c4.8,8,8.2,16.4,9.1,25.9.6,6.9,1.4,13.7.3,20.6a70.73,70.73,0,0,0-.7,11.3c.1,15.4.2,30.7.5,46.1a72,72,0,0,0,1.1,10.3c.6,3.8,3.1,5.2,6.8,4.2a10.11,10.11,0,0,0,7.4-9.7c.1-7.4-.2-14.7-.3-22.1-.2-14.4-.5-28.8-.5-43.2,0-6.7-.5-13.2-2.7-19.5-1.2-3.4-2.4-6.8-3.7-10.2C740.9,593.7,740.1,590.3,742.4,587.1Z"/><path d="M904.4,652.1c-.4-7.3-.4-14.7-1.4-22-1.6-11.5-3.9-22.8-6.1-34.2-.7-3.7-2.3-7.2-3.2-10.8-2.9-10.9-5.6-21.8-8.4-32.8a45.81,45.81,0,0,0-5.1-12.1c-4.3-7.3-8.6-14.6-12.4-22.1a33.83,33.83,0,0,0-9.7-11.8c-2.3-1.7-4.5-3.4-6.6-5.2a17.94,17.94,0,0,1-2.3-2.5c1.1-1.9,2.3-1.7,3.4-.9,7.7,4.9,15.1,9.9,19.3,18.6a236.14,236.14,0,0,0,12,21.3,52,52,0,0,1,6.1,14.6c3.4,12.9,7,25.7,10.4,38.5,1,3.8,1.4,7.7,2.3,11.5,2.3,9.1,4.8,18.1,7.2,27.2,1.3,5.3,2.5,10.7,3.6,16,1.2,5.5,2.4,11,3.4,16.5.8,4.4,1.9,8.9,2.1,13.4a172.47,172.47,0,0,1-1.1,29.6c-.6,4.5-.7,9.1.8,13.5a11.8,11.8,0,0,1,.5,3.7c.2,7.8.4,15.7.3,23.5,0,2.3-.9,4.5-1.6,6.7a45.42,45.42,0,0,1-2.4,6.1c-.8,1.6-1.8,3-3,4.9-2.8-3.4-2.6-6.8-1.1-9.3,3.4-5.7,2.7-11.7,2.4-17.8-.1-2.8.1-5.6,0-8.5-.2-4-.8-8.1-.7-12.1.1-5.8.8-11.5,1-17.3.4-9.9.9-19.7.7-29.6-.1-4.5-2-9-3.9-13.4,0,2.9-.1,5.8,0,8.7.5,14-1,27.8-3.3,41.6a44,44,0,0,0-.7,8.9c.6,12.8-1.3,25.3-2.8,37.9a53.78,53.78,0,0,1-3.9,14.2c-1.9-1.4-1.4-3.1-1.3-4.5.4-6.2,1-12.5,1.4-18.7.4-5.9,1.3-11.9,1.1-17.8-.3-10.9,1-21.6,2.5-32.3a175.34,175.34,0,0,0,.9-40.3c0-.4-.5-.8-.7-1.2Z"/><path d="M844.7,527.4c1.8,1.1,3.9,2,5.4,3.4,8.9,8.5,15.6,18.4,19,30.3a18,18,0,0,1,.5,4.6c.1,17.1.3,34.2.2,51.3-.1,11.1,2,21.8,3,32.7.7,7.2,1.7,14.3,1.8,21.5.1,7.7-.6,15.3-1,23a130.76,130.76,0,0,0,.6,23.4c1.7,13.4,2.2,26.8.1,40.3a94.16,94.16,0,0,0,.1,29.5c.4,2.5.5,5,.7,7.5.5,5.3.9,10.6,1.4,15.9.8,7.8,1.8,15.5,2.5,23.3a27.36,27.36,0,0,1-.4,5.6c-2.7-.5-3.2-2.2-3.7-3.7a67.47,67.47,0,0,1-3.6-18.4c-.2-6.2-1.2-12.5-1.7-18.7-.7-8.4-1.7-16.8-1.8-25.3-.1-7.7,1.1-15.3,1.4-23,.3-11.9.7-23.8-1-35.7a107.77,107.77,0,0,1-.3-22,185.81,185.81,0,0,0-1.3-44.1c-3.1-19.3-2.9-38.7-2.5-58.2.1-5.2.1-10.4.3-15.5.6-15.6-5.3-28.7-15.5-40.2-1.8-2.1-3.3-4.5-4.9-6.8A1.58,1.58,0,0,0,844.7,527.4Z"/><path d="M831,879.5c1.9-1.3,3-2,4.1-2.8-1.9-1.5-4.9-.3-6.3-3.3a8.57,8.57,0,0,1,2.6-1,48.52,48.52,0,0,1,6.6.2,16.06,16.06,0,0,0,11.5-3.1c2.4-1.8,5.5-2.8,8.4-3.9,14.5-5.5,28.8-11.5,42.4-21.5-2.6-.2-4.2-.2-5.8-.4-2.9-.3-3.5-1-3.7-4.1a3.23,3.23,0,0,0-.3-1.7c-4.6-7.5-5-16-5.5-24.4a43.25,43.25,0,0,1,7.6-27.6,9.51,9.51,0,0,0,1.4-4.3c.2-3.7.1-7.5.2-11.3.1-1.9.6-3.9.9-6.1,2.8,1.1,2.9,2.9,2.9,4.8.3,8.4-.7,16.6-4,24.3-5.2,12-4.4,24.1-1.8,36.4a29.67,29.67,0,0,1,.8,4.1c.1,1.4,0,2.8,0,4.1,5.2.9,6.6.8,11.1-1-1-1.2-1.7-3.1-2.8-3.3-2.2-.5-2.7-2.1-3.1-3.7-1.3-5.8-2.4-11.6-1.3-17.7a80.91,80.91,0,0,0,.8-9.8c.3-3.6,1.2-7,4.3-9.7a31.06,31.06,0,0,1-.4,3.2c-2.7,12.6-2.1,24.9,2.6,37a13,13,0,0,0,1.4,2.9c.9,1.1,2.1,1.9,3.7,1a5.58,5.58,0,0,0,.8-.5c2.6-1.4,6.1-2.3,7.5-4.5,1.3-1.9.5-5.4.4-8.1-.2-3.4-.6-6.9-.9-10.3a22.4,22.4,0,0,1-.1-4.5,41,41,0,0,1,3.7,21.1c11.7-3.7,20.7-11.5,30.7-17.4-3.4-4.2-4.4-4.2-8.1-.9-.8.7-2.4,1.4-3.1,1-1.7-.8-.9-2.4-.2-3.6,2.6-4.4,6.2-5.4,10.8-2.9,2.6,1.4,4.9,3.4,8.2,3a17,17,0,0,0,2.3-.1c3.8-1.3,7.7-2.6,11.5-4,2-.8,4-1.8,5.9-2.7-.1-3.6-1.2-6.3-4.3-8-4.7-2.6-9.4-5.3-14.4-8.2,1.3-.8,2.9-.4,4.5,0,5.1,1.2,9.6,3.9,13.7,7,4.5,3.4,4.3,9.2-.4,12.1-2.7,1.7-6,2.6-9.1,3.7-1.3.5-2.3.6-3.2,2.2-.6,1.2-3.1,2-4.7,2.1-3.2.2-5.6,1.6-8.1,3.2-10.6,6.7-20.8,13.9-31.9,19.8-6.5,3.5-12.4,8-18.5,12.1a166.43,166.43,0,0,1-23.5,12.8c-9.2,4.2-18.9,7.5-27.9,12.3-5.2,2.8-11.1,4.2-16.7,6.2C833.8,879.9,832.9,879.6,831,879.5Z"/><path d="M246.7,540.2c5.3-.5,10.7-.8,16-1.5,9-1.2,18-2.6,27-4a9.29,9.29,0,0,0,2.1-1,23.76,23.76,0,0,0-2.5-1.6c-6.8-2.8-13.5-5.8-20.5-8.4a79,79,0,0,0-12.7-3.3c-13.1-2.6-26.2-4.7-39.2-7.8-7.9-1.9-15.4-5.2-23.1-7.9-6.5-2.3-12.9-4.8-19.4-7.1-5.9-2.2-11.9-4.1-17.6-6.6a21.39,21.39,0,0,0-11.4-1.9c-6.1.8-12.1,1.8-18.2,2.5a122.59,122.59,0,0,1-13.6.9c-8.6.1-17.1,0-25.7,0v-1c7.7,0,15.4.3,23-.1,6.2-.3,12.4-1.4,18.6-2.1,6.7-.8,13.3-1.9,20-2.5,2.2-.2,4.6.6,6.8,1.3,7,2.3,13.9,4.9,20.8,7.4,4,1.4,8.1,2.5,11.9,4.3a163.39,163.39,0,0,0,45.3,13.6,187.35,187.35,0,0,1,25.8,5.3,249.11,249.11,0,0,1,28,10.8,32.83,32.83,0,0,0,15.8,3c11.9-.7,23.8-.5,35.7-.5a60.39,60.39,0,0,1,8.4,1.1,147.84,147.84,0,0,0,25.8,1.6c6.6-.2,13.2.1,19.8-.1a52.57,52.57,0,0,1,16.7,2.2c8.8,2.7,17.9,3.1,27,3,8,0,16,.6,23.6,3.3,2.7,1,5.3,2,6.9,4.6a6.06,6.06,0,0,0,5.2,2.7c.5,0,.9.1,1.4.1,12-.8,23.3,2.1,34.7,5.3,8.4,2.3,17.1,3.8,25.7,5.6a37.45,37.45,0,0,1,4.5,1.2,70.48,70.48,0,0,1-20-2c-8.2-1.9-16.4-4.5-24.7-6-6.4-1.2-13.1-1.4-19.6-1.7-4-.2-7.3-.9-9.7-4.5-.8-1.3-2.7-2.1-4.2-2.7a57.61,57.61,0,0,0-18.4-3.4c-8.9-.3-17.8-1.1-26.7-1.8a5.23,5.23,0,0,1-1.8-.3c-9.8-3.5-20-3.5-30.2-3.3-5.2.1-10.4.2-15.5-.1-7.3-.4-14.7-1-22-1.8a153.47,153.47,0,0,0-38.9.1,3.4,3.4,0,0,1-1.4.2c-9.2-.9-18,2.2-27,3.2-7.3.8-14.7,1.2-22,1.7-3.6.3-7.2.5-10.7.7A1.43,1.43,0,0,0,246.7,540.2Z"/><path d="M337.8,630.1c3.8-1.9,6.4-1.8,8.7.9a17.45,17.45,0,0,1,3.4,5.5c3.5,9.4,4.3,19.2,4.1,29.1-.1,9.4-.3,18.8-.7,28.2-.3,8.7-1.8,17.1-6.9,24.6a26.6,26.6,0,0,1-9.1,7.9c-5.4,3-11.3,3.4-17.2,4-7.9.8-15.9,1.8-23.8,2.7a19.37,19.37,0,0,0-2.2.6c-.1,1.8-.4,3.7-.4,5.5-.5,15-.9,30.1-1.5,45.1-.2,4.7-.9,9.3-1.4,14-.4,3.6-.9,7.2-1,10.8-.5,15.5-.9,31-1.3,46.5a16.35,16.35,0,0,0,.5,4.8c3.1-3.9,3.4-9,6-13.1-1.3,11.3-7,21.4-7.9,32.8a6.6,6.6,0,0,1-1.4-.1,12.55,12.55,0,0,1-.7-2.6c.1-14.3.2-28.5.5-42.8.1-7.1.5-14.1.9-21.1.4-5.9,1.1-11.8,1.5-17.8.6-10.3,1.2-20.6,1.6-31,.4-10.8.5-21.6.8-32.4a23.71,23.71,0,0,1,.9-4.4c4-.1,7.1-.2,10.3-.4l25.3-1.5c7.2-.4,13.3-3.2,17.6-9.2,4.6-6.4,5.9-13.8,6.2-21.4.4-13.2.8-26.3.6-39.5-.1-5.7-1.6-11.4-2.8-17.1-1-4.6-3.7-7.5-8.8-7.4a7,7,0,0,1-1.7-.6A1.27,1.27,0,0,0,337.8,630.1Z"/><path d="M275.3,128c-7.4-3.2-14.8-6.3-22.8-7.1-23.1-2.5-45.4-.2-66.2,11a67.69,67.69,0,0,0-21.2,18.3,40,40,0,0,0-8.7,30.8c2.5,19.6,10.5,36.7,24.4,50.8a48.56,48.56,0,0,0,35.9,15c8.1-.1,16.2-.7,24-1.1-.5.2-1.5.7-2.4,1-19.4,5-38,4.5-54.5-8.4a66,66,0,0,1-12.9-13.5c-10-13.8-16.6-29-17.6-46.4a42.5,42.5,0,0,1,8.7-29c6.1-8,13.2-14.7,22-19.5,22.7-12.5,47-14.5,72.1-9.9C263,121,269.4,124.1,275.3,128Z"/><path d="M687,648.1c1.3,1.6,2.6,2.6,3,3.8,1.1,3.7,2.5,7.5,2.7,11.3.4,8.5,1.1,16.8,4.3,24.8,1.3,3.3,1.6,7,2.1,10.6.9,5.9,1.3,11.9,2.5,17.7a97.53,97.53,0,0,0,4.7,15.7c3.2,8.1,2.6,16.3,1.2,24.5-.7,4.2-1.4,8.3-1.7,12.5s1.1,6.6,5.2,7.8c3.7,1.1,7.7,1.3,11.5,1.7a54.1,54.1,0,0,0,5.7,0c.1,2.9-1.8,3.8-3.4,4.3-7.3,2.1-14.3,1.2-20.5-3.5a9.67,9.67,0,0,1-4.1-9c.5-4.7.8-9.4,1.7-14,2-9.9,1.8-19.5-2.2-29-3.2-7.6-3.2-15.9-4.2-24a111.26,111.26,0,0,0-4.1-19.7,64.29,64.29,0,0,1-2.4-15.2c-.3-5.5-.5-10.9-2.6-16.1a5.83,5.83,0,0,1-.3-2.3C686.1,649.7,686.3,649.5,687,648.1Z"/><path d="M758.4,467.8a.91.91,0,0,0-.3-.7c-1-2.6-2.1-5.2-3-7.9-.8-2.3-1.7-4.6-.2-7.9a24,24,0,0,1,2.4,3.1c7.4,12,14.4,24.2,23,35.4a137.25,137.25,0,0,1,10.6,16.6c3.1,5.4,5.6,11.2,8.4,16.8,1.9,3.9,5,6.7,8.4,9.3,2.3,1.8,4.9,3.4,5.5,6.8-2.4,1.7-4.7.9-6.7-.2a28.8,28.8,0,0,1-13.3-13.4c-2.9-5.9-5.5-12-8.8-17.7-3-5.3-6.8-10.1-10.1-15.3C769,484.4,763.8,476.1,758.4,467.8Z"/><path d="M269.9,590.2c5-8.3,15.6-8.2,20.4-.9a25,25,0,0,1,3,6.4c2,7.4,4.2,14.8,4.1,22.6-.1,9.1.3,18.2-.1,27.3-.3,7.2-1.4,14.3-2.1,21.5-.4,4-.7,8-1.1,12.5,4.9-.7,9.6-1.4,14.3-2.2,8.2-1.3,12.2-5.3,13.9-13.5.7-3.2,1.4-6.4,2.2-9.6a36.56,36.56,0,0,1,1.8-4.6l1,.3c-1.4,6.3-2.3,12.8-4.2,18.9-2.1,6.7-6.5,11.3-14.2,11.7-3.9.2-7.7,1.2-11.6,1.7-3.2.4-3.9,0-4.9-3a15,15,0,0,1-.8-5.5c.4-6.7.8-13.5,1.7-20.1,1.8-13.8,1.5-27.6.4-41.3-.5-5.7-2.3-11.4-4-16.9-2.2-7-6.9-9.1-15.4-6.7A29.76,29.76,0,0,0,269.9,590.2Z"/><path d="M728.9,942.5c-2.7-2.5-5.4-5.1-8-7.6.1-.2.2-.3.3-.5.5.2,1.1.4,1.5.6,6.6,3.6,13.1,7.3,19.8,10.8,7.6,4,15.9,5.7,24.3,6.7q8,.9,15.9,1.2c3.8.1,3.9-.2,5.3-4.4-1.8-1.5-5.5-.4-6-4.1,1.7-1.5,3-.3,4.4.3a7.16,7.16,0,0,0,9.1-3,6.94,6.94,0,0,0,.5-1.3l2.1-5.7c-4.4-2.5-9.9-2.5-13.3-7.6,3.9-.3,6.1,2.2,9,3s5.6,1.9,9,3.1a9.56,9.56,0,0,1,.1,3,75.21,75.21,0,0,1-2.7,8c-.3.9-.7,2.1-1.4,2.4-4,1.9-5.6,5.7-7.9,8.9a6.13,6.13,0,0,1-5.6,2.9c-13.7-.6-27.2-2-39.8-7.7-4.8-2.2-9.2-5.3-13.8-8a15.1,15.1,0,0,0-3-1Z"/><path d="M966.1,864.3c9.1-1.2,18.2-2,26.4-9.1-3.7-.7-6.3-1.1-9.5-1.7,2.2-2.4,4.6-2.6,6.9-2.6,3.9,0,6.2-1.6,6.8-5.6a5.38,5.38,0,0,1,.9-2.6c4.1-4.7,2.8-10.6,3.6-16.2-.8,3.9-4,4.6-6.8,4.6a84.54,84.54,0,0,1-16.7-1.8c-2.9-.6-5.4-3-7.9-4.8-1.4-1-1.2-1.2-.3-4.6,2.7,6,8,6.1,13,6.7,1.7.2,3.5,0,5.2.3,4.4.6,8.2.1,11.8-3,1.8-1.6,4.5-2,6.8-3,5.3-2.2,6.8-5.1,5.4-10.7-.4-1.4-1.1-2.7.6-3.6.3.2.7.4.7.6,1.6,5.9-.3,11.8-5.5,15.1a6.57,6.57,0,0,0-3.5,6.1,12.1,12.1,0,0,0-.1,1.9c1.2,7-1.5,13.4-4.3,19.4-2.2,4.7-5.4,9.4-9.4,12.5-6,4.7-13.5,6.4-21.1,7.1-3.9.4-8.7-5.3-8.1-9.2a1.6,1.6,0,0,1,3.1-.6C964.6,860.7,965.2,862.4,966.1,864.3Z"/><path d="M410.6,1223.3c-4.6-.3-9.2-.9-13.8-1-8.6-.3-17.2-.6-25.8-.4a54.91,54.91,0,0,0-12,2.1c-12.1,2.9-24.2,5.2-36.7,5.2a68.71,68.71,0,0,1-33.3-8.8c-10.5-5.6-20.5-12.1-30.8-18.2a2.44,2.44,0,0,1-1.1-1.7,12.24,12.24,0,0,1,2.7.9c4.4,2.4,8.8,4.9,13.2,7.3,6.3,3.5,12.6,6.9,19,10.3,15,7.9,30.9,8.6,47.2,6,7.3-1.2,14.4-3.2,21.6-4.6a62.56,62.56,0,0,1,12.1-1.5c9.6.1,19.1.6,28.7,1a32.17,32.17,0,0,1,6.9,1.2,9.23,9.23,0,0,1,2.5,1.5A1.61,1.61,0,0,0,410.6,1223.3Z"/><path d="M987.7,544.3a33.37,33.37,0,0,1,15.6-10.5,87.25,87.25,0,0,1,26.3-4.3c9.6,0,19.2,0,28.5-2.4,7.4-1.9,14.7-4.4,21.9-6.9,2-.7,3.7-2.3,5.5-3.6a43.55,43.55,0,0,1,21.4-9c9.4-1.3,18.8-3.3,28.2-4.9,1.2-.2,2.4-.4,3.6-.7a10.37,10.37,0,0,1,.4,1c-1.3.7-2.4,1.7-3.8,2-5.2,1.2-10.4,2.1-15.6,3.1-5.7,1.1-11.4,2-17.1,3.2a35.44,35.44,0,0,0-15,7.5c-3.5,2.8-7.4,4.4-11.6,6-15.2,5.8-30.9,7.6-47,7.4a70.61,70.61,0,0,0-37.7,10C990.1,543,988.9,543.6,987.7,544.3Z"/><path d="M193.7,702.4v15c0,7.1.2,14.1.1,21.2-.1,9.6,5,16.5,11.4,22.8a5,5,0,0,0,1.9,1.3c7.4,1.8,14.3,5.7,22.3,5.4a53.72,53.72,0,0,1,8,.5,5.64,5.64,0,0,1,3.4,1.9,7,7,0,0,1-2.6,1c-8.3.2-16.6.8-24.6-2.5a5.73,5.73,0,0,0-1.4-.4c-12.8-2.8-18.6-12.1-20.7-23.9-2.1-11.6-1.5-23.4-.6-35.2.2-2.5,1.3-5,1.9-7.5A3.55,3.55,0,0,0,193.7,702.4Z"/><path d="M729.1,993.6a52.77,52.77,0,0,1-6.7-1.3,290.69,290.69,0,0,0-40.4-8.8,31.87,31.87,0,0,1-15.2-7.1,141.52,141.52,0,0,1-11.2-10.7,12,12,0,0,1-2.3-4.5,2.53,2.53,0,0,1,1.1-2.2,2.66,2.66,0,0,1,2.2,1c3.3,5.5,8.4,9.2,13.1,13.3s10.9,5.3,16.9,6.5c10.3,2,20.5,4.2,30.8,6.6a49.38,49.38,0,0,1,8.4,3,21.6,21.6,0,0,1,4,2.7A10.09,10.09,0,0,1,729.1,993.6Z"/><path d="M782.8,695.6c.2,9.4-.4,18.9,2.6,28.1,3-12.3,3.7-24.9,5.9-37.4.2,9.5-1.1,18.9-2.2,28.3a27,27,0,0,1-.4,2.8c-4.7,16-2.3,32-.1,48,.2,1.7.1,3.4.3,5.2.4,5.6-3.4,8.5-7.4,11-.8.5-2.1.1-3.2.1l-.3-.9c1.5-1.5,3-3,4.6-4.4a6.91,6.91,0,0,0,2.4-6.3c-.1-1.2-.2-2.5-.3-3.7-1.3-10.7-2.2-21.4-1.3-32.3.5-5.8-.9-11.8-1.3-17.8-.4-6.8-.6-13.7-.9-20.5A3.9,3.9,0,0,1,782.8,695.6Z"/><path d="M780.4,385.6a7.63,7.63,0,0,1-1.1,2.1c-3.7,3.6-12.2,2.4-14.9-2a33,33,0,0,0-2.6-3.9,32.42,32.42,0,0,1-8.2-22.8c.2-5.5,0-11,.4-16.4.3-4.3,1.4-8.6,2.1-12.9a5.93,5.93,0,0,1,.7-1.6c3.1,1.4,2.7,3.5,2.4,5.2-1.9,9.6-.7,19.3-.8,29,0,5.1,2.2,9.7,5,13.9a62.4,62.4,0,0,0,5.3,7.1,5.93,5.93,0,0,0,3.1,1.7C774.5,385.4,777.1,385.4,780.4,385.6Z"/><path d="M999.3,528.8c-1,.3-2.1.6-3.1.8a154.21,154.21,0,0,1-38.4-.3c-4.9-.7-9.5-2.3-12.7-6.3-1.5-1.8-3.5-1.8-5.5-1.9a105.78,105.78,0,0,0-37.4,5.9c-3.1,1.1-6.2,2.1-9.4,3a12.58,12.58,0,0,1-4.3.4,101.71,101.71,0,0,1,52.3-12.3,8,8,0,0,1,6.2,2.8,13.91,13.91,0,0,0,10.6,5.3c12.2.8,24.4,1.3,36.6,1.9,1.7.1,3.4,0,5.2,0A.63.63,0,0,0,999.3,528.8Z"/><path d="M936.2,776.2c9-.7,17.4-1.5,25.8-2a114.26,114.26,0,0,1,11.7.3,26.85,26.85,0,0,1,14.9,5.2,31.94,31.94,0,0,1,4,4.2c-.2.4-.5.7-.7,1.1a29,29,0,0,1-4.1-1.6,36.25,36.25,0,0,0-19.8-4.9q-7.95.45-15.9.6c-4.7.1-9.4,0-14.3,0-.1.2-.4.9-.7,1.6-.3,0-.7.1-.9,0-6.8-4.9-10.8-12.5-16.8-18.3-.8-.7-.9-2-1.5-3.3,2.9-.8,4.1.9,5.3,2.2,4,4.4,7.9,8.9,11.8,13.4A14.58,14.58,0,0,1,936.2,776.2Z"/><path d="M302.3,1068.2c-2.9,1.8-4.7.6-6.5-.6a65,65,0,0,1-15.9-14.6c-13.7-17.8-21.3-38.2-24.5-60.3a12.16,12.16,0,0,1,0-3.3c4,15,8.8,29.7,16.2,43.5C279.2,1046.8,289,1058.8,302.3,1068.2Z"/><path d="M248.3,722.6c-1.4.5-2.8,1.4-4.2,1.3a165.62,165.62,0,0,1-17.3-.9c-5.3-.7-6.1-2.5-6-7.7.2-10.3.1-20.7.1-31,0-3.9.1-7.8-.1-11.7a69.27,69.27,0,0,0-1.2-10.2c-.9-4.4-3.9-5.9-8-3.9-2.1,1-3.8,2.7-5.6,4.2a14.25,14.25,0,0,1-4.4,3c1.8-2.6,3.4-5.4,5.3-7.9a9.42,9.42,0,0,1,8.3-3.6c4,.2,5.7,1.3,6.7,5.3a43.39,43.39,0,0,1,1.7,10.6c0,13.3-.4,26.6-.7,39.9,0,2.2.2,4.4.2,6.6-.1,2.4,1.2,3.5,3.4,3.6,3.1.2,6.3.4,9.4.5l12,.3A3.43,3.43,0,0,1,248.3,722.6Z"/><path d="M679.6,618.1c4.5,1.6,6.5,5.2,7.5,9.1a24.35,24.35,0,0,0,7.7,12.5,21.93,21.93,0,0,1,3.7,4.8c3.6,6.1,8.5,10.2,15.7,11.4a69.63,69.63,0,0,1,10,2.5c.9.3,1.5,1.4,2.2,2.1-.9.7-1.7,1.5-2.6,2.2-.2.2-.6.1-.9,0-9.7-1.8-19.4-3.8-25.6-12.7-2.7-3.8-5.8-7.3-8.5-11.2a40.17,40.17,0,0,1-3.9-7.4c-1.6-3.5-3-7.2-4.4-10.8C680.2,619.8,679.9,618.9,679.6,618.1Z"/><path d="M219,1310.1c30.7,27.3,64.8,47.3,105,55.8-11-.3-21.8-1.9-31.6-6.8-13.9-6.9-27.7-13.9-41.3-21.4-11.6-6.4-21.4-15.3-30.6-24.7a8.06,8.06,0,0,1-1.2-1.4C219,1311.4,219.1,1311.1,219,1310.1Z"/><path d="M392.5,849.5c4.8,7,5.5,16,10.3,23.2.8-10.1.5-20.1,2.5-30,.3,10.3.7,20.6.9,30.9s.7,20.6,3.9,31c-2.3-.2-2.7-1.7-3.2-2.9a40,40,0,0,1-3.1-16c0-2.3.5-4.8-2.4-6.1-.5-.2-.7-1-.9-1.6-3-9.4-6-18.7-9-28.1A6.89,6.89,0,0,1,392.5,849.5Z"/><path d="M818,906.8c4.2-1.1,7.1,4.7,11,.3,1.1,2.7,3.1,3.8,5.6,4.6,4.2,1.3,8.2,3,12.3,4.5,4.6,1.7,6,1.2,8.4-3,1.1-2,2.2-4,3.2-5.9.8.3,1.2.3,1.3.4,2.2,4.4-.2,7.8-2.6,11.1a7.45,7.45,0,0,1-8.7,2.9c-2.7-.8-5.2-2.1-7.9-3-3.3-1.1-6.3-3.6-10.2-2.5-4-2.3-8-4.6-11.9-7.1C818.2,908.9,818.3,907.8,818,906.8Z"/><path d="M888.4,678.5c0,9,.1,18,0,27-.1,7.7-.4,15.4-.3,23a118.82,118.82,0,0,0,1.3,15.8c.4,2.5,2.2,4.7,3.7,7.6a10.94,10.94,0,0,1-3-.5,9.41,9.41,0,0,1-4.4-7.4c-1.9-20.4-.4-40.7.7-61a23.55,23.55,0,0,1,1-4.6A3.4,3.4,0,0,1,888.4,678.5Z"/><path d="M304.2,206.6c-5.4,24.1-45.7,54.6-72.6,53.5l4.2-1.2c23.6-6.4,43.8-18.4,59-37.8C298.5,216.4,301.4,211,304.2,206.6Z"/><path d="M577.7,958.8a8.85,8.85,0,0,1,2.9.4c18.5,9.2,38.8,14.8,55.8,27C629.9,985.8,581,963.5,577.7,958.8Z"/><path d="M711.8,806.5c1.1,3.5.4,6.3-1.4,8.4a36,36,0,0,1-7.8,7.3c-6.7,4.3-13.7,8.1-20.7,12-1.5.8-3.6,2.5-4.9.2s1.2-3.1,2.8-4c3.1-1.9,6.2-3.7,9.3-5.5C702.5,817.3,702.5,817.3,711.8,806.5Z"/><path d="M730.4,781.1c.9-1.9,2.4-1.5,3.7-1.4,6.7.1,13.4.6,20.1.3,3.8-.2,7.6-1.5,11.3-2.5,2.7-.7,5.3-1.9,8-2.6a3.29,3.29,0,0,1,2.4.6,4.92,4.92,0,0,1-.6,2.9c-.5.7-1.6.9-2.4,1.3-11.6,5.4-23.9,5.4-36.3,4.4C734.4,783.8,731.7,783.8,730.4,781.1Z"/><path d="M876.7,444a61.54,61.54,0,0,1-8.6-.1c-6.1-.7-12.1-1.7-18.1-2.5a2.48,2.48,0,0,1-.9-.1c-5.8-2.7-12.2-2.4-18.3-3.8-.7-.2-1.8-.3-2.1-.8a3.08,3.08,0,0,1,.1-2.3c.2-.4,1.1-.5,1.7-.5,4.5.4,9.3.2,13.4,1.6,5.6,1.9,11.3,2.4,17,3.3,3.4.6,6.8,1,10.2,1.8a57.7,57.7,0,0,1,5.8,2.2A4.3,4.3,0,0,1,876.7,444Z"/><path d="M502.1,507.6a6.51,6.51,0,0,1,2.2-1.6c6.2-1.4,12.4-3.3,18.8-3.9,15.4-1.6,30.8-2.6,46.3-3.7a71,71,0,0,1,12.2,0,35.78,35.78,0,0,1,10.9,2.8,36.84,36.84,0,0,1-4.7,0c-8.3-1.4-16.5-.9-24.8-.1-4.5.5-9.1.6-13.6.9-12.5,1-24.9,2-37.4,3.2-3.3.3-6.6,1.6-9.9,2.4Z"/><path d="M884.2,607.1c1.7,2.6,3.5,5,5,7.7,5.7,9.8,8.3,20.5,9.4,31.7.3,3.3.7,6.5,1,9.8.1,1.3.6,2.9-1.6,3.5-1.9-1.3-1.7-3.4-2-5.3-.6-5.1-1.1-10.3-1.9-15.4-1.1-7.6-3.8-14.8-7-21.8-1.4-3.1-2.7-6.2-4.1-9.4C883.4,607.6,883.8,607.4,884.2,607.1Z"/><path d="M873.6,418.3h-5.1c.2-.5.2-.9.4-1,5.5-1.8,7-3.6,7-9.4a98.53,98.53,0,0,0-1-10.8c-.3-2.8-.6-5.6-.7-8.4a19.88,19.88,0,0,1,.6-4.4c2.1,1.4,2,2.9,2.2,4.4.7,5.3,1.7,10.5,2.3,15.8.6,6,0,11.6-5.3,16.1-2.4,2-4.4,3.2-7.3,2.9-3.6-.4-7.3-5.2-6.9-9.2,2.4.9,3.5,3.1,5,4.7C867.3,421.5,870.5,421.4,873.6,418.3Z"/><path d="M257.1,626.9c-3,29.1-6,58.3-9.1,87.4a73.77,73.77,0,0,1,0-21.5c1.2-8,2.1-16.1,2.7-24.2.9-12.8,3-25.4,4.6-38.2.2-1.2.6-2.4.9-3.6A2.77,2.77,0,0,0,257.1,626.9Z"/><path d="M674.3,534.7c5.6,7.4.9,40.8-7.2,53.8,1.8-9.3,3.7-18.2,5.4-27.1C674,552.6,672.1,543.5,674.3,534.7Z"/><path d="M904.2,651.9c.2,2,.7,4.1.4,6a52.13,52.13,0,0,1-6.2,20.3,22.48,22.48,0,0,1-3,3.5c-1.8-1.9-1.4-3.5-.6-4.8,1.6-2.8.8-4.9-1.1-7.1-2.1-2.6-4.1-5.4-4.1-9.3,2.4,3.1,4.7,6.2,7.1,9.3.4-.1.7-.1,1.1-.2.9-3.5,1.7-7.1,2.6-10.6a26.1,26.1,0,0,1,1.2-5c.4-.9,1.8-1.3,2.7-2Z"/><path d="M782.4,658.9c.6.6,1.2,1,1.3,1.5,1.6,9.5,3.2,19,4.7,28.5.1.9-.5,2-.8,3.1-2.4-.5-2.7-2.3-3-3.9-1.5-7.8-2.9-15.6-4.1-23.5C780.2,662.8,779.9,660.6,782.4,658.9Z"/><path d="M234.5,1225.8c1.2,1.9,2.4,3.9,3.7,5.7a59,59,0,0,0,15.5,15.6,216.87,216.87,0,0,0,32,17.7c5,2.3,10.3,3.8,15.9,3.4a28.86,28.86,0,0,1-16.4-2.1c-12-5.2-23.5-11.1-34-18.8A48.48,48.48,0,0,1,234.5,1225.8Z"/><path d="M414.3,823.7c1.7,13.7.9,27.5,2.9,41.5,1.6-.2,2.8-.4,4-.5.1.3.3.5.3.8,0,.5.1,1.2-.1,1.4-1.4.8-2.9,2-4.5,2.1-1.9.2-2.4-1.6-2.6-3.3-.4-4-1.1-8.1-1.1-12.1,0-8.1.3-16.3.5-24.4A48.7,48.7,0,0,1,414.3,823.7Z"/><path d="M513.6,666.8c2.3,4.8,6,34.7,4.6,39.7-3.1-1.5-4-4.1-4.1-7.2,0-5.2.2-10.3.1-15.5C514.1,678,513.8,672.3,513.6,666.8Z"/><path d="M247.7,774.8c1.4,16.3-3.5,32.1-4.2,48.2A159.92,159.92,0,0,1,247.7,774.8Z"/><path d="M156.4,1198a132.74,132.74,0,0,1,27.7,15.7c9.1,6.9,17.7,14.4,26.5,21.8a56.81,56.81,0,0,1,5.3,5.7,4.35,4.35,0,0,0-.6.7,16.67,16.67,0,0,1-1.6-1.2c-15.6-14.6-31.7-28.4-50.8-38.3-2.3-1.2-4.2-3-6.3-4.5Z"/><path d="M728.8,942.4c-1.5,4-1.5,8.2-1.1,12.8,6,2.1,12.1,1.5,18.5.5a5.44,5.44,0,0,1-5,3.9,69.86,69.86,0,0,1-12.1.1c-4-.4-5.3-2.3-5.3-6.3a52.53,52.53,0,0,1,.9-8.8c.4-2.3,2-3,4.2-2A.35.35,0,0,0,728.8,942.4Z"/><path d="M937.2,845.5c.6-.1,1.3-.4,1.7-.1,4.1,2.1,8.5,1.5,12.8,1.8a20,20,0,0,1,6.3,1.5,5.66,5.66,0,0,1,2.8,2.9c.4.9,0,2.3-.1,3.4-1-.2-2.2-.2-2.8-.8a8.76,8.76,0,0,0-6.5-2.2c-2.8,0-5.6.1-8.4-.1C939,851.5,937.4,849.6,937.2,845.5Z"/><path d="M832.2,853.5c1-5.7,2.3-11.3,2.8-17,.5-5.5.1-11.1.1-17.3a7.07,7.07,0,0,1,3.1,5.6c.9,8.3,1,16.6-2,24.6C835.5,851.2,835.1,853.5,832.2,853.5Z"/><path d="M320.6,1020.6c-1.2,10-13.1,37.8-18.8,45.5a4.45,4.45,0,0,1,.3-5.3c4.4-5.8,6.5-12.7,9.4-19.3C314.5,1034.6,317.6,1027.6,320.6,1020.6Z"/><path d="M719.5,714.4c-.3-5.3-.7-10.5-1-15.8q-.15-3.3,0-6.6a20.58,20.58,0,0,0-2.2-10,32.78,32.78,0,0,1-3.5-14.7,4.87,4.87,0,0,0,1.1-.4c.4,1.2.8,2.3,1.2,3.5,1.2,3.9,2.5,7.7,3.7,11.6.7,2.2,1.8,4.5,1.9,6.7.4,7.2.4,14.4.5,21.6,0,1.4-.3,2.8-.4,4.2C720.3,714.5,719.9,714.4,719.5,714.4Z"/><path d="M162.4,1294.5c17.4,6.4,34.5,13.8,46.8,28.6-.2.3-.4.7-.6,1a31.35,31.35,0,0,1-5-3.8c-9.1-9.4-20.5-15.3-32-21C168.4,1297.8,165.5,1296.1,162.4,1294.5Z"/><path d="M770.3,437.2c4.7,16.8,11.4,31.9,21.4,45.5C779.5,474,770.3,450.2,770.3,437.2Z"/><path d="M843.6,448.9c2.5-2.3,4.6-1.8,6.5-1.4,4.9.9,9.7,1.9,14.6,2.9.3.1.6.1.9.2,1.3.3,2.6,1.1,2,2.5a3.61,3.61,0,0,1-2.7,1.8,27.63,27.63,0,0,1-7-.6,109.52,109.52,0,0,1-10.8-3.1C846,451,845,449.9,843.6,448.9Z"/><path d="M837.5,693c.3,3,.5,6,.8,9a15.27,15.27,0,0,1,0,3.7c-.5,3.6,1.5,5.5,4.4,6.9a36.39,36.39,0,0,1,7.2,3.9c-.9.2-1.9.7-2.7.5a43.3,43.3,0,0,1-7.9-2.7,7.44,7.44,0,0,1-4.4-7.6c.2-3.6.2-7.2.4-10.8a16.66,16.66,0,0,1,.8-3A6.6,6.6,0,0,0,837.5,693Z"/><path d="M613.8,655.2a6,6,0,0,1,1.6-1.9,20.8,20.8,0,0,1,4.3-1.9,49.67,49.67,0,0,0,23.8-16.7c1.1-1.3,2.2-2.5,3.6-4.1-.5,3.9-6.6,11-13.4,16.5C628.1,651.6,621.4,653.8,613.8,655.2Z"/><path d="M731,986.9a25.93,25.93,0,0,1,4-.6,11.94,11.94,0,0,0,10.7-6.6c2.1-4,3.7-8.2,5.4-12.4.6-1.4,1.1-2.9,1.8-4.8.5.7.9,1,.9,1.3-.6,7.5-3,14.4-8,20.1C741.9,988.4,737.3,989.3,731,986.9Z"/><path d="M820,915.6c.4.2,1.1.3,1.2.7,2.4,6.5-2.7,14.3-9.5,14.6a20.86,20.86,0,0,1-5.6-.4c-1-.2-1.9-1.1-2.9-1.6l.3-1.2c1.4-.1,2.9-.2,4.3-.2,6,.1,8.4-.9,9.8-6.9.4-1.7,1.6-3.3,2.5-5Z"/><path d="M820.2,915.5a23.08,23.08,0,0,1-3.7-.3c-10.5-2.8-21-5.7-32.3-8.7a10.27,10.27,0,0,1,2.7-1,29.56,29.56,0,0,1,5.1.6c7,1.8,13.9,3.5,20.8,5.6,2.6.8,4.8,2.6,7.3,4C820,915.6,820.2,915.5,820.2,915.5Z"/><path d="M293,1050a4.26,4.26,0,0,1-5.4-2,19.31,19.31,0,0,1-2.2-3.6,94.59,94.59,0,0,1-7.1-20.8C284.2,1031.8,285.4,1042.6,293,1050Z"/><path d="M831.2,813.8c-.6-1-1-1.3-1-1.7V778.6C833.1,783.4,833.7,804.1,831.2,813.8Z"/><path d="M205.4,1280.6c-11.9-.3-38.7-11.6-54.1-19.9,5.9,2.4,11.7,4.9,17.6,7.3s11.8,5.1,17.9,7.2S199.4,1278.8,205.4,1280.6Z"/><path d="M173.8,1028.5a10.21,10.21,0,0,1-6.5-4.2,78.23,78.23,0,0,1-14.8-27.9C158.8,1007.3,164.1,1018.8,173.8,1028.5Z"/><path d="M96.5,772.6c3.6,13.4,11.6,24.4,19.6,35.3C107.3,802.1,96.7,783,96.5,772.6Z"/><path d="M815.6,534.1c5,6,1.6,12.7,1.4,19.1,1-.1,1.5-.1,2.1-.2,0,.3.1.7-.1.8q-4.2,3.45-5.1-1.5a6.75,6.75,0,0,1-.2-1.4C814.4,545.4,815,539.8,815.6,534.1Z"/><path d="M389.9,1278.5c-5.1-2.4-11.4.4-13.3,6.1,2.1.2,4.1.4,6.1.5,0,.3.1.6.1.8a41.32,41.32,0,0,1-6.1,1.3c-2,.1-3.1-1.2-3-3.3.3-4,3.1-6,6.4-7.4,3-1.2,6.3-2.3,9.1.5C389.6,1277.3,389.6,1277.7,389.9,1278.5Z"/><path d="M467.1,1283a26.6,26.6,0,0,0-3.9,1.6c-3.5,1.9-3.9,5.4-1.1,8.1a9.66,9.66,0,0,0,6.9,2.5c3,0,5.9.2,8.9.3.1,0,.1.2.4.7-4.5.9-9,1.6-13.4.6a11.69,11.69,0,0,1-4.1-2.2,7.06,7.06,0,0,1-2.6-7.5c.7-3.1,3.2-4.1,5.8-4.7a16.05,16.05,0,0,1,3.1,0Z"/><path d="M560.7,936.2c-.9-13.7-1.8-27.4-2.7-41,.3,0,.7-.1,1-.1,2.3,13.5,1.7,27.2,2.8,40.8C561.5,936,561.1,936.1,560.7,936.2Z"/><path d="M1065.4,1005.4c2.7-.5,3.2-2.6,4-4.6,2.8-6.7,5.7-13.4,8.7-20.2a4,4,0,0,1,2-2.1c-.4,1.2-.8,2.5-1.3,3.7-2.5,6.7-5,13.4-7.7,20.1C1069.8,1005.8,1069.5,1005.9,1065.4,1005.4Z"/><path d="M1115.8,470.2c-3.5,1.7-6.9,3.6-10.4,5.1-6.8,2.8-13.7,5.3-20.5,8a13.57,13.57,0,0,1-3.6.9c5.8-3,11-7.2,17.6-8.8,5.6-1.5,11.3-3.4,16.9-5.2Z"/><path d="M973.8,839.3c6.2-.4,12.4-.9,18.6-1.3a1.88,1.88,0,0,1-1,3c-5.9,1.9-11.7,1.1-17.5,0A10.28,10.28,0,0,1,973.8,839.3Z"/><path d="M551.9,1209.9a29.56,29.56,0,0,0-3.8.5,9.55,9.55,0,0,0-7.6,8.5c-.5,4.6-.1,9.1,2.6,13.1.7,1,1.3,2.1,2.1,3.5-6.8-4.6-9.1-15.1-5-21.3C543,1210.1,546.8,1209.1,551.9,1209.9Z"/><path d="M531.4,824.2c11.6,5.4,23.2,10.8,35.3,16.4C560.6,840,538.3,829.7,531.4,824.2Z"/><path d="M303.5,1018.1c-.4,5-1,9.9-1.1,14.9-.2,6.2,0,12.5-.9,18.7-.3-7.7-.5-15.5-1-23.2-.3-3.9,1.1-7.2,3-10.4Z"/><path d="M772.1,466.3c-1.1-5-2.2-10-3.4-14.9s-2.6-9.5-3.9-14.3c3.8,3.9,8.4,20.2,8.3,29.1A3.4,3.4,0,0,1,772.1,466.3Z"/><path d="M926.4,1057.1c1,6.2,1.4,11.9,4.4,17.3.7-1.1,1.1-1.7,1.9-2.9-.1,2.4-.2,4.3-.3,6.6-1-.1-1.7.1-2.1-.2C927,1074.6,924.6,1062.8,926.4,1057.1Z"/><path d="M956.1,832.3c2.3,1.7,4.6,2.6,7,0-.7,1.2-1.4,2.4-2.2,3.8,2.5,1.6,5,3.2,8,5.1-2.7,1.5-4.3.1-5.8-.5a31.37,31.37,0,0,1-5.5-3.4C955.6,836.2,955.2,834.7,956.1,832.3Z"/><path d="M466.9,988c-1.9,11-6.2,21.1-11.9,30.6C459,1008.4,463,998.2,466.9,988Z"/><path d="M471.4,853.4c-1.1,9.8-3.5,19.1-8.1,27.7C466,871.9,468.7,862.7,471.4,853.4Z"/><path d="M284.4,1291.9c-10.6-.2-19.3-3.2-27.8-7.2C265.5,1287,274.4,1289.3,284.4,1291.9Z"/><path d="M616.9,1103.9c-4.3-4.1-6.4-14-4.1-20.6,1.7,2.3.8,4.7,1.3,6.8a60.6,60.6,0,0,1,1.5,7.4C615.8,1099.5,618.1,1101.3,616.9,1103.9Z"/><path d="M663.5,870.1c5.7,9.4,13.5,16.8,22.2,23.3A50.14,50.14,0,0,1,663.5,870.1Z"/><path d="M439.9,1247.9c-.5-2,.9-3,2.2-4.1a35.33,35.33,0,0,1,19-7.4c-2.3,1-4.7,1.8-7,2.9a67.59,67.59,0,0,0-7.1,3.6C444.7,1244.3,442.5,1246,439.9,1247.9Z"/><path d="M593.1,767c10.1,2.5,20.2,5.1,30.3,7.6C612.9,773.8,603,770.5,593.1,767Z"/><path d="M578.1,1234.1c-1.3.2-2.7.4-4,.7-3,.7-3.7,2.1-2.1,4.7a58.06,58.06,0,0,0,5.5,6.6c-3.6-1.5-6.2-3.4-7.8-6.4-1.8-3.6-.3-6.2,3.6-6.5,1.5-.1,3.1,0,4.6,0C578.1,1233.4,578.1,1233.7,578.1,1234.1Z"/><path d="M363.7,829.6c.6,1.9,1.1,3.7,1.7,5.6.8,2.8,1.7,5.7,2.4,8.6a2.14,2.14,0,0,1-.9,1.8c-.5.2-1.3-.4-1.9-.8a1,1,0,0,1-.4-.8,75.81,75.81,0,0,1-1.9-14.1C363,829.8,363.3,829.7,363.7,829.6Z"/><path d="M307.4,1076c.1-3,2.6-4.6,3.9-7s2.9-4.5,4.2-6.8,2.5-5,3.9-7.4C317.8,1063.3,313,1069.9,307.4,1076Z"/><path d="M426.4,1267.5a39.35,39.35,0,0,0-6,.6c-2.1.5-4,1.6-6,2.2a10,10,0,0,1-3.4.5c-.2,0-.8-1.3-.6-1.5a6.93,6.93,0,0,1,2.7-2.2A19.05,19.05,0,0,1,426.4,1267.5Z"/><path d="M1112,741.7c-1.3,9.6-2.6,18.3-3.8,27.4C1106.9,759.7,1108.5,751,1112,741.7Z"/><path d="M456.8,986.1c-.4.8-.7,1.6-1.1,2.4-4,7.4-8,14.8-12.4,21.9A118.27,118.27,0,0,1,456.8,986.1Z"/><path d="M288.9,883.7c4-6,8-12,12.1-18C300.4,870.3,293.8,880.3,288.9,883.7Z"/><path d="M442.5,853.8c-2.4,8.5-4.8,16.9-7.2,25.4l-1-.3c2.4-8.5,4.8-16.9,7.2-25.4A1.69,1.69,0,0,0,442.5,853.8Z"/><path d="M973.2,521c9.1-2.6,18.1-5.2,27.5-7.8C993.3,516.9,977.6,521.3,973.2,521Z"/><path d="M957,843.8c2.4-2.2,3.9-.7,5,.3,2.3,2.3,6.5,2.7,6.7,7.1C965,848.7,960.4,847.6,957,843.8Z"/><path d="M439,885.6c-2.6-4.3-1.9-9,3.1-18.6-.6,2.9-1.3,5.8-1.8,8.8S439.4,882,439,885.6Z"/><path d="M916.3,1006.3a93.72,93.72,0,0,1-.1,10.6c-.5,4.4-3.8,6-8.2,3.8.9-.1,1.4-.2,2-.3,3.8-.5,4.8-1.5,4.9-5.4.1-2.9,0-5.9,0-8.8A6.6,6.6,0,0,1,916.3,1006.3Z"/><path d="M725.1,1314.6c-6.2,6.2-12.4,12.3-18.6,18.5l-.2-.2,18.8-18.5Z"/><path d="M293.7,986c-4.3-5.8-8.5-11.6-12.8-17.5.3-.2.5-.4.8-.6,4.4,5.7,8.7,11.5,13.1,17.2A10.63,10.63,0,0,0,293.7,986Z"/><path d="M872.1,566.6c4,7.8.6,16.1,1.7,21.9C873.4,582.6,872.7,574.6,872.1,566.6Z"/><path d="M540.2,1270.9c-7.4,1-13.7-5.6-13.7-14.1a35.76,35.76,0,0,0,2.4,6,18.78,18.78,0,0,0,4.5,5.2C535.2,1269.3,537.6,1269.8,540.2,1270.9Z"/><path d="M406.2,1316.4c-4.8-.1-6.3-1.3-7.3-5.5-1.2-5.2.1-8.3,4.7-10.6C397.6,1308.5,398.6,1314.5,406.2,1316.4Z"/><path d="M853.5,805c-2.6,6.4-6.3,8.4-12.7,7.6,2.7-1.2,5-1.9,6.9-3.1A41,41,0,0,0,853.5,805Z"/><path d="M184.1,828.9c1,4.9,2.1,9.8,3.1,14.6l-1.1.3c-3.1-4.3-1.8-9.8-3.3-14.5A5,5,0,0,1,184.1,828.9Z"/><path d="M849.6,414.2c-2.3,1.3-3.4.3-3.8-1.2-.6-2.5-1.2-5.2,1.7-7.2C850.2,408.3,848.5,411.5,849.6,414.2Z"/><path d="M725.5,926.2c4.4,5,8.7,10.1,13.1,15.1A38.22,38.22,0,0,1,725.5,926.2Z"/><path d="M140.9,1063c-5.8-2.2-9.7-6.8-12.9-12.3Z"/><path d="M727.5,1360.9c3.9-5.2,7.9-10.3,11.8-15.5-1.3,4.4-8.1,12.9-11.9,15.4Z"/><path d="M352.5,774.3c-3.8-.4-5.7-3.4-6.5-11.4C348.3,766.9,350.5,770.7,352.5,774.3Z"/><path d="M980.7,854.7c-4.5,1.4-8,1.5-11.8.3C971.8,852.7,975.6,852.5,980.7,854.7Z"/><path d="M499.3,1236.2c-4.7,2.2-11.2,1.2-10.9,9.5C486.4,1239.3,490.4,1236.1,499.3,1236.2Z"/><path d="M267,877.8c-1.4,4.3-2.7,8.7-4.1,13C262.1,885.8,264,881.6,267,877.8Z"/><path d="M115.2,776.3c.8,5.3,1.6,11,2.4,16.1C115.5,790,114.8,785.8,115.2,776.3Z"/><path d="M773,351c-1.2,2.5-2.5,5-3.9,7.8C768,354.7,768.8,352.6,773,351Z"/><path d="M276.5,1084.2a26.49,26.49,0,0,1-11.6-8.8C268.8,1078.3,272.6,1081.3,276.5,1084.2Z"/><path d="M765.1,619.3c3.8.5,7.6,1,11.6,1.5C773.7,622.6,770.5,622.3,765.1,619.3Z"/><path d="M566.3,1184.8c-1.6,2.8-3,5.3-4.4,7.7C560.3,1188.7,561.5,1186.6,566.3,1184.8Z"/><path d="M342.7,949.3c-1.3-3.8.2-7,2.1-10.2Z"/><path d="M372.9,1202.6c-4.7-1.6-9.3-3.1-14-4.7a1.85,1.85,0,0,0,.2-.7c4.6,1.5,9.3,3.1,13.9,4.6A1.13,1.13,0,0,1,372.9,1202.6Z"/><path d="M927.1,1115.9c1.5,3.8-1.1,7.9,2.7,10.7-1.7,1.1-2.6.4-2.7-1C927,1122.6,927.1,1119.5,927.1,1115.9Z"/><path d="M280,1202.5c5,.4,9.9.7,14.9,1.1a1.7,1.7,0,0,1-.1.7c-5-.3-9.9-.6-14.9-.8A3.08,3.08,0,0,1,280,1202.5Z"/><path d="M1115.9,470.2c3.6-1.3,7.1-2.7,10.7-4-3.3,2.5-6.4,5-10.7,4Z"/><path d="M238.6,1013.5c-2.4-2.3-4.7-4.6-7.1-6.9l-.1.1c2.4,2.3,4.8,4.6,7.1,7C238.5,1013.6,238.6,1013.6,238.6,1013.5Z"/><path d="M727.4,1360.8c-2.3,3-4.6,5.9-6.9,8.9a3.92,3.92,0,0,0-1-.8c2.7-2.6,5.3-5.3,8-7.9A.35.35,0,0,0,727.4,1360.8Z"/><path d="M670.4,1307.5c-2,2.1-3.9,4.3-5.9,6.4l.2.2c2-2.2,4-4.4,5.9-6.7A.31.31,0,0,1,670.4,1307.5Z"/><path d="M379.4,1204c3.3,1.2,6.6,2.4,9.9,3.5a1.45,1.45,0,0,0-.2.7l-10.2-3.6A2.65,2.65,0,0,1,379.4,1204Z"/><path d="M352,1322.9c-.1,2.5-.2,4.5-.3,6.8C350.2,1327.4,349.7,1325.3,352,1322.9Z"/><path d="M734.2,1303.7c-2.1,2.5-4.2,5-6.3,7.6a6.47,6.47,0,0,0-.9-.8c2.4-2.2,4.9-4.4,7.3-6.6Z"/><path d="M156.5,1197.9c-3.1-1.3-6.1-2.6-9.2-3.9.1-.3.3-.6.4-.9,2.9,1.6,5.8,3.3,8.7,4.9Z"/><path d="M247.1,862.7c1.4,2.9,2.7,5.8,4.1,8.7a3.55,3.55,0,0,0-.9.4c-1.1-3.1-2.1-6.2-3.2-9.1Z"/><path d="M774.1,371.9c-1.6-1.9-2.8-3.3-4.1-4.8C774.4,367.5,774.4,367.5,774.1,371.9Z"/><path d="M491.6,510.6c-2.8,1.4-5.7,2.9-8.5,4.3l-.3-.6c3-1.2,6-2.4,8.8-3.7Z"/><path d="M853.7,412.2c1.7-2,3.5-1.6,5.4-.9C857.8,413.8,857.5,413.8,853.7,412.2Z"/><path d="M815.4,812.4q3,.9,6.3,1.8C818.1,814.9,818.1,814.9,815.4,812.4Z"/><path d="M335.8,846c-.3-2.6-.5-5.2-.8-7.8a.9.9,0,0,0,.5-.1c.3,2.6.7,5.3,1,7.9Z"/><path d="M389.7,869.3c.8,2.4,1.7,4.8,2.5,7.2a1.85,1.85,0,0,1-.7.2c-.9-2.4-1.7-4.8-2.6-7.2C389.2,869.4,389.4,869.4,389.7,869.3Z"/><path d="M877.8,422.4c1.7-1.8,2.8-3,4.1-4.4C882,421.7,882,421.7,877.8,422.4Z"/><path d="M702.4,454.1h7.9v.1h-7.9Z"/><path d="M524.2,1384.2h-7.3v-.3H524C524.1,1384,524.1,1384.1,524.2,1384.2Z"/><path d="M348.3,1193.6c1.7.6,3.4,1.2,5.2,1.9-.1.2-.1.4-.2.6-1.8-.6-3.7-1.2-5.5-1.8C347.9,1194.1,348.1,1193.9,348.3,1193.6Z"/><path d="M961.4,800.3c1.3-2.9,2.8-2.9,5.4-2.7C964.8,798.6,963.6,799.3,961.4,800.3Z"/><path d="M842,1226.4v4.2h0a29.44,29.44,0,0,1,0-4.2Z"/><path d="M510.5,1218.3h5v.1c-1.7,0-3.4,0-5-.1Z"/><path d="M930.6,890.9c.9-1.1,1.8-2.2,2.7-3.2.2.1.3.3.5.4l-2.7,3.3Z"/><path d="M760.5,1318.5c1.1-1.5,2.2-3,3.3-4.6.3.2.5.5.8.7-1.4,1.3-2.8,2.5-4.1,3.8Z"/><path d="M734.3,1303.8a7.64,7.64,0,0,1,4.7-5.6l-.1-.1c-1.6,1.9-3.1,3.8-4.7,5.6Z"/><path d="M878.6,707.4v3.8h-.1v-3.4C878.5,707.7,878.6,707.6,878.6,707.4Z"/><path d="M242.7,862.3c-.3,1.6-.5,2.6-.9,4.4C240.4,864.6,241.2,863.7,242.7,862.3Z"/><path d="M347.9,844.7c.9,1.2,1.8,2.3,2.7,3.5a4.35,4.35,0,0,1-.7.4c-.6-1.3-1.3-2.7-1.9-4Z"/><path d="M302.1,1205.9c1.2.1,2.4.1,3.6.2v.2h-3.6Z"/><path d="M702.1,1336.6c-.8.7-1.6,1.4-2.4,2-.1-.2-.3-.3-.4-.5.8-.7,1.6-1.3,2.4-2A2.18,2.18,0,0,0,702.1,1336.6Z"/><path d="M877.7,721.1v3.1h-.1v-3.1Z"/><path d="M739,1298.2l2.1-4.2.9.6c-1,1.2-2.1,2.3-3.1,3.5Z"/><path d="M247.2,862.6c-.3-1.4-.7-2.9-1-4.3.2,0,.4-.1.6-.1.1,1.5.2,2.9.4,4.4Z"/><path d="M191.1,1199.2a26.35,26.35,0,0,0,2.8.2v.4h-2.6C191.2,1199.6,191.2,1199.4,191.1,1199.2Z"/><path d="M472.1,796.4l-3-2.1c.1-.2.3-.3.4-.5.9.9,1.7,1.8,2.6,2.6Z"/><path d="M260.5,1071.9l1.1.8a1.38,1.38,0,0,0-.3.4c-.3-.3-.7-.5-1-.8C260.3,1072.2,260.4,1072.1,260.5,1071.9Z"/><path d="M745.9,1289.9c-.5.5-.9,1-1.4,1.5-.2-.1-.3-.3-.5-.4.4-.5.8-1.1,1.2-1.6A4.23,4.23,0,0,0,745.9,1289.9Z"/><path d="M347.9,844.6c-.3-1.1-.7-2.2-1-3.3.2,0,.4-.1.6-.1.2,1.2.3,2.3.4,3.4Z"/><path d="M472.1,796.5c.3,1.2.5,2.5.8,3.7h-.8v-3.7Z"/><path d="M750.1,1283.8c-.5.9-1,1.8-1.6,2.7-.2-.2-.4-.3-.6-.5.8-.7,1.5-1.4,2.3-2.1C750.2,1284,750.1,1283.8,750.1,1283.8Z"/><path d="M943.9,970.4c.2-.6.5-1.2.7-1.9a6.37,6.37,0,0,0,.7.2c-.2.7-.4,1.3-.6,2A6.89,6.89,0,0,1,943.9,970.4Z"/><path d="M753,1280.2c-1,1.2-2,2.4-2.9,3.6l.1.1c1-1.2,2-2.4,2.9-3.6Z"/><path d="M753.1,1280.3l1.2-3a2.51,2.51,0,0,1,.7.4c-.7.8-1.3,1.7-2,2.5Z"/><path d="M797.3,1314.4c-.4.3-.7.7-1.1,1,.1-.2.1-.5.3-.7s.4-.3.6-.5C797.2,1314.3,797.3,1314.3,797.3,1314.4Z"/><path d="M760.4,1318.4c-.5,1-1,2-1.6,3-.2-.2-.5-.3-.7-.5l2.4-2.4Z"/><path d="M653.4,1323.2a10.63,10.63,0,0,0,1.1-.9c.1.1.1.2.2.3a10.63,10.63,0,0,0-1.1.9C653.6,1323.3,653.5,1323.2,653.4,1323.2Z"/><path d="M502,507.6c-1.5.7-3,1.3-4.5,2h.1a3.89,3.89,0,0,1,4.4-2Z"/><path d="M787.6,1324.7a11,11,0,0,1,1-1.1l.3.3a11,11,0,0,1-1,1.1Z"/><path d="M751,1330.7c.6-.8,1.1-1.6,1.7-2.5l.5.5c-.8.6-1.5,1.2-2.3,1.9Z"/><path d="M750.9,1330.5c-.4,1-.8,2-1.3,3.1-.2-.1-.5-.3-.7-.4.7-.8,1.4-1.7,2.1-2.5Z"/><path d="M419.6,875c0,.7-.1,1.5-.1,2.2h-.3V875Z"/><path d="M225,880.6c-.3-.6-.5-1.2-.8-1.9.2-.1.3-.1.5-.2a14.17,14.17,0,0,1,.8,1.8A2.19,2.19,0,0,1,225,880.6Z"/><path d="M695.6,1342.2c-.5.4-.9.9-1.4,1.3a1.38,1.38,0,0,0-.4-.3c.4-.5.9-.9,1.3-1.4C695.3,1341.9,695.4,1342.1,695.6,1342.2Z"/><path d="M491.7,510.7c1.9-.4,3.9-.7,5.8-1h0c-1.9.3-3.9.6-5.8,1Z"/><path d="M687,1348.8l-1.4,1.1c-.1-.1-.2-.3-.3-.4l1.4-1.1C686.8,1348.5,686.9,1348.7,687,1348.8Z"/><path d="M309.2,801v2.6c-.1-1.4-.1-2-.1-2.6C309.1,801.1,309.2,801.1,309.2,801Z"/><path d="M303.5,1018.1c-.1-1.4-.2-2.8-.3-4.1h.3v4.1Z"/><path class="cls-1" d="M652.6,674.2c-2.3,12-5.1,23.7-10.7,34.5a30.08,30.08,0,0,1-7.5,9.5,87.1,87.1,0,0,0-10.9,11c-3.2,3.9-6.6,4.6-11.5,2.5,3.3-3.2,6.3-6.3,9.7-9,6.7-5.4,11.6-12.3,15.6-19.8,2.2-4.1,3.1-8.8,4.5-13.3.3-.9.3-2.1.9-2.5,4.7-2.9,6.5-7.9,9.2-12.2A4.62,4.62,0,0,1,652.6,674.2Z"/><path class="cls-1" d="M788.6,269.3c-3.4,1.9-6.3,4.3-9.9,1,.9-7,4.5-13.2,7.5-19.7,3.4-7.2,6.9-14.4,9.8-21.8,1.8-4.8,2.7-9.9,3.8-15,1.5-6.6,4.6-8.8,11.4-7.7,2.2.4,4.3,1.1,6.3-.4.4-.3,1.2,0,1.8,0,10.5,1.6,21.1,3.1,31.6,5,11.7,2,23.4,4.5,35.1,6.5,12.2,2.1,24.3,4.9,36.7,5,9.2,0,16.8,4.6,24.3,9.1,2.1,1.3,1.5,3.3,1.4,5.1-.5,9.4-1.4,18.8-1.4,28.1,0,9.7-2.5,18.9-4.7,28.2a45.67,45.67,0,0,0-1.2,7.4,11.14,11.14,0,0,0,1.7,7.4c2.3,3.6,1.7,8.2,1,12.3-.6,3.5-2,6.9-3.1,10.3-.2.7-1.2,1.2-2.5,2.4a18.32,18.32,0,0,1,.3-4c2.4-6.4,1.9-13.1,1.5-19.6-.2-3.1-1.6-6.9-5.5-8.2-1.8,1.3-1,2.7-.6,4,2.5,8.8,2.5,17.5-1.4,26.4-5.1-.7-9.9-1.3-14.5-2,1.4-5.8,2.8-11.4,4.3-17.5,1.5-.3,3.8-.8,6.6-1.4-.9-.8-1.2-1.3-1.7-1.5-1.6-.6-3.6-.7-4.7-1.8-1.4-1.3-2.1-3.4-3-5.2a33.58,33.58,0,0,0-2-4.3c-.5-.7-1.9-1.5-2.5-1.3a3.39,3.39,0,0,0-1.6,2.4,25,25,0,0,0,1.2,4.5,13.28,13.28,0,0,1,0,2c-6.9-1.8-13.6-3.6-20.7-5.4.3-2.3.8-4.6.9-6.9,0-1-.8-2.1-1.3-3.1-.9.7-2.3,1.2-2.6,2.1a63.57,63.57,0,0,0-2,7.8c-1-.1-1.9-.1-3.1-.2.4-1.9.8-3.4,1.2-5-.2-.1-.3-.2-.5-.3-1,1.5-1.9,3-3.2,4.9-1.3-.2-2.8-.5-4.3-.7-4.8-.7-9.6-1.6-14.4-1.9-2.8-.2-5.7.4-9.2.7a33.31,33.31,0,0,1,.5-3.8c.6-2.8,1.5-5.5,1.9-8.2.1-.8-.9-1.7-1.3-2.5-.7.5-1.8.9-2.1,1.5-1,2.5-1.7,5.1-2.5,7.6-.5,1.5-.9,2.9-1.5,4.7-9.2-2-17.2-6.4-25.8-9.5-.5-2.6-1-5.1-1.5-7.9-2.1,1.6-2.1,1.6-3.3,7.2a81.36,81.36,0,0,1-15-6.1c-.4-3.8,2.9-7,1.1-10.9-4.3,1-3.9,5.4-6.2,8.2-2.8-.6-5.9-1.1-8.8-1.9C788.5,275.2,788.5,274.8,788.6,269.3Z"/><path class="cls-1" d="M850.5,319.5c1-2.9,2.8-2.5,4.8-2,4.6,1.1,9,2.2,13.9,1.9,2.6-.1,5.6.5,7.3,3.4.2.4.9.5,1.3.6,2.2.4,4.4.8,6.2,1.1.8,2.8,1.5,4.9,2.1,7a3.75,3.75,0,0,1,1.1.1c.9-1.5,1.7-3.1,2.9-5.1,4,1.3,8.2,2.4,12.3,3.9a40,40,0,0,0,17.5,2.3c3.4-.4,7,.6,10.8,1v5.5c1.8-.8,3.1-1.4,4.7-2.2,1.3,4.3-.1,8.5-1.2,13.4,4.2-4.8,2.7-10.1,3.7-15.2,3.1,1,5.9,1.1,8.7,3.1,5.3,3.9,11,7.3,17.7,8.4a32.16,32.16,0,0,0,18.8-2.4c7-3,14.3-5.2,21.4-7.8a8.79,8.79,0,0,1,.6,1c-1.7,2.1-3.4,4.1-5.2,6.2a74.29,74.29,0,0,1-5.3,5.9c-4,3.8-8.1,7.4-12.2,11-3.3,2.9-7.4,4.1-11.5,5.1-8.2,2-16.5,3.7-25.1,3.1-3.3-.2-6.5-.7-9.8-1.1-6.7-.8-13.4-1.6-20.1-2.2a37.84,37.84,0,0,0-7.5.5c-6,.6-11.8.6-17.7-1.1-10.4-2.9-20.9-5.4-31.2-8.6-17.8-5.5-34.3-13.7-48.9-25.4-3.5-2.8-6.9-5.9-10.5-8.6-3-2.3-6.1-4.3-9.3-6.4l-29.4-18.6a8.79,8.79,0,0,1-3.2-3.8h10.9a6.88,6.88,0,0,0,2.5-.3c3.2-1.7,4.6-1.3,6.1,1.9a21.19,21.19,0,0,0,1.8,2.9c1.4-1.1,2.4-1.9,4-3.1,5,2.2,10.3,4.4,15.7,6.7,2,.8,3.8,2.4,6.1.6.5-.4,1.8,0,2.5.4a40.18,40.18,0,0,1,4.6,2.4c4.7,2.9,9.5,5.3,15.4,4.8,1.6-.1,3.3.7,5,1.2,4,1.2,8,2.7,12.1,3.8C847.3,315.4,849.4,316.2,850.5,319.5Zm-10.2,17.3c.1-.3.2-.5.3-.8-4.9-2.6-9.8-5.2-14.7-7.9-.1.3-.3.5-.4.8C830.4,331.5,835.3,334.1,840.3,336.8Z"/><path class="cls-1" d="M912.3,328.9c-7.3-2.3-14.4-4.5-22.2-7,1-5.5,1.9-10.9,2.9-16.6,8.1.3,15.1,3.5,22.3,5.3C916.3,316.5,915.6,320.6,912.3,328.9Z"/><path class="cls-1" d="M860.2,298.8c7.3,1.6,14.2,3.1,21.7,4.7-1.6,4.9-2.9,9.2-4.4,13.8-8.2-1.7-16.2-3.3-24.8-5,.5-3.6.9-6.8,1.3-9.8,2.6-.2,4.7-.3,7-.5C860.7,300.8,860.5,300.2,860.2,298.8Z"/><path class="cls-1" d="M849.5,301.2c-.4,3-.8,6.1-1.3,9.4-7.6-.3-14-4.2-21.4-4.7-.9-4.6-1.8-9.1-2.9-14.6C833,294.9,841.2,298,849.5,301.2Z"/><path class="cls-1" d="M819.9,290.8c.7,4.3,1.6,9,2.5,14-5.3-2.6-10.3-5.1-15.3-7.6-1.9-.9-3.8-1.8-5.7,1-.9-5,1-8.8,1.6-13.2C808.9,287,814.2,288.9,819.9,290.8Z"/><path class="cls-1" d="M796.7,295.5c-4.8-1.3-9.5-2.5-14.5-3.8-.6-5.4,1.5-9.9,4.2-14.6,4.2,1.6,8.1,3,12,4.5C797.8,286.2,797.3,290.7,796.7,295.5Z"/><path class="cls-1" d="M888.1,305.2c-.9,5.1-1.9,9.9-2.9,15.3-2.1-.7-3.7-1.3-6-2.1,1.4-4.5,2.6-8.6,4-12.7C884.1,303.4,885.9,304.2,888.1,305.2Z"/><path class="cls-1" d="M772.1,289.6c1.7-5.6,3.3-10.6,5-16,1.7.6,2.9,1,4.3,1.5-1.6,5.3-3.1,10.3-4.8,15.7C775.6,290.5,774.4,290.1,772.1,289.6Z"/><path class="cls-1" d="M833.8,540.8c1.3,1.6,2.2,3.3.4,5.6-.5-1.7-1.1-3.5-1.6-5.2A5.64,5.64,0,0,1,833.8,540.8Z"/><path class="cls-1" d="M880.5,870.1c9.3-5.4,19-11,28.7-16.5.5.7.9,1,.8,1.2-.8,5.7.2,11.2.9,16.8a123.56,123.56,0,0,1,.4,13.6,89.48,89.48,0,0,0,2.2,20,141.19,141.19,0,0,1,3.1,18c.4,5.1-.5,10.2-.9,15.9-2.4.1-4.6.2-7,.4-1-6.1-3.2-11.9-2.6-17.4.6-5.9-2.5-8.7-6-11.6-8.3-6.7-12.9-15.5-15.1-25.7C883.7,880,882.1,875.4,880.5,870.1Z"/><path class="cls-1" d="M742.4,587.1c-2.4,3.2-1.6,6.7-.2,10.1s2.5,6.7,3.7,10.2a60.9,60.9,0,0,1,2.7,19.5c0,14.4.3,28.8.5,43.2.1,7.4.4,14.7.3,22.1a10.13,10.13,0,0,1-7.4,9.7c-3.7,1-6.2-.3-6.8-4.2a70.53,70.53,0,0,1-1.1-10.3c-.3-15.4-.4-30.7-.5-46.1a70.73,70.73,0,0,1,.7-11.3c1.1-6.9.3-13.7-.3-20.6-.8-9.5-4.3-17.9-9.1-25.9a4.19,4.19,0,0,1-.8-2.1c.1-4.4-2.4-7.7-4.6-11.1a47.86,47.86,0,0,0-4.9-6.9c-2.9-3.3-4-7.4-5.3-11.4-1-3-1.9-6-2.9-8.9-1.8-5.2-.5-8.1,4.6-9.9a55,55,0,0,1,17.9-3.3c4.5-.1,5.7.6,6.5,5,1.5,7.6,3,15.2,2.2,23.2-.7,7.1.4,14.4,1.2,21.5C739.1,582.3,741.1,584.5,742.4,587.1Zm.7,108.5c.4-.4,1.4-1,1.6-1.9.4-1.6-1.4-4-2.7-3.6a3.76,3.76,0,0,0-2.2,2.4C739.5,694.3,740.6,695.4,743.1,695.6Z"/><path d="M840.3,336.8c-5-2.6-9.9-5.3-14.9-7.9.1-.3.3-.5.4-.8,4.9,2.6,9.8,5.2,14.7,7.9A3.09,3.09,0,0,1,840.3,336.8Z"/><path d="M743.1,695.6c-2.5-.2-3.6-1.4-3.3-3.1a4,4,0,0,1,2.2-2.4c1.3-.4,3.1,2.1,2.7,3.6C744.5,694.6,743.5,695.2,743.1,695.6Z"/></g></g></svg>