<svg xmlns="http://www.w3.org/2000/svg" viewBox="0 0 1200 1501">
  <defs/>
  <defs>
    <style>
      .cls-1{fill:#fff}
    </style>
  </defs>
  <g id="Layer_2" data-name="Layer 2">
    <g id="Layer_1-2" data-name="Layer 1">
      <path d="M0 0h1200v1501H0zm232.5 851.7a83.1 83.1 0 00-25.3-12.4c-6-1.8-11.9-3.7-18-5a58.9 58.9 0 00-44.7 6.7c-4.2 2.6-8.1 5.4-12.1 8.3-.8.6-1 1.7-2 3.4 7.7.7 11.1-6.1 16.5-7.6 2 1.7 3.5 3.6 5.4 4.4 3.4 1.3 4 3.7 4 6.7v22c0 8.5 3.1 16 8.2 22.6 3.4 4.4 6.8 5.5 11.9 3.4a20.6 20.6 0 006.7-5c4-4.2 5.3-9.6 6.8-15.2 1.7-6.6.5-12.3-2.4-18-1-2.2-2.5-4.2-3.5-6.5-3.1-7.2-9.5-9.8-16.4-11.8-1.4-.4-3-.5-3.7 2.4 2.3 1 4.9 2.1 7.2 3.5 2.6 1.5 5.7 2.8 7.2 5.1 3 4.2 5 9 7.2 13.5 2.6 5 0 10-.8 14.9-.7 4.5-3.3 8-6.4 11.1-3.9 3.9-8.2 3.2-11.4-1.4a32.5 32.5 0 01-6.2-19.1v-19.8c0-3.5-.5-6.7-3.8-9a68.6 68.6 0 01-6.4-5.9 12.7 12.7 0 013-2c8-2.5 15.9-4.9 24.4-4 12.7 1.3 24.8 5 36.6 9.6 8 3 15.4 7.4 20 15 3.4 5.6 6.2 11.6 9.3 17.4 2.3 4.3 4.6 8.7 7.2 12.8.5.8 2 1 3.2 1.3a12.2 12.2 0 00.3-3 9.2 9.2 0 00-1.2-2.6c-3.4-6.5-6.5-13.2-10.2-19.6-3.3-5.6-7.2-11-10.9-16.4l16.1 7c5.7 2.4 9.9 6.8 13.5 11.7 1.6 2.3 2.3 4.8.9 7.5-3.8 7.2-2.7 14 1 21 5 9 11.6 14.6 22.5 14.3 7.4-.3 11.4-3.4 11.7-10.7.7-16.7-5.2-25-18-32.5-2-1.1-4-2.1-6.2-.2.2 3.2 3 3.4 4.8 4.4a27.5 27.5 0 0115 28.1c-.2 2.9-1 5.5-4 6-5.3.8-10.7 1-15.2-2.8a32.1 32.1 0 01-9.2-14.7c-1.4-4 .2-7.8 1.8-11.5a10 10 0 00-.6-9.7 38.1 38.1 0 00-16.3-15l-12.8-6.1-4.4-1.8-.3 5.2zm239.2-428.6a17.8 17.8 0 011.7-3.1c5.3-6.1 10.2-12.7 16.1-18.2 9.9-9.3 20.2-18.1 30.7-26.8a80.8 80.8 0 0115-10c5.6-2.7 11.7-4.3 17.5-6.5 1.6-.6 3.5-1.2 4.4-2.4a8.7 8.7 0 001.7-5.5 4.6 4.6 0 00-4.8-4 20.3 20.3 0 00-6 .7 91.9 91.9 0 00-32.4 16c-4.4 3.7-9 7.4-13.6 11a194.2 194.2 0 00-35.8 35.3c-11 14.3-23.7 26.8-36.3 39.6-5.4 5.5-10.9 11-15.8 16.9-10.9 13-18.7 27.8-26.9 42.5-3.9 7.1-7.9 14.2-12.4 21-8.5 12.6-15.3 26-18.4 41-.8 4.2-2 8.4-3.2 12.5-4.5 14.6-9.3 29.1-13.6 43.8a73.8 73.8 0 00-3.8 18.8c-.4 15.5 0 31 .6 46.4.5 10.1 2.2 20.2 3.2 30.4a513.8 513.8 0 008.2 56c2.9 14.1 8.6 26.6 18.8 36.6 6.4 6.4 13.7 11.8 20.6 17.6 2 1.7 4 3.2 5.6 4.4-.6 3-1.6 5.1-1.5 7.3.5 11-1.4 21.7-3.7 32.5a62.5 62.5 0 01-18.5 35.4c-4.2 3.8-6.8 9.5-9.7 14.5a21.9 21.9 0 00-2.4 7.5c-.6 3.8 1.6 5.8 5.4 4.7a20.8 20.8 0 005.3-3l8.7-6.3-1.5 6.2c-1 6-2.2 12.2-3 18.4 0 1.3 1 3.6 2 4s3.3-.1 4.5-1a13.8 13.8 0 003.7-4.2c4-6.6 7.8-13.4 11.6-20 1.4-2.4 2.3-5 5.7-6l1.7 4.4c1.3 3.7 2.5 7.5 4 11.2 1 2.6 1.8 5.7 5.4 5.7 3.3 0 4.1-2.9 5.1-5.3s1.9-4.5 2.6-6.9c2.4-7.2 4-14.7 7-21.5C430 904.3 436 894.3 441 884c3-5.8 5.5-12 8-18 .7-1.9 1.8-4.5-1.9-5.6a9.6 9.6 0 00-1.6 2.4c-4 13.1-11.4 24.6-17.6 36.6-4.2 8-8.4 16-10.4 25a116.8 116.8 0 01-4 12.4c-.6 1.9-1.6 3.6-3 6.5-1.2-2.8-2-4.2-2.6-5.8-1.4-4-2.6-8.3-4.1-12.3s-4.7-5-7.9-2a31.6 31.6 0 00-5.5 7.1c-1.9 3.3-3.2 6.8-5 10.2a23.4 23.4 0 01-8.3 10c.3-3.3 0-5.9.7-8a180 180 0 016-16.5c1.5-3.6 3.7-7 5.5-10.5 1-2.1 1.8-4.3-1.2-6.2-8.8 7.5-14.2 18.8-26 25a32.8 32.8 0 01.9-4.3 42.7 42.7 0 0111.3-16.8 44.2 44.2 0 0013-18.9c4.4-14 8.4-28.2 8.3-43.2 0-3.5 0-7 .2-11.3l5.2 2.6c2.3 1.3 4.5 2.7 6.9 3.9a103 103 0 0042.6 10c2 0 3.9.4 6 .6a16 16 0 01-.6 2.4l-13.6 28a139 139 0 00-13.5 47.1c-1.9 16-2.4 32-3.3 48-.3 4.5-1.2 8.4-4.6 11.7a26.9 26.9 0 00-4.7 6.4 1552 1552 0 00-17 32 259.3 259.3 0 00-24 79.2 218.6 218.6 0 00-2.3 34.4 33.7 33.7 0 01-4.1 17.3 43.5 43.5 0 00-2.8 6.1c-7 18.5-18.5 34.5-28.6 51.3a29.6 29.6 0 01-14.1 11.7c-8.3 3.7-16.3 8-24.4 12a68.7 68.7 0 01-7.7 3.6 245 245 0 00-40.6 18.5 68.3 68.3 0 00-10.5 7.6c-3.1 2.6-3.8 5.7-2.4 8.6 1.5 3.2 4.3 4 7.5 3.8a27.2 27.2 0 003.4-.3l12.8-2.4 20-3.8c1.3-.2 2.6.1 4.6.3a19.3 19.3 0 01-2 1.7l-3 1.6a102 102 0 00-38 34 30 30 0 00-4.4 9c-2 6.3 2.3 10.9 8.8 10a18.5 18.5 0 002.2-.5 89 89 0 0022.5-9c7.8-4.3 15.6-8.5 23.7-12a80.3 80.3 0 0021-12.1 31.3 31.3 0 015.8-3.7 15.2 15.2 0 013.5-.9 6.2 6.2 0 01-.2 1.7c-6 12.6-12.2 25-18.2 37.7a77 77 0 00-4.1 10.5 5.6 5.6 0 002.2 6.5 6.2 6.2 0 007 .3 19.3 19.3 0 002.8-1.9c3.5-2.9 7.3-5.4 10.3-8.8 11.6-12.7 22.8-25.7 34.1-38.6l4-4.7 1 3.5 5.2 21.5a31.1 31.1 0 0011.8 18c4.6 3.5 9.6 2.8 12.6-2.1a22.5 22.5 0 003.1-8.4c1.3-9.7 2.4-19.5 3-29.2s1.3-19.6 4.5-29c1.8-5.4 3.6-10.8 5-16.3 2.2-9 6.3-16.6 13.5-22.9 8-7 13-16 16.3-26.1 4.8-14.7 10.2-29.2 15.1-43.9.9-2.5 1.5-5.7.8-8.1-.7-3 0-4.5 1.7-6.6 6.2-7.6 12.8-15 18.2-23.2 11.9-17.9 23.2-36.2 34.7-54.3a47.2 47.2 0 007.2-19 32.7 32.7 0 015.8-14.5 159 159 0 0020.7-38.2c5.8-17 12.8-33.5 16-51.3 1.4-8 3.8-15.7 5.7-23.6l3.4-14.2h4.3c11.9.5 23.7 1.1 35.6 1.5 7 .2 14 .3 20.7-2.2.4-.1 1 .3 2.1.6.1 1.9.4 4 .3 6a54.4 54.4 0 003.6 22.2c2.9 7.2 5.7 14.4 9 21.3 7.7 15.8 15.8 31.4 23.5 47.1 6.4 13 13.7 25.2 24 35.5a10 10 0 013.3 7.8c.1 19 1.7 37.7 9.9 55.3 2.3 5 4.1 10.1 6.3 15.1 5.2 12.1 10.4 24.3 16 36.3a113.7 113.7 0 0025.1 34.7 55.4 55.4 0 0114.8 21.8 33.4 33.4 0 011.5 21 51.3 51.3 0 01-17.7 25.2c-19.4 15.6-39.2 30.7-58.7 46.3a225 225 0 00-17.4 16.2 11.3 11.3 0 00-3.3 6.2c-.5 4.7 4 7.3 9.3 5.4s10.9-4.3 16.3-6.6l32.4-13.3c4.7-2 9.4-3.9 14-6a54 54 0 0114.7-5 21 21 0 01-.8 2.6l-19.7 42.6a9.6 9.6 0 00-.9 3.8c0 3.9 2.9 6.4 6.7 5.6a12 12 0 005-2.4l15-13c3.2-2.7 6.5-5.3 9.8-7.8l12.3-9 13.6-9.6c.8.9 1.1 1.1 1.2 1.4l.4 3.4c1 14.4 5.8 27.6 13.2 39.8 3 5 5.5 6.3 9 5.3 4.5-1.3 5-5.2 5-9l-.2-25.5.2-5 2.8 2.5 17.8 16.5a17.3 17.3 0 004.3 2.8c5.6 2.6 10.5-.6 10.2-6.8a21.5 21.5 0 00-1.1-5.5c-5.1-15.5-5.1-31.6-5.4-47.6a132.8 132.8 0 00-7.6-42.7q-5.6-15.7-10.2-31.8c-1.7-6.1-2.7-12.5.1-18.9a13.9 13.9 0 00.7-6c-.7-13-.7-26.2-2.4-39a314.8 314.8 0 00-8-37.7c-3.4-13.1-7.8-26-11.7-39A97.3 97.3 0 00803 1045c-3.4-4.6-6-9.6-9.4-14.2-4.5-6-4.6-12.3-2-19.2 3-8.3 5.5-16.9 8-25.4a105.8 105.8 0 002.6-51.5c-2.5-12.5-6.2-24.8-9.7-37.1a79.5 79.5 0 00-15-31.4c-5.6-6.5-11-13-16.3-19.7-2-2.4-3.7-5-6-8l6.5-2.8c11.6-5 24.3-8.4 32.7-18.8a5.8 5.8 0 011.3.4 13.4 13.4 0 011.7 1.5 162 162 0 0037.3 28.4l15.7 9c12 6.7 24.2 13.3 37.9 16 3.1.7 4.7 2.2 5.3 5.6a158.5 158.5 0 012.3 42.8c-1.3 15.4-3 30.9-7.2 45.8a20.6 20.6 0 00-.3 4.6c3 1 4.6-.3 6-2l13.6-16c1-1.2 2.1-2.2 3.8-4 .5 1.9 1 2.7 1 3.6-.7 12 2.8 23.5 4 35.3a10.6 10.6 0 00.4 2.8c1 2.6 3.1 3.4 5.3 1.7a15 15 0 004.4-5 45 45 0 003.5-10.1c1.6-7.6 2.7-15.2 4.1-22.9a45.2 45.2 0 011.4-4.5c3.2 4.8 5.6 8.8 8.3 12.6a39 39 0 006.2 7.2 8.2 8.2 0 009 1.3c2.9-1.3 2.6-4.3 2.7-7l.2-5.6v-30.6c0-2.8.3-5.7.5-8.5.4-6 1.2-12 1.3-18 .2-9.4 0-18.9.1-28.3.1-7.3 1-14 7.5-19.2 3.4-2.6 6-6.3 8.5-9.8A205 205 0 001008 797c4.7-12.6 9.6-25 13.5-37.8 5.2-16.8 9.2-34 14.3-50.7a152 152 0 006.7-44c0-25.5.2-51 0-76.5-.3-26.2 1.2-52.4-1.2-78.6a259.4 259.4 0 00-7.8-42.8c-1.4-5.6-3.5-11.1-5.3-16.7-.7-2.2-.9-4.1 1.3-6 3-2.7 3.2-5 1.4-8.6a34.6 34.6 0 00-3-4.8 291.8 291.8 0 00-28.6-34.3 119.9 119.9 0 00-23.8-19c-15.3-9.3-32.1-15-49-20a327.8 327.8 0 00-42-9.2c-10-1.6-20-3.8-30.4-3a54.8 54.8 0 01-21.8-3c-2.9-1-5.2-.3-8 1.2a81.8 81.8 0 01-13.5 5.4 6.3 6.3 0 01-4.8-1c-8-5.4-16-10.6-22.7-17.6 1-4.4 2.2-8.5 3-12.8 1.6-8 3.1-15.9 4.4-23.9a171.4 171.4 0 002.3-20.1c.4-10.8 0-21.6.1-32.3a175 175 0 00-3.3-42.8 16.4 16.4 0 01-.4-2.8 139.4 139.4 0 00-5.6-31.7c-1.2-4.1-1.6-8.5-2.3-12.8l-1.6-10.6a167 167 0 01-4.2-33 38.4 38.4 0 00-2.3-12.8c-2.5-6.9-5.1-13.8-8.8-20.1A114.6 114.6 0 00749.9 54c-10.7-11.6-25.1-17.7-39.5-23.5a21.2 21.2 0 00-5-1c-6.7-1-13.6-1.1-20.2-2.7-12.7-3.1-25.7-3.3-38.7-4.4-8.4-.8-17-.1-25.4-1.4-18-2.8-36-3.1-54.2-2.4-4.9.2-9.7 1.3-14.6 2-5.4.6-10.8 1.5-16.2 1.6-17.6.2-35.2 0-52.7.2-6.8.1-13.5 1-20.3 1.7-4 .5-8.2 2-12.3 1.8-11.6-.7-22.2 4-33.3 5.6-5.7 1-11.6 2.2-15.8 6.9a6.7 6.7 0 01-2.5 1.2c-10.2 4-20.2 8.5-30.6 11.9a167.5 167.5 0 00-49.2 26.2q-10.6 8-21 16.4a186.3 186.3 0 00-30.1 29c-6.4 8.2-13.4 15.9-20 23.8L228 171.5l-26.7 33c-4.4 5.6-9 11.2-12.6 17.4a207 207 0 00-12.6 25.9 99.3 99.3 0 00-9 41.1c.6 17 14.8 20.9 25.7 16.2 9.3-4 18.5-8.4 28.4-11 4.3-1.2 8-4 12-6.4 2.3-1.4 4.4-3.4 6.8-4.9 12.7-7.5 25.3-15.2 38-22.4 14.1-8 27.2-17.3 38.2-29s23.4-20 38.7-24.3c19-5.4 38.2-9.3 58-6.5a115.9 115.9 0 0119.7 5c4.7 1.6 7 5.1 7 10.5-.1 9.8-8.3 24-18.2 28.9-8.1 4-16.7 7-25.3 10-9.2 3.2-19 5.3-27.9 9.2q-23.5 10.4-46.3 22.6c-9.8 5.2-18.9 11.7-28.2 17.8a109 109 0 00-12.3 9q-17.9 15.7-35.3 31.8a131.8 131.8 0 00-25.2 29c-4 7-7 14.3-6.1 22.6.9 9 4.5 17.4 12.6 21.6 12 6.4 25.2 7.2 37.5.4 10.4-5.7 21-11.3 31.1-17.3 23.5-14.1 49.3-22.6 74.4-33 7.5-3 15.4-5.4 22.5-9.1 8-4.2 15.4-9.5 22.9-14.7 7.2-5 14.6-9.2 23.1-11.6 11.8-3.2 23.8-6.2 35.3-10.1a90.5 90.5 0 0127.8-4.7 164 164 0 0150.6 8.2c10.1 3 20.2 6.3 30.3 9.5l8.7 2.5a35 35 0 01-2.8 2.3c-13 8.4-26.2 16.5-38.9 25.3a479.8 479.8 0 00-35.8 26.7c-9 7.5-16.6 16.4-24.8 24.8-2 2.1-3.8 4.5-5.8 6.8l-.8-1.4zm-277 664.1l1-1 4.5 1.8c2.7 1.2 5.4 2.7 8.2 3.8a65.5 65.5 0 0119.4 11.4 25.4 25.4 0 014 4.7c3.3 4.8 3 10.3 2.5 15.8a76.3 76.3 0 000 13.5c.7 6.4 4.3 11 10.7 12.5a51.8 51.8 0 0012.3 1.1c6.2-.1 9-3.4 9.1-9.7a55 55 0 00-8.4-29.6 47.1 47.1 0 00-36.5-22.8c-4.5-.5-8.6-1.2-12.3-3.6a20 20 0 00-14.5-3.6c-2.5.4-3.9-.8-5-2.8l-3.3-6a24.7 24.7 0 00-21.4-13.5l-4.5-.2h-18.7c-3.8-.2-4.3-.8-4.4-4.4-.2-5.3-.1-10.6-.1-15.9 0-8.3.4-16.6-3.7-24.3a10.5 10.5 0 01-1-3.9c-.9-9.3-2.3-18.7-2.5-28.1-.3-15.8-.4-31.6-2.2-47.5a158.2 158.2 0 01-.8-31.6c1.2-13 2-26 1.8-39a55.7 55.7 0 00-5.6-23.4c-1.1-2.4-2.4-4.9-2.7-7.4-1-7.6-1.6-15.3-2.4-23-.5-5.8-.7-11.7-1.7-17.4-.8-4.5-3.9-6.3-8.8-6.2-3.9 0-4.6.8-6 6-.3.7-.4 1.4-.6 2.2-2.4 9-3 18.2-2.9 27.5 0 10-.1 20-.5 30-.3 8.4-1.1 16.9-1.5 25.4-.5 8.7-1 17.3-1 26-.2 14.3-2.2 28.5-4.2 42.7a189.5 189.5 0 00-.8 44.6c1.3 14.6 4.7 29 8 43.4 3 13.8 7 27.3 10.7 41a85.9 85.9 0 013.2 24c-.2 9 .4 18.2-.2 27.2-.7 9.5-2.5 19-3.9 28.5-1.5 10.6-3.8 21.2-4.3 31.9-1.1 23.4.8 46.8-1.3 70.1-1 11.3-.7 22.7-1.2 34a74.1 74.1 0 01-1.7 12.8c-1.6 7-3.4 14-5.5 20.8-4.1 13.3-8.7 26.5-12.7 39.9-5 16-10.8 31.4-20 45.4a9.2 9.2 0 00-1.4 3c-.1.7.3 1.9.7 2a3.1 3.1 0 002.5-.3 7.8 7.8 0 002-2.6c4-7.5 8.5-14.8 11.8-22.5 3.7-8.7 6.5-17.8 9.4-26.7 4.4-13.3 8.7-26.6 12.6-40 3.9-13.6 7.4-27.2 7-41.6-.2-15.3 1.4-30.6 1.7-45.8.4-15.7-.3-31.4.3-47 .4-10 1.2-20.1 3.8-29.7 6.3-23.6 4.3-47.6 4.1-71.5a12.7 12.7 0 00-.4-2.8l-10-40.6c-1.4-5.5-3.4-10.9-4.6-16.4-1.9-9.4-3.3-19-5-28.4a168.8 168.8 0 01-1-45.6c.7-8.5 2.7-16.8 3.1-25.3 1.1-19.4 1.7-38.8 2.5-58.2l.5-10.7c.4-6 1.1-12 1.3-18 .2-7.8-.4-15.6.2-23.3.5-7.8 2-15.6 3.2-23.4.3-1.7.9-3.5 3-3.6 2.4 0 3.2 1.7 3.8 3.6a12.4 12.4 0 01.4 2.8l1.2 18.6c.5 10 1.3 20 6.4 29a26.6 26.6 0 012 5.8c3.5 12.3 2.5 24.8 1.6 37.1-1.3 17.8-2.7 35.4 0 53.1a145.6 145.6 0 011.5 17.5c.5 13.4.4 26.8 1.2 40.1.5 6.9 2.6 13.7 4 20.5.8 3.8 2 7.7 2.2 11.5.5 24 .7 48 1 72l1.1 86c.1 10.1.4 20.3 0 30.5-.8 17-3.7 33.7-10.8 49.4a53.5 53.5 0 00-4.6 16.3c-1 9.9-1 20-1.4 30a90.7 90.7 0 008.5 40.5c6.2 14 15.3 26 24.8 37.7a227.8 227.8 0 0026.2 27.3c1.9 1.6 3.4 4.1 6.4 3.2 1.3-2.7-.7-3.7-2-5-7.7-8-16.3-15-23.4-23.7-9-11-17.7-22-24.6-34.5a86.7 86.7 0 01-11.5-43.2c0-9.6.7-19.2 1-28.9a43.2 43.2 0 014.3-17.4c7.7-16.5 11-34.2 11.5-52.2.4-16.2-.8-32.4-1-48.6v-65.1c0-2.7 0-5.3-.2-8l-.8-28.8c-.1-1.8-.3-3.9 2-4.8s8.6-.5 9.7 1c9 11 13 24 13 38a6.1 6.1 0 01-1 3.3 70.1 70.1 0 01-4.7 6.3 35.8 35.8 0 00-9.2 27.1c.5 6 4.6 8.4 10 5.9 8-3.8 14.7-9.3 18.6-17.4 3.5-7 5.1-15.6-2.9-22-3.7-3-5.6-7.2-6.6-12.2a77.3 77.3 0 00-9.7-26.4 14.7 14.7 0 01-1-3.2c4.6-1.4 8.8-.5 13.1.1 4.7.7 8.6 2.7 11.2 6.9s5.3 8.2 7.5 12.6c5.6 10.7 10.8 21.6 18.6 31 3 3.5 5.6 7.5 6.4 12.4.3 1.5 1.5 3 2.6 4.3 7.3 9 8.4 19.1 6 30-2 8.7-5.9 10.3-14.2 10.6-5.2.1-7.6-2.4-7.9-7.6-.2-3.8 0-7.6 0-11.4a40.4 40.4 0 017.4-25.6c.7-.9.9-2.2 1.6-4.4-2 .7-3.5.7-4.3 1.5a23.8 23.8 0 00-3.6 5c-7 12.2-6 25.5-4.9 38.6.4 4.4 3.7 7.1 8 7.8 11.4 1.6 20-1.6 22.1-13.6.3-1.8.8-3.7 1-5.6.8-7.4.6-14.6-3.6-21.3-2.2-3.5-4-7.2-6-10.8-2.9-4.9-5.7-9.8-8.7-14.6l-11.6-18.7a22.3 22.3 0 01-1.6-4zM36.3 914c-1.1 14 3.9 20.1 11.7 23.8 5.6 2.7 11.8 2.8 17-1.6 5.4-4.6 10-9.9 12.2-16.7a241.6 241.6 0 006.5-24 52.1 52.1 0 00.5-14.6 17 17 0 00-8.8-13.7c-1.8-1-4-2-3.2-4.7 2.4-7.7 4.1-15.7 7.4-23 2.7-6.1 7.2-11.4 10.9-17a46.2 46.2 0 003.7-5.7c.4-.8-.4-2.2-.7-3.3-1 .4-2.2.5-2.8 1.2-2.3 2.8-4.3 5.7-6.5 8.5a59.8 59.8 0 00-12.6 26.2 50 50 0 01-10.7 22.2 755.4 755.4 0 00-15.8 20.6 51 51 0 00-8.8 21.8zm10.3 158.6c2-3.8 4-7.8 6.2-11.7 9.3-17 17.6-34.9 36.9-43.4.6-.3.7-1.5 1-2.3-.9-.4-2-1.4-2.7-1.2-3.3 1.4-6.8 2.5-9.6 4.7a69.1 69.1 0 00-17.3 19.2c-7.2 12.3-13.5 25.2-20.5 37.7-9.8 17.4-8 36.4-7.9 55.2 0 1 1.3 2 2 3 .7-1 2-1.8 2-2.8.3-3 0-6 .2-9 .4-9.2.5-18.5 1.5-27.6a33 33 0 016.9-16.6l12.9 11.7a37 37 0 0112.2 20.5 6.5 6.5 0 001 2.6 1.8 1.8 0 003.3-.8 6.4 6.4 0 00-.2-2.8c-1.4-5.9-3-11.7-7.4-16.2-6.4-6.6-13.1-13-20.4-20.2zM223.1 895c.4-11.8-.6-23.4-4.5-34.6a30.4 30.4 0 00-3.9-7.4c-.6-1-2.8-1.9-3.6-1.4-2 .9-.6 2.4.1 3.8a73.9 73.9 0 014 8.6c3.3 9.6 3.3 19.6 3.7 29.6.3 8-1 15.1-5.5 22a36.5 36.5 0 00-6.2 20.8c.1 5.6 1.8 10.3 6.3 14a8.6 8.6 0 009 1.6c7.2-2.5 11.5-8.3 12.2-16s-1-14.2-6.6-19.6c-4-3.9-6-8.4-5-14 .4-2.4 0-5 0-7.4zM67.3 1119.5l-2.2-.7c-3 6.4-7.6 12-7.9 19.3a200 200 0 00.7 24.9c.3 4.4 2 8.8 3.4 13a8.7 8.7 0 006.7 6.3c4.3.9 8.6.9 12.7-1.4a39.6 39.6 0 0015-14.9c5.9-9.8 4.5-19.1-3.8-27-4.7-4.3-9.4-8.7-12-14.8a21.5 21.5 0 00-2.8-3.8l-1.2.3c-.2 1-1 2.5-.5 3.3a97.7 97.7 0 007.3 12c2.1 2.8 5 5.1 7.6 7.5a13.7 13.7 0 014 15 30.3 30.3 0 01-17.2 19.2c-6.3 2.7-10.9.6-12.7-5.9-4.2-15.3-6.4-30.7 1.8-45.6a9.8 9.8 0 001.3-3.1 15.7 15.7 0 00-.2-3.6z" class="cls-1"/>
      <path d="M471.7 423.1h11.1l.9 1.4c1.9-2.3 3.7-4.7 5.7-6.8 8.2-8.4 16-17.3 24.8-24.8a479.8 479.8 0 0135.9-26.7c12.7-8.8 25.9-16.9 38.8-25.3a35 35 0 002.8-2.3L583 336l-30.3-9.5a164 164 0 00-50.6-8.1 90.5 90.5 0 00-27.7 4.6c-11.6 4-23.5 7-35.3 10.2a75 75 0 00-23.2 11.6c-7.4 5.1-14.9 10.4-22.9 14.6-7.1 3.8-15 6-22.5 9.1-25 10.4-51 18.9-74.4 33-10.2 6-20.7 11.6-31.1 17.3a38.2 38.2 0 01-37.6-.3c-8-4.3-11.6-12.6-12.6-21.7-.8-8.2 2.1-15.6 6.2-22.6a130.9 130.9 0 0125.1-29q17.5-16 35.4-31.8a109 109 0 0112.3-9c9.3-6 18.4-12.6 28.2-17.8q22.7-12.1 46.3-22.5c9-4 18.7-6 28-9.3 8.5-3 17-6 25.2-10 10-4.9 18-19 18.2-28.9 0-5.3-2.3-8.9-7-10.4a115.9 115.9 0 00-19.7-5c-19.8-2.9-39 1-58 6.4-15.3 4.3-27.8 12.7-38.7 24.3s-24 21.1-38.2 29c-12.8 7.3-25.3 15-38 22.5-2.4 1.4-4.5 3.4-6.9 4.8-3.9 2.4-7.6 5.3-11.9 6.4-10 2.6-19 7-28.4 11-10.9 4.7-25 .9-25.8-16.2-.6-14.6 3.9-28 9-41a207 207 0 0112.7-26c3.5-6.2 8.2-11.8 12.6-17.4l26.7-33q10-12.3 20.1-24.4c6.7-8 13.7-15.7 20-23.8 8.8-11.1 19.4-20.2 30.3-29q10.3-8.4 20.9-16.4a167.5 167.5 0 0149.2-26.2c10.4-3.4 20.4-7.9 30.6-11.8a6.7 6.7 0 002.5-1.3c4.2-4.7 10-6 15.8-6.8 11-1.7 21.7-6.3 33.3-5.7 4 .2 8.2-1.3 12.3-1.7 6.7-.7 13.5-1.6 20.3-1.7 17.5-.3 35 0 52.6-.2 5.5-.1 10.9-1 16.3-1.7 4.9-.6 9.7-1.8 14.6-2 18-.7 36.1-.4 54.2 2.4 8.3 1.3 17 .6 25.4 1.4 13 1.2 26 1.3 38.7 4.4 6.5 1.6 13.4 1.8 20.2 2.7a21.2 21.2 0 015 1c14.4 5.8 28.7 12 39.5 23.5a114.6 114.6 0 0114.5 20.1c3.7 6.3 6.4 13.3 8.9 20.2a38.4 38.4 0 012.3 12.7c0 11.2 2 22.1 4.1 33 .7 3.6 1 7.1 1.6 10.7.7 4.2 1.1 8.6 2.4 12.7a139.4 139.4 0 015.6 31.7 16.4 16.4 0 00.4 2.8c3.2 14.1 3.5 28.5 3.3 42.8-.2 10.8.2 21.6-.1 32.3a171.4 171.4 0 01-2.4 20.2c-1.2 8-2.8 16-4.3 23.9l-3 12.8c6.6 7 14.7 12.1 22.6 17.5a6.3 6.3 0 004.8 1 81.8 81.8 0 0013.6-5.4c2.7-1.4 5-2.1 8-1.2a54.8 54.8 0 0021.7 3c10.3-.7 20.4 1.5 30.4 3a327.8 327.8 0 0142 9.2c17 5 33.8 10.7 49 20a119.9 119.9 0 0123.9 19 291.8 291.8 0 0128.5 34.4 34.6 34.6 0 013 4.7c1.8 3.6 1.6 6-1.4 8.6-2.2 1.9-2 3.8-1.2 6 1.7 5.6 3.8 11.1 5.3 16.8a259.4 259.4 0 017.8 42.7c2.3 26.2.8 52.5 1.1 78.7.3 25.5.1 51 0 76.5a152 152 0 01-6.6 44c-5.1 16.7-9.2 33.8-14.3 50.6-4 12.8-8.8 25.3-13.5 37.8a205 205 0 01-27.8 47.2c-2.6 3.5-5.2 7.2-8.5 9.8-6.5 5-7.4 11.9-7.5 19.1-.2 9.5 0 19-.2 28.4-.1 6-.8 12-1.3 18-.2 2.8-.5 5.6-.5 8.4v30.6l-.1 5.7c-.1 2.6.1 5.6-2.7 7a8.2 8.2 0 01-9-1.3 39 39 0 01-6.2-7.3c-2.7-3.8-5.2-7.7-8.3-12.5a45.2 45.2 0 00-1.4 4.5c-1.4 7.6-2.6 15.3-4.2 22.8a45 45 0 01-3.5 10.1 15 15 0 01-4.3 5c-2.2 1.8-4.4 1-5.4-1.7a10.6 10.6 0 01-.4-2.7c-1.2-11.8-4.7-23.4-4-35.4 0-.8-.5-1.7-1-3.5-1.6 1.7-2.8 2.8-3.8 4l-13.5 16c-1.4 1.7-3 3-6 1.9a20.6 20.6 0 01.2-4.5 248 248 0 007.3-45.8 158.5 158.5 0 00-2.3-42.9c-.6-3.3-2.2-4.8-5.4-5.5a134.7 134.7 0 01-37.8-16l-15.8-9a162 162 0 01-37.2-28.4 13.4 13.4 0 00-1.7-1.5 5.8 5.8 0 00-1.4-.5c-8.3 10.5-21 13.8-32.7 18.8l-6.4 2.9 6 8c5.3 6.6 10.7 13.2 16.2 19.6 7.8 9.2 12 20 15 31.4 3.5 12.3 7.3 24.6 9.8 37.2a105.8 105.8 0 01-2.7 51.5c-2.5 8.5-4.9 17-8 25.3-2.5 7-2.5 13.2 2 19.3 3.4 4.5 6 9.6 9.5 14.1a97.3 97.3 0 0115.3 30.8c3.9 13 8.3 25.8 11.7 39 3.2 12.4 6.2 24.9 8 37.6 1.6 12.8 1.7 26 2.3 39a13.9 13.9 0 01-.6 6c-2.9 6.4-1.9 12.8-.1 19q4.5 16 10.2 31.7a132.8 132.8 0 017.5 42.7c.3 16 .3 32.1 5.4 47.6a21.5 21.5 0 011.1 5.5c.3 6.2-4.6 9.5-10.2 6.8a17.3 17.3 0 01-4.2-2.8l-17.9-16.5-2.7-2.4-.3 4.9.3 25.5c0 3.8-.6 7.7-5.1 9-3.5 1-6-.3-9-5.2a88.7 88.7 0 01-13.6-43.3c0-.2-.4-.5-1.1-1.3l-13.6 9.6c-4.2 3-8.3 5.9-12.4 9a193 193 0 00-9.7 7.7l-15 13a12 12 0 01-5 2.5c-3.9.8-6.8-1.8-6.7-5.7a9.6 9.6 0 01.8-3.8l19.8-42.5a21 21 0 00.7-2.6 54 54 0 00-14.7 4.9c-4.6 2.2-9.3 4.1-14 6l-32.4 13.4c-5.4 2.2-10.7 4.6-16.2 6.6s-9.8-.7-9.4-5.4a11.3 11.3 0 013.4-6.3 225 225 0 0117.4-16.1c19.4-15.6 39.2-30.7 58.6-46.3a51.3 51.3 0 0017.7-25.1c2.2-7.2 1-14.3-1.5-21.1-3-8.5-8.3-15.7-14.8-21.8a113.7 113.7 0 01-25-34.7c-5.7-12-10.8-24.1-16-36.3-2.2-5-4-10.2-6.3-15.1-8.3-17.6-9.8-36.3-10-55.3a10 10 0 00-3.2-7.8 131.8 131.8 0 01-24-35.5c-7.8-15.7-15.8-31.3-23.5-47a279 279 0 01-9-21.4 54.4 54.4 0 01-3.6-22.2c.1-2-.2-4-.3-6-1-.3-1.7-.7-2.1-.6a55.3 55.3 0 01-20.7 2.2c-11.9-.4-23.8-1-35.6-1.5h-4.4l-3.3 14.2c-2 7.9-4.3 15.6-5.7 23.6-3.2 17.8-10.2 34.4-16 51.3a158.2 158.2 0 01-20.7 38.2 32.7 32.7 0 00-5.8 14.5 47.2 47.2 0 01-7.2 19c-11.5 18.1-22.8 36.4-34.8 54.4-5.4 8.1-11.9 15.5-18 23.1-1.7 2-2.6 3.7-1.8 6.6.7 2.5 0 5.6-.8 8.1-5 14.7-10.3 29.2-15.2 43.9a57.4 57.4 0 01-16.2 26.1 42.7 42.7 0 00-13.6 23c-1.3 5.4-3.1 10.8-5 16.2-3.2 9.4-3.7 19.2-4.3 29s-1.8 19.5-3.1 29.2a22.5 22.5 0 01-3.2 8.4c-3 5-7.9 5.6-12.5 2.1a31.1 31.1 0 01-11.9-18l-5.1-21.5-1-3.5-4 4.7c-11.3 13-22.6 26-34 38.6-3 3.4-7 6-10.4 8.8a19.3 19.3 0 01-2.8 2 6.2 6.2 0 01-7-.4 5.6 5.6 0 01-2.3-6.5 77 77 0 014.2-10.5l18.2-37.7a6.2 6.2 0 00.2-1.6 15.2 15.2 0 00-3.6.8 31.3 31.3 0 00-5.7 3.7 80.3 80.3 0 01-21 12c-8 3.7-16 7.8-23.7 12.1a89 89 0 01-22.5 9 18.5 18.5 0 01-2.2.5c-6.5.9-10.8-3.7-8.8-10a30 30 0 014.5-9 102.5 102.5 0 0141-35.6 19.3 19.3 0 001.9-1.7c-2-.1-3.4-.5-4.6-.3l-20 3.8-12.8 2.4a27.2 27.2 0 01-3.4.3c-3.3.2-6-.6-7.6-3.8-1.3-2.9-.6-6 2.5-8.6a68.3 68.3 0 0110.5-7.6 245 245 0 0140.6-18.5 68.7 68.7 0 007.7-3.6c8.1-4 16.1-8.3 24.4-12 6-2.6 10.8-6.3 14-11.7 10.2-16.9 21.7-32.9 28.6-51.5a43.5 43.5 0 012.8-6.2 33.7 33.7 0 004.1-17.2 218.6 218.6 0 012.3-34.5 258 258 0 0124-79.3 1552 1552 0 0117-32 26.9 26.9 0 014.6-6.3c3.5-3.3 4.4-7.2 4.7-11.7.9-16 1.4-32 3.3-48 1.9-16.3 6-32.2 13.5-47 4.7-9.3 9-18.7 13.5-28a16 16 0 00.6-2.5l-6-.6a103 103 0 01-42.5-10c-2.4-1.2-4.6-2.6-7-3.9l-5.1-2.6-.3 11.3c.2 15-3.8 29.2-8.3 43.2a44.4 44.4 0 01-13 19 42.7 42.7 0 00-11.2 16.7 32.8 32.8 0 00-.8 4.3c11.7-6.2 17-17.5 25.9-25 3 2 2.2 4 1.1 6.2-1.7 3.5-3.9 6.9-5.4 10.5-2.2 5.4-4.2 11-6 16.5-.7 2.2-.5 4.7-.7 8a23 23 0 008.3-10c1.8-3.3 3-7 5-10.2a31.6 31.6 0 015.5-7c3.2-3 6.4-2.2 7.9 2l4.1 12.3c.5 1.5 1.4 3 2.6 5.7 1.4-3 2.4-4.6 3-6.5a116.8 116.8 0 004-12.4c2-9 6.2-17 10.4-25 6.2-12 13.7-23.5 17.6-36.6a9.6 9.6 0 011.6-2.4c3.6 1 2.5 3.7 1.8 5.5A249 249 0 01441 884c-5.1 10.2-11 20.2-15.8 30.6-3 6.9-4.6 14.4-7 21.6-.7 2.3-1.6 4.6-2.6 6.8s-1.8 5.3-5.1 5.3c-3.6 0-4.4-3.1-5.4-5.7l-4-11.2-1.8-4.5c-3.3 1-4.2 3.8-5.6 6.1-3.8 6.7-7.6 13.4-11.6 20a13.8 13.8 0 01-3.7 4.2c-1.2.9-3.3 1.6-4.4 1.1s-2.2-2.8-2-4.1c.7-6.2 1.8-12.3 2.9-18.4.2-1.6.7-3.2 1.5-6.2-3.6 2.7-6.1 4.6-8.7 6.3a20.8 20.8 0 01-5.3 3c-3.8 1.1-6-.9-5.4-4.7a21.9 21.9 0 012.4-7.5c3-5 5.5-10.7 9.7-14.4a62.5 62.5 0 0018.5-35.5c2.2-10.8 4.2-21.5 3.7-32.5-.1-2.2.9-4.3 1.5-7.3l-5.6-4.3c-7-5.9-14.2-11.3-20.6-17.6a69.8 69.8 0 01-18.9-36.7 513.8 513.8 0 01-8.1-56c-1-10.2-2.7-20.2-3.2-30.4-.7-15.4-1-31-.6-46.4.1-6.3 2-12.7 3.7-18.8 4.4-14.6 9.2-29.1 13.7-43.7 1.3-4.2 2.3-8.4 3.2-12.6 3.1-15.1 9.9-28.4 18.4-41 4.5-6.8 8.5-13.8 12.4-21 8.1-14.6 16-29.5 26.9-42.5 5-5.9 10.4-11.4 15.8-16.9 12.6-12.8 25.3-25.3 36.3-39.6a194.2 194.2 0 0135.9-35.2 424 424 0 0013.6-11c9.5-8 20.7-12.3 32.3-16a20.3 20.3 0 016.1-.7 4.6 4.6 0 014.8 4 8.7 8.7 0 01-1.7 5.6c-1 1.2-2.9 1.7-4.4 2.3-5.8 2.3-12 3.9-17.5 6.7a80.8 80.8 0 00-15 9.9 645.7 645.7 0 00-30.7 26.8c-5.9 5.5-10.8 12-16.1 18.2a17.8 17.8 0 00-1.7 3.1zm149 253.6l2.3-25.3c.9-10 1.3-20 2.6-29.8 1-7.3 2-14.6.9-22a49 49 0 00-15.1-29c-4-3.7-8.7-5-14.1-3.4-3.6 1.1-7.3 1.7-11.2 2.6a2.7 2.7 0 00-.5 1c-.2 1.8-.2 3.5-.2 5.2a43.9 43.9 0 01-14 31.1c-1.5 1.5-3.3 4.4-5.5 2-1.9-2 1-3.4 2.3-4.9a42.4 42.4 0 0011.2-18c3-13 1.7-26-.5-38.8-.4-2-1.7-3.8-2.8-5.6-1.7-3-4.5-3.8-7.8-3.2-6.8 1.3-13 3.8-17.8 9s-9.2 10.6-13.6 16c-1.3 1.6-2.3 2.8-4.7 1.9-1.7-.7-2.6.4-2.8 2.3a12 12 0 001.9.3c8.7-.3 14.6 5 14.5 13.5A71.4 71.4 0 01544 595c-1 5.3-3 10.5-4.1 15.9-2.8 13.2-6 26.1-15.3 36.6l-9.4 10.6-3.6 4.5 10.3 11.5a18.8 18.8 0 002-2.3c5.4-8.4 12.6-15 20.6-20.7 9-6.4 18-4.3 23 5.7 1.4 2.7 2.3 5.6 3.6 8.3a30.4 30.4 0 012.2 20.9c-1 4.1-1 4.5 2.9 6 9.3 3.5 14.4 10 14.9 20a3.6 3.6 0 000 .5c1.4 8 2 16.1 1 24.2a11.8 11.8 0 00.6 6.5 57.5 57.5 0 013 31.7 19.2 19.2 0 01-2 5.2 1.8 1.8 0 01-3.1-1c.2-2 .8-3.7 1-5.6 1.9-12.5 1.2-24.5-7.1-35-7.3-9-18.6-10-27.5-2.4-4 3.3-7.5 6.9-11.4 10.3a13 13 0 00-4.9 9.2 17.2 17.2 0 01-1.2 3.8h-1.2c-.5-1-1.4-2-1.5-3-.3-2.9-.2-5.7-.3-8.6-.2-4.7.2-9.5-1-14-1.5-5.8-1.5-13.1-9.8-14.2 1-7.8-.5-9.4-8.4-9.4a49.6 49.6 0 00-6.3.1c-8.1 1-16.1 2.4-20.8 10.5-.7 1.3-2.1 2.3-3.3 3.6-.9-1-1.4-1.3-1.6-1.8a2.1 2.1 0 010-1.6c2.8-5 5.5-10 11.5-11.8l15.9-4.4c5-1.3 5.4-1.8 5.5-6.9a70.5 70.5 0 00-2.4-22.3c-.9-3-2.1-5.2-4.6-6.7-3.7-2.1-8.3-.8-12-3.4-.8-.6-2.9.3-4.3.9-3.3 1.3-6.5 2.9-9.8 4.3-3.5 1.6-4.4 1.1-6-2.3q-3.1-6.3-6.5-12.5a11.8 11.8 0 00-9.1-6 151.7 151.7 0 00-16.3-1.7c-9.8-.3-11.6 1-15.3 10-.5 1.2-.9 2.8-1.9 3.4-3.3 2-3.2 5.2-3.4 8.4l-1.2 21.5a26.7 26.7 0 00.7 4.4c4-4.4 7.1-7.7 10-11.3a49.5 49.5 0 0117.5-14c4-1.9 8.6-3.1 12.6-.6 6.3 4 11.2 9.5 11.4 17.8a60 60 0 002.8 19.5c.6 1.5 1.3 3.3-1.2 4.8-.7-.7-2-1.5-2.3-2.5a50 50 0 01-2.6-9.2c-.7-4.3-.8-8.6-1.1-13-1-12-11.2-17.3-21.3-11a6.2 6.2 0 00-1 .6l-12.7 12c-3.2 3-5.8 7.2-9.6 9.4-2.9 1.7-3.6 3.3-3.6 6.1v15.3c.2 9 4.2 17 6.4 26.3a40.5 40.5 0 003.4-3.2l8.6-10.5c4-5 9-9 15.5-9.6 5.7-.5 11.6.3 17.4.7 3 .2 4.5 2.1 6 4.6a94.6 94.6 0 007.1 10 19 19 0 014.5 11.5c0 1.2-.8 2.5-1.3 3.7h-1.4c-.6-1.6-1-3.3-1.8-5a59.2 59.2 0 00-3.6-7.4c-2.1-3.4-4.5-6.5-6.8-9.7-1-1.2-2.2-3-3.5-3.3-12.4-2.5-22-2-30 8.8-3.6 5-7.8 9.5-12.2 14.9 3.3 9.4 9.1 18 15.7 27.4 10.6-20.4 26-26.9 46.7-19.7 1.8-1.5 3.4-3.7 5.5-4.5 7-2.7 14.3-3.8 21.4 0l7.4 4c4.2 2.6 7.4 6 8.6 11 1.5 6.7 2.7 13.6 4 20.4l.6 5.5c1.4-1 2.2-1.5 2.8-2.1 2.4-2.2 4.7-4.4 7.2-6.5 5-4.1 10.4-5 16.2-1.6a53.6 53.6 0 008 4.2 22.9 22.9 0 0111 9.3l3.8 5.4c3.5-5.7 6.1-11.2 12.6-12.4 6.3-1.3 11 2.9 17 5.2.7-2 1.5-3.7 1.6-5.4a114.8 114.8 0 00.3-13c-.4-10.4-1.1-20.7-1.8-31a25 25 0 00-.9-3.8 10.4 10.4 0 00-5.4-7 22.3 22.3 0 00-11.3-3.2c-2.5 0-5.7.6-7.4-3.1 1.2-.5 2-1.3 3-1.3a60.3 60.3 0 0110.2.6 19 19 0 0115.9 16c.7 4 .8 8.3 1.2 12.4l1 5.7a36.4 36.4 0 003-4c2.5-4.9 6.5-8.3 10.7-11.5 8.7-6.7 27.4-2.5 29.3 10.2q.9 5.9 2 11.7c.3 2.1.8 4.2 1.5 7.5l4.8-4.7c4-4 8.5-4.8 14-3a43 43 0 0119.1 13.7c1.5 1.8 3.3 3.5 5.3 5.6a14.6 14.6 0 001-2.8c1.2-18-1.5-35.4-9.7-51.7-2.9-5.8-7-10.8-13.6-12.8a48.7 48.7 0 00-9.5-1.4c-9.2-.8-11-1.6-14.2 10.6-.5 1.8-.6 3.7-1 5.6a13.7 13.7 0 01-.7 3.9 16.1 16.1 0 01-2.8 3c-.8-1-2-2.1-2.2-3.4-.3-1.8.2-3.7.3-5.6.1-5 .5-9.8.2-14.7-.4-6-3.6-9.6-8.2-10a64 64 0 00-28.4 3.7 9.4 9.4 0 00-6 6.2 33.6 33.6 0 01-2.4 5.7c-.5 1-1.7 1.6-3.2 3-.4-2-1-3-.7-4 3.8-11.3 3.3-23 2.9-34.7a28.6 28.6 0 00-2.6-9.6 7 7 0 00-6.8-4.3c-6.8 0-13.6-.2-20.4 0-3 .2-6 .9-7.1 4.5-.2.8-2.1 1.8-2.5 1.5-.9-.7-2.2-2.1-2-2.9.5-1.6 1.5-3.8 2.9-4.5a29 29 0 019.6-2.8c5.4-.5 11 0 16.4-.3a17.9 17.9 0 0113.5 4.7 39.8 39.8 0 013.5 20.4v8.5c0 1.4.3 2.9.6 4.8a28.6 28.6 0 004.7-1 71.3 71.3 0 0126.2-3.4c6.2 0 10.5 2.5 12.8 8.4l2.4 5.4c6.7-3.7 20-4 27-1.2 7.5 3.1 12.3 9 15.8 16a104 104 0 019.3 53.6 6.6 6.6 0 01-.8 3.2c-1.5 2.1-.8 3.9.4 5.7l14.4 22.3 1.2.2 2-6c2-7.1 3.8-14.3 6-21.3 6-18.6 4.2-37.3.2-55.9a26.5 26.5 0 00-8.9-14.2c-5.7-5-11.8-4-15.8 2.3l-2.2 3.2c-2.8-1.4-2-3.5-2-5.5.2-9 .9-18.2 0-27.1-1.4-13.7-11.3-22-23.8-21a19.1 19.1 0 00-6.8 2.2c-2.7 1.3-5 3.3-7.7 4.8-1.4.9-2.8 1.1-3.9-1.2 2.4-4.5 7.2-6.5 11.4-8.4 6.9-3 14.5-3.5 21.3.6a28.3 28.3 0 0111 12.7 54.2 54.2 0 013.8 23.8c0 2.3.3 4.7.5 7.7 12.6-4.8 18.5 3.5 25.1 11a80.5 80.5 0 00-3.9-10L729 681.3c-3-7-5.9-13.9-8.4-21s-4.5-14.4-6.9-21.6c-1.5-4.6-4-6.5-8.8-6.3a47.6 47.6 0 00-9.8 2c-1.5.4-2.7 1.5-4 2-4 1.5-6 .1-5.4-4 1-7.3 2-14.7 5.2-21.4 4.1-8.5 2-16.2-3-23.4a9.4 9.4 0 00-9.2-4.3c-4.3.4-8.7.4-13 .5-1.6 0-3-.2-3-2.7a9 9 0 012.8-1.3 137.5 137.5 0 0115.8-.8 13 13 0 017.1 2.8c8.2 6.6 11 20.3 7 30-2 4.9-3 10-4.4 15.2a8.7 8.7 0 00.2 3.1l19.5-2.8a13.4 13.4 0 00.1-2.5c-1-8.8-2.3-17.6-3.4-26.4-.6-5-1.5-10.1-1.4-15.2.3-17 1.2-34 1.3-50.9 0-12.2 2.3-24 5.7-35.6q7-24.5 13.6-49.1c1.5-5.6 1-6.3-4.6-7.2a36.2 36.2 0 01-14.4-6.1 44 44 0 01-3.8-3 3.6 3.6 0 00-.9.2c-1.4 1.2-2.8 2.5-4.3 3.6a16.8 16.8 0 01-4.4 2.6c-.8.3-2-.5-3-.8.4-1 .5-2.3 1.2-2.7a45.1 45.1 0 0016.5-22.2 27 27 0 002-14.4 15.8 15.8 0 00-2.8-7.3c-5.3-7-20-9.9-27-4.5-5 3.7-8.4 9.4-12.5 14.3a3 3 0 00-.4 1.7l-1 13.8 4.5-1c5.7-1.2 7.9-.2 10 5.4 3 7.7 3.4 15.8 2.3 24a102.2 102.2 0 01-3.1 13.7c-.3 1-2 1.4-2.9 2.1-.4-1-1.2-2.3-1-3.3.6-3.9 2-7.7 2.5-11.6 1-7.5 1-15-1.5-22.4-1.3-3.9-2.4-4.4-6.3-3.3a44.6 44.6 0 00-15 6.4q-12.9 9.3-25.9 18.3c-.7.5-2 .3-3 .4 0-1-.4-2.3 0-3a16.6 16.6 0 013.7-3.6c8.5-6.8 17-13.7 25.7-20.3 5.6-4.3 7.8-9.4 5.8-16.3a8 8 0 01-.2-2.8c.4-5.9-2.2-10.6-6-14.8-4.5-5.1-10.4-4.2-16.3-3.7-4.5.4-4.8 4.2-6.2 7.1-6.5 14.1-13.3 28-24.8 38.9-4.6 4.3-8.5 9.4-12.5 14l9.6 16.7a46.4 46.4 0 015.4-3.2c12.8-5.4 21.5-3.1 25.5 9.2a65.5 65.5 0 012.7 12q1.4 11.9 2.1 23.8c.4 7.2 0 14.3-3.3 21-.8 1.8-1.6 3.9-4.1 4-2.1-1.9-.9-3.6 0-5.2a30 30 0 003.2-15.4c-.6-9.8-1-19.6-2.3-29.3a51 51 0 00-4.5-13.9c-.8-1.8-3.2-3.8-5-4-3.6-.3-7.9-.4-11 1.1a43.8 43.8 0 00-15.9 13.4l-8.4 11.4c-3.3 4.6-6.8 9.2-9.4 15.6 2.8 0 4.8-.2 6.8 0 6.5.6 13.4.4 19.5 2.4 8.3 2.7 14.9 8.3 16.5 17.6a39 39 0 010 19.1c-.2.6.2 1.4.3 2.6l5.6-2c8.8-2.9 18 .6 21.4 8.9a64.5 64.5 0 015 17.3c2 17.5 2 35-5.3 51.7a29.1 29.1 0 00-1.2 4.9 11.7 11.7 0 002.7.6c9.9-.5 15 4.7 16.7 14.2a171.4 171.4 0 012.4 24.8c.2 3.8-1 7.8-1.6 11.7-.4 1.6-1 3.4-3.4 2.7a6.3 6.3 0 01-.7-1.5 5.7 5.7 0 010-2.2c2.4-9.2 1.3-18.4.3-27.6a41.1 41.1 0 00-2.8-11.5C660.4 623 649 622 644 629c-1.3 1.7-2.2 4-5 3.9-1.9-2-.4-3.5.5-5.1 2.4-4.3 5.1-8.5 7-13a86 86 0 007-36.9 84 84 0 00-4.7-27.7c-4-10.8-14.3-13.4-23-5.8-2.8 2.5-5.4 5.3-8 8-.9.7-1.6 1.8-2.6 2.2a5 5 0 01-3.6-.2c-.4-.2-.5-2-.1-3a20 20 0 012.4-3.7c5.3-7.8 8-16 6.8-25.6-1.4-10.7-7.3-18-17.8-19.7a104.7 104.7 0 00-16.4-1c-5 0-9.2 1.5-11.8 6.4-.8 1.6-2 3.6-5 2.9 0-1.1-.2-2.4.3-3.2 5.8-10.5 11.4-21.3 19.2-30.6 1.5-1.9 3.6-4 3.8-6.1.4-3.3 2.1-5 4.5-6.7s4-3.7 3.4-6.6c-.6-4.2-1.8-8.2-4.9-11.3-1-1-2.7-2.4-4.2-2.4-8.4 0-17-1.3-25.2 2-1.2.4-3.3.4-4-.4s-.6-3 .1-4c5.6-7.7 10.8-16 17.4-22.9 6.4-6.5 9.5-13.3 7.7-22.3-.3-1.7-.4-3.4-.8-5a42 42 0 00-11.3-21.2c-3.5-3.2-4-3-7.8-.6l-4.3 2.8a302 302 0 00-41.2 29.8c-2.2 2-4 4.2-6 6.3l.6 1.1 6-.6c9.3-.2 18.5-.9 27.7-.5 6.7.3 11.2 4.8 12.4 11.4 1 5.2 1.2 10.6-1 15.6l-13.4 27.5c-1.8 3.6-3.8 7.1-5.9 11 4.5 1.4 8.3 2.3 12 3.7s6.5 3.8 6.6 7.8a273.3 273.3 0 01-.7 28.2c-.8 9-6.6 16.2-11.5 23.7-1.7 2.7-3.2 5.6-4.7 8.5a8 8 0 004.2-2.3 38.1 38.1 0 0119.2-9c5.2-1 9.2.7 12.2 5.1a26 26 0 014.2 12.7c.4 4.8 1.2 9.5 1.8 14.4l7-2.6c10.3-3.8 18.5-.8 25.2 7.4a54.8 54.8 0 0112.5 44.9 266.6 266.6 0 00-3.4 40.5 120.3 120.3 0 01-.9 12.4c-.4 3.6-1.9 6.5-5.8 7.6zm409.3-80.3c0-23.2.2-46.4 0-69.6a203 203 0 00-2-25.4 268.5 268.5 0 00-11.3-47.8 113 113 0 00-11.5-27 7.4 7.4 0 01-1.6-3.5c0-5.4-3.5-8.5-6.9-11.8l-7.4-7.8c-8.9-9.2-19.4-16-30.9-21.6-11.3-5.5-23.4-8.4-35-13a34.9 34.9 0 00-5.5-1.4l-27-5.8a184.5 184.5 0 00-37-4.8c-5.5 0-11-.7-16.4-1-7-.2-14-.6-19.4 5.4-1.3 1.4-3.5 2-5.5 2.8-4 1.5-8.2 2.7-12.3 4.2a66.7 66.7 0 00-31.2 20.7c-3.8 5-7.6 9.9-11.5 14.7a85 85 0 00-18 39.2c-3.2 17.5-8.6 34.4-13.4 51.4-2.6 9-4.7 18.3-6.4 27.5-.8 4.2-.2 8.7-.4 13l-1.5 49.8a63.1 63.1 0 00.8 9.6c.9 7 1.8 14.2 3 21.3 1.3 7.6 2.6 15.2 4.5 22.7 4 15.8 10 30.8 17.2 45.4 6 12.4 11 25.2 16.6 37.9 3.3 7.6 7 15 10 22.8 4.6 12.7 8.5 25.7 13 38.5a30.5 30.5 0 005.7 9.7c5.2 6 11 11.3 16.4 17.2a119.9 119.9 0 0024.9 20.5c12 7.5 24.5 14.2 36.9 21 18 10 37.9 13.4 58 15.7 4 .4 8 .3 11.6-1.8a162 162 0 0015.3-9.6c9.1-6.9 16.1-15.7 23-24.8 16.8-22.3 26.6-47.7 34.7-74 5.2-16.9 9.1-34.2 14.4-51.1a139.3 139.3 0 006.1-42.3v-66.8zM438.4 107c3.7 4.7 7 9.2 10.6 13.5 7.6 9.5 14.8 19 19.3 30.5 4.9 12.3 9.6 24.6 12 37.7q3.9 20.8 7.6 41.7c3.1 17.5 6.4 35 9.2 52.4 1 6.1.7 12.4 1.2 18.6.3 4.1.8 4.8 4.8 4.6 11.4-.5 22.4 2.3 33.6 4.2a113 113 0 0113.2 3c12.9 3.8 25.6 8 38.4 11.7 8.7 2.6 17.5 4.9 26.3 7 3 .8 6.9 1.9 9.3.7 4.2-2.1 7.5-1.2 11.2.4 11 4.7 22.8 7.9 34.6 8.2 26.3.7 52.8 2.1 79-3.8 5.1-1.1 10.3-2 15.5-3a6.6 6.6 0 005.7-4.8c1.4-4.5 3-8.9 4-13.5 2-9.2 3.9-18.4 5.4-27.7a132 132 0 001.6-17.4c.2-9.7-.3-19.3.1-29 1-20.3-3-40.1-5.8-60-1-7.9-3.5-15.5-5-23.3-1-5.7-1.5-11.5-2.5-17.3-1.9-10.4-4.1-20.7-4-31.4a41.1 41.1 0 00-1.7-11 99.9 99.9 0 00-12.4-26 65.6 65.6 0 00-27.9-24c-8-4-16.2-8-25.5-8.8a123 123 0 01-15.7-1.9c-12.6-2.6-25.5-2.8-38.2-3.8-9-.7-18-1-27.1-1.8-5.8-.4-11.6-1.6-17.4-1.8-9.5-.3-19-.3-28.3 0-5 .2-10.1 1.3-15.2 1.8-5.4.6-10.8 1.6-16.2 1.7-18.7.2-37.4 0-56.1.2a111.8 111.8 0 00-11.9.7c-9 1-18 2.1-26.9 3.3-1.9.2-3.7.6-5.5 1-4.8 1-9.6 2.2-14.3 3.4l-8.8 2c-3.5.8-5 3-5.8 6.2a16.9 16.9 0 00.6 9.4c4.4 12.3 11.2 23 19 33.4a25.8 25.8 0 002.9 3c7.4-3.9 14-7.7 21-11 5.1-2.3 10.7-3.7 16-5.8 7.7-3.3 15.3-7 23.2-10.2a165.7 165.7 0 0164-12.3 34.6 34.6 0 0133.4 27c3 13.2 3 26.6 2.1 40-.9 14-6 26.8-13.3 38.7a38.8 38.8 0 01-15.3 14.8c-9 4.6-18.3 9.3-28 12.1-13.2 3.8-26.8 6-40.3 8.7a16 16 0 01-6.2-.3 4.9 4.9 0 01-4.1-4.8 5.3 5.3 0 013.3-5.4 17.3 17.3 0 014.3-1.3c6.9-1.3 13.7-2.6 20.6-3.7a133 133 0 0041.6-14.1 35 35 0 0012.5-10.6 60.7 60.7 0 0011.8-29c1-11 .5-22.2.4-33.3a41 41 0 00-1.5-9.5 21.5 21.5 0 00-20.1-17c-7.7-.1-15.5.8-23.2 1.4-1.9.1-3.7 1-5.6 1.7a5.2 5.2 0 003.3 1.8 15.3 15.3 0 0111.9 8.7 93.1 93.1 0 0110.3 36.2c.4 10.8-3.8 19-13.5 24.3a61.8 61.8 0 01-19.5 6.9c-8.5 1.5-17 1.5-25.4 1.1a49.6 49.6 0 01-22-6.4c-3-1.7-5.6-4-6.2-7.7a6.2 6.2 0 00-1.7-3.5c-3.3-3-3.1-6.5-2.3-10.4a49.3 49.3 0 0121.2-31c6.8-4.9 13.8-9.6 21-14.5a5.7 5.7 0 00-1.9 0L482.8 87c-6.5 2.6-12.9 5.4-19.5 7.7a130 130 0 00-24.9 12.3zm31.4 747.6c-.8 3.2-1.1 6-2.3 8.5-5.9 12.7-12.1 25.2-18 37.8a85.4 85.4 0 00-4.7 13.9c-4.7 18-6.3 36.4-6 55a87 87 0 01-3 24 18 18 0 01-5.3 9 34.3 34.3 0 00-6.5 8.4c-4.3 7.7-8.5 15.6-12.4 23.5-4.2 8.7-8.7 17.3-11.7 26.4-3.8 11.4-6.4 23.2-9.4 35a216 216 0 00-5.5 52.1 36.4 36.4 0 01-3.2 15.9c-3 6.5-5.8 13-9 19.5q-4.2 8.7-8.9 17c-4.2 7.4-8.6 14.7-13 22a46.6 46.6 0 01-23.8 21.5c-6.2 2.2-12 5.6-18 8.4-6.6 3.1-13.2 6.2-20 9.2-2.9 1.4-6 2.4-8.8 3.7a20 20 0 00-3 1.8c6.6.3 12.8-.5 19-1 11.6-1.1 23.2-2.1 34.5-5.6a17.7 17.7 0 015-.9 6 6 0 016 4.3 6 6 0 01-2.5 7 12.7 12.7 0 01-2.4 1.4c-13.3 5.8-26.4 12.3-40 17.4a91.6 91.6 0 00-38.5 27.8 15.5 15.5 0 00-1.4 2.6 17.8 17.8 0 006.5-2.1l34-16.8c2.7-1.4 5.2-3 7.8-4.6 6.8-4.3 13.5-9 20.5-13.1 6-3.5 12.2-6.6 18.5-9.8 4.5-2.2 9.2-.4 9.8 4a9.5 9.5 0 01-1.6 5.7c-3.4 5.2-7 10.3-10.8 15.3a94.7 94.7 0 00-12.7 23 2.9 2.9 0 002-.9 227.7 227.7 0 0031.9-41 15.7 15.7 0 012.2-3.2c3.5-3.8 8.7-2.7 10.2 2.2a20.7 20.7 0 01.7 6.2 134 134 0 006.3 39c.5 1.8.8 4 3.8 5a62.8 62.8 0 001.4-7.4c.6-7 .8-14 1.2-20.9.6-8.7 1.2-17.3 3.8-25.7l8.7-27.5a32.3 32.3 0 018.3-14c2-1.8 3.7-3.8 5.6-5.6a49.8 49.8 0 0013.9-23.6c.8-3.1 1.9-6.2 2.9-9.2l9.3-26.7c.8-2.2 1.4-4.2-.6-6.3-2.5-2.6-2-5.6-.3-8.3a103.2 103.2 0 016.6-8.5c2.8-3.4 5.8-6.5 8.5-9.9 17.4-22 31.3-46.2 46-70a31.6 31.6 0 004.1-11.6 50.7 50.7 0 019-21.7 166.9 166.9 0 0011-17.8c8.6-16.3 13.7-33.9 19.5-51.3 1.2-3.7 1.7-7.7 2.7-11.5l7.1-29c.8-3.4 1.8-6.6 3-10.6-3.4-.5-6.3-1.2-9.2-1.4a44 44 0 01-32-16c-6.7-8.1-13.6-16.1-19.6-24.8-8.2-11.8-15.4-24.2-23.5-36-8.8-13-18.1-25.5-27.3-38.2-2.4-3.3-5-6.4-8.2-10.2a41.4 41.4 0 00-6.3 17.3 1663 1663 0 01-4 29.1c0 .8-1.3 1.5-2 2.2-.7-.7-2-1.4-2-2.2a69 69 0 01.7-9c.5-3.1 1.3-6.2 1.7-9.4 1.1-9.3 1.5-19 6.3-27.3 2.5-4.3 2-7.7-.7-11.5-9.9-13.8-13.7-30-17.8-46.1a19 19 0 01-.6-5l.9-39.6-.3-7.3c-4 1.3-4.8 4-5.6 6.7-2 6.7-3.8 13.5-6 20-4.3 13.3-8.5 26.7-13.5 39.7-3.2 8-7.7 15.5-11.8 23.1-.8 1.6-1.9 3.4-4.3 2.8-1.7-1.7-.6-3.1.4-4.5a138 138 0 0017-38q7-21.5 13.6-43.1c1.4-4.5 3.4-8.4 7.3-11.2a7.5 7.5 0 003.3-6.2l1.3-31.1 1.7-31a17 17 0 01.3-2.3c2.6-14.7 5-29.4 9.2-43.7 5.3-17.5 9.8-35.3 14.5-53 1.3-4.7 2.2-9.5 3.8-14.1 7.7-21 17.6-41 31.9-58.4l3-4.3-.8-1c-2.8.7-5.8 1.2-8.5 2.4a11.7 11.7 0 00-5 4.3 22.2 22.2 0 00-3.4 8.9c-1.1 12.5-9 20.3-18.1 27.4-1 .7-2.5.8-4.2 1.3.8-4 .8-3.9 3-5.9 3.2-3 6.6-6 9.6-9.4 3.9-4.3 4.7-9.5 5-16.2a48.6 48.6 0 00-4.3 3.3c-6.4 6.4-12.6 13-19.2 19.2-12.6 12-22 26.3-30.2 41.5a481.9 481.9 0 01-24.4 41.4c-4.5 6.6-7.3 14-9.5 21.7l-13 45.7c-2.7 9-5.8 18-7.9 27-3.3 14.4-2 29-1.2 43.5.8 12.6 2.6 25.1 3.8 37.7a476.2 476.2 0 008.7 58.2 60.3 60.3 0 0013.2 25.9 136 136 0 0029.1 24.1c20 13.6 42 18.1 65.8 13a20.3 20.3 0 012.8-.5c3.5-.3 6.2 1.2 7 3.6.7 2.7-.8 6-3.8 7.5l-4.7 2zM395 55.4c-6 2-11.4 4-17 5.7a161.7 161.7 0 00-57.4 31c-4.7 4-9.8 7.7-14.6 11.7-7.2 6.1-14.7 12-21 18.8-10.8 11.6-20.8 24-31 36.1-5.2 6.2-10.3 12.6-15.4 18.9-8.8 10.8-17.6 21.7-26.2 32.6-4.7 6-9.8 11.7-13.4 18.2-7 13-13.5 26.2-17.3 40.5a55.2 55.2 0 00-2.7 19.5c.5 5.6 3.8 7.6 9 5.5.9-.3 1.7-1 2.5-1.3 8.1-3 16.2-6 24.3-9.3a111.5 111.5 0 0011.5-5.7c2.2-1.1 4-3 6-4.2 13.3-8 26.5-16 40-23.7a162.8 162.8 0 0038.2-29.8 84.5 84.5 0 0135.4-22.7c22-7.2 44.2-11.3 67.4-9 9.4.8 18.6 3 27 7.5 4.9 2.6 9 6.1 10.3 11.5 2 8.8 2 17.7-3 25.8-1.1 2-2.5 3.8-3.5 5.8a40.7 40.7 0 01-23 19.8c-9.5 3.7-19.2 7-28.8 10.2-5.8 2-11.8 3.2-17.3 5.6-20.2 8.8-40.3 18-59 30-7.8 5.1-16.2 9.8-23.4 15.7a517.5 517.5 0 00-50.4 46.4c-4.4 4.8-8 10.4-11.7 16a21.3 21.3 0 00-3.4 12.9c.3 5.4 2.2 10.4 7 12.8 8.7 4.3 18.3 4.9 26.5-.7 12-8.2 25.1-13.8 37.5-21 21.3-12.4 44.8-19.8 67.5-29.1 7.3-3 15-5.2 22-8.8 7.3-3.8 14.1-8.8 21-13.5 9-6.3 18.4-11.6 29.3-14 4.3-1 8.5-2 12.7-3.2l27.4-8.7 8.2-2.5c-.4-7-.2-13.7-1.1-20.2-2-13.8-4.3-27.6-6.8-41.3-2.7-14.6-6.2-29.2-8.6-43.9-1.6-9.7-3.1-19.3-6.3-28.7a127.8 127.8 0 00-23-43.7 570.8 570.8 0 01-24-30.8A113 113 0 01400 69.8l-5-14.4zm367.6 1274.4c1-.6 2-1 2.9-1.7 8.3-6 16.6-11.8 24.8-17.9a28.5 28.5 0 005-5.3c1.7-2.2 3.2-4.6 4.9-7 1.9-2.6 4.5-4.1 7.8-3.2s4.8 3.4 5.2 6.7a61.3 61.3 0 01.4 6.8v16.4a56.8 56.8 0 00.9 6c.8-1.3 1.2-1.5 1.2-1.8l.1-14.2a33.7 33.7 0 01.4-6.7c1.3-5.8 7-7.6 11.3-3.5 1.7 1.6 2.9 3.9 4.3 5.9 3.1 4.7 6.2 9.5 9.5 14 1.3 1.8 2.7 4 5.5 4.2a5 5 0 00.4-1.4c-.7-12.8-1.3-25.6-2.2-38.4-.7-10.1-1.2-20.2-4.8-30-4-11-7.6-22.1-10.9-33.4-3.6-12.3-6-25-2-37.8a11.8 11.8 0 000-4c-.3-8.2-.6-16.5-1.2-24.8a127.6 127.6 0 00-2-15.7c-4.3-21.9-11-43-17.8-64.3a88.6 88.6 0 00-12.3-25.3c-5.4-7.5-10-15.5-14.8-23.4a18.2 18.2 0 01-1.1-16.8 239 239 0 0012.6-43.4 90.3 90.3 0 00-.5-33.2 309.5 309.5 0 00-9.3-35c-2.6-7.9-4.3-16.1-9.5-22.8l-26.7-34c-1.4 1-3 1.7-4.3 2.6-6.2 4.4-12.4 8.6-18.4 13.1a493.3 493.3 0 01-74 47c-2.5 1.2-3.4 2.9-3.5 5.7a75.4 75.4 0 008.4 38.3l27.3 54.6a94 94 0 0025.8 34.7c2.4 1.8 2.5 4.3 2.5 7.1 0 8.5-.3 17 .5 25.4.8 8 2 16.1 5.1 23.7 6.5 15.1 12.7 30.3 19 45.4 7.2 17 16.4 32.7 30.3 45.3a60.1 60.1 0 0115.3 23c3.8 9.8 5.4 20 2 30.4a64.2 64.2 0 01-20.5 30c-13.9 11.6-28.3 22.6-42.5 33.9-1.8 1.4-3.3 3-5 4.5 15-5 29.3-10.7 43.5-16.5 5.1-2 10.1-4.2 15.2-6.3 3-1.2 6-1.2 8.4 1.4 2.1 2.3 2 5.2.8 8a42.3 42.3 0 01-3.4 5.8c-3.1 4.7-6.4 9.3-9.5 14.1-2.6 4-4.8 8.3-5 13.8zM484.4 666c7.1-3 13.2-5.5 20-5 1.4.2 3.1-1.2 4.3-2.3a111.7 111.7 0 007.8-8.1c7.7-8.8 14.2-18 16.7-29.8 2.1-10 5-19.7 7.4-29.6a39.8 39.8 0 00.7-10.1c-.2-5.8-4.5-9.2-10.3-8.4-2.8.4-5.6 1.2-8.4 1.4-1.5.2-3.7-.1-4.4-1.1-1.4-1.9.2-3.4 1.9-4.6l.9-.7a61.8 61.8 0 0014.7-16.2c5.8-9.8 12-19.3 17.3-29.3a40.8 40.8 0 004-14.5c.7-6.4.2-12.9.2-19.3a7.3 7.3 0 00-5.5-7.6 86.2 86.2 0 00-9.4-2c-5.2-1-6.1-2.6-3.7-7.3 5.6-11 11.3-22.1 17.1-33.1a27 27 0 003.1-15.9c-.7-6.7-3.8-10-10.5-10.3-13-.5-26 0-38.7 3.8a11.6 11.6 0 00-5.1 3.3c-8.2 9.4-16.6 18.6-24 28.5a175 175 0 00-23.3 45.1c-1.4 4-3 8-2.4 13.2l8.8-5a21.7 21.7 0 0112.8-3.6c15.5.8 26.5 8 33.6 23.6a26 26 0 012 15.5c-1 6-2.6 11.8-4 17.7-.3 1.5-1 3.3-2.9 2.6-.7-.3-1.3-2.2-1.2-3.3a81.3 81.3 0 012.8-12.7c4.7-14.1-3.7-27.6-13-33.5s-19.3-8.6-29.6-1.5c-3.3 2.2-6.7 5-11 4-6 16.1-14.7 50-14 54.4l4.3-1c12.3-3 24.4-6.7 37.4-5.7 8.1.6 11.5 2.5 14 10.4a103.9 103.9 0 013 10.3q3 14 5.8 28.3c.2 1.1-.4 3.4-1.2 3.7-2.3.7-2.6-1.4-3-3-.3-1.1-.4-2.3-.6-3.4-.7-4.2-1.3-8.6-2.3-12.8-1.8-7.5-3.8-15-6.1-22.4-1.9-5.8-3.6-6.5-9.6-6.7-9-.3-17.7.3-26.3 3-5.7 1.8-11.6 2.9-17.5 4.3-3.5 7.7-8 33.6-6.7 39.5l11.3-7.5a36 36 0 0121.3-6.5h13.6c6.7.1 9.6 2.5 11.3 8.9 1.6 6.2 3.8 12.3 4.7 18.6 1.2 8.6 1.6 17.2 2 25.9.2 1.7-.9 3.6-1.6 5.2a2 2 0 01-1.9.6 2.4 2.4 0 01-1.3-1.6 7.2 7.2 0 01.3-2.2 77.7 77.7 0 00-2.4-29.7 367 367 0 01-4-15.3c-1.1-4.7-2.5-6-7.3-6.1H462a29.5 29.5 0 00-16.6 4.8 79 79 0 00-8 5.3c-4.9 3.8-9.6 7.8-9.4 15 .3 7.5 0 15.1 0 22.7a8 8 0 00.9 2.4l9-7.4c7.3-6.1 21.9-7.2 29.8-1.9a40.6 40.6 0 0114.5 19.7l2.1 6.3zm60.8 190.8h1.6l1.5-5c2-6 3.6-12 6-17.7 1.7-4.4 5.4-6.4 10.3-6.5a53.8 53.8 0 0117.4 1.8 18 18 0 0111.9 10.5 46.5 46.5 0 012.8 9.2 155 155 0 013.3 38.3c-.2 4.6 0 9.3 0 14a7.7 7.7 0 002.3 1c6.2 0 12.5.1 18.7-.3 4.1-.2 8.1-1.3 11-5a4.5 4.5 0 015.6-1.6c3.5 1.7 6.6.6 9.7-1 3.5-1.7 7-3.5 10.4-5.6 8.8-5.4 17.7-10.9 26.3-16.7 10.3-7 20.4-14.2 30.6-21.4 2.3-1.5 3.3-3.6 2.6-6.3-2.9-12.1-6.3-24.1-12.5-35-2-3.5-5-5.7-9.2-5.6s-8.7 0-13 0c-2.4 0-4.4.9-5.4 3.3s-2 4.8-2.9 7.3c-.3 1-.1 2.4-.7 3.3a3.9 3.9 0 01-2.6 1.5c-.6.1-1.7-1-1.9-1.7a32.8 32.8 0 01-.5-4.5c-.8-5.2-2.6-10.1-8-12.1-8.8-3.3-17.4-2.9-25 3.3l-6.8 5.4 2.9 41.5.4.3a8.6 8.6 0 001 .2c1-1.4 1.9-3 3-4.4a70.4 70.4 0 015.2-6.6 10.6 10.6 0 0110-3 22 22 0 0117.6 14.3c2 5.6 3.4 11.5 5 17.3.5 1.5.6 3-2.2 3.8a26.3 26.3 0 01-2.4-4.5c-1.3-4-2.3-8-3.4-12-1.9-6.6-5.5-11.6-12.2-13.8-5.7-1.7-8.5-1-11.9 3.7a138.7 138.7 0 00-8 13 25.3 25.3 0 00-3.4 14.1 18.3 18.3 0 01-.2 5.1 3.7 3.7 0 01-2.1 2c-.4.1-1.5-1-1.8-1.8a12 12 0 01-.2-3.9c.2-4.3.8-8.6.9-13 0-7.3.2-14.7-.3-22-.7-9.7-2-19.5-3.2-29.2a17.4 17.4 0 00-2.7-6.8c-3.3-5-8.2-8-14.2-7.6s-8.3 5.6-9.7 10.6c-1.3 4.7-2.1 9.5-3 14.3-.4 2-.4 3.9-3.6 4.5-.6-1.5-1.5-3.1-1.6-4.8-.2-2.2.3-4.5.3-6.7 0-8.4-3.4-15-10.6-19.4-3.7-2.3-7.8-4-11.6-6a8.4 8.4 0 00-9.6.7 32.4 32.4 0 00-11 12c-2 4-3 8.6-7.4 11-1 .5-1.2 2.3-1.7 3.5a52.1 52.1 0 01-2.1 5.9c-1.4 2.5-.9 4.7.8 6.8a45 45 0 018 20.9l1.5 7zm-1.6 36.6c-.3-2.1-.8-4.2-1-6.3-.4-8.3-.5-16.6-1.2-24.8a67.6 67.6 0 00-18.1-42.8c-6-6.3-9.5-6.8-16.8-1a23.4 23.4 0 00-4.5 5c-3.6 5-7 10.2-10.8 15.8l2.7 4.3c1.9 2.8 4 5.5 5.8 8.4 7.9 12.4 16.2 24.5 26.4 35.2 5 5.1 10.3 9.4 17.7 10.3 3.7.4 7.4 1.2 11.2 1.6 11 1.2 22.1 2.3 33.2 3.3 2.3.2 4.7-.3 7.5-.5-.7-14.3 1-28.1-1.6-41.7-1.2-6-2.3-11.8-4-17.6a11.4 11.4 0 00-7.3-8.1 49.7 49.7 0 00-12.6-2.7c-10-.4-12.4 1.5-15.1 11.3-1.6 5.6-2.8 11.4-4.3 17-.5 2-1.5 3.8-2.1 5.8a21.3 21.3 0 00-1.6 5.7c-.2 5.7 0 11.3 0 17 0 2 .3 4.3-3.5 4.8zM745.5 398c4.3-2.7 6.5-6.5 9-10a74 74 0 0129-25.4c4-1.8 8-4 13-6.4-5.3-3.8-9.7-7.2-14.4-10.3-1.4-1-3.3-.8-4.5 1.6a32.7 32.7 0 014.3 3.3c.6.7.6 2 .8 3-1 0-2.1.5-3 .3a18 18 0 01-3.6-1.9 12.8 12.8 0 00-10.4-1 42.4 42.4 0 00-7.8 3.2c-8.2 4.7-16.2 9.7-24.3 14.5a23.8 23.8 0 01-3 1.3c-2.1-3-.1-4.5 1.7-5.7 4.7-3 9.7-5.8 14.5-8.8a34.7 34.7 0 003.1-2.5c-4.5-.3-8.6.4-12.7.4q-34.3.3-68.5.3a68.5 68.5 0 01-9.6-.8c-10-1.3-19.4-5-29.5-5.2a15.9 15.9 0 01-2.7-.6l-16-3.3c-1-.1-2 .4-4 .8l2.7 1.6c5.4 2.6 11.1 4.7 16.2 7.9a22.8 22.8 0 0110.6 16c.3 1.7.7 3.3 1.3 5.4 6.6-.6 13.1-2 19 1.8 5.6 3.6 8.2 9.5 11.1 16 2-2.3 3.6-4.2 5.3-5.9 2-2.1 4-5 6.5-6 9.2-3.9 20.3-4.3 29.3 3.4a17.9 17.9 0 016.5 13.8 36.8 36.8 0 01-3.7 17.6l-3.9 7.5a4.1 4.1 0 00.8 5.6 28 28 0 0019.6 7.1c3.8-11.3 7.3-22.3 13.6-32a3.4 3.4 0 00.5-2.7c-1.3-3.3-2.5-6.8-4.4-9.7-3.2-5-8-8-14.2-7.8-2.2 0-5 .7-6.2-2.2a16.2 16.2 0 0112-1.4c8.6 2.4 13 9 16 17.2zm175.8 587.9l1.5.1c1-2.7 2.4-5.4 3-8.2 1.6-7.6 3-15.2 4-22.8.6-4.7.2-9.4-.2-14.1-.1-2.1-2.2-4.8.5-6 3.2-1.4 3.9 2 5 4l13 21.9a18.7 18.7 0 003.9 4.8 5.3 5.3 0 004 1c.7-.2 1.4-2 1.5-3.2v-17c.2-8.5-.4-17.1.6-25.5a211.1 211.1 0 001.5-25.3l.2-27.2a10 10 0 00-.6-2.3l-15.5 9c-4.8 2.7-10 4.4-15.7 4l-22.4-2.6-6.7-.7-.7 1 1.1 11.2c2.5 22.7 0 45.1-3.9 67.5a23 23 0 000 4 10.7 10.7 0 004.7-3.6l10.6-14c.8-1 2.3-2.2 3.5-2.2 2 0 2.4 2 2.6 3.8a28.5 28.5 0 01.2 4.5c-1 11.8 1.7 23.2 3.3 34.8a17.4 17.4 0 001 3zM497.9 762.3a81.3 81.3 0 01-1.8 46c-1.5 4.3-2.6 8.7-4 13a32.2 32.2 0 01-2 5.3c-.4.7-1.4 1-2.2 1.4a13 13 0 01-1.4-2.7 4.9 4.9 0 01.5-2.2c1.1-4 2-8 3.5-11.9 4.5-11.3 5.7-23 5.4-35-.3-12.5-4.3-16.5-16.6-15.4-7.1.7-13.8 3.1-18.6 8.5-3.6 4-6 9-9 13.5l37.6 52.4 2.2-3.6c2.8-4.3 5.3-8.7 8.5-12.7 3.6-4.8 8.4-8 14.6-8.9 5.6-.7 8.4 3.3 11.8 6.6 1.2 1.2 2.2 3.2 4.9 2.5 1.3-3.5 2.5-7.3 4-11a54 54 0 00-1-38.1 10.5 10.5 0 00-2.7-4.3c-9-8.2-21.7-13.6-33.7-3.4zm174.3 44c2.4-4.4 5.4-6.7 9.8-6.6l16.4.2a9.2 9.2 0 017.3 3.8 44.3 44.3 0 013.7 5.6c5.4 9.3 7.8 19.6 11 29.6.6 1.6 1 3.1 1.7 5.5l11.6-7.2c2.5-1.4 3-3.3 2.2-6a63 63 0 00-11.5-23.8 34.4 34.4 0 01-4.4-6.6c-3.7-7.2-9.6-12.5-15-18.3-3.4-3.9-8-6.1-12.8-8-4.1-1.5-7.4-.6-10.2 2.5-1.8 2-3.3 4-5.2 6-1.1 1-3.2 2.7-4 2.3-1.4-.7-2.3-2.6-3-4.2-.5-1-.2-2.2-.3-3.3-.7-5.6-1-11.3-2.2-16.8-2-9.5-14.3-14.5-22.3-9.2-5.3 3.5-9.6 8-11.6 14.2a116.3 116.3 0 00-3.5 13 441 441 0 00-3.6 20 40.7 40.7 0 000 6.4c5.2-3.2 9.6-6.7 14.6-9 5.4-2.3 11.4-1.9 17.3-.9 6.1 1.1 9.7 5.5 14 10.9zM570.2 439c11.2 1.7 20.4-1 28.4-8.2a123.6 123.6 0 0032.7-48.2c2.7-7 1.5-13.6-2.8-19.8-3.3-4.7-8.4-6.8-13.1-9.6a20.7 20.7 0 00-18-1.2l-5.8 2a67.4 67.4 0 00-15.3 9.7 14.3 14.3 0 001.7 2.7 45 45 0 0113 23.3c3.4 13 1.7 24-9.4 33a38 38 0 00-11.4 16.3zm-28.5 304.3a17 17 0 002.5-1.4c3.6-3.3 7.2-6.7 11-9.8a23.8 23.8 0 0127.3-1.4l4.9 3.2a13.2 13.2 0 00.8-2.6 83.4 83.4 0 00-2.8-25.7 10.9 10.9 0 00-3.7-5.5c-4.9-3.7-10.4-6.6-16.7-6a41 41 0 00-29.9 16c-2 2.7-2.3 5.3-.6 8.4 3.7 6.8 6.5 14 6.5 22a13.4 13.4 0 00.7 2.8zm-12-33.7a52.5 52.5 0 0137.9-20.6c5.9-12 .1-23.9-6-33.2-3.1-4.9-7.3-5.6-11.7-2.8-6.4 4.2-13 8.5-17.6 14.9-2.8 4-6 7.5-9.6 12v25.8zm220.7 21.7a21.4 21.4 0 000 2.9c1.1 6.8 2.8 13.7 3.3 20.6a90 90 0 01-1.6 32.5L740.3 829c-.1.6.3 1.3.6 2.7l18.7-8.8c.3-3.8.3-6.8 1-9.6 2-9.6 4.4-19 6.7-28.6a24 24 0 00-.8-13.3c-2.7-8.3-5.4-16.5-8.4-24.6-2-5.2-3.7-10.6-7.7-15.6zM473.7 132c3.1-1.5 5.4-3 7.8-3.5 8.3-1.6 16.7-2.9 25-4.1 10.3-1.5 20.6-3 30.3-7 1.7-.8 4-1.2 3.6-3.6-.7-5-1.5-10-4.8-14.6l-10 3.6c1 7.3.5 7.9-5.8 10.8a118.7 118.7 0 00-10.9 6 15.7 15.7 0 01-11.4 1.7c-2.6-.4-4-2-4-4.6V114l-13.1-.8c-4 4.7-5.4 11.3-6.7 18.7zm66.2-7.8c-18.3 7.2-37.6 7.1-56.6 12 1 1 1.4 1.4 2 1.6a16.8 16.8 0 003.1 1 77.2 77.2 0 0039-2c3.5-1.1 6.6-3.6 9.7-5.6 1.9-1.3 3.3-3 2.8-7zm231.3 664.2c-3.3 11.5-6.1 21.8-7.8 33.1a58.3 58.3 0 0023.5-13.1c-3-3.1-6-5.7-8.5-8.7s-4.4-6.9-7.2-11.3zm-281.6-684l.5 1.1 4.2-1.2 25.3-7.8c3.4-1 6.9-2 10.2-3.2a15 15 0 003-2c-.7-3-2.5-4.3-5-4.5a26.4 26.4 0 00-8.3.3c-11.5 3-20.8 10-29.9 17.3zm9.5 11.6c5.2 1.6 15-2.8 20-8.2-.2-.2-.5-.7-.8-.7-4.6 0-10.3-2.9-12.5 4.4-.2.7-1.5 1.1-2.3 1.6a122 122 0 00-4.4 2.9zm-33.7 529.2c-6.2-4.8-15.2-5.2-20.1-1.7z"/>
      <path d="M194.7 1087.2a22.3 22.3 0 001.5 4c3.8 6.4 7.8 12.5 11.6 18.8 3 4.8 5.8 9.7 8.6 14.6 2 3.6 3.8 7.3 6 10.8a31.6 31.6 0 013.7 21.3c-.2 1.9-.7 3.7-1 5.6-2.2 12-10.7 15.2-22.1 13.5-4.3-.6-7.6-3.3-8-7.7-1-13.2-2.1-26.5 4.8-38.7a23.8 23.8 0 013.7-5c.7-.7 2.2-.7 4.3-1.4-.8 2.2-1 3.5-1.6 4.4a40.4 40.4 0 00-7.5 25.6v11.3c.3 5.3 2.8 7.8 8 7.7 8.3-.3 12.2-2 14.2-10.7 2.3-10.8 1.2-21-6-30-1.1-1.2-2.4-2.7-2.6-4.2a26 26 0 00-6.4-12.5c-7.9-9.4-13-20.2-18.6-31-2.2-4.3-5-8.4-7.5-12.6s-6.5-6.1-11.2-6.8c-4.3-.6-8.5-1.5-13.2-.1a14.7 14.7 0 001 3.2c5.1 8.1 8 17.2 9.8 26.4 1 5 2.8 9.1 6.6 12.2 8 6.4 6.4 15 2.9 22a37.6 37.6 0 01-18.7 17.4c-5.3 2.4-9.4 0-10-6a35.8 35.8 0 019.3-27 70.1 70.1 0 004.7-6.3 6.1 6.1 0 001-3.2c0-14.2-4-27-13-38.1-1.1-1.4-7.5-2-9.7-1s-2 3-2 4.8l.9 28.9.2 7.9c0 21.7-.2 43.4 0 65.1.1 16.2 1.3 32.5.9 48.7a129 129 0 01-11.5 52.1 43.2 43.2 0 00-4.3 17.5c-.2 9.6-.8 19.2-1 28.8a86.7 86.7 0 0011.5 43.3 228.3 228.3 0 0024.6 34.5c7.1 8.6 15.7 15.7 23.5 23.7 1.2 1.2 3.2 2.2 2 5-3 .8-4.6-1.6-6.5-3.3a227.8 227.8 0 01-26.2-27.3 175.4 175.4 0 01-24.8-37.7c-5.7-12.9-9-26.3-8.5-40.6.3-10 .4-20 1.4-30a53.5 53.5 0 014.6-16.1c7.2-15.8 10-32.4 10.8-49.5.5-10.2.2-20.4 0-30.6l-1-86c-.3-24-.6-47.9-1.1-71.9 0-3.8-1.4-7.7-2.1-11.5-1.4-6.8-3.6-13.6-4-20.5-1-13.3-.7-26.7-1.2-40.1a145.6 145.6 0 00-1.5-17.5c-2.7-17.7-1.4-35.3-.1-53 1-12.4 2-25-1.5-37.2a26.6 26.6 0 00-2.1-5.8c-5-9-5.9-19-6.4-29l-1.2-18.6a12.4 12.4 0 00-.4-2.8c-.5-1.9-1.4-3.6-3.7-3.5-2.2 0-2.8 1.8-3 3.5-1.2 7.8-2.7 15.6-3.3 23.5-.6 7.7 0 15.5-.2 23.2-.2 6-.8 12-1.2 18-.3 3.6-.5 7.1-.6 10.7-.8 19.4-1.3 38.9-2.4 58.2-.5 8.5-2.5 16.8-3.2 25.3a164.8 164.8 0 001 45.7c1.7 9.4 3.1 19 5 28.3 1.2 5.6 3.2 11 4.6 16.4l10 40.7a12.7 12.7 0 01.4 2.7c.2 24 2.2 47.9-4.1 71.5-2.6 9.6-3.4 19.8-3.8 29.7-.6 15.6 0 31.3-.2 47-.4 15.3-2 30.5-1.7 45.8.3 14.5-3.2 28-7.1 41.6-3.9 13.4-8.2 26.7-12.5 40-3 9-5.7 18-9.4 26.7-3.4 7.7-7.8 15-11.8 22.5a7.8 7.8 0 01-2.1 2.7 3.1 3.1 0 01-2.5.2c-.4-.1-.8-1.3-.7-2a9.2 9.2 0 011.4-3c9.2-14 15-29.4 20-45.4 4-13.3 8.6-26.5 12.8-39.9 2-6.8 3.9-13.8 5.5-20.8a74.1 74.1 0 001.6-12.8c.6-11.3.2-22.7 1.2-34 2.1-23.3.2-46.7 1.3-70 .5-10.8 2.9-21.3 4.4-32 1.3-9.5 3.1-19 3.8-28.5.7-9 0-18.1.2-27.2a85.9 85.9 0 00-3.1-24c-3.7-13.6-7.7-27.2-10.8-41-3.3-14.3-6.6-28.8-8-43.4a189.5 189.5 0 01.9-44.7c2-14.2 4-28.4 4.1-42.8.1-8.6.6-17.3 1-26 .5-8.4 1.3-16.9 1.6-25.3.4-10 .6-20 .5-30 0-9.3.5-18.5 3-27.5l.4-2.2c1.5-5.2 2.2-6 6.1-6 5-.1 8 1.7 8.8 6.2 1 5.7 1.2 11.6 1.7 17.4.8 7.7 1.4 15.4 2.4 23 .3 2.5 1.6 5 2.7 7.4a55.7 55.7 0 015.6 23.5c.1 13-.7 26-1.8 39a158.2 158.2 0 00.8 31.5c1.8 15.9 2 31.7 2.2 47.5.2 9.4 1.6 18.8 2.6 28.1a10.5 10.5 0 00.9 3.9c4 7.7 3.7 16 3.7 24.3v15.9c.2 3.6.7 4.2 4.5 4.3 6.2.2 12.4 0 18.7.1l4.5.2c9.6.5 16.7 5.1 21.4 13.6 1 2 2.3 3.8 3.3 5.9s2.5 3.2 5 2.8a20 20 0 0114.5 3.6c3.7 2.4 7.8 3.1 12.3 3.6a47 47 0 0136.5 22.8 55 55 0 018.4 29.6c0 6.3-2.9 9.6-9.1 9.7a51.8 51.8 0 01-12.3-1.1c-6.4-1.5-10-6.1-10.7-12.5a76.3 76.3 0 010-13.5c.4-5.5.8-11-2.6-15.8a25.4 25.4 0 00-4-4.7 65.5 65.5 0 00-19.3-11.4c-2.8-1.1-5.5-2.6-8.2-3.8l-4.5-1.9zm31 7.2l-1 1.3a29.3 29.3 0 013 1.6c9.7 6.8 12.8 16.2 10.8 27.7a38.2 38.2 0 00-.3 9.6c.5 7 3.9 10.5 10.7 11.8a25.2 25.2 0 005.1.4c7-.1 8.4-1.5 8-8.5a47.4 47.4 0 00-24.3-40.3 24.6 24.6 0 00-12-3.6zm-59.2 12.4c-3 3.7-6 7.1-8.6 10.7a31.7 31.7 0 00-6.7 20c0 3.6 1.7 4.8 4.5 3.5a31.6 31.6 0 0016.7-16c3-7.2 3.4-12.6-5.9-18.2z"/>
      <path d="M232.3 851.5c3.7 5.5 7.6 10.8 10.9 16.4 3.7 6.4 6.8 13 10.2 19.6a9.2 9.2 0 011.2 2.5 12.2 12.2 0 01-.4 3.1c-1-.4-2.7-.5-3.1-1.3-2.6-4.1-5-8.5-7.2-12.8-3.2-5.8-5.9-11.8-9.3-17.4-4.7-7.6-12-12-20-15-11.8-4.6-24-8.3-36.6-9.6a58.8 58.8 0 00-24.4 4 12.7 12.7 0 00-3 2 68.6 68.6 0 006.4 5.9c3.2 2.3 3.7 5.5 3.7 9 0 6.6.2 13.2.1 19.8a32.5 32.5 0 006.2 19c3.2 4.7 7.5 5.4 11.4 1.5 3-3 5.7-6.6 6.4-11.1.7-5 3.4-9.8.8-15-2.3-4.5-4.3-9.2-7.2-13.4-1.6-2.3-4.6-3.6-7.2-5.1-2.3-1.4-4.9-2.4-7.2-3.5.6-3 2.3-2.8 3.7-2.4 6.9 2 13.3 4.6 16.4 11.8 1 2.3 2.4 4.3 3.5 6.5 3 5.7 4.1 11.4 2.4 18-1.5 5.6-2.8 11-6.8 15.2a20.6 20.6 0 01-6.7 5c-5.1 2.1-8.5 1-12-3.4-5-6.6-8-14-8-22.5l-.2-22.1c0-3-.5-5.4-3.9-6.7-2-.8-3.4-2.7-5.4-4.4-5.4 1.5-8.8 8.3-16.5 7.6 1-1.7 1.2-2.8 2-3.4 4-2.9 8-5.7 12-8.3 14-8.5 29-10 44.8-6.7 6.1 1.3 12 3.2 18 5a83.1 83.1 0 0125.3 12.4zM36.3 914c.8-4.9 3-14 8.8-21.8 5.2-7 10.4-13.8 15.8-20.6 5.3-6.6 9.1-13.8 10.7-22.2a60 60 0 0112.6-26.2l6.5-8.5c.6-.7 1.9-.8 2.9-1.2.2 1.1 1 2.5.6 3.3a46.2 46.2 0 01-3.7 5.6c-3.7 5.7-8.2 11-11 17-3.2 7.4-5 15.4-7.3 23.1-.8 2.7 1.4 3.6 3.2 4.7a17 17 0 018.9 13.7 52.1 52.1 0 01-.6 14.6 241.6 241.6 0 01-6.5 24A36.5 36.5 0 0165 936.2c-5.3 4.4-11.4 4.3-17 1.6-7.8-3.7-12.8-9.9-11.7-23.8zm32.5-44.8a13 13 0 00-2 1.8c-5.6 7.3-11.1 14.7-17 21.8-5.2 6.4-7.4 14-9.2 21.7a21.6 21.6 0 00.4 10c1.3 5.2 5.4 8.5 10.5 10 5.6 1.6 10.4-.3 14.1-4.8a36.8 36.8 0 009.2-17.8c.6-3.5 2.1-6.9 2.7-10.4a119.8 119.8 0 002.5-16.6c.3-8.7-2.5-12.4-11.2-15.7zM46.6 1072.6l20.5 20.1c4.4 4.5 6 10.3 7.5 16.2a6.4 6.4 0 01.1 2.8 1.8 1.8 0 01-3.2.8 6.5 6.5 0 01-1-2.6 37 37 0 00-12.3-20.5l-13-11.7a33 33 0 00-6.7 16.6c-1 9.1-1.1 18.4-1.5 27.6-.2 3 0 6-.3 9 0 1-1.3 1.9-2 2.8-.7-1-2-2-2-3 0-18.8-1.9-37.8 8-55.2 7-12.5 13.2-25.4 20.4-37.7a69.1 69.1 0 0117.4-19.2c2.7-2.2 6.3-3.3 9.5-4.6.7-.3 1.9.7 2.8 1-.3.9-.5 2.1-1 2.4-19.4 8.5-27.6 26.4-37 43.4l-6.1 11.8z"/>
      <path d="M223.1 895c0 2.5.4 5 0 7.3-1 5.8 1 10.2 5 14.2 5.5 5.3 7.3 12 6.6 19.6s-5 13.4-12.3 16a8.6 8.6 0 01-9-1.7 17.3 17.3 0 01-6.2-14 36.5 36.5 0 016.2-20.8c4.5-6.8 5.8-14 5.5-22-.4-10-.5-20-3.8-29.6a73.9 73.9 0 00-4-8.6c-.6-1.3-2-2.9 0-3.8.8-.4 3 .5 3.6 1.4a30.4 30.4 0 013.9 7.5c4 11.1 4.9 22.7 4.5 34.5zm-3.2 19.1a36 36 0 00-8 17.3 28.4 28.4 0 00.2 9c1.9 8.2 8 10 14.2 4.3a13.3 13.3 0 004-8.4c1.5-9.7-3.7-16-10.4-22.2zM232.3 851.5l.2.2.3-5.2 4.4 1.8 12.8 6a38.1 38.1 0 0116.4 15.1 10 10 0 01.6 9.7c-1.6 3.7-3.2 7.5-1.8 11.5 2 5.6 4.5 10.9 9.2 14.7 4.5 3.7 9.8 3.7 15.1 2.8 3-.5 4-3.1 4.2-6 1-12.6-4.1-21.9-15.2-28-1.7-1-4.5-1.3-4.7-4.5 2.1-2 4.2-1 6.1.2 12.9 7.6 18.8 15.8 18.1 32.5-.3 7.3-4.4 10.4-11.8 10.7-10.9.3-17.4-5.3-22.3-14.3-3.8-7-5-13.8-1.1-21 1.4-2.7.7-5.2-1-7.5a33.8 33.8 0 00-13.4-11.8l-16-7zM67.3 1119.5a15.7 15.7 0 01.3 3.6 9.8 9.8 0 01-1.3 3c-8.3 15-6.1 30.4-1.9 45.7 1.8 6.5 6.4 8.6 12.7 5.9a30.3 30.3 0 0017.3-19.2 13.7 13.7 0 00-4-15c-2.7-2.4-5.6-4.7-7.7-7.5a97.7 97.7 0 01-7.3-12c-.4-.8.3-2.2.5-3.4l1.2-.2a21.5 21.5 0 012.8 3.8c2.6 6.1 7.3 10.5 12 14.9 8.4 7.7 9.7 17 3.9 26.9a39.6 39.6 0 01-15.1 14.9 18 18 0 01-12.7 1.4 8.7 8.7 0 01-6.7-6.3c-1.4-4.3-3-8.6-3.4-13a200 200 0 01-.6-24.9c.2-7.3 5-13 7.8-19.3z"/>
      <path d="M1030 596.5v66.8a139.3 139.3 0 01-6.2 42.3c-5.2 17-9.2 34.3-14.4 51.2-8 26.2-17.8 51.6-34.6 73.9-6.9 9.1-13.9 18-23 24.8a162 162 0 01-15.3 9.6c-3.6 2-7.7 2.2-11.6 1.8-20.2-2.3-40-5.7-58-15.7-12.5-6.9-25-13.5-37-21a119.9 119.9 0 01-24.7-20.5c-5.4-5.8-11.3-11.2-16.5-17.2a30.5 30.5 0 01-5.6-9.7c-4.6-12.7-8.5-25.7-13.1-38.5-2.9-7.8-6.6-15.2-10-22.8-5.5-12.6-10.5-25.5-16.6-37.8a238.7 238.7 0 01-17.2-45.5c-1.9-7.5-3.2-15.1-4.5-22.7-1.2-7-2-14.2-3-21.3a63.1 63.1 0 01-.7-9.6l1.5-49.8c.1-4.3-.4-8.7.4-13a315 315 0 016.3-27.4c4.9-17.1 10.2-34 13.4-51.5a85 85 0 0118-39.2c4-4.8 7.8-9.7 11.6-14.7a66.6 66.6 0 0131.2-20.6c4-1.6 8.2-2.8 12.3-4.3 2-.7 4.2-1.4 5.5-2.8 5.4-6 12.4-5.6 19.4-5.3 5.4.2 10.9.9 16.3.9 12.6 0 24.8 2.2 37 4.8l27 5.8a34.9 34.9 0 015.6 1.4c11.5 4.6 23.7 7.5 35 13a106 106 0 0130.8 21.6l7.5 7.8c3.4 3.3 6.9 6.4 7 11.8a7.4 7.4 0 001.4 3.6 113 113 0 0111.6 26.9 268.5 268.5 0 0111.3 47.8 203 203 0 011.9 25.4c.2 23.2 0 46.4 0 69.7zM849 405.7c10 2 18.6-1.6 27.5-3.7 7.7-1.9 15.4-3.7 23.1-5.3 5.4-1.1 10.9-1.6 16.2-2.8 4-1 5.9-3.8 5.4-6.9-.6-3.1-3.2-5.2-7.3-4.6-13.3 1.9-26.6 3-39.5 7.3a80.6 80.6 0 01-19.2 4.2c-5 .4-9 .8-10.9 7-1.6-1.3-2.4-3-3.8-4.3a562.8 562.8 0 00-20.9-18.1 12.7 12.7 0 00-7.2-2.6c-4.3-.1-6.6 4.2-4.6 8a41.5 41.5 0 002.6 3.9 52 52 0 00-15.9 30.2 37.1 37.1 0 01-3.9 9.9c-2.4 4.7-5.3 9.1-7.8 13.8a37.8 37.8 0 00-3.8 8.7c-.9 3.7 1.7 6.4 5.3 6.4a6.6 6.6 0 006-3.7l4.6-7.8c4.7-8.5 10.7-16.6 12.1-26.6 1.4-9.6 6.7-17 12.6-24.3a55.8 55.8 0 0120 21.4 371.3 371.3 0 0115.3 36.5c5.6 15.4 10.4 31 15.4 46.7 2 6.6 3.7 13.3 5.6 19.8-3.3 0-6.4-1-8.6-.1-10.5 4.2-19 11-22.5 22.3-2 6-3.4 12.4-4.6 18.6-2 9.4-3.3 19-5.5 28.3a71.2 71.2 0 01-6 16.5 337.6 337.6 0 00-30.2 88 118.8 118.8 0 00-1.8 13.4 5 5 0 003.9 5.6 5.6 5.6 0 006.7-2.8 21.6 21.6 0 001.9-5.8c.7-3.7 1-7.5 1.9-11.2 3.2-12.2 6.6-24.3 10-36.5 4.3-15.7 11-30.5 18.5-45a84.3 84.3 0 007.8-23.4c2-9.6 3.4-19.3 5.3-29a69.7 69.7 0 013.8-13 24 24 0 015.7-8.8c4.6-4 9.9-7.1 15.1-10.8l1 3.1c3 9.3 5.8 18.8 9.3 27.9 4.4 11.5 8.7 22.9 11.1 35 1.4 6.8 3.3 13.6 4.8 20.4 3 13 6.5 26 8.5 39.2 2.7 17.5 4.4 35.2 6.2 52.8 1 10.2 1.9 20.4 2 30.5.2 26 0 52.1 0 78.2 0 3.9-.8 7.8-1.3 11.7-.5 4.7-1.4 9.4-1.4 14a5.4 5.4 0 005.2 5.7 5.7 5.7 0 006.3-5.2c1.4-9.5 3.2-19 3.4-28.6.5-22.5.2-45 .1-67.4 0-6.6-.5-13.2-.7-19.8l.3-5a45.8 45.8 0 015.7 2.3 68.6 68.6 0 0126.3 27.3c1.7 3.3 3 6.9 4.7 10.3s4.4 4.6 7.4 3.6a6.1 6.1 0 003.7-6.9 34.1 34.1 0 00-2.7-8 75.6 75.6 0 00-15.9-23.3c-8.5-8.2-17.4-16.2-30.6-17.7-1.3-12.8-2.4-25.8-4.2-38.6s-4-25.3-6.5-37.9-5.9-25.2-8.8-37.7c4 .7 7.7 1.2 11.3 2a23.7 23.7 0 017.4 2.6c6.8 4.4 14 8.5 20 13.9 9.2 8.2 19.6 14.6 29.8 21.4a36.8 36.8 0 0111.6 12.1 40.4 40.4 0 004 6.2c3 3.3 8.2 3 9.5-.5a9.4 9.4 0 00-.2-6.6 47.1 47.1 0 00-18.4-21.5 137 137 0 01-21-14.3 215.5 215.5 0 00-27-19.8c-8.7-5.5-18-9.5-27.8-1.7-3-8.9-5.6-17.5-8.6-26s-6.3-17-9.1-25.6c-2.7-8.4-5-17-7.4-25.5l-7.6-26c-2.5-8.6-6.4-16.6-8.2-25 4 .5 7.2 1.3 10.5 1.4l34.5 1c9.7.1 16.7 5.1 22.8 12 4.2 4.8 8.5 9.5 13 14a61.8 61.8 0 0042.4 19 45.6 45.6 0 009.5-.4 5 5 0 004.5-5c.1-2.8-1.5-4.8-4.6-5.7a23.4 23.4 0 00-3.4-.5c-5.2-.7-10.6-.9-15.7-2.2a46.4 46.4 0 01-13.4-5.5 94 94 0 01-22.7-21 39.8 39.8 0 00-29.7-16.7c-12.5-.5-25-.7-37.4-1-5-.1-9.6.6-11.1 7L849 405.6zm-86.8 146c0 .8 0 2 .3 3.1.6 3.9 2.6 5.8 5.7 5.8 2.8-.1 5.2-2 5.4-5.5.5-8.1 5.1-14 9.6-20 6-8.3 12-16.5 17.7-25 7.6-11.1 14.8-22.6 22.5-33.8 6.1-9 12.8-17.7 19.3-26.5 2.4-3.3 2.6-6.5.3-8.6-2.1-2-5.5-2-8.3.1a27.4 27.4 0 00-5.6 5.6l-26.4 38-22.9 34.4c-3.5 5.1-7.5 10-11 15s-6.5 10.6-6.6 17.4zm136.1 108.5c-3.4.2-5.5 2.4-7.3 4.8a160 160 0 00-19.7 35.5c-5.5 13.2-11 26.4-21.9 36.4a14.5 14.5 0 00-2.7 3.6c-1.8 3.2-1.2 6.9 1.3 8.6s5.5 1.2 8.1-1.5c7.4-7.3 14-15.2 18.6-24.7 6.1-12.3 10.2-25.5 17.6-37.2L901 672c1-1.6 2.2-3.1 2.7-4.9a5.3 5.3 0 00-5.4-6.8zM438.4 107a130 130 0 0125-12.3c6.5-2.3 13-5 19.3-7.7l20.4-8.4a5.7 5.7 0 011.8 0L484 93a49.2 49.2 0 00-21.2 31c-.7 4-1 7.5 2.4 10.4a6.2 6.2 0 011.7 3.5c.6 3.7 3 6 6 7.7A49.6 49.6 0 00495 152c8.5.4 17 .4 25.4-1.1A61.8 61.8 0 00540 144a24.6 24.6 0 0013.4-24.2 93.1 93.1 0 00-10.2-36.3 15.3 15.3 0 00-11.9-8.7 5.2 5.2 0 01-3.3-1.8c1.9-.6 3.7-1.5 5.6-1.7 7.7-.6 15.4-1.5 23.1-1.3 9.9.3 17.6 7.3 20.1 17a41 41 0 011.6 9.4c0 11.1.6 22.3-.4 33.3a61 61 0 01-11.9 29 35 35 0 01-12.4 10.6 133 133 0 01-41.6 14.1l-20.6 3.7a17.3 17.3 0 00-4.4 1.3 5.3 5.3 0 00-3.2 5.5 4.9 4.9 0 004 4.7 16 16 0 006.2.3c13.5-2.7 27.2-4.8 40.4-8.6 9.7-2.9 18.9-7.6 28-12.2a38.8 38.8 0 0015.3-14.7 83.8 83.8 0 0013.3-38.7 141 141 0 00-2.2-40 34.6 34.6 0 00-33.4-27 165.7 165.7 0 00-64 12.2c-7.8 3.2-15.5 6.9-23.3 10.1-5.2 2.2-10.8 3.6-15.9 6-7 3.2-13.7 7-21 10.9a25.8 25.8 0 01-3-3 127.9 127.9 0 01-18.9-33.4 16.9 16.9 0 01-.6-9.4c.7-3.3 2.3-5.5 5.7-6.2l8.8-2 14.3-3.5 5.6-1 27-3.3a111.8 111.8 0 0111.8-.7c18.7 0 37.4 0 56-.2 5.5 0 10.9-1 16.3-1.6 5-.6 10-1.7 15.1-1.8 9.5-.3 19-.4 28.3 0 5.9.1 11.6 1.3 17.5 1.8 9 .7 18 1 27 1.7 12.8 1 25.6 1.2 38.2 3.9a123 123 0 0015.8 1.8c9.2.8 17.5 4.7 25.5 8.8 11.2 5.6 21 13 27.8 24.1 5 8.3 10 16.5 12.4 26a41.1 41.1 0 011.8 11c-.2 10.7 2 21 4 31.4 1 5.7 1.4 11.6 2.5 17.3 1.5 7.8 3.9 15.4 5 23.2 2.8 20 6.7 39.8 5.7 60.1-.4 9.6.1 19.3-.1 29a132 132 0 01-1.6 17.3c-1.5 9.3-3.3 18.6-5.3 27.8-1 4.6-2.7 9-4 13.5a6.6 6.6 0 01-5.7 4.8c-5.2 1-10.5 1.8-15.6 3-26.1 5.9-52.6 4.4-79 3.8A95 95 0 01635 333c-3.8-1.6-7-2.6-11.3-.5-2.4 1.2-6.3.1-9.3-.6-8.8-2.1-17.6-4.4-26.2-7-12.9-3.8-25.6-8-38.5-11.7a113 113 0 00-13.2-3c-11.1-2-22.2-4.8-33.6-4.2-4 .1-4.5-.5-4.8-4.6-.5-6.2-.2-12.5-1.1-18.6-2.9-17.5-6.2-35-9.3-52.4l-7.6-41.8c-2.4-13-7.1-25.3-12-37.7-4.5-11.4-11.7-21-19.3-30.4L438.4 107zM469.8 854.6c1.2-.6 3-1.2 4.6-2.1 3-1.6 4.6-4.8 3.7-7.5-.7-2.5-3.4-4-6.9-3.6a20.3 20.3 0 00-2.8.5 82 82 0 01-65.7-13c-10.5-7.1-21-14.3-29.2-24.1-6.3-7.6-11-16-13.2-26a476.2 476.2 0 01-8.7-58.1c-1.2-12.6-3-25.1-3.8-37.7-.8-14.5-2-29.1 1.2-43.4 2.1-9.2 5.2-18.1 7.8-27.2l13.1-45.7c2.2-7.6 5-15 9.5-21.6 9-13.4 16.8-27.3 24.4-41.5a162.4 162.4 0 0130.3-41.4c6.5-6.2 12.7-12.9 19.1-19.3a48.6 48.6 0 014.4-3.3c-.3 6.7-1.2 12-5 16.2-3 3.4-6.4 6.4-9.7 9.5-2.1 2-2.2 2-3 5.9 1.7-.5 3.2-.6 4.2-1.3 9.1-7.1 17-15 18-27.5.4-3 2-6.1 3.6-8.8a11.7 11.7 0 015-4.3c2.6-1.2 5.6-1.7 8.5-2.5l.7 1c-1 1.5-1.9 3-3 4.4a195.7 195.7 0 00-31.8 58.3c-1.7 4.6-2.6 9.5-3.8 14.2-4.8 17.7-9.3 35.4-14.6 53-4.3 14.3-6.6 29-9.2 43.7a17 17 0 00-.3 2.2l-1.6 31-1.4 31.1a7.5 7.5 0 01-3.2 6.3 20.3 20.3 0 00-7.3 11.2q-6.7 21.6-13.6 43.1c-4.2 13.3-8.9 26.4-17 38-1 1.4-2.1 2.8-.4 4.5 2.4.6 3.5-1.2 4.3-2.8 4-7.6 8.6-15 11.8-23.1 5-13 9.1-26.3 13.5-39.6 2.2-6.6 4-13.3 6-20 .8-2.7 1.6-5.5 5.6-6.8 0 2.7.4 5 .3 7.3l-.9 39.6a19 19 0 00.6 5c4.2 16.1 7.9 32.4 17.8 46.2 2.7 3.7 3.2 7.2.8 11.4-4.9 8.4-5.3 18-6.4 27.4-.4 3.1-1.2 6.2-1.7 9.4a69 69 0 00-.7 9c0 .7 1.3 1.5 2 2.2.7-.7 2-1.4 2-2.2a1663 1663 0 004-29 41.4 41.4 0 016.3-17.4c3 3.8 5.8 6.9 8.2 10.2 9.2 12.7 18.5 25.3 27.3 38.2 8 11.8 15.3 24.3 23.5 36 6 8.7 12.9 16.7 19.5 25a44 44 0 0032 15.8c3 .3 5.8 1 9.1 1.5-1 4-2 7.2-2.9 10.4l-7.1 29.1c-1 3.9-1.5 7.8-2.7 11.6-5.8 17.3-10.9 35-19.4 51.3a166.9 166.9 0 01-11 17.7 50.7 50.7 0 00-9 21.7 31.6 31.6 0 01-4.2 11.6c-14.7 23.8-28.6 48-46 70-2.7 3.4-5.7 6.6-8.5 10a103.2 103.2 0 00-6.5 8.4c-1.9 2.7-2.3 5.8.2 8.3 2 2.1 1.4 4.1.6 6.3l-9.3 26.7-2.9 9.2a49.8 49.8 0 01-13.8 23.6l-5.6 5.6a32.3 32.3 0 00-8.3 14l-8.7 27.5c-2.6 8.4-3.2 17-3.7 25.7-.4 7-.7 14-1.2 20.9a62.8 62.8 0 01-1.4 7.3c-3-1-3.4-3.1-4-5a133.5 133.5 0 01-6.2-39 20.7 20.7 0 00-.7-6c-1.5-5-6.7-6-10.2-2.4a15.7 15.7 0 00-2.2 3.3 227 227 0 01-31.9 41 2.9 2.9 0 01-2 .8 94.7 94.7 0 0112.7-23c3.8-5 7.4-10 10.8-15.2a9.5 9.5 0 001.6-5.8c-.5-4.3-5.3-6.1-9.8-3.9-6.2 3.2-12.5 6.2-18.5 9.8-7 4.1-13.7 8.7-20.5 13a90.8 90.8 0 01-7.8 4.7l-34 16.8a17.8 17.8 0 01-6.5 2.1 15.5 15.5 0 011.5-2.6 91.6 91.6 0 0138.5-27.8c13.6-5.1 26.6-11.6 40-17.4a12.7 12.7 0 002.4-1.4 6 6 0 002.4-7 6 6 0 00-6-4.3 17.7 17.7 0 00-5 .9c-11.2 3.5-22.9 4.5-34.6 5.6-6.1.5-12.3 1.3-18.8 1a20 20 0 012.9-1.8c3-1.3 6-2.3 8.9-3.7 6.7-3 13.3-6 20-9.2 6-2.8 11.7-6.2 18-8.4 11-4 18-12.1 23.7-21.6 4.5-7.2 8.9-14.5 13-21.9q4.8-8.3 9-17c3.1-6.4 5.9-13 9-19.5a36.4 36.4 0 003.2-15.9 216 216 0 015.5-52.2c3-11.7 5.5-23.5 9.3-35 3-9 7.6-17.6 11.7-26.3 4-8 8-15.8 12.4-23.5a34.3 34.3 0 016.5-8.4 18 18 0 005.3-9 87 87 0 003-24c-.2-18.6 1.4-37 6-55a85.4 85.4 0 014.8-13.9c5.8-12.6 12-25.1 18-37.8 1-2.5 1.4-5.3 2.2-8.5zM359.3 651.8l1.2.7a22 22 0 003-2.2l24.6-25.7c2.6-2.7 5.6-5.1 7.8-8.1a61.2 61.2 0 0011.4-29.2c.5-3.9 1.2-7.8 2-11.7a11 11 0 018.2-9 24.9 24.9 0 004.3-1.5c.4-.2.7-1.3.7-1.9a1.6 1.6 0 00-1.1-1.1 12.1 12.1 0 00-3.9 0 15.6 15.6 0 00-12.8 13.4c-.8 4.3-1.2 8.6-2 12.9a52 52 0 01-11.7 27.1c-8.2 9-17.2 17.4-25.8 26.1a45.9 45.9 0 00-5.2 6.6c-.7 1-.5 2.4-.7 3.6z" class="cls-1"/>
      <path d="M395 55.4l5 14.4c3.8 10.4 9.8 19.6 16.3 28.4a602.9 602.9 0 0024 30.7c11 13 17.8 28 23.1 43.8 3.2 9.3 4.7 19 6.3 28.7 2.4 14.7 6 29.2 8.6 43.8 2.5 13.8 4.9 27.5 6.8 41.3 1 6.5.7 13.2 1 20.3l-8 2.4c-9.2 3-18.4 6-27.6 8.7-4 1.3-8.3 2.3-12.5 3.2a82.6 82.6 0 00-29.5 14c-6.8 4.8-13.6 9.7-20.9 13.5-7 3.6-14.7 5.8-22 8.8-22.7 9.3-46.2 16.8-67.5 29.1-12.4 7.2-25.6 12.8-37.5 21-8.2 5.6-17.8 5-26.5.7-4.8-2.4-6.8-7.4-7-12.8a21.3 21.3 0 013.4-13c3.6-5.4 7.3-11 11.7-15.8a517.5 517.5 0 0150.4-46.4c7.2-6 15.6-10.6 23.5-15.7 18.6-12 38.7-21.2 59-30 5.4-2.4 11.4-3.7 17.2-5.6 9.6-3.3 19.3-6.5 28.8-10.2 10-3.9 18.1-10 23-19.9 1-2 2.4-3.8 3.5-5.8 5-8 5-17 3-25.7-1.2-5.4-5.4-9-10.3-11.5a71.1 71.1 0 00-27-7.6 162.5 162.5 0 00-67.4 9 84.5 84.5 0 00-35.4 22.7 162.8 162.8 0 01-38.2 29.8c-13.5 7.7-26.7 15.8-40 23.7-2 1.3-3.8 3.1-6 4.3a111.5 111.5 0 01-11.5 5.6c-8 3.3-16.2 6.3-24.3 9.4-.8.3-1.6.9-2.5 1.3-5.1 2-8.4 0-9-5.6-.6-6.7 1-13 2.7-19.4a185.3 185.3 0 0117.3-40.5c3.6-6.6 8.7-12.3 13.4-18.2 8.6-11 17.4-21.8 26.2-32.7l15.4-18.8c10.2-12.1 20.2-24.5 31-36.2 6.3-6.9 13.8-12.7 21-18.8 4.8-4 9.9-7.6 14.6-11.6a161.7 161.7 0 0157.4-31c5.6-1.8 11.1-3.8 17-5.8zM762.6 1329.8a27 27 0 015.1-13.8c3-4.8 6.4-9.4 9.5-14.1a42.3 42.3 0 003.4-5.9c1.2-2.7 1.3-5.6-.9-8-2.3-2.5-5.3-2.5-8.3-1.3l-15.2 6.3a692 692 0 01-43.5 16.5c1.7-1.5 3.3-3.2 5-4.6 14.2-11.3 28.6-22.3 42.5-33.8a64.2 64.2 0 0020.6-30 44.6 44.6 0 00-2.1-30.5 60.1 60.1 0 00-15.3-23 125.3 125.3 0 01-30.3-45.2l-19-45.4a79 79 0 01-5.1-23.8c-.8-8.4-.5-16.9-.5-25.3 0-2.8-.2-5.4-2.5-7.2a94 94 0 01-25.8-34.6L653 951.4a75.4 75.4 0 01-8.4-38.2c.1-2.9 1-4.5 3.5-5.8a497.3 497.3 0 0074-47c6-4.4 12.2-8.7 18.4-13 1.3-1 2.9-1.7 4.3-2.6 9 11.5 17.9 22.7 26.6 34 5.3 6.6 7 15 9.6 22.8a309.5 309.5 0 019.2 35 90.3 90.3 0 01.6 33.1 239 239 0 01-12.6 43.5c-2.3 6-2 11.4 1.1 16.7 4.8 8 9.4 16 14.8 23.5a88.6 88.6 0 0112.4 25.2c6.7 21.3 13.5 42.5 17.9 64.4a127.6 127.6 0 012 15.7c.6 8.2.8 16.5 1.1 24.8a11.8 11.8 0 010 4 62.7 62.7 0 002 37.8c3.3 11.2 7 22.3 11 33.3 3.5 9.8 4 20 4.8 30 .9 12.9 1.4 25.7 2.1 38.5a5 5 0 01-.4 1.3c-2.7-.1-4.1-2.4-5.5-4.2-3.3-4.5-6.3-9.3-9.5-14-1.4-2-2.6-4.3-4.3-5.9-4.3-4-10-2.3-11.2 3.5a33.7 33.7 0 00-.4 6.8l-.2 14.1c0 .3-.3.6-1.2 1.8a56.8 56.8 0 01-.8-6v-16.4a61.3 61.3 0 00-.4-6.8c-.4-3.2-2-5.8-5.3-6.7s-5.9.7-7.8 3.3c-1.6 2.3-3.1 4.7-4.9 7a28.5 28.5 0 01-5 5.3l-24.8 17.8-3 1.8zM620.6 676.7c4-1 5.4-4 5.7-7.6a120.3 120.3 0 001-12.4 266.6 266.6 0 013.3-40.6 54.8 54.8 0 00-12.5-44.9c-6.7-8.2-14.9-11.1-25.1-7.3l-7.1 2.6c-.6-4.9-1.4-9.6-1.7-14.4a26 26 0 00-4.3-12.7c-3-4.4-7-6-12.2-5.1a38.1 38.1 0 00-19.2 9 8 8 0 01-4.2 2.3c1.6-2.9 3-5.8 4.7-8.6 5-7.4 10.7-14.5 11.5-23.7a273.3 273.3 0 00.7-28.2c0-4-3-6.4-6.6-7.7s-7.5-2.3-12-3.7l6-11c4.4-9.2 9-18.3 13.2-27.5 2.3-5 2-10.4 1-15.6-1.1-6.6-5.6-11.1-12.3-11.4-9.2-.4-18.4.3-27.7.5-2 0-4 .4-6 .6l-.6-1c2-2.2 3.8-4.5 6-6.4a302.8 302.8 0 0141.2-29.9c1.5-.9 2.9-1.7 4.3-2.7 3.8-2.5 4.3-2.6 7.8.6a42 42 0 0111.3 21.2c.4 1.6.5 3.3.8 5 1.8 9-1.3 15.7-7.7 22.3-6.6 6.9-11.8 15.1-17.4 23-.7 1-.8 3.2 0 4s2.8.7 4 .3c8.1-3.3 16.7-2 25.1-2 1.5 0 3.1 1.3 4.2 2.4 3 3.1 4.3 7.1 5 11.3.4 3-1.1 5-3.5 6.6s-4.1 3.3-4.5 6.7c-.2 2.1-2.3 4.2-3.8 6-7.8 9.4-13.4 20.2-19.2 30.7-.5.8-.3 2-.4 3.2 3 .7 4.3-1.3 5.1-3 2.6-4.8 6.9-6.4 11.8-6.3a104.7 104.7 0 0116.4 1c10.5 1.7 16.4 9 17.8 19.7a35.4 35.4 0 01-6.8 25.5 20 20 0 00-2.4 3.8c-.4 1-.3 2.8.1 3a5 5 0 003.6.1c1-.3 1.7-1.4 2.5-2.2 2.7-2.6 5.3-5.4 8.1-7.9 8.7-7.7 19-5 23 5.8 3.4 9 4.5 18.2 4.7 27.7a86 86 0 01-7 37c-2 4.4-4.6 8.6-7 12.8-.9 1.6-2.4 3.1-.5 5.2 2.8.1 3.7-2.2 5-4 5-6.8 16.5-6 19.8 2a41.1 41.1 0 012.8 11.4c1 9.2 2.1 18.4-.3 27.6a5.7 5.7 0 000 2.2 6.3 6.3 0 00.7 1.5c2.5.7 3-1 3.4-2.7.7-4 1.8-7.9 1.6-11.8a171.4 171.4 0 00-2.3-24.7c-1.9-9.5-7-14.7-16.8-14.2a11.7 11.7 0 01-2.7-.7 29.1 29.1 0 011.2-4.8c7.4-16.7 7.3-34.2 5.4-51.7a64.5 64.5 0 00-5.1-17.4c-3.5-8.2-12.6-11.7-21.4-8.8-1.8.5-3.5 1.2-5.6 2-.1-1.2-.5-2-.3-2.6a39 39 0 000-19c-1.6-9.4-8.2-15-16.5-17.7-6.1-2-13-1.8-19.5-2.4-2-.2-4 0-6.8 0 2.6-6.4 6-11 9.4-15.7l8.4-11.3a43.8 43.8 0 0115.9-13.3c3.1-1.6 7.3-1.5 11-1.2 1.8.2 4.2 2.2 5 4 2 4.5 3.9 9.1 4.5 13.9 1.2 9.7 1.7 19.5 2.3 29.3a30 30 0 01-3.2 15.4c-.8 1.6-2 3.3 0 5.1 2.6 0 3.4-2 4.2-3.9a41.6 41.6 0 003.3-21q-.7-11.9-2.1-23.7a65.5 65.5 0 00-2.7-12.1c-4-12.3-12.7-14.6-25.5-9.2a46.4 46.4 0 00-5.4 3.2l-9.5-16.8c4-4.5 7.9-9.6 12.5-14 11.5-10.9 18.3-24.7 24.8-38.8 1.4-3 1.7-6.8 6.2-7.1 5.9-.5 11.8-1.5 16.4 3.6 3.7 4.3 6.3 9 5.9 14.9a8 8 0 00.2 2.8c2 6.8-.2 12-5.8 16.2-8.7 6.7-17.2 13.6-25.7 20.4a16.6 16.6 0 00-3.6 3.5c-.5.7-.1 2-.1 3 1 0 2.2.2 3-.3q13-9 25.9-18.3c4.5-3.3 9.6-5 15-6.5 3.9-1 5-.5 6.3 3.4a47.3 47.3 0 011.4 22.4c-.5 3.9-1.8 7.7-2.5 11.6-.1 1 .7 2.2 1 3.3 1-.7 2.7-1.2 3-2.1a102.2 102.2 0 003-13.7c1.1-8.1.7-16.2-2.3-24-2.1-5.5-4.3-6.6-10-5.3l-4.5.9 1-13.8a3 3 0 01.5-1.6c4-5 7.6-10.6 12.5-14.4 7-5.4 21.6-2.4 27 4.5a15.8 15.8 0 012.7 7.3 27 27 0 01-2 14.4c-3.8 8.8-8.1 17-16.6 22.3-.7.5-.8 1.8-1.2 2.8 1 .3 2.2 1 3 .8a16.8 16.8 0 004.4-2.6c1.5-1.1 2.9-2.4 4.3-3.6a3.6 3.6 0 01.9-.3c1.1 1 2.4 2 3.8 3a36.2 36.2 0 0014.4 6.1c5.6 1 6.1 1.7 4.6 7.3q-6.6 24.6-13.6 49a129.7 129.7 0 00-5.7 35.7c0 17-1 34-1.3 50.9-.1 5 .8 10.1 1.4 15.2 1 8.8 2.3 17.6 3.4 26.4a13.4 13.4 0 010 2.5l-19.6 2.7a8.7 8.7 0 01-.3-3.1c1.4-5.1 2.5-10.3 4.5-15.2 4-9.7 1.1-23.4-7-30a13 13 0 00-7.1-2.8 137.5 137.5 0 00-15.8.8 9 9 0 00-2.8 1.3c0 2.5 1.4 2.7 3 2.7 4.3-.1 8.7-.1 13-.5a9.4 9.4 0 019.2 4.3c5 7.2 7.1 15 3 23.4-3.3 6.7-4.3 14-5.3 21.3-.5 4.2 1.5 5.6 5.4 4.1 1.4-.5 2.7-1.6 4-2a47.6 47.6 0 019.9-2c4.8-.2 7.3 1.7 8.8 6.3 2.4 7.2 4.3 14.5 6.8 21.6s5.5 14 8.5 21l15.7 35.8a80.5 80.5 0 013.9 10c-6.6-7.5-12.6-15.8-25-11-.3-3-.7-5.4-.7-7.7.1-8.2-.3-16.2-3.8-23.8A28.3 28.3 0 00708 672c-6.8-4-14.4-3.7-21.2-.6-4.2 1.9-9 4-11.4 8.4 1 2.3 2.5 2 3.9 1.2 2.6-1.6 5-3.5 7.6-4.8a19.1 19.1 0 016.9-2.2c12.5-1 22.3 7.3 23.7 21 1 9 .2 18 .1 27 0 2-.9 4.2 2 5.6.8-1.1 1.5-2.1 2.1-3.2 4-6.3 10.2-7.2 15.8-2.3a26.5 26.5 0 019 14.2c4 18.6 5.8 37.3-.2 56-2.2 7-4 14-6 21.1l-2 6c-1 0-1.2 0-1.3-.2L722.7 797c-1.2-1.8-2-3.6-.5-5.7a6.6 6.6 0 00.9-3.2c1-18.6-.9-36.6-9.3-53.5-3.6-7.2-8.3-13-16-16a38 38 0 00-26.9 1c-.8-1.7-1.7-3.5-2.4-5.3-2.3-5.9-6.5-8.3-12.7-8.4-9 0-17.8.3-26.3 3.5a28.6 28.6 0 01-4.7.9c-.2-2-.6-3.4-.6-4.8V697c.2-7-.1-14-3.5-20.4zM692 542.4V541c.8-1 1.7-2 2.4-3.1 5.2-7.3 10.5-14.5 10.6-23.9.1-8.9.3-17.7 0-26.6a36.8 36.8 0 00-9.7-24.1c-4.9-5.4-8.4-6.8-15.7-1.3-5.5 4.2-10.2 9.5-15 14.5-.7.6-.6 2-.9 3 1.2 0 2.7.5 3.5 0a81 81 0 006.8-6c3.2-2.9 6.1-6.1 9.5-8.7s5.2-2.3 8.2 1a33 33 0 019 22.7c0 7.1-.3 14.3 0 21.5a31.6 31.6 0 01-5.5 19.1c-1.8 2.9-4 5.5-6 8.3s-3.8 5.8-5.5 8.5c2 3 4 1.7 6 1.6a58.5 58.5 0 016.8.2c1.9.2 3.7 2.2 6 0-1.6-5.6-7-3.8-10.5-5.3zM664.4 559c4.7-2.6 6.1-5.3 6-11-.3-11.2-.5-22.3-1.6-33.4a36.8 36.8 0 00-4.8-13.7c-2.8-5.1-8-7.3-13.8-7.4-2.4 0-4.5.7-4.2 3.7.4.3.5.5.7.5a4.5 4.5 0 001.6.4c6.5-.9 11 2 13.6 7.7a32 32 0 012.7 10.3c.8 9.4 1.2 18.9 1.3 28.3.1 3.5-.8 7-1.3 10.6l-.2 4z" class="cls-1"/>
      <path d="M620.8 676.5a17.9 17.9 0 00-13.5-4.7c-5.5.3-11-.2-16.5.3a29 29 0 00-9.6 2.8c-1.4.7-2.3 2.9-2.8 4.5-.2.8 1 2.2 2 3 .3.2 2.2-.8 2.4-1.6 1.2-3.6 4.2-4.3 7.2-4.4 6.8-.3 13.6-.1 20.4-.1a7 7 0 016.8 4.3 28.6 28.6 0 012.5 9.6c.4 11.7 1 23.4-2.9 34.8-.2.8.4 2 .8 3.8 1.5-1.3 2.6-2 3.2-2.9a33.6 33.6 0 002.3-5.7 9.4 9.4 0 016-6.2c9.2-3.6 18.7-4.3 28.4-3.6 4.6.3 7.8 4 8.2 10 .4 4.8 0 9.7-.2 14.6 0 1.9-.6 3.8-.3 5.6.2 1.3 1.5 2.3 2.3 3.5a16.1 16.1 0 002.7-3.1 13.7 13.7 0 00.8-3.9c.3-1.9.4-3.8 1-5.6 3.2-12.2 5-11.4 14.2-10.6a48.7 48.7 0 019.4 1.4c6.6 2 10.8 7 13.7 12.8a97.8 97.8 0 019.7 51.7 14.6 14.6 0 01-1 2.8c-2-2.1-3.8-3.8-5.3-5.6a43.1 43.1 0 00-19.1-13.6c-5.5-1.9-10-1-14 3l-4.8 4.6c-.7-3.3-1.3-5.4-1.6-7.5l-2-11.7c-1.8-12.7-20.5-16.9-29.2-10.2a34.7 34.7 0 00-10.7 11.5 36.4 36.4 0 01-3 4c-.5-2.6-.9-4.2-1-5.7-.5-4.1-.6-8.3-1.3-12.4a19 19 0 00-15.8-16.2 60.3 60.3 0 00-10.2-.5c-1 0-1.9.8-3 1.3 1.7 3.7 5 3.1 7.4 3.1a22.3 22.3 0 0111.3 3.3 10.4 10.4 0 015.4 6.9 25 25 0 011 3.8l1.8 31a114.8 114.8 0 01-.4 13c-.1 1.8-1 3.5-1.5 5.5-6-2.4-10.8-6.5-17-5.3-6.5 1.3-9.2 6.8-12.7 12.4l-3.7-5.4a22.9 22.9 0 00-11-9.2 53.6 53.6 0 01-8-4.2c-6-3.4-11.3-2.6-16.3 1.6-2.5 2-4.8 4.3-7.2 6.4-.6.6-1.3 1-2.7 2.1-.3-2.3-.4-3.9-.7-5.4-1.3-6.9-2.5-13.8-4-20.5a17.4 17.4 0 00-8.6-10.9 122 122 0 00-7.4-4.1c-7.1-3.7-14.4-2.7-21.4 0-2.1.8-3.7 3-5.5 4.5-20.6-7.1-36-.7-46.7 19.7-6.6-9.4-12.4-18-15.7-27.4 4.4-5.3 8.7-10 12.3-15 7.9-10.7 17.6-11.2 30-8.7 1.2.3 2.4 2 3.4 3.4 2.3 3.1 4.7 6.3 6.8 9.6a59.2 59.2 0 013.6 7.5c.7 1.6 1.2 3.3 1.8 5h1.5c.4-1.3 1.3-2.5 1.2-3.8a19 19 0 00-4.5-11.3 94.6 94.6 0 01-7-10.1c-1.5-2.5-3.1-4.5-6-4.7-5.9-.3-11.8-1.2-17.5-.6-6.5.6-11.4 4.6-15.5 9.6l-8.6 10.5a40.5 40.5 0 01-3.4 3.1c-2.2-9.2-6.2-17.2-6.3-26.2v-15.3c0-2.8.6-4.4 3.5-6.1 3.8-2.2 6.4-6.3 9.6-9.5l12.8-11.9a6.2 6.2 0 011-.6c10-6.3 20.3-1 21.2 11 .4 4.3.4 8.7 1.1 13a50 50 0 002.6 9.2c.4 1 1.6 1.7 2.4 2.5 2.4-1.6 1.7-3.3 1.2-4.8a60 60 0 01-2.9-19.6c-.2-8.2-5-13.7-11.4-17.8-4-2.5-8.5-1.2-12.5.7a49.5 49.5 0 00-17.6 14c-2.9 3.6-6.1 7-10 11.2a26.7 26.7 0 01-.7-4.3l1.2-21.5c.2-3.2.1-6.4 3.4-8.5 1-.6 1.4-2.1 2-3.3 3.7-9 5.4-10.4 15.2-10a151.7 151.7 0 0116.3 1.6 11.8 11.8 0 019.1 6q3.4 6.2 6.4 12.6c1.7 3.4 2.6 3.9 6.2 2.3l9.8-4.4c1.3-.5 3.5-1.5 4.3-.9 3.6 2.7 8.3 1.3 11.9 3.5 2.5 1.5 3.7 3.6 4.6 6.6a70.5 70.5 0 012.4 22.5c-.1 5-.5 5.6-5.5 7q-8 2-15.9 4.3c-6 1.7-8.7 6.9-11.5 11.8a2.1 2.1 0 000 1.6c.2.5.7.8 1.6 1.7 1.2-1.2 2.6-2.2 3.3-3.5 4.7-8.2 12.7-9.5 20.8-10.5a49.6 49.6 0 016.3-.1c7.9 0 9.4 1.6 8.4 9.4 8.3 1 8.3 8.4 9.8 14.2 1.2 4.5.7 9.3 1 14 .1 2.9 0 5.7.3 8.5.1 1 1 2 1.5 3.1h1.2a17.2 17.2 0 001.2-3.9 13 13 0 015-9.2c3.8-3.3 7.4-7 11.3-10.2 9-7.5 20.2-6.5 27.5 2.5 8.3 10.4 9 22.4 7.1 34.9-.2 1.8-.8 3.6-1 5.5a1.8 1.8 0 003.1 1 19.2 19.2 0 002-5.1 57.5 57.5 0 00-3-31.8 11.8 11.8 0 01-.6-6.4c1.1-8 .4-16.2-1-24.2a3.6 3.6 0 010-.6c-.5-10-5.6-16.4-14.9-20-4-1.4-3.9-1.8-2.9-6a30.4 30.4 0 00-2.1-20.9c-1.3-2.7-2.3-5.6-3.6-8.3-5-10-14-12-23-5.7a75.3 75.3 0 00-20.7 20.7 18.8 18.8 0 01-2 2.3l-10.3-11.4 3.6-4.5 9.4-10.6c9.2-10.5 12.5-23.5 15.3-36.7 1.2-5.3 3-10.5 4.1-15.8a71.4 71.4 0 001.6-13.5c.2-8.5-5.8-13.8-14.5-13.5a12 12 0 01-1.8-.2c.2-2 1-3 2.8-2.4 2.4 1 3.4-.2 4.7-1.8 4.4-5.4 8.9-10.8 13.5-16s11-7.8 17.9-9c3.3-.6 6 .2 7.8 3.2 1 1.7 2.4 3.6 2.8 5.5a96.8 96.8 0 01.5 38.8 42.4 42.4 0 01-11.2 18c-1.2 1.5-4.2 3-2.3 5 2.2 2.4 4-.6 5.4-2a43.9 43.9 0 0014-31.2c0-1.7.1-3.4.3-5a2.7 2.7 0 01.4-1.2c4-.9 7.7-1.5 11.3-2.5 5.4-1.7 10-.4 14 3.3a49 49 0 0115.2 29.1c1.2 7.4 0 14.6-.9 22-1.3 9.8-1.8 19.8-2.6 29.7l-2.3 25.3zm-1.8-35.7c.4-2.3.8-3.5.6-4.4a30 30 0 00-10.3-18.3 37.7 37.7 0 00-20.4-7.5 35.8 35.8 0 00-22.5 5.6c-7.1-11.7-15.4-18.3-21.2-17-.4 3.3 2.6 4 4.5 5 9.7 5.3 13.6 13.6 13.1 24.4v5.6c0 3.4 0 6.8.2 10.2.1 1.2 1 2.3 1.8 3.9 1-1.2 1.7-1.6 1.7-2v-24.5l2.5-1.7c8.3-6.1 17.4-6.4 27-3.9a25.6 25.6 0 0119 19.5 6.1 6.1 0 00.8 2.2 30.2 30.2 0 003.2 3z" class="cls-1"/>
      <path d="M484.4 666l-2.1-6.3c-3.1-7.8-7.3-15-14.5-19.7-8-5.3-22.5-4.2-29.7 2-2.9 2.3-5.9 4.6-9.1 7.3a8 8 0 01-1-2.5c0-7.5.4-15 .1-22.6-.2-7.3 4.5-11.2 9.3-15a79 79 0 018-5.3 29.5 29.5 0 0116.7-4.8h14.2c4.8 0 6.2 1.4 7.3 6a401 401 0 004 15.4 77.7 77.7 0 012.4 29.7 7.2 7.2 0 00-.2 2.2 2.4 2.4 0 001.2 1.6 2 2 0 002-.6c.7-1.7 1.7-3.6 1.6-5.3-.5-8.6-.9-17.3-2.1-25.8-1-6.3-3.1-12.5-4.7-18.7-1.7-6.4-4.6-8.7-11.3-8.9H463a36 36 0 00-21.3 6.6l-11.3 7.4c-1.3-5.9 3.2-31.8 6.7-39.5 5.9-1.4 11.8-2.4 17.5-4.2a77.6 77.6 0 0126.3-3.1c6 .2 7.7 1 9.6 6.8 2.4 7.3 4.3 14.9 6.1 22.4 1 4.2 1.6 8.5 2.3 12.8l.6 3.3c.4 1.6.7 3.8 3 3 .8-.2 1.4-2.5 1.2-3.7q-2.7-14.2-5.8-28.3a103.9 103.9 0 00-3-10.3c-2.5-7.9-5.9-9.8-14-10.4-13-1-25 2.7-37.4 5.7l-4.2 1c-.8-4.5 7.9-38.2 13.9-54.4 4.3 1 7.7-1.8 11-4 10.3-7 20.4-4.4 29.6 1.5s17.7 19.4 13 33.5a81.3 81.3 0 00-2.7 12.8c-.2 1 .5 3 1.2 3.3 2 .7 2.5-1.1 2.9-2.6 1.4-5.9 3-11.7 4-17.7a26 26 0 00-2-15.5c-7.1-15.6-18-22.8-33.6-23.6a21.7 21.7 0 00-12.9 3.6l-8.7 5c-.6-5.2 1-9.2 2.4-13.2 5.8-16 13-31.4 23.3-45 7.4-10 15.8-19.2 24-28.6a11.6 11.6 0 015.1-3.3c12.6-3.9 25.7-4.3 38.7-3.8 6.7.3 9.8 3.6 10.5 10.3a27 27 0 01-3.1 15.9c-5.9 11-11.5 22-17.2 33.1-2.4 4.7-1.5 6.4 3.7 7.4a86.2 86.2 0 019.4 1.9 7.3 7.3 0 015.6 7.6c0 6.4.5 13-.2 19.3a40.8 40.8 0 01-4.1 14.5c-5.3 10-11.5 19.5-17.3 29.2a61.8 61.8 0 01-14.7 16.3l-1 .7c-1.6 1.2-3.1 2.7-1.8 4.6.7 1 3 1.3 4.5 1.1 2.8-.2 5.5-1 8.3-1.4 5.8-.8 10.1 2.6 10.3 8.3a39.8 39.8 0 01-.7 10.2c-2.3 9.9-5.2 19.7-7.4 29.6-2.5 11.7-9 21-16.6 29.8a111.7 111.7 0 01-7.9 8.1c-1.1 1.1-2.9 2.5-4.2 2.4-6.9-.6-13 1.9-20 4.9zm1.9-220.2a9.8 9.8 0 002.7.6c4.5-.2 8 1.8 11 4.9a42.5 42.5 0 0112 22.5c1.1 6 1.5 12 2.3 17.9a25.7 25.7 0 001.1 5c.2.4 1.2.8 1.8.8a1.7 1.7 0 001.3-1 6.3 6.3 0 00.3-2.7c-1.1-8.5-1.6-17.3-3.9-25.6a40.8 40.8 0 00-15.8-23.3 13.2 13.2 0 00-10-2.6c-1.6.3-3.1.7-2.8 3.5zM545.2 856.8l-1.5-7.1a46 46 0 00-8-21c-1.6-2-2.2-4.2-.8-6.7a52.1 52.1 0 002.1-5.9c.5-1.2.8-3 1.7-3.5 4.5-2.5 5.5-7 7.4-11 2.5-5.2 6.6-8.7 11-12a8.4 8.4 0 019.6-.7c3.8 2 7.9 3.7 11.6 6 7.2 4.3 10.5 11 10.6 19.4 0 2.2-.5 4.5-.3 6.7.2 1.7 1 3.3 1.6 4.8 3.2-.6 3.2-2.6 3.6-4.5.9-4.8 1.8-9.6 3-14.3 1.5-5 3.6-10.2 9.6-10.6s11 2.5 14.3 7.6a17.4 17.4 0 012.6 6.8c1.3 9.7 2.5 19.5 3.2 29.2.5 7.3.4 14.7.3 22 0 4.4-.6 8.7-.9 13a12 12 0 00.3 4c.2.7 1.4 1.8 1.7 1.7a3.7 3.7 0 002.2-2 18.3 18.3 0 00.2-5 25.3 25.3 0 013.3-14.2 138.7 138.7 0 018-13c3.4-4.7 6.3-5.4 11.9-3.7 6.8 2.2 10.4 7.2 12.2 13.8 1.1 4 2.1 8 3.4 12a26.3 26.3 0 002.4 4.5c2.8-.7 2.7-2.3 2.3-3.8-1.6-5.8-3-11.7-5.1-17.3a22 22 0 00-17.6-14.3 10.6 10.6 0 00-10 3 70.4 70.4 0 00-5.2 6.6l-2.9 4.4a8.6 8.6 0 01-1-.2c-.2 0-.5-.2-.5-.3l-2.9-41.5 6.8-5.4c7.7-6.2 16.3-6.6 25-3.3 5.4 2 7.3 6.9 8 12.1a32.8 32.8 0 00.6 4.5c.2.7 1.2 1.8 1.8 1.7a3.9 3.9 0 002.6-1.5c.6-1 .4-2.3.8-3.3l2.8-7.3c1-2.4 3-3.3 5.4-3.3h13c4.3 0 7.2 2 9.2 5.6 6.2 11 9.7 22.9 12.6 35 .6 2.7-.4 4.8-2.6 6.3-10.2 7.2-20.3 14.5-30.6 21.4-8.7 5.8-17.5 11.3-26.3 16.7-3.4 2-7 3.9-10.5 5.6-3 1.6-6.2 2.7-9.7 1a4.5 4.5 0 00-5.6 1.6c-2.9 3.6-6.9 4.7-11 5-6.2.4-12.5.3-18.7.3a7.7 7.7 0 01-2.3-1c0-4.7-.2-9.4 0-14a155 155 0 00-3.3-38.3 46.5 46.5 0 00-2.8-9.2 18 18 0 00-11.8-10.5 53.8 53.8 0 00-17.4-1.8c-4.8.1-8.6 2.1-10.3 6.5-2.4 5.7-4 11.7-6 17.6L547 857z" class="cls-1"/>
      <path d="M543.6 893.4c3.8-.5 3.5-2.8 3.5-4.8 0-5.7-.2-11.3 0-17a21.3 21.3 0 011.5-5.7c.7-2 1.6-3.8 2.2-5.8 1.4-5.7 2.6-11.4 4.2-17 2.7-9.8 5-11.8 15.1-11.3a49.7 49.7 0 0112.7 2.7 11.4 11.4 0 017.3 8c1.6 5.8 2.8 11.8 4 17.7 2.6 13.6 1 27.4 1.6 41.7-2.9.2-5.2.7-7.6.5l-33.2-3.3c-3.7-.4-7.4-1.2-11.2-1.6-7.4-1-12.7-5.2-17.6-10.3a222.4 222.4 0 01-26.5-35.2c-1.8-2.9-3.9-5.6-5.8-8.4l-2.7-4.3 10.8-15.8a23.4 23.4 0 014.5-5c7.3-5.8 10.9-5.3 16.8 1a67.6 67.6 0 0118.1 42.8c.7 8.2.9 16.5 1.3 24.8.2 2.1.6 4.2 1 6.3zM745.5 398c-3-8.2-7.4-14.7-16-17.2a16.2 16.2 0 00-12 1.3c1.2 3 4 2.3 6.1 2.3 6.3-.1 11 2.7 14.3 7.7 1.9 3 3 6.5 4.3 9.8a3.4 3.4 0 01-.4 2.6c-6.4 9.8-9.8 20.8-13.6 32.1-7.6 0-14.1-2-19.7-7a4.1 4.1 0 01-.7-5.7c1.4-2.5 2.6-5 3.8-7.6a36.8 36.8 0 003.8-17.5 17.9 17.9 0 00-6.5-13.8c-9-7.7-20.1-7.3-29.3-3.5-2.6 1.1-4.5 4-6.6 6.1-1.7 1.7-3.2 3.6-5.2 5.9-3-6.5-5.6-12.4-11.2-16-5.8-3.7-12.3-2.4-19-1.8-.5-2.2-1-3.7-1.3-5.4a22.8 22.8 0 00-10.6-16c-5-3.2-10.7-5.3-16.1-8-.6-.2-1.2-.6-2.7-1.5 2-.4 3-1 3.9-.8l16 3.2a15.9 15.9 0 002.8.7c10 .1 19.6 3.8 29.4 5.2a68.5 68.5 0 009.6.8q34.3 0 68.6-.3c4 0 8.1-.7 12.7-.4a34.7 34.7 0 01-3.1 2.5c-4.9 3-9.8 5.7-14.6 8.8-1.8 1.2-3.8 2.7-1.6 5.7a23.8 23.8 0 003-1.3c8-4.8 16-9.8 24.2-14.5a42.4 42.4 0 017.9-3.1 12.8 12.8 0 0110.4.9 18 18 0 003.5 1.8c1 .3 2-.2 3-.3-.2-1-.1-2.3-.8-3a32.7 32.7 0 00-4.2-3.2c1.2-2.4 3-2.6 4.5-1.6 4.6 3 9 6.5 14.3 10.3-5 2.4-8.9 4.6-13 6.4a74 74 0 00-29 25.4c-2.4 3.5-4.6 7.3-9 10zm-35.8-16.3c1.8-1.5 1-3.1.2-4.6a25 25 0 00-22.3-15 97.6 97.6 0 00-38.3 5.6c-2 .7-5.4.9-4.1 4 1 2.5 3.6.8 5.4 0 10.6-3.7 21.5-5.3 32.7-5.5 10.3-.2 18 3.6 22.8 12.8.7 1.4 1.3 3.2 3.6 2.7zM921.3 985.9a17.4 17.4 0 01-1-3.1c-1.6-11.5-4.3-23-3.3-34.8a28.5 28.5 0 00-.2-4.5c-.1-1.8-.5-3.8-2.6-3.7-1.2 0-2.7 1-3.5 2.1l-10.6 14a10.7 10.7 0 01-4.6 3.6 23 23 0 010-4 234.1 234.1 0 002.7-78.7l.8-1 6.7.8c7.4.8 15 1.8 22.4 2.4 5.6.6 10.8-1.2 15.7-4l15.4-8.9a10 10 0 01.7 2.3l-.2 27.2a211.1 211.1 0 01-1.5 25.4c-1 8.3-.5 16.9-.6 25.4v17c0 1.1-.9 3-1.6 3.2a5.3 5.3 0 01-4-1 18.7 18.7 0 01-3.9-4.8c-4.4-7.2-8.6-14.6-13-21.9-1-1.9-1.8-5.4-5-4-2.6 1.2-.6 4-.4 6 .3 4.7.7 9.5.1 14-.9 7.7-2.4 15.3-4 22.9-.5 2.8-2 5.5-3 8.2z" class="cls-1"/>
      <path d="M498 762.3c11.9-10.2 24.7-4.8 33.5 3.4a10.5 10.5 0 012.7 4.3 53.7 53.7 0 011 38.2c-1.5 3.6-2.7 7.4-4 11-2.7.6-3.6-1.4-4.9-2.6-3.3-3.3-6.1-7.3-11.8-6.6-6.2.8-11 4.1-14.6 8.9-3 4-5.6 8.4-8.4 12.7l-2.2 3.6-37.5-52.4c2.9-4.5 5.3-9.6 8.8-13.5a27.7 27.7 0 0118.7-8.5c12.3-1.1 16.3 3 16.6 15.4a87 87 0 01-5.4 35c-1.5 3.8-2.4 8-3.5 12a4.9 4.9 0 00-.5 2.1 13 13 0 001.4 2.7c.8-.5 1.8-.7 2.2-1.4a32.2 32.2 0 002-5.3c1.3-4.3 2.5-8.7 4-13a81.3 81.3 0 001.8-46zM672.2 806.4c-4.3-5.4-7.9-9.8-14-10.8-5.8-1-11.8-1.4-17.3.9-5 2.2-9.4 5.7-14.6 9a40.7 40.7 0 010-6.3c1-6.7 2.2-13.4 3.6-20a116.3 116.3 0 013.5-13.2c2-6.1 6.3-10.7 11.6-14.2 8.1-5.3 20.3-.3 22.3 9.2 1.2 5.5 1.5 11.1 2.2 16.7.2 1.2-.1 2.4.3 3.4.8 1.6 1.7 3.5 3 4.2.8.3 2.9-1.3 4-2.4 2-1.8 3.5-4 5.2-6 2.9-3 6.1-3.9 10.3-2.4 4.8 1.8 9.3 4.1 12.8 8 5.4 5.8 11.3 11.1 15 18.3a34.4 34.4 0 004.4 6.6 63 63 0 0111.4 23.7c.9 2.8.4 4.6-2.2 6.1l-11.5 7.1-1.7-5.4c-3.3-10-5.7-20.4-11-29.6a44.3 44.3 0 00-3.8-5.6 9.2 9.2 0 00-7.3-3.8l-16.3-.2c-4.5 0-7.5 2.2-9.9 6.7zM570.2 439a38 38 0 0111.4-16.3c11.2-9 12.9-20 9.4-33a45 45 0 00-13-23.3 14.3 14.3 0 01-1.7-2.7c5-3.8 9.7-7.3 15.3-9.6 1.9-.8 3.9-1.4 5.8-2.1 6.2-2.2 12.1-2.1 18 1.3 4.8 2.7 9.8 4.8 13.1 9.5a20.2 20.2 0 012.8 19.8 123.6 123.6 0 01-32.6 48.2c-8 7.3-17.3 10-28.5 8.2zM541.7 743.3a13.4 13.4 0 01-.8-2.8c0-8-2.7-15.2-6.4-22-1.7-3.1-1.5-5.6.6-8.3a41 41 0 0129.9-16c6.2-.7 11.8 2.2 16.7 6a10.9 10.9 0 013.7 5.4 83.4 83.4 0 012.8 25.7 13.2 13.2 0 01-.8 2.6l-5-3.2c-8-5.3-20-4.8-27.3 1.4-3.7 3.1-7.3 6.5-11 9.8a17 17 0 01-2.4 1.4z" class="cls-1"/>
      <path d="M529.8 709.6l-7.1-4V680c3.6-4.5 6.8-8 9.6-12a61.5 61.5 0 0117.6-14.8c4.4-3 8.6-2.2 11.8 2.7 6 9.3 11.8 21.2 5.8 33.2a52.4 52.4 0 00-37.7 20.6zM750.4 731.3c4 5 5.8 10.4 7.7 15.6a677 677 0 018.4 24.6 24 24 0 01.8 13.4l-6.8 28.5c-.6 2.9-.6 5.9-.9 9.6l-18.6 8.8c-.3-1.3-.8-2.1-.6-2.7 3.9-14 7.7-28 11.8-41.8a90 90 0 001.5-32.5c-.5-7-2.1-13.8-3.3-20.6a21.4 21.4 0 010-3zM473.7 132c1.3-7.4 2.7-14 6.7-18.7l13 .8v2.6c0 2.6 1.5 4.1 4 4.6 4 .8 8 .5 11.5-1.6a118.7 118.7 0 0110.9-6c6.3-3 6.7-3.6 5.8-11l10-3.5c3.3 4.6 4 9.6 4.8 14.5.4 2.5-1.9 2.9-3.6 3.6-9.7 4-20 5.6-30.2 7.1-8.4 1.2-16.8 2.5-25.1 4-2.4.5-4.7 2-7.8 3.6zM539.9 124.2c.5 4-1 5.7-2.8 7-3.1 2-6.2 4.5-9.7 5.6a77.2 77.2 0 01-39 2 16.8 16.8 0 01-3.2-1c-.5-.2-.8-.7-1.9-1.7 19-4.8 38.3-4.8 56.6-12zM771.2 788.4c2.8 4.4 4.8 8 7.3 11.2s5.4 5.6 8.4 8.7a58.3 58.3 0 01-23.5 13.2c1.7-11.3 4.5-21.7 7.8-33.1zM489.6 104.4a83 83 0 0130-17.4 26.4 26.4 0 018.3-.3c2.4.2 4.2 1.5 5 4.5a15 15 0 01-3 2l-10.3 3.2-25.3 7.8-4.2 1.2z" class="cls-1"/>
      <path d="M499 116c2-1.3 3.3-2 4.5-2.9.8-.5 2-.9 2.3-1.6 2.2-7.3 7.9-4.4 12.5-4.3.3 0 .6.4.9.6-5.2 5.4-15 9.8-20.1 8.2zM465.4 645.2l-20.1-1.7c4.9-3.5 14-3 20.1 1.7zM225.7 1094.4a24.6 24.6 0 0112 3.6c15.5 9 23 22.8 24.2 40.3.5 7-1 8.4-8 8.5a25.2 25.2 0 01-5-.4c-6.9-1.3-10.2-4.9-10.7-11.8a38.2 38.2 0 01.3-9.6c2-11.5-1.1-20.8-10.9-27.7a29.3 29.3 0 00-3-1.5zM166.5 1106.8c9.3 5.6 9 11 5.9 18.2a31.3 31.3 0 01-16.7 16c-2.8 1.3-4.4 0-4.5-3.6a31.7 31.7 0 016.7-20c2.7-3.5 5.6-6.9 8.6-10.6zM68.8 869.2c8.7 3.3 11.5 7 11.2 15.7a119.8 119.8 0 01-2.4 16.6c-.6 3.5-2.1 6.9-2.7 10.4a37 37 0 01-9.2 17.8c-3.7 4.6-8.5 6.4-14 4.8-5.2-1.5-9.3-4.8-10.6-10a21.6 21.6 0 01-.4-10c1.8-7.7 4-15.2 9.2-21.6 5.8-7.1 11.3-14.6 17-21.9a13 13 0 012-1.8zM220 914.1c6.6 6.3 11.8 12.5 10.4 22.2a13.3 13.3 0 01-4 8.4c-6.2 5.6-12.5 4-14.3-4.3a28.4 28.4 0 01-.2-9c.6-5.4 3.9-12.2 8-17.3z" class="cls-1"/>
      <path d="M849 405.7c6.8 16 13 31.4 19.7 47.3 1.5-6.3 6-7 11.1-6.9 12.5.4 25 .5 37.4 1 12.5.6 22.1 7.2 29.7 16.6a94 94 0 0022.7 21.1 46.4 46.4 0 0013.4 5.6c5 1.3 10.4 1.5 15.7 2.1a23.4 23.4 0 013.3.5c3.1.9 4.8 3 4.7 5.6a5 5 0 01-4.5 5.1 45.6 45.6 0 01-9.6.5 61.8 61.8 0 01-42.3-19c-4.5-4.5-8.8-9.3-13-14-6.1-7-13.1-12-22.8-12.2l-34.5-.9c-3.3-.1-6.6-.9-10.5-1.5 1.8 8.5 5.7 16.5 8.2 25l7.6 26.1c2.4 8.5 4.6 17.1 7.4 25.5 2.8 8.6 6.1 17 9 25.6l8.7 26c9.8-7.7 19-3.8 27.9 1.7a215.5 215.5 0 0126.9 19.8c6.3 5.5 13.7 10 21 14.3a47.1 47.1 0 0118.4 21.5 9.4 9.4 0 01.1 6.6c-1.2 3.6-6.5 3.8-9.4.5a40.4 40.4 0 01-4-6.2 36.8 36.8 0 00-11.6-12.1c-10.2-6.8-20.6-13.2-29.8-21.4-6-5.4-13.2-9.5-20-13.8a23.7 23.7 0 00-7.4-2.7c-3.6-.9-7.2-1.3-11.3-2 3 12.5 6.2 25 8.8 37.7s4.8 25.2 6.5 38 2.8 25.7 4.2 38.5c13.2 1.5 22.1 9.5 30.6 17.7a75.6 75.6 0 0116 23.3 34.1 34.1 0 012.5 8 6.1 6.1 0 01-3.6 7c-3 1-5.6-.3-7.4-3.7s-3-7-4.7-10.3c-6.1-11.7-15.1-20.6-26.4-27.3a45.8 45.8 0 00-5.7-2.4l-.3 5.1c.3 6.6.7 13.2.8 19.8 0 22.4.4 45-.1 67.4-.2 9.5-2.1 19-3.5 28.6a5.7 5.7 0 01-6.3 5.2 5.4 5.4 0 01-5.2-5.7c0-4.6 1-9.3 1.5-14 .4-3.9 1.2-7.8 1.2-11.7.2-26 .3-52.1 0-78.2 0-10.1-1-20.3-2-30.5-1.8-17.6-3.4-35.3-6.1-52.8-2-13.2-5.6-26.2-8.5-39.2-1.5-6.8-3.4-13.6-4.8-20.4-2.4-12-6.7-23.5-11.1-35-3.5-9.1-6.3-18.6-9.3-27.9l-1-3.1c-5.3 3.7-10.6 6.8-15.1 10.8a24 24 0 00-5.8 8.8 69.7 69.7 0 00-3.7 13c-2 9.6-3.4 19.3-5.3 29a84.3 84.3 0 01-7.8 23.5A223.3 223.3 0 00821 655c-3.3 12.2-6.8 24.3-10 36.5-1 3.6-1.1 7.5-1.9 11.2a21.6 21.6 0 01-1.9 5.8 5.6 5.6 0 01-6.7 2.8 5 5 0 01-3.8-5.6 118.8 118.8 0 011.7-13.4 337 337 0 0130.3-88 71.2 71.2 0 005.9-16.4c2.2-9.3 3.5-19 5.5-28.3 1.3-6.3 2.7-12.6 4.6-18.7 3.5-11.3 12-18 22.5-22.3 2.2-1 5.3 0 8.6.2-1.8-6.5-3.5-13.2-5.6-19.8-5-15.7-9.8-31.4-15.3-46.8a371.3 371.3 0 00-15.4-36.5 55 55 0 00-20-21.4 50.5 50.5 0 00-12.6 24.4c-1.4 10-7.4 18-12.1 26.6l-4.6 7.8a6.6 6.6 0 01-6 3.6c-3.6 0-6.1-2.7-5.3-6.3a37.8 37.8 0 013.8-8.8c2.5-4.7 5.4-9 7.8-13.8a37.1 37.1 0 004-9.9 52 52 0 0115.8-30.2 41.5 41.5 0 01-2.6-3.9c-2-3.8.3-8.1 4.6-8a12.7 12.7 0 017.2 2.6c7.2 5.8 14 12 21 18.2 1.3 1.2 2 3 3.8 4.3 1.8-6.2 5.7-6.7 10.8-7a80.6 80.6 0 0019.2-4.3c12.9-4.3 26.2-5.4 39.5-7.3 4-.6 6.7 1.5 7.3 4.7.5 3-1.4 6-5.4 6.8-5.3 1.2-10.8 1.7-16.2 2.9-7.7 1.6-15.4 3.4-23 5.2-8.9 2.1-17.6 5.7-27.4 3.7z"/>
      <path d="M762.2 551.7c0-6.8 3-12.3 6.6-17.4s7.5-10 11-15c7.7-11.4 15.1-23 22.9-34.3q13-19.2 26.4-38a27.4 27.4 0 015.6-5.6c2.8-2.3 6.2-2.2 8.2-.2 2.3 2.2 2.2 5.3-.3 8.7-6.4 8.7-13 17.4-19.3 26.4-7.7 11.2-14.8 22.7-22.4 34a881 881 0 01-17.7 24.8c-4.5 6-9.1 12-9.6 20-.2 3.5-2.6 5.4-5.4 5.5-3.1 0-5.1-2-5.8-5.8l-.2-3zM898.3 660.2a5.3 5.3 0 015.4 6.8c-.5 1.7-1.8 3.3-2.7 4.9l-8.7 13.8c-7.4 11.7-11.5 25-17.6 37.2a94.7 94.7 0 01-18.6 24.7c-2.6 2.7-5.8 3.1-8.1 1.5s-3.1-5.4-1.3-8.6a14.5 14.5 0 012.7-3.6c11-10 16.4-23.2 22-36.4A159 159 0 01891 665c1.8-2.4 4-4.6 7.3-4.8zM359.3 651.8c.2-1.2 0-2.6.6-3.5a45.9 45.9 0 015.3-6.6c8.6-8.7 17.6-17 25.8-26.1 7-7.6 10-17.2 11.7-27.2.8-4.3 1.2-8.6 2-12.9a15.6 15.6 0 0112.8-13.4 12.1 12.1 0 013.9 0 1.6 1.6 0 011 1.1c0 .7-.2 1.7-.6 2a24.9 24.9 0 01-4.3 1.4 11 11 0 00-8.3 9c-.8 4-1.4 7.8-2 11.8a61.2 61.2 0 01-11.3 29.1c-2.2 3-5.2 5.4-7.8 8.2l-24.6 25.6a22 22 0 01-3 2.2zM692 542.4c3.5 1.5 8.9-.2 10.4 5.3-2.2 2.1-4 .1-5.9 0a58.5 58.5 0 00-6.7-.2c-2 0-4.2 1.3-6-1.6 1.7-2.7 3.5-5.7 5.4-8.5s4.1-5.4 6-8.3a31.6 31.6 0 005.6-19.2c-.4-7.1 0-14.3-.2-21.4a33 33 0 00-8.8-22.7c-3-3.3-4.7-3.7-8.2-1s-6.4 5.8-9.6 8.7a81 81 0 01-6.8 6c-.8.5-2.3 0-3.4 0 .2-1 .1-2.4.8-3 4.9-5 9.6-10.3 15-14.5 7.4-5.5 10.8-4 15.7 1.3a36.8 36.8 0 019.7 24.1c.3 8.9.1 17.7 0 26.6-.1 9.4-5.4 16.6-10.5 23.9L692 541c-.2.3-.1.8-.1 1.4zM664.4 559c0-1.3 0-2.7.2-4 .5-3.5 1.4-7 1.4-10.6-.2-9.4-.6-18.8-1.4-28.2a32 32 0 00-2.7-10.3c-2.5-5.8-7-8.6-13.6-7.8a4.5 4.5 0 01-1.6-.4c-.2 0-.3-.2-.6-.5-.4-3 1.7-3.7 4.1-3.7 5.8.1 11 2.3 13.8 7.4a36.8 36.8 0 014.8 13.7c1 11 1.3 22.2 1.6 33.4.1 5.7-1.3 8.4-6 11zM619 640.8a30.2 30.2 0 01-3.1-2.9 6.1 6.1 0 01-.8-2.1 25.6 25.6 0 00-19.1-19.5c-9.6-2.6-18.7-2.3-27 3.9l-2.5 1.6v24.5c0 .4-.6.8-1.6 2-.8-1.6-1.7-2.7-1.8-3.9-.3-3.3-.2-6.8-.2-10.1v-5.7c.5-10.8-3.5-19-13.2-24.4-1.9-1-4.8-1.7-4.5-5 5.8-1.3 14.1 5.4 21.3 17a35.8 35.8 0 0122.4-5.6 37.7 37.7 0 0120.5 7.5 30 30 0 0110.3 18.3c.2 1-.3 2-.7 4.4zM486.3 445.8c-.3-2.8 1.2-3.2 2.7-3.5a13.2 13.2 0 0110.1 2.5c8.2 5.9 13.3 14 15.8 23.4 2.2 8.3 2.7 17 4 25.6a6.3 6.3 0 01-.4 2.8 1.7 1.7 0 01-1.3 1c-.6-.1-1.6-.5-1.8-1a25.7 25.7 0 01-1.1-4.9c-.8-6-1.2-12-2.3-17.9a42.5 42.5 0 00-12-22.6c-3-3-6.5-5-11-4.7a9.8 9.8 0 01-2.7-.7zM709.7 381.7c-2.3.5-2.9-1.3-3.7-2.8-4.8-9.1-12.4-13-22.6-12.7-11.3.2-22.2 1.7-32.8 5.5-1.8.7-4.5 2.4-5.5 0-1.2-3.2 2.2-3.4 4.2-4a97.6 97.6 0 0138.3-5.6c10.3.5 17.7 5.7 22.3 15 .7 1.5 1.6 3-.2 4.6z"/>
    </g>
  </g>
</svg>
